<?xml version="1.0" encoding="utf-8" standalone="no"?>
<!DOCTYPE svg PUBLIC "-//W3C//DTD SVG 1.1//EN"
  "http://www.w3.org/Graphics/SVG/1.1/DTD/svg11.dtd">
<svg xmlns:xlink="http://www.w3.org/1999/xlink" width="504pt" height="360pt" viewBox="0 0 504 360" xmlns="http://www.w3.org/2000/svg" version="1.1">
 <metadata>
  <rdf:RDF xmlns:dc="http://purl.org/dc/elements/1.1/" xmlns:cc="http://creativecommons.org/ns#" xmlns:rdf="http://www.w3.org/1999/02/22-rdf-syntax-ns#">
   <cc:Work>
    <dc:type rdf:resource="http://purl.org/dc/dcmitype/StillImage"/>
    <dc:date>2022-07-03T08:21:17.353840</dc:date>
    <dc:format>image/svg+xml</dc:format>
    <dc:creator>
     <cc:Agent>
      <dc:title>Matplotlib v3.5.1, https://matplotlib.org/</dc:title>
     </cc:Agent>
    </dc:creator>
   </cc:Work>
  </rdf:RDF>
 </metadata>
 <defs>
  <style type="text/css">*{stroke-linejoin: round; stroke-linecap: butt}</style>
 </defs>
 <g id="figure_1">
  <g id="patch_1">
   <path d="M 0 360 
L 504 360 
L 504 0 
L 0 0 
L 0 360 
z
" style="fill: none"/>
  </g>
  <g id="axes_1">
   <g id="patch_2">
    <path d="M 63 315 
L 453.6 315 
L 453.6 43.2 
L 63 43.2 
z
" style="fill: #ffffff"/>
   </g>
   <g id="matplotlib.axis_1">
    <g id="xtick_1">
     <g id="line2d_1">
      <path d="M 80.754545 315 
L 80.754545 43.2 
" clip-path="url(#peaed503a2c)" style="fill: none; stroke: #b0b0b0; stroke-width: 0.8; stroke-linecap: square"/>
     </g>
     <g id="line2d_2">
      <defs>
       <path id="m1fa9958e10" d="M 0 0 
L 0 3.5 
" style="stroke: #000000; stroke-width: 0.8"/>
      </defs>
      <g>
       <use xlink:href="#m1fa9958e10" x="80.754545" y="315" style="stroke: #000000; stroke-width: 0.8"/>
      </g>
     </g>
     <g id="text_1">
      <!-- 0 -->
      <g transform="translate(77.573295 329.598437)scale(0.1 -0.1)">
       <defs>
        <path id="DejaVuSans-30" d="M 2034 4250 
Q 1547 4250 1301 3770 
Q 1056 3291 1056 2328 
Q 1056 1369 1301 889 
Q 1547 409 2034 409 
Q 2525 409 2770 889 
Q 3016 1369 3016 2328 
Q 3016 3291 2770 3770 
Q 2525 4250 2034 4250 
z
M 2034 4750 
Q 2819 4750 3233 4129 
Q 3647 3509 3647 2328 
Q 3647 1150 3233 529 
Q 2819 -91 2034 -91 
Q 1250 -91 836 529 
Q 422 1150 422 2328 
Q 422 3509 836 4129 
Q 1250 4750 2034 4750 
z
" transform="scale(0.015625)"/>
       </defs>
       <use xlink:href="#DejaVuSans-30"/>
      </g>
     </g>
    </g>
    <g id="xtick_2">
     <g id="line2d_3">
      <path d="M 153.222078 315 
L 153.222078 43.2 
" clip-path="url(#peaed503a2c)" style="fill: none; stroke: #b0b0b0; stroke-width: 0.8; stroke-linecap: square"/>
     </g>
     <g id="line2d_4">
      <g>
       <use xlink:href="#m1fa9958e10" x="153.222078" y="315" style="stroke: #000000; stroke-width: 0.8"/>
      </g>
     </g>
     <g id="text_2">
      <!-- 10 -->
      <g transform="translate(146.859578 329.598437)scale(0.1 -0.1)">
       <defs>
        <path id="DejaVuSans-31" d="M 794 531 
L 1825 531 
L 1825 4091 
L 703 3866 
L 703 4441 
L 1819 4666 
L 2450 4666 
L 2450 531 
L 3481 531 
L 3481 0 
L 794 0 
L 794 531 
z
" transform="scale(0.015625)"/>
       </defs>
       <use xlink:href="#DejaVuSans-31"/>
       <use xlink:href="#DejaVuSans-30" x="63.623047"/>
      </g>
     </g>
    </g>
    <g id="xtick_3">
     <g id="line2d_5">
      <path d="M 225.68961 315 
L 225.68961 43.2 
" clip-path="url(#peaed503a2c)" style="fill: none; stroke: #b0b0b0; stroke-width: 0.8; stroke-linecap: square"/>
     </g>
     <g id="line2d_6">
      <g>
       <use xlink:href="#m1fa9958e10" x="225.68961" y="315" style="stroke: #000000; stroke-width: 0.8"/>
      </g>
     </g>
     <g id="text_3">
      <!-- 20 -->
      <g transform="translate(219.32711 329.598437)scale(0.1 -0.1)">
       <defs>
        <path id="DejaVuSans-32" d="M 1228 531 
L 3431 531 
L 3431 0 
L 469 0 
L 469 531 
Q 828 903 1448 1529 
Q 2069 2156 2228 2338 
Q 2531 2678 2651 2914 
Q 2772 3150 2772 3378 
Q 2772 3750 2511 3984 
Q 2250 4219 1831 4219 
Q 1534 4219 1204 4116 
Q 875 4013 500 3803 
L 500 4441 
Q 881 4594 1212 4672 
Q 1544 4750 1819 4750 
Q 2544 4750 2975 4387 
Q 3406 4025 3406 3419 
Q 3406 3131 3298 2873 
Q 3191 2616 2906 2266 
Q 2828 2175 2409 1742 
Q 1991 1309 1228 531 
z
" transform="scale(0.015625)"/>
       </defs>
       <use xlink:href="#DejaVuSans-32"/>
       <use xlink:href="#DejaVuSans-30" x="63.623047"/>
      </g>
     </g>
    </g>
    <g id="xtick_4">
     <g id="line2d_7">
      <path d="M 298.157143 315 
L 298.157143 43.2 
" clip-path="url(#peaed503a2c)" style="fill: none; stroke: #b0b0b0; stroke-width: 0.8; stroke-linecap: square"/>
     </g>
     <g id="line2d_8">
      <g>
       <use xlink:href="#m1fa9958e10" x="298.157143" y="315" style="stroke: #000000; stroke-width: 0.8"/>
      </g>
     </g>
     <g id="text_4">
      <!-- 30 -->
      <g transform="translate(291.794643 329.598437)scale(0.1 -0.1)">
       <defs>
        <path id="DejaVuSans-33" d="M 2597 2516 
Q 3050 2419 3304 2112 
Q 3559 1806 3559 1356 
Q 3559 666 3084 287 
Q 2609 -91 1734 -91 
Q 1441 -91 1130 -33 
Q 819 25 488 141 
L 488 750 
Q 750 597 1062 519 
Q 1375 441 1716 441 
Q 2309 441 2620 675 
Q 2931 909 2931 1356 
Q 2931 1769 2642 2001 
Q 2353 2234 1838 2234 
L 1294 2234 
L 1294 2753 
L 1863 2753 
Q 2328 2753 2575 2939 
Q 2822 3125 2822 3475 
Q 2822 3834 2567 4026 
Q 2313 4219 1838 4219 
Q 1578 4219 1281 4162 
Q 984 4106 628 3988 
L 628 4550 
Q 988 4650 1302 4700 
Q 1616 4750 1894 4750 
Q 2613 4750 3031 4423 
Q 3450 4097 3450 3541 
Q 3450 3153 3228 2886 
Q 3006 2619 2597 2516 
z
" transform="scale(0.015625)"/>
       </defs>
       <use xlink:href="#DejaVuSans-33"/>
       <use xlink:href="#DejaVuSans-30" x="63.623047"/>
      </g>
     </g>
    </g>
    <g id="xtick_5">
     <g id="line2d_9">
      <path d="M 370.624675 315 
L 370.624675 43.2 
" clip-path="url(#peaed503a2c)" style="fill: none; stroke: #b0b0b0; stroke-width: 0.8; stroke-linecap: square"/>
     </g>
     <g id="line2d_10">
      <g>
       <use xlink:href="#m1fa9958e10" x="370.624675" y="315" style="stroke: #000000; stroke-width: 0.8"/>
      </g>
     </g>
     <g id="text_5">
      <!-- 40 -->
      <g transform="translate(364.262175 329.598437)scale(0.1 -0.1)">
       <defs>
        <path id="DejaVuSans-34" d="M 2419 4116 
L 825 1625 
L 2419 1625 
L 2419 4116 
z
M 2253 4666 
L 3047 4666 
L 3047 1625 
L 3713 1625 
L 3713 1100 
L 3047 1100 
L 3047 0 
L 2419 0 
L 2419 1100 
L 313 1100 
L 313 1709 
L 2253 4666 
z
" transform="scale(0.015625)"/>
       </defs>
       <use xlink:href="#DejaVuSans-34"/>
       <use xlink:href="#DejaVuSans-30" x="63.623047"/>
      </g>
     </g>
    </g>
    <g id="xtick_6">
     <g id="line2d_11">
      <path d="M 443.092208 315 
L 443.092208 43.2 
" clip-path="url(#peaed503a2c)" style="fill: none; stroke: #b0b0b0; stroke-width: 0.8; stroke-linecap: square"/>
     </g>
     <g id="line2d_12">
      <g>
       <use xlink:href="#m1fa9958e10" x="443.092208" y="315" style="stroke: #000000; stroke-width: 0.8"/>
      </g>
     </g>
     <g id="text_6">
      <!-- 50 -->
      <g transform="translate(436.729708 329.598437)scale(0.1 -0.1)">
       <defs>
        <path id="DejaVuSans-35" d="M 691 4666 
L 3169 4666 
L 3169 4134 
L 1269 4134 
L 1269 2991 
Q 1406 3038 1543 3061 
Q 1681 3084 1819 3084 
Q 2600 3084 3056 2656 
Q 3513 2228 3513 1497 
Q 3513 744 3044 326 
Q 2575 -91 1722 -91 
Q 1428 -91 1123 -41 
Q 819 9 494 109 
L 494 744 
Q 775 591 1075 516 
Q 1375 441 1709 441 
Q 2250 441 2565 725 
Q 2881 1009 2881 1497 
Q 2881 1984 2565 2268 
Q 2250 2553 1709 2553 
Q 1456 2553 1204 2497 
Q 953 2441 691 2322 
L 691 4666 
z
" transform="scale(0.015625)"/>
       </defs>
       <use xlink:href="#DejaVuSans-35"/>
       <use xlink:href="#DejaVuSans-30" x="63.623047"/>
      </g>
     </g>
    </g>
    <g id="text_7">
     <!-- Epoch -->
     <g transform="translate(235.333594 347.075781)scale(0.15 -0.15)">
      <defs>
       <path id="DejaVuSans-45" d="M 628 4666 
L 3578 4666 
L 3578 4134 
L 1259 4134 
L 1259 2753 
L 3481 2753 
L 3481 2222 
L 1259 2222 
L 1259 531 
L 3634 531 
L 3634 0 
L 628 0 
L 628 4666 
z
" transform="scale(0.015625)"/>
       <path id="DejaVuSans-70" d="M 1159 525 
L 1159 -1331 
L 581 -1331 
L 581 3500 
L 1159 3500 
L 1159 2969 
Q 1341 3281 1617 3432 
Q 1894 3584 2278 3584 
Q 2916 3584 3314 3078 
Q 3713 2572 3713 1747 
Q 3713 922 3314 415 
Q 2916 -91 2278 -91 
Q 1894 -91 1617 61 
Q 1341 213 1159 525 
z
M 3116 1747 
Q 3116 2381 2855 2742 
Q 2594 3103 2138 3103 
Q 1681 3103 1420 2742 
Q 1159 2381 1159 1747 
Q 1159 1113 1420 752 
Q 1681 391 2138 391 
Q 2594 391 2855 752 
Q 3116 1113 3116 1747 
z
" transform="scale(0.015625)"/>
       <path id="DejaVuSans-6f" d="M 1959 3097 
Q 1497 3097 1228 2736 
Q 959 2375 959 1747 
Q 959 1119 1226 758 
Q 1494 397 1959 397 
Q 2419 397 2687 759 
Q 2956 1122 2956 1747 
Q 2956 2369 2687 2733 
Q 2419 3097 1959 3097 
z
M 1959 3584 
Q 2709 3584 3137 3096 
Q 3566 2609 3566 1747 
Q 3566 888 3137 398 
Q 2709 -91 1959 -91 
Q 1206 -91 779 398 
Q 353 888 353 1747 
Q 353 2609 779 3096 
Q 1206 3584 1959 3584 
z
" transform="scale(0.015625)"/>
       <path id="DejaVuSans-63" d="M 3122 3366 
L 3122 2828 
Q 2878 2963 2633 3030 
Q 2388 3097 2138 3097 
Q 1578 3097 1268 2742 
Q 959 2388 959 1747 
Q 959 1106 1268 751 
Q 1578 397 2138 397 
Q 2388 397 2633 464 
Q 2878 531 3122 666 
L 3122 134 
Q 2881 22 2623 -34 
Q 2366 -91 2075 -91 
Q 1284 -91 818 406 
Q 353 903 353 1747 
Q 353 2603 823 3093 
Q 1294 3584 2113 3584 
Q 2378 3584 2631 3529 
Q 2884 3475 3122 3366 
z
" transform="scale(0.015625)"/>
       <path id="DejaVuSans-68" d="M 3513 2113 
L 3513 0 
L 2938 0 
L 2938 2094 
Q 2938 2591 2744 2837 
Q 2550 3084 2163 3084 
Q 1697 3084 1428 2787 
Q 1159 2491 1159 1978 
L 1159 0 
L 581 0 
L 581 4863 
L 1159 4863 
L 1159 2956 
Q 1366 3272 1645 3428 
Q 1925 3584 2291 3584 
Q 2894 3584 3203 3211 
Q 3513 2838 3513 2113 
z
" transform="scale(0.015625)"/>
      </defs>
      <use xlink:href="#DejaVuSans-45"/>
      <use xlink:href="#DejaVuSans-70" x="63.183594"/>
      <use xlink:href="#DejaVuSans-6f" x="126.660156"/>
      <use xlink:href="#DejaVuSans-63" x="187.841797"/>
      <use xlink:href="#DejaVuSans-68" x="242.822266"/>
     </g>
    </g>
   </g>
   <g id="matplotlib.axis_2">
    <g id="ytick_1">
     <g id="line2d_13">
      <path d="M 63 95.794137 
L 453.6 95.794137 
" clip-path="url(#peaed503a2c)" style="fill: none; stroke: #b0b0b0; stroke-width: 0.8; stroke-linecap: square"/>
     </g>
     <g id="line2d_14">
      <defs>
       <path id="m2dfe6bff86" d="M 0 0 
L -3.5 0 
" style="stroke: #000000; stroke-width: 0.8"/>
      </defs>
      <g>
       <use xlink:href="#m2dfe6bff86" x="63" y="95.794137" style="stroke: #000000; stroke-width: 0.8"/>
      </g>
     </g>
     <g id="text_8">
      <!-- $\mathdefault{10^{0}}$ -->
      <g transform="translate(38.4 99.593356)scale(0.1 -0.1)">
       <use xlink:href="#DejaVuSans-31" transform="translate(0 0.765625)"/>
       <use xlink:href="#DejaVuSans-30" transform="translate(63.623047 0.765625)"/>
       <use xlink:href="#DejaVuSans-30" transform="translate(128.203125 39.046875)scale(0.7)"/>
      </g>
     </g>
    </g>
    <g id="ytick_2">
     <g id="line2d_15">
      <defs>
       <path id="m6c8cab452d" d="M 0 0 
L -2 0 
" style="stroke: #000000; stroke-width: 0.6"/>
      </defs>
      <g>
       <use xlink:href="#m6c8cab452d" x="63" y="279.014138" style="stroke: #000000; stroke-width: 0.6"/>
      </g>
     </g>
     <g id="text_9">
      <!-- $\mathdefault{3\times10^{-1}}$ -->
      <g transform="translate(15.5 282.813356)scale(0.1 -0.1)">
       <defs>
        <path id="DejaVuSans-d7" d="M 4488 3438 
L 3059 2003 
L 4488 575 
L 4116 197 
L 2681 1631 
L 1247 197 
L 878 575 
L 2303 2003 
L 878 3438 
L 1247 3816 
L 2681 2381 
L 4116 3816 
L 4488 3438 
z
" transform="scale(0.015625)"/>
        <path id="DejaVuSans-2212" d="M 678 2272 
L 4684 2272 
L 4684 1741 
L 678 1741 
L 678 2272 
z
" transform="scale(0.015625)"/>
       </defs>
       <use xlink:href="#DejaVuSans-33" transform="translate(0 0.684375)"/>
       <use xlink:href="#DejaVuSans-d7" transform="translate(83.105469 0.684375)"/>
       <use xlink:href="#DejaVuSans-31" transform="translate(186.376953 0.684375)"/>
       <use xlink:href="#DejaVuSans-30" transform="translate(250 0.684375)"/>
       <use xlink:href="#DejaVuSans-2212" transform="translate(314.580078 38.965625)scale(0.7)"/>
       <use xlink:href="#DejaVuSans-31" transform="translate(373.232422 38.965625)scale(0.7)"/>
      </g>
     </g>
    </g>
    <g id="ytick_3">
     <g id="line2d_16">
      <g>
       <use xlink:href="#m6c8cab452d" x="63" y="235.234819" style="stroke: #000000; stroke-width: 0.6"/>
      </g>
     </g>
     <g id="text_10">
      <!-- $\mathdefault{4\times10^{-1}}$ -->
      <g transform="translate(15.5 239.034037)scale(0.1 -0.1)">
       <use xlink:href="#DejaVuSans-34" transform="translate(0 0.684375)"/>
       <use xlink:href="#DejaVuSans-d7" transform="translate(83.105469 0.684375)"/>
       <use xlink:href="#DejaVuSans-31" transform="translate(186.376953 0.684375)"/>
       <use xlink:href="#DejaVuSans-30" transform="translate(250 0.684375)"/>
       <use xlink:href="#DejaVuSans-2212" transform="translate(314.580078 38.965625)scale(0.7)"/>
       <use xlink:href="#DejaVuSans-31" transform="translate(373.232422 38.965625)scale(0.7)"/>
      </g>
     </g>
    </g>
    <g id="ytick_4">
     <g id="line2d_17">
      <g>
       <use xlink:href="#m6c8cab452d" x="63" y="201.276941" style="stroke: #000000; stroke-width: 0.6"/>
      </g>
     </g>
    </g>
    <g id="ytick_5">
     <g id="line2d_18">
      <g>
       <use xlink:href="#m6c8cab452d" x="63" y="173.531334" style="stroke: #000000; stroke-width: 0.6"/>
      </g>
     </g>
     <g id="text_11">
      <!-- $\mathdefault{6\times10^{-1}}$ -->
      <g transform="translate(15.5 177.330553)scale(0.1 -0.1)">
       <defs>
        <path id="DejaVuSans-36" d="M 2113 2584 
Q 1688 2584 1439 2293 
Q 1191 2003 1191 1497 
Q 1191 994 1439 701 
Q 1688 409 2113 409 
Q 2538 409 2786 701 
Q 3034 994 3034 1497 
Q 3034 2003 2786 2293 
Q 2538 2584 2113 2584 
z
M 3366 4563 
L 3366 3988 
Q 3128 4100 2886 4159 
Q 2644 4219 2406 4219 
Q 1781 4219 1451 3797 
Q 1122 3375 1075 2522 
Q 1259 2794 1537 2939 
Q 1816 3084 2150 3084 
Q 2853 3084 3261 2657 
Q 3669 2231 3669 1497 
Q 3669 778 3244 343 
Q 2819 -91 2113 -91 
Q 1303 -91 875 529 
Q 447 1150 447 2328 
Q 447 3434 972 4092 
Q 1497 4750 2381 4750 
Q 2619 4750 2861 4703 
Q 3103 4656 3366 4563 
z
" transform="scale(0.015625)"/>
       </defs>
       <use xlink:href="#DejaVuSans-36" transform="translate(0 0.684375)"/>
       <use xlink:href="#DejaVuSans-d7" transform="translate(83.105469 0.684375)"/>
       <use xlink:href="#DejaVuSans-31" transform="translate(186.376953 0.684375)"/>
       <use xlink:href="#DejaVuSans-30" transform="translate(250 0.684375)"/>
       <use xlink:href="#DejaVuSans-2212" transform="translate(314.580078 38.965625)scale(0.7)"/>
       <use xlink:href="#DejaVuSans-31" transform="translate(373.232422 38.965625)scale(0.7)"/>
      </g>
     </g>
    </g>
    <g id="ytick_6">
     <g id="line2d_19">
      <g>
       <use xlink:href="#m6c8cab452d" x="63" y="150.072758" style="stroke: #000000; stroke-width: 0.6"/>
      </g>
     </g>
    </g>
    <g id="ytick_7">
     <g id="line2d_20">
      <g>
       <use xlink:href="#m6c8cab452d" x="63" y="129.752015" style="stroke: #000000; stroke-width: 0.6"/>
      </g>
     </g>
    </g>
    <g id="ytick_8">
     <g id="line2d_21">
      <g>
       <use xlink:href="#m6c8cab452d" x="63" y="111.827849" style="stroke: #000000; stroke-width: 0.6"/>
      </g>
     </g>
    </g>
    <g id="text_12">
     <!-- Loss -->
     <g transform="translate(8.380469 195.550781)rotate(-90)scale(0.15 -0.15)">
      <defs>
       <path id="DejaVuSans-4c" d="M 628 4666 
L 1259 4666 
L 1259 531 
L 3531 531 
L 3531 0 
L 628 0 
L 628 4666 
z
" transform="scale(0.015625)"/>
       <path id="DejaVuSans-73" d="M 2834 3397 
L 2834 2853 
Q 2591 2978 2328 3040 
Q 2066 3103 1784 3103 
Q 1356 3103 1142 2972 
Q 928 2841 928 2578 
Q 928 2378 1081 2264 
Q 1234 2150 1697 2047 
L 1894 2003 
Q 2506 1872 2764 1633 
Q 3022 1394 3022 966 
Q 3022 478 2636 193 
Q 2250 -91 1575 -91 
Q 1294 -91 989 -36 
Q 684 19 347 128 
L 347 722 
Q 666 556 975 473 
Q 1284 391 1588 391 
Q 1994 391 2212 530 
Q 2431 669 2431 922 
Q 2431 1156 2273 1281 
Q 2116 1406 1581 1522 
L 1381 1569 
Q 847 1681 609 1914 
Q 372 2147 372 2553 
Q 372 3047 722 3315 
Q 1072 3584 1716 3584 
Q 2034 3584 2315 3537 
Q 2597 3491 2834 3397 
z
" transform="scale(0.015625)"/>
      </defs>
      <use xlink:href="#DejaVuSans-4c"/>
      <use xlink:href="#DejaVuSans-6f" x="53.962891"/>
      <use xlink:href="#DejaVuSans-73" x="115.144531"/>
      <use xlink:href="#DejaVuSans-73" x="167.244141"/>
     </g>
    </g>
   </g>
   <g id="line2d_22">
    <path d="M 80.754545 55.554545 
L 88.001299 188.130936 
L 95.248052 210.763182 
L 102.494805 222.057183 
L 109.741558 230.822208 
L 116.988312 234.330426 
L 124.235065 240.601377 
L 131.481818 244.106826 
L 138.728571 248.631945 
L 145.975325 251.833942 
L 153.222078 252.758067 
L 160.468831 255.217063 
L 167.715584 257.807057 
L 174.962338 261.550606 
L 182.209091 264.680883 
L 189.455844 265.200627 
L 196.702597 265.814527 
L 203.949351 268.021456 
L 211.196104 270.188245 
L 218.442857 274.360444 
L 225.68961 272.655559 
L 232.936364 274.969431 
L 240.183117 275.493818 
L 247.42987 277.1162 
L 254.676623 279.81557 
L 261.923377 281.868126 
L 269.17013 282.732484 
L 276.416883 282.520134 
L 283.663636 284.479815 
L 290.91039 283.764697 
L 298.157143 286.501613 
L 305.403896 286.488179 
L 312.650649 288.228777 
L 319.897403 288.964024 
L 327.144156 290.877501 
L 334.390909 290.941678 
L 341.637662 291.124502 
L 348.884416 290.613621 
L 356.131169 293.045254 
L 363.377922 294.721535 
L 370.624675 294.625572 
L 377.871429 293.632195 
L 385.118182 295.814069 
L 392.364935 297.282778 
L 399.611688 300.138588 
L 406.858442 300.542289 
L 414.105195 301.039304 
L 421.351948 302.645455 
L 428.598701 299.11464 
L 435.845455 301.404644 
" clip-path="url(#peaed503a2c)" style="fill: none; stroke-dasharray: 5.55,2.4; stroke-dashoffset: 0; stroke: #ff0000; stroke-width: 1.5"/>
    <defs>
     <path id="m8a9e486b08" d="M 0 3 
C 0.795609 3 1.55874 2.683901 2.12132 2.12132 
C 2.683901 1.55874 3 0.795609 3 0 
C 3 -0.795609 2.683901 -1.55874 2.12132 -2.12132 
C 1.55874 -2.683901 0.795609 -3 0 -3 
C -0.795609 -3 -1.55874 -2.683901 -2.12132 -2.12132 
C -2.683901 -1.55874 -3 -0.795609 -3 0 
C -3 0.795609 -2.683901 1.55874 -2.12132 2.12132 
C -1.55874 2.683901 -0.795609 3 0 3 
z
" style="stroke: #ff0000"/>
    </defs>
    <g clip-path="url(#peaed503a2c)">
     <use xlink:href="#m8a9e486b08" x="80.754545" y="55.554545" style="fill: #ff0000; stroke: #ff0000"/>
     <use xlink:href="#m8a9e486b08" x="88.001299" y="188.130936" style="fill: #ff0000; stroke: #ff0000"/>
     <use xlink:href="#m8a9e486b08" x="95.248052" y="210.763182" style="fill: #ff0000; stroke: #ff0000"/>
     <use xlink:href="#m8a9e486b08" x="102.494805" y="222.057183" style="fill: #ff0000; stroke: #ff0000"/>
     <use xlink:href="#m8a9e486b08" x="109.741558" y="230.822208" style="fill: #ff0000; stroke: #ff0000"/>
     <use xlink:href="#m8a9e486b08" x="116.988312" y="234.330426" style="fill: #ff0000; stroke: #ff0000"/>
     <use xlink:href="#m8a9e486b08" x="124.235065" y="240.601377" style="fill: #ff0000; stroke: #ff0000"/>
     <use xlink:href="#m8a9e486b08" x="131.481818" y="244.106826" style="fill: #ff0000; stroke: #ff0000"/>
     <use xlink:href="#m8a9e486b08" x="138.728571" y="248.631945" style="fill: #ff0000; stroke: #ff0000"/>
     <use xlink:href="#m8a9e486b08" x="145.975325" y="251.833942" style="fill: #ff0000; stroke: #ff0000"/>
     <use xlink:href="#m8a9e486b08" x="153.222078" y="252.758067" style="fill: #ff0000; stroke: #ff0000"/>
     <use xlink:href="#m8a9e486b08" x="160.468831" y="255.217063" style="fill: #ff0000; stroke: #ff0000"/>
     <use xlink:href="#m8a9e486b08" x="167.715584" y="257.807057" style="fill: #ff0000; stroke: #ff0000"/>
     <use xlink:href="#m8a9e486b08" x="174.962338" y="261.550606" style="fill: #ff0000; stroke: #ff0000"/>
     <use xlink:href="#m8a9e486b08" x="182.209091" y="264.680883" style="fill: #ff0000; stroke: #ff0000"/>
     <use xlink:href="#m8a9e486b08" x="189.455844" y="265.200627" style="fill: #ff0000; stroke: #ff0000"/>
     <use xlink:href="#m8a9e486b08" x="196.702597" y="265.814527" style="fill: #ff0000; stroke: #ff0000"/>
     <use xlink:href="#m8a9e486b08" x="203.949351" y="268.021456" style="fill: #ff0000; stroke: #ff0000"/>
     <use xlink:href="#m8a9e486b08" x="211.196104" y="270.188245" style="fill: #ff0000; stroke: #ff0000"/>
     <use xlink:href="#m8a9e486b08" x="218.442857" y="274.360444" style="fill: #ff0000; stroke: #ff0000"/>
     <use xlink:href="#m8a9e486b08" x="225.68961" y="272.655559" style="fill: #ff0000; stroke: #ff0000"/>
     <use xlink:href="#m8a9e486b08" x="232.936364" y="274.969431" style="fill: #ff0000; stroke: #ff0000"/>
     <use xlink:href="#m8a9e486b08" x="240.183117" y="275.493818" style="fill: #ff0000; stroke: #ff0000"/>
     <use xlink:href="#m8a9e486b08" x="247.42987" y="277.1162" style="fill: #ff0000; stroke: #ff0000"/>
     <use xlink:href="#m8a9e486b08" x="254.676623" y="279.81557" style="fill: #ff0000; stroke: #ff0000"/>
     <use xlink:href="#m8a9e486b08" x="261.923377" y="281.868126" style="fill: #ff0000; stroke: #ff0000"/>
     <use xlink:href="#m8a9e486b08" x="269.17013" y="282.732484" style="fill: #ff0000; stroke: #ff0000"/>
     <use xlink:href="#m8a9e486b08" x="276.416883" y="282.520134" style="fill: #ff0000; stroke: #ff0000"/>
     <use xlink:href="#m8a9e486b08" x="283.663636" y="284.479815" style="fill: #ff0000; stroke: #ff0000"/>
     <use xlink:href="#m8a9e486b08" x="290.91039" y="283.764697" style="fill: #ff0000; stroke: #ff0000"/>
     <use xlink:href="#m8a9e486b08" x="298.157143" y="286.501613" style="fill: #ff0000; stroke: #ff0000"/>
     <use xlink:href="#m8a9e486b08" x="305.403896" y="286.488179" style="fill: #ff0000; stroke: #ff0000"/>
     <use xlink:href="#m8a9e486b08" x="312.650649" y="288.228777" style="fill: #ff0000; stroke: #ff0000"/>
     <use xlink:href="#m8a9e486b08" x="319.897403" y="288.964024" style="fill: #ff0000; stroke: #ff0000"/>
     <use xlink:href="#m8a9e486b08" x="327.144156" y="290.877501" style="fill: #ff0000; stroke: #ff0000"/>
     <use xlink:href="#m8a9e486b08" x="334.390909" y="290.941678" style="fill: #ff0000; stroke: #ff0000"/>
     <use xlink:href="#m8a9e486b08" x="341.637662" y="291.124502" style="fill: #ff0000; stroke: #ff0000"/>
     <use xlink:href="#m8a9e486b08" x="348.884416" y="290.613621" style="fill: #ff0000; stroke: #ff0000"/>
     <use xlink:href="#m8a9e486b08" x="356.131169" y="293.045254" style="fill: #ff0000; stroke: #ff0000"/>
     <use xlink:href="#m8a9e486b08" x="363.377922" y="294.721535" style="fill: #ff0000; stroke: #ff0000"/>
     <use xlink:href="#m8a9e486b08" x="370.624675" y="294.625572" style="fill: #ff0000; stroke: #ff0000"/>
     <use xlink:href="#m8a9e486b08" x="377.871429" y="293.632195" style="fill: #ff0000; stroke: #ff0000"/>
     <use xlink:href="#m8a9e486b08" x="385.118182" y="295.814069" style="fill: #ff0000; stroke: #ff0000"/>
     <use xlink:href="#m8a9e486b08" x="392.364935" y="297.282778" style="fill: #ff0000; stroke: #ff0000"/>
     <use xlink:href="#m8a9e486b08" x="399.611688" y="300.138588" style="fill: #ff0000; stroke: #ff0000"/>
     <use xlink:href="#m8a9e486b08" x="406.858442" y="300.542289" style="fill: #ff0000; stroke: #ff0000"/>
     <use xlink:href="#m8a9e486b08" x="414.105195" y="301.039304" style="fill: #ff0000; stroke: #ff0000"/>
     <use xlink:href="#m8a9e486b08" x="421.351948" y="302.645455" style="fill: #ff0000; stroke: #ff0000"/>
     <use xlink:href="#m8a9e486b08" x="428.598701" y="299.11464" style="fill: #ff0000; stroke: #ff0000"/>
     <use xlink:href="#m8a9e486b08" x="435.845455" y="301.404644" style="fill: #ff0000; stroke: #ff0000"/>
    </g>
   </g>
   <g id="line2d_23">
    <path d="M 80.754545 169.57523 
L 88.001299 194.358547 
L 95.248052 211.487672 
L 102.494805 220.611114 
L 109.741558 227.164209 
L 116.988312 237.215702 
L 124.235065 238.044904 
L 131.481818 239.320981 
L 138.728571 243.133922 
L 145.975325 242.791717 
L 153.222078 241.782314 
L 160.468831 243.939218 
L 167.715584 248.843088 
L 174.962338 251.625923 
L 182.209091 254.961383 
L 189.455844 248.225836 
L 196.702597 256.743841 
L 203.949351 253.093979 
L 211.196104 255.411669 
L 218.442857 251.714671 
L 225.68961 260.424207 
L 232.936364 256.426093 
L 240.183117 263.569457 
L 247.42987 260.464444 
L 254.676623 256.160986 
L 261.923377 263.093773 
L 269.17013 257.760049 
L 276.416883 260.479313 
L 283.663636 263.535478 
L 290.91039 255.107979 
L 298.157143 257.75646 
L 305.403896 257.940521 
L 312.650649 259.437401 
L 319.897403 254.516145 
L 327.144156 257.113327 
L 334.390909 251.695859 
L 341.637662 263.624279 
L 348.884416 255.00663 
L 356.131169 260.968311 
L 363.377922 260.655577 
L 370.624675 263.359122 
L 377.871429 257.741881 
L 385.118182 257.634467 
L 392.364935 262.57796 
L 399.611688 262.431 
L 406.858442 257.032182 
L 414.105195 257.741395 
L 421.351948 254.070832 
L 428.598701 259.900295 
L 435.845455 253.079037 
" clip-path="url(#peaed503a2c)" style="fill: none; stroke-dasharray: 5.55,2.4; stroke-dashoffset: 0; stroke: #008000; stroke-width: 1.5"/>
    <defs>
     <path id="m5ce8dee8df" d="M 0 3 
C 0.795609 3 1.55874 2.683901 2.12132 2.12132 
C 2.683901 1.55874 3 0.795609 3 0 
C 3 -0.795609 2.683901 -1.55874 2.12132 -2.12132 
C 1.55874 -2.683901 0.795609 -3 0 -3 
C -0.795609 -3 -1.55874 -2.683901 -2.12132 -2.12132 
C -2.683901 -1.55874 -3 -0.795609 -3 0 
C -3 0.795609 -2.683901 1.55874 -2.12132 2.12132 
C -1.55874 2.683901 -0.795609 3 0 3 
z
" style="stroke: #008000"/>
    </defs>
    <g clip-path="url(#peaed503a2c)">
     <use xlink:href="#m5ce8dee8df" x="80.754545" y="169.57523" style="fill: #008000; stroke: #008000"/>
     <use xlink:href="#m5ce8dee8df" x="88.001299" y="194.358547" style="fill: #008000; stroke: #008000"/>
     <use xlink:href="#m5ce8dee8df" x="95.248052" y="211.487672" style="fill: #008000; stroke: #008000"/>
     <use xlink:href="#m5ce8dee8df" x="102.494805" y="220.611114" style="fill: #008000; stroke: #008000"/>
     <use xlink:href="#m5ce8dee8df" x="109.741558" y="227.164209" style="fill: #008000; stroke: #008000"/>
     <use xlink:href="#m5ce8dee8df" x="116.988312" y="237.215702" style="fill: #008000; stroke: #008000"/>
     <use xlink:href="#m5ce8dee8df" x="124.235065" y="238.044904" style="fill: #008000; stroke: #008000"/>
     <use xlink:href="#m5ce8dee8df" x="131.481818" y="239.320981" style="fill: #008000; stroke: #008000"/>
     <use xlink:href="#m5ce8dee8df" x="138.728571" y="243.133922" style="fill: #008000; stroke: #008000"/>
     <use xlink:href="#m5ce8dee8df" x="145.975325" y="242.791717" style="fill: #008000; stroke: #008000"/>
     <use xlink:href="#m5ce8dee8df" x="153.222078" y="241.782314" style="fill: #008000; stroke: #008000"/>
     <use xlink:href="#m5ce8dee8df" x="160.468831" y="243.939218" style="fill: #008000; stroke: #008000"/>
     <use xlink:href="#m5ce8dee8df" x="167.715584" y="248.843088" style="fill: #008000; stroke: #008000"/>
     <use xlink:href="#m5ce8dee8df" x="174.962338" y="251.625923" style="fill: #008000; stroke: #008000"/>
     <use xlink:href="#m5ce8dee8df" x="182.209091" y="254.961383" style="fill: #008000; stroke: #008000"/>
     <use xlink:href="#m5ce8dee8df" x="189.455844" y="248.225836" style="fill: #008000; stroke: #008000"/>
     <use xlink:href="#m5ce8dee8df" x="196.702597" y="256.743841" style="fill: #008000; stroke: #008000"/>
     <use xlink:href="#m5ce8dee8df" x="203.949351" y="253.093979" style="fill: #008000; stroke: #008000"/>
     <use xlink:href="#m5ce8dee8df" x="211.196104" y="255.411669" style="fill: #008000; stroke: #008000"/>
     <use xlink:href="#m5ce8dee8df" x="218.442857" y="251.714671" style="fill: #008000; stroke: #008000"/>
     <use xlink:href="#m5ce8dee8df" x="225.68961" y="260.424207" style="fill: #008000; stroke: #008000"/>
     <use xlink:href="#m5ce8dee8df" x="232.936364" y="256.426093" style="fill: #008000; stroke: #008000"/>
     <use xlink:href="#m5ce8dee8df" x="240.183117" y="263.569457" style="fill: #008000; stroke: #008000"/>
     <use xlink:href="#m5ce8dee8df" x="247.42987" y="260.464444" style="fill: #008000; stroke: #008000"/>
     <use xlink:href="#m5ce8dee8df" x="254.676623" y="256.160986" style="fill: #008000; stroke: #008000"/>
     <use xlink:href="#m5ce8dee8df" x="261.923377" y="263.093773" style="fill: #008000; stroke: #008000"/>
     <use xlink:href="#m5ce8dee8df" x="269.17013" y="257.760049" style="fill: #008000; stroke: #008000"/>
     <use xlink:href="#m5ce8dee8df" x="276.416883" y="260.479313" style="fill: #008000; stroke: #008000"/>
     <use xlink:href="#m5ce8dee8df" x="283.663636" y="263.535478" style="fill: #008000; stroke: #008000"/>
     <use xlink:href="#m5ce8dee8df" x="290.91039" y="255.107979" style="fill: #008000; stroke: #008000"/>
     <use xlink:href="#m5ce8dee8df" x="298.157143" y="257.75646" style="fill: #008000; stroke: #008000"/>
     <use xlink:href="#m5ce8dee8df" x="305.403896" y="257.940521" style="fill: #008000; stroke: #008000"/>
     <use xlink:href="#m5ce8dee8df" x="312.650649" y="259.437401" style="fill: #008000; stroke: #008000"/>
     <use xlink:href="#m5ce8dee8df" x="319.897403" y="254.516145" style="fill: #008000; stroke: #008000"/>
     <use xlink:href="#m5ce8dee8df" x="327.144156" y="257.113327" style="fill: #008000; stroke: #008000"/>
     <use xlink:href="#m5ce8dee8df" x="334.390909" y="251.695859" style="fill: #008000; stroke: #008000"/>
     <use xlink:href="#m5ce8dee8df" x="341.637662" y="263.624279" style="fill: #008000; stroke: #008000"/>
     <use xlink:href="#m5ce8dee8df" x="348.884416" y="255.00663" style="fill: #008000; stroke: #008000"/>
     <use xlink:href="#m5ce8dee8df" x="356.131169" y="260.968311" style="fill: #008000; stroke: #008000"/>
     <use xlink:href="#m5ce8dee8df" x="363.377922" y="260.655577" style="fill: #008000; stroke: #008000"/>
     <use xlink:href="#m5ce8dee8df" x="370.624675" y="263.359122" style="fill: #008000; stroke: #008000"/>
     <use xlink:href="#m5ce8dee8df" x="377.871429" y="257.741881" style="fill: #008000; stroke: #008000"/>
     <use xlink:href="#m5ce8dee8df" x="385.118182" y="257.634467" style="fill: #008000; stroke: #008000"/>
     <use xlink:href="#m5ce8dee8df" x="392.364935" y="262.57796" style="fill: #008000; stroke: #008000"/>
     <use xlink:href="#m5ce8dee8df" x="399.611688" y="262.431" style="fill: #008000; stroke: #008000"/>
     <use xlink:href="#m5ce8dee8df" x="406.858442" y="257.032182" style="fill: #008000; stroke: #008000"/>
     <use xlink:href="#m5ce8dee8df" x="414.105195" y="257.741395" style="fill: #008000; stroke: #008000"/>
     <use xlink:href="#m5ce8dee8df" x="421.351948" y="254.070832" style="fill: #008000; stroke: #008000"/>
     <use xlink:href="#m5ce8dee8df" x="428.598701" y="259.900295" style="fill: #008000; stroke: #008000"/>
     <use xlink:href="#m5ce8dee8df" x="435.845455" y="253.079037" style="fill: #008000; stroke: #008000"/>
    </g>
   </g>
   <g id="patch_3">
    <path d="M 63 315 
L 63 43.2 
" style="fill: none; stroke: #000000; stroke-width: 0.8; stroke-linejoin: miter; stroke-linecap: square"/>
   </g>
   <g id="patch_4">
    <path d="M 453.6 315 
L 453.6 43.2 
" style="fill: none; stroke: #000000; stroke-width: 0.8; stroke-linejoin: miter; stroke-linecap: square"/>
   </g>
   <g id="patch_5">
    <path d="M 63 315 
L 453.6 315 
" style="fill: none; stroke: #000000; stroke-width: 0.8; stroke-linejoin: miter; stroke-linecap: square"/>
   </g>
   <g id="patch_6">
    <path d="M 63 43.2 
L 453.6 43.2 
" style="fill: none; stroke: #000000; stroke-width: 0.8; stroke-linejoin: miter; stroke-linecap: square"/>
   </g>
   <g id="text_13">
    <!-- Losses -->
    <g transform="translate(233.327344 37.2)scale(0.15 -0.15)">
     <defs>
      <path id="DejaVuSans-65" d="M 3597 1894 
L 3597 1613 
L 953 1613 
Q 991 1019 1311 708 
Q 1631 397 2203 397 
Q 2534 397 2845 478 
Q 3156 559 3463 722 
L 3463 178 
Q 3153 47 2828 -22 
Q 2503 -91 2169 -91 
Q 1331 -91 842 396 
Q 353 884 353 1716 
Q 353 2575 817 3079 
Q 1281 3584 2069 3584 
Q 2775 3584 3186 3129 
Q 3597 2675 3597 1894 
z
M 3022 2063 
Q 3016 2534 2758 2815 
Q 2500 3097 2075 3097 
Q 1594 3097 1305 2825 
Q 1016 2553 972 2059 
L 3022 2063 
z
" transform="scale(0.015625)"/>
     </defs>
     <use xlink:href="#DejaVuSans-4c"/>
     <use xlink:href="#DejaVuSans-6f" x="53.962891"/>
     <use xlink:href="#DejaVuSans-73" x="115.144531"/>
     <use xlink:href="#DejaVuSans-73" x="167.244141"/>
     <use xlink:href="#DejaVuSans-65" x="219.34375"/>
     <use xlink:href="#DejaVuSans-73" x="280.867188"/>
    </g>
   </g>
   <g id="legend_1">
    <g id="patch_7">
     <path d="M 368.11875 80.55625 
L 446.6 80.55625 
Q 448.6 80.55625 448.6 78.55625 
L 448.6 50.2 
Q 448.6 48.2 446.6 48.2 
L 368.11875 48.2 
Q 366.11875 48.2 366.11875 50.2 
L 366.11875 78.55625 
Q 366.11875 80.55625 368.11875 80.55625 
z
" style="fill: #ffffff; opacity: 0.8; stroke: #cccccc; stroke-linejoin: miter"/>
    </g>
    <g id="line2d_24">
     <path d="M 370.11875 56.298437 
L 380.11875 56.298437 
L 390.11875 56.298437 
" style="fill: none; stroke-dasharray: 5.55,2.4; stroke-dashoffset: 0; stroke: #ff0000; stroke-width: 1.5"/>
     <g>
      <use xlink:href="#m8a9e486b08" x="380.11875" y="56.298437" style="fill: #ff0000; stroke: #ff0000"/>
     </g>
    </g>
    <g id="text_14">
     <!-- Train loss -->
     <g transform="translate(398.11875 59.798437)scale(0.1 -0.1)">
      <defs>
       <path id="DejaVuSans-54" d="M -19 4666 
L 3928 4666 
L 3928 4134 
L 2272 4134 
L 2272 0 
L 1638 0 
L 1638 4134 
L -19 4134 
L -19 4666 
z
" transform="scale(0.015625)"/>
       <path id="DejaVuSans-72" d="M 2631 2963 
Q 2534 3019 2420 3045 
Q 2306 3072 2169 3072 
Q 1681 3072 1420 2755 
Q 1159 2438 1159 1844 
L 1159 0 
L 581 0 
L 581 3500 
L 1159 3500 
L 1159 2956 
Q 1341 3275 1631 3429 
Q 1922 3584 2338 3584 
Q 2397 3584 2469 3576 
Q 2541 3569 2628 3553 
L 2631 2963 
z
" transform="scale(0.015625)"/>
       <path id="DejaVuSans-61" d="M 2194 1759 
Q 1497 1759 1228 1600 
Q 959 1441 959 1056 
Q 959 750 1161 570 
Q 1363 391 1709 391 
Q 2188 391 2477 730 
Q 2766 1069 2766 1631 
L 2766 1759 
L 2194 1759 
z
M 3341 1997 
L 3341 0 
L 2766 0 
L 2766 531 
Q 2569 213 2275 61 
Q 1981 -91 1556 -91 
Q 1019 -91 701 211 
Q 384 513 384 1019 
Q 384 1609 779 1909 
Q 1175 2209 1959 2209 
L 2766 2209 
L 2766 2266 
Q 2766 2663 2505 2880 
Q 2244 3097 1772 3097 
Q 1472 3097 1187 3025 
Q 903 2953 641 2809 
L 641 3341 
Q 956 3463 1253 3523 
Q 1550 3584 1831 3584 
Q 2591 3584 2966 3190 
Q 3341 2797 3341 1997 
z
" transform="scale(0.015625)"/>
       <path id="DejaVuSans-69" d="M 603 3500 
L 1178 3500 
L 1178 0 
L 603 0 
L 603 3500 
z
M 603 4863 
L 1178 4863 
L 1178 4134 
L 603 4134 
L 603 4863 
z
" transform="scale(0.015625)"/>
       <path id="DejaVuSans-6e" d="M 3513 2113 
L 3513 0 
L 2938 0 
L 2938 2094 
Q 2938 2591 2744 2837 
Q 2550 3084 2163 3084 
Q 1697 3084 1428 2787 
Q 1159 2491 1159 1978 
L 1159 0 
L 581 0 
L 581 3500 
L 1159 3500 
L 1159 2956 
Q 1366 3272 1645 3428 
Q 1925 3584 2291 3584 
Q 2894 3584 3203 3211 
Q 3513 2838 3513 2113 
z
" transform="scale(0.015625)"/>
       <path id="DejaVuSans-20" transform="scale(0.015625)"/>
       <path id="DejaVuSans-6c" d="M 603 4863 
L 1178 4863 
L 1178 0 
L 603 0 
L 603 4863 
z
" transform="scale(0.015625)"/>
      </defs>
      <use xlink:href="#DejaVuSans-54"/>
      <use xlink:href="#DejaVuSans-72" x="46.333984"/>
      <use xlink:href="#DejaVuSans-61" x="87.447266"/>
      <use xlink:href="#DejaVuSans-69" x="148.726562"/>
      <use xlink:href="#DejaVuSans-6e" x="176.509766"/>
      <use xlink:href="#DejaVuSans-20" x="239.888672"/>
      <use xlink:href="#DejaVuSans-6c" x="271.675781"/>
      <use xlink:href="#DejaVuSans-6f" x="299.458984"/>
      <use xlink:href="#DejaVuSans-73" x="360.640625"/>
      <use xlink:href="#DejaVuSans-73" x="412.740234"/>
     </g>
    </g>
    <g id="line2d_25">
     <path d="M 370.11875 70.976562 
L 380.11875 70.976562 
L 390.11875 70.976562 
" style="fill: none; stroke-dasharray: 5.55,2.4; stroke-dashoffset: 0; stroke: #008000; stroke-width: 1.5"/>
     <g>
      <use xlink:href="#m5ce8dee8df" x="380.11875" y="70.976562" style="fill: #008000; stroke: #008000"/>
     </g>
    </g>
    <g id="text_15">
     <!-- Test loss -->
     <g transform="translate(398.11875 74.476562)scale(0.1 -0.1)">
      <defs>
       <path id="DejaVuSans-74" d="M 1172 4494 
L 1172 3500 
L 2356 3500 
L 2356 3053 
L 1172 3053 
L 1172 1153 
Q 1172 725 1289 603 
Q 1406 481 1766 481 
L 2356 481 
L 2356 0 
L 1766 0 
Q 1100 0 847 248 
Q 594 497 594 1153 
L 594 3053 
L 172 3053 
L 172 3500 
L 594 3500 
L 594 4494 
L 1172 4494 
z
" transform="scale(0.015625)"/>
      </defs>
      <use xlink:href="#DejaVuSans-54"/>
      <use xlink:href="#DejaVuSans-65" x="44.083984"/>
      <use xlink:href="#DejaVuSans-73" x="105.607422"/>
      <use xlink:href="#DejaVuSans-74" x="157.707031"/>
      <use xlink:href="#DejaVuSans-20" x="196.916016"/>
      <use xlink:href="#DejaVuSans-6c" x="228.703125"/>
      <use xlink:href="#DejaVuSans-6f" x="256.486328"/>
      <use xlink:href="#DejaVuSans-73" x="317.667969"/>
      <use xlink:href="#DejaVuSans-73" x="369.767578"/>
     </g>
    </g>
   </g>
  </g>
 </g>
 <defs>
  <clipPath id="peaed503a2c">
   <rect x="63" y="43.2" width="390.6" height="271.8"/>
  </clipPath>
 </defs>
</svg>
