<?xml version="1.0" encoding="utf-8" standalone="no"?>
<!DOCTYPE svg PUBLIC "-//W3C//DTD SVG 1.1//EN"
  "http://www.w3.org/Graphics/SVG/1.1/DTD/svg11.dtd">
<svg xmlns:xlink="http://www.w3.org/1999/xlink" width="504pt" height="360pt" viewBox="0 0 504 360" xmlns="http://www.w3.org/2000/svg" version="1.1">
 <metadata>
  <rdf:RDF xmlns:dc="http://purl.org/dc/elements/1.1/" xmlns:cc="http://creativecommons.org/ns#" xmlns:rdf="http://www.w3.org/1999/02/22-rdf-syntax-ns#">
   <cc:Work>
    <dc:type rdf:resource="http://purl.org/dc/dcmitype/StillImage"/>
    <dc:date>2022-09-10T07:43:57.269318</dc:date>
    <dc:format>image/svg+xml</dc:format>
    <dc:creator>
     <cc:Agent>
      <dc:title>Matplotlib v3.5.2, https://matplotlib.org/</dc:title>
     </cc:Agent>
    </dc:creator>
   </cc:Work>
  </rdf:RDF>
 </metadata>
 <defs>
  <style type="text/css">*{stroke-linejoin: round; stroke-linecap: butt}</style>
 </defs>
 <g id="figure_1">
  <g id="patch_1">
   <path d="M 0 360 
L 504 360 
L 504 0 
L 0 0 
L 0 360 
z
" style="fill: none"/>
  </g>
  <g id="axes_1">
   <g id="patch_2">
    <path d="M 63 315 
L 453.6 315 
L 453.6 43.2 
L 63 43.2 
z
" style="fill: #ffffff"/>
   </g>
   <g id="matplotlib.axis_1">
    <g id="xtick_1">
     <g id="line2d_1">
      <path d="M 80.754545 315 
L 80.754545 43.2 
" clip-path="url(#p5df600dfa0)" style="fill: none; stroke: #b0b0b0; stroke-width: 0.8; stroke-linecap: square"/>
     </g>
     <g id="line2d_2">
      <defs>
       <path id="m34d4ec6914" d="M 0 0 
L 0 3.5 
" style="stroke: #000000; stroke-width: 0.8"/>
      </defs>
      <g>
       <use xlink:href="#m34d4ec6914" x="80.754545" y="315" style="stroke: #000000; stroke-width: 0.8"/>
      </g>
     </g>
     <g id="text_1">
      <!-- 0 -->
      <g transform="translate(77.573295 329.598437)scale(0.1 -0.1)">
       <defs>
        <path id="DejaVuSans-30" d="M 2034 4250 
Q 1547 4250 1301 3770 
Q 1056 3291 1056 2328 
Q 1056 1369 1301 889 
Q 1547 409 2034 409 
Q 2525 409 2770 889 
Q 3016 1369 3016 2328 
Q 3016 3291 2770 3770 
Q 2525 4250 2034 4250 
z
M 2034 4750 
Q 2819 4750 3233 4129 
Q 3647 3509 3647 2328 
Q 3647 1150 3233 529 
Q 2819 -91 2034 -91 
Q 1250 -91 836 529 
Q 422 1150 422 2328 
Q 422 3509 836 4129 
Q 1250 4750 2034 4750 
z
" transform="scale(0.015625)"/>
       </defs>
       <use xlink:href="#DejaVuSans-30"/>
      </g>
     </g>
    </g>
    <g id="xtick_2">
     <g id="line2d_3">
      <path d="M 153.222078 315 
L 153.222078 43.2 
" clip-path="url(#p5df600dfa0)" style="fill: none; stroke: #b0b0b0; stroke-width: 0.8; stroke-linecap: square"/>
     </g>
     <g id="line2d_4">
      <g>
       <use xlink:href="#m34d4ec6914" x="153.222078" y="315" style="stroke: #000000; stroke-width: 0.8"/>
      </g>
     </g>
     <g id="text_2">
      <!-- 10 -->
      <g transform="translate(146.859578 329.598437)scale(0.1 -0.1)">
       <defs>
        <path id="DejaVuSans-31" d="M 794 531 
L 1825 531 
L 1825 4091 
L 703 3866 
L 703 4441 
L 1819 4666 
L 2450 4666 
L 2450 531 
L 3481 531 
L 3481 0 
L 794 0 
L 794 531 
z
" transform="scale(0.015625)"/>
       </defs>
       <use xlink:href="#DejaVuSans-31"/>
       <use xlink:href="#DejaVuSans-30" x="63.623047"/>
      </g>
     </g>
    </g>
    <g id="xtick_3">
     <g id="line2d_5">
      <path d="M 225.68961 315 
L 225.68961 43.2 
" clip-path="url(#p5df600dfa0)" style="fill: none; stroke: #b0b0b0; stroke-width: 0.8; stroke-linecap: square"/>
     </g>
     <g id="line2d_6">
      <g>
       <use xlink:href="#m34d4ec6914" x="225.68961" y="315" style="stroke: #000000; stroke-width: 0.8"/>
      </g>
     </g>
     <g id="text_3">
      <!-- 20 -->
      <g transform="translate(219.32711 329.598437)scale(0.1 -0.1)">
       <defs>
        <path id="DejaVuSans-32" d="M 1228 531 
L 3431 531 
L 3431 0 
L 469 0 
L 469 531 
Q 828 903 1448 1529 
Q 2069 2156 2228 2338 
Q 2531 2678 2651 2914 
Q 2772 3150 2772 3378 
Q 2772 3750 2511 3984 
Q 2250 4219 1831 4219 
Q 1534 4219 1204 4116 
Q 875 4013 500 3803 
L 500 4441 
Q 881 4594 1212 4672 
Q 1544 4750 1819 4750 
Q 2544 4750 2975 4387 
Q 3406 4025 3406 3419 
Q 3406 3131 3298 2873 
Q 3191 2616 2906 2266 
Q 2828 2175 2409 1742 
Q 1991 1309 1228 531 
z
" transform="scale(0.015625)"/>
       </defs>
       <use xlink:href="#DejaVuSans-32"/>
       <use xlink:href="#DejaVuSans-30" x="63.623047"/>
      </g>
     </g>
    </g>
    <g id="xtick_4">
     <g id="line2d_7">
      <path d="M 298.157143 315 
L 298.157143 43.2 
" clip-path="url(#p5df600dfa0)" style="fill: none; stroke: #b0b0b0; stroke-width: 0.8; stroke-linecap: square"/>
     </g>
     <g id="line2d_8">
      <g>
       <use xlink:href="#m34d4ec6914" x="298.157143" y="315" style="stroke: #000000; stroke-width: 0.8"/>
      </g>
     </g>
     <g id="text_4">
      <!-- 30 -->
      <g transform="translate(291.794643 329.598437)scale(0.1 -0.1)">
       <defs>
        <path id="DejaVuSans-33" d="M 2597 2516 
Q 3050 2419 3304 2112 
Q 3559 1806 3559 1356 
Q 3559 666 3084 287 
Q 2609 -91 1734 -91 
Q 1441 -91 1130 -33 
Q 819 25 488 141 
L 488 750 
Q 750 597 1062 519 
Q 1375 441 1716 441 
Q 2309 441 2620 675 
Q 2931 909 2931 1356 
Q 2931 1769 2642 2001 
Q 2353 2234 1838 2234 
L 1294 2234 
L 1294 2753 
L 1863 2753 
Q 2328 2753 2575 2939 
Q 2822 3125 2822 3475 
Q 2822 3834 2567 4026 
Q 2313 4219 1838 4219 
Q 1578 4219 1281 4162 
Q 984 4106 628 3988 
L 628 4550 
Q 988 4650 1302 4700 
Q 1616 4750 1894 4750 
Q 2613 4750 3031 4423 
Q 3450 4097 3450 3541 
Q 3450 3153 3228 2886 
Q 3006 2619 2597 2516 
z
" transform="scale(0.015625)"/>
       </defs>
       <use xlink:href="#DejaVuSans-33"/>
       <use xlink:href="#DejaVuSans-30" x="63.623047"/>
      </g>
     </g>
    </g>
    <g id="xtick_5">
     <g id="line2d_9">
      <path d="M 370.624675 315 
L 370.624675 43.2 
" clip-path="url(#p5df600dfa0)" style="fill: none; stroke: #b0b0b0; stroke-width: 0.8; stroke-linecap: square"/>
     </g>
     <g id="line2d_10">
      <g>
       <use xlink:href="#m34d4ec6914" x="370.624675" y="315" style="stroke: #000000; stroke-width: 0.8"/>
      </g>
     </g>
     <g id="text_5">
      <!-- 40 -->
      <g transform="translate(364.262175 329.598437)scale(0.1 -0.1)">
       <defs>
        <path id="DejaVuSans-34" d="M 2419 4116 
L 825 1625 
L 2419 1625 
L 2419 4116 
z
M 2253 4666 
L 3047 4666 
L 3047 1625 
L 3713 1625 
L 3713 1100 
L 3047 1100 
L 3047 0 
L 2419 0 
L 2419 1100 
L 313 1100 
L 313 1709 
L 2253 4666 
z
" transform="scale(0.015625)"/>
       </defs>
       <use xlink:href="#DejaVuSans-34"/>
       <use xlink:href="#DejaVuSans-30" x="63.623047"/>
      </g>
     </g>
    </g>
    <g id="xtick_6">
     <g id="line2d_11">
      <path d="M 443.092208 315 
L 443.092208 43.2 
" clip-path="url(#p5df600dfa0)" style="fill: none; stroke: #b0b0b0; stroke-width: 0.8; stroke-linecap: square"/>
     </g>
     <g id="line2d_12">
      <g>
       <use xlink:href="#m34d4ec6914" x="443.092208" y="315" style="stroke: #000000; stroke-width: 0.8"/>
      </g>
     </g>
     <g id="text_6">
      <!-- 50 -->
      <g transform="translate(436.729708 329.598437)scale(0.1 -0.1)">
       <defs>
        <path id="DejaVuSans-35" d="M 691 4666 
L 3169 4666 
L 3169 4134 
L 1269 4134 
L 1269 2991 
Q 1406 3038 1543 3061 
Q 1681 3084 1819 3084 
Q 2600 3084 3056 2656 
Q 3513 2228 3513 1497 
Q 3513 744 3044 326 
Q 2575 -91 1722 -91 
Q 1428 -91 1123 -41 
Q 819 9 494 109 
L 494 744 
Q 775 591 1075 516 
Q 1375 441 1709 441 
Q 2250 441 2565 725 
Q 2881 1009 2881 1497 
Q 2881 1984 2565 2268 
Q 2250 2553 1709 2553 
Q 1456 2553 1204 2497 
Q 953 2441 691 2322 
L 691 4666 
z
" transform="scale(0.015625)"/>
       </defs>
       <use xlink:href="#DejaVuSans-35"/>
       <use xlink:href="#DejaVuSans-30" x="63.623047"/>
      </g>
     </g>
    </g>
    <g id="text_7">
     <!-- Epoch -->
     <g transform="translate(235.333594 347.075781)scale(0.15 -0.15)">
      <defs>
       <path id="DejaVuSans-45" d="M 628 4666 
L 3578 4666 
L 3578 4134 
L 1259 4134 
L 1259 2753 
L 3481 2753 
L 3481 2222 
L 1259 2222 
L 1259 531 
L 3634 531 
L 3634 0 
L 628 0 
L 628 4666 
z
" transform="scale(0.015625)"/>
       <path id="DejaVuSans-70" d="M 1159 525 
L 1159 -1331 
L 581 -1331 
L 581 3500 
L 1159 3500 
L 1159 2969 
Q 1341 3281 1617 3432 
Q 1894 3584 2278 3584 
Q 2916 3584 3314 3078 
Q 3713 2572 3713 1747 
Q 3713 922 3314 415 
Q 2916 -91 2278 -91 
Q 1894 -91 1617 61 
Q 1341 213 1159 525 
z
M 3116 1747 
Q 3116 2381 2855 2742 
Q 2594 3103 2138 3103 
Q 1681 3103 1420 2742 
Q 1159 2381 1159 1747 
Q 1159 1113 1420 752 
Q 1681 391 2138 391 
Q 2594 391 2855 752 
Q 3116 1113 3116 1747 
z
" transform="scale(0.015625)"/>
       <path id="DejaVuSans-6f" d="M 1959 3097 
Q 1497 3097 1228 2736 
Q 959 2375 959 1747 
Q 959 1119 1226 758 
Q 1494 397 1959 397 
Q 2419 397 2687 759 
Q 2956 1122 2956 1747 
Q 2956 2369 2687 2733 
Q 2419 3097 1959 3097 
z
M 1959 3584 
Q 2709 3584 3137 3096 
Q 3566 2609 3566 1747 
Q 3566 888 3137 398 
Q 2709 -91 1959 -91 
Q 1206 -91 779 398 
Q 353 888 353 1747 
Q 353 2609 779 3096 
Q 1206 3584 1959 3584 
z
" transform="scale(0.015625)"/>
       <path id="DejaVuSans-63" d="M 3122 3366 
L 3122 2828 
Q 2878 2963 2633 3030 
Q 2388 3097 2138 3097 
Q 1578 3097 1268 2742 
Q 959 2388 959 1747 
Q 959 1106 1268 751 
Q 1578 397 2138 397 
Q 2388 397 2633 464 
Q 2878 531 3122 666 
L 3122 134 
Q 2881 22 2623 -34 
Q 2366 -91 2075 -91 
Q 1284 -91 818 406 
Q 353 903 353 1747 
Q 353 2603 823 3093 
Q 1294 3584 2113 3584 
Q 2378 3584 2631 3529 
Q 2884 3475 3122 3366 
z
" transform="scale(0.015625)"/>
       <path id="DejaVuSans-68" d="M 3513 2113 
L 3513 0 
L 2938 0 
L 2938 2094 
Q 2938 2591 2744 2837 
Q 2550 3084 2163 3084 
Q 1697 3084 1428 2787 
Q 1159 2491 1159 1978 
L 1159 0 
L 581 0 
L 581 4863 
L 1159 4863 
L 1159 2956 
Q 1366 3272 1645 3428 
Q 1925 3584 2291 3584 
Q 2894 3584 3203 3211 
Q 3513 2838 3513 2113 
z
" transform="scale(0.015625)"/>
      </defs>
      <use xlink:href="#DejaVuSans-45"/>
      <use xlink:href="#DejaVuSans-70" x="63.183594"/>
      <use xlink:href="#DejaVuSans-6f" x="126.660156"/>
      <use xlink:href="#DejaVuSans-63" x="187.841797"/>
      <use xlink:href="#DejaVuSans-68" x="242.822266"/>
     </g>
    </g>
   </g>
   <g id="matplotlib.axis_2">
    <g id="ytick_1">
     <g id="line2d_13">
      <path d="M 63 89.486988 
L 453.6 89.486988 
" clip-path="url(#p5df600dfa0)" style="fill: none; stroke: #b0b0b0; stroke-width: 0.8; stroke-linecap: square"/>
     </g>
     <g id="line2d_14">
      <defs>
       <path id="mbf80603fad" d="M 0 0 
L -3.5 0 
" style="stroke: #000000; stroke-width: 0.8"/>
      </defs>
      <g>
       <use xlink:href="#mbf80603fad" x="63" y="89.486988" style="stroke: #000000; stroke-width: 0.8"/>
      </g>
     </g>
     <g id="text_8">
      <!-- $\mathdefault{10^{0}}$ -->
      <g transform="translate(38.4 93.286207)scale(0.1 -0.1)">
       <use xlink:href="#DejaVuSans-31" transform="translate(0 0.765625)"/>
       <use xlink:href="#DejaVuSans-30" transform="translate(63.623047 0.765625)"/>
       <use xlink:href="#DejaVuSans-30" transform="translate(128.203125 39.046875)scale(0.7)"/>
      </g>
     </g>
    </g>
    <g id="ytick_2">
     <g id="line2d_15">
      <defs>
       <path id="m8f652c61e5" d="M 0 0 
L -2 0 
" style="stroke: #000000; stroke-width: 0.6"/>
      </defs>
      <g>
       <use xlink:href="#m8f652c61e5" x="63" y="273.505465" style="stroke: #000000; stroke-width: 0.6"/>
      </g>
     </g>
     <g id="text_9">
      <!-- $\mathdefault{3\times10^{-1}}$ -->
      <g transform="translate(15.5 277.304684)scale(0.1 -0.1)">
       <defs>
        <path id="DejaVuSans-d7" d="M 4488 3438 
L 3059 2003 
L 4488 575 
L 4116 197 
L 2681 1631 
L 1247 197 
L 878 575 
L 2303 2003 
L 878 3438 
L 1247 3816 
L 2681 2381 
L 4116 3816 
L 4488 3438 
z
" transform="scale(0.015625)"/>
        <path id="DejaVuSans-2212" d="M 678 2272 
L 4684 2272 
L 4684 1741 
L 678 1741 
L 678 2272 
z
" transform="scale(0.015625)"/>
       </defs>
       <use xlink:href="#DejaVuSans-33" transform="translate(0 0.684375)"/>
       <use xlink:href="#DejaVuSans-d7" transform="translate(83.105469 0.684375)"/>
       <use xlink:href="#DejaVuSans-31" transform="translate(186.376953 0.684375)"/>
       <use xlink:href="#DejaVuSans-30" transform="translate(250 0.684375)"/>
       <use xlink:href="#DejaVuSans-2212" transform="translate(314.580078 38.965625)scale(0.7)"/>
       <use xlink:href="#DejaVuSans-31" transform="translate(373.232422 38.965625)scale(0.7)"/>
      </g>
     </g>
    </g>
    <g id="ytick_3">
     <g id="line2d_16">
      <g>
       <use xlink:href="#m8f652c61e5" x="63" y="229.535355" style="stroke: #000000; stroke-width: 0.6"/>
      </g>
     </g>
     <g id="text_10">
      <!-- $\mathdefault{4\times10^{-1}}$ -->
      <g transform="translate(15.5 233.334574)scale(0.1 -0.1)">
       <use xlink:href="#DejaVuSans-34" transform="translate(0 0.684375)"/>
       <use xlink:href="#DejaVuSans-d7" transform="translate(83.105469 0.684375)"/>
       <use xlink:href="#DejaVuSans-31" transform="translate(186.376953 0.684375)"/>
       <use xlink:href="#DejaVuSans-30" transform="translate(250 0.684375)"/>
       <use xlink:href="#DejaVuSans-2212" transform="translate(314.580078 38.965625)scale(0.7)"/>
       <use xlink:href="#DejaVuSans-31" transform="translate(373.232422 38.965625)scale(0.7)"/>
      </g>
     </g>
    </g>
    <g id="ytick_4">
     <g id="line2d_17">
      <g>
       <use xlink:href="#m8f652c61e5" x="63" y="195.429488" style="stroke: #000000; stroke-width: 0.6"/>
      </g>
     </g>
    </g>
    <g id="ytick_5">
     <g id="line2d_18">
      <g>
       <use xlink:href="#m8f652c61e5" x="63" y="167.562966" style="stroke: #000000; stroke-width: 0.6"/>
      </g>
     </g>
     <g id="text_11">
      <!-- $\mathdefault{6\times10^{-1}}$ -->
      <g transform="translate(15.5 171.362184)scale(0.1 -0.1)">
       <defs>
        <path id="DejaVuSans-36" d="M 2113 2584 
Q 1688 2584 1439 2293 
Q 1191 2003 1191 1497 
Q 1191 994 1439 701 
Q 1688 409 2113 409 
Q 2538 409 2786 701 
Q 3034 994 3034 1497 
Q 3034 2003 2786 2293 
Q 2538 2584 2113 2584 
z
M 3366 4563 
L 3366 3988 
Q 3128 4100 2886 4159 
Q 2644 4219 2406 4219 
Q 1781 4219 1451 3797 
Q 1122 3375 1075 2522 
Q 1259 2794 1537 2939 
Q 1816 3084 2150 3084 
Q 2853 3084 3261 2657 
Q 3669 2231 3669 1497 
Q 3669 778 3244 343 
Q 2819 -91 2113 -91 
Q 1303 -91 875 529 
Q 447 1150 447 2328 
Q 447 3434 972 4092 
Q 1497 4750 2381 4750 
Q 2619 4750 2861 4703 
Q 3103 4656 3366 4563 
z
" transform="scale(0.015625)"/>
       </defs>
       <use xlink:href="#DejaVuSans-36" transform="translate(0 0.684375)"/>
       <use xlink:href="#DejaVuSans-d7" transform="translate(83.105469 0.684375)"/>
       <use xlink:href="#DejaVuSans-31" transform="translate(186.376953 0.684375)"/>
       <use xlink:href="#DejaVuSans-30" transform="translate(250 0.684375)"/>
       <use xlink:href="#DejaVuSans-2212" transform="translate(314.580078 38.965625)scale(0.7)"/>
       <use xlink:href="#DejaVuSans-31" transform="translate(373.232422 38.965625)scale(0.7)"/>
      </g>
     </g>
    </g>
    <g id="ytick_6">
     <g id="line2d_19">
      <g>
       <use xlink:href="#m8f652c61e5" x="63" y="144.002157" style="stroke: #000000; stroke-width: 0.6"/>
      </g>
     </g>
    </g>
    <g id="ytick_7">
     <g id="line2d_20">
      <g>
       <use xlink:href="#m8f652c61e5" x="63" y="123.592855" style="stroke: #000000; stroke-width: 0.6"/>
      </g>
     </g>
    </g>
    <g id="ytick_8">
     <g id="line2d_21">
      <g>
       <use xlink:href="#m8f652c61e5" x="63" y="105.590576" style="stroke: #000000; stroke-width: 0.6"/>
      </g>
     </g>
    </g>
    <g id="text_12">
     <!-- Loss -->
     <g transform="translate(8.380469 195.550781)rotate(-90)scale(0.15 -0.15)">
      <defs>
       <path id="DejaVuSans-4c" d="M 628 4666 
L 1259 4666 
L 1259 531 
L 3531 531 
L 3531 0 
L 628 0 
L 628 4666 
z
" transform="scale(0.015625)"/>
       <path id="DejaVuSans-73" d="M 2834 3397 
L 2834 2853 
Q 2591 2978 2328 3040 
Q 2066 3103 1784 3103 
Q 1356 3103 1142 2972 
Q 928 2841 928 2578 
Q 928 2378 1081 2264 
Q 1234 2150 1697 2047 
L 1894 2003 
Q 2506 1872 2764 1633 
Q 3022 1394 3022 966 
Q 3022 478 2636 193 
Q 2250 -91 1575 -91 
Q 1294 -91 989 -36 
Q 684 19 347 128 
L 347 722 
Q 666 556 975 473 
Q 1284 391 1588 391 
Q 1994 391 2212 530 
Q 2431 669 2431 922 
Q 2431 1156 2273 1281 
Q 2116 1406 1581 1522 
L 1381 1569 
Q 847 1681 609 1914 
Q 372 2147 372 2553 
Q 372 3047 722 3315 
Q 1072 3584 1716 3584 
Q 2034 3584 2315 3537 
Q 2597 3491 2834 3397 
z
" transform="scale(0.015625)"/>
      </defs>
      <use xlink:href="#DejaVuSans-4c"/>
      <use xlink:href="#DejaVuSans-6f" x="53.962891"/>
      <use xlink:href="#DejaVuSans-73" x="115.144531"/>
      <use xlink:href="#DejaVuSans-73" x="167.244141"/>
     </g>
    </g>
   </g>
   <g id="line2d_22">
    <path d="M 80.754545 55.554545 
L 88.001299 186.304499 
L 95.248052 206.966975 
L 102.494805 219.516428 
L 109.741558 228.495039 
L 116.988312 234.250833 
L 124.235065 240.305664 
L 131.481818 245.007455 
L 138.728571 249.361928 
L 145.975325 250.438313 
L 153.222078 254.075384 
L 160.468831 256.536885 
L 167.715584 258.875062 
L 174.962338 261.188366 
L 182.209091 261.548065 
L 189.455844 260.321229 
L 196.702597 266.921476 
L 203.949351 268.797064 
L 211.196104 269.239791 
L 218.442857 272.61324 
L 225.68961 273.386239 
L 232.936364 273.642962 
L 240.183117 273.865764 
L 247.42987 277.60993 
L 254.676623 279.012228 
L 261.923377 279.606471 
L 269.17013 281.983916 
L 276.416883 281.852318 
L 283.663636 282.569628 
L 290.91039 283.549328 
L 298.157143 284.561266 
L 305.403896 287.161571 
L 312.650649 287.909653 
L 319.897403 288.851765 
L 327.144156 289.362125 
L 334.390909 291.412929 
L 341.637662 292.372384 
L 348.884416 291.940579 
L 356.131169 293.723043 
L 363.377922 292.054056 
L 370.624675 294.206315 
L 377.871429 296.398503 
L 385.118182 295.869202 
L 392.364935 296.75941 
L 399.611688 294.69576 
L 406.858442 298.868064 
L 414.105195 300.000001 
L 421.351948 299.57487 
L 428.598701 301.468558 
L 435.845455 302.645455 
" clip-path="url(#p5df600dfa0)" style="fill: none; stroke-dasharray: 5.55,2.4; stroke-dashoffset: 0; stroke: #ff0000; stroke-width: 1.5"/>
    <defs>
     <path id="m9d63d06f78" d="M 0 3 
C 0.795609 3 1.55874 2.683901 2.12132 2.12132 
C 2.683901 1.55874 3 0.795609 3 0 
C 3 -0.795609 2.683901 -1.55874 2.12132 -2.12132 
C 1.55874 -2.683901 0.795609 -3 0 -3 
C -0.795609 -3 -1.55874 -2.683901 -2.12132 -2.12132 
C -2.683901 -1.55874 -3 -0.795609 -3 0 
C -3 0.795609 -2.683901 1.55874 -2.12132 2.12132 
C -1.55874 2.683901 -0.795609 3 0 3 
z
" style="stroke: #ff0000"/>
    </defs>
    <g clip-path="url(#p5df600dfa0)">
     <use xlink:href="#m9d63d06f78" x="80.754545" y="55.554545" style="fill: #ff0000; stroke: #ff0000"/>
     <use xlink:href="#m9d63d06f78" x="88.001299" y="186.304499" style="fill: #ff0000; stroke: #ff0000"/>
     <use xlink:href="#m9d63d06f78" x="95.248052" y="206.966975" style="fill: #ff0000; stroke: #ff0000"/>
     <use xlink:href="#m9d63d06f78" x="102.494805" y="219.516428" style="fill: #ff0000; stroke: #ff0000"/>
     <use xlink:href="#m9d63d06f78" x="109.741558" y="228.495039" style="fill: #ff0000; stroke: #ff0000"/>
     <use xlink:href="#m9d63d06f78" x="116.988312" y="234.250833" style="fill: #ff0000; stroke: #ff0000"/>
     <use xlink:href="#m9d63d06f78" x="124.235065" y="240.305664" style="fill: #ff0000; stroke: #ff0000"/>
     <use xlink:href="#m9d63d06f78" x="131.481818" y="245.007455" style="fill: #ff0000; stroke: #ff0000"/>
     <use xlink:href="#m9d63d06f78" x="138.728571" y="249.361928" style="fill: #ff0000; stroke: #ff0000"/>
     <use xlink:href="#m9d63d06f78" x="145.975325" y="250.438313" style="fill: #ff0000; stroke: #ff0000"/>
     <use xlink:href="#m9d63d06f78" x="153.222078" y="254.075384" style="fill: #ff0000; stroke: #ff0000"/>
     <use xlink:href="#m9d63d06f78" x="160.468831" y="256.536885" style="fill: #ff0000; stroke: #ff0000"/>
     <use xlink:href="#m9d63d06f78" x="167.715584" y="258.875062" style="fill: #ff0000; stroke: #ff0000"/>
     <use xlink:href="#m9d63d06f78" x="174.962338" y="261.188366" style="fill: #ff0000; stroke: #ff0000"/>
     <use xlink:href="#m9d63d06f78" x="182.209091" y="261.548065" style="fill: #ff0000; stroke: #ff0000"/>
     <use xlink:href="#m9d63d06f78" x="189.455844" y="260.321229" style="fill: #ff0000; stroke: #ff0000"/>
     <use xlink:href="#m9d63d06f78" x="196.702597" y="266.921476" style="fill: #ff0000; stroke: #ff0000"/>
     <use xlink:href="#m9d63d06f78" x="203.949351" y="268.797064" style="fill: #ff0000; stroke: #ff0000"/>
     <use xlink:href="#m9d63d06f78" x="211.196104" y="269.239791" style="fill: #ff0000; stroke: #ff0000"/>
     <use xlink:href="#m9d63d06f78" x="218.442857" y="272.61324" style="fill: #ff0000; stroke: #ff0000"/>
     <use xlink:href="#m9d63d06f78" x="225.68961" y="273.386239" style="fill: #ff0000; stroke: #ff0000"/>
     <use xlink:href="#m9d63d06f78" x="232.936364" y="273.642962" style="fill: #ff0000; stroke: #ff0000"/>
     <use xlink:href="#m9d63d06f78" x="240.183117" y="273.865764" style="fill: #ff0000; stroke: #ff0000"/>
     <use xlink:href="#m9d63d06f78" x="247.42987" y="277.60993" style="fill: #ff0000; stroke: #ff0000"/>
     <use xlink:href="#m9d63d06f78" x="254.676623" y="279.012228" style="fill: #ff0000; stroke: #ff0000"/>
     <use xlink:href="#m9d63d06f78" x="261.923377" y="279.606471" style="fill: #ff0000; stroke: #ff0000"/>
     <use xlink:href="#m9d63d06f78" x="269.17013" y="281.983916" style="fill: #ff0000; stroke: #ff0000"/>
     <use xlink:href="#m9d63d06f78" x="276.416883" y="281.852318" style="fill: #ff0000; stroke: #ff0000"/>
     <use xlink:href="#m9d63d06f78" x="283.663636" y="282.569628" style="fill: #ff0000; stroke: #ff0000"/>
     <use xlink:href="#m9d63d06f78" x="290.91039" y="283.549328" style="fill: #ff0000; stroke: #ff0000"/>
     <use xlink:href="#m9d63d06f78" x="298.157143" y="284.561266" style="fill: #ff0000; stroke: #ff0000"/>
     <use xlink:href="#m9d63d06f78" x="305.403896" y="287.161571" style="fill: #ff0000; stroke: #ff0000"/>
     <use xlink:href="#m9d63d06f78" x="312.650649" y="287.909653" style="fill: #ff0000; stroke: #ff0000"/>
     <use xlink:href="#m9d63d06f78" x="319.897403" y="288.851765" style="fill: #ff0000; stroke: #ff0000"/>
     <use xlink:href="#m9d63d06f78" x="327.144156" y="289.362125" style="fill: #ff0000; stroke: #ff0000"/>
     <use xlink:href="#m9d63d06f78" x="334.390909" y="291.412929" style="fill: #ff0000; stroke: #ff0000"/>
     <use xlink:href="#m9d63d06f78" x="341.637662" y="292.372384" style="fill: #ff0000; stroke: #ff0000"/>
     <use xlink:href="#m9d63d06f78" x="348.884416" y="291.940579" style="fill: #ff0000; stroke: #ff0000"/>
     <use xlink:href="#m9d63d06f78" x="356.131169" y="293.723043" style="fill: #ff0000; stroke: #ff0000"/>
     <use xlink:href="#m9d63d06f78" x="363.377922" y="292.054056" style="fill: #ff0000; stroke: #ff0000"/>
     <use xlink:href="#m9d63d06f78" x="370.624675" y="294.206315" style="fill: #ff0000; stroke: #ff0000"/>
     <use xlink:href="#m9d63d06f78" x="377.871429" y="296.398503" style="fill: #ff0000; stroke: #ff0000"/>
     <use xlink:href="#m9d63d06f78" x="385.118182" y="295.869202" style="fill: #ff0000; stroke: #ff0000"/>
     <use xlink:href="#m9d63d06f78" x="392.364935" y="296.75941" style="fill: #ff0000; stroke: #ff0000"/>
     <use xlink:href="#m9d63d06f78" x="399.611688" y="294.69576" style="fill: #ff0000; stroke: #ff0000"/>
     <use xlink:href="#m9d63d06f78" x="406.858442" y="298.868064" style="fill: #ff0000; stroke: #ff0000"/>
     <use xlink:href="#m9d63d06f78" x="414.105195" y="300.000001" style="fill: #ff0000; stroke: #ff0000"/>
     <use xlink:href="#m9d63d06f78" x="421.351948" y="299.57487" style="fill: #ff0000; stroke: #ff0000"/>
     <use xlink:href="#m9d63d06f78" x="428.598701" y="301.468558" style="fill: #ff0000; stroke: #ff0000"/>
     <use xlink:href="#m9d63d06f78" x="435.845455" y="302.645455" style="fill: #ff0000; stroke: #ff0000"/>
    </g>
   </g>
   <g id="line2d_23">
    <path d="M 80.754545 170.854506 
L 88.001299 197.903492 
L 95.248052 210.03256 
L 102.494805 221.416237 
L 109.741558 230.371796 
L 116.988312 227.680207 
L 124.235065 237.495549 
L 131.481818 242.379177 
L 138.728571 242.327202 
L 145.975325 239.118851 
L 153.222078 248.178761 
L 160.468831 248.695313 
L 167.715584 247.798637 
L 174.962338 252.008915 
L 182.209091 236.482179 
L 189.455844 249.539846 
L 196.702597 254.218253 
L 203.949351 249.783494 
L 211.196104 250.846419 
L 218.442857 254.872566 
L 225.68961 253.345229 
L 232.936364 256.870511 
L 240.183117 260.596011 
L 247.42987 249.36128 
L 254.676623 255.647299 
L 261.923377 261.946857 
L 269.17013 261.691153 
L 276.416883 256.263046 
L 283.663636 257.84154 
L 290.91039 258.888791 
L 298.157143 259.757225 
L 305.403896 256.85112 
L 312.650649 259.354049 
L 319.897403 260.347891 
L 327.144156 258.293499 
L 334.390909 255.485355 
L 341.637662 261.347046 
L 348.884416 260.995472 
L 356.131169 252.352899 
L 363.377922 260.483181 
L 370.624675 261.638108 
L 377.871429 265.570306 
L 385.118182 263.151686 
L 392.364935 252.701025 
L 399.611688 248.03185 
L 406.858442 265.644131 
L 414.105195 259.269878 
L 421.351948 261.819254 
L 428.598701 262.704151 
L 435.845455 263.164967 
" clip-path="url(#p5df600dfa0)" style="fill: none; stroke-dasharray: 5.55,2.4; stroke-dashoffset: 0; stroke: #008000; stroke-width: 1.5"/>
    <defs>
     <path id="m608015f8cc" d="M 0 3 
C 0.795609 3 1.55874 2.683901 2.12132 2.12132 
C 2.683901 1.55874 3 0.795609 3 0 
C 3 -0.795609 2.683901 -1.55874 2.12132 -2.12132 
C 1.55874 -2.683901 0.795609 -3 0 -3 
C -0.795609 -3 -1.55874 -2.683901 -2.12132 -2.12132 
C -2.683901 -1.55874 -3 -0.795609 -3 0 
C -3 0.795609 -2.683901 1.55874 -2.12132 2.12132 
C -1.55874 2.683901 -0.795609 3 0 3 
z
" style="stroke: #008000"/>
    </defs>
    <g clip-path="url(#p5df600dfa0)">
     <use xlink:href="#m608015f8cc" x="80.754545" y="170.854506" style="fill: #008000; stroke: #008000"/>
     <use xlink:href="#m608015f8cc" x="88.001299" y="197.903492" style="fill: #008000; stroke: #008000"/>
     <use xlink:href="#m608015f8cc" x="95.248052" y="210.03256" style="fill: #008000; stroke: #008000"/>
     <use xlink:href="#m608015f8cc" x="102.494805" y="221.416237" style="fill: #008000; stroke: #008000"/>
     <use xlink:href="#m608015f8cc" x="109.741558" y="230.371796" style="fill: #008000; stroke: #008000"/>
     <use xlink:href="#m608015f8cc" x="116.988312" y="227.680207" style="fill: #008000; stroke: #008000"/>
     <use xlink:href="#m608015f8cc" x="124.235065" y="237.495549" style="fill: #008000; stroke: #008000"/>
     <use xlink:href="#m608015f8cc" x="131.481818" y="242.379177" style="fill: #008000; stroke: #008000"/>
     <use xlink:href="#m608015f8cc" x="138.728571" y="242.327202" style="fill: #008000; stroke: #008000"/>
     <use xlink:href="#m608015f8cc" x="145.975325" y="239.118851" style="fill: #008000; stroke: #008000"/>
     <use xlink:href="#m608015f8cc" x="153.222078" y="248.178761" style="fill: #008000; stroke: #008000"/>
     <use xlink:href="#m608015f8cc" x="160.468831" y="248.695313" style="fill: #008000; stroke: #008000"/>
     <use xlink:href="#m608015f8cc" x="167.715584" y="247.798637" style="fill: #008000; stroke: #008000"/>
     <use xlink:href="#m608015f8cc" x="174.962338" y="252.008915" style="fill: #008000; stroke: #008000"/>
     <use xlink:href="#m608015f8cc" x="182.209091" y="236.482179" style="fill: #008000; stroke: #008000"/>
     <use xlink:href="#m608015f8cc" x="189.455844" y="249.539846" style="fill: #008000; stroke: #008000"/>
     <use xlink:href="#m608015f8cc" x="196.702597" y="254.218253" style="fill: #008000; stroke: #008000"/>
     <use xlink:href="#m608015f8cc" x="203.949351" y="249.783494" style="fill: #008000; stroke: #008000"/>
     <use xlink:href="#m608015f8cc" x="211.196104" y="250.846419" style="fill: #008000; stroke: #008000"/>
     <use xlink:href="#m608015f8cc" x="218.442857" y="254.872566" style="fill: #008000; stroke: #008000"/>
     <use xlink:href="#m608015f8cc" x="225.68961" y="253.345229" style="fill: #008000; stroke: #008000"/>
     <use xlink:href="#m608015f8cc" x="232.936364" y="256.870511" style="fill: #008000; stroke: #008000"/>
     <use xlink:href="#m608015f8cc" x="240.183117" y="260.596011" style="fill: #008000; stroke: #008000"/>
     <use xlink:href="#m608015f8cc" x="247.42987" y="249.36128" style="fill: #008000; stroke: #008000"/>
     <use xlink:href="#m608015f8cc" x="254.676623" y="255.647299" style="fill: #008000; stroke: #008000"/>
     <use xlink:href="#m608015f8cc" x="261.923377" y="261.946857" style="fill: #008000; stroke: #008000"/>
     <use xlink:href="#m608015f8cc" x="269.17013" y="261.691153" style="fill: #008000; stroke: #008000"/>
     <use xlink:href="#m608015f8cc" x="276.416883" y="256.263046" style="fill: #008000; stroke: #008000"/>
     <use xlink:href="#m608015f8cc" x="283.663636" y="257.84154" style="fill: #008000; stroke: #008000"/>
     <use xlink:href="#m608015f8cc" x="290.91039" y="258.888791" style="fill: #008000; stroke: #008000"/>
     <use xlink:href="#m608015f8cc" x="298.157143" y="259.757225" style="fill: #008000; stroke: #008000"/>
     <use xlink:href="#m608015f8cc" x="305.403896" y="256.85112" style="fill: #008000; stroke: #008000"/>
     <use xlink:href="#m608015f8cc" x="312.650649" y="259.354049" style="fill: #008000; stroke: #008000"/>
     <use xlink:href="#m608015f8cc" x="319.897403" y="260.347891" style="fill: #008000; stroke: #008000"/>
     <use xlink:href="#m608015f8cc" x="327.144156" y="258.293499" style="fill: #008000; stroke: #008000"/>
     <use xlink:href="#m608015f8cc" x="334.390909" y="255.485355" style="fill: #008000; stroke: #008000"/>
     <use xlink:href="#m608015f8cc" x="341.637662" y="261.347046" style="fill: #008000; stroke: #008000"/>
     <use xlink:href="#m608015f8cc" x="348.884416" y="260.995472" style="fill: #008000; stroke: #008000"/>
     <use xlink:href="#m608015f8cc" x="356.131169" y="252.352899" style="fill: #008000; stroke: #008000"/>
     <use xlink:href="#m608015f8cc" x="363.377922" y="260.483181" style="fill: #008000; stroke: #008000"/>
     <use xlink:href="#m608015f8cc" x="370.624675" y="261.638108" style="fill: #008000; stroke: #008000"/>
     <use xlink:href="#m608015f8cc" x="377.871429" y="265.570306" style="fill: #008000; stroke: #008000"/>
     <use xlink:href="#m608015f8cc" x="385.118182" y="263.151686" style="fill: #008000; stroke: #008000"/>
     <use xlink:href="#m608015f8cc" x="392.364935" y="252.701025" style="fill: #008000; stroke: #008000"/>
     <use xlink:href="#m608015f8cc" x="399.611688" y="248.03185" style="fill: #008000; stroke: #008000"/>
     <use xlink:href="#m608015f8cc" x="406.858442" y="265.644131" style="fill: #008000; stroke: #008000"/>
     <use xlink:href="#m608015f8cc" x="414.105195" y="259.269878" style="fill: #008000; stroke: #008000"/>
     <use xlink:href="#m608015f8cc" x="421.351948" y="261.819254" style="fill: #008000; stroke: #008000"/>
     <use xlink:href="#m608015f8cc" x="428.598701" y="262.704151" style="fill: #008000; stroke: #008000"/>
     <use xlink:href="#m608015f8cc" x="435.845455" y="263.164967" style="fill: #008000; stroke: #008000"/>
    </g>
   </g>
   <g id="patch_3">
    <path d="M 63 315 
L 63 43.2 
" style="fill: none; stroke: #000000; stroke-width: 0.8; stroke-linejoin: miter; stroke-linecap: square"/>
   </g>
   <g id="patch_4">
    <path d="M 453.6 315 
L 453.6 43.2 
" style="fill: none; stroke: #000000; stroke-width: 0.8; stroke-linejoin: miter; stroke-linecap: square"/>
   </g>
   <g id="patch_5">
    <path d="M 63 315 
L 453.6 315 
" style="fill: none; stroke: #000000; stroke-width: 0.8; stroke-linejoin: miter; stroke-linecap: square"/>
   </g>
   <g id="patch_6">
    <path d="M 63 43.2 
L 453.6 43.2 
" style="fill: none; stroke: #000000; stroke-width: 0.8; stroke-linejoin: miter; stroke-linecap: square"/>
   </g>
   <g id="text_13">
    <!-- Losses -->
    <g transform="translate(233.327344 37.2)scale(0.15 -0.15)">
     <defs>
      <path id="DejaVuSans-65" d="M 3597 1894 
L 3597 1613 
L 953 1613 
Q 991 1019 1311 708 
Q 1631 397 2203 397 
Q 2534 397 2845 478 
Q 3156 559 3463 722 
L 3463 178 
Q 3153 47 2828 -22 
Q 2503 -91 2169 -91 
Q 1331 -91 842 396 
Q 353 884 353 1716 
Q 353 2575 817 3079 
Q 1281 3584 2069 3584 
Q 2775 3584 3186 3129 
Q 3597 2675 3597 1894 
z
M 3022 2063 
Q 3016 2534 2758 2815 
Q 2500 3097 2075 3097 
Q 1594 3097 1305 2825 
Q 1016 2553 972 2059 
L 3022 2063 
z
" transform="scale(0.015625)"/>
     </defs>
     <use xlink:href="#DejaVuSans-4c"/>
     <use xlink:href="#DejaVuSans-6f" x="53.962891"/>
     <use xlink:href="#DejaVuSans-73" x="115.144531"/>
     <use xlink:href="#DejaVuSans-73" x="167.244141"/>
     <use xlink:href="#DejaVuSans-65" x="219.34375"/>
     <use xlink:href="#DejaVuSans-73" x="280.867188"/>
    </g>
   </g>
   <g id="legend_1">
    <g id="patch_7">
     <path d="M 342.725 80.55625 
L 446.6 80.55625 
Q 448.6 80.55625 448.6 78.55625 
L 448.6 50.2 
Q 448.6 48.2 446.6 48.2 
L 342.725 48.2 
Q 340.725 48.2 340.725 50.2 
L 340.725 78.55625 
Q 340.725 80.55625 342.725 80.55625 
z
" style="fill: #ffffff; opacity: 0.8; stroke: #cccccc; stroke-linejoin: miter"/>
    </g>
    <g id="line2d_24">
     <path d="M 344.725 56.298437 
L 354.725 56.298437 
L 364.725 56.298437 
" style="fill: none; stroke-dasharray: 5.55,2.4; stroke-dashoffset: 0; stroke: #ff0000; stroke-width: 1.5"/>
     <g>
      <use xlink:href="#m9d63d06f78" x="354.725" y="56.298437" style="fill: #ff0000; stroke: #ff0000"/>
     </g>
    </g>
    <g id="text_14">
     <!-- Train loss -->
     <g transform="translate(372.725 59.798437)scale(0.1 -0.1)">
      <defs>
       <path id="DejaVuSans-54" d="M -19 4666 
L 3928 4666 
L 3928 4134 
L 2272 4134 
L 2272 0 
L 1638 0 
L 1638 4134 
L -19 4134 
L -19 4666 
z
" transform="scale(0.015625)"/>
       <path id="DejaVuSans-72" d="M 2631 2963 
Q 2534 3019 2420 3045 
Q 2306 3072 2169 3072 
Q 1681 3072 1420 2755 
Q 1159 2438 1159 1844 
L 1159 0 
L 581 0 
L 581 3500 
L 1159 3500 
L 1159 2956 
Q 1341 3275 1631 3429 
Q 1922 3584 2338 3584 
Q 2397 3584 2469 3576 
Q 2541 3569 2628 3553 
L 2631 2963 
z
" transform="scale(0.015625)"/>
       <path id="DejaVuSans-61" d="M 2194 1759 
Q 1497 1759 1228 1600 
Q 959 1441 959 1056 
Q 959 750 1161 570 
Q 1363 391 1709 391 
Q 2188 391 2477 730 
Q 2766 1069 2766 1631 
L 2766 1759 
L 2194 1759 
z
M 3341 1997 
L 3341 0 
L 2766 0 
L 2766 531 
Q 2569 213 2275 61 
Q 1981 -91 1556 -91 
Q 1019 -91 701 211 
Q 384 513 384 1019 
Q 384 1609 779 1909 
Q 1175 2209 1959 2209 
L 2766 2209 
L 2766 2266 
Q 2766 2663 2505 2880 
Q 2244 3097 1772 3097 
Q 1472 3097 1187 3025 
Q 903 2953 641 2809 
L 641 3341 
Q 956 3463 1253 3523 
Q 1550 3584 1831 3584 
Q 2591 3584 2966 3190 
Q 3341 2797 3341 1997 
z
" transform="scale(0.015625)"/>
       <path id="DejaVuSans-69" d="M 603 3500 
L 1178 3500 
L 1178 0 
L 603 0 
L 603 3500 
z
M 603 4863 
L 1178 4863 
L 1178 4134 
L 603 4134 
L 603 4863 
z
" transform="scale(0.015625)"/>
       <path id="DejaVuSans-6e" d="M 3513 2113 
L 3513 0 
L 2938 0 
L 2938 2094 
Q 2938 2591 2744 2837 
Q 2550 3084 2163 3084 
Q 1697 3084 1428 2787 
Q 1159 2491 1159 1978 
L 1159 0 
L 581 0 
L 581 3500 
L 1159 3500 
L 1159 2956 
Q 1366 3272 1645 3428 
Q 1925 3584 2291 3584 
Q 2894 3584 3203 3211 
Q 3513 2838 3513 2113 
z
" transform="scale(0.015625)"/>
       <path id="DejaVuSans-20" transform="scale(0.015625)"/>
       <path id="DejaVuSans-6c" d="M 603 4863 
L 1178 4863 
L 1178 0 
L 603 0 
L 603 4863 
z
" transform="scale(0.015625)"/>
      </defs>
      <use xlink:href="#DejaVuSans-54"/>
      <use xlink:href="#DejaVuSans-72" x="46.333984"/>
      <use xlink:href="#DejaVuSans-61" x="87.447266"/>
      <use xlink:href="#DejaVuSans-69" x="148.726562"/>
      <use xlink:href="#DejaVuSans-6e" x="176.509766"/>
      <use xlink:href="#DejaVuSans-20" x="239.888672"/>
      <use xlink:href="#DejaVuSans-6c" x="271.675781"/>
      <use xlink:href="#DejaVuSans-6f" x="299.458984"/>
      <use xlink:href="#DejaVuSans-73" x="360.640625"/>
      <use xlink:href="#DejaVuSans-73" x="412.740234"/>
     </g>
    </g>
    <g id="line2d_25">
     <path d="M 344.725 70.976562 
L 354.725 70.976562 
L 364.725 70.976562 
" style="fill: none; stroke-dasharray: 5.55,2.4; stroke-dashoffset: 0; stroke: #008000; stroke-width: 1.5"/>
     <g>
      <use xlink:href="#m608015f8cc" x="354.725" y="70.976562" style="fill: #008000; stroke: #008000"/>
     </g>
    </g>
    <g id="text_15">
     <!-- Validation loss -->
     <g transform="translate(372.725 74.476562)scale(0.1 -0.1)">
      <defs>
       <path id="DejaVuSans-56" d="M 1831 0 
L 50 4666 
L 709 4666 
L 2188 738 
L 3669 4666 
L 4325 4666 
L 2547 0 
L 1831 0 
z
" transform="scale(0.015625)"/>
       <path id="DejaVuSans-64" d="M 2906 2969 
L 2906 4863 
L 3481 4863 
L 3481 0 
L 2906 0 
L 2906 525 
Q 2725 213 2448 61 
Q 2172 -91 1784 -91 
Q 1150 -91 751 415 
Q 353 922 353 1747 
Q 353 2572 751 3078 
Q 1150 3584 1784 3584 
Q 2172 3584 2448 3432 
Q 2725 3281 2906 2969 
z
M 947 1747 
Q 947 1113 1208 752 
Q 1469 391 1925 391 
Q 2381 391 2643 752 
Q 2906 1113 2906 1747 
Q 2906 2381 2643 2742 
Q 2381 3103 1925 3103 
Q 1469 3103 1208 2742 
Q 947 2381 947 1747 
z
" transform="scale(0.015625)"/>
       <path id="DejaVuSans-74" d="M 1172 4494 
L 1172 3500 
L 2356 3500 
L 2356 3053 
L 1172 3053 
L 1172 1153 
Q 1172 725 1289 603 
Q 1406 481 1766 481 
L 2356 481 
L 2356 0 
L 1766 0 
Q 1100 0 847 248 
Q 594 497 594 1153 
L 594 3053 
L 172 3053 
L 172 3500 
L 594 3500 
L 594 4494 
L 1172 4494 
z
" transform="scale(0.015625)"/>
      </defs>
      <use xlink:href="#DejaVuSans-56"/>
      <use xlink:href="#DejaVuSans-61" x="60.658203"/>
      <use xlink:href="#DejaVuSans-6c" x="121.9375"/>
      <use xlink:href="#DejaVuSans-69" x="149.720703"/>
      <use xlink:href="#DejaVuSans-64" x="177.503906"/>
      <use xlink:href="#DejaVuSans-61" x="240.980469"/>
      <use xlink:href="#DejaVuSans-74" x="302.259766"/>
      <use xlink:href="#DejaVuSans-69" x="341.46875"/>
      <use xlink:href="#DejaVuSans-6f" x="369.251953"/>
      <use xlink:href="#DejaVuSans-6e" x="430.433594"/>
      <use xlink:href="#DejaVuSans-20" x="493.8125"/>
      <use xlink:href="#DejaVuSans-6c" x="525.599609"/>
      <use xlink:href="#DejaVuSans-6f" x="553.382812"/>
      <use xlink:href="#DejaVuSans-73" x="614.564453"/>
      <use xlink:href="#DejaVuSans-73" x="666.664062"/>
     </g>
    </g>
   </g>
  </g>
 </g>
 <defs>
  <clipPath id="p5df600dfa0">
   <rect x="63" y="43.2" width="390.6" height="271.8"/>
  </clipPath>
 </defs>
</svg>
