<?xml version="1.0" encoding="utf-8" standalone="no"?>
<!DOCTYPE svg PUBLIC "-//W3C//DTD SVG 1.1//EN"
  "http://www.w3.org/Graphics/SVG/1.1/DTD/svg11.dtd">
<svg xmlns:xlink="http://www.w3.org/1999/xlink" width="504pt" height="360pt" viewBox="0 0 504 360" xmlns="http://www.w3.org/2000/svg" version="1.1">
 <metadata>
  <rdf:RDF xmlns:dc="http://purl.org/dc/elements/1.1/" xmlns:cc="http://creativecommons.org/ns#" xmlns:rdf="http://www.w3.org/1999/02/22-rdf-syntax-ns#">
   <cc:Work>
    <dc:type rdf:resource="http://purl.org/dc/dcmitype/StillImage"/>
    <dc:date>2022-07-03T08:38:43.761377</dc:date>
    <dc:format>image/svg+xml</dc:format>
    <dc:creator>
     <cc:Agent>
      <dc:title>Matplotlib v3.5.1, https://matplotlib.org/</dc:title>
     </cc:Agent>
    </dc:creator>
   </cc:Work>
  </rdf:RDF>
 </metadata>
 <defs>
  <style type="text/css">*{stroke-linejoin: round; stroke-linecap: butt}</style>
 </defs>
 <g id="figure_1">
  <g id="patch_1">
   <path d="M 0 360 
L 504 360 
L 504 0 
L 0 0 
L 0 360 
z
" style="fill: none"/>
  </g>
  <g id="axes_1">
   <g id="patch_2">
    <path d="M 63 315 
L 453.6 315 
L 453.6 43.2 
L 63 43.2 
z
" style="fill: #ffffff"/>
   </g>
   <g id="matplotlib.axis_1">
    <g id="xtick_1">
     <g id="line2d_1">
      <path d="M 80.754545 315 
L 80.754545 43.2 
" clip-path="url(#p09040ea630)" style="fill: none; stroke: #b0b0b0; stroke-width: 0.8; stroke-linecap: square"/>
     </g>
     <g id="line2d_2">
      <defs>
       <path id="m8ef538e6e9" d="M 0 0 
L 0 3.5 
" style="stroke: #000000; stroke-width: 0.8"/>
      </defs>
      <g>
       <use xlink:href="#m8ef538e6e9" x="80.754545" y="315" style="stroke: #000000; stroke-width: 0.8"/>
      </g>
     </g>
     <g id="text_1">
      <!-- 0 -->
      <g transform="translate(77.573295 329.598437)scale(0.1 -0.1)">
       <defs>
        <path id="DejaVuSans-30" d="M 2034 4250 
Q 1547 4250 1301 3770 
Q 1056 3291 1056 2328 
Q 1056 1369 1301 889 
Q 1547 409 2034 409 
Q 2525 409 2770 889 
Q 3016 1369 3016 2328 
Q 3016 3291 2770 3770 
Q 2525 4250 2034 4250 
z
M 2034 4750 
Q 2819 4750 3233 4129 
Q 3647 3509 3647 2328 
Q 3647 1150 3233 529 
Q 2819 -91 2034 -91 
Q 1250 -91 836 529 
Q 422 1150 422 2328 
Q 422 3509 836 4129 
Q 1250 4750 2034 4750 
z
" transform="scale(0.015625)"/>
       </defs>
       <use xlink:href="#DejaVuSans-30"/>
      </g>
     </g>
    </g>
    <g id="xtick_2">
     <g id="line2d_3">
      <path d="M 153.222078 315 
L 153.222078 43.2 
" clip-path="url(#p09040ea630)" style="fill: none; stroke: #b0b0b0; stroke-width: 0.8; stroke-linecap: square"/>
     </g>
     <g id="line2d_4">
      <g>
       <use xlink:href="#m8ef538e6e9" x="153.222078" y="315" style="stroke: #000000; stroke-width: 0.8"/>
      </g>
     </g>
     <g id="text_2">
      <!-- 10 -->
      <g transform="translate(146.859578 329.598437)scale(0.1 -0.1)">
       <defs>
        <path id="DejaVuSans-31" d="M 794 531 
L 1825 531 
L 1825 4091 
L 703 3866 
L 703 4441 
L 1819 4666 
L 2450 4666 
L 2450 531 
L 3481 531 
L 3481 0 
L 794 0 
L 794 531 
z
" transform="scale(0.015625)"/>
       </defs>
       <use xlink:href="#DejaVuSans-31"/>
       <use xlink:href="#DejaVuSans-30" x="63.623047"/>
      </g>
     </g>
    </g>
    <g id="xtick_3">
     <g id="line2d_5">
      <path d="M 225.68961 315 
L 225.68961 43.2 
" clip-path="url(#p09040ea630)" style="fill: none; stroke: #b0b0b0; stroke-width: 0.8; stroke-linecap: square"/>
     </g>
     <g id="line2d_6">
      <g>
       <use xlink:href="#m8ef538e6e9" x="225.68961" y="315" style="stroke: #000000; stroke-width: 0.8"/>
      </g>
     </g>
     <g id="text_3">
      <!-- 20 -->
      <g transform="translate(219.32711 329.598437)scale(0.1 -0.1)">
       <defs>
        <path id="DejaVuSans-32" d="M 1228 531 
L 3431 531 
L 3431 0 
L 469 0 
L 469 531 
Q 828 903 1448 1529 
Q 2069 2156 2228 2338 
Q 2531 2678 2651 2914 
Q 2772 3150 2772 3378 
Q 2772 3750 2511 3984 
Q 2250 4219 1831 4219 
Q 1534 4219 1204 4116 
Q 875 4013 500 3803 
L 500 4441 
Q 881 4594 1212 4672 
Q 1544 4750 1819 4750 
Q 2544 4750 2975 4387 
Q 3406 4025 3406 3419 
Q 3406 3131 3298 2873 
Q 3191 2616 2906 2266 
Q 2828 2175 2409 1742 
Q 1991 1309 1228 531 
z
" transform="scale(0.015625)"/>
       </defs>
       <use xlink:href="#DejaVuSans-32"/>
       <use xlink:href="#DejaVuSans-30" x="63.623047"/>
      </g>
     </g>
    </g>
    <g id="xtick_4">
     <g id="line2d_7">
      <path d="M 298.157143 315 
L 298.157143 43.2 
" clip-path="url(#p09040ea630)" style="fill: none; stroke: #b0b0b0; stroke-width: 0.8; stroke-linecap: square"/>
     </g>
     <g id="line2d_8">
      <g>
       <use xlink:href="#m8ef538e6e9" x="298.157143" y="315" style="stroke: #000000; stroke-width: 0.8"/>
      </g>
     </g>
     <g id="text_4">
      <!-- 30 -->
      <g transform="translate(291.794643 329.598437)scale(0.1 -0.1)">
       <defs>
        <path id="DejaVuSans-33" d="M 2597 2516 
Q 3050 2419 3304 2112 
Q 3559 1806 3559 1356 
Q 3559 666 3084 287 
Q 2609 -91 1734 -91 
Q 1441 -91 1130 -33 
Q 819 25 488 141 
L 488 750 
Q 750 597 1062 519 
Q 1375 441 1716 441 
Q 2309 441 2620 675 
Q 2931 909 2931 1356 
Q 2931 1769 2642 2001 
Q 2353 2234 1838 2234 
L 1294 2234 
L 1294 2753 
L 1863 2753 
Q 2328 2753 2575 2939 
Q 2822 3125 2822 3475 
Q 2822 3834 2567 4026 
Q 2313 4219 1838 4219 
Q 1578 4219 1281 4162 
Q 984 4106 628 3988 
L 628 4550 
Q 988 4650 1302 4700 
Q 1616 4750 1894 4750 
Q 2613 4750 3031 4423 
Q 3450 4097 3450 3541 
Q 3450 3153 3228 2886 
Q 3006 2619 2597 2516 
z
" transform="scale(0.015625)"/>
       </defs>
       <use xlink:href="#DejaVuSans-33"/>
       <use xlink:href="#DejaVuSans-30" x="63.623047"/>
      </g>
     </g>
    </g>
    <g id="xtick_5">
     <g id="line2d_9">
      <path d="M 370.624675 315 
L 370.624675 43.2 
" clip-path="url(#p09040ea630)" style="fill: none; stroke: #b0b0b0; stroke-width: 0.8; stroke-linecap: square"/>
     </g>
     <g id="line2d_10">
      <g>
       <use xlink:href="#m8ef538e6e9" x="370.624675" y="315" style="stroke: #000000; stroke-width: 0.8"/>
      </g>
     </g>
     <g id="text_5">
      <!-- 40 -->
      <g transform="translate(364.262175 329.598437)scale(0.1 -0.1)">
       <defs>
        <path id="DejaVuSans-34" d="M 2419 4116 
L 825 1625 
L 2419 1625 
L 2419 4116 
z
M 2253 4666 
L 3047 4666 
L 3047 1625 
L 3713 1625 
L 3713 1100 
L 3047 1100 
L 3047 0 
L 2419 0 
L 2419 1100 
L 313 1100 
L 313 1709 
L 2253 4666 
z
" transform="scale(0.015625)"/>
       </defs>
       <use xlink:href="#DejaVuSans-34"/>
       <use xlink:href="#DejaVuSans-30" x="63.623047"/>
      </g>
     </g>
    </g>
    <g id="xtick_6">
     <g id="line2d_11">
      <path d="M 443.092208 315 
L 443.092208 43.2 
" clip-path="url(#p09040ea630)" style="fill: none; stroke: #b0b0b0; stroke-width: 0.8; stroke-linecap: square"/>
     </g>
     <g id="line2d_12">
      <g>
       <use xlink:href="#m8ef538e6e9" x="443.092208" y="315" style="stroke: #000000; stroke-width: 0.8"/>
      </g>
     </g>
     <g id="text_6">
      <!-- 50 -->
      <g transform="translate(436.729708 329.598437)scale(0.1 -0.1)">
       <defs>
        <path id="DejaVuSans-35" d="M 691 4666 
L 3169 4666 
L 3169 4134 
L 1269 4134 
L 1269 2991 
Q 1406 3038 1543 3061 
Q 1681 3084 1819 3084 
Q 2600 3084 3056 2656 
Q 3513 2228 3513 1497 
Q 3513 744 3044 326 
Q 2575 -91 1722 -91 
Q 1428 -91 1123 -41 
Q 819 9 494 109 
L 494 744 
Q 775 591 1075 516 
Q 1375 441 1709 441 
Q 2250 441 2565 725 
Q 2881 1009 2881 1497 
Q 2881 1984 2565 2268 
Q 2250 2553 1709 2553 
Q 1456 2553 1204 2497 
Q 953 2441 691 2322 
L 691 4666 
z
" transform="scale(0.015625)"/>
       </defs>
       <use xlink:href="#DejaVuSans-35"/>
       <use xlink:href="#DejaVuSans-30" x="63.623047"/>
      </g>
     </g>
    </g>
    <g id="text_7">
     <!-- Epoch -->
     <g transform="translate(235.333594 347.075781)scale(0.15 -0.15)">
      <defs>
       <path id="DejaVuSans-45" d="M 628 4666 
L 3578 4666 
L 3578 4134 
L 1259 4134 
L 1259 2753 
L 3481 2753 
L 3481 2222 
L 1259 2222 
L 1259 531 
L 3634 531 
L 3634 0 
L 628 0 
L 628 4666 
z
" transform="scale(0.015625)"/>
       <path id="DejaVuSans-70" d="M 1159 525 
L 1159 -1331 
L 581 -1331 
L 581 3500 
L 1159 3500 
L 1159 2969 
Q 1341 3281 1617 3432 
Q 1894 3584 2278 3584 
Q 2916 3584 3314 3078 
Q 3713 2572 3713 1747 
Q 3713 922 3314 415 
Q 2916 -91 2278 -91 
Q 1894 -91 1617 61 
Q 1341 213 1159 525 
z
M 3116 1747 
Q 3116 2381 2855 2742 
Q 2594 3103 2138 3103 
Q 1681 3103 1420 2742 
Q 1159 2381 1159 1747 
Q 1159 1113 1420 752 
Q 1681 391 2138 391 
Q 2594 391 2855 752 
Q 3116 1113 3116 1747 
z
" transform="scale(0.015625)"/>
       <path id="DejaVuSans-6f" d="M 1959 3097 
Q 1497 3097 1228 2736 
Q 959 2375 959 1747 
Q 959 1119 1226 758 
Q 1494 397 1959 397 
Q 2419 397 2687 759 
Q 2956 1122 2956 1747 
Q 2956 2369 2687 2733 
Q 2419 3097 1959 3097 
z
M 1959 3584 
Q 2709 3584 3137 3096 
Q 3566 2609 3566 1747 
Q 3566 888 3137 398 
Q 2709 -91 1959 -91 
Q 1206 -91 779 398 
Q 353 888 353 1747 
Q 353 2609 779 3096 
Q 1206 3584 1959 3584 
z
" transform="scale(0.015625)"/>
       <path id="DejaVuSans-63" d="M 3122 3366 
L 3122 2828 
Q 2878 2963 2633 3030 
Q 2388 3097 2138 3097 
Q 1578 3097 1268 2742 
Q 959 2388 959 1747 
Q 959 1106 1268 751 
Q 1578 397 2138 397 
Q 2388 397 2633 464 
Q 2878 531 3122 666 
L 3122 134 
Q 2881 22 2623 -34 
Q 2366 -91 2075 -91 
Q 1284 -91 818 406 
Q 353 903 353 1747 
Q 353 2603 823 3093 
Q 1294 3584 2113 3584 
Q 2378 3584 2631 3529 
Q 2884 3475 3122 3366 
z
" transform="scale(0.015625)"/>
       <path id="DejaVuSans-68" d="M 3513 2113 
L 3513 0 
L 2938 0 
L 2938 2094 
Q 2938 2591 2744 2837 
Q 2550 3084 2163 3084 
Q 1697 3084 1428 2787 
Q 1159 2491 1159 1978 
L 1159 0 
L 581 0 
L 581 4863 
L 1159 4863 
L 1159 2956 
Q 1366 3272 1645 3428 
Q 1925 3584 2291 3584 
Q 2894 3584 3203 3211 
Q 3513 2838 3513 2113 
z
" transform="scale(0.015625)"/>
      </defs>
      <use xlink:href="#DejaVuSans-45"/>
      <use xlink:href="#DejaVuSans-70" x="63.183594"/>
      <use xlink:href="#DejaVuSans-6f" x="126.660156"/>
      <use xlink:href="#DejaVuSans-63" x="187.841797"/>
      <use xlink:href="#DejaVuSans-68" x="242.822266"/>
     </g>
    </g>
   </g>
   <g id="matplotlib.axis_2">
    <g id="ytick_1">
     <g id="line2d_13">
      <path d="M 63 271.254184 
L 453.6 271.254184 
" clip-path="url(#p09040ea630)" style="fill: none; stroke: #b0b0b0; stroke-width: 0.8; stroke-linecap: square"/>
     </g>
     <g id="line2d_14">
      <defs>
       <path id="mb815456c84" d="M 0 0 
L -3.5 0 
" style="stroke: #000000; stroke-width: 0.8"/>
      </defs>
      <g>
       <use xlink:href="#mb815456c84" x="63" y="271.254184" style="stroke: #000000; stroke-width: 0.8"/>
      </g>
     </g>
     <g id="text_8">
      <!-- $\mathdefault{10^{4}}$ -->
      <g transform="translate(38.4 275.053403)scale(0.1 -0.1)">
       <use xlink:href="#DejaVuSans-31" transform="translate(0 0.684375)"/>
       <use xlink:href="#DejaVuSans-30" transform="translate(63.623047 0.684375)"/>
       <use xlink:href="#DejaVuSans-34" transform="translate(128.203125 38.965625)scale(0.7)"/>
      </g>
     </g>
    </g>
    <g id="ytick_2">
     <g id="line2d_15">
      <path d="M 63 127.466903 
L 453.6 127.466903 
" clip-path="url(#p09040ea630)" style="fill: none; stroke: #b0b0b0; stroke-width: 0.8; stroke-linecap: square"/>
     </g>
     <g id="line2d_16">
      <g>
       <use xlink:href="#mb815456c84" x="63" y="127.466903" style="stroke: #000000; stroke-width: 0.8"/>
      </g>
     </g>
     <g id="text_9">
      <!-- $\mathdefault{10^{5}}$ -->
      <g transform="translate(38.4 131.266122)scale(0.1 -0.1)">
       <use xlink:href="#DejaVuSans-31" transform="translate(0 0.684375)"/>
       <use xlink:href="#DejaVuSans-30" transform="translate(63.623047 0.684375)"/>
       <use xlink:href="#DejaVuSans-35" transform="translate(128.203125 38.965625)scale(0.7)"/>
      </g>
     </g>
    </g>
    <g id="ytick_3">
     <g id="line2d_17">
      <defs>
       <path id="md69cf1d0a7" d="M 0 0 
L -2 0 
" style="stroke: #000000; stroke-width: 0.6"/>
      </defs>
      <g>
       <use xlink:href="#md69cf1d0a7" x="63" y="314.538469" style="stroke: #000000; stroke-width: 0.6"/>
      </g>
     </g>
    </g>
    <g id="ytick_4">
     <g id="line2d_18">
      <g>
       <use xlink:href="#md69cf1d0a7" x="63" y="303.153213" style="stroke: #000000; stroke-width: 0.6"/>
      </g>
     </g>
    </g>
    <g id="ytick_5">
     <g id="line2d_19">
      <g>
       <use xlink:href="#md69cf1d0a7" x="63" y="293.527116" style="stroke: #000000; stroke-width: 0.6"/>
      </g>
     </g>
    </g>
    <g id="ytick_6">
     <g id="line2d_20">
      <g>
       <use xlink:href="#md69cf1d0a7" x="63" y="285.188612" style="stroke: #000000; stroke-width: 0.6"/>
      </g>
     </g>
    </g>
    <g id="ytick_7">
     <g id="line2d_21">
      <g>
       <use xlink:href="#md69cf1d0a7" x="63" y="277.83353" style="stroke: #000000; stroke-width: 0.6"/>
      </g>
     </g>
    </g>
    <g id="ytick_8">
     <g id="line2d_22">
      <g>
       <use xlink:href="#md69cf1d0a7" x="63" y="227.9699" style="stroke: #000000; stroke-width: 0.6"/>
      </g>
     </g>
    </g>
    <g id="ytick_9">
     <g id="line2d_23">
      <g>
       <use xlink:href="#md69cf1d0a7" x="63" y="202.650216" style="stroke: #000000; stroke-width: 0.6"/>
      </g>
     </g>
    </g>
    <g id="ytick_10">
     <g id="line2d_24">
      <g>
       <use xlink:href="#md69cf1d0a7" x="63" y="184.685615" style="stroke: #000000; stroke-width: 0.6"/>
      </g>
     </g>
    </g>
    <g id="ytick_11">
     <g id="line2d_25">
      <g>
       <use xlink:href="#md69cf1d0a7" x="63" y="170.751188" style="stroke: #000000; stroke-width: 0.6"/>
      </g>
     </g>
    </g>
    <g id="ytick_12">
     <g id="line2d_26">
      <g>
       <use xlink:href="#md69cf1d0a7" x="63" y="159.365932" style="stroke: #000000; stroke-width: 0.6"/>
      </g>
     </g>
    </g>
    <g id="ytick_13">
     <g id="line2d_27">
      <g>
       <use xlink:href="#md69cf1d0a7" x="63" y="149.739835" style="stroke: #000000; stroke-width: 0.6"/>
      </g>
     </g>
    </g>
    <g id="ytick_14">
     <g id="line2d_28">
      <g>
       <use xlink:href="#md69cf1d0a7" x="63" y="141.40133" style="stroke: #000000; stroke-width: 0.6"/>
      </g>
     </g>
    </g>
    <g id="ytick_15">
     <g id="line2d_29">
      <g>
       <use xlink:href="#md69cf1d0a7" x="63" y="134.046248" style="stroke: #000000; stroke-width: 0.6"/>
      </g>
     </g>
    </g>
    <g id="ytick_16">
     <g id="line2d_30">
      <g>
       <use xlink:href="#md69cf1d0a7" x="63" y="84.182618" style="stroke: #000000; stroke-width: 0.6"/>
      </g>
     </g>
    </g>
    <g id="ytick_17">
     <g id="line2d_31">
      <g>
       <use xlink:href="#md69cf1d0a7" x="63" y="58.862935" style="stroke: #000000; stroke-width: 0.6"/>
      </g>
     </g>
    </g>
    <g id="text_10">
     <!-- Loss -->
     <g transform="translate(31.280469 195.550781)rotate(-90)scale(0.15 -0.15)">
      <defs>
       <path id="DejaVuSans-4c" d="M 628 4666 
L 1259 4666 
L 1259 531 
L 3531 531 
L 3531 0 
L 628 0 
L 628 4666 
z
" transform="scale(0.015625)"/>
       <path id="DejaVuSans-73" d="M 2834 3397 
L 2834 2853 
Q 2591 2978 2328 3040 
Q 2066 3103 1784 3103 
Q 1356 3103 1142 2972 
Q 928 2841 928 2578 
Q 928 2378 1081 2264 
Q 1234 2150 1697 2047 
L 1894 2003 
Q 2506 1872 2764 1633 
Q 3022 1394 3022 966 
Q 3022 478 2636 193 
Q 2250 -91 1575 -91 
Q 1294 -91 989 -36 
Q 684 19 347 128 
L 347 722 
Q 666 556 975 473 
Q 1284 391 1588 391 
Q 1994 391 2212 530 
Q 2431 669 2431 922 
Q 2431 1156 2273 1281 
Q 2116 1406 1581 1522 
L 1381 1569 
Q 847 1681 609 1914 
Q 372 2147 372 2553 
Q 372 3047 722 3315 
Q 1072 3584 1716 3584 
Q 2034 3584 2315 3537 
Q 2597 3491 2834 3397 
z
" transform="scale(0.015625)"/>
      </defs>
      <use xlink:href="#DejaVuSans-4c"/>
      <use xlink:href="#DejaVuSans-6f" x="53.962891"/>
      <use xlink:href="#DejaVuSans-73" x="115.144531"/>
      <use xlink:href="#DejaVuSans-73" x="167.244141"/>
     </g>
    </g>
   </g>
   <g id="line2d_32">
    <path d="M 80.754545 249.588881 
L 88.001299 287.439263 
L 95.248052 289.992758 
L 102.494805 291.647032 
L 109.741558 292.971467 
L 116.988312 294.067518 
L 124.235065 294.931193 
L 131.481818 295.925592 
L 138.728571 296.583036 
L 145.975325 297.358602 
L 153.222078 297.681507 
L 160.468831 298.200003 
L 167.715584 298.553637 
L 174.962338 298.883699 
L 182.209091 299.2375 
L 189.455844 299.580934 
L 196.702597 299.765601 
L 203.949351 299.899247 
L 211.196104 300.194197 
L 218.442857 300.399924 
L 225.68961 300.438798 
L 232.936364 300.691205 
L 240.183117 300.841955 
L 247.42987 301.012734 
L 254.676623 301.071016 
L 261.923377 301.208277 
L 269.17013 301.269888 
L 276.416883 301.38144 
L 283.663636 301.370223 
L 290.91039 301.513673 
L 298.157143 301.741847 
L 305.403896 301.593352 
L 312.650649 301.768254 
L 319.897403 301.80421 
L 327.144156 301.904632 
L 334.390909 302.012195 
L 341.637662 302.084675 
L 348.884416 302.050329 
L 356.131169 301.990219 
L 363.377922 302.167683 
L 370.624675 302.29067 
L 377.871429 302.164406 
L 385.118182 302.276387 
L 392.364935 302.329757 
L 399.611688 302.535674 
L 406.858442 302.406498 
L 414.105195 302.599848 
L 421.351948 302.423046 
L 428.598701 302.645455 
L 435.845455 302.623058 
" clip-path="url(#p09040ea630)" style="fill: none; stroke-dasharray: 5.55,2.4; stroke-dashoffset: 0; stroke: #ff0000; stroke-width: 1.5"/>
    <defs>
     <path id="mca0688607e" d="M 0 3 
C 0.795609 3 1.55874 2.683901 2.12132 2.12132 
C 2.683901 1.55874 3 0.795609 3 0 
C 3 -0.795609 2.683901 -1.55874 2.12132 -2.12132 
C 1.55874 -2.683901 0.795609 -3 0 -3 
C -0.795609 -3 -1.55874 -2.683901 -2.12132 -2.12132 
C -2.683901 -1.55874 -3 -0.795609 -3 0 
C -3 0.795609 -2.683901 1.55874 -2.12132 2.12132 
C -1.55874 2.683901 -0.795609 3 0 3 
z
" style="stroke: #ff0000"/>
    </defs>
    <g clip-path="url(#p09040ea630)">
     <use xlink:href="#mca0688607e" x="80.754545" y="249.588881" style="fill: #ff0000; stroke: #ff0000"/>
     <use xlink:href="#mca0688607e" x="88.001299" y="287.439263" style="fill: #ff0000; stroke: #ff0000"/>
     <use xlink:href="#mca0688607e" x="95.248052" y="289.992758" style="fill: #ff0000; stroke: #ff0000"/>
     <use xlink:href="#mca0688607e" x="102.494805" y="291.647032" style="fill: #ff0000; stroke: #ff0000"/>
     <use xlink:href="#mca0688607e" x="109.741558" y="292.971467" style="fill: #ff0000; stroke: #ff0000"/>
     <use xlink:href="#mca0688607e" x="116.988312" y="294.067518" style="fill: #ff0000; stroke: #ff0000"/>
     <use xlink:href="#mca0688607e" x="124.235065" y="294.931193" style="fill: #ff0000; stroke: #ff0000"/>
     <use xlink:href="#mca0688607e" x="131.481818" y="295.925592" style="fill: #ff0000; stroke: #ff0000"/>
     <use xlink:href="#mca0688607e" x="138.728571" y="296.583036" style="fill: #ff0000; stroke: #ff0000"/>
     <use xlink:href="#mca0688607e" x="145.975325" y="297.358602" style="fill: #ff0000; stroke: #ff0000"/>
     <use xlink:href="#mca0688607e" x="153.222078" y="297.681507" style="fill: #ff0000; stroke: #ff0000"/>
     <use xlink:href="#mca0688607e" x="160.468831" y="298.200003" style="fill: #ff0000; stroke: #ff0000"/>
     <use xlink:href="#mca0688607e" x="167.715584" y="298.553637" style="fill: #ff0000; stroke: #ff0000"/>
     <use xlink:href="#mca0688607e" x="174.962338" y="298.883699" style="fill: #ff0000; stroke: #ff0000"/>
     <use xlink:href="#mca0688607e" x="182.209091" y="299.2375" style="fill: #ff0000; stroke: #ff0000"/>
     <use xlink:href="#mca0688607e" x="189.455844" y="299.580934" style="fill: #ff0000; stroke: #ff0000"/>
     <use xlink:href="#mca0688607e" x="196.702597" y="299.765601" style="fill: #ff0000; stroke: #ff0000"/>
     <use xlink:href="#mca0688607e" x="203.949351" y="299.899247" style="fill: #ff0000; stroke: #ff0000"/>
     <use xlink:href="#mca0688607e" x="211.196104" y="300.194197" style="fill: #ff0000; stroke: #ff0000"/>
     <use xlink:href="#mca0688607e" x="218.442857" y="300.399924" style="fill: #ff0000; stroke: #ff0000"/>
     <use xlink:href="#mca0688607e" x="225.68961" y="300.438798" style="fill: #ff0000; stroke: #ff0000"/>
     <use xlink:href="#mca0688607e" x="232.936364" y="300.691205" style="fill: #ff0000; stroke: #ff0000"/>
     <use xlink:href="#mca0688607e" x="240.183117" y="300.841955" style="fill: #ff0000; stroke: #ff0000"/>
     <use xlink:href="#mca0688607e" x="247.42987" y="301.012734" style="fill: #ff0000; stroke: #ff0000"/>
     <use xlink:href="#mca0688607e" x="254.676623" y="301.071016" style="fill: #ff0000; stroke: #ff0000"/>
     <use xlink:href="#mca0688607e" x="261.923377" y="301.208277" style="fill: #ff0000; stroke: #ff0000"/>
     <use xlink:href="#mca0688607e" x="269.17013" y="301.269888" style="fill: #ff0000; stroke: #ff0000"/>
     <use xlink:href="#mca0688607e" x="276.416883" y="301.38144" style="fill: #ff0000; stroke: #ff0000"/>
     <use xlink:href="#mca0688607e" x="283.663636" y="301.370223" style="fill: #ff0000; stroke: #ff0000"/>
     <use xlink:href="#mca0688607e" x="290.91039" y="301.513673" style="fill: #ff0000; stroke: #ff0000"/>
     <use xlink:href="#mca0688607e" x="298.157143" y="301.741847" style="fill: #ff0000; stroke: #ff0000"/>
     <use xlink:href="#mca0688607e" x="305.403896" y="301.593352" style="fill: #ff0000; stroke: #ff0000"/>
     <use xlink:href="#mca0688607e" x="312.650649" y="301.768254" style="fill: #ff0000; stroke: #ff0000"/>
     <use xlink:href="#mca0688607e" x="319.897403" y="301.80421" style="fill: #ff0000; stroke: #ff0000"/>
     <use xlink:href="#mca0688607e" x="327.144156" y="301.904632" style="fill: #ff0000; stroke: #ff0000"/>
     <use xlink:href="#mca0688607e" x="334.390909" y="302.012195" style="fill: #ff0000; stroke: #ff0000"/>
     <use xlink:href="#mca0688607e" x="341.637662" y="302.084675" style="fill: #ff0000; stroke: #ff0000"/>
     <use xlink:href="#mca0688607e" x="348.884416" y="302.050329" style="fill: #ff0000; stroke: #ff0000"/>
     <use xlink:href="#mca0688607e" x="356.131169" y="301.990219" style="fill: #ff0000; stroke: #ff0000"/>
     <use xlink:href="#mca0688607e" x="363.377922" y="302.167683" style="fill: #ff0000; stroke: #ff0000"/>
     <use xlink:href="#mca0688607e" x="370.624675" y="302.29067" style="fill: #ff0000; stroke: #ff0000"/>
     <use xlink:href="#mca0688607e" x="377.871429" y="302.164406" style="fill: #ff0000; stroke: #ff0000"/>
     <use xlink:href="#mca0688607e" x="385.118182" y="302.276387" style="fill: #ff0000; stroke: #ff0000"/>
     <use xlink:href="#mca0688607e" x="392.364935" y="302.329757" style="fill: #ff0000; stroke: #ff0000"/>
     <use xlink:href="#mca0688607e" x="399.611688" y="302.535674" style="fill: #ff0000; stroke: #ff0000"/>
     <use xlink:href="#mca0688607e" x="406.858442" y="302.406498" style="fill: #ff0000; stroke: #ff0000"/>
     <use xlink:href="#mca0688607e" x="414.105195" y="302.599848" style="fill: #ff0000; stroke: #ff0000"/>
     <use xlink:href="#mca0688607e" x="421.351948" y="302.423046" style="fill: #ff0000; stroke: #ff0000"/>
     <use xlink:href="#mca0688607e" x="428.598701" y="302.645455" style="fill: #ff0000; stroke: #ff0000"/>
     <use xlink:href="#mca0688607e" x="435.845455" y="302.623058" style="fill: #ff0000; stroke: #ff0000"/>
    </g>
   </g>
   <g id="line2d_33">
    <path d="M 80.754545 55.554545 
L 88.001299 58.50744 
L 95.248052 60.686259 
L 102.494805 63.051986 
L 109.741558 63.989269 
L 116.988312 64.008429 
L 124.235065 66.045388 
L 131.481818 65.306636 
L 138.728571 67.793144 
L 145.975325 67.790109 
L 153.222078 68.382058 
L 160.468831 68.104359 
L 167.715584 69.564734 
L 174.962338 70.111973 
L 182.209091 69.632838 
L 189.455844 69.572154 
L 196.702597 69.071162 
L 203.949351 68.458964 
L 211.196104 71.247887 
L 218.442857 70.319803 
L 225.68961 69.945081 
L 232.936364 70.958898 
L 240.183117 70.697589 
L 247.42987 71.601866 
L 254.676623 69.406358 
L 261.923377 71.484971 
L 269.17013 71.733798 
L 276.416883 71.97017 
L 283.663636 71.964297 
L 290.91039 72.114319 
L 298.157143 71.474873 
L 305.403896 71.141779 
L 312.650649 72.02336 
L 319.897403 72.266911 
L 327.144156 72.868439 
L 334.390909 72.720864 
L 341.637662 72.521826 
L 348.884416 71.694226 
L 356.131169 72.085425 
L 363.377922 72.209793 
L 370.624675 71.272917 
L 377.871429 72.845101 
L 385.118182 72.394934 
L 392.364935 72.867922 
L 399.611688 72.798431 
L 406.858442 73.037456 
L 414.105195 72.79824 
L 421.351948 72.71086 
L 428.598701 72.238329 
L 435.845455 72.051912 
" clip-path="url(#p09040ea630)" style="fill: none; stroke-dasharray: 5.55,2.4; stroke-dashoffset: 0; stroke: #008000; stroke-width: 1.5"/>
    <defs>
     <path id="m16387d5990" d="M 0 3 
C 0.795609 3 1.55874 2.683901 2.12132 2.12132 
C 2.683901 1.55874 3 0.795609 3 0 
C 3 -0.795609 2.683901 -1.55874 2.12132 -2.12132 
C 1.55874 -2.683901 0.795609 -3 0 -3 
C -0.795609 -3 -1.55874 -2.683901 -2.12132 -2.12132 
C -2.683901 -1.55874 -3 -0.795609 -3 0 
C -3 0.795609 -2.683901 1.55874 -2.12132 2.12132 
C -1.55874 2.683901 -0.795609 3 0 3 
z
" style="stroke: #008000"/>
    </defs>
    <g clip-path="url(#p09040ea630)">
     <use xlink:href="#m16387d5990" x="80.754545" y="55.554545" style="fill: #008000; stroke: #008000"/>
     <use xlink:href="#m16387d5990" x="88.001299" y="58.50744" style="fill: #008000; stroke: #008000"/>
     <use xlink:href="#m16387d5990" x="95.248052" y="60.686259" style="fill: #008000; stroke: #008000"/>
     <use xlink:href="#m16387d5990" x="102.494805" y="63.051986" style="fill: #008000; stroke: #008000"/>
     <use xlink:href="#m16387d5990" x="109.741558" y="63.989269" style="fill: #008000; stroke: #008000"/>
     <use xlink:href="#m16387d5990" x="116.988312" y="64.008429" style="fill: #008000; stroke: #008000"/>
     <use xlink:href="#m16387d5990" x="124.235065" y="66.045388" style="fill: #008000; stroke: #008000"/>
     <use xlink:href="#m16387d5990" x="131.481818" y="65.306636" style="fill: #008000; stroke: #008000"/>
     <use xlink:href="#m16387d5990" x="138.728571" y="67.793144" style="fill: #008000; stroke: #008000"/>
     <use xlink:href="#m16387d5990" x="145.975325" y="67.790109" style="fill: #008000; stroke: #008000"/>
     <use xlink:href="#m16387d5990" x="153.222078" y="68.382058" style="fill: #008000; stroke: #008000"/>
     <use xlink:href="#m16387d5990" x="160.468831" y="68.104359" style="fill: #008000; stroke: #008000"/>
     <use xlink:href="#m16387d5990" x="167.715584" y="69.564734" style="fill: #008000; stroke: #008000"/>
     <use xlink:href="#m16387d5990" x="174.962338" y="70.111973" style="fill: #008000; stroke: #008000"/>
     <use xlink:href="#m16387d5990" x="182.209091" y="69.632838" style="fill: #008000; stroke: #008000"/>
     <use xlink:href="#m16387d5990" x="189.455844" y="69.572154" style="fill: #008000; stroke: #008000"/>
     <use xlink:href="#m16387d5990" x="196.702597" y="69.071162" style="fill: #008000; stroke: #008000"/>
     <use xlink:href="#m16387d5990" x="203.949351" y="68.458964" style="fill: #008000; stroke: #008000"/>
     <use xlink:href="#m16387d5990" x="211.196104" y="71.247887" style="fill: #008000; stroke: #008000"/>
     <use xlink:href="#m16387d5990" x="218.442857" y="70.319803" style="fill: #008000; stroke: #008000"/>
     <use xlink:href="#m16387d5990" x="225.68961" y="69.945081" style="fill: #008000; stroke: #008000"/>
     <use xlink:href="#m16387d5990" x="232.936364" y="70.958898" style="fill: #008000; stroke: #008000"/>
     <use xlink:href="#m16387d5990" x="240.183117" y="70.697589" style="fill: #008000; stroke: #008000"/>
     <use xlink:href="#m16387d5990" x="247.42987" y="71.601866" style="fill: #008000; stroke: #008000"/>
     <use xlink:href="#m16387d5990" x="254.676623" y="69.406358" style="fill: #008000; stroke: #008000"/>
     <use xlink:href="#m16387d5990" x="261.923377" y="71.484971" style="fill: #008000; stroke: #008000"/>
     <use xlink:href="#m16387d5990" x="269.17013" y="71.733798" style="fill: #008000; stroke: #008000"/>
     <use xlink:href="#m16387d5990" x="276.416883" y="71.97017" style="fill: #008000; stroke: #008000"/>
     <use xlink:href="#m16387d5990" x="283.663636" y="71.964297" style="fill: #008000; stroke: #008000"/>
     <use xlink:href="#m16387d5990" x="290.91039" y="72.114319" style="fill: #008000; stroke: #008000"/>
     <use xlink:href="#m16387d5990" x="298.157143" y="71.474873" style="fill: #008000; stroke: #008000"/>
     <use xlink:href="#m16387d5990" x="305.403896" y="71.141779" style="fill: #008000; stroke: #008000"/>
     <use xlink:href="#m16387d5990" x="312.650649" y="72.02336" style="fill: #008000; stroke: #008000"/>
     <use xlink:href="#m16387d5990" x="319.897403" y="72.266911" style="fill: #008000; stroke: #008000"/>
     <use xlink:href="#m16387d5990" x="327.144156" y="72.868439" style="fill: #008000; stroke: #008000"/>
     <use xlink:href="#m16387d5990" x="334.390909" y="72.720864" style="fill: #008000; stroke: #008000"/>
     <use xlink:href="#m16387d5990" x="341.637662" y="72.521826" style="fill: #008000; stroke: #008000"/>
     <use xlink:href="#m16387d5990" x="348.884416" y="71.694226" style="fill: #008000; stroke: #008000"/>
     <use xlink:href="#m16387d5990" x="356.131169" y="72.085425" style="fill: #008000; stroke: #008000"/>
     <use xlink:href="#m16387d5990" x="363.377922" y="72.209793" style="fill: #008000; stroke: #008000"/>
     <use xlink:href="#m16387d5990" x="370.624675" y="71.272917" style="fill: #008000; stroke: #008000"/>
     <use xlink:href="#m16387d5990" x="377.871429" y="72.845101" style="fill: #008000; stroke: #008000"/>
     <use xlink:href="#m16387d5990" x="385.118182" y="72.394934" style="fill: #008000; stroke: #008000"/>
     <use xlink:href="#m16387d5990" x="392.364935" y="72.867922" style="fill: #008000; stroke: #008000"/>
     <use xlink:href="#m16387d5990" x="399.611688" y="72.798431" style="fill: #008000; stroke: #008000"/>
     <use xlink:href="#m16387d5990" x="406.858442" y="73.037456" style="fill: #008000; stroke: #008000"/>
     <use xlink:href="#m16387d5990" x="414.105195" y="72.79824" style="fill: #008000; stroke: #008000"/>
     <use xlink:href="#m16387d5990" x="421.351948" y="72.71086" style="fill: #008000; stroke: #008000"/>
     <use xlink:href="#m16387d5990" x="428.598701" y="72.238329" style="fill: #008000; stroke: #008000"/>
     <use xlink:href="#m16387d5990" x="435.845455" y="72.051912" style="fill: #008000; stroke: #008000"/>
    </g>
   </g>
   <g id="patch_3">
    <path d="M 63 315 
L 63 43.2 
" style="fill: none; stroke: #000000; stroke-width: 0.8; stroke-linejoin: miter; stroke-linecap: square"/>
   </g>
   <g id="patch_4">
    <path d="M 453.6 315 
L 453.6 43.2 
" style="fill: none; stroke: #000000; stroke-width: 0.8; stroke-linejoin: miter; stroke-linecap: square"/>
   </g>
   <g id="patch_5">
    <path d="M 63 315 
L 453.6 315 
" style="fill: none; stroke: #000000; stroke-width: 0.8; stroke-linejoin: miter; stroke-linecap: square"/>
   </g>
   <g id="patch_6">
    <path d="M 63 43.2 
L 453.6 43.2 
" style="fill: none; stroke: #000000; stroke-width: 0.8; stroke-linejoin: miter; stroke-linecap: square"/>
   </g>
   <g id="text_11">
    <!-- Losses -->
    <g transform="translate(233.327344 37.2)scale(0.15 -0.15)">
     <defs>
      <path id="DejaVuSans-65" d="M 3597 1894 
L 3597 1613 
L 953 1613 
Q 991 1019 1311 708 
Q 1631 397 2203 397 
Q 2534 397 2845 478 
Q 3156 559 3463 722 
L 3463 178 
Q 3153 47 2828 -22 
Q 2503 -91 2169 -91 
Q 1331 -91 842 396 
Q 353 884 353 1716 
Q 353 2575 817 3079 
Q 1281 3584 2069 3584 
Q 2775 3584 3186 3129 
Q 3597 2675 3597 1894 
z
M 3022 2063 
Q 3016 2534 2758 2815 
Q 2500 3097 2075 3097 
Q 1594 3097 1305 2825 
Q 1016 2553 972 2059 
L 3022 2063 
z
" transform="scale(0.015625)"/>
     </defs>
     <use xlink:href="#DejaVuSans-4c"/>
     <use xlink:href="#DejaVuSans-6f" x="53.962891"/>
     <use xlink:href="#DejaVuSans-73" x="115.144531"/>
     <use xlink:href="#DejaVuSans-73" x="167.244141"/>
     <use xlink:href="#DejaVuSans-65" x="219.34375"/>
     <use xlink:href="#DejaVuSans-73" x="280.867188"/>
    </g>
   </g>
   <g id="legend_1">
    <g id="patch_7">
     <path d="M 368.11875 195.278125 
L 446.6 195.278125 
Q 448.6 195.278125 448.6 193.278125 
L 448.6 164.921875 
Q 448.6 162.921875 446.6 162.921875 
L 368.11875 162.921875 
Q 366.11875 162.921875 366.11875 164.921875 
L 366.11875 193.278125 
Q 366.11875 195.278125 368.11875 195.278125 
z
" style="fill: #ffffff; opacity: 0.8; stroke: #cccccc; stroke-linejoin: miter"/>
    </g>
    <g id="line2d_34">
     <path d="M 370.11875 171.020312 
L 380.11875 171.020312 
L 390.11875 171.020312 
" style="fill: none; stroke-dasharray: 5.55,2.4; stroke-dashoffset: 0; stroke: #ff0000; stroke-width: 1.5"/>
     <g>
      <use xlink:href="#mca0688607e" x="380.11875" y="171.020312" style="fill: #ff0000; stroke: #ff0000"/>
     </g>
    </g>
    <g id="text_12">
     <!-- Train loss -->
     <g transform="translate(398.11875 174.520312)scale(0.1 -0.1)">
      <defs>
       <path id="DejaVuSans-54" d="M -19 4666 
L 3928 4666 
L 3928 4134 
L 2272 4134 
L 2272 0 
L 1638 0 
L 1638 4134 
L -19 4134 
L -19 4666 
z
" transform="scale(0.015625)"/>
       <path id="DejaVuSans-72" d="M 2631 2963 
Q 2534 3019 2420 3045 
Q 2306 3072 2169 3072 
Q 1681 3072 1420 2755 
Q 1159 2438 1159 1844 
L 1159 0 
L 581 0 
L 581 3500 
L 1159 3500 
L 1159 2956 
Q 1341 3275 1631 3429 
Q 1922 3584 2338 3584 
Q 2397 3584 2469 3576 
Q 2541 3569 2628 3553 
L 2631 2963 
z
" transform="scale(0.015625)"/>
       <path id="DejaVuSans-61" d="M 2194 1759 
Q 1497 1759 1228 1600 
Q 959 1441 959 1056 
Q 959 750 1161 570 
Q 1363 391 1709 391 
Q 2188 391 2477 730 
Q 2766 1069 2766 1631 
L 2766 1759 
L 2194 1759 
z
M 3341 1997 
L 3341 0 
L 2766 0 
L 2766 531 
Q 2569 213 2275 61 
Q 1981 -91 1556 -91 
Q 1019 -91 701 211 
Q 384 513 384 1019 
Q 384 1609 779 1909 
Q 1175 2209 1959 2209 
L 2766 2209 
L 2766 2266 
Q 2766 2663 2505 2880 
Q 2244 3097 1772 3097 
Q 1472 3097 1187 3025 
Q 903 2953 641 2809 
L 641 3341 
Q 956 3463 1253 3523 
Q 1550 3584 1831 3584 
Q 2591 3584 2966 3190 
Q 3341 2797 3341 1997 
z
" transform="scale(0.015625)"/>
       <path id="DejaVuSans-69" d="M 603 3500 
L 1178 3500 
L 1178 0 
L 603 0 
L 603 3500 
z
M 603 4863 
L 1178 4863 
L 1178 4134 
L 603 4134 
L 603 4863 
z
" transform="scale(0.015625)"/>
       <path id="DejaVuSans-6e" d="M 3513 2113 
L 3513 0 
L 2938 0 
L 2938 2094 
Q 2938 2591 2744 2837 
Q 2550 3084 2163 3084 
Q 1697 3084 1428 2787 
Q 1159 2491 1159 1978 
L 1159 0 
L 581 0 
L 581 3500 
L 1159 3500 
L 1159 2956 
Q 1366 3272 1645 3428 
Q 1925 3584 2291 3584 
Q 2894 3584 3203 3211 
Q 3513 2838 3513 2113 
z
" transform="scale(0.015625)"/>
       <path id="DejaVuSans-20" transform="scale(0.015625)"/>
       <path id="DejaVuSans-6c" d="M 603 4863 
L 1178 4863 
L 1178 0 
L 603 0 
L 603 4863 
z
" transform="scale(0.015625)"/>
      </defs>
      <use xlink:href="#DejaVuSans-54"/>
      <use xlink:href="#DejaVuSans-72" x="46.333984"/>
      <use xlink:href="#DejaVuSans-61" x="87.447266"/>
      <use xlink:href="#DejaVuSans-69" x="148.726562"/>
      <use xlink:href="#DejaVuSans-6e" x="176.509766"/>
      <use xlink:href="#DejaVuSans-20" x="239.888672"/>
      <use xlink:href="#DejaVuSans-6c" x="271.675781"/>
      <use xlink:href="#DejaVuSans-6f" x="299.458984"/>
      <use xlink:href="#DejaVuSans-73" x="360.640625"/>
      <use xlink:href="#DejaVuSans-73" x="412.740234"/>
     </g>
    </g>
    <g id="line2d_35">
     <path d="M 370.11875 185.698437 
L 380.11875 185.698437 
L 390.11875 185.698437 
" style="fill: none; stroke-dasharray: 5.55,2.4; stroke-dashoffset: 0; stroke: #008000; stroke-width: 1.5"/>
     <g>
      <use xlink:href="#m16387d5990" x="380.11875" y="185.698437" style="fill: #008000; stroke: #008000"/>
     </g>
    </g>
    <g id="text_13">
     <!-- Test loss -->
     <g transform="translate(398.11875 189.198437)scale(0.1 -0.1)">
      <defs>
       <path id="DejaVuSans-74" d="M 1172 4494 
L 1172 3500 
L 2356 3500 
L 2356 3053 
L 1172 3053 
L 1172 1153 
Q 1172 725 1289 603 
Q 1406 481 1766 481 
L 2356 481 
L 2356 0 
L 1766 0 
Q 1100 0 847 248 
Q 594 497 594 1153 
L 594 3053 
L 172 3053 
L 172 3500 
L 594 3500 
L 594 4494 
L 1172 4494 
z
" transform="scale(0.015625)"/>
      </defs>
      <use xlink:href="#DejaVuSans-54"/>
      <use xlink:href="#DejaVuSans-65" x="44.083984"/>
      <use xlink:href="#DejaVuSans-73" x="105.607422"/>
      <use xlink:href="#DejaVuSans-74" x="157.707031"/>
      <use xlink:href="#DejaVuSans-20" x="196.916016"/>
      <use xlink:href="#DejaVuSans-6c" x="228.703125"/>
      <use xlink:href="#DejaVuSans-6f" x="256.486328"/>
      <use xlink:href="#DejaVuSans-73" x="317.667969"/>
      <use xlink:href="#DejaVuSans-73" x="369.767578"/>
     </g>
    </g>
   </g>
  </g>
 </g>
 <defs>
  <clipPath id="p09040ea630">
   <rect x="63" y="43.2" width="390.6" height="271.8"/>
  </clipPath>
 </defs>
</svg>
