<?xml version="1.0" encoding="utf-8" standalone="no"?>
<!DOCTYPE svg PUBLIC "-//W3C//DTD SVG 1.1//EN"
  "http://www.w3.org/Graphics/SVG/1.1/DTD/svg11.dtd">
<svg xmlns:xlink="http://www.w3.org/1999/xlink" width="504pt" height="360pt" viewBox="0 0 504 360" xmlns="http://www.w3.org/2000/svg" version="1.1">
 <metadata>
  <rdf:RDF xmlns:dc="http://purl.org/dc/elements/1.1/" xmlns:cc="http://creativecommons.org/ns#" xmlns:rdf="http://www.w3.org/1999/02/22-rdf-syntax-ns#">
   <cc:Work>
    <dc:type rdf:resource="http://purl.org/dc/dcmitype/StillImage"/>
    <dc:date>2022-07-28T21:30:43.737631</dc:date>
    <dc:format>image/svg+xml</dc:format>
    <dc:creator>
     <cc:Agent>
      <dc:title>Matplotlib v3.5.1, https://matplotlib.org/</dc:title>
     </cc:Agent>
    </dc:creator>
   </cc:Work>
  </rdf:RDF>
 </metadata>
 <defs>
  <style type="text/css">*{stroke-linejoin: round; stroke-linecap: butt}</style>
 </defs>
 <g id="figure_1">
  <g id="patch_1">
   <path d="M 0 360 
L 504 360 
L 504 0 
L 0 0 
L 0 360 
z
" style="fill: none"/>
  </g>
  <g id="axes_1">
   <g id="patch_2">
    <path d="M 59.3 318.2 
L 465.825 318.2 
L 465.825 14.8 
L 59.3 14.8 
z
" style="fill: #ffffff"/>
   </g>
   <g id="matplotlib.axis_1">
    <g id="xtick_1">
     <g id="line2d_1">
      <defs>
       <path id="m18a183149d" d="M 0 0 
L 0 3.5 
" style="stroke: #000000; stroke-width: 0.8"/>
      </defs>
      <g>
       <use xlink:href="#m18a183149d" x="77.778409" y="318.2" style="stroke: #000000; stroke-width: 0.8"/>
      </g>
     </g>
     <g id="text_1">
      <!-- 0 -->
      <g transform="translate(74.597159 332.798437)scale(0.1 -0.1)">
       <defs>
        <path id="DejaVuSans-30" d="M 2034 4250 
Q 1547 4250 1301 3770 
Q 1056 3291 1056 2328 
Q 1056 1369 1301 889 
Q 1547 409 2034 409 
Q 2525 409 2770 889 
Q 3016 1369 3016 2328 
Q 3016 3291 2770 3770 
Q 2525 4250 2034 4250 
z
M 2034 4750 
Q 2819 4750 3233 4129 
Q 3647 3509 3647 2328 
Q 3647 1150 3233 529 
Q 2819 -91 2034 -91 
Q 1250 -91 836 529 
Q 422 1150 422 2328 
Q 422 3509 836 4129 
Q 1250 4750 2034 4750 
z
" transform="scale(0.015625)"/>
       </defs>
       <use xlink:href="#DejaVuSans-30"/>
      </g>
     </g>
    </g>
    <g id="xtick_2">
     <g id="line2d_2">
      <g>
       <use xlink:href="#m18a183149d" x="151.840169" y="318.2" style="stroke: #000000; stroke-width: 0.8"/>
      </g>
     </g>
     <g id="text_2">
      <!-- 100 -->
      <g transform="translate(142.296419 332.798437)scale(0.1 -0.1)">
       <defs>
        <path id="DejaVuSans-31" d="M 794 531 
L 1825 531 
L 1825 4091 
L 703 3866 
L 703 4441 
L 1819 4666 
L 2450 4666 
L 2450 531 
L 3481 531 
L 3481 0 
L 794 0 
L 794 531 
z
" transform="scale(0.015625)"/>
       </defs>
       <use xlink:href="#DejaVuSans-31"/>
       <use xlink:href="#DejaVuSans-30" x="63.623047"/>
       <use xlink:href="#DejaVuSans-30" x="127.246094"/>
      </g>
     </g>
    </g>
    <g id="xtick_3">
     <g id="line2d_3">
      <g>
       <use xlink:href="#m18a183149d" x="225.901929" y="318.2" style="stroke: #000000; stroke-width: 0.8"/>
      </g>
     </g>
     <g id="text_3">
      <!-- 200 -->
      <g transform="translate(216.358179 332.798437)scale(0.1 -0.1)">
       <defs>
        <path id="DejaVuSans-32" d="M 1228 531 
L 3431 531 
L 3431 0 
L 469 0 
L 469 531 
Q 828 903 1448 1529 
Q 2069 2156 2228 2338 
Q 2531 2678 2651 2914 
Q 2772 3150 2772 3378 
Q 2772 3750 2511 3984 
Q 2250 4219 1831 4219 
Q 1534 4219 1204 4116 
Q 875 4013 500 3803 
L 500 4441 
Q 881 4594 1212 4672 
Q 1544 4750 1819 4750 
Q 2544 4750 2975 4387 
Q 3406 4025 3406 3419 
Q 3406 3131 3298 2873 
Q 3191 2616 2906 2266 
Q 2828 2175 2409 1742 
Q 1991 1309 1228 531 
z
" transform="scale(0.015625)"/>
       </defs>
       <use xlink:href="#DejaVuSans-32"/>
       <use xlink:href="#DejaVuSans-30" x="63.623047"/>
       <use xlink:href="#DejaVuSans-30" x="127.246094"/>
      </g>
     </g>
    </g>
    <g id="xtick_4">
     <g id="line2d_4">
      <g>
       <use xlink:href="#m18a183149d" x="299.963689" y="318.2" style="stroke: #000000; stroke-width: 0.8"/>
      </g>
     </g>
     <g id="text_4">
      <!-- 300 -->
      <g transform="translate(290.419939 332.798437)scale(0.1 -0.1)">
       <defs>
        <path id="DejaVuSans-33" d="M 2597 2516 
Q 3050 2419 3304 2112 
Q 3559 1806 3559 1356 
Q 3559 666 3084 287 
Q 2609 -91 1734 -91 
Q 1441 -91 1130 -33 
Q 819 25 488 141 
L 488 750 
Q 750 597 1062 519 
Q 1375 441 1716 441 
Q 2309 441 2620 675 
Q 2931 909 2931 1356 
Q 2931 1769 2642 2001 
Q 2353 2234 1838 2234 
L 1294 2234 
L 1294 2753 
L 1863 2753 
Q 2328 2753 2575 2939 
Q 2822 3125 2822 3475 
Q 2822 3834 2567 4026 
Q 2313 4219 1838 4219 
Q 1578 4219 1281 4162 
Q 984 4106 628 3988 
L 628 4550 
Q 988 4650 1302 4700 
Q 1616 4750 1894 4750 
Q 2613 4750 3031 4423 
Q 3450 4097 3450 3541 
Q 3450 3153 3228 2886 
Q 3006 2619 2597 2516 
z
" transform="scale(0.015625)"/>
       </defs>
       <use xlink:href="#DejaVuSans-33"/>
       <use xlink:href="#DejaVuSans-30" x="63.623047"/>
       <use xlink:href="#DejaVuSans-30" x="127.246094"/>
      </g>
     </g>
    </g>
    <g id="xtick_5">
     <g id="line2d_5">
      <g>
       <use xlink:href="#m18a183149d" x="374.025449" y="318.2" style="stroke: #000000; stroke-width: 0.8"/>
      </g>
     </g>
     <g id="text_5">
      <!-- 400 -->
      <g transform="translate(364.481699 332.798437)scale(0.1 -0.1)">
       <defs>
        <path id="DejaVuSans-34" d="M 2419 4116 
L 825 1625 
L 2419 1625 
L 2419 4116 
z
M 2253 4666 
L 3047 4666 
L 3047 1625 
L 3713 1625 
L 3713 1100 
L 3047 1100 
L 3047 0 
L 2419 0 
L 2419 1100 
L 313 1100 
L 313 1709 
L 2253 4666 
z
" transform="scale(0.015625)"/>
       </defs>
       <use xlink:href="#DejaVuSans-34"/>
       <use xlink:href="#DejaVuSans-30" x="63.623047"/>
       <use xlink:href="#DejaVuSans-30" x="127.246094"/>
      </g>
     </g>
    </g>
    <g id="xtick_6">
     <g id="line2d_6">
      <g>
       <use xlink:href="#m18a183149d" x="448.087209" y="318.2" style="stroke: #000000; stroke-width: 0.8"/>
      </g>
     </g>
     <g id="text_6">
      <!-- 500 -->
      <g transform="translate(438.543459 332.798437)scale(0.1 -0.1)">
       <defs>
        <path id="DejaVuSans-35" d="M 691 4666 
L 3169 4666 
L 3169 4134 
L 1269 4134 
L 1269 2991 
Q 1406 3038 1543 3061 
Q 1681 3084 1819 3084 
Q 2600 3084 3056 2656 
Q 3513 2228 3513 1497 
Q 3513 744 3044 326 
Q 2575 -91 1722 -91 
Q 1428 -91 1123 -41 
Q 819 9 494 109 
L 494 744 
Q 775 591 1075 516 
Q 1375 441 1709 441 
Q 2250 441 2565 725 
Q 2881 1009 2881 1497 
Q 2881 1984 2565 2268 
Q 2250 2553 1709 2553 
Q 1456 2553 1204 2497 
Q 953 2441 691 2322 
L 691 4666 
z
" transform="scale(0.015625)"/>
       </defs>
       <use xlink:href="#DejaVuSans-35"/>
       <use xlink:href="#DejaVuSans-30" x="63.623047"/>
       <use xlink:href="#DejaVuSans-30" x="127.246094"/>
      </g>
     </g>
    </g>
    <g id="text_7">
     <!-- Episode -->
     <g transform="translate(242.925 346.476562)scale(0.1 -0.1)">
      <defs>
       <path id="DejaVuSans-45" d="M 628 4666 
L 3578 4666 
L 3578 4134 
L 1259 4134 
L 1259 2753 
L 3481 2753 
L 3481 2222 
L 1259 2222 
L 1259 531 
L 3634 531 
L 3634 0 
L 628 0 
L 628 4666 
z
" transform="scale(0.015625)"/>
       <path id="DejaVuSans-70" d="M 1159 525 
L 1159 -1331 
L 581 -1331 
L 581 3500 
L 1159 3500 
L 1159 2969 
Q 1341 3281 1617 3432 
Q 1894 3584 2278 3584 
Q 2916 3584 3314 3078 
Q 3713 2572 3713 1747 
Q 3713 922 3314 415 
Q 2916 -91 2278 -91 
Q 1894 -91 1617 61 
Q 1341 213 1159 525 
z
M 3116 1747 
Q 3116 2381 2855 2742 
Q 2594 3103 2138 3103 
Q 1681 3103 1420 2742 
Q 1159 2381 1159 1747 
Q 1159 1113 1420 752 
Q 1681 391 2138 391 
Q 2594 391 2855 752 
Q 3116 1113 3116 1747 
z
" transform="scale(0.015625)"/>
       <path id="DejaVuSans-69" d="M 603 3500 
L 1178 3500 
L 1178 0 
L 603 0 
L 603 3500 
z
M 603 4863 
L 1178 4863 
L 1178 4134 
L 603 4134 
L 603 4863 
z
" transform="scale(0.015625)"/>
       <path id="DejaVuSans-73" d="M 2834 3397 
L 2834 2853 
Q 2591 2978 2328 3040 
Q 2066 3103 1784 3103 
Q 1356 3103 1142 2972 
Q 928 2841 928 2578 
Q 928 2378 1081 2264 
Q 1234 2150 1697 2047 
L 1894 2003 
Q 2506 1872 2764 1633 
Q 3022 1394 3022 966 
Q 3022 478 2636 193 
Q 2250 -91 1575 -91 
Q 1294 -91 989 -36 
Q 684 19 347 128 
L 347 722 
Q 666 556 975 473 
Q 1284 391 1588 391 
Q 1994 391 2212 530 
Q 2431 669 2431 922 
Q 2431 1156 2273 1281 
Q 2116 1406 1581 1522 
L 1381 1569 
Q 847 1681 609 1914 
Q 372 2147 372 2553 
Q 372 3047 722 3315 
Q 1072 3584 1716 3584 
Q 2034 3584 2315 3537 
Q 2597 3491 2834 3397 
z
" transform="scale(0.015625)"/>
       <path id="DejaVuSans-6f" d="M 1959 3097 
Q 1497 3097 1228 2736 
Q 959 2375 959 1747 
Q 959 1119 1226 758 
Q 1494 397 1959 397 
Q 2419 397 2687 759 
Q 2956 1122 2956 1747 
Q 2956 2369 2687 2733 
Q 2419 3097 1959 3097 
z
M 1959 3584 
Q 2709 3584 3137 3096 
Q 3566 2609 3566 1747 
Q 3566 888 3137 398 
Q 2709 -91 1959 -91 
Q 1206 -91 779 398 
Q 353 888 353 1747 
Q 353 2609 779 3096 
Q 1206 3584 1959 3584 
z
" transform="scale(0.015625)"/>
       <path id="DejaVuSans-64" d="M 2906 2969 
L 2906 4863 
L 3481 4863 
L 3481 0 
L 2906 0 
L 2906 525 
Q 2725 213 2448 61 
Q 2172 -91 1784 -91 
Q 1150 -91 751 415 
Q 353 922 353 1747 
Q 353 2572 751 3078 
Q 1150 3584 1784 3584 
Q 2172 3584 2448 3432 
Q 2725 3281 2906 2969 
z
M 947 1747 
Q 947 1113 1208 752 
Q 1469 391 1925 391 
Q 2381 391 2643 752 
Q 2906 1113 2906 1747 
Q 2906 2381 2643 2742 
Q 2381 3103 1925 3103 
Q 1469 3103 1208 2742 
Q 947 2381 947 1747 
z
" transform="scale(0.015625)"/>
       <path id="DejaVuSans-65" d="M 3597 1894 
L 3597 1613 
L 953 1613 
Q 991 1019 1311 708 
Q 1631 397 2203 397 
Q 2534 397 2845 478 
Q 3156 559 3463 722 
L 3463 178 
Q 3153 47 2828 -22 
Q 2503 -91 2169 -91 
Q 1331 -91 842 396 
Q 353 884 353 1716 
Q 353 2575 817 3079 
Q 1281 3584 2069 3584 
Q 2775 3584 3186 3129 
Q 3597 2675 3597 1894 
z
M 3022 2063 
Q 3016 2534 2758 2815 
Q 2500 3097 2075 3097 
Q 1594 3097 1305 2825 
Q 1016 2553 972 2059 
L 3022 2063 
z
" transform="scale(0.015625)"/>
      </defs>
      <use xlink:href="#DejaVuSans-45"/>
      <use xlink:href="#DejaVuSans-70" x="63.183594"/>
      <use xlink:href="#DejaVuSans-69" x="126.660156"/>
      <use xlink:href="#DejaVuSans-73" x="154.443359"/>
      <use xlink:href="#DejaVuSans-6f" x="206.542969"/>
      <use xlink:href="#DejaVuSans-64" x="267.724609"/>
      <use xlink:href="#DejaVuSans-65" x="331.201172"/>
     </g>
    </g>
   </g>
   <g id="matplotlib.axis_2">
    <g id="ytick_1">
     <g id="line2d_7">
      <defs>
       <path id="m8d5de3583f" d="M 0 0 
L -3.5 0 
" style="stroke: #000000; stroke-width: 0.8"/>
      </defs>
      <g>
       <use xlink:href="#m8d5de3583f" x="59.3" y="318.2" style="stroke: #000000; stroke-width: 0.8"/>
      </g>
     </g>
     <g id="text_8">
      <!-- −100 -->
      <g transform="translate(24.832813 321.999219)scale(0.1 -0.1)">
       <defs>
        <path id="DejaVuSans-2212" d="M 678 2272 
L 4684 2272 
L 4684 1741 
L 678 1741 
L 678 2272 
z
" transform="scale(0.015625)"/>
       </defs>
       <use xlink:href="#DejaVuSans-2212"/>
       <use xlink:href="#DejaVuSans-31" x="83.789062"/>
       <use xlink:href="#DejaVuSans-30" x="147.412109"/>
       <use xlink:href="#DejaVuSans-30" x="211.035156"/>
      </g>
     </g>
    </g>
    <g id="ytick_2">
     <g id="line2d_8">
      <g>
       <use xlink:href="#m8d5de3583f" x="59.3" y="280.275" style="stroke: #000000; stroke-width: 0.8"/>
      </g>
     </g>
     <g id="text_9">
      <!-- −50 -->
      <g transform="translate(31.195313 284.074219)scale(0.1 -0.1)">
       <use xlink:href="#DejaVuSans-2212"/>
       <use xlink:href="#DejaVuSans-35" x="83.789062"/>
       <use xlink:href="#DejaVuSans-30" x="147.412109"/>
      </g>
     </g>
    </g>
    <g id="ytick_3">
     <g id="line2d_9">
      <g>
       <use xlink:href="#m8d5de3583f" x="59.3" y="242.35" style="stroke: #000000; stroke-width: 0.8"/>
      </g>
     </g>
     <g id="text_10">
      <!-- 0 -->
      <g transform="translate(45.9375 246.149219)scale(0.1 -0.1)">
       <use xlink:href="#DejaVuSans-30"/>
      </g>
     </g>
    </g>
    <g id="ytick_4">
     <g id="line2d_10">
      <g>
       <use xlink:href="#m8d5de3583f" x="59.3" y="204.425" style="stroke: #000000; stroke-width: 0.8"/>
      </g>
     </g>
     <g id="text_11">
      <!-- 50 -->
      <g transform="translate(39.575 208.224219)scale(0.1 -0.1)">
       <use xlink:href="#DejaVuSans-35"/>
       <use xlink:href="#DejaVuSans-30" x="63.623047"/>
      </g>
     </g>
    </g>
    <g id="ytick_5">
     <g id="line2d_11">
      <g>
       <use xlink:href="#m8d5de3583f" x="59.3" y="166.5" style="stroke: #000000; stroke-width: 0.8"/>
      </g>
     </g>
     <g id="text_12">
      <!-- 100 -->
      <g transform="translate(33.2125 170.299219)scale(0.1 -0.1)">
       <use xlink:href="#DejaVuSans-31"/>
       <use xlink:href="#DejaVuSans-30" x="63.623047"/>
       <use xlink:href="#DejaVuSans-30" x="127.246094"/>
      </g>
     </g>
    </g>
    <g id="ytick_6">
     <g id="line2d_12">
      <g>
       <use xlink:href="#m8d5de3583f" x="59.3" y="128.575" style="stroke: #000000; stroke-width: 0.8"/>
      </g>
     </g>
     <g id="text_13">
      <!-- 150 -->
      <g transform="translate(33.2125 132.374219)scale(0.1 -0.1)">
       <use xlink:href="#DejaVuSans-31"/>
       <use xlink:href="#DejaVuSans-35" x="63.623047"/>
       <use xlink:href="#DejaVuSans-30" x="127.246094"/>
      </g>
     </g>
    </g>
    <g id="ytick_7">
     <g id="line2d_13">
      <g>
       <use xlink:href="#m8d5de3583f" x="59.3" y="90.65" style="stroke: #000000; stroke-width: 0.8"/>
      </g>
     </g>
     <g id="text_14">
      <!-- 200 -->
      <g transform="translate(33.2125 94.449219)scale(0.1 -0.1)">
       <use xlink:href="#DejaVuSans-32"/>
       <use xlink:href="#DejaVuSans-30" x="63.623047"/>
       <use xlink:href="#DejaVuSans-30" x="127.246094"/>
      </g>
     </g>
    </g>
    <g id="ytick_8">
     <g id="line2d_14">
      <g>
       <use xlink:href="#m8d5de3583f" x="59.3" y="52.725" style="stroke: #000000; stroke-width: 0.8"/>
      </g>
     </g>
     <g id="text_15">
      <!-- 250 -->
      <g transform="translate(33.2125 56.524219)scale(0.1 -0.1)">
       <use xlink:href="#DejaVuSans-32"/>
       <use xlink:href="#DejaVuSans-35" x="63.623047"/>
       <use xlink:href="#DejaVuSans-30" x="127.246094"/>
      </g>
     </g>
    </g>
    <g id="ytick_9">
     <g id="line2d_15">
      <g>
       <use xlink:href="#m8d5de3583f" x="59.3" y="14.8" style="stroke: #000000; stroke-width: 0.8"/>
      </g>
     </g>
     <g id="text_16">
      <!-- 300 -->
      <g transform="translate(33.2125 18.599219)scale(0.1 -0.1)">
       <use xlink:href="#DejaVuSans-33"/>
       <use xlink:href="#DejaVuSans-30" x="63.623047"/>
       <use xlink:href="#DejaVuSans-30" x="127.246094"/>
      </g>
     </g>
    </g>
    <g id="text_17">
     <!-- Score -->
     <g transform="translate(18.753125 180.502344)rotate(-90)scale(0.1 -0.1)">
      <defs>
       <path id="DejaVuSans-53" d="M 3425 4513 
L 3425 3897 
Q 3066 4069 2747 4153 
Q 2428 4238 2131 4238 
Q 1616 4238 1336 4038 
Q 1056 3838 1056 3469 
Q 1056 3159 1242 3001 
Q 1428 2844 1947 2747 
L 2328 2669 
Q 3034 2534 3370 2195 
Q 3706 1856 3706 1288 
Q 3706 609 3251 259 
Q 2797 -91 1919 -91 
Q 1588 -91 1214 -16 
Q 841 59 441 206 
L 441 856 
Q 825 641 1194 531 
Q 1563 422 1919 422 
Q 2459 422 2753 634 
Q 3047 847 3047 1241 
Q 3047 1584 2836 1778 
Q 2625 1972 2144 2069 
L 1759 2144 
Q 1053 2284 737 2584 
Q 422 2884 422 3419 
Q 422 4038 858 4394 
Q 1294 4750 2059 4750 
Q 2388 4750 2728 4690 
Q 3069 4631 3425 4513 
z
" transform="scale(0.015625)"/>
       <path id="DejaVuSans-63" d="M 3122 3366 
L 3122 2828 
Q 2878 2963 2633 3030 
Q 2388 3097 2138 3097 
Q 1578 3097 1268 2742 
Q 959 2388 959 1747 
Q 959 1106 1268 751 
Q 1578 397 2138 397 
Q 2388 397 2633 464 
Q 2878 531 3122 666 
L 3122 134 
Q 2881 22 2623 -34 
Q 2366 -91 2075 -91 
Q 1284 -91 818 406 
Q 353 903 353 1747 
Q 353 2603 823 3093 
Q 1294 3584 2113 3584 
Q 2378 3584 2631 3529 
Q 2884 3475 3122 3366 
z
" transform="scale(0.015625)"/>
       <path id="DejaVuSans-72" d="M 2631 2963 
Q 2534 3019 2420 3045 
Q 2306 3072 2169 3072 
Q 1681 3072 1420 2755 
Q 1159 2438 1159 1844 
L 1159 0 
L 581 0 
L 581 3500 
L 1159 3500 
L 1159 2956 
Q 1341 3275 1631 3429 
Q 1922 3584 2338 3584 
Q 2397 3584 2469 3576 
Q 2541 3569 2628 3553 
L 2631 2963 
z
" transform="scale(0.015625)"/>
      </defs>
      <use xlink:href="#DejaVuSans-53"/>
      <use xlink:href="#DejaVuSans-63" x="63.476562"/>
      <use xlink:href="#DejaVuSans-6f" x="118.457031"/>
      <use xlink:href="#DejaVuSans-72" x="179.638672"/>
      <use xlink:href="#DejaVuSans-65" x="218.501953"/>
     </g>
    </g>
   </g>
   <g id="line2d_16">
    <path d="M 79.173961 361 
L 79.259644 325.734429 
L 79.431655 361 
M 80.459669 361 
L 80.740879 289.642395 
L 80.978249 361 
M 82.10909 361 
L 82.222115 333.754776 
L 82.322515 361 
M 83.940928 361 
L 84.443967 357.831715 
L 84.467391 361 
M 86.386531 361 
L 86.66582 316.727689 
L 87.01635 361 
M 90.236791 361 
L 90.368908 341.795803 
L 90.903319 361 
M 93.8989 361 
L 94.071996 310.701529 
L 94.798222 361 
M 94.97726 361 
L 95.553231 357.513033 
L 96.293849 276.536173 
L 97.034467 292.031332 
L 97.775084 323.285352 
L 98.515702 343.147158 
L 98.763885 361 
M 101.487703 361 
L 102.21879 282.110662 
L 102.959407 303.480083 
L 103.567309 361 
M 107.640264 361 
L 108.143731 307.557353 
L 108.884348 339.573318 
L 109.624966 335.179497 
L 110.262358 361 
M 113.141182 361 
L 113.328054 320.589463 
L 114.068671 296.652912 
L 114.809289 242.24208 
L 115.389088 361 
M 116.664633 361 
L 117.031142 355.992152 
L 117.771759 350.577547 
L 118.512377 270.337884 
L 119.115405 361 
M 119.40282 361 
L 119.993612 279.431742 
L 121.000876 361 
M 122.84365 361 
L 122.956083 304.764438 
L 123.099396 361 
M 124.408414 361 
L 124.437318 351.481475 
L 125.177935 322.25012 
L 125.479342 361 
M 129.033483 361 
L 129.621641 287.906657 
L 129.973719 361 
M 131.733124 361 
L 131.843494 349.566558 
L 131.855425 361 
M 133.817503 361 
L 134.065347 292.330653 
L 134.805964 330.098121 
L 134.916457 361 
M 136.161848 361 
L 136.287199 325.095838 
L 136.457864 361 
M 142.045852 361 
L 142.21214 310.531976 
L 142.483139 361 
M 145.895668 361 
L 145.915228 343.065017 
L 145.993132 361 
M 148.129384 361 
L 148.137081 354.670458 
L 148.167838 361 
M 150.33848 361 
L 150.358934 353.77728 
L 150.382911 361 
M 154.838893 361 
L 155.543257 336.327782 
L 156.283875 306.437246 
L 156.503575 361 
M 167.229788 361 
L 167.393139 290.603031 
L 167.717736 361 
M 175.506522 361 
L 175.539932 356.09536 
L 175.820621 361 
M 180.110548 361 
L 180.724255 312.077593 
L 181.464873 289.373821 
L 181.716399 361 
M 185.064647 361 
L 185.167961 334.382289 
L 185.908579 246.52189 
L 186.023726 361 
M 189.433025 361 
L 189.611667 306.378206 
L 189.744669 361 
M 191.787573 361 
L 191.833519 326.065067 
L 192.22075 361 
M 194.008655 361 
L 194.055372 352.240915 
L 194.425582 361 
M 199.936277 361 
L 199.980313 347.778375 
L 200.043689 361 
M 203.636354 361 
L 203.683401 353.51401 
L 203.695058 361 
M 205.138521 361 
L 205.164636 343.889809 
L 205.905254 321.139937 
L 206.645871 266.981018 
L 206.8664 361 
M 207.932394 361 
L 208.127106 281.913299 
L 208.708667 361 
M 209.714183 361 
L 210.348959 176.720176 
L 211.081659 361 
M 211.85704 361 
L 212.570812 199.680485 
L 213.260867 361 
M 213.478912 361 
L 214.052047 320.549981 
L 214.792665 277.207048 
L 214.977438 361 
M 217.415796 361 
L 217.755135 273.174432 
L 218.234633 361 
M 218.69067 361 
L 219.23637 227.100883 
L 219.730331 361 
M 220.199708 361 
L 220.717606 205.524257 
L 221.458223 244.695148 
L 221.578654 361 
M 222.938621 361 
L 222.939458 360.321934 
L 222.962799 361 
M 224.821966 361 
L 225.161311 263.015741 
L 225.332908 361 
M 230.936665 361 
L 231.086252 322.697423 
L 231.206116 361 
M 232.319271 361 
L 232.567487 261.007195 
L 232.795982 361 
M 233.961768 361 
L 234.048722 331.187285 
L 234.78934 227.330967 
L 235.529958 204.965845 
L 236.270575 242.397793 
L 237.011193 359.300986 
L 237.75181 281.183366 
L 238.204536 361 
M 238.924319 361 
L 239.233046 324.718181 
L 239.418135 361 
M 240.650093 361 
L 240.714281 350.666568 
L 240.745254 361 
M 242.273423 361 
L 242.936134 180.745 
L 243.676751 306.542279 
L 244.417369 339.106586 
L 244.46145 361 
M 246.424045 361 
L 246.639222 243.868735 
L 247.379839 304.557429 
L 248.120457 325.17929 
L 248.861074 279.648896 
L 249.601692 308.290994 
L 250.092588 361 
M 250.840225 361 
L 251.082927 347.930159 
L 251.15377 361 
M 252.360219 361 
L 252.564162 314.042456 
L 252.932232 361 
M 253.525163 361 
L 254.045398 248.803174 
L 254.786015 267.030573 
L 255.18717 361 
M 255.994302 361 
L 256.26725 314.590229 
L 257.007868 252.091835 
L 257.748486 336.431491 
L 257.84957 361 
M 259.918277 361 
L 259.970338 345.691824 
L 260.710956 205.258474 
L 262.029027 361 
M 262.26147 361 
L 262.932809 156.361221 
L 263.597914 361 
M 266.241658 361 
L 266.635897 313.332492 
L 267.376514 267.620326 
L 268.117132 205.197767 
L 268.85775 296.251861 
L 269.598367 195.035832 
L 270.338985 343.569616 
L 271.079602 252.06248 
L 271.863156 361 
M 273.10184 361 
L 273.301455 304.774829 
L 274.042073 318.729126 
L 274.78269 150.953282 
L 276.198943 361 
M 276.365823 361 
L 277.004543 301.585932 
L 277.741478 361 
M 277.758795 361 
L 278.485778 345.169324 
L 279.226396 290.483543 
L 279.967014 358.82674 
L 280.707631 257.889742 
L 281.448249 212.226451 
L 282.188866 144.432589 
L 282.929484 306.327881 
L 283.670102 192.645231 
L 284.389185 361 
M 284.427619 361 
L 285.151337 145.100873 
L 285.891954 287.767084 
L 286.607257 361 
M 286.6546 361 
L 287.37319 276.455022 
L 288.113807 132.965751 
L 288.854425 303.279387 
L 289.595042 273.345584 
L 290.33566 318.102063 
L 291.076278 174.930916 
L 291.816895 337.03127 
L 292.557513 149.800883 
L 293.29813 230.576788 
L 294.038748 224.11488 
L 295.344067 361 
M 295.563475 361 
L 296.260601 58.094187 
L 296.966082 361 
M 297.170847 361 
L 297.741836 310.218266 
L 298.482454 127.662786 
L 299.223071 110.287873 
L 299.963689 270.605259 
L 300.704306 178.287743 
L 301.444924 188.8873 
L 302.185542 250.917663 
L 302.926159 234.999467 
L 303.530848 361 
M 303.870355 361 
L 304.407394 286.281611 
L 305.148012 127.683404 
L 305.88863 310.801142 
L 306.629247 116.098067 
L 307.369865 292.671246 
L 308.110482 314.317069 
L 308.355756 361 
M 309.102302 361 
L 309.591718 177.317576 
L 310.332335 151.847822 
L 311.072953 297.755847 
L 311.81357 192.489539 
L 312.159391 361 
M 313.025327 361 
L 313.294806 250.966752 
L 313.63122 361 
M 314.536727 361 
L 314.776041 297.887569 
L 315.516658 68.135893 
L 316.257276 101.081831 
L 316.997894 74.287193 
L 317.738511 155.552988 
L 318.479129 273.06683 
L 319.219746 213.316599 
L 319.960364 119.88539 
L 320.700982 293.279079 
L 321.441599 210.734754 
L 322.182217 279.402929 
L 322.922834 160.871674 
L 323.56803 361 
M 323.790576 361 
L 324.40407 218.161505 
L 324.782079 361 
M 325.615584 361 
L 325.885305 282.518363 
L 326.625922 240.911409 
L 327.366411 361 
M 327.366696 361 
L 328.847775 173.493011 
L 329.032367 361 
M 330.095284 361 
L 330.32901 100.568199 
L 330.962134 361 
M 332.286997 361 
L 332.550863 335.075044 
L 333.291481 224.094532 
L 334.032098 261.722438 
L 334.772716 274.177518 
L 335.513333 290.154451 
L 335.897576 361 
M 336.434576 361 
L 336.994569 157.286703 
L 337.399265 361 
M 338.183129 361 
L 338.475804 250.518166 
L 339.216421 53.341583 
L 339.957039 272.289805 
L 340.697657 131.609383 
L 341.438274 97.597972 
L 342.178892 288.701244 
L 342.919509 137.68803 
L 343.660127 200.747897 
L 344.400745 346.675524 
L 345.141362 249.687623 
L 345.88198 343.529991 
L 346.622597 284.796629 
L 347.363215 276.6415 
L 348.103833 284.922876 
L 348.84445 278.776366 
L 349.151367 361 
M 350.024273 361 
L 350.325685 281.26274 
L 351.066303 42.971018 
L 351.806921 178.609263 
L 352.547538 268.746542 
L 353.288156 290.196799 
L 354.028773 291.301521 
L 354.769391 212.654692 
L 355.510009 271.869829 
L 355.935395 361 
M 356.493655 361 
L 356.991244 225.76678 
L 357.361007 361 
M 358.333428 361 
L 358.472479 329.648859 
L 359.213097 221.481411 
L 359.953714 209.678288 
L 360.694332 272.046672 
L 361.100933 361 
M 362.084584 361 
L 362.175567 350.765839 
L 362.916185 114.439254 
L 363.656802 263.25618 
L 364.39742 104.481067 
L 365.138037 169.560126 
L 365.878655 250.521332 
L 366.619273 275.297607 
L 367.35989 86.824271 
L 368.100508 231.615255 
L 368.841125 178.017961 
L 369.581743 280.246597 
L 370.322361 135.61306 
L 371.062978 195.153647 
L 371.803596 231.778285 
L 372.544213 221.31381 
L 373.284831 239.898963 
L 373.604689 361 
M 374.543397 361 
L 374.766066 292.514579 
L 375.506684 144.716566 
L 376.247301 83.541922 
L 377.579356 361 
M 377.860687 361 
L 378.469154 218.871879 
L 379.209772 106.64422 
L 379.950389 86.696215 
L 380.691007 120.768028 
L 381.882589 361 
M 382.754251 361 
L 382.91286 346.902164 
L 383.653477 117.543475 
L 384.394095 327.876268 
L 385.134713 254.146579 
L 386.615948 357.656238 
L 387.356565 104.17173 
L 388.097183 219.519756 
L 388.837801 305.513827 
L 389.578418 204.322873 
L 390.206916 361 
M 390.456166 361 
L 391.059653 237.996765 
L 391.544398 361 
M 391.951735 361 
L 392.540889 108.448994 
L 393.281506 157.24423 
L 394.022124 146.027027 
L 394.762741 60.102529 
L 395.503359 287.988281 
L 396.243977 136.211033 
L 396.984594 155.70792 
L 397.725212 208.401238 
L 398.465829 112.29764 
L 399.206447 248.510838 
L 399.947065 105.175318 
L 400.507214 361 
M 400.898526 361 
L 401.4283 153.905416 
L 402.168917 237.432434 
L 402.629427 361 
M 403.090252 361 
L 403.650153 128.136053 
L 403.995635 361 
M 405.14263 361 
L 405.872005 90.893161 
L 406.568494 361 
M 406.656204 361 
L 407.353241 87.282791 
L 408.093858 168.880287 
L 408.552217 361 
M 409.049979 361 
L 409.575093 72.719844 
L 410.315711 62.912777 
L 411.056329 148.024954 
L 411.714324 361 
M 412.538218 361 
L 413.278181 236.76372 
L 413.844189 361 
M 414.197139 361 
L 414.759417 240.164132 
L 415.500034 306.486112 
L 416.240652 263.234829 
L 416.981269 351.670053 
L 417.721887 224.860189 
L 418.462505 189.730235 
L 419.94374 38.60701 
L 420.546913 361 
M 420.928527 361 
L 421.424975 211.633604 
L 422.165593 154.871967 
L 422.90621 186.660204 
L 423.646828 85.995349 
L 424.387445 268.725719 
L 425.128063 143.442147 
L 425.868681 169.573459 
L 426.609298 135.755333 
L 427.297992 361 
M 427.64365 361 
L 428.090533 335.163227 
L 428.831151 81.377781 
L 429.571769 301.106871 
L 430.312386 104.845869 
L 431.053004 99.869968 
L 431.774715 361 
M 431.814845 361 
L 432.534239 129.128556 
L 433.274857 287.481853 
L 434.015474 64.979065 
L 434.727681 361 
M 434.821539 361 
L 435.496709 239.179236 
L 436.237327 152.625272 
L 436.820899 361 
M 437.288176 361 
L 437.718562 283.205098 
L 438.45918 300.593619 
L 439.199797 184.355503 
L 439.940415 279.288782 
L 440.681033 309.210013 
L 441.42165 274.482366 
L 441.916041 361 
M 442.258163 361 
L 442.902885 71.300878 
L 443.643503 192.433785 
L 444.384121 214.271332 
L 445.124738 255.140069 
L 445.865356 98.76327 
L 446.605973 325.87711 
L 447.346591 282.178901 
L 447.346591 282.178901 
" clip-path="url(#p4622e2d6ec)" style="fill: none; stroke: #708090; stroke-width: 1.5; stroke-linecap: square"/>
   </g>
   <g id="line2d_17">
    <path d="M 232.049178 361 
L 232.567487 357.317335 
L 233.308105 355.997908 
L 234.048722 351.16705 
L 234.78934 349.584553 
L 235.529958 352.070376 
L 236.270575 358.238727 
L 237.011193 359.486268 
L 237.75181 358.674831 
L 239.233046 353.08411 
L 239.973663 353.999318 
L 240.714281 350.633109 
L 241.454898 350.845716 
L 242.195516 345.793997 
L 242.936134 343.959857 
L 243.676751 347.521492 
L 244.417369 346.548441 
L 245.157986 344.010838 
L 245.898604 332.760604 
L 246.639222 325.946689 
L 247.379839 324.922219 
L 248.120457 326.151903 
L 248.861074 322.550335 
L 249.601692 322.712699 
L 250.34231 323.818713 
L 251.082927 321.591545 
L 251.823545 317.292257 
L 252.564162 313.66648 
L 253.30478 312.852543 
L 254.045398 311.044004 
L 254.786015 309.566559 
L 255.526633 310.966573 
L 256.26725 305.152223 
L 257.007868 303.471954 
L 257.748486 302.912415 
L 258.489103 302.190528 
L 259.229721 299.459714 
L 259.970338 289.352362 
L 260.710956 289.960249 
L 261.451574 292.059445 
L 262.192191 288.887442 
L 262.932809 283.450848 
L 263.673426 285.735729 
L 264.414044 281.616812 
L 265.154662 276.748739 
L 265.895279 269.07226 
L 266.635897 265.714634 
L 267.376514 267.234462 
L 268.117132 267.607688 
L 268.85775 266.0574 
L 269.598367 266.348386 
L 270.338985 264.769631 
L 271.079602 263.751663 
L 271.82022 264.996755 
L 272.560838 267.069888 
L 273.301455 260.348571 
L 274.042073 257.290031 
L 274.78269 256.870565 
L 275.523308 257.70129 
L 276.263926 263.51979 
L 277.004543 261.129553 
L 277.745161 264.961938 
L 278.485778 263.693751 
L 279.226396 258.153082 
L 279.967014 254.365048 
L 280.707631 248.674257 
L 281.448249 246.627522 
L 282.929484 249.22201 
L 283.670102 245.49316 
L 284.410719 247.505837 
L 285.151337 244.399699 
L 285.891954 247.08574 
L 286.632572 244.547832 
L 287.37319 245.08796 
L 288.113807 243.922089 
L 288.854425 251.223147 
L 289.595042 250.807926 
L 290.33566 250.159243 
L 291.076278 251.017619 
L 291.816895 252.758286 
L 292.557513 249.48752 
L 293.29813 265.007667 
L 294.038748 262.407495 
L 294.779366 266.02954 
L 295.519983 268.17962 
L 296.260601 267.283166 
L 297.001218 270.603173 
L 297.741836 268.315899 
L 298.482454 267.595084 
L 299.223071 270.844917 
L 299.963689 277.173309 
L 300.704306 274.906938 
L 301.444924 281.943053 
L 302.185542 283.17567 
L 302.926159 279.224149 
L 303.666777 279.969956 
L 304.407394 274.815665 
L 305.148012 271.041992 
L 305.88863 274.262349 
L 306.629247 270.800087 
L 307.369865 272.493083 
L 308.110482 273.573169 
L 308.8511 272.28058 
L 309.591718 270.045606 
L 310.332335 272.195187 
L 311.072953 274.69106 
L 311.81357 274.434401 
L 312.554188 276.160137 
L 313.294806 274.636426 
L 314.035423 275.242346 
L 314.776041 266.237664 
L 315.516658 263.852098 
L 317.738511 275.986896 
L 318.479129 277.128931 
L 319.219746 277.104991 
L 319.960364 281.379651 
L 320.700982 283.497279 
L 321.441599 287.564348 
L 322.182217 289.94263 
L 322.922834 288.784199 
L 323.663452 289.760332 
L 324.40407 287.389303 
L 325.144687 291.707545 
L 326.625922 285.400908 
L 327.36654 285.847803 
L 328.107157 280.717007 
L 328.847775 278.868924 
L 329.588393 280.409491 
L 330.32901 267.399279 
L 331.069628 267.1244 
L 331.810245 263.652363 
L 332.550863 259.0559 
L 333.291481 257.959331 
L 334.032098 256.189701 
L 334.772716 254.858325 
L 335.513333 254.010341 
L 336.253951 252.633528 
L 336.994569 248.897358 
L 337.735186 256.157683 
L 338.475804 251.406105 
L 339.216421 249.290073 
L 339.957039 249.89408 
L 340.697657 249.220698 
L 341.438274 254.425874 
L 342.178892 256.851352 
L 342.919509 253.210212 
L 343.660127 252.190375 
L 344.400745 250.590778 
L 345.141362 249.266435 
L 345.88198 252.527314 
L 346.622597 252.594757 
L 347.363215 249.249694 
L 348.103833 250.274389 
L 348.84445 249.658863 
L 349.585068 250.273221 
L 350.325685 247.882552 
L 351.066303 244.340732 
L 351.806921 247.871707 
L 352.547538 250.409798 
L 353.288156 249.121325 
L 354.028773 251.096389 
L 354.769391 250.030294 
L 355.510009 254.29575 
L 356.250626 251.027333 
L 356.991244 245.631225 
L 357.731861 244.03643 
L 358.472479 235.30583 
L 359.213097 234.472619 
L 359.953714 232.767211 
L 361.434949 230.414895 
L 362.175567 223.979376 
L 362.916185 221.934276 
L 363.656802 221.748997 
L 364.39742 225.352297 
L 365.138037 226.340784 
L 365.878655 227.69823 
L 366.619273 231.411018 
L 367.35989 228.467787 
L 368.100508 239.277938 
L 368.841125 241.948901 
L 369.581743 240.206405 
L 370.322361 242.163747 
L 371.062978 241.197142 
L 371.803596 240.671675 
L 372.544213 245.62227 
L 373.284831 242.650391 
L 374.025449 239.110667 
L 374.766066 231.665106 
L 375.506684 233.569668 
L 376.247301 237.897534 
L 377.728537 244.176077 
L 378.469154 241.141996 
L 379.209772 242.89428 
L 379.950389 246.026092 
L 380.691007 251.325569 
L 381.431625 253.407412 
L 382.172242 251.59285 
L 383.653477 239.544065 
L 384.394095 245.882465 
L 386.615948 239.115439 
L 387.356565 233.682221 
L 388.097183 236.973301 
L 388.837801 235.451748 
L 389.578418 232.732941 
L 390.319036 231.36159 
L 391.059653 231.142237 
L 391.800271 233.085566 
L 392.540889 226.194572 
L 393.281506 230.047729 
L 394.762741 228.076621 
L 395.503359 234.231382 
L 396.243977 231.054188 
L 396.984594 234.079604 
L 397.725212 232.265027 
L 398.465829 235.553173 
L 399.206447 238.090805 
L 399.947065 236.173094 
L 400.687682 242.411109 
L 401.4283 239.206788 
L 402.168917 242.140552 
L 402.909535 241.079013 
L 403.650153 237.941574 
L 404.39077 241.563053 
L 405.131388 234.506064 
L 405.872005 235.284584 
L 406.612623 234.892738 
L 407.353241 231.17914 
L 408.093858 233.718911 
L 408.834476 235.444106 
L 409.575093 227.833211 
L 411.056329 237.281679 
L 411.056329 237.281679 
" clip-path="url(#p4622e2d6ec)" style="fill: none; stroke: #000080; stroke-width: 1.5; stroke-linecap: square"/>
   </g>
   <g id="line2d_18">
    <path d="M 59.3 90.65 
L 465.825 90.65 
" clip-path="url(#p4622e2d6ec)" style="fill: none; stroke-dasharray: 5.55,2.4; stroke-dashoffset: 0; stroke: #008000; stroke-width: 1.5"/>
   </g>
   <g id="patch_3">
    <path d="M 59.3 318.2 
L 59.3 14.8 
" style="fill: none; stroke: #000000; stroke-width: 0.8; stroke-linejoin: miter; stroke-linecap: square"/>
   </g>
   <g id="patch_4">
    <path d="M 465.825 318.2 
L 465.825 14.8 
" style="fill: none; stroke: #000000; stroke-width: 0.8; stroke-linejoin: miter; stroke-linecap: square"/>
   </g>
   <g id="patch_5">
    <path d="M 59.3 318.2 
L 465.825 318.2 
" style="fill: none; stroke: #000000; stroke-width: 0.8; stroke-linejoin: miter; stroke-linecap: square"/>
   </g>
   <g id="patch_6">
    <path d="M 59.3 14.8 
L 465.825 14.8 
" style="fill: none; stroke: #000000; stroke-width: 0.8; stroke-linejoin: miter; stroke-linecap: square"/>
   </g>
   <g id="legend_1">
    <g id="patch_7">
     <path d="M 66.3 66.834375 
L 226.61875 66.834375 
Q 228.61875 66.834375 228.61875 64.834375 
L 228.61875 21.8 
Q 228.61875 19.8 226.61875 19.8 
L 66.3 19.8 
Q 64.3 19.8 64.3 21.8 
L 64.3 64.834375 
Q 64.3 66.834375 66.3 66.834375 
z
" style="fill: #ffffff; opacity: 0.8; stroke: #cccccc; stroke-linejoin: miter"/>
    </g>
    <g id="line2d_19">
     <path d="M 68.3 27.898438 
L 78.3 27.898438 
L 88.3 27.898438 
" style="fill: none; stroke: #708090; stroke-width: 1.5; stroke-linecap: square"/>
    </g>
    <g id="text_18">
     <!-- Episodes score -->
     <g transform="translate(96.3 31.398438)scale(0.1 -0.1)">
      <defs>
       <path id="DejaVuSans-20" transform="scale(0.015625)"/>
      </defs>
      <use xlink:href="#DejaVuSans-45"/>
      <use xlink:href="#DejaVuSans-70" x="63.183594"/>
      <use xlink:href="#DejaVuSans-69" x="126.660156"/>
      <use xlink:href="#DejaVuSans-73" x="154.443359"/>
      <use xlink:href="#DejaVuSans-6f" x="206.542969"/>
      <use xlink:href="#DejaVuSans-64" x="267.724609"/>
      <use xlink:href="#DejaVuSans-65" x="331.201172"/>
      <use xlink:href="#DejaVuSans-73" x="392.724609"/>
      <use xlink:href="#DejaVuSans-20" x="444.824219"/>
      <use xlink:href="#DejaVuSans-73" x="476.611328"/>
      <use xlink:href="#DejaVuSans-63" x="528.710938"/>
      <use xlink:href="#DejaVuSans-6f" x="583.691406"/>
      <use xlink:href="#DejaVuSans-72" x="644.873047"/>
      <use xlink:href="#DejaVuSans-65" x="683.736328"/>
     </g>
    </g>
    <g id="line2d_20">
     <path d="M 68.3 42.576563 
L 78.3 42.576563 
L 88.3 42.576563 
" style="fill: none; stroke: #000080; stroke-width: 1.5; stroke-linecap: square"/>
    </g>
    <g id="text_19">
     <!-- Moving average of scores -->
     <g transform="translate(96.3 46.076563)scale(0.1 -0.1)">
      <defs>
       <path id="DejaVuSans-4d" d="M 628 4666 
L 1569 4666 
L 2759 1491 
L 3956 4666 
L 4897 4666 
L 4897 0 
L 4281 0 
L 4281 4097 
L 3078 897 
L 2444 897 
L 1241 4097 
L 1241 0 
L 628 0 
L 628 4666 
z
" transform="scale(0.015625)"/>
       <path id="DejaVuSans-76" d="M 191 3500 
L 800 3500 
L 1894 563 
L 2988 3500 
L 3597 3500 
L 2284 0 
L 1503 0 
L 191 3500 
z
" transform="scale(0.015625)"/>
       <path id="DejaVuSans-6e" d="M 3513 2113 
L 3513 0 
L 2938 0 
L 2938 2094 
Q 2938 2591 2744 2837 
Q 2550 3084 2163 3084 
Q 1697 3084 1428 2787 
Q 1159 2491 1159 1978 
L 1159 0 
L 581 0 
L 581 3500 
L 1159 3500 
L 1159 2956 
Q 1366 3272 1645 3428 
Q 1925 3584 2291 3584 
Q 2894 3584 3203 3211 
Q 3513 2838 3513 2113 
z
" transform="scale(0.015625)"/>
       <path id="DejaVuSans-67" d="M 2906 1791 
Q 2906 2416 2648 2759 
Q 2391 3103 1925 3103 
Q 1463 3103 1205 2759 
Q 947 2416 947 1791 
Q 947 1169 1205 825 
Q 1463 481 1925 481 
Q 2391 481 2648 825 
Q 2906 1169 2906 1791 
z
M 3481 434 
Q 3481 -459 3084 -895 
Q 2688 -1331 1869 -1331 
Q 1566 -1331 1297 -1286 
Q 1028 -1241 775 -1147 
L 775 -588 
Q 1028 -725 1275 -790 
Q 1522 -856 1778 -856 
Q 2344 -856 2625 -561 
Q 2906 -266 2906 331 
L 2906 616 
Q 2728 306 2450 153 
Q 2172 0 1784 0 
Q 1141 0 747 490 
Q 353 981 353 1791 
Q 353 2603 747 3093 
Q 1141 3584 1784 3584 
Q 2172 3584 2450 3431 
Q 2728 3278 2906 2969 
L 2906 3500 
L 3481 3500 
L 3481 434 
z
" transform="scale(0.015625)"/>
       <path id="DejaVuSans-61" d="M 2194 1759 
Q 1497 1759 1228 1600 
Q 959 1441 959 1056 
Q 959 750 1161 570 
Q 1363 391 1709 391 
Q 2188 391 2477 730 
Q 2766 1069 2766 1631 
L 2766 1759 
L 2194 1759 
z
M 3341 1997 
L 3341 0 
L 2766 0 
L 2766 531 
Q 2569 213 2275 61 
Q 1981 -91 1556 -91 
Q 1019 -91 701 211 
Q 384 513 384 1019 
Q 384 1609 779 1909 
Q 1175 2209 1959 2209 
L 2766 2209 
L 2766 2266 
Q 2766 2663 2505 2880 
Q 2244 3097 1772 3097 
Q 1472 3097 1187 3025 
Q 903 2953 641 2809 
L 641 3341 
Q 956 3463 1253 3523 
Q 1550 3584 1831 3584 
Q 2591 3584 2966 3190 
Q 3341 2797 3341 1997 
z
" transform="scale(0.015625)"/>
       <path id="DejaVuSans-66" d="M 2375 4863 
L 2375 4384 
L 1825 4384 
Q 1516 4384 1395 4259 
Q 1275 4134 1275 3809 
L 1275 3500 
L 2222 3500 
L 2222 3053 
L 1275 3053 
L 1275 0 
L 697 0 
L 697 3053 
L 147 3053 
L 147 3500 
L 697 3500 
L 697 3744 
Q 697 4328 969 4595 
Q 1241 4863 1831 4863 
L 2375 4863 
z
" transform="scale(0.015625)"/>
      </defs>
      <use xlink:href="#DejaVuSans-4d"/>
      <use xlink:href="#DejaVuSans-6f" x="86.279297"/>
      <use xlink:href="#DejaVuSans-76" x="147.460938"/>
      <use xlink:href="#DejaVuSans-69" x="206.640625"/>
      <use xlink:href="#DejaVuSans-6e" x="234.423828"/>
      <use xlink:href="#DejaVuSans-67" x="297.802734"/>
      <use xlink:href="#DejaVuSans-20" x="361.279297"/>
      <use xlink:href="#DejaVuSans-61" x="393.066406"/>
      <use xlink:href="#DejaVuSans-76" x="454.345703"/>
      <use xlink:href="#DejaVuSans-65" x="513.525391"/>
      <use xlink:href="#DejaVuSans-72" x="575.048828"/>
      <use xlink:href="#DejaVuSans-61" x="616.162109"/>
      <use xlink:href="#DejaVuSans-67" x="677.441406"/>
      <use xlink:href="#DejaVuSans-65" x="740.917969"/>
      <use xlink:href="#DejaVuSans-20" x="802.441406"/>
      <use xlink:href="#DejaVuSans-6f" x="834.228516"/>
      <use xlink:href="#DejaVuSans-66" x="895.410156"/>
      <use xlink:href="#DejaVuSans-20" x="930.615234"/>
      <use xlink:href="#DejaVuSans-73" x="962.402344"/>
      <use xlink:href="#DejaVuSans-63" x="1014.501953"/>
      <use xlink:href="#DejaVuSans-6f" x="1069.482422"/>
      <use xlink:href="#DejaVuSans-72" x="1130.664062"/>
      <use xlink:href="#DejaVuSans-65" x="1169.527344"/>
      <use xlink:href="#DejaVuSans-73" x="1231.050781"/>
     </g>
    </g>
    <g id="line2d_21">
     <path d="M 68.3 57.254687 
L 78.3 57.254687 
L 88.3 57.254687 
" style="fill: none; stroke-dasharray: 5.55,2.4; stroke-dashoffset: 0; stroke: #008000; stroke-width: 1.5"/>
    </g>
    <g id="text_20">
     <!-- Game Solved -->
     <g transform="translate(96.3 60.754687)scale(0.1 -0.1)">
      <defs>
       <path id="DejaVuSans-47" d="M 3809 666 
L 3809 1919 
L 2778 1919 
L 2778 2438 
L 4434 2438 
L 4434 434 
Q 4069 175 3628 42 
Q 3188 -91 2688 -91 
Q 1594 -91 976 548 
Q 359 1188 359 2328 
Q 359 3472 976 4111 
Q 1594 4750 2688 4750 
Q 3144 4750 3555 4637 
Q 3966 4525 4313 4306 
L 4313 3634 
Q 3963 3931 3569 4081 
Q 3175 4231 2741 4231 
Q 1884 4231 1454 3753 
Q 1025 3275 1025 2328 
Q 1025 1384 1454 906 
Q 1884 428 2741 428 
Q 3075 428 3337 486 
Q 3600 544 3809 666 
z
" transform="scale(0.015625)"/>
       <path id="DejaVuSans-6d" d="M 3328 2828 
Q 3544 3216 3844 3400 
Q 4144 3584 4550 3584 
Q 5097 3584 5394 3201 
Q 5691 2819 5691 2113 
L 5691 0 
L 5113 0 
L 5113 2094 
Q 5113 2597 4934 2840 
Q 4756 3084 4391 3084 
Q 3944 3084 3684 2787 
Q 3425 2491 3425 1978 
L 3425 0 
L 2847 0 
L 2847 2094 
Q 2847 2600 2669 2842 
Q 2491 3084 2119 3084 
Q 1678 3084 1418 2786 
Q 1159 2488 1159 1978 
L 1159 0 
L 581 0 
L 581 3500 
L 1159 3500 
L 1159 2956 
Q 1356 3278 1631 3431 
Q 1906 3584 2284 3584 
Q 2666 3584 2933 3390 
Q 3200 3197 3328 2828 
z
" transform="scale(0.015625)"/>
       <path id="DejaVuSans-6c" d="M 603 4863 
L 1178 4863 
L 1178 0 
L 603 0 
L 603 4863 
z
" transform="scale(0.015625)"/>
      </defs>
      <use xlink:href="#DejaVuSans-47"/>
      <use xlink:href="#DejaVuSans-61" x="77.490234"/>
      <use xlink:href="#DejaVuSans-6d" x="138.769531"/>
      <use xlink:href="#DejaVuSans-65" x="236.181641"/>
      <use xlink:href="#DejaVuSans-20" x="297.705078"/>
      <use xlink:href="#DejaVuSans-53" x="329.492188"/>
      <use xlink:href="#DejaVuSans-6f" x="392.96875"/>
      <use xlink:href="#DejaVuSans-6c" x="454.150391"/>
      <use xlink:href="#DejaVuSans-76" x="481.933594"/>
      <use xlink:href="#DejaVuSans-65" x="541.113281"/>
      <use xlink:href="#DejaVuSans-64" x="602.636719"/>
     </g>
    </g>
   </g>
  </g>
  <g id="axes_2">
   <g id="matplotlib.axis_3">
    <g id="ytick_10">
     <g id="line2d_22">
      <defs>
       <path id="m45b802efff" d="M 0 0 
L 3.5 0 
" style="stroke: #000000; stroke-width: 0.8"/>
      </defs>
      <g>
       <use xlink:href="#m45b802efff" x="465.825" y="304.427089" style="stroke: #000000; stroke-width: 0.8"/>
      </g>
     </g>
     <g id="text_21">
      <!-- 0 -->
      <g transform="translate(472.825 308.226307)scale(0.1 -0.1)">
       <use xlink:href="#DejaVuSans-30"/>
      </g>
     </g>
    </g>
    <g id="ytick_11">
     <g id="line2d_23">
      <g>
       <use xlink:href="#m45b802efff" x="465.825" y="249.259853" style="stroke: #000000; stroke-width: 0.8"/>
      </g>
     </g>
     <g id="text_22">
      <!-- 1 -->
      <g transform="translate(472.825 253.059072)scale(0.1 -0.1)">
       <use xlink:href="#DejaVuSans-31"/>
      </g>
     </g>
    </g>
    <g id="ytick_12">
     <g id="line2d_24">
      <g>
       <use xlink:href="#m45b802efff" x="465.825" y="194.092617" style="stroke: #000000; stroke-width: 0.8"/>
      </g>
     </g>
     <g id="text_23">
      <!-- 2 -->
      <g transform="translate(472.825 197.891836)scale(0.1 -0.1)">
       <use xlink:href="#DejaVuSans-32"/>
      </g>
     </g>
    </g>
    <g id="ytick_13">
     <g id="line2d_25">
      <g>
       <use xlink:href="#m45b802efff" x="465.825" y="138.925381" style="stroke: #000000; stroke-width: 0.8"/>
      </g>
     </g>
     <g id="text_24">
      <!-- 3 -->
      <g transform="translate(472.825 142.7246)scale(0.1 -0.1)">
       <use xlink:href="#DejaVuSans-33"/>
      </g>
     </g>
    </g>
    <g id="ytick_14">
     <g id="line2d_26">
      <g>
       <use xlink:href="#m45b802efff" x="465.825" y="83.758145" style="stroke: #000000; stroke-width: 0.8"/>
      </g>
     </g>
     <g id="text_25">
      <!-- 4 -->
      <g transform="translate(472.825 87.557364)scale(0.1 -0.1)">
       <use xlink:href="#DejaVuSans-34"/>
      </g>
     </g>
    </g>
    <g id="ytick_15">
     <g id="line2d_27">
      <g>
       <use xlink:href="#m45b802efff" x="465.825" y="28.590909" style="stroke: #000000; stroke-width: 0.8"/>
      </g>
     </g>
     <g id="text_26">
      <!-- 5 -->
      <g transform="translate(472.825 32.390128)scale(0.1 -0.1)">
       <use xlink:href="#DejaVuSans-35"/>
      </g>
     </g>
    </g>
    <g id="text_27">
     <!-- Temperature -->
     <g transform="translate(490.785937 198.169531)rotate(-90)scale(0.1 -0.1)">
      <defs>
       <path id="DejaVuSans-54" d="M -19 4666 
L 3928 4666 
L 3928 4134 
L 2272 4134 
L 2272 0 
L 1638 0 
L 1638 4134 
L -19 4134 
L -19 4666 
z
" transform="scale(0.015625)"/>
       <path id="DejaVuSans-74" d="M 1172 4494 
L 1172 3500 
L 2356 3500 
L 2356 3053 
L 1172 3053 
L 1172 1153 
Q 1172 725 1289 603 
Q 1406 481 1766 481 
L 2356 481 
L 2356 0 
L 1766 0 
Q 1100 0 847 248 
Q 594 497 594 1153 
L 594 3053 
L 172 3053 
L 172 3500 
L 594 3500 
L 594 4494 
L 1172 4494 
z
" transform="scale(0.015625)"/>
       <path id="DejaVuSans-75" d="M 544 1381 
L 544 3500 
L 1119 3500 
L 1119 1403 
Q 1119 906 1312 657 
Q 1506 409 1894 409 
Q 2359 409 2629 706 
Q 2900 1003 2900 1516 
L 2900 3500 
L 3475 3500 
L 3475 0 
L 2900 0 
L 2900 538 
Q 2691 219 2414 64 
Q 2138 -91 1772 -91 
Q 1169 -91 856 284 
Q 544 659 544 1381 
z
M 1991 3584 
L 1991 3584 
z
" transform="scale(0.015625)"/>
      </defs>
      <use xlink:href="#DejaVuSans-54"/>
      <use xlink:href="#DejaVuSans-65" x="44.083984"/>
      <use xlink:href="#DejaVuSans-6d" x="105.607422"/>
      <use xlink:href="#DejaVuSans-70" x="203.019531"/>
      <use xlink:href="#DejaVuSans-65" x="266.496094"/>
      <use xlink:href="#DejaVuSans-72" x="328.019531"/>
      <use xlink:href="#DejaVuSans-61" x="369.132812"/>
      <use xlink:href="#DejaVuSans-74" x="430.412109"/>
      <use xlink:href="#DejaVuSans-75" x="469.621094"/>
      <use xlink:href="#DejaVuSans-72" x="533"/>
      <use xlink:href="#DejaVuSans-65" x="571.863281"/>
     </g>
    </g>
   </g>
   <g id="line2d_28">
    <path d="M 77.778409 28.590909 
L 80.740879 49.09778 
L 83.70335 68.080081 
L 86.66582 85.651154 
L 89.628291 101.915916 
L 92.590761 116.971485 
L 95.553231 130.907756 
L 98.515702 143.807944 
L 101.478172 155.749076 
L 104.440643 166.802451 
L 107.403113 177.03407 
L 110.365583 186.505026 
L 113.328054 195.271869 
L 116.290524 203.386947 
L 119.252995 210.898714 
L 122.215465 217.852024 
L 125.177935 224.288394 
L 128.140406 230.246256 
L 131.102876 235.761184 
L 134.065347 240.866109 
L 137.027817 245.591511 
L 139.990287 249.965605 
L 142.952758 254.014511 
L 146.655846 258.655003 
L 150.358934 262.868336 
L 154.062022 266.693831 
L 157.76511 270.167188 
L 161.468198 273.320821 
L 165.171286 276.184162 
L 168.874374 278.783931 
L 172.577462 281.144391 
L 177.021167 283.691925 
L 181.464873 285.960715 
L 185.908579 287.981259 
L 190.352284 289.780721 
L 195.536607 291.632791 
L 200.72093 293.250662 
L 206.645871 294.850698 
L 212.570812 296.22167 
L 219.23637 297.530855 
L 226.642546 298.742022 
L 234.78934 299.83012 
L 243.676751 300.781062 
L 253.30478 301.590603 
L 264.414044 302.304011 
L 277.745161 302.927444 
L 293.29813 303.427439 
L 313.294806 303.833642 
L 339.216421 304.125223 
L 377.728537 304.316514 
L 447.346591 304.409091 
L 447.346591 304.409091 
" clip-path="url(#p4622e2d6ec)" style="fill: none; stroke: #ff0000; stroke-width: 1.5; stroke-linecap: square"/>
   </g>
   <g id="patch_8">
    <path d="M 59.3 318.2 
L 59.3 14.8 
" style="fill: none; stroke: #000000; stroke-width: 0.8; stroke-linejoin: miter; stroke-linecap: square"/>
   </g>
   <g id="patch_9">
    <path d="M 465.825 318.2 
L 465.825 14.8 
" style="fill: none; stroke: #000000; stroke-width: 0.8; stroke-linejoin: miter; stroke-linecap: square"/>
   </g>
   <g id="patch_10">
    <path d="M 59.3 318.2 
L 465.825 318.2 
" style="fill: none; stroke: #000000; stroke-width: 0.8; stroke-linejoin: miter; stroke-linecap: square"/>
   </g>
   <g id="patch_11">
    <path d="M 59.3 14.8 
L 465.825 14.8 
" style="fill: none; stroke: #000000; stroke-width: 0.8; stroke-linejoin: miter; stroke-linecap: square"/>
   </g>
   <g id="legend_2">
    <g id="patch_12">
     <path d="M 214.892969 37.478125 
L 310.232031 37.478125 
Q 312.232031 37.478125 312.232031 35.478125 
L 312.232031 21.8 
Q 312.232031 19.8 310.232031 19.8 
L 214.892969 19.8 
Q 212.892969 19.8 212.892969 21.8 
L 212.892969 35.478125 
Q 212.892969 37.478125 214.892969 37.478125 
z
" style="fill: #ffffff; opacity: 0.8; stroke: #cccccc; stroke-linejoin: miter"/>
    </g>
    <g id="line2d_29">
     <path d="M 216.892969 27.898438 
L 226.892969 27.898438 
L 236.892969 27.898438 
" style="fill: none; stroke: #ff0000; stroke-width: 1.5; stroke-linecap: square"/>
    </g>
    <g id="text_28">
     <!-- Temperature -->
     <g transform="translate(244.892969 31.398438)scale(0.1 -0.1)">
      <use xlink:href="#DejaVuSans-54"/>
      <use xlink:href="#DejaVuSans-65" x="44.083984"/>
      <use xlink:href="#DejaVuSans-6d" x="105.607422"/>
      <use xlink:href="#DejaVuSans-70" x="203.019531"/>
      <use xlink:href="#DejaVuSans-65" x="266.496094"/>
      <use xlink:href="#DejaVuSans-72" x="328.019531"/>
      <use xlink:href="#DejaVuSans-61" x="369.132812"/>
      <use xlink:href="#DejaVuSans-74" x="430.412109"/>
      <use xlink:href="#DejaVuSans-75" x="469.621094"/>
      <use xlink:href="#DejaVuSans-72" x="533"/>
      <use xlink:href="#DejaVuSans-65" x="571.863281"/>
     </g>
    </g>
   </g>
  </g>
 </g>
 <defs>
  <clipPath id="p4622e2d6ec">
   <rect x="59.3" y="14.8" width="406.525" height="303.4"/>
  </clipPath>
 </defs>
</svg>
