<?xml version="1.0" encoding="utf-8" standalone="no"?>
<!DOCTYPE svg PUBLIC "-//W3C//DTD SVG 1.1//EN"
  "http://www.w3.org/Graphics/SVG/1.1/DTD/svg11.dtd">
<svg xmlns:xlink="http://www.w3.org/1999/xlink" width="504pt" height="360pt" viewBox="0 0 504 360" xmlns="http://www.w3.org/2000/svg" version="1.1">
 <metadata>
  <rdf:RDF xmlns:dc="http://purl.org/dc/elements/1.1/" xmlns:cc="http://creativecommons.org/ns#" xmlns:rdf="http://www.w3.org/1999/02/22-rdf-syntax-ns#">
   <cc:Work>
    <dc:type rdf:resource="http://purl.org/dc/dcmitype/StillImage"/>
    <dc:date>2022-07-28T20:22:00.913449</dc:date>
    <dc:format>image/svg+xml</dc:format>
    <dc:creator>
     <cc:Agent>
      <dc:title>Matplotlib v3.5.1, https://matplotlib.org/</dc:title>
     </cc:Agent>
    </dc:creator>
   </cc:Work>
  </rdf:RDF>
 </metadata>
 <defs>
  <style type="text/css">*{stroke-linejoin: round; stroke-linecap: butt}</style>
 </defs>
 <g id="figure_1">
  <g id="patch_1">
   <path d="M 0 360 
L 504 360 
L 504 0 
L 0 0 
L 0 360 
z
" style="fill: none"/>
  </g>
  <g id="axes_1">
   <g id="patch_2">
    <path d="M 59.3 318.2 
L 465.825 318.2 
L 465.825 14.8 
L 59.3 14.8 
z
" style="fill: #ffffff"/>
   </g>
   <g id="matplotlib.axis_1">
    <g id="xtick_1">
     <g id="line2d_1">
      <defs>
       <path id="m5ec8548ff1" d="M 0 0 
L 0 3.5 
" style="stroke: #000000; stroke-width: 0.8"/>
      </defs>
      <g>
       <use xlink:href="#m5ec8548ff1" x="77.778409" y="318.2" style="stroke: #000000; stroke-width: 0.8"/>
      </g>
     </g>
     <g id="text_1">
      <!-- 0 -->
      <g transform="translate(74.597159 332.798437)scale(0.1 -0.1)">
       <defs>
        <path id="DejaVuSans-30" d="M 2034 4250 
Q 1547 4250 1301 3770 
Q 1056 3291 1056 2328 
Q 1056 1369 1301 889 
Q 1547 409 2034 409 
Q 2525 409 2770 889 
Q 3016 1369 3016 2328 
Q 3016 3291 2770 3770 
Q 2525 4250 2034 4250 
z
M 2034 4750 
Q 2819 4750 3233 4129 
Q 3647 3509 3647 2328 
Q 3647 1150 3233 529 
Q 2819 -91 2034 -91 
Q 1250 -91 836 529 
Q 422 1150 422 2328 
Q 422 3509 836 4129 
Q 1250 4750 2034 4750 
z
" transform="scale(0.015625)"/>
       </defs>
       <use xlink:href="#DejaVuSans-30"/>
      </g>
     </g>
    </g>
    <g id="xtick_2">
     <g id="line2d_2">
      <g>
       <use xlink:href="#m5ec8548ff1" x="151.766033" y="318.2" style="stroke: #000000; stroke-width: 0.8"/>
      </g>
     </g>
     <g id="text_2">
      <!-- 200 -->
      <g transform="translate(142.222283 332.798437)scale(0.1 -0.1)">
       <defs>
        <path id="DejaVuSans-32" d="M 1228 531 
L 3431 531 
L 3431 0 
L 469 0 
L 469 531 
Q 828 903 1448 1529 
Q 2069 2156 2228 2338 
Q 2531 2678 2651 2914 
Q 2772 3150 2772 3378 
Q 2772 3750 2511 3984 
Q 2250 4219 1831 4219 
Q 1534 4219 1204 4116 
Q 875 4013 500 3803 
L 500 4441 
Q 881 4594 1212 4672 
Q 1544 4750 1819 4750 
Q 2544 4750 2975 4387 
Q 3406 4025 3406 3419 
Q 3406 3131 3298 2873 
Q 3191 2616 2906 2266 
Q 2828 2175 2409 1742 
Q 1991 1309 1228 531 
z
" transform="scale(0.015625)"/>
       </defs>
       <use xlink:href="#DejaVuSans-32"/>
       <use xlink:href="#DejaVuSans-30" x="63.623047"/>
       <use xlink:href="#DejaVuSans-30" x="127.246094"/>
      </g>
     </g>
    </g>
    <g id="xtick_3">
     <g id="line2d_3">
      <g>
       <use xlink:href="#m5ec8548ff1" x="225.753657" y="318.2" style="stroke: #000000; stroke-width: 0.8"/>
      </g>
     </g>
     <g id="text_3">
      <!-- 400 -->
      <g transform="translate(216.209907 332.798437)scale(0.1 -0.1)">
       <defs>
        <path id="DejaVuSans-34" d="M 2419 4116 
L 825 1625 
L 2419 1625 
L 2419 4116 
z
M 2253 4666 
L 3047 4666 
L 3047 1625 
L 3713 1625 
L 3713 1100 
L 3047 1100 
L 3047 0 
L 2419 0 
L 2419 1100 
L 313 1100 
L 313 1709 
L 2253 4666 
z
" transform="scale(0.015625)"/>
       </defs>
       <use xlink:href="#DejaVuSans-34"/>
       <use xlink:href="#DejaVuSans-30" x="63.623047"/>
       <use xlink:href="#DejaVuSans-30" x="127.246094"/>
      </g>
     </g>
    </g>
    <g id="xtick_4">
     <g id="line2d_4">
      <g>
       <use xlink:href="#m5ec8548ff1" x="299.741281" y="318.2" style="stroke: #000000; stroke-width: 0.8"/>
      </g>
     </g>
     <g id="text_4">
      <!-- 600 -->
      <g transform="translate(290.197531 332.798437)scale(0.1 -0.1)">
       <defs>
        <path id="DejaVuSans-36" d="M 2113 2584 
Q 1688 2584 1439 2293 
Q 1191 2003 1191 1497 
Q 1191 994 1439 701 
Q 1688 409 2113 409 
Q 2538 409 2786 701 
Q 3034 994 3034 1497 
Q 3034 2003 2786 2293 
Q 2538 2584 2113 2584 
z
M 3366 4563 
L 3366 3988 
Q 3128 4100 2886 4159 
Q 2644 4219 2406 4219 
Q 1781 4219 1451 3797 
Q 1122 3375 1075 2522 
Q 1259 2794 1537 2939 
Q 1816 3084 2150 3084 
Q 2853 3084 3261 2657 
Q 3669 2231 3669 1497 
Q 3669 778 3244 343 
Q 2819 -91 2113 -91 
Q 1303 -91 875 529 
Q 447 1150 447 2328 
Q 447 3434 972 4092 
Q 1497 4750 2381 4750 
Q 2619 4750 2861 4703 
Q 3103 4656 3366 4563 
z
" transform="scale(0.015625)"/>
       </defs>
       <use xlink:href="#DejaVuSans-36"/>
       <use xlink:href="#DejaVuSans-30" x="63.623047"/>
       <use xlink:href="#DejaVuSans-30" x="127.246094"/>
      </g>
     </g>
    </g>
    <g id="xtick_5">
     <g id="line2d_5">
      <g>
       <use xlink:href="#m5ec8548ff1" x="373.728905" y="318.2" style="stroke: #000000; stroke-width: 0.8"/>
      </g>
     </g>
     <g id="text_5">
      <!-- 800 -->
      <g transform="translate(364.185155 332.798437)scale(0.1 -0.1)">
       <defs>
        <path id="DejaVuSans-38" d="M 2034 2216 
Q 1584 2216 1326 1975 
Q 1069 1734 1069 1313 
Q 1069 891 1326 650 
Q 1584 409 2034 409 
Q 2484 409 2743 651 
Q 3003 894 3003 1313 
Q 3003 1734 2745 1975 
Q 2488 2216 2034 2216 
z
M 1403 2484 
Q 997 2584 770 2862 
Q 544 3141 544 3541 
Q 544 4100 942 4425 
Q 1341 4750 2034 4750 
Q 2731 4750 3128 4425 
Q 3525 4100 3525 3541 
Q 3525 3141 3298 2862 
Q 3072 2584 2669 2484 
Q 3125 2378 3379 2068 
Q 3634 1759 3634 1313 
Q 3634 634 3220 271 
Q 2806 -91 2034 -91 
Q 1263 -91 848 271 
Q 434 634 434 1313 
Q 434 1759 690 2068 
Q 947 2378 1403 2484 
z
M 1172 3481 
Q 1172 3119 1398 2916 
Q 1625 2713 2034 2713 
Q 2441 2713 2670 2916 
Q 2900 3119 2900 3481 
Q 2900 3844 2670 4047 
Q 2441 4250 2034 4250 
Q 1625 4250 1398 4047 
Q 1172 3844 1172 3481 
z
" transform="scale(0.015625)"/>
       </defs>
       <use xlink:href="#DejaVuSans-38"/>
       <use xlink:href="#DejaVuSans-30" x="63.623047"/>
       <use xlink:href="#DejaVuSans-30" x="127.246094"/>
      </g>
     </g>
    </g>
    <g id="xtick_6">
     <g id="line2d_6">
      <g>
       <use xlink:href="#m5ec8548ff1" x="447.716529" y="318.2" style="stroke: #000000; stroke-width: 0.8"/>
      </g>
     </g>
     <g id="text_6">
      <!-- 1000 -->
      <g transform="translate(434.991529 332.798437)scale(0.1 -0.1)">
       <defs>
        <path id="DejaVuSans-31" d="M 794 531 
L 1825 531 
L 1825 4091 
L 703 3866 
L 703 4441 
L 1819 4666 
L 2450 4666 
L 2450 531 
L 3481 531 
L 3481 0 
L 794 0 
L 794 531 
z
" transform="scale(0.015625)"/>
       </defs>
       <use xlink:href="#DejaVuSans-31"/>
       <use xlink:href="#DejaVuSans-30" x="63.623047"/>
       <use xlink:href="#DejaVuSans-30" x="127.246094"/>
       <use xlink:href="#DejaVuSans-30" x="190.869141"/>
      </g>
     </g>
    </g>
    <g id="text_7">
     <!-- Episode -->
     <g transform="translate(242.925 346.476562)scale(0.1 -0.1)">
      <defs>
       <path id="DejaVuSans-45" d="M 628 4666 
L 3578 4666 
L 3578 4134 
L 1259 4134 
L 1259 2753 
L 3481 2753 
L 3481 2222 
L 1259 2222 
L 1259 531 
L 3634 531 
L 3634 0 
L 628 0 
L 628 4666 
z
" transform="scale(0.015625)"/>
       <path id="DejaVuSans-70" d="M 1159 525 
L 1159 -1331 
L 581 -1331 
L 581 3500 
L 1159 3500 
L 1159 2969 
Q 1341 3281 1617 3432 
Q 1894 3584 2278 3584 
Q 2916 3584 3314 3078 
Q 3713 2572 3713 1747 
Q 3713 922 3314 415 
Q 2916 -91 2278 -91 
Q 1894 -91 1617 61 
Q 1341 213 1159 525 
z
M 3116 1747 
Q 3116 2381 2855 2742 
Q 2594 3103 2138 3103 
Q 1681 3103 1420 2742 
Q 1159 2381 1159 1747 
Q 1159 1113 1420 752 
Q 1681 391 2138 391 
Q 2594 391 2855 752 
Q 3116 1113 3116 1747 
z
" transform="scale(0.015625)"/>
       <path id="DejaVuSans-69" d="M 603 3500 
L 1178 3500 
L 1178 0 
L 603 0 
L 603 3500 
z
M 603 4863 
L 1178 4863 
L 1178 4134 
L 603 4134 
L 603 4863 
z
" transform="scale(0.015625)"/>
       <path id="DejaVuSans-73" d="M 2834 3397 
L 2834 2853 
Q 2591 2978 2328 3040 
Q 2066 3103 1784 3103 
Q 1356 3103 1142 2972 
Q 928 2841 928 2578 
Q 928 2378 1081 2264 
Q 1234 2150 1697 2047 
L 1894 2003 
Q 2506 1872 2764 1633 
Q 3022 1394 3022 966 
Q 3022 478 2636 193 
Q 2250 -91 1575 -91 
Q 1294 -91 989 -36 
Q 684 19 347 128 
L 347 722 
Q 666 556 975 473 
Q 1284 391 1588 391 
Q 1994 391 2212 530 
Q 2431 669 2431 922 
Q 2431 1156 2273 1281 
Q 2116 1406 1581 1522 
L 1381 1569 
Q 847 1681 609 1914 
Q 372 2147 372 2553 
Q 372 3047 722 3315 
Q 1072 3584 1716 3584 
Q 2034 3584 2315 3537 
Q 2597 3491 2834 3397 
z
" transform="scale(0.015625)"/>
       <path id="DejaVuSans-6f" d="M 1959 3097 
Q 1497 3097 1228 2736 
Q 959 2375 959 1747 
Q 959 1119 1226 758 
Q 1494 397 1959 397 
Q 2419 397 2687 759 
Q 2956 1122 2956 1747 
Q 2956 2369 2687 2733 
Q 2419 3097 1959 3097 
z
M 1959 3584 
Q 2709 3584 3137 3096 
Q 3566 2609 3566 1747 
Q 3566 888 3137 398 
Q 2709 -91 1959 -91 
Q 1206 -91 779 398 
Q 353 888 353 1747 
Q 353 2609 779 3096 
Q 1206 3584 1959 3584 
z
" transform="scale(0.015625)"/>
       <path id="DejaVuSans-64" d="M 2906 2969 
L 2906 4863 
L 3481 4863 
L 3481 0 
L 2906 0 
L 2906 525 
Q 2725 213 2448 61 
Q 2172 -91 1784 -91 
Q 1150 -91 751 415 
Q 353 922 353 1747 
Q 353 2572 751 3078 
Q 1150 3584 1784 3584 
Q 2172 3584 2448 3432 
Q 2725 3281 2906 2969 
z
M 947 1747 
Q 947 1113 1208 752 
Q 1469 391 1925 391 
Q 2381 391 2643 752 
Q 2906 1113 2906 1747 
Q 2906 2381 2643 2742 
Q 2381 3103 1925 3103 
Q 1469 3103 1208 2742 
Q 947 2381 947 1747 
z
" transform="scale(0.015625)"/>
       <path id="DejaVuSans-65" d="M 3597 1894 
L 3597 1613 
L 953 1613 
Q 991 1019 1311 708 
Q 1631 397 2203 397 
Q 2534 397 2845 478 
Q 3156 559 3463 722 
L 3463 178 
Q 3153 47 2828 -22 
Q 2503 -91 2169 -91 
Q 1331 -91 842 396 
Q 353 884 353 1716 
Q 353 2575 817 3079 
Q 1281 3584 2069 3584 
Q 2775 3584 3186 3129 
Q 3597 2675 3597 1894 
z
M 3022 2063 
Q 3016 2534 2758 2815 
Q 2500 3097 2075 3097 
Q 1594 3097 1305 2825 
Q 1016 2553 972 2059 
L 3022 2063 
z
" transform="scale(0.015625)"/>
      </defs>
      <use xlink:href="#DejaVuSans-45"/>
      <use xlink:href="#DejaVuSans-70" x="63.183594"/>
      <use xlink:href="#DejaVuSans-69" x="126.660156"/>
      <use xlink:href="#DejaVuSans-73" x="154.443359"/>
      <use xlink:href="#DejaVuSans-6f" x="206.542969"/>
      <use xlink:href="#DejaVuSans-64" x="267.724609"/>
      <use xlink:href="#DejaVuSans-65" x="331.201172"/>
     </g>
    </g>
   </g>
   <g id="matplotlib.axis_2">
    <g id="ytick_1">
     <g id="line2d_7">
      <defs>
       <path id="m2adcffff81" d="M 0 0 
L -3.5 0 
" style="stroke: #000000; stroke-width: 0.8"/>
      </defs>
      <g>
       <use xlink:href="#m2adcffff81" x="59.3" y="318.2" style="stroke: #000000; stroke-width: 0.8"/>
      </g>
     </g>
     <g id="text_8">
      <!-- −100 -->
      <g transform="translate(24.832813 321.999219)scale(0.1 -0.1)">
       <defs>
        <path id="DejaVuSans-2212" d="M 678 2272 
L 4684 2272 
L 4684 1741 
L 678 1741 
L 678 2272 
z
" transform="scale(0.015625)"/>
       </defs>
       <use xlink:href="#DejaVuSans-2212"/>
       <use xlink:href="#DejaVuSans-31" x="83.789062"/>
       <use xlink:href="#DejaVuSans-30" x="147.412109"/>
       <use xlink:href="#DejaVuSans-30" x="211.035156"/>
      </g>
     </g>
    </g>
    <g id="ytick_2">
     <g id="line2d_8">
      <g>
       <use xlink:href="#m2adcffff81" x="59.3" y="280.275" style="stroke: #000000; stroke-width: 0.8"/>
      </g>
     </g>
     <g id="text_9">
      <!-- −50 -->
      <g transform="translate(31.195313 284.074219)scale(0.1 -0.1)">
       <defs>
        <path id="DejaVuSans-35" d="M 691 4666 
L 3169 4666 
L 3169 4134 
L 1269 4134 
L 1269 2991 
Q 1406 3038 1543 3061 
Q 1681 3084 1819 3084 
Q 2600 3084 3056 2656 
Q 3513 2228 3513 1497 
Q 3513 744 3044 326 
Q 2575 -91 1722 -91 
Q 1428 -91 1123 -41 
Q 819 9 494 109 
L 494 744 
Q 775 591 1075 516 
Q 1375 441 1709 441 
Q 2250 441 2565 725 
Q 2881 1009 2881 1497 
Q 2881 1984 2565 2268 
Q 2250 2553 1709 2553 
Q 1456 2553 1204 2497 
Q 953 2441 691 2322 
L 691 4666 
z
" transform="scale(0.015625)"/>
       </defs>
       <use xlink:href="#DejaVuSans-2212"/>
       <use xlink:href="#DejaVuSans-35" x="83.789062"/>
       <use xlink:href="#DejaVuSans-30" x="147.412109"/>
      </g>
     </g>
    </g>
    <g id="ytick_3">
     <g id="line2d_9">
      <g>
       <use xlink:href="#m2adcffff81" x="59.3" y="242.35" style="stroke: #000000; stroke-width: 0.8"/>
      </g>
     </g>
     <g id="text_10">
      <!-- 0 -->
      <g transform="translate(45.9375 246.149219)scale(0.1 -0.1)">
       <use xlink:href="#DejaVuSans-30"/>
      </g>
     </g>
    </g>
    <g id="ytick_4">
     <g id="line2d_10">
      <g>
       <use xlink:href="#m2adcffff81" x="59.3" y="204.425" style="stroke: #000000; stroke-width: 0.8"/>
      </g>
     </g>
     <g id="text_11">
      <!-- 50 -->
      <g transform="translate(39.575 208.224219)scale(0.1 -0.1)">
       <use xlink:href="#DejaVuSans-35"/>
       <use xlink:href="#DejaVuSans-30" x="63.623047"/>
      </g>
     </g>
    </g>
    <g id="ytick_5">
     <g id="line2d_11">
      <g>
       <use xlink:href="#m2adcffff81" x="59.3" y="166.5" style="stroke: #000000; stroke-width: 0.8"/>
      </g>
     </g>
     <g id="text_12">
      <!-- 100 -->
      <g transform="translate(33.2125 170.299219)scale(0.1 -0.1)">
       <use xlink:href="#DejaVuSans-31"/>
       <use xlink:href="#DejaVuSans-30" x="63.623047"/>
       <use xlink:href="#DejaVuSans-30" x="127.246094"/>
      </g>
     </g>
    </g>
    <g id="ytick_6">
     <g id="line2d_12">
      <g>
       <use xlink:href="#m2adcffff81" x="59.3" y="128.575" style="stroke: #000000; stroke-width: 0.8"/>
      </g>
     </g>
     <g id="text_13">
      <!-- 150 -->
      <g transform="translate(33.2125 132.374219)scale(0.1 -0.1)">
       <use xlink:href="#DejaVuSans-31"/>
       <use xlink:href="#DejaVuSans-35" x="63.623047"/>
       <use xlink:href="#DejaVuSans-30" x="127.246094"/>
      </g>
     </g>
    </g>
    <g id="ytick_7">
     <g id="line2d_13">
      <g>
       <use xlink:href="#m2adcffff81" x="59.3" y="90.65" style="stroke: #000000; stroke-width: 0.8"/>
      </g>
     </g>
     <g id="text_14">
      <!-- 200 -->
      <g transform="translate(33.2125 94.449219)scale(0.1 -0.1)">
       <use xlink:href="#DejaVuSans-32"/>
       <use xlink:href="#DejaVuSans-30" x="63.623047"/>
       <use xlink:href="#DejaVuSans-30" x="127.246094"/>
      </g>
     </g>
    </g>
    <g id="ytick_8">
     <g id="line2d_14">
      <g>
       <use xlink:href="#m2adcffff81" x="59.3" y="52.725" style="stroke: #000000; stroke-width: 0.8"/>
      </g>
     </g>
     <g id="text_15">
      <!-- 250 -->
      <g transform="translate(33.2125 56.524219)scale(0.1 -0.1)">
       <use xlink:href="#DejaVuSans-32"/>
       <use xlink:href="#DejaVuSans-35" x="63.623047"/>
       <use xlink:href="#DejaVuSans-30" x="127.246094"/>
      </g>
     </g>
    </g>
    <g id="ytick_9">
     <g id="line2d_15">
      <g>
       <use xlink:href="#m2adcffff81" x="59.3" y="14.8" style="stroke: #000000; stroke-width: 0.8"/>
      </g>
     </g>
     <g id="text_16">
      <!-- 300 -->
      <g transform="translate(33.2125 18.599219)scale(0.1 -0.1)">
       <defs>
        <path id="DejaVuSans-33" d="M 2597 2516 
Q 3050 2419 3304 2112 
Q 3559 1806 3559 1356 
Q 3559 666 3084 287 
Q 2609 -91 1734 -91 
Q 1441 -91 1130 -33 
Q 819 25 488 141 
L 488 750 
Q 750 597 1062 519 
Q 1375 441 1716 441 
Q 2309 441 2620 675 
Q 2931 909 2931 1356 
Q 2931 1769 2642 2001 
Q 2353 2234 1838 2234 
L 1294 2234 
L 1294 2753 
L 1863 2753 
Q 2328 2753 2575 2939 
Q 2822 3125 2822 3475 
Q 2822 3834 2567 4026 
Q 2313 4219 1838 4219 
Q 1578 4219 1281 4162 
Q 984 4106 628 3988 
L 628 4550 
Q 988 4650 1302 4700 
Q 1616 4750 1894 4750 
Q 2613 4750 3031 4423 
Q 3450 4097 3450 3541 
Q 3450 3153 3228 2886 
Q 3006 2619 2597 2516 
z
" transform="scale(0.015625)"/>
       </defs>
       <use xlink:href="#DejaVuSans-33"/>
       <use xlink:href="#DejaVuSans-30" x="63.623047"/>
       <use xlink:href="#DejaVuSans-30" x="127.246094"/>
      </g>
     </g>
    </g>
    <g id="text_17">
     <!-- Score -->
     <g transform="translate(18.753125 180.502344)rotate(-90)scale(0.1 -0.1)">
      <defs>
       <path id="DejaVuSans-53" d="M 3425 4513 
L 3425 3897 
Q 3066 4069 2747 4153 
Q 2428 4238 2131 4238 
Q 1616 4238 1336 4038 
Q 1056 3838 1056 3469 
Q 1056 3159 1242 3001 
Q 1428 2844 1947 2747 
L 2328 2669 
Q 3034 2534 3370 2195 
Q 3706 1856 3706 1288 
Q 3706 609 3251 259 
Q 2797 -91 1919 -91 
Q 1588 -91 1214 -16 
Q 841 59 441 206 
L 441 856 
Q 825 641 1194 531 
Q 1563 422 1919 422 
Q 2459 422 2753 634 
Q 3047 847 3047 1241 
Q 3047 1584 2836 1778 
Q 2625 1972 2144 2069 
L 1759 2144 
Q 1053 2284 737 2584 
Q 422 2884 422 3419 
Q 422 4038 858 4394 
Q 1294 4750 2059 4750 
Q 2388 4750 2728 4690 
Q 3069 4631 3425 4513 
z
" transform="scale(0.015625)"/>
       <path id="DejaVuSans-63" d="M 3122 3366 
L 3122 2828 
Q 2878 2963 2633 3030 
Q 2388 3097 2138 3097 
Q 1578 3097 1268 2742 
Q 959 2388 959 1747 
Q 959 1106 1268 751 
Q 1578 397 2138 397 
Q 2388 397 2633 464 
Q 2878 531 3122 666 
L 3122 134 
Q 2881 22 2623 -34 
Q 2366 -91 2075 -91 
Q 1284 -91 818 406 
Q 353 903 353 1747 
Q 353 2603 823 3093 
Q 1294 3584 2113 3584 
Q 2378 3584 2631 3529 
Q 2884 3475 3122 3366 
z
" transform="scale(0.015625)"/>
       <path id="DejaVuSans-72" d="M 2631 2963 
Q 2534 3019 2420 3045 
Q 2306 3072 2169 3072 
Q 1681 3072 1420 2755 
Q 1159 2438 1159 1844 
L 1159 0 
L 581 0 
L 581 3500 
L 1159 3500 
L 1159 2956 
Q 1341 3275 1631 3429 
Q 1922 3584 2338 3584 
Q 2397 3584 2469 3576 
Q 2541 3569 2628 3553 
L 2631 2963 
z
" transform="scale(0.015625)"/>
      </defs>
      <use xlink:href="#DejaVuSans-53"/>
      <use xlink:href="#DejaVuSans-63" x="63.476562"/>
      <use xlink:href="#DejaVuSans-6f" x="118.457031"/>
      <use xlink:href="#DejaVuSans-72" x="179.638672"/>
      <use xlink:href="#DejaVuSans-65" x="218.501953"/>
     </g>
    </g>
   </g>
   <g id="line2d_16">
    <path d="M 78.396733 361 
L 78.518285 300.662811 
L 78.706949 361 
M 79.07863 361 
L 79.258162 306.337162 
L 79.42336 361 
M 79.924172 361 
L 79.998038 344.098151 
L 80.062946 361 
M 80.709041 361 
L 80.737914 354.275929 
L 81.107852 343.653888 
L 81.363637 361 
M 81.859379 361 
L 82.217667 337.452992 
L 82.587605 324.177285 
L 82.957543 332.309408 
L 83.065473 361 
M 83.928584 361 
L 84.067357 302.562289 
L 84.437295 287.37512 
L 84.736743 361 
M 85.887528 361 
L 85.917048 356.322396 
L 86.015935 361 
M 86.325147 361 
L 86.656924 249.530442 
L 86.867893 361 
M 87.237804 361 
L 87.766738 153.706554 
L 88.320228 361 
M 88.65885 361 
L 88.876553 248.711171 
L 89.246491 245.39136 
L 89.616429 295.859993 
L 89.986367 254.469883 
L 90.367653 361 
M 91.390085 361 
L 91.46612 332.063443 
L 91.836058 294.947106 
L 92.205996 289.652609 
L 92.575934 234.750257 
L 92.945872 245.268713 
L 93.31581 271.8608 
L 93.685748 255.264311 
L 94.055686 312.160244 
L 94.425624 281.709233 
L 94.795563 289.719661 
L 95.165501 312.963507 
L 95.271947 361 
M 95.759473 361 
L 95.905377 283.560733 
L 96.275315 276.472131 
L 96.645253 261.999373 
L 97.015191 272.419748 
L 97.385129 263.733714 
L 97.755068 283.612021 
L 98.125006 255.763768 
L 98.481993 361 
M 98.510807 361 
L 98.864882 275.788289 
L 99.23482 234.772694 
L 99.604758 217.13894 
L 99.974696 297.971955 
L 100.344634 276.462414 
L 100.714573 296.597072 
L 101.084511 253.684698 
L 101.454449 170.262047 
L 101.824387 135.764909 
L 102.194325 286.727453 
L 102.564263 240.345673 
L 102.934201 235.088623 
L 103.304139 255.595224 
L 103.674077 226.989298 
L 104.044016 230.140949 
L 104.413954 274.474724 
L 104.783892 261.207101 
L 105.15383 215.796025 
L 105.523768 259.52332 
L 105.893706 244.509084 
L 106.263644 237.981966 
L 106.633582 266.610174 
L 107.003521 316.023263 
L 107.373459 225.216871 
L 107.743397 226.426922 
L 108.113335 242.472837 
L 108.483273 225.756803 
L 108.853211 216.284159 
L 109.223149 194.628981 
L 109.593087 250.337929 
L 109.963026 205.432545 
L 110.332964 212.425206 
L 110.702902 154.271724 
L 111.07284 252.822314 
L 111.442778 124.413428 
L 111.812716 266.665949 
L 112.182654 155.657972 
L 112.552592 258.286524 
L 112.92253 138.753692 
L 113.292469 241.161551 
L 113.662407 256.84428 
L 114.004713 361 
M 114.05877 361 
L 114.402283 251.701519 
L 114.772221 254.478159 
L 115.142159 181.828254 
L 115.512097 187.483265 
L 115.882035 223.208123 
L 116.251974 173.382902 
L 116.621912 212.776981 
L 116.99185 238.957608 
L 117.361788 214.02779 
L 118.101664 308.31774 
L 118.471602 206.021413 
L 118.84154 207.526012 
L 119.211479 242.055793 
L 119.581417 253.130864 
L 119.951355 256.337371 
L 120.321293 169.585588 
L 120.691231 185.586007 
L 121.061169 147.353053 
L 121.431107 236.901936 
L 121.801045 198.874062 
L 122.170983 202.680833 
L 122.540922 156.608911 
L 122.91086 244.706498 
L 123.280798 142.79198 
L 124.020674 206.756824 
L 124.390612 214.708495 
L 124.76055 199.388759 
L 125.130488 220.67596 
L 125.500427 231.206397 
L 125.696615 361 
M 126.326506 361 
L 126.610241 200.730755 
L 126.980179 184.807082 
L 127.350117 250.867013 
L 127.720055 158.510634 
L 128.089993 200.194637 
L 128.459932 185.239884 
L 128.82987 182.714273 
L 129.199808 354.117135 
L 129.569746 359.036955 
L 129.939684 178.744265 
L 130.309622 158.108196 
L 130.67956 224.103925 
L 131.049498 165.61377 
L 131.419436 159.094215 
L 131.789375 184.546873 
L 132.06308 361 
M 132.259549 361 
L 132.529251 194.072465 
L 132.899189 169.354935 
L 133.269127 284.45353 
L 133.639065 245.955436 
L 134.009003 144.274218 
L 134.349791 361 
M 134.406877 361 
L 134.74888 134.042974 
L 135.118818 248.087725 
L 135.488756 135.045692 
L 135.858694 181.612153 
L 136.228632 168.955964 
L 136.59857 228.281695 
L 136.968508 201.540752 
L 137.299422 361 
M 137.402768 361 
L 138.078323 145.554117 
L 138.448261 188.846862 
L 138.818199 251.813861 
L 139.188137 152.86696 
L 139.558075 156.819559 
L 139.928013 233.674277 
L 140.297951 243.013624 
L 141.037828 178.313828 
L 141.407766 155.505619 
L 141.777704 198.166415 
L 142.147642 287.495401 
L 142.51758 171.922996 
L 142.887518 209.303264 
L 143.257456 172.413095 
L 143.627394 171.446779 
L 143.94084 361 
M 144.134769 361 
L 144.367271 303.206467 
L 144.737209 175.914362 
L 145.107147 168.761437 
L 145.477085 237.72643 
L 145.847023 249.87023 
L 146.216961 289.712802 
L 146.586899 190.732986 
L 146.956838 167.605153 
L 147.326776 191.014525 
L 147.696714 246.586912 
L 147.99147 361 
M 148.113941 361 
L 148.43659 161.886814 
L 149.176466 195.055553 
L 149.546404 270.658435 
L 149.916342 205.550874 
L 150.286281 176.635111 
L 150.656219 166.954446 
L 151.026157 242.897563 
L 151.396095 162.555246 
L 151.766033 168.737958 
L 152.135971 202.267122 
L 152.505909 147.007012 
L 152.875847 196.447282 
L 153.202263 361 
M 153.294911 361 
L 153.615724 217.717019 
L 153.985662 182.082888 
L 154.3556 161.599387 
L 154.725538 222.293009 
L 155.095476 199.309749 
L 155.465414 184.151326 
L 155.651031 361 
M 156.007237 361 
L 156.205291 158.649351 
L 156.575229 222.9197 
L 156.945167 159.77476 
L 157.315105 237.115547 
L 157.685043 347.714787 
L 158.054981 175.2216 
L 158.383602 361 
M 158.473756 361 
L 158.794857 207.419693 
L 159.164795 132.122588 
L 159.534734 203.458458 
L 159.904672 196.840679 
L 160.27461 186.805534 
L 160.644548 191.744284 
L 161.384424 153.894368 
L 161.754362 229.66463 
L 162.084238 361 
M 162.152214 361 
L 162.494239 165.559825 
L 162.864177 167.464959 
L 163.234115 167.442547 
L 163.604053 163.488828 
L 163.973991 164.86861 
L 164.343929 167.182464 
L 164.713867 161.727339 
L 165.083805 264.045891 
L 165.453744 259.060883 
L 165.823682 168.309137 
L 166.19362 158.916918 
L 166.563558 245.562829 
L 167.303434 165.111559 
L 167.673372 219.601296 
L 168.04331 340.17714 
L 168.413248 216.101493 
L 168.783187 209.716687 
L 169.153125 211.521574 
L 169.523063 217.877079 
L 169.893001 189.640893 
L 170.262939 180.24863 
L 170.632877 181.855834 
L 171.002815 249.647784 
L 171.372753 193.563705 
L 171.742692 207.397402 
L 172.11263 182.933262 
L 172.482568 199.91607 
L 172.852506 172.073958 
L 173.222444 127.173771 
L 173.592382 182.297847 
L 173.96232 163.952574 
L 174.702197 254.5362 
L 175.072135 177.935296 
L 175.442073 192.222813 
L 175.812011 199.452687 
L 176.181949 217.26473 
L 176.551887 251.851752 
L 176.79715 361 
M 177.018898 361 
L 177.291763 205.037573 
L 178.03164 119.529331 
L 178.401578 117.797368 
L 178.771516 133.14086 
L 179.141454 252.317065 
L 179.511392 134.878637 
L 179.88133 156.155059 
L 180.251268 186.879146 
L 180.621206 258.005392 
L 180.991145 122.945278 
L 181.361083 249.78299 
L 181.731021 145.67711 
L 182.100959 177.303437 
L 182.470897 155.109224 
L 182.840835 221.01893 
L 183.210773 256.215343 
L 183.580711 107.487434 
L 183.95065 185.390069 
L 184.320588 119.126185 
L 184.690526 240.5012 
L 185.060464 163.458954 
L 185.430402 153.919654 
L 185.80034 204.123102 
L 186.170278 81.281873 
L 186.540216 180.940891 
L 186.910154 232.726961 
L 187.280093 70.535437 
L 187.650031 146.097356 
L 188.019969 121.338322 
L 188.759845 249.670713 
L 189.129783 229.951238 
L 189.499721 147.531427 
L 189.869659 267.324819 
L 190.239598 147.585607 
L 190.609536 244.756073 
L 190.979474 141.351734 
L 191.349412 243.258981 
L 191.71935 139.603182 
L 192.089288 242.143409 
L 192.459226 149.900423 
L 192.829164 125.65235 
L 193.569041 272.68925 
L 193.938979 166.879914 
L 194.308917 266.350379 
L 194.678855 212.747181 
L 195.048793 134.018106 
L 195.418731 132.902546 
L 195.788669 122.871147 
L 196.158607 137.618884 
L 196.503614 361 
M 196.575719 361 
L 196.898484 250.549346 
L 197.268422 217.970457 
L 197.63836 244.319765 
L 198.378236 147.383375 
L 198.748174 127.340011 
L 199.118112 236.041325 
L 199.488051 90.086688 
L 199.857989 267.264442 
L 200.227927 107.038643 
L 200.597865 140.426553 
L 200.967803 80.936478 
L 201.337741 252.085045 
L 201.707679 148.111244 
L 202.077617 105.875693 
L 202.447556 109.177615 
L 202.817494 187.996293 
L 203.55737 90.482224 
L 203.927308 171.139263 
L 204.297246 50.986691 
L 204.667184 115.364016 
L 205.037122 215.734624 
L 205.40706 70.739562 
L 205.776999 178.992224 
L 206.146937 176.675347 
L 206.516875 165.986391 
L 207.256751 187.866016 
L 207.626689 183.091824 
L 207.996627 183.054399 
L 208.366565 143.472879 
L 208.736504 138.309803 
L 209.846318 90.989967 
L 210.216256 133.000851 
L 210.586194 77.152973 
L 210.956132 222.406681 
L 211.32607 189.019235 
L 211.696009 137.099515 
L 212.435885 234.577355 
L 212.805823 127.449625 
L 213.175761 145.864151 
L 213.545699 258.326426 
L 213.915637 130.389948 
L 214.285575 246.122639 
L 214.655513 143.453891 
L 215.025452 151.432525 
L 215.39539 152.877857 
L 215.765328 140.524818 
L 216.505204 128.565416 
L 216.875142 146.954506 
L 217.24508 275.285503 
L 217.615018 251.36199 
L 217.984957 188.646077 
L 218.354895 339.829005 
L 218.724833 120.194238 
L 219.094771 125.631606 
L 219.464709 224.064312 
L 219.834647 73.072499 
L 220.204585 139.69873 
L 220.537404 361 
M 220.602114 361 
L 220.944462 54.749082 
L 221.684338 240.360451 
L 222.054276 229.951181 
L 222.424214 360.05698 
L 222.794152 103.853477 
L 223.16409 202.758064 
L 223.534028 158.484632 
L 223.903966 151.203999 
L 224.273905 132.565079 
L 224.643843 246.122872 
L 225.013781 52.064215 
L 225.383719 139.411445 
L 225.753657 94.334207 
L 226.123595 198.326566 
L 226.863471 73.300849 
L 227.23341 220.318273 
L 227.603348 113.614529 
L 227.973286 158.45048 
L 228.343224 173.864977 
L 228.644039 361 
M 228.780804 361 
L 229.0831 168.827645 
L 229.453038 49.398133 
L 229.809022 361 
M 229.843807 361 
L 230.192915 156.295938 
L 230.562853 101.340628 
L 230.932791 155.219037 
L 231.302729 183.420317 
L 231.672667 80.488747 
L 232.042605 161.521675 
L 232.412543 90.782065 
L 232.782481 129.134437 
L 233.152419 86.814658 
L 233.522358 76.297923 
L 233.892296 102.39998 
L 234.262234 158.36934 
L 234.632172 71.069577 
L 235.00211 102.848922 
L 235.372048 167.980681 
L 235.741986 77.301868 
L 236.111924 176.477158 
L 236.481863 96.594912 
L 236.851801 110.939087 
L 237.221739 187.77015 
L 237.591677 160.827089 
L 237.961615 65.915957 
L 238.331553 144.712503 
L 238.701491 265.992563 
L 239.071429 233.199555 
L 239.441368 81.770025 
L 239.811306 79.719333 
L 240.181244 174.568538 
L 240.551182 92.693921 
L 241.291058 155.06411 
L 241.660996 293.420316 
L 242.400872 115.190082 
L 242.744226 361 
M 242.80079 361 
L 243.140749 145.183971 
L 243.510687 162.390034 
L 243.880625 245.894816 
L 244.250563 51.194896 
L 244.620501 264.601311 
L 244.990439 154.953597 
L 245.360377 96.637777 
L 245.730316 107.355371 
L 246.100254 252.594708 
L 246.470192 95.240679 
L 246.84013 102.218515 
L 247.210068 67.183622 
L 247.580006 99.590151 
L 247.949944 235.051695 
L 248.319882 249.57793 
L 248.689821 98.146642 
L 249.059759 259.365157 
L 249.429697 273.549514 
L 249.799635 273.953871 
L 250.169573 247.859692 
L 250.539511 99.873806 
L 250.909449 79.504818 
L 251.279387 272.37949 
L 251.649325 146.530206 
L 252.389202 241.694029 
L 252.75914 58.027615 
L 253.129078 115.981257 
L 253.499016 137.492546 
L 253.868954 128.423418 
L 254.238892 76.019035 
L 254.60883 123.705609 
L 255.348707 283.960366 
L 255.718645 79.548804 
L 256.088583 148.840781 
L 256.458521 94.630036 
L 256.828459 100.649085 
L 257.198397 253.257097 
L 257.568335 281.591421 
L 257.938274 95.449617 
L 258.308212 61.806375 
L 258.67815 289.962764 
L 259.048088 85.807321 
L 259.418026 89.379447 
L 259.76442 361 
M 259.854294 361 
L 260.157902 276.494691 
L 260.52784 92.924601 
L 260.897778 118.068602 
L 261.267717 294.214132 
L 261.637655 292.979577 
L 262.007593 303.915293 
L 262.377531 132.392247 
L 262.747469 171.930474 
L 263.117407 54.548506 
L 263.487345 50.988952 
L 263.857283 170.500969 
L 264.227222 338.286058 
L 264.59716 76.706518 
L 264.967098 84.691689 
L 265.337036 258.274578 
L 265.706974 325.781724 
L 266.076912 258.954957 
L 266.44685 91.605982 
L 266.816788 53.618671 
L 267.186726 125.008369 
L 267.556665 133.775788 
L 267.926603 170.214766 
L 268.296541 310.434138 
L 268.666479 351.382439 
L 269.036417 138.006376 
L 269.406355 294.329661 
L 269.776293 120.750753 
L 270.146231 111.796658 
L 270.51617 118.916719 
L 270.886108 118.571683 
L 271.256046 116.02 
L 271.625984 99.234124 
L 271.995922 133.760043 
L 272.36586 92.451879 
L 272.735798 241.601218 
L 273.105736 57.73736 
L 273.475675 101.850461 
L 273.845613 73.995641 
L 274.215551 129.710492 
L 274.585489 90.562992 
L 274.955427 84.640693 
L 275.325365 40.366349 
L 275.695303 146.087761 
L 276.065241 100.780948 
L 276.435179 72.338808 
L 276.805118 135.100581 
L 277.175056 163.384082 
L 277.544994 153.525891 
L 277.914932 304.652207 
L 278.28487 145.136192 
L 278.654808 64.23648 
L 279.024746 77.15301 
L 279.394684 109.741027 
L 279.764623 111.013564 
L 280.134561 111.288338 
L 280.504499 142.27981 
L 280.874437 116.02455 
L 281.244375 130.425652 
L 281.614313 97.091416 
L 281.984251 128.402488 
L 282.354189 120.370605 
L 282.724128 80.489672 
L 283.094066 68.981123 
L 283.464004 327.214617 
L 283.833942 153.423069 
L 284.20388 122.763423 
L 284.573818 302.068054 
L 284.943756 133.297718 
L 285.313694 60.720504 
L 286.053571 92.926722 
L 286.423509 82.368019 
L 286.793447 108.349846 
L 287.163385 173.022635 
L 287.533323 46.32631 
L 287.903261 107.692209 
L 288.273199 98.473304 
L 288.643137 135.040358 
L 289.013076 318.145805 
L 289.383014 90.674463 
L 289.752952 96.303366 
L 290.12289 181.892085 
L 290.492828 76.936037 
L 290.862766 149.997176 
L 291.602642 81.340157 
L 291.972581 162.056213 
L 292.342519 115.799055 
L 292.712457 85.818328 
L 293.082395 249.313927 
L 293.452333 123.436335 
L 293.822271 294.534012 
L 294.192209 243.680577 
L 294.562147 306.31407 
L 295.302024 176.652713 
L 295.671962 255.075782 
L 296.0419 106.656348 
L 296.411838 282.931119 
L 296.781776 325.058854 
L 297.151714 273.33908 
L 297.521652 283.675748 
L 297.89159 359.823533 
L 298.261529 165.177773 
L 298.631467 288.050225 
L 299.001405 256.51486 
L 299.371343 105.275719 
L 299.741281 269.348177 
L 300.111219 305.669491 
L 300.481157 146.197384 
L 300.851095 37.66527 
L 301.221034 231.809554 
L 301.590972 134.806232 
L 301.96091 303.902316 
L 302.330848 71.915942 
L 302.700786 200.753959 
L 303.070724 172.074652 
L 303.440662 300.596646 
L 304.180538 98.702808 
L 304.550477 113.657403 
L 304.920415 254.415237 
L 305.290353 175.955213 
L 305.660291 167.790042 
L 306.030229 106.350447 
L 306.400167 278.590233 
L 306.770105 63.880335 
L 307.140043 115.285775 
L 307.509982 325.184014 
L 307.87992 51.513626 
L 308.249858 193.147119 
L 308.619796 183.371262 
L 308.989734 119.132217 
L 309.359672 139.242943 
L 309.72961 105.771741 
L 310.099548 240.266772 
L 310.469487 117.70899 
L 310.839425 324.182838 
L 311.209363 152.479552 
L 311.579301 115.794103 
L 311.949239 309.618384 
L 312.319177 343.771802 
L 312.689115 296.654364 
L 313.059053 114.236427 
L 313.428991 157.847341 
L 313.79893 351.501075 
L 314.538806 106.31835 
L 314.908744 251.98146 
L 315.278682 232.110888 
L 315.64862 107.01793 
L 316.758435 149.068726 
L 317.128373 150.377495 
L 317.498311 69.631899 
L 317.868249 125.339367 
L 318.238187 159.575467 
L 318.978063 253.807715 
L 319.348001 128.730362 
L 319.71794 206.378072 
L 320.087878 126.726084 
L 320.457816 220.000497 
L 320.827754 226.534222 
L 321.197692 140.77623 
L 321.56763 212.608408 
L 321.937568 189.915807 
L 322.307506 30.751193 
L 322.677444 312.095932 
L 323.047383 311.837302 
L 323.787259 79.824255 
L 324.157197 265.362277 
L 324.527135 50.716256 
L 324.877513 361 
M 324.916518 361 
L 325.267011 48.775662 
L 325.636949 126.0793 
L 326.006888 114.795397 
L 326.376826 119.863572 
L 326.746764 321.339404 
L 327.116702 196.636844 
L 327.48664 196.539296 
L 327.856578 127.547532 
L 328.226516 98.429251 
L 328.596454 45.146193 
L 329.336331 301.11532 
L 329.706269 71.971081 
L 330.076207 266.45752 
L 330.446145 144.37591 
L 330.816083 64.222032 
L 331.555959 289.609769 
L 331.925897 90.271796 
L 332.295836 256.144646 
L 332.665774 104.543453 
L 333.035712 103.813519 
L 333.40565 272.786888 
L 333.775588 103.643897 
L 334.145526 93.164973 
L 334.515464 92.515613 
L 334.885402 99.776917 
L 335.255341 52.00945 
L 335.625279 107.752142 
L 335.995217 122.138451 
L 336.365155 129.583989 
L 337.105031 68.250009 
L 337.474969 68.194066 
L 337.844907 89.36823 
L 338.214846 78.733141 
L 338.584784 114.0577 
L 338.954722 75.949426 
L 339.32466 262.440243 
L 339.694598 135.400383 
L 340.064536 180.305779 
L 340.434474 288.084918 
L 340.804412 270.947352 
L 341.17435 230.804535 
L 341.544289 100.638729 
L 341.914227 35.981895 
L 342.284165 234.506743 
L 342.654103 53.270949 
L 343.024041 71.358917 
L 343.393979 143.266592 
L 343.763917 84.573598 
L 344.133855 59.064967 
L 344.873732 79.820156 
L 345.24367 190.204436 
L 345.613608 110.390581 
L 345.983546 244.094212 
L 346.353484 126.271107 
L 346.723422 93.965085 
L 347.09336 85.079579 
L 347.463299 90.796348 
L 347.833237 248.336014 
L 348.203175 101.885198 
L 348.573113 272.906928 
L 348.943051 98.797802 
L 349.312989 104.588495 
L 349.682927 254.485467 
L 350.052865 81.720835 
L 350.422803 73.443161 
L 350.792742 169.23795 
L 351.532618 255.914493 
L 351.902556 261.927714 
L 352.272494 80.678196 
L 352.642432 71.975548 
L 353.01237 88.657507 
L 353.382308 186.143207 
L 353.752247 242.400429 
L 354.122185 114.565702 
L 354.492123 217.815594 
L 354.862061 114.227925 
L 355.231999 190.69291 
L 355.601937 196.827312 
L 355.971875 125.677333 
L 356.341813 201.380229 
L 356.711752 176.912246 
L 357.08169 174.151328 
L 357.451628 52.303655 
L 357.821566 103.469068 
L 358.191504 267.647113 
L 358.561442 204.364707 
L 358.93138 286.877781 
L 359.301318 125.272727 
L 359.671256 134.73821 
L 360.041195 162.874472 
L 360.411133 99.225603 
L 360.781071 117.756902 
L 361.151009 78.242173 
L 361.520947 103.385119 
L 361.890885 108.388452 
L 362.260823 318.948493 
L 362.630761 110.213722 
L 363.0007 205.372571 
L 363.370638 193.973502 
L 363.740576 247.553028 
L 364.110514 85.436383 
L 364.85039 49.655201 
L 365.220328 72.518921 
L 365.590266 342.603196 
L 365.960205 302.358413 
L 366.330143 86.371789 
L 366.700081 54.373589 
L 367.070019 86.418837 
L 367.439957 270.289896 
L 367.809895 99.24415 
L 368.179833 260.52655 
L 368.549771 292.055916 
L 368.919709 300.545063 
L 369.289648 296.223666 
L 370.029524 75.940623 
L 370.399462 119.126847 
L 370.7694 292.738972 
L 371.139338 67.851327 
L 371.509276 105.785337 
L 371.879214 110.205367 
L 372.249153 298.417738 
L 372.619091 82.171081 
L 372.989029 268.43136 
L 373.358967 179.046467 
L 373.728905 158.338004 
L 374.098843 270.509219 
L 374.468781 302.635493 
L 374.838719 159.06764 
L 375.208658 138.861866 
L 375.578596 154.278379 
L 375.948534 202.23167 
L 376.318472 142.531823 
L 376.68841 333.314579 
L 377.058348 311.606053 
L 377.428286 149.172146 
L 377.798224 293.460037 
L 378.168162 292.754924 
L 378.538101 274.924794 
L 378.908039 77.998828 
L 379.277977 131.636056 
L 379.647915 276.795246 
L 380.017853 349.997396 
L 380.387791 283.721596 
L 380.757729 107.257112 
L 381.127667 80.798318 
L 381.497606 123.224672 
L 381.867544 56.767561 
L 382.237482 251.94025 
L 382.60742 125.611005 
L 382.977358 185.397426 
L 383.347296 122.280493 
L 383.693866 361 
M 383.766753 361 
L 384.087172 256.845669 
L 384.457111 315.184043 
L 384.827049 292.519196 
L 385.196987 178.030346 
L 385.566925 299.357013 
L 385.936863 327.527658 
L 386.306801 96.125866 
L 386.633802 361 
M 386.810351 361 
L 387.046677 299.483045 
L 387.416615 284.620551 
L 387.786554 113.82155 
L 388.156492 91.19594 
L 388.52643 99.213313 
L 388.896368 257.430198 
L 389.266306 276.996726 
L 389.636244 146.247439 
L 390.006182 307.671427 
L 390.37612 183.890318 
L 390.746059 286.284726 
L 391.115997 270.526745 
L 391.485935 124.614695 
L 391.855873 140.827562 
L 392.225811 309.439564 
L 392.595749 297.237209 
L 392.965687 352.322151 
L 393.335625 88.72702 
L 393.705564 74.902043 
L 394.075502 147.978042 
L 394.44544 78.921912 
L 395.077535 361 
M 395.266365 361 
L 395.555254 195.670284 
L 395.925192 96.515092 
L 396.29513 263.322752 
L 396.665068 82.412402 
L 397.020625 361 
M 397.07439 361 
L 397.404945 266.418898 
L 397.774883 254.536915 
L 398.144821 277.100752 
L 398.514759 118.843162 
L 398.884697 274.909158 
L 399.254635 308.838163 
L 399.624573 216.57284 
L 399.994512 42.947852 
L 400.36445 270.725732 
L 400.734388 246.122807 
L 401.104326 288.007554 
L 401.474264 76.378251 
L 401.844202 308.682438 
L 402.21414 276.463645 
L 402.584078 71.320545 
L 402.954017 96.802513 
L 403.323955 78.545273 
L 403.693893 77.822609 
L 404.063831 67.664507 
L 404.433769 233.612115 
L 405.173645 321.333588 
L 405.543583 158.382194 
L 405.913521 240.443575 
L 406.20956 361 
M 406.396489 361 
L 406.653398 292.597687 
L 407.023336 227.468534 
L 407.393274 65.696915 
L 407.763212 107.756547 
L 408.13315 344.587806 
L 408.503088 96.284434 
L 408.873026 285.275951 
L 409.242965 263.293568 
L 409.612903 285.425748 
L 409.982841 59.426618 
L 410.352779 257.842762 
L 410.679462 361 
M 410.766839 361 
L 411.462593 136.031685 
L 411.832531 99.354442 
L 412.20247 104.404801 
L 412.572408 100.58959 
L 412.942346 242.195595 
L 413.312284 80.464256 
L 413.682222 277.114872 
L 414.05216 265.786939 
L 414.422098 86.708853 
L 414.792036 45.423584 
L 415.161974 129.572198 
L 415.531913 301.143447 
L 415.901851 267.499591 
L 416.271789 60.863219 
L 416.641727 296.140286 
L 417.011665 219.530576 
L 417.381603 235.077346 
L 417.751541 137.927896 
L 418.121479 268.613468 
L 418.491418 276.407886 
L 418.861356 199.813962 
L 419.231294 80.520739 
L 419.601232 278.693164 
L 419.912843 361 
M 420.022257 361 
L 420.341108 264.845498 
L 420.711046 277.311007 
L 421.080984 67.034074 
L 421.450923 352.916003 
L 421.820861 164.669272 
L 422.190799 307.934642 
L 422.494296 361 
M 422.666342 361 
L 422.930675 331.922473 
L 423.300613 106.209301 
L 423.670551 92.114293 
L 424.410427 178.933217 
L 424.780366 90.361175 
L 425.150304 301.29433 
L 425.520242 196.777085 
L 425.89018 166.400928 
L 426.260118 303.026212 
L 426.630056 264.678222 
L 426.999994 278.257838 
L 427.369932 268.920182 
L 427.739871 93.622803 
L 428.109809 248.747848 
L 428.479747 308.377352 
L 428.849685 337.185151 
L 428.934047 361 
M 429.303437 361 
L 429.589561 85.790452 
L 429.959499 300.937523 
L 430.329437 283.931672 
L 430.699376 259.662699 
L 431.069314 283.837349 
L 431.37005 361 
M 431.511225 361 
L 431.80919 287.49318 
L 432.179128 319.067843 
L 432.549066 259.405512 
L 432.919004 108.581852 
L 433.288942 206.711175 
L 433.61979 361 
M 433.77263 361 
L 434.028819 319.943043 
L 434.398757 292.700362 
L 434.768695 249.063851 
L 435.138633 222.673023 
L 435.508571 283.865052 
L 435.878509 302.83724 
L 436.248447 307.959787 
L 436.618385 194.405949 
L 436.988324 271.534635 
L 437.358262 123.671869 
L 437.7282 152.086567 
L 437.955181 361 
M 438.362012 361 
L 438.468076 308.112756 
L 438.838014 50.986208 
L 439.207952 320.718036 
L 439.57789 113.9491 
L 439.947829 276.798387 
L 440.317767 67.715586 
L 440.590262 361 
M 440.787883 361 
L 441.057643 78.591193 
L 441.427581 271.545435 
L 441.797519 184.169367 
L 442.167457 315.812738 
L 442.537395 52.922211 
L 442.907333 41.619042 
L 443.277272 115.93886 
L 443.64721 280.787143 
L 444.115785 361 
M 444.508184 361 
L 444.757024 259.221984 
L 445.126962 331.117053 
L 445.4969 85.509686 
L 445.767209 361 
M 446.048065 361 
L 446.236777 255.266744 
L 446.606715 302.148615 
L 446.976653 91.266673 
L 447.346591 302.584821 
L 447.346591 302.584821 
" clip-path="url(#p2643f195a4)" style="fill: none; stroke: #708090; stroke-width: 1.5; stroke-linecap: square"/>
   </g>
   <g id="line2d_17">
    <path d="M 77.778409 341.281033 
L 78.148347 337.953153 
L 78.518285 333.507227 
L 78.888223 332.942365 
L 79.258162 329.837558 
L 79.6281 329.383055 
L 79.998038 325.923395 
L 80.367976 326.337786 
L 81.107852 320.654901 
L 81.47779 318.124602 
L 82.957543 312.776179 
L 83.327481 309.535232 
L 83.697419 303.637564 
L 84.067357 300.205238 
L 84.807233 297.915176 
L 85.54711 292.537077 
L 85.917048 288.841054 
L 86.286986 287.2041 
L 86.656924 284.951815 
L 87.026862 284.277126 
L 87.3968 280.567711 
L 87.766738 279.50409 
L 88.136676 281.189599 
L 88.506615 280.848337 
L 88.876553 278.37838 
L 89.616429 277.529206 
L 89.986367 276.461463 
L 90.356305 275.887201 
L 90.726243 273.06317 
L 91.46612 263.064529 
L 91.836058 260.531911 
L 92.205996 258.881473 
L 92.575934 256.173856 
L 92.945872 256.535297 
L 93.31581 254.118191 
L 93.685748 254.014294 
L 94.055686 252.022167 
L 94.425624 250.944693 
L 94.795563 248.085582 
L 95.535439 245.992035 
L 95.905377 243.782051 
L 96.645253 242.704987 
L 97.385129 239.402835 
L 97.755068 238.592324 
L 98.125006 236.387741 
L 98.494944 235.528005 
L 98.864882 233.010804 
L 99.23482 231.775594 
L 99.604758 232.468936 
L 99.974696 234.292512 
L 100.714573 231.074773 
L 101.084511 229.983947 
L 101.454449 229.972871 
L 101.824387 231.694377 
L 102.194325 232.370791 
L 102.934201 228.48811 
L 103.304139 228.524376 
L 103.674077 227.389953 
L 104.044016 226.903783 
L 104.413954 225.433142 
L 104.783892 224.837778 
L 105.15383 222.469476 
L 107.003521 218.27856 
L 107.373459 216.582223 
L 108.113335 225.262156 
L 108.853211 223.60832 
L 109.223149 224.299977 
L 109.593087 223.57761 
L 109.963026 222.574744 
L 110.332964 222.170891 
L 110.702902 221.576673 
L 111.07284 225.573581 
L 111.442778 227.697874 
L 111.812716 228.78449 
L 112.182654 226.613335 
L 112.552592 227.982254 
L 112.92253 226.128799 
L 113.292469 226.53561 
L 113.662407 225.403316 
L 114.032345 228.727228 
L 114.402283 225.220521 
L 114.772221 223.573589 
L 115.142159 224.173097 
L 115.512097 225.45564 
L 115.882035 224.59146 
L 116.251974 227.718069 
L 116.621912 226.931271 
L 116.99185 227.637486 
L 117.361788 225.559248 
L 117.731726 224.910935 
L 118.471602 221.300537 
L 118.84154 221.210924 
L 119.211479 224.656502 
L 119.581417 225.248401 
L 119.951355 223.096866 
L 120.321293 221.747056 
L 120.691231 223.391621 
L 121.061169 222.73724 
L 121.431107 222.92657 
L 121.801045 222.862017 
L 122.170983 223.744808 
L 122.540922 223.858358 
L 122.91086 224.292456 
L 123.280798 222.508439 
L 123.650736 223.615927 
L 124.020674 225.89894 
L 124.390612 225.202264 
L 124.76055 225.094159 
L 125.130488 224.554646 
L 125.500427 223.570062 
L 125.870365 226.849195 
L 126.240303 223.394355 
L 126.610241 218.718802 
L 126.980179 218.079416 
L 127.350117 219.137803 
L 127.720055 219.117867 
L 128.089993 221.741911 
L 128.459932 221.552678 
L 128.82987 221.199983 
L 129.199808 221.365988 
L 129.569746 219.215384 
L 129.939684 219.838302 
L 130.309622 219.501153 
L 130.67956 219.948312 
L 131.049498 219.367345 
L 131.419436 221.468238 
L 131.789375 222.397371 
L 132.159313 222.239136 
L 132.529251 217.117428 
L 132.899189 218.09393 
L 133.269127 217.957936 
L 133.639065 215.643625 
L 134.009003 214.769858 
L 134.378941 214.824514 
L 134.74888 211.162688 
L 135.118818 216.140638 
L 135.488756 215.533224 
L 135.858694 216.473968 
L 136.228632 216.073713 
L 136.59857 217.140454 
L 136.968508 216.561015 
L 137.338446 216.213226 
L 137.708385 219.349402 
L 138.078323 217.089374 
L 138.448261 218.636686 
L 138.818199 218.055244 
L 139.188137 217.761277 
L 139.558075 221.658234 
L 139.928013 222.026275 
L 140.297951 225.039949 
L 140.667889 224.328071 
L 141.037828 222.803356 
L 141.407766 223.306249 
L 141.777704 224.13295 
L 142.147642 223.905732 
L 142.51758 221.99071 
L 142.887518 222.02661 
L 143.257456 220.918432 
L 143.627394 222.063462 
L 143.997333 226.173532 
L 144.367271 221.581468 
L 144.737209 218.866637 
L 145.477085 218.591749 
L 146.216961 215.480837 
L 146.586899 212.921128 
L 147.326776 216.216501 
L 147.696714 215.762393 
L 148.066652 214.008993 
L 148.43659 211.116592 
L 148.806528 212.001695 
L 149.176466 211.694603 
L 149.546404 212.185518 
L 149.916342 213.575892 
L 150.286281 213.786904 
L 150.656219 214.448536 
L 151.026157 215.339878 
L 151.396095 214.839469 
L 151.766033 215.381182 
L 152.135971 215.611395 
L 152.505909 215.203169 
L 152.875847 217.255985 
L 153.245786 217.198313 
L 153.615724 213.687451 
L 153.985662 212.991776 
L 154.725538 213.557931 
L 155.095476 211.655546 
L 155.835352 210.911333 
L 156.205291 204.442683 
L 156.575229 206.36042 
L 156.945167 205.460732 
L 157.315105 206.109693 
L 157.685043 205.356436 
L 158.054981 202.747435 
L 158.424919 204.280038 
L 158.794857 204.922554 
L 159.164795 204.874911 
L 159.534734 205.571934 
L 160.27461 202.312485 
L 160.644548 201.239191 
L 161.014486 202.450647 
L 161.384424 201.67386 
L 161.754362 201.719074 
L 162.1243 200.863365 
L 162.494239 198.484467 
L 162.864177 197.632176 
L 163.234115 199.278537 
L 163.604053 198.843228 
L 163.973991 199.11952 
L 164.343929 198.924333 
L 164.713867 200.001062 
L 165.083805 201.890822 
L 165.453744 198.759653 
L 165.823682 197.286237 
L 166.19362 196.302578 
L 166.563558 197.934263 
L 166.933496 196.292186 
L 167.303434 195.24774 
L 167.673372 196.02797 
L 168.413248 190.076857 
L 168.783187 190.409366 
L 169.153125 187.625741 
L 169.523063 186.317257 
L 169.893001 184.386482 
L 170.262939 184.185704 
L 171.002815 186.536054 
L 171.372753 184.493727 
L 171.742692 185.968949 
L 172.11263 184.772713 
L 172.482568 186.00917 
L 172.852506 184.837883 
L 173.222444 186.261583 
L 173.592382 186.510172 
L 173.96232 187.707083 
L 174.332258 187.42604 
L 174.702197 185.675463 
L 175.072135 184.729366 
L 175.442073 186.624445 
L 175.812011 186.117587 
L 176.181949 187.455541 
L 176.551887 187.36519 
L 176.921825 185.008517 
L 177.291763 179.336892 
L 177.661701 177.693564 
L 178.03164 177.106467 
L 178.401578 182.258735 
L 178.771516 184.913774 
L 179.141454 186.610366 
L 179.511392 186.45042 
L 179.88133 187.601148 
L 180.251268 187.425714 
L 180.621206 186.234931 
L 180.991145 185.79565 
L 181.361083 185.138478 
L 181.731021 185.488107 
L 182.470897 183.9778 
L 182.840835 182.494345 
L 183.210773 183.115667 
L 183.580711 180.953586 
L 183.95065 180.921351 
L 184.320588 179.397102 
L 184.690526 180.774504 
L 185.430402 177.242871 
L 185.80034 177.587264 
L 186.170278 174.524535 
L 186.910154 175.902053 
L 187.280093 172.662305 
L 187.650031 174.831441 
L 188.019969 175.443 
L 188.389907 176.335962 
L 188.759845 176.274473 
L 189.499721 174.101191 
L 189.869659 174.811651 
L 190.239598 172.334612 
L 190.609536 172.149096 
L 190.979474 169.706546 
L 191.349412 168.953547 
L 191.71935 165.908167 
L 192.089288 165.77612 
L 192.459226 162.476312 
L 193.199103 165.193774 
L 193.938979 162.067237 
L 194.308917 163.421186 
L 194.678855 160.643171 
L 195.048793 159.30551 
L 195.418731 161.791676 
L 195.788669 161.741424 
L 196.158607 164.206454 
L 196.528546 164.323154 
L 196.898484 159.808951 
L 198.008298 154.121472 
L 198.378236 152.84448 
L 198.748174 152.835903 
L 199.118112 155.794813 
L 199.488051 156.101226 
L 200.227927 159.523705 
L 200.597865 159.786817 
L 200.967803 159.490918 
L 201.337741 162.353475 
L 201.707679 158.773224 
L 202.077617 158.604974 
L 202.447556 164.201092 
L 203.187432 162.308417 
L 203.55737 164.377699 
L 203.927308 167.167079 
L 204.297246 170.945433 
L 204.667184 172.002769 
L 205.037122 173.75065 
L 205.40706 172.60565 
L 205.776999 174.214939 
L 206.146937 173.286396 
L 206.516875 174.675346 
L 206.886813 172.396903 
L 207.256751 171.654579 
L 207.626689 169.783943 
L 207.996627 170.088638 
L 208.366565 169.247153 
L 208.736504 167.843712 
L 209.106442 169.483881 
L 209.47638 169.3036 
L 209.846318 170.398574 
L 210.216256 172.056074 
L 210.586194 177.47607 
L 210.956132 179.309563 
L 211.32607 175.849392 
L 211.696009 179.533299 
L 212.065947 179.917227 
L 212.805823 176.626989 
L 213.175761 177.746403 
L 213.545699 176.438895 
L 213.915637 174.5028 
L 214.285575 173.710642 
L 214.655513 171.370878 
L 215.025452 170.238093 
L 215.39539 168.735401 
L 215.765328 167.725844 
L 216.135266 168.082734 
L 216.505204 166.802867 
L 216.875142 166.288537 
L 217.24508 166.70906 
L 217.615018 162.749388 
L 218.354895 159.410668 
L 218.724833 154.832869 
L 219.094771 156.184387 
L 219.464709 156.888297 
L 219.834647 153.72533 
L 220.204585 155.15813 
L 220.574523 157.684007 
L 220.944462 154.634366 
L 221.3144 155.174784 
L 222.054276 152.497512 
L 222.424214 149.752366 
L 222.794152 145.043821 
L 223.16409 146.068034 
L 223.534028 147.881279 
L 223.903966 148.650138 
L 224.273905 147.92986 
L 224.643843 152.879198 
L 225.013781 150.86042 
L 225.753657 155.196604 
L 226.123595 154.333818 
L 226.493533 155.659313 
L 226.863471 155.938782 
L 227.23341 156.405521 
L 227.603348 154.146263 
L 227.973286 156.925866 
L 228.713162 154.228741 
L 229.0831 147.492401 
L 229.453038 146.107651 
L 229.822976 149.820722 
L 230.192915 147.347989 
L 230.562853 146.185003 
L 231.302729 151.712104 
L 231.672667 153.522775 
L 232.042605 156.870194 
L 232.412543 155.637236 
L 232.782481 155.411691 
L 233.152419 158.276592 
L 233.522358 159.470903 
L 234.262234 164.565284 
L 234.632172 162.558449 
L 235.372048 164.149555 
L 235.741986 163.35841 
L 236.111924 163.332753 
L 236.481863 162.277322 
L 236.851801 164.299499 
L 237.221739 167.759925 
L 237.591677 165.595498 
L 237.961615 165.355772 
L 238.331553 165.930053 
L 238.701491 165.048785 
L 239.071429 164.794076 
L 239.441368 165.761913 
L 239.811306 166.035505 
L 240.181244 165.677246 
L 240.551182 167.98513 
L 240.92112 167.847398 
L 241.291058 167.142393 
L 241.660996 171.630351 
L 242.030934 171.291838 
L 242.400872 169.211778 
L 242.770811 169.269348 
L 243.140749 167.552991 
L 243.880625 173.339409 
L 244.250563 171.069357 
L 244.620501 173.484069 
L 244.990439 169.283013 
L 245.360377 167.20372 
L 245.730316 168.680984 
L 246.100254 173.299597 
L 246.470192 169.781834 
L 246.84013 169.570854 
L 247.210068 172.691975 
L 247.580006 177.863937 
L 247.949944 181.051233 
L 248.319882 178.182319 
L 248.689821 174.263134 
L 249.059759 174.800368 
L 249.799635 170.221886 
L 250.169573 170.951491 
L 250.539511 173.021946 
L 250.909449 173.784598 
L 251.279387 178.081094 
L 251.649325 175.04852 
L 252.019264 174.353849 
L 252.389202 172.897725 
L 252.75914 170.435278 
L 253.129078 171.595126 
L 253.499016 171.260183 
L 253.868954 171.185533 
L 254.238892 170.466103 
L 254.60883 173.777746 
L 254.978769 172.458381 
L 255.348707 170.541315 
L 255.718645 166.342021 
L 256.088583 167.345255 
L 256.458521 166.179699 
L 256.828459 165.979912 
L 257.198397 164.774257 
L 257.568335 162.63087 
L 257.938274 159.014661 
L 258.308212 158.552445 
L 258.67815 160.018329 
L 259.048088 157.486755 
L 259.418026 158.841127 
L 259.787964 163.146582 
L 260.52784 154.214902 
L 260.897778 153.89947 
L 261.267717 153.732918 
L 262.377531 143.202373 
L 262.747469 142.875019 
L 263.117407 142.044922 
L 263.487345 142.89578 
L 263.857283 144.444051 
L 264.227222 143.441444 
L 264.59716 138.285516 
L 264.967098 138.131008 
L 265.337036 142.981467 
L 265.706974 140.884437 
L 266.076912 136.824071 
L 266.816788 138.520167 
L 267.186726 138.662204 
L 267.926603 136.840884 
L 268.296541 135.083949 
L 269.036417 127.475067 
L 269.406355 125.641466 
L 269.776293 121.908717 
L 270.146231 121.463168 
L 270.51617 121.928042 
L 270.886108 125.912624 
L 271.625984 124.960347 
L 271.995922 126.613506 
L 272.36586 125.477026 
L 272.735798 126.627932 
L 273.105736 124.110648 
L 273.475675 124.582704 
L 274.215551 126.622887 
L 274.585489 125.745044 
L 274.955427 128.920062 
L 275.325365 129.695975 
L 275.695303 134.779328 
L 276.065241 136.731185 
L 276.805118 144.275502 
L 277.175056 145.106544 
L 277.544994 146.940378 
L 277.914932 146.002988 
L 278.28487 145.568566 
L 279.024746 153.349071 
L 279.764623 162.481176 
L 280.134561 163.56446 
L 280.504499 167.099698 
L 280.874437 169.384399 
L 281.244375 169.169422 
L 281.614313 171.947873 
L 281.984251 176.119434 
L 282.354189 176.475332 
L 282.724128 174.821225 
L 283.094066 177.847623 
L 283.464004 179.164125 
L 283.833942 178.697879 
L 284.20388 177.067737 
L 284.573818 178.627547 
L 284.943756 176.027679 
L 285.683632 182.21158 
L 286.423509 183.104421 
L 286.793447 186.545365 
L 287.163385 187.897473 
L 287.533323 187.792821 
L 287.903261 188.993303 
L 288.273199 192.411264 
L 288.643137 191.719405 
L 289.013076 191.324313 
L 289.383014 191.465077 
L 289.752952 190.68186 
L 290.12289 192.618735 
L 290.492828 192.648319 
L 290.862766 193.492243 
L 291.602642 193.077852 
L 291.972581 196.256385 
L 292.342519 195.36944 
L 292.712457 199.537116 
L 293.082395 200.87034 
L 293.452333 198.199944 
L 293.822271 201.923585 
L 294.562147 203.967816 
L 294.932085 200.126264 
L 295.302024 198.402779 
L 295.671962 201.899747 
L 296.0419 201.139557 
L 296.411838 201.132797 
L 296.781776 200.513804 
L 297.151714 198.654845 
L 297.89159 192.070467 
L 298.261529 187.639082 
L 298.631467 187.316901 
L 299.001405 184.563446 
L 299.371343 180.825787 
L 299.741281 181.22706 
L 300.481157 177.093113 
L 301.221034 181.066622 
L 301.590972 180.557992 
L 301.96091 180.396389 
L 302.330848 178.718353 
L 302.700786 181.810718 
L 303.070724 180.611164 
L 303.440662 181.421839 
L 303.8106 179.208222 
L 304.180538 175.770914 
L 304.920415 184.002374 
L 305.290353 182.739872 
L 305.660291 180.817253 
L 306.030229 182.768698 
L 306.400167 181.656014 
L 306.770105 183.650647 
L 307.140043 183.348554 
L 307.509982 183.564424 
L 307.87992 179.356652 
L 308.249858 180.723651 
L 308.619796 183.287497 
L 308.989734 183.552808 
L 309.359672 185.10095 
L 310.099548 184.720192 
L 310.469487 180.81778 
L 310.839425 181.770348 
L 311.209363 181.308998 
L 311.579301 179.698828 
L 311.949239 182.712097 
L 312.319177 179.407247 
L 312.689115 173.816252 
L 313.059053 171.293768 
L 313.428991 174.801235 
L 313.79893 173.449724 
L 314.538806 169.292138 
L 314.908744 169.242042 
L 315.278682 169.65815 
L 315.64862 167.088811 
L 316.018558 166.811751 
L 316.388496 166.246504 
L 316.758435 165.476956 
L 317.128373 163.535771 
L 317.498311 162.683264 
L 317.868249 163.733395 
L 318.238187 163.818287 
L 318.608125 162.557733 
L 318.978063 159.747836 
L 319.348001 156.035563 
L 319.71794 155.24832 
L 320.087878 152.695422 
L 320.457816 152.442054 
L 320.827754 149.561033 
L 321.197692 150.279153 
L 321.56763 150.171636 
L 321.937568 149.525584 
L 322.307506 151.488966 
L 322.677444 156.292889 
L 323.047383 154.667061 
L 323.787259 147.336925 
L 324.157197 150.430574 
L 324.527135 146.188748 
L 324.897073 146.601601 
L 325.267011 141.900495 
L 325.636949 142.616454 
L 326.006888 141.276167 
L 326.746764 139.597761 
L 327.116702 136.975062 
L 327.48664 135.250137 
L 327.856578 136.201235 
L 328.596454 136.086423 
L 328.966393 136.885091 
L 329.706269 134.338684 
L 330.076207 134.936966 
L 330.446145 135.065955 
L 330.816083 134.154392 
L 331.186021 134.961722 
L 331.555959 136.640827 
L 331.925897 132.483049 
L 332.295836 132.146476 
L 332.665774 130.408342 
L 333.035712 132.559673 
L 333.40565 135.601692 
L 333.775588 135.384509 
L 334.515464 134.501406 
L 334.885402 134.424244 
L 335.255341 136.15157 
L 335.625279 139.95939 
L 335.995217 140.095661 
L 336.365155 142.009204 
L 336.735093 141.702082 
L 337.105031 143.584985 
L 337.474969 146.156531 
L 337.844907 147.306197 
L 338.584784 151.510019 
L 338.954722 152.711891 
L 339.32466 152.238976 
L 339.694598 149.059553 
L 340.064536 151.704487 
L 340.434474 152.185666 
L 340.804412 152.161523 
L 341.17435 149.24803 
L 341.544289 147.326704 
L 342.284165 149.836293 
L 342.654103 147.501296 
L 343.393979 148.641245 
L 343.763917 147.943682 
L 344.133855 152.63118 
L 344.503794 153.654155 
L 345.24367 158.626303 
L 345.613608 159.773275 
L 345.983546 159.274191 
L 346.353484 155.739098 
L 346.723422 154.206779 
L 347.09336 153.777856 
L 347.833237 163.15957 
L 348.203175 159.920285 
L 348.573113 158.970053 
L 348.943051 155.240291 
L 349.312989 158.670133 
L 349.682927 158.563246 
L 350.052865 158.684068 
L 350.792742 167.432808 
L 351.16268 169.972522 
L 351.532618 169.679965 
L 352.272494 163.22447 
L 352.642432 167.465685 
L 353.01237 167.383201 
L 353.382308 167.725758 
L 353.752247 166.207001 
L 354.122185 167.327347 
L 354.492123 166.679455 
L 355.231999 168.988141 
L 355.601937 168.341043 
L 355.971875 169.814681 
L 356.341813 173.353844 
L 357.08169 171.746585 
L 357.451628 171.349126 
L 357.821566 174.347686 
L 358.191504 175.128941 
L 358.561442 176.44229 
L 358.93138 178.587117 
L 359.301318 175.833005 
L 360.041195 182.357085 
L 360.411133 184.598091 
L 360.781071 184.173556 
L 361.151009 184.451139 
L 362.260823 196.861109 
L 362.630761 192.627281 
L 363.0007 192.038973 
L 363.370638 190.396015 
L 363.740576 187.651896 
L 364.110514 187.739641 
L 364.480452 188.543133 
L 364.85039 190.904291 
L 365.220328 192.356796 
L 365.590266 198.448348 
L 365.960205 196.733198 
L 366.330143 196.98971 
L 366.700081 201.112659 
L 367.070019 203.585794 
L 367.439957 207.844557 
L 367.809895 208.989312 
L 368.179833 208.926947 
L 368.549771 211.632009 
L 368.919709 211.780551 
L 369.289648 211.462061 
L 369.659586 207.814019 
L 370.029524 205.688295 
L 370.399462 206.153749 
L 370.7694 208.919816 
L 371.139338 208.604971 
L 371.509276 210.172893 
L 371.879214 214.210615 
L 372.249153 215.684314 
L 372.619091 215.441654 
L 372.989029 219.208767 
L 373.358967 216.332434 
L 373.728905 215.568056 
L 374.098843 218.590087 
L 374.468781 219.124647 
L 374.838719 220.11838 
L 375.578596 217.432371 
L 375.948534 217.306364 
L 376.318472 214.840169 
L 377.058348 218.434511 
L 377.428286 216.115796 
L 377.798224 215.062655 
L 378.168162 214.459909 
L 378.538101 210.253059 
L 378.908039 212.199938 
L 379.277977 215.968339 
L 379.647915 218.426357 
L 380.017853 218.432467 
L 380.387791 213.809382 
L 380.757729 213.633133 
L 381.127667 217.664754 
L 381.497606 220.380245 
L 381.867544 218.774708 
L 382.237482 223.053872 
L 382.60742 222.937523 
L 382.977358 226.185454 
L 383.347296 224.00507 
L 383.717234 227.733109 
L 384.087172 225.720452 
L 384.827049 217.642319 
L 385.196987 213.36284 
L 385.566925 211.358686 
L 385.936863 206.724836 
L 386.306801 204.846525 
L 386.676739 208.404349 
L 387.046677 206.915428 
L 387.416615 204.093411 
L 387.786554 203.209871 
L 388.52643 212.783362 
L 388.896368 215.348467 
L 389.636244 208.128997 
L 390.006182 212.095805 
L 390.37612 207.868065 
L 390.746059 209.895777 
L 391.115997 209.435954 
L 391.485935 209.733934 
L 391.855873 208.430173 
L 392.225811 210.770477 
L 392.595749 212.07486 
L 392.965687 211.332893 
L 393.335625 207.007084 
L 393.705564 207.219632 
L 394.075502 207.809687 
L 394.44544 206.861918 
L 394.815378 210.127392 
L 395.555254 204.167704 
L 395.925192 205.570037 
L 396.29513 205.373912 
L 396.665068 201.015929 
L 397.035007 201.959125 
L 397.404945 200.536619 
L 397.774883 200.558233 
L 398.144821 196.684759 
L 398.514759 197.065549 
L 398.884697 199.079298 
L 399.254635 198.282661 
L 399.624573 194.864456 
L 399.994512 195.905269 
L 400.36445 200.574469 
L 400.734388 199.156234 
L 401.104326 195.844193 
L 401.474264 195.657905 
L 401.844202 201.658461 
L 402.21414 200.781722 
L 402.954017 200.71294 
L 403.323955 205.83521 
L 403.693893 207.55769 
L 404.063831 212.159931 
L 404.433769 218.258979 
L 404.803707 220.225186 
L 405.173645 216.86903 
L 405.543583 212.284644 
L 405.913521 211.956565 
L 406.28346 210.726357 
L 406.653398 204.711694 
L 407.023336 204.885627 
L 407.393274 204.271798 
L 407.763212 206.285878 
L 408.13315 210.191271 
L 408.503088 208.59308 
L 408.873026 212.232548 
L 409.242965 211.905432 
L 409.612903 208.512017 
L 409.982841 207.778459 
L 410.352779 212.757474 
L 411.092655 215.683475 
L 411.462593 212.196506 
L 413.682222 232.828061 
L 414.05216 233.66712 
L 414.422098 233.539492 
L 414.792036 233.976952 
L 415.161974 237.202703 
L 415.531913 242.195851 
L 416.271789 243.075858 
L 416.641727 246.839871 
L 417.011665 245.370525 
L 417.751541 248.012413 
L 418.121479 251.413051 
L 418.491418 249.9289 
L 418.861356 249.831435 
L 419.231294 248.308593 
L 419.601232 249.73991 
L 419.97117 254.017589 
L 420.341108 252.651723 
L 420.711046 248.374537 
L 421.450923 250.180978 
L 422.190799 246.719552 
L 422.560737 249.878384 
L 422.930675 243.99787 
L 423.300613 242.790329 
L 423.670551 244.349531 
L 424.040489 248.8235 
L 424.410427 247.042379 
L 424.780366 244.296096 
L 425.150304 244.80765 
L 425.520242 244.397506 
L 425.89018 247.321811 
L 426.260118 252.204393 
L 426.630056 251.328309 
L 426.999994 252.657085 
L 427.369932 248.802122 
L 428.109809 255.907387 
L 428.479747 256.975402 
L 428.849685 252.633188 
L 429.219623 251.941182 
L 429.219623 251.941182 
" clip-path="url(#p2643f195a4)" style="fill: none; stroke: #000080; stroke-width: 1.5; stroke-linecap: square"/>
   </g>
   <g id="line2d_18">
    <path d="M 59.3 90.65 
L 465.825 90.65 
" clip-path="url(#p2643f195a4)" style="fill: none; stroke-dasharray: 5.55,2.4; stroke-dashoffset: 0; stroke: #008000; stroke-width: 1.5"/>
   </g>
   <g id="patch_3">
    <path d="M 59.3 318.2 
L 59.3 14.8 
" style="fill: none; stroke: #000000; stroke-width: 0.8; stroke-linejoin: miter; stroke-linecap: square"/>
   </g>
   <g id="patch_4">
    <path d="M 465.825 318.2 
L 465.825 14.8 
" style="fill: none; stroke: #000000; stroke-width: 0.8; stroke-linejoin: miter; stroke-linecap: square"/>
   </g>
   <g id="patch_5">
    <path d="M 59.3 318.2 
L 465.825 318.2 
" style="fill: none; stroke: #000000; stroke-width: 0.8; stroke-linejoin: miter; stroke-linecap: square"/>
   </g>
   <g id="patch_6">
    <path d="M 59.3 14.8 
L 465.825 14.8 
" style="fill: none; stroke: #000000; stroke-width: 0.8; stroke-linejoin: miter; stroke-linecap: square"/>
   </g>
   <g id="legend_1">
    <g id="patch_7">
     <path d="M 66.3 66.834375 
L 226.61875 66.834375 
Q 228.61875 66.834375 228.61875 64.834375 
L 228.61875 21.8 
Q 228.61875 19.8 226.61875 19.8 
L 66.3 19.8 
Q 64.3 19.8 64.3 21.8 
L 64.3 64.834375 
Q 64.3 66.834375 66.3 66.834375 
z
" style="fill: #ffffff; opacity: 0.8; stroke: #cccccc; stroke-linejoin: miter"/>
    </g>
    <g id="line2d_19">
     <path d="M 68.3 27.898438 
L 78.3 27.898438 
L 88.3 27.898438 
" style="fill: none; stroke: #708090; stroke-width: 1.5; stroke-linecap: square"/>
    </g>
    <g id="text_18">
     <!-- Episodes score -->
     <g transform="translate(96.3 31.398438)scale(0.1 -0.1)">
      <defs>
       <path id="DejaVuSans-20" transform="scale(0.015625)"/>
      </defs>
      <use xlink:href="#DejaVuSans-45"/>
      <use xlink:href="#DejaVuSans-70" x="63.183594"/>
      <use xlink:href="#DejaVuSans-69" x="126.660156"/>
      <use xlink:href="#DejaVuSans-73" x="154.443359"/>
      <use xlink:href="#DejaVuSans-6f" x="206.542969"/>
      <use xlink:href="#DejaVuSans-64" x="267.724609"/>
      <use xlink:href="#DejaVuSans-65" x="331.201172"/>
      <use xlink:href="#DejaVuSans-73" x="392.724609"/>
      <use xlink:href="#DejaVuSans-20" x="444.824219"/>
      <use xlink:href="#DejaVuSans-73" x="476.611328"/>
      <use xlink:href="#DejaVuSans-63" x="528.710938"/>
      <use xlink:href="#DejaVuSans-6f" x="583.691406"/>
      <use xlink:href="#DejaVuSans-72" x="644.873047"/>
      <use xlink:href="#DejaVuSans-65" x="683.736328"/>
     </g>
    </g>
    <g id="line2d_20">
     <path d="M 68.3 42.576563 
L 78.3 42.576563 
L 88.3 42.576563 
" style="fill: none; stroke: #000080; stroke-width: 1.5; stroke-linecap: square"/>
    </g>
    <g id="text_19">
     <!-- Moving average of scores -->
     <g transform="translate(96.3 46.076563)scale(0.1 -0.1)">
      <defs>
       <path id="DejaVuSans-4d" d="M 628 4666 
L 1569 4666 
L 2759 1491 
L 3956 4666 
L 4897 4666 
L 4897 0 
L 4281 0 
L 4281 4097 
L 3078 897 
L 2444 897 
L 1241 4097 
L 1241 0 
L 628 0 
L 628 4666 
z
" transform="scale(0.015625)"/>
       <path id="DejaVuSans-76" d="M 191 3500 
L 800 3500 
L 1894 563 
L 2988 3500 
L 3597 3500 
L 2284 0 
L 1503 0 
L 191 3500 
z
" transform="scale(0.015625)"/>
       <path id="DejaVuSans-6e" d="M 3513 2113 
L 3513 0 
L 2938 0 
L 2938 2094 
Q 2938 2591 2744 2837 
Q 2550 3084 2163 3084 
Q 1697 3084 1428 2787 
Q 1159 2491 1159 1978 
L 1159 0 
L 581 0 
L 581 3500 
L 1159 3500 
L 1159 2956 
Q 1366 3272 1645 3428 
Q 1925 3584 2291 3584 
Q 2894 3584 3203 3211 
Q 3513 2838 3513 2113 
z
" transform="scale(0.015625)"/>
       <path id="DejaVuSans-67" d="M 2906 1791 
Q 2906 2416 2648 2759 
Q 2391 3103 1925 3103 
Q 1463 3103 1205 2759 
Q 947 2416 947 1791 
Q 947 1169 1205 825 
Q 1463 481 1925 481 
Q 2391 481 2648 825 
Q 2906 1169 2906 1791 
z
M 3481 434 
Q 3481 -459 3084 -895 
Q 2688 -1331 1869 -1331 
Q 1566 -1331 1297 -1286 
Q 1028 -1241 775 -1147 
L 775 -588 
Q 1028 -725 1275 -790 
Q 1522 -856 1778 -856 
Q 2344 -856 2625 -561 
Q 2906 -266 2906 331 
L 2906 616 
Q 2728 306 2450 153 
Q 2172 0 1784 0 
Q 1141 0 747 490 
Q 353 981 353 1791 
Q 353 2603 747 3093 
Q 1141 3584 1784 3584 
Q 2172 3584 2450 3431 
Q 2728 3278 2906 2969 
L 2906 3500 
L 3481 3500 
L 3481 434 
z
" transform="scale(0.015625)"/>
       <path id="DejaVuSans-61" d="M 2194 1759 
Q 1497 1759 1228 1600 
Q 959 1441 959 1056 
Q 959 750 1161 570 
Q 1363 391 1709 391 
Q 2188 391 2477 730 
Q 2766 1069 2766 1631 
L 2766 1759 
L 2194 1759 
z
M 3341 1997 
L 3341 0 
L 2766 0 
L 2766 531 
Q 2569 213 2275 61 
Q 1981 -91 1556 -91 
Q 1019 -91 701 211 
Q 384 513 384 1019 
Q 384 1609 779 1909 
Q 1175 2209 1959 2209 
L 2766 2209 
L 2766 2266 
Q 2766 2663 2505 2880 
Q 2244 3097 1772 3097 
Q 1472 3097 1187 3025 
Q 903 2953 641 2809 
L 641 3341 
Q 956 3463 1253 3523 
Q 1550 3584 1831 3584 
Q 2591 3584 2966 3190 
Q 3341 2797 3341 1997 
z
" transform="scale(0.015625)"/>
       <path id="DejaVuSans-66" d="M 2375 4863 
L 2375 4384 
L 1825 4384 
Q 1516 4384 1395 4259 
Q 1275 4134 1275 3809 
L 1275 3500 
L 2222 3500 
L 2222 3053 
L 1275 3053 
L 1275 0 
L 697 0 
L 697 3053 
L 147 3053 
L 147 3500 
L 697 3500 
L 697 3744 
Q 697 4328 969 4595 
Q 1241 4863 1831 4863 
L 2375 4863 
z
" transform="scale(0.015625)"/>
      </defs>
      <use xlink:href="#DejaVuSans-4d"/>
      <use xlink:href="#DejaVuSans-6f" x="86.279297"/>
      <use xlink:href="#DejaVuSans-76" x="147.460938"/>
      <use xlink:href="#DejaVuSans-69" x="206.640625"/>
      <use xlink:href="#DejaVuSans-6e" x="234.423828"/>
      <use xlink:href="#DejaVuSans-67" x="297.802734"/>
      <use xlink:href="#DejaVuSans-20" x="361.279297"/>
      <use xlink:href="#DejaVuSans-61" x="393.066406"/>
      <use xlink:href="#DejaVuSans-76" x="454.345703"/>
      <use xlink:href="#DejaVuSans-65" x="513.525391"/>
      <use xlink:href="#DejaVuSans-72" x="575.048828"/>
      <use xlink:href="#DejaVuSans-61" x="616.162109"/>
      <use xlink:href="#DejaVuSans-67" x="677.441406"/>
      <use xlink:href="#DejaVuSans-65" x="740.917969"/>
      <use xlink:href="#DejaVuSans-20" x="802.441406"/>
      <use xlink:href="#DejaVuSans-6f" x="834.228516"/>
      <use xlink:href="#DejaVuSans-66" x="895.410156"/>
      <use xlink:href="#DejaVuSans-20" x="930.615234"/>
      <use xlink:href="#DejaVuSans-73" x="962.402344"/>
      <use xlink:href="#DejaVuSans-63" x="1014.501953"/>
      <use xlink:href="#DejaVuSans-6f" x="1069.482422"/>
      <use xlink:href="#DejaVuSans-72" x="1130.664062"/>
      <use xlink:href="#DejaVuSans-65" x="1169.527344"/>
      <use xlink:href="#DejaVuSans-73" x="1231.050781"/>
     </g>
    </g>
    <g id="line2d_21">
     <path d="M 68.3 57.254687 
L 78.3 57.254687 
L 88.3 57.254687 
" style="fill: none; stroke-dasharray: 5.55,2.4; stroke-dashoffset: 0; stroke: #008000; stroke-width: 1.5"/>
    </g>
    <g id="text_20">
     <!-- Game Solved -->
     <g transform="translate(96.3 60.754687)scale(0.1 -0.1)">
      <defs>
       <path id="DejaVuSans-47" d="M 3809 666 
L 3809 1919 
L 2778 1919 
L 2778 2438 
L 4434 2438 
L 4434 434 
Q 4069 175 3628 42 
Q 3188 -91 2688 -91 
Q 1594 -91 976 548 
Q 359 1188 359 2328 
Q 359 3472 976 4111 
Q 1594 4750 2688 4750 
Q 3144 4750 3555 4637 
Q 3966 4525 4313 4306 
L 4313 3634 
Q 3963 3931 3569 4081 
Q 3175 4231 2741 4231 
Q 1884 4231 1454 3753 
Q 1025 3275 1025 2328 
Q 1025 1384 1454 906 
Q 1884 428 2741 428 
Q 3075 428 3337 486 
Q 3600 544 3809 666 
z
" transform="scale(0.015625)"/>
       <path id="DejaVuSans-6d" d="M 3328 2828 
Q 3544 3216 3844 3400 
Q 4144 3584 4550 3584 
Q 5097 3584 5394 3201 
Q 5691 2819 5691 2113 
L 5691 0 
L 5113 0 
L 5113 2094 
Q 5113 2597 4934 2840 
Q 4756 3084 4391 3084 
Q 3944 3084 3684 2787 
Q 3425 2491 3425 1978 
L 3425 0 
L 2847 0 
L 2847 2094 
Q 2847 2600 2669 2842 
Q 2491 3084 2119 3084 
Q 1678 3084 1418 2786 
Q 1159 2488 1159 1978 
L 1159 0 
L 581 0 
L 581 3500 
L 1159 3500 
L 1159 2956 
Q 1356 3278 1631 3431 
Q 1906 3584 2284 3584 
Q 2666 3584 2933 3390 
Q 3200 3197 3328 2828 
z
" transform="scale(0.015625)"/>
       <path id="DejaVuSans-6c" d="M 603 4863 
L 1178 4863 
L 1178 0 
L 603 0 
L 603 4863 
z
" transform="scale(0.015625)"/>
      </defs>
      <use xlink:href="#DejaVuSans-47"/>
      <use xlink:href="#DejaVuSans-61" x="77.490234"/>
      <use xlink:href="#DejaVuSans-6d" x="138.769531"/>
      <use xlink:href="#DejaVuSans-65" x="236.181641"/>
      <use xlink:href="#DejaVuSans-20" x="297.705078"/>
      <use xlink:href="#DejaVuSans-53" x="329.492188"/>
      <use xlink:href="#DejaVuSans-6f" x="392.96875"/>
      <use xlink:href="#DejaVuSans-6c" x="454.150391"/>
      <use xlink:href="#DejaVuSans-76" x="481.933594"/>
      <use xlink:href="#DejaVuSans-65" x="541.113281"/>
      <use xlink:href="#DejaVuSans-64" x="602.636719"/>
     </g>
    </g>
   </g>
  </g>
  <g id="axes_2">
   <g id="matplotlib.axis_3">
    <g id="ytick_10">
     <g id="line2d_22">
      <defs>
       <path id="m7a56f4abcf" d="M 0 0 
L 3.5 0 
" style="stroke: #000000; stroke-width: 0.8"/>
      </defs>
      <g>
       <use xlink:href="#m7a56f4abcf" x="465.825" y="304.426916" style="stroke: #000000; stroke-width: 0.8"/>
      </g>
     </g>
     <g id="text_21">
      <!-- 0 -->
      <g transform="translate(472.825 308.226134)scale(0.1 -0.1)">
       <use xlink:href="#DejaVuSans-30"/>
      </g>
     </g>
    </g>
    <g id="ytick_11">
     <g id="line2d_23">
      <g>
       <use xlink:href="#m7a56f4abcf" x="465.825" y="249.259714" style="stroke: #000000; stroke-width: 0.8"/>
      </g>
     </g>
     <g id="text_22">
      <!-- 1 -->
      <g transform="translate(472.825 253.058933)scale(0.1 -0.1)">
       <use xlink:href="#DejaVuSans-31"/>
      </g>
     </g>
    </g>
    <g id="ytick_12">
     <g id="line2d_24">
      <g>
       <use xlink:href="#m7a56f4abcf" x="465.825" y="194.092513" style="stroke: #000000; stroke-width: 0.8"/>
      </g>
     </g>
     <g id="text_23">
      <!-- 2 -->
      <g transform="translate(472.825 197.891732)scale(0.1 -0.1)">
       <use xlink:href="#DejaVuSans-32"/>
      </g>
     </g>
    </g>
    <g id="ytick_13">
     <g id="line2d_25">
      <g>
       <use xlink:href="#m7a56f4abcf" x="465.825" y="138.925312" style="stroke: #000000; stroke-width: 0.8"/>
      </g>
     </g>
     <g id="text_24">
      <!-- 3 -->
      <g transform="translate(472.825 142.72453)scale(0.1 -0.1)">
       <use xlink:href="#DejaVuSans-33"/>
      </g>
     </g>
    </g>
    <g id="ytick_14">
     <g id="line2d_26">
      <g>
       <use xlink:href="#m7a56f4abcf" x="465.825" y="83.75811" style="stroke: #000000; stroke-width: 0.8"/>
      </g>
     </g>
     <g id="text_25">
      <!-- 4 -->
      <g transform="translate(472.825 87.557329)scale(0.1 -0.1)">
       <use xlink:href="#DejaVuSans-34"/>
      </g>
     </g>
    </g>
    <g id="ytick_15">
     <g id="line2d_27">
      <g>
       <use xlink:href="#m7a56f4abcf" x="465.825" y="28.590909" style="stroke: #000000; stroke-width: 0.8"/>
      </g>
     </g>
     <g id="text_26">
      <!-- 5 -->
      <g transform="translate(472.825 32.390128)scale(0.1 -0.1)">
       <use xlink:href="#DejaVuSans-35"/>
      </g>
     </g>
    </g>
    <g id="text_27">
     <!-- Temperature -->
     <g transform="translate(490.785937 198.169531)rotate(-90)scale(0.1 -0.1)">
      <defs>
       <path id="DejaVuSans-54" d="M -19 4666 
L 3928 4666 
L 3928 4134 
L 2272 4134 
L 2272 0 
L 1638 0 
L 1638 4134 
L -19 4134 
L -19 4666 
z
" transform="scale(0.015625)"/>
       <path id="DejaVuSans-74" d="M 1172 4494 
L 1172 3500 
L 2356 3500 
L 2356 3053 
L 1172 3053 
L 1172 1153 
Q 1172 725 1289 603 
Q 1406 481 1766 481 
L 2356 481 
L 2356 0 
L 1766 0 
Q 1100 0 847 248 
Q 594 497 594 1153 
L 594 3053 
L 172 3053 
L 172 3500 
L 594 3500 
L 594 4494 
L 1172 4494 
z
" transform="scale(0.015625)"/>
       <path id="DejaVuSans-75" d="M 544 1381 
L 544 3500 
L 1119 3500 
L 1119 1403 
Q 1119 906 1312 657 
Q 1506 409 1894 409 
Q 2359 409 2629 706 
Q 2900 1003 2900 1516 
L 2900 3500 
L 3475 3500 
L 3475 0 
L 2900 0 
L 2900 538 
Q 2691 219 2414 64 
Q 2138 -91 1772 -91 
Q 1169 -91 856 284 
Q 544 659 544 1381 
z
M 1991 3584 
L 1991 3584 
z
" transform="scale(0.015625)"/>
      </defs>
      <use xlink:href="#DejaVuSans-54"/>
      <use xlink:href="#DejaVuSans-65" x="44.083984"/>
      <use xlink:href="#DejaVuSans-6d" x="105.607422"/>
      <use xlink:href="#DejaVuSans-70" x="203.019531"/>
      <use xlink:href="#DejaVuSans-65" x="266.496094"/>
      <use xlink:href="#DejaVuSans-72" x="328.019531"/>
      <use xlink:href="#DejaVuSans-61" x="369.132812"/>
      <use xlink:href="#DejaVuSans-74" x="430.412109"/>
      <use xlink:href="#DejaVuSans-75" x="469.621094"/>
      <use xlink:href="#DejaVuSans-72" x="533"/>
      <use xlink:href="#DejaVuSans-65" x="571.863281"/>
     </g>
    </g>
   </g>
   <g id="line2d_28">
    <path d="M 77.778409 28.590909 
L 80.737914 49.097767 
L 83.697419 68.080056 
L 86.656924 85.651118 
L 89.616429 101.91587 
L 92.575934 116.971429 
L 95.535439 130.907692 
L 98.494944 143.807872 
L 101.454449 155.748996 
L 104.413954 166.802365 
L 107.373459 177.033977 
L 110.332964 186.504927 
L 113.292469 195.271765 
L 116.251974 203.386837 
L 119.211479 210.8986 
L 122.170983 217.851905 
L 125.130488 224.288271 
L 128.089993 230.246129 
L 131.419436 236.420944 
L 134.74888 242.081766 
L 138.078323 247.271381 
L 141.407766 252.029012 
L 144.737209 256.390618 
L 148.066652 260.389163 
L 151.396095 264.054869 
L 154.725538 267.415441 
L 158.424919 270.822357 
L 162.1243 273.915666 
L 165.823682 276.724235 
L 169.893001 279.515996 
L 173.96232 282.026414 
L 178.03164 284.283843 
L 182.470897 286.487847 
L 186.910154 288.450695 
L 191.71935 290.335508 
L 196.898484 292.117402 
L 202.447556 293.777308 
L 208.366565 295.301924 
L 214.655513 296.683411 
L 221.3144 297.918897 
L 228.713162 299.061883 
L 236.851801 300.088728 
L 246.100254 301.019204 
L 256.458521 301.826541 
L 268.296541 302.517794 
L 282.354189 303.104194 
L 299.371343 303.578609 
L 320.827754 303.942396 
L 350.052865 304.200972 
L 395.555254 304.358025 
L 447.346591 304.409091 
L 447.346591 304.409091 
" clip-path="url(#p2643f195a4)" style="fill: none; stroke: #ff0000; stroke-width: 1.5; stroke-linecap: square"/>
   </g>
   <g id="patch_8">
    <path d="M 59.3 318.2 
L 59.3 14.8 
" style="fill: none; stroke: #000000; stroke-width: 0.8; stroke-linejoin: miter; stroke-linecap: square"/>
   </g>
   <g id="patch_9">
    <path d="M 465.825 318.2 
L 465.825 14.8 
" style="fill: none; stroke: #000000; stroke-width: 0.8; stroke-linejoin: miter; stroke-linecap: square"/>
   </g>
   <g id="patch_10">
    <path d="M 59.3 318.2 
L 465.825 318.2 
" style="fill: none; stroke: #000000; stroke-width: 0.8; stroke-linejoin: miter; stroke-linecap: square"/>
   </g>
   <g id="patch_11">
    <path d="M 59.3 14.8 
L 465.825 14.8 
" style="fill: none; stroke: #000000; stroke-width: 0.8; stroke-linejoin: miter; stroke-linecap: square"/>
   </g>
   <g id="legend_2">
    <g id="patch_12">
     <path d="M 214.892969 37.478125 
L 310.232031 37.478125 
Q 312.232031 37.478125 312.232031 35.478125 
L 312.232031 21.8 
Q 312.232031 19.8 310.232031 19.8 
L 214.892969 19.8 
Q 212.892969 19.8 212.892969 21.8 
L 212.892969 35.478125 
Q 212.892969 37.478125 214.892969 37.478125 
z
" style="fill: #ffffff; opacity: 0.8; stroke: #cccccc; stroke-linejoin: miter"/>
    </g>
    <g id="line2d_29">
     <path d="M 216.892969 27.898438 
L 226.892969 27.898438 
L 236.892969 27.898438 
" style="fill: none; stroke: #ff0000; stroke-width: 1.5; stroke-linecap: square"/>
    </g>
    <g id="text_28">
     <!-- Temperature -->
     <g transform="translate(244.892969 31.398438)scale(0.1 -0.1)">
      <use xlink:href="#DejaVuSans-54"/>
      <use xlink:href="#DejaVuSans-65" x="44.083984"/>
      <use xlink:href="#DejaVuSans-6d" x="105.607422"/>
      <use xlink:href="#DejaVuSans-70" x="203.019531"/>
      <use xlink:href="#DejaVuSans-65" x="266.496094"/>
      <use xlink:href="#DejaVuSans-72" x="328.019531"/>
      <use xlink:href="#DejaVuSans-61" x="369.132812"/>
      <use xlink:href="#DejaVuSans-74" x="430.412109"/>
      <use xlink:href="#DejaVuSans-75" x="469.621094"/>
      <use xlink:href="#DejaVuSans-72" x="533"/>
      <use xlink:href="#DejaVuSans-65" x="571.863281"/>
     </g>
    </g>
   </g>
  </g>
 </g>
 <defs>
  <clipPath id="p2643f195a4">
   <rect x="59.3" y="14.8" width="406.525" height="303.4"/>
  </clipPath>
 </defs>
</svg>
