<?xml version="1.0" encoding="utf-8" standalone="no"?>
<!DOCTYPE svg PUBLIC "-//W3C//DTD SVG 1.1//EN"
  "http://www.w3.org/Graphics/SVG/1.1/DTD/svg11.dtd">
<svg xmlns:xlink="http://www.w3.org/1999/xlink" width="504pt" height="360pt" viewBox="0 0 504 360" xmlns="http://www.w3.org/2000/svg" version="1.1">
 <metadata>
  <rdf:RDF xmlns:dc="http://purl.org/dc/elements/1.1/" xmlns:cc="http://creativecommons.org/ns#" xmlns:rdf="http://www.w3.org/1999/02/22-rdf-syntax-ns#">
   <cc:Work>
    <dc:type rdf:resource="http://purl.org/dc/dcmitype/StillImage"/>
    <dc:date>2022-07-28T17:32:06.168570</dc:date>
    <dc:format>image/svg+xml</dc:format>
    <dc:creator>
     <cc:Agent>
      <dc:title>Matplotlib v3.5.1, https://matplotlib.org/</dc:title>
     </cc:Agent>
    </dc:creator>
   </cc:Work>
  </rdf:RDF>
 </metadata>
 <defs>
  <style type="text/css">*{stroke-linejoin: round; stroke-linecap: butt}</style>
 </defs>
 <g id="figure_1">
  <g id="patch_1">
   <path d="M 0 360 
L 504 360 
L 504 0 
L 0 0 
L 0 360 
z
" style="fill: none"/>
  </g>
  <g id="axes_1">
   <g id="patch_2">
    <path d="M 55.925 313.2 
L 451.2 313.2 
L 451.2 10.8 
L 55.925 10.8 
z
" style="fill: #ffffff"/>
   </g>
   <g id="matplotlib.axis_1">
    <g id="xtick_1">
     <g id="line2d_1">
      <defs>
       <path id="m8a5900daa3" d="M 0 0 
L 0 3.5 
" style="stroke: #000000; stroke-width: 0.8"/>
      </defs>
      <g>
       <use xlink:href="#m8a5900daa3" x="73.892045" y="313.2" style="stroke: #000000; stroke-width: 0.8"/>
      </g>
     </g>
     <g id="text_1">
      <!-- 0 -->
      <g transform="translate(70.710795 327.798437)scale(0.1 -0.1)">
       <defs>
        <path id="DejaVuSans-30" d="M 2034 4250 
Q 1547 4250 1301 3770 
Q 1056 3291 1056 2328 
Q 1056 1369 1301 889 
Q 1547 409 2034 409 
Q 2525 409 2770 889 
Q 3016 1369 3016 2328 
Q 3016 3291 2770 3770 
Q 2525 4250 2034 4250 
z
M 2034 4750 
Q 2819 4750 3233 4129 
Q 3647 3509 3647 2328 
Q 3647 1150 3233 529 
Q 2819 -91 2034 -91 
Q 1250 -91 836 529 
Q 422 1150 422 2328 
Q 422 3509 836 4129 
Q 1250 4750 2034 4750 
z
" transform="scale(0.015625)"/>
       </defs>
       <use xlink:href="#DejaVuSans-30"/>
      </g>
     </g>
    </g>
    <g id="xtick_2">
     <g id="line2d_2">
      <g>
       <use xlink:href="#m8a5900daa3" x="118.922235" y="313.2" style="stroke: #000000; stroke-width: 0.8"/>
      </g>
     </g>
     <g id="text_2">
      <!-- 50 -->
      <g transform="translate(112.559735 327.798437)scale(0.1 -0.1)">
       <defs>
        <path id="DejaVuSans-35" d="M 691 4666 
L 3169 4666 
L 3169 4134 
L 1269 4134 
L 1269 2991 
Q 1406 3038 1543 3061 
Q 1681 3084 1819 3084 
Q 2600 3084 3056 2656 
Q 3513 2228 3513 1497 
Q 3513 744 3044 326 
Q 2575 -91 1722 -91 
Q 1428 -91 1123 -41 
Q 819 9 494 109 
L 494 744 
Q 775 591 1075 516 
Q 1375 441 1709 441 
Q 2250 441 2565 725 
Q 2881 1009 2881 1497 
Q 2881 1984 2565 2268 
Q 2250 2553 1709 2553 
Q 1456 2553 1204 2497 
Q 953 2441 691 2322 
L 691 4666 
z
" transform="scale(0.015625)"/>
       </defs>
       <use xlink:href="#DejaVuSans-35"/>
       <use xlink:href="#DejaVuSans-30" x="63.623047"/>
      </g>
     </g>
    </g>
    <g id="xtick_3">
     <g id="line2d_3">
      <g>
       <use xlink:href="#m8a5900daa3" x="163.952424" y="313.2" style="stroke: #000000; stroke-width: 0.8"/>
      </g>
     </g>
     <g id="text_3">
      <!-- 100 -->
      <g transform="translate(154.408674 327.798437)scale(0.1 -0.1)">
       <defs>
        <path id="DejaVuSans-31" d="M 794 531 
L 1825 531 
L 1825 4091 
L 703 3866 
L 703 4441 
L 1819 4666 
L 2450 4666 
L 2450 531 
L 3481 531 
L 3481 0 
L 794 0 
L 794 531 
z
" transform="scale(0.015625)"/>
       </defs>
       <use xlink:href="#DejaVuSans-31"/>
       <use xlink:href="#DejaVuSans-30" x="63.623047"/>
       <use xlink:href="#DejaVuSans-30" x="127.246094"/>
      </g>
     </g>
    </g>
    <g id="xtick_4">
     <g id="line2d_4">
      <g>
       <use xlink:href="#m8a5900daa3" x="208.982613" y="313.2" style="stroke: #000000; stroke-width: 0.8"/>
      </g>
     </g>
     <g id="text_4">
      <!-- 150 -->
      <g transform="translate(199.438863 327.798437)scale(0.1 -0.1)">
       <use xlink:href="#DejaVuSans-31"/>
       <use xlink:href="#DejaVuSans-35" x="63.623047"/>
       <use xlink:href="#DejaVuSans-30" x="127.246094"/>
      </g>
     </g>
    </g>
    <g id="xtick_5">
     <g id="line2d_5">
      <g>
       <use xlink:href="#m8a5900daa3" x="254.012802" y="313.2" style="stroke: #000000; stroke-width: 0.8"/>
      </g>
     </g>
     <g id="text_5">
      <!-- 200 -->
      <g transform="translate(244.469052 327.798437)scale(0.1 -0.1)">
       <defs>
        <path id="DejaVuSans-32" d="M 1228 531 
L 3431 531 
L 3431 0 
L 469 0 
L 469 531 
Q 828 903 1448 1529 
Q 2069 2156 2228 2338 
Q 2531 2678 2651 2914 
Q 2772 3150 2772 3378 
Q 2772 3750 2511 3984 
Q 2250 4219 1831 4219 
Q 1534 4219 1204 4116 
Q 875 4013 500 3803 
L 500 4441 
Q 881 4594 1212 4672 
Q 1544 4750 1819 4750 
Q 2544 4750 2975 4387 
Q 3406 4025 3406 3419 
Q 3406 3131 3298 2873 
Q 3191 2616 2906 2266 
Q 2828 2175 2409 1742 
Q 1991 1309 1228 531 
z
" transform="scale(0.015625)"/>
       </defs>
       <use xlink:href="#DejaVuSans-32"/>
       <use xlink:href="#DejaVuSans-30" x="63.623047"/>
       <use xlink:href="#DejaVuSans-30" x="127.246094"/>
      </g>
     </g>
    </g>
    <g id="xtick_6">
     <g id="line2d_6">
      <g>
       <use xlink:href="#m8a5900daa3" x="299.042991" y="313.2" style="stroke: #000000; stroke-width: 0.8"/>
      </g>
     </g>
     <g id="text_6">
      <!-- 250 -->
      <g transform="translate(289.499241 327.798437)scale(0.1 -0.1)">
       <use xlink:href="#DejaVuSans-32"/>
       <use xlink:href="#DejaVuSans-35" x="63.623047"/>
       <use xlink:href="#DejaVuSans-30" x="127.246094"/>
      </g>
     </g>
    </g>
    <g id="xtick_7">
     <g id="line2d_7">
      <g>
       <use xlink:href="#m8a5900daa3" x="344.07318" y="313.2" style="stroke: #000000; stroke-width: 0.8"/>
      </g>
     </g>
     <g id="text_7">
      <!-- 300 -->
      <g transform="translate(334.52943 327.798437)scale(0.1 -0.1)">
       <defs>
        <path id="DejaVuSans-33" d="M 2597 2516 
Q 3050 2419 3304 2112 
Q 3559 1806 3559 1356 
Q 3559 666 3084 287 
Q 2609 -91 1734 -91 
Q 1441 -91 1130 -33 
Q 819 25 488 141 
L 488 750 
Q 750 597 1062 519 
Q 1375 441 1716 441 
Q 2309 441 2620 675 
Q 2931 909 2931 1356 
Q 2931 1769 2642 2001 
Q 2353 2234 1838 2234 
L 1294 2234 
L 1294 2753 
L 1863 2753 
Q 2328 2753 2575 2939 
Q 2822 3125 2822 3475 
Q 2822 3834 2567 4026 
Q 2313 4219 1838 4219 
Q 1578 4219 1281 4162 
Q 984 4106 628 3988 
L 628 4550 
Q 988 4650 1302 4700 
Q 1616 4750 1894 4750 
Q 2613 4750 3031 4423 
Q 3450 4097 3450 3541 
Q 3450 3153 3228 2886 
Q 3006 2619 2597 2516 
z
" transform="scale(0.015625)"/>
       </defs>
       <use xlink:href="#DejaVuSans-33"/>
       <use xlink:href="#DejaVuSans-30" x="63.623047"/>
       <use xlink:href="#DejaVuSans-30" x="127.246094"/>
      </g>
     </g>
    </g>
    <g id="xtick_8">
     <g id="line2d_8">
      <g>
       <use xlink:href="#m8a5900daa3" x="389.103369" y="313.2" style="stroke: #000000; stroke-width: 0.8"/>
      </g>
     </g>
     <g id="text_8">
      <!-- 350 -->
      <g transform="translate(379.559619 327.798437)scale(0.1 -0.1)">
       <use xlink:href="#DejaVuSans-33"/>
       <use xlink:href="#DejaVuSans-35" x="63.623047"/>
       <use xlink:href="#DejaVuSans-30" x="127.246094"/>
      </g>
     </g>
    </g>
    <g id="xtick_9">
     <g id="line2d_9">
      <g>
       <use xlink:href="#m8a5900daa3" x="434.133558" y="313.2" style="stroke: #000000; stroke-width: 0.8"/>
      </g>
     </g>
     <g id="text_9">
      <!-- 400 -->
      <g transform="translate(424.589808 327.798437)scale(0.1 -0.1)">
       <defs>
        <path id="DejaVuSans-34" d="M 2419 4116 
L 825 1625 
L 2419 1625 
L 2419 4116 
z
M 2253 4666 
L 3047 4666 
L 3047 1625 
L 3713 1625 
L 3713 1100 
L 3047 1100 
L 3047 0 
L 2419 0 
L 2419 1100 
L 313 1100 
L 313 1709 
L 2253 4666 
z
" transform="scale(0.015625)"/>
       </defs>
       <use xlink:href="#DejaVuSans-34"/>
       <use xlink:href="#DejaVuSans-30" x="63.623047"/>
       <use xlink:href="#DejaVuSans-30" x="127.246094"/>
      </g>
     </g>
    </g>
    <g id="text_10">
     <!-- Episode -->
     <g transform="translate(224.10625 345.275781)scale(0.15 -0.15)">
      <defs>
       <path id="DejaVuSans-45" d="M 628 4666 
L 3578 4666 
L 3578 4134 
L 1259 4134 
L 1259 2753 
L 3481 2753 
L 3481 2222 
L 1259 2222 
L 1259 531 
L 3634 531 
L 3634 0 
L 628 0 
L 628 4666 
z
" transform="scale(0.015625)"/>
       <path id="DejaVuSans-70" d="M 1159 525 
L 1159 -1331 
L 581 -1331 
L 581 3500 
L 1159 3500 
L 1159 2969 
Q 1341 3281 1617 3432 
Q 1894 3584 2278 3584 
Q 2916 3584 3314 3078 
Q 3713 2572 3713 1747 
Q 3713 922 3314 415 
Q 2916 -91 2278 -91 
Q 1894 -91 1617 61 
Q 1341 213 1159 525 
z
M 3116 1747 
Q 3116 2381 2855 2742 
Q 2594 3103 2138 3103 
Q 1681 3103 1420 2742 
Q 1159 2381 1159 1747 
Q 1159 1113 1420 752 
Q 1681 391 2138 391 
Q 2594 391 2855 752 
Q 3116 1113 3116 1747 
z
" transform="scale(0.015625)"/>
       <path id="DejaVuSans-69" d="M 603 3500 
L 1178 3500 
L 1178 0 
L 603 0 
L 603 3500 
z
M 603 4863 
L 1178 4863 
L 1178 4134 
L 603 4134 
L 603 4863 
z
" transform="scale(0.015625)"/>
       <path id="DejaVuSans-73" d="M 2834 3397 
L 2834 2853 
Q 2591 2978 2328 3040 
Q 2066 3103 1784 3103 
Q 1356 3103 1142 2972 
Q 928 2841 928 2578 
Q 928 2378 1081 2264 
Q 1234 2150 1697 2047 
L 1894 2003 
Q 2506 1872 2764 1633 
Q 3022 1394 3022 966 
Q 3022 478 2636 193 
Q 2250 -91 1575 -91 
Q 1294 -91 989 -36 
Q 684 19 347 128 
L 347 722 
Q 666 556 975 473 
Q 1284 391 1588 391 
Q 1994 391 2212 530 
Q 2431 669 2431 922 
Q 2431 1156 2273 1281 
Q 2116 1406 1581 1522 
L 1381 1569 
Q 847 1681 609 1914 
Q 372 2147 372 2553 
Q 372 3047 722 3315 
Q 1072 3584 1716 3584 
Q 2034 3584 2315 3537 
Q 2597 3491 2834 3397 
z
" transform="scale(0.015625)"/>
       <path id="DejaVuSans-6f" d="M 1959 3097 
Q 1497 3097 1228 2736 
Q 959 2375 959 1747 
Q 959 1119 1226 758 
Q 1494 397 1959 397 
Q 2419 397 2687 759 
Q 2956 1122 2956 1747 
Q 2956 2369 2687 2733 
Q 2419 3097 1959 3097 
z
M 1959 3584 
Q 2709 3584 3137 3096 
Q 3566 2609 3566 1747 
Q 3566 888 3137 398 
Q 2709 -91 1959 -91 
Q 1206 -91 779 398 
Q 353 888 353 1747 
Q 353 2609 779 3096 
Q 1206 3584 1959 3584 
z
" transform="scale(0.015625)"/>
       <path id="DejaVuSans-64" d="M 2906 2969 
L 2906 4863 
L 3481 4863 
L 3481 0 
L 2906 0 
L 2906 525 
Q 2725 213 2448 61 
Q 2172 -91 1784 -91 
Q 1150 -91 751 415 
Q 353 922 353 1747 
Q 353 2572 751 3078 
Q 1150 3584 1784 3584 
Q 2172 3584 2448 3432 
Q 2725 3281 2906 2969 
z
M 947 1747 
Q 947 1113 1208 752 
Q 1469 391 1925 391 
Q 2381 391 2643 752 
Q 2906 1113 2906 1747 
Q 2906 2381 2643 2742 
Q 2381 3103 1925 3103 
Q 1469 3103 1208 2742 
Q 947 2381 947 1747 
z
" transform="scale(0.015625)"/>
       <path id="DejaVuSans-65" d="M 3597 1894 
L 3597 1613 
L 953 1613 
Q 991 1019 1311 708 
Q 1631 397 2203 397 
Q 2534 397 2845 478 
Q 3156 559 3463 722 
L 3463 178 
Q 3153 47 2828 -22 
Q 2503 -91 2169 -91 
Q 1331 -91 842 396 
Q 353 884 353 1716 
Q 353 2575 817 3079 
Q 1281 3584 2069 3584 
Q 2775 3584 3186 3129 
Q 3597 2675 3597 1894 
z
M 3022 2063 
Q 3016 2534 2758 2815 
Q 2500 3097 2075 3097 
Q 1594 3097 1305 2825 
Q 1016 2553 972 2059 
L 3022 2063 
z
" transform="scale(0.015625)"/>
      </defs>
      <use xlink:href="#DejaVuSans-45"/>
      <use xlink:href="#DejaVuSans-70" x="63.183594"/>
      <use xlink:href="#DejaVuSans-69" x="126.660156"/>
      <use xlink:href="#DejaVuSans-73" x="154.443359"/>
      <use xlink:href="#DejaVuSans-6f" x="206.542969"/>
      <use xlink:href="#DejaVuSans-64" x="267.724609"/>
      <use xlink:href="#DejaVuSans-65" x="331.201172"/>
     </g>
    </g>
   </g>
   <g id="matplotlib.axis_2">
    <g id="ytick_1">
     <g id="line2d_10">
      <defs>
       <path id="mc13397ca96" d="M 0 0 
L -3.5 0 
" style="stroke: #000000; stroke-width: 0.8"/>
      </defs>
      <g>
       <use xlink:href="#mc13397ca96" x="55.925" y="313.2" style="stroke: #000000; stroke-width: 0.8"/>
      </g>
     </g>
     <g id="text_11">
      <!-- 0 -->
      <g transform="translate(42.5625 316.999219)scale(0.1 -0.1)">
       <use xlink:href="#DejaVuSans-30"/>
      </g>
     </g>
    </g>
    <g id="ytick_2">
     <g id="line2d_11">
      <g>
       <use xlink:href="#mc13397ca96" x="55.925" y="266.676923" style="stroke: #000000; stroke-width: 0.8"/>
      </g>
     </g>
     <g id="text_12">
      <!-- 100 -->
      <g transform="translate(29.8375 270.476142)scale(0.1 -0.1)">
       <use xlink:href="#DejaVuSans-31"/>
       <use xlink:href="#DejaVuSans-30" x="63.623047"/>
       <use xlink:href="#DejaVuSans-30" x="127.246094"/>
      </g>
     </g>
    </g>
    <g id="ytick_3">
     <g id="line2d_12">
      <g>
       <use xlink:href="#mc13397ca96" x="55.925" y="220.153846" style="stroke: #000000; stroke-width: 0.8"/>
      </g>
     </g>
     <g id="text_13">
      <!-- 200 -->
      <g transform="translate(29.8375 223.953065)scale(0.1 -0.1)">
       <use xlink:href="#DejaVuSans-32"/>
       <use xlink:href="#DejaVuSans-30" x="63.623047"/>
       <use xlink:href="#DejaVuSans-30" x="127.246094"/>
      </g>
     </g>
    </g>
    <g id="ytick_4">
     <g id="line2d_13">
      <g>
       <use xlink:href="#mc13397ca96" x="55.925" y="173.630769" style="stroke: #000000; stroke-width: 0.8"/>
      </g>
     </g>
     <g id="text_14">
      <!-- 300 -->
      <g transform="translate(29.8375 177.429988)scale(0.1 -0.1)">
       <use xlink:href="#DejaVuSans-33"/>
       <use xlink:href="#DejaVuSans-30" x="63.623047"/>
       <use xlink:href="#DejaVuSans-30" x="127.246094"/>
      </g>
     </g>
    </g>
    <g id="ytick_5">
     <g id="line2d_14">
      <g>
       <use xlink:href="#mc13397ca96" x="55.925" y="127.107692" style="stroke: #000000; stroke-width: 0.8"/>
      </g>
     </g>
     <g id="text_15">
      <!-- 400 -->
      <g transform="translate(29.8375 130.906911)scale(0.1 -0.1)">
       <use xlink:href="#DejaVuSans-34"/>
       <use xlink:href="#DejaVuSans-30" x="63.623047"/>
       <use xlink:href="#DejaVuSans-30" x="127.246094"/>
      </g>
     </g>
    </g>
    <g id="ytick_6">
     <g id="line2d_15">
      <g>
       <use xlink:href="#mc13397ca96" x="55.925" y="80.584615" style="stroke: #000000; stroke-width: 0.8"/>
      </g>
     </g>
     <g id="text_16">
      <!-- 500 -->
      <g transform="translate(29.8375 84.383834)scale(0.1 -0.1)">
       <use xlink:href="#DejaVuSans-35"/>
       <use xlink:href="#DejaVuSans-30" x="63.623047"/>
       <use xlink:href="#DejaVuSans-30" x="127.246094"/>
      </g>
     </g>
    </g>
    <g id="ytick_7">
     <g id="line2d_16">
      <g>
       <use xlink:href="#mc13397ca96" x="55.925" y="34.061538" style="stroke: #000000; stroke-width: 0.8"/>
      </g>
     </g>
     <g id="text_17">
      <!-- 600 -->
      <g transform="translate(29.8375 37.860757)scale(0.1 -0.1)">
       <defs>
        <path id="DejaVuSans-36" d="M 2113 2584 
Q 1688 2584 1439 2293 
Q 1191 2003 1191 1497 
Q 1191 994 1439 701 
Q 1688 409 2113 409 
Q 2538 409 2786 701 
Q 3034 994 3034 1497 
Q 3034 2003 2786 2293 
Q 2538 2584 2113 2584 
z
M 3366 4563 
L 3366 3988 
Q 3128 4100 2886 4159 
Q 2644 4219 2406 4219 
Q 1781 4219 1451 3797 
Q 1122 3375 1075 2522 
Q 1259 2794 1537 2939 
Q 1816 3084 2150 3084 
Q 2853 3084 3261 2657 
Q 3669 2231 3669 1497 
Q 3669 778 3244 343 
Q 2819 -91 2113 -91 
Q 1303 -91 875 529 
Q 447 1150 447 2328 
Q 447 3434 972 4092 
Q 1497 4750 2381 4750 
Q 2619 4750 2861 4703 
Q 3103 4656 3366 4563 
z
" transform="scale(0.015625)"/>
       </defs>
       <use xlink:href="#DejaVuSans-36"/>
       <use xlink:href="#DejaVuSans-30" x="63.623047"/>
       <use xlink:href="#DejaVuSans-30" x="127.246094"/>
      </g>
     </g>
    </g>
    <g id="text_18">
     <!-- Score -->
     <g transform="translate(22.717969 183.003516)rotate(-90)scale(0.15 -0.15)">
      <defs>
       <path id="DejaVuSans-53" d="M 3425 4513 
L 3425 3897 
Q 3066 4069 2747 4153 
Q 2428 4238 2131 4238 
Q 1616 4238 1336 4038 
Q 1056 3838 1056 3469 
Q 1056 3159 1242 3001 
Q 1428 2844 1947 2747 
L 2328 2669 
Q 3034 2534 3370 2195 
Q 3706 1856 3706 1288 
Q 3706 609 3251 259 
Q 2797 -91 1919 -91 
Q 1588 -91 1214 -16 
Q 841 59 441 206 
L 441 856 
Q 825 641 1194 531 
Q 1563 422 1919 422 
Q 2459 422 2753 634 
Q 3047 847 3047 1241 
Q 3047 1584 2836 1778 
Q 2625 1972 2144 2069 
L 1759 2144 
Q 1053 2284 737 2584 
Q 422 2884 422 3419 
Q 422 4038 858 4394 
Q 1294 4750 2059 4750 
Q 2388 4750 2728 4690 
Q 3069 4631 3425 4513 
z
" transform="scale(0.015625)"/>
       <path id="DejaVuSans-63" d="M 3122 3366 
L 3122 2828 
Q 2878 2963 2633 3030 
Q 2388 3097 2138 3097 
Q 1578 3097 1268 2742 
Q 959 2388 959 1747 
Q 959 1106 1268 751 
Q 1578 397 2138 397 
Q 2388 397 2633 464 
Q 2878 531 3122 666 
L 3122 134 
Q 2881 22 2623 -34 
Q 2366 -91 2075 -91 
Q 1284 -91 818 406 
Q 353 903 353 1747 
Q 353 2603 823 3093 
Q 1294 3584 2113 3584 
Q 2378 3584 2631 3529 
Q 2884 3475 3122 3366 
z
" transform="scale(0.015625)"/>
       <path id="DejaVuSans-72" d="M 2631 2963 
Q 2534 3019 2420 3045 
Q 2306 3072 2169 3072 
Q 1681 3072 1420 2755 
Q 1159 2438 1159 1844 
L 1159 0 
L 581 0 
L 581 3500 
L 1159 3500 
L 1159 2956 
Q 1341 3275 1631 3429 
Q 1922 3584 2338 3584 
Q 2397 3584 2469 3576 
Q 2541 3569 2628 3553 
L 2631 2963 
z
" transform="scale(0.015625)"/>
      </defs>
      <use xlink:href="#DejaVuSans-53"/>
      <use xlink:href="#DejaVuSans-63" x="63.476562"/>
      <use xlink:href="#DejaVuSans-6f" x="118.457031"/>
      <use xlink:href="#DejaVuSans-72" x="179.638672"/>
      <use xlink:href="#DejaVuSans-65" x="218.501953"/>
     </g>
    </g>
   </g>
   <g id="line2d_17">
    <path d="M 73.892045 309.012923 
L 74.792649 308.547692 
L 75.693253 309.478154 
L 76.593857 309.478154 
L 78.395064 308.547692 
L 80.196272 309.478154 
L 81.096876 309.012923 
L 81.997479 309.012923 
L 82.898083 308.547692 
L 83.798687 309.012923 
L 84.699291 308.547692 
L 85.599895 308.547692 
L 86.500498 309.012923 
L 87.401102 308.547692 
L 88.301706 308.547692 
L 89.20231 309.012923 
L 91.003517 309.012923 
L 91.904121 308.547692 
L 92.804725 309.478154 
L 93.705329 309.012923 
L 94.605932 309.012923 
L 95.506536 308.547692 
L 96.40714 308.547692 
L 97.307744 309.478154 
L 98.208348 308.547692 
L 99.108951 309.012923 
L 100.910159 309.012923 
L 101.810763 309.478154 
L 102.711366 309.478154 
L 103.61197 309.012923 
L 104.512574 309.012923 
L 105.413178 308.547692 
L 106.313782 309.478154 
L 107.214385 308.547692 
L 108.114989 309.012923 
L 109.015593 308.547692 
L 109.916197 308.547692 
L 110.816801 309.012923 
L 111.717404 309.012923 
L 112.618008 308.547692 
L 114.419216 308.547692 
L 115.319819 309.478154 
L 116.220423 309.012923 
L 117.121027 309.012923 
L 118.021631 308.547692 
L 118.922235 300.638769 
L 119.822838 307.617231 
L 120.723442 308.547692 
L 121.624046 306.686769 
L 122.52465 300.638769 
L 123.425253 308.082462 
L 124.325857 306.686769 
L 125.226461 305.756308 
L 126.127065 306.686769 
L 127.027669 303.430154 
L 127.928272 307.617231 
L 128.828876 308.082462 
L 131.530688 305.291077 
L 132.431291 306.221538 
L 133.331895 306.686769 
L 134.232499 306.686769 
L 135.133103 302.034462 
L 136.033706 301.569231 
L 136.93431 309.012923 
L 137.834914 308.547692 
L 138.735518 306.686769 
L 139.636122 308.082462 
L 140.536725 306.686769 
L 141.437329 308.547692 
L 142.337933 307.152 
L 143.238537 308.082462 
L 144.13914 303.895385 
L 145.039744 308.082462 
L 145.940348 305.291077 
L 146.840952 307.617231 
L 147.741556 309.012923 
L 148.642159 308.082462 
L 149.542763 308.547692 
L 150.443367 308.082462 
L 151.343971 306.686769 
L 152.244575 295.521231 
L 153.145178 301.104 
L 154.045782 302.499692 
L 154.946386 301.104 
L 155.84699 308.082462 
L 156.747593 306.221538 
L 157.648197 307.617231 
L 158.548801 304.825846 
L 159.449405 308.082462 
L 160.350009 306.221538 
L 161.250612 306.221538 
L 162.151216 307.152 
L 163.05182 301.569231 
L 163.952424 309.012923 
L 164.853027 304.825846 
L 165.753631 307.617231 
L 166.654235 307.617231 
L 167.554839 306.686769 
L 168.455443 306.221538 
L 169.356046 304.360615 
L 170.25665 308.082462 
L 171.157254 304.825846 
L 172.057858 305.756308 
L 172.958461 307.617231 
L 173.859065 304.825846 
L 174.759669 306.686769 
L 175.660273 307.152 
L 176.560877 306.686769 
L 177.46148 302.499692 
L 178.362084 305.756308 
L 179.262688 309.478154 
L 180.163292 304.825846 
L 181.063896 305.291077 
L 181.964499 307.152 
L 182.865103 305.756308 
L 183.765707 308.547692 
L 184.666311 306.221538 
L 185.566914 307.617231 
L 186.467518 303.895385 
L 187.368122 302.964923 
L 188.268726 289.938462 
L 189.16933 302.499692 
L 190.069933 303.430154 
L 190.970537 305.756308 
L 191.871141 305.756308 
L 192.771745 297.847385 
L 193.672348 302.964923 
L 194.572952 283.890462 
L 195.473556 304.825846 
L 196.37416 306.221538 
L 197.274764 300.173538 
L 198.175367 308.547692 
L 199.075971 296.916923 
L 199.976575 304.360615 
L 200.877179 298.777846 
L 201.777783 303.895385 
L 202.678386 307.152 
L 203.57899 293.195077 
L 204.479594 299.708308 
L 205.380198 302.034462 
L 206.280801 291.334154 
L 207.181405 308.547692 
L 208.082009 305.291077 
L 208.982613 293.660308 
L 209.883217 303.430154 
L 210.78382 302.499692 
L 211.684424 305.756308 
L 212.585028 305.756308 
L 213.485632 284.820923 
L 214.386235 304.360615 
L 215.286839 296.916923 
L 216.187443 303.430154 
L 217.088047 308.082462 
L 217.988651 308.082462 
L 219.789858 291.799385 
L 220.690462 307.152 
L 221.591066 309.012923 
L 222.49167 297.847385 
L 223.392273 307.152 
L 224.292877 305.291077 
L 225.193481 299.243077 
L 226.094085 306.686769 
L 226.994688 303.895385 
L 227.895292 303.895385 
L 228.795896 298.777846 
L 229.6965 302.499692 
L 230.597104 304.825846 
L 231.497707 305.291077 
L 232.398311 307.617231 
L 233.298915 307.152 
L 234.199519 299.708308 
L 235.100122 290.403692 
L 236.000726 302.964923 
L 236.90133 302.499692 
L 237.801934 302.499692 
L 238.702538 300.173538 
L 239.603141 307.152 
L 240.503745 304.360615 
L 241.404349 300.638769 
L 242.304953 305.291077 
L 243.205557 307.617231 
L 244.10616 294.590769 
L 245.006764 306.686769 
L 245.907368 301.104 
L 246.807972 302.499692 
L 247.708575 301.104 
L 248.609179 305.756308 
L 249.509783 307.617231 
L 250.410387 306.686769 
L 251.310991 309.012923 
L 252.211594 307.617231 
L 253.112198 303.430154 
L 254.012802 300.173538 
L 254.913406 304.360615 
L 255.814009 307.617231 
L 256.714613 304.825846 
L 257.615217 307.152 
L 258.515821 307.617231 
L 259.416425 306.221538 
L 260.317028 298.777846 
L 261.217632 301.104 
L 262.118236 304.825846 
L 263.01884 307.152 
L 263.919443 306.686769 
L 264.820047 301.569231 
L 265.720651 306.686769 
L 266.621255 307.617231 
L 267.521859 307.152 
L 268.422462 307.152 
L 269.323066 294.125538 
L 270.22367 301.104 
L 271.124274 304.825846 
L 272.024878 298.777846 
L 272.925481 293.660308 
L 273.826085 302.034462 
L 274.726689 307.152 
L 275.627293 295.056 
L 276.527896 289.938462 
L 277.4285 280.633846 
L 278.329104 272.724923 
L 279.229708 289.938462 
L 280.130312 288.542769 
L 281.030915 289.008 
L 281.931519 281.099077 
L 282.832123 290.403692 
L 283.732727 278.772923 
L 284.63333 289.938462 
L 285.533934 281.564308 
L 286.434538 255.046154 
L 287.335142 282.96 
L 288.235746 287.612308 
L 289.136349 288.077538 
L 290.036953 249.463385 
L 291.838161 273.655385 
L 292.738765 279.703385 
L 293.639368 279.703385 
L 294.539972 281.099077 
L 295.440576 282.029538 
L 296.34118 284.820923 
L 297.241783 277.377231 
L 298.142387 273.190154 
L 299.042991 285.751385 
L 299.943595 251.789538 
L 300.844199 281.564308 
L 302.645406 222.014769 
L 303.54601 278.772923 
L 304.446614 276.912 
L 305.347217 205.266462 
L 306.247821 278.307692 
L 307.148425 268.537846 
L 308.049029 279.703385 
L 308.949633 284.355692 
L 309.850236 180.144 
L 310.75084 255.976615 
L 311.651444 265.746462 
L 312.552048 281.564308 
L 313.452652 275.981538 
L 314.353255 275.981538 
L 315.253859 279.703385 
L 316.154463 281.099077 
L 317.055067 286.216615 
L 317.95567 267.607385 
L 318.856274 284.355692 
L 319.756878 272.259692 
L 320.657482 270.398769 
L 321.558086 240.158769 
L 322.458689 272.259692 
L 323.359293 242.950154 
L 324.259897 262.489846 
L 325.160501 264.350769 
L 326.061104 265.281231 
L 326.961708 260.163692 
L 327.862312 168.513231 
L 328.762916 262.955077 
L 329.66352 252.254769 
L 330.564123 271.329231 
L 331.464727 240.158769 
L 332.365331 222.48 
L 333.265935 259.233231 
L 334.166539 262.024615 
L 335.067142 267.607385 
L 335.967746 279.703385 
L 336.86835 282.029538 
L 337.768954 275.051077 
L 338.669557 278.772923 
L 339.570161 288.542769 
L 340.470765 282.029538 
L 341.371369 282.494769 
L 342.271973 280.168615 
L 343.172576 286.216615 
L 344.07318 282.96 
L 344.973784 240.158769 
L 345.874388 278.307692 
L 346.774991 260.163692 
L 347.675595 222.945231 
L 348.576199 272.724923 
L 349.476803 266.211692 
L 350.377407 80.584615 
L 351.27801 278.307692 
L 352.178614 267.142154 
L 353.079218 271.329231 
L 353.979822 273.655385 
L 354.880425 274.120615 
L 355.781029 285.286154 
L 357.582237 286.216615 
L 358.482841 191.774769 
L 359.383444 274.585846 
L 360.284048 266.676923 
L 361.184652 273.655385 
L 362.085256 284.820923 
L 362.98586 218.292923 
L 363.886463 262.024615 
L 365.687671 236.902154 
L 366.588275 247.602462 
L 367.488878 150.369231 
L 368.389482 244.811077 
L 369.290086 244.811077 
L 370.19069 81.515077 
L 371.091294 190.844308 
L 371.991897 80.584615 
L 372.892501 226.201846 
L 373.793105 154.091077 
L 374.693709 242.019692 
L 375.594312 80.584615 
L 378.296124 80.584615 
L 379.196728 195.961846 
L 380.097331 231.319385 
L 380.997935 249.463385 
L 381.898539 80.584615 
L 382.799143 215.036308 
L 383.699747 208.523077 
L 384.60035 80.584615 
L 385.500954 80.584615 
L 386.401558 124.781538 
L 387.302162 108.033231 
L 388.202765 80.584615 
L 389.103369 80.584615 
L 390.003973 108.033231 
L 390.904577 80.584615 
L 392.705784 80.584615 
L 393.606388 148.508308 
L 394.506992 80.584615 
L 397.208803 80.584615 
L 398.109407 150.369231 
L 399.010011 80.584615 
L 399.910615 80.584615 
L 400.811218 232.715077 
L 401.711822 80.584615 
L 403.51303 80.584615 
L 404.413634 214.571077 
L 405.314237 80.584615 
L 406.214841 80.584615 
L 407.115445 240.624 
L 408.016049 80.584615 
L 408.916652 95.472 
L 409.817256 94.076308 
L 410.71786 80.584615 
L 417.022086 80.584615 
L 417.92269 233.645538 
L 418.823294 80.584615 
L 421.525105 80.584615 
L 422.425709 255.976615 
L 423.326313 80.584615 
L 425.127521 80.584615 
L 426.028124 214.571077 
L 426.928728 158.278154 
L 427.829332 209.453538 
L 428.729936 80.584615 
L 430.531143 80.584615 
L 431.431747 246.672 
L 432.332351 257.837538 
L 433.232955 80.584615 
L 433.232955 80.584615 
" clip-path="url(#pec2727a2ef)" style="fill: none; stroke: #708090; stroke-width: 1.5; stroke-linecap: square"/>
   </g>
   <g id="line2d_18">
    <path d="M 73.892045 308.919877 
L 74.792649 308.752394 
L 77.494461 308.659348 
L 78.395064 308.491865 
L 81.096876 308.3616 
L 91.003517 307.747495 
L 91.904121 307.598622 
L 94.605932 307.542794 
L 100.910159 307.310178 
L 103.61197 307.189218 
L 107.214385 307.096172 
L 109.015593 306.677465 
L 111.717404 306.389022 
L 118.922235 305.933095 
L 119.822838 306.100578 
L 121.624046 306.026142 
L 128.828876 306.137797 
L 130.630084 306.06336 
L 133.331895 306.035446 
L 135.133103 306.072665 
L 137.834914 306.165711 
L 139.636122 306.147102 
L 143.238537 305.951705 
L 144.13914 305.588825 
L 147.741556 305.439951 
L 148.642159 305.21664 
L 149.542763 305.114289 
L 150.443367 304.621145 
L 152.244575 304.546708 
L 154.045782 304.788628 
L 154.946386 304.676972 
L 155.84699 304.742105 
L 156.747593 304.556012 
L 158.548801 304.500185 
L 160.350009 304.100086 
L 161.250612 304.016345 
L 162.151216 303.718597 
L 163.952424 303.820948 
L 164.853027 303.513895 
L 168.455443 303.327803 
L 169.356046 302.899791 
L 170.25665 302.899791 
L 171.157254 302.67648 
L 172.958461 302.695089 
L 174.759669 302.611348 
L 175.660273 302.3136 
L 180.163292 302.211249 
L 181.063896 302.099594 
L 182.865103 302.062375 
L 183.765707 302.025157 
L 184.666311 301.82976 
L 186.467518 301.699495 
L 188.268726 301.820455 
L 189.16933 302.164726 
L 190.069933 302.108898 
L 190.970537 301.848369 
L 192.771745 301.727409 
L 193.672348 301.820455 
L 194.572952 301.764628 
L 195.473556 302.229858 
L 203.57899 302.090289 
L 205.380198 302.499692 
L 206.280801 302.592738 
L 207.181405 302.946314 
L 208.982613 302.890486 
L 210.78382 303.03936 
L 211.684424 303.141711 
L 213.485632 303.151015 
L 214.386235 303.606942 
L 217.088047 303.634855 
L 218.889254 303.551114 
L 221.591066 303.867471 
L 222.49167 303.839557 
L 223.392273 304.025649 
L 224.292877 304.025649 
L 225.193481 303.802338 
L 226.994688 303.802338 
L 229.6965 303.560418 
L 230.597104 303.653465 
L 232.398311 303.151015 
L 233.298915 302.611348 
L 234.199519 301.922806 
L 235.100122 301.727409 
L 236.000726 301.690191 
L 236.90133 301.411052 
L 237.801934 300.98304 
L 238.702538 300.74112 
L 241.404349 299.512911 
L 242.304953 298.601058 
L 244.10616 297.754338 
L 245.006764 297.624074 
L 245.907368 296.479606 
L 246.807972 295.679409 
L 247.708575 295.102523 
L 249.509783 294.153452 
L 254.012802 291.436505 
L 254.913406 291.148062 
L 255.814009 290.09664 
L 256.714613 289.575582 
L 257.615217 288.496246 
L 258.515821 286.793502 
L 260.317028 285.630425 
L 261.217632 283.760197 
L 262.118236 283.304271 
L 263.01884 282.578511 
L 264.820047 281.582917 
L 265.720651 279.154412 
L 266.621255 278.140209 
L 267.521859 277.302794 
L 271.124274 275.376738 
L 272.024878 274.902203 
L 272.925481 274.650978 
L 273.826085 274.12992 
L 274.726689 273.776345 
L 275.627293 273.078498 
L 276.527896 272.585354 
L 277.4285 271.58976 
L 278.329104 271.422277 
L 280.130312 270.277809 
L 282.832123 268.900726 
L 283.732727 266.462917 
L 284.63333 266.14656 
L 285.533934 265.392886 
L 287.335142 264.890437 
L 288.235746 263.680837 
L 290.036953 262.592197 
L 291.838161 263.327262 
L 292.738765 263.494745 
L 294.539972 263.383089 
L 295.440576 263.531963 
L 298.142387 263.541268 
L 299.042991 263.801797 
L 299.943595 263.745969 
L 300.844199 263.513354 
L 301.744802 263.448222 
L 302.645406 263.634314 
L 303.54601 263.652923 
L 305.347217 263.317957 
L 306.247821 260.82432 
L 308.049029 260.796406 
L 309.850236 260.414917 
L 310.75084 262.294449 
L 311.651444 262.88064 
L 312.552048 263.280738 
L 313.452652 263.373785 
L 314.353255 261.689649 
L 315.253859 261.661735 
L 317.055067 261.252332 
L 317.95567 261.224418 
L 318.856274 260.238129 
L 320.657482 259.335582 
L 321.558086 258.665649 
L 322.458689 258.814523 
L 323.359293 256.376714 
L 324.259897 256.413932 
L 325.160501 256.060357 
L 326.061104 252.403643 
L 326.961708 250.914905 
L 327.862312 247.323323 
L 328.762916 248.477095 
L 329.66352 246.299815 
L 330.564123 246.095114 
L 331.464727 242.280222 
L 334.166539 232.677858 
L 335.067142 231.356603 
L 336.86835 230.026043 
L 337.768954 225.997145 
L 338.669557 224.796849 
L 339.570161 223.391852 
L 341.371369 215.203791 
L 343.172576 208.606818 
L 344.973784 200.446671 
L 345.874388 197.80416 
L 347.675595 190.258117 
L 349.476803 184.926572 
L 350.377407 181.214031 
L 351.27801 181.214031 
L 353.079218 173.528418 
L 353.979822 171.109218 
L 355.781029 163.377083 
L 356.681633 162.325662 
L 358.482841 154.109686 
L 359.383444 151.885883 
L 360.284048 150.685588 
L 362.085256 143.102326 
L 362.98586 142.218388 
L 363.886463 139.464222 
L 365.687671 133.025428 
L 367.488878 126.55872 
L 368.389482 125.163028 
L 370.19069 118.593969 
L 371.091294 118.57536 
L 371.991897 116.370166 
L 372.892501 116.370166 
L 373.793105 116.51904 
L 374.693709 115.048911 
L 375.594312 111.820209 
L 377.39552 111.820209 
L 378.296124 115.328049 
L 379.196728 115.328049 
L 380.097331 113.020505 
L 380.997935 110.005809 
L 381.898539 109.307963 
L 382.799143 110.861834 
L 383.699747 110.750178 
L 384.60035 108.191409 
L 386.401558 108.191409 
L 387.302162 110.629218 
L 388.202765 113.625305 
L 389.103369 113.625305 
L 389.103369 113.625305 
" clip-path="url(#pec2727a2ef)" style="fill: none; stroke: #000080; stroke-width: 1.5; stroke-linecap: square"/>
   </g>
   <g id="line2d_19">
    <path d="M 55.925 80.584615 
L 451.2 80.584615 
" clip-path="url(#pec2727a2ef)" style="fill: none; stroke-dasharray: 5.55,2.4; stroke-dashoffset: 0; stroke: #008000; stroke-width: 1.5"/>
   </g>
   <g id="patch_3">
    <path d="M 55.925 313.2 
L 55.925 10.8 
" style="fill: none; stroke: #000000; stroke-width: 0.8; stroke-linejoin: miter; stroke-linecap: square"/>
   </g>
   <g id="patch_4">
    <path d="M 451.2 313.2 
L 451.2 10.8 
" style="fill: none; stroke: #000000; stroke-width: 0.8; stroke-linejoin: miter; stroke-linecap: square"/>
   </g>
   <g id="patch_5">
    <path d="M 55.925 313.2 
L 451.2 313.2 
" style="fill: none; stroke: #000000; stroke-width: 0.8; stroke-linejoin: miter; stroke-linecap: square"/>
   </g>
   <g id="patch_6">
    <path d="M 55.925 10.8 
L 451.2 10.8 
" style="fill: none; stroke: #000000; stroke-width: 0.8; stroke-linejoin: miter; stroke-linecap: square"/>
   </g>
   <g id="legend_1">
    <g id="patch_7">
     <path d="M 283.88125 62.834375 
L 444.2 62.834375 
Q 446.2 62.834375 446.2 60.834375 
L 446.2 17.8 
Q 446.2 15.8 444.2 15.8 
L 283.88125 15.8 
Q 281.88125 15.8 281.88125 17.8 
L 281.88125 60.834375 
Q 281.88125 62.834375 283.88125 62.834375 
z
" style="fill: #ffffff; opacity: 0.8; stroke: #cccccc; stroke-linejoin: miter"/>
    </g>
    <g id="line2d_20">
     <path d="M 285.88125 23.898438 
L 295.88125 23.898438 
L 305.88125 23.898438 
" style="fill: none; stroke: #708090; stroke-width: 1.5; stroke-linecap: square"/>
    </g>
    <g id="text_19">
     <!-- Episodes score -->
     <g transform="translate(313.88125 27.398438)scale(0.1 -0.1)">
      <defs>
       <path id="DejaVuSans-20" transform="scale(0.015625)"/>
      </defs>
      <use xlink:href="#DejaVuSans-45"/>
      <use xlink:href="#DejaVuSans-70" x="63.183594"/>
      <use xlink:href="#DejaVuSans-69" x="126.660156"/>
      <use xlink:href="#DejaVuSans-73" x="154.443359"/>
      <use xlink:href="#DejaVuSans-6f" x="206.542969"/>
      <use xlink:href="#DejaVuSans-64" x="267.724609"/>
      <use xlink:href="#DejaVuSans-65" x="331.201172"/>
      <use xlink:href="#DejaVuSans-73" x="392.724609"/>
      <use xlink:href="#DejaVuSans-20" x="444.824219"/>
      <use xlink:href="#DejaVuSans-73" x="476.611328"/>
      <use xlink:href="#DejaVuSans-63" x="528.710938"/>
      <use xlink:href="#DejaVuSans-6f" x="583.691406"/>
      <use xlink:href="#DejaVuSans-72" x="644.873047"/>
      <use xlink:href="#DejaVuSans-65" x="683.736328"/>
     </g>
    </g>
    <g id="line2d_21">
     <path d="M 285.88125 38.576563 
L 295.88125 38.576563 
L 305.88125 38.576563 
" style="fill: none; stroke: #000080; stroke-width: 1.5; stroke-linecap: square"/>
    </g>
    <g id="text_20">
     <!-- Moving average of scores -->
     <g transform="translate(313.88125 42.076563)scale(0.1 -0.1)">
      <defs>
       <path id="DejaVuSans-4d" d="M 628 4666 
L 1569 4666 
L 2759 1491 
L 3956 4666 
L 4897 4666 
L 4897 0 
L 4281 0 
L 4281 4097 
L 3078 897 
L 2444 897 
L 1241 4097 
L 1241 0 
L 628 0 
L 628 4666 
z
" transform="scale(0.015625)"/>
       <path id="DejaVuSans-76" d="M 191 3500 
L 800 3500 
L 1894 563 
L 2988 3500 
L 3597 3500 
L 2284 0 
L 1503 0 
L 191 3500 
z
" transform="scale(0.015625)"/>
       <path id="DejaVuSans-6e" d="M 3513 2113 
L 3513 0 
L 2938 0 
L 2938 2094 
Q 2938 2591 2744 2837 
Q 2550 3084 2163 3084 
Q 1697 3084 1428 2787 
Q 1159 2491 1159 1978 
L 1159 0 
L 581 0 
L 581 3500 
L 1159 3500 
L 1159 2956 
Q 1366 3272 1645 3428 
Q 1925 3584 2291 3584 
Q 2894 3584 3203 3211 
Q 3513 2838 3513 2113 
z
" transform="scale(0.015625)"/>
       <path id="DejaVuSans-67" d="M 2906 1791 
Q 2906 2416 2648 2759 
Q 2391 3103 1925 3103 
Q 1463 3103 1205 2759 
Q 947 2416 947 1791 
Q 947 1169 1205 825 
Q 1463 481 1925 481 
Q 2391 481 2648 825 
Q 2906 1169 2906 1791 
z
M 3481 434 
Q 3481 -459 3084 -895 
Q 2688 -1331 1869 -1331 
Q 1566 -1331 1297 -1286 
Q 1028 -1241 775 -1147 
L 775 -588 
Q 1028 -725 1275 -790 
Q 1522 -856 1778 -856 
Q 2344 -856 2625 -561 
Q 2906 -266 2906 331 
L 2906 616 
Q 2728 306 2450 153 
Q 2172 0 1784 0 
Q 1141 0 747 490 
Q 353 981 353 1791 
Q 353 2603 747 3093 
Q 1141 3584 1784 3584 
Q 2172 3584 2450 3431 
Q 2728 3278 2906 2969 
L 2906 3500 
L 3481 3500 
L 3481 434 
z
" transform="scale(0.015625)"/>
       <path id="DejaVuSans-61" d="M 2194 1759 
Q 1497 1759 1228 1600 
Q 959 1441 959 1056 
Q 959 750 1161 570 
Q 1363 391 1709 391 
Q 2188 391 2477 730 
Q 2766 1069 2766 1631 
L 2766 1759 
L 2194 1759 
z
M 3341 1997 
L 3341 0 
L 2766 0 
L 2766 531 
Q 2569 213 2275 61 
Q 1981 -91 1556 -91 
Q 1019 -91 701 211 
Q 384 513 384 1019 
Q 384 1609 779 1909 
Q 1175 2209 1959 2209 
L 2766 2209 
L 2766 2266 
Q 2766 2663 2505 2880 
Q 2244 3097 1772 3097 
Q 1472 3097 1187 3025 
Q 903 2953 641 2809 
L 641 3341 
Q 956 3463 1253 3523 
Q 1550 3584 1831 3584 
Q 2591 3584 2966 3190 
Q 3341 2797 3341 1997 
z
" transform="scale(0.015625)"/>
       <path id="DejaVuSans-66" d="M 2375 4863 
L 2375 4384 
L 1825 4384 
Q 1516 4384 1395 4259 
Q 1275 4134 1275 3809 
L 1275 3500 
L 2222 3500 
L 2222 3053 
L 1275 3053 
L 1275 0 
L 697 0 
L 697 3053 
L 147 3053 
L 147 3500 
L 697 3500 
L 697 3744 
Q 697 4328 969 4595 
Q 1241 4863 1831 4863 
L 2375 4863 
z
" transform="scale(0.015625)"/>
      </defs>
      <use xlink:href="#DejaVuSans-4d"/>
      <use xlink:href="#DejaVuSans-6f" x="86.279297"/>
      <use xlink:href="#DejaVuSans-76" x="147.460938"/>
      <use xlink:href="#DejaVuSans-69" x="206.640625"/>
      <use xlink:href="#DejaVuSans-6e" x="234.423828"/>
      <use xlink:href="#DejaVuSans-67" x="297.802734"/>
      <use xlink:href="#DejaVuSans-20" x="361.279297"/>
      <use xlink:href="#DejaVuSans-61" x="393.066406"/>
      <use xlink:href="#DejaVuSans-76" x="454.345703"/>
      <use xlink:href="#DejaVuSans-65" x="513.525391"/>
      <use xlink:href="#DejaVuSans-72" x="575.048828"/>
      <use xlink:href="#DejaVuSans-61" x="616.162109"/>
      <use xlink:href="#DejaVuSans-67" x="677.441406"/>
      <use xlink:href="#DejaVuSans-65" x="740.917969"/>
      <use xlink:href="#DejaVuSans-20" x="802.441406"/>
      <use xlink:href="#DejaVuSans-6f" x="834.228516"/>
      <use xlink:href="#DejaVuSans-66" x="895.410156"/>
      <use xlink:href="#DejaVuSans-20" x="930.615234"/>
      <use xlink:href="#DejaVuSans-73" x="962.402344"/>
      <use xlink:href="#DejaVuSans-63" x="1014.501953"/>
      <use xlink:href="#DejaVuSans-6f" x="1069.482422"/>
      <use xlink:href="#DejaVuSans-72" x="1130.664062"/>
      <use xlink:href="#DejaVuSans-65" x="1169.527344"/>
      <use xlink:href="#DejaVuSans-73" x="1231.050781"/>
     </g>
    </g>
    <g id="line2d_22">
     <path d="M 285.88125 53.254688 
L 295.88125 53.254688 
L 305.88125 53.254688 
" style="fill: none; stroke-dasharray: 5.55,2.4; stroke-dashoffset: 0; stroke: #008000; stroke-width: 1.5"/>
    </g>
    <g id="text_21">
     <!-- Game Solved -->
     <g transform="translate(313.88125 56.754688)scale(0.1 -0.1)">
      <defs>
       <path id="DejaVuSans-47" d="M 3809 666 
L 3809 1919 
L 2778 1919 
L 2778 2438 
L 4434 2438 
L 4434 434 
Q 4069 175 3628 42 
Q 3188 -91 2688 -91 
Q 1594 -91 976 548 
Q 359 1188 359 2328 
Q 359 3472 976 4111 
Q 1594 4750 2688 4750 
Q 3144 4750 3555 4637 
Q 3966 4525 4313 4306 
L 4313 3634 
Q 3963 3931 3569 4081 
Q 3175 4231 2741 4231 
Q 1884 4231 1454 3753 
Q 1025 3275 1025 2328 
Q 1025 1384 1454 906 
Q 1884 428 2741 428 
Q 3075 428 3337 486 
Q 3600 544 3809 666 
z
" transform="scale(0.015625)"/>
       <path id="DejaVuSans-6d" d="M 3328 2828 
Q 3544 3216 3844 3400 
Q 4144 3584 4550 3584 
Q 5097 3584 5394 3201 
Q 5691 2819 5691 2113 
L 5691 0 
L 5113 0 
L 5113 2094 
Q 5113 2597 4934 2840 
Q 4756 3084 4391 3084 
Q 3944 3084 3684 2787 
Q 3425 2491 3425 1978 
L 3425 0 
L 2847 0 
L 2847 2094 
Q 2847 2600 2669 2842 
Q 2491 3084 2119 3084 
Q 1678 3084 1418 2786 
Q 1159 2488 1159 1978 
L 1159 0 
L 581 0 
L 581 3500 
L 1159 3500 
L 1159 2956 
Q 1356 3278 1631 3431 
Q 1906 3584 2284 3584 
Q 2666 3584 2933 3390 
Q 3200 3197 3328 2828 
z
" transform="scale(0.015625)"/>
       <path id="DejaVuSans-6c" d="M 603 4863 
L 1178 4863 
L 1178 0 
L 603 0 
L 603 4863 
z
" transform="scale(0.015625)"/>
      </defs>
      <use xlink:href="#DejaVuSans-47"/>
      <use xlink:href="#DejaVuSans-61" x="77.490234"/>
      <use xlink:href="#DejaVuSans-6d" x="138.769531"/>
      <use xlink:href="#DejaVuSans-65" x="236.181641"/>
      <use xlink:href="#DejaVuSans-20" x="297.705078"/>
      <use xlink:href="#DejaVuSans-53" x="329.492188"/>
      <use xlink:href="#DejaVuSans-6f" x="392.96875"/>
      <use xlink:href="#DejaVuSans-6c" x="454.150391"/>
      <use xlink:href="#DejaVuSans-76" x="481.933594"/>
      <use xlink:href="#DejaVuSans-65" x="541.113281"/>
      <use xlink:href="#DejaVuSans-64" x="602.636719"/>
     </g>
    </g>
   </g>
  </g>
  <g id="axes_2">
   <g id="matplotlib.axis_3">
    <g id="ytick_8">
     <g id="line2d_23">
      <defs>
       <path id="m2fd3d94338" d="M 0 0 
L 3.5 0 
" style="stroke: #000000; stroke-width: 0.8"/>
      </defs>
      <g>
       <use xlink:href="#m2fd3d94338" x="451.2" y="299.454545" style="stroke: #000000; stroke-width: 0.8"/>
      </g>
     </g>
     <g id="text_22">
      <!-- 0.0 -->
      <g transform="translate(458.2 303.253764)scale(0.1 -0.1)">
       <defs>
        <path id="DejaVuSans-2e" d="M 684 794 
L 1344 794 
L 1344 0 
L 684 0 
L 684 794 
z
" transform="scale(0.015625)"/>
       </defs>
       <use xlink:href="#DejaVuSans-30"/>
       <use xlink:href="#DejaVuSans-2e" x="63.623047"/>
       <use xlink:href="#DejaVuSans-30" x="95.410156"/>
      </g>
     </g>
    </g>
    <g id="ytick_9">
     <g id="line2d_24">
      <g>
       <use xlink:href="#m2fd3d94338" x="451.2" y="244.472727" style="stroke: #000000; stroke-width: 0.8"/>
      </g>
     </g>
     <g id="text_23">
      <!-- 0.2 -->
      <g transform="translate(458.2 248.271946)scale(0.1 -0.1)">
       <use xlink:href="#DejaVuSans-30"/>
       <use xlink:href="#DejaVuSans-2e" x="63.623047"/>
       <use xlink:href="#DejaVuSans-32" x="95.410156"/>
      </g>
     </g>
    </g>
    <g id="ytick_10">
     <g id="line2d_25">
      <g>
       <use xlink:href="#m2fd3d94338" x="451.2" y="189.490909" style="stroke: #000000; stroke-width: 0.8"/>
      </g>
     </g>
     <g id="text_24">
      <!-- 0.4 -->
      <g transform="translate(458.2 193.290128)scale(0.1 -0.1)">
       <use xlink:href="#DejaVuSans-30"/>
       <use xlink:href="#DejaVuSans-2e" x="63.623047"/>
       <use xlink:href="#DejaVuSans-34" x="95.410156"/>
      </g>
     </g>
    </g>
    <g id="ytick_11">
     <g id="line2d_26">
      <g>
       <use xlink:href="#m2fd3d94338" x="451.2" y="134.509091" style="stroke: #000000; stroke-width: 0.8"/>
      </g>
     </g>
     <g id="text_25">
      <!-- 0.6 -->
      <g transform="translate(458.2 138.30831)scale(0.1 -0.1)">
       <use xlink:href="#DejaVuSans-30"/>
       <use xlink:href="#DejaVuSans-2e" x="63.623047"/>
       <use xlink:href="#DejaVuSans-36" x="95.410156"/>
      </g>
     </g>
    </g>
    <g id="ytick_12">
     <g id="line2d_27">
      <g>
       <use xlink:href="#m2fd3d94338" x="451.2" y="79.527273" style="stroke: #000000; stroke-width: 0.8"/>
      </g>
     </g>
     <g id="text_26">
      <!-- 0.8 -->
      <g transform="translate(458.2 83.326491)scale(0.1 -0.1)">
       <defs>
        <path id="DejaVuSans-38" d="M 2034 2216 
Q 1584 2216 1326 1975 
Q 1069 1734 1069 1313 
Q 1069 891 1326 650 
Q 1584 409 2034 409 
Q 2484 409 2743 651 
Q 3003 894 3003 1313 
Q 3003 1734 2745 1975 
Q 2488 2216 2034 2216 
z
M 1403 2484 
Q 997 2584 770 2862 
Q 544 3141 544 3541 
Q 544 4100 942 4425 
Q 1341 4750 2034 4750 
Q 2731 4750 3128 4425 
Q 3525 4100 3525 3541 
Q 3525 3141 3298 2862 
Q 3072 2584 2669 2484 
Q 3125 2378 3379 2068 
Q 3634 1759 3634 1313 
Q 3634 634 3220 271 
Q 2806 -91 2034 -91 
Q 1263 -91 848 271 
Q 434 634 434 1313 
Q 434 1759 690 2068 
Q 947 2378 1403 2484 
z
M 1172 3481 
Q 1172 3119 1398 2916 
Q 1625 2713 2034 2713 
Q 2441 2713 2670 2916 
Q 2900 3119 2900 3481 
Q 2900 3844 2670 4047 
Q 2441 4250 2034 4250 
Q 1625 4250 1398 4047 
Q 1172 3844 1172 3481 
z
" transform="scale(0.015625)"/>
       </defs>
       <use xlink:href="#DejaVuSans-30"/>
       <use xlink:href="#DejaVuSans-2e" x="63.623047"/>
       <use xlink:href="#DejaVuSans-38" x="95.410156"/>
      </g>
     </g>
    </g>
    <g id="ytick_13">
     <g id="line2d_28">
      <g>
       <use xlink:href="#m2fd3d94338" x="451.2" y="24.545455" style="stroke: #000000; stroke-width: 0.8"/>
      </g>
     </g>
     <g id="text_27">
      <!-- 1.0 -->
      <g transform="translate(458.2 28.344673)scale(0.1 -0.1)">
       <use xlink:href="#DejaVuSans-31"/>
       <use xlink:href="#DejaVuSans-2e" x="63.623047"/>
       <use xlink:href="#DejaVuSans-30" x="95.410156"/>
      </g>
     </g>
    </g>
    <g id="text_28">
     <!-- Epsilon -->
     <g transform="translate(489.500781 188.916797)rotate(-90)scale(0.15 -0.15)">
      <use xlink:href="#DejaVuSans-45"/>
      <use xlink:href="#DejaVuSans-70" x="63.183594"/>
      <use xlink:href="#DejaVuSans-73" x="126.660156"/>
      <use xlink:href="#DejaVuSans-69" x="178.759766"/>
      <use xlink:href="#DejaVuSans-6c" x="206.542969"/>
      <use xlink:href="#DejaVuSans-6f" x="234.326172"/>
      <use xlink:href="#DejaVuSans-6e" x="295.507812"/>
     </g>
    </g>
   </g>
   <g id="line2d_29">
    <path d="M 73.892045 24.545455 
L 118.021631 24.545455 
L 118.922235 107.018182 
L 185.566914 107.018182 
L 186.467518 162 
L 275.627293 162 
L 276.527896 299.454545 
L 433.232955 299.454545 
L 433.232955 299.454545 
" clip-path="url(#pec2727a2ef)" style="fill: none; stroke: #ff0000; stroke-width: 1.5; stroke-linecap: square"/>
   </g>
   <g id="patch_8">
    <path d="M 55.925 313.2 
L 55.925 10.8 
" style="fill: none; stroke: #000000; stroke-width: 0.8; stroke-linejoin: miter; stroke-linecap: square"/>
   </g>
   <g id="patch_9">
    <path d="M 451.2 313.2 
L 451.2 10.8 
" style="fill: none; stroke: #000000; stroke-width: 0.8; stroke-linejoin: miter; stroke-linecap: square"/>
   </g>
   <g id="patch_10">
    <path d="M 55.925 313.2 
L 451.2 313.2 
" style="fill: none; stroke: #000000; stroke-width: 0.8; stroke-linejoin: miter; stroke-linecap: square"/>
   </g>
   <g id="patch_11">
    <path d="M 55.925 10.8 
L 451.2 10.8 
" style="fill: none; stroke: #000000; stroke-width: 0.8; stroke-linejoin: miter; stroke-linecap: square"/>
   </g>
   <g id="legend_2">
    <g id="patch_12">
     <path d="M 62.925 33.478125 
L 130.814063 33.478125 
Q 132.814063 33.478125 132.814063 31.478125 
L 132.814063 17.8 
Q 132.814063 15.8 130.814063 15.8 
L 62.925 15.8 
Q 60.925 15.8 60.925 17.8 
L 60.925 31.478125 
Q 60.925 33.478125 62.925 33.478125 
z
" style="fill: #ffffff; opacity: 0.8; stroke: #cccccc; stroke-linejoin: miter"/>
    </g>
    <g id="line2d_30">
     <path d="M 64.925 23.898438 
L 74.925 23.898438 
L 84.925 23.898438 
" style="fill: none; stroke: #ff0000; stroke-width: 1.5; stroke-linecap: square"/>
    </g>
    <g id="text_29">
     <!-- Epsilon -->
     <g transform="translate(92.925 27.398438)scale(0.1 -0.1)">
      <use xlink:href="#DejaVuSans-45"/>
      <use xlink:href="#DejaVuSans-70" x="63.183594"/>
      <use xlink:href="#DejaVuSans-73" x="126.660156"/>
      <use xlink:href="#DejaVuSans-69" x="178.759766"/>
      <use xlink:href="#DejaVuSans-6c" x="206.542969"/>
      <use xlink:href="#DejaVuSans-6f" x="234.326172"/>
      <use xlink:href="#DejaVuSans-6e" x="295.507812"/>
     </g>
    </g>
   </g>
  </g>
 </g>
 <defs>
  <clipPath id="pec2727a2ef">
   <rect x="55.925" y="10.8" width="395.275" height="302.4"/>
  </clipPath>
 </defs>
</svg>
