<?xml version="1.0" encoding="utf-8" standalone="no"?>
<!DOCTYPE svg PUBLIC "-//W3C//DTD SVG 1.1//EN"
  "http://www.w3.org/Graphics/SVG/1.1/DTD/svg11.dtd">
<svg xmlns:xlink="http://www.w3.org/1999/xlink" width="504pt" height="360pt" viewBox="0 0 504 360" xmlns="http://www.w3.org/2000/svg" version="1.1">
 <metadata>
  <rdf:RDF xmlns:dc="http://purl.org/dc/elements/1.1/" xmlns:cc="http://creativecommons.org/ns#" xmlns:rdf="http://www.w3.org/1999/02/22-rdf-syntax-ns#">
   <cc:Work>
    <dc:type rdf:resource="http://purl.org/dc/dcmitype/StillImage"/>
    <dc:date>2022-07-28T16:32:59.536561</dc:date>
    <dc:format>image/svg+xml</dc:format>
    <dc:creator>
     <cc:Agent>
      <dc:title>Matplotlib v3.5.1, https://matplotlib.org/</dc:title>
     </cc:Agent>
    </dc:creator>
   </cc:Work>
  </rdf:RDF>
 </metadata>
 <defs>
  <style type="text/css">*{stroke-linejoin: round; stroke-linecap: butt}</style>
 </defs>
 <g id="figure_1">
  <g id="patch_1">
   <path d="M 0 360 
L 504 360 
L 504 0 
L 0 0 
L 0 360 
z
" style="fill: none"/>
  </g>
  <g id="axes_1">
   <g id="patch_2">
    <path d="M 55.925 313.2 
L 460.825 313.2 
L 460.825 28.8 
L 55.925 28.8 
z
" style="fill: #ffffff"/>
   </g>
   <g id="matplotlib.axis_1">
    <g id="xtick_1">
     <g id="line2d_1">
      <defs>
       <path id="me09bd4b0bd" d="M 0 0 
L 0 3.5 
" style="stroke: #000000; stroke-width: 0.8"/>
      </defs>
      <g>
       <use xlink:href="#me09bd4b0bd" x="74.329545" y="313.2" style="stroke: #000000; stroke-width: 0.8"/>
      </g>
     </g>
     <g id="text_1">
      <!-- 0 -->
      <g transform="translate(71.148295 327.798437)scale(0.1 -0.1)">
       <defs>
        <path id="DejaVuSans-30" d="M 2034 4250 
Q 1547 4250 1301 3770 
Q 1056 3291 1056 2328 
Q 1056 1369 1301 889 
Q 1547 409 2034 409 
Q 2525 409 2770 889 
Q 3016 1369 3016 2328 
Q 3016 3291 2770 3770 
Q 2525 4250 2034 4250 
z
M 2034 4750 
Q 2819 4750 3233 4129 
Q 3647 3509 3647 2328 
Q 3647 1150 3233 529 
Q 2819 -91 2034 -91 
Q 1250 -91 836 529 
Q 422 1150 422 2328 
Q 422 3509 836 4129 
Q 1250 4750 2034 4750 
z
" transform="scale(0.015625)"/>
       </defs>
       <use xlink:href="#DejaVuSans-30"/>
      </g>
     </g>
    </g>
    <g id="xtick_2">
     <g id="line2d_2">
      <g>
       <use xlink:href="#me09bd4b0bd" x="148.095259" y="313.2" style="stroke: #000000; stroke-width: 0.8"/>
      </g>
     </g>
     <g id="text_2">
      <!-- 100 -->
      <g transform="translate(138.551509 327.798437)scale(0.1 -0.1)">
       <defs>
        <path id="DejaVuSans-31" d="M 794 531 
L 1825 531 
L 1825 4091 
L 703 3866 
L 703 4441 
L 1819 4666 
L 2450 4666 
L 2450 531 
L 3481 531 
L 3481 0 
L 794 0 
L 794 531 
z
" transform="scale(0.015625)"/>
       </defs>
       <use xlink:href="#DejaVuSans-31"/>
       <use xlink:href="#DejaVuSans-30" x="63.623047"/>
       <use xlink:href="#DejaVuSans-30" x="127.246094"/>
      </g>
     </g>
    </g>
    <g id="xtick_3">
     <g id="line2d_3">
      <g>
       <use xlink:href="#me09bd4b0bd" x="221.860972" y="313.2" style="stroke: #000000; stroke-width: 0.8"/>
      </g>
     </g>
     <g id="text_3">
      <!-- 200 -->
      <g transform="translate(212.317222 327.798437)scale(0.1 -0.1)">
       <defs>
        <path id="DejaVuSans-32" d="M 1228 531 
L 3431 531 
L 3431 0 
L 469 0 
L 469 531 
Q 828 903 1448 1529 
Q 2069 2156 2228 2338 
Q 2531 2678 2651 2914 
Q 2772 3150 2772 3378 
Q 2772 3750 2511 3984 
Q 2250 4219 1831 4219 
Q 1534 4219 1204 4116 
Q 875 4013 500 3803 
L 500 4441 
Q 881 4594 1212 4672 
Q 1544 4750 1819 4750 
Q 2544 4750 2975 4387 
Q 3406 4025 3406 3419 
Q 3406 3131 3298 2873 
Q 3191 2616 2906 2266 
Q 2828 2175 2409 1742 
Q 1991 1309 1228 531 
z
" transform="scale(0.015625)"/>
       </defs>
       <use xlink:href="#DejaVuSans-32"/>
       <use xlink:href="#DejaVuSans-30" x="63.623047"/>
       <use xlink:href="#DejaVuSans-30" x="127.246094"/>
      </g>
     </g>
    </g>
    <g id="xtick_4">
     <g id="line2d_4">
      <g>
       <use xlink:href="#me09bd4b0bd" x="295.626685" y="313.2" style="stroke: #000000; stroke-width: 0.8"/>
      </g>
     </g>
     <g id="text_4">
      <!-- 300 -->
      <g transform="translate(286.082935 327.798437)scale(0.1 -0.1)">
       <defs>
        <path id="DejaVuSans-33" d="M 2597 2516 
Q 3050 2419 3304 2112 
Q 3559 1806 3559 1356 
Q 3559 666 3084 287 
Q 2609 -91 1734 -91 
Q 1441 -91 1130 -33 
Q 819 25 488 141 
L 488 750 
Q 750 597 1062 519 
Q 1375 441 1716 441 
Q 2309 441 2620 675 
Q 2931 909 2931 1356 
Q 2931 1769 2642 2001 
Q 2353 2234 1838 2234 
L 1294 2234 
L 1294 2753 
L 1863 2753 
Q 2328 2753 2575 2939 
Q 2822 3125 2822 3475 
Q 2822 3834 2567 4026 
Q 2313 4219 1838 4219 
Q 1578 4219 1281 4162 
Q 984 4106 628 3988 
L 628 4550 
Q 988 4650 1302 4700 
Q 1616 4750 1894 4750 
Q 2613 4750 3031 4423 
Q 3450 4097 3450 3541 
Q 3450 3153 3228 2886 
Q 3006 2619 2597 2516 
z
" transform="scale(0.015625)"/>
       </defs>
       <use xlink:href="#DejaVuSans-33"/>
       <use xlink:href="#DejaVuSans-30" x="63.623047"/>
       <use xlink:href="#DejaVuSans-30" x="127.246094"/>
      </g>
     </g>
    </g>
    <g id="xtick_5">
     <g id="line2d_5">
      <g>
       <use xlink:href="#me09bd4b0bd" x="369.392398" y="313.2" style="stroke: #000000; stroke-width: 0.8"/>
      </g>
     </g>
     <g id="text_5">
      <!-- 400 -->
      <g transform="translate(359.848648 327.798437)scale(0.1 -0.1)">
       <defs>
        <path id="DejaVuSans-34" d="M 2419 4116 
L 825 1625 
L 2419 1625 
L 2419 4116 
z
M 2253 4666 
L 3047 4666 
L 3047 1625 
L 3713 1625 
L 3713 1100 
L 3047 1100 
L 3047 0 
L 2419 0 
L 2419 1100 
L 313 1100 
L 313 1709 
L 2253 4666 
z
" transform="scale(0.015625)"/>
       </defs>
       <use xlink:href="#DejaVuSans-34"/>
       <use xlink:href="#DejaVuSans-30" x="63.623047"/>
       <use xlink:href="#DejaVuSans-30" x="127.246094"/>
      </g>
     </g>
    </g>
    <g id="xtick_6">
     <g id="line2d_6">
      <g>
       <use xlink:href="#me09bd4b0bd" x="443.158112" y="313.2" style="stroke: #000000; stroke-width: 0.8"/>
      </g>
     </g>
     <g id="text_6">
      <!-- 500 -->
      <g transform="translate(433.614362 327.798437)scale(0.1 -0.1)">
       <defs>
        <path id="DejaVuSans-35" d="M 691 4666 
L 3169 4666 
L 3169 4134 
L 1269 4134 
L 1269 2991 
Q 1406 3038 1543 3061 
Q 1681 3084 1819 3084 
Q 2600 3084 3056 2656 
Q 3513 2228 3513 1497 
Q 3513 744 3044 326 
Q 2575 -91 1722 -91 
Q 1428 -91 1123 -41 
Q 819 9 494 109 
L 494 744 
Q 775 591 1075 516 
Q 1375 441 1709 441 
Q 2250 441 2565 725 
Q 2881 1009 2881 1497 
Q 2881 1984 2565 2268 
Q 2250 2553 1709 2553 
Q 1456 2553 1204 2497 
Q 953 2441 691 2322 
L 691 4666 
z
" transform="scale(0.015625)"/>
       </defs>
       <use xlink:href="#DejaVuSans-35"/>
       <use xlink:href="#DejaVuSans-30" x="63.623047"/>
       <use xlink:href="#DejaVuSans-30" x="127.246094"/>
      </g>
     </g>
    </g>
    <g id="text_7">
     <!-- Episode -->
     <g transform="translate(228.91875 345.275781)scale(0.15 -0.15)">
      <defs>
       <path id="DejaVuSans-45" d="M 628 4666 
L 3578 4666 
L 3578 4134 
L 1259 4134 
L 1259 2753 
L 3481 2753 
L 3481 2222 
L 1259 2222 
L 1259 531 
L 3634 531 
L 3634 0 
L 628 0 
L 628 4666 
z
" transform="scale(0.015625)"/>
       <path id="DejaVuSans-70" d="M 1159 525 
L 1159 -1331 
L 581 -1331 
L 581 3500 
L 1159 3500 
L 1159 2969 
Q 1341 3281 1617 3432 
Q 1894 3584 2278 3584 
Q 2916 3584 3314 3078 
Q 3713 2572 3713 1747 
Q 3713 922 3314 415 
Q 2916 -91 2278 -91 
Q 1894 -91 1617 61 
Q 1341 213 1159 525 
z
M 3116 1747 
Q 3116 2381 2855 2742 
Q 2594 3103 2138 3103 
Q 1681 3103 1420 2742 
Q 1159 2381 1159 1747 
Q 1159 1113 1420 752 
Q 1681 391 2138 391 
Q 2594 391 2855 752 
Q 3116 1113 3116 1747 
z
" transform="scale(0.015625)"/>
       <path id="DejaVuSans-69" d="M 603 3500 
L 1178 3500 
L 1178 0 
L 603 0 
L 603 3500 
z
M 603 4863 
L 1178 4863 
L 1178 4134 
L 603 4134 
L 603 4863 
z
" transform="scale(0.015625)"/>
       <path id="DejaVuSans-73" d="M 2834 3397 
L 2834 2853 
Q 2591 2978 2328 3040 
Q 2066 3103 1784 3103 
Q 1356 3103 1142 2972 
Q 928 2841 928 2578 
Q 928 2378 1081 2264 
Q 1234 2150 1697 2047 
L 1894 2003 
Q 2506 1872 2764 1633 
Q 3022 1394 3022 966 
Q 3022 478 2636 193 
Q 2250 -91 1575 -91 
Q 1294 -91 989 -36 
Q 684 19 347 128 
L 347 722 
Q 666 556 975 473 
Q 1284 391 1588 391 
Q 1994 391 2212 530 
Q 2431 669 2431 922 
Q 2431 1156 2273 1281 
Q 2116 1406 1581 1522 
L 1381 1569 
Q 847 1681 609 1914 
Q 372 2147 372 2553 
Q 372 3047 722 3315 
Q 1072 3584 1716 3584 
Q 2034 3584 2315 3537 
Q 2597 3491 2834 3397 
z
" transform="scale(0.015625)"/>
       <path id="DejaVuSans-6f" d="M 1959 3097 
Q 1497 3097 1228 2736 
Q 959 2375 959 1747 
Q 959 1119 1226 758 
Q 1494 397 1959 397 
Q 2419 397 2687 759 
Q 2956 1122 2956 1747 
Q 2956 2369 2687 2733 
Q 2419 3097 1959 3097 
z
M 1959 3584 
Q 2709 3584 3137 3096 
Q 3566 2609 3566 1747 
Q 3566 888 3137 398 
Q 2709 -91 1959 -91 
Q 1206 -91 779 398 
Q 353 888 353 1747 
Q 353 2609 779 3096 
Q 1206 3584 1959 3584 
z
" transform="scale(0.015625)"/>
       <path id="DejaVuSans-64" d="M 2906 2969 
L 2906 4863 
L 3481 4863 
L 3481 0 
L 2906 0 
L 2906 525 
Q 2725 213 2448 61 
Q 2172 -91 1784 -91 
Q 1150 -91 751 415 
Q 353 922 353 1747 
Q 353 2572 751 3078 
Q 1150 3584 1784 3584 
Q 2172 3584 2448 3432 
Q 2725 3281 2906 2969 
z
M 947 1747 
Q 947 1113 1208 752 
Q 1469 391 1925 391 
Q 2381 391 2643 752 
Q 2906 1113 2906 1747 
Q 2906 2381 2643 2742 
Q 2381 3103 1925 3103 
Q 1469 3103 1208 2742 
Q 947 2381 947 1747 
z
" transform="scale(0.015625)"/>
       <path id="DejaVuSans-65" d="M 3597 1894 
L 3597 1613 
L 953 1613 
Q 991 1019 1311 708 
Q 1631 397 2203 397 
Q 2534 397 2845 478 
Q 3156 559 3463 722 
L 3463 178 
Q 3153 47 2828 -22 
Q 2503 -91 2169 -91 
Q 1331 -91 842 396 
Q 353 884 353 1716 
Q 353 2575 817 3079 
Q 1281 3584 2069 3584 
Q 2775 3584 3186 3129 
Q 3597 2675 3597 1894 
z
M 3022 2063 
Q 3016 2534 2758 2815 
Q 2500 3097 2075 3097 
Q 1594 3097 1305 2825 
Q 1016 2553 972 2059 
L 3022 2063 
z
" transform="scale(0.015625)"/>
      </defs>
      <use xlink:href="#DejaVuSans-45"/>
      <use xlink:href="#DejaVuSans-70" x="63.183594"/>
      <use xlink:href="#DejaVuSans-69" x="126.660156"/>
      <use xlink:href="#DejaVuSans-73" x="154.443359"/>
      <use xlink:href="#DejaVuSans-6f" x="206.542969"/>
      <use xlink:href="#DejaVuSans-64" x="267.724609"/>
      <use xlink:href="#DejaVuSans-65" x="331.201172"/>
     </g>
    </g>
   </g>
   <g id="matplotlib.axis_2">
    <g id="ytick_1">
     <g id="line2d_7">
      <defs>
       <path id="m71303896f1" d="M 0 0 
L -3.5 0 
" style="stroke: #000000; stroke-width: 0.8"/>
      </defs>
      <g>
       <use xlink:href="#m71303896f1" x="55.925" y="313.2" style="stroke: #000000; stroke-width: 0.8"/>
      </g>
     </g>
     <g id="text_8">
      <!-- 0 -->
      <g transform="translate(42.5625 316.999219)scale(0.1 -0.1)">
       <use xlink:href="#DejaVuSans-30"/>
      </g>
     </g>
    </g>
    <g id="ytick_2">
     <g id="line2d_8">
      <g>
       <use xlink:href="#m71303896f1" x="55.925" y="269.446154" style="stroke: #000000; stroke-width: 0.8"/>
      </g>
     </g>
     <g id="text_9">
      <!-- 100 -->
      <g transform="translate(29.8375 273.245373)scale(0.1 -0.1)">
       <use xlink:href="#DejaVuSans-31"/>
       <use xlink:href="#DejaVuSans-30" x="63.623047"/>
       <use xlink:href="#DejaVuSans-30" x="127.246094"/>
      </g>
     </g>
    </g>
    <g id="ytick_3">
     <g id="line2d_9">
      <g>
       <use xlink:href="#m71303896f1" x="55.925" y="225.692308" style="stroke: #000000; stroke-width: 0.8"/>
      </g>
     </g>
     <g id="text_10">
      <!-- 200 -->
      <g transform="translate(29.8375 229.491526)scale(0.1 -0.1)">
       <use xlink:href="#DejaVuSans-32"/>
       <use xlink:href="#DejaVuSans-30" x="63.623047"/>
       <use xlink:href="#DejaVuSans-30" x="127.246094"/>
      </g>
     </g>
    </g>
    <g id="ytick_4">
     <g id="line2d_10">
      <g>
       <use xlink:href="#m71303896f1" x="55.925" y="181.938462" style="stroke: #000000; stroke-width: 0.8"/>
      </g>
     </g>
     <g id="text_11">
      <!-- 300 -->
      <g transform="translate(29.8375 185.73768)scale(0.1 -0.1)">
       <use xlink:href="#DejaVuSans-33"/>
       <use xlink:href="#DejaVuSans-30" x="63.623047"/>
       <use xlink:href="#DejaVuSans-30" x="127.246094"/>
      </g>
     </g>
    </g>
    <g id="ytick_5">
     <g id="line2d_11">
      <g>
       <use xlink:href="#m71303896f1" x="55.925" y="138.184615" style="stroke: #000000; stroke-width: 0.8"/>
      </g>
     </g>
     <g id="text_12">
      <!-- 400 -->
      <g transform="translate(29.8375 141.983834)scale(0.1 -0.1)">
       <use xlink:href="#DejaVuSans-34"/>
       <use xlink:href="#DejaVuSans-30" x="63.623047"/>
       <use xlink:href="#DejaVuSans-30" x="127.246094"/>
      </g>
     </g>
    </g>
    <g id="ytick_6">
     <g id="line2d_12">
      <g>
       <use xlink:href="#m71303896f1" x="55.925" y="94.430769" style="stroke: #000000; stroke-width: 0.8"/>
      </g>
     </g>
     <g id="text_13">
      <!-- 500 -->
      <g transform="translate(29.8375 98.229988)scale(0.1 -0.1)">
       <use xlink:href="#DejaVuSans-35"/>
       <use xlink:href="#DejaVuSans-30" x="63.623047"/>
       <use xlink:href="#DejaVuSans-30" x="127.246094"/>
      </g>
     </g>
    </g>
    <g id="ytick_7">
     <g id="line2d_13">
      <g>
       <use xlink:href="#m71303896f1" x="55.925" y="50.676923" style="stroke: #000000; stroke-width: 0.8"/>
      </g>
     </g>
     <g id="text_14">
      <!-- 600 -->
      <g transform="translate(29.8375 54.476142)scale(0.1 -0.1)">
       <defs>
        <path id="DejaVuSans-36" d="M 2113 2584 
Q 1688 2584 1439 2293 
Q 1191 2003 1191 1497 
Q 1191 994 1439 701 
Q 1688 409 2113 409 
Q 2538 409 2786 701 
Q 3034 994 3034 1497 
Q 3034 2003 2786 2293 
Q 2538 2584 2113 2584 
z
M 3366 4563 
L 3366 3988 
Q 3128 4100 2886 4159 
Q 2644 4219 2406 4219 
Q 1781 4219 1451 3797 
Q 1122 3375 1075 2522 
Q 1259 2794 1537 2939 
Q 1816 3084 2150 3084 
Q 2853 3084 3261 2657 
Q 3669 2231 3669 1497 
Q 3669 778 3244 343 
Q 2819 -91 2113 -91 
Q 1303 -91 875 529 
Q 447 1150 447 2328 
Q 447 3434 972 4092 
Q 1497 4750 2381 4750 
Q 2619 4750 2861 4703 
Q 3103 4656 3366 4563 
z
" transform="scale(0.015625)"/>
       </defs>
       <use xlink:href="#DejaVuSans-36"/>
       <use xlink:href="#DejaVuSans-30" x="63.623047"/>
       <use xlink:href="#DejaVuSans-30" x="127.246094"/>
      </g>
     </g>
    </g>
    <g id="text_15">
     <!-- Score -->
     <g transform="translate(22.717969 192.003516)rotate(-90)scale(0.15 -0.15)">
      <defs>
       <path id="DejaVuSans-53" d="M 3425 4513 
L 3425 3897 
Q 3066 4069 2747 4153 
Q 2428 4238 2131 4238 
Q 1616 4238 1336 4038 
Q 1056 3838 1056 3469 
Q 1056 3159 1242 3001 
Q 1428 2844 1947 2747 
L 2328 2669 
Q 3034 2534 3370 2195 
Q 3706 1856 3706 1288 
Q 3706 609 3251 259 
Q 2797 -91 1919 -91 
Q 1588 -91 1214 -16 
Q 841 59 441 206 
L 441 856 
Q 825 641 1194 531 
Q 1563 422 1919 422 
Q 2459 422 2753 634 
Q 3047 847 3047 1241 
Q 3047 1584 2836 1778 
Q 2625 1972 2144 2069 
L 1759 2144 
Q 1053 2284 737 2584 
Q 422 2884 422 3419 
Q 422 4038 858 4394 
Q 1294 4750 2059 4750 
Q 2388 4750 2728 4690 
Q 3069 4631 3425 4513 
z
" transform="scale(0.015625)"/>
       <path id="DejaVuSans-63" d="M 3122 3366 
L 3122 2828 
Q 2878 2963 2633 3030 
Q 2388 3097 2138 3097 
Q 1578 3097 1268 2742 
Q 959 2388 959 1747 
Q 959 1106 1268 751 
Q 1578 397 2138 397 
Q 2388 397 2633 464 
Q 2878 531 3122 666 
L 3122 134 
Q 2881 22 2623 -34 
Q 2366 -91 2075 -91 
Q 1284 -91 818 406 
Q 353 903 353 1747 
Q 353 2603 823 3093 
Q 1294 3584 2113 3584 
Q 2378 3584 2631 3529 
Q 2884 3475 3122 3366 
z
" transform="scale(0.015625)"/>
       <path id="DejaVuSans-72" d="M 2631 2963 
Q 2534 3019 2420 3045 
Q 2306 3072 2169 3072 
Q 1681 3072 1420 2755 
Q 1159 2438 1159 1844 
L 1159 0 
L 581 0 
L 581 3500 
L 1159 3500 
L 1159 2956 
Q 1341 3275 1631 3429 
Q 1922 3584 2338 3584 
Q 2397 3584 2469 3576 
Q 2541 3569 2628 3553 
L 2631 2963 
z
" transform="scale(0.015625)"/>
      </defs>
      <use xlink:href="#DejaVuSans-53"/>
      <use xlink:href="#DejaVuSans-63" x="63.476562"/>
      <use xlink:href="#DejaVuSans-6f" x="118.457031"/>
      <use xlink:href="#DejaVuSans-72" x="179.638672"/>
      <use xlink:href="#DejaVuSans-65" x="218.501953"/>
     </g>
    </g>
   </g>
   <g id="line2d_14">
    <path d="M 74.329545 307.949538 
L 75.067203 305.324308 
L 75.80486 290.885538 
L 76.542517 296.573538 
L 77.280174 304.011692 
L 78.017831 303.574154 
L 78.755488 304.011692 
L 79.493145 298.323692 
L 80.230803 305.324308 
L 80.96846 307.074462 
L 81.706117 304.449231 
L 82.443774 305.324308 
L 83.181431 304.449231 
L 83.919088 304.449231 
L 84.656745 301.824 
L 85.394402 305.324308 
L 86.13206 304.011692 
L 86.869717 306.636923 
L 87.607374 308.824615 
L 88.345031 301.824 
L 89.082688 303.574154 
L 89.820345 295.698462 
L 90.558002 301.824 
L 91.29566 299.198769 
L 92.033317 306.636923 
L 92.770974 305.324308 
L 93.508631 307.949538 
L 94.246288 306.636923 
L 94.983945 305.761846 
L 95.721602 299.198769 
L 96.459259 302.699077 
L 97.196917 307.512 
L 97.934574 300.511385 
L 98.672231 308.387077 
L 99.409888 293.948308 
L 100.147545 303.574154 
L 100.885202 306.636923 
L 101.622859 303.574154 
L 102.360516 302.699077 
L 103.098174 303.136615 
L 103.835831 306.199385 
L 104.573488 303.574154 
L 105.311145 308.387077 
L 106.048802 304.011692 
L 106.786459 306.199385 
L 107.524116 292.198154 
L 108.261774 302.261538 
L 108.999431 283.884923 
L 109.737088 297.448615 
L 110.474745 306.636923 
L 111.212402 283.884923 
L 111.950059 307.949538 
L 112.687716 305.761846 
L 113.425373 307.949538 
L 114.163031 305.761846 
L 114.900688 304.886769 
L 115.638345 283.447385 
L 116.376002 288.697846 
L 117.113659 305.761846 
L 117.851316 304.011692 
L 118.588973 297.448615 
L 119.326631 307.949538 
L 120.064288 299.636308 
L 120.801945 305.324308 
L 121.539602 308.824615 
L 122.277259 297.886154 
L 123.014916 308.387077 
L 123.752573 299.636308 
L 124.49023 305.324308 
L 125.227888 301.824 
L 125.965545 307.512 
L 126.703202 307.949538 
L 127.440859 290.010462 
L 128.178516 307.074462 
L 128.916173 305.761846 
L 129.65383 306.199385 
L 130.391488 300.948923 
L 131.129145 305.324308 
L 131.866802 295.698462 
L 133.342116 307.512 
L 134.079773 305.761846 
L 134.81743 307.074462 
L 135.555087 304.886769 
L 136.292745 309.262154 
L 137.030402 294.823385 
L 137.768059 286.510154 
L 138.505716 303.574154 
L 139.243373 308.824615 
L 139.98103 306.199385 
L 140.718687 304.011692 
L 141.456345 305.761846 
L 142.194002 306.636923 
L 142.931659 297.448615 
L 143.669316 300.073846 
L 144.406973 304.886769 
L 145.14463 282.134769 
L 145.882287 308.387077 
L 146.619944 304.449231 
L 147.357602 303.136615 
L 148.095259 302.699077 
L 148.832916 304.449231 
L 149.570573 300.511385 
L 150.30823 301.824 
L 151.045887 307.949538 
L 151.783544 304.886769 
L 152.521201 307.949538 
L 153.258859 302.699077 
L 153.996516 307.512 
L 154.734173 297.886154 
L 155.47183 293.510769 
L 156.209487 297.011077 
L 156.947144 306.199385 
L 157.684801 307.074462 
L 158.422459 305.324308 
L 159.160116 298.323692 
L 159.897773 298.323692 
L 160.63543 293.510769 
L 161.373087 306.636923 
L 162.110744 307.949538 
L 162.848401 306.199385 
L 163.586058 307.074462 
L 164.323716 302.699077 
L 165.061373 302.261538 
L 165.79903 305.761846 
L 166.536687 290.885538 
L 167.274344 297.011077 
L 168.012001 306.636923 
L 168.749658 295.260923 
L 169.487316 307.512 
L 170.224973 307.512 
L 170.96263 304.886769 
L 171.700287 299.636308 
L 172.437944 306.199385 
L 173.175601 297.448615 
L 173.913258 303.136615 
L 174.650915 304.449231 
L 175.388573 303.574154 
L 176.12623 308.387077 
L 176.863887 306.636923 
L 177.601544 308.387077 
L 178.339201 300.511385 
L 179.076858 304.011692 
L 179.814515 306.636923 
L 180.552173 296.573538 
L 181.28983 302.699077 
L 182.027487 303.574154 
L 182.765144 302.261538 
L 183.502801 304.886769 
L 184.978115 306.636923 
L 185.715772 307.074462 
L 186.45343 305.761846 
L 187.191087 307.949538 
L 187.928744 296.136 
L 188.666401 300.511385 
L 189.404058 307.949538 
L 190.141715 293.948308 
L 190.879372 298.323692 
L 191.61703 306.199385 
L 192.354687 287.385231 
L 193.092344 307.074462 
L 193.830001 308.824615 
L 194.567658 304.886769 
L 195.305315 304.886769 
L 196.042972 291.760615 
L 196.780629 308.824615 
L 197.518287 307.074462 
L 198.255944 301.386462 
L 198.993601 302.261538 
L 199.731258 307.949538 
L 200.468915 296.136 
L 201.206572 304.886769 
L 201.944229 299.636308 
L 202.681887 296.136 
L 203.419544 295.260923 
L 204.157201 307.949538 
L 204.894858 304.011692 
L 205.632515 294.385846 
L 206.370172 300.948923 
L 207.107829 305.761846 
L 207.845486 305.761846 
L 208.583144 307.949538 
L 209.320801 304.011692 
L 210.058458 298.761231 
L 210.796115 300.511385 
L 211.533772 273.821538 
L 212.271429 285.197538 
L 213.009086 307.512 
L 213.746743 309.699692 
L 214.484401 291.323077 
L 215.222058 302.261538 
L 215.959715 308.824615 
L 216.697372 306.199385 
L 218.172686 309.699692 
L 218.910343 304.011692 
L 219.648001 304.886769 
L 220.385658 305.324308 
L 221.123315 305.324308 
L 221.860972 304.011692 
L 222.598629 307.949538 
L 223.336286 290.885538 
L 224.073943 301.386462 
L 224.8116 306.636923 
L 225.549258 307.074462 
L 226.286915 309.262154 
L 227.024572 306.636923 
L 227.762229 300.948923 
L 228.499886 307.512 
L 229.237543 307.512 
L 230.712858 305.761846 
L 231.450515 303.574154 
L 232.188172 300.511385 
L 232.925829 293.948308 
L 233.663486 303.136615 
L 234.401143 307.512 
L 235.1388 298.761231 
L 235.876457 306.199385 
L 236.614115 306.636923 
L 237.351772 286.510154 
L 238.089429 301.386462 
L 238.827086 299.636308 
L 240.3024 286.510154 
L 241.040057 306.636923 
L 241.777715 307.949538 
L 242.515372 281.259692 
L 243.253029 281.697231 
L 243.990686 305.761846 
L 244.728343 304.449231 
L 245.466 302.261538 
L 246.203657 306.636923 
L 246.941314 307.074462 
L 247.678972 294.385846 
L 248.416629 307.949538 
L 249.154286 307.512 
L 249.891943 279.509538 
L 250.6296 307.949538 
L 251.367257 300.073846 
L 252.104914 307.074462 
L 252.842572 302.699077 
L 253.580229 279.072 
L 254.317886 296.573538 
L 255.055543 308.824615 
L 255.7932 301.386462 
L 256.530857 302.699077 
L 257.268514 300.073846 
L 258.006171 306.636923 
L 258.743829 306.199385 
L 259.481486 305.324308 
L 260.219143 300.948923 
L 260.9568 305.324308 
L 261.694457 306.199385 
L 262.432114 286.947692 
L 263.169771 307.949538 
L 263.907428 301.824 
L 264.645086 299.198769 
L 265.382743 307.949538 
L 266.1204 305.324308 
L 266.858057 300.948923 
L 267.595714 302.261538 
L 268.333371 287.822769 
L 269.071028 307.512 
L 269.808686 300.948923 
L 270.546343 290.885538 
L 271.284 293.510769 
L 272.759314 300.948923 
L 273.496971 293.510769 
L 274.234628 297.011077 
L 274.972285 308.387077 
L 275.709943 285.197538 
L 276.4476 302.261538 
L 277.185257 298.323692 
L 277.922914 306.199385 
L 278.660571 304.449231 
L 279.398228 303.574154 
L 280.135885 303.136615 
L 280.873543 306.199385 
L 281.6112 304.449231 
L 282.348857 299.636308 
L 283.086514 299.198769 
L 283.824171 275.134154 
L 284.561828 304.886769 
L 285.299485 303.136615 
L 286.037142 307.512 
L 286.7748 291.760615 
L 287.512457 301.824 
L 288.250114 284.76 
L 288.987771 290.010462 
L 289.725428 284.322462 
L 290.463085 299.636308 
L 291.200742 284.322462 
L 291.9384 308.387077 
L 292.676057 305.761846 
L 293.413714 304.886769 
L 294.151371 305.324308 
L 294.889028 288.697846 
L 295.626685 305.761846 
L 296.364342 288.260308 
L 297.101999 305.761846 
L 297.839657 304.886769 
L 298.577314 293.073231 
L 299.314971 304.449231 
L 300.052628 301.386462 
L 300.790285 291.760615 
L 301.527942 278.634462 
L 302.265599 287.822769 
L 303.003257 298.761231 
L 303.740914 300.073846 
L 304.478571 303.574154 
L 305.216228 305.761846 
L 305.953885 295.260923 
L 306.691542 286.510154 
L 307.429199 293.510769 
L 308.166856 297.886154 
L 308.904514 277.321846 
L 309.642171 276.009231 
L 310.379828 304.011692 
L 311.117485 301.386462 
L 311.855142 305.761846 
L 312.592799 295.260923 
L 313.330456 300.073846 
L 315.543428 275.134154 
L 316.281085 287.385231 
L 317.756399 305.761846 
L 318.494056 303.136615 
L 319.231713 304.449231 
L 319.969371 306.636923 
L 320.707028 277.759385 
L 321.444685 303.574154 
L 322.182342 298.761231 
L 322.919999 286.947692 
L 323.657656 302.699077 
L 324.395313 292.198154 
L 325.13297 302.261538 
L 325.870628 300.511385 
L 326.608285 301.386462 
L 327.345942 301.824 
L 328.083599 287.385231 
L 328.821256 290.010462 
L 329.558913 282.134769 
L 330.29657 304.449231 
L 331.034228 298.323692 
L 331.771885 294.385846 
L 332.509542 301.386462 
L 333.247199 301.824 
L 333.984856 295.260923 
L 334.722513 306.199385 
L 335.46017 301.386462 
L 336.197827 291.323077 
L 336.935485 302.699077 
L 337.673142 281.259692 
L 338.410799 304.886769 
L 339.148456 285.635077 
L 339.886113 274.696615 
L 340.62377 276.446769 
L 341.361427 260.695385 
L 342.099085 297.448615 
L 342.836742 262.008 
L 343.574399 293.510769 
L 344.312056 302.699077 
L 345.049713 285.197538 
L 345.78737 287.385231 
L 346.525027 271.196308 
L 347.262684 286.947692 
L 348.000342 291.323077 
L 348.737999 291.760615 
L 349.475656 257.632615 
L 350.213313 306.636923 
L 350.95097 288.697846 
L 351.688627 296.573538 
L 352.426284 305.761846 
L 353.163942 303.574154 
L 353.901599 303.136615 
L 354.639256 271.633846 
L 355.376913 283.447385 
L 356.11457 275.571692 
L 356.852227 301.386462 
L 357.589884 280.384615 
L 358.327541 270.758769 
L 359.065199 296.573538 
L 360.540513 301.824 
L 361.27817 300.073846 
L 362.015827 290.010462 
L 362.753484 301.386462 
L 363.491141 298.323692 
L 364.228799 304.449231 
L 364.966456 294.823385 
L 365.704113 294.823385 
L 366.44177 285.635077 
L 367.179427 283.447385 
L 367.917084 282.572308 
L 368.654741 283.009846 
L 369.392398 266.383385 
L 370.130056 285.635077 
L 370.867713 277.759385 
L 371.60537 266.820923 
L 372.343027 305.324308 
L 373.080684 291.760615 
L 373.818341 300.073846 
L 374.555998 303.574154 
L 375.293655 279.509538 
L 376.031313 248.444308 
L 376.76897 290.448 
L 377.506627 255.882462 
L 378.244284 307.949538 
L 378.981941 256.32 
L 379.719598 265.508308 
L 380.457255 294.385846 
L 381.93257 286.947692 
L 382.670227 302.699077 
L 383.407884 282.134769 
L 384.145541 249.756923 
L 384.883198 259.382769 
L 385.620855 279.947077 
L 386.358512 270.321231 
L 387.09617 282.134769 
L 387.833827 301.386462 
L 388.571484 231.817846 
L 389.309141 299.198769 
L 390.046798 258.507692 
L 390.784455 243.631385 
L 391.522112 254.132308 
L 392.25977 292.635692 
L 392.997427 272.946462 
L 393.735084 262.445538 
L 394.472741 303.136615 
L 395.210398 139.934769 
L 395.948055 256.32 
L 396.685712 264.633231 
L 397.423369 269.883692 
L 398.161027 238.818462 
L 398.898684 270.321231 
L 399.636341 274.696615 
L 400.373998 293.510769 
L 401.111655 279.509538 
L 401.849312 235.318154 
L 402.586969 222.629538 
L 403.324627 290.448 
L 404.062284 270.321231 
L 404.799941 301.386462 
L 405.537598 249.756923 
L 406.275255 298.761231 
L 407.012912 300.073846 
L 407.750569 270.321231 
L 408.488226 261.570462 
L 409.225884 264.195692 
L 409.963541 222.192 
L 410.701198 235.318154 
L 411.438855 282.572308 
L 412.176512 284.76 
L 412.914169 262.445538 
L 413.651826 299.636308 
L 414.389484 290.448 
L 415.127141 305.761846 
L 415.864798 289.572923 
L 416.602455 284.76 
L 417.340112 270.321231 
L 418.077769 293.510769 
L 418.815426 211.691077 
L 419.553083 265.508308 
L 420.290741 193.314462 
L 421.028398 263.758154 
L 421.766055 266.383385 
L 422.503712 278.634462 
L 423.241369 173.625231 
L 423.979026 276.009231 
L 424.716683 273.821538 
L 425.45434 276.446769 
L 426.191998 289.135385 
L 426.929655 279.509538 
L 427.667312 233.568 
L 428.404969 276.446769 
L 429.142626 258.507692 
L 429.880283 251.944615 
L 430.61794 279.947077 
L 431.355598 265.945846 
L 432.093255 274.259077 
L 432.830912 265.508308 
L 433.568569 304.011692 
L 434.306226 245.381538 
L 435.043883 296.136 
L 435.78154 304.449231 
L 436.519197 240.568615 
L 437.256855 244.068923 
L 437.994512 224.817231 
L 438.732169 285.635077 
L 439.469826 215.628923 
L 440.207483 238.818462 
L 440.94514 267.258462 
L 441.682797 265.945846 
L 442.420455 292.635692 
L 442.420455 292.635692 
" clip-path="url(#p470232a6cc)" style="fill: none; stroke: #708090; stroke-width: 1.5; stroke-linecap: square"/>
   </g>
   <g id="line2d_15">
    <path d="M 74.329545 302.909095 
L 75.067203 302.427803 
L 75.80486 302.480308 
L 77.280174 303.005354 
L 78.755488 303.066609 
L 79.493145 302.655323 
L 80.230803 302.462806 
L 81.706117 302.410302 
L 82.443774 302.270289 
L 83.181431 302.322794 
L 83.919088 302.226535 
L 84.656745 302.244037 
L 85.394402 302.384049 
L 86.13206 302.235286 
L 86.869717 302.322794 
L 88.345031 302.112775 
L 89.820345 302.191532 
L 90.558002 302.436554 
L 91.29566 302.200283 
L 92.033317 302.357797 
L 94.983945 302.191532 
L 95.721602 301.990265 
L 99.409888 302.16528 
L 100.147545 302.471557 
L 100.885202 302.296542 
L 101.622859 301.894006 
L 102.360516 301.894006 
L 103.835831 302.077772 
L 107.524116 301.788997 
L 108.261774 302.042769 
L 108.999431 301.640234 
L 109.737088 302.130277 
L 110.474745 302.270289 
L 111.212402 302.200283 
L 111.950059 302.576566 
L 115.638345 302.322794 
L 116.376002 302.812837 
L 117.113659 303.092862 
L 117.851316 303.127865 
L 120.064288 302.707828 
L 121.539602 302.874092 
L 125.227888 302.515311 
L 125.965545 302.637822 
L 127.440859 302.594068 
L 128.178516 302.84784 
L 129.65383 302.751582 
L 130.391488 302.445305 
L 131.866802 302.3928 
L 132.604459 302.384049 
L 133.342116 302.497809 
L 134.81743 302.480308 
L 135.555087 302.331545 
L 136.292745 302.357797 
L 137.030402 302.121526 
L 137.768059 302.287791 
L 138.505716 302.646572 
L 142.931659 302.576566 
L 143.669316 302.760332 
L 145.14463 302.646572 
L 145.882287 303.07536 
L 146.619944 302.952849 
L 148.095259 303.014105 
L 151.045887 303.372886 
L 151.783544 303.136615 
L 154.734173 302.690326 
L 155.47183 302.856591 
L 156.209487 302.73408 
L 156.947144 302.935348 
L 158.422459 302.944098 
L 159.160116 302.935348 
L 159.897773 302.804086 
L 161.373087 303.285378 
L 162.848401 303.066609 
L 163.586058 303.101612 
L 164.323716 302.882843 
L 165.79903 302.874092 
L 166.536687 302.681575 
L 167.274344 302.769083 
L 168.012001 302.987852 
L 171.700287 302.769083 
L 172.437944 302.935348 
L 174.650915 302.865342 
L 175.388573 302.252788 
L 176.12623 301.885255 
L 177.601544 301.929009 
L 178.339201 301.587729 
L 180.552173 301.71024 
L 182.027487 302.077772 
L 186.45343 302.104025 
L 187.191087 301.806498 
L 187.928744 301.675237 
L 189.404058 302.016517 
L 190.141715 302.042769 
L 190.879372 302.296542 
L 192.354687 302.375298 
L 193.092344 302.777834 
L 195.305315 302.681575 
L 196.042972 302.594068 
L 196.780629 302.637822 
L 197.518287 302.524062 
L 200.468915 302.532812 
L 201.206572 302.340295 
L 204.894858 302.016517 
L 205.632515 302.095274 
L 206.370172 301.832751 
L 207.107829 301.447717 
L 208.583144 301.421465 
L 209.320801 301.307705 
L 210.058458 301.360209 
L 210.796115 301.526474 
L 211.533772 301.403963 
L 212.271429 302.086523 
L 213.009086 302.532812 
L 213.746743 301.972763 
L 214.484401 301.93776 
L 215.959715 302.209034 
L 216.697372 302.086523 
L 217.435029 301.543975 
L 218.172686 301.316455 
L 220.385658 301.202695 
L 221.123315 301.097686 
L 223.336286 301.115188 
L 224.073943 301.316455 
L 225.549258 301.386462 
L 226.286915 300.983926 
L 229.9752 300.791409 
L 231.450515 300.607643 
L 232.188172 300.292615 
L 233.663486 300.57264 
L 235.1388 300.047594 
L 236.614115 299.907582 
L 237.351772 299.645058 
L 238.827086 299.995089 
L 239.564743 299.706314 
L 241.040057 300.1176 
L 242.515372 300.038843 
L 243.990686 300.91392 
L 246.203657 300.870166 
L 246.941314 300.721403 
L 247.678972 300.082597 
L 248.416629 300.292615 
L 249.891943 300.196357 
L 250.6296 300.441378 
L 251.367257 300.318868 
L 253.580229 299.303778 
L 254.317886 299.715065 
L 255.055543 299.470043 
L 256.530857 299.5488 
L 258.006171 299.697563 
L 258.743829 299.338782 
L 259.481486 299.330031 
L 260.219143 298.988751 
L 261.694457 299.076258 
L 262.432114 298.813735 
L 263.169771 299.163766 
L 264.645086 298.831237 
L 266.1204 298.017415 
L 266.858057 297.886154 
L 268.333371 297.894905 
L 269.071028 298.253686 
L 270.546343 297.719889 
L 272.021657 297.859902 
L 273.496971 296.967323 
L 274.234628 297.177342 
L 274.972285 297.264849 
L 275.709943 297.212345 
L 276.4476 297.413612 
L 277.922914 297.229846 
L 280.135885 295.847225 
L 280.873543 295.707212 
L 283.086514 295.768468 
L 284.561828 295.969735 
L 286.037142 295.855975 
L 286.7748 295.444689 
L 287.512457 295.663458 
L 288.250114 295.470942 
L 288.987771 295.820972 
L 289.725428 296.030991 
L 290.463085 296.372271 
L 291.9384 296.47728 
L 293.413714 295.637206 
L 294.151371 295.628455 
L 294.889028 295.488443 
L 295.626685 295.602203 
L 296.364342 295.514695 
L 297.101999 295.785969 
L 297.839657 295.575951 
L 298.577314 295.602203 
L 299.314971 295.768468 
L 300.052628 295.505945 
L 300.790285 295.532197 
L 301.527942 295.322178 
L 302.265599 295.847225 
L 303.003257 295.803471 
L 304.478571 294.849637 
L 305.216228 293.992062 
L 305.953885 293.825797 
L 306.691542 293.160738 
L 308.166856 293.484517 
L 308.904514 293.230745 
L 309.642171 293.432012 
L 310.379828 293.335754 
L 311.117485 292.994474 
L 312.592799 292.513182 
L 313.330456 291.760615 
L 314.068113 291.891877 
L 314.805771 291.839372 
L 315.543428 292.119397 
L 316.281085 292.731951 
L 317.018742 293.055729 
L 317.756399 293.195742 
L 318.494056 292.513182 
L 319.231713 292.119397 
L 319.969371 291.541846 
L 320.707028 291.436837 
L 321.444685 291.489342 
L 322.182342 290.833034 
L 322.919999 290.78928 
L 323.657656 291.034302 
L 324.395313 291.0168 
L 325.13297 291.174314 
L 325.870628 290.929292 
L 328.821256 291.086806 
L 330.29657 291.253071 
L 331.771885 290.518006 
L 332.509542 290.290486 
L 333.247199 289.590425 
L 334.722513 288.916615 
L 335.46017 288.129046 
L 336.935485 288.216554 
L 337.673142 288.164049 
L 338.410799 288.610338 
L 339.148456 288.102794 
L 339.886113 287.358978 
L 340.62377 287.674006 
L 341.361427 287.26272 
L 342.099085 288.207803 
L 342.836742 287.385231 
L 344.312056 287.472738 
L 345.049713 287.236468 
L 345.78737 287.271471 
L 347.262684 287.796517 
L 348.737999 286.413895 
L 349.475656 286.177625 
L 350.213313 286.431397 
L 350.95097 285.941354 
L 351.688627 286.195126 
L 352.426284 284.900012 
L 353.163942 284.768751 
L 353.901599 283.867422 
L 354.639256 282.677317 
L 355.376913 282.327286 
L 356.11457 282.511052 
L 356.852227 282.458548 
L 357.589884 281.679729 
L 358.327541 282.134769 
L 359.065199 279.518289 
L 360.540513 278.021908 
L 361.27817 277.383102 
L 362.015827 276.157994 
L 362.753484 275.764209 
L 363.491141 275.230412 
L 364.228799 275.134154 
L 364.966456 274.63536 
L 365.704113 273.445255 
L 366.44177 272.001378 
L 367.179427 272.097637 
L 367.917084 271.835114 
L 368.654741 272.211397 
L 369.392398 271.546338 
L 370.130056 272.193895 
L 370.867713 272.482671 
L 372.343027 272.228898 
L 373.080684 271.406326 
L 374.555998 268.71984 
L 375.293655 268.299803 
L 376.031313 268.404812 
L 377.506627 268.868603 
L 378.244284 269.559914 
L 378.981941 269.51616 
L 379.719598 270.181218 
L 380.457255 270.566252 
L 381.194913 270.08496 
L 381.93257 270.137465 
L 382.670227 268.632332 
L 383.407884 267.888517 
L 384.145541 266.112111 
L 384.883198 266.392135 
L 385.620855 266.532148 
L 386.358512 266.505895 
L 387.09617 264.571975 
L 387.833827 264.449465 
L 388.571484 263.898166 
L 389.309141 264.790745 
L 390.046798 264.589477 
L 390.784455 265.009514 
L 391.522112 264.808246 
L 392.25977 265.254535 
L 392.997427 264.571975 
L 393.735084 264.151938 
L 394.472741 264.501969 
L 395.210398 263.758154 
L 395.948055 266.44464 
L 396.685712 266.628406 
L 397.423369 267.415975 
L 398.161027 266.925932 
L 398.898684 268.072283 
L 399.636341 268.754843 
L 400.373998 268.072283 
L 401.849312 265.9896 
L 402.586969 266.995938 
L 403.324627 266.855926 
L 404.062284 265.823335 
L 404.799941 265.76208 
L 405.537598 265.053268 
L 406.275255 265.910843 
L 406.275255 265.910843 
" clip-path="url(#p470232a6cc)" style="fill: none; stroke: #000080; stroke-width: 1.5; stroke-linecap: square"/>
   </g>
   <g id="line2d_16">
    <path d="M 55.925 94.430769 
L 460.825 94.430769 
" clip-path="url(#p470232a6cc)" style="fill: none; stroke-dasharray: 5.55,2.4; stroke-dashoffset: 0; stroke: #008000; stroke-width: 1.5"/>
   </g>
   <g id="patch_3">
    <path d="M 55.925 313.2 
L 55.925 28.8 
" style="fill: none; stroke: #000000; stroke-width: 0.8; stroke-linejoin: miter; stroke-linecap: square"/>
   </g>
   <g id="patch_4">
    <path d="M 460.825 313.2 
L 460.825 28.8 
" style="fill: none; stroke: #000000; stroke-width: 0.8; stroke-linejoin: miter; stroke-linecap: square"/>
   </g>
   <g id="patch_5">
    <path d="M 55.925 313.2 
L 460.825 313.2 
" style="fill: none; stroke: #000000; stroke-width: 0.8; stroke-linejoin: miter; stroke-linecap: square"/>
   </g>
   <g id="patch_6">
    <path d="M 55.925 28.8 
L 460.825 28.8 
" style="fill: none; stroke: #000000; stroke-width: 0.8; stroke-linejoin: miter; stroke-linecap: square"/>
   </g>
   <g id="text_16">
    <!-- Slope = 2 -->
    <g transform="translate(221.741016 22.8)scale(0.15 -0.15)">
     <defs>
      <path id="DejaVuSans-6c" d="M 603 4863 
L 1178 4863 
L 1178 0 
L 603 0 
L 603 4863 
z
" transform="scale(0.015625)"/>
      <path id="DejaVuSans-20" transform="scale(0.015625)"/>
      <path id="DejaVuSans-3d" d="M 678 2906 
L 4684 2906 
L 4684 2381 
L 678 2381 
L 678 2906 
z
M 678 1631 
L 4684 1631 
L 4684 1100 
L 678 1100 
L 678 1631 
z
" transform="scale(0.015625)"/>
     </defs>
     <use xlink:href="#DejaVuSans-53"/>
     <use xlink:href="#DejaVuSans-6c" x="63.476562"/>
     <use xlink:href="#DejaVuSans-6f" x="91.259766"/>
     <use xlink:href="#DejaVuSans-70" x="152.441406"/>
     <use xlink:href="#DejaVuSans-65" x="215.917969"/>
     <use xlink:href="#DejaVuSans-20" x="277.441406"/>
     <use xlink:href="#DejaVuSans-3d" x="309.228516"/>
     <use xlink:href="#DejaVuSans-20" x="393.017578"/>
     <use xlink:href="#DejaVuSans-32" x="424.804688"/>
    </g>
   </g>
   <g id="legend_1">
    <g id="patch_7">
     <path d="M 293.50625 80.834375 
L 453.825 80.834375 
Q 455.825 80.834375 455.825 78.834375 
L 455.825 35.8 
Q 455.825 33.8 453.825 33.8 
L 293.50625 33.8 
Q 291.50625 33.8 291.50625 35.8 
L 291.50625 78.834375 
Q 291.50625 80.834375 293.50625 80.834375 
z
" style="fill: #ffffff; opacity: 0.8; stroke: #cccccc; stroke-linejoin: miter"/>
    </g>
    <g id="line2d_17">
     <path d="M 295.50625 41.898438 
L 305.50625 41.898438 
L 315.50625 41.898438 
" style="fill: none; stroke: #708090; stroke-width: 1.5; stroke-linecap: square"/>
    </g>
    <g id="text_17">
     <!-- Episodes score -->
     <g transform="translate(323.50625 45.398438)scale(0.1 -0.1)">
      <use xlink:href="#DejaVuSans-45"/>
      <use xlink:href="#DejaVuSans-70" x="63.183594"/>
      <use xlink:href="#DejaVuSans-69" x="126.660156"/>
      <use xlink:href="#DejaVuSans-73" x="154.443359"/>
      <use xlink:href="#DejaVuSans-6f" x="206.542969"/>
      <use xlink:href="#DejaVuSans-64" x="267.724609"/>
      <use xlink:href="#DejaVuSans-65" x="331.201172"/>
      <use xlink:href="#DejaVuSans-73" x="392.724609"/>
      <use xlink:href="#DejaVuSans-20" x="444.824219"/>
      <use xlink:href="#DejaVuSans-73" x="476.611328"/>
      <use xlink:href="#DejaVuSans-63" x="528.710938"/>
      <use xlink:href="#DejaVuSans-6f" x="583.691406"/>
      <use xlink:href="#DejaVuSans-72" x="644.873047"/>
      <use xlink:href="#DejaVuSans-65" x="683.736328"/>
     </g>
    </g>
    <g id="line2d_18">
     <path d="M 295.50625 56.576563 
L 305.50625 56.576563 
L 315.50625 56.576563 
" style="fill: none; stroke: #000080; stroke-width: 1.5; stroke-linecap: square"/>
    </g>
    <g id="text_18">
     <!-- Moving average of scores -->
     <g transform="translate(323.50625 60.076563)scale(0.1 -0.1)">
      <defs>
       <path id="DejaVuSans-4d" d="M 628 4666 
L 1569 4666 
L 2759 1491 
L 3956 4666 
L 4897 4666 
L 4897 0 
L 4281 0 
L 4281 4097 
L 3078 897 
L 2444 897 
L 1241 4097 
L 1241 0 
L 628 0 
L 628 4666 
z
" transform="scale(0.015625)"/>
       <path id="DejaVuSans-76" d="M 191 3500 
L 800 3500 
L 1894 563 
L 2988 3500 
L 3597 3500 
L 2284 0 
L 1503 0 
L 191 3500 
z
" transform="scale(0.015625)"/>
       <path id="DejaVuSans-6e" d="M 3513 2113 
L 3513 0 
L 2938 0 
L 2938 2094 
Q 2938 2591 2744 2837 
Q 2550 3084 2163 3084 
Q 1697 3084 1428 2787 
Q 1159 2491 1159 1978 
L 1159 0 
L 581 0 
L 581 3500 
L 1159 3500 
L 1159 2956 
Q 1366 3272 1645 3428 
Q 1925 3584 2291 3584 
Q 2894 3584 3203 3211 
Q 3513 2838 3513 2113 
z
" transform="scale(0.015625)"/>
       <path id="DejaVuSans-67" d="M 2906 1791 
Q 2906 2416 2648 2759 
Q 2391 3103 1925 3103 
Q 1463 3103 1205 2759 
Q 947 2416 947 1791 
Q 947 1169 1205 825 
Q 1463 481 1925 481 
Q 2391 481 2648 825 
Q 2906 1169 2906 1791 
z
M 3481 434 
Q 3481 -459 3084 -895 
Q 2688 -1331 1869 -1331 
Q 1566 -1331 1297 -1286 
Q 1028 -1241 775 -1147 
L 775 -588 
Q 1028 -725 1275 -790 
Q 1522 -856 1778 -856 
Q 2344 -856 2625 -561 
Q 2906 -266 2906 331 
L 2906 616 
Q 2728 306 2450 153 
Q 2172 0 1784 0 
Q 1141 0 747 490 
Q 353 981 353 1791 
Q 353 2603 747 3093 
Q 1141 3584 1784 3584 
Q 2172 3584 2450 3431 
Q 2728 3278 2906 2969 
L 2906 3500 
L 3481 3500 
L 3481 434 
z
" transform="scale(0.015625)"/>
       <path id="DejaVuSans-61" d="M 2194 1759 
Q 1497 1759 1228 1600 
Q 959 1441 959 1056 
Q 959 750 1161 570 
Q 1363 391 1709 391 
Q 2188 391 2477 730 
Q 2766 1069 2766 1631 
L 2766 1759 
L 2194 1759 
z
M 3341 1997 
L 3341 0 
L 2766 0 
L 2766 531 
Q 2569 213 2275 61 
Q 1981 -91 1556 -91 
Q 1019 -91 701 211 
Q 384 513 384 1019 
Q 384 1609 779 1909 
Q 1175 2209 1959 2209 
L 2766 2209 
L 2766 2266 
Q 2766 2663 2505 2880 
Q 2244 3097 1772 3097 
Q 1472 3097 1187 3025 
Q 903 2953 641 2809 
L 641 3341 
Q 956 3463 1253 3523 
Q 1550 3584 1831 3584 
Q 2591 3584 2966 3190 
Q 3341 2797 3341 1997 
z
" transform="scale(0.015625)"/>
       <path id="DejaVuSans-66" d="M 2375 4863 
L 2375 4384 
L 1825 4384 
Q 1516 4384 1395 4259 
Q 1275 4134 1275 3809 
L 1275 3500 
L 2222 3500 
L 2222 3053 
L 1275 3053 
L 1275 0 
L 697 0 
L 697 3053 
L 147 3053 
L 147 3500 
L 697 3500 
L 697 3744 
Q 697 4328 969 4595 
Q 1241 4863 1831 4863 
L 2375 4863 
z
" transform="scale(0.015625)"/>
      </defs>
      <use xlink:href="#DejaVuSans-4d"/>
      <use xlink:href="#DejaVuSans-6f" x="86.279297"/>
      <use xlink:href="#DejaVuSans-76" x="147.460938"/>
      <use xlink:href="#DejaVuSans-69" x="206.640625"/>
      <use xlink:href="#DejaVuSans-6e" x="234.423828"/>
      <use xlink:href="#DejaVuSans-67" x="297.802734"/>
      <use xlink:href="#DejaVuSans-20" x="361.279297"/>
      <use xlink:href="#DejaVuSans-61" x="393.066406"/>
      <use xlink:href="#DejaVuSans-76" x="454.345703"/>
      <use xlink:href="#DejaVuSans-65" x="513.525391"/>
      <use xlink:href="#DejaVuSans-72" x="575.048828"/>
      <use xlink:href="#DejaVuSans-61" x="616.162109"/>
      <use xlink:href="#DejaVuSans-67" x="677.441406"/>
      <use xlink:href="#DejaVuSans-65" x="740.917969"/>
      <use xlink:href="#DejaVuSans-20" x="802.441406"/>
      <use xlink:href="#DejaVuSans-6f" x="834.228516"/>
      <use xlink:href="#DejaVuSans-66" x="895.410156"/>
      <use xlink:href="#DejaVuSans-20" x="930.615234"/>
      <use xlink:href="#DejaVuSans-73" x="962.402344"/>
      <use xlink:href="#DejaVuSans-63" x="1014.501953"/>
      <use xlink:href="#DejaVuSans-6f" x="1069.482422"/>
      <use xlink:href="#DejaVuSans-72" x="1130.664062"/>
      <use xlink:href="#DejaVuSans-65" x="1169.527344"/>
      <use xlink:href="#DejaVuSans-73" x="1231.050781"/>
     </g>
    </g>
    <g id="line2d_19">
     <path d="M 295.50625 71.254687 
L 305.50625 71.254687 
L 315.50625 71.254687 
" style="fill: none; stroke-dasharray: 5.55,2.4; stroke-dashoffset: 0; stroke: #008000; stroke-width: 1.5"/>
    </g>
    <g id="text_19">
     <!-- Game Solved -->
     <g transform="translate(323.50625 74.754687)scale(0.1 -0.1)">
      <defs>
       <path id="DejaVuSans-47" d="M 3809 666 
L 3809 1919 
L 2778 1919 
L 2778 2438 
L 4434 2438 
L 4434 434 
Q 4069 175 3628 42 
Q 3188 -91 2688 -91 
Q 1594 -91 976 548 
Q 359 1188 359 2328 
Q 359 3472 976 4111 
Q 1594 4750 2688 4750 
Q 3144 4750 3555 4637 
Q 3966 4525 4313 4306 
L 4313 3634 
Q 3963 3931 3569 4081 
Q 3175 4231 2741 4231 
Q 1884 4231 1454 3753 
Q 1025 3275 1025 2328 
Q 1025 1384 1454 906 
Q 1884 428 2741 428 
Q 3075 428 3337 486 
Q 3600 544 3809 666 
z
" transform="scale(0.015625)"/>
       <path id="DejaVuSans-6d" d="M 3328 2828 
Q 3544 3216 3844 3400 
Q 4144 3584 4550 3584 
Q 5097 3584 5394 3201 
Q 5691 2819 5691 2113 
L 5691 0 
L 5113 0 
L 5113 2094 
Q 5113 2597 4934 2840 
Q 4756 3084 4391 3084 
Q 3944 3084 3684 2787 
Q 3425 2491 3425 1978 
L 3425 0 
L 2847 0 
L 2847 2094 
Q 2847 2600 2669 2842 
Q 2491 3084 2119 3084 
Q 1678 3084 1418 2786 
Q 1159 2488 1159 1978 
L 1159 0 
L 581 0 
L 581 3500 
L 1159 3500 
L 1159 2956 
Q 1356 3278 1631 3431 
Q 1906 3584 2284 3584 
Q 2666 3584 2933 3390 
Q 3200 3197 3328 2828 
z
" transform="scale(0.015625)"/>
      </defs>
      <use xlink:href="#DejaVuSans-47"/>
      <use xlink:href="#DejaVuSans-61" x="77.490234"/>
      <use xlink:href="#DejaVuSans-6d" x="138.769531"/>
      <use xlink:href="#DejaVuSans-65" x="236.181641"/>
      <use xlink:href="#DejaVuSans-20" x="297.705078"/>
      <use xlink:href="#DejaVuSans-53" x="329.492188"/>
      <use xlink:href="#DejaVuSans-6f" x="392.96875"/>
      <use xlink:href="#DejaVuSans-6c" x="454.150391"/>
      <use xlink:href="#DejaVuSans-76" x="481.933594"/>
      <use xlink:href="#DejaVuSans-65" x="541.113281"/>
      <use xlink:href="#DejaVuSans-64" x="602.636719"/>
     </g>
    </g>
   </g>
  </g>
  <g id="axes_2">
   <g id="matplotlib.axis_3">
    <g id="ytick_8">
     <g id="line2d_20">
      <defs>
       <path id="m1041e5fc18" d="M 0 0 
L 3.5 0 
" style="stroke: #000000; stroke-width: 0.8"/>
      </defs>
      <g>
       <use xlink:href="#m1041e5fc18" x="460.825" y="311.117949" style="stroke: #000000; stroke-width: 0.8"/>
      </g>
     </g>
     <g id="text_20">
      <!-- 0 -->
      <g transform="translate(467.825 314.917168)scale(0.1 -0.1)">
       <use xlink:href="#DejaVuSans-30"/>
      </g>
     </g>
    </g>
    <g id="ytick_9">
     <g id="line2d_21">
      <g>
       <use xlink:href="#m1041e5fc18" x="460.825" y="257.239814" style="stroke: #000000; stroke-width: 0.8"/>
      </g>
     </g>
     <g id="text_21">
      <!-- 1 -->
      <g transform="translate(467.825 261.039032)scale(0.1 -0.1)">
       <use xlink:href="#DejaVuSans-31"/>
      </g>
     </g>
    </g>
    <g id="ytick_10">
     <g id="line2d_22">
      <g>
       <use xlink:href="#m1041e5fc18" x="460.825" y="203.361678" style="stroke: #000000; stroke-width: 0.8"/>
      </g>
     </g>
     <g id="text_22">
      <!-- 2 -->
      <g transform="translate(467.825 207.160897)scale(0.1 -0.1)">
       <use xlink:href="#DejaVuSans-32"/>
      </g>
     </g>
    </g>
    <g id="ytick_11">
     <g id="line2d_23">
      <g>
       <use xlink:href="#m1041e5fc18" x="460.825" y="149.483543" style="stroke: #000000; stroke-width: 0.8"/>
      </g>
     </g>
     <g id="text_23">
      <!-- 3 -->
      <g transform="translate(467.825 153.282762)scale(0.1 -0.1)">
       <use xlink:href="#DejaVuSans-33"/>
      </g>
     </g>
    </g>
    <g id="ytick_12">
     <g id="line2d_24">
      <g>
       <use xlink:href="#m1041e5fc18" x="460.825" y="95.605408" style="stroke: #000000; stroke-width: 0.8"/>
      </g>
     </g>
     <g id="text_24">
      <!-- 4 -->
      <g transform="translate(467.825 99.404627)scale(0.1 -0.1)">
       <use xlink:href="#DejaVuSans-34"/>
      </g>
     </g>
    </g>
    <g id="ytick_13">
     <g id="line2d_25">
      <g>
       <use xlink:href="#m1041e5fc18" x="460.825" y="41.727273" style="stroke: #000000; stroke-width: 0.8"/>
      </g>
     </g>
     <g id="text_25">
      <!-- 5 -->
      <g transform="translate(467.825 45.526491)scale(0.1 -0.1)">
       <use xlink:href="#DejaVuSans-35"/>
      </g>
     </g>
    </g>
    <g id="text_26">
     <!-- Temperature -->
     <g transform="translate(489.585156 218.504297)rotate(-90)scale(0.15 -0.15)">
      <defs>
       <path id="DejaVuSans-54" d="M -19 4666 
L 3928 4666 
L 3928 4134 
L 2272 4134 
L 2272 0 
L 1638 0 
L 1638 4134 
L -19 4134 
L -19 4666 
z
" transform="scale(0.015625)"/>
       <path id="DejaVuSans-74" d="M 1172 4494 
L 1172 3500 
L 2356 3500 
L 2356 3053 
L 1172 3053 
L 1172 1153 
Q 1172 725 1289 603 
Q 1406 481 1766 481 
L 2356 481 
L 2356 0 
L 1766 0 
Q 1100 0 847 248 
Q 594 497 594 1153 
L 594 3053 
L 172 3053 
L 172 3500 
L 594 3500 
L 594 4494 
L 1172 4494 
z
" transform="scale(0.015625)"/>
       <path id="DejaVuSans-75" d="M 544 1381 
L 544 3500 
L 1119 3500 
L 1119 1403 
Q 1119 906 1312 657 
Q 1506 409 1894 409 
Q 2359 409 2629 706 
Q 2900 1003 2900 1516 
L 2900 3500 
L 3475 3500 
L 3475 0 
L 2900 0 
L 2900 538 
Q 2691 219 2414 64 
Q 2138 -91 1772 -91 
Q 1169 -91 856 284 
Q 544 659 544 1381 
z
M 1991 3584 
L 1991 3584 
z
" transform="scale(0.015625)"/>
      </defs>
      <use xlink:href="#DejaVuSans-54"/>
      <use xlink:href="#DejaVuSans-65" x="44.083984"/>
      <use xlink:href="#DejaVuSans-6d" x="105.607422"/>
      <use xlink:href="#DejaVuSans-70" x="203.019531"/>
      <use xlink:href="#DejaVuSans-65" x="266.496094"/>
      <use xlink:href="#DejaVuSans-72" x="328.019531"/>
      <use xlink:href="#DejaVuSans-61" x="369.132812"/>
      <use xlink:href="#DejaVuSans-74" x="430.412109"/>
      <use xlink:href="#DejaVuSans-75" x="469.621094"/>
      <use xlink:href="#DejaVuSans-72" x="533"/>
      <use xlink:href="#DejaVuSans-65" x="571.863281"/>
     </g>
    </g>
   </g>
   <g id="line2d_26">
    <path d="M 74.329545 41.727273 
L 79.493145 53.59769 
L 84.656745 64.94505 
L 89.820345 75.7924 
L 94.983945 86.161773 
L 100.147545 96.074231 
L 105.311145 105.549907 
L 110.474745 114.608047 
L 115.638345 123.267049 
L 120.801945 131.544502 
L 126.703202 140.558777 
L 132.604459 149.120551 
L 138.505716 157.252539 
L 144.406973 164.976315 
L 150.30823 172.312371 
L 156.209487 179.28017 
L 162.110744 185.898197 
L 168.012001 192.184011 
L 173.913258 198.154288 
L 179.814515 203.824868 
L 185.715772 209.210794 
L 191.61703 214.326356 
L 198.255944 219.775065 
L 204.894858 224.917049 
L 211.533772 229.769575 
L 218.172686 234.348936 
L 224.8116 238.67051 
L 231.450515 242.748809 
L 238.827086 247.01156 
L 246.203657 251.008532 
L 253.580229 254.756297 
L 260.9568 258.270392 
L 269.071028 261.883369 
L 277.185257 265.249341 
L 285.299485 268.385196 
L 294.151371 271.562136 
L 303.003257 274.502888 
L 312.592799 277.442506 
L 322.182342 280.146118 
L 332.509542 282.815465 
L 342.836742 285.25475 
L 353.901599 287.635465 
L 365.704113 289.933852 
L 377.506627 292.007281 
L 390.046798 293.988401 
L 403.324627 295.862673 
L 417.340112 297.61905 
L 432.093255 299.249861 
L 442.420455 300.272727 
L 442.420455 300.272727 
" clip-path="url(#p470232a6cc)" style="fill: none; stroke: #ff0000; stroke-width: 1.5; stroke-linecap: square"/>
   </g>
   <g id="patch_8">
    <path d="M 55.925 313.2 
L 55.925 28.8 
" style="fill: none; stroke: #000000; stroke-width: 0.8; stroke-linejoin: miter; stroke-linecap: square"/>
   </g>
   <g id="patch_9">
    <path d="M 460.825 313.2 
L 460.825 28.8 
" style="fill: none; stroke: #000000; stroke-width: 0.8; stroke-linejoin: miter; stroke-linecap: square"/>
   </g>
   <g id="patch_10">
    <path d="M 55.925 313.2 
L 460.825 313.2 
" style="fill: none; stroke: #000000; stroke-width: 0.8; stroke-linejoin: miter; stroke-linecap: square"/>
   </g>
   <g id="patch_11">
    <path d="M 55.925 28.8 
L 460.825 28.8 
" style="fill: none; stroke: #000000; stroke-width: 0.8; stroke-linejoin: miter; stroke-linecap: square"/>
   </g>
   <g id="legend_2">
    <g id="patch_12">
     <path d="M 62.925 51.478125 
L 158.264063 51.478125 
Q 160.264063 51.478125 160.264063 49.478125 
L 160.264063 35.8 
Q 160.264063 33.8 158.264063 33.8 
L 62.925 33.8 
Q 60.925 33.8 60.925 35.8 
L 60.925 49.478125 
Q 60.925 51.478125 62.925 51.478125 
z
" style="fill: #ffffff; opacity: 0.8; stroke: #cccccc; stroke-linejoin: miter"/>
    </g>
    <g id="line2d_27">
     <path d="M 64.925 41.898438 
L 74.925 41.898438 
L 84.925 41.898438 
" style="fill: none; stroke: #ff0000; stroke-width: 1.5; stroke-linecap: square"/>
    </g>
    <g id="text_27">
     <!-- Temperature -->
     <g transform="translate(92.925 45.398438)scale(0.1 -0.1)">
      <use xlink:href="#DejaVuSans-54"/>
      <use xlink:href="#DejaVuSans-65" x="44.083984"/>
      <use xlink:href="#DejaVuSans-6d" x="105.607422"/>
      <use xlink:href="#DejaVuSans-70" x="203.019531"/>
      <use xlink:href="#DejaVuSans-65" x="266.496094"/>
      <use xlink:href="#DejaVuSans-72" x="328.019531"/>
      <use xlink:href="#DejaVuSans-61" x="369.132812"/>
      <use xlink:href="#DejaVuSans-74" x="430.412109"/>
      <use xlink:href="#DejaVuSans-75" x="469.621094"/>
      <use xlink:href="#DejaVuSans-72" x="533"/>
      <use xlink:href="#DejaVuSans-65" x="571.863281"/>
     </g>
    </g>
   </g>
  </g>
 </g>
 <defs>
  <clipPath id="p470232a6cc">
   <rect x="55.925" y="28.8" width="404.9" height="284.4"/>
  </clipPath>
 </defs>
</svg>
