<?xml version="1.0" encoding="utf-8" standalone="no"?>
<!DOCTYPE svg PUBLIC "-//W3C//DTD SVG 1.1//EN"
  "http://www.w3.org/Graphics/SVG/1.1/DTD/svg11.dtd">
<svg xmlns:xlink="http://www.w3.org/1999/xlink" width="504pt" height="360pt" viewBox="0 0 504 360" xmlns="http://www.w3.org/2000/svg" version="1.1">
 <metadata>
  <rdf:RDF xmlns:dc="http://purl.org/dc/elements/1.1/" xmlns:cc="http://creativecommons.org/ns#" xmlns:rdf="http://www.w3.org/1999/02/22-rdf-syntax-ns#">
   <cc:Work>
    <dc:type rdf:resource="http://purl.org/dc/dcmitype/StillImage"/>
    <dc:date>2022-07-28T16:33:00.101482</dc:date>
    <dc:format>image/svg+xml</dc:format>
    <dc:creator>
     <cc:Agent>
      <dc:title>Matplotlib v3.5.1, https://matplotlib.org/</dc:title>
     </cc:Agent>
    </dc:creator>
   </cc:Work>
  </rdf:RDF>
 </metadata>
 <defs>
  <style type="text/css">*{stroke-linejoin: round; stroke-linecap: butt}</style>
 </defs>
 <g id="figure_1">
  <g id="patch_1">
   <path d="M 0 360 
L 504 360 
L 504 0 
L 0 0 
L 0 360 
z
" style="fill: none"/>
  </g>
  <g id="axes_1">
   <g id="patch_2">
    <path d="M 55.925 313.2 
L 460.825 313.2 
L 460.825 28.8 
L 55.925 28.8 
z
" style="fill: #ffffff"/>
   </g>
   <g id="matplotlib.axis_1">
    <g id="xtick_1">
     <g id="line2d_1">
      <defs>
       <path id="m12e0e4f19b" d="M 0 0 
L 0 3.5 
" style="stroke: #000000; stroke-width: 0.8"/>
      </defs>
      <g>
       <use xlink:href="#m12e0e4f19b" x="74.329545" y="313.2" style="stroke: #000000; stroke-width: 0.8"/>
      </g>
     </g>
     <g id="text_1">
      <!-- 0 -->
      <g transform="translate(71.148295 327.798437)scale(0.1 -0.1)">
       <defs>
        <path id="DejaVuSans-30" d="M 2034 4250 
Q 1547 4250 1301 3770 
Q 1056 3291 1056 2328 
Q 1056 1369 1301 889 
Q 1547 409 2034 409 
Q 2525 409 2770 889 
Q 3016 1369 3016 2328 
Q 3016 3291 2770 3770 
Q 2525 4250 2034 4250 
z
M 2034 4750 
Q 2819 4750 3233 4129 
Q 3647 3509 3647 2328 
Q 3647 1150 3233 529 
Q 2819 -91 2034 -91 
Q 1250 -91 836 529 
Q 422 1150 422 2328 
Q 422 3509 836 4129 
Q 1250 4750 2034 4750 
z
" transform="scale(0.015625)"/>
       </defs>
       <use xlink:href="#DejaVuSans-30"/>
      </g>
     </g>
    </g>
    <g id="xtick_2">
     <g id="line2d_2">
      <g>
       <use xlink:href="#m12e0e4f19b" x="148.095259" y="313.2" style="stroke: #000000; stroke-width: 0.8"/>
      </g>
     </g>
     <g id="text_2">
      <!-- 100 -->
      <g transform="translate(138.551509 327.798437)scale(0.1 -0.1)">
       <defs>
        <path id="DejaVuSans-31" d="M 794 531 
L 1825 531 
L 1825 4091 
L 703 3866 
L 703 4441 
L 1819 4666 
L 2450 4666 
L 2450 531 
L 3481 531 
L 3481 0 
L 794 0 
L 794 531 
z
" transform="scale(0.015625)"/>
       </defs>
       <use xlink:href="#DejaVuSans-31"/>
       <use xlink:href="#DejaVuSans-30" x="63.623047"/>
       <use xlink:href="#DejaVuSans-30" x="127.246094"/>
      </g>
     </g>
    </g>
    <g id="xtick_3">
     <g id="line2d_3">
      <g>
       <use xlink:href="#m12e0e4f19b" x="221.860972" y="313.2" style="stroke: #000000; stroke-width: 0.8"/>
      </g>
     </g>
     <g id="text_3">
      <!-- 200 -->
      <g transform="translate(212.317222 327.798437)scale(0.1 -0.1)">
       <defs>
        <path id="DejaVuSans-32" d="M 1228 531 
L 3431 531 
L 3431 0 
L 469 0 
L 469 531 
Q 828 903 1448 1529 
Q 2069 2156 2228 2338 
Q 2531 2678 2651 2914 
Q 2772 3150 2772 3378 
Q 2772 3750 2511 3984 
Q 2250 4219 1831 4219 
Q 1534 4219 1204 4116 
Q 875 4013 500 3803 
L 500 4441 
Q 881 4594 1212 4672 
Q 1544 4750 1819 4750 
Q 2544 4750 2975 4387 
Q 3406 4025 3406 3419 
Q 3406 3131 3298 2873 
Q 3191 2616 2906 2266 
Q 2828 2175 2409 1742 
Q 1991 1309 1228 531 
z
" transform="scale(0.015625)"/>
       </defs>
       <use xlink:href="#DejaVuSans-32"/>
       <use xlink:href="#DejaVuSans-30" x="63.623047"/>
       <use xlink:href="#DejaVuSans-30" x="127.246094"/>
      </g>
     </g>
    </g>
    <g id="xtick_4">
     <g id="line2d_4">
      <g>
       <use xlink:href="#m12e0e4f19b" x="295.626685" y="313.2" style="stroke: #000000; stroke-width: 0.8"/>
      </g>
     </g>
     <g id="text_4">
      <!-- 300 -->
      <g transform="translate(286.082935 327.798437)scale(0.1 -0.1)">
       <defs>
        <path id="DejaVuSans-33" d="M 2597 2516 
Q 3050 2419 3304 2112 
Q 3559 1806 3559 1356 
Q 3559 666 3084 287 
Q 2609 -91 1734 -91 
Q 1441 -91 1130 -33 
Q 819 25 488 141 
L 488 750 
Q 750 597 1062 519 
Q 1375 441 1716 441 
Q 2309 441 2620 675 
Q 2931 909 2931 1356 
Q 2931 1769 2642 2001 
Q 2353 2234 1838 2234 
L 1294 2234 
L 1294 2753 
L 1863 2753 
Q 2328 2753 2575 2939 
Q 2822 3125 2822 3475 
Q 2822 3834 2567 4026 
Q 2313 4219 1838 4219 
Q 1578 4219 1281 4162 
Q 984 4106 628 3988 
L 628 4550 
Q 988 4650 1302 4700 
Q 1616 4750 1894 4750 
Q 2613 4750 3031 4423 
Q 3450 4097 3450 3541 
Q 3450 3153 3228 2886 
Q 3006 2619 2597 2516 
z
" transform="scale(0.015625)"/>
       </defs>
       <use xlink:href="#DejaVuSans-33"/>
       <use xlink:href="#DejaVuSans-30" x="63.623047"/>
       <use xlink:href="#DejaVuSans-30" x="127.246094"/>
      </g>
     </g>
    </g>
    <g id="xtick_5">
     <g id="line2d_5">
      <g>
       <use xlink:href="#m12e0e4f19b" x="369.392398" y="313.2" style="stroke: #000000; stroke-width: 0.8"/>
      </g>
     </g>
     <g id="text_5">
      <!-- 400 -->
      <g transform="translate(359.848648 327.798437)scale(0.1 -0.1)">
       <defs>
        <path id="DejaVuSans-34" d="M 2419 4116 
L 825 1625 
L 2419 1625 
L 2419 4116 
z
M 2253 4666 
L 3047 4666 
L 3047 1625 
L 3713 1625 
L 3713 1100 
L 3047 1100 
L 3047 0 
L 2419 0 
L 2419 1100 
L 313 1100 
L 313 1709 
L 2253 4666 
z
" transform="scale(0.015625)"/>
       </defs>
       <use xlink:href="#DejaVuSans-34"/>
       <use xlink:href="#DejaVuSans-30" x="63.623047"/>
       <use xlink:href="#DejaVuSans-30" x="127.246094"/>
      </g>
     </g>
    </g>
    <g id="xtick_6">
     <g id="line2d_6">
      <g>
       <use xlink:href="#m12e0e4f19b" x="443.158112" y="313.2" style="stroke: #000000; stroke-width: 0.8"/>
      </g>
     </g>
     <g id="text_6">
      <!-- 500 -->
      <g transform="translate(433.614362 327.798437)scale(0.1 -0.1)">
       <defs>
        <path id="DejaVuSans-35" d="M 691 4666 
L 3169 4666 
L 3169 4134 
L 1269 4134 
L 1269 2991 
Q 1406 3038 1543 3061 
Q 1681 3084 1819 3084 
Q 2600 3084 3056 2656 
Q 3513 2228 3513 1497 
Q 3513 744 3044 326 
Q 2575 -91 1722 -91 
Q 1428 -91 1123 -41 
Q 819 9 494 109 
L 494 744 
Q 775 591 1075 516 
Q 1375 441 1709 441 
Q 2250 441 2565 725 
Q 2881 1009 2881 1497 
Q 2881 1984 2565 2268 
Q 2250 2553 1709 2553 
Q 1456 2553 1204 2497 
Q 953 2441 691 2322 
L 691 4666 
z
" transform="scale(0.015625)"/>
       </defs>
       <use xlink:href="#DejaVuSans-35"/>
       <use xlink:href="#DejaVuSans-30" x="63.623047"/>
       <use xlink:href="#DejaVuSans-30" x="127.246094"/>
      </g>
     </g>
    </g>
    <g id="text_7">
     <!-- Episode -->
     <g transform="translate(228.91875 345.275781)scale(0.15 -0.15)">
      <defs>
       <path id="DejaVuSans-45" d="M 628 4666 
L 3578 4666 
L 3578 4134 
L 1259 4134 
L 1259 2753 
L 3481 2753 
L 3481 2222 
L 1259 2222 
L 1259 531 
L 3634 531 
L 3634 0 
L 628 0 
L 628 4666 
z
" transform="scale(0.015625)"/>
       <path id="DejaVuSans-70" d="M 1159 525 
L 1159 -1331 
L 581 -1331 
L 581 3500 
L 1159 3500 
L 1159 2969 
Q 1341 3281 1617 3432 
Q 1894 3584 2278 3584 
Q 2916 3584 3314 3078 
Q 3713 2572 3713 1747 
Q 3713 922 3314 415 
Q 2916 -91 2278 -91 
Q 1894 -91 1617 61 
Q 1341 213 1159 525 
z
M 3116 1747 
Q 3116 2381 2855 2742 
Q 2594 3103 2138 3103 
Q 1681 3103 1420 2742 
Q 1159 2381 1159 1747 
Q 1159 1113 1420 752 
Q 1681 391 2138 391 
Q 2594 391 2855 752 
Q 3116 1113 3116 1747 
z
" transform="scale(0.015625)"/>
       <path id="DejaVuSans-69" d="M 603 3500 
L 1178 3500 
L 1178 0 
L 603 0 
L 603 3500 
z
M 603 4863 
L 1178 4863 
L 1178 4134 
L 603 4134 
L 603 4863 
z
" transform="scale(0.015625)"/>
       <path id="DejaVuSans-73" d="M 2834 3397 
L 2834 2853 
Q 2591 2978 2328 3040 
Q 2066 3103 1784 3103 
Q 1356 3103 1142 2972 
Q 928 2841 928 2578 
Q 928 2378 1081 2264 
Q 1234 2150 1697 2047 
L 1894 2003 
Q 2506 1872 2764 1633 
Q 3022 1394 3022 966 
Q 3022 478 2636 193 
Q 2250 -91 1575 -91 
Q 1294 -91 989 -36 
Q 684 19 347 128 
L 347 722 
Q 666 556 975 473 
Q 1284 391 1588 391 
Q 1994 391 2212 530 
Q 2431 669 2431 922 
Q 2431 1156 2273 1281 
Q 2116 1406 1581 1522 
L 1381 1569 
Q 847 1681 609 1914 
Q 372 2147 372 2553 
Q 372 3047 722 3315 
Q 1072 3584 1716 3584 
Q 2034 3584 2315 3537 
Q 2597 3491 2834 3397 
z
" transform="scale(0.015625)"/>
       <path id="DejaVuSans-6f" d="M 1959 3097 
Q 1497 3097 1228 2736 
Q 959 2375 959 1747 
Q 959 1119 1226 758 
Q 1494 397 1959 397 
Q 2419 397 2687 759 
Q 2956 1122 2956 1747 
Q 2956 2369 2687 2733 
Q 2419 3097 1959 3097 
z
M 1959 3584 
Q 2709 3584 3137 3096 
Q 3566 2609 3566 1747 
Q 3566 888 3137 398 
Q 2709 -91 1959 -91 
Q 1206 -91 779 398 
Q 353 888 353 1747 
Q 353 2609 779 3096 
Q 1206 3584 1959 3584 
z
" transform="scale(0.015625)"/>
       <path id="DejaVuSans-64" d="M 2906 2969 
L 2906 4863 
L 3481 4863 
L 3481 0 
L 2906 0 
L 2906 525 
Q 2725 213 2448 61 
Q 2172 -91 1784 -91 
Q 1150 -91 751 415 
Q 353 922 353 1747 
Q 353 2572 751 3078 
Q 1150 3584 1784 3584 
Q 2172 3584 2448 3432 
Q 2725 3281 2906 2969 
z
M 947 1747 
Q 947 1113 1208 752 
Q 1469 391 1925 391 
Q 2381 391 2643 752 
Q 2906 1113 2906 1747 
Q 2906 2381 2643 2742 
Q 2381 3103 1925 3103 
Q 1469 3103 1208 2742 
Q 947 2381 947 1747 
z
" transform="scale(0.015625)"/>
       <path id="DejaVuSans-65" d="M 3597 1894 
L 3597 1613 
L 953 1613 
Q 991 1019 1311 708 
Q 1631 397 2203 397 
Q 2534 397 2845 478 
Q 3156 559 3463 722 
L 3463 178 
Q 3153 47 2828 -22 
Q 2503 -91 2169 -91 
Q 1331 -91 842 396 
Q 353 884 353 1716 
Q 353 2575 817 3079 
Q 1281 3584 2069 3584 
Q 2775 3584 3186 3129 
Q 3597 2675 3597 1894 
z
M 3022 2063 
Q 3016 2534 2758 2815 
Q 2500 3097 2075 3097 
Q 1594 3097 1305 2825 
Q 1016 2553 972 2059 
L 3022 2063 
z
" transform="scale(0.015625)"/>
      </defs>
      <use xlink:href="#DejaVuSans-45"/>
      <use xlink:href="#DejaVuSans-70" x="63.183594"/>
      <use xlink:href="#DejaVuSans-69" x="126.660156"/>
      <use xlink:href="#DejaVuSans-73" x="154.443359"/>
      <use xlink:href="#DejaVuSans-6f" x="206.542969"/>
      <use xlink:href="#DejaVuSans-64" x="267.724609"/>
      <use xlink:href="#DejaVuSans-65" x="331.201172"/>
     </g>
    </g>
   </g>
   <g id="matplotlib.axis_2">
    <g id="ytick_1">
     <g id="line2d_7">
      <defs>
       <path id="mbfe97229f0" d="M 0 0 
L -3.5 0 
" style="stroke: #000000; stroke-width: 0.8"/>
      </defs>
      <g>
       <use xlink:href="#mbfe97229f0" x="55.925" y="313.2" style="stroke: #000000; stroke-width: 0.8"/>
      </g>
     </g>
     <g id="text_8">
      <!-- 0 -->
      <g transform="translate(42.5625 316.999219)scale(0.1 -0.1)">
       <use xlink:href="#DejaVuSans-30"/>
      </g>
     </g>
    </g>
    <g id="ytick_2">
     <g id="line2d_8">
      <g>
       <use xlink:href="#mbfe97229f0" x="55.925" y="269.446154" style="stroke: #000000; stroke-width: 0.8"/>
      </g>
     </g>
     <g id="text_9">
      <!-- 100 -->
      <g transform="translate(29.8375 273.245373)scale(0.1 -0.1)">
       <use xlink:href="#DejaVuSans-31"/>
       <use xlink:href="#DejaVuSans-30" x="63.623047"/>
       <use xlink:href="#DejaVuSans-30" x="127.246094"/>
      </g>
     </g>
    </g>
    <g id="ytick_3">
     <g id="line2d_9">
      <g>
       <use xlink:href="#mbfe97229f0" x="55.925" y="225.692308" style="stroke: #000000; stroke-width: 0.8"/>
      </g>
     </g>
     <g id="text_10">
      <!-- 200 -->
      <g transform="translate(29.8375 229.491526)scale(0.1 -0.1)">
       <use xlink:href="#DejaVuSans-32"/>
       <use xlink:href="#DejaVuSans-30" x="63.623047"/>
       <use xlink:href="#DejaVuSans-30" x="127.246094"/>
      </g>
     </g>
    </g>
    <g id="ytick_4">
     <g id="line2d_10">
      <g>
       <use xlink:href="#mbfe97229f0" x="55.925" y="181.938462" style="stroke: #000000; stroke-width: 0.8"/>
      </g>
     </g>
     <g id="text_11">
      <!-- 300 -->
      <g transform="translate(29.8375 185.73768)scale(0.1 -0.1)">
       <use xlink:href="#DejaVuSans-33"/>
       <use xlink:href="#DejaVuSans-30" x="63.623047"/>
       <use xlink:href="#DejaVuSans-30" x="127.246094"/>
      </g>
     </g>
    </g>
    <g id="ytick_5">
     <g id="line2d_11">
      <g>
       <use xlink:href="#mbfe97229f0" x="55.925" y="138.184615" style="stroke: #000000; stroke-width: 0.8"/>
      </g>
     </g>
     <g id="text_12">
      <!-- 400 -->
      <g transform="translate(29.8375 141.983834)scale(0.1 -0.1)">
       <use xlink:href="#DejaVuSans-34"/>
       <use xlink:href="#DejaVuSans-30" x="63.623047"/>
       <use xlink:href="#DejaVuSans-30" x="127.246094"/>
      </g>
     </g>
    </g>
    <g id="ytick_6">
     <g id="line2d_12">
      <g>
       <use xlink:href="#mbfe97229f0" x="55.925" y="94.430769" style="stroke: #000000; stroke-width: 0.8"/>
      </g>
     </g>
     <g id="text_13">
      <!-- 500 -->
      <g transform="translate(29.8375 98.229988)scale(0.1 -0.1)">
       <use xlink:href="#DejaVuSans-35"/>
       <use xlink:href="#DejaVuSans-30" x="63.623047"/>
       <use xlink:href="#DejaVuSans-30" x="127.246094"/>
      </g>
     </g>
    </g>
    <g id="ytick_7">
     <g id="line2d_13">
      <g>
       <use xlink:href="#mbfe97229f0" x="55.925" y="50.676923" style="stroke: #000000; stroke-width: 0.8"/>
      </g>
     </g>
     <g id="text_14">
      <!-- 600 -->
      <g transform="translate(29.8375 54.476142)scale(0.1 -0.1)">
       <defs>
        <path id="DejaVuSans-36" d="M 2113 2584 
Q 1688 2584 1439 2293 
Q 1191 2003 1191 1497 
Q 1191 994 1439 701 
Q 1688 409 2113 409 
Q 2538 409 2786 701 
Q 3034 994 3034 1497 
Q 3034 2003 2786 2293 
Q 2538 2584 2113 2584 
z
M 3366 4563 
L 3366 3988 
Q 3128 4100 2886 4159 
Q 2644 4219 2406 4219 
Q 1781 4219 1451 3797 
Q 1122 3375 1075 2522 
Q 1259 2794 1537 2939 
Q 1816 3084 2150 3084 
Q 2853 3084 3261 2657 
Q 3669 2231 3669 1497 
Q 3669 778 3244 343 
Q 2819 -91 2113 -91 
Q 1303 -91 875 529 
Q 447 1150 447 2328 
Q 447 3434 972 4092 
Q 1497 4750 2381 4750 
Q 2619 4750 2861 4703 
Q 3103 4656 3366 4563 
z
" transform="scale(0.015625)"/>
       </defs>
       <use xlink:href="#DejaVuSans-36"/>
       <use xlink:href="#DejaVuSans-30" x="63.623047"/>
       <use xlink:href="#DejaVuSans-30" x="127.246094"/>
      </g>
     </g>
    </g>
    <g id="text_15">
     <!-- Score -->
     <g transform="translate(22.717969 192.003516)rotate(-90)scale(0.15 -0.15)">
      <defs>
       <path id="DejaVuSans-53" d="M 3425 4513 
L 3425 3897 
Q 3066 4069 2747 4153 
Q 2428 4238 2131 4238 
Q 1616 4238 1336 4038 
Q 1056 3838 1056 3469 
Q 1056 3159 1242 3001 
Q 1428 2844 1947 2747 
L 2328 2669 
Q 3034 2534 3370 2195 
Q 3706 1856 3706 1288 
Q 3706 609 3251 259 
Q 2797 -91 1919 -91 
Q 1588 -91 1214 -16 
Q 841 59 441 206 
L 441 856 
Q 825 641 1194 531 
Q 1563 422 1919 422 
Q 2459 422 2753 634 
Q 3047 847 3047 1241 
Q 3047 1584 2836 1778 
Q 2625 1972 2144 2069 
L 1759 2144 
Q 1053 2284 737 2584 
Q 422 2884 422 3419 
Q 422 4038 858 4394 
Q 1294 4750 2059 4750 
Q 2388 4750 2728 4690 
Q 3069 4631 3425 4513 
z
" transform="scale(0.015625)"/>
       <path id="DejaVuSans-63" d="M 3122 3366 
L 3122 2828 
Q 2878 2963 2633 3030 
Q 2388 3097 2138 3097 
Q 1578 3097 1268 2742 
Q 959 2388 959 1747 
Q 959 1106 1268 751 
Q 1578 397 2138 397 
Q 2388 397 2633 464 
Q 2878 531 3122 666 
L 3122 134 
Q 2881 22 2623 -34 
Q 2366 -91 2075 -91 
Q 1284 -91 818 406 
Q 353 903 353 1747 
Q 353 2603 823 3093 
Q 1294 3584 2113 3584 
Q 2378 3584 2631 3529 
Q 2884 3475 3122 3366 
z
" transform="scale(0.015625)"/>
       <path id="DejaVuSans-72" d="M 2631 2963 
Q 2534 3019 2420 3045 
Q 2306 3072 2169 3072 
Q 1681 3072 1420 2755 
Q 1159 2438 1159 1844 
L 1159 0 
L 581 0 
L 581 3500 
L 1159 3500 
L 1159 2956 
Q 1341 3275 1631 3429 
Q 1922 3584 2338 3584 
Q 2397 3584 2469 3576 
Q 2541 3569 2628 3553 
L 2631 2963 
z
" transform="scale(0.015625)"/>
      </defs>
      <use xlink:href="#DejaVuSans-53"/>
      <use xlink:href="#DejaVuSans-63" x="63.476562"/>
      <use xlink:href="#DejaVuSans-6f" x="118.457031"/>
      <use xlink:href="#DejaVuSans-72" x="179.638672"/>
      <use xlink:href="#DejaVuSans-65" x="218.501953"/>
     </g>
    </g>
   </g>
   <g id="line2d_14">
    <path d="M 74.329545 298.761231 
L 75.067203 304.886769 
L 75.80486 307.949538 
L 76.542517 302.699077 
L 77.280174 308.387077 
L 78.017831 305.761846 
L 78.755488 307.949538 
L 79.493145 298.323692 
L 80.230803 305.761846 
L 80.96846 304.011692 
L 81.706117 304.011692 
L 82.443774 307.949538 
L 83.181431 304.011692 
L 83.919088 298.323692 
L 84.656745 301.824 
L 85.394402 303.136615 
L 86.13206 308.824615 
L 86.869717 308.387077 
L 87.607374 295.698462 
L 88.345031 305.761846 
L 89.082688 305.761846 
L 89.820345 308.387077 
L 90.558002 304.449231 
L 91.29566 307.512 
L 92.033317 303.574154 
L 92.770974 295.698462 
L 93.508631 301.386462 
L 94.246288 299.636308 
L 94.983945 298.323692 
L 95.721602 297.886154 
L 96.459259 306.199385 
L 97.196917 305.761846 
L 97.934574 301.386462 
L 98.672231 291.323077 
L 99.409888 308.387077 
L 100.147545 302.699077 
L 100.885202 308.824615 
L 101.622859 304.886769 
L 102.360516 308.387077 
L 103.098174 303.574154 
L 103.835831 305.324308 
L 104.573488 307.512 
L 105.311145 307.512 
L 106.048802 305.761846 
L 106.786459 305.761846 
L 107.524116 300.511385 
L 108.261774 302.699077 
L 108.999431 308.824615 
L 109.737088 301.386462 
L 110.474745 305.761846 
L 111.212402 301.824 
L 111.950059 302.699077 
L 112.687716 306.199385 
L 113.425373 308.387077 
L 114.163031 305.324308 
L 114.900688 293.510769 
L 115.638345 298.761231 
L 116.376002 305.761846 
L 117.113659 303.136615 
L 117.851316 307.949538 
L 118.588973 308.824615 
L 119.326631 306.636923 
L 120.064288 307.074462 
L 120.801945 302.699077 
L 121.539602 308.824615 
L 123.014916 286.947692 
L 123.752573 299.198769 
L 124.49023 286.947692 
L 125.227888 301.824 
L 125.965545 307.074462 
L 126.703202 299.636308 
L 127.440859 305.324308 
L 128.178516 296.573538 
L 128.916173 290.885538 
L 129.65383 307.074462 
L 130.391488 300.511385 
L 131.129145 305.761846 
L 131.866802 297.448615 
L 132.604459 303.574154 
L 133.342116 305.761846 
L 134.079773 303.574154 
L 134.81743 303.574154 
L 135.555087 299.636308 
L 136.292745 298.761231 
L 137.030402 286.947692 
L 137.768059 286.072615 
L 138.505716 303.136615 
L 139.243373 303.574154 
L 139.98103 306.636923 
L 140.718687 293.510769 
L 141.456345 301.386462 
L 142.194002 279.072 
L 142.931659 275.134154 
L 143.669316 297.886154 
L 144.406973 289.135385 
L 145.14463 297.448615 
L 145.882287 304.011692 
L 146.619944 299.198769 
L 147.357602 285.635077 
L 148.095259 297.886154 
L 148.832916 305.761846 
L 149.570573 295.260923 
L 150.30823 292.635692 
L 151.045887 299.636308 
L 151.783544 303.136615 
L 152.521201 304.011692 
L 153.258859 302.699077 
L 153.996516 300.511385 
L 154.734173 299.636308 
L 155.47183 290.448 
L 156.209487 292.635692 
L 156.947144 298.761231 
L 157.684801 291.323077 
L 158.422459 290.010462 
L 159.160116 298.323692 
L 159.897773 270.758769 
L 160.63543 281.697231 
L 161.373087 280.822154 
L 162.110744 291.323077 
L 162.848401 296.136 
L 163.586058 287.385231 
L 164.323716 292.198154 
L 165.061373 278.196923 
L 165.79903 256.757538 
L 166.536687 289.572923 
L 167.274344 300.073846 
L 168.012001 284.322462 
L 168.749658 293.073231 
L 169.487316 290.885538 
L 170.224973 291.323077 
L 170.96263 299.636308 
L 171.700287 288.697846 
L 172.437944 287.385231 
L 173.175601 272.946462 
L 173.913258 281.259692 
L 174.650915 286.510154 
L 175.388573 277.759385 
L 176.12623 293.948308 
L 176.863887 295.698462 
L 177.601544 285.635077 
L 179.076858 269.008615 
L 179.814515 285.635077 
L 180.552173 293.510769 
L 181.28983 292.635692 
L 182.027487 295.260923 
L 182.765144 279.509538 
L 183.502801 293.510769 
L 184.240458 294.385846 
L 184.978115 287.385231 
L 185.715772 287.385231 
L 187.191087 290.010462 
L 187.928744 287.385231 
L 188.666401 279.072 
L 189.404058 265.945846 
L 190.141715 278.634462 
L 190.879372 286.072615 
L 191.61703 279.509538 
L 192.354687 290.448 
L 193.092344 287.822769 
L 193.830001 295.698462 
L 194.567658 256.757538 
L 195.305315 292.635692 
L 196.042972 285.197538 
L 196.780629 290.010462 
L 197.518287 267.696 
L 198.255944 292.635692 
L 198.993601 291.323077 
L 199.731258 284.76 
L 200.468915 270.321231 
L 201.206572 291.760615 
L 202.681887 280.384615 
L 203.419544 293.073231 
L 204.157201 285.197538 
L 204.894858 255.444923 
L 205.632515 286.072615 
L 206.370172 289.572923 
L 207.107829 283.009846 
L 207.845486 290.885538 
L 208.583144 280.822154 
L 209.320801 268.133538 
L 210.058458 269.446154 
L 210.796115 278.634462 
L 211.533772 264.633231 
L 212.271429 267.696 
L 213.009086 271.633846 
L 213.746743 288.260308 
L 214.484401 278.196923 
L 215.222058 288.260308 
L 215.959715 281.259692 
L 216.697372 275.571692 
L 217.435029 268.571077 
L 218.172686 284.76 
L 218.910343 286.947692 
L 219.648001 288.697846 
L 220.385658 282.572308 
L 221.123315 274.696615 
L 221.860972 283.447385 
L 222.598629 260.257846 
L 223.336286 226.567385 
L 224.073943 270.321231 
L 224.8116 268.571077 
L 225.549258 275.134154 
L 226.286915 276.446769 
L 227.024572 234.005538 
L 227.762229 202.940308 
L 228.499886 244.068923 
L 229.237543 275.134154 
L 229.9752 263.320615 
L 230.712858 238.818462 
L 231.450515 137.309538 
L 232.188172 223.067077 
L 232.925829 252.819692 
L 233.663486 209.065846 
L 234.401143 248.881846 
L 235.1388 253.257231 
L 235.876457 202.065231 
L 236.614115 224.817231 
L 237.351772 256.757538 
L 238.089429 208.190769 
L 238.827086 247.569231 
L 239.564743 249.756923 
L 240.3024 216.941538 
L 241.040057 244.944 
L 241.777715 246.694154 
L 242.515372 174.062769 
L 243.253029 163.561846 
L 243.990686 235.318154 
L 244.728343 165.312 
L 245.466 250.194462 
L 246.203657 174.062769 
L 247.678972 243.631385 
L 248.416629 174.500308 
L 249.154286 233.568 
L 249.891943 187.188923 
L 250.6296 244.068923 
L 252.104914 157.436308 
L 252.842572 184.563692 
L 253.580229 157.873846 
L 254.317886 94.430769 
L 255.055543 102.744 
L 255.7932 197.252308 
L 256.530857 178.000615 
L 257.268514 209.503385 
L 258.006171 150.435692 
L 258.743829 107.994462 
L 259.481486 129.433846 
L 260.219143 226.567385 
L 260.9568 224.379692 
L 261.694457 202.502769 
L 262.432114 220.004308 
L 263.169771 226.129846 
L 263.907428 220.879385 
L 265.382743 198.564923 
L 266.1204 215.628923 
L 266.858057 194.627077 
L 267.595714 224.379692 
L 269.071028 113.244923 
L 269.808686 94.430769 
L 270.546343 192.001846 
L 271.284 188.939077 
L 272.021657 147.372923 
L 272.759314 139.059692 
L 273.496971 189.376615 
L 274.234628 94.430769 
L 274.972285 142.122462 
L 276.4476 208.628308 
L 277.185257 172.312615 
L 277.922914 102.306462 
L 278.660571 187.626462 
L 279.398228 130.746462 
L 280.135885 124.620923 
L 280.873543 214.316308 
L 281.6112 203.815385 
L 282.348857 176.250462 
L 283.086514 139.059692 
L 283.824171 234.880615 
L 284.561828 125.496 
L 285.299485 105.806769 
L 286.037142 185.876308 
L 286.7748 128.121231 
L 287.512457 163.561846 
L 288.250114 94.430769 
L 288.987771 126.371077 
L 289.725428 225.692308 
L 290.463085 184.126154 
L 291.200742 220.004308 
L 291.9384 200.315077 
L 292.676057 129.433846 
L 293.413714 140.809846 
L 294.151371 225.254769 
L 294.889028 174.937846 
L 295.626685 234.880615 
L 296.364342 171.875077 
L 297.101999 186.313846 
L 297.839657 114.12 
L 298.577314 224.379692 
L 299.314971 165.749538 
L 300.052628 169.687385 
L 300.790285 240.568615 
L 301.527942 240.568615 
L 302.265599 230.067692 
L 303.003257 237.505846 
L 303.740914 202.502769 
L 304.478571 225.692308 
L 305.216228 240.131077 
L 305.953885 241.443692 
L 306.691542 237.943385 
L 307.429199 220.441846 
L 308.166856 247.131692 
L 308.904514 238.818462 
L 309.642171 245.381538 
L 310.379828 219.566769 
L 311.117485 212.566154 
L 311.855142 188.939077 
L 312.592799 237.068308 
L 313.330456 246.694154 
L 314.068113 203.815385 
L 314.805771 241.006154 
L 315.543428 216.504 
L 316.281085 238.818462 
L 317.018742 113.682462 
L 317.756399 205.565538 
L 318.494056 151.310769 
L 319.231713 236.193231 
L 319.969371 242.756308 
L 320.707028 182.813538 
L 321.444685 214.753846 
L 322.182342 224.379692 
L 322.919999 225.692308 
L 323.657656 170.562462 
L 324.395313 223.067077 
L 325.13297 205.565538 
L 325.870628 168.374769 
L 326.608285 103.181538 
L 327.345942 94.430769 
L 328.083599 142.56 
L 328.821256 230.505231 
L 329.558913 215.628923 
L 330.29657 230.067692 
L 331.034228 125.058462 
L 331.771885 232.255385 
L 332.509542 203.377846 
L 333.247199 134.246769 
L 333.984856 167.937231 
L 334.722513 168.812308 
L 335.46017 235.755692 
L 336.197827 251.069538 
L 336.935485 236.630769 
L 337.673142 158.748923 
L 338.410799 249.319385 
L 339.148456 175.812923 
L 339.886113 177.125538 
L 340.62377 206.878154 
L 341.361427 210.816 
L 342.099085 206.878154 
L 342.836742 183.251077 
L 343.574399 199.002462 
L 344.312056 206.440615 
L 345.049713 188.501538 
L 345.78737 180.188308 
L 346.525027 184.126154 
L 347.262684 229.192615 
L 348.000342 192.439385 
L 348.737999 172.312615 
L 349.475656 186.313846 
L 350.213313 227.442462 
L 350.95097 202.065231 
L 351.688627 199.44 
L 352.426284 240.568615 
L 353.163942 225.254769 
L 353.901599 171 
L 354.639256 219.129231 
L 355.376913 170.562462 
L 356.11457 252.819692 
L 356.852227 232.255385 
L 357.589884 227.004923 
L 358.327541 94.430769 
L 359.065199 189.376615 
L 359.802856 204.690462 
L 360.540513 191.126769 
L 361.27817 142.997538 
L 362.015827 225.692308 
L 362.753484 194.189538 
L 363.491141 136.872 
L 364.228799 205.565538 
L 364.966456 192.001846 
L 366.44177 249.756923 
L 367.179427 213.003692 
L 367.917084 212.128615 
L 368.654741 177.125538 
L 369.392398 255.444923 
L 370.130056 230.505231 
L 370.867713 220.879385 
L 371.60537 136.434462 
L 372.343027 167.937231 
L 373.080684 223.504615 
L 373.818341 236.630769 
L 374.555998 239.693538 
L 375.293655 200.752615 
L 376.031313 209.940923 
L 376.76897 229.192615 
L 377.506627 196.814769 
L 378.244284 156.123692 
L 378.981941 225.254769 
L 379.719598 138.622154 
L 380.457255 214.753846 
L 381.194913 173.625231 
L 381.93257 231.380308 
L 382.670227 232.255385 
L 383.407884 206.003077 
L 384.145541 142.997538 
L 384.883198 164.436923 
L 385.620855 167.062154 
L 387.09617 94.430769 
L 387.833827 181.500923 
L 388.571484 180.625846 
L 390.046798 208.190769 
L 390.784455 155.248615 
L 391.522112 190.689231 
L 392.25977 195.502154 
L 392.997427 176.688 
L 393.735084 235.318154 
L 394.472741 203.815385 
L 395.210398 233.130462 
L 395.948055 171.875077 
L 396.685712 196.377231 
L 397.423369 206.440615 
L 398.161027 158.311385 
L 398.898684 216.066462 
L 399.636341 227.004923 
L 400.373998 241.443692 
L 401.111655 222.192 
L 401.849312 167.062154 
L 402.586969 202.065231 
L 403.324627 170.124923 
L 404.062284 117.182769 
L 404.799941 207.315692 
L 405.537598 211.253538 
L 406.275255 237.068308 
L 407.012912 166.624615 
L 407.750569 123.308308 
L 408.488226 198.564923 
L 409.225884 94.430769 
L 409.963541 209.065846 
L 410.701198 146.060308 
L 411.438855 225.692308 
L 412.176512 117.620308 
L 412.914169 118.495385 
L 413.651826 218.691692 
L 414.389484 174.062769 
L 415.127141 252.382154 
L 415.864798 94.430769 
L 416.602455 255.444923 
L 417.340112 237.943385 
L 418.077769 158.748923 
L 418.815426 231.380308 
L 419.553083 209.940923 
L 420.290741 185.001231 
L 421.028398 182.813538 
L 421.766055 208.190769 
L 422.503712 206.440615 
L 423.241369 203.815385 
L 423.979026 134.246769 
L 424.716683 188.939077 
L 425.45434 187.188923 
L 426.191998 219.566769 
L 426.929655 178.000615 
L 427.667312 190.251692 
L 428.404969 220.879385 
L 429.142626 227.004923 
L 429.880283 235.755692 
L 430.61794 213.441231 
L 431.355598 221.754462 
L 432.093255 167.062154 
L 433.568569 246.694154 
L 434.306226 261.570462 
L 435.043883 242.318769 
L 435.78154 239.693538 
L 436.519197 209.065846 
L 437.256855 197.689846 
L 437.994512 248.444308 
L 438.732169 248.444308 
L 439.469826 247.569231 
L 440.207483 94.430769 
L 440.94514 251.944615 
L 441.682797 220.004308 
L 442.420455 140.372308 
L 442.420455 140.372308 
" clip-path="url(#pfa212f0131)" style="fill: none; stroke: #708090; stroke-width: 1.5; stroke-linecap: square"/>
   </g>
   <g id="line2d_15">
    <path d="M 74.329545 303.950437 
L 75.80486 303.967938 
L 76.542517 303.932935 
L 77.280174 304.046695 
L 78.017831 303.98544 
L 79.493145 303.556652 
L 80.230803 303.705415 
L 80.96846 303.652911 
L 85.394402 304.090449 
L 86.13206 303.98544 
L 86.869717 303.547902 
L 89.082688 303.110363 
L 89.820345 303.136615 
L 90.558002 302.9616 
L 91.29566 302.979102 
L 92.770974 302.50656 
L 93.508631 302.73408 
L 94.246288 302.716578 
L 94.983945 302.839089 
L 95.721602 302.821588 
L 96.459259 302.935348 
L 98.672231 302.926597 
L 99.409888 303.092862 
L 100.147545 302.900345 
L 100.885202 302.585317 
L 101.622859 302.130277 
L 103.835831 302.060271 
L 105.311145 301.701489 
L 106.786459 300.520135 
L 109.737088 299.933834 
L 110.474745 299.89008 
L 111.212402 299.487545 
L 111.950059 299.408788 
L 112.687716 299.470043 
L 114.900688 298.822486 
L 116.376002 299.120012 
L 118.588973 298.839988 
L 120.064288 298.192431 
L 121.539602 297.798646 
L 122.277259 297.422363 
L 123.014916 297.431114 
L 124.49023 296.757305 
L 125.965545 296.424775 
L 128.178516 295.698462 
L 128.916173 295.330929 
L 129.65383 294.648369 
L 130.391488 294.298338 
L 131.129145 294.289588 
L 131.866802 293.8608 
L 132.604459 293.773292 
L 134.079773 293.230745 
L 134.81743 293.151988 
L 136.292745 292.60944 
L 137.030402 292.093145 
L 137.768059 291.979385 
L 138.505716 291.988135 
L 139.243373 291.480591 
L 141.456345 290.911791 
L 142.194002 290.430498 
L 142.931659 290.229231 
L 143.669316 290.439249 
L 144.406973 290.351742 
L 145.14463 290.421748 
L 145.882287 290.377994 
L 146.619944 289.887951 
L 147.357602 289.774191 
L 148.095259 289.949206 
L 148.832916 289.739188 
L 149.570573 289.371655 
L 151.783544 288.942868 
L 152.521201 288.461575 
L 153.258859 287.700258 
L 153.996516 287.218966 
L 155.47183 286.527655 
L 156.947144 286.431397 
L 157.684801 286.370142 
L 158.422459 285.678831 
L 159.160116 285.731335 
L 159.897773 285.468812 
L 160.63543 285.853846 
L 161.373087 285.573822 
L 162.110744 285.810092 
L 162.848401 285.810092 
L 165.061373 285.232542 
L 165.79903 285.390055 
L 166.536687 285.862597 
L 167.274344 285.932603 
L 168.012001 285.635077 
L 168.749658 285.057526 
L 169.487316 284.917514 
L 170.224973 284.891262 
L 172.437944 284.392468 
L 173.175601 284.007434 
L 174.650915 283.884923 
L 175.388573 283.447385 
L 176.12623 283.246117 
L 176.863887 282.799828 
L 178.339201 282.502302 
L 179.814515 282.966092 
L 180.552173 282.764825 
L 181.28983 282.266031 
L 182.765144 281.942252 
L 183.502801 282.126018 
L 184.240458 281.907249 
L 184.978115 281.513465 
L 185.715772 281.434708 
L 186.45343 280.89216 
L 187.191087 279.649551 
L 188.666401 278.879483 
L 189.404058 278.800726 
L 190.141715 279.010745 
L 190.879372 278.118166 
L 191.61703 276.45552 
L 192.354687 275.746708 
L 193.092344 275.440431 
L 193.830001 274.950388 
L 194.567658 273.812788 
L 195.305315 271.423828 
L 196.042972 270.032455 
L 196.780629 269.384898 
L 197.518287 267.766006 
L 198.255944 267.389723 
L 198.993601 266.602154 
L 199.731258 264.816997 
L 200.468915 263.618142 
L 201.206572 263.346868 
L 201.944229 261.675471 
L 203.419544 260.292849 
L 204.157201 258.770215 
L 204.894858 257.965145 
L 205.632515 257.790129 
L 207.107829 253.029711 
L 207.845486 252.075877 
L 208.583144 249.564406 
L 209.320801 248.951852 
L 210.058458 247.070437 
L 210.796115 245.862831 
L 211.533772 245.162769 
L 212.271429 243.360111 
L 213.009086 242.677551 
L 213.746743 240.988652 
L 214.484401 240.104825 
L 215.222058 238.494683 
L 215.959715 235.878203 
L 216.697372 233.944283 
L 217.435029 231.590326 
L 218.910343 224.4672 
L 219.648001 222.673292 
L 220.385658 220.459348 
L 221.123315 218.997969 
L 221.860972 216.512751 
L 222.598629 213.003692 
L 223.336286 210.387212 
L 224.073943 210.387212 
L 224.8116 209.468382 
L 226.286915 207.044418 
L 227.024572 206.03808 
L 227.762229 205.775557 
L 228.499886 205.915569 
L 229.237543 205.005489 
L 230.712858 202.441514 
L 231.450515 202.152738 
L 232.188172 202.844049 
L 232.925829 200.647606 
L 233.663486 197.479828 
L 234.401143 197.138548 
L 235.1388 195.939692 
L 235.876457 193.822006 
L 236.614115 192.561895 
L 237.351772 191.853083 
L 238.089429 188.606548 
L 239.564743 185.823803 
L 241.040057 184.108652 
L 241.777715 181.255902 
L 242.515372 180.074548 
L 243.990686 178.429403 
L 244.728343 178.009366 
L 245.466 178.779434 
L 246.203657 177.300554 
L 246.941314 176.600492 
L 247.678972 177.116788 
L 248.416629 174.75408 
L 249.154286 173.380209 
L 249.891943 172.426375 
L 250.6296 171.245022 
L 251.367257 169.63488 
L 252.104914 167.569698 
L 252.842572 166.948394 
L 253.580229 167.770966 
L 254.317886 168.296012 
L 255.055543 170.807483 
L 255.7932 172.758905 
L 256.530857 171.402535 
L 257.268514 170.65872 
L 258.006171 170.973748 
L 258.743829 171.463791 
L 259.481486 174.001514 
L 260.219143 174.850338 
L 260.9568 174.045268 
L 261.694457 171.840074 
L 262.432114 172.277612 
L 263.907428 170.063668 
L 264.645086 170.457452 
L 266.1204 171.700062 
L 266.858057 172.1376 
L 267.595714 172.295114 
L 268.333371 172.321366 
L 269.071028 173.686486 
L 270.546343 179.120714 
L 271.284 179.689514 
L 272.021657 180.853366 
L 272.759314 182.682277 
L 273.496971 184.808714 
L 274.234628 185.412517 
L 274.972285 187.775225 
L 275.709943 188.711557 
L 276.4476 189.962917 
L 277.922914 191.354289 
L 278.660571 194.128283 
L 279.398228 194.705834 
L 280.135885 196.867274 
L 281.6112 196.473489 
L 282.348857 195.423397 
L 283.086514 196.622252 
L 283.824171 198.696185 
L 284.561828 197.654843 
L 285.299485 199.44 
L 286.037142 201.811458 
L 287.512457 203.456603 
L 288.250114 204.646708 
L 288.987771 206.869403 
L 289.725428 207.709477 
L 290.463085 205.259262 
L 291.9384 201.916468 
L 292.676057 202.520271 
L 294.151371 206.029329 
L 294.889028 204.025403 
L 295.626685 205.171754 
L 297.839657 203.4216 
L 298.577314 204.515446 
L 299.314971 204.742966 
L 300.052628 206.449366 
L 300.790285 207.788234 
L 301.527942 206.15184 
L 302.265599 206.326855 
L 303.740914 204.034154 
L 304.478571 204.121662 
L 305.216228 203.824135 
L 305.953885 203.159077 
L 306.691542 201.995225 
L 307.429199 201.216406 
L 308.166856 200.936382 
L 310.379828 197.366068 
L 311.117485 197.558585 
L 312.592799 196.82352 
L 313.330456 195.808431 
L 314.068113 195.423397 
L 314.805771 195.388394 
L 315.543428 194.557071 
L 316.281085 195.038363 
L 317.018742 194.767089 
L 317.756399 195.91344 
L 319.231713 196.569748 
L 319.969371 196.902277 
L 320.707028 196.692258 
L 321.444685 197.576086 
L 322.182342 195.169625 
L 322.919999 194.469563 
L 323.657656 194.049526 
L 324.395313 194.460812 
L 325.13297 192.859422 
L 326.608285 193.778252 
L 327.345942 194.452062 
L 328.083599 196.674757 
L 328.821256 197.663594 
L 329.558913 197.471077 
L 330.29657 198.153637 
L 331.034228 197.812357 
L 331.771885 199.55376 
L 332.509542 198.451163 
L 333.247199 199.492505 
L 333.984856 201.417674 
L 334.722513 202.476517 
L 335.46017 201.82896 
L 336.197827 200.472591 
L 336.935485 199.921292 
L 337.673142 199.921292 
L 338.410799 201.540185 
L 339.148456 200.568849 
L 339.886113 201.251409 
L 340.62377 202.292751 
L 341.361427 202.091483 
L 342.099085 200.997637 
L 342.836742 201.365169 
L 343.574399 200.472591 
L 344.312056 200.787618 
L 345.049713 200.131311 
L 345.78737 200.988886 
L 346.525027 202.030228 
L 347.262684 202.467766 
L 348.000342 200.743865 
L 348.737999 200.183815 
L 349.475656 200.078806 
L 350.213313 198.98496 
L 350.95097 196.324726 
L 352.426284 195.537157 
L 353.163942 194.609575 
L 354.639256 193.953268 
L 355.376913 193.384468 
L 356.11457 193.883262 
L 356.852227 192.360628 
L 357.589884 192.421883 
L 358.327541 191.958092 
L 359.065199 194.732086 
L 359.802856 194.382055 
L 360.540513 194.215791 
L 362.015827 194.828345 
L 362.753484 194.635828 
L 363.491141 195.292135 
L 364.228799 197.383569 
L 364.966456 197.716098 
L 366.44177 196.841022 
L 367.179427 195.248382 
L 367.917084 193.331963 
L 368.654741 193.235705 
L 369.392398 193.918265 
L 370.130056 193.550732 
L 370.867713 192.27312 
L 371.60537 190.321698 
L 372.343027 191.564308 
L 373.080684 190.094178 
L 373.818341 189.805403 
L 374.555998 187.993994 
L 375.293655 187.713969 
L 376.76897 184.222412 
L 377.506627 184.012394 
L 378.244284 183.557354 
L 378.981941 185.482523 
L 379.719598 182.866043 
L 380.457255 185.202498 
L 381.194913 185.666289 
L 381.93257 185.368763 
L 382.670227 185.368763 
L 384.145541 184.502437 
L 386.358512 186.961403 
L 387.09617 188.40528 
L 387.833827 189.2016 
L 389.309141 189.481625 
L 390.046798 189.989169 
L 390.784455 189.385366 
L 392.25977 190.689231 
L 392.997427 191.319286 
L 393.735084 192.50064 
L 394.472741 192.063102 
L 395.210398 192.421883 
L 395.948055 191.100517 
L 396.685712 191.774326 
L 398.161027 193.883262 
L 398.898684 195.563409 
L 399.636341 196.035951 
L 400.373998 195.677169 
L 401.111655 194.802092 
L 401.849312 195.327138 
L 402.586969 196.954782 
L 403.324627 197.864862 
L 404.062284 196.350978 
L 404.799941 199.046215 
L 405.537598 199.299988 
L 406.275255 197.882363 
L 406.275255 197.882363 
" clip-path="url(#pfa212f0131)" style="fill: none; stroke: #000080; stroke-width: 1.5; stroke-linecap: square"/>
   </g>
   <g id="line2d_16">
    <path d="M 55.925 94.430769 
L 460.825 94.430769 
" clip-path="url(#pfa212f0131)" style="fill: none; stroke-dasharray: 5.55,2.4; stroke-dashoffset: 0; stroke: #008000; stroke-width: 1.5"/>
   </g>
   <g id="patch_3">
    <path d="M 55.925 313.2 
L 55.925 28.8 
" style="fill: none; stroke: #000000; stroke-width: 0.8; stroke-linejoin: miter; stroke-linecap: square"/>
   </g>
   <g id="patch_4">
    <path d="M 460.825 313.2 
L 460.825 28.8 
" style="fill: none; stroke: #000000; stroke-width: 0.8; stroke-linejoin: miter; stroke-linecap: square"/>
   </g>
   <g id="patch_5">
    <path d="M 55.925 313.2 
L 460.825 313.2 
" style="fill: none; stroke: #000000; stroke-width: 0.8; stroke-linejoin: miter; stroke-linecap: square"/>
   </g>
   <g id="patch_6">
    <path d="M 55.925 28.8 
L 460.825 28.8 
" style="fill: none; stroke: #000000; stroke-width: 0.8; stroke-linejoin: miter; stroke-linecap: square"/>
   </g>
   <g id="text_16">
    <!-- Slope = 10 -->
    <g transform="translate(216.969141 22.8)scale(0.15 -0.15)">
     <defs>
      <path id="DejaVuSans-6c" d="M 603 4863 
L 1178 4863 
L 1178 0 
L 603 0 
L 603 4863 
z
" transform="scale(0.015625)"/>
      <path id="DejaVuSans-20" transform="scale(0.015625)"/>
      <path id="DejaVuSans-3d" d="M 678 2906 
L 4684 2906 
L 4684 2381 
L 678 2381 
L 678 2906 
z
M 678 1631 
L 4684 1631 
L 4684 1100 
L 678 1100 
L 678 1631 
z
" transform="scale(0.015625)"/>
     </defs>
     <use xlink:href="#DejaVuSans-53"/>
     <use xlink:href="#DejaVuSans-6c" x="63.476562"/>
     <use xlink:href="#DejaVuSans-6f" x="91.259766"/>
     <use xlink:href="#DejaVuSans-70" x="152.441406"/>
     <use xlink:href="#DejaVuSans-65" x="215.917969"/>
     <use xlink:href="#DejaVuSans-20" x="277.441406"/>
     <use xlink:href="#DejaVuSans-3d" x="309.228516"/>
     <use xlink:href="#DejaVuSans-20" x="393.017578"/>
     <use xlink:href="#DejaVuSans-31" x="424.804688"/>
     <use xlink:href="#DejaVuSans-30" x="488.427734"/>
    </g>
   </g>
   <g id="legend_1">
    <g id="patch_7">
     <path d="M 293.50625 80.834375 
L 453.825 80.834375 
Q 455.825 80.834375 455.825 78.834375 
L 455.825 35.8 
Q 455.825 33.8 453.825 33.8 
L 293.50625 33.8 
Q 291.50625 33.8 291.50625 35.8 
L 291.50625 78.834375 
Q 291.50625 80.834375 293.50625 80.834375 
z
" style="fill: #ffffff; opacity: 0.8; stroke: #cccccc; stroke-linejoin: miter"/>
    </g>
    <g id="line2d_17">
     <path d="M 295.50625 41.898438 
L 305.50625 41.898438 
L 315.50625 41.898438 
" style="fill: none; stroke: #708090; stroke-width: 1.5; stroke-linecap: square"/>
    </g>
    <g id="text_17">
     <!-- Episodes score -->
     <g transform="translate(323.50625 45.398438)scale(0.1 -0.1)">
      <use xlink:href="#DejaVuSans-45"/>
      <use xlink:href="#DejaVuSans-70" x="63.183594"/>
      <use xlink:href="#DejaVuSans-69" x="126.660156"/>
      <use xlink:href="#DejaVuSans-73" x="154.443359"/>
      <use xlink:href="#DejaVuSans-6f" x="206.542969"/>
      <use xlink:href="#DejaVuSans-64" x="267.724609"/>
      <use xlink:href="#DejaVuSans-65" x="331.201172"/>
      <use xlink:href="#DejaVuSans-73" x="392.724609"/>
      <use xlink:href="#DejaVuSans-20" x="444.824219"/>
      <use xlink:href="#DejaVuSans-73" x="476.611328"/>
      <use xlink:href="#DejaVuSans-63" x="528.710938"/>
      <use xlink:href="#DejaVuSans-6f" x="583.691406"/>
      <use xlink:href="#DejaVuSans-72" x="644.873047"/>
      <use xlink:href="#DejaVuSans-65" x="683.736328"/>
     </g>
    </g>
    <g id="line2d_18">
     <path d="M 295.50625 56.576563 
L 305.50625 56.576563 
L 315.50625 56.576563 
" style="fill: none; stroke: #000080; stroke-width: 1.5; stroke-linecap: square"/>
    </g>
    <g id="text_18">
     <!-- Moving average of scores -->
     <g transform="translate(323.50625 60.076563)scale(0.1 -0.1)">
      <defs>
       <path id="DejaVuSans-4d" d="M 628 4666 
L 1569 4666 
L 2759 1491 
L 3956 4666 
L 4897 4666 
L 4897 0 
L 4281 0 
L 4281 4097 
L 3078 897 
L 2444 897 
L 1241 4097 
L 1241 0 
L 628 0 
L 628 4666 
z
" transform="scale(0.015625)"/>
       <path id="DejaVuSans-76" d="M 191 3500 
L 800 3500 
L 1894 563 
L 2988 3500 
L 3597 3500 
L 2284 0 
L 1503 0 
L 191 3500 
z
" transform="scale(0.015625)"/>
       <path id="DejaVuSans-6e" d="M 3513 2113 
L 3513 0 
L 2938 0 
L 2938 2094 
Q 2938 2591 2744 2837 
Q 2550 3084 2163 3084 
Q 1697 3084 1428 2787 
Q 1159 2491 1159 1978 
L 1159 0 
L 581 0 
L 581 3500 
L 1159 3500 
L 1159 2956 
Q 1366 3272 1645 3428 
Q 1925 3584 2291 3584 
Q 2894 3584 3203 3211 
Q 3513 2838 3513 2113 
z
" transform="scale(0.015625)"/>
       <path id="DejaVuSans-67" d="M 2906 1791 
Q 2906 2416 2648 2759 
Q 2391 3103 1925 3103 
Q 1463 3103 1205 2759 
Q 947 2416 947 1791 
Q 947 1169 1205 825 
Q 1463 481 1925 481 
Q 2391 481 2648 825 
Q 2906 1169 2906 1791 
z
M 3481 434 
Q 3481 -459 3084 -895 
Q 2688 -1331 1869 -1331 
Q 1566 -1331 1297 -1286 
Q 1028 -1241 775 -1147 
L 775 -588 
Q 1028 -725 1275 -790 
Q 1522 -856 1778 -856 
Q 2344 -856 2625 -561 
Q 2906 -266 2906 331 
L 2906 616 
Q 2728 306 2450 153 
Q 2172 0 1784 0 
Q 1141 0 747 490 
Q 353 981 353 1791 
Q 353 2603 747 3093 
Q 1141 3584 1784 3584 
Q 2172 3584 2450 3431 
Q 2728 3278 2906 2969 
L 2906 3500 
L 3481 3500 
L 3481 434 
z
" transform="scale(0.015625)"/>
       <path id="DejaVuSans-61" d="M 2194 1759 
Q 1497 1759 1228 1600 
Q 959 1441 959 1056 
Q 959 750 1161 570 
Q 1363 391 1709 391 
Q 2188 391 2477 730 
Q 2766 1069 2766 1631 
L 2766 1759 
L 2194 1759 
z
M 3341 1997 
L 3341 0 
L 2766 0 
L 2766 531 
Q 2569 213 2275 61 
Q 1981 -91 1556 -91 
Q 1019 -91 701 211 
Q 384 513 384 1019 
Q 384 1609 779 1909 
Q 1175 2209 1959 2209 
L 2766 2209 
L 2766 2266 
Q 2766 2663 2505 2880 
Q 2244 3097 1772 3097 
Q 1472 3097 1187 3025 
Q 903 2953 641 2809 
L 641 3341 
Q 956 3463 1253 3523 
Q 1550 3584 1831 3584 
Q 2591 3584 2966 3190 
Q 3341 2797 3341 1997 
z
" transform="scale(0.015625)"/>
       <path id="DejaVuSans-66" d="M 2375 4863 
L 2375 4384 
L 1825 4384 
Q 1516 4384 1395 4259 
Q 1275 4134 1275 3809 
L 1275 3500 
L 2222 3500 
L 2222 3053 
L 1275 3053 
L 1275 0 
L 697 0 
L 697 3053 
L 147 3053 
L 147 3500 
L 697 3500 
L 697 3744 
Q 697 4328 969 4595 
Q 1241 4863 1831 4863 
L 2375 4863 
z
" transform="scale(0.015625)"/>
      </defs>
      <use xlink:href="#DejaVuSans-4d"/>
      <use xlink:href="#DejaVuSans-6f" x="86.279297"/>
      <use xlink:href="#DejaVuSans-76" x="147.460938"/>
      <use xlink:href="#DejaVuSans-69" x="206.640625"/>
      <use xlink:href="#DejaVuSans-6e" x="234.423828"/>
      <use xlink:href="#DejaVuSans-67" x="297.802734"/>
      <use xlink:href="#DejaVuSans-20" x="361.279297"/>
      <use xlink:href="#DejaVuSans-61" x="393.066406"/>
      <use xlink:href="#DejaVuSans-76" x="454.345703"/>
      <use xlink:href="#DejaVuSans-65" x="513.525391"/>
      <use xlink:href="#DejaVuSans-72" x="575.048828"/>
      <use xlink:href="#DejaVuSans-61" x="616.162109"/>
      <use xlink:href="#DejaVuSans-67" x="677.441406"/>
      <use xlink:href="#DejaVuSans-65" x="740.917969"/>
      <use xlink:href="#DejaVuSans-20" x="802.441406"/>
      <use xlink:href="#DejaVuSans-6f" x="834.228516"/>
      <use xlink:href="#DejaVuSans-66" x="895.410156"/>
      <use xlink:href="#DejaVuSans-20" x="930.615234"/>
      <use xlink:href="#DejaVuSans-73" x="962.402344"/>
      <use xlink:href="#DejaVuSans-63" x="1014.501953"/>
      <use xlink:href="#DejaVuSans-6f" x="1069.482422"/>
      <use xlink:href="#DejaVuSans-72" x="1130.664062"/>
      <use xlink:href="#DejaVuSans-65" x="1169.527344"/>
      <use xlink:href="#DejaVuSans-73" x="1231.050781"/>
     </g>
    </g>
    <g id="line2d_19">
     <path d="M 295.50625 71.254687 
L 305.50625 71.254687 
L 315.50625 71.254687 
" style="fill: none; stroke-dasharray: 5.55,2.4; stroke-dashoffset: 0; stroke: #008000; stroke-width: 1.5"/>
    </g>
    <g id="text_19">
     <!-- Game Solved -->
     <g transform="translate(323.50625 74.754687)scale(0.1 -0.1)">
      <defs>
       <path id="DejaVuSans-47" d="M 3809 666 
L 3809 1919 
L 2778 1919 
L 2778 2438 
L 4434 2438 
L 4434 434 
Q 4069 175 3628 42 
Q 3188 -91 2688 -91 
Q 1594 -91 976 548 
Q 359 1188 359 2328 
Q 359 3472 976 4111 
Q 1594 4750 2688 4750 
Q 3144 4750 3555 4637 
Q 3966 4525 4313 4306 
L 4313 3634 
Q 3963 3931 3569 4081 
Q 3175 4231 2741 4231 
Q 1884 4231 1454 3753 
Q 1025 3275 1025 2328 
Q 1025 1384 1454 906 
Q 1884 428 2741 428 
Q 3075 428 3337 486 
Q 3600 544 3809 666 
z
" transform="scale(0.015625)"/>
       <path id="DejaVuSans-6d" d="M 3328 2828 
Q 3544 3216 3844 3400 
Q 4144 3584 4550 3584 
Q 5097 3584 5394 3201 
Q 5691 2819 5691 2113 
L 5691 0 
L 5113 0 
L 5113 2094 
Q 5113 2597 4934 2840 
Q 4756 3084 4391 3084 
Q 3944 3084 3684 2787 
Q 3425 2491 3425 1978 
L 3425 0 
L 2847 0 
L 2847 2094 
Q 2847 2600 2669 2842 
Q 2491 3084 2119 3084 
Q 1678 3084 1418 2786 
Q 1159 2488 1159 1978 
L 1159 0 
L 581 0 
L 581 3500 
L 1159 3500 
L 1159 2956 
Q 1356 3278 1631 3431 
Q 1906 3584 2284 3584 
Q 2666 3584 2933 3390 
Q 3200 3197 3328 2828 
z
" transform="scale(0.015625)"/>
      </defs>
      <use xlink:href="#DejaVuSans-47"/>
      <use xlink:href="#DejaVuSans-61" x="77.490234"/>
      <use xlink:href="#DejaVuSans-6d" x="138.769531"/>
      <use xlink:href="#DejaVuSans-65" x="236.181641"/>
      <use xlink:href="#DejaVuSans-20" x="297.705078"/>
      <use xlink:href="#DejaVuSans-53" x="329.492188"/>
      <use xlink:href="#DejaVuSans-6f" x="392.96875"/>
      <use xlink:href="#DejaVuSans-6c" x="454.150391"/>
      <use xlink:href="#DejaVuSans-76" x="481.933594"/>
      <use xlink:href="#DejaVuSans-65" x="541.113281"/>
      <use xlink:href="#DejaVuSans-64" x="602.636719"/>
     </g>
    </g>
   </g>
  </g>
  <g id="axes_2">
   <g id="matplotlib.axis_3">
    <g id="ytick_8">
     <g id="line2d_20">
      <defs>
       <path id="m98baccb8ab" d="M 0 0 
L 3.5 0 
" style="stroke: #000000; stroke-width: 0.8"/>
      </defs>
      <g>
       <use xlink:href="#m98baccb8ab" x="460.825" y="300.272755" style="stroke: #000000; stroke-width: 0.8"/>
      </g>
     </g>
     <g id="text_20">
      <!-- 0 -->
      <g transform="translate(467.825 304.071973)scale(0.1 -0.1)">
       <use xlink:href="#DejaVuSans-30"/>
      </g>
     </g>
    </g>
    <g id="ytick_9">
     <g id="line2d_21">
      <g>
       <use xlink:href="#m98baccb8ab" x="460.825" y="248.563658" style="stroke: #000000; stroke-width: 0.8"/>
      </g>
     </g>
     <g id="text_21">
      <!-- 1 -->
      <g transform="translate(467.825 252.362877)scale(0.1 -0.1)">
       <use xlink:href="#DejaVuSans-31"/>
      </g>
     </g>
    </g>
    <g id="ytick_10">
     <g id="line2d_22">
      <g>
       <use xlink:href="#m98baccb8ab" x="460.825" y="196.854562" style="stroke: #000000; stroke-width: 0.8"/>
      </g>
     </g>
     <g id="text_22">
      <!-- 2 -->
      <g transform="translate(467.825 200.653781)scale(0.1 -0.1)">
       <use xlink:href="#DejaVuSans-32"/>
      </g>
     </g>
    </g>
    <g id="ytick_11">
     <g id="line2d_23">
      <g>
       <use xlink:href="#m98baccb8ab" x="460.825" y="145.145465" style="stroke: #000000; stroke-width: 0.8"/>
      </g>
     </g>
     <g id="text_23">
      <!-- 3 -->
      <g transform="translate(467.825 148.944684)scale(0.1 -0.1)">
       <use xlink:href="#DejaVuSans-33"/>
      </g>
     </g>
    </g>
    <g id="ytick_12">
     <g id="line2d_24">
      <g>
       <use xlink:href="#m98baccb8ab" x="460.825" y="93.436369" style="stroke: #000000; stroke-width: 0.8"/>
      </g>
     </g>
     <g id="text_24">
      <!-- 4 -->
      <g transform="translate(467.825 97.235588)scale(0.1 -0.1)">
       <use xlink:href="#DejaVuSans-34"/>
      </g>
     </g>
    </g>
    <g id="ytick_13">
     <g id="line2d_25">
      <g>
       <use xlink:href="#m98baccb8ab" x="460.825" y="41.727273" style="stroke: #000000; stroke-width: 0.8"/>
      </g>
     </g>
     <g id="text_25">
      <!-- 5 -->
      <g transform="translate(467.825 45.526491)scale(0.1 -0.1)">
       <use xlink:href="#DejaVuSans-35"/>
      </g>
     </g>
    </g>
    <g id="text_26">
     <!-- Temperature -->
     <g transform="translate(489.585156 218.504297)rotate(-90)scale(0.15 -0.15)">
      <defs>
       <path id="DejaVuSans-54" d="M -19 4666 
L 3928 4666 
L 3928 4134 
L 2272 4134 
L 2272 0 
L 1638 0 
L 1638 4134 
L -19 4134 
L -19 4666 
z
" transform="scale(0.015625)"/>
       <path id="DejaVuSans-74" d="M 1172 4494 
L 1172 3500 
L 2356 3500 
L 2356 3053 
L 1172 3053 
L 1172 1153 
Q 1172 725 1289 603 
Q 1406 481 1766 481 
L 2356 481 
L 2356 0 
L 1766 0 
Q 1100 0 847 248 
Q 594 497 594 1153 
L 594 3053 
L 172 3053 
L 172 3500 
L 594 3500 
L 594 4494 
L 1172 4494 
z
" transform="scale(0.015625)"/>
       <path id="DejaVuSans-75" d="M 544 1381 
L 544 3500 
L 1119 3500 
L 1119 1403 
Q 1119 906 1312 657 
Q 1506 409 1894 409 
Q 2359 409 2629 706 
Q 2900 1003 2900 1516 
L 2900 3500 
L 3475 3500 
L 3475 0 
L 2900 0 
L 2900 538 
Q 2691 219 2414 64 
Q 2138 -91 1772 -91 
Q 1169 -91 856 284 
Q 544 659 544 1381 
z
M 1991 3584 
L 1991 3584 
z
" transform="scale(0.015625)"/>
      </defs>
      <use xlink:href="#DejaVuSans-54"/>
      <use xlink:href="#DejaVuSans-65" x="44.083984"/>
      <use xlink:href="#DejaVuSans-6d" x="105.607422"/>
      <use xlink:href="#DejaVuSans-70" x="203.019531"/>
      <use xlink:href="#DejaVuSans-65" x="266.496094"/>
      <use xlink:href="#DejaVuSans-72" x="328.019531"/>
      <use xlink:href="#DejaVuSans-61" x="369.132812"/>
      <use xlink:href="#DejaVuSans-74" x="430.412109"/>
      <use xlink:href="#DejaVuSans-75" x="469.621094"/>
      <use xlink:href="#DejaVuSans-72" x="533"/>
      <use xlink:href="#DejaVuSans-65" x="571.863281"/>
     </g>
    </g>
   </g>
   <g id="line2d_26">
    <path d="M 74.329545 41.727273 
L 76.542517 65.526456 
L 78.755488 87.134918 
L 80.96846 106.754316 
L 83.181431 124.567742 
L 85.394402 140.741437 
L 87.607374 155.426339 
L 89.820345 168.759492 
L 92.033317 180.865325 
L 94.246288 191.856812 
L 96.459259 201.83653 
L 98.672231 210.897612 
L 100.885202 219.124618 
L 103.098174 226.594327 
L 105.311145 233.376447 
L 107.524116 239.53427 
L 109.737088 245.125265 
L 111.950059 250.201607 
L 114.163031 254.81067 
L 116.376002 258.995467 
L 118.588973 262.795053 
L 120.801945 266.244886 
L 123.014916 269.377161 
L 125.965545 273.109679 
L 128.916173 276.391269 
L 131.866802 279.276407 
L 134.81743 281.812991 
L 137.768059 284.043127 
L 140.718687 286.00384 
L 143.669316 287.727677 
L 147.357602 289.592629 
L 151.045887 291.180338 
L 154.734173 292.532017 
L 159.160116 293.891502 
L 163.586058 295.012224 
L 168.749658 296.073485 
L 174.650915 297.026829 
L 181.28983 297.843215 
L 188.666401 298.511874 
L 197.518287 299.076077 
L 208.583144 299.534364 
L 222.598629 299.872185 
L 242.515372 300.104784 
L 275.709943 300.233294 
L 363.491141 300.271898 
L 442.420455 300.272727 
L 442.420455 300.272727 
" clip-path="url(#pfa212f0131)" style="fill: none; stroke: #ff0000; stroke-width: 1.5; stroke-linecap: square"/>
   </g>
   <g id="patch_8">
    <path d="M 55.925 313.2 
L 55.925 28.8 
" style="fill: none; stroke: #000000; stroke-width: 0.8; stroke-linejoin: miter; stroke-linecap: square"/>
   </g>
   <g id="patch_9">
    <path d="M 460.825 313.2 
L 460.825 28.8 
" style="fill: none; stroke: #000000; stroke-width: 0.8; stroke-linejoin: miter; stroke-linecap: square"/>
   </g>
   <g id="patch_10">
    <path d="M 55.925 313.2 
L 460.825 313.2 
" style="fill: none; stroke: #000000; stroke-width: 0.8; stroke-linejoin: miter; stroke-linecap: square"/>
   </g>
   <g id="patch_11">
    <path d="M 55.925 28.8 
L 460.825 28.8 
" style="fill: none; stroke: #000000; stroke-width: 0.8; stroke-linejoin: miter; stroke-linecap: square"/>
   </g>
   <g id="legend_2">
    <g id="patch_12">
     <path d="M 62.925 51.478125 
L 158.264063 51.478125 
Q 160.264063 51.478125 160.264063 49.478125 
L 160.264063 35.8 
Q 160.264063 33.8 158.264063 33.8 
L 62.925 33.8 
Q 60.925 33.8 60.925 35.8 
L 60.925 49.478125 
Q 60.925 51.478125 62.925 51.478125 
z
" style="fill: #ffffff; opacity: 0.8; stroke: #cccccc; stroke-linejoin: miter"/>
    </g>
    <g id="line2d_27">
     <path d="M 64.925 41.898438 
L 74.925 41.898438 
L 84.925 41.898438 
" style="fill: none; stroke: #ff0000; stroke-width: 1.5; stroke-linecap: square"/>
    </g>
    <g id="text_27">
     <!-- Temperature -->
     <g transform="translate(92.925 45.398438)scale(0.1 -0.1)">
      <use xlink:href="#DejaVuSans-54"/>
      <use xlink:href="#DejaVuSans-65" x="44.083984"/>
      <use xlink:href="#DejaVuSans-6d" x="105.607422"/>
      <use xlink:href="#DejaVuSans-70" x="203.019531"/>
      <use xlink:href="#DejaVuSans-65" x="266.496094"/>
      <use xlink:href="#DejaVuSans-72" x="328.019531"/>
      <use xlink:href="#DejaVuSans-61" x="369.132812"/>
      <use xlink:href="#DejaVuSans-74" x="430.412109"/>
      <use xlink:href="#DejaVuSans-75" x="469.621094"/>
      <use xlink:href="#DejaVuSans-72" x="533"/>
      <use xlink:href="#DejaVuSans-65" x="571.863281"/>
     </g>
    </g>
   </g>
  </g>
 </g>
 <defs>
  <clipPath id="pfa212f0131">
   <rect x="55.925" y="28.8" width="404.9" height="284.4"/>
  </clipPath>
 </defs>
</svg>
