<?xml version="1.0" encoding="utf-8" standalone="no"?>
<!DOCTYPE svg PUBLIC "-//W3C//DTD SVG 1.1//EN"
  "http://www.w3.org/Graphics/SVG/1.1/DTD/svg11.dtd">
<svg xmlns:xlink="http://www.w3.org/1999/xlink" width="504pt" height="360pt" viewBox="0 0 504 360" xmlns="http://www.w3.org/2000/svg" version="1.1">
 <metadata>
  <rdf:RDF xmlns:dc="http://purl.org/dc/elements/1.1/" xmlns:cc="http://creativecommons.org/ns#" xmlns:rdf="http://www.w3.org/1999/02/22-rdf-syntax-ns#">
   <cc:Work>
    <dc:type rdf:resource="http://purl.org/dc/dcmitype/StillImage"/>
    <dc:date>2022-07-28T17:32:06.721488</dc:date>
    <dc:format>image/svg+xml</dc:format>
    <dc:creator>
     <cc:Agent>
      <dc:title>Matplotlib v3.5.1, https://matplotlib.org/</dc:title>
     </cc:Agent>
    </dc:creator>
   </cc:Work>
  </rdf:RDF>
 </metadata>
 <defs>
  <style type="text/css">*{stroke-linejoin: round; stroke-linecap: butt}</style>
 </defs>
 <g id="figure_1">
  <g id="patch_1">
   <path d="M 0 360 
L 504 360 
L 504 0 
L 0 0 
L 0 360 
z
" style="fill: none"/>
  </g>
  <g id="axes_1">
   <g id="patch_2">
    <path d="M 55.925 313.2 
L 451.2 313.2 
L 451.2 10.8 
L 55.925 10.8 
z
" style="fill: #ffffff"/>
   </g>
   <g id="matplotlib.axis_1">
    <g id="xtick_1">
     <g id="line2d_1">
      <defs>
       <path id="m775a4a09b7" d="M 0 0 
L 0 3.5 
" style="stroke: #000000; stroke-width: 0.8"/>
      </defs>
      <g>
       <use xlink:href="#m775a4a09b7" x="73.892045" y="313.2" style="stroke: #000000; stroke-width: 0.8"/>
      </g>
     </g>
     <g id="text_1">
      <!-- 0 -->
      <g transform="translate(70.710795 327.798437)scale(0.1 -0.1)">
       <defs>
        <path id="DejaVuSans-30" d="M 2034 4250 
Q 1547 4250 1301 3770 
Q 1056 3291 1056 2328 
Q 1056 1369 1301 889 
Q 1547 409 2034 409 
Q 2525 409 2770 889 
Q 3016 1369 3016 2328 
Q 3016 3291 2770 3770 
Q 2525 4250 2034 4250 
z
M 2034 4750 
Q 2819 4750 3233 4129 
Q 3647 3509 3647 2328 
Q 3647 1150 3233 529 
Q 2819 -91 2034 -91 
Q 1250 -91 836 529 
Q 422 1150 422 2328 
Q 422 3509 836 4129 
Q 1250 4750 2034 4750 
z
" transform="scale(0.015625)"/>
       </defs>
       <use xlink:href="#DejaVuSans-30"/>
      </g>
     </g>
    </g>
    <g id="xtick_2">
     <g id="line2d_2">
      <g>
       <use xlink:href="#m775a4a09b7" x="118.922235" y="313.2" style="stroke: #000000; stroke-width: 0.8"/>
      </g>
     </g>
     <g id="text_2">
      <!-- 50 -->
      <g transform="translate(112.559735 327.798437)scale(0.1 -0.1)">
       <defs>
        <path id="DejaVuSans-35" d="M 691 4666 
L 3169 4666 
L 3169 4134 
L 1269 4134 
L 1269 2991 
Q 1406 3038 1543 3061 
Q 1681 3084 1819 3084 
Q 2600 3084 3056 2656 
Q 3513 2228 3513 1497 
Q 3513 744 3044 326 
Q 2575 -91 1722 -91 
Q 1428 -91 1123 -41 
Q 819 9 494 109 
L 494 744 
Q 775 591 1075 516 
Q 1375 441 1709 441 
Q 2250 441 2565 725 
Q 2881 1009 2881 1497 
Q 2881 1984 2565 2268 
Q 2250 2553 1709 2553 
Q 1456 2553 1204 2497 
Q 953 2441 691 2322 
L 691 4666 
z
" transform="scale(0.015625)"/>
       </defs>
       <use xlink:href="#DejaVuSans-35"/>
       <use xlink:href="#DejaVuSans-30" x="63.623047"/>
      </g>
     </g>
    </g>
    <g id="xtick_3">
     <g id="line2d_3">
      <g>
       <use xlink:href="#m775a4a09b7" x="163.952424" y="313.2" style="stroke: #000000; stroke-width: 0.8"/>
      </g>
     </g>
     <g id="text_3">
      <!-- 100 -->
      <g transform="translate(154.408674 327.798437)scale(0.1 -0.1)">
       <defs>
        <path id="DejaVuSans-31" d="M 794 531 
L 1825 531 
L 1825 4091 
L 703 3866 
L 703 4441 
L 1819 4666 
L 2450 4666 
L 2450 531 
L 3481 531 
L 3481 0 
L 794 0 
L 794 531 
z
" transform="scale(0.015625)"/>
       </defs>
       <use xlink:href="#DejaVuSans-31"/>
       <use xlink:href="#DejaVuSans-30" x="63.623047"/>
       <use xlink:href="#DejaVuSans-30" x="127.246094"/>
      </g>
     </g>
    </g>
    <g id="xtick_4">
     <g id="line2d_4">
      <g>
       <use xlink:href="#m775a4a09b7" x="208.982613" y="313.2" style="stroke: #000000; stroke-width: 0.8"/>
      </g>
     </g>
     <g id="text_4">
      <!-- 150 -->
      <g transform="translate(199.438863 327.798437)scale(0.1 -0.1)">
       <use xlink:href="#DejaVuSans-31"/>
       <use xlink:href="#DejaVuSans-35" x="63.623047"/>
       <use xlink:href="#DejaVuSans-30" x="127.246094"/>
      </g>
     </g>
    </g>
    <g id="xtick_5">
     <g id="line2d_5">
      <g>
       <use xlink:href="#m775a4a09b7" x="254.012802" y="313.2" style="stroke: #000000; stroke-width: 0.8"/>
      </g>
     </g>
     <g id="text_5">
      <!-- 200 -->
      <g transform="translate(244.469052 327.798437)scale(0.1 -0.1)">
       <defs>
        <path id="DejaVuSans-32" d="M 1228 531 
L 3431 531 
L 3431 0 
L 469 0 
L 469 531 
Q 828 903 1448 1529 
Q 2069 2156 2228 2338 
Q 2531 2678 2651 2914 
Q 2772 3150 2772 3378 
Q 2772 3750 2511 3984 
Q 2250 4219 1831 4219 
Q 1534 4219 1204 4116 
Q 875 4013 500 3803 
L 500 4441 
Q 881 4594 1212 4672 
Q 1544 4750 1819 4750 
Q 2544 4750 2975 4387 
Q 3406 4025 3406 3419 
Q 3406 3131 3298 2873 
Q 3191 2616 2906 2266 
Q 2828 2175 2409 1742 
Q 1991 1309 1228 531 
z
" transform="scale(0.015625)"/>
       </defs>
       <use xlink:href="#DejaVuSans-32"/>
       <use xlink:href="#DejaVuSans-30" x="63.623047"/>
       <use xlink:href="#DejaVuSans-30" x="127.246094"/>
      </g>
     </g>
    </g>
    <g id="xtick_6">
     <g id="line2d_6">
      <g>
       <use xlink:href="#m775a4a09b7" x="299.042991" y="313.2" style="stroke: #000000; stroke-width: 0.8"/>
      </g>
     </g>
     <g id="text_6">
      <!-- 250 -->
      <g transform="translate(289.499241 327.798437)scale(0.1 -0.1)">
       <use xlink:href="#DejaVuSans-32"/>
       <use xlink:href="#DejaVuSans-35" x="63.623047"/>
       <use xlink:href="#DejaVuSans-30" x="127.246094"/>
      </g>
     </g>
    </g>
    <g id="xtick_7">
     <g id="line2d_7">
      <g>
       <use xlink:href="#m775a4a09b7" x="344.07318" y="313.2" style="stroke: #000000; stroke-width: 0.8"/>
      </g>
     </g>
     <g id="text_7">
      <!-- 300 -->
      <g transform="translate(334.52943 327.798437)scale(0.1 -0.1)">
       <defs>
        <path id="DejaVuSans-33" d="M 2597 2516 
Q 3050 2419 3304 2112 
Q 3559 1806 3559 1356 
Q 3559 666 3084 287 
Q 2609 -91 1734 -91 
Q 1441 -91 1130 -33 
Q 819 25 488 141 
L 488 750 
Q 750 597 1062 519 
Q 1375 441 1716 441 
Q 2309 441 2620 675 
Q 2931 909 2931 1356 
Q 2931 1769 2642 2001 
Q 2353 2234 1838 2234 
L 1294 2234 
L 1294 2753 
L 1863 2753 
Q 2328 2753 2575 2939 
Q 2822 3125 2822 3475 
Q 2822 3834 2567 4026 
Q 2313 4219 1838 4219 
Q 1578 4219 1281 4162 
Q 984 4106 628 3988 
L 628 4550 
Q 988 4650 1302 4700 
Q 1616 4750 1894 4750 
Q 2613 4750 3031 4423 
Q 3450 4097 3450 3541 
Q 3450 3153 3228 2886 
Q 3006 2619 2597 2516 
z
" transform="scale(0.015625)"/>
       </defs>
       <use xlink:href="#DejaVuSans-33"/>
       <use xlink:href="#DejaVuSans-30" x="63.623047"/>
       <use xlink:href="#DejaVuSans-30" x="127.246094"/>
      </g>
     </g>
    </g>
    <g id="xtick_8">
     <g id="line2d_8">
      <g>
       <use xlink:href="#m775a4a09b7" x="389.103369" y="313.2" style="stroke: #000000; stroke-width: 0.8"/>
      </g>
     </g>
     <g id="text_8">
      <!-- 350 -->
      <g transform="translate(379.559619 327.798437)scale(0.1 -0.1)">
       <use xlink:href="#DejaVuSans-33"/>
       <use xlink:href="#DejaVuSans-35" x="63.623047"/>
       <use xlink:href="#DejaVuSans-30" x="127.246094"/>
      </g>
     </g>
    </g>
    <g id="xtick_9">
     <g id="line2d_9">
      <g>
       <use xlink:href="#m775a4a09b7" x="434.133558" y="313.2" style="stroke: #000000; stroke-width: 0.8"/>
      </g>
     </g>
     <g id="text_9">
      <!-- 400 -->
      <g transform="translate(424.589808 327.798437)scale(0.1 -0.1)">
       <defs>
        <path id="DejaVuSans-34" d="M 2419 4116 
L 825 1625 
L 2419 1625 
L 2419 4116 
z
M 2253 4666 
L 3047 4666 
L 3047 1625 
L 3713 1625 
L 3713 1100 
L 3047 1100 
L 3047 0 
L 2419 0 
L 2419 1100 
L 313 1100 
L 313 1709 
L 2253 4666 
z
" transform="scale(0.015625)"/>
       </defs>
       <use xlink:href="#DejaVuSans-34"/>
       <use xlink:href="#DejaVuSans-30" x="63.623047"/>
       <use xlink:href="#DejaVuSans-30" x="127.246094"/>
      </g>
     </g>
    </g>
    <g id="text_10">
     <!-- Episode -->
     <g transform="translate(224.10625 345.275781)scale(0.15 -0.15)">
      <defs>
       <path id="DejaVuSans-45" d="M 628 4666 
L 3578 4666 
L 3578 4134 
L 1259 4134 
L 1259 2753 
L 3481 2753 
L 3481 2222 
L 1259 2222 
L 1259 531 
L 3634 531 
L 3634 0 
L 628 0 
L 628 4666 
z
" transform="scale(0.015625)"/>
       <path id="DejaVuSans-70" d="M 1159 525 
L 1159 -1331 
L 581 -1331 
L 581 3500 
L 1159 3500 
L 1159 2969 
Q 1341 3281 1617 3432 
Q 1894 3584 2278 3584 
Q 2916 3584 3314 3078 
Q 3713 2572 3713 1747 
Q 3713 922 3314 415 
Q 2916 -91 2278 -91 
Q 1894 -91 1617 61 
Q 1341 213 1159 525 
z
M 3116 1747 
Q 3116 2381 2855 2742 
Q 2594 3103 2138 3103 
Q 1681 3103 1420 2742 
Q 1159 2381 1159 1747 
Q 1159 1113 1420 752 
Q 1681 391 2138 391 
Q 2594 391 2855 752 
Q 3116 1113 3116 1747 
z
" transform="scale(0.015625)"/>
       <path id="DejaVuSans-69" d="M 603 3500 
L 1178 3500 
L 1178 0 
L 603 0 
L 603 3500 
z
M 603 4863 
L 1178 4863 
L 1178 4134 
L 603 4134 
L 603 4863 
z
" transform="scale(0.015625)"/>
       <path id="DejaVuSans-73" d="M 2834 3397 
L 2834 2853 
Q 2591 2978 2328 3040 
Q 2066 3103 1784 3103 
Q 1356 3103 1142 2972 
Q 928 2841 928 2578 
Q 928 2378 1081 2264 
Q 1234 2150 1697 2047 
L 1894 2003 
Q 2506 1872 2764 1633 
Q 3022 1394 3022 966 
Q 3022 478 2636 193 
Q 2250 -91 1575 -91 
Q 1294 -91 989 -36 
Q 684 19 347 128 
L 347 722 
Q 666 556 975 473 
Q 1284 391 1588 391 
Q 1994 391 2212 530 
Q 2431 669 2431 922 
Q 2431 1156 2273 1281 
Q 2116 1406 1581 1522 
L 1381 1569 
Q 847 1681 609 1914 
Q 372 2147 372 2553 
Q 372 3047 722 3315 
Q 1072 3584 1716 3584 
Q 2034 3584 2315 3537 
Q 2597 3491 2834 3397 
z
" transform="scale(0.015625)"/>
       <path id="DejaVuSans-6f" d="M 1959 3097 
Q 1497 3097 1228 2736 
Q 959 2375 959 1747 
Q 959 1119 1226 758 
Q 1494 397 1959 397 
Q 2419 397 2687 759 
Q 2956 1122 2956 1747 
Q 2956 2369 2687 2733 
Q 2419 3097 1959 3097 
z
M 1959 3584 
Q 2709 3584 3137 3096 
Q 3566 2609 3566 1747 
Q 3566 888 3137 398 
Q 2709 -91 1959 -91 
Q 1206 -91 779 398 
Q 353 888 353 1747 
Q 353 2609 779 3096 
Q 1206 3584 1959 3584 
z
" transform="scale(0.015625)"/>
       <path id="DejaVuSans-64" d="M 2906 2969 
L 2906 4863 
L 3481 4863 
L 3481 0 
L 2906 0 
L 2906 525 
Q 2725 213 2448 61 
Q 2172 -91 1784 -91 
Q 1150 -91 751 415 
Q 353 922 353 1747 
Q 353 2572 751 3078 
Q 1150 3584 1784 3584 
Q 2172 3584 2448 3432 
Q 2725 3281 2906 2969 
z
M 947 1747 
Q 947 1113 1208 752 
Q 1469 391 1925 391 
Q 2381 391 2643 752 
Q 2906 1113 2906 1747 
Q 2906 2381 2643 2742 
Q 2381 3103 1925 3103 
Q 1469 3103 1208 2742 
Q 947 2381 947 1747 
z
" transform="scale(0.015625)"/>
       <path id="DejaVuSans-65" d="M 3597 1894 
L 3597 1613 
L 953 1613 
Q 991 1019 1311 708 
Q 1631 397 2203 397 
Q 2534 397 2845 478 
Q 3156 559 3463 722 
L 3463 178 
Q 3153 47 2828 -22 
Q 2503 -91 2169 -91 
Q 1331 -91 842 396 
Q 353 884 353 1716 
Q 353 2575 817 3079 
Q 1281 3584 2069 3584 
Q 2775 3584 3186 3129 
Q 3597 2675 3597 1894 
z
M 3022 2063 
Q 3016 2534 2758 2815 
Q 2500 3097 2075 3097 
Q 1594 3097 1305 2825 
Q 1016 2553 972 2059 
L 3022 2063 
z
" transform="scale(0.015625)"/>
      </defs>
      <use xlink:href="#DejaVuSans-45"/>
      <use xlink:href="#DejaVuSans-70" x="63.183594"/>
      <use xlink:href="#DejaVuSans-69" x="126.660156"/>
      <use xlink:href="#DejaVuSans-73" x="154.443359"/>
      <use xlink:href="#DejaVuSans-6f" x="206.542969"/>
      <use xlink:href="#DejaVuSans-64" x="267.724609"/>
      <use xlink:href="#DejaVuSans-65" x="331.201172"/>
     </g>
    </g>
   </g>
   <g id="matplotlib.axis_2">
    <g id="ytick_1">
     <g id="line2d_10">
      <defs>
       <path id="mc924224d52" d="M 0 0 
L -3.5 0 
" style="stroke: #000000; stroke-width: 0.8"/>
      </defs>
      <g>
       <use xlink:href="#mc924224d52" x="55.925" y="313.2" style="stroke: #000000; stroke-width: 0.8"/>
      </g>
     </g>
     <g id="text_11">
      <!-- 0 -->
      <g transform="translate(42.5625 316.999219)scale(0.1 -0.1)">
       <use xlink:href="#DejaVuSans-30"/>
      </g>
     </g>
    </g>
    <g id="ytick_2">
     <g id="line2d_11">
      <g>
       <use xlink:href="#mc924224d52" x="55.925" y="266.676923" style="stroke: #000000; stroke-width: 0.8"/>
      </g>
     </g>
     <g id="text_12">
      <!-- 100 -->
      <g transform="translate(29.8375 270.476142)scale(0.1 -0.1)">
       <use xlink:href="#DejaVuSans-31"/>
       <use xlink:href="#DejaVuSans-30" x="63.623047"/>
       <use xlink:href="#DejaVuSans-30" x="127.246094"/>
      </g>
     </g>
    </g>
    <g id="ytick_3">
     <g id="line2d_12">
      <g>
       <use xlink:href="#mc924224d52" x="55.925" y="220.153846" style="stroke: #000000; stroke-width: 0.8"/>
      </g>
     </g>
     <g id="text_13">
      <!-- 200 -->
      <g transform="translate(29.8375 223.953065)scale(0.1 -0.1)">
       <use xlink:href="#DejaVuSans-32"/>
       <use xlink:href="#DejaVuSans-30" x="63.623047"/>
       <use xlink:href="#DejaVuSans-30" x="127.246094"/>
      </g>
     </g>
    </g>
    <g id="ytick_4">
     <g id="line2d_13">
      <g>
       <use xlink:href="#mc924224d52" x="55.925" y="173.630769" style="stroke: #000000; stroke-width: 0.8"/>
      </g>
     </g>
     <g id="text_14">
      <!-- 300 -->
      <g transform="translate(29.8375 177.429988)scale(0.1 -0.1)">
       <use xlink:href="#DejaVuSans-33"/>
       <use xlink:href="#DejaVuSans-30" x="63.623047"/>
       <use xlink:href="#DejaVuSans-30" x="127.246094"/>
      </g>
     </g>
    </g>
    <g id="ytick_5">
     <g id="line2d_14">
      <g>
       <use xlink:href="#mc924224d52" x="55.925" y="127.107692" style="stroke: #000000; stroke-width: 0.8"/>
      </g>
     </g>
     <g id="text_15">
      <!-- 400 -->
      <g transform="translate(29.8375 130.906911)scale(0.1 -0.1)">
       <use xlink:href="#DejaVuSans-34"/>
       <use xlink:href="#DejaVuSans-30" x="63.623047"/>
       <use xlink:href="#DejaVuSans-30" x="127.246094"/>
      </g>
     </g>
    </g>
    <g id="ytick_6">
     <g id="line2d_15">
      <g>
       <use xlink:href="#mc924224d52" x="55.925" y="80.584615" style="stroke: #000000; stroke-width: 0.8"/>
      </g>
     </g>
     <g id="text_16">
      <!-- 500 -->
      <g transform="translate(29.8375 84.383834)scale(0.1 -0.1)">
       <use xlink:href="#DejaVuSans-35"/>
       <use xlink:href="#DejaVuSans-30" x="63.623047"/>
       <use xlink:href="#DejaVuSans-30" x="127.246094"/>
      </g>
     </g>
    </g>
    <g id="ytick_7">
     <g id="line2d_16">
      <g>
       <use xlink:href="#mc924224d52" x="55.925" y="34.061538" style="stroke: #000000; stroke-width: 0.8"/>
      </g>
     </g>
     <g id="text_17">
      <!-- 600 -->
      <g transform="translate(29.8375 37.860757)scale(0.1 -0.1)">
       <defs>
        <path id="DejaVuSans-36" d="M 2113 2584 
Q 1688 2584 1439 2293 
Q 1191 2003 1191 1497 
Q 1191 994 1439 701 
Q 1688 409 2113 409 
Q 2538 409 2786 701 
Q 3034 994 3034 1497 
Q 3034 2003 2786 2293 
Q 2538 2584 2113 2584 
z
M 3366 4563 
L 3366 3988 
Q 3128 4100 2886 4159 
Q 2644 4219 2406 4219 
Q 1781 4219 1451 3797 
Q 1122 3375 1075 2522 
Q 1259 2794 1537 2939 
Q 1816 3084 2150 3084 
Q 2853 3084 3261 2657 
Q 3669 2231 3669 1497 
Q 3669 778 3244 343 
Q 2819 -91 2113 -91 
Q 1303 -91 875 529 
Q 447 1150 447 2328 
Q 447 3434 972 4092 
Q 1497 4750 2381 4750 
Q 2619 4750 2861 4703 
Q 3103 4656 3366 4563 
z
" transform="scale(0.015625)"/>
       </defs>
       <use xlink:href="#DejaVuSans-36"/>
       <use xlink:href="#DejaVuSans-30" x="63.623047"/>
       <use xlink:href="#DejaVuSans-30" x="127.246094"/>
      </g>
     </g>
    </g>
    <g id="text_18">
     <!-- Score -->
     <g transform="translate(22.717969 183.003516)rotate(-90)scale(0.15 -0.15)">
      <defs>
       <path id="DejaVuSans-53" d="M 3425 4513 
L 3425 3897 
Q 3066 4069 2747 4153 
Q 2428 4238 2131 4238 
Q 1616 4238 1336 4038 
Q 1056 3838 1056 3469 
Q 1056 3159 1242 3001 
Q 1428 2844 1947 2747 
L 2328 2669 
Q 3034 2534 3370 2195 
Q 3706 1856 3706 1288 
Q 3706 609 3251 259 
Q 2797 -91 1919 -91 
Q 1588 -91 1214 -16 
Q 841 59 441 206 
L 441 856 
Q 825 641 1194 531 
Q 1563 422 1919 422 
Q 2459 422 2753 634 
Q 3047 847 3047 1241 
Q 3047 1584 2836 1778 
Q 2625 1972 2144 2069 
L 1759 2144 
Q 1053 2284 737 2584 
Q 422 2884 422 3419 
Q 422 4038 858 4394 
Q 1294 4750 2059 4750 
Q 2388 4750 2728 4690 
Q 3069 4631 3425 4513 
z
" transform="scale(0.015625)"/>
       <path id="DejaVuSans-63" d="M 3122 3366 
L 3122 2828 
Q 2878 2963 2633 3030 
Q 2388 3097 2138 3097 
Q 1578 3097 1268 2742 
Q 959 2388 959 1747 
Q 959 1106 1268 751 
Q 1578 397 2138 397 
Q 2388 397 2633 464 
Q 2878 531 3122 666 
L 3122 134 
Q 2881 22 2623 -34 
Q 2366 -91 2075 -91 
Q 1284 -91 818 406 
Q 353 903 353 1747 
Q 353 2603 823 3093 
Q 1294 3584 2113 3584 
Q 2378 3584 2631 3529 
Q 2884 3475 3122 3366 
z
" transform="scale(0.015625)"/>
       <path id="DejaVuSans-72" d="M 2631 2963 
Q 2534 3019 2420 3045 
Q 2306 3072 2169 3072 
Q 1681 3072 1420 2755 
Q 1159 2438 1159 1844 
L 1159 0 
L 581 0 
L 581 3500 
L 1159 3500 
L 1159 2956 
Q 1341 3275 1631 3429 
Q 1922 3584 2338 3584 
Q 2397 3584 2469 3576 
Q 2541 3569 2628 3553 
L 2631 2963 
z
" transform="scale(0.015625)"/>
      </defs>
      <use xlink:href="#DejaVuSans-53"/>
      <use xlink:href="#DejaVuSans-63" x="63.476562"/>
      <use xlink:href="#DejaVuSans-6f" x="118.457031"/>
      <use xlink:href="#DejaVuSans-72" x="179.638672"/>
      <use xlink:href="#DejaVuSans-65" x="218.501953"/>
     </g>
    </g>
   </g>
   <g id="line2d_17">
    <path d="M 73.892045 306.221538 
L 74.792649 305.756308 
L 76.593857 306.686769 
L 77.494461 304.825846 
L 78.395064 305.756308 
L 79.295668 304.825846 
L 80.196272 305.756308 
L 81.096876 305.291077 
L 81.997479 306.686769 
L 82.898083 306.686769 
L 83.798687 307.152 
L 84.699291 306.686769 
L 85.599895 307.617231 
L 86.500498 303.895385 
L 87.401102 304.825846 
L 88.301706 305.291077 
L 89.20231 306.221538 
L 90.102914 304.825846 
L 91.003517 307.152 
L 91.904121 307.152 
L 92.804725 305.756308 
L 93.705329 306.221538 
L 94.605932 308.082462 
L 95.506536 305.291077 
L 96.40714 306.686769 
L 98.208348 304.825846 
L 99.108951 306.686769 
L 100.009555 307.152 
L 100.910159 304.825846 
L 101.810763 308.082462 
L 102.711366 306.221538 
L 103.61197 307.617231 
L 104.512574 304.825846 
L 105.413178 304.825846 
L 106.313782 305.756308 
L 107.214385 307.152 
L 108.114989 304.360615 
L 109.015593 307.617231 
L 109.916197 305.756308 
L 110.816801 307.152 
L 111.717404 306.686769 
L 112.618008 305.756308 
L 113.518612 307.152 
L 114.419216 305.756308 
L 115.319819 307.617231 
L 116.220423 307.617231 
L 117.121027 306.221538 
L 118.021631 307.617231 
L 118.922235 299.708308 
L 119.822838 306.221538 
L 120.723442 308.547692 
L 121.624046 300.638769 
L 122.52465 302.964923 
L 123.425253 309.012923 
L 124.325857 308.082462 
L 125.226461 302.499692 
L 126.127065 304.825846 
L 127.027669 306.686769 
L 127.928272 303.895385 
L 128.828876 307.152 
L 129.72948 307.617231 
L 130.630084 306.686769 
L 131.530688 309.478154 
L 132.431291 308.082462 
L 133.331895 308.547692 
L 134.232499 308.547692 
L 135.133103 309.012923 
L 136.033706 308.082462 
L 136.93431 307.617231 
L 137.834914 309.478154 
L 138.735518 309.012923 
L 139.636122 307.617231 
L 140.536725 307.617231 
L 141.437329 308.082462 
L 142.337933 306.686769 
L 143.238537 304.825846 
L 144.13914 306.686769 
L 145.039744 308.082462 
L 145.940348 304.360615 
L 146.840952 309.012923 
L 147.741556 307.152 
L 148.642159 309.012923 
L 149.542763 305.756308 
L 150.443367 306.221538 
L 151.343971 307.152 
L 152.244575 307.617231 
L 153.145178 307.152 
L 154.045782 307.617231 
L 154.946386 307.617231 
L 155.84699 308.082462 
L 156.747593 300.173538 
L 157.648197 299.708308 
L 158.548801 298.312615 
L 159.449405 299.243077 
L 160.350009 302.964923 
L 161.250612 290.868923 
L 162.151216 305.291077 
L 163.05182 296.451692 
L 163.952424 302.964923 
L 164.853027 301.104 
L 165.753631 284.820923 
L 166.654235 271.329231 
L 167.554839 299.243077 
L 168.455443 293.195077 
L 169.356046 290.868923 
L 170.25665 307.152 
L 171.157254 285.286154 
L 172.057858 271.794462 
L 172.958461 295.056 
L 173.859065 301.569231 
L 174.759669 302.034462 
L 175.660273 291.799385 
L 176.560877 277.377231 
L 177.46148 289.008 
L 178.362084 291.799385 
L 179.262688 294.125538 
L 180.163292 292.729846 
L 181.063896 289.008 
L 181.964499 296.916923 
L 182.865103 287.612308 
L 183.765707 289.938462 
L 184.666311 301.104 
L 185.566914 266.676923 
L 186.467518 292.729846 
L 187.368122 295.986462 
L 188.268726 263.885538 
L 189.16933 289.938462 
L 190.069933 294.125538 
L 190.970537 293.195077 
L 191.871141 295.056 
L 192.771745 291.799385 
L 193.672348 294.590769 
L 194.572952 284.820923 
L 195.473556 279.703385 
L 196.37416 294.590769 
L 197.274764 298.312615 
L 198.175367 280.168615 
L 199.075971 297.847385 
L 199.976575 294.590769 
L 200.877179 282.96 
L 201.777783 289.473231 
L 202.678386 295.056 
L 203.57899 291.799385 
L 204.479594 282.029538 
L 205.380198 265.281231 
L 206.280801 288.542769 
L 207.181405 291.334154 
L 208.082009 289.938462 
L 208.982613 293.195077 
L 209.883217 295.986462 
L 210.78382 289.473231 
L 211.684424 294.125538 
L 212.585028 292.264615 
L 213.485632 270.398769 
L 215.286839 297.847385 
L 216.187443 272.259692 
L 217.088047 287.147077 
L 217.988651 263.420308 
L 218.889254 286.216615 
L 219.789858 278.772923 
L 220.690462 277.842462 
L 221.591066 296.451692 
L 222.49167 278.772923 
L 223.392273 293.195077 
L 224.292877 292.729846 
L 225.193481 295.986462 
L 226.094085 295.056 
L 226.994688 275.981538 
L 227.895292 293.660308 
L 228.795896 283.425231 
L 229.6965 276.912 
L 230.597104 282.96 
L 231.497707 293.660308 
L 232.398311 297.847385 
L 233.298915 269.003077 
L 234.199519 289.473231 
L 235.100122 293.195077 
L 236.000726 289.473231 
L 236.90133 294.590769 
L 237.801934 275.981538 
L 238.702538 275.981538 
L 239.603141 293.660308 
L 240.503745 298.777846 
L 241.404349 286.216615 
L 242.304953 300.173538 
L 243.205557 284.355692 
L 244.10616 298.312615 
L 245.006764 284.820923 
L 245.907368 290.868923 
L 247.708575 277.377231 
L 248.609179 276.446769 
L 249.509783 278.307692 
L 251.310991 286.216615 
L 252.211594 289.473231 
L 253.112198 287.612308 
L 254.012802 294.590769 
L 254.913406 280.633846 
L 255.814009 295.056 
L 256.714613 289.473231 
L 257.615217 295.056 
L 258.515821 293.660308 
L 259.416425 294.125538 
L 260.317028 293.195077 
L 261.217632 293.660308 
L 262.118236 288.077538 
L 263.919443 293.660308 
L 264.820047 276.912 
L 265.720651 289.008 
L 266.621255 293.195077 
L 267.521859 291.334154 
L 268.422462 276.446769 
L 269.323066 283.890462 
L 270.22367 296.451692 
L 271.124274 286.681846 
L 272.024878 294.125538 
L 272.925481 282.96 
L 273.826085 288.077538 
L 274.726689 290.403692 
L 275.627293 289.008 
L 276.527896 242.950154 
L 277.4285 280.633846 
L 278.329104 285.751385 
L 279.229708 286.681846 
L 280.130312 282.029538 
L 281.030915 266.211692 
L 281.931519 287.147077 
L 282.832123 275.981538 
L 283.732727 278.772923 
L 284.63333 278.307692 
L 285.533934 281.099077 
L 286.434538 289.008 
L 288.235746 291.799385 
L 289.136349 286.216615 
L 290.036953 255.976615 
L 290.937557 281.099077 
L 291.838161 288.542769 
L 292.738765 282.029538 
L 293.639368 282.029538 
L 294.539972 269.003077 
L 295.440576 276.912 
L 296.34118 260.628923 
L 297.241783 275.051077 
L 298.142387 286.681846 
L 299.042991 291.799385 
L 299.943595 275.051077 
L 300.844199 273.190154 
L 301.744802 278.307692 
L 302.645406 268.537846 
L 303.54601 202.475077 
L 304.446614 280.633846 
L 305.347217 207.127385 
L 306.247821 268.537846 
L 307.148425 276.446769 
L 308.049029 272.724923 
L 308.949633 275.981538 
L 309.850236 257.837538 
L 310.75084 278.307692 
L 311.651444 229.458462 
L 312.552048 273.655385 
L 313.452652 261.559385 
L 314.353255 260.628923 
L 315.253859 238.763077 
L 316.154463 233.180308 
L 317.055067 176.887385 
L 317.95567 266.211692 
L 318.856274 244.345846 
L 319.756878 215.966769 
L 320.657482 251.324308 
L 321.558086 251.789538 
L 322.458689 267.142154 
L 323.359293 260.628923 
L 324.259897 256.907077 
L 325.160501 251.324308 
L 326.061104 263.885538 
L 326.961708 261.094154 
L 327.862312 260.163692 
L 328.762916 220.619077 
L 329.66352 212.244923 
L 330.564123 170.374154 
L 331.464727 252.72 
L 332.365331 247.137231 
L 333.265935 248.532923 
L 334.166539 254.115692 
L 335.067142 211.779692 
L 335.967746 222.945231 
L 336.86835 266.211692 
L 337.768954 250.393846 
L 338.669557 176.422154 
L 339.570161 242.019692 
L 340.470765 246.672 
L 341.371369 204.801231 
L 342.271973 197.357538 
L 343.172576 237.367385 
L 344.07318 248.998154 
L 344.973784 230.388923 
L 345.874388 260.628923 
L 346.774991 241.089231 
L 347.675595 247.602462 
L 348.576199 247.602462 
L 349.476803 256.907077 
L 350.377407 237.832615 
L 351.27801 260.163692 
L 352.178614 255.511385 
L 353.079218 252.254769 
L 353.979822 224.806154 
L 354.880425 242.950154 
L 355.781029 245.276308 
L 356.681633 243.415385 
L 357.582237 243.880615 
L 358.482841 253.650462 
L 359.383444 252.72 
L 360.284048 248.532923 
L 361.184652 241.089231 
L 362.085256 236.436923 
L 362.98586 247.137231 
L 363.886463 263.420308 
L 364.787067 262.955077 
L 365.687671 255.511385 
L 366.588275 261.559385 
L 367.488878 263.885538 
L 368.389482 258.768 
L 369.290086 238.763077 
L 370.19069 258.768 
L 371.091294 247.602462 
L 371.991897 257.372308 
L 372.892501 243.880615 
L 373.793105 260.163692 
L 374.693709 261.094154 
L 375.594312 255.511385 
L 376.494916 253.650462 
L 377.39552 252.254769 
L 378.296124 243.415385 
L 379.196728 262.024615 
L 380.097331 252.72 
L 380.997935 277.377231 
L 381.898539 281.099077 
L 382.799143 280.633846 
L 383.699747 285.751385 
L 384.60035 288.542769 
L 385.500954 289.938462 
L 386.401558 285.286154 
L 387.302162 285.751385 
L 388.202765 280.168615 
L 389.103369 288.077538 
L 390.003973 282.96 
L 390.904577 290.403692 
L 391.805181 289.008 
L 392.705784 277.377231 
L 393.606388 290.868923 
L 394.506992 293.195077 
L 395.407596 281.099077 
L 396.308199 285.286154 
L 397.208803 286.681846 
L 398.109407 285.751385 
L 399.010011 282.494769 
L 399.910615 289.008 
L 400.811218 283.890462 
L 401.711822 291.334154 
L 402.612426 284.820923 
L 403.51303 277.377231 
L 404.413634 279.703385 
L 405.314237 291.334154 
L 406.214841 290.868923 
L 407.115445 283.425231 
L 408.016049 293.195077 
L 408.916652 289.938462 
L 409.817256 284.820923 
L 410.71786 293.660308 
L 411.618464 294.590769 
L 412.519068 292.729846 
L 413.419671 291.334154 
L 414.320275 283.890462 
L 415.220879 288.542769 
L 416.121483 288.542769 
L 417.022086 284.355692 
L 417.92269 282.494769 
L 418.823294 289.008 
L 419.723898 292.729846 
L 420.624502 289.938462 
L 421.525105 295.056 
L 422.425709 292.729846 
L 423.326313 289.008 
L 424.226917 286.681846 
L 425.127521 289.008 
L 426.028124 296.916923 
L 426.928728 290.868923 
L 427.829332 292.264615 
L 428.729936 288.542769 
L 429.630539 290.403692 
L 430.531143 292.729846 
L 431.431747 299.708308 
L 432.332351 297.847385 
L 433.232955 289.938462 
L 433.232955 289.938462 
" clip-path="url(#p2d8aa130f9)" style="fill: none; stroke: #708090; stroke-width: 1.5; stroke-linecap: square"/>
   </g>
   <g id="line2d_18">
    <path d="M 73.892045 306.212234 
L 74.792649 306.081969 
L 77.494461 306.016837 
L 79.295668 306.044751 
L 80.196272 306.109883 
L 81.997479 306.035446 
L 87.401102 306.091274 
L 94.605932 306.509982 
L 97.307744 306.575114 
L 111.717404 306.863557 
L 116.220423 306.212234 
L 117.121027 305.877268 
L 118.021631 305.858658 
L 118.922235 305.635348 
L 119.822838 305.70048 
L 120.723442 305.598129 
L 122.52465 304.537403 
L 123.425253 304.462966 
L 125.226461 303.802338 
L 126.127065 303.895385 
L 127.027669 303.504591 
L 127.928272 302.806745 
L 129.72948 302.518302 
L 130.630084 302.406646 
L 131.530688 302.108898 
L 132.431291 301.46688 
L 134.232499 300.750425 
L 136.033706 300.13632 
L 136.93431 299.754831 
L 137.834914 299.540825 
L 139.636122 298.722018 
L 140.536725 298.591754 
L 141.437329 297.772948 
L 143.238537 297.251889 
L 144.13914 296.433083 
L 145.940348 295.818978 
L 147.741556 295.316529 
L 150.443367 294.302326 
L 151.343971 293.771963 
L 153.145178 293.334646 
L 154.045782 292.794978 
L 155.84699 292.339052 
L 156.747593 291.836603 
L 157.648197 291.622597 
L 159.449405 291.399286 
L 160.350009 291.055015 
L 161.250612 290.301342 
L 162.151216 290.254818 
L 163.05182 289.97568 
L 165.753631 289.547668 
L 166.654235 289.640714 
L 167.554839 290.09664 
L 168.455443 289.957071 
L 169.356046 289.501145 
L 171.157254 289.166178 
L 172.057858 288.905649 
L 172.958461 289.212702 
L 173.859065 288.579988 
L 174.759669 288.272935 
L 175.660273 287.807705 
L 176.560877 287.528566 
L 177.46148 287.910055 
L 178.362084 287.705354 
L 181.964499 287.891446 
L 182.865103 287.472738 
L 183.765707 287.593698 
L 184.666311 287.463434 
L 185.566914 286.979594 
L 186.467518 287.305255 
L 192.771745 287.351778 
L 194.572952 286.663237 
L 195.473556 286.840025 
L 196.37416 287.221514 
L 197.274764 287.054031 
L 199.976575 287.184295 
L 200.877179 286.988898 
L 201.777783 287.147077 
L 202.678386 287.035422 
L 204.479594 286.374794 
L 205.380198 286.300357 
L 206.280801 286.644628 
L 209.883217 286.542277 
L 210.78382 286.235225 
L 211.684424 286.34688 
L 212.585028 286.253834 
L 213.485632 286.309662 
L 214.386235 286.774892 
L 215.286839 286.988898 
L 216.187443 286.895852 
L 217.088047 287.323865 
L 217.988651 287.342474 
L 218.889254 287.891446 
L 219.789858 288.04032 
L 220.690462 288.003102 
L 221.591066 288.226412 
L 222.49167 288.16128 
L 223.392273 288.412505 
L 224.292877 288.077538 
L 225.193481 287.900751 
L 226.094085 287.910055 
L 226.994688 287.742572 
L 227.895292 288.105452 
L 228.795896 287.891446 
L 229.6965 287.984492 
L 230.597104 288.254326 
L 231.497707 288.375286 
L 232.398311 287.361083 
L 233.298915 287.016812 
L 234.199519 287.351778 
L 235.100122 287.295951 
L 236.000726 287.07264 
L 236.90133 286.607409 
L 237.801934 286.458535 
L 239.603141 286.514363 
L 241.404349 285.853735 
L 242.304953 285.909563 
L 243.205557 285.714166 
L 244.10616 285.86304 
L 245.006764 285.62112 
L 245.907368 285.044234 
L 246.807972 284.848837 
L 249.509783 285.146585 
L 251.310991 284.848837 
L 252.211594 284.337083 
L 253.112198 284.04864 
L 254.913406 283.974203 
L 255.814009 283.862548 
L 256.714613 283.425231 
L 257.615217 283.20192 
L 258.515821 282.671557 
L 259.416425 280.847852 
L 260.317028 280.578018 
L 261.217632 278.856665 
L 262.118236 278.354215 
L 263.01884 278.1216 
L 265.720651 277.023655 
L 266.621255 276.809649 
L 267.521859 275.534917 
L 270.22367 274.418363 
L 272.024878 272.19456 
L 272.925481 269.849797 
L 273.826085 269.514831 
L 274.726689 268.640197 
L 275.627293 267.151458 
L 276.527896 266.397785 
L 277.4285 266.574572 
L 278.329104 266.304738 
L 280.130312 265.206794 
L 281.030915 264.592689 
L 281.931519 264.546166 
L 282.832123 264.025108 
L 283.732727 263.708751 
L 285.533934 261.224418 
L 286.434538 259.00992 
L 288.235746 257.418831 
L 289.136349 256.553502 
L 290.036953 255.911483 
L 290.937557 255.027545 
L 291.838161 253.864468 
L 292.738765 253.417846 
L 293.639368 252.785132 
L 294.539972 250.672985 
L 296.34118 249.528517 
L 297.241783 248.411963 
L 298.142387 246.858092 
L 299.943595 245.015778 
L 300.844199 244.122535 
L 301.744802 243.871311 
L 302.645406 243.126942 
L 303.54601 242.708234 
L 304.446614 243.610782 
L 305.347217 243.136246 
L 306.247821 243.750351 
L 307.148425 243.582868 
L 308.949633 242.754757 
L 309.850236 241.731249 
L 310.75084 241.433502 
L 311.651444 240.772874 
L 312.552048 241.052012 
L 313.452652 240.456517 
L 315.253859 240.14016 
L 317.055067 240.493735 
L 317.95567 241.684726 
L 318.856274 241.303237 
L 319.756878 241.684726 
L 320.657482 242.624492 
L 321.558086 242.708234 
L 322.458689 242.903631 
L 324.259897 242.80128 
L 325.160501 242.4384 
L 326.061104 242.587274 
L 326.961708 242.261612 
L 327.862312 242.187175 
L 328.762916 241.861514 
L 329.66352 242.652406 
L 330.564123 243.629391 
L 331.464727 245.332135 
L 335.067142 245.508923 
L 335.967746 246.327729 
L 336.86835 247.416369 
L 337.768954 247.714117 
L 338.669557 248.318917 
L 339.570161 250.505502 
L 341.371369 252.301292 
L 343.172576 255.678868 
L 347.675595 259.921772 
L 348.576199 260.517268 
L 351.27801 262.973686 
L 353.079218 264.099545 
L 353.979822 264.769477 
L 354.880425 265.923249 
L 357.582237 268.575065 
L 358.482841 269.393871 
L 360.284048 270.408074 
L 362.085256 272.259692 
L 363.886463 274.120615 
L 365.687671 275.088295 
L 367.488878 276.511902 
L 369.290086 277.740111 
L 370.19069 278.642658 
L 371.091294 279.238154 
L 371.991897 280.05696 
L 372.892501 280.596628 
L 373.793105 281.368911 
L 375.594312 282.578511 
L 377.39552 284.095163 
L 379.196728 285.816517 
L 380.097331 286.309662 
L 380.997935 287.035422 
L 381.898539 287.426215 
L 384.60035 287.910055 
L 386.401558 288.003102 
L 388.202765 288.533465 
L 389.103369 288.728862 
L 389.103369 288.728862 
" clip-path="url(#p2d8aa130f9)" style="fill: none; stroke: #000080; stroke-width: 1.5; stroke-linecap: square"/>
   </g>
   <g id="line2d_19">
    <path d="M 55.925 80.584615 
L 451.2 80.584615 
" clip-path="url(#p2d8aa130f9)" style="fill: none; stroke-dasharray: 5.55,2.4; stroke-dashoffset: 0; stroke: #008000; stroke-width: 1.5"/>
   </g>
   <g id="patch_3">
    <path d="M 55.925 313.2 
L 55.925 10.8 
" style="fill: none; stroke: #000000; stroke-width: 0.8; stroke-linejoin: miter; stroke-linecap: square"/>
   </g>
   <g id="patch_4">
    <path d="M 451.2 313.2 
L 451.2 10.8 
" style="fill: none; stroke: #000000; stroke-width: 0.8; stroke-linejoin: miter; stroke-linecap: square"/>
   </g>
   <g id="patch_5">
    <path d="M 55.925 313.2 
L 451.2 313.2 
" style="fill: none; stroke: #000000; stroke-width: 0.8; stroke-linejoin: miter; stroke-linecap: square"/>
   </g>
   <g id="patch_6">
    <path d="M 55.925 10.8 
L 451.2 10.8 
" style="fill: none; stroke: #000000; stroke-width: 0.8; stroke-linejoin: miter; stroke-linecap: square"/>
   </g>
   <g id="legend_1">
    <g id="patch_7">
     <path d="M 283.88125 62.834375 
L 444.2 62.834375 
Q 446.2 62.834375 446.2 60.834375 
L 446.2 17.8 
Q 446.2 15.8 444.2 15.8 
L 283.88125 15.8 
Q 281.88125 15.8 281.88125 17.8 
L 281.88125 60.834375 
Q 281.88125 62.834375 283.88125 62.834375 
z
" style="fill: #ffffff; opacity: 0.8; stroke: #cccccc; stroke-linejoin: miter"/>
    </g>
    <g id="line2d_20">
     <path d="M 285.88125 23.898438 
L 295.88125 23.898438 
L 305.88125 23.898438 
" style="fill: none; stroke: #708090; stroke-width: 1.5; stroke-linecap: square"/>
    </g>
    <g id="text_19">
     <!-- Episodes score -->
     <g transform="translate(313.88125 27.398438)scale(0.1 -0.1)">
      <defs>
       <path id="DejaVuSans-20" transform="scale(0.015625)"/>
      </defs>
      <use xlink:href="#DejaVuSans-45"/>
      <use xlink:href="#DejaVuSans-70" x="63.183594"/>
      <use xlink:href="#DejaVuSans-69" x="126.660156"/>
      <use xlink:href="#DejaVuSans-73" x="154.443359"/>
      <use xlink:href="#DejaVuSans-6f" x="206.542969"/>
      <use xlink:href="#DejaVuSans-64" x="267.724609"/>
      <use xlink:href="#DejaVuSans-65" x="331.201172"/>
      <use xlink:href="#DejaVuSans-73" x="392.724609"/>
      <use xlink:href="#DejaVuSans-20" x="444.824219"/>
      <use xlink:href="#DejaVuSans-73" x="476.611328"/>
      <use xlink:href="#DejaVuSans-63" x="528.710938"/>
      <use xlink:href="#DejaVuSans-6f" x="583.691406"/>
      <use xlink:href="#DejaVuSans-72" x="644.873047"/>
      <use xlink:href="#DejaVuSans-65" x="683.736328"/>
     </g>
    </g>
    <g id="line2d_21">
     <path d="M 285.88125 38.576563 
L 295.88125 38.576563 
L 305.88125 38.576563 
" style="fill: none; stroke: #000080; stroke-width: 1.5; stroke-linecap: square"/>
    </g>
    <g id="text_20">
     <!-- Moving average of scores -->
     <g transform="translate(313.88125 42.076563)scale(0.1 -0.1)">
      <defs>
       <path id="DejaVuSans-4d" d="M 628 4666 
L 1569 4666 
L 2759 1491 
L 3956 4666 
L 4897 4666 
L 4897 0 
L 4281 0 
L 4281 4097 
L 3078 897 
L 2444 897 
L 1241 4097 
L 1241 0 
L 628 0 
L 628 4666 
z
" transform="scale(0.015625)"/>
       <path id="DejaVuSans-76" d="M 191 3500 
L 800 3500 
L 1894 563 
L 2988 3500 
L 3597 3500 
L 2284 0 
L 1503 0 
L 191 3500 
z
" transform="scale(0.015625)"/>
       <path id="DejaVuSans-6e" d="M 3513 2113 
L 3513 0 
L 2938 0 
L 2938 2094 
Q 2938 2591 2744 2837 
Q 2550 3084 2163 3084 
Q 1697 3084 1428 2787 
Q 1159 2491 1159 1978 
L 1159 0 
L 581 0 
L 581 3500 
L 1159 3500 
L 1159 2956 
Q 1366 3272 1645 3428 
Q 1925 3584 2291 3584 
Q 2894 3584 3203 3211 
Q 3513 2838 3513 2113 
z
" transform="scale(0.015625)"/>
       <path id="DejaVuSans-67" d="M 2906 1791 
Q 2906 2416 2648 2759 
Q 2391 3103 1925 3103 
Q 1463 3103 1205 2759 
Q 947 2416 947 1791 
Q 947 1169 1205 825 
Q 1463 481 1925 481 
Q 2391 481 2648 825 
Q 2906 1169 2906 1791 
z
M 3481 434 
Q 3481 -459 3084 -895 
Q 2688 -1331 1869 -1331 
Q 1566 -1331 1297 -1286 
Q 1028 -1241 775 -1147 
L 775 -588 
Q 1028 -725 1275 -790 
Q 1522 -856 1778 -856 
Q 2344 -856 2625 -561 
Q 2906 -266 2906 331 
L 2906 616 
Q 2728 306 2450 153 
Q 2172 0 1784 0 
Q 1141 0 747 490 
Q 353 981 353 1791 
Q 353 2603 747 3093 
Q 1141 3584 1784 3584 
Q 2172 3584 2450 3431 
Q 2728 3278 2906 2969 
L 2906 3500 
L 3481 3500 
L 3481 434 
z
" transform="scale(0.015625)"/>
       <path id="DejaVuSans-61" d="M 2194 1759 
Q 1497 1759 1228 1600 
Q 959 1441 959 1056 
Q 959 750 1161 570 
Q 1363 391 1709 391 
Q 2188 391 2477 730 
Q 2766 1069 2766 1631 
L 2766 1759 
L 2194 1759 
z
M 3341 1997 
L 3341 0 
L 2766 0 
L 2766 531 
Q 2569 213 2275 61 
Q 1981 -91 1556 -91 
Q 1019 -91 701 211 
Q 384 513 384 1019 
Q 384 1609 779 1909 
Q 1175 2209 1959 2209 
L 2766 2209 
L 2766 2266 
Q 2766 2663 2505 2880 
Q 2244 3097 1772 3097 
Q 1472 3097 1187 3025 
Q 903 2953 641 2809 
L 641 3341 
Q 956 3463 1253 3523 
Q 1550 3584 1831 3584 
Q 2591 3584 2966 3190 
Q 3341 2797 3341 1997 
z
" transform="scale(0.015625)"/>
       <path id="DejaVuSans-66" d="M 2375 4863 
L 2375 4384 
L 1825 4384 
Q 1516 4384 1395 4259 
Q 1275 4134 1275 3809 
L 1275 3500 
L 2222 3500 
L 2222 3053 
L 1275 3053 
L 1275 0 
L 697 0 
L 697 3053 
L 147 3053 
L 147 3500 
L 697 3500 
L 697 3744 
Q 697 4328 969 4595 
Q 1241 4863 1831 4863 
L 2375 4863 
z
" transform="scale(0.015625)"/>
      </defs>
      <use xlink:href="#DejaVuSans-4d"/>
      <use xlink:href="#DejaVuSans-6f" x="86.279297"/>
      <use xlink:href="#DejaVuSans-76" x="147.460938"/>
      <use xlink:href="#DejaVuSans-69" x="206.640625"/>
      <use xlink:href="#DejaVuSans-6e" x="234.423828"/>
      <use xlink:href="#DejaVuSans-67" x="297.802734"/>
      <use xlink:href="#DejaVuSans-20" x="361.279297"/>
      <use xlink:href="#DejaVuSans-61" x="393.066406"/>
      <use xlink:href="#DejaVuSans-76" x="454.345703"/>
      <use xlink:href="#DejaVuSans-65" x="513.525391"/>
      <use xlink:href="#DejaVuSans-72" x="575.048828"/>
      <use xlink:href="#DejaVuSans-61" x="616.162109"/>
      <use xlink:href="#DejaVuSans-67" x="677.441406"/>
      <use xlink:href="#DejaVuSans-65" x="740.917969"/>
      <use xlink:href="#DejaVuSans-20" x="802.441406"/>
      <use xlink:href="#DejaVuSans-6f" x="834.228516"/>
      <use xlink:href="#DejaVuSans-66" x="895.410156"/>
      <use xlink:href="#DejaVuSans-20" x="930.615234"/>
      <use xlink:href="#DejaVuSans-73" x="962.402344"/>
      <use xlink:href="#DejaVuSans-63" x="1014.501953"/>
      <use xlink:href="#DejaVuSans-6f" x="1069.482422"/>
      <use xlink:href="#DejaVuSans-72" x="1130.664062"/>
      <use xlink:href="#DejaVuSans-65" x="1169.527344"/>
      <use xlink:href="#DejaVuSans-73" x="1231.050781"/>
     </g>
    </g>
    <g id="line2d_22">
     <path d="M 285.88125 53.254688 
L 295.88125 53.254688 
L 305.88125 53.254688 
" style="fill: none; stroke-dasharray: 5.55,2.4; stroke-dashoffset: 0; stroke: #008000; stroke-width: 1.5"/>
    </g>
    <g id="text_21">
     <!-- Game Solved -->
     <g transform="translate(313.88125 56.754688)scale(0.1 -0.1)">
      <defs>
       <path id="DejaVuSans-47" d="M 3809 666 
L 3809 1919 
L 2778 1919 
L 2778 2438 
L 4434 2438 
L 4434 434 
Q 4069 175 3628 42 
Q 3188 -91 2688 -91 
Q 1594 -91 976 548 
Q 359 1188 359 2328 
Q 359 3472 976 4111 
Q 1594 4750 2688 4750 
Q 3144 4750 3555 4637 
Q 3966 4525 4313 4306 
L 4313 3634 
Q 3963 3931 3569 4081 
Q 3175 4231 2741 4231 
Q 1884 4231 1454 3753 
Q 1025 3275 1025 2328 
Q 1025 1384 1454 906 
Q 1884 428 2741 428 
Q 3075 428 3337 486 
Q 3600 544 3809 666 
z
" transform="scale(0.015625)"/>
       <path id="DejaVuSans-6d" d="M 3328 2828 
Q 3544 3216 3844 3400 
Q 4144 3584 4550 3584 
Q 5097 3584 5394 3201 
Q 5691 2819 5691 2113 
L 5691 0 
L 5113 0 
L 5113 2094 
Q 5113 2597 4934 2840 
Q 4756 3084 4391 3084 
Q 3944 3084 3684 2787 
Q 3425 2491 3425 1978 
L 3425 0 
L 2847 0 
L 2847 2094 
Q 2847 2600 2669 2842 
Q 2491 3084 2119 3084 
Q 1678 3084 1418 2786 
Q 1159 2488 1159 1978 
L 1159 0 
L 581 0 
L 581 3500 
L 1159 3500 
L 1159 2956 
Q 1356 3278 1631 3431 
Q 1906 3584 2284 3584 
Q 2666 3584 2933 3390 
Q 3200 3197 3328 2828 
z
" transform="scale(0.015625)"/>
       <path id="DejaVuSans-6c" d="M 603 4863 
L 1178 4863 
L 1178 0 
L 603 0 
L 603 4863 
z
" transform="scale(0.015625)"/>
      </defs>
      <use xlink:href="#DejaVuSans-47"/>
      <use xlink:href="#DejaVuSans-61" x="77.490234"/>
      <use xlink:href="#DejaVuSans-6d" x="138.769531"/>
      <use xlink:href="#DejaVuSans-65" x="236.181641"/>
      <use xlink:href="#DejaVuSans-20" x="297.705078"/>
      <use xlink:href="#DejaVuSans-53" x="329.492188"/>
      <use xlink:href="#DejaVuSans-6f" x="392.96875"/>
      <use xlink:href="#DejaVuSans-6c" x="454.150391"/>
      <use xlink:href="#DejaVuSans-76" x="481.933594"/>
      <use xlink:href="#DejaVuSans-65" x="541.113281"/>
      <use xlink:href="#DejaVuSans-64" x="602.636719"/>
     </g>
    </g>
   </g>
  </g>
  <g id="axes_2">
   <g id="matplotlib.axis_3">
    <g id="ytick_8">
     <g id="line2d_23">
      <defs>
       <path id="me01ce4c7ce" d="M 0 0 
L 3.5 0 
" style="stroke: #000000; stroke-width: 0.8"/>
      </defs>
      <g>
       <use xlink:href="#me01ce4c7ce" x="451.2" y="299.454545" style="stroke: #000000; stroke-width: 0.8"/>
      </g>
     </g>
     <g id="text_22">
      <!-- 0.0 -->
      <g transform="translate(458.2 303.253764)scale(0.1 -0.1)">
       <defs>
        <path id="DejaVuSans-2e" d="M 684 794 
L 1344 794 
L 1344 0 
L 684 0 
L 684 794 
z
" transform="scale(0.015625)"/>
       </defs>
       <use xlink:href="#DejaVuSans-30"/>
       <use xlink:href="#DejaVuSans-2e" x="63.623047"/>
       <use xlink:href="#DejaVuSans-30" x="95.410156"/>
      </g>
     </g>
    </g>
    <g id="ytick_9">
     <g id="line2d_24">
      <g>
       <use xlink:href="#me01ce4c7ce" x="451.2" y="244.472727" style="stroke: #000000; stroke-width: 0.8"/>
      </g>
     </g>
     <g id="text_23">
      <!-- 0.2 -->
      <g transform="translate(458.2 248.271946)scale(0.1 -0.1)">
       <use xlink:href="#DejaVuSans-30"/>
       <use xlink:href="#DejaVuSans-2e" x="63.623047"/>
       <use xlink:href="#DejaVuSans-32" x="95.410156"/>
      </g>
     </g>
    </g>
    <g id="ytick_10">
     <g id="line2d_25">
      <g>
       <use xlink:href="#me01ce4c7ce" x="451.2" y="189.490909" style="stroke: #000000; stroke-width: 0.8"/>
      </g>
     </g>
     <g id="text_24">
      <!-- 0.4 -->
      <g transform="translate(458.2 193.290128)scale(0.1 -0.1)">
       <use xlink:href="#DejaVuSans-30"/>
       <use xlink:href="#DejaVuSans-2e" x="63.623047"/>
       <use xlink:href="#DejaVuSans-34" x="95.410156"/>
      </g>
     </g>
    </g>
    <g id="ytick_11">
     <g id="line2d_26">
      <g>
       <use xlink:href="#me01ce4c7ce" x="451.2" y="134.509091" style="stroke: #000000; stroke-width: 0.8"/>
      </g>
     </g>
     <g id="text_25">
      <!-- 0.6 -->
      <g transform="translate(458.2 138.30831)scale(0.1 -0.1)">
       <use xlink:href="#DejaVuSans-30"/>
       <use xlink:href="#DejaVuSans-2e" x="63.623047"/>
       <use xlink:href="#DejaVuSans-36" x="95.410156"/>
      </g>
     </g>
    </g>
    <g id="ytick_12">
     <g id="line2d_27">
      <g>
       <use xlink:href="#me01ce4c7ce" x="451.2" y="79.527273" style="stroke: #000000; stroke-width: 0.8"/>
      </g>
     </g>
     <g id="text_26">
      <!-- 0.8 -->
      <g transform="translate(458.2 83.326491)scale(0.1 -0.1)">
       <defs>
        <path id="DejaVuSans-38" d="M 2034 2216 
Q 1584 2216 1326 1975 
Q 1069 1734 1069 1313 
Q 1069 891 1326 650 
Q 1584 409 2034 409 
Q 2484 409 2743 651 
Q 3003 894 3003 1313 
Q 3003 1734 2745 1975 
Q 2488 2216 2034 2216 
z
M 1403 2484 
Q 997 2584 770 2862 
Q 544 3141 544 3541 
Q 544 4100 942 4425 
Q 1341 4750 2034 4750 
Q 2731 4750 3128 4425 
Q 3525 4100 3525 3541 
Q 3525 3141 3298 2862 
Q 3072 2584 2669 2484 
Q 3125 2378 3379 2068 
Q 3634 1759 3634 1313 
Q 3634 634 3220 271 
Q 2806 -91 2034 -91 
Q 1263 -91 848 271 
Q 434 634 434 1313 
Q 434 1759 690 2068 
Q 947 2378 1403 2484 
z
M 1172 3481 
Q 1172 3119 1398 2916 
Q 1625 2713 2034 2713 
Q 2441 2713 2670 2916 
Q 2900 3119 2900 3481 
Q 2900 3844 2670 4047 
Q 2441 4250 2034 4250 
Q 1625 4250 1398 4047 
Q 1172 3844 1172 3481 
z
" transform="scale(0.015625)"/>
       </defs>
       <use xlink:href="#DejaVuSans-30"/>
       <use xlink:href="#DejaVuSans-2e" x="63.623047"/>
       <use xlink:href="#DejaVuSans-38" x="95.410156"/>
      </g>
     </g>
    </g>
    <g id="ytick_13">
     <g id="line2d_28">
      <g>
       <use xlink:href="#me01ce4c7ce" x="451.2" y="24.545455" style="stroke: #000000; stroke-width: 0.8"/>
      </g>
     </g>
     <g id="text_27">
      <!-- 1.0 -->
      <g transform="translate(458.2 28.344673)scale(0.1 -0.1)">
       <use xlink:href="#DejaVuSans-31"/>
       <use xlink:href="#DejaVuSans-2e" x="63.623047"/>
       <use xlink:href="#DejaVuSans-30" x="95.410156"/>
      </g>
     </g>
    </g>
    <g id="text_28">
     <!-- Epsilon -->
     <g transform="translate(489.500781 188.916797)rotate(-90)scale(0.15 -0.15)">
      <use xlink:href="#DejaVuSans-45"/>
      <use xlink:href="#DejaVuSans-70" x="63.183594"/>
      <use xlink:href="#DejaVuSans-73" x="126.660156"/>
      <use xlink:href="#DejaVuSans-69" x="178.759766"/>
      <use xlink:href="#DejaVuSans-6c" x="206.542969"/>
      <use xlink:href="#DejaVuSans-6f" x="234.326172"/>
      <use xlink:href="#DejaVuSans-6e" x="295.507812"/>
     </g>
    </g>
   </g>
   <g id="line2d_29">
    <path d="M 73.892045 24.545455 
L 118.021631 24.545455 
L 118.922235 216.981818 
L 185.566914 216.981818 
L 186.467518 271.963636 
L 275.627293 271.963636 
L 276.527896 299.454545 
L 433.232955 299.454545 
L 433.232955 299.454545 
" clip-path="url(#p2d8aa130f9)" style="fill: none; stroke: #ff0000; stroke-width: 1.5; stroke-linecap: square"/>
   </g>
   <g id="patch_8">
    <path d="M 55.925 313.2 
L 55.925 10.8 
" style="fill: none; stroke: #000000; stroke-width: 0.8; stroke-linejoin: miter; stroke-linecap: square"/>
   </g>
   <g id="patch_9">
    <path d="M 451.2 313.2 
L 451.2 10.8 
" style="fill: none; stroke: #000000; stroke-width: 0.8; stroke-linejoin: miter; stroke-linecap: square"/>
   </g>
   <g id="patch_10">
    <path d="M 55.925 313.2 
L 451.2 313.2 
" style="fill: none; stroke: #000000; stroke-width: 0.8; stroke-linejoin: miter; stroke-linecap: square"/>
   </g>
   <g id="patch_11">
    <path d="M 55.925 10.8 
L 451.2 10.8 
" style="fill: none; stroke: #000000; stroke-width: 0.8; stroke-linejoin: miter; stroke-linecap: square"/>
   </g>
   <g id="legend_2">
    <g id="patch_12">
     <path d="M 62.925 33.478125 
L 130.814063 33.478125 
Q 132.814063 33.478125 132.814063 31.478125 
L 132.814063 17.8 
Q 132.814063 15.8 130.814063 15.8 
L 62.925 15.8 
Q 60.925 15.8 60.925 17.8 
L 60.925 31.478125 
Q 60.925 33.478125 62.925 33.478125 
z
" style="fill: #ffffff; opacity: 0.8; stroke: #cccccc; stroke-linejoin: miter"/>
    </g>
    <g id="line2d_30">
     <path d="M 64.925 23.898438 
L 74.925 23.898438 
L 84.925 23.898438 
" style="fill: none; stroke: #ff0000; stroke-width: 1.5; stroke-linecap: square"/>
    </g>
    <g id="text_29">
     <!-- Epsilon -->
     <g transform="translate(92.925 27.398438)scale(0.1 -0.1)">
      <use xlink:href="#DejaVuSans-45"/>
      <use xlink:href="#DejaVuSans-70" x="63.183594"/>
      <use xlink:href="#DejaVuSans-73" x="126.660156"/>
      <use xlink:href="#DejaVuSans-69" x="178.759766"/>
      <use xlink:href="#DejaVuSans-6c" x="206.542969"/>
      <use xlink:href="#DejaVuSans-6f" x="234.326172"/>
      <use xlink:href="#DejaVuSans-6e" x="295.507812"/>
     </g>
    </g>
   </g>
  </g>
 </g>
 <defs>
  <clipPath id="p2d8aa130f9">
   <rect x="55.925" y="10.8" width="395.275" height="302.4"/>
  </clipPath>
 </defs>
</svg>
