<?xml version="1.0" encoding="utf-8" standalone="no"?>
<!DOCTYPE svg PUBLIC "-//W3C//DTD SVG 1.1//EN"
  "http://www.w3.org/Graphics/SVG/1.1/DTD/svg11.dtd">
<svg xmlns:xlink="http://www.w3.org/1999/xlink" width="504pt" height="360pt" viewBox="0 0 504 360" xmlns="http://www.w3.org/2000/svg" version="1.1">
 <metadata>
  <rdf:RDF xmlns:dc="http://purl.org/dc/elements/1.1/" xmlns:cc="http://creativecommons.org/ns#" xmlns:rdf="http://www.w3.org/1999/02/22-rdf-syntax-ns#">
   <cc:Work>
    <dc:type rdf:resource="http://purl.org/dc/dcmitype/StillImage"/>
    <dc:date>2022-09-02T20:55:45.557182</dc:date>
    <dc:format>image/svg+xml</dc:format>
    <dc:creator>
     <cc:Agent>
      <dc:title>Matplotlib v3.5.2, https://matplotlib.org/</dc:title>
     </cc:Agent>
    </dc:creator>
   </cc:Work>
  </rdf:RDF>
 </metadata>
 <defs>
  <style type="text/css">*{stroke-linejoin: round; stroke-linecap: butt}</style>
 </defs>
 <g id="figure_1">
  <g id="patch_1">
   <path d="M 0 360 
L 504 360 
L 504 0 
L 0 0 
L 0 360 
z
" style="fill: none"/>
  </g>
  <g id="axes_1">
   <g id="patch_2">
    <path d="M 59.3 318.2 
L 456.2 318.2 
L 456.2 14.8 
L 59.3 14.8 
z
" style="fill: #ffffff"/>
   </g>
   <g id="matplotlib.axis_1">
    <g id="xtick_1">
     <g id="line2d_1">
      <defs>
       <path id="m74b5f16a41" d="M 0 0 
L 0 3.5 
" style="stroke: #000000; stroke-width: 0.8"/>
      </defs>
      <g>
       <use xlink:href="#m74b5f16a41" x="77.340909" y="318.2" style="stroke: #000000; stroke-width: 0.8"/>
      </g>
     </g>
     <g id="text_1">
      <!-- 0 -->
      <g transform="translate(74.159659 332.798437)scale(0.1 -0.1)">
       <defs>
        <path id="DejaVuSans-30" d="M 2034 4250 
Q 1547 4250 1301 3770 
Q 1056 3291 1056 2328 
Q 1056 1369 1301 889 
Q 1547 409 2034 409 
Q 2525 409 2770 889 
Q 3016 1369 3016 2328 
Q 3016 3291 2770 3770 
Q 2525 4250 2034 4250 
z
M 2034 4750 
Q 2819 4750 3233 4129 
Q 3647 3509 3647 2328 
Q 3647 1150 3233 529 
Q 2819 -91 2034 -91 
Q 1250 -91 836 529 
Q 422 1150 422 2328 
Q 422 3509 836 4129 
Q 1250 4750 2034 4750 
z
" transform="scale(0.015625)"/>
       </defs>
       <use xlink:href="#DejaVuSans-30"/>
      </g>
     </g>
    </g>
    <g id="xtick_2">
     <g id="line2d_2">
      <g>
       <use xlink:href="#m74b5f16a41" x="149.576781" y="318.2" style="stroke: #000000; stroke-width: 0.8"/>
      </g>
     </g>
     <g id="text_2">
      <!-- 200 -->
      <g transform="translate(140.033031 332.798437)scale(0.1 -0.1)">
       <defs>
        <path id="DejaVuSans-32" d="M 1228 531 
L 3431 531 
L 3431 0 
L 469 0 
L 469 531 
Q 828 903 1448 1529 
Q 2069 2156 2228 2338 
Q 2531 2678 2651 2914 
Q 2772 3150 2772 3378 
Q 2772 3750 2511 3984 
Q 2250 4219 1831 4219 
Q 1534 4219 1204 4116 
Q 875 4013 500 3803 
L 500 4441 
Q 881 4594 1212 4672 
Q 1544 4750 1819 4750 
Q 2544 4750 2975 4387 
Q 3406 4025 3406 3419 
Q 3406 3131 3298 2873 
Q 3191 2616 2906 2266 
Q 2828 2175 2409 1742 
Q 1991 1309 1228 531 
z
" transform="scale(0.015625)"/>
       </defs>
       <use xlink:href="#DejaVuSans-32"/>
       <use xlink:href="#DejaVuSans-30" x="63.623047"/>
       <use xlink:href="#DejaVuSans-30" x="127.246094"/>
      </g>
     </g>
    </g>
    <g id="xtick_3">
     <g id="line2d_3">
      <g>
       <use xlink:href="#m74b5f16a41" x="221.812654" y="318.2" style="stroke: #000000; stroke-width: 0.8"/>
      </g>
     </g>
     <g id="text_3">
      <!-- 400 -->
      <g transform="translate(212.268904 332.798437)scale(0.1 -0.1)">
       <defs>
        <path id="DejaVuSans-34" d="M 2419 4116 
L 825 1625 
L 2419 1625 
L 2419 4116 
z
M 2253 4666 
L 3047 4666 
L 3047 1625 
L 3713 1625 
L 3713 1100 
L 3047 1100 
L 3047 0 
L 2419 0 
L 2419 1100 
L 313 1100 
L 313 1709 
L 2253 4666 
z
" transform="scale(0.015625)"/>
       </defs>
       <use xlink:href="#DejaVuSans-34"/>
       <use xlink:href="#DejaVuSans-30" x="63.623047"/>
       <use xlink:href="#DejaVuSans-30" x="127.246094"/>
      </g>
     </g>
    </g>
    <g id="xtick_4">
     <g id="line2d_4">
      <g>
       <use xlink:href="#m74b5f16a41" x="294.048526" y="318.2" style="stroke: #000000; stroke-width: 0.8"/>
      </g>
     </g>
     <g id="text_4">
      <!-- 600 -->
      <g transform="translate(284.504776 332.798437)scale(0.1 -0.1)">
       <defs>
        <path id="DejaVuSans-36" d="M 2113 2584 
Q 1688 2584 1439 2293 
Q 1191 2003 1191 1497 
Q 1191 994 1439 701 
Q 1688 409 2113 409 
Q 2538 409 2786 701 
Q 3034 994 3034 1497 
Q 3034 2003 2786 2293 
Q 2538 2584 2113 2584 
z
M 3366 4563 
L 3366 3988 
Q 3128 4100 2886 4159 
Q 2644 4219 2406 4219 
Q 1781 4219 1451 3797 
Q 1122 3375 1075 2522 
Q 1259 2794 1537 2939 
Q 1816 3084 2150 3084 
Q 2853 3084 3261 2657 
Q 3669 2231 3669 1497 
Q 3669 778 3244 343 
Q 2819 -91 2113 -91 
Q 1303 -91 875 529 
Q 447 1150 447 2328 
Q 447 3434 972 4092 
Q 1497 4750 2381 4750 
Q 2619 4750 2861 4703 
Q 3103 4656 3366 4563 
z
" transform="scale(0.015625)"/>
       </defs>
       <use xlink:href="#DejaVuSans-36"/>
       <use xlink:href="#DejaVuSans-30" x="63.623047"/>
       <use xlink:href="#DejaVuSans-30" x="127.246094"/>
      </g>
     </g>
    </g>
    <g id="xtick_5">
     <g id="line2d_5">
      <g>
       <use xlink:href="#m74b5f16a41" x="366.284398" y="318.2" style="stroke: #000000; stroke-width: 0.8"/>
      </g>
     </g>
     <g id="text_5">
      <!-- 800 -->
      <g transform="translate(356.740648 332.798437)scale(0.1 -0.1)">
       <defs>
        <path id="DejaVuSans-38" d="M 2034 2216 
Q 1584 2216 1326 1975 
Q 1069 1734 1069 1313 
Q 1069 891 1326 650 
Q 1584 409 2034 409 
Q 2484 409 2743 651 
Q 3003 894 3003 1313 
Q 3003 1734 2745 1975 
Q 2488 2216 2034 2216 
z
M 1403 2484 
Q 997 2584 770 2862 
Q 544 3141 544 3541 
Q 544 4100 942 4425 
Q 1341 4750 2034 4750 
Q 2731 4750 3128 4425 
Q 3525 4100 3525 3541 
Q 3525 3141 3298 2862 
Q 3072 2584 2669 2484 
Q 3125 2378 3379 2068 
Q 3634 1759 3634 1313 
Q 3634 634 3220 271 
Q 2806 -91 2034 -91 
Q 1263 -91 848 271 
Q 434 634 434 1313 
Q 434 1759 690 2068 
Q 947 2378 1403 2484 
z
M 1172 3481 
Q 1172 3119 1398 2916 
Q 1625 2713 2034 2713 
Q 2441 2713 2670 2916 
Q 2900 3119 2900 3481 
Q 2900 3844 2670 4047 
Q 2441 4250 2034 4250 
Q 1625 4250 1398 4047 
Q 1172 3844 1172 3481 
z
" transform="scale(0.015625)"/>
       </defs>
       <use xlink:href="#DejaVuSans-38"/>
       <use xlink:href="#DejaVuSans-30" x="63.623047"/>
       <use xlink:href="#DejaVuSans-30" x="127.246094"/>
      </g>
     </g>
    </g>
    <g id="xtick_6">
     <g id="line2d_6">
      <g>
       <use xlink:href="#m74b5f16a41" x="438.52027" y="318.2" style="stroke: #000000; stroke-width: 0.8"/>
      </g>
     </g>
     <g id="text_6">
      <!-- 1000 -->
      <g transform="translate(425.79527 332.798437)scale(0.1 -0.1)">
       <defs>
        <path id="DejaVuSans-31" d="M 794 531 
L 1825 531 
L 1825 4091 
L 703 3866 
L 703 4441 
L 1819 4666 
L 2450 4666 
L 2450 531 
L 3481 531 
L 3481 0 
L 794 0 
L 794 531 
z
" transform="scale(0.015625)"/>
       </defs>
       <use xlink:href="#DejaVuSans-31"/>
       <use xlink:href="#DejaVuSans-30" x="63.623047"/>
       <use xlink:href="#DejaVuSans-30" x="127.246094"/>
       <use xlink:href="#DejaVuSans-30" x="190.869141"/>
      </g>
     </g>
    </g>
    <g id="text_7">
     <!-- Episode -->
     <g transform="translate(238.1125 346.476562)scale(0.1 -0.1)">
      <defs>
       <path id="DejaVuSans-45" d="M 628 4666 
L 3578 4666 
L 3578 4134 
L 1259 4134 
L 1259 2753 
L 3481 2753 
L 3481 2222 
L 1259 2222 
L 1259 531 
L 3634 531 
L 3634 0 
L 628 0 
L 628 4666 
z
" transform="scale(0.015625)"/>
       <path id="DejaVuSans-70" d="M 1159 525 
L 1159 -1331 
L 581 -1331 
L 581 3500 
L 1159 3500 
L 1159 2969 
Q 1341 3281 1617 3432 
Q 1894 3584 2278 3584 
Q 2916 3584 3314 3078 
Q 3713 2572 3713 1747 
Q 3713 922 3314 415 
Q 2916 -91 2278 -91 
Q 1894 -91 1617 61 
Q 1341 213 1159 525 
z
M 3116 1747 
Q 3116 2381 2855 2742 
Q 2594 3103 2138 3103 
Q 1681 3103 1420 2742 
Q 1159 2381 1159 1747 
Q 1159 1113 1420 752 
Q 1681 391 2138 391 
Q 2594 391 2855 752 
Q 3116 1113 3116 1747 
z
" transform="scale(0.015625)"/>
       <path id="DejaVuSans-69" d="M 603 3500 
L 1178 3500 
L 1178 0 
L 603 0 
L 603 3500 
z
M 603 4863 
L 1178 4863 
L 1178 4134 
L 603 4134 
L 603 4863 
z
" transform="scale(0.015625)"/>
       <path id="DejaVuSans-73" d="M 2834 3397 
L 2834 2853 
Q 2591 2978 2328 3040 
Q 2066 3103 1784 3103 
Q 1356 3103 1142 2972 
Q 928 2841 928 2578 
Q 928 2378 1081 2264 
Q 1234 2150 1697 2047 
L 1894 2003 
Q 2506 1872 2764 1633 
Q 3022 1394 3022 966 
Q 3022 478 2636 193 
Q 2250 -91 1575 -91 
Q 1294 -91 989 -36 
Q 684 19 347 128 
L 347 722 
Q 666 556 975 473 
Q 1284 391 1588 391 
Q 1994 391 2212 530 
Q 2431 669 2431 922 
Q 2431 1156 2273 1281 
Q 2116 1406 1581 1522 
L 1381 1569 
Q 847 1681 609 1914 
Q 372 2147 372 2553 
Q 372 3047 722 3315 
Q 1072 3584 1716 3584 
Q 2034 3584 2315 3537 
Q 2597 3491 2834 3397 
z
" transform="scale(0.015625)"/>
       <path id="DejaVuSans-6f" d="M 1959 3097 
Q 1497 3097 1228 2736 
Q 959 2375 959 1747 
Q 959 1119 1226 758 
Q 1494 397 1959 397 
Q 2419 397 2687 759 
Q 2956 1122 2956 1747 
Q 2956 2369 2687 2733 
Q 2419 3097 1959 3097 
z
M 1959 3584 
Q 2709 3584 3137 3096 
Q 3566 2609 3566 1747 
Q 3566 888 3137 398 
Q 2709 -91 1959 -91 
Q 1206 -91 779 398 
Q 353 888 353 1747 
Q 353 2609 779 3096 
Q 1206 3584 1959 3584 
z
" transform="scale(0.015625)"/>
       <path id="DejaVuSans-64" d="M 2906 2969 
L 2906 4863 
L 3481 4863 
L 3481 0 
L 2906 0 
L 2906 525 
Q 2725 213 2448 61 
Q 2172 -91 1784 -91 
Q 1150 -91 751 415 
Q 353 922 353 1747 
Q 353 2572 751 3078 
Q 1150 3584 1784 3584 
Q 2172 3584 2448 3432 
Q 2725 3281 2906 2969 
z
M 947 1747 
Q 947 1113 1208 752 
Q 1469 391 1925 391 
Q 2381 391 2643 752 
Q 2906 1113 2906 1747 
Q 2906 2381 2643 2742 
Q 2381 3103 1925 3103 
Q 1469 3103 1208 2742 
Q 947 2381 947 1747 
z
" transform="scale(0.015625)"/>
       <path id="DejaVuSans-65" d="M 3597 1894 
L 3597 1613 
L 953 1613 
Q 991 1019 1311 708 
Q 1631 397 2203 397 
Q 2534 397 2845 478 
Q 3156 559 3463 722 
L 3463 178 
Q 3153 47 2828 -22 
Q 2503 -91 2169 -91 
Q 1331 -91 842 396 
Q 353 884 353 1716 
Q 353 2575 817 3079 
Q 1281 3584 2069 3584 
Q 2775 3584 3186 3129 
Q 3597 2675 3597 1894 
z
M 3022 2063 
Q 3016 2534 2758 2815 
Q 2500 3097 2075 3097 
Q 1594 3097 1305 2825 
Q 1016 2553 972 2059 
L 3022 2063 
z
" transform="scale(0.015625)"/>
      </defs>
      <use xlink:href="#DejaVuSans-45"/>
      <use xlink:href="#DejaVuSans-70" x="63.183594"/>
      <use xlink:href="#DejaVuSans-69" x="126.660156"/>
      <use xlink:href="#DejaVuSans-73" x="154.443359"/>
      <use xlink:href="#DejaVuSans-6f" x="206.542969"/>
      <use xlink:href="#DejaVuSans-64" x="267.724609"/>
      <use xlink:href="#DejaVuSans-65" x="331.201172"/>
     </g>
    </g>
   </g>
   <g id="matplotlib.axis_2">
    <g id="ytick_1">
     <g id="line2d_7">
      <defs>
       <path id="me94c57335e" d="M 0 0 
L -3.5 0 
" style="stroke: #000000; stroke-width: 0.8"/>
      </defs>
      <g>
       <use xlink:href="#me94c57335e" x="59.3" y="318.2" style="stroke: #000000; stroke-width: 0.8"/>
      </g>
     </g>
     <g id="text_8">
      <!-- −100 -->
      <g transform="translate(24.832813 321.999219)scale(0.1 -0.1)">
       <defs>
        <path id="DejaVuSans-2212" d="M 678 2272 
L 4684 2272 
L 4684 1741 
L 678 1741 
L 678 2272 
z
" transform="scale(0.015625)"/>
       </defs>
       <use xlink:href="#DejaVuSans-2212"/>
       <use xlink:href="#DejaVuSans-31" x="83.789062"/>
       <use xlink:href="#DejaVuSans-30" x="147.412109"/>
       <use xlink:href="#DejaVuSans-30" x="211.035156"/>
      </g>
     </g>
    </g>
    <g id="ytick_2">
     <g id="line2d_8">
      <g>
       <use xlink:href="#me94c57335e" x="59.3" y="280.275" style="stroke: #000000; stroke-width: 0.8"/>
      </g>
     </g>
     <g id="text_9">
      <!-- −50 -->
      <g transform="translate(31.195313 284.074219)scale(0.1 -0.1)">
       <defs>
        <path id="DejaVuSans-35" d="M 691 4666 
L 3169 4666 
L 3169 4134 
L 1269 4134 
L 1269 2991 
Q 1406 3038 1543 3061 
Q 1681 3084 1819 3084 
Q 2600 3084 3056 2656 
Q 3513 2228 3513 1497 
Q 3513 744 3044 326 
Q 2575 -91 1722 -91 
Q 1428 -91 1123 -41 
Q 819 9 494 109 
L 494 744 
Q 775 591 1075 516 
Q 1375 441 1709 441 
Q 2250 441 2565 725 
Q 2881 1009 2881 1497 
Q 2881 1984 2565 2268 
Q 2250 2553 1709 2553 
Q 1456 2553 1204 2497 
Q 953 2441 691 2322 
L 691 4666 
z
" transform="scale(0.015625)"/>
       </defs>
       <use xlink:href="#DejaVuSans-2212"/>
       <use xlink:href="#DejaVuSans-35" x="83.789062"/>
       <use xlink:href="#DejaVuSans-30" x="147.412109"/>
      </g>
     </g>
    </g>
    <g id="ytick_3">
     <g id="line2d_9">
      <g>
       <use xlink:href="#me94c57335e" x="59.3" y="242.35" style="stroke: #000000; stroke-width: 0.8"/>
      </g>
     </g>
     <g id="text_10">
      <!-- 0 -->
      <g transform="translate(45.9375 246.149219)scale(0.1 -0.1)">
       <use xlink:href="#DejaVuSans-30"/>
      </g>
     </g>
    </g>
    <g id="ytick_4">
     <g id="line2d_10">
      <g>
       <use xlink:href="#me94c57335e" x="59.3" y="204.425" style="stroke: #000000; stroke-width: 0.8"/>
      </g>
     </g>
     <g id="text_11">
      <!-- 50 -->
      <g transform="translate(39.575 208.224219)scale(0.1 -0.1)">
       <use xlink:href="#DejaVuSans-35"/>
       <use xlink:href="#DejaVuSans-30" x="63.623047"/>
      </g>
     </g>
    </g>
    <g id="ytick_5">
     <g id="line2d_11">
      <g>
       <use xlink:href="#me94c57335e" x="59.3" y="166.5" style="stroke: #000000; stroke-width: 0.8"/>
      </g>
     </g>
     <g id="text_12">
      <!-- 100 -->
      <g transform="translate(33.2125 170.299219)scale(0.1 -0.1)">
       <use xlink:href="#DejaVuSans-31"/>
       <use xlink:href="#DejaVuSans-30" x="63.623047"/>
       <use xlink:href="#DejaVuSans-30" x="127.246094"/>
      </g>
     </g>
    </g>
    <g id="ytick_6">
     <g id="line2d_12">
      <g>
       <use xlink:href="#me94c57335e" x="59.3" y="128.575" style="stroke: #000000; stroke-width: 0.8"/>
      </g>
     </g>
     <g id="text_13">
      <!-- 150 -->
      <g transform="translate(33.2125 132.374219)scale(0.1 -0.1)">
       <use xlink:href="#DejaVuSans-31"/>
       <use xlink:href="#DejaVuSans-35" x="63.623047"/>
       <use xlink:href="#DejaVuSans-30" x="127.246094"/>
      </g>
     </g>
    </g>
    <g id="ytick_7">
     <g id="line2d_13">
      <g>
       <use xlink:href="#me94c57335e" x="59.3" y="90.65" style="stroke: #000000; stroke-width: 0.8"/>
      </g>
     </g>
     <g id="text_14">
      <!-- 200 -->
      <g transform="translate(33.2125 94.449219)scale(0.1 -0.1)">
       <use xlink:href="#DejaVuSans-32"/>
       <use xlink:href="#DejaVuSans-30" x="63.623047"/>
       <use xlink:href="#DejaVuSans-30" x="127.246094"/>
      </g>
     </g>
    </g>
    <g id="ytick_8">
     <g id="line2d_14">
      <g>
       <use xlink:href="#me94c57335e" x="59.3" y="52.725" style="stroke: #000000; stroke-width: 0.8"/>
      </g>
     </g>
     <g id="text_15">
      <!-- 250 -->
      <g transform="translate(33.2125 56.524219)scale(0.1 -0.1)">
       <use xlink:href="#DejaVuSans-32"/>
       <use xlink:href="#DejaVuSans-35" x="63.623047"/>
       <use xlink:href="#DejaVuSans-30" x="127.246094"/>
      </g>
     </g>
    </g>
    <g id="ytick_9">
     <g id="line2d_15">
      <g>
       <use xlink:href="#me94c57335e" x="59.3" y="14.8" style="stroke: #000000; stroke-width: 0.8"/>
      </g>
     </g>
     <g id="text_16">
      <!-- 300 -->
      <g transform="translate(33.2125 18.599219)scale(0.1 -0.1)">
       <defs>
        <path id="DejaVuSans-33" d="M 2597 2516 
Q 3050 2419 3304 2112 
Q 3559 1806 3559 1356 
Q 3559 666 3084 287 
Q 2609 -91 1734 -91 
Q 1441 -91 1130 -33 
Q 819 25 488 141 
L 488 750 
Q 750 597 1062 519 
Q 1375 441 1716 441 
Q 2309 441 2620 675 
Q 2931 909 2931 1356 
Q 2931 1769 2642 2001 
Q 2353 2234 1838 2234 
L 1294 2234 
L 1294 2753 
L 1863 2753 
Q 2328 2753 2575 2939 
Q 2822 3125 2822 3475 
Q 2822 3834 2567 4026 
Q 2313 4219 1838 4219 
Q 1578 4219 1281 4162 
Q 984 4106 628 3988 
L 628 4550 
Q 988 4650 1302 4700 
Q 1616 4750 1894 4750 
Q 2613 4750 3031 4423 
Q 3450 4097 3450 3541 
Q 3450 3153 3228 2886 
Q 3006 2619 2597 2516 
z
" transform="scale(0.015625)"/>
       </defs>
       <use xlink:href="#DejaVuSans-33"/>
       <use xlink:href="#DejaVuSans-30" x="63.623047"/>
       <use xlink:href="#DejaVuSans-30" x="127.246094"/>
      </g>
     </g>
    </g>
    <g id="text_17">
     <!-- Score -->
     <g transform="translate(18.753125 180.502344)rotate(-90)scale(0.1 -0.1)">
      <defs>
       <path id="DejaVuSans-53" d="M 3425 4513 
L 3425 3897 
Q 3066 4069 2747 4153 
Q 2428 4238 2131 4238 
Q 1616 4238 1336 4038 
Q 1056 3838 1056 3469 
Q 1056 3159 1242 3001 
Q 1428 2844 1947 2747 
L 2328 2669 
Q 3034 2534 3370 2195 
Q 3706 1856 3706 1288 
Q 3706 609 3251 259 
Q 2797 -91 1919 -91 
Q 1588 -91 1214 -16 
Q 841 59 441 206 
L 441 856 
Q 825 641 1194 531 
Q 1563 422 1919 422 
Q 2459 422 2753 634 
Q 3047 847 3047 1241 
Q 3047 1584 2836 1778 
Q 2625 1972 2144 2069 
L 1759 2144 
Q 1053 2284 737 2584 
Q 422 2884 422 3419 
Q 422 4038 858 4394 
Q 1294 4750 2059 4750 
Q 2388 4750 2728 4690 
Q 3069 4631 3425 4513 
z
" transform="scale(0.015625)"/>
       <path id="DejaVuSans-63" d="M 3122 3366 
L 3122 2828 
Q 2878 2963 2633 3030 
Q 2388 3097 2138 3097 
Q 1578 3097 1268 2742 
Q 959 2388 959 1747 
Q 959 1106 1268 751 
Q 1578 397 2138 397 
Q 2388 397 2633 464 
Q 2878 531 3122 666 
L 3122 134 
Q 2881 22 2623 -34 
Q 2366 -91 2075 -91 
Q 1284 -91 818 406 
Q 353 903 353 1747 
Q 353 2603 823 3093 
Q 1294 3584 2113 3584 
Q 2378 3584 2631 3529 
Q 2884 3475 3122 3366 
z
" transform="scale(0.015625)"/>
       <path id="DejaVuSans-72" d="M 2631 2963 
Q 2534 3019 2420 3045 
Q 2306 3072 2169 3072 
Q 1681 3072 1420 2755 
Q 1159 2438 1159 1844 
L 1159 0 
L 581 0 
L 581 3500 
L 1159 3500 
L 1159 2956 
Q 1341 3275 1631 3429 
Q 1922 3584 2338 3584 
Q 2397 3584 2469 3576 
Q 2541 3569 2628 3553 
L 2631 2963 
z
" transform="scale(0.015625)"/>
      </defs>
      <use xlink:href="#DejaVuSans-53"/>
      <use xlink:href="#DejaVuSans-63" x="63.476562"/>
      <use xlink:href="#DejaVuSans-6f" x="118.457031"/>
      <use xlink:href="#DejaVuSans-72" x="179.638672"/>
      <use xlink:href="#DejaVuSans-65" x="218.501953"/>
     </g>
    </g>
   </g>
   <g id="line2d_16">
    <path d="M 77.340909 338.369078 
L 77.377057 361 
M 77.924774 361 
L 78.063268 234.445599 
L 78.424447 335.576354 
L 78.66828 361 
M 79.26713 361 
L 79.507985 284.215667 
L 79.622312 361 
M 80.218931 361 
L 80.230344 355.589981 
L 80.591523 332.612251 
L 80.952703 296.619527 
L 81.129428 361 
M 81.773 361 
L 82.036241 311.110892 
L 82.39742 304.005394 
L 82.592983 361 
M 82.872313 361 
L 83.119779 255.959901 
L 83.480958 290.581071 
L 84.203317 265.502378 
L 84.564496 240.858084 
L 84.925676 293.654868 
L 85.286855 162.509432 
L 85.648034 289.243154 
L 86.009214 242.40056 
L 86.260534 361 
M 86.776881 361 
L 87.092752 264.748827 
L 87.453931 247.528364 
L 87.815111 267.863996 
L 88.17629 258.655476 
L 88.455621 361 
M 88.603476 361 
L 88.898649 226.895235 
L 89.259828 246.461057 
L 89.621007 251.46631 
L 89.982187 287.6107 
L 90.343366 285.536063 
L 90.704545 276.301023 
L 91.065725 279.292168 
L 91.426904 256.806062 
L 91.788084 264.759028 
L 92.149263 228.689963 
L 92.510442 233.047987 
L 92.871622 253.29086 
L 93.232801 228.412049 
L 93.59398 254.182363 
L 93.95516 242.349678 
L 94.316339 237.747949 
L 95.038698 265.136283 
L 95.399877 230.919187 
L 95.761057 259.032577 
L 96.122236 230.70329 
L 96.483415 252.517643 
L 96.844595 237.064238 
L 97.205774 239.72629 
L 97.566953 152.582936 
L 97.928133 231.836663 
L 98.289312 252.704348 
L 98.650491 235.354095 
L 99.011671 243.297664 
L 99.37285 234.543776 
L 99.734029 234.558616 
L 100.456388 291.424403 
L 100.817568 247.628648 
L 101.178747 249.294316 
L 101.539926 236.107964 
L 101.901106 250.068298 
L 102.262285 216.793471 
L 102.623464 242.500264 
L 102.984644 248.095558 
L 103.345823 300.401698 
L 103.707002 249.540763 
L 104.429361 257.383693 
L 104.790541 243.778129 
L 105.15172 250.406212 
L 105.512899 284.209952 
L 106.235258 213.36425 
L 106.596437 237.476053 
L 106.957617 308.463853 
L 107.318796 286.385461 
L 107.679975 326.562397 
L 108.041155 151.280509 
L 108.402334 235.085616 
L 108.763514 236.209245 
L 109.124693 249.354452 
L 109.485872 148.264734 
L 109.847052 264.344643 
L 110.208231 269.261263 
L 110.56941 295.494133 
L 110.93059 271.354716 
L 111.291769 289.385276 
L 111.652948 230.139076 
L 112.014128 219.063209 
L 112.375307 240.186954 
L 112.736486 119.428504 
L 113.097666 237.301273 
L 113.458845 228.504619 
L 113.820025 223.564536 
L 114.181204 236.95638 
L 114.542383 163.244385 
L 114.903563 256.899273 
L 115.264742 260.123132 
L 115.625921 236.731725 
L 115.987101 232.227324 
L 116.348013 361 
M 116.348445 361 
L 116.709459 151.964414 
L 117.070639 140.22578 
L 117.431818 286.906331 
L 118.154177 211.540787 
L 118.515356 223.354436 
L 118.876536 302.999877 
L 119.237715 257.681525 
L 119.598894 155.266648 
L 119.960074 195.17343 
L 120.321253 216.012614 
L 120.682432 324.187455 
L 121.043612 275.268113 
L 121.404791 263.18603 
L 121.765971 190.551384 
L 122.12715 245.643103 
L 122.488329 144.358078 
L 122.849509 339.175034 
L 123.210688 252.533803 
L 123.571867 207.774576 
L 123.933047 244.80732 
L 124.294226 345.02382 
L 124.655405 183.704081 
L 125.016585 145.58814 
L 125.377764 285.022143 
L 125.738943 173.36319 
L 126.100123 168.172326 
L 126.461302 245.501524 
L 126.822482 167.081864 
L 127.183661 222.543966 
L 127.54484 221.410952 
L 127.90602 252.991225 
L 128.267199 172.798913 
L 128.628378 184.353416 
L 128.989558 265.305151 
L 129.350737 258.145882 
L 129.711916 254.595382 
L 130.073096 163.229509 
L 130.434275 274.647866 
L 130.795455 180.412118 
L 131.156634 245.299822 
L 131.517813 146.366047 
L 131.878993 217.228742 
L 132.240172 193.360931 
L 132.601351 249.969443 
L 132.962531 159.088646 
L 133.32371 255.02471 
L 133.684889 220.919333 
L 134.046069 240.638536 
L 134.407248 147.079918 
L 134.768428 244.155577 
L 135.129607 240.819442 
L 135.851966 141.053609 
L 136.059353 361 
M 136.39508 361 
L 136.574324 200.305758 
L 136.935504 195.494635 
L 137.296683 224.354067 
L 137.657862 123.591436 
L 138.019042 226.533124 
L 138.380221 256.412078 
L 138.7414 231.529495 
L 139.10258 223.298778 
L 139.463759 112.408827 
L 139.824939 228.835775 
L 140.186118 207.195106 
L 140.547297 241.011462 
L 140.908477 262.720563 
L 141.269656 114.863492 
L 141.630835 254.613778 
L 141.992015 254.343544 
L 142.353194 229.944804 
L 142.714373 213.487038 
L 143.075553 268.797591 
L 143.436732 140.396002 
L 143.797912 203.826418 
L 144.159091 244.190344 
L 144.355993 361 
M 144.669879 361 
L 144.88145 223.182963 
L 145.242629 189.741988 
L 145.603808 246.534047 
L 145.964988 162.702344 
L 146.326167 212.417996 
L 147.048526 152.587974 
L 147.409705 174.041353 
L 147.770885 168.569166 
L 148.132064 152.311556 
L 148.493243 145.032435 
L 148.854423 169.703836 
L 149.215602 247.468743 
L 149.576781 231.833198 
L 149.937961 226.841715 
L 150.29914 189.98962 
L 150.660319 216.771625 
L 151.021499 118.287504 
L 151.382678 129.82133 
L 151.743857 175.921892 
L 152.105037 246.351894 
L 152.466216 154.634339 
L 153.188575 133.885054 
L 153.549754 146.405595 
L 153.910934 104.842884 
L 154.272113 228.068668 
L 154.633292 146.471418 
L 154.994472 130.002507 
L 155.355651 161.077293 
L 155.71683 144.985467 
L 156.07801 144.776875 
L 156.439189 252.058137 
L 156.800369 119.31276 
L 157.161548 134.875141 
L 157.522727 157.907858 
L 157.883907 168.564336 
L 158.245086 154.433254 
L 158.606265 155.985931 
L 158.967445 161.263996 
L 159.328624 199.254768 
L 159.689803 157.349183 
L 160.412162 224.246278 
L 160.773342 218.254875 
L 161.134521 165.547969 
L 161.4957 197.987026 
L 162.218059 133.40673 
L 162.579238 122.373808 
L 162.940418 180.442947 
L 163.301597 190.967909 
L 163.662776 131.900695 
L 164.023956 213.760801 
L 164.385135 161.249812 
L 164.746314 140.202596 
L 165.107494 158.005142 
L 165.468673 144.25619 
L 165.829853 160.600291 
L 166.191032 226.967211 
L 166.552211 136.122221 
L 166.913391 210.834146 
L 167.27457 135.401245 
L 167.635749 130.82675 
L 167.996929 137.184903 
L 168.358108 141.564819 
L 168.719287 137.711452 
L 169.080467 137.597924 
L 169.441646 140.988252 
L 169.802826 138.169413 
L 170.164005 182.923618 
L 170.525184 155.776143 
L 170.886364 106.846221 
L 171.247543 213.768006 
L 171.512487 361 
M 171.699155 361 
L 171.969902 200.889472 
L 172.331081 154.790903 
L 172.69226 215.327378 
L 173.05344 151.702934 
L 173.414619 244.893791 
L 173.775799 158.030431 
L 174.136978 151.636936 
L 174.498157 121.626704 
L 174.859337 173.922846 
L 175.220516 198.933752 
L 175.581695 255.611832 
L 175.942875 163.806221 
L 176.304054 218.884346 
L 176.665233 157.105812 
L 177.026413 158.723008 
L 177.387592 163.998041 
L 177.748771 241.766201 
L 178.109951 164.364015 
L 178.47113 196.116112 
L 178.83231 244.971341 
L 179.193489 161.937887 
L 179.554668 238.579344 
L 179.915848 129.006311 
L 180.277027 131.400066 
L 180.638206 277.232624 
L 180.999386 144.655682 
L 181.360565 185.156347 
L 181.721744 144.366994 
L 182.082924 252.376874 
L 182.444103 212.512127 
L 182.805283 139.523268 
L 183.166462 151.016647 
L 183.527641 129.468932 
L 183.888821 293.019841 
L 184.25 196.099586 
L 184.611179 139.288062 
L 184.972359 254.826543 
L 185.333538 151.088157 
L 185.694717 227.052267 
L 186.055897 183.140746 
L 186.417076 162.42431 
L 186.778256 134.338958 
L 187.139435 149.564926 
L 187.500614 241.59071 
L 187.861794 132.211925 
L 188.222973 214.537635 
L 188.584152 128.27493 
L 188.945332 128.909155 
L 189.306511 157.844274 
L 189.66769 150.688052 
L 190.02887 124.465238 
L 190.390049 163.530856 
L 190.751229 226.554995 
L 191.112408 134.475671 
L 191.473587 206.854713 
L 191.834767 230.902571 
L 192.195946 165.136549 
L 192.557125 208.733694 
L 192.918305 156.425518 
L 193.279484 148.957656 
L 193.640663 122.035385 
L 194.001843 213.061087 
L 194.363022 169.571665 
L 194.724201 184.336887 
L 195.085381 177.683775 
L 195.44656 162.132614 
L 195.80774 173.423797 
L 196.168919 210.994492 
L 196.530098 172.303734 
L 196.891278 190.937278 
L 197.252457 94.925334 
L 197.613636 133.507203 
L 197.974816 126.995657 
L 198.335995 241.730713 
L 198.697174 290.676751 
L 199.058354 250.731643 
L 199.419533 332.910699 
L 199.780713 129.712059 
L 200.141892 171.583323 
L 200.503071 128.388401 
L 200.864251 201.301335 
L 201.22543 136.477307 
L 201.586609 240.436499 
L 201.947789 182.368165 
L 202.308968 205.483213 
L 202.670147 151.657848 
L 203.031327 196.607644 
L 203.392506 157.056655 
L 203.753686 64.186168 
L 204.114865 63.163723 
L 204.476044 159.985334 
L 204.837224 139.543596 
L 205.198403 128.278291 
L 205.559582 130.6503 
L 205.920762 173.617467 
L 206.281941 166.380349 
L 206.64312 187.297679 
L 207.0043 158.916676 
L 207.365479 186.159618 
L 207.726658 175.189285 
L 208.087838 112.01513 
L 208.449017 216.48556 
L 208.810197 142.502724 
L 209.171376 128.251504 
L 209.532555 127.441155 
L 209.893735 133.839081 
L 210.254914 142.63049 
L 210.616093 254.751608 
L 210.977273 180.830663 
L 211.338452 151.022253 
L 211.699631 151.301913 
L 212.060811 165.693456 
L 212.42199 149.094614 
L 212.78317 158.85978 
L 213.144349 189.515612 
L 213.505528 188.859703 
L 213.866708 138.576205 
L 214.227887 170.120956 
L 214.589066 99.411442 
L 214.950246 147.392395 
L 215.311425 106.605489 
L 215.672604 178.71945 
L 216.033784 159.709412 
L 216.394963 179.85682 
L 216.756143 262.891739 
L 217.117322 295.920289 
L 217.839681 61.435554 
L 218.562039 173.266229 
L 218.923219 182.276686 
L 219.284398 86.616204 
L 219.645577 72.759469 
L 220.006757 233.735952 
L 220.367936 161.039023 
L 220.729115 264.008934 
L 221.090295 119.450602 
L 221.812654 346.179694 
L 222.173833 346.42032 
L 222.535012 127.680414 
L 222.896192 119.414078 
L 223.257371 157.161293 
L 223.61855 154.623639 
L 223.97973 254.229328 
L 224.340909 104.092838 
L 224.702088 236.695825 
L 225.063268 282.909573 
L 225.424447 152.264742 
L 225.785627 246.961212 
L 226.146806 136.046189 
L 226.507985 230.997885 
L 226.869165 160.147794 
L 227.230344 248.982226 
L 227.591523 106.314594 
L 227.952703 81.444519 
L 228.313882 252.3732 
L 228.675061 257.051886 
L 229.036241 146.880036 
L 229.39742 97.348296 
L 229.7586 258.397692 
L 230.119779 88.776102 
L 230.480958 188.813645 
L 230.842138 189.971122 
L 231.203317 319.748753 
L 231.564496 326.726419 
L 231.925676 341.613687 
L 232.286855 257.739206 
L 232.648034 281.050466 
L 233.009214 80.881095 
L 233.370393 243.181246 
L 233.731572 159.299074 
L 234.092752 186.061753 
L 234.453931 253.894886 
L 234.815111 216.386641 
L 235.17629 216.175591 
L 235.537469 202.336672 
L 235.898649 107.463081 
L 236.259828 152.609387 
L 236.621007 165.422564 
L 236.982187 200.370708 
L 237.343366 195.485082 
L 237.704545 110.463412 
L 238.065725 67.834742 
L 238.426904 106.97522 
L 238.788084 90.400142 
L 239.149263 143.329336 
L 239.510442 131.423603 
L 239.871622 172.071016 
L 240.232801 101.69653 
L 240.59398 134.16593 
L 240.95516 112.239318 
L 241.677518 332.973105 
L 242.038698 214.91121 
L 242.399877 222.586212 
L 242.761057 85.603369 
L 243.122236 108.380919 
L 243.483415 207.197128 
L 243.844595 156.519111 
L 244.205774 310.629168 
L 244.566953 160.156195 
L 244.928133 227.798404 
L 245.650491 139.03287 
L 246.011671 280.64264 
L 246.37285 135.703821 
L 246.734029 130.261611 
L 247.095209 203.375034 
L 247.456388 146.969085 
L 247.817568 351.357883 
L 248.178747 198.933183 
L 248.539926 215.565127 
L 248.901106 82.726348 
L 249.206029 361 
M 249.356419 361 
L 249.623464 215.356655 
L 249.984644 148.554048 
L 250.345823 172.222332 
L 250.707002 116.37572 
L 251.068182 110.217011 
L 251.429361 300.503531 
L 251.790541 346.854723 
L 252.15172 156.920258 
L 252.512899 293.60877 
L 252.874079 217.223692 
L 253.117319 361 
M 253.366384 361 
L 253.596437 238.693512 
L 253.957617 190.212786 
L 254.318796 108.187313 
L 254.679975 122.932379 
L 255.041155 213.057974 
L 255.763514 295.574251 
L 256.107823 361 
M 256.157235 361 
L 256.485872 328.626858 
L 256.847052 203.799602 
L 257.208231 306.873756 
L 257.56941 185.967055 
L 257.93059 297.241256 
L 258.291769 322.88887 
L 258.652948 296.556032 
L 258.871734 361 
M 259.068416 361 
L 259.375307 123.898627 
L 259.736486 165.760291 
L 260.097666 242.2452 
L 260.458845 176.590456 
L 261.181204 318.308353 
L 261.542383 123.644462 
L 262.146092 361 
M 262.316229 361 
L 262.625921 163.256587 
L 262.987101 302.632425 
L 263.34828 176.698604 
L 263.709459 221.929069 
L 264.070639 146.955462 
L 264.431818 346.301569 
L 264.792998 167.761033 
L 265.154177 158.315989 
L 265.515356 135.618418 
L 265.876536 314.289013 
L 266.598894 101.778955 
L 266.960074 290.485162 
L 267.321253 300.096463 
L 267.682432 177.717921 
L 268.043612 113.914647 
L 268.404791 172.937266 
L 268.765971 99.570946 
L 269.12715 137.862465 
L 269.488329 203.846425 
L 269.849509 225.560548 
L 270.204493 361 
M 270.213983 361 
L 270.571867 104.262581 
L 270.933047 64.890248 
L 271.209355 361 
M 272.065473 361 
L 272.377764 153.829109 
L 272.738943 281.838525 
L 273.100123 265.303739 
L 273.461302 156.823839 
L 273.822482 207.56369 
L 274.183661 140.022271 
L 274.54484 237.202542 
L 274.90602 269.664449 
L 275.143152 361 
M 275.380288 361 
L 275.628378 256.183935 
L 275.731526 361 
M 276.311965 361 
L 276.350737 329.467458 
L 276.711916 133.881801 
L 277.434275 306.152884 
L 277.795455 270.924282 
L 278.156634 176.651613 
L 278.405823 361 
M 278.868043 361 
L 278.878993 358.409663 
L 279.240172 236.466468 
L 279.529483 361 
M 279.716518 361 
L 279.962531 294.916531 
L 280.32371 118.167219 
L 280.66324 361 
M 280.711215 361 
L 281.046069 164.047211 
L 281.371331 361 
M 281.529706 361 
L 281.768428 318.603599 
L 282.129607 112.688358 
L 282.490786 142.92911 
L 283.213145 72.458962 
L 283.574324 111.490277 
L 283.935504 118.630253 
L 284.296683 211.668199 
L 284.657862 261.054431 
L 285.177203 361 
M 285.413293 361 
L 285.7414 49.428447 
L 286.463759 136.632566 
L 286.824939 84.784928 
L 287.186118 119.23953 
L 287.547297 103.753748 
L 287.908477 220.302901 
L 288.269656 84.70274 
L 288.630835 315.371412 
L 288.992015 78.1163 
L 289.353194 290.743485 
L 289.714373 132.815203 
L 290.362072 361 
M 290.516494 361 
L 290.797912 286.418627 
L 291.159091 351.756128 
L 291.52027 92.757801 
L 291.88145 117.012256 
L 292.242629 107.049023 
L 292.603808 121.767944 
L 292.964988 300.519752 
L 293.326167 275.544604 
L 293.687346 89.76481 
L 294.048526 93.08505 
L 294.409705 89.630578 
L 294.770885 87.612998 
L 295.132064 140.483898 
L 295.493243 291.102806 
L 295.854423 271.150427 
L 296.215602 208.590622 
L 296.576781 78.383324 
L 296.937961 122.071895 
L 297.29914 250.498928 
L 297.660319 98.97014 
L 298.021499 116.88524 
L 298.382678 91.142263 
L 298.743857 341.517633 
L 299.105037 135.289109 
L 299.466216 126.571736 
L 299.827396 110.786807 
L 300.188575 119.452189 
L 300.549754 345.00548 
L 300.910934 296.642481 
L 301.272113 309.137869 
L 301.633292 184.978401 
L 301.944928 361 
M 302.349863 361 
L 302.355651 360.544266 
L 302.71683 222.821613 
L 303.07801 356.809969 
L 303.241773 361 
M 303.447574 361 
L 303.800369 148.473173 
L 304.161548 339.538637 
L 304.522727 354.783538 
L 304.883907 359.347745 
L 305.245086 74.071528 
L 305.606265 325.680999 
L 305.967445 118.183666 
L 306.328624 126.006132 
L 306.689803 289.875242 
L 307.050983 228.886964 
L 307.412162 103.140528 
L 307.773342 159.686649 
L 308.134521 91.08185 
L 308.4957 141.22365 
L 308.85688 303.659401 
L 309.218059 88.109815 
L 309.579238 132.893796 
L 309.940418 43.138516 
L 310.301597 306.632144 
L 310.662776 141.855529 
L 311.385135 23.366968 
L 311.746314 51.078543 
L 312.107494 66.429139 
L 312.468673 58.371333 
L 313.552211 250.358225 
L 313.913391 119.387656 
L 314.27457 318.323454 
L 314.635749 322.768737 
L 314.878169 361 
M 315.022433 361 
L 315.358108 114.494168 
L 315.719287 339.871135 
L 316.080467 334.21222 
L 316.441646 91.105964 
L 316.802826 53.465954 
L 317.164005 121.262524 
L 317.525184 56.243245 
L 317.886364 248.090169 
L 318.247543 346.206021 
L 318.608722 306.961811 
L 318.969902 90.921683 
L 319.331081 87.025342 
L 319.69226 249.644819 
L 320.05344 319.789606 
L 320.414619 341.669467 
L 320.775799 71.502028 
L 321.136978 64.858366 
L 321.498157 333.251975 
L 321.859337 268.999624 
L 322.220516 271.431738 
L 322.581695 114.365567 
L 322.942875 299.651708 
L 323.304054 130.825658 
L 323.665233 81.914394 
L 324.026413 277.576917 
L 324.387592 257.491921 
L 324.748771 338.021572 
L 325.106368 361 
M 325.110453 361 
L 325.83231 70.076986 
L 326.193489 344.909695 
L 326.554668 139.078233 
L 326.885328 361 
M 327.019139 361 
L 327.277027 309.859026 
L 327.638206 95.515701 
L 327.999386 272.513204 
L 328.360565 140.029362 
L 328.716538 361 
M 329.269944 361 
L 330.166462 246.60129 
L 330.527641 85.347935 
L 330.888821 116.29368 
L 331.25 107.098277 
L 331.570477 361 
M 331.737918 361 
L 331.972359 301.349624 
L 332.333538 341.429457 
L 333.055897 156.807735 
L 333.293131 361 
M 333.593279 361 
L 333.778256 249.005621 
L 334.139435 236.620738 
L 334.500614 302.217571 
L 334.861794 270.175136 
L 335.084908 361 
M 335.525706 361 
L 335.945332 284.296242 
L 336.306511 301.696463 
L 336.66769 264.219343 
L 337.02887 291.706832 
L 337.390049 146.909133 
L 337.984568 361 
M 338.273928 361 
L 338.473587 315.315402 
L 338.834767 261.042509 
L 339.195946 317.061208 
L 339.557125 299.586699 
L 339.918305 92.182483 
L 340.640663 242.553787 
L 341.001843 114.985789 
L 341.363022 357.403457 
L 341.724201 144.122532 
L 342.085381 269.550838 
L 342.44656 129.836215 
L 342.80774 260.603193 
L 343.168919 77.753482 
L 343.530098 164.604578 
L 343.891278 86.750109 
L 344.252457 69.819067 
L 344.613636 304.794387 
L 344.974816 62.067059 
L 345.335995 281.28339 
L 345.630825 361 
M 345.783708 361 
L 346.058354 304.062384 
L 346.419533 75.921342 
L 346.780713 301.294168 
L 347.141892 325.254903 
L 347.503071 292.683755 
L 347.864251 91.899323 
L 348.22543 320.039685 
L 348.586609 57.474502 
L 348.947789 269.011145 
L 349.308968 337.159673 
L 349.670147 323.131649 
L 350.031327 73.128155 
L 350.392506 313.334963 
L 350.580619 361 
M 350.803742 361 
L 351.114865 88.439022 
L 351.476044 308.851101 
L 351.837224 304.472025 
L 352.198403 102.297243 
L 352.559582 316.423691 
L 352.920762 63.664803 
L 353.281941 303.908172 
L 353.64312 303.527815 
L 354.0043 128.878254 
L 354.365479 197.906153 
L 354.726658 122.286533 
L 355.087838 249.544479 
L 355.449017 295.036339 
L 355.810197 116.193171 
L 356.171376 316.724435 
L 356.532555 265.996392 
L 356.893735 328.6662 
L 357.254914 246.299357 
L 357.616093 310.820852 
L 357.977273 125.984455 
L 358.338452 245.657262 
L 358.699631 264.833182 
L 359.060811 210.960978 
L 359.78317 350.427346 
L 360.144349 245.738701 
L 360.505528 290.526071 
L 360.866708 273.037997 
L 361.227887 297.965475 
L 361.589066 290.369764 
L 361.950246 300.96776 
L 362.311425 293.563086 
L 362.672604 299.159627 
L 363.033784 320.834148 
L 363.394963 318.99387 
L 363.756143 290.075721 
L 364.117322 296.780016 
L 364.478501 290.351746 
L 364.839681 271.763294 
L 365.20086 309.10831 
L 365.562039 220.668321 
L 365.923219 325.850256 
L 366.284398 228.350687 
L 366.645577 265.80808 
L 367.006757 268.952574 
L 367.367936 250.075211 
L 367.729115 93.049257 
L 368.090295 252.441242 
L 368.451474 285.619082 
L 368.812654 263.203687 
L 369.107745 361 
M 369.254604 361 
L 369.535012 284.964382 
L 369.896192 65.943621 
L 370.442424 361 
M 370.75706 361 
L 370.97973 274.750872 
L 371.179967 361 
M 371.893129 361 
L 372.063268 306.630248 
L 372.424447 313.544056 
L 372.570012 361 
M 372.989969 361 
L 373.146806 307.048893 
L 373.507985 333.579376 
L 373.869165 310.31659 
L 374.230344 299.141954 
L 374.591523 238.419704 
L 374.952703 318.481475 
L 375.313882 55.448637 
L 375.675061 92.209177 
L 376.036241 294.172723 
L 376.39742 89.80296 
L 376.7586 257.74267 
L 377.116365 361 
M 377.120935 361 
L 377.480958 54.149508 
L 377.842138 229.969657 
L 378.203317 287.796692 
L 378.564496 228.793785 
L 378.829332 361 
M 378.991532 361 
L 379.286855 145.326058 
L 380.009214 242.456903 
L 380.370393 254.128264 
L 380.731572 270.05345 
L 380.98966 361 
M 381.225755 361 
L 381.453931 298.676417 
L 381.815111 270.574814 
L 382.17629 278.979281 
L 382.537469 311.042987 
L 382.63386 361 
M 383.104336 361 
L 383.259828 257.257094 
L 383.621007 135.569444 
L 383.982187 259.899884 
L 384.343366 264.782376 
L 384.704545 275.701435 
L 385.065725 45.270204 
L 385.426904 262.803243 
L 385.788084 45.002499 
L 386.149263 320.3268 
L 386.510442 263.519226 
L 386.871622 293.445407 
L 387.116489 361 
M 387.279125 361 
L 387.59398 142.897683 
L 387.95516 220.489263 
L 388.316339 116.158789 
L 389.038698 95.985874 
L 389.399877 270.042277 
L 389.761057 225.655818 
L 390.122236 226.429104 
L 390.483415 261.832451 
L 390.844595 130.02678 
L 391.205774 92.031997 
L 391.566953 112.85855 
L 391.928133 106.233193 
L 392.289312 289.969249 
L 392.650491 131.014556 
L 393.011671 113.399729 
L 393.37285 123.795935 
L 393.734029 89.042042 
L 394.095209 96.537052 
L 394.456388 147.715185 
L 394.817568 127.370555 
L 395.178747 93.928651 
L 395.539926 96.397535 
L 395.901106 243.385101 
L 396.262285 85.082237 
L 396.623464 64.421257 
L 396.984644 215.42781 
L 397.345823 112.864477 
L 397.707002 94.025265 
L 398.068182 114.211294 
L 398.429361 275.78825 
L 398.790541 359.203866 
L 399.15172 263.438138 
L 399.512899 73.168084 
L 400.235258 92.609104 
L 400.596437 282.454921 
L 400.957617 109.726515 
L 401.318796 49.883711 
L 401.679975 59.939947 
L 402.402334 110.970199 
L 402.763514 297.583155 
L 403.124693 75.073092 
L 403.485872 102.815034 
L 404.208231 39.069825 
L 404.56941 223.528218 
L 404.93059 96.832413 
L 405.291769 248.969386 
L 405.652948 313.136094 
L 406.014128 276.646563 
L 406.375307 141.456449 
L 406.736486 277.063642 
L 407.097666 284.631671 
L 407.458845 274.30785 
L 407.820025 132.278382 
L 408.181204 300.883923 
L 408.542383 124.725595 
L 408.903563 89.050228 
L 409.264742 313.555062 
L 409.625921 221.806596 
L 409.987101 164.381963 
L 410.34828 256.58042 
L 410.709459 78.704876 
L 411.070639 251.340986 
L 411.431818 320.643673 
L 411.792998 173.331194 
L 412.154177 131.444856 
L 412.515356 319.749864 
L 412.876536 83.762043 
L 413.237715 278.745351 
L 413.598894 123.661975 
L 413.960074 307.088009 
L 414.321253 323.5957 
L 415.043612 151.896759 
L 415.404791 137.124969 
L 415.765971 270.315028 
L 416.12715 300.801339 
L 416.488329 290.377554 
L 416.849509 251.569916 
L 417.210688 315.538066 
L 417.571867 289.916395 
L 418.294226 327.83449 
L 418.655405 334.124977 
L 419.016585 141.543679 
L 419.377764 105.767763 
L 419.738943 101.218839 
L 420.100123 93.00879 
L 420.461302 90.413622 
L 421.183661 132.997042 
L 421.54484 299.67979 
L 421.90602 97.900793 
L 422.267199 305.426353 
L 422.628378 268.372238 
L 422.989558 219.722498 
L 423.350737 256.001896 
L 423.711916 270.593126 
L 424.073096 270.469058 
L 424.434275 316.114539 
L 424.795455 239.428084 
L 425.156634 317.368652 
L 425.878993 288.214332 
L 426.240172 285.922443 
L 426.601351 137.94896 
L 426.91674 361 
M 427.096059 361 
L 427.32371 305.788016 
L 427.684889 325.125527 
L 428.046069 255.414894 
L 428.407248 266.661958 
L 428.908431 361 
M 429.291278 361 
L 429.490786 297.193787 
L 429.851966 274.72544 
L 430.213145 262.681904 
L 430.574324 128.837919 
L 430.935504 257.124949 
L 431.296683 324.73923 
L 431.657862 158.642734 
L 432.019042 105.071296 
L 432.380221 110.687002 
L 432.7414 295.814384 
L 433.10258 86.803071 
L 433.463759 326.929108 
L 433.824939 70.792809 
L 434.186118 102.639071 
L 434.547297 247.810472 
L 434.908477 102.316986 
L 435.269656 57.997465 
L 435.992015 98.332914 
L 436.353194 105.764723 
L 436.714373 266.376238 
L 437.075553 223.469629 
L 437.436732 80.314028 
L 437.797912 103.95481 
L 438.159091 222.251768 
L 438.159091 222.251768 
" clip-path="url(#pdb14c4ee75)" style="fill: none; stroke: #708090; stroke-width: 1.5; stroke-linecap: square"/>
   </g>
   <g id="line2d_17">
    <path d="M 77.340909 299.542043 
L 77.702088 297.393045 
L 78.063268 291.283914 
L 78.424447 291.209068 
L 78.785627 289.547893 
L 79.869165 280.99916 
L 80.230344 275.100062 
L 80.952703 271.097186 
L 81.313882 270.030749 
L 82.036241 263.257656 
L 82.39742 262.229123 
L 82.7586 261.977503 
L 83.119779 258.744732 
L 83.480958 258.61142 
L 83.842138 257.521958 
L 84.203317 257.004302 
L 84.564496 256.030124 
L 84.925676 256.062968 
L 85.286855 255.151782 
L 85.648034 257.909627 
L 86.009214 257.115579 
L 86.370393 257.347783 
L 87.092752 251.618024 
L 87.453931 251.331172 
L 87.815111 252.064804 
L 88.17629 251.604088 
L 88.537469 250.698264 
L 88.898649 247.628014 
L 89.259828 249.259386 
L 89.621007 250.057874 
L 89.982187 251.559796 
L 90.343366 248.833192 
L 91.065725 247.022348 
L 91.426904 246.423593 
L 91.788084 244.252767 
L 92.149263 244.244479 
L 92.510442 245.055905 
L 92.871622 246.304828 
L 93.232801 246.666105 
L 93.59398 247.88557 
L 94.316339 246.938974 
L 94.677518 246.987755 
L 95.038698 244.344771 
L 95.399877 243.788071 
L 95.761057 243.73978 
L 96.122236 243.030419 
L 96.483415 243.155481 
L 96.844595 241.370016 
L 97.566953 242.174653 
L 97.928133 243.857629 
L 98.289312 243.865442 
L 98.650491 246.033262 
L 99.37285 242.304031 
L 99.734029 243.351282 
L 100.095209 243.64631 
L 100.456388 242.683441 
L 100.817568 241.322041 
L 101.178747 242.429466 
L 101.539926 242.59721 
L 101.901106 240.980384 
L 102.262285 239.882487 
L 102.623464 239.866869 
L 102.984644 241.500613 
L 103.345823 242.044064 
L 103.707002 241.299751 
L 104.068182 240.119963 
L 104.429361 239.95261 
L 104.790541 237.692098 
L 105.15172 239.600036 
L 105.512899 239.642588 
L 105.874079 238.11388 
L 106.235258 238.113462 
L 106.596437 240.746653 
L 106.957617 239.671214 
L 107.318796 236.4137 
L 107.679975 236.386433 
L 108.041155 233.322449 
L 108.763514 233.868604 
L 109.124693 232.486056 
L 109.485872 231.949846 
L 109.847052 233.412771 
L 110.208231 233.185702 
L 110.93059 229.033641 
L 111.291769 228.91265 
L 111.652948 228.287862 
L 112.014128 228.776988 
L 112.375307 227.660314 
L 112.736486 228.349532 
L 113.097666 229.569204 
L 113.458845 229.729175 
L 113.820025 228.086404 
L 114.181204 227.959688 
L 114.542383 227.087779 
L 114.903563 228.82228 
L 115.264742 226.866068 
L 115.625921 226.764099 
L 115.987101 226.447851 
L 116.34828 226.616076 
L 116.709459 222.335767 
L 117.431818 226.191464 
L 118.154177 222.048999 
L 118.515356 228.300296 
L 118.876536 227.839322 
L 119.237715 225.689218 
L 119.960074 224.389164 
L 120.682432 225.824347 
L 121.043612 223.971188 
L 121.404791 222.931801 
L 121.765971 219.916257 
L 122.12715 220.681945 
L 122.488329 219.912985 
L 122.849509 221.846053 
L 123.210688 220.316963 
L 123.571867 217.563557 
L 123.933047 218.500341 
L 124.294226 218.691066 
L 124.655405 216.389485 
L 125.016585 216.985145 
L 125.377764 219.449334 
L 125.738943 216.556811 
L 126.100123 217.166075 
L 126.461302 218.686436 
L 126.822482 222.945505 
L 127.183661 224.067527 
L 127.54484 223.411488 
L 127.90602 223.91395 
L 128.267199 222.108172 
L 128.628378 222.900554 
L 128.989558 222.785864 
L 129.711916 218.84943 
L 130.073096 217.128905 
L 130.434275 216.910546 
L 130.795455 214.318238 
L 131.156634 214.104072 
L 131.517813 214.147451 
L 131.878993 215.856794 
L 132.240172 216.049053 
L 132.601351 215.981627 
L 133.32371 214.501648 
L 133.684889 211.99758 
L 134.046069 211.097631 
L 134.768428 211.362987 
L 135.490786 207.198286 
L 136.213145 205.641394 
L 136.574324 199.720654 
L 137.296683 197.334125 
L 137.657862 196.068589 
L 138.019042 196.49647 
L 138.380221 194.861345 
L 138.7414 194.774266 
L 139.463759 190.761459 
L 139.824939 191.671439 
L 140.908477 187.710263 
L 141.269656 185.681131 
L 141.630835 187.368957 
L 141.992015 185.423665 
L 142.353194 184.214557 
L 142.714373 184.100586 
L 143.075553 184.195943 
L 143.436732 182.130951 
L 143.797912 183.282771 
L 144.159091 182.443648 
L 144.52027 180.227976 
L 144.88145 173.506352 
L 145.242629 172.651552 
L 145.603808 172.67607 
L 145.964988 170.383403 
L 146.326167 171.404573 
L 147.048526 169.612882 
L 147.409705 169.721226 
L 147.770885 169.125522 
L 148.132064 168.966145 
L 148.493243 170.459258 
L 148.854423 170.281054 
L 149.215602 171.10366 
L 150.29914 165.049045 
L 150.660319 164.080549 
L 151.021499 162.499345 
L 151.382678 162.885554 
L 151.743857 163.108892 
L 152.105037 162.353842 
L 152.466216 161.085277 
L 152.827396 161.108113 
L 153.188575 160.387939 
L 153.549754 161.985598 
L 153.910934 167.34707 
L 154.272113 169.268002 
L 154.633292 167.802446 
L 154.994472 169.179566 
L 155.355651 169.613574 
L 155.71683 171.289904 
L 156.439189 171.688005 
L 156.800369 169.079376 
L 157.522727 171.45275 
L 157.883907 173.406829 
L 158.245086 173.311667 
L 158.606265 174.600689 
L 159.328624 174.572267 
L 159.689803 173.867132 
L 160.050983 175.555473 
L 160.773342 174.402387 
L 161.134521 174.936716 
L 161.4957 174.864514 
L 161.85688 175.676361 
L 162.218059 175.019081 
L 162.579238 174.978948 
L 162.940418 178.076124 
L 163.301597 177.360379 
L 163.662776 177.244148 
L 164.023956 177.493474 
L 164.746314 179.291042 
L 165.107494 179.277455 
L 165.468673 179.137685 
L 165.829853 178.84194 
L 166.191032 181.490331 
L 166.552211 180.872978 
L 166.913391 180.936295 
L 167.27457 181.816143 
L 167.635749 182.129881 
L 167.996929 184.054392 
L 168.358108 184.973509 
L 168.719287 185.390698 
L 169.080467 185.323249 
L 169.441646 185.562589 
L 169.802826 187.574638 
L 170.164005 187.455488 
L 170.525184 188.087768 
L 170.886364 187.537744 
L 171.247543 187.979003 
L 171.608722 186.860528 
L 171.969902 181.584705 
L 172.331081 180.05622 
L 173.05344 180.455572 
L 173.414619 180.111027 
L 173.775799 179.350245 
L 174.136978 180.807688 
L 174.498157 181.07768 
L 174.859337 182.81982 
L 175.220516 182.469873 
L 175.581695 181.470351 
L 175.942875 178.798822 
L 176.304054 179.78392 
L 176.665233 178.797666 
L 177.387592 179.721503 
L 177.748771 179.684194 
L 178.109951 178.317346 
L 178.47113 179.249956 
L 178.83231 178.773708 
L 179.554668 176.352776 
L 179.915848 174.251333 
L 180.277027 174.21112 
L 180.638206 176.417733 
L 180.999386 176.686616 
L 181.360565 178.808135 
L 181.721744 181.763222 
L 182.082924 181.470123 
L 182.805283 178.171778 
L 183.166462 179.407339 
L 183.527641 179.116552 
L 183.888821 181.335904 
L 184.25 179.12287 
L 184.972359 179.557938 
L 185.333538 178.39356 
L 185.694717 178.51293 
L 186.417076 172.856068 
L 186.778256 172.807288 
L 187.139435 172.911381 
L 187.500614 172.485648 
L 187.861794 170.26684 
L 188.222973 171.094951 
L 188.584152 170.131805 
L 188.945332 171.31226 
L 190.02887 172.968742 
L 190.390049 172.71974 
L 190.751229 173.778834 
L 191.112408 172.097789 
L 191.473587 171.973305 
L 192.195946 168.443764 
L 192.557125 167.993643 
L 192.918305 168.914002 
L 193.279484 169.402104 
L 193.640663 169.443396 
L 194.001843 170.028727 
L 194.363022 169.081374 
L 195.085381 168.162291 
L 195.44656 168.398928 
L 195.80774 168.93347 
L 196.530098 167.419047 
L 196.891278 165.961201 
L 197.252457 165.090304 
L 197.613636 165.323907 
L 198.335995 166.882427 
L 198.697174 165.644949 
L 199.058354 165.089249 
L 199.419533 165.993022 
L 199.780713 162.833387 
L 200.503071 160.511739 
L 200.864251 161.409295 
L 201.22543 161.028802 
L 201.586609 160.03158 
L 201.947789 156.678039 
L 202.308968 157.705395 
L 202.670147 156.816511 
L 203.031327 159.063533 
L 203.392506 157.520392 
L 203.753686 158.760502 
L 204.476044 170.065504 
L 204.837224 169.419406 
L 205.198403 169.016816 
L 205.920762 170.073942 
L 206.281941 171.68618 
L 206.64312 170.440429 
L 207.0043 171.428392 
L 207.365479 173.90825 
L 207.726658 173.230353 
L 208.087838 174.665791 
L 208.449017 175.146412 
L 209.171376 175.78956 
L 209.532555 178.204175 
L 209.893735 177.781644 
L 210.254914 176.733752 
L 210.616093 178.928607 
L 210.977273 178.974612 
L 211.338452 178.2956 
L 211.699631 177.22212 
L 212.060811 179.364036 
L 212.42199 177.825689 
L 213.144349 179.242296 
L 213.866708 184.604294 
L 214.227887 188.665043 
L 214.589066 190.417408 
L 214.950246 194.050189 
L 215.311425 192.719963 
L 215.672604 195.451478 
L 216.033784 195.06307 
L 216.394963 195.590117 
L 216.756143 197.070878 
L 217.117322 196.140776 
L 217.478501 194.545883 
L 217.839681 195.094036 
L 218.20086 196.014587 
L 218.562039 196.591227 
L 218.923219 196.434353 
L 219.284398 196.796234 
L 219.645577 198.973611 
L 220.006757 199.72769 
L 220.367936 196.409666 
L 220.729115 195.32839 
L 221.090295 191.856214 
L 221.451474 192.333789 
L 221.812654 190.581018 
L 222.173833 187.098845 
L 222.535012 182.204369 
L 222.896192 182.334079 
L 223.257371 182.190584 
L 223.61855 183.221705 
L 223.97973 186.788694 
L 224.340909 186.002332 
L 224.702088 188.372199 
L 225.424447 181.859777 
L 225.785627 182.958425 
L 226.146806 181.149583 
L 226.507985 184.641242 
L 226.869165 183.224409 
L 227.230344 184.577421 
L 227.591523 183.245082 
L 227.952703 183.899448 
L 228.313882 187.88341 
L 229.036241 183.014217 
L 229.7586 185.136533 
L 230.480958 189.198878 
L 230.842138 189.733908 
L 231.203317 187.589012 
L 231.564496 189.440828 
L 231.925676 187.213433 
L 232.286855 183.35224 
L 232.648034 181.641903 
L 233.009214 178.348408 
L 233.370393 178.935126 
L 233.731572 180.081572 
L 234.092752 183.832685 
L 234.453931 183.249855 
L 234.815111 184.044133 
L 235.17629 184.060874 
L 235.537469 188.35161 
L 235.898649 189.078746 
L 236.259828 190.733741 
L 236.982187 188.995495 
L 237.343366 189.249241 
L 237.704545 190.386505 
L 238.065725 194.088722 
L 238.788084 204.449171 
L 239.149263 206.717161 
L 239.510442 209.988049 
L 239.871622 211.078918 
L 240.232801 213.582323 
L 241.316339 227.068038 
L 241.677518 225.371664 
L 242.038698 222.027407 
L 242.399877 222.574087 
L 242.761057 221.654172 
L 243.483415 229.244128 
L 243.844595 227.573075 
L 244.205774 230.318705 
L 244.566953 231.983624 
L 244.928133 232.045632 
L 245.289312 233.542312 
L 245.650491 233.428979 
L 246.011671 235.086903 
L 246.37285 232.413159 
L 246.734029 236.625114 
L 247.095209 237.375102 
L 247.456388 236.473922 
L 247.817568 236.246908 
L 248.178747 235.505531 
L 248.539926 235.718517 
L 248.901106 233.442794 
L 249.262285 237.59797 
L 249.623464 235.353108 
L 250.345823 233.907545 
L 250.707002 233.921844 
L 251.068182 233.585749 
L 251.429361 234.138658 
L 252.15172 229.779632 
L 252.512899 233.908497 
L 253.235258 227.074904 
L 253.596437 227.499713 
L 254.318796 236.728954 
L 254.679975 237.64179 
L 255.041155 240.819912 
L 255.402334 241.864828 
L 256.124693 238.194127 
L 256.485872 233.710461 
L 256.847052 231.881975 
L 257.208231 233.199272 
L 257.93059 236.641716 
L 258.291769 243.161019 
L 258.652948 243.292591 
L 259.375307 236.373555 
L 259.736486 240.01864 
L 260.097666 242.12192 
L 260.458845 240.810048 
L 260.820025 246.155231 
L 261.181204 248.219949 
L 261.542383 246.583112 
L 261.903563 251.948939 
L 262.264742 251.971257 
L 262.625921 246.457099 
L 262.987101 250.721648 
L 263.34828 247.949943 
L 263.709459 252.070936 
L 264.070639 254.004427 
L 264.431818 253.319085 
L 264.792998 249.251635 
L 265.154177 248.121059 
L 265.515356 246.403918 
L 265.876536 245.921355 
L 266.237715 242.00818 
L 266.598894 242.049894 
L 266.960074 245.235403 
L 267.321253 246.156372 
L 267.682432 248.00255 
L 268.043612 245.43676 
L 268.404791 244.993769 
L 268.765971 244.267675 
L 269.488329 243.599496 
L 269.849509 241.597642 
L 270.210688 241.492489 
L 270.571867 235.919275 
L 270.933047 240.141451 
L 271.294226 240.405972 
L 271.655405 237.181785 
L 272.016585 229.899361 
L 272.377764 227.628277 
L 272.738943 232.194464 
L 273.100123 232.286066 
L 273.461302 234.015114 
L 273.822482 232.733793 
L 274.183661 230.922765 
L 274.54484 230.2633 
L 274.90602 227.954608 
L 275.267199 228.571714 
L 275.989558 222.578641 
L 276.350737 211.976214 
L 276.711916 207.179477 
L 277.073096 206.2541 
L 277.434275 204.670477 
L 277.795455 204.369476 
L 278.156634 204.373999 
L 278.517813 205.012779 
L 278.878993 197.703454 
L 279.240172 192.976698 
L 279.601351 193.257348 
L 279.962531 187.398034 
L 280.32371 183.837408 
L 281.407248 182.022419 
L 282.129607 172.742553 
L 282.490786 172.87783 
L 283.574324 185.361141 
L 283.935504 186.830904 
L 284.296683 192.237979 
L 284.657862 195.2155 
L 285.019042 194.450844 
L 285.380221 194.856372 
L 285.7414 194.329286 
L 286.10258 196.31018 
L 287.186118 211.119927 
L 287.547297 210.216567 
L 287.908477 214.655112 
L 288.269656 212.612727 
L 288.630835 213.438795 
L 288.992015 212.928872 
L 289.353194 215.944285 
L 289.714373 212.192226 
L 290.075553 212.729655 
L 290.797912 204.135441 
L 291.159091 204.480256 
L 291.52027 199.20733 
L 291.88145 200.01005 
L 292.242629 198.532575 
L 292.603808 202.524238 
L 292.964988 202.925989 
L 293.687346 193.416836 
L 294.409705 192.109992 
L 294.770885 191.484807 
L 295.132064 192.118446 
L 295.493243 193.275954 
L 295.854423 192.461063 
L 296.215602 189.425807 
L 296.576781 191.620464 
L 297.29914 201.661319 
L 297.660319 198.941224 
L 298.382678 208.105784 
L 298.743857 208.105058 
L 299.105037 202.344024 
L 299.466216 202.063492 
L 299.827396 200.656923 
L 300.188575 203.40299 
L 300.549754 207.938066 
L 300.910934 207.177193 
L 301.633292 198.620527 
L 301.994472 199.913855 
L 302.355651 198.529967 
L 302.71683 198.152471 
L 303.07801 195.126079 
L 303.439189 189.287047 
L 303.800369 188.631065 
L 304.161548 191.041594 
L 304.522727 189.679456 
L 304.883907 184.871097 
L 305.245086 183.677176 
L 305.606265 184.812259 
L 305.967445 179.936927 
L 306.689803 185.754508 
L 307.050983 186.717434 
L 307.773342 191.217601 
L 308.134521 189.425407 
L 308.4957 194.501964 
L 308.85688 194.459056 
L 309.218059 196.015538 
L 309.579238 200.450522 
L 309.940418 199.70296 
L 310.301597 204.290454 
L 310.662776 200.958398 
L 311.023956 205.405923 
L 312.107494 222.524576 
L 312.468673 226.128019 
L 312.829853 226.667551 
L 313.191032 226.607526 
L 313.552211 224.782305 
L 314.27457 231.27932 
L 314.635749 231.74144 
L 314.996929 230.391998 
L 315.358108 225.933568 
L 315.719287 232.997321 
L 316.441646 229.228181 
L 317.164005 237.784597 
L 317.886364 249.581529 
L 318.247543 250.305651 
L 318.969902 248.56061 
L 319.331081 252.576313 
L 320.414619 256.215315 
L 320.775799 255.688234 
L 321.136978 259.479043 
L 321.498157 264.5231 
L 321.859337 263.849794 
L 322.220516 260.313452 
L 322.581695 258.330314 
L 322.942875 260.894078 
L 323.304054 257.20076 
L 323.665233 261.732316 
L 324.026413 262.976479 
L 324.387592 262.815957 
L 324.748771 260.262843 
L 325.109951 258.714475 
L 325.47113 253.044941 
L 325.83231 252.42092 
L 326.193489 252.754383 
L 326.554668 247.25257 
L 326.915848 250.566893 
L 327.277027 244.178565 
L 327.638206 243.607052 
L 327.999386 249.27553 
L 328.360565 249.906514 
L 329.444103 246.146868 
L 329.805283 245.249729 
L 330.166462 241.410004 
L 330.527641 242.878772 
L 330.888821 242.321303 
L 331.25 245.375652 
L 331.611179 249.97688 
L 331.972359 248.574573 
L 332.333538 244.010143 
L 332.694717 243.448253 
L 333.055897 246.439376 
L 333.417076 245.072001 
L 333.778256 241.895387 
L 334.139435 243.004715 
L 334.500614 240.318245 
L 334.861794 240.602367 
L 335.222973 236.472161 
L 335.584152 234.206263 
L 335.945332 233.273833 
L 336.306511 230.165473 
L 336.66769 228.089667 
L 337.02887 225.251011 
L 337.390049 224.407764 
L 337.751229 227.370308 
L 338.112408 223.823316 
L 338.473587 222.198646 
L 338.834767 221.212265 
L 339.195946 222.564739 
L 339.557125 221.149502 
L 339.918305 221.374185 
L 340.279484 222.050225 
L 340.640663 223.517873 
L 341.001843 223.963461 
L 341.363022 225.882965 
L 341.724201 224.311029 
L 342.085381 228.437126 
L 342.44656 227.960883 
L 342.80774 231.17468 
L 343.168919 231.423376 
L 343.530098 235.827616 
L 343.891278 238.34292 
L 344.613636 247.102153 
L 344.974816 246.989458 
L 345.335995 252.1648 
L 345.697174 252.919009 
L 346.058354 251.141731 
L 346.419533 250.996084 
L 346.780713 255.284692 
L 347.141892 254.694075 
L 347.503071 254.371143 
L 347.864251 252.930834 
L 348.22543 257.609853 
L 348.586609 255.776073 
L 348.947789 259.942744 
L 349.308968 259.941573 
L 349.670147 258.199884 
L 350.031327 253.598236 
L 350.392506 257.184497 
L 350.753686 256.63018 
L 351.114865 253.797199 
L 351.476044 259.68646 
L 351.837224 259.208726 
L 352.198403 254.438158 
L 352.559582 258.484824 
L 352.920762 260.449359 
L 353.281941 264.67108 
L 354.0043 269.569814 
L 354.365479 273.124854 
L 354.726658 275.437612 
L 355.087838 281.617737 
L 355.449017 282.767825 
L 355.810197 283.538686 
L 356.171376 287.421154 
L 356.532555 287.069505 
L 356.893735 286.517971 
L 357.254914 286.314277 
L 357.977273 278.125029 
L 358.338452 281.488794 
L 358.699631 278.371708 
L 359.060811 278.229898 
L 359.42199 281.250382 
L 359.78317 276.757238 
L 360.144349 274.348084 
L 360.505528 275.189244 
L 360.866708 273.954598 
L 361.227887 276.67573 
L 361.589066 273.622942 
L 361.950246 271.822476 
L 362.311425 270.652259 
L 363.033784 269.281439 
L 363.394963 270.811317 
L 364.478501 269.658935 
L 364.839681 270.07276 
L 365.20086 274.602159 
L 365.562039 273.565135 
L 366.284398 270.54415 
L 366.645577 271.272784 
L 367.006757 271.470651 
L 367.367936 266.997003 
L 367.729115 267.251564 
L 368.090295 266.290629 
L 368.451474 267.64834 
L 368.812654 267.206343 
L 369.173833 267.811177 
L 369.535012 268.014908 
L 369.896192 265.173574 
L 370.257371 268.264487 
L 370.61855 264.495051 
L 370.97973 258.303171 
L 372.063268 247.594379 
L 372.424447 245.990356 
L 372.785627 244.956124 
L 373.507985 234.630466 
L 374.230344 226.134382 
L 374.591523 225.950928 
L 374.952703 223.802825 
L 375.313882 219.70119 
L 375.675061 221.068136 
L 376.036241 221.004793 
L 376.39742 217.05208 
L 376.7586 218.210324 
L 377.119779 215.602882 
L 377.480958 210.241751 
L 377.842138 211.086712 
L 378.203317 211.355021 
L 379.286855 200.139945 
L 379.648034 199.490714 
L 380.370393 194.799377 
L 380.731572 195.232577 
L 381.092752 197.015585 
L 381.453931 194.337787 
L 382.17629 186.071453 
L 382.537469 182.34405 
L 382.898649 181.772289 
L 383.259828 174.002154 
L 383.621007 169.854686 
L 383.982187 168.342097 
L 384.704545 161.838783 
L 385.426904 162.872475 
L 385.788084 159.672711 
L 386.149263 160.104403 
L 386.510442 154.479263 
L 386.871622 153.679443 
L 387.59398 146.864798 
L 387.95516 150.269567 
L 388.316339 151.392713 
L 388.677518 151.898666 
L 389.399877 159.111727 
L 389.761057 159.197038 
L 390.122236 157.329489 
L 390.483415 158.818586 
L 390.844595 156.076449 
L 391.205774 155.256917 
L 391.566953 159.687379 
L 391.928133 161.86634 
L 392.289312 163.029315 
L 392.650491 162.361539 
L 393.011671 161.315345 
L 393.37285 164.07417 
L 393.734029 168.011125 
L 394.095209 169.696908 
L 394.456388 170.395064 
L 394.817568 173.835758 
L 395.178747 172.963587 
L 395.539926 176.659921 
L 395.901106 177.20521 
L 396.262285 178.479268 
L 396.984644 186.574727 
L 397.345823 185.304106 
L 397.707002 185.789316 
L 398.429361 193.046912 
L 398.790541 193.338698 
L 399.15172 191.186019 
L 399.512899 192.228017 
L 400.596437 205.841809 
L 400.957617 206.87521 
L 401.318796 207.511554 
L 402.041155 209.454812 
L 402.402334 209.54406 
L 402.763514 209.132929 
L 403.124693 205.411134 
L 403.485872 206.569613 
L 403.847052 210.506908 
L 404.208231 211.133182 
L 404.56941 216.460313 
L 404.93059 217.357193 
L 405.291769 219.814995 
L 405.652948 219.955645 
L 406.014128 219.104786 
L 406.375307 218.981236 
L 406.736486 222.474397 
L 407.097666 221.721686 
L 407.820025 222.91456 
L 408.181204 226.033279 
L 408.542383 225.734049 
L 408.903563 225.998516 
L 409.264742 232.0852 
L 409.625921 231.929859 
L 410.34828 235.816897 
L 410.709459 236.018527 
L 411.070639 241.009841 
L 411.431818 244.23713 
L 411.792998 243.768132 
L 412.515356 248.420758 
L 412.876536 244.602519 
L 413.237715 248.069777 
L 413.960074 249.68927 
L 414.682432 241.390761 
L 415.043612 242.693435 
L 415.404791 241.391561 
L 415.765971 245.187644 
L 416.488329 237.233954 
L 416.849509 236.382612 
L 417.210688 233.397554 
L 417.933047 224.040241 
L 418.655405 215.335857 
L 419.016585 213.980882 
L 419.377764 215.619401 
L 419.738943 215.110326 
L 420.100123 215.165046 
L 420.461302 217.749905 
L 420.461302 217.749905 
" clip-path="url(#pdb14c4ee75)" style="fill: none; stroke: #000080; stroke-width: 1.5; stroke-linecap: square"/>
   </g>
   <g id="line2d_18">
    <path d="M 59.3 90.65 
L 456.2 90.65 
" clip-path="url(#pdb14c4ee75)" style="fill: none; stroke-dasharray: 5.55,2.4; stroke-dashoffset: 0; stroke: #008000; stroke-width: 1.5"/>
   </g>
   <g id="patch_3">
    <path d="M 59.3 318.2 
L 59.3 14.8 
" style="fill: none; stroke: #000000; stroke-width: 0.8; stroke-linejoin: miter; stroke-linecap: square"/>
   </g>
   <g id="patch_4">
    <path d="M 456.2 318.2 
L 456.2 14.8 
" style="fill: none; stroke: #000000; stroke-width: 0.8; stroke-linejoin: miter; stroke-linecap: square"/>
   </g>
   <g id="patch_5">
    <path d="M 59.3 318.2 
L 456.2 318.2 
" style="fill: none; stroke: #000000; stroke-width: 0.8; stroke-linejoin: miter; stroke-linecap: square"/>
   </g>
   <g id="patch_6">
    <path d="M 59.3 14.8 
L 456.2 14.8 
" style="fill: none; stroke: #000000; stroke-width: 0.8; stroke-linejoin: miter; stroke-linecap: square"/>
   </g>
   <g id="legend_1">
    <g id="patch_7">
     <path d="M 66.3 66.834375 
L 226.61875 66.834375 
Q 228.61875 66.834375 228.61875 64.834375 
L 228.61875 21.8 
Q 228.61875 19.8 226.61875 19.8 
L 66.3 19.8 
Q 64.3 19.8 64.3 21.8 
L 64.3 64.834375 
Q 64.3 66.834375 66.3 66.834375 
z
" style="fill: #ffffff; opacity: 0.8; stroke: #cccccc; stroke-linejoin: miter"/>
    </g>
    <g id="line2d_19">
     <path d="M 68.3 27.898438 
L 78.3 27.898438 
L 88.3 27.898438 
" style="fill: none; stroke: #708090; stroke-width: 1.5; stroke-linecap: square"/>
    </g>
    <g id="text_18">
     <!-- Episodes score -->
     <g transform="translate(96.3 31.398438)scale(0.1 -0.1)">
      <defs>
       <path id="DejaVuSans-20" transform="scale(0.015625)"/>
      </defs>
      <use xlink:href="#DejaVuSans-45"/>
      <use xlink:href="#DejaVuSans-70" x="63.183594"/>
      <use xlink:href="#DejaVuSans-69" x="126.660156"/>
      <use xlink:href="#DejaVuSans-73" x="154.443359"/>
      <use xlink:href="#DejaVuSans-6f" x="206.542969"/>
      <use xlink:href="#DejaVuSans-64" x="267.724609"/>
      <use xlink:href="#DejaVuSans-65" x="331.201172"/>
      <use xlink:href="#DejaVuSans-73" x="392.724609"/>
      <use xlink:href="#DejaVuSans-20" x="444.824219"/>
      <use xlink:href="#DejaVuSans-73" x="476.611328"/>
      <use xlink:href="#DejaVuSans-63" x="528.710938"/>
      <use xlink:href="#DejaVuSans-6f" x="583.691406"/>
      <use xlink:href="#DejaVuSans-72" x="644.873047"/>
      <use xlink:href="#DejaVuSans-65" x="683.736328"/>
     </g>
    </g>
    <g id="line2d_20">
     <path d="M 68.3 42.576563 
L 78.3 42.576563 
L 88.3 42.576563 
" style="fill: none; stroke: #000080; stroke-width: 1.5; stroke-linecap: square"/>
    </g>
    <g id="text_19">
     <!-- Moving average of scores -->
     <g transform="translate(96.3 46.076563)scale(0.1 -0.1)">
      <defs>
       <path id="DejaVuSans-4d" d="M 628 4666 
L 1569 4666 
L 2759 1491 
L 3956 4666 
L 4897 4666 
L 4897 0 
L 4281 0 
L 4281 4097 
L 3078 897 
L 2444 897 
L 1241 4097 
L 1241 0 
L 628 0 
L 628 4666 
z
" transform="scale(0.015625)"/>
       <path id="DejaVuSans-76" d="M 191 3500 
L 800 3500 
L 1894 563 
L 2988 3500 
L 3597 3500 
L 2284 0 
L 1503 0 
L 191 3500 
z
" transform="scale(0.015625)"/>
       <path id="DejaVuSans-6e" d="M 3513 2113 
L 3513 0 
L 2938 0 
L 2938 2094 
Q 2938 2591 2744 2837 
Q 2550 3084 2163 3084 
Q 1697 3084 1428 2787 
Q 1159 2491 1159 1978 
L 1159 0 
L 581 0 
L 581 3500 
L 1159 3500 
L 1159 2956 
Q 1366 3272 1645 3428 
Q 1925 3584 2291 3584 
Q 2894 3584 3203 3211 
Q 3513 2838 3513 2113 
z
" transform="scale(0.015625)"/>
       <path id="DejaVuSans-67" d="M 2906 1791 
Q 2906 2416 2648 2759 
Q 2391 3103 1925 3103 
Q 1463 3103 1205 2759 
Q 947 2416 947 1791 
Q 947 1169 1205 825 
Q 1463 481 1925 481 
Q 2391 481 2648 825 
Q 2906 1169 2906 1791 
z
M 3481 434 
Q 3481 -459 3084 -895 
Q 2688 -1331 1869 -1331 
Q 1566 -1331 1297 -1286 
Q 1028 -1241 775 -1147 
L 775 -588 
Q 1028 -725 1275 -790 
Q 1522 -856 1778 -856 
Q 2344 -856 2625 -561 
Q 2906 -266 2906 331 
L 2906 616 
Q 2728 306 2450 153 
Q 2172 0 1784 0 
Q 1141 0 747 490 
Q 353 981 353 1791 
Q 353 2603 747 3093 
Q 1141 3584 1784 3584 
Q 2172 3584 2450 3431 
Q 2728 3278 2906 2969 
L 2906 3500 
L 3481 3500 
L 3481 434 
z
" transform="scale(0.015625)"/>
       <path id="DejaVuSans-61" d="M 2194 1759 
Q 1497 1759 1228 1600 
Q 959 1441 959 1056 
Q 959 750 1161 570 
Q 1363 391 1709 391 
Q 2188 391 2477 730 
Q 2766 1069 2766 1631 
L 2766 1759 
L 2194 1759 
z
M 3341 1997 
L 3341 0 
L 2766 0 
L 2766 531 
Q 2569 213 2275 61 
Q 1981 -91 1556 -91 
Q 1019 -91 701 211 
Q 384 513 384 1019 
Q 384 1609 779 1909 
Q 1175 2209 1959 2209 
L 2766 2209 
L 2766 2266 
Q 2766 2663 2505 2880 
Q 2244 3097 1772 3097 
Q 1472 3097 1187 3025 
Q 903 2953 641 2809 
L 641 3341 
Q 956 3463 1253 3523 
Q 1550 3584 1831 3584 
Q 2591 3584 2966 3190 
Q 3341 2797 3341 1997 
z
" transform="scale(0.015625)"/>
       <path id="DejaVuSans-66" d="M 2375 4863 
L 2375 4384 
L 1825 4384 
Q 1516 4384 1395 4259 
Q 1275 4134 1275 3809 
L 1275 3500 
L 2222 3500 
L 2222 3053 
L 1275 3053 
L 1275 0 
L 697 0 
L 697 3053 
L 147 3053 
L 147 3500 
L 697 3500 
L 697 3744 
Q 697 4328 969 4595 
Q 1241 4863 1831 4863 
L 2375 4863 
z
" transform="scale(0.015625)"/>
      </defs>
      <use xlink:href="#DejaVuSans-4d"/>
      <use xlink:href="#DejaVuSans-6f" x="86.279297"/>
      <use xlink:href="#DejaVuSans-76" x="147.460938"/>
      <use xlink:href="#DejaVuSans-69" x="206.640625"/>
      <use xlink:href="#DejaVuSans-6e" x="234.423828"/>
      <use xlink:href="#DejaVuSans-67" x="297.802734"/>
      <use xlink:href="#DejaVuSans-20" x="361.279297"/>
      <use xlink:href="#DejaVuSans-61" x="393.066406"/>
      <use xlink:href="#DejaVuSans-76" x="454.345703"/>
      <use xlink:href="#DejaVuSans-65" x="513.525391"/>
      <use xlink:href="#DejaVuSans-72" x="575.048828"/>
      <use xlink:href="#DejaVuSans-61" x="616.162109"/>
      <use xlink:href="#DejaVuSans-67" x="677.441406"/>
      <use xlink:href="#DejaVuSans-65" x="740.917969"/>
      <use xlink:href="#DejaVuSans-20" x="802.441406"/>
      <use xlink:href="#DejaVuSans-6f" x="834.228516"/>
      <use xlink:href="#DejaVuSans-66" x="895.410156"/>
      <use xlink:href="#DejaVuSans-20" x="930.615234"/>
      <use xlink:href="#DejaVuSans-73" x="962.402344"/>
      <use xlink:href="#DejaVuSans-63" x="1014.501953"/>
      <use xlink:href="#DejaVuSans-6f" x="1069.482422"/>
      <use xlink:href="#DejaVuSans-72" x="1130.664062"/>
      <use xlink:href="#DejaVuSans-65" x="1169.527344"/>
      <use xlink:href="#DejaVuSans-73" x="1231.050781"/>
     </g>
    </g>
    <g id="line2d_21">
     <path d="M 68.3 57.254687 
L 78.3 57.254687 
L 88.3 57.254687 
" style="fill: none; stroke-dasharray: 5.55,2.4; stroke-dashoffset: 0; stroke: #008000; stroke-width: 1.5"/>
    </g>
    <g id="text_20">
     <!-- Game Solved -->
     <g transform="translate(96.3 60.754687)scale(0.1 -0.1)">
      <defs>
       <path id="DejaVuSans-47" d="M 3809 666 
L 3809 1919 
L 2778 1919 
L 2778 2438 
L 4434 2438 
L 4434 434 
Q 4069 175 3628 42 
Q 3188 -91 2688 -91 
Q 1594 -91 976 548 
Q 359 1188 359 2328 
Q 359 3472 976 4111 
Q 1594 4750 2688 4750 
Q 3144 4750 3555 4637 
Q 3966 4525 4313 4306 
L 4313 3634 
Q 3963 3931 3569 4081 
Q 3175 4231 2741 4231 
Q 1884 4231 1454 3753 
Q 1025 3275 1025 2328 
Q 1025 1384 1454 906 
Q 1884 428 2741 428 
Q 3075 428 3337 486 
Q 3600 544 3809 666 
z
" transform="scale(0.015625)"/>
       <path id="DejaVuSans-6d" d="M 3328 2828 
Q 3544 3216 3844 3400 
Q 4144 3584 4550 3584 
Q 5097 3584 5394 3201 
Q 5691 2819 5691 2113 
L 5691 0 
L 5113 0 
L 5113 2094 
Q 5113 2597 4934 2840 
Q 4756 3084 4391 3084 
Q 3944 3084 3684 2787 
Q 3425 2491 3425 1978 
L 3425 0 
L 2847 0 
L 2847 2094 
Q 2847 2600 2669 2842 
Q 2491 3084 2119 3084 
Q 1678 3084 1418 2786 
Q 1159 2488 1159 1978 
L 1159 0 
L 581 0 
L 581 3500 
L 1159 3500 
L 1159 2956 
Q 1356 3278 1631 3431 
Q 1906 3584 2284 3584 
Q 2666 3584 2933 3390 
Q 3200 3197 3328 2828 
z
" transform="scale(0.015625)"/>
       <path id="DejaVuSans-6c" d="M 603 4863 
L 1178 4863 
L 1178 0 
L 603 0 
L 603 4863 
z
" transform="scale(0.015625)"/>
      </defs>
      <use xlink:href="#DejaVuSans-47"/>
      <use xlink:href="#DejaVuSans-61" x="77.490234"/>
      <use xlink:href="#DejaVuSans-6d" x="138.769531"/>
      <use xlink:href="#DejaVuSans-65" x="236.181641"/>
      <use xlink:href="#DejaVuSans-20" x="297.705078"/>
      <use xlink:href="#DejaVuSans-53" x="329.492188"/>
      <use xlink:href="#DejaVuSans-6f" x="392.96875"/>
      <use xlink:href="#DejaVuSans-6c" x="454.150391"/>
      <use xlink:href="#DejaVuSans-76" x="481.933594"/>
      <use xlink:href="#DejaVuSans-65" x="541.113281"/>
      <use xlink:href="#DejaVuSans-64" x="602.636719"/>
     </g>
    </g>
   </g>
  </g>
  <g id="axes_2">
   <g id="matplotlib.axis_3">
    <g id="ytick_10">
     <g id="line2d_22">
      <defs>
       <path id="m661eedabe2" d="M 0 0 
L 3.5 0 
" style="stroke: #000000; stroke-width: 0.8"/>
      </defs>
      <g>
       <use xlink:href="#m661eedabe2" x="456.2" y="304.790471" style="stroke: #000000; stroke-width: 0.8"/>
      </g>
     </g>
     <g id="text_21">
      <!-- 0.0 -->
      <g transform="translate(463.2 308.58969)scale(0.1 -0.1)">
       <defs>
        <path id="DejaVuSans-2e" d="M 684 794 
L 1344 794 
L 1344 0 
L 684 0 
L 684 794 
z
" transform="scale(0.015625)"/>
       </defs>
       <use xlink:href="#DejaVuSans-30"/>
       <use xlink:href="#DejaVuSans-2e" x="63.623047"/>
       <use xlink:href="#DejaVuSans-30" x="95.410156"/>
      </g>
     </g>
    </g>
    <g id="ytick_11">
     <g id="line2d_23">
      <g>
       <use xlink:href="#m661eedabe2" x="456.2" y="258.757211" style="stroke: #000000; stroke-width: 0.8"/>
      </g>
     </g>
     <g id="text_22">
      <!-- 0.5 -->
      <g transform="translate(463.2 262.55643)scale(0.1 -0.1)">
       <use xlink:href="#DejaVuSans-30"/>
       <use xlink:href="#DejaVuSans-2e" x="63.623047"/>
       <use xlink:href="#DejaVuSans-35" x="95.410156"/>
      </g>
     </g>
    </g>
    <g id="ytick_12">
     <g id="line2d_24">
      <g>
       <use xlink:href="#m661eedabe2" x="456.2" y="212.72395" style="stroke: #000000; stroke-width: 0.8"/>
      </g>
     </g>
     <g id="text_23">
      <!-- 1.0 -->
      <g transform="translate(463.2 216.523169)scale(0.1 -0.1)">
       <use xlink:href="#DejaVuSans-31"/>
       <use xlink:href="#DejaVuSans-2e" x="63.623047"/>
       <use xlink:href="#DejaVuSans-30" x="95.410156"/>
      </g>
     </g>
    </g>
    <g id="ytick_13">
     <g id="line2d_25">
      <g>
       <use xlink:href="#m661eedabe2" x="456.2" y="166.69069" style="stroke: #000000; stroke-width: 0.8"/>
      </g>
     </g>
     <g id="text_24">
      <!-- 1.5 -->
      <g transform="translate(463.2 170.489909)scale(0.1 -0.1)">
       <use xlink:href="#DejaVuSans-31"/>
       <use xlink:href="#DejaVuSans-2e" x="63.623047"/>
       <use xlink:href="#DejaVuSans-35" x="95.410156"/>
      </g>
     </g>
    </g>
    <g id="ytick_14">
     <g id="line2d_26">
      <g>
       <use xlink:href="#m661eedabe2" x="456.2" y="120.65743" style="stroke: #000000; stroke-width: 0.8"/>
      </g>
     </g>
     <g id="text_25">
      <!-- 2.0 -->
      <g transform="translate(463.2 124.456649)scale(0.1 -0.1)">
       <use xlink:href="#DejaVuSans-32"/>
       <use xlink:href="#DejaVuSans-2e" x="63.623047"/>
       <use xlink:href="#DejaVuSans-30" x="95.410156"/>
      </g>
     </g>
    </g>
    <g id="ytick_15">
     <g id="line2d_27">
      <g>
       <use xlink:href="#m661eedabe2" x="456.2" y="74.624169" style="stroke: #000000; stroke-width: 0.8"/>
      </g>
     </g>
     <g id="text_26">
      <!-- 2.5 -->
      <g transform="translate(463.2 78.423388)scale(0.1 -0.1)">
       <use xlink:href="#DejaVuSans-32"/>
       <use xlink:href="#DejaVuSans-2e" x="63.623047"/>
       <use xlink:href="#DejaVuSans-35" x="95.410156"/>
      </g>
     </g>
    </g>
    <g id="ytick_16">
     <g id="line2d_28">
      <g>
       <use xlink:href="#m661eedabe2" x="456.2" y="28.590909" style="stroke: #000000; stroke-width: 0.8"/>
      </g>
     </g>
     <g id="text_27">
      <!-- 3.0 -->
      <g transform="translate(463.2 32.390128)scale(0.1 -0.1)">
       <use xlink:href="#DejaVuSans-33"/>
       <use xlink:href="#DejaVuSans-2e" x="63.623047"/>
       <use xlink:href="#DejaVuSans-30" x="95.410156"/>
      </g>
     </g>
    </g>
    <g id="text_28">
     <!-- Temperature -->
     <g transform="translate(490.701562 198.169531)rotate(-90)scale(0.1 -0.1)">
      <defs>
       <path id="DejaVuSans-54" d="M -19 4666 
L 3928 4666 
L 3928 4134 
L 2272 4134 
L 2272 0 
L 1638 0 
L 1638 4134 
L -19 4134 
L -19 4666 
z
" transform="scale(0.015625)"/>
       <path id="DejaVuSans-74" d="M 1172 4494 
L 1172 3500 
L 2356 3500 
L 2356 3053 
L 1172 3053 
L 1172 1153 
Q 1172 725 1289 603 
Q 1406 481 1766 481 
L 2356 481 
L 2356 0 
L 1766 0 
Q 1100 0 847 248 
Q 594 497 594 1153 
L 594 3053 
L 172 3053 
L 172 3500 
L 594 3500 
L 594 4494 
L 1172 4494 
z
" transform="scale(0.015625)"/>
       <path id="DejaVuSans-75" d="M 544 1381 
L 544 3500 
L 1119 3500 
L 1119 1403 
Q 1119 906 1312 657 
Q 1506 409 1894 409 
Q 2359 409 2629 706 
Q 2900 1003 2900 1516 
L 2900 3500 
L 3475 3500 
L 3475 0 
L 2900 0 
L 2900 538 
Q 2691 219 2414 64 
Q 2138 -91 1772 -91 
Q 1169 -91 856 284 
Q 544 659 544 1381 
z
M 1991 3584 
L 1991 3584 
z
" transform="scale(0.015625)"/>
      </defs>
      <use xlink:href="#DejaVuSans-54"/>
      <use xlink:href="#DejaVuSans-65" x="44.083984"/>
      <use xlink:href="#DejaVuSans-6d" x="105.607422"/>
      <use xlink:href="#DejaVuSans-70" x="203.019531"/>
      <use xlink:href="#DejaVuSans-65" x="266.496094"/>
      <use xlink:href="#DejaVuSans-72" x="328.019531"/>
      <use xlink:href="#DejaVuSans-61" x="369.132812"/>
      <use xlink:href="#DejaVuSans-74" x="430.412109"/>
      <use xlink:href="#DejaVuSans-75" x="469.621094"/>
      <use xlink:href="#DejaVuSans-72" x="533"/>
      <use xlink:href="#DejaVuSans-65" x="571.863281"/>
     </g>
    </g>
   </g>
   <g id="line2d_29">
    <path d="M 77.340909 28.590909 
L 80.952703 46.210007 
L 84.564496 62.705162 
L 88.17629 78.148071 
L 91.788084 92.605859 
L 95.399877 106.141368 
L 99.011671 118.81343 
L 102.623464 130.677126 
L 106.235258 141.784023 
L 109.847052 152.182398 
L 113.458845 161.917449 
L 117.070639 171.031488 
L 120.682432 179.564133 
L 124.294226 187.55247 
L 127.90602 195.031221 
L 131.517813 202.032894 
L 135.129607 208.587922 
L 138.7414 214.724797 
L 142.714373 221.024177 
L 146.687346 226.882965 
L 150.660319 232.331978 
L 154.633292 237.399876 
L 158.606265 242.113314 
L 162.579238 246.497084 
L 166.552211 250.574245 
L 170.886364 254.697527 
L 175.220516 258.507223 
L 179.554668 262.027183 
L 184.25 265.539027 
L 188.945332 268.762469 
L 193.640663 271.721193 
L 198.697174 274.63636 
L 203.753686 277.294545 
L 209.171376 279.883126 
L 214.589066 282.228007 
L 220.367936 284.486411 
L 226.507985 286.638804 
L 233.009214 288.66964 
L 239.871622 290.567327 
L 247.095209 292.324071 
L 254.679975 293.935623 
L 262.625921 295.400943 
L 271.294226 296.774829 
L 280.684889 298.037306 
L 291.159091 299.212346 
L 302.355651 300.243275 
L 314.996929 301.18013 
L 329.082924 301.998558 
L 345.335995 302.715179 
L 364.478501 303.3271 
L 387.232801 303.824414 
L 415.765971 304.216557 
L 438.159091 304.409091 
L 438.159091 304.409091 
" clip-path="url(#pdb14c4ee75)" style="fill: none; stroke: #ff0000; stroke-width: 1.5; stroke-linecap: square"/>
   </g>
   <g id="patch_8">
    <path d="M 59.3 318.2 
L 59.3 14.8 
" style="fill: none; stroke: #000000; stroke-width: 0.8; stroke-linejoin: miter; stroke-linecap: square"/>
   </g>
   <g id="patch_9">
    <path d="M 456.2 318.2 
L 456.2 14.8 
" style="fill: none; stroke: #000000; stroke-width: 0.8; stroke-linejoin: miter; stroke-linecap: square"/>
   </g>
   <g id="patch_10">
    <path d="M 59.3 318.2 
L 456.2 318.2 
" style="fill: none; stroke: #000000; stroke-width: 0.8; stroke-linejoin: miter; stroke-linecap: square"/>
   </g>
   <g id="patch_11">
    <path d="M 59.3 14.8 
L 456.2 14.8 
" style="fill: none; stroke: #000000; stroke-width: 0.8; stroke-linejoin: miter; stroke-linecap: square"/>
   </g>
   <g id="legend_2">
    <g id="patch_12">
     <path d="M 210.080469 37.478125 
L 305.419531 37.478125 
Q 307.419531 37.478125 307.419531 35.478125 
L 307.419531 21.8 
Q 307.419531 19.8 305.419531 19.8 
L 210.080469 19.8 
Q 208.080469 19.8 208.080469 21.8 
L 208.080469 35.478125 
Q 208.080469 37.478125 210.080469 37.478125 
z
" style="fill: #ffffff; opacity: 0.8; stroke: #cccccc; stroke-linejoin: miter"/>
    </g>
    <g id="line2d_30">
     <path d="M 212.080469 27.898438 
L 222.080469 27.898438 
L 232.080469 27.898438 
" style="fill: none; stroke: #ff0000; stroke-width: 1.5; stroke-linecap: square"/>
    </g>
    <g id="text_29">
     <!-- Temperature -->
     <g transform="translate(240.080469 31.398438)scale(0.1 -0.1)">
      <use xlink:href="#DejaVuSans-54"/>
      <use xlink:href="#DejaVuSans-65" x="44.083984"/>
      <use xlink:href="#DejaVuSans-6d" x="105.607422"/>
      <use xlink:href="#DejaVuSans-70" x="203.019531"/>
      <use xlink:href="#DejaVuSans-65" x="266.496094"/>
      <use xlink:href="#DejaVuSans-72" x="328.019531"/>
      <use xlink:href="#DejaVuSans-61" x="369.132812"/>
      <use xlink:href="#DejaVuSans-74" x="430.412109"/>
      <use xlink:href="#DejaVuSans-75" x="469.621094"/>
      <use xlink:href="#DejaVuSans-72" x="533"/>
      <use xlink:href="#DejaVuSans-65" x="571.863281"/>
     </g>
    </g>
   </g>
  </g>
 </g>
 <defs>
  <clipPath id="pdb14c4ee75">
   <rect x="59.3" y="14.8" width="396.9" height="303.4"/>
  </clipPath>
 </defs>
</svg>
