<?xml version="1.0" encoding="utf-8" standalone="no"?>
<!DOCTYPE svg PUBLIC "-//W3C//DTD SVG 1.1//EN"
  "http://www.w3.org/Graphics/SVG/1.1/DTD/svg11.dtd">
<svg xmlns:xlink="http://www.w3.org/1999/xlink" width="504pt" height="360pt" viewBox="0 0 504 360" xmlns="http://www.w3.org/2000/svg" version="1.1">
 <metadata>
  <rdf:RDF xmlns:dc="http://purl.org/dc/elements/1.1/" xmlns:cc="http://creativecommons.org/ns#" xmlns:rdf="http://www.w3.org/1999/02/22-rdf-syntax-ns#">
   <cc:Work>
    <dc:type rdf:resource="http://purl.org/dc/dcmitype/StillImage"/>
    <dc:date>2022-07-28T20:50:45.190193</dc:date>
    <dc:format>image/svg+xml</dc:format>
    <dc:creator>
     <cc:Agent>
      <dc:title>Matplotlib v3.5.1, https://matplotlib.org/</dc:title>
     </cc:Agent>
    </dc:creator>
   </cc:Work>
  </rdf:RDF>
 </metadata>
 <defs>
  <style type="text/css">*{stroke-linejoin: round; stroke-linecap: butt}</style>
 </defs>
 <g id="figure_1">
  <g id="patch_1">
   <path d="M 0 360 
L 504 360 
L 504 0 
L 0 0 
L 0 360 
z
" style="fill: none"/>
  </g>
  <g id="axes_1">
   <g id="patch_2">
    <path d="M 55.925 313.2 
L 460.825 313.2 
L 460.825 28.8 
L 55.925 28.8 
z
" style="fill: #ffffff"/>
   </g>
   <g id="matplotlib.axis_1">
    <g id="xtick_1">
     <g id="line2d_1">
      <defs>
       <path id="m7214037298" d="M 0 0 
L 0 3.5 
" style="stroke: #000000; stroke-width: 0.8"/>
      </defs>
      <g>
       <use xlink:href="#m7214037298" x="74.329545" y="313.2" style="stroke: #000000; stroke-width: 0.8"/>
      </g>
     </g>
     <g id="text_1">
      <!-- 0 -->
      <g transform="translate(71.148295 327.798437)scale(0.1 -0.1)">
       <defs>
        <path id="DejaVuSans-30" d="M 2034 4250 
Q 1547 4250 1301 3770 
Q 1056 3291 1056 2328 
Q 1056 1369 1301 889 
Q 1547 409 2034 409 
Q 2525 409 2770 889 
Q 3016 1369 3016 2328 
Q 3016 3291 2770 3770 
Q 2525 4250 2034 4250 
z
M 2034 4750 
Q 2819 4750 3233 4129 
Q 3647 3509 3647 2328 
Q 3647 1150 3233 529 
Q 2819 -91 2034 -91 
Q 1250 -91 836 529 
Q 422 1150 422 2328 
Q 422 3509 836 4129 
Q 1250 4750 2034 4750 
z
" transform="scale(0.015625)"/>
       </defs>
       <use xlink:href="#DejaVuSans-30"/>
      </g>
     </g>
    </g>
    <g id="xtick_2">
     <g id="line2d_2">
      <g>
       <use xlink:href="#m7214037298" x="148.021419" y="313.2" style="stroke: #000000; stroke-width: 0.8"/>
      </g>
     </g>
     <g id="text_2">
      <!-- 200 -->
      <g transform="translate(138.477669 327.798437)scale(0.1 -0.1)">
       <defs>
        <path id="DejaVuSans-32" d="M 1228 531 
L 3431 531 
L 3431 0 
L 469 0 
L 469 531 
Q 828 903 1448 1529 
Q 2069 2156 2228 2338 
Q 2531 2678 2651 2914 
Q 2772 3150 2772 3378 
Q 2772 3750 2511 3984 
Q 2250 4219 1831 4219 
Q 1534 4219 1204 4116 
Q 875 4013 500 3803 
L 500 4441 
Q 881 4594 1212 4672 
Q 1544 4750 1819 4750 
Q 2544 4750 2975 4387 
Q 3406 4025 3406 3419 
Q 3406 3131 3298 2873 
Q 3191 2616 2906 2266 
Q 2828 2175 2409 1742 
Q 1991 1309 1228 531 
z
" transform="scale(0.015625)"/>
       </defs>
       <use xlink:href="#DejaVuSans-32"/>
       <use xlink:href="#DejaVuSans-30" x="63.623047"/>
       <use xlink:href="#DejaVuSans-30" x="127.246094"/>
      </g>
     </g>
    </g>
    <g id="xtick_3">
     <g id="line2d_3">
      <g>
       <use xlink:href="#m7214037298" x="221.713293" y="313.2" style="stroke: #000000; stroke-width: 0.8"/>
      </g>
     </g>
     <g id="text_3">
      <!-- 400 -->
      <g transform="translate(212.169543 327.798437)scale(0.1 -0.1)">
       <defs>
        <path id="DejaVuSans-34" d="M 2419 4116 
L 825 1625 
L 2419 1625 
L 2419 4116 
z
M 2253 4666 
L 3047 4666 
L 3047 1625 
L 3713 1625 
L 3713 1100 
L 3047 1100 
L 3047 0 
L 2419 0 
L 2419 1100 
L 313 1100 
L 313 1709 
L 2253 4666 
z
" transform="scale(0.015625)"/>
       </defs>
       <use xlink:href="#DejaVuSans-34"/>
       <use xlink:href="#DejaVuSans-30" x="63.623047"/>
       <use xlink:href="#DejaVuSans-30" x="127.246094"/>
      </g>
     </g>
    </g>
    <g id="xtick_4">
     <g id="line2d_4">
      <g>
       <use xlink:href="#m7214037298" x="295.405167" y="313.2" style="stroke: #000000; stroke-width: 0.8"/>
      </g>
     </g>
     <g id="text_4">
      <!-- 600 -->
      <g transform="translate(285.861417 327.798437)scale(0.1 -0.1)">
       <defs>
        <path id="DejaVuSans-36" d="M 2113 2584 
Q 1688 2584 1439 2293 
Q 1191 2003 1191 1497 
Q 1191 994 1439 701 
Q 1688 409 2113 409 
Q 2538 409 2786 701 
Q 3034 994 3034 1497 
Q 3034 2003 2786 2293 
Q 2538 2584 2113 2584 
z
M 3366 4563 
L 3366 3988 
Q 3128 4100 2886 4159 
Q 2644 4219 2406 4219 
Q 1781 4219 1451 3797 
Q 1122 3375 1075 2522 
Q 1259 2794 1537 2939 
Q 1816 3084 2150 3084 
Q 2853 3084 3261 2657 
Q 3669 2231 3669 1497 
Q 3669 778 3244 343 
Q 2819 -91 2113 -91 
Q 1303 -91 875 529 
Q 447 1150 447 2328 
Q 447 3434 972 4092 
Q 1497 4750 2381 4750 
Q 2619 4750 2861 4703 
Q 3103 4656 3366 4563 
z
" transform="scale(0.015625)"/>
       </defs>
       <use xlink:href="#DejaVuSans-36"/>
       <use xlink:href="#DejaVuSans-30" x="63.623047"/>
       <use xlink:href="#DejaVuSans-30" x="127.246094"/>
      </g>
     </g>
    </g>
    <g id="xtick_5">
     <g id="line2d_5">
      <g>
       <use xlink:href="#m7214037298" x="369.09704" y="313.2" style="stroke: #000000; stroke-width: 0.8"/>
      </g>
     </g>
     <g id="text_5">
      <!-- 800 -->
      <g transform="translate(359.55329 327.798437)scale(0.1 -0.1)">
       <defs>
        <path id="DejaVuSans-38" d="M 2034 2216 
Q 1584 2216 1326 1975 
Q 1069 1734 1069 1313 
Q 1069 891 1326 650 
Q 1584 409 2034 409 
Q 2484 409 2743 651 
Q 3003 894 3003 1313 
Q 3003 1734 2745 1975 
Q 2488 2216 2034 2216 
z
M 1403 2484 
Q 997 2584 770 2862 
Q 544 3141 544 3541 
Q 544 4100 942 4425 
Q 1341 4750 2034 4750 
Q 2731 4750 3128 4425 
Q 3525 4100 3525 3541 
Q 3525 3141 3298 2862 
Q 3072 2584 2669 2484 
Q 3125 2378 3379 2068 
Q 3634 1759 3634 1313 
Q 3634 634 3220 271 
Q 2806 -91 2034 -91 
Q 1263 -91 848 271 
Q 434 634 434 1313 
Q 434 1759 690 2068 
Q 947 2378 1403 2484 
z
M 1172 3481 
Q 1172 3119 1398 2916 
Q 1625 2713 2034 2713 
Q 2441 2713 2670 2916 
Q 2900 3119 2900 3481 
Q 2900 3844 2670 4047 
Q 2441 4250 2034 4250 
Q 1625 4250 1398 4047 
Q 1172 3844 1172 3481 
z
" transform="scale(0.015625)"/>
       </defs>
       <use xlink:href="#DejaVuSans-38"/>
       <use xlink:href="#DejaVuSans-30" x="63.623047"/>
       <use xlink:href="#DejaVuSans-30" x="127.246094"/>
      </g>
     </g>
    </g>
    <g id="xtick_6">
     <g id="line2d_6">
      <g>
       <use xlink:href="#m7214037298" x="442.788914" y="313.2" style="stroke: #000000; stroke-width: 0.8"/>
      </g>
     </g>
     <g id="text_6">
      <!-- 1000 -->
      <g transform="translate(430.063914 327.798437)scale(0.1 -0.1)">
       <defs>
        <path id="DejaVuSans-31" d="M 794 531 
L 1825 531 
L 1825 4091 
L 703 3866 
L 703 4441 
L 1819 4666 
L 2450 4666 
L 2450 531 
L 3481 531 
L 3481 0 
L 794 0 
L 794 531 
z
" transform="scale(0.015625)"/>
       </defs>
       <use xlink:href="#DejaVuSans-31"/>
       <use xlink:href="#DejaVuSans-30" x="63.623047"/>
       <use xlink:href="#DejaVuSans-30" x="127.246094"/>
       <use xlink:href="#DejaVuSans-30" x="190.869141"/>
      </g>
     </g>
    </g>
    <g id="text_7">
     <!-- Episode -->
     <g transform="translate(228.91875 345.275781)scale(0.15 -0.15)">
      <defs>
       <path id="DejaVuSans-45" d="M 628 4666 
L 3578 4666 
L 3578 4134 
L 1259 4134 
L 1259 2753 
L 3481 2753 
L 3481 2222 
L 1259 2222 
L 1259 531 
L 3634 531 
L 3634 0 
L 628 0 
L 628 4666 
z
" transform="scale(0.015625)"/>
       <path id="DejaVuSans-70" d="M 1159 525 
L 1159 -1331 
L 581 -1331 
L 581 3500 
L 1159 3500 
L 1159 2969 
Q 1341 3281 1617 3432 
Q 1894 3584 2278 3584 
Q 2916 3584 3314 3078 
Q 3713 2572 3713 1747 
Q 3713 922 3314 415 
Q 2916 -91 2278 -91 
Q 1894 -91 1617 61 
Q 1341 213 1159 525 
z
M 3116 1747 
Q 3116 2381 2855 2742 
Q 2594 3103 2138 3103 
Q 1681 3103 1420 2742 
Q 1159 2381 1159 1747 
Q 1159 1113 1420 752 
Q 1681 391 2138 391 
Q 2594 391 2855 752 
Q 3116 1113 3116 1747 
z
" transform="scale(0.015625)"/>
       <path id="DejaVuSans-69" d="M 603 3500 
L 1178 3500 
L 1178 0 
L 603 0 
L 603 3500 
z
M 603 4863 
L 1178 4863 
L 1178 4134 
L 603 4134 
L 603 4863 
z
" transform="scale(0.015625)"/>
       <path id="DejaVuSans-73" d="M 2834 3397 
L 2834 2853 
Q 2591 2978 2328 3040 
Q 2066 3103 1784 3103 
Q 1356 3103 1142 2972 
Q 928 2841 928 2578 
Q 928 2378 1081 2264 
Q 1234 2150 1697 2047 
L 1894 2003 
Q 2506 1872 2764 1633 
Q 3022 1394 3022 966 
Q 3022 478 2636 193 
Q 2250 -91 1575 -91 
Q 1294 -91 989 -36 
Q 684 19 347 128 
L 347 722 
Q 666 556 975 473 
Q 1284 391 1588 391 
Q 1994 391 2212 530 
Q 2431 669 2431 922 
Q 2431 1156 2273 1281 
Q 2116 1406 1581 1522 
L 1381 1569 
Q 847 1681 609 1914 
Q 372 2147 372 2553 
Q 372 3047 722 3315 
Q 1072 3584 1716 3584 
Q 2034 3584 2315 3537 
Q 2597 3491 2834 3397 
z
" transform="scale(0.015625)"/>
       <path id="DejaVuSans-6f" d="M 1959 3097 
Q 1497 3097 1228 2736 
Q 959 2375 959 1747 
Q 959 1119 1226 758 
Q 1494 397 1959 397 
Q 2419 397 2687 759 
Q 2956 1122 2956 1747 
Q 2956 2369 2687 2733 
Q 2419 3097 1959 3097 
z
M 1959 3584 
Q 2709 3584 3137 3096 
Q 3566 2609 3566 1747 
Q 3566 888 3137 398 
Q 2709 -91 1959 -91 
Q 1206 -91 779 398 
Q 353 888 353 1747 
Q 353 2609 779 3096 
Q 1206 3584 1959 3584 
z
" transform="scale(0.015625)"/>
       <path id="DejaVuSans-64" d="M 2906 2969 
L 2906 4863 
L 3481 4863 
L 3481 0 
L 2906 0 
L 2906 525 
Q 2725 213 2448 61 
Q 2172 -91 1784 -91 
Q 1150 -91 751 415 
Q 353 922 353 1747 
Q 353 2572 751 3078 
Q 1150 3584 1784 3584 
Q 2172 3584 2448 3432 
Q 2725 3281 2906 2969 
z
M 947 1747 
Q 947 1113 1208 752 
Q 1469 391 1925 391 
Q 2381 391 2643 752 
Q 2906 1113 2906 1747 
Q 2906 2381 2643 2742 
Q 2381 3103 1925 3103 
Q 1469 3103 1208 2742 
Q 947 2381 947 1747 
z
" transform="scale(0.015625)"/>
       <path id="DejaVuSans-65" d="M 3597 1894 
L 3597 1613 
L 953 1613 
Q 991 1019 1311 708 
Q 1631 397 2203 397 
Q 2534 397 2845 478 
Q 3156 559 3463 722 
L 3463 178 
Q 3153 47 2828 -22 
Q 2503 -91 2169 -91 
Q 1331 -91 842 396 
Q 353 884 353 1716 
Q 353 2575 817 3079 
Q 1281 3584 2069 3584 
Q 2775 3584 3186 3129 
Q 3597 2675 3597 1894 
z
M 3022 2063 
Q 3016 2534 2758 2815 
Q 2500 3097 2075 3097 
Q 1594 3097 1305 2825 
Q 1016 2553 972 2059 
L 3022 2063 
z
" transform="scale(0.015625)"/>
      </defs>
      <use xlink:href="#DejaVuSans-45"/>
      <use xlink:href="#DejaVuSans-70" x="63.183594"/>
      <use xlink:href="#DejaVuSans-69" x="126.660156"/>
      <use xlink:href="#DejaVuSans-73" x="154.443359"/>
      <use xlink:href="#DejaVuSans-6f" x="206.542969"/>
      <use xlink:href="#DejaVuSans-64" x="267.724609"/>
      <use xlink:href="#DejaVuSans-65" x="331.201172"/>
     </g>
    </g>
   </g>
   <g id="matplotlib.axis_2">
    <g id="ytick_1">
     <g id="line2d_7">
      <defs>
       <path id="ma083813632" d="M 0 0 
L -3.5 0 
" style="stroke: #000000; stroke-width: 0.8"/>
      </defs>
      <g>
       <use xlink:href="#ma083813632" x="55.925" y="313.2" style="stroke: #000000; stroke-width: 0.8"/>
      </g>
     </g>
     <g id="text_8">
      <!-- 0 -->
      <g transform="translate(42.5625 316.999219)scale(0.1 -0.1)">
       <use xlink:href="#DejaVuSans-30"/>
      </g>
     </g>
    </g>
    <g id="ytick_2">
     <g id="line2d_8">
      <g>
       <use xlink:href="#ma083813632" x="55.925" y="269.446154" style="stroke: #000000; stroke-width: 0.8"/>
      </g>
     </g>
     <g id="text_9">
      <!-- 100 -->
      <g transform="translate(29.8375 273.245373)scale(0.1 -0.1)">
       <use xlink:href="#DejaVuSans-31"/>
       <use xlink:href="#DejaVuSans-30" x="63.623047"/>
       <use xlink:href="#DejaVuSans-30" x="127.246094"/>
      </g>
     </g>
    </g>
    <g id="ytick_3">
     <g id="line2d_9">
      <g>
       <use xlink:href="#ma083813632" x="55.925" y="225.692308" style="stroke: #000000; stroke-width: 0.8"/>
      </g>
     </g>
     <g id="text_10">
      <!-- 200 -->
      <g transform="translate(29.8375 229.491526)scale(0.1 -0.1)">
       <use xlink:href="#DejaVuSans-32"/>
       <use xlink:href="#DejaVuSans-30" x="63.623047"/>
       <use xlink:href="#DejaVuSans-30" x="127.246094"/>
      </g>
     </g>
    </g>
    <g id="ytick_4">
     <g id="line2d_10">
      <g>
       <use xlink:href="#ma083813632" x="55.925" y="181.938462" style="stroke: #000000; stroke-width: 0.8"/>
      </g>
     </g>
     <g id="text_11">
      <!-- 300 -->
      <g transform="translate(29.8375 185.73768)scale(0.1 -0.1)">
       <defs>
        <path id="DejaVuSans-33" d="M 2597 2516 
Q 3050 2419 3304 2112 
Q 3559 1806 3559 1356 
Q 3559 666 3084 287 
Q 2609 -91 1734 -91 
Q 1441 -91 1130 -33 
Q 819 25 488 141 
L 488 750 
Q 750 597 1062 519 
Q 1375 441 1716 441 
Q 2309 441 2620 675 
Q 2931 909 2931 1356 
Q 2931 1769 2642 2001 
Q 2353 2234 1838 2234 
L 1294 2234 
L 1294 2753 
L 1863 2753 
Q 2328 2753 2575 2939 
Q 2822 3125 2822 3475 
Q 2822 3834 2567 4026 
Q 2313 4219 1838 4219 
Q 1578 4219 1281 4162 
Q 984 4106 628 3988 
L 628 4550 
Q 988 4650 1302 4700 
Q 1616 4750 1894 4750 
Q 2613 4750 3031 4423 
Q 3450 4097 3450 3541 
Q 3450 3153 3228 2886 
Q 3006 2619 2597 2516 
z
" transform="scale(0.015625)"/>
       </defs>
       <use xlink:href="#DejaVuSans-33"/>
       <use xlink:href="#DejaVuSans-30" x="63.623047"/>
       <use xlink:href="#DejaVuSans-30" x="127.246094"/>
      </g>
     </g>
    </g>
    <g id="ytick_5">
     <g id="line2d_11">
      <g>
       <use xlink:href="#ma083813632" x="55.925" y="138.184615" style="stroke: #000000; stroke-width: 0.8"/>
      </g>
     </g>
     <g id="text_12">
      <!-- 400 -->
      <g transform="translate(29.8375 141.983834)scale(0.1 -0.1)">
       <use xlink:href="#DejaVuSans-34"/>
       <use xlink:href="#DejaVuSans-30" x="63.623047"/>
       <use xlink:href="#DejaVuSans-30" x="127.246094"/>
      </g>
     </g>
    </g>
    <g id="ytick_6">
     <g id="line2d_12">
      <g>
       <use xlink:href="#ma083813632" x="55.925" y="94.430769" style="stroke: #000000; stroke-width: 0.8"/>
      </g>
     </g>
     <g id="text_13">
      <!-- 500 -->
      <g transform="translate(29.8375 98.229988)scale(0.1 -0.1)">
       <defs>
        <path id="DejaVuSans-35" d="M 691 4666 
L 3169 4666 
L 3169 4134 
L 1269 4134 
L 1269 2991 
Q 1406 3038 1543 3061 
Q 1681 3084 1819 3084 
Q 2600 3084 3056 2656 
Q 3513 2228 3513 1497 
Q 3513 744 3044 326 
Q 2575 -91 1722 -91 
Q 1428 -91 1123 -41 
Q 819 9 494 109 
L 494 744 
Q 775 591 1075 516 
Q 1375 441 1709 441 
Q 2250 441 2565 725 
Q 2881 1009 2881 1497 
Q 2881 1984 2565 2268 
Q 2250 2553 1709 2553 
Q 1456 2553 1204 2497 
Q 953 2441 691 2322 
L 691 4666 
z
" transform="scale(0.015625)"/>
       </defs>
       <use xlink:href="#DejaVuSans-35"/>
       <use xlink:href="#DejaVuSans-30" x="63.623047"/>
       <use xlink:href="#DejaVuSans-30" x="127.246094"/>
      </g>
     </g>
    </g>
    <g id="ytick_7">
     <g id="line2d_13">
      <g>
       <use xlink:href="#ma083813632" x="55.925" y="50.676923" style="stroke: #000000; stroke-width: 0.8"/>
      </g>
     </g>
     <g id="text_14">
      <!-- 600 -->
      <g transform="translate(29.8375 54.476142)scale(0.1 -0.1)">
       <use xlink:href="#DejaVuSans-36"/>
       <use xlink:href="#DejaVuSans-30" x="63.623047"/>
       <use xlink:href="#DejaVuSans-30" x="127.246094"/>
      </g>
     </g>
    </g>
    <g id="text_15">
     <!-- Score -->
     <g transform="translate(22.717969 192.003516)rotate(-90)scale(0.15 -0.15)">
      <defs>
       <path id="DejaVuSans-53" d="M 3425 4513 
L 3425 3897 
Q 3066 4069 2747 4153 
Q 2428 4238 2131 4238 
Q 1616 4238 1336 4038 
Q 1056 3838 1056 3469 
Q 1056 3159 1242 3001 
Q 1428 2844 1947 2747 
L 2328 2669 
Q 3034 2534 3370 2195 
Q 3706 1856 3706 1288 
Q 3706 609 3251 259 
Q 2797 -91 1919 -91 
Q 1588 -91 1214 -16 
Q 841 59 441 206 
L 441 856 
Q 825 641 1194 531 
Q 1563 422 1919 422 
Q 2459 422 2753 634 
Q 3047 847 3047 1241 
Q 3047 1584 2836 1778 
Q 2625 1972 2144 2069 
L 1759 2144 
Q 1053 2284 737 2584 
Q 422 2884 422 3419 
Q 422 4038 858 4394 
Q 1294 4750 2059 4750 
Q 2388 4750 2728 4690 
Q 3069 4631 3425 4513 
z
" transform="scale(0.015625)"/>
       <path id="DejaVuSans-63" d="M 3122 3366 
L 3122 2828 
Q 2878 2963 2633 3030 
Q 2388 3097 2138 3097 
Q 1578 3097 1268 2742 
Q 959 2388 959 1747 
Q 959 1106 1268 751 
Q 1578 397 2138 397 
Q 2388 397 2633 464 
Q 2878 531 3122 666 
L 3122 134 
Q 2881 22 2623 -34 
Q 2366 -91 2075 -91 
Q 1284 -91 818 406 
Q 353 903 353 1747 
Q 353 2603 823 3093 
Q 1294 3584 2113 3584 
Q 2378 3584 2631 3529 
Q 2884 3475 3122 3366 
z
" transform="scale(0.015625)"/>
       <path id="DejaVuSans-72" d="M 2631 2963 
Q 2534 3019 2420 3045 
Q 2306 3072 2169 3072 
Q 1681 3072 1420 2755 
Q 1159 2438 1159 1844 
L 1159 0 
L 581 0 
L 581 3500 
L 1159 3500 
L 1159 2956 
Q 1341 3275 1631 3429 
Q 1922 3584 2338 3584 
Q 2397 3584 2469 3576 
Q 2541 3569 2628 3553 
L 2631 2963 
z
" transform="scale(0.015625)"/>
      </defs>
      <use xlink:href="#DejaVuSans-53"/>
      <use xlink:href="#DejaVuSans-63" x="63.476562"/>
      <use xlink:href="#DejaVuSans-6f" x="118.457031"/>
      <use xlink:href="#DejaVuSans-72" x="179.638672"/>
      <use xlink:href="#DejaVuSans-65" x="218.501953"/>
     </g>
    </g>
   </g>
   <g id="line2d_14">
    <path d="M 74.329545 301.386462 
L 74.698005 297.011077 
L 75.066464 305.324308 
L 75.434924 300.948923 
L 76.171842 308.824615 
L 76.540302 304.449231 
L 76.908761 297.886154 
L 77.27722 297.448615 
L 77.64568 304.449231 
L 78.014139 306.199385 
L 78.382599 303.136615 
L 78.751058 305.324308 
L 79.119517 300.073846 
L 79.487977 306.199385 
L 79.856436 297.011077 
L 80.224895 297.011077 
L 80.593355 299.636308 
L 80.961814 293.073231 
L 81.330273 301.824 
L 81.698733 293.948308 
L 82.067192 305.761846 
L 82.435652 308.387077 
L 82.804111 302.699077 
L 83.17257 303.574154 
L 83.54103 300.511385 
L 83.909489 301.386462 
L 84.277948 296.136 
L 84.646408 307.949538 
L 85.014867 300.511385 
L 85.383327 308.387077 
L 85.751786 306.636923 
L 86.120245 303.574154 
L 86.488705 302.261538 
L 86.857164 294.823385 
L 87.225623 307.512 
L 87.594083 308.387077 
L 88.331001 302.261538 
L 88.699461 307.949538 
L 89.06792 305.324308 
L 89.43638 295.260923 
L 89.804839 305.761846 
L 90.173298 307.074462 
L 90.541758 306.199385 
L 90.910217 303.574154 
L 91.278676 303.574154 
L 91.647136 307.074462 
L 92.015595 300.511385 
L 92.384055 302.261538 
L 92.752514 309.262154 
L 93.120973 307.949538 
L 93.489433 275.134154 
L 93.857892 306.636923 
L 94.226351 307.949538 
L 94.594811 297.448615 
L 94.96327 293.948308 
L 95.331729 306.636923 
L 95.700189 307.074462 
L 96.068648 307.074462 
L 96.805567 303.136615 
L 97.174026 299.636308 
L 97.542486 308.387077 
L 97.910945 307.949538 
L 98.279404 303.574154 
L 98.647864 307.512 
L 99.016323 302.261538 
L 99.384783 306.199385 
L 99.753242 300.073846 
L 100.121701 299.198769 
L 100.490161 302.261538 
L 100.85862 308.387077 
L 101.227079 307.512 
L 101.595539 305.761846 
L 101.963998 293.948308 
L 102.332457 286.510154 
L 102.700917 304.011692 
L 103.069376 304.011692 
L 103.437836 305.761846 
L 103.806295 303.574154 
L 104.174754 307.512 
L 104.543214 307.074462 
L 104.911673 306.199385 
L 105.280132 295.260923 
L 105.648592 295.260923 
L 106.017051 286.072615 
L 106.385511 300.948923 
L 106.75397 304.886769 
L 107.122429 300.948923 
L 107.490889 300.073846 
L 107.859348 293.948308 
L 108.227807 305.324308 
L 108.596267 296.136 
L 108.964726 305.324308 
L 109.333185 306.199385 
L 110.070104 299.198769 
L 110.438564 305.324308 
L 110.807023 307.512 
L 111.175482 305.324308 
L 111.543942 304.886769 
L 111.912401 298.761231 
L 112.28086 306.636923 
L 112.64932 308.824615 
L 113.017779 307.074462 
L 113.386239 299.198769 
L 113.754698 303.136615 
L 114.123157 301.386462 
L 114.491617 305.761846 
L 114.860076 302.699077 
L 115.228535 302.261538 
L 115.596995 305.761846 
L 115.965454 306.636923 
L 116.333913 306.199385 
L 116.702373 304.449231 
L 117.070832 300.073846 
L 117.439292 307.512 
L 117.807751 303.574154 
L 118.17621 306.636923 
L 118.913129 299.198769 
L 119.281588 304.886769 
L 119.650048 307.074462 
L 120.018507 302.699077 
L 120.386967 305.761846 
L 120.755426 304.449231 
L 121.123885 305.324308 
L 121.492345 304.886769 
L 121.860804 304.886769 
L 122.229263 301.386462 
L 122.597723 302.699077 
L 122.966182 300.073846 
L 123.703101 288.697846 
L 124.07156 304.886769 
L 124.44002 302.261538 
L 124.808479 300.511385 
L 125.176938 295.698462 
L 125.545398 300.511385 
L 125.913857 293.948308 
L 126.282316 297.448615 
L 126.650776 286.947692 
L 127.019235 309.262154 
L 127.387695 290.010462 
L 127.756154 306.636923 
L 128.124613 307.949538 
L 128.493073 306.199385 
L 128.861532 293.510769 
L 129.229991 307.074462 
L 129.598451 295.260923 
L 129.96691 269.446154 
L 130.335369 304.011692 
L 130.703829 288.260308 
L 131.072288 304.449231 
L 131.440748 303.574154 
L 131.809207 304.886769 
L 132.177666 302.261538 
L 132.546126 290.010462 
L 132.914585 301.824 
L 133.283044 294.823385 
L 133.651504 303.574154 
L 134.019963 294.385846 
L 134.388423 304.886769 
L 134.756882 307.949538 
L 135.125341 302.261538 
L 135.493801 307.074462 
L 135.86226 308.824615 
L 136.230719 301.386462 
L 136.599179 296.573538 
L 136.967638 307.512 
L 137.336097 294.385846 
L 137.704557 298.761231 
L 138.073016 307.512 
L 138.441476 300.073846 
L 138.809935 302.699077 
L 139.178394 297.886154 
L 139.546854 303.136615 
L 139.915313 301.386462 
L 140.652232 307.949538 
L 141.389151 297.011077 
L 141.75761 302.699077 
L 142.126069 300.511385 
L 142.494529 270.321231 
L 142.862988 279.072 
L 143.231447 302.261538 
L 143.599907 294.823385 
L 143.968366 307.949538 
L 144.336825 306.636923 
L 144.705285 308.824615 
L 145.073744 297.886154 
L 145.442204 306.636923 
L 145.810663 306.636923 
L 146.179122 305.761846 
L 146.547582 303.136615 
L 146.916041 305.324308 
L 147.2845 294.385846 
L 147.65296 296.136 
L 148.021419 296.573538 
L 148.389879 305.761846 
L 148.758338 306.199385 
L 149.126797 304.011692 
L 149.495257 290.448 
L 149.863716 297.448615 
L 150.232175 301.824 
L 150.600635 292.198154 
L 150.969094 302.699077 
L 151.337553 293.948308 
L 151.706013 307.949538 
L 152.442932 283.884923 
L 152.811391 301.824 
L 153.17985 302.261538 
L 153.54831 257.632615 
L 153.916769 303.574154 
L 154.285228 279.509538 
L 154.653688 297.886154 
L 155.022147 288.697846 
L 155.390607 297.011077 
L 155.759066 300.073846 
L 156.127525 294.385846 
L 156.495985 275.134154 
L 156.864444 306.636923 
L 157.232903 294.823385 
L 157.601363 308.387077 
L 157.969822 300.948923 
L 158.338281 302.261538 
L 158.706741 286.947692 
L 159.0752 304.449231 
L 159.44366 307.074462 
L 159.812119 300.511385 
L 160.180578 260.257846 
L 160.917497 307.074462 
L 161.285956 281.259692 
L 161.654416 302.261538 
L 162.022875 251.944615 
L 162.391335 298.761231 
L 162.759794 307.512 
L 163.128253 300.511385 
L 163.496713 303.136615 
L 163.865172 299.636308 
L 164.233631 302.699077 
L 164.602091 243.631385 
L 164.97055 248.006769 
L 165.339009 273.821538 
L 165.707469 307.949538 
L 166.075928 293.073231 
L 166.444388 305.761846 
L 167.181306 290.885538 
L 167.549766 266.820923 
L 167.918225 286.947692 
L 168.286684 296.136 
L 168.655144 293.948308 
L 169.023603 303.574154 
L 169.392063 293.948308 
L 169.760522 292.635692 
L 170.128981 286.072615 
L 170.497441 291.760615 
L 170.8659 291.323077 
L 171.234359 297.886154 
L 171.602819 271.633846 
L 171.971278 298.761231 
L 172.339737 297.448615 
L 172.708197 306.636923 
L 173.076656 277.759385 
L 173.445116 297.011077 
L 173.813575 307.074462 
L 174.182034 276.009231 
L 174.550494 284.76 
L 174.918953 282.134769 
L 175.287412 261.132923 
L 175.655872 272.071385 
L 176.024331 306.199385 
L 176.392791 242.318769 
L 177.129709 298.323692 
L 177.498169 286.072615 
L 177.866628 244.944 
L 178.235087 257.632615 
L 178.603547 300.073846 
L 178.972006 265.945846 
L 179.340465 262.445538 
L 179.708925 267.696 
L 180.077384 276.884308 
L 180.445844 290.010462 
L 181.182762 258.507692 
L 181.551222 277.321846 
L 181.919681 272.946462 
L 182.28814 272.508923 
L 182.6566 286.510154 
L 183.025059 305.324308 
L 183.393519 275.134154 
L 183.761978 256.757538 
L 184.130437 269.446154 
L 184.498897 269.008615 
L 184.867356 272.071385 
L 185.235815 247.131692 
L 185.604275 277.321846 
L 186.341193 258.945231 
L 186.709653 229.192615 
L 187.078112 265.070769 
L 187.446572 265.945846 
L 187.815031 269.883692 
L 188.18349 253.694769 
L 188.55195 289.135385 
L 188.920409 262.883077 
L 189.288868 295.260923 
L 189.657328 272.071385 
L 190.025787 220.441846 
L 190.762706 274.696615 
L 191.131165 276.009231 
L 191.499625 260.257846 
L 191.868084 269.883692 
L 192.236543 274.259077 
L 192.605003 259.382769 
L 192.973462 266.820923 
L 193.341921 256.32 
L 193.710381 296.136 
L 194.07884 249.319385 
L 194.4473 268.571077 
L 194.815759 232.692923 
L 195.184218 240.131077 
L 195.552678 256.32 
L 195.921137 257.632615 
L 196.289596 285.635077 
L 196.658056 244.506462 
L 197.026515 260.695385 
L 197.394975 262.883077 
L 197.763434 261.132923 
L 198.131893 280.822154 
L 198.500353 243.193846 
L 198.868812 286.072615 
L 199.237271 275.134154 
L 199.605731 288.260308 
L 200.342649 263.758154 
L 200.711109 261.570462 
L 201.079568 282.572308 
L 201.448028 275.134154 
L 201.816487 279.509538 
L 202.184946 254.132308 
L 202.921865 269.883692 
L 203.290324 293.073231 
L 203.658784 296.136 
L 204.395703 262.445538 
L 204.764162 221.316923 
L 205.132621 285.635077 
L 205.501081 268.133538 
L 205.86954 265.945846 
L 206.237999 251.069538 
L 206.606459 273.821538 
L 206.974918 258.070154 
L 207.343377 249.756923 
L 207.711837 256.757538 
L 208.080296 278.196923 
L 208.448756 227.442462 
L 208.817215 250.194462 
L 209.554134 276.446769 
L 209.922593 279.072 
L 210.291052 273.821538 
L 210.659512 270.321231 
L 211.027971 281.697231 
L 211.396431 279.509538 
L 211.76489 269.883692 
L 212.133349 277.759385 
L 212.501809 267.696 
L 212.870268 245.819077 
L 213.238727 201.190154 
L 213.607187 262.008 
L 213.975646 274.259077 
L 214.344105 251.507077 
L 214.712565 257.195077 
L 215.081024 244.506462 
L 215.449484 260.257846 
L 215.817943 261.570462 
L 216.186402 283.447385 
L 216.554862 254.132308 
L 216.923321 261.570462 
L 217.29178 261.132923 
L 217.66024 274.696615 
L 218.028699 274.696615 
L 218.397159 273.821538 
L 218.765618 281.697231 
L 219.134077 257.632615 
L 219.502537 264.195692 
L 219.870996 251.507077 
L 220.239455 264.633231 
L 220.607915 262.883077 
L 220.976374 266.383385 
L 221.344833 248.444308 
L 221.713293 265.070769 
L 222.081752 246.256615 
L 222.450212 251.069538 
L 222.818671 263.320615 
L 223.18713 255.007385 
L 223.55559 296.136 
L 223.924049 270.321231 
L 224.292508 262.445538 
L 224.660968 263.320615 
L 225.029427 251.507077 
L 225.397887 268.133538 
L 225.766346 268.133538 
L 226.134805 257.195077 
L 226.503265 275.134154 
L 226.871724 262.008 
L 227.240183 238.380923 
L 227.608643 261.570462 
L 227.977102 253.257231 
L 228.345561 230.942769 
L 228.714021 249.756923 
L 229.08248 280.384615 
L 229.45094 263.758154 
L 229.819399 262.008 
L 230.187858 237.068308 
L 230.556318 266.820923 
L 230.924777 258.070154 
L 231.293236 263.758154 
L 231.661696 261.132923 
L 232.030155 240.568615 
L 232.398615 283.009846 
L 232.767074 258.070154 
L 233.135533 263.320615 
L 233.503993 263.320615 
L 233.872452 230.942769 
L 234.97783 269.008615 
L 235.346289 264.633231 
L 235.714749 254.132308 
L 236.083208 269.008615 
L 236.820127 253.694769 
L 237.188586 268.571077 
L 237.557046 229.192615 
L 237.925505 275.571692 
L 238.662424 246.256615 
L 239.399343 268.571077 
L 239.767802 246.256615 
L 240.136261 279.947077 
L 240.504721 267.696 
L 240.87318 262.445538 
L 241.241639 259.820308 
L 241.610099 252.382154 
L 241.978558 258.070154 
L 242.347017 258.945231 
L 242.715477 264.195692 
L 243.083936 250.194462 
L 243.452396 267.696 
L 243.820855 264.195692 
L 244.189314 246.256615 
L 244.557774 211.691077 
L 244.926233 258.945231 
L 245.294692 246.694154 
L 246.031611 264.633231 
L 246.400071 289.572923 
L 247.136989 251.507077 
L 247.505449 258.070154 
L 247.873908 251.507077 
L 248.242367 265.508308 
L 248.610827 246.256615 
L 248.979286 220.879385 
L 249.347745 252.382154 
L 249.716205 263.758154 
L 250.453124 218.691692 
L 250.821583 293.073231 
L 251.190042 261.570462 
L 251.558502 256.32 
L 251.926961 258.070154 
L 252.29542 137.309538 
L 252.66388 303.574154 
L 253.032339 226.567385 
L 253.400799 267.258462 
L 253.769258 210.378462 
L 254.137717 253.257231 
L 254.506177 281.259692 
L 254.874636 256.757538 
L 255.243095 165.312 
L 255.611555 269.008615 
L 255.980014 253.694769 
L 256.348473 266.820923 
L 256.716933 226.567385 
L 257.085392 268.133538 
L 257.453852 206.440615 
L 257.822311 232.255385 
L 258.19077 184.126154 
L 258.55923 192.439385 
L 258.927689 267.696 
L 259.296148 250.632 
L 260.033067 302.261538 
L 260.769986 251.507077 
L 261.138445 247.131692 
L 261.506905 238.380923 
L 261.875364 267.258462 
L 262.243823 275.571692 
L 262.612283 274.696615 
L 262.980742 265.945846 
L 263.349201 261.570462 
L 263.717661 274.696615 
L 264.08612 238.818462 
L 264.45458 241.006154 
L 264.823039 244.068923 
L 265.191498 271.196308 
L 265.559958 246.694154 
L 265.928417 252.819692 
L 266.296876 262.008 
L 266.665336 214.316308 
L 267.033795 242.756308 
L 267.402255 280.822154 
L 267.770714 273.821538 
L 268.139173 257.195077 
L 268.507633 252.382154 
L 268.876092 226.129846 
L 269.244551 238.818462 
L 269.613011 255.444923 
L 269.98147 250.632 
L 270.349929 274.259077 
L 270.718389 244.506462 
L 271.086848 244.944 
L 271.823767 270.758769 
L 272.192226 212.566154 
L 272.560686 210.816 
L 272.929145 276.009231 
L 273.666064 183.251077 
L 274.034523 163.561846 
L 274.402983 235.318154 
L 274.771442 167.062154 
L 275.139901 226.567385 
L 275.508361 118.932923 
L 275.87682 94.430769 
L 276.245279 254.569846 
L 276.613739 99.681231 
L 276.982198 259.820308 
L 277.350657 256.757538 
L 277.719117 131.621538 
L 278.087576 266.820923 
L 278.456036 117.182769 
L 278.824495 266.820923 
L 279.192954 94.430769 
L 279.561414 275.134154 
L 280.298332 258.070154 
L 280.666792 94.430769 
L 281.035251 94.430769 
L 281.403711 218.254154 
L 281.77217 271.196308 
L 282.140629 250.632 
L 282.509089 149.560615 
L 282.877548 161.374154 
L 283.246007 268.571077 
L 283.614467 251.069538 
L 283.982926 270.758769 
L 284.351385 272.508923 
L 284.719845 203.815385 
L 285.088304 167.499692 
L 285.456764 162.686769 
L 285.825223 178.438154 
L 286.193682 180.625846 
L 286.562142 251.069538 
L 286.930601 166.624615 
L 287.29906 265.945846 
L 287.66752 163.561846 
L 288.035979 249.319385 
L 288.404439 269.883692 
L 289.509817 94.430769 
L 289.878276 239.256 
L 290.246735 159.186462 
L 290.615195 163.561846 
L 290.983654 154.373538 
L 291.352113 162.249231 
L 291.720573 258.945231 
L 292.089032 94.430769 
L 292.457492 271.196308 
L 292.825951 94.430769 
L 293.19441 94.430769 
L 293.56287 246.694154 
L 293.931329 274.696615 
L 294.299788 254.569846 
L 294.668248 94.430769 
L 295.036707 262.883077 
L 295.405167 94.430769 
L 295.773626 156.998769 
L 296.142085 94.430769 
L 296.510545 250.632 
L 296.879004 94.430769 
L 297.247463 254.132308 
L 297.615923 94.430769 
L 297.984382 271.633846 
L 298.352841 274.696615 
L 298.721301 272.508923 
L 299.08976 262.883077 
L 299.45822 94.430769 
L 299.826679 94.430769 
L 300.195138 250.632 
L 300.563598 94.430769 
L 300.932057 94.430769 
L 301.300516 105.806769 
L 301.668976 267.696 
L 302.037435 260.695385 
L 302.405895 256.32 
L 303.142813 269.446154 
L 303.511273 271.633846 
L 303.879732 206.003077 
L 304.248191 94.430769 
L 304.616651 262.883077 
L 304.98511 263.320615 
L 305.353569 127.683692 
L 305.722029 236.193231 
L 306.090488 253.257231 
L 306.458948 257.195077 
L 306.827407 221.754462 
L 307.195866 252.382154 
L 307.564326 94.430769 
L 307.932785 94.430769 
L 308.301244 272.508923 
L 308.669704 268.133538 
L 309.038163 269.883692 
L 309.406623 255.882462 
L 309.775082 98.368615 
L 310.143541 245.381538 
L 310.512001 271.196308 
L 310.88046 258.945231 
L 311.248919 266.820923 
L 311.617379 94.430769 
L 311.985838 94.430769 
L 312.354297 258.507692 
L 312.722757 269.883692 
L 313.091216 142.56 
L 313.459676 227.004923 
L 313.828135 94.430769 
L 314.196594 273.384 
L 314.565054 94.430769 
L 314.933513 94.430769 
L 315.301972 269.883692 
L 315.670432 94.430769 
L 316.038891 94.430769 
L 316.407351 264.195692 
L 316.77581 94.430769 
L 317.144269 222.192 
L 317.512729 94.430769 
L 317.881188 263.320615 
L 318.249647 266.383385 
L 318.618107 103.181538 
L 318.986566 94.430769 
L 320.091944 94.430769 
L 320.460404 179.750769 
L 320.828863 94.430769 
L 321.565782 94.430769 
L 321.934241 268.571077 
L 322.3027 232.255385 
L 322.67116 94.430769 
L 323.039619 94.430769 
L 323.408079 258.945231 
L 323.776538 253.694769 
L 324.144997 94.430769 
L 324.513457 262.445538 
L 325.618835 181.063385 
L 325.987294 94.430769 
L 326.355753 94.430769 
L 326.724213 162.249231 
L 327.092672 94.430769 
L 327.461132 94.430769 
L 327.829591 224.817231 
L 328.19805 94.430769 
L 328.56651 94.430769 
L 328.934969 257.195077 
L 329.303428 257.632615 
L 329.671888 263.320615 
L 330.040347 266.820923 
L 330.408807 233.568 
L 330.777266 235.318154 
L 331.145725 271.196308 
L 331.514185 206.878154 
L 331.882644 260.257846 
L 332.251103 239.693538 
L 332.619563 94.430769 
L 332.988022 254.569846 
L 333.356481 266.820923 
L 333.724941 264.195692 
L 334.0934 94.430769 
L 334.46186 264.195692 
L 334.830319 225.692308 
L 335.198778 265.508308 
L 335.567238 94.430769 
L 335.935697 265.945846 
L 336.304156 265.508308 
L 336.672616 94.430769 
L 337.041075 225.254769 
L 337.409535 262.008 
L 337.777994 94.430769 
L 338.146453 269.008615 
L 338.514913 94.430769 
L 338.883372 270.321231 
L 339.251831 94.430769 
L 341.094128 94.430769 
L 341.462588 265.070769 
L 341.831047 94.430769 
L 342.199506 94.430769 
L 342.567966 264.195692 
L 342.936425 94.430769 
L 353.621747 94.430769 
L 353.990206 252.819692 
L 354.358665 94.430769 
L 368.360121 94.430769 
L 368.728581 265.508308 
L 369.09704 94.430769 
L 369.4655 246.256615 
L 369.833959 94.430769 
L 374.99239 94.430769 
L 375.360849 255.007385 
L 375.729309 94.430769 
L 391.204602 94.430769 
L 391.573062 276.446769 
L 391.941521 94.430769 
L 393.046899 94.430769 
L 393.415359 272.946462 
L 393.783818 94.430769 
L 403.363761 94.430769 
L 403.732221 252.819692 
L 404.10068 94.430769 
L 407.048355 94.430769 
L 407.416815 227.442462 
L 407.785274 94.430769 
L 409.259111 94.430769 
L 409.627571 232.692923 
L 409.99603 94.430769 
L 410.732949 94.430769 
L 411.101408 240.131077 
L 411.469868 94.430769 
L 423.997486 94.430769 
L 424.365945 228.317538 
L 424.734405 94.430769 
L 426.208242 94.430769 
L 426.576702 236.193231 
L 426.945161 94.430769 
L 442.420455 94.430769 
L 442.420455 94.430769 
" clip-path="url(#p42fe28b652)" style="fill: none; stroke: #708090; stroke-width: 1.5; stroke-linecap: square"/>
   </g>
   <g id="line2d_15">
    <path d="M 74.329545 302.742831 
L 75.066464 303.119114 
L 75.434924 302.515311 
L 76.171842 302.681575 
L 76.908761 302.244037 
L 78.014139 302.664074 
L 79.487977 302.699077 
L 80.224895 302.865342 
L 80.593355 303.07536 
L 80.961814 303.127865 
L 81.330273 303.390388 
L 81.698733 303.355385 
L 82.067192 303.460394 
L 82.804111 303.390388 
L 83.54103 303.5304 
L 83.909489 303.399138 
L 84.277948 303.101612 
L 84.646408 303.259126 
L 85.014867 303.180369 
L 85.383327 303.285378 
L 86.120245 303.206622 
L 87.225623 303.364135 
L 87.594083 303.119114 
L 87.962542 302.672825 
L 88.331001 302.585317 
L 88.699461 302.637822 
L 89.43638 302.3928 
L 90.173298 302.357797 
L 90.541758 302.139028 
L 92.384055 302.086523 
L 92.752514 302.191532 
L 93.489433 302.05152 
L 93.857892 302.524062 
L 94.594811 302.541563 
L 95.331729 302.839089 
L 97.174026 302.559065 
L 97.542486 302.681575 
L 99.753242 302.532812 
L 100.490161 302.73408 
L 101.963998 302.532812 
L 103.069376 303.154117 
L 104.174754 303.110363 
L 104.911673 302.874092 
L 105.648592 302.515311 
L 106.017051 302.707828 
L 106.385511 303.031606 
L 106.75397 303.022855 
L 107.122429 302.839089 
L 107.490889 302.830338 
L 107.859348 302.707828 
L 108.227807 302.777834 
L 108.596267 302.410302 
L 108.964726 302.672825 
L 109.333185 302.366548 
L 110.070104 302.489058 
L 110.438564 302.629071 
L 110.807023 302.3928 
L 111.175482 302.384049 
L 111.543942 302.182782 
L 111.912401 301.473969 
L 112.28086 301.578978 
L 112.64932 301.211446 
L 113.386239 301.053932 
L 113.754698 301.167692 
L 114.123157 301.150191 
L 114.491617 300.922671 
L 115.596995 300.712652 
L 115.965454 300.485132 
L 117.070832 300.441378 
L 117.807751 300.607643 
L 118.17621 300.563889 
L 118.54467 300.362622 
L 118.913129 300.45888 
L 120.018507 300.248862 
L 122.229263 299.89008 
L 122.597723 300.021342 
L 123.334641 299.951335 
L 124.07156 300.34512 
L 124.808479 299.190018 
L 125.913857 299.356283 
L 127.019235 300.056345 
L 127.387695 300.00384 
L 127.756154 300.336369 
L 129.229991 300.222609 
L 129.598451 300.00384 
L 129.96691 300.030092 
L 130.335369 300.756406 
L 130.703829 300.80016 
L 131.072288 301.115188 
L 131.440748 300.835163 
L 132.546126 300.450129 
L 132.914585 300.703902 
L 133.283044 300.546388 
L 133.651504 300.808911 
L 135.125341 300.301366 
L 135.493801 299.408788 
L 135.86226 299.338782 
L 136.230719 298.75248 
L 136.967638 298.52496 
L 137.336097 298.314942 
L 137.704557 298.428702 
L 138.073016 298.341194 
L 138.441476 297.693637 
L 138.809935 297.824898 
L 139.178394 297.667385 
L 139.546854 297.877403 
L 140.283772 297.851151 
L 140.652232 297.492369 
L 141.020691 297.422363 
L 141.75761 297.588628 
L 142.126069 296.739803 
L 142.494529 296.346018 
L 142.862988 297.081083 
L 143.599907 297.124837 
L 143.968366 296.267262 
L 144.336825 296.083495 
L 144.705285 296.100997 
L 145.073744 295.934732 
L 145.442204 296.039742 
L 146.179122 295.820972 
L 146.916041 293.475766 
L 147.2845 292.845711 
L 147.65296 293.116985 
L 148.021419 293.055729 
L 148.389879 293.239495 
L 148.758338 293.090732 
L 149.126797 292.784455 
L 149.495257 292.04064 
L 150.600635 291.786868 
L 150.969094 292.014388 
L 151.337553 291.839372 
L 151.706013 291.81312 
L 152.074472 291.375582 
L 152.442932 291.261822 
L 152.811391 291.410585 
L 153.17985 291.331828 
L 153.54831 290.719274 
L 153.916769 291.541846 
L 154.285228 291.419335 
L 154.653688 291.961883 
L 155.022147 291.559348 
L 155.759066 291.92688 
L 156.127525 291.445588 
L 156.495985 291.253071 
L 156.864444 291.393083 
L 157.232903 290.483003 
L 157.601363 290.027963 
L 157.969822 289.984209 
L 158.338281 288.811606 
L 158.706741 288.137797 
L 159.0752 288.365317 
L 159.44366 287.997785 
L 160.180578 285.8976 
L 160.549038 286.69392 
L 160.917497 286.396394 
L 161.285956 285.503815 
L 161.654416 285.232542 
L 162.022875 284.724997 
L 162.391335 285.486314 
L 162.759794 285.031274 
L 163.128253 284.051188 
L 163.865172 282.983594 
L 164.233631 282.441046 
L 164.602091 282.117268 
L 164.97055 283.351126 
L 165.339009 283.893674 
L 165.707469 283.552394 
L 166.075928 282.782326 
L 166.444388 282.301034 
L 166.812847 281.627225 
L 167.181306 280.603385 
L 167.549766 280.332111 
L 167.918225 280.340862 
L 168.286684 279.780812 
L 168.655144 278.441945 
L 169.760522 276.630535 
L 170.128981 275.851717 
L 170.497441 275.912972 
L 170.8659 275.335422 
L 171.234359 275.414178 
L 171.602819 274.897883 
L 172.339737 272.841452 
L 173.813575 270.88128 
L 174.182034 270.224972 
L 174.918953 269.533662 
L 175.287412 269.017366 
L 175.655872 269.717428 
L 176.024331 269.262388 
L 176.392791 268.509822 
L 176.76125 268.317305 
L 177.129709 267.748505 
L 177.866628 266.339631 
L 178.235087 267.153452 
L 178.603547 266.890929 
L 178.972006 266.10336 
L 179.708925 266.015852 
L 180.077384 266.278375 
L 180.445844 265.604566 
L 181.182762 265.508308 
L 181.551222 266.10336 
L 181.919681 266.10336 
L 183.025059 265.622068 
L 183.393519 265.018265 
L 183.761978 265.105772 
L 184.867356 264.939508 
L 185.235815 265.359545 
L 185.604275 266.339631 
L 185.972734 266.418388 
L 186.341193 266.322129 
L 186.709653 265.569563 
L 187.078112 266.698412 
L 187.815031 266.759668 
L 188.18349 266.383385 
L 188.55195 266.78592 
L 188.920409 266.164615 
L 189.288868 265.902092 
L 189.657328 265.132025 
L 190.762706 265.455803 
L 191.131165 265.219532 
L 191.499625 265.228283 
L 191.868084 265.604566 
L 192.236543 265.683323 
L 192.605003 265.604566 
L 192.973462 266.050855 
L 193.710381 266.575902 
L 194.07884 266.208369 
L 194.4473 266.575902 
L 195.184218 265.490806 
L 195.921137 266.287126 
L 196.289596 266.164615 
L 196.658056 265.595815 
L 197.763434 265.560812 
L 198.131893 266.007102 
L 198.500353 265.473305 
L 198.868812 265.840837 
L 199.237271 265.342043 
L 199.605731 265.333292 
L 199.97419 265.062018 
L 200.342649 264.992012 
L 200.711109 265.350794 
L 201.079568 265.272037 
L 202.184946 264.134437 
L 202.921865 264.379458 
L 203.658784 263.390622 
L 204.027243 262.393034 
L 204.395703 261.789231 
L 204.764162 261.806732 
L 205.132621 262.480542 
L 205.501081 262.69056 
L 205.86954 262.734314 
L 206.237999 262.664308 
L 206.606459 262.909329 
L 206.974918 262.46304 
L 207.343377 262.664308 
L 207.711837 263.03184 
L 208.448756 262.979335 
L 208.817215 263.670646 
L 209.185674 263.434375 
L 209.554134 263.408123 
L 209.922593 262.944332 
L 210.291052 261.981748 
L 210.659512 261.500455 
L 211.027971 261.701723 
L 211.76489 260.992911 
L 212.133349 260.336603 
L 212.870268 259.925317 
L 213.238727 260.284098 
L 213.607187 261.482954 
L 213.975646 261.054166 
L 215.449484 261.859237 
L 215.817943 261.272935 
L 216.554862 260.485366 
L 216.923321 260.782892 
L 217.29178 260.844148 
L 218.397159 260.319102 
L 219.502537 259.085243 
L 220.239455 259.487778 
L 220.607915 259.120246 
L 220.976374 258.988985 
L 221.713293 258.988985 
L 222.818671 259.942818 
L 223.55559 259.820308 
L 223.924049 259.058991 
L 224.292508 258.831471 
L 224.660968 258.866474 
L 225.029427 258.603951 
L 225.397887 258.927729 
L 225.766346 258.848972 
L 226.134805 258.411434 
L 226.503265 257.501354 
L 227.240183 256.871298 
L 227.608643 257.221329 
L 227.977102 257.282585 
L 228.714021 258.805218 
L 229.08248 258.840222 
L 229.45094 258.393932 
L 229.819399 258.148911 
L 230.187858 258.218917 
L 230.556318 258.402683 
L 230.924777 257.483852 
L 231.661696 257.370092 
L 232.398615 256.512517 
L 232.767074 256.713785 
L 233.135533 256.783791 
L 233.872452 256.538769 
L 234.240911 254.666105 
L 234.609371 255.838708 
L 234.97783 255.156148 
L 235.346289 255.121145 
L 235.714749 254.036049 
L 236.083208 254.018548 
L 236.451668 254.263569 
L 236.820127 254.176062 
L 237.188586 252.408406 
L 237.557046 252.417157 
L 237.925505 252.9072 
L 238.293964 252.732185 
L 238.662424 252.058375 
L 239.030883 252.495914 
L 240.136261 249.529403 
L 240.504721 247.779249 
L 240.87318 247.779249 
L 241.241639 247.542978 
L 241.610099 247.831754 
L 241.978558 248.829342 
L 242.347017 249.118117 
L 242.715477 248.969354 
L 243.452396 248.391803 
L 243.820855 248.383052 
L 244.189314 248.610572 
L 244.557774 249.179372 
L 244.926233 250.264468 
L 245.294692 250.316972 
L 245.663152 250.877022 
L 246.400071 250.0632 
L 246.76853 249.15312 
L 247.505449 249.065612 
L 247.873908 248.960603 
L 248.242367 249.170622 
L 248.610827 248.146782 
L 248.979286 248.076775 
L 249.347745 249.275631 
L 249.716205 249.704418 
L 250.084664 249.573157 
L 250.821583 249.966942 
L 251.190042 248.881846 
L 251.926961 248.645575 
L 252.29542 248.969354 
L 252.66388 251.113292 
L 253.032339 249.940689 
L 253.400799 250.535742 
L 254.137717 250.649502 
L 254.506177 249.800677 
L 254.874636 249.695668 
L 255.243095 249.013108 
L 255.611555 249.371889 
L 255.980014 247.262954 
L 256.348473 246.895422 
L 256.716933 244.900246 
L 257.085392 244.900246 
L 257.822311 239.676037 
L 258.19077 240.122326 
L 258.55923 238.433428 
L 258.927689 239.781046 
L 259.296148 239.562277 
L 259.664608 237.182068 
L 260.033067 237.033305 
L 260.401527 233.331729 
L 260.769986 233.217969 
L 261.138445 230.076443 
L 261.875364 231.196542 
L 262.243823 231.012775 
L 262.980742 223.78464 
L 263.349201 222.830806 
L 263.717661 223.023323 
L 264.08612 222.542031 
L 264.823039 219.164234 
L 265.191498 219.654277 
L 265.559958 219.251742 
L 266.296876 220.126818 
L 267.402255 216.425243 
L 268.139173 212.513649 
L 268.507633 212.391138 
L 268.876092 210.675988 
L 269.244551 211.472308 
L 269.613011 209.967175 
L 269.98147 209.844665 
L 270.349929 210.229698 
L 270.718389 208.960837 
L 271.086848 206.869403 
L 271.455308 203.859138 
L 271.823767 203.517858 
L 272.192226 201.286412 
L 272.929145 199.177477 
L 273.297604 196.902277 
L 273.666064 197.628591 
L 274.034523 195.852185 
L 274.402983 198.004874 
L 274.771442 195.187126 
L 275.139901 193.734498 
L 275.508361 194.137034 
L 276.245279 200.455089 
L 276.613739 197.252308 
L 276.982198 200.516345 
L 277.350657 197.208554 
L 277.719117 195.213378 
L 278.087576 194.469563 
L 279.192954 193.436972 
L 280.298332 193.533231 
L 280.666792 193.822006 
L 281.035251 197.191052 
L 281.403711 197.191052 
L 281.77217 194.714585 
L 282.140629 194.303298 
L 282.509089 191.179274 
L 283.246007 188.965329 
L 283.614467 188.947828 
L 283.982926 189.140345 
L 284.719845 188.676554 
L 285.088304 189.989169 
L 285.456764 192.071852 
L 285.825223 192.938178 
L 286.193682 191.258031 
L 286.562142 192.903175 
L 286.930601 193.148197 
L 287.66752 191.774326 
L 288.035979 193.568234 
L 288.404439 193.725748 
L 288.772898 192.763163 
L 289.141357 193.594486 
L 289.509817 192.684406 
L 289.878276 192.684406 
L 290.246735 193.349465 
L 291.352113 199.685022 
L 291.720573 198.407409 
L 292.089032 198.136135 
L 292.457492 201.671446 
L 292.825951 201.426425 
L 293.19441 204.874228 
L 293.56287 204.874228 
L 293.931329 201.82896 
L 294.299788 201.505182 
L 294.668248 201.811458 
L 295.036707 202.774043 
L 295.405167 202.05648 
L 295.773626 202.05648 
L 296.142085 204.384185 
L 296.510545 204.384185 
L 296.879004 201.26016 
L 297.247463 204.769218 
L 297.615923 201.575188 
L 297.984382 201.575188 
L 298.352841 201.426425 
L 298.721301 197.821108 
L 299.08976 196.814769 
L 299.45822 193.445723 
L 300.195138 200.262572 
L 300.563598 197.313563 
L 301.300516 197.313563 
L 301.668976 197.086043 
L 302.037435 193.620738 
L 302.405895 192.001846 
L 303.511273 181.877206 
L 303.879732 181.815951 
L 304.248191 182.340997 
L 304.616651 182.340997 
L 304.98511 178.971951 
L 305.353569 178.884443 
L 305.722029 181.404665 
L 306.090488 178.569415 
L 306.458948 178.753182 
L 307.195866 177.921858 
L 307.564326 176.495483 
L 308.301244 176.495483 
L 308.669704 174.290289 
L 309.406623 167.307175 
L 309.775082 166.685871 
L 310.143541 166.607114 
L 310.512001 163.588098 
L 310.88046 163.308074 
L 311.617379 163.211815 
L 312.354297 169.442363 
L 312.722757 168.978572 
L 313.091216 169.004825 
L 313.459676 170.291188 
L 313.828135 170.956246 
L 314.196594 173.861502 
L 314.565054 170.282437 
L 315.301972 176.933022 
L 316.038891 176.819262 
L 316.407351 180.21456 
L 316.77581 179.444492 
L 317.144269 182.866043 
L 317.512729 180.310818 
L 317.881188 183.74112 
L 318.249647 183.784874 
L 318.618107 180.345822 
L 318.986566 182.787286 
L 319.355025 186.138831 
L 319.723485 186.138831 
L 320.091944 189.630388 
L 320.460404 189.630388 
L 320.828863 191.441797 
L 321.934241 191.441797 
L 322.67116 185.202498 
L 323.039619 185.202498 
L 323.408079 188.615298 
L 324.144997 182.139729 
L 324.513457 185.535028 
L 325.250375 179.374486 
L 325.987294 175.471643 
L 326.724213 175.471643 
L 327.092672 174.115274 
L 327.829591 174.115274 
L 328.19805 171.507545 
L 328.934969 171.507545 
L 331.514185 149.026818 
L 331.882644 146.777871 
L 332.619563 140.556074 
L 332.988022 140.556074 
L 334.0934 130.510191 
L 334.46186 130.510191 
L 335.567238 121.068111 
L 335.935697 124.235889 
L 336.672616 117.384037 
L 337.041075 117.384037 
L 337.777994 111.416012 
L 338.146453 111.416012 
L 338.514913 107.924455 
L 338.883372 107.924455 
L 339.251831 104.406646 
L 341.462588 104.406646 
L 341.831047 100.993846 
L 342.567966 100.993846 
L 342.936425 97.598548 
L 350.305612 97.598548 
L 350.674072 101.020098 
L 351.042531 101.020098 
L 351.410991 104.056615 
L 353.990206 104.056615 
L 354.358665 100.888837 
L 356.937881 100.888837 
L 357.30634 104.100369 
L 368.728581 104.100369 
L 369.09704 100.678818 
L 369.4655 100.678818 
L 369.833959 97.642302 
L 373.150093 97.642302 
L 373.518553 101.282622 
L 374.99239 101.282622 
L 375.360849 104.852935 
L 375.729309 101.641403 
L 385.309252 101.641403 
L 385.677712 104.809182 
L 388.993846 104.809182 
L 389.362305 107.469415 
L 391.204602 107.469415 
L 391.573062 110.234658 
L 391.941521 106.594338 
L 392.67844 106.594338 
L 393.046899 109.508345 
L 393.415359 109.508345 
L 393.783818 105.938031 
L 403.732221 105.938031 
L 404.10068 102.770252 
L 405.942977 102.770252 
L 406.311436 105.447988 
L 407.416815 105.447988 
L 407.785274 102.787754 
L 408.153733 102.787754 
L 408.522193 105.623003 
L 409.627571 105.623003 
L 409.99603 102.85776 
L 411.101408 102.85776 
L 411.469868 99.943754 
L 424.365945 99.943754 
L 424.365945 99.943754 
" clip-path="url(#p42fe28b652)" style="fill: none; stroke: #000080; stroke-width: 1.5; stroke-linecap: square"/>
   </g>
   <g id="line2d_16">
    <path d="M 55.925 94.430769 
L 460.825 94.430769 
" clip-path="url(#p42fe28b652)" style="fill: none; stroke-dasharray: 5.55,2.4; stroke-dashoffset: 0; stroke: #008000; stroke-width: 1.5"/>
   </g>
   <g id="patch_3">
    <path d="M 55.925 313.2 
L 55.925 28.8 
" style="fill: none; stroke: #000000; stroke-width: 0.8; stroke-linejoin: miter; stroke-linecap: square"/>
   </g>
   <g id="patch_4">
    <path d="M 460.825 313.2 
L 460.825 28.8 
" style="fill: none; stroke: #000000; stroke-width: 0.8; stroke-linejoin: miter; stroke-linecap: square"/>
   </g>
   <g id="patch_5">
    <path d="M 55.925 313.2 
L 460.825 313.2 
" style="fill: none; stroke: #000000; stroke-width: 0.8; stroke-linejoin: miter; stroke-linecap: square"/>
   </g>
   <g id="patch_6">
    <path d="M 55.925 28.8 
L 460.825 28.8 
" style="fill: none; stroke: #000000; stroke-width: 0.8; stroke-linejoin: miter; stroke-linecap: square"/>
   </g>
   <g id="text_16">
    <!-- gamma = 0.9426315789473685,lr = 0.05994842503189409 -->
    <g transform="translate(28.373437 22.8)scale(0.15 -0.15)">
     <defs>
      <path id="DejaVuSans-67" d="M 2906 1791 
Q 2906 2416 2648 2759 
Q 2391 3103 1925 3103 
Q 1463 3103 1205 2759 
Q 947 2416 947 1791 
Q 947 1169 1205 825 
Q 1463 481 1925 481 
Q 2391 481 2648 825 
Q 2906 1169 2906 1791 
z
M 3481 434 
Q 3481 -459 3084 -895 
Q 2688 -1331 1869 -1331 
Q 1566 -1331 1297 -1286 
Q 1028 -1241 775 -1147 
L 775 -588 
Q 1028 -725 1275 -790 
Q 1522 -856 1778 -856 
Q 2344 -856 2625 -561 
Q 2906 -266 2906 331 
L 2906 616 
Q 2728 306 2450 153 
Q 2172 0 1784 0 
Q 1141 0 747 490 
Q 353 981 353 1791 
Q 353 2603 747 3093 
Q 1141 3584 1784 3584 
Q 2172 3584 2450 3431 
Q 2728 3278 2906 2969 
L 2906 3500 
L 3481 3500 
L 3481 434 
z
" transform="scale(0.015625)"/>
      <path id="DejaVuSans-61" d="M 2194 1759 
Q 1497 1759 1228 1600 
Q 959 1441 959 1056 
Q 959 750 1161 570 
Q 1363 391 1709 391 
Q 2188 391 2477 730 
Q 2766 1069 2766 1631 
L 2766 1759 
L 2194 1759 
z
M 3341 1997 
L 3341 0 
L 2766 0 
L 2766 531 
Q 2569 213 2275 61 
Q 1981 -91 1556 -91 
Q 1019 -91 701 211 
Q 384 513 384 1019 
Q 384 1609 779 1909 
Q 1175 2209 1959 2209 
L 2766 2209 
L 2766 2266 
Q 2766 2663 2505 2880 
Q 2244 3097 1772 3097 
Q 1472 3097 1187 3025 
Q 903 2953 641 2809 
L 641 3341 
Q 956 3463 1253 3523 
Q 1550 3584 1831 3584 
Q 2591 3584 2966 3190 
Q 3341 2797 3341 1997 
z
" transform="scale(0.015625)"/>
      <path id="DejaVuSans-6d" d="M 3328 2828 
Q 3544 3216 3844 3400 
Q 4144 3584 4550 3584 
Q 5097 3584 5394 3201 
Q 5691 2819 5691 2113 
L 5691 0 
L 5113 0 
L 5113 2094 
Q 5113 2597 4934 2840 
Q 4756 3084 4391 3084 
Q 3944 3084 3684 2787 
Q 3425 2491 3425 1978 
L 3425 0 
L 2847 0 
L 2847 2094 
Q 2847 2600 2669 2842 
Q 2491 3084 2119 3084 
Q 1678 3084 1418 2786 
Q 1159 2488 1159 1978 
L 1159 0 
L 581 0 
L 581 3500 
L 1159 3500 
L 1159 2956 
Q 1356 3278 1631 3431 
Q 1906 3584 2284 3584 
Q 2666 3584 2933 3390 
Q 3200 3197 3328 2828 
z
" transform="scale(0.015625)"/>
      <path id="DejaVuSans-20" transform="scale(0.015625)"/>
      <path id="DejaVuSans-3d" d="M 678 2906 
L 4684 2906 
L 4684 2381 
L 678 2381 
L 678 2906 
z
M 678 1631 
L 4684 1631 
L 4684 1100 
L 678 1100 
L 678 1631 
z
" transform="scale(0.015625)"/>
      <path id="DejaVuSans-2e" d="M 684 794 
L 1344 794 
L 1344 0 
L 684 0 
L 684 794 
z
" transform="scale(0.015625)"/>
      <path id="DejaVuSans-39" d="M 703 97 
L 703 672 
Q 941 559 1184 500 
Q 1428 441 1663 441 
Q 2288 441 2617 861 
Q 2947 1281 2994 2138 
Q 2813 1869 2534 1725 
Q 2256 1581 1919 1581 
Q 1219 1581 811 2004 
Q 403 2428 403 3163 
Q 403 3881 828 4315 
Q 1253 4750 1959 4750 
Q 2769 4750 3195 4129 
Q 3622 3509 3622 2328 
Q 3622 1225 3098 567 
Q 2575 -91 1691 -91 
Q 1453 -91 1209 -44 
Q 966 3 703 97 
z
M 1959 2075 
Q 2384 2075 2632 2365 
Q 2881 2656 2881 3163 
Q 2881 3666 2632 3958 
Q 2384 4250 1959 4250 
Q 1534 4250 1286 3958 
Q 1038 3666 1038 3163 
Q 1038 2656 1286 2365 
Q 1534 2075 1959 2075 
z
" transform="scale(0.015625)"/>
      <path id="DejaVuSans-37" d="M 525 4666 
L 3525 4666 
L 3525 4397 
L 1831 0 
L 1172 0 
L 2766 4134 
L 525 4134 
L 525 4666 
z
" transform="scale(0.015625)"/>
      <path id="DejaVuSans-2c" d="M 750 794 
L 1409 794 
L 1409 256 
L 897 -744 
L 494 -744 
L 750 256 
L 750 794 
z
" transform="scale(0.015625)"/>
      <path id="DejaVuSans-6c" d="M 603 4863 
L 1178 4863 
L 1178 0 
L 603 0 
L 603 4863 
z
" transform="scale(0.015625)"/>
     </defs>
     <use xlink:href="#DejaVuSans-67"/>
     <use xlink:href="#DejaVuSans-61" x="63.476562"/>
     <use xlink:href="#DejaVuSans-6d" x="124.755859"/>
     <use xlink:href="#DejaVuSans-6d" x="222.167969"/>
     <use xlink:href="#DejaVuSans-61" x="319.580078"/>
     <use xlink:href="#DejaVuSans-20" x="380.859375"/>
     <use xlink:href="#DejaVuSans-3d" x="412.646484"/>
     <use xlink:href="#DejaVuSans-20" x="496.435547"/>
     <use xlink:href="#DejaVuSans-30" x="528.222656"/>
     <use xlink:href="#DejaVuSans-2e" x="591.845703"/>
     <use xlink:href="#DejaVuSans-39" x="623.632812"/>
     <use xlink:href="#DejaVuSans-34" x="687.255859"/>
     <use xlink:href="#DejaVuSans-32" x="750.878906"/>
     <use xlink:href="#DejaVuSans-36" x="814.501953"/>
     <use xlink:href="#DejaVuSans-33" x="878.125"/>
     <use xlink:href="#DejaVuSans-31" x="941.748047"/>
     <use xlink:href="#DejaVuSans-35" x="1005.371094"/>
     <use xlink:href="#DejaVuSans-37" x="1068.994141"/>
     <use xlink:href="#DejaVuSans-38" x="1132.617188"/>
     <use xlink:href="#DejaVuSans-39" x="1196.240234"/>
     <use xlink:href="#DejaVuSans-34" x="1259.863281"/>
     <use xlink:href="#DejaVuSans-37" x="1323.486328"/>
     <use xlink:href="#DejaVuSans-33" x="1387.109375"/>
     <use xlink:href="#DejaVuSans-36" x="1450.732422"/>
     <use xlink:href="#DejaVuSans-38" x="1514.355469"/>
     <use xlink:href="#DejaVuSans-35" x="1577.978516"/>
     <use xlink:href="#DejaVuSans-2c" x="1641.601562"/>
     <use xlink:href="#DejaVuSans-6c" x="1673.388672"/>
     <use xlink:href="#DejaVuSans-72" x="1701.171875"/>
     <use xlink:href="#DejaVuSans-20" x="1742.285156"/>
     <use xlink:href="#DejaVuSans-3d" x="1774.072266"/>
     <use xlink:href="#DejaVuSans-20" x="1857.861328"/>
     <use xlink:href="#DejaVuSans-30" x="1889.648438"/>
     <use xlink:href="#DejaVuSans-2e" x="1953.271484"/>
     <use xlink:href="#DejaVuSans-30" x="1985.058594"/>
     <use xlink:href="#DejaVuSans-35" x="2048.681641"/>
     <use xlink:href="#DejaVuSans-39" x="2112.304688"/>
     <use xlink:href="#DejaVuSans-39" x="2175.927734"/>
     <use xlink:href="#DejaVuSans-34" x="2239.550781"/>
     <use xlink:href="#DejaVuSans-38" x="2303.173828"/>
     <use xlink:href="#DejaVuSans-34" x="2366.796875"/>
     <use xlink:href="#DejaVuSans-32" x="2430.419922"/>
     <use xlink:href="#DejaVuSans-35" x="2494.042969"/>
     <use xlink:href="#DejaVuSans-30" x="2557.666016"/>
     <use xlink:href="#DejaVuSans-33" x="2621.289062"/>
     <use xlink:href="#DejaVuSans-31" x="2684.912109"/>
     <use xlink:href="#DejaVuSans-38" x="2748.535156"/>
     <use xlink:href="#DejaVuSans-39" x="2812.158203"/>
     <use xlink:href="#DejaVuSans-34" x="2875.78125"/>
     <use xlink:href="#DejaVuSans-30" x="2939.404297"/>
     <use xlink:href="#DejaVuSans-39" x="3003.027344"/>
    </g>
   </g>
   <g id="legend_1">
    <g id="patch_7">
     <path d="M 293.50625 80.834375 
L 453.825 80.834375 
Q 455.825 80.834375 455.825 78.834375 
L 455.825 35.8 
Q 455.825 33.8 453.825 33.8 
L 293.50625 33.8 
Q 291.50625 33.8 291.50625 35.8 
L 291.50625 78.834375 
Q 291.50625 80.834375 293.50625 80.834375 
z
" style="fill: #ffffff; opacity: 0.8; stroke: #cccccc; stroke-linejoin: miter"/>
    </g>
    <g id="line2d_17">
     <path d="M 295.50625 41.898438 
L 305.50625 41.898438 
L 315.50625 41.898438 
" style="fill: none; stroke: #708090; stroke-width: 1.5; stroke-linecap: square"/>
    </g>
    <g id="text_17">
     <!-- Episodes score -->
     <g transform="translate(323.50625 45.398438)scale(0.1 -0.1)">
      <use xlink:href="#DejaVuSans-45"/>
      <use xlink:href="#DejaVuSans-70" x="63.183594"/>
      <use xlink:href="#DejaVuSans-69" x="126.660156"/>
      <use xlink:href="#DejaVuSans-73" x="154.443359"/>
      <use xlink:href="#DejaVuSans-6f" x="206.542969"/>
      <use xlink:href="#DejaVuSans-64" x="267.724609"/>
      <use xlink:href="#DejaVuSans-65" x="331.201172"/>
      <use xlink:href="#DejaVuSans-73" x="392.724609"/>
      <use xlink:href="#DejaVuSans-20" x="444.824219"/>
      <use xlink:href="#DejaVuSans-73" x="476.611328"/>
      <use xlink:href="#DejaVuSans-63" x="528.710938"/>
      <use xlink:href="#DejaVuSans-6f" x="583.691406"/>
      <use xlink:href="#DejaVuSans-72" x="644.873047"/>
      <use xlink:href="#DejaVuSans-65" x="683.736328"/>
     </g>
    </g>
    <g id="line2d_18">
     <path d="M 295.50625 56.576563 
L 305.50625 56.576563 
L 315.50625 56.576563 
" style="fill: none; stroke: #000080; stroke-width: 1.5; stroke-linecap: square"/>
    </g>
    <g id="text_18">
     <!-- Moving average of scores -->
     <g transform="translate(323.50625 60.076563)scale(0.1 -0.1)">
      <defs>
       <path id="DejaVuSans-4d" d="M 628 4666 
L 1569 4666 
L 2759 1491 
L 3956 4666 
L 4897 4666 
L 4897 0 
L 4281 0 
L 4281 4097 
L 3078 897 
L 2444 897 
L 1241 4097 
L 1241 0 
L 628 0 
L 628 4666 
z
" transform="scale(0.015625)"/>
       <path id="DejaVuSans-76" d="M 191 3500 
L 800 3500 
L 1894 563 
L 2988 3500 
L 3597 3500 
L 2284 0 
L 1503 0 
L 191 3500 
z
" transform="scale(0.015625)"/>
       <path id="DejaVuSans-6e" d="M 3513 2113 
L 3513 0 
L 2938 0 
L 2938 2094 
Q 2938 2591 2744 2837 
Q 2550 3084 2163 3084 
Q 1697 3084 1428 2787 
Q 1159 2491 1159 1978 
L 1159 0 
L 581 0 
L 581 3500 
L 1159 3500 
L 1159 2956 
Q 1366 3272 1645 3428 
Q 1925 3584 2291 3584 
Q 2894 3584 3203 3211 
Q 3513 2838 3513 2113 
z
" transform="scale(0.015625)"/>
       <path id="DejaVuSans-66" d="M 2375 4863 
L 2375 4384 
L 1825 4384 
Q 1516 4384 1395 4259 
Q 1275 4134 1275 3809 
L 1275 3500 
L 2222 3500 
L 2222 3053 
L 1275 3053 
L 1275 0 
L 697 0 
L 697 3053 
L 147 3053 
L 147 3500 
L 697 3500 
L 697 3744 
Q 697 4328 969 4595 
Q 1241 4863 1831 4863 
L 2375 4863 
z
" transform="scale(0.015625)"/>
      </defs>
      <use xlink:href="#DejaVuSans-4d"/>
      <use xlink:href="#DejaVuSans-6f" x="86.279297"/>
      <use xlink:href="#DejaVuSans-76" x="147.460938"/>
      <use xlink:href="#DejaVuSans-69" x="206.640625"/>
      <use xlink:href="#DejaVuSans-6e" x="234.423828"/>
      <use xlink:href="#DejaVuSans-67" x="297.802734"/>
      <use xlink:href="#DejaVuSans-20" x="361.279297"/>
      <use xlink:href="#DejaVuSans-61" x="393.066406"/>
      <use xlink:href="#DejaVuSans-76" x="454.345703"/>
      <use xlink:href="#DejaVuSans-65" x="513.525391"/>
      <use xlink:href="#DejaVuSans-72" x="575.048828"/>
      <use xlink:href="#DejaVuSans-61" x="616.162109"/>
      <use xlink:href="#DejaVuSans-67" x="677.441406"/>
      <use xlink:href="#DejaVuSans-65" x="740.917969"/>
      <use xlink:href="#DejaVuSans-20" x="802.441406"/>
      <use xlink:href="#DejaVuSans-6f" x="834.228516"/>
      <use xlink:href="#DejaVuSans-66" x="895.410156"/>
      <use xlink:href="#DejaVuSans-20" x="930.615234"/>
      <use xlink:href="#DejaVuSans-73" x="962.402344"/>
      <use xlink:href="#DejaVuSans-63" x="1014.501953"/>
      <use xlink:href="#DejaVuSans-6f" x="1069.482422"/>
      <use xlink:href="#DejaVuSans-72" x="1130.664062"/>
      <use xlink:href="#DejaVuSans-65" x="1169.527344"/>
      <use xlink:href="#DejaVuSans-73" x="1231.050781"/>
     </g>
    </g>
    <g id="line2d_19">
     <path d="M 295.50625 71.254687 
L 305.50625 71.254687 
L 315.50625 71.254687 
" style="fill: none; stroke-dasharray: 5.55,2.4; stroke-dashoffset: 0; stroke: #008000; stroke-width: 1.5"/>
    </g>
    <g id="text_19">
     <!-- Game Solved -->
     <g transform="translate(323.50625 74.754687)scale(0.1 -0.1)">
      <defs>
       <path id="DejaVuSans-47" d="M 3809 666 
L 3809 1919 
L 2778 1919 
L 2778 2438 
L 4434 2438 
L 4434 434 
Q 4069 175 3628 42 
Q 3188 -91 2688 -91 
Q 1594 -91 976 548 
Q 359 1188 359 2328 
Q 359 3472 976 4111 
Q 1594 4750 2688 4750 
Q 3144 4750 3555 4637 
Q 3966 4525 4313 4306 
L 4313 3634 
Q 3963 3931 3569 4081 
Q 3175 4231 2741 4231 
Q 1884 4231 1454 3753 
Q 1025 3275 1025 2328 
Q 1025 1384 1454 906 
Q 1884 428 2741 428 
Q 3075 428 3337 486 
Q 3600 544 3809 666 
z
" transform="scale(0.015625)"/>
      </defs>
      <use xlink:href="#DejaVuSans-47"/>
      <use xlink:href="#DejaVuSans-61" x="77.490234"/>
      <use xlink:href="#DejaVuSans-6d" x="138.769531"/>
      <use xlink:href="#DejaVuSans-65" x="236.181641"/>
      <use xlink:href="#DejaVuSans-20" x="297.705078"/>
      <use xlink:href="#DejaVuSans-53" x="329.492188"/>
      <use xlink:href="#DejaVuSans-6f" x="392.96875"/>
      <use xlink:href="#DejaVuSans-6c" x="454.150391"/>
      <use xlink:href="#DejaVuSans-76" x="481.933594"/>
      <use xlink:href="#DejaVuSans-65" x="541.113281"/>
      <use xlink:href="#DejaVuSans-64" x="602.636719"/>
     </g>
    </g>
   </g>
  </g>
  <g id="axes_2">
   <g id="matplotlib.axis_3">
    <g id="ytick_8">
     <g id="line2d_20">
      <defs>
       <path id="m2583d1e688" d="M 0 0 
L 3.5 0 
" style="stroke: #000000; stroke-width: 0.8"/>
      </defs>
      <g>
       <use xlink:href="#m2583d1e688" x="460.825" y="300.356157" style="stroke: #000000; stroke-width: 0.8"/>
      </g>
     </g>
     <g id="text_20">
      <!-- 0 -->
      <g transform="translate(467.825 304.155376)scale(0.1 -0.1)">
       <use xlink:href="#DejaVuSans-30"/>
      </g>
     </g>
    </g>
    <g id="ytick_9">
     <g id="line2d_21">
      <g>
       <use xlink:href="#m2583d1e688" x="460.825" y="248.63038" style="stroke: #000000; stroke-width: 0.8"/>
      </g>
     </g>
     <g id="text_21">
      <!-- 1 -->
      <g transform="translate(467.825 252.429599)scale(0.1 -0.1)">
       <use xlink:href="#DejaVuSans-31"/>
      </g>
     </g>
    </g>
    <g id="ytick_10">
     <g id="line2d_22">
      <g>
       <use xlink:href="#m2583d1e688" x="460.825" y="196.904603" style="stroke: #000000; stroke-width: 0.8"/>
      </g>
     </g>
     <g id="text_22">
      <!-- 2 -->
      <g transform="translate(467.825 200.703822)scale(0.1 -0.1)">
       <use xlink:href="#DejaVuSans-32"/>
      </g>
     </g>
    </g>
    <g id="ytick_11">
     <g id="line2d_23">
      <g>
       <use xlink:href="#m2583d1e688" x="460.825" y="145.178827" style="stroke: #000000; stroke-width: 0.8"/>
      </g>
     </g>
     <g id="text_23">
      <!-- 3 -->
      <g transform="translate(467.825 148.978045)scale(0.1 -0.1)">
       <use xlink:href="#DejaVuSans-33"/>
      </g>
     </g>
    </g>
    <g id="ytick_12">
     <g id="line2d_24">
      <g>
       <use xlink:href="#m2583d1e688" x="460.825" y="93.45305" style="stroke: #000000; stroke-width: 0.8"/>
      </g>
     </g>
     <g id="text_24">
      <!-- 4 -->
      <g transform="translate(467.825 97.252268)scale(0.1 -0.1)">
       <use xlink:href="#DejaVuSans-34"/>
      </g>
     </g>
    </g>
    <g id="ytick_13">
     <g id="line2d_25">
      <g>
       <use xlink:href="#m2583d1e688" x="460.825" y="41.727273" style="stroke: #000000; stroke-width: 0.8"/>
      </g>
     </g>
     <g id="text_25">
      <!-- 5 -->
      <g transform="translate(467.825 45.526491)scale(0.1 -0.1)">
       <use xlink:href="#DejaVuSans-35"/>
      </g>
     </g>
    </g>
    <g id="text_26">
     <!-- Temperature -->
     <g transform="translate(489.585156 218.504297)rotate(-90)scale(0.15 -0.15)">
      <defs>
       <path id="DejaVuSans-54" d="M -19 4666 
L 3928 4666 
L 3928 4134 
L 2272 4134 
L 2272 0 
L 1638 0 
L 1638 4134 
L -19 4134 
L -19 4666 
z
" transform="scale(0.015625)"/>
       <path id="DejaVuSans-74" d="M 1172 4494 
L 1172 3500 
L 2356 3500 
L 2356 3053 
L 1172 3053 
L 1172 1153 
Q 1172 725 1289 603 
Q 1406 481 1766 481 
L 2356 481 
L 2356 0 
L 1766 0 
Q 1100 0 847 248 
Q 594 497 594 1153 
L 594 3053 
L 172 3053 
L 172 3500 
L 594 3500 
L 594 4494 
L 1172 4494 
z
" transform="scale(0.015625)"/>
       <path id="DejaVuSans-75" d="M 544 1381 
L 544 3500 
L 1119 3500 
L 1119 1403 
Q 1119 906 1312 657 
Q 1506 409 1894 409 
Q 2359 409 2629 706 
Q 2900 1003 2900 1516 
L 2900 3500 
L 3475 3500 
L 3475 0 
L 2900 0 
L 2900 538 
Q 2691 219 2414 64 
Q 2138 -91 1772 -91 
Q 1169 -91 856 284 
Q 544 659 544 1381 
z
M 1991 3584 
L 1991 3584 
z
" transform="scale(0.015625)"/>
      </defs>
      <use xlink:href="#DejaVuSans-54"/>
      <use xlink:href="#DejaVuSans-65" x="44.083984"/>
      <use xlink:href="#DejaVuSans-6d" x="105.607422"/>
      <use xlink:href="#DejaVuSans-70" x="203.019531"/>
      <use xlink:href="#DejaVuSans-65" x="266.496094"/>
      <use xlink:href="#DejaVuSans-72" x="328.019531"/>
      <use xlink:href="#DejaVuSans-61" x="369.132812"/>
      <use xlink:href="#DejaVuSans-74" x="430.412109"/>
      <use xlink:href="#DejaVuSans-75" x="469.621094"/>
      <use xlink:href="#DejaVuSans-72" x="533"/>
      <use xlink:href="#DejaVuSans-65" x="571.863281"/>
     </g>
    </g>
   </g>
   <g id="line2d_26">
    <path d="M 74.329545 41.727273 
L 77.64568 59.796179 
L 80.961814 76.602714 
L 84.277948 92.235075 
L 87.594083 106.775292 
L 90.910217 120.299669 
L 94.226351 132.879175 
L 97.542486 144.579825 
L 100.85862 155.463017 
L 104.174754 165.585863 
L 107.490889 175.001485 
L 110.807023 183.759292 
L 114.123157 191.905241 
L 117.439292 199.48208 
L 120.755426 206.529569 
L 124.07156 213.084691 
L 127.387695 219.181844 
L 130.703829 224.853024 
L 134.019963 230.127992 
L 137.704557 235.557975 
L 141.389151 240.568116 
L 145.073744 245.190878 
L 148.758338 249.456211 
L 152.442932 253.391752 
L 156.127525 257.023001 
L 160.180578 260.693942 
L 164.233631 264.053901 
L 168.286684 267.129223 
L 172.339737 269.944021 
L 176.76125 272.743467 
L 181.182762 275.285223 
L 185.972734 277.775454 
L 190.762706 280.018336 
L 195.921137 282.185254 
L 201.448028 284.251415 
L 206.974918 286.082639 
L 212.870268 287.807033 
L 219.134077 289.41153 
L 225.766346 290.887385 
L 233.135533 292.295013 
L 240.87318 293.548388 
L 249.347745 294.698674 
L 258.927689 295.766744 
L 269.613011 296.721977 
L 281.403711 297.547031 
L 295.036707 298.270409 
L 310.88046 298.880507 
L 330.040347 299.385086 
L 353.990206 299.780603 
L 385.677712 300.068067 
L 432.840511 300.253311 
L 442.420455 300.272727 
L 442.420455 300.272727 
" clip-path="url(#p42fe28b652)" style="fill: none; stroke: #ff0000; stroke-width: 1.5; stroke-linecap: square"/>
   </g>
   <g id="patch_8">
    <path d="M 55.925 313.2 
L 55.925 28.8 
" style="fill: none; stroke: #000000; stroke-width: 0.8; stroke-linejoin: miter; stroke-linecap: square"/>
   </g>
   <g id="patch_9">
    <path d="M 460.825 313.2 
L 460.825 28.8 
" style="fill: none; stroke: #000000; stroke-width: 0.8; stroke-linejoin: miter; stroke-linecap: square"/>
   </g>
   <g id="patch_10">
    <path d="M 55.925 313.2 
L 460.825 313.2 
" style="fill: none; stroke: #000000; stroke-width: 0.8; stroke-linejoin: miter; stroke-linecap: square"/>
   </g>
   <g id="patch_11">
    <path d="M 55.925 28.8 
L 460.825 28.8 
" style="fill: none; stroke: #000000; stroke-width: 0.8; stroke-linejoin: miter; stroke-linecap: square"/>
   </g>
   <g id="legend_2">
    <g id="patch_12">
     <path d="M 62.925 51.478125 
L 158.264063 51.478125 
Q 160.264063 51.478125 160.264063 49.478125 
L 160.264063 35.8 
Q 160.264063 33.8 158.264063 33.8 
L 62.925 33.8 
Q 60.925 33.8 60.925 35.8 
L 60.925 49.478125 
Q 60.925 51.478125 62.925 51.478125 
z
" style="fill: #ffffff; opacity: 0.8; stroke: #cccccc; stroke-linejoin: miter"/>
    </g>
    <g id="line2d_27">
     <path d="M 64.925 41.898438 
L 74.925 41.898438 
L 84.925 41.898438 
" style="fill: none; stroke: #ff0000; stroke-width: 1.5; stroke-linecap: square"/>
    </g>
    <g id="text_27">
     <!-- Temperature -->
     <g transform="translate(92.925 45.398438)scale(0.1 -0.1)">
      <use xlink:href="#DejaVuSans-54"/>
      <use xlink:href="#DejaVuSans-65" x="44.083984"/>
      <use xlink:href="#DejaVuSans-6d" x="105.607422"/>
      <use xlink:href="#DejaVuSans-70" x="203.019531"/>
      <use xlink:href="#DejaVuSans-65" x="266.496094"/>
      <use xlink:href="#DejaVuSans-72" x="328.019531"/>
      <use xlink:href="#DejaVuSans-61" x="369.132812"/>
      <use xlink:href="#DejaVuSans-74" x="430.412109"/>
      <use xlink:href="#DejaVuSans-75" x="469.621094"/>
      <use xlink:href="#DejaVuSans-72" x="533"/>
      <use xlink:href="#DejaVuSans-65" x="571.863281"/>
     </g>
    </g>
   </g>
  </g>
 </g>
 <defs>
  <clipPath id="p42fe28b652">
   <rect x="55.925" y="28.8" width="404.9" height="284.4"/>
  </clipPath>
 </defs>
</svg>
