<?xml version="1.0" encoding="utf-8" standalone="no"?>
<!DOCTYPE svg PUBLIC "-//W3C//DTD SVG 1.1//EN"
  "http://www.w3.org/Graphics/SVG/1.1/DTD/svg11.dtd">
<svg xmlns:xlink="http://www.w3.org/1999/xlink" width="504pt" height="360pt" viewBox="0 0 504 360" xmlns="http://www.w3.org/2000/svg" version="1.1">
 <metadata>
  <rdf:RDF xmlns:dc="http://purl.org/dc/elements/1.1/" xmlns:cc="http://creativecommons.org/ns#" xmlns:rdf="http://www.w3.org/1999/02/22-rdf-syntax-ns#">
   <cc:Work>
    <dc:type rdf:resource="http://purl.org/dc/dcmitype/StillImage"/>
    <dc:date>2022-07-28T20:50:48.664392</dc:date>
    <dc:format>image/svg+xml</dc:format>
    <dc:creator>
     <cc:Agent>
      <dc:title>Matplotlib v3.5.1, https://matplotlib.org/</dc:title>
     </cc:Agent>
    </dc:creator>
   </cc:Work>
  </rdf:RDF>
 </metadata>
 <defs>
  <style type="text/css">*{stroke-linejoin: round; stroke-linecap: butt}</style>
 </defs>
 <g id="figure_1">
  <g id="patch_1">
   <path d="M 0 360 
L 504 360 
L 504 0 
L 0 0 
L 0 360 
z
" style="fill: none"/>
  </g>
  <g id="axes_1">
   <g id="patch_2">
    <path d="M 55.925 313.2 
L 460.825 313.2 
L 460.825 28.8 
L 55.925 28.8 
z
" style="fill: #ffffff"/>
   </g>
   <g id="matplotlib.axis_1">
    <g id="xtick_1">
     <g id="line2d_1">
      <defs>
       <path id="mee4c8efc51" d="M 0 0 
L 0 3.5 
" style="stroke: #000000; stroke-width: 0.8"/>
      </defs>
      <g>
       <use xlink:href="#mee4c8efc51" x="74.329545" y="313.2" style="stroke: #000000; stroke-width: 0.8"/>
      </g>
     </g>
     <g id="text_1">
      <!-- 0 -->
      <g transform="translate(71.148295 327.798437)scale(0.1 -0.1)">
       <defs>
        <path id="DejaVuSans-30" d="M 2034 4250 
Q 1547 4250 1301 3770 
Q 1056 3291 1056 2328 
Q 1056 1369 1301 889 
Q 1547 409 2034 409 
Q 2525 409 2770 889 
Q 3016 1369 3016 2328 
Q 3016 3291 2770 3770 
Q 2525 4250 2034 4250 
z
M 2034 4750 
Q 2819 4750 3233 4129 
Q 3647 3509 3647 2328 
Q 3647 1150 3233 529 
Q 2819 -91 2034 -91 
Q 1250 -91 836 529 
Q 422 1150 422 2328 
Q 422 3509 836 4129 
Q 1250 4750 2034 4750 
z
" transform="scale(0.015625)"/>
       </defs>
       <use xlink:href="#DejaVuSans-30"/>
      </g>
     </g>
    </g>
    <g id="xtick_2">
     <g id="line2d_2">
      <g>
       <use xlink:href="#mee4c8efc51" x="148.021419" y="313.2" style="stroke: #000000; stroke-width: 0.8"/>
      </g>
     </g>
     <g id="text_2">
      <!-- 200 -->
      <g transform="translate(138.477669 327.798437)scale(0.1 -0.1)">
       <defs>
        <path id="DejaVuSans-32" d="M 1228 531 
L 3431 531 
L 3431 0 
L 469 0 
L 469 531 
Q 828 903 1448 1529 
Q 2069 2156 2228 2338 
Q 2531 2678 2651 2914 
Q 2772 3150 2772 3378 
Q 2772 3750 2511 3984 
Q 2250 4219 1831 4219 
Q 1534 4219 1204 4116 
Q 875 4013 500 3803 
L 500 4441 
Q 881 4594 1212 4672 
Q 1544 4750 1819 4750 
Q 2544 4750 2975 4387 
Q 3406 4025 3406 3419 
Q 3406 3131 3298 2873 
Q 3191 2616 2906 2266 
Q 2828 2175 2409 1742 
Q 1991 1309 1228 531 
z
" transform="scale(0.015625)"/>
       </defs>
       <use xlink:href="#DejaVuSans-32"/>
       <use xlink:href="#DejaVuSans-30" x="63.623047"/>
       <use xlink:href="#DejaVuSans-30" x="127.246094"/>
      </g>
     </g>
    </g>
    <g id="xtick_3">
     <g id="line2d_3">
      <g>
       <use xlink:href="#mee4c8efc51" x="221.713293" y="313.2" style="stroke: #000000; stroke-width: 0.8"/>
      </g>
     </g>
     <g id="text_3">
      <!-- 400 -->
      <g transform="translate(212.169543 327.798437)scale(0.1 -0.1)">
       <defs>
        <path id="DejaVuSans-34" d="M 2419 4116 
L 825 1625 
L 2419 1625 
L 2419 4116 
z
M 2253 4666 
L 3047 4666 
L 3047 1625 
L 3713 1625 
L 3713 1100 
L 3047 1100 
L 3047 0 
L 2419 0 
L 2419 1100 
L 313 1100 
L 313 1709 
L 2253 4666 
z
" transform="scale(0.015625)"/>
       </defs>
       <use xlink:href="#DejaVuSans-34"/>
       <use xlink:href="#DejaVuSans-30" x="63.623047"/>
       <use xlink:href="#DejaVuSans-30" x="127.246094"/>
      </g>
     </g>
    </g>
    <g id="xtick_4">
     <g id="line2d_4">
      <g>
       <use xlink:href="#mee4c8efc51" x="295.405167" y="313.2" style="stroke: #000000; stroke-width: 0.8"/>
      </g>
     </g>
     <g id="text_4">
      <!-- 600 -->
      <g transform="translate(285.861417 327.798437)scale(0.1 -0.1)">
       <defs>
        <path id="DejaVuSans-36" d="M 2113 2584 
Q 1688 2584 1439 2293 
Q 1191 2003 1191 1497 
Q 1191 994 1439 701 
Q 1688 409 2113 409 
Q 2538 409 2786 701 
Q 3034 994 3034 1497 
Q 3034 2003 2786 2293 
Q 2538 2584 2113 2584 
z
M 3366 4563 
L 3366 3988 
Q 3128 4100 2886 4159 
Q 2644 4219 2406 4219 
Q 1781 4219 1451 3797 
Q 1122 3375 1075 2522 
Q 1259 2794 1537 2939 
Q 1816 3084 2150 3084 
Q 2853 3084 3261 2657 
Q 3669 2231 3669 1497 
Q 3669 778 3244 343 
Q 2819 -91 2113 -91 
Q 1303 -91 875 529 
Q 447 1150 447 2328 
Q 447 3434 972 4092 
Q 1497 4750 2381 4750 
Q 2619 4750 2861 4703 
Q 3103 4656 3366 4563 
z
" transform="scale(0.015625)"/>
       </defs>
       <use xlink:href="#DejaVuSans-36"/>
       <use xlink:href="#DejaVuSans-30" x="63.623047"/>
       <use xlink:href="#DejaVuSans-30" x="127.246094"/>
      </g>
     </g>
    </g>
    <g id="xtick_5">
     <g id="line2d_5">
      <g>
       <use xlink:href="#mee4c8efc51" x="369.09704" y="313.2" style="stroke: #000000; stroke-width: 0.8"/>
      </g>
     </g>
     <g id="text_5">
      <!-- 800 -->
      <g transform="translate(359.55329 327.798437)scale(0.1 -0.1)">
       <defs>
        <path id="DejaVuSans-38" d="M 2034 2216 
Q 1584 2216 1326 1975 
Q 1069 1734 1069 1313 
Q 1069 891 1326 650 
Q 1584 409 2034 409 
Q 2484 409 2743 651 
Q 3003 894 3003 1313 
Q 3003 1734 2745 1975 
Q 2488 2216 2034 2216 
z
M 1403 2484 
Q 997 2584 770 2862 
Q 544 3141 544 3541 
Q 544 4100 942 4425 
Q 1341 4750 2034 4750 
Q 2731 4750 3128 4425 
Q 3525 4100 3525 3541 
Q 3525 3141 3298 2862 
Q 3072 2584 2669 2484 
Q 3125 2378 3379 2068 
Q 3634 1759 3634 1313 
Q 3634 634 3220 271 
Q 2806 -91 2034 -91 
Q 1263 -91 848 271 
Q 434 634 434 1313 
Q 434 1759 690 2068 
Q 947 2378 1403 2484 
z
M 1172 3481 
Q 1172 3119 1398 2916 
Q 1625 2713 2034 2713 
Q 2441 2713 2670 2916 
Q 2900 3119 2900 3481 
Q 2900 3844 2670 4047 
Q 2441 4250 2034 4250 
Q 1625 4250 1398 4047 
Q 1172 3844 1172 3481 
z
" transform="scale(0.015625)"/>
       </defs>
       <use xlink:href="#DejaVuSans-38"/>
       <use xlink:href="#DejaVuSans-30" x="63.623047"/>
       <use xlink:href="#DejaVuSans-30" x="127.246094"/>
      </g>
     </g>
    </g>
    <g id="xtick_6">
     <g id="line2d_6">
      <g>
       <use xlink:href="#mee4c8efc51" x="442.788914" y="313.2" style="stroke: #000000; stroke-width: 0.8"/>
      </g>
     </g>
     <g id="text_6">
      <!-- 1000 -->
      <g transform="translate(430.063914 327.798437)scale(0.1 -0.1)">
       <defs>
        <path id="DejaVuSans-31" d="M 794 531 
L 1825 531 
L 1825 4091 
L 703 3866 
L 703 4441 
L 1819 4666 
L 2450 4666 
L 2450 531 
L 3481 531 
L 3481 0 
L 794 0 
L 794 531 
z
" transform="scale(0.015625)"/>
       </defs>
       <use xlink:href="#DejaVuSans-31"/>
       <use xlink:href="#DejaVuSans-30" x="63.623047"/>
       <use xlink:href="#DejaVuSans-30" x="127.246094"/>
       <use xlink:href="#DejaVuSans-30" x="190.869141"/>
      </g>
     </g>
    </g>
    <g id="text_7">
     <!-- Episode -->
     <g transform="translate(228.91875 345.275781)scale(0.15 -0.15)">
      <defs>
       <path id="DejaVuSans-45" d="M 628 4666 
L 3578 4666 
L 3578 4134 
L 1259 4134 
L 1259 2753 
L 3481 2753 
L 3481 2222 
L 1259 2222 
L 1259 531 
L 3634 531 
L 3634 0 
L 628 0 
L 628 4666 
z
" transform="scale(0.015625)"/>
       <path id="DejaVuSans-70" d="M 1159 525 
L 1159 -1331 
L 581 -1331 
L 581 3500 
L 1159 3500 
L 1159 2969 
Q 1341 3281 1617 3432 
Q 1894 3584 2278 3584 
Q 2916 3584 3314 3078 
Q 3713 2572 3713 1747 
Q 3713 922 3314 415 
Q 2916 -91 2278 -91 
Q 1894 -91 1617 61 
Q 1341 213 1159 525 
z
M 3116 1747 
Q 3116 2381 2855 2742 
Q 2594 3103 2138 3103 
Q 1681 3103 1420 2742 
Q 1159 2381 1159 1747 
Q 1159 1113 1420 752 
Q 1681 391 2138 391 
Q 2594 391 2855 752 
Q 3116 1113 3116 1747 
z
" transform="scale(0.015625)"/>
       <path id="DejaVuSans-69" d="M 603 3500 
L 1178 3500 
L 1178 0 
L 603 0 
L 603 3500 
z
M 603 4863 
L 1178 4863 
L 1178 4134 
L 603 4134 
L 603 4863 
z
" transform="scale(0.015625)"/>
       <path id="DejaVuSans-73" d="M 2834 3397 
L 2834 2853 
Q 2591 2978 2328 3040 
Q 2066 3103 1784 3103 
Q 1356 3103 1142 2972 
Q 928 2841 928 2578 
Q 928 2378 1081 2264 
Q 1234 2150 1697 2047 
L 1894 2003 
Q 2506 1872 2764 1633 
Q 3022 1394 3022 966 
Q 3022 478 2636 193 
Q 2250 -91 1575 -91 
Q 1294 -91 989 -36 
Q 684 19 347 128 
L 347 722 
Q 666 556 975 473 
Q 1284 391 1588 391 
Q 1994 391 2212 530 
Q 2431 669 2431 922 
Q 2431 1156 2273 1281 
Q 2116 1406 1581 1522 
L 1381 1569 
Q 847 1681 609 1914 
Q 372 2147 372 2553 
Q 372 3047 722 3315 
Q 1072 3584 1716 3584 
Q 2034 3584 2315 3537 
Q 2597 3491 2834 3397 
z
" transform="scale(0.015625)"/>
       <path id="DejaVuSans-6f" d="M 1959 3097 
Q 1497 3097 1228 2736 
Q 959 2375 959 1747 
Q 959 1119 1226 758 
Q 1494 397 1959 397 
Q 2419 397 2687 759 
Q 2956 1122 2956 1747 
Q 2956 2369 2687 2733 
Q 2419 3097 1959 3097 
z
M 1959 3584 
Q 2709 3584 3137 3096 
Q 3566 2609 3566 1747 
Q 3566 888 3137 398 
Q 2709 -91 1959 -91 
Q 1206 -91 779 398 
Q 353 888 353 1747 
Q 353 2609 779 3096 
Q 1206 3584 1959 3584 
z
" transform="scale(0.015625)"/>
       <path id="DejaVuSans-64" d="M 2906 2969 
L 2906 4863 
L 3481 4863 
L 3481 0 
L 2906 0 
L 2906 525 
Q 2725 213 2448 61 
Q 2172 -91 1784 -91 
Q 1150 -91 751 415 
Q 353 922 353 1747 
Q 353 2572 751 3078 
Q 1150 3584 1784 3584 
Q 2172 3584 2448 3432 
Q 2725 3281 2906 2969 
z
M 947 1747 
Q 947 1113 1208 752 
Q 1469 391 1925 391 
Q 2381 391 2643 752 
Q 2906 1113 2906 1747 
Q 2906 2381 2643 2742 
Q 2381 3103 1925 3103 
Q 1469 3103 1208 2742 
Q 947 2381 947 1747 
z
" transform="scale(0.015625)"/>
       <path id="DejaVuSans-65" d="M 3597 1894 
L 3597 1613 
L 953 1613 
Q 991 1019 1311 708 
Q 1631 397 2203 397 
Q 2534 397 2845 478 
Q 3156 559 3463 722 
L 3463 178 
Q 3153 47 2828 -22 
Q 2503 -91 2169 -91 
Q 1331 -91 842 396 
Q 353 884 353 1716 
Q 353 2575 817 3079 
Q 1281 3584 2069 3584 
Q 2775 3584 3186 3129 
Q 3597 2675 3597 1894 
z
M 3022 2063 
Q 3016 2534 2758 2815 
Q 2500 3097 2075 3097 
Q 1594 3097 1305 2825 
Q 1016 2553 972 2059 
L 3022 2063 
z
" transform="scale(0.015625)"/>
      </defs>
      <use xlink:href="#DejaVuSans-45"/>
      <use xlink:href="#DejaVuSans-70" x="63.183594"/>
      <use xlink:href="#DejaVuSans-69" x="126.660156"/>
      <use xlink:href="#DejaVuSans-73" x="154.443359"/>
      <use xlink:href="#DejaVuSans-6f" x="206.542969"/>
      <use xlink:href="#DejaVuSans-64" x="267.724609"/>
      <use xlink:href="#DejaVuSans-65" x="331.201172"/>
     </g>
    </g>
   </g>
   <g id="matplotlib.axis_2">
    <g id="ytick_1">
     <g id="line2d_7">
      <defs>
       <path id="mf90f51570a" d="M 0 0 
L -3.5 0 
" style="stroke: #000000; stroke-width: 0.8"/>
      </defs>
      <g>
       <use xlink:href="#mf90f51570a" x="55.925" y="313.2" style="stroke: #000000; stroke-width: 0.8"/>
      </g>
     </g>
     <g id="text_8">
      <!-- 0 -->
      <g transform="translate(42.5625 316.999219)scale(0.1 -0.1)">
       <use xlink:href="#DejaVuSans-30"/>
      </g>
     </g>
    </g>
    <g id="ytick_2">
     <g id="line2d_8">
      <g>
       <use xlink:href="#mf90f51570a" x="55.925" y="269.446154" style="stroke: #000000; stroke-width: 0.8"/>
      </g>
     </g>
     <g id="text_9">
      <!-- 100 -->
      <g transform="translate(29.8375 273.245373)scale(0.1 -0.1)">
       <use xlink:href="#DejaVuSans-31"/>
       <use xlink:href="#DejaVuSans-30" x="63.623047"/>
       <use xlink:href="#DejaVuSans-30" x="127.246094"/>
      </g>
     </g>
    </g>
    <g id="ytick_3">
     <g id="line2d_9">
      <g>
       <use xlink:href="#mf90f51570a" x="55.925" y="225.692308" style="stroke: #000000; stroke-width: 0.8"/>
      </g>
     </g>
     <g id="text_10">
      <!-- 200 -->
      <g transform="translate(29.8375 229.491526)scale(0.1 -0.1)">
       <use xlink:href="#DejaVuSans-32"/>
       <use xlink:href="#DejaVuSans-30" x="63.623047"/>
       <use xlink:href="#DejaVuSans-30" x="127.246094"/>
      </g>
     </g>
    </g>
    <g id="ytick_4">
     <g id="line2d_10">
      <g>
       <use xlink:href="#mf90f51570a" x="55.925" y="181.938462" style="stroke: #000000; stroke-width: 0.8"/>
      </g>
     </g>
     <g id="text_11">
      <!-- 300 -->
      <g transform="translate(29.8375 185.73768)scale(0.1 -0.1)">
       <defs>
        <path id="DejaVuSans-33" d="M 2597 2516 
Q 3050 2419 3304 2112 
Q 3559 1806 3559 1356 
Q 3559 666 3084 287 
Q 2609 -91 1734 -91 
Q 1441 -91 1130 -33 
Q 819 25 488 141 
L 488 750 
Q 750 597 1062 519 
Q 1375 441 1716 441 
Q 2309 441 2620 675 
Q 2931 909 2931 1356 
Q 2931 1769 2642 2001 
Q 2353 2234 1838 2234 
L 1294 2234 
L 1294 2753 
L 1863 2753 
Q 2328 2753 2575 2939 
Q 2822 3125 2822 3475 
Q 2822 3834 2567 4026 
Q 2313 4219 1838 4219 
Q 1578 4219 1281 4162 
Q 984 4106 628 3988 
L 628 4550 
Q 988 4650 1302 4700 
Q 1616 4750 1894 4750 
Q 2613 4750 3031 4423 
Q 3450 4097 3450 3541 
Q 3450 3153 3228 2886 
Q 3006 2619 2597 2516 
z
" transform="scale(0.015625)"/>
       </defs>
       <use xlink:href="#DejaVuSans-33"/>
       <use xlink:href="#DejaVuSans-30" x="63.623047"/>
       <use xlink:href="#DejaVuSans-30" x="127.246094"/>
      </g>
     </g>
    </g>
    <g id="ytick_5">
     <g id="line2d_11">
      <g>
       <use xlink:href="#mf90f51570a" x="55.925" y="138.184615" style="stroke: #000000; stroke-width: 0.8"/>
      </g>
     </g>
     <g id="text_12">
      <!-- 400 -->
      <g transform="translate(29.8375 141.983834)scale(0.1 -0.1)">
       <use xlink:href="#DejaVuSans-34"/>
       <use xlink:href="#DejaVuSans-30" x="63.623047"/>
       <use xlink:href="#DejaVuSans-30" x="127.246094"/>
      </g>
     </g>
    </g>
    <g id="ytick_6">
     <g id="line2d_12">
      <g>
       <use xlink:href="#mf90f51570a" x="55.925" y="94.430769" style="stroke: #000000; stroke-width: 0.8"/>
      </g>
     </g>
     <g id="text_13">
      <!-- 500 -->
      <g transform="translate(29.8375 98.229988)scale(0.1 -0.1)">
       <defs>
        <path id="DejaVuSans-35" d="M 691 4666 
L 3169 4666 
L 3169 4134 
L 1269 4134 
L 1269 2991 
Q 1406 3038 1543 3061 
Q 1681 3084 1819 3084 
Q 2600 3084 3056 2656 
Q 3513 2228 3513 1497 
Q 3513 744 3044 326 
Q 2575 -91 1722 -91 
Q 1428 -91 1123 -41 
Q 819 9 494 109 
L 494 744 
Q 775 591 1075 516 
Q 1375 441 1709 441 
Q 2250 441 2565 725 
Q 2881 1009 2881 1497 
Q 2881 1984 2565 2268 
Q 2250 2553 1709 2553 
Q 1456 2553 1204 2497 
Q 953 2441 691 2322 
L 691 4666 
z
" transform="scale(0.015625)"/>
       </defs>
       <use xlink:href="#DejaVuSans-35"/>
       <use xlink:href="#DejaVuSans-30" x="63.623047"/>
       <use xlink:href="#DejaVuSans-30" x="127.246094"/>
      </g>
     </g>
    </g>
    <g id="ytick_7">
     <g id="line2d_13">
      <g>
       <use xlink:href="#mf90f51570a" x="55.925" y="50.676923" style="stroke: #000000; stroke-width: 0.8"/>
      </g>
     </g>
     <g id="text_14">
      <!-- 600 -->
      <g transform="translate(29.8375 54.476142)scale(0.1 -0.1)">
       <use xlink:href="#DejaVuSans-36"/>
       <use xlink:href="#DejaVuSans-30" x="63.623047"/>
       <use xlink:href="#DejaVuSans-30" x="127.246094"/>
      </g>
     </g>
    </g>
    <g id="text_15">
     <!-- Score -->
     <g transform="translate(22.717969 192.003516)rotate(-90)scale(0.15 -0.15)">
      <defs>
       <path id="DejaVuSans-53" d="M 3425 4513 
L 3425 3897 
Q 3066 4069 2747 4153 
Q 2428 4238 2131 4238 
Q 1616 4238 1336 4038 
Q 1056 3838 1056 3469 
Q 1056 3159 1242 3001 
Q 1428 2844 1947 2747 
L 2328 2669 
Q 3034 2534 3370 2195 
Q 3706 1856 3706 1288 
Q 3706 609 3251 259 
Q 2797 -91 1919 -91 
Q 1588 -91 1214 -16 
Q 841 59 441 206 
L 441 856 
Q 825 641 1194 531 
Q 1563 422 1919 422 
Q 2459 422 2753 634 
Q 3047 847 3047 1241 
Q 3047 1584 2836 1778 
Q 2625 1972 2144 2069 
L 1759 2144 
Q 1053 2284 737 2584 
Q 422 2884 422 3419 
Q 422 4038 858 4394 
Q 1294 4750 2059 4750 
Q 2388 4750 2728 4690 
Q 3069 4631 3425 4513 
z
" transform="scale(0.015625)"/>
       <path id="DejaVuSans-63" d="M 3122 3366 
L 3122 2828 
Q 2878 2963 2633 3030 
Q 2388 3097 2138 3097 
Q 1578 3097 1268 2742 
Q 959 2388 959 1747 
Q 959 1106 1268 751 
Q 1578 397 2138 397 
Q 2388 397 2633 464 
Q 2878 531 3122 666 
L 3122 134 
Q 2881 22 2623 -34 
Q 2366 -91 2075 -91 
Q 1284 -91 818 406 
Q 353 903 353 1747 
Q 353 2603 823 3093 
Q 1294 3584 2113 3584 
Q 2378 3584 2631 3529 
Q 2884 3475 3122 3366 
z
" transform="scale(0.015625)"/>
       <path id="DejaVuSans-72" d="M 2631 2963 
Q 2534 3019 2420 3045 
Q 2306 3072 2169 3072 
Q 1681 3072 1420 2755 
Q 1159 2438 1159 1844 
L 1159 0 
L 581 0 
L 581 3500 
L 1159 3500 
L 1159 2956 
Q 1341 3275 1631 3429 
Q 1922 3584 2338 3584 
Q 2397 3584 2469 3576 
Q 2541 3569 2628 3553 
L 2631 2963 
z
" transform="scale(0.015625)"/>
      </defs>
      <use xlink:href="#DejaVuSans-53"/>
      <use xlink:href="#DejaVuSans-63" x="63.476562"/>
      <use xlink:href="#DejaVuSans-6f" x="118.457031"/>
      <use xlink:href="#DejaVuSans-72" x="179.638672"/>
      <use xlink:href="#DejaVuSans-65" x="218.501953"/>
     </g>
    </g>
   </g>
   <g id="line2d_14">
    <path d="M 74.329545 308.824615 
L 74.698005 308.824615 
L 75.066464 304.011692 
L 75.434924 304.449231 
L 75.803383 307.949538 
L 76.171842 298.761231 
L 76.540302 301.386462 
L 76.908761 297.886154 
L 77.27722 306.636923 
L 77.64568 307.949538 
L 78.014139 307.512 
L 78.382599 307.949538 
L 78.751058 307.074462 
L 79.119517 307.512 
L 79.487977 299.198769 
L 79.856436 304.886769 
L 80.224895 285.635077 
L 80.593355 307.949538 
L 80.961814 302.261538 
L 81.330273 304.449231 
L 81.698733 305.324308 
L 82.067192 304.886769 
L 82.435652 307.512 
L 82.804111 298.761231 
L 83.17257 306.636923 
L 83.54103 297.011077 
L 84.277948 306.636923 
L 84.646408 307.512 
L 85.383327 303.574154 
L 85.751786 304.011692 
L 86.120245 307.074462 
L 86.857164 303.136615 
L 87.225623 307.949538 
L 87.594083 307.074462 
L 88.331001 300.948923 
L 88.699461 309.262154 
L 89.06792 298.761231 
L 89.43638 303.136615 
L 89.804839 305.324308 
L 90.173298 309.699692 
L 90.541758 306.199385 
L 90.910217 307.949538 
L 91.278676 302.261538 
L 91.647136 307.074462 
L 92.015595 307.512 
L 92.384055 304.886769 
L 92.752514 297.011077 
L 93.120973 295.698462 
L 93.489433 306.199385 
L 93.857892 306.199385 
L 94.226351 280.822154 
L 94.594811 308.824615 
L 94.96327 301.824 
L 95.331729 307.074462 
L 95.700189 300.073846 
L 96.437108 304.886769 
L 96.805567 303.136615 
L 97.174026 307.512 
L 97.542486 300.948923 
L 97.910945 299.636308 
L 98.279404 304.886769 
L 98.647864 307.512 
L 99.016323 307.949538 
L 99.384783 304.449231 
L 99.753242 306.199385 
L 100.121701 302.699077 
L 100.490161 302.699077 
L 100.85862 307.074462 
L 101.227079 306.199385 
L 101.595539 297.448615 
L 101.963998 298.323692 
L 102.332457 304.886769 
L 102.700917 302.261538 
L 103.069376 294.385846 
L 103.437836 307.074462 
L 103.806295 290.885538 
L 104.174754 286.947692 
L 104.543214 303.574154 
L 104.911673 304.449231 
L 105.280132 305.761846 
L 105.648592 305.761846 
L 106.017051 306.636923 
L 106.385511 304.011692 
L 106.75397 304.886769 
L 107.122429 299.198769 
L 107.490889 306.636923 
L 107.859348 304.886769 
L 108.227807 306.636923 
L 108.596267 298.323692 
L 108.964726 305.761846 
L 109.333185 306.636923 
L 109.701645 301.386462 
L 110.070104 307.512 
L 110.438564 305.324308 
L 110.807023 304.449231 
L 111.175482 307.512 
L 111.543942 307.949538 
L 111.912401 297.011077 
L 112.28086 309.262154 
L 112.64932 307.512 
L 113.017779 301.824 
L 113.754698 308.387077 
L 114.123157 304.886769 
L 114.491617 307.949538 
L 114.860076 301.386462 
L 115.228535 308.387077 
L 115.596995 299.636308 
L 115.965454 305.761846 
L 116.333913 307.949538 
L 116.702373 300.948923 
L 117.070832 299.198769 
L 117.439292 284.76 
L 117.807751 305.324308 
L 118.17621 302.699077 
L 118.54467 307.512 
L 118.913129 305.324308 
L 119.281588 305.761846 
L 119.650048 299.198769 
L 120.018507 299.198769 
L 120.386967 305.324308 
L 120.755426 295.698462 
L 121.123885 305.761846 
L 121.492345 307.949538 
L 121.860804 306.199385 
L 122.229263 300.948923 
L 122.597723 306.199385 
L 122.966182 300.511385 
L 123.334641 307.074462 
L 123.703101 306.636923 
L 124.07156 297.011077 
L 124.44002 304.886769 
L 124.808479 305.761846 
L 125.545398 308.824615 
L 125.913857 299.198769 
L 126.282316 296.136 
L 126.650776 304.011692 
L 127.019235 300.948923 
L 127.387695 299.198769 
L 127.756154 305.761846 
L 128.124613 302.699077 
L 128.493073 304.011692 
L 128.861532 307.512 
L 129.229991 289.135385 
L 129.598451 303.136615 
L 129.96691 305.761846 
L 130.335369 307.074462 
L 130.703829 305.761846 
L 131.440748 300.073846 
L 131.809207 301.386462 
L 132.177666 304.449231 
L 132.546126 301.824 
L 132.914585 306.199385 
L 133.283044 295.698462 
L 133.651504 304.011692 
L 134.019963 300.073846 
L 134.388423 300.073846 
L 134.756882 305.761846 
L 135.125341 306.199385 
L 135.493801 299.636308 
L 135.86226 301.824 
L 136.230719 300.073846 
L 136.599179 305.761846 
L 136.967638 305.324308 
L 137.336097 296.136 
L 138.073016 307.512 
L 138.441476 307.512 
L 138.809935 303.574154 
L 139.178394 294.385846 
L 139.546854 307.512 
L 139.915313 300.073846 
L 140.283772 305.324308 
L 140.652232 297.011077 
L 141.020691 302.261538 
L 141.389151 302.261538 
L 141.75761 305.761846 
L 142.126069 292.198154 
L 142.494529 304.449231 
L 143.231447 297.011077 
L 143.599907 307.074462 
L 143.968366 306.199385 
L 144.336825 299.198769 
L 144.705285 296.573538 
L 145.442204 305.324308 
L 145.810663 301.824 
L 146.179122 306.636923 
L 146.547582 307.512 
L 146.916041 307.949538 
L 147.2845 306.636923 
L 147.65296 304.011692 
L 148.021419 299.198769 
L 148.389879 306.636923 
L 148.758338 309.262154 
L 149.495257 297.886154 
L 149.863716 307.074462 
L 150.232175 301.824 
L 150.600635 286.510154 
L 150.969094 307.512 
L 151.337553 307.074462 
L 151.706013 290.885538 
L 152.074472 306.199385 
L 152.442932 305.324308 
L 152.811391 306.636923 
L 153.17985 290.885538 
L 153.54831 306.199385 
L 153.916769 290.448 
L 154.285228 294.823385 
L 154.653688 304.011692 
L 155.022147 304.886769 
L 155.390607 301.824 
L 156.127525 306.199385 
L 156.864444 300.073846 
L 157.232903 294.385846 
L 157.601363 304.886769 
L 157.969822 305.761846 
L 158.338281 300.511385 
L 159.0752 306.199385 
L 159.812119 306.199385 
L 160.180578 302.261538 
L 160.549038 307.512 
L 160.917497 304.886769 
L 161.285956 294.385846 
L 161.654416 305.324308 
L 162.022875 287.385231 
L 162.391335 305.761846 
L 162.759794 299.636308 
L 163.128253 288.260308 
L 163.496713 291.760615 
L 163.865172 296.573538 
L 164.233631 295.260923 
L 164.602091 308.387077 
L 164.97055 293.510769 
L 165.339009 304.011692 
L 166.075928 295.260923 
L 166.444388 307.074462 
L 166.812847 305.761846 
L 167.181306 307.074462 
L 167.549766 305.761846 
L 167.918225 285.635077 
L 168.286684 303.574154 
L 168.655144 297.011077 
L 169.023603 301.386462 
L 169.392063 301.386462 
L 169.760522 305.761846 
L 170.128981 291.323077 
L 170.8659 288.697846 
L 171.234359 305.324308 
L 171.602819 303.574154 
L 171.971278 294.823385 
L 172.339737 304.449231 
L 172.708197 261.570462 
L 173.076656 303.136615 
L 173.813575 299.636308 
L 174.182034 304.011692 
L 174.550494 302.699077 
L 174.918953 302.261538 
L 175.287412 298.761231 
L 175.655872 307.949538 
L 176.024331 290.885538 
L 176.392791 307.074462 
L 176.76125 307.074462 
L 177.129709 293.510769 
L 177.498169 307.074462 
L 177.866628 302.261538 
L 178.235087 293.510769 
L 178.603547 305.324308 
L 178.972006 302.699077 
L 179.340465 304.011692 
L 179.708925 307.949538 
L 180.077384 290.448 
L 180.445844 304.886769 
L 180.814303 305.761846 
L 181.182762 305.761846 
L 181.551222 296.573538 
L 181.919681 302.261538 
L 182.28814 299.636308 
L 182.6566 283.884923 
L 183.025059 297.011077 
L 183.393519 303.574154 
L 184.130437 279.509538 
L 184.498897 285.197538 
L 184.867356 304.011692 
L 185.235815 277.759385 
L 185.604275 305.761846 
L 186.341193 290.010462 
L 187.078112 300.511385 
L 187.446572 297.448615 
L 187.815031 282.134769 
L 188.18349 304.011692 
L 188.55195 297.886154 
L 188.920409 300.073846 
L 189.288868 304.449231 
L 189.657328 299.198769 
L 190.025787 302.699077 
L 190.394247 288.697846 
L 190.762706 307.074462 
L 191.131165 300.511385 
L 191.499625 297.011077 
L 191.868084 290.010462 
L 192.236543 295.260923 
L 192.605003 283.447385 
L 192.973462 304.449231 
L 193.341921 302.699077 
L 193.710381 276.009231 
L 194.07884 297.448615 
L 194.815759 283.447385 
L 195.184218 301.386462 
L 195.552678 293.948308 
L 195.921137 303.574154 
L 196.289596 286.510154 
L 196.658056 306.636923 
L 197.394975 288.697846 
L 197.763434 287.385231 
L 198.131893 290.448 
L 198.500353 305.324308 
L 198.868812 287.385231 
L 199.237271 293.073231 
L 199.605731 283.884923 
L 200.342649 292.635692 
L 200.711109 299.198769 
L 201.079568 297.011077 
L 201.448028 280.822154 
L 201.816487 298.323692 
L 202.184946 296.573538 
L 202.553406 304.011692 
L 202.921865 301.386462 
L 203.290324 307.512 
L 203.658784 303.136615 
L 204.027243 280.822154 
L 204.395703 294.823385 
L 204.764162 292.198154 
L 205.132621 288.697846 
L 205.501081 283.447385 
L 205.86954 286.072615 
L 206.237999 303.136615 
L 206.606459 297.011077 
L 206.974918 285.197538 
L 207.343377 283.884923 
L 208.080296 302.261538 
L 208.448756 296.573538 
L 208.817215 254.569846 
L 209.185674 293.510769 
L 209.922593 265.945846 
L 210.291052 301.386462 
L 210.659512 293.073231 
L 211.027971 288.697846 
L 211.396431 307.512 
L 211.76489 284.76 
L 212.133349 304.011692 
L 212.501809 303.136615 
L 212.870268 299.636308 
L 213.238727 293.073231 
L 213.607187 294.385846 
L 213.975646 296.573538 
L 214.344105 293.948308 
L 214.712565 293.073231 
L 215.081024 275.571692 
L 215.449484 297.011077 
L 215.817943 286.510154 
L 216.186402 301.386462 
L 216.554862 307.074462 
L 216.923321 292.635692 
L 217.29178 287.385231 
L 217.66024 297.886154 
L 218.397159 279.947077 
L 218.765618 286.510154 
L 219.134077 297.886154 
L 219.502537 277.759385 
L 219.870996 297.886154 
L 220.239455 271.196308 
L 220.607915 262.008 
L 220.976374 256.32 
L 221.344833 258.070154 
L 221.713293 297.886154 
L 222.081752 298.323692 
L 222.450212 287.385231 
L 222.818671 300.948923 
L 223.18713 294.823385 
L 223.55559 258.945231 
L 223.924049 296.573538 
L 224.292508 271.196308 
L 224.660968 298.761231 
L 225.029427 287.822769 
L 225.397887 304.886769 
L 225.766346 302.699077 
L 226.134805 301.386462 
L 226.503265 294.385846 
L 226.871724 294.823385 
L 227.240183 290.885538 
L 227.608643 289.572923 
L 227.977102 299.636308 
L 228.345561 290.885538 
L 228.714021 263.758154 
L 229.08248 297.448615 
L 229.45094 287.822769 
L 229.819399 292.198154 
L 230.187858 279.947077 
L 230.556318 300.511385 
L 230.924777 276.009231 
L 231.293236 288.697846 
L 231.661696 275.571692 
L 232.030155 290.010462 
L 232.398615 291.760615 
L 232.767074 304.886769 
L 233.135533 282.134769 
L 233.503993 290.448 
L 233.872452 292.635692 
L 234.240911 298.761231 
L 234.609371 285.197538 
L 234.97783 294.385846 
L 235.346289 272.946462 
L 235.714749 273.384 
L 236.083208 297.448615 
L 236.451668 297.448615 
L 236.820127 297.886154 
L 237.557046 287.385231 
L 237.925505 275.571692 
L 238.293964 271.633846 
L 238.662424 292.635692 
L 239.030883 281.259692 
L 239.399343 278.196923 
L 239.767802 292.635692 
L 240.136261 289.572923 
L 240.504721 288.697846 
L 240.87318 282.134769 
L 241.241639 289.135385 
L 241.610099 223.942154 
L 241.978558 293.073231 
L 242.347017 293.510769 
L 242.715477 289.572923 
L 243.083936 297.448615 
L 243.452396 285.635077 
L 243.820855 233.568 
L 244.189314 289.135385 
L 244.557774 285.635077 
L 244.926233 286.947692 
L 245.294692 291.760615 
L 245.663152 287.385231 
L 246.031611 277.321846 
L 246.400071 290.885538 
L 246.76853 294.385846 
L 247.136989 290.448 
L 247.505449 279.509538 
L 247.873908 290.885538 
L 248.242367 283.884923 
L 248.610827 293.073231 
L 248.979286 278.634462 
L 249.347745 280.822154 
L 249.716205 290.885538 
L 250.084664 285.197538 
L 250.453124 299.198769 
L 250.821583 284.76 
L 251.190042 286.072615 
L 251.558502 272.508923 
L 251.926961 294.823385 
L 252.29542 284.322462 
L 252.66388 283.009846 
L 253.032339 276.446769 
L 253.400799 280.384615 
L 253.769258 276.884308 
L 254.137717 289.572923 
L 254.506177 293.510769 
L 254.874636 281.259692 
L 255.243095 297.448615 
L 255.611555 273.821538 
L 255.980014 288.260308 
L 256.348473 281.697231 
L 256.716933 286.072615 
L 257.085392 275.571692 
L 257.453852 298.323692 
L 257.822311 275.571692 
L 258.19077 297.011077 
L 258.55923 291.760615 
L 258.927689 293.510769 
L 259.664608 285.635077 
L 260.033067 295.260923 
L 260.401527 288.260308 
L 260.769986 287.822769 
L 261.138445 283.009846 
L 261.506905 291.323077 
L 261.875364 297.011077 
L 262.243823 281.259692 
L 262.612283 285.197538 
L 262.980742 283.884923 
L 263.349201 295.698462 
L 263.717661 290.885538 
L 264.08612 277.321846 
L 264.45458 291.323077 
L 265.191498 279.072 
L 265.559958 272.508923 
L 265.928417 292.635692 
L 266.296876 276.884308 
L 266.665336 287.822769 
L 267.033795 291.760615 
L 267.402255 293.510769 
L 267.770714 287.385231 
L 268.139173 290.885538 
L 268.507633 278.196923 
L 268.876092 277.321846 
L 269.613011 293.510769 
L 269.98147 296.136 
L 270.349929 279.072 
L 271.086848 294.823385 
L 271.455308 272.071385 
L 271.823767 283.884923 
L 272.192226 284.322462 
L 272.560686 294.385846 
L 272.929145 285.197538 
L 273.297604 286.510154 
L 273.666064 255.444923 
L 274.034523 287.385231 
L 274.402983 298.323692 
L 274.771442 292.198154 
L 275.139901 295.260923 
L 275.508361 286.072615 
L 275.87682 297.011077 
L 276.245279 283.447385 
L 276.613739 291.760615 
L 276.982198 288.697846 
L 277.350657 278.196923 
L 277.719117 298.323692 
L 278.087576 283.447385 
L 278.456036 291.760615 
L 278.824495 286.947692 
L 279.192954 293.073231 
L 279.561414 286.947692 
L 279.929873 295.698462 
L 280.298332 284.322462 
L 280.666792 293.073231 
L 281.035251 294.385846 
L 281.403711 292.198154 
L 281.77217 286.072615 
L 282.140629 290.010462 
L 282.509089 290.885538 
L 282.877548 289.572923 
L 283.246007 276.009231 
L 283.614467 299.198769 
L 283.982926 284.76 
L 284.351385 291.760615 
L 284.719845 285.197538 
L 285.088304 289.572923 
L 285.456764 283.447385 
L 285.825223 285.635077 
L 286.193682 268.133538 
L 286.562142 281.697231 
L 286.930601 283.009846 
L 287.29906 275.571692 
L 287.66752 289.135385 
L 288.035979 287.822769 
L 288.404439 281.259692 
L 288.772898 286.510154 
L 289.509817 243.193846 
L 289.878276 276.884308 
L 290.246735 285.635077 
L 290.615195 267.696 
L 290.983654 291.760615 
L 291.352113 298.323692 
L 291.720573 283.884923 
L 292.089032 297.448615 
L 292.457492 282.572308 
L 292.825951 286.510154 
L 293.19441 283.009846 
L 293.56287 282.572308 
L 293.931329 289.572923 
L 294.299788 276.446769 
L 294.668248 290.885538 
L 295.036707 292.635692 
L 295.405167 287.385231 
L 296.142085 261.570462 
L 296.510545 281.259692 
L 296.879004 275.571692 
L 297.247463 290.010462 
L 297.615923 279.509538 
L 297.984382 291.760615 
L 298.352841 295.260923 
L 298.721301 290.448 
L 299.08976 283.884923 
L 299.45822 284.76 
L 299.826679 274.259077 
L 300.195138 293.073231 
L 300.932057 262.008 
L 301.300516 289.572923 
L 301.668976 278.196923 
L 302.037435 258.507692 
L 302.405895 294.823385 
L 302.774354 286.947692 
L 303.142813 282.134769 
L 303.511273 271.633846 
L 303.879732 288.697846 
L 304.248191 286.947692 
L 304.616651 279.947077 
L 304.98511 255.882462 
L 305.353569 272.946462 
L 305.722029 283.884923 
L 306.090488 291.323077 
L 306.458948 295.260923 
L 306.827407 268.133538 
L 307.195866 272.071385 
L 307.564326 255.882462 
L 307.932785 282.572308 
L 308.301244 265.945846 
L 308.669704 276.884308 
L 309.038163 280.384615 
L 309.406623 262.445538 
L 309.775082 288.697846 
L 310.143541 289.572923 
L 310.512001 292.198154 
L 310.88046 284.322462 
L 311.248919 290.448 
L 311.617379 286.072615 
L 311.985838 286.947692 
L 312.354297 292.198154 
L 312.722757 290.010462 
L 313.091216 263.320615 
L 313.459676 295.698462 
L 314.196594 268.133538 
L 314.565054 290.010462 
L 314.933513 282.572308 
L 315.301972 290.010462 
L 315.670432 284.76 
L 316.038891 288.260308 
L 316.407351 294.385846 
L 316.77581 293.073231 
L 317.144269 279.947077 
L 317.512729 282.134769 
L 317.881188 277.759385 
L 318.249647 288.260308 
L 318.618107 277.321846 
L 318.986566 294.823385 
L 319.355025 282.572308 
L 319.723485 291.323077 
L 320.460404 262.445538 
L 320.828863 289.572923 
L 321.197322 277.321846 
L 321.934241 261.570462 
L 322.3027 291.323077 
L 322.67116 282.134769 
L 323.039619 291.323077 
L 323.408079 283.884923 
L 323.776538 287.385231 
L 324.144997 284.322462 
L 324.513457 277.759385 
L 324.881916 293.073231 
L 325.250375 280.384615 
L 325.618835 280.384615 
L 325.987294 282.134769 
L 326.355753 248.006769 
L 326.724213 276.009231 
L 327.092672 280.822154 
L 327.461132 292.635692 
L 327.829591 267.696 
L 328.19805 290.010462 
L 328.56651 292.198154 
L 328.934969 274.259077 
L 329.303428 292.198154 
L 330.040347 278.196923 
L 330.408807 290.010462 
L 330.777266 290.448 
L 331.145725 282.134769 
L 331.514185 286.072615 
L 331.882644 286.510154 
L 332.251103 256.32 
L 332.619563 294.385846 
L 332.988022 288.697846 
L 333.356481 280.384615 
L 333.724941 261.132923 
L 334.0934 285.635077 
L 334.46186 287.385231 
L 334.830319 286.947692 
L 335.198778 282.572308 
L 335.567238 281.259692 
L 335.935697 270.758769 
L 336.304156 287.822769 
L 337.041075 279.072 
L 337.409535 282.134769 
L 337.777994 280.822154 
L 338.146453 257.195077 
L 338.514913 284.322462 
L 338.883372 286.072615 
L 339.251831 276.884308 
L 339.620291 290.010462 
L 339.98875 278.196923 
L 340.357209 293.948308 
L 340.725669 273.821538 
L 341.094128 265.945846 
L 341.462588 280.822154 
L 341.831047 233.130462 
L 342.199506 267.258462 
L 342.567966 290.885538 
L 342.936425 286.947692 
L 343.304884 253.257231 
L 343.673344 242.756308 
L 344.041803 222.192 
L 344.410263 275.571692 
L 345.147181 287.822769 
L 345.515641 273.384 
L 345.8841 237.505846 
L 346.252559 280.384615 
L 346.621019 286.510154 
L 346.989478 290.010462 
L 347.726397 286.072615 
L 348.094856 289.572923 
L 348.463316 219.129231 
L 348.831775 293.948308 
L 349.200234 281.259692 
L 349.568694 251.944615 
L 349.937153 276.884308 
L 350.305612 263.320615 
L 350.674072 291.323077 
L 351.042531 279.947077 
L 351.410991 262.883077 
L 351.77945 286.947692 
L 352.147909 286.072615 
L 352.516369 289.135385 
L 352.884828 273.821538 
L 353.253287 279.072 
L 353.621747 286.072615 
L 353.990206 277.759385 
L 354.358665 252.382154 
L 354.727125 288.697846 
L 355.095584 295.698462 
L 355.464044 244.506462 
L 355.832503 287.822769 
L 356.200962 279.509538 
L 356.569422 289.572923 
L 356.937881 262.445538 
L 357.30634 291.323077 
L 357.6748 285.197538 
L 358.043259 293.510769 
L 358.780178 272.071385 
L 359.148637 282.572308 
L 359.517097 253.257231 
L 359.885556 266.383385 
L 360.254015 274.259077 
L 360.622475 290.448 
L 360.990934 292.198154 
L 361.359393 270.321231 
L 361.727853 286.072615 
L 362.096312 259.382769 
L 362.464772 281.697231 
L 362.833231 251.069538 
L 363.20169 267.696 
L 363.57015 274.696615 
L 363.938609 272.508923 
L 364.307068 278.196923 
L 364.675528 273.384 
L 365.043987 286.947692 
L 365.412447 287.822769 
L 365.780906 285.197538 
L 366.149365 281.259692 
L 366.886284 276.446769 
L 367.254743 287.385231 
L 367.623203 279.947077 
L 367.991662 287.822769 
L 368.360121 286.510154 
L 368.728581 289.572923 
L 369.09704 246.694154 
L 369.4655 289.135385 
L 369.833959 276.446769 
L 370.202418 288.260308 
L 370.570878 282.572308 
L 370.939337 290.885538 
L 371.307796 274.259077 
L 371.676256 273.821538 
L 372.044715 267.258462 
L 372.413175 292.198154 
L 372.781634 264.195692 
L 373.150093 288.697846 
L 373.518553 264.195692 
L 373.887012 275.571692 
L 374.255471 279.072 
L 374.623931 271.633846 
L 374.99239 226.129846 
L 375.360849 290.010462 
L 375.729309 292.635692 
L 376.097768 288.260308 
L 376.466228 278.196923 
L 376.834687 279.072 
L 377.203146 290.885538 
L 377.571606 291.760615 
L 377.940065 292.198154 
L 378.308524 283.447385 
L 378.676984 279.947077 
L 379.045443 285.197538 
L 379.413903 286.947692 
L 379.782362 280.822154 
L 380.150821 282.134769 
L 380.519281 278.196923 
L 381.256199 285.635077 
L 381.624659 270.321231 
L 381.993118 281.697231 
L 382.361577 281.697231 
L 382.730037 286.947692 
L 383.098496 286.947692 
L 383.466956 284.322462 
L 383.835415 270.758769 
L 384.203874 290.448 
L 384.572334 295.698462 
L 384.940793 273.384 
L 385.677712 286.947692 
L 386.046171 291.760615 
L 386.414631 283.447385 
L 386.78309 289.135385 
L 387.151549 291.760615 
L 387.520009 272.071385 
L 387.888468 291.760615 
L 388.256927 278.634462 
L 388.625387 291.323077 
L 388.993846 281.697231 
L 389.362305 282.572308 
L 389.730765 292.198154 
L 390.099224 288.260308 
L 390.467684 290.010462 
L 390.836143 272.946462 
L 391.204602 283.447385 
L 391.573062 288.697846 
L 391.941521 283.447385 
L 392.30998 291.760615 
L 392.67844 289.572923 
L 393.046899 295.260923 
L 393.415359 297.011077 
L 393.783818 269.008615 
L 394.152277 274.696615 
L 394.889196 291.323077 
L 395.257655 287.822769 
L 395.626115 289.135385 
L 395.994574 292.635692 
L 396.363033 257.195077 
L 396.731493 295.698462 
L 397.099952 286.947692 
L 397.468412 258.945231 
L 397.836871 290.885538 
L 398.20533 293.948308 
L 398.57379 285.197538 
L 398.942249 293.510769 
L 399.310708 284.322462 
L 399.679168 288.260308 
L 400.047627 294.385846 
L 400.416087 242.756308 
L 400.784546 287.822769 
L 401.521465 293.948308 
L 401.889924 276.446769 
L 402.258383 290.010462 
L 402.626843 292.198154 
L 402.995302 292.198154 
L 403.363761 287.385231 
L 403.732221 293.073231 
L 404.10068 293.510769 
L 404.46914 286.947692 
L 404.837599 292.198154 
L 405.206058 285.197538 
L 405.574518 283.009846 
L 405.942977 287.385231 
L 406.311436 285.635077 
L 406.679896 287.822769 
L 407.048355 293.510769 
L 407.416815 279.072 
L 407.785274 295.698462 
L 408.153733 285.197538 
L 408.522193 289.135385 
L 408.890652 296.136 
L 409.259111 294.385846 
L 409.627571 260.257846 
L 409.99603 290.010462 
L 410.364489 296.573538 
L 410.732949 256.757538 
L 411.101408 289.135385 
L 411.469868 288.260308 
L 411.838327 272.508923 
L 412.206786 293.948308 
L 412.575246 290.885538 
L 412.943705 291.760615 
L 413.312164 290.885538 
L 413.680624 296.136 
L 414.049083 293.510769 
L 414.417543 289.135385 
L 414.786002 289.572923 
L 415.154461 235.755692 
L 415.522921 270.758769 
L 415.89138 294.385846 
L 416.259839 281.697231 
L 416.628299 289.572923 
L 416.996758 216.941538 
L 417.365217 286.510154 
L 417.733677 293.510769 
L 418.102136 291.323077 
L 418.470596 296.136 
L 418.839055 286.072615 
L 419.207514 287.822769 
L 419.575974 269.008615 
L 419.944433 297.448615 
L 420.312892 281.259692 
L 420.681352 295.260923 
L 421.049811 275.134154 
L 421.78673 297.886154 
L 422.155189 289.135385 
L 422.523649 290.010462 
L 422.892108 297.886154 
L 423.260567 293.510769 
L 423.629027 280.822154 
L 423.997486 292.198154 
L 424.365945 297.448615 
L 424.734405 282.134769 
L 425.471324 297.011077 
L 425.839783 295.260923 
L 426.208242 269.008615 
L 426.576702 267.258462 
L 426.945161 295.260923 
L 427.31362 295.260923 
L 427.68208 297.448615 
L 428.050539 270.321231 
L 428.418999 272.508923 
L 428.787458 296.136 
L 429.155917 289.135385 
L 429.524377 276.884308 
L 429.892836 297.886154 
L 430.261295 294.823385 
L 430.629755 295.260923 
L 430.998214 279.509538 
L 431.366673 279.509538 
L 431.735133 276.009231 
L 432.103592 290.010462 
L 432.472052 297.448615 
L 432.840511 299.198769 
L 433.20897 298.323692 
L 433.57743 293.073231 
L 433.945889 280.384615 
L 434.314348 298.323692 
L 434.682808 298.761231 
L 435.051267 298.323692 
L 435.419727 300.511385 
L 435.788186 283.884923 
L 436.156645 288.697846 
L 436.525105 290.885538 
L 436.893564 300.511385 
L 437.262023 300.511385 
L 437.630483 299.636308 
L 437.998942 299.636308 
L 438.367401 289.572923 
L 438.735861 295.260923 
L 439.10432 292.635692 
L 439.47278 289.135385 
L 439.841239 300.511385 
L 440.209698 280.822154 
L 440.578158 299.636308 
L 440.946617 297.011077 
L 441.315076 296.573538 
L 442.051995 289.572923 
L 442.420455 294.823385 
L 442.420455 294.823385 
" clip-path="url(#p8d1ab0af8c)" style="fill: none; stroke: #708090; stroke-width: 1.5; stroke-linecap: square"/>
   </g>
   <g id="line2d_15">
    <path d="M 74.329545 304.571742 
L 75.066464 304.072948 
L 75.803383 304.151705 
L 76.171842 303.609157 
L 76.540302 303.810425 
L 76.908761 303.819175 
L 77.27722 304.002942 
L 78.382599 303.705415 
L 79.487977 303.486646 
L 80.224895 303.495397 
L 80.593355 303.932935 
L 82.804111 303.906683 
L 83.17257 304.055446 
L 83.54103 303.87168 
L 84.646408 303.862929 
L 85.014867 303.600406 
L 85.383327 303.626658 
L 86.488705 302.9616 
L 88.331001 302.944098 
L 88.699461 303.022855 
L 89.06792 302.821588 
L 89.43638 302.979102 
L 90.173298 303.040357 
L 90.541758 302.812837 
L 92.752514 302.716578 
L 93.489433 303.171618 
L 93.857892 302.987852 
L 94.226351 303.049108 
L 94.594811 303.582905 
L 94.96327 303.442892 
L 97.174026 303.775422 
L 97.542486 303.617908 
L 98.647864 303.801674 
L 99.016323 303.635409 
L 99.384783 303.171618 
L 101.227079 303.241625 
L 101.595539 303.101612 
L 102.332457 303.276628 
L 102.700917 303.092862 
L 103.069376 303.162868 
L 103.437836 303.434142 
L 103.806295 303.41664 
L 104.174754 303.617908 
L 104.543214 304.002942 
L 104.911673 303.941686 
L 105.648592 304.011692 
L 106.017051 303.836677 
L 106.75397 303.836677 
L 107.122429 303.889182 
L 107.490889 304.081698 
L 108.596267 303.705415 
L 108.964726 303.75792 
L 109.701645 303.609157 
L 110.807023 303.609157 
L 111.175482 303.30288 
L 111.912401 303.171618 
L 112.28086 303.372886 
L 116.702373 302.585317 
L 117.439292 302.699077 
L 117.807751 303.040357 
L 118.17621 302.935348 
L 118.913129 302.952849 
L 119.650048 302.699077 
L 120.386967 303.031606 
L 122.597723 302.751582 
L 122.966182 302.672825 
L 123.703101 302.681575 
L 124.07156 302.3928 
L 124.44002 302.541563 
L 125.913857 302.209034 
L 128.124613 302.314043 
L 128.861532 302.489058 
L 129.229991 302.471557 
L 129.598451 302.769083 
L 130.335369 302.707828 
L 131.072288 302.699077 
L 131.440748 302.594068 
L 131.809207 302.73408 
L 132.177666 302.742831 
L 132.546126 302.384049 
L 133.283044 302.515311 
L 133.651504 302.419052 
L 134.388423 302.567815 
L 134.756882 302.699077 
L 135.125341 302.401551 
L 135.493801 302.401551 
L 136.230719 302.077772 
L 136.967638 302.139028 
L 137.336097 302.069022 
L 138.073016 302.305292 
L 138.809935 302.060271 
L 139.178394 301.876505 
L 139.546854 302.086523 
L 140.652232 302.025268 
L 141.389151 302.287791 
L 141.75761 302.366548 
L 142.126069 302.296542 
L 142.494529 302.602818 
L 142.862988 302.611569 
L 143.231447 302.497809 
L 143.599907 302.664074 
L 143.968366 302.270289 
L 144.705285 302.270289 
L 146.179122 301.613982 
L 146.547582 301.648985 
L 146.916041 301.36896 
L 147.65296 301.14144 
L 148.021419 300.966425 
L 148.389879 301.123938 
L 149.495257 301.115188 
L 149.863716 300.870166 
L 150.600635 300.703902 
L 150.969094 301.001428 
L 151.706013 300.852665 
L 152.074472 300.861415 
L 152.811391 300.205108 
L 153.17985 300.178855 
L 153.54831 300.432628 
L 153.916769 300.205108 
L 154.285228 300.485132 
L 154.653688 299.820074 
L 156.127525 299.688812 
L 157.232903 299.583803 
L 157.601363 299.855077 
L 157.969822 299.575052 
L 158.706741 299.732566 
L 159.0752 299.531298 
L 159.812119 299.470043 
L 160.180578 299.216271 
L 160.549038 299.277526 
L 161.285956 299.163766 
L 161.654416 299.43504 
L 162.022875 299.137514 
L 162.391335 299.487545 
L 162.759794 299.487545 
L 163.496713 299.77632 
L 163.865172 299.986338 
L 164.233631 300.047594 
L 164.97055 299.592554 
L 165.339009 299.793822 
L 166.444388 298.909994 
L 166.812847 298.848738 
L 167.181306 298.288689 
L 167.549766 298.262437 
L 167.918225 298.113674 
L 168.286684 298.201182 
L 168.655144 298.026166 
L 169.023603 298.096172 
L 169.392063 298.017415 
L 169.760522 297.632382 
L 170.128981 297.597378 
L 170.8659 297.929908 
L 171.234359 298.244935 
L 172.339737 297.982412 
L 172.708197 298.034917 
L 173.076656 298.813735 
L 174.182034 298.376197 
L 174.550494 297.964911 
L 175.287412 298.008665 
L 175.655872 297.553625 
L 176.024331 297.343606 
L 176.392791 297.326105 
L 176.76125 296.853563 
L 177.129709 296.739803 
L 177.866628 296.678548 
L 178.235087 296.36352 
L 178.603547 296.626043 
L 179.340465 296.171003 
L 180.077384 295.488443 
L 180.445844 295.785969 
L 181.551222 294.744628 
L 182.28814 294.377095 
L 182.6566 294.368345 
L 183.025059 294.630868 
L 183.393519 294.307089 
L 183.761978 294.20208 
L 184.130437 294.342092 
L 184.867356 295.155914 
L 185.235815 295.22592 
L 185.604275 295.733465 
L 185.972734 295.234671 
L 186.341193 295.164665 
L 186.709653 295.208418 
L 187.078112 295.085908 
L 187.815031 294.517108 
L 188.18349 294.937145 
L 188.920409 294.54336 
L 189.657328 293.983311 
L 190.025787 294.044566 
L 190.394247 293.922055 
L 190.762706 293.239495 
L 191.499625 292.583188 
L 191.868084 291.961883 
L 192.236543 292.189403 
L 192.605003 292.145649 
L 193.341921 292.311914 
L 193.710381 291.953132 
L 194.07884 292.513182 
L 194.815759 292.819458 
L 195.184218 293.011975 
L 195.552678 292.871963 
L 195.921137 292.924468 
L 196.289596 292.731951 
L 196.658056 292.863212 
L 197.026515 292.241908 
L 197.763434 292.206905 
L 198.500353 292.819458 
L 198.868812 292.565686 
L 199.605731 292.661945 
L 199.97419 292.758203 
L 200.711109 292.478178 
L 201.079568 292.451926 
L 201.448028 292.066892 
L 201.816487 292.408172 
L 202.553406 291.174314 
L 203.290324 289.354154 
L 204.027243 289.065378 
L 205.132621 289.371655 
L 205.501081 288.776603 
L 205.86954 289.039126 
L 206.237999 288.7416 
L 206.974918 288.470326 
L 207.711837 289.240394 
L 208.080296 289.415409 
L 208.448756 289.257895 
L 208.817215 289.222892 
L 209.185674 289.949206 
L 209.554134 289.870449 
L 210.291052 290.736775 
L 210.659512 289.984209 
L 211.396431 290.054215 
L 211.76489 289.747938 
L 212.501809 289.581674 
L 212.870268 289.039126 
L 213.238727 288.820357 
L 213.607187 288.470326 
L 214.344105 288.28656 
L 214.712565 288.505329 
L 215.081024 288.28656 
L 215.449484 288.584086 
L 215.817943 288.496578 
L 216.186402 288.7416 
L 217.66024 287.49024 
L 218.028699 287.481489 
L 218.397159 287.656505 
L 218.765618 288.015286 
L 219.134077 288.120295 
L 219.502537 287.910277 
L 219.870996 287.866523 
L 220.239455 287.341477 
L 221.344833 288.592837 
L 221.713293 289.284148 
L 223.18713 288.584086 
L 223.55559 287.166462 
L 223.924049 287.849022 
L 224.292508 287.787766 
L 224.660968 288.155298 
L 225.397887 288.085292 
L 225.766346 286.658917 
L 226.871724 285.923852 
L 227.608643 285.792591 
L 228.345561 285.372554 
L 228.714021 285.44256 
L 229.08248 285.976357 
L 229.45094 285.617575 
L 229.819399 285.678831 
L 230.187858 285.512566 
L 230.556318 285.775089 
L 230.924777 285.337551 
L 232.030155 285.67008 
L 232.398615 285.853846 
L 232.767074 285.713834 
L 233.135533 285.337551 
L 233.503993 285.145034 
L 233.872452 285.232542 
L 234.240911 285.066277 
L 234.97783 284.576234 
L 235.346289 284.296209 
L 235.714749 284.374966 
L 236.083208 284.698745 
L 236.451668 284.619988 
L 236.820127 284.296209 
L 237.188586 284.287458 
L 237.557046 283.928677 
L 238.293964 284.068689 
L 238.662424 284.357465 
L 239.030883 284.016185 
L 239.399343 284.357465 
L 239.767802 284.30496 
L 241.241639 284.681243 
L 241.610099 284.611237 
L 241.978558 286.037612 
L 243.452396 285.573822 
L 243.820855 285.801342 
L 244.189314 286.755175 
L 244.926233 286.641415 
L 245.294692 286.816431 
L 245.663152 286.798929 
L 246.031611 286.597662 
L 246.400071 286.877686 
L 246.76853 286.746425 
L 247.505449 286.081366 
L 247.873908 286.343889 
L 248.242367 286.063865 
L 248.979286 286.116369 
L 249.347745 286.413895 
L 249.716205 286.545157 
L 250.084664 286.545157 
L 250.453124 286.405145 
L 250.821583 285.967606 
L 251.190042 285.985108 
L 251.558502 286.133871 
L 251.926961 286.606412 
L 252.29542 286.291385 
L 252.66388 286.361391 
L 253.032339 286.597662 
L 253.400799 286.510154 
L 254.506177 286.825182 
L 254.874636 286.658917 
L 255.243095 286.763926 
L 255.611555 285.923852 
L 256.716933 286.606412 
L 257.453852 287.000197 
L 257.822311 286.973945 
L 258.19077 287.131458 
L 258.927689 286.965194 
L 259.296148 286.658917 
L 259.664608 286.833932 
L 260.769986 286.69392 
L 261.875364 286.965194 
L 262.243823 286.711422 
L 263.349201 287.297723 
L 263.717661 287.105206 
L 264.08612 287.087705 
L 264.45458 287.358978 
L 264.823039 287.323975 
L 265.191498 287.157711 
L 265.928417 287.805268 
L 266.296876 287.787766 
L 266.665336 287.954031 
L 267.033795 287.989034 
L 267.770714 287.665255 
L 268.139173 287.280222 
L 268.507633 287.096455 
L 268.876092 287.192714 
L 269.98147 287.113957 
L 270.349929 286.816431 
L 270.718389 286.965194 
L 271.086848 286.4664 
L 271.455308 285.433809 
L 272.192226 285.565071 
L 272.560686 285.232542 
L 272.929145 285.180037 
L 273.297604 285.44256 
L 273.666064 285.390055 
L 274.034523 286.230129 
L 274.402983 286.133871 
L 275.508361 285.460062 
L 275.87682 285.530068 
L 276.245279 285.118782 
L 276.613739 285.267545 
L 277.350657 285.258794 
L 277.719117 285.206289 
L 278.087576 284.471225 
L 278.456036 284.427471 
L 278.824495 284.103692 
L 279.192954 284.164948 
L 279.561414 283.893674 
L 280.666792 284.103692 
L 281.403711 283.727409 
L 281.77217 283.368628 
L 282.140629 283.50864 
L 282.509089 283.263618 
L 282.877548 282.686068 
L 283.614467 282.729822 
L 283.982926 281.916 
L 284.351385 282.117268 
L 285.088304 281.959754 
L 285.456764 281.600972 
L 286.562142 281.968505 
L 286.930601 281.452209 
L 287.29906 281.250942 
L 287.66752 281.417206 
L 288.404439 281.609723 
L 289.509817 280.918412 
L 289.878276 281.705982 
L 290.615195 281.312197 
L 290.983654 281.565969 
L 291.352113 280.979668 
L 291.720573 280.787151 
L 292.089032 280.900911 
L 292.457492 280.795902 
L 293.56287 280.970917 
L 294.299788 281.110929 
L 294.668248 281.382203 
L 295.036707 280.830905 
L 295.405167 280.89216 
L 296.142085 280.655889 
L 296.510545 281.224689 
L 296.879004 281.250942 
L 297.247463 281.539717 
L 297.615923 281.434708 
L 298.352841 281.662228 
L 298.721301 281.618474 
L 299.08976 281.408455 
L 299.826679 281.23344 
L 300.195138 281.513465 
L 300.563598 281.198437 
L 301.300516 281.951003 
L 302.405895 282.056012 
L 303.142813 281.758486 
L 303.879732 281.320948 
L 304.248191 281.373452 
L 304.616651 281.277194 
L 304.98511 281.504714 
L 305.353569 282.064763 
L 305.722029 282.353538 
L 306.090488 282.362289 
L 306.458948 282.091015 
L 306.827407 282.047262 
L 307.564326 282.458548 
L 307.932785 282.983594 
L 308.301244 282.292283 
L 309.406623 282.817329 
L 310.143541 282.948591 
L 310.512001 283.001095 
L 310.88046 282.642314 
L 311.248919 282.799828 
L 312.354297 282.59856 
L 312.722757 282.563557 
L 313.091216 282.406043 
L 313.459676 282.861083 
L 313.828135 282.677317 
L 314.196594 282.14352 
L 314.565054 282.668566 
L 315.301972 282.59856 
L 315.670432 282.021009 
L 316.407351 282.021009 
L 317.881188 281.46096 
L 318.249647 281.662228 
L 318.618107 281.557218 
L 318.986566 281.592222 
L 319.355025 281.338449 
L 319.723485 281.303446 
L 320.091944 280.620886 
L 320.460404 280.752148 
L 320.828863 281.224689 
L 321.197322 280.970917 
L 321.934241 281.382203 
L 322.3027 282.02976 
L 323.039619 281.355951 
L 323.408079 281.145932 
L 323.776538 280.130843 
L 324.144997 279.728308 
L 324.881916 280.043335 
L 325.618835 278.494449 
L 325.987294 277.330597 
L 326.355753 277.199335 
L 326.724213 277.873145 
L 327.092672 278.109415 
L 327.461132 277.960652 
L 327.829591 276.858055 
L 328.19805 277.111828 
L 328.934969 276.998068 
L 329.303428 277.269342 
L 329.671888 277.146831 
L 330.040347 277.234338 
L 330.408807 276.052985 
L 330.777266 276.131742 
L 331.145725 275.947975 
L 331.514185 275.344172 
L 331.882644 275.160406 
L 332.251103 274.696615 
L 332.619563 275.396677 
L 332.988022 275.107902 
L 333.356481 274.591606 
L 333.724941 274.722868 
L 334.0934 275.221662 
L 334.46186 275.291668 
L 335.198778 274.86288 
L 335.567238 274.932886 
L 335.935697 274.86288 
L 336.304156 274.495348 
L 336.672616 274.512849 
L 337.041075 274.766622 
L 337.409535 274.075311 
L 337.777994 274.189071 
L 338.146453 274.162818 
L 338.514913 274.810375 
L 338.883372 274.372837 
L 340.357209 274.801625 
L 340.725669 274.364086 
L 341.094128 274.539102 
L 341.831047 273.996554 
L 342.199506 274.819126 
L 342.567966 275.282917 
L 342.936425 275.309169 
L 343.304884 274.97664 
L 343.673344 275.632948 
L 344.041803 275.965477 
L 344.410263 277.155582 
L 344.778722 276.665538 
L 345.515641 276.122991 
L 345.8841 276.105489 
L 346.252559 276.919311 
L 346.621019 276.779298 
L 347.357937 276.744295 
L 348.094856 276.595532 
L 348.463316 276.385514 
L 348.831775 277.531865 
L 349.568694 277.374351 
L 349.937153 278.091914 
L 350.305612 278.284431 
L 350.674072 278.809477 
L 351.042531 277.916898 
L 352.147909 278.398191 
L 352.884828 278.363188 
L 353.253287 278.371938 
L 353.621747 278.266929 
L 353.990206 277.890646 
L 354.727125 278.415692 
L 355.095584 278.415692 
L 355.464044 277.785637 
L 355.832503 278.406942 
L 356.569422 278.074412 
L 356.937881 276.805551 
L 357.30634 277.356849 
L 358.043259 277.444357 
L 358.411719 277.13808 
L 358.780178 277.068074 
L 359.148637 277.444357 
L 359.517097 277.628123 
L 359.885556 278.406942 
L 360.254015 278.748222 
L 360.622475 278.861982 
L 361.359393 278.651963 
L 361.727853 278.861982 
L 362.096312 278.783225 
L 362.464772 279.159508 
L 362.833231 279.177009 
L 363.20169 279.86832 
L 363.938609 280.060837 
L 365.043987 280.690892 
L 365.412447 280.638388 
L 365.780906 280.297108 
L 366.149365 280.402117 
L 366.517825 280.690892 
L 366.886284 280.577132 
L 367.991662 280.89216 
L 368.360121 280.804652 
L 369.09704 280.900911 
L 369.4655 281.408455 
L 370.939337 281.548468 
L 371.307796 281.382203 
L 372.413175 282.4848 
L 372.781634 282.099766 
L 373.150093 282.4848 
L 373.518553 282.4848 
L 374.255471 283.193612 
L 374.623931 283.403631 
L 374.99239 283.876172 
L 375.360849 285.293797 
L 376.097768 284.514978 
L 376.466228 284.409969 
L 377.203146 284.847508 
L 377.940065 284.830006 
L 378.308524 284.129945 
L 379.045443 284.514978 
L 379.413903 283.989932 
L 379.782362 284.068689 
L 380.150821 284.331212 
L 380.519281 284.392468 
L 380.88774 284.698745 
L 381.624659 284.786252 
L 381.993118 285.267545 
L 382.361577 284.488726 
L 383.466956 284.830006 
L 383.835415 284.672492 
L 384.203874 285.057526 
L 384.940793 285.022523 
L 385.677712 285.547569 
L 386.046171 285.678831 
L 386.414631 285.582572 
L 386.78309 285.757588 
L 387.520009 285.503815 
L 387.888468 285.810092 
L 388.256927 285.687582 
L 388.625387 285.871348 
L 389.362305 285.862597 
L 389.730765 286.12512 
L 390.099224 285.985108 
L 390.836143 286.12512 
L 391.204602 286.553908 
L 391.573062 286.090117 
L 391.941521 286.116369 
L 392.30998 286.378892 
L 392.67844 285.678831 
L 393.046899 285.67008 
L 393.415359 285.530068 
L 393.783818 285.040025 
L 394.520737 285.862597 
L 394.889196 286.037612 
L 395.257655 286.028862 
L 395.994574 286.282634 
L 396.363033 286.212628 
L 396.731493 286.860185 
L 397.099952 285.661329 
L 397.468412 285.337551 
L 397.836871 286.046363 
L 398.57379 285.775089 
L 398.942249 284.409969 
L 399.310708 284.269957 
L 400.047627 284.514978 
L 400.416087 284.549982 
L 400.784546 285.416308 
L 401.153005 285.416308 
L 401.521465 284.978769 
L 402.626843 285.250043 
L 402.995302 284.908763 
L 403.363761 284.803754 
L 403.732221 285.013772 
L 404.46914 284.865009 
L 404.837599 285.083778 
L 405.206058 285.110031 
L 405.574518 285.022523 
L 406.311436 285.407557 
L 407.048355 285.355052 
L 407.416815 285.425058 
L 407.785274 285.748837 
L 408.522193 284.856258 
L 408.890652 284.978769 
L 409.627571 285.022523 
L 409.99603 285.223791 
L 410.364489 284.87376 
L 410.732949 284.865009 
L 411.101408 285.512566 
L 411.469868 285.267545 
L 411.838327 285.460062 
L 412.206786 285.906351 
L 412.575246 285.932603 
L 414.049083 285.040025 
L 414.417543 285.118782 
L 415.154461 285.495065 
L 415.522921 286.641415 
L 416.996758 287.428985 
L 417.365217 289.100382 
L 418.470596 288.942868 
L 418.839055 289.030375 
L 419.575974 289.555422 
L 419.944433 290.167975 
L 420.312892 290.010462 
L 420.681352 290.290486 
L 421.049811 290.237982 
L 421.78673 290.78928 
L 422.155189 290.448 
L 422.892108 290.798031 
L 423.629027 290.754277 
L 424.365945 290.981797 
L 424.365945 290.981797 
" clip-path="url(#p8d1ab0af8c)" style="fill: none; stroke: #000080; stroke-width: 1.5; stroke-linecap: square"/>
   </g>
   <g id="line2d_16">
    <path d="M 55.925 94.430769 
L 460.825 94.430769 
" clip-path="url(#p8d1ab0af8c)" style="fill: none; stroke-dasharray: 5.55,2.4; stroke-dashoffset: 0; stroke: #008000; stroke-width: 1.5"/>
   </g>
   <g id="patch_3">
    <path d="M 55.925 313.2 
L 55.925 28.8 
" style="fill: none; stroke: #000000; stroke-width: 0.8; stroke-linejoin: miter; stroke-linecap: square"/>
   </g>
   <g id="patch_4">
    <path d="M 460.825 313.2 
L 460.825 28.8 
" style="fill: none; stroke: #000000; stroke-width: 0.8; stroke-linejoin: miter; stroke-linecap: square"/>
   </g>
   <g id="patch_5">
    <path d="M 55.925 313.2 
L 460.825 313.2 
" style="fill: none; stroke: #000000; stroke-width: 0.8; stroke-linejoin: miter; stroke-linecap: square"/>
   </g>
   <g id="patch_6">
    <path d="M 55.925 28.8 
L 460.825 28.8 
" style="fill: none; stroke: #000000; stroke-width: 0.8; stroke-linejoin: miter; stroke-linecap: square"/>
   </g>
   <g id="text_16">
    <!-- gamma = 0.9426315789473685,lr = 0.001 -->
    <g transform="translate(95.179688 22.8)scale(0.15 -0.15)">
     <defs>
      <path id="DejaVuSans-67" d="M 2906 1791 
Q 2906 2416 2648 2759 
Q 2391 3103 1925 3103 
Q 1463 3103 1205 2759 
Q 947 2416 947 1791 
Q 947 1169 1205 825 
Q 1463 481 1925 481 
Q 2391 481 2648 825 
Q 2906 1169 2906 1791 
z
M 3481 434 
Q 3481 -459 3084 -895 
Q 2688 -1331 1869 -1331 
Q 1566 -1331 1297 -1286 
Q 1028 -1241 775 -1147 
L 775 -588 
Q 1028 -725 1275 -790 
Q 1522 -856 1778 -856 
Q 2344 -856 2625 -561 
Q 2906 -266 2906 331 
L 2906 616 
Q 2728 306 2450 153 
Q 2172 0 1784 0 
Q 1141 0 747 490 
Q 353 981 353 1791 
Q 353 2603 747 3093 
Q 1141 3584 1784 3584 
Q 2172 3584 2450 3431 
Q 2728 3278 2906 2969 
L 2906 3500 
L 3481 3500 
L 3481 434 
z
" transform="scale(0.015625)"/>
      <path id="DejaVuSans-61" d="M 2194 1759 
Q 1497 1759 1228 1600 
Q 959 1441 959 1056 
Q 959 750 1161 570 
Q 1363 391 1709 391 
Q 2188 391 2477 730 
Q 2766 1069 2766 1631 
L 2766 1759 
L 2194 1759 
z
M 3341 1997 
L 3341 0 
L 2766 0 
L 2766 531 
Q 2569 213 2275 61 
Q 1981 -91 1556 -91 
Q 1019 -91 701 211 
Q 384 513 384 1019 
Q 384 1609 779 1909 
Q 1175 2209 1959 2209 
L 2766 2209 
L 2766 2266 
Q 2766 2663 2505 2880 
Q 2244 3097 1772 3097 
Q 1472 3097 1187 3025 
Q 903 2953 641 2809 
L 641 3341 
Q 956 3463 1253 3523 
Q 1550 3584 1831 3584 
Q 2591 3584 2966 3190 
Q 3341 2797 3341 1997 
z
" transform="scale(0.015625)"/>
      <path id="DejaVuSans-6d" d="M 3328 2828 
Q 3544 3216 3844 3400 
Q 4144 3584 4550 3584 
Q 5097 3584 5394 3201 
Q 5691 2819 5691 2113 
L 5691 0 
L 5113 0 
L 5113 2094 
Q 5113 2597 4934 2840 
Q 4756 3084 4391 3084 
Q 3944 3084 3684 2787 
Q 3425 2491 3425 1978 
L 3425 0 
L 2847 0 
L 2847 2094 
Q 2847 2600 2669 2842 
Q 2491 3084 2119 3084 
Q 1678 3084 1418 2786 
Q 1159 2488 1159 1978 
L 1159 0 
L 581 0 
L 581 3500 
L 1159 3500 
L 1159 2956 
Q 1356 3278 1631 3431 
Q 1906 3584 2284 3584 
Q 2666 3584 2933 3390 
Q 3200 3197 3328 2828 
z
" transform="scale(0.015625)"/>
      <path id="DejaVuSans-20" transform="scale(0.015625)"/>
      <path id="DejaVuSans-3d" d="M 678 2906 
L 4684 2906 
L 4684 2381 
L 678 2381 
L 678 2906 
z
M 678 1631 
L 4684 1631 
L 4684 1100 
L 678 1100 
L 678 1631 
z
" transform="scale(0.015625)"/>
      <path id="DejaVuSans-2e" d="M 684 794 
L 1344 794 
L 1344 0 
L 684 0 
L 684 794 
z
" transform="scale(0.015625)"/>
      <path id="DejaVuSans-39" d="M 703 97 
L 703 672 
Q 941 559 1184 500 
Q 1428 441 1663 441 
Q 2288 441 2617 861 
Q 2947 1281 2994 2138 
Q 2813 1869 2534 1725 
Q 2256 1581 1919 1581 
Q 1219 1581 811 2004 
Q 403 2428 403 3163 
Q 403 3881 828 4315 
Q 1253 4750 1959 4750 
Q 2769 4750 3195 4129 
Q 3622 3509 3622 2328 
Q 3622 1225 3098 567 
Q 2575 -91 1691 -91 
Q 1453 -91 1209 -44 
Q 966 3 703 97 
z
M 1959 2075 
Q 2384 2075 2632 2365 
Q 2881 2656 2881 3163 
Q 2881 3666 2632 3958 
Q 2384 4250 1959 4250 
Q 1534 4250 1286 3958 
Q 1038 3666 1038 3163 
Q 1038 2656 1286 2365 
Q 1534 2075 1959 2075 
z
" transform="scale(0.015625)"/>
      <path id="DejaVuSans-37" d="M 525 4666 
L 3525 4666 
L 3525 4397 
L 1831 0 
L 1172 0 
L 2766 4134 
L 525 4134 
L 525 4666 
z
" transform="scale(0.015625)"/>
      <path id="DejaVuSans-2c" d="M 750 794 
L 1409 794 
L 1409 256 
L 897 -744 
L 494 -744 
L 750 256 
L 750 794 
z
" transform="scale(0.015625)"/>
      <path id="DejaVuSans-6c" d="M 603 4863 
L 1178 4863 
L 1178 0 
L 603 0 
L 603 4863 
z
" transform="scale(0.015625)"/>
     </defs>
     <use xlink:href="#DejaVuSans-67"/>
     <use xlink:href="#DejaVuSans-61" x="63.476562"/>
     <use xlink:href="#DejaVuSans-6d" x="124.755859"/>
     <use xlink:href="#DejaVuSans-6d" x="222.167969"/>
     <use xlink:href="#DejaVuSans-61" x="319.580078"/>
     <use xlink:href="#DejaVuSans-20" x="380.859375"/>
     <use xlink:href="#DejaVuSans-3d" x="412.646484"/>
     <use xlink:href="#DejaVuSans-20" x="496.435547"/>
     <use xlink:href="#DejaVuSans-30" x="528.222656"/>
     <use xlink:href="#DejaVuSans-2e" x="591.845703"/>
     <use xlink:href="#DejaVuSans-39" x="623.632812"/>
     <use xlink:href="#DejaVuSans-34" x="687.255859"/>
     <use xlink:href="#DejaVuSans-32" x="750.878906"/>
     <use xlink:href="#DejaVuSans-36" x="814.501953"/>
     <use xlink:href="#DejaVuSans-33" x="878.125"/>
     <use xlink:href="#DejaVuSans-31" x="941.748047"/>
     <use xlink:href="#DejaVuSans-35" x="1005.371094"/>
     <use xlink:href="#DejaVuSans-37" x="1068.994141"/>
     <use xlink:href="#DejaVuSans-38" x="1132.617188"/>
     <use xlink:href="#DejaVuSans-39" x="1196.240234"/>
     <use xlink:href="#DejaVuSans-34" x="1259.863281"/>
     <use xlink:href="#DejaVuSans-37" x="1323.486328"/>
     <use xlink:href="#DejaVuSans-33" x="1387.109375"/>
     <use xlink:href="#DejaVuSans-36" x="1450.732422"/>
     <use xlink:href="#DejaVuSans-38" x="1514.355469"/>
     <use xlink:href="#DejaVuSans-35" x="1577.978516"/>
     <use xlink:href="#DejaVuSans-2c" x="1641.601562"/>
     <use xlink:href="#DejaVuSans-6c" x="1673.388672"/>
     <use xlink:href="#DejaVuSans-72" x="1701.171875"/>
     <use xlink:href="#DejaVuSans-20" x="1742.285156"/>
     <use xlink:href="#DejaVuSans-3d" x="1774.072266"/>
     <use xlink:href="#DejaVuSans-20" x="1857.861328"/>
     <use xlink:href="#DejaVuSans-30" x="1889.648438"/>
     <use xlink:href="#DejaVuSans-2e" x="1953.271484"/>
     <use xlink:href="#DejaVuSans-30" x="1985.058594"/>
     <use xlink:href="#DejaVuSans-30" x="2048.681641"/>
     <use xlink:href="#DejaVuSans-31" x="2112.304688"/>
    </g>
   </g>
   <g id="legend_1">
    <g id="patch_7">
     <path d="M 293.50625 80.834375 
L 453.825 80.834375 
Q 455.825 80.834375 455.825 78.834375 
L 455.825 35.8 
Q 455.825 33.8 453.825 33.8 
L 293.50625 33.8 
Q 291.50625 33.8 291.50625 35.8 
L 291.50625 78.834375 
Q 291.50625 80.834375 293.50625 80.834375 
z
" style="fill: #ffffff; opacity: 0.8; stroke: #cccccc; stroke-linejoin: miter"/>
    </g>
    <g id="line2d_17">
     <path d="M 295.50625 41.898438 
L 305.50625 41.898438 
L 315.50625 41.898438 
" style="fill: none; stroke: #708090; stroke-width: 1.5; stroke-linecap: square"/>
    </g>
    <g id="text_17">
     <!-- Episodes score -->
     <g transform="translate(323.50625 45.398438)scale(0.1 -0.1)">
      <use xlink:href="#DejaVuSans-45"/>
      <use xlink:href="#DejaVuSans-70" x="63.183594"/>
      <use xlink:href="#DejaVuSans-69" x="126.660156"/>
      <use xlink:href="#DejaVuSans-73" x="154.443359"/>
      <use xlink:href="#DejaVuSans-6f" x="206.542969"/>
      <use xlink:href="#DejaVuSans-64" x="267.724609"/>
      <use xlink:href="#DejaVuSans-65" x="331.201172"/>
      <use xlink:href="#DejaVuSans-73" x="392.724609"/>
      <use xlink:href="#DejaVuSans-20" x="444.824219"/>
      <use xlink:href="#DejaVuSans-73" x="476.611328"/>
      <use xlink:href="#DejaVuSans-63" x="528.710938"/>
      <use xlink:href="#DejaVuSans-6f" x="583.691406"/>
      <use xlink:href="#DejaVuSans-72" x="644.873047"/>
      <use xlink:href="#DejaVuSans-65" x="683.736328"/>
     </g>
    </g>
    <g id="line2d_18">
     <path d="M 295.50625 56.576563 
L 305.50625 56.576563 
L 315.50625 56.576563 
" style="fill: none; stroke: #000080; stroke-width: 1.5; stroke-linecap: square"/>
    </g>
    <g id="text_18">
     <!-- Moving average of scores -->
     <g transform="translate(323.50625 60.076563)scale(0.1 -0.1)">
      <defs>
       <path id="DejaVuSans-4d" d="M 628 4666 
L 1569 4666 
L 2759 1491 
L 3956 4666 
L 4897 4666 
L 4897 0 
L 4281 0 
L 4281 4097 
L 3078 897 
L 2444 897 
L 1241 4097 
L 1241 0 
L 628 0 
L 628 4666 
z
" transform="scale(0.015625)"/>
       <path id="DejaVuSans-76" d="M 191 3500 
L 800 3500 
L 1894 563 
L 2988 3500 
L 3597 3500 
L 2284 0 
L 1503 0 
L 191 3500 
z
" transform="scale(0.015625)"/>
       <path id="DejaVuSans-6e" d="M 3513 2113 
L 3513 0 
L 2938 0 
L 2938 2094 
Q 2938 2591 2744 2837 
Q 2550 3084 2163 3084 
Q 1697 3084 1428 2787 
Q 1159 2491 1159 1978 
L 1159 0 
L 581 0 
L 581 3500 
L 1159 3500 
L 1159 2956 
Q 1366 3272 1645 3428 
Q 1925 3584 2291 3584 
Q 2894 3584 3203 3211 
Q 3513 2838 3513 2113 
z
" transform="scale(0.015625)"/>
       <path id="DejaVuSans-66" d="M 2375 4863 
L 2375 4384 
L 1825 4384 
Q 1516 4384 1395 4259 
Q 1275 4134 1275 3809 
L 1275 3500 
L 2222 3500 
L 2222 3053 
L 1275 3053 
L 1275 0 
L 697 0 
L 697 3053 
L 147 3053 
L 147 3500 
L 697 3500 
L 697 3744 
Q 697 4328 969 4595 
Q 1241 4863 1831 4863 
L 2375 4863 
z
" transform="scale(0.015625)"/>
      </defs>
      <use xlink:href="#DejaVuSans-4d"/>
      <use xlink:href="#DejaVuSans-6f" x="86.279297"/>
      <use xlink:href="#DejaVuSans-76" x="147.460938"/>
      <use xlink:href="#DejaVuSans-69" x="206.640625"/>
      <use xlink:href="#DejaVuSans-6e" x="234.423828"/>
      <use xlink:href="#DejaVuSans-67" x="297.802734"/>
      <use xlink:href="#DejaVuSans-20" x="361.279297"/>
      <use xlink:href="#DejaVuSans-61" x="393.066406"/>
      <use xlink:href="#DejaVuSans-76" x="454.345703"/>
      <use xlink:href="#DejaVuSans-65" x="513.525391"/>
      <use xlink:href="#DejaVuSans-72" x="575.048828"/>
      <use xlink:href="#DejaVuSans-61" x="616.162109"/>
      <use xlink:href="#DejaVuSans-67" x="677.441406"/>
      <use xlink:href="#DejaVuSans-65" x="740.917969"/>
      <use xlink:href="#DejaVuSans-20" x="802.441406"/>
      <use xlink:href="#DejaVuSans-6f" x="834.228516"/>
      <use xlink:href="#DejaVuSans-66" x="895.410156"/>
      <use xlink:href="#DejaVuSans-20" x="930.615234"/>
      <use xlink:href="#DejaVuSans-73" x="962.402344"/>
      <use xlink:href="#DejaVuSans-63" x="1014.501953"/>
      <use xlink:href="#DejaVuSans-6f" x="1069.482422"/>
      <use xlink:href="#DejaVuSans-72" x="1130.664062"/>
      <use xlink:href="#DejaVuSans-65" x="1169.527344"/>
      <use xlink:href="#DejaVuSans-73" x="1231.050781"/>
     </g>
    </g>
    <g id="line2d_19">
     <path d="M 295.50625 71.254687 
L 305.50625 71.254687 
L 315.50625 71.254687 
" style="fill: none; stroke-dasharray: 5.55,2.4; stroke-dashoffset: 0; stroke: #008000; stroke-width: 1.5"/>
    </g>
    <g id="text_19">
     <!-- Game Solved -->
     <g transform="translate(323.50625 74.754687)scale(0.1 -0.1)">
      <defs>
       <path id="DejaVuSans-47" d="M 3809 666 
L 3809 1919 
L 2778 1919 
L 2778 2438 
L 4434 2438 
L 4434 434 
Q 4069 175 3628 42 
Q 3188 -91 2688 -91 
Q 1594 -91 976 548 
Q 359 1188 359 2328 
Q 359 3472 976 4111 
Q 1594 4750 2688 4750 
Q 3144 4750 3555 4637 
Q 3966 4525 4313 4306 
L 4313 3634 
Q 3963 3931 3569 4081 
Q 3175 4231 2741 4231 
Q 1884 4231 1454 3753 
Q 1025 3275 1025 2328 
Q 1025 1384 1454 906 
Q 1884 428 2741 428 
Q 3075 428 3337 486 
Q 3600 544 3809 666 
z
" transform="scale(0.015625)"/>
      </defs>
      <use xlink:href="#DejaVuSans-47"/>
      <use xlink:href="#DejaVuSans-61" x="77.490234"/>
      <use xlink:href="#DejaVuSans-6d" x="138.769531"/>
      <use xlink:href="#DejaVuSans-65" x="236.181641"/>
      <use xlink:href="#DejaVuSans-20" x="297.705078"/>
      <use xlink:href="#DejaVuSans-53" x="329.492188"/>
      <use xlink:href="#DejaVuSans-6f" x="392.96875"/>
      <use xlink:href="#DejaVuSans-6c" x="454.150391"/>
      <use xlink:href="#DejaVuSans-76" x="481.933594"/>
      <use xlink:href="#DejaVuSans-65" x="541.113281"/>
      <use xlink:href="#DejaVuSans-64" x="602.636719"/>
     </g>
    </g>
   </g>
  </g>
  <g id="axes_2">
   <g id="matplotlib.axis_3">
    <g id="ytick_8">
     <g id="line2d_20">
      <defs>
       <path id="m17d2786332" d="M 0 0 
L 3.5 0 
" style="stroke: #000000; stroke-width: 0.8"/>
      </defs>
      <g>
       <use xlink:href="#m17d2786332" x="460.825" y="300.356157" style="stroke: #000000; stroke-width: 0.8"/>
      </g>
     </g>
     <g id="text_20">
      <!-- 0 -->
      <g transform="translate(467.825 304.155376)scale(0.1 -0.1)">
       <use xlink:href="#DejaVuSans-30"/>
      </g>
     </g>
    </g>
    <g id="ytick_9">
     <g id="line2d_21">
      <g>
       <use xlink:href="#m17d2786332" x="460.825" y="248.63038" style="stroke: #000000; stroke-width: 0.8"/>
      </g>
     </g>
     <g id="text_21">
      <!-- 1 -->
      <g transform="translate(467.825 252.429599)scale(0.1 -0.1)">
       <use xlink:href="#DejaVuSans-31"/>
      </g>
     </g>
    </g>
    <g id="ytick_10">
     <g id="line2d_22">
      <g>
       <use xlink:href="#m17d2786332" x="460.825" y="196.904603" style="stroke: #000000; stroke-width: 0.8"/>
      </g>
     </g>
     <g id="text_22">
      <!-- 2 -->
      <g transform="translate(467.825 200.703822)scale(0.1 -0.1)">
       <use xlink:href="#DejaVuSans-32"/>
      </g>
     </g>
    </g>
    <g id="ytick_11">
     <g id="line2d_23">
      <g>
       <use xlink:href="#m17d2786332" x="460.825" y="145.178827" style="stroke: #000000; stroke-width: 0.8"/>
      </g>
     </g>
     <g id="text_23">
      <!-- 3 -->
      <g transform="translate(467.825 148.978045)scale(0.1 -0.1)">
       <use xlink:href="#DejaVuSans-33"/>
      </g>
     </g>
    </g>
    <g id="ytick_12">
     <g id="line2d_24">
      <g>
       <use xlink:href="#m17d2786332" x="460.825" y="93.45305" style="stroke: #000000; stroke-width: 0.8"/>
      </g>
     </g>
     <g id="text_24">
      <!-- 4 -->
      <g transform="translate(467.825 97.252268)scale(0.1 -0.1)">
       <use xlink:href="#DejaVuSans-34"/>
      </g>
     </g>
    </g>
    <g id="ytick_13">
     <g id="line2d_25">
      <g>
       <use xlink:href="#m17d2786332" x="460.825" y="41.727273" style="stroke: #000000; stroke-width: 0.8"/>
      </g>
     </g>
     <g id="text_25">
      <!-- 5 -->
      <g transform="translate(467.825 45.526491)scale(0.1 -0.1)">
       <use xlink:href="#DejaVuSans-35"/>
      </g>
     </g>
    </g>
    <g id="text_26">
     <!-- Temperature -->
     <g transform="translate(489.585156 218.504297)rotate(-90)scale(0.15 -0.15)">
      <defs>
       <path id="DejaVuSans-54" d="M -19 4666 
L 3928 4666 
L 3928 4134 
L 2272 4134 
L 2272 0 
L 1638 0 
L 1638 4134 
L -19 4134 
L -19 4666 
z
" transform="scale(0.015625)"/>
       <path id="DejaVuSans-74" d="M 1172 4494 
L 1172 3500 
L 2356 3500 
L 2356 3053 
L 1172 3053 
L 1172 1153 
Q 1172 725 1289 603 
Q 1406 481 1766 481 
L 2356 481 
L 2356 0 
L 1766 0 
Q 1100 0 847 248 
Q 594 497 594 1153 
L 594 3053 
L 172 3053 
L 172 3500 
L 594 3500 
L 594 4494 
L 1172 4494 
z
" transform="scale(0.015625)"/>
       <path id="DejaVuSans-75" d="M 544 1381 
L 544 3500 
L 1119 3500 
L 1119 1403 
Q 1119 906 1312 657 
Q 1506 409 1894 409 
Q 2359 409 2629 706 
Q 2900 1003 2900 1516 
L 2900 3500 
L 3475 3500 
L 3475 0 
L 2900 0 
L 2900 538 
Q 2691 219 2414 64 
Q 2138 -91 1772 -91 
Q 1169 -91 856 284 
Q 544 659 544 1381 
z
M 1991 3584 
L 1991 3584 
z
" transform="scale(0.015625)"/>
      </defs>
      <use xlink:href="#DejaVuSans-54"/>
      <use xlink:href="#DejaVuSans-65" x="44.083984"/>
      <use xlink:href="#DejaVuSans-6d" x="105.607422"/>
      <use xlink:href="#DejaVuSans-70" x="203.019531"/>
      <use xlink:href="#DejaVuSans-65" x="266.496094"/>
      <use xlink:href="#DejaVuSans-72" x="328.019531"/>
      <use xlink:href="#DejaVuSans-61" x="369.132812"/>
      <use xlink:href="#DejaVuSans-74" x="430.412109"/>
      <use xlink:href="#DejaVuSans-75" x="469.621094"/>
      <use xlink:href="#DejaVuSans-72" x="533"/>
      <use xlink:href="#DejaVuSans-65" x="571.863281"/>
     </g>
    </g>
   </g>
   <g id="line2d_26">
    <path d="M 74.329545 41.727273 
L 77.64568 59.796179 
L 80.961814 76.602714 
L 84.277948 92.235075 
L 87.594083 106.775292 
L 90.910217 120.299669 
L 94.226351 132.879175 
L 97.542486 144.579825 
L 100.85862 155.463017 
L 104.174754 165.585863 
L 107.490889 175.001485 
L 110.807023 183.759292 
L 114.123157 191.905241 
L 117.439292 199.48208 
L 120.755426 206.529569 
L 124.07156 213.084691 
L 127.387695 219.181844 
L 130.703829 224.853024 
L 134.019963 230.127992 
L 137.704557 235.557975 
L 141.389151 240.568116 
L 145.073744 245.190878 
L 148.758338 249.456211 
L 152.442932 253.391752 
L 156.127525 257.023001 
L 160.180578 260.693942 
L 164.233631 264.053901 
L 168.286684 267.129223 
L 172.339737 269.944021 
L 176.76125 272.743467 
L 181.182762 275.285223 
L 185.972734 277.775454 
L 190.762706 280.018336 
L 195.921137 282.185254 
L 201.448028 284.251415 
L 206.974918 286.082639 
L 212.870268 287.807033 
L 219.134077 289.41153 
L 225.766346 290.887385 
L 233.135533 292.295013 
L 240.87318 293.548388 
L 249.347745 294.698674 
L 258.927689 295.766744 
L 269.613011 296.721977 
L 281.403711 297.547031 
L 295.036707 298.270409 
L 310.88046 298.880507 
L 330.040347 299.385086 
L 353.990206 299.780603 
L 385.677712 300.068067 
L 432.840511 300.253311 
L 442.420455 300.272727 
L 442.420455 300.272727 
" clip-path="url(#p8d1ab0af8c)" style="fill: none; stroke: #ff0000; stroke-width: 1.5; stroke-linecap: square"/>
   </g>
   <g id="patch_8">
    <path d="M 55.925 313.2 
L 55.925 28.8 
" style="fill: none; stroke: #000000; stroke-width: 0.8; stroke-linejoin: miter; stroke-linecap: square"/>
   </g>
   <g id="patch_9">
    <path d="M 460.825 313.2 
L 460.825 28.8 
" style="fill: none; stroke: #000000; stroke-width: 0.8; stroke-linejoin: miter; stroke-linecap: square"/>
   </g>
   <g id="patch_10">
    <path d="M 55.925 313.2 
L 460.825 313.2 
" style="fill: none; stroke: #000000; stroke-width: 0.8; stroke-linejoin: miter; stroke-linecap: square"/>
   </g>
   <g id="patch_11">
    <path d="M 55.925 28.8 
L 460.825 28.8 
" style="fill: none; stroke: #000000; stroke-width: 0.8; stroke-linejoin: miter; stroke-linecap: square"/>
   </g>
   <g id="legend_2">
    <g id="patch_12">
     <path d="M 62.925 51.478125 
L 158.264063 51.478125 
Q 160.264063 51.478125 160.264063 49.478125 
L 160.264063 35.8 
Q 160.264063 33.8 158.264063 33.8 
L 62.925 33.8 
Q 60.925 33.8 60.925 35.8 
L 60.925 49.478125 
Q 60.925 51.478125 62.925 51.478125 
z
" style="fill: #ffffff; opacity: 0.8; stroke: #cccccc; stroke-linejoin: miter"/>
    </g>
    <g id="line2d_27">
     <path d="M 64.925 41.898438 
L 74.925 41.898438 
L 84.925 41.898438 
" style="fill: none; stroke: #ff0000; stroke-width: 1.5; stroke-linecap: square"/>
    </g>
    <g id="text_27">
     <!-- Temperature -->
     <g transform="translate(92.925 45.398438)scale(0.1 -0.1)">
      <use xlink:href="#DejaVuSans-54"/>
      <use xlink:href="#DejaVuSans-65" x="44.083984"/>
      <use xlink:href="#DejaVuSans-6d" x="105.607422"/>
      <use xlink:href="#DejaVuSans-70" x="203.019531"/>
      <use xlink:href="#DejaVuSans-65" x="266.496094"/>
      <use xlink:href="#DejaVuSans-72" x="328.019531"/>
      <use xlink:href="#DejaVuSans-61" x="369.132812"/>
      <use xlink:href="#DejaVuSans-74" x="430.412109"/>
      <use xlink:href="#DejaVuSans-75" x="469.621094"/>
      <use xlink:href="#DejaVuSans-72" x="533"/>
      <use xlink:href="#DejaVuSans-65" x="571.863281"/>
     </g>
    </g>
   </g>
  </g>
 </g>
 <defs>
  <clipPath id="p8d1ab0af8c">
   <rect x="55.925" y="28.8" width="404.9" height="284.4"/>
  </clipPath>
 </defs>
</svg>
