<?xml version="1.0" encoding="utf-8" standalone="no"?>
<!DOCTYPE svg PUBLIC "-//W3C//DTD SVG 1.1//EN"
  "http://www.w3.org/Graphics/SVG/1.1/DTD/svg11.dtd">
<svg xmlns:xlink="http://www.w3.org/1999/xlink" width="504pt" height="360pt" viewBox="0 0 504 360" xmlns="http://www.w3.org/2000/svg" version="1.1">
 <metadata>
  <rdf:RDF xmlns:dc="http://purl.org/dc/elements/1.1/" xmlns:cc="http://creativecommons.org/ns#" xmlns:rdf="http://www.w3.org/1999/02/22-rdf-syntax-ns#">
   <cc:Work>
    <dc:type rdf:resource="http://purl.org/dc/dcmitype/StillImage"/>
    <dc:date>2022-07-28T20:50:46.623108</dc:date>
    <dc:format>image/svg+xml</dc:format>
    <dc:creator>
     <cc:Agent>
      <dc:title>Matplotlib v3.5.1, https://matplotlib.org/</dc:title>
     </cc:Agent>
    </dc:creator>
   </cc:Work>
  </rdf:RDF>
 </metadata>
 <defs>
  <style type="text/css">*{stroke-linejoin: round; stroke-linecap: butt}</style>
 </defs>
 <g id="figure_1">
  <g id="patch_1">
   <path d="M 0 360 
L 504 360 
L 504 0 
L 0 0 
L 0 360 
z
" style="fill: none"/>
  </g>
  <g id="axes_1">
   <g id="patch_2">
    <path d="M 55.925 313.2 
L 460.825 313.2 
L 460.825 28.8 
L 55.925 28.8 
z
" style="fill: #ffffff"/>
   </g>
   <g id="matplotlib.axis_1">
    <g id="xtick_1">
     <g id="line2d_1">
      <defs>
       <path id="m65b2fb6115" d="M 0 0 
L 0 3.5 
" style="stroke: #000000; stroke-width: 0.8"/>
      </defs>
      <g>
       <use xlink:href="#m65b2fb6115" x="74.329545" y="313.2" style="stroke: #000000; stroke-width: 0.8"/>
      </g>
     </g>
     <g id="text_1">
      <!-- 0 -->
      <g transform="translate(71.148295 327.798437)scale(0.1 -0.1)">
       <defs>
        <path id="DejaVuSans-30" d="M 2034 4250 
Q 1547 4250 1301 3770 
Q 1056 3291 1056 2328 
Q 1056 1369 1301 889 
Q 1547 409 2034 409 
Q 2525 409 2770 889 
Q 3016 1369 3016 2328 
Q 3016 3291 2770 3770 
Q 2525 4250 2034 4250 
z
M 2034 4750 
Q 2819 4750 3233 4129 
Q 3647 3509 3647 2328 
Q 3647 1150 3233 529 
Q 2819 -91 2034 -91 
Q 1250 -91 836 529 
Q 422 1150 422 2328 
Q 422 3509 836 4129 
Q 1250 4750 2034 4750 
z
" transform="scale(0.015625)"/>
       </defs>
       <use xlink:href="#DejaVuSans-30"/>
      </g>
     </g>
    </g>
    <g id="xtick_2">
     <g id="line2d_2">
      <g>
       <use xlink:href="#m65b2fb6115" x="148.021419" y="313.2" style="stroke: #000000; stroke-width: 0.8"/>
      </g>
     </g>
     <g id="text_2">
      <!-- 200 -->
      <g transform="translate(138.477669 327.798437)scale(0.1 -0.1)">
       <defs>
        <path id="DejaVuSans-32" d="M 1228 531 
L 3431 531 
L 3431 0 
L 469 0 
L 469 531 
Q 828 903 1448 1529 
Q 2069 2156 2228 2338 
Q 2531 2678 2651 2914 
Q 2772 3150 2772 3378 
Q 2772 3750 2511 3984 
Q 2250 4219 1831 4219 
Q 1534 4219 1204 4116 
Q 875 4013 500 3803 
L 500 4441 
Q 881 4594 1212 4672 
Q 1544 4750 1819 4750 
Q 2544 4750 2975 4387 
Q 3406 4025 3406 3419 
Q 3406 3131 3298 2873 
Q 3191 2616 2906 2266 
Q 2828 2175 2409 1742 
Q 1991 1309 1228 531 
z
" transform="scale(0.015625)"/>
       </defs>
       <use xlink:href="#DejaVuSans-32"/>
       <use xlink:href="#DejaVuSans-30" x="63.623047"/>
       <use xlink:href="#DejaVuSans-30" x="127.246094"/>
      </g>
     </g>
    </g>
    <g id="xtick_3">
     <g id="line2d_3">
      <g>
       <use xlink:href="#m65b2fb6115" x="221.713293" y="313.2" style="stroke: #000000; stroke-width: 0.8"/>
      </g>
     </g>
     <g id="text_3">
      <!-- 400 -->
      <g transform="translate(212.169543 327.798437)scale(0.1 -0.1)">
       <defs>
        <path id="DejaVuSans-34" d="M 2419 4116 
L 825 1625 
L 2419 1625 
L 2419 4116 
z
M 2253 4666 
L 3047 4666 
L 3047 1625 
L 3713 1625 
L 3713 1100 
L 3047 1100 
L 3047 0 
L 2419 0 
L 2419 1100 
L 313 1100 
L 313 1709 
L 2253 4666 
z
" transform="scale(0.015625)"/>
       </defs>
       <use xlink:href="#DejaVuSans-34"/>
       <use xlink:href="#DejaVuSans-30" x="63.623047"/>
       <use xlink:href="#DejaVuSans-30" x="127.246094"/>
      </g>
     </g>
    </g>
    <g id="xtick_4">
     <g id="line2d_4">
      <g>
       <use xlink:href="#m65b2fb6115" x="295.405167" y="313.2" style="stroke: #000000; stroke-width: 0.8"/>
      </g>
     </g>
     <g id="text_4">
      <!-- 600 -->
      <g transform="translate(285.861417 327.798437)scale(0.1 -0.1)">
       <defs>
        <path id="DejaVuSans-36" d="M 2113 2584 
Q 1688 2584 1439 2293 
Q 1191 2003 1191 1497 
Q 1191 994 1439 701 
Q 1688 409 2113 409 
Q 2538 409 2786 701 
Q 3034 994 3034 1497 
Q 3034 2003 2786 2293 
Q 2538 2584 2113 2584 
z
M 3366 4563 
L 3366 3988 
Q 3128 4100 2886 4159 
Q 2644 4219 2406 4219 
Q 1781 4219 1451 3797 
Q 1122 3375 1075 2522 
Q 1259 2794 1537 2939 
Q 1816 3084 2150 3084 
Q 2853 3084 3261 2657 
Q 3669 2231 3669 1497 
Q 3669 778 3244 343 
Q 2819 -91 2113 -91 
Q 1303 -91 875 529 
Q 447 1150 447 2328 
Q 447 3434 972 4092 
Q 1497 4750 2381 4750 
Q 2619 4750 2861 4703 
Q 3103 4656 3366 4563 
z
" transform="scale(0.015625)"/>
       </defs>
       <use xlink:href="#DejaVuSans-36"/>
       <use xlink:href="#DejaVuSans-30" x="63.623047"/>
       <use xlink:href="#DejaVuSans-30" x="127.246094"/>
      </g>
     </g>
    </g>
    <g id="xtick_5">
     <g id="line2d_5">
      <g>
       <use xlink:href="#m65b2fb6115" x="369.09704" y="313.2" style="stroke: #000000; stroke-width: 0.8"/>
      </g>
     </g>
     <g id="text_5">
      <!-- 800 -->
      <g transform="translate(359.55329 327.798437)scale(0.1 -0.1)">
       <defs>
        <path id="DejaVuSans-38" d="M 2034 2216 
Q 1584 2216 1326 1975 
Q 1069 1734 1069 1313 
Q 1069 891 1326 650 
Q 1584 409 2034 409 
Q 2484 409 2743 651 
Q 3003 894 3003 1313 
Q 3003 1734 2745 1975 
Q 2488 2216 2034 2216 
z
M 1403 2484 
Q 997 2584 770 2862 
Q 544 3141 544 3541 
Q 544 4100 942 4425 
Q 1341 4750 2034 4750 
Q 2731 4750 3128 4425 
Q 3525 4100 3525 3541 
Q 3525 3141 3298 2862 
Q 3072 2584 2669 2484 
Q 3125 2378 3379 2068 
Q 3634 1759 3634 1313 
Q 3634 634 3220 271 
Q 2806 -91 2034 -91 
Q 1263 -91 848 271 
Q 434 634 434 1313 
Q 434 1759 690 2068 
Q 947 2378 1403 2484 
z
M 1172 3481 
Q 1172 3119 1398 2916 
Q 1625 2713 2034 2713 
Q 2441 2713 2670 2916 
Q 2900 3119 2900 3481 
Q 2900 3844 2670 4047 
Q 2441 4250 2034 4250 
Q 1625 4250 1398 4047 
Q 1172 3844 1172 3481 
z
" transform="scale(0.015625)"/>
       </defs>
       <use xlink:href="#DejaVuSans-38"/>
       <use xlink:href="#DejaVuSans-30" x="63.623047"/>
       <use xlink:href="#DejaVuSans-30" x="127.246094"/>
      </g>
     </g>
    </g>
    <g id="xtick_6">
     <g id="line2d_6">
      <g>
       <use xlink:href="#m65b2fb6115" x="442.788914" y="313.2" style="stroke: #000000; stroke-width: 0.8"/>
      </g>
     </g>
     <g id="text_6">
      <!-- 1000 -->
      <g transform="translate(430.063914 327.798437)scale(0.1 -0.1)">
       <defs>
        <path id="DejaVuSans-31" d="M 794 531 
L 1825 531 
L 1825 4091 
L 703 3866 
L 703 4441 
L 1819 4666 
L 2450 4666 
L 2450 531 
L 3481 531 
L 3481 0 
L 794 0 
L 794 531 
z
" transform="scale(0.015625)"/>
       </defs>
       <use xlink:href="#DejaVuSans-31"/>
       <use xlink:href="#DejaVuSans-30" x="63.623047"/>
       <use xlink:href="#DejaVuSans-30" x="127.246094"/>
       <use xlink:href="#DejaVuSans-30" x="190.869141"/>
      </g>
     </g>
    </g>
    <g id="text_7">
     <!-- Episode -->
     <g transform="translate(228.91875 345.275781)scale(0.15 -0.15)">
      <defs>
       <path id="DejaVuSans-45" d="M 628 4666 
L 3578 4666 
L 3578 4134 
L 1259 4134 
L 1259 2753 
L 3481 2753 
L 3481 2222 
L 1259 2222 
L 1259 531 
L 3634 531 
L 3634 0 
L 628 0 
L 628 4666 
z
" transform="scale(0.015625)"/>
       <path id="DejaVuSans-70" d="M 1159 525 
L 1159 -1331 
L 581 -1331 
L 581 3500 
L 1159 3500 
L 1159 2969 
Q 1341 3281 1617 3432 
Q 1894 3584 2278 3584 
Q 2916 3584 3314 3078 
Q 3713 2572 3713 1747 
Q 3713 922 3314 415 
Q 2916 -91 2278 -91 
Q 1894 -91 1617 61 
Q 1341 213 1159 525 
z
M 3116 1747 
Q 3116 2381 2855 2742 
Q 2594 3103 2138 3103 
Q 1681 3103 1420 2742 
Q 1159 2381 1159 1747 
Q 1159 1113 1420 752 
Q 1681 391 2138 391 
Q 2594 391 2855 752 
Q 3116 1113 3116 1747 
z
" transform="scale(0.015625)"/>
       <path id="DejaVuSans-69" d="M 603 3500 
L 1178 3500 
L 1178 0 
L 603 0 
L 603 3500 
z
M 603 4863 
L 1178 4863 
L 1178 4134 
L 603 4134 
L 603 4863 
z
" transform="scale(0.015625)"/>
       <path id="DejaVuSans-73" d="M 2834 3397 
L 2834 2853 
Q 2591 2978 2328 3040 
Q 2066 3103 1784 3103 
Q 1356 3103 1142 2972 
Q 928 2841 928 2578 
Q 928 2378 1081 2264 
Q 1234 2150 1697 2047 
L 1894 2003 
Q 2506 1872 2764 1633 
Q 3022 1394 3022 966 
Q 3022 478 2636 193 
Q 2250 -91 1575 -91 
Q 1294 -91 989 -36 
Q 684 19 347 128 
L 347 722 
Q 666 556 975 473 
Q 1284 391 1588 391 
Q 1994 391 2212 530 
Q 2431 669 2431 922 
Q 2431 1156 2273 1281 
Q 2116 1406 1581 1522 
L 1381 1569 
Q 847 1681 609 1914 
Q 372 2147 372 2553 
Q 372 3047 722 3315 
Q 1072 3584 1716 3584 
Q 2034 3584 2315 3537 
Q 2597 3491 2834 3397 
z
" transform="scale(0.015625)"/>
       <path id="DejaVuSans-6f" d="M 1959 3097 
Q 1497 3097 1228 2736 
Q 959 2375 959 1747 
Q 959 1119 1226 758 
Q 1494 397 1959 397 
Q 2419 397 2687 759 
Q 2956 1122 2956 1747 
Q 2956 2369 2687 2733 
Q 2419 3097 1959 3097 
z
M 1959 3584 
Q 2709 3584 3137 3096 
Q 3566 2609 3566 1747 
Q 3566 888 3137 398 
Q 2709 -91 1959 -91 
Q 1206 -91 779 398 
Q 353 888 353 1747 
Q 353 2609 779 3096 
Q 1206 3584 1959 3584 
z
" transform="scale(0.015625)"/>
       <path id="DejaVuSans-64" d="M 2906 2969 
L 2906 4863 
L 3481 4863 
L 3481 0 
L 2906 0 
L 2906 525 
Q 2725 213 2448 61 
Q 2172 -91 1784 -91 
Q 1150 -91 751 415 
Q 353 922 353 1747 
Q 353 2572 751 3078 
Q 1150 3584 1784 3584 
Q 2172 3584 2448 3432 
Q 2725 3281 2906 2969 
z
M 947 1747 
Q 947 1113 1208 752 
Q 1469 391 1925 391 
Q 2381 391 2643 752 
Q 2906 1113 2906 1747 
Q 2906 2381 2643 2742 
Q 2381 3103 1925 3103 
Q 1469 3103 1208 2742 
Q 947 2381 947 1747 
z
" transform="scale(0.015625)"/>
       <path id="DejaVuSans-65" d="M 3597 1894 
L 3597 1613 
L 953 1613 
Q 991 1019 1311 708 
Q 1631 397 2203 397 
Q 2534 397 2845 478 
Q 3156 559 3463 722 
L 3463 178 
Q 3153 47 2828 -22 
Q 2503 -91 2169 -91 
Q 1331 -91 842 396 
Q 353 884 353 1716 
Q 353 2575 817 3079 
Q 1281 3584 2069 3584 
Q 2775 3584 3186 3129 
Q 3597 2675 3597 1894 
z
M 3022 2063 
Q 3016 2534 2758 2815 
Q 2500 3097 2075 3097 
Q 1594 3097 1305 2825 
Q 1016 2553 972 2059 
L 3022 2063 
z
" transform="scale(0.015625)"/>
      </defs>
      <use xlink:href="#DejaVuSans-45"/>
      <use xlink:href="#DejaVuSans-70" x="63.183594"/>
      <use xlink:href="#DejaVuSans-69" x="126.660156"/>
      <use xlink:href="#DejaVuSans-73" x="154.443359"/>
      <use xlink:href="#DejaVuSans-6f" x="206.542969"/>
      <use xlink:href="#DejaVuSans-64" x="267.724609"/>
      <use xlink:href="#DejaVuSans-65" x="331.201172"/>
     </g>
    </g>
   </g>
   <g id="matplotlib.axis_2">
    <g id="ytick_1">
     <g id="line2d_7">
      <defs>
       <path id="m27bf59af47" d="M 0 0 
L -3.5 0 
" style="stroke: #000000; stroke-width: 0.8"/>
      </defs>
      <g>
       <use xlink:href="#m27bf59af47" x="55.925" y="313.2" style="stroke: #000000; stroke-width: 0.8"/>
      </g>
     </g>
     <g id="text_8">
      <!-- 0 -->
      <g transform="translate(42.5625 316.999219)scale(0.1 -0.1)">
       <use xlink:href="#DejaVuSans-30"/>
      </g>
     </g>
    </g>
    <g id="ytick_2">
     <g id="line2d_8">
      <g>
       <use xlink:href="#m27bf59af47" x="55.925" y="269.446154" style="stroke: #000000; stroke-width: 0.8"/>
      </g>
     </g>
     <g id="text_9">
      <!-- 100 -->
      <g transform="translate(29.8375 273.245373)scale(0.1 -0.1)">
       <use xlink:href="#DejaVuSans-31"/>
       <use xlink:href="#DejaVuSans-30" x="63.623047"/>
       <use xlink:href="#DejaVuSans-30" x="127.246094"/>
      </g>
     </g>
    </g>
    <g id="ytick_3">
     <g id="line2d_9">
      <g>
       <use xlink:href="#m27bf59af47" x="55.925" y="225.692308" style="stroke: #000000; stroke-width: 0.8"/>
      </g>
     </g>
     <g id="text_10">
      <!-- 200 -->
      <g transform="translate(29.8375 229.491526)scale(0.1 -0.1)">
       <use xlink:href="#DejaVuSans-32"/>
       <use xlink:href="#DejaVuSans-30" x="63.623047"/>
       <use xlink:href="#DejaVuSans-30" x="127.246094"/>
      </g>
     </g>
    </g>
    <g id="ytick_4">
     <g id="line2d_10">
      <g>
       <use xlink:href="#m27bf59af47" x="55.925" y="181.938462" style="stroke: #000000; stroke-width: 0.8"/>
      </g>
     </g>
     <g id="text_11">
      <!-- 300 -->
      <g transform="translate(29.8375 185.73768)scale(0.1 -0.1)">
       <defs>
        <path id="DejaVuSans-33" d="M 2597 2516 
Q 3050 2419 3304 2112 
Q 3559 1806 3559 1356 
Q 3559 666 3084 287 
Q 2609 -91 1734 -91 
Q 1441 -91 1130 -33 
Q 819 25 488 141 
L 488 750 
Q 750 597 1062 519 
Q 1375 441 1716 441 
Q 2309 441 2620 675 
Q 2931 909 2931 1356 
Q 2931 1769 2642 2001 
Q 2353 2234 1838 2234 
L 1294 2234 
L 1294 2753 
L 1863 2753 
Q 2328 2753 2575 2939 
Q 2822 3125 2822 3475 
Q 2822 3834 2567 4026 
Q 2313 4219 1838 4219 
Q 1578 4219 1281 4162 
Q 984 4106 628 3988 
L 628 4550 
Q 988 4650 1302 4700 
Q 1616 4750 1894 4750 
Q 2613 4750 3031 4423 
Q 3450 4097 3450 3541 
Q 3450 3153 3228 2886 
Q 3006 2619 2597 2516 
z
" transform="scale(0.015625)"/>
       </defs>
       <use xlink:href="#DejaVuSans-33"/>
       <use xlink:href="#DejaVuSans-30" x="63.623047"/>
       <use xlink:href="#DejaVuSans-30" x="127.246094"/>
      </g>
     </g>
    </g>
    <g id="ytick_5">
     <g id="line2d_11">
      <g>
       <use xlink:href="#m27bf59af47" x="55.925" y="138.184615" style="stroke: #000000; stroke-width: 0.8"/>
      </g>
     </g>
     <g id="text_12">
      <!-- 400 -->
      <g transform="translate(29.8375 141.983834)scale(0.1 -0.1)">
       <use xlink:href="#DejaVuSans-34"/>
       <use xlink:href="#DejaVuSans-30" x="63.623047"/>
       <use xlink:href="#DejaVuSans-30" x="127.246094"/>
      </g>
     </g>
    </g>
    <g id="ytick_6">
     <g id="line2d_12">
      <g>
       <use xlink:href="#m27bf59af47" x="55.925" y="94.430769" style="stroke: #000000; stroke-width: 0.8"/>
      </g>
     </g>
     <g id="text_13">
      <!-- 500 -->
      <g transform="translate(29.8375 98.229988)scale(0.1 -0.1)">
       <defs>
        <path id="DejaVuSans-35" d="M 691 4666 
L 3169 4666 
L 3169 4134 
L 1269 4134 
L 1269 2991 
Q 1406 3038 1543 3061 
Q 1681 3084 1819 3084 
Q 2600 3084 3056 2656 
Q 3513 2228 3513 1497 
Q 3513 744 3044 326 
Q 2575 -91 1722 -91 
Q 1428 -91 1123 -41 
Q 819 9 494 109 
L 494 744 
Q 775 591 1075 516 
Q 1375 441 1709 441 
Q 2250 441 2565 725 
Q 2881 1009 2881 1497 
Q 2881 1984 2565 2268 
Q 2250 2553 1709 2553 
Q 1456 2553 1204 2497 
Q 953 2441 691 2322 
L 691 4666 
z
" transform="scale(0.015625)"/>
       </defs>
       <use xlink:href="#DejaVuSans-35"/>
       <use xlink:href="#DejaVuSans-30" x="63.623047"/>
       <use xlink:href="#DejaVuSans-30" x="127.246094"/>
      </g>
     </g>
    </g>
    <g id="ytick_7">
     <g id="line2d_13">
      <g>
       <use xlink:href="#m27bf59af47" x="55.925" y="50.676923" style="stroke: #000000; stroke-width: 0.8"/>
      </g>
     </g>
     <g id="text_14">
      <!-- 600 -->
      <g transform="translate(29.8375 54.476142)scale(0.1 -0.1)">
       <use xlink:href="#DejaVuSans-36"/>
       <use xlink:href="#DejaVuSans-30" x="63.623047"/>
       <use xlink:href="#DejaVuSans-30" x="127.246094"/>
      </g>
     </g>
    </g>
    <g id="text_15">
     <!-- Score -->
     <g transform="translate(22.717969 192.003516)rotate(-90)scale(0.15 -0.15)">
      <defs>
       <path id="DejaVuSans-53" d="M 3425 4513 
L 3425 3897 
Q 3066 4069 2747 4153 
Q 2428 4238 2131 4238 
Q 1616 4238 1336 4038 
Q 1056 3838 1056 3469 
Q 1056 3159 1242 3001 
Q 1428 2844 1947 2747 
L 2328 2669 
Q 3034 2534 3370 2195 
Q 3706 1856 3706 1288 
Q 3706 609 3251 259 
Q 2797 -91 1919 -91 
Q 1588 -91 1214 -16 
Q 841 59 441 206 
L 441 856 
Q 825 641 1194 531 
Q 1563 422 1919 422 
Q 2459 422 2753 634 
Q 3047 847 3047 1241 
Q 3047 1584 2836 1778 
Q 2625 1972 2144 2069 
L 1759 2144 
Q 1053 2284 737 2584 
Q 422 2884 422 3419 
Q 422 4038 858 4394 
Q 1294 4750 2059 4750 
Q 2388 4750 2728 4690 
Q 3069 4631 3425 4513 
z
" transform="scale(0.015625)"/>
       <path id="DejaVuSans-63" d="M 3122 3366 
L 3122 2828 
Q 2878 2963 2633 3030 
Q 2388 3097 2138 3097 
Q 1578 3097 1268 2742 
Q 959 2388 959 1747 
Q 959 1106 1268 751 
Q 1578 397 2138 397 
Q 2388 397 2633 464 
Q 2878 531 3122 666 
L 3122 134 
Q 2881 22 2623 -34 
Q 2366 -91 2075 -91 
Q 1284 -91 818 406 
Q 353 903 353 1747 
Q 353 2603 823 3093 
Q 1294 3584 2113 3584 
Q 2378 3584 2631 3529 
Q 2884 3475 3122 3366 
z
" transform="scale(0.015625)"/>
       <path id="DejaVuSans-72" d="M 2631 2963 
Q 2534 3019 2420 3045 
Q 2306 3072 2169 3072 
Q 1681 3072 1420 2755 
Q 1159 2438 1159 1844 
L 1159 0 
L 581 0 
L 581 3500 
L 1159 3500 
L 1159 2956 
Q 1341 3275 1631 3429 
Q 1922 3584 2338 3584 
Q 2397 3584 2469 3576 
Q 2541 3569 2628 3553 
L 2631 2963 
z
" transform="scale(0.015625)"/>
      </defs>
      <use xlink:href="#DejaVuSans-53"/>
      <use xlink:href="#DejaVuSans-63" x="63.476562"/>
      <use xlink:href="#DejaVuSans-6f" x="118.457031"/>
      <use xlink:href="#DejaVuSans-72" x="179.638672"/>
      <use xlink:href="#DejaVuSans-65" x="218.501953"/>
     </g>
    </g>
   </g>
   <g id="line2d_14">
    <path d="M 74.329545 284.76 
L 74.698005 308.824615 
L 75.066464 308.824615 
L 75.434924 302.699077 
L 75.803383 302.261538 
L 76.171842 307.512 
L 76.540302 306.636923 
L 76.908761 307.949538 
L 77.27722 303.574154 
L 77.64568 303.574154 
L 78.014139 307.949538 
L 78.382599 301.386462 
L 78.751058 308.387077 
L 79.119517 307.512 
L 79.487977 307.074462 
L 79.856436 304.886769 
L 80.224895 305.324308 
L 80.593355 308.387077 
L 80.961814 303.136615 
L 81.330273 301.824 
L 81.698733 296.573538 
L 82.067192 307.512 
L 82.435652 304.449231 
L 82.804111 304.886769 
L 83.17257 304.886769 
L 83.54103 307.512 
L 83.909489 300.073846 
L 84.277948 303.574154 
L 84.646408 294.385846 
L 85.014867 292.635692 
L 85.383327 306.199385 
L 85.751786 305.324308 
L 86.120245 306.636923 
L 86.488705 307.074462 
L 86.857164 304.449231 
L 87.225623 306.636923 
L 87.594083 304.886769 
L 87.962542 308.824615 
L 88.331001 304.449231 
L 88.699461 279.947077 
L 89.06792 301.824 
L 89.43638 289.572923 
L 89.804839 293.510769 
L 90.173298 308.387077 
L 90.541758 306.636923 
L 90.910217 305.761846 
L 91.278676 304.449231 
L 91.647136 307.074462 
L 92.015595 307.074462 
L 92.384055 306.636923 
L 92.752514 302.261538 
L 93.120973 300.073846 
L 93.489433 309.262154 
L 93.857892 269.008615 
L 94.226351 304.886769 
L 94.594811 293.948308 
L 94.96327 305.324308 
L 95.331729 304.449231 
L 95.700189 306.199385 
L 96.068648 297.011077 
L 96.437108 306.636923 
L 96.805567 307.949538 
L 97.174026 302.699077 
L 97.542486 295.260923 
L 97.910945 306.199385 
L 98.279404 284.76 
L 98.647864 301.824 
L 99.016323 303.574154 
L 99.384783 308.387077 
L 99.753242 301.824 
L 100.121701 301.386462 
L 100.490161 300.511385 
L 100.85862 300.948923 
L 101.227079 297.886154 
L 101.595539 305.761846 
L 101.963998 302.699077 
L 102.332457 306.636923 
L 102.700917 308.387077 
L 103.069376 305.324308 
L 103.437836 309.262154 
L 103.806295 306.636923 
L 104.174754 301.386462 
L 104.543214 307.949538 
L 104.911673 303.136615 
L 105.280132 304.886769 
L 105.648592 304.886769 
L 106.017051 303.136615 
L 106.385511 305.324308 
L 106.75397 306.199385 
L 107.122429 301.824 
L 107.490889 300.948923 
L 107.859348 301.824 
L 108.227807 298.323692 
L 108.596267 302.261538 
L 108.964726 307.949538 
L 109.333185 304.449231 
L 109.701645 302.261538 
L 110.070104 297.886154 
L 110.438564 308.824615 
L 110.807023 308.387077 
L 111.175482 306.636923 
L 111.543942 303.574154 
L 111.912401 308.387077 
L 112.28086 303.574154 
L 112.64932 305.761846 
L 113.017779 305.761846 
L 113.386239 306.199385 
L 113.754698 305.761846 
L 114.123157 303.574154 
L 114.491617 307.949538 
L 114.860076 307.512 
L 115.228535 303.574154 
L 115.596995 290.448 
L 115.965454 307.949538 
L 116.333913 298.761231 
L 116.702373 304.886769 
L 117.070832 283.009846 
L 117.439292 306.199385 
L 117.807751 308.387077 
L 118.17621 297.886154 
L 118.54467 298.323692 
L 118.913129 309.262154 
L 119.281588 304.886769 
L 119.650048 308.387077 
L 120.018507 290.448 
L 120.386967 305.324308 
L 120.755426 305.324308 
L 121.123885 301.386462 
L 121.492345 307.512 
L 121.860804 297.011077 
L 122.229263 304.011692 
L 122.597723 297.011077 
L 122.966182 306.199385 
L 123.334641 306.636923 
L 123.703101 305.324308 
L 124.07156 299.636308 
L 124.44002 308.387077 
L 124.808479 305.324308 
L 125.176938 304.011692 
L 125.545398 304.011692 
L 125.913857 300.073846 
L 126.282316 304.011692 
L 126.650776 306.636923 
L 127.019235 304.449231 
L 127.387695 304.886769 
L 127.756154 306.199385 
L 128.124613 307.949538 
L 128.493073 294.385846 
L 129.229991 308.387077 
L 129.598451 307.512 
L 129.96691 305.324308 
L 130.335369 295.260923 
L 130.703829 303.574154 
L 131.072288 306.199385 
L 131.440748 300.511385 
L 131.809207 303.136615 
L 132.177666 302.261538 
L 132.546126 306.199385 
L 132.914585 306.199385 
L 133.283044 302.261538 
L 133.651504 304.011692 
L 134.019963 304.011692 
L 134.388423 300.511385 
L 134.756882 307.074462 
L 135.125341 304.449231 
L 135.493801 308.387077 
L 135.86226 304.449231 
L 136.230719 299.198769 
L 136.599179 298.761231 
L 136.967638 307.949538 
L 137.704557 303.574154 
L 138.073016 291.760615 
L 138.441476 297.011077 
L 138.809935 305.324308 
L 139.178394 297.448615 
L 139.546854 303.136615 
L 139.915313 306.199385 
L 140.652232 308.824615 
L 141.020691 283.447385 
L 141.389151 300.073846 
L 141.75761 308.824615 
L 142.126069 301.386462 
L 142.494529 304.449231 
L 142.862988 297.011077 
L 143.231447 307.074462 
L 143.599907 298.761231 
L 143.968366 304.449231 
L 144.336825 307.074462 
L 144.705285 306.636923 
L 145.073744 290.010462 
L 145.442204 307.949538 
L 145.810663 293.510769 
L 146.179122 307.074462 
L 146.547582 305.324308 
L 146.916041 307.949538 
L 147.2845 297.886154 
L 147.65296 301.386462 
L 148.021419 297.011077 
L 148.758338 304.449231 
L 149.126797 306.636923 
L 149.495257 307.512 
L 149.863716 297.886154 
L 150.232175 308.824615 
L 150.600635 290.010462 
L 150.969094 306.636923 
L 151.337553 304.886769 
L 151.706013 296.573538 
L 152.074472 300.948923 
L 152.442932 302.261538 
L 152.811391 299.636308 
L 153.17985 306.636923 
L 153.54831 304.449231 
L 153.916769 305.324308 
L 154.285228 302.699077 
L 154.653688 290.885538 
L 155.022147 307.512 
L 155.390607 301.386462 
L 155.759066 272.946462 
L 156.127525 299.636308 
L 156.495985 305.324308 
L 156.864444 305.761846 
L 157.232903 296.573538 
L 157.601363 306.199385 
L 157.969822 308.824615 
L 158.338281 300.948923 
L 158.706741 306.199385 
L 159.0752 301.824 
L 159.44366 308.387077 
L 159.812119 301.386462 
L 160.180578 300.948923 
L 160.549038 288.697846 
L 160.917497 301.386462 
L 161.285956 273.821538 
L 161.654416 307.074462 
L 162.022875 305.324308 
L 162.391335 293.510769 
L 162.759794 307.512 
L 163.128253 303.574154 
L 163.496713 303.136615 
L 163.865172 301.824 
L 164.233631 303.574154 
L 164.602091 302.699077 
L 164.97055 293.510769 
L 165.339009 303.574154 
L 165.707469 305.761846 
L 166.075928 300.948923 
L 166.444388 306.636923 
L 166.812847 300.948923 
L 167.181306 286.072615 
L 167.549766 301.824 
L 167.918225 304.886769 
L 168.286684 293.948308 
L 168.655144 306.636923 
L 169.023603 303.574154 
L 169.392063 291.760615 
L 169.760522 296.573538 
L 170.128981 304.886769 
L 170.497441 298.761231 
L 170.8659 295.260923 
L 171.234359 309.262154 
L 171.971278 297.886154 
L 172.708197 308.387077 
L 173.076656 307.074462 
L 173.445116 306.636923 
L 173.813575 300.948923 
L 174.182034 297.448615 
L 174.550494 297.448615 
L 174.918953 307.512 
L 175.287412 300.073846 
L 175.655872 299.198769 
L 176.024331 301.824 
L 176.392791 286.947692 
L 176.76125 300.511385 
L 177.129709 293.073231 
L 177.498169 306.199385 
L 177.866628 288.697846 
L 178.235087 301.824 
L 178.603547 299.198769 
L 178.972006 305.324308 
L 179.340465 302.261538 
L 179.708925 304.886769 
L 180.077384 305.761846 
L 180.445844 293.948308 
L 180.814303 291.323077 
L 181.182762 300.948923 
L 181.551222 302.261538 
L 181.919681 305.324308 
L 182.28814 304.449231 
L 182.6566 300.948923 
L 183.025059 301.824 
L 183.393519 296.573538 
L 183.761978 300.948923 
L 184.130437 297.011077 
L 184.498897 303.574154 
L 184.867356 300.511385 
L 185.235815 295.698462 
L 185.604275 299.636308 
L 185.972734 290.885538 
L 186.341193 272.946462 
L 186.709653 281.697231 
L 187.078112 299.198769 
L 187.446572 297.011077 
L 187.815031 305.761846 
L 188.18349 282.134769 
L 188.55195 304.886769 
L 188.920409 298.761231 
L 189.288868 282.572308 
L 189.657328 284.76 
L 190.025787 293.510769 
L 190.394247 307.074462 
L 190.762706 285.197538 
L 191.131165 301.386462 
L 191.499625 304.886769 
L 191.868084 302.699077 
L 192.236543 288.260308 
L 192.605003 294.823385 
L 192.973462 294.385846 
L 193.341921 279.509538 
L 193.710381 287.822769 
L 194.07884 289.135385 
L 194.4473 303.574154 
L 194.815759 302.261538 
L 195.184218 297.886154 
L 195.552678 289.572923 
L 195.921137 301.824 
L 196.289596 266.383385 
L 196.658056 283.447385 
L 197.026515 277.321846 
L 197.394975 279.072 
L 197.763434 276.446769 
L 198.131893 298.323692 
L 198.500353 274.259077 
L 198.868812 293.073231 
L 199.237271 290.885538 
L 199.605731 279.947077 
L 199.97419 303.136615 
L 200.342649 296.573538 
L 200.711109 286.072615 
L 201.079568 291.760615 
L 201.448028 282.134769 
L 201.816487 297.886154 
L 202.184946 274.696615 
L 202.553406 283.009846 
L 202.921865 299.198769 
L 203.290324 301.824 
L 203.658784 283.009846 
L 204.027243 295.698462 
L 204.395703 283.009846 
L 204.764162 282.134769 
L 205.132621 300.511385 
L 205.501081 306.636923 
L 205.86954 289.572923 
L 206.237999 296.573538 
L 206.606459 293.073231 
L 206.974918 292.635692 
L 207.343377 301.386462 
L 207.711837 284.322462 
L 208.080296 298.761231 
L 208.448756 290.448 
L 208.817215 293.948308 
L 209.185674 290.448 
L 209.554134 300.511385 
L 209.922593 302.699077 
L 210.291052 295.260923 
L 210.659512 301.824 
L 211.027971 302.699077 
L 211.396431 279.509538 
L 211.76489 286.072615 
L 212.133349 302.261538 
L 212.501809 291.760615 
L 212.870268 291.760615 
L 213.238727 286.510154 
L 213.607187 290.448 
L 213.975646 306.636923 
L 214.344105 289.572923 
L 214.712565 294.385846 
L 215.081024 303.574154 
L 215.449484 298.761231 
L 215.817943 301.824 
L 216.186402 286.947692 
L 216.554862 288.697846 
L 216.923321 286.072615 
L 217.29178 271.196308 
L 217.66024 296.136 
L 218.028699 287.822769 
L 218.397159 293.510769 
L 218.765618 289.572923 
L 219.134077 288.260308 
L 219.502537 291.760615 
L 219.870996 248.444308 
L 220.239455 299.198769 
L 220.607915 301.386462 
L 220.976374 294.385846 
L 221.344833 283.447385 
L 221.713293 304.886769 
L 222.081752 286.072615 
L 222.450212 303.574154 
L 222.818671 295.260923 
L 223.18713 290.448 
L 223.55559 278.634462 
L 223.924049 230.942769 
L 224.292508 303.136615 
L 224.660968 262.445538 
L 225.397887 302.261538 
L 225.766346 297.886154 
L 226.134805 271.633846 
L 226.503265 280.384615 
L 226.871724 256.32 
L 227.240183 295.260923 
L 227.608643 281.697231 
L 227.977102 299.198769 
L 228.345561 244.944 
L 228.714021 278.634462 
L 229.08248 283.884923 
L 229.45094 297.448615 
L 230.187858 275.134154 
L 230.556318 304.886769 
L 230.924777 291.760615 
L 231.293236 304.886769 
L 231.661696 280.384615 
L 232.030155 284.322462 
L 232.398615 266.383385 
L 232.767074 298.323692 
L 233.135533 278.196923 
L 233.503993 298.323692 
L 233.872452 245.381538 
L 234.240911 293.073231 
L 234.609371 290.010462 
L 234.97783 302.261538 
L 235.346289 264.195692 
L 235.714749 282.572308 
L 236.083208 289.135385 
L 236.451668 306.636923 
L 236.820127 304.011692 
L 237.188586 285.197538 
L 237.557046 255.882462 
L 237.925505 252.382154 
L 238.293964 287.385231 
L 238.662424 249.756923 
L 239.030883 289.135385 
L 239.399343 294.385846 
L 239.767802 249.756923 
L 240.136261 283.884923 
L 240.504721 267.696 
L 240.87318 260.257846 
L 241.241639 259.382769 
L 241.610099 279.947077 
L 241.978558 243.631385 
L 242.347017 280.822154 
L 242.715477 297.886154 
L 243.452396 276.884308 
L 243.820855 279.072 
L 244.189314 244.068923 
L 244.557774 262.008 
L 244.926233 286.510154 
L 245.294692 282.572308 
L 245.663152 293.073231 
L 246.031611 285.635077 
L 246.400071 262.445538 
L 246.76853 274.696615 
L 247.136989 275.571692 
L 247.505449 286.947692 
L 247.873908 277.759385 
L 248.242367 262.445538 
L 248.610827 300.073846 
L 248.979286 227.442462 
L 249.347745 268.571077 
L 249.716205 286.947692 
L 250.084664 283.884923 
L 250.453124 257.195077 
L 250.821583 253.257231 
L 251.190042 259.382769 
L 251.558502 247.569231 
L 251.926961 190.689231 
L 252.29542 266.820923 
L 252.66388 265.945846 
L 253.032339 268.571077 
L 253.400799 250.194462 
L 253.769258 261.570462 
L 254.137717 259.820308 
L 254.874636 250.632 
L 255.243095 272.071385 
L 255.611555 269.008615 
L 255.980014 246.256615 
L 256.348473 283.884923 
L 256.716933 276.009231 
L 257.085392 237.943385 
L 257.453852 297.448615 
L 257.822311 202.502769 
L 258.19077 214.753846 
L 258.55923 222.192 
L 258.927689 290.448 
L 259.296148 247.569231 
L 259.664608 265.945846 
L 260.033067 241.881231 
L 260.769986 249.319385 
L 261.138445 237.068308 
L 261.506905 275.134154 
L 261.875364 240.568615 
L 262.243823 258.070154 
L 262.612283 248.444308 
L 262.980742 245.819077 
L 263.349201 254.569846 
L 263.717661 243.193846 
L 264.45458 261.132923 
L 264.823039 215.191385 
L 265.191498 279.509538 
L 265.559958 253.694769 
L 265.928417 248.444308 
L 266.296876 232.255385 
L 266.665336 115.432615 
L 267.033795 232.692923 
L 267.402255 253.694769 
L 267.770714 135.121846 
L 268.139173 268.571077 
L 268.507633 262.008 
L 268.876092 271.633846 
L 269.244551 230.942769 
L 269.613011 259.382769 
L 269.98147 254.132308 
L 270.349929 289.572923 
L 270.718389 263.320615 
L 271.086848 279.072 
L 271.455308 239.693538 
L 272.192226 291.760615 
L 272.560686 275.571692 
L 272.929145 232.255385 
L 273.297604 269.446154 
L 273.666064 244.506462 
L 274.402983 266.820923 
L 274.771442 263.320615 
L 275.139901 271.196308 
L 275.508361 263.758154 
L 275.87682 276.884308 
L 276.245279 270.321231 
L 276.613739 297.886154 
L 276.982198 255.007385 
L 277.350657 260.257846 
L 277.719117 278.634462 
L 278.087576 272.946462 
L 278.456036 234.443077 
L 278.824495 287.822769 
L 279.192954 263.320615 
L 279.561414 270.321231 
L 279.929873 247.131692 
L 280.298332 286.947692 
L 280.666792 267.258462 
L 281.035251 271.633846 
L 281.403711 287.385231 
L 281.77217 292.635692 
L 282.140629 284.76 
L 282.509089 263.320615 
L 282.877548 283.884923 
L 283.246007 265.070769 
L 283.614467 253.257231 
L 283.982926 295.260923 
L 284.351385 205.565538 
L 284.719845 262.008 
L 285.088304 293.510769 
L 285.456764 293.073231 
L 285.825223 261.132923 
L 286.193682 274.259077 
L 286.562142 292.198154 
L 286.930601 274.259077 
L 287.29906 283.447385 
L 287.66752 279.947077 
L 288.035979 286.072615 
L 288.404439 284.76 
L 288.772898 275.134154 
L 289.141357 283.009846 
L 289.509817 285.635077 
L 289.878276 273.384 
L 290.615195 244.506462 
L 290.983654 290.010462 
L 291.352113 286.947692 
L 291.720573 271.633846 
L 292.457492 298.761231 
L 292.825951 299.198769 
L 293.19441 268.133538 
L 293.56287 299.198769 
L 293.931329 286.947692 
L 294.668248 269.008615 
L 295.036707 287.385231 
L 295.405167 285.197538 
L 295.773626 292.635692 
L 296.142085 271.196308 
L 296.510545 298.761231 
L 296.879004 298.323692 
L 297.247463 279.947077 
L 297.615923 296.573538 
L 297.984382 291.323077 
L 298.352841 276.009231 
L 298.721301 284.76 
L 299.08976 270.758769 
L 299.45822 290.448 
L 299.826679 299.198769 
L 300.195138 271.196308 
L 300.563598 274.259077 
L 300.932057 274.696615 
L 301.300516 290.448 
L 301.668976 290.010462 
L 302.037435 298.761231 
L 302.405895 280.384615 
L 302.774354 293.948308 
L 303.142813 279.509538 
L 303.511273 278.634462 
L 303.879732 290.885538 
L 304.248191 290.448 
L 304.616651 291.760615 
L 304.98511 266.383385 
L 305.353569 276.884308 
L 305.722029 278.634462 
L 306.090488 286.072615 
L 306.458948 269.008615 
L 306.827407 278.196923 
L 307.195866 259.820308 
L 307.564326 287.822769 
L 307.932785 257.195077 
L 308.301244 268.571077 
L 308.669704 261.132923 
L 309.038163 265.508308 
L 309.406623 286.510154 
L 309.775082 279.072 
L 310.143541 268.133538 
L 310.512001 250.194462 
L 310.88046 284.76 
L 311.248919 272.508923 
L 311.617379 266.383385 
L 311.985838 278.196923 
L 312.354297 263.320615 
L 312.722757 295.698462 
L 313.091216 261.570462 
L 313.459676 266.820923 
L 313.828135 296.573538 
L 314.196594 291.760615 
L 314.565054 273.821538 
L 314.933513 290.010462 
L 315.301972 283.447385 
L 315.670432 237.943385 
L 316.038891 299.198769 
L 316.407351 286.947692 
L 316.77581 293.948308 
L 317.144269 289.135385 
L 317.512729 287.822769 
L 317.881188 294.385846 
L 318.249647 269.008615 
L 318.618107 299.636308 
L 318.986566 272.946462 
L 319.355025 281.697231 
L 319.723485 269.446154 
L 320.091944 293.073231 
L 320.460404 278.196923 
L 320.828863 237.068308 
L 321.197322 284.76 
L 321.565782 265.945846 
L 321.934241 258.507692 
L 322.3027 290.448 
L 322.67116 280.384615 
L 323.039619 291.760615 
L 323.408079 289.572923 
L 323.776538 286.510154 
L 324.144997 262.008 
L 324.513457 271.633846 
L 324.881916 272.946462 
L 325.250375 265.945846 
L 325.618835 284.76 
L 325.987294 279.509538 
L 326.355753 269.446154 
L 326.724213 239.693538 
L 327.092672 291.760615 
L 327.461132 279.072 
L 327.829591 285.635077 
L 328.19805 275.134154 
L 328.56651 257.632615 
L 328.934969 279.947077 
L 329.303428 269.883692 
L 329.671888 280.822154 
L 330.040347 284.76 
L 330.408807 259.820308 
L 330.777266 270.321231 
L 331.145725 289.135385 
L 331.514185 252.382154 
L 331.882644 293.510769 
L 332.251103 273.821538 
L 332.619563 275.134154 
L 332.988022 278.196923 
L 333.724941 265.508308 
L 334.0934 275.571692 
L 334.46186 276.009231 
L 334.830319 258.070154 
L 335.198778 279.509538 
L 335.567238 279.072 
L 335.935697 270.321231 
L 336.304156 278.196923 
L 336.672616 281.259692 
L 337.041075 273.384 
L 337.409535 285.197538 
L 337.777994 281.259692 
L 338.146453 287.385231 
L 338.514913 286.947692 
L 338.883372 288.697846 
L 339.251831 288.697846 
L 339.620291 283.009846 
L 339.98875 286.072615 
L 340.357209 282.134769 
L 340.725669 276.446769 
L 341.094128 275.571692 
L 341.462588 286.072615 
L 341.831047 283.009846 
L 342.199506 288.260308 
L 342.567966 285.197538 
L 342.936425 276.009231 
L 343.673344 297.011077 
L 344.041803 298.323692 
L 344.410263 273.384 
L 344.778722 278.634462 
L 345.515641 296.136 
L 345.8841 273.821538 
L 346.621019 284.322462 
L 346.989478 289.135385 
L 347.357937 298.323692 
L 347.726397 281.259692 
L 348.094856 298.323692 
L 348.463316 300.073846 
L 349.200234 299.198769 
L 349.568694 300.948923 
L 349.937153 286.072615 
L 350.305612 301.824 
L 350.674072 294.823385 
L 351.042531 283.009846 
L 351.410991 297.448615 
L 351.77945 288.697846 
L 352.147909 297.448615 
L 352.516369 297.011077 
L 352.884828 284.76 
L 353.253287 297.448615 
L 353.621747 299.636308 
L 353.990206 298.761231 
L 354.358665 299.198769 
L 354.727125 295.260923 
L 355.095584 278.634462 
L 355.464044 286.072615 
L 355.832503 284.76 
L 356.200962 298.761231 
L 356.569422 263.758154 
L 356.937881 298.323692 
L 357.30634 298.323692 
L 357.6748 300.073846 
L 358.043259 255.882462 
L 358.411719 269.446154 
L 358.780178 294.385846 
L 359.148637 300.511385 
L 359.517097 279.509538 
L 359.885556 286.510154 
L 360.254015 277.759385 
L 360.622475 296.136 
L 361.359393 299.636308 
L 361.727853 277.759385 
L 362.096312 283.009846 
L 362.464772 278.634462 
L 362.833231 288.697846 
L 363.20169 270.321231 
L 363.57015 291.323077 
L 363.938609 280.822154 
L 364.307068 282.134769 
L 364.675528 288.697846 
L 365.043987 274.259077 
L 365.412447 289.572923 
L 365.780906 269.446154 
L 366.149365 293.510769 
L 366.517825 294.385846 
L 366.886284 281.259692 
L 367.254743 280.384615 
L 367.623203 295.260923 
L 367.991662 288.697846 
L 368.360121 285.635077 
L 368.728581 280.384615 
L 369.09704 270.758769 
L 369.4655 285.197538 
L 370.202418 257.632615 
L 370.939337 290.885538 
L 371.307796 281.697231 
L 371.676256 258.070154 
L 372.044715 286.947692 
L 372.413175 279.509538 
L 372.781634 295.260923 
L 373.150093 283.447385 
L 373.518553 285.635077 
L 373.887012 284.76 
L 374.255471 275.571692 
L 374.623931 271.196308 
L 374.99239 284.76 
L 375.360849 278.634462 
L 375.729309 258.945231 
L 376.097768 277.759385 
L 376.466228 288.260308 
L 376.834687 258.507692 
L 377.203146 284.322462 
L 377.571606 255.444923 
L 377.940065 252.382154 
L 378.308524 282.134769 
L 378.676984 277.759385 
L 379.045443 251.507077 
L 379.413903 285.197538 
L 379.782362 263.320615 
L 380.150821 287.822769 
L 380.519281 275.134154 
L 380.88774 272.508923 
L 381.256199 272.508923 
L 381.624659 232.255385 
L 381.993118 276.009231 
L 382.361577 293.510769 
L 382.730037 268.571077 
L 383.098496 276.446769 
L 383.466956 276.009231 
L 383.835415 269.008615 
L 384.203874 272.071385 
L 384.572334 273.821538 
L 384.940793 231.380308 
L 385.309252 277.321846 
L 385.677712 288.697846 
L 386.414631 281.697231 
L 386.78309 282.134769 
L 387.151549 285.197538 
L 387.520009 248.006769 
L 388.256927 273.821538 
L 388.625387 271.196308 
L 388.993846 249.756923 
L 389.362305 276.446769 
L 389.730765 290.010462 
L 390.099224 289.572923 
L 390.467684 281.697231 
L 390.836143 289.572923 
L 391.204602 285.635077 
L 391.573062 267.696 
L 391.941521 212.566154 
L 392.30998 263.758154 
L 392.67844 251.507077 
L 393.046899 271.633846 
L 393.415359 223.942154 
L 393.783818 210.378462 
L 394.152277 209.940923 
L 394.520737 271.196308 
L 394.889196 282.134769 
L 395.257655 277.321846 
L 395.626115 287.822769 
L 395.994574 286.072615 
L 396.363033 286.947692 
L 396.731493 283.009846 
L 397.099952 281.259692 
L 397.468412 289.572923 
L 397.836871 287.822769 
L 398.20533 287.822769 
L 398.57379 279.072 
L 398.942249 295.260923 
L 399.310708 276.009231 
L 399.679168 275.134154 
L 400.047627 281.697231 
L 400.416087 277.759385 
L 400.784546 258.507692 
L 401.153005 265.945846 
L 401.521465 262.883077 
L 401.889924 269.883692 
L 402.258383 258.945231 
L 402.626843 266.383385 
L 402.995302 248.006769 
L 403.732221 280.384615 
L 404.10068 208.628308 
L 404.46914 267.696 
L 404.837599 266.820923 
L 405.206058 279.947077 
L 405.574518 259.382769 
L 405.942977 275.134154 
L 406.311436 269.446154 
L 406.679896 261.132923 
L 407.048355 281.259692 
L 407.416815 265.508308 
L 407.785274 282.572308 
L 408.153733 267.696 
L 408.522193 258.070154 
L 408.890652 285.197538 
L 409.259111 258.945231 
L 409.627571 271.196308 
L 409.99603 279.072 
L 410.364489 276.446769 
L 410.732949 282.134769 
L 411.101408 255.882462 
L 411.469868 284.322462 
L 411.838327 279.072 
L 412.206786 289.572923 
L 412.575246 282.572308 
L 412.943705 283.884923 
L 413.312164 270.758769 
L 413.680624 271.633846 
L 414.049083 276.884308 
L 414.417543 280.384615 
L 414.786002 273.821538 
L 415.154461 206.878154 
L 415.522921 284.322462 
L 416.259839 274.259077 
L 416.628299 246.256615 
L 416.996758 265.508308 
L 417.365217 243.631385 
L 417.733677 269.008615 
L 418.102136 267.696 
L 418.470596 230.067692 
L 418.839055 281.697231 
L 419.207514 243.631385 
L 419.575974 230.505231 
L 419.944433 255.007385 
L 420.312892 270.758769 
L 420.681352 254.569846 
L 421.049811 194.627077 
L 421.418271 288.260308 
L 421.78673 282.134769 
L 422.155189 283.009846 
L 422.523649 251.944615 
L 422.892108 285.197538 
L 423.260567 278.196923 
L 423.629027 283.884923 
L 423.997486 265.945846 
L 424.365945 272.071385 
L 424.734405 285.635077 
L 425.102864 290.010462 
L 425.471324 239.256 
L 425.839783 286.947692 
L 426.208242 286.072615 
L 426.576702 277.759385 
L 426.945161 228.755077 
L 427.31362 241.006154 
L 427.68208 291.323077 
L 428.050539 281.259692 
L 428.418999 292.635692 
L 428.787458 291.323077 
L 429.155917 284.322462 
L 429.524377 280.822154 
L 429.892836 292.198154 
L 430.261295 287.822769 
L 430.629755 292.635692 
L 430.998214 279.072 
L 431.366673 293.510769 
L 431.735133 290.448 
L 432.103592 293.948308 
L 432.472052 293.948308 
L 432.840511 292.198154 
L 433.20897 286.072615 
L 433.57743 294.823385 
L 433.945889 288.697846 
L 434.314348 289.135385 
L 434.682808 289.135385 
L 435.051267 293.510769 
L 435.419727 292.198154 
L 435.788186 288.260308 
L 436.156645 291.323077 
L 436.525105 293.073231 
L 436.893564 293.510769 
L 437.262023 294.385846 
L 437.630483 293.073231 
L 437.998942 290.885538 
L 438.367401 290.448 
L 439.47278 293.073231 
L 439.841239 298.323692 
L 440.209698 290.885538 
L 440.578158 295.260923 
L 440.946617 293.510769 
L 441.315076 295.698462 
L 441.683536 293.510769 
L 442.051995 300.948923 
L 442.420455 302.699077 
L 442.420455 302.699077 
" clip-path="url(#p0a2e3d31e9)" style="fill: none; stroke: #708090; stroke-width: 1.5; stroke-linecap: square"/>
   </g>
   <g id="line2d_15">
    <path d="M 74.329545 303.486646 
L 74.698005 303.836677 
L 75.066464 303.661662 
L 75.434924 303.670412 
L 75.803383 302.996603 
L 76.171842 303.049108 
L 76.540302 302.777834 
L 79.119517 302.594068 
L 79.487977 302.349046 
L 79.856436 302.331545 
L 80.224895 301.929009 
L 80.961814 301.762745 
L 82.067192 301.964012 
L 83.17257 301.613982 
L 83.54103 301.631483 
L 83.909489 301.535225 
L 85.014867 301.981514 
L 85.383327 302.314043 
L 86.488705 302.270289 
L 87.225623 302.200283 
L 88.699461 302.095274 
L 89.06792 302.532812 
L 89.43638 302.515311 
L 89.804839 302.760332 
L 90.173298 302.856591 
L 90.541758 302.73408 
L 91.278676 302.73408 
L 91.647136 302.690326 
L 92.015595 302.50656 
L 93.857892 302.716578 
L 94.226351 303.407889 
L 94.594811 303.425391 
L 94.96327 303.661662 
L 96.068648 303.652911 
L 96.437108 303.87168 
L 97.174026 303.801674 
L 97.542486 303.556652 
L 97.910945 303.810425 
L 98.279404 303.661662 
L 98.647864 304.064197 
L 99.016323 303.687914 
L 99.753242 303.740418 
L 100.490161 303.600406 
L 101.595539 304.064197 
L 101.963998 303.75792 
L 102.700917 303.784172 
L 103.069376 303.64416 
L 103.437836 303.687914 
L 103.806295 303.442892 
L 105.280132 303.337883 
L 105.648592 303.346634 
L 106.017051 303.241625 
L 106.75397 303.346634 
L 107.490889 303.346634 
L 108.227807 303.372886 
L 108.596267 303.539151 
L 109.333185 303.521649 
L 110.438564 303.600406 
L 110.807023 303.469145 
L 111.912401 303.521649 
L 112.28086 303.259126 
L 113.386239 303.162868 
L 114.491617 303.084111 
L 115.596995 302.952849 
L 115.965454 303.224123 
L 116.333913 303.07536 
L 116.702373 303.241625 
L 117.070832 303.232874 
L 117.439292 303.740418 
L 117.807751 303.705415 
L 118.17621 303.521649 
L 118.54467 303.539151 
L 118.913129 303.731668 
L 119.650048 303.635409 
L 120.018507 303.30288 
L 120.386967 303.434142 
L 120.755426 303.434142 
L 121.123885 303.276628 
L 121.860804 303.285378 
L 122.597723 303.591655 
L 122.966182 303.320382 
L 123.334641 303.197871 
L 123.703101 303.241625 
L 124.07156 303.162868 
L 124.44002 303.259126 
L 124.808479 303.031606 
L 125.176938 303.066609 
L 125.913857 302.970351 
L 126.650776 303.162868 
L 127.019235 302.830338 
L 127.387695 302.900345 
L 127.756154 302.672825 
L 128.493073 302.637822 
L 128.861532 302.909095 
L 129.598451 302.681575 
L 130.335369 302.384049 
L 131.072288 302.629071 
L 132.177666 302.716578 
L 132.546126 302.471557 
L 133.283044 302.454055 
L 134.019963 302.27904 
L 136.599179 301.955262 
L 136.967638 302.130277 
L 137.336097 301.999015 
L 137.704557 301.342708 
L 138.073016 301.263951 
L 138.809935 301.71024 
L 139.178394 301.535225 
L 139.915313 301.824 
L 141.020691 301.552726 
L 141.389151 302.05152 
L 141.75761 302.077772 
L 142.862988 301.605231 
L 143.231447 301.14144 
L 143.599907 301.14144 
L 143.968366 301.272702 
L 144.336825 301.053932 
L 145.073744 301.001428 
L 145.442204 301.263951 
L 145.810663 301.14144 
L 146.179122 301.342708 
L 146.547582 301.2552 
L 146.916041 301.018929 
L 147.2845 300.931422 
L 147.65296 301.088935 
L 148.021419 301.080185 
L 148.389879 301.272702 
L 148.758338 301.272702 
L 149.126797 300.905169 
L 150.600635 300.633895 
L 150.969094 300.905169 
L 151.706013 300.441378 
L 152.074472 300.607643 
L 152.811391 300.423877 
L 153.17985 300.616394 
L 154.285228 300.388874 
L 154.653688 300.502634 
L 155.022147 300.826412 
L 155.759066 300.80016 
L 156.127525 301.290203 
L 157.232903 301.176443 
L 157.601363 301.228948 
L 157.969822 301.14144 
L 158.338281 300.703902 
L 158.706741 300.695151 
L 159.0752 300.432628 
L 159.44366 300.520135 
L 159.812119 300.126351 
L 160.549038 300.100098 
L 160.917497 300.432628 
L 161.285956 300.450129 
L 161.654416 301.071434 
L 162.022875 301.045182 
L 162.391335 300.817662 
L 163.865172 300.660148 
L 164.602091 300.660148 
L 165.707469 300.651397 
L 166.075928 300.476382 
L 166.444388 300.528886 
L 167.181306 300.301366 
L 167.549766 300.57264 
L 167.918225 300.353871 
L 168.286684 299.715065 
L 169.023603 299.32128 
L 169.392063 299.190018 
L 169.760522 299.470043 
L 170.128981 299.181268 
L 170.8659 299.181268 
L 171.234359 298.927495 
L 171.602819 298.437452 
L 171.971278 298.236185 
L 172.339737 298.419951 
L 172.708197 298.052418 
L 173.445116 297.868652 
L 173.813575 297.789895 
L 174.182034 297.536123 
L 174.918953 297.422363 
L 175.287412 296.862314 
L 176.024331 296.416025 
L 176.392791 296.451028 
L 176.76125 296.757305 
L 177.866628 296.547286 
L 179.708925 294.254585 
L 180.077384 294.123323 
L 180.445844 293.493268 
L 181.182762 293.467015 
L 181.551222 293.046978 
L 181.919681 293.06448 
L 182.28814 292.889465 
L 182.6566 292.521932 
L 183.025059 292.338166 
L 183.393519 291.944382 
L 183.761978 291.970634 
L 184.130437 291.445588 
L 184.498897 291.165563 
L 186.341193 290.614265 
L 186.709653 290.798031 
L 187.078112 291.174314 
L 187.446572 291.323077 
L 188.18349 290.990548 
L 188.55195 291.209317 
L 188.920409 290.964295 
L 189.657328 291.051803 
L 190.025787 291.331828 
L 190.394247 291.270572 
L 190.762706 291.008049 
L 191.131165 291.113058 
L 191.868084 291.051803 
L 192.236543 290.90304 
L 192.973462 291.331828 
L 193.341921 291.034302 
L 193.710381 291.165563 
L 194.07884 291.454338 
L 194.4473 291.506843 
L 195.552678 290.806782 
L 195.921137 291.148062 
L 196.289596 290.90304 
L 197.026515 291.865625 
L 197.763434 292.749452 
L 198.131893 292.959471 
L 198.500353 292.766954 
L 198.868812 293.003225 
L 199.237271 292.565686 
L 199.97419 292.828209 
L 200.711109 292.49568 
L 201.448028 292.539434 
L 201.816487 291.865625 
L 202.184946 291.891877 
L 202.553406 292.425674 
L 202.921865 292.653194 
L 203.290324 292.338166 
L 204.395703 292.618191 
L 205.132621 293.029477 
L 205.501081 292.591938 
L 205.86954 291.078055 
L 206.237999 291.349329 
L 206.606459 290.666769 
L 206.974918 290.465502 
L 207.343377 290.658018 
L 207.711837 290.588012 
L 208.448756 289.966708 
L 208.817215 289.284148 
L 209.185674 289.3104 
L 209.554134 289.135385 
L 209.922593 289.109132 
L 210.291052 287.954031 
L 211.027971 287.26272 
L 211.396431 287.157711 
L 211.76489 287.271471 
L 212.133349 287.052702 
L 212.870268 287.105206 
L 213.238727 287.367729 
L 213.975646 287.122708 
L 214.344105 286.317637 
L 214.712565 286.492652 
L 215.081024 286.168874 
L 215.449484 286.063865 
L 215.817943 284.996271 
L 216.186402 284.821255 
L 216.554862 284.882511 
L 216.923321 285.153785 
L 217.29178 284.716246 
L 217.66024 284.943766 
L 218.028699 284.803754 
L 218.397159 285.180037 
L 218.765618 285.390055 
L 219.134077 285.302548 
L 219.870996 283.867422 
L 220.239455 284.64624 
L 220.607915 283.657403 
L 220.976374 283.412382 
L 221.344833 283.412382 
L 221.713293 282.738572 
L 222.450212 281.951003 
L 223.18713 280.367114 
L 223.55559 280.157095 
L 223.924049 279.457034 
L 224.292508 280.454622 
L 224.660968 280.349612 
L 225.029427 280.865908 
L 225.397887 280.743397 
L 225.766346 280.279606 
L 226.134805 279.203262 
L 226.503265 279.010745 
L 226.871724 279.133255 
L 227.240183 279.658302 
L 227.608643 279.614548 
L 227.977102 279.693305 
L 228.345561 278.95824 
L 228.714021 279.553292 
L 229.08248 279.492037 
L 229.45094 279.553292 
L 230.187858 278.704468 
L 230.556318 279.203262 
L 230.924777 277.654375 
L 231.661696 276.831803 
L 232.030155 276.901809 
L 232.398615 276.359262 
L 232.767074 276.096738 
L 233.503993 274.705366 
L 233.872452 272.552677 
L 234.240911 272.981465 
L 234.97783 272.010129 
L 235.346289 270.968788 
L 235.714749 270.916283 
L 236.083208 270.461243 
L 236.451668 269.787434 
L 236.820127 268.667335 
L 237.188586 268.028529 
L 237.925505 267.512234 
L 238.293964 268.142289 
L 239.030883 267.678498 
L 239.399343 267.844763 
L 239.767802 266.007102 
L 240.136261 265.30704 
L 240.504721 264.073182 
L 240.87318 264.528222 
L 241.241639 264.274449 
L 241.610099 264.405711 
L 241.978558 263.644394 
L 242.347017 263.679397 
L 242.715477 263.049342 
L 243.083936 261.832985 
L 243.452396 261.570462 
L 243.820855 260.844148 
L 244.189314 260.424111 
L 244.557774 260.511618 
L 244.926233 260.18784 
L 245.663152 258.761465 
L 246.031611 257.921391 
L 246.400071 257.431348 
L 246.76853 256.486265 
L 247.136989 256.582523 
L 247.505449 256.144985 
L 248.242367 254.464837 
L 248.610827 251.524578 
L 248.979286 250.17696 
L 249.347745 250.702006 
L 249.716205 248.033022 
L 250.453124 247.227951 
L 250.821583 247.516726 
L 251.190042 247.070437 
L 251.558502 247.070437 
L 251.926961 247.201698 
L 252.29542 249.179372 
L 252.66388 249.109366 
L 253.032339 249.371889 
L 253.400799 248.794338 
L 253.769258 249.179372 
L 254.137717 249.783175 
L 254.506177 250.098203 
L 254.874636 249.634412 
L 255.243095 250.010695 
L 255.611555 249.459397 
L 255.980014 249.223126 
L 256.348473 249.634412 
L 256.716933 249.223126 
L 257.085392 249.126868 
L 257.453852 249.643163 
L 257.822311 249.231877 
L 258.927689 252.9072 
L 259.296148 252.303397 
L 259.664608 252.924702 
L 260.033067 253.064714 
L 260.401527 252.915951 
L 260.769986 253.764775 
L 261.138445 254.0448 
L 261.506905 254.709858 
L 261.875364 254.149809 
L 262.243823 255.077391 
L 262.612283 255.261157 
L 262.980742 255.724948 
L 264.08612 258.148911 
L 264.45458 258.393932 
L 264.823039 258.848972 
L 265.191498 259.84656 
L 265.559958 259.321514 
L 265.928417 260.152837 
L 266.296876 259.295262 
L 266.665336 259.890314 
L 267.033795 263.451877 
L 267.402255 264.659483 
L 267.770714 264.808246 
L 268.139173 267.590991 
L 268.507633 268.063532 
L 269.244551 268.544825 
L 269.613011 269.524911 
L 270.349929 270.671262 
L 270.718389 270.382486 
L 271.086848 270.776271 
L 271.455308 270.907532 
L 271.823767 271.581342 
L 272.192226 271.327569 
L 272.560686 270.382486 
L 272.929145 270.671262 
L 273.297604 271.765108 
L 273.666064 271.808862 
L 274.771442 274.119065 
L 275.139901 274.215323 
L 275.87682 275.239163 
L 276.613739 275.247914 
L 276.982198 275.037895 
L 277.719117 276.289255 
L 278.087576 276.140492 
L 278.456036 276.656788 
L 278.824495 277.9344 
L 279.192954 277.776886 
L 279.561414 278.441945 
L 280.298332 279.439532 
L 280.666792 279.395778 
L 281.035251 279.465785 
L 281.77217 280.078338 
L 282.140629 279.649551 
L 282.509089 279.439532 
L 283.246007 279.798314 
L 283.614467 280.297108 
L 283.982926 281.207188 
L 284.351385 280.909662 
L 284.719845 282.677317 
L 285.088304 283.027348 
L 285.456764 282.729822 
L 285.825223 282.686068 
L 286.193682 283.272369 
L 286.562142 283.6224 
L 286.930601 283.106105 
L 287.29906 283.158609 
L 287.66752 283.062351 
L 288.035979 283.184862 
L 288.404439 282.843582 
L 288.772898 282.71232 
L 289.141357 282.406043 
L 289.509817 282.502302 
L 289.878276 281.933502 
L 290.246735 281.837243 
L 290.615195 281.924751 
L 290.983654 282.344788 
L 292.089032 282.047262 
L 292.457492 281.329698 
L 292.825951 281.049674 
L 293.19441 280.515877 
L 293.56287 280.480874 
L 294.299788 279.588295 
L 294.668248 279.929575 
L 295.036707 279.780812 
L 295.405167 279.369526 
L 295.773626 279.597046 
L 296.879004 279.457034 
L 297.247463 279.159508 
L 297.615923 278.319434 
L 297.984382 278.371938 
L 298.352841 278.284431 
L 298.721301 278.643212 
L 299.08976 278.73072 
L 299.45822 279.072 
L 299.826679 279.150757 
L 300.195138 278.546954 
L 300.563598 279.115754 
L 300.932057 279.089502 
L 301.300516 279.229514 
L 301.668976 278.809477 
L 302.037435 278.870732 
L 302.405895 278.459446 
L 302.774354 277.59312 
L 303.511273 277.13808 
L 303.879732 276.735545 
L 304.248191 276.726794 
L 304.616651 276.525526 
L 304.98511 276.525526 
L 305.353569 276.989317 
L 305.722029 277.181834 
L 306.458948 276.560529 
L 306.827407 276.639286 
L 307.195866 276.394265 
L 307.564326 276.893058 
L 307.932785 276.726794 
L 308.301244 276.971815 
L 308.669704 276.394265 
L 309.038163 277.006818 
L 309.406623 277.278092 
L 310.143541 277.181834 
L 310.512001 276.971815 
L 310.88046 277.566868 
L 311.248919 277.269342 
L 311.617379 277.435606 
L 311.985838 277.803138 
L 312.354297 277.435606 
L 312.722757 277.575618 
L 313.459676 277.260591 
L 313.828135 277.794388 
L 314.565054 277.006818 
L 314.933513 277.094326 
L 315.670432 276.368012 
L 316.038891 277.120578 
L 317.144269 275.790462 
L 317.512729 275.589194 
L 318.249647 274.915385 
L 318.618107 275.160406 
L 318.986566 274.63536 
L 319.355025 274.880382 
L 319.723485 274.871631 
L 320.091944 275.230412 
L 320.460404 275.107902 
L 320.828863 275.31792 
L 321.197322 276.350511 
L 321.565782 276.315508 
L 322.3027 277.190585 
L 322.67116 276.91056 
L 324.144997 276.604283 
L 324.513457 277.068074 
L 324.881916 277.155582 
L 325.250375 277.461858 
L 325.618835 278.083163 
L 325.987294 278.354437 
L 326.355753 278.231926 
L 326.724213 278.415692 
L 327.092672 279.352025 
L 327.461132 279.439532 
L 328.19805 279.220763 
L 328.56651 279.404529 
L 328.934969 280.034585 
L 329.671888 280.629637 
L 330.408807 281.285945 
L 331.145725 282.659815 
L 331.514185 282.896086 
L 331.882644 283.569895 
L 332.251103 283.73616 
L 332.619563 284.156197 
L 332.988022 284.313711 
L 333.724941 285.040025 
L 334.46186 286.107618 
L 334.830319 286.282634 
L 335.198778 287.070203 
L 335.935697 287.866523 
L 336.304156 288.444074 
L 336.672616 288.785354 
L 337.041075 288.732849 
L 337.409535 288.986622 
L 337.777994 288.977871 
L 338.146453 289.327902 
L 338.514913 288.85536 
L 339.620291 289.502917 
L 339.98875 288.960369 
L 340.357209 288.62784 
L 340.725669 288.872862 
L 341.094128 289.354154 
L 341.831047 289.441662 
L 342.199506 289.336652 
L 342.936425 289.747938 
L 343.304884 290.22048 
L 344.041803 289.730437 
L 344.410263 289.336652 
L 344.778722 289.642929 
L 345.147181 289.476665 
L 345.515641 289.572923 
L 345.8841 289.266646 
L 346.621019 289.607926 
L 346.989478 289.406658 
L 347.357937 289.415409 
L 347.726397 288.837858 
L 348.094856 289.08288 
L 348.463316 289.004123 
L 349.200234 288.242806 
L 349.568694 288.164049 
L 349.937153 287.919028 
L 350.305612 287.910277 
L 351.042531 287.000197 
L 351.410991 287.043951 
L 352.516369 285.468812 
L 353.253287 285.285046 
L 353.621747 284.497477 
L 355.095584 283.543643 
L 355.464044 283.683655 
L 355.832503 283.657403 
L 356.200962 283.473637 
L 356.569422 282.922338 
L 356.937881 283.342375 
L 357.30634 282.948591 
L 357.6748 282.161022 
L 358.043259 281.714732 
L 358.411719 282.362289 
L 359.148637 281.942252 
L 359.517097 281.040923 
L 359.885556 280.498375 
L 360.622475 280.410868 
L 360.990934 279.518289 
L 361.359393 279.264517 
L 361.727853 278.538203 
L 362.096312 278.739471 
L 362.833231 278.459446 
L 363.20169 278.135668 
L 363.57015 277.374351 
L 363.938609 277.068074 
L 364.307068 277.321846 
L 365.043987 276.805551 
L 365.412447 276.840554 
L 365.780906 276.429268 
L 366.149365 276.481772 
L 366.517825 276.087988 
L 366.886284 274.827877 
L 367.254743 274.74912 
L 367.623203 274.915385 
L 368.360121 274.565354 
L 368.728581 274.495348 
L 369.09704 274.591606 
L 369.833959 273.681526 
L 370.202418 273.716529 
L 370.570878 273.987803 
L 370.939337 273.480258 
L 371.307796 273.191483 
L 371.676256 273.357748 
L 372.044715 273.987803 
L 372.413175 273.882794 
L 372.781634 274.084062 
L 373.518553 273.576517 
L 373.887012 272.115138 
L 374.623931 271.213809 
L 374.99239 271.22256 
L 376.097768 267.660997 
L 376.834687 267.407225 
L 377.203146 267.783508 
L 377.571606 267.853514 
L 378.308524 269.157378 
L 379.045443 269.244886 
L 379.413903 270.006203 
L 379.782362 270.058708 
L 380.150821 270.548751 
L 380.519281 270.373735 
L 380.88774 270.776271 
L 381.624659 270.898782 
L 381.993118 271.887618 
L 382.361577 271.922622 
L 382.730037 271.22256 
L 383.098496 271.170055 
L 383.466956 270.898782 
L 384.572334 270.461243 
L 384.940793 269.944948 
L 385.309252 270.645009 
L 385.677712 270.706265 
L 386.046171 269.104874 
L 386.78309 268.466068 
L 387.151549 268.422314 
L 387.520009 267.906018 
L 387.888468 268.448566 
L 388.256927 268.588578 
L 388.625387 268.334806 
L 389.730765 268.973612 
L 390.099224 268.527323 
L 390.467684 267.897268 
L 390.836143 267.967274 
L 391.204602 267.35472 
L 391.573062 267.065945 
L 391.941521 267.293465 
L 392.30998 268.571077 
L 392.67844 268.938609 
L 393.046899 269.026117 
L 393.415359 269.279889 
L 393.783818 270.382486 
L 394.520737 273.419003 
L 394.889196 273.672775 
L 395.994574 273.112726 
L 396.363033 272.998966 
L 396.731493 272.736443 
L 397.099952 271.213809 
L 397.468412 271.275065 
L 398.20533 270.785022 
L 398.57379 269.953698 
L 398.942249 269.682425 
L 399.310708 268.649834 
L 400.047627 268.361058 
L 400.416087 267.328468 
L 400.784546 267.407225 
L 401.153005 267.109698 
L 401.521465 266.400886 
L 401.889924 266.243372 
L 402.626843 266.173366 
L 402.995302 264.73824 
L 403.363761 265.543311 
L 403.732221 265.858338 
L 404.10068 265.910843 
L 404.46914 266.777169 
L 405.206058 267.35472 
L 406.311436 267.503483 
L 406.679896 267.827262 
L 407.048355 268.404812 
L 407.416815 267.564738 
L 407.785274 267.993526 
L 408.153733 268.063532 
L 408.522193 268.2648 
L 408.890652 267.678498 
L 409.259111 266.794671 
L 409.627571 267.442228 
L 410.364489 267.914769 
L 410.732949 268.212295 
L 411.101408 268.256049 
L 411.469868 268.754843 
L 412.575246 269.148628 
L 412.943705 269.078622 
L 413.312164 269.271138 
L 414.786002 270.688763 
L 415.154461 270.933785 
L 415.522921 272.692689 
L 415.89138 272.780197 
L 416.628299 273.287742 
L 416.996758 274.232825 
L 417.365217 274.766622 
L 417.733677 275.6592 
L 418.470596 276.613034 
L 418.839055 277.881895 
L 419.207514 278.135668 
L 420.312892 281.040923 
L 420.681352 281.452209 
L 421.049811 282.204775 
L 421.418271 284.173698 
L 422.523649 284.795003 
L 422.892108 285.626326 
L 423.629027 286.142622 
L 423.997486 286.483902 
L 424.365945 287.218966 
L 424.365945 287.218966 
" clip-path="url(#p0a2e3d31e9)" style="fill: none; stroke: #000080; stroke-width: 1.5; stroke-linecap: square"/>
   </g>
   <g id="line2d_16">
    <path d="M 55.925 94.430769 
L 460.825 94.430769 
" clip-path="url(#p0a2e3d31e9)" style="fill: none; stroke-dasharray: 5.55,2.4; stroke-dashoffset: 0; stroke: #008000; stroke-width: 1.5"/>
   </g>
   <g id="patch_3">
    <path d="M 55.925 313.2 
L 55.925 28.8 
" style="fill: none; stroke: #000000; stroke-width: 0.8; stroke-linejoin: miter; stroke-linecap: square"/>
   </g>
   <g id="patch_4">
    <path d="M 460.825 313.2 
L 460.825 28.8 
" style="fill: none; stroke: #000000; stroke-width: 0.8; stroke-linejoin: miter; stroke-linecap: square"/>
   </g>
   <g id="patch_5">
    <path d="M 55.925 313.2 
L 460.825 313.2 
" style="fill: none; stroke: #000000; stroke-width: 0.8; stroke-linejoin: miter; stroke-linecap: square"/>
   </g>
   <g id="patch_6">
    <path d="M 55.925 28.8 
L 460.825 28.8 
" style="fill: none; stroke: #000000; stroke-width: 0.8; stroke-linejoin: miter; stroke-linecap: square"/>
   </g>
   <g id="text_16">
    <!-- gamma = 0.9236842105263158,lr = 0.007742636826811269 -->
    <g transform="translate(23.601562 22.8)scale(0.15 -0.15)">
     <defs>
      <path id="DejaVuSans-67" d="M 2906 1791 
Q 2906 2416 2648 2759 
Q 2391 3103 1925 3103 
Q 1463 3103 1205 2759 
Q 947 2416 947 1791 
Q 947 1169 1205 825 
Q 1463 481 1925 481 
Q 2391 481 2648 825 
Q 2906 1169 2906 1791 
z
M 3481 434 
Q 3481 -459 3084 -895 
Q 2688 -1331 1869 -1331 
Q 1566 -1331 1297 -1286 
Q 1028 -1241 775 -1147 
L 775 -588 
Q 1028 -725 1275 -790 
Q 1522 -856 1778 -856 
Q 2344 -856 2625 -561 
Q 2906 -266 2906 331 
L 2906 616 
Q 2728 306 2450 153 
Q 2172 0 1784 0 
Q 1141 0 747 490 
Q 353 981 353 1791 
Q 353 2603 747 3093 
Q 1141 3584 1784 3584 
Q 2172 3584 2450 3431 
Q 2728 3278 2906 2969 
L 2906 3500 
L 3481 3500 
L 3481 434 
z
" transform="scale(0.015625)"/>
      <path id="DejaVuSans-61" d="M 2194 1759 
Q 1497 1759 1228 1600 
Q 959 1441 959 1056 
Q 959 750 1161 570 
Q 1363 391 1709 391 
Q 2188 391 2477 730 
Q 2766 1069 2766 1631 
L 2766 1759 
L 2194 1759 
z
M 3341 1997 
L 3341 0 
L 2766 0 
L 2766 531 
Q 2569 213 2275 61 
Q 1981 -91 1556 -91 
Q 1019 -91 701 211 
Q 384 513 384 1019 
Q 384 1609 779 1909 
Q 1175 2209 1959 2209 
L 2766 2209 
L 2766 2266 
Q 2766 2663 2505 2880 
Q 2244 3097 1772 3097 
Q 1472 3097 1187 3025 
Q 903 2953 641 2809 
L 641 3341 
Q 956 3463 1253 3523 
Q 1550 3584 1831 3584 
Q 2591 3584 2966 3190 
Q 3341 2797 3341 1997 
z
" transform="scale(0.015625)"/>
      <path id="DejaVuSans-6d" d="M 3328 2828 
Q 3544 3216 3844 3400 
Q 4144 3584 4550 3584 
Q 5097 3584 5394 3201 
Q 5691 2819 5691 2113 
L 5691 0 
L 5113 0 
L 5113 2094 
Q 5113 2597 4934 2840 
Q 4756 3084 4391 3084 
Q 3944 3084 3684 2787 
Q 3425 2491 3425 1978 
L 3425 0 
L 2847 0 
L 2847 2094 
Q 2847 2600 2669 2842 
Q 2491 3084 2119 3084 
Q 1678 3084 1418 2786 
Q 1159 2488 1159 1978 
L 1159 0 
L 581 0 
L 581 3500 
L 1159 3500 
L 1159 2956 
Q 1356 3278 1631 3431 
Q 1906 3584 2284 3584 
Q 2666 3584 2933 3390 
Q 3200 3197 3328 2828 
z
" transform="scale(0.015625)"/>
      <path id="DejaVuSans-20" transform="scale(0.015625)"/>
      <path id="DejaVuSans-3d" d="M 678 2906 
L 4684 2906 
L 4684 2381 
L 678 2381 
L 678 2906 
z
M 678 1631 
L 4684 1631 
L 4684 1100 
L 678 1100 
L 678 1631 
z
" transform="scale(0.015625)"/>
      <path id="DejaVuSans-2e" d="M 684 794 
L 1344 794 
L 1344 0 
L 684 0 
L 684 794 
z
" transform="scale(0.015625)"/>
      <path id="DejaVuSans-39" d="M 703 97 
L 703 672 
Q 941 559 1184 500 
Q 1428 441 1663 441 
Q 2288 441 2617 861 
Q 2947 1281 2994 2138 
Q 2813 1869 2534 1725 
Q 2256 1581 1919 1581 
Q 1219 1581 811 2004 
Q 403 2428 403 3163 
Q 403 3881 828 4315 
Q 1253 4750 1959 4750 
Q 2769 4750 3195 4129 
Q 3622 3509 3622 2328 
Q 3622 1225 3098 567 
Q 2575 -91 1691 -91 
Q 1453 -91 1209 -44 
Q 966 3 703 97 
z
M 1959 2075 
Q 2384 2075 2632 2365 
Q 2881 2656 2881 3163 
Q 2881 3666 2632 3958 
Q 2384 4250 1959 4250 
Q 1534 4250 1286 3958 
Q 1038 3666 1038 3163 
Q 1038 2656 1286 2365 
Q 1534 2075 1959 2075 
z
" transform="scale(0.015625)"/>
      <path id="DejaVuSans-2c" d="M 750 794 
L 1409 794 
L 1409 256 
L 897 -744 
L 494 -744 
L 750 256 
L 750 794 
z
" transform="scale(0.015625)"/>
      <path id="DejaVuSans-6c" d="M 603 4863 
L 1178 4863 
L 1178 0 
L 603 0 
L 603 4863 
z
" transform="scale(0.015625)"/>
      <path id="DejaVuSans-37" d="M 525 4666 
L 3525 4666 
L 3525 4397 
L 1831 0 
L 1172 0 
L 2766 4134 
L 525 4134 
L 525 4666 
z
" transform="scale(0.015625)"/>
     </defs>
     <use xlink:href="#DejaVuSans-67"/>
     <use xlink:href="#DejaVuSans-61" x="63.476562"/>
     <use xlink:href="#DejaVuSans-6d" x="124.755859"/>
     <use xlink:href="#DejaVuSans-6d" x="222.167969"/>
     <use xlink:href="#DejaVuSans-61" x="319.580078"/>
     <use xlink:href="#DejaVuSans-20" x="380.859375"/>
     <use xlink:href="#DejaVuSans-3d" x="412.646484"/>
     <use xlink:href="#DejaVuSans-20" x="496.435547"/>
     <use xlink:href="#DejaVuSans-30" x="528.222656"/>
     <use xlink:href="#DejaVuSans-2e" x="591.845703"/>
     <use xlink:href="#DejaVuSans-39" x="623.632812"/>
     <use xlink:href="#DejaVuSans-32" x="687.255859"/>
     <use xlink:href="#DejaVuSans-33" x="750.878906"/>
     <use xlink:href="#DejaVuSans-36" x="814.501953"/>
     <use xlink:href="#DejaVuSans-38" x="878.125"/>
     <use xlink:href="#DejaVuSans-34" x="941.748047"/>
     <use xlink:href="#DejaVuSans-32" x="1005.371094"/>
     <use xlink:href="#DejaVuSans-31" x="1068.994141"/>
     <use xlink:href="#DejaVuSans-30" x="1132.617188"/>
     <use xlink:href="#DejaVuSans-35" x="1196.240234"/>
     <use xlink:href="#DejaVuSans-32" x="1259.863281"/>
     <use xlink:href="#DejaVuSans-36" x="1323.486328"/>
     <use xlink:href="#DejaVuSans-33" x="1387.109375"/>
     <use xlink:href="#DejaVuSans-31" x="1450.732422"/>
     <use xlink:href="#DejaVuSans-35" x="1514.355469"/>
     <use xlink:href="#DejaVuSans-38" x="1577.978516"/>
     <use xlink:href="#DejaVuSans-2c" x="1641.601562"/>
     <use xlink:href="#DejaVuSans-6c" x="1673.388672"/>
     <use xlink:href="#DejaVuSans-72" x="1701.171875"/>
     <use xlink:href="#DejaVuSans-20" x="1742.285156"/>
     <use xlink:href="#DejaVuSans-3d" x="1774.072266"/>
     <use xlink:href="#DejaVuSans-20" x="1857.861328"/>
     <use xlink:href="#DejaVuSans-30" x="1889.648438"/>
     <use xlink:href="#DejaVuSans-2e" x="1953.271484"/>
     <use xlink:href="#DejaVuSans-30" x="1985.058594"/>
     <use xlink:href="#DejaVuSans-30" x="2048.681641"/>
     <use xlink:href="#DejaVuSans-37" x="2112.304688"/>
     <use xlink:href="#DejaVuSans-37" x="2175.927734"/>
     <use xlink:href="#DejaVuSans-34" x="2239.550781"/>
     <use xlink:href="#DejaVuSans-32" x="2303.173828"/>
     <use xlink:href="#DejaVuSans-36" x="2366.796875"/>
     <use xlink:href="#DejaVuSans-33" x="2430.419922"/>
     <use xlink:href="#DejaVuSans-36" x="2494.042969"/>
     <use xlink:href="#DejaVuSans-38" x="2557.666016"/>
     <use xlink:href="#DejaVuSans-32" x="2621.289062"/>
     <use xlink:href="#DejaVuSans-36" x="2684.912109"/>
     <use xlink:href="#DejaVuSans-38" x="2748.535156"/>
     <use xlink:href="#DejaVuSans-31" x="2812.158203"/>
     <use xlink:href="#DejaVuSans-31" x="2875.78125"/>
     <use xlink:href="#DejaVuSans-32" x="2939.404297"/>
     <use xlink:href="#DejaVuSans-36" x="3003.027344"/>
     <use xlink:href="#DejaVuSans-39" x="3066.650391"/>
    </g>
   </g>
   <g id="legend_1">
    <g id="patch_7">
     <path d="M 293.50625 80.834375 
L 453.825 80.834375 
Q 455.825 80.834375 455.825 78.834375 
L 455.825 35.8 
Q 455.825 33.8 453.825 33.8 
L 293.50625 33.8 
Q 291.50625 33.8 291.50625 35.8 
L 291.50625 78.834375 
Q 291.50625 80.834375 293.50625 80.834375 
z
" style="fill: #ffffff; opacity: 0.8; stroke: #cccccc; stroke-linejoin: miter"/>
    </g>
    <g id="line2d_17">
     <path d="M 295.50625 41.898438 
L 305.50625 41.898438 
L 315.50625 41.898438 
" style="fill: none; stroke: #708090; stroke-width: 1.5; stroke-linecap: square"/>
    </g>
    <g id="text_17">
     <!-- Episodes score -->
     <g transform="translate(323.50625 45.398438)scale(0.1 -0.1)">
      <use xlink:href="#DejaVuSans-45"/>
      <use xlink:href="#DejaVuSans-70" x="63.183594"/>
      <use xlink:href="#DejaVuSans-69" x="126.660156"/>
      <use xlink:href="#DejaVuSans-73" x="154.443359"/>
      <use xlink:href="#DejaVuSans-6f" x="206.542969"/>
      <use xlink:href="#DejaVuSans-64" x="267.724609"/>
      <use xlink:href="#DejaVuSans-65" x="331.201172"/>
      <use xlink:href="#DejaVuSans-73" x="392.724609"/>
      <use xlink:href="#DejaVuSans-20" x="444.824219"/>
      <use xlink:href="#DejaVuSans-73" x="476.611328"/>
      <use xlink:href="#DejaVuSans-63" x="528.710938"/>
      <use xlink:href="#DejaVuSans-6f" x="583.691406"/>
      <use xlink:href="#DejaVuSans-72" x="644.873047"/>
      <use xlink:href="#DejaVuSans-65" x="683.736328"/>
     </g>
    </g>
    <g id="line2d_18">
     <path d="M 295.50625 56.576563 
L 305.50625 56.576563 
L 315.50625 56.576563 
" style="fill: none; stroke: #000080; stroke-width: 1.5; stroke-linecap: square"/>
    </g>
    <g id="text_18">
     <!-- Moving average of scores -->
     <g transform="translate(323.50625 60.076563)scale(0.1 -0.1)">
      <defs>
       <path id="DejaVuSans-4d" d="M 628 4666 
L 1569 4666 
L 2759 1491 
L 3956 4666 
L 4897 4666 
L 4897 0 
L 4281 0 
L 4281 4097 
L 3078 897 
L 2444 897 
L 1241 4097 
L 1241 0 
L 628 0 
L 628 4666 
z
" transform="scale(0.015625)"/>
       <path id="DejaVuSans-76" d="M 191 3500 
L 800 3500 
L 1894 563 
L 2988 3500 
L 3597 3500 
L 2284 0 
L 1503 0 
L 191 3500 
z
" transform="scale(0.015625)"/>
       <path id="DejaVuSans-6e" d="M 3513 2113 
L 3513 0 
L 2938 0 
L 2938 2094 
Q 2938 2591 2744 2837 
Q 2550 3084 2163 3084 
Q 1697 3084 1428 2787 
Q 1159 2491 1159 1978 
L 1159 0 
L 581 0 
L 581 3500 
L 1159 3500 
L 1159 2956 
Q 1366 3272 1645 3428 
Q 1925 3584 2291 3584 
Q 2894 3584 3203 3211 
Q 3513 2838 3513 2113 
z
" transform="scale(0.015625)"/>
       <path id="DejaVuSans-66" d="M 2375 4863 
L 2375 4384 
L 1825 4384 
Q 1516 4384 1395 4259 
Q 1275 4134 1275 3809 
L 1275 3500 
L 2222 3500 
L 2222 3053 
L 1275 3053 
L 1275 0 
L 697 0 
L 697 3053 
L 147 3053 
L 147 3500 
L 697 3500 
L 697 3744 
Q 697 4328 969 4595 
Q 1241 4863 1831 4863 
L 2375 4863 
z
" transform="scale(0.015625)"/>
      </defs>
      <use xlink:href="#DejaVuSans-4d"/>
      <use xlink:href="#DejaVuSans-6f" x="86.279297"/>
      <use xlink:href="#DejaVuSans-76" x="147.460938"/>
      <use xlink:href="#DejaVuSans-69" x="206.640625"/>
      <use xlink:href="#DejaVuSans-6e" x="234.423828"/>
      <use xlink:href="#DejaVuSans-67" x="297.802734"/>
      <use xlink:href="#DejaVuSans-20" x="361.279297"/>
      <use xlink:href="#DejaVuSans-61" x="393.066406"/>
      <use xlink:href="#DejaVuSans-76" x="454.345703"/>
      <use xlink:href="#DejaVuSans-65" x="513.525391"/>
      <use xlink:href="#DejaVuSans-72" x="575.048828"/>
      <use xlink:href="#DejaVuSans-61" x="616.162109"/>
      <use xlink:href="#DejaVuSans-67" x="677.441406"/>
      <use xlink:href="#DejaVuSans-65" x="740.917969"/>
      <use xlink:href="#DejaVuSans-20" x="802.441406"/>
      <use xlink:href="#DejaVuSans-6f" x="834.228516"/>
      <use xlink:href="#DejaVuSans-66" x="895.410156"/>
      <use xlink:href="#DejaVuSans-20" x="930.615234"/>
      <use xlink:href="#DejaVuSans-73" x="962.402344"/>
      <use xlink:href="#DejaVuSans-63" x="1014.501953"/>
      <use xlink:href="#DejaVuSans-6f" x="1069.482422"/>
      <use xlink:href="#DejaVuSans-72" x="1130.664062"/>
      <use xlink:href="#DejaVuSans-65" x="1169.527344"/>
      <use xlink:href="#DejaVuSans-73" x="1231.050781"/>
     </g>
    </g>
    <g id="line2d_19">
     <path d="M 295.50625 71.254687 
L 305.50625 71.254687 
L 315.50625 71.254687 
" style="fill: none; stroke-dasharray: 5.55,2.4; stroke-dashoffset: 0; stroke: #008000; stroke-width: 1.5"/>
    </g>
    <g id="text_19">
     <!-- Game Solved -->
     <g transform="translate(323.50625 74.754687)scale(0.1 -0.1)">
      <defs>
       <path id="DejaVuSans-47" d="M 3809 666 
L 3809 1919 
L 2778 1919 
L 2778 2438 
L 4434 2438 
L 4434 434 
Q 4069 175 3628 42 
Q 3188 -91 2688 -91 
Q 1594 -91 976 548 
Q 359 1188 359 2328 
Q 359 3472 976 4111 
Q 1594 4750 2688 4750 
Q 3144 4750 3555 4637 
Q 3966 4525 4313 4306 
L 4313 3634 
Q 3963 3931 3569 4081 
Q 3175 4231 2741 4231 
Q 1884 4231 1454 3753 
Q 1025 3275 1025 2328 
Q 1025 1384 1454 906 
Q 1884 428 2741 428 
Q 3075 428 3337 486 
Q 3600 544 3809 666 
z
" transform="scale(0.015625)"/>
      </defs>
      <use xlink:href="#DejaVuSans-47"/>
      <use xlink:href="#DejaVuSans-61" x="77.490234"/>
      <use xlink:href="#DejaVuSans-6d" x="138.769531"/>
      <use xlink:href="#DejaVuSans-65" x="236.181641"/>
      <use xlink:href="#DejaVuSans-20" x="297.705078"/>
      <use xlink:href="#DejaVuSans-53" x="329.492188"/>
      <use xlink:href="#DejaVuSans-6f" x="392.96875"/>
      <use xlink:href="#DejaVuSans-6c" x="454.150391"/>
      <use xlink:href="#DejaVuSans-76" x="481.933594"/>
      <use xlink:href="#DejaVuSans-65" x="541.113281"/>
      <use xlink:href="#DejaVuSans-64" x="602.636719"/>
     </g>
    </g>
   </g>
  </g>
  <g id="axes_2">
   <g id="matplotlib.axis_3">
    <g id="ytick_8">
     <g id="line2d_20">
      <defs>
       <path id="mf1d3ae8a10" d="M 0 0 
L 3.5 0 
" style="stroke: #000000; stroke-width: 0.8"/>
      </defs>
      <g>
       <use xlink:href="#mf1d3ae8a10" x="460.825" y="300.356157" style="stroke: #000000; stroke-width: 0.8"/>
      </g>
     </g>
     <g id="text_20">
      <!-- 0 -->
      <g transform="translate(467.825 304.155376)scale(0.1 -0.1)">
       <use xlink:href="#DejaVuSans-30"/>
      </g>
     </g>
    </g>
    <g id="ytick_9">
     <g id="line2d_21">
      <g>
       <use xlink:href="#mf1d3ae8a10" x="460.825" y="248.63038" style="stroke: #000000; stroke-width: 0.8"/>
      </g>
     </g>
     <g id="text_21">
      <!-- 1 -->
      <g transform="translate(467.825 252.429599)scale(0.1 -0.1)">
       <use xlink:href="#DejaVuSans-31"/>
      </g>
     </g>
    </g>
    <g id="ytick_10">
     <g id="line2d_22">
      <g>
       <use xlink:href="#mf1d3ae8a10" x="460.825" y="196.904603" style="stroke: #000000; stroke-width: 0.8"/>
      </g>
     </g>
     <g id="text_22">
      <!-- 2 -->
      <g transform="translate(467.825 200.703822)scale(0.1 -0.1)">
       <use xlink:href="#DejaVuSans-32"/>
      </g>
     </g>
    </g>
    <g id="ytick_11">
     <g id="line2d_23">
      <g>
       <use xlink:href="#mf1d3ae8a10" x="460.825" y="145.178827" style="stroke: #000000; stroke-width: 0.8"/>
      </g>
     </g>
     <g id="text_23">
      <!-- 3 -->
      <g transform="translate(467.825 148.978045)scale(0.1 -0.1)">
       <use xlink:href="#DejaVuSans-33"/>
      </g>
     </g>
    </g>
    <g id="ytick_12">
     <g id="line2d_24">
      <g>
       <use xlink:href="#mf1d3ae8a10" x="460.825" y="93.45305" style="stroke: #000000; stroke-width: 0.8"/>
      </g>
     </g>
     <g id="text_24">
      <!-- 4 -->
      <g transform="translate(467.825 97.252268)scale(0.1 -0.1)">
       <use xlink:href="#DejaVuSans-34"/>
      </g>
     </g>
    </g>
    <g id="ytick_13">
     <g id="line2d_25">
      <g>
       <use xlink:href="#mf1d3ae8a10" x="460.825" y="41.727273" style="stroke: #000000; stroke-width: 0.8"/>
      </g>
     </g>
     <g id="text_25">
      <!-- 5 -->
      <g transform="translate(467.825 45.526491)scale(0.1 -0.1)">
       <use xlink:href="#DejaVuSans-35"/>
      </g>
     </g>
    </g>
    <g id="text_26">
     <!-- Temperature -->
     <g transform="translate(489.585156 218.504297)rotate(-90)scale(0.15 -0.15)">
      <defs>
       <path id="DejaVuSans-54" d="M -19 4666 
L 3928 4666 
L 3928 4134 
L 2272 4134 
L 2272 0 
L 1638 0 
L 1638 4134 
L -19 4134 
L -19 4666 
z
" transform="scale(0.015625)"/>
       <path id="DejaVuSans-74" d="M 1172 4494 
L 1172 3500 
L 2356 3500 
L 2356 3053 
L 1172 3053 
L 1172 1153 
Q 1172 725 1289 603 
Q 1406 481 1766 481 
L 2356 481 
L 2356 0 
L 1766 0 
Q 1100 0 847 248 
Q 594 497 594 1153 
L 594 3053 
L 172 3053 
L 172 3500 
L 594 3500 
L 594 4494 
L 1172 4494 
z
" transform="scale(0.015625)"/>
       <path id="DejaVuSans-75" d="M 544 1381 
L 544 3500 
L 1119 3500 
L 1119 1403 
Q 1119 906 1312 657 
Q 1506 409 1894 409 
Q 2359 409 2629 706 
Q 2900 1003 2900 1516 
L 2900 3500 
L 3475 3500 
L 3475 0 
L 2900 0 
L 2900 538 
Q 2691 219 2414 64 
Q 2138 -91 1772 -91 
Q 1169 -91 856 284 
Q 544 659 544 1381 
z
M 1991 3584 
L 1991 3584 
z
" transform="scale(0.015625)"/>
      </defs>
      <use xlink:href="#DejaVuSans-54"/>
      <use xlink:href="#DejaVuSans-65" x="44.083984"/>
      <use xlink:href="#DejaVuSans-6d" x="105.607422"/>
      <use xlink:href="#DejaVuSans-70" x="203.019531"/>
      <use xlink:href="#DejaVuSans-65" x="266.496094"/>
      <use xlink:href="#DejaVuSans-72" x="328.019531"/>
      <use xlink:href="#DejaVuSans-61" x="369.132812"/>
      <use xlink:href="#DejaVuSans-74" x="430.412109"/>
      <use xlink:href="#DejaVuSans-75" x="469.621094"/>
      <use xlink:href="#DejaVuSans-72" x="533"/>
      <use xlink:href="#DejaVuSans-65" x="571.863281"/>
     </g>
    </g>
   </g>
   <g id="line2d_26">
    <path d="M 74.329545 41.727273 
L 77.64568 59.796179 
L 80.961814 76.602714 
L 84.277948 92.235075 
L 87.594083 106.775292 
L 90.910217 120.299669 
L 94.226351 132.879175 
L 97.542486 144.579825 
L 100.85862 155.463017 
L 104.174754 165.585863 
L 107.490889 175.001485 
L 110.807023 183.759292 
L 114.123157 191.905241 
L 117.439292 199.48208 
L 120.755426 206.529569 
L 124.07156 213.084691 
L 127.387695 219.181844 
L 130.703829 224.853024 
L 134.019963 230.127992 
L 137.704557 235.557975 
L 141.389151 240.568116 
L 145.073744 245.190878 
L 148.758338 249.456211 
L 152.442932 253.391752 
L 156.127525 257.023001 
L 160.180578 260.693942 
L 164.233631 264.053901 
L 168.286684 267.129223 
L 172.339737 269.944021 
L 176.76125 272.743467 
L 181.182762 275.285223 
L 185.972734 277.775454 
L 190.762706 280.018336 
L 195.921137 282.185254 
L 201.448028 284.251415 
L 206.974918 286.082639 
L 212.870268 287.807033 
L 219.134077 289.41153 
L 225.766346 290.887385 
L 233.135533 292.295013 
L 240.87318 293.548388 
L 249.347745 294.698674 
L 258.927689 295.766744 
L 269.613011 296.721977 
L 281.403711 297.547031 
L 295.036707 298.270409 
L 310.88046 298.880507 
L 330.040347 299.385086 
L 353.990206 299.780603 
L 385.677712 300.068067 
L 432.840511 300.253311 
L 442.420455 300.272727 
L 442.420455 300.272727 
" clip-path="url(#p0a2e3d31e9)" style="fill: none; stroke: #ff0000; stroke-width: 1.5; stroke-linecap: square"/>
   </g>
   <g id="patch_8">
    <path d="M 55.925 313.2 
L 55.925 28.8 
" style="fill: none; stroke: #000000; stroke-width: 0.8; stroke-linejoin: miter; stroke-linecap: square"/>
   </g>
   <g id="patch_9">
    <path d="M 460.825 313.2 
L 460.825 28.8 
" style="fill: none; stroke: #000000; stroke-width: 0.8; stroke-linejoin: miter; stroke-linecap: square"/>
   </g>
   <g id="patch_10">
    <path d="M 55.925 313.2 
L 460.825 313.2 
" style="fill: none; stroke: #000000; stroke-width: 0.8; stroke-linejoin: miter; stroke-linecap: square"/>
   </g>
   <g id="patch_11">
    <path d="M 55.925 28.8 
L 460.825 28.8 
" style="fill: none; stroke: #000000; stroke-width: 0.8; stroke-linejoin: miter; stroke-linecap: square"/>
   </g>
   <g id="legend_2">
    <g id="patch_12">
     <path d="M 62.925 51.478125 
L 158.264063 51.478125 
Q 160.264063 51.478125 160.264063 49.478125 
L 160.264063 35.8 
Q 160.264063 33.8 158.264063 33.8 
L 62.925 33.8 
Q 60.925 33.8 60.925 35.8 
L 60.925 49.478125 
Q 60.925 51.478125 62.925 51.478125 
z
" style="fill: #ffffff; opacity: 0.8; stroke: #cccccc; stroke-linejoin: miter"/>
    </g>
    <g id="line2d_27">
     <path d="M 64.925 41.898438 
L 74.925 41.898438 
L 84.925 41.898438 
" style="fill: none; stroke: #ff0000; stroke-width: 1.5; stroke-linecap: square"/>
    </g>
    <g id="text_27">
     <!-- Temperature -->
     <g transform="translate(92.925 45.398438)scale(0.1 -0.1)">
      <use xlink:href="#DejaVuSans-54"/>
      <use xlink:href="#DejaVuSans-65" x="44.083984"/>
      <use xlink:href="#DejaVuSans-6d" x="105.607422"/>
      <use xlink:href="#DejaVuSans-70" x="203.019531"/>
      <use xlink:href="#DejaVuSans-65" x="266.496094"/>
      <use xlink:href="#DejaVuSans-72" x="328.019531"/>
      <use xlink:href="#DejaVuSans-61" x="369.132812"/>
      <use xlink:href="#DejaVuSans-74" x="430.412109"/>
      <use xlink:href="#DejaVuSans-75" x="469.621094"/>
      <use xlink:href="#DejaVuSans-72" x="533"/>
      <use xlink:href="#DejaVuSans-65" x="571.863281"/>
     </g>
    </g>
   </g>
  </g>
 </g>
 <defs>
  <clipPath id="p0a2e3d31e9">
   <rect x="55.925" y="28.8" width="404.9" height="284.4"/>
  </clipPath>
 </defs>
</svg>
