<?xml version="1.0" encoding="utf-8" standalone="no"?>
<!DOCTYPE svg PUBLIC "-//W3C//DTD SVG 1.1//EN"
  "http://www.w3.org/Graphics/SVG/1.1/DTD/svg11.dtd">
<svg xmlns:xlink="http://www.w3.org/1999/xlink" width="504pt" height="360pt" viewBox="0 0 504 360" xmlns="http://www.w3.org/2000/svg" version="1.1">
 <metadata>
  <rdf:RDF xmlns:dc="http://purl.org/dc/elements/1.1/" xmlns:cc="http://creativecommons.org/ns#" xmlns:rdf="http://www.w3.org/1999/02/22-rdf-syntax-ns#">
   <cc:Work>
    <dc:type rdf:resource="http://purl.org/dc/dcmitype/StillImage"/>
    <dc:date>2022-07-28T20:50:50.246695</dc:date>
    <dc:format>image/svg+xml</dc:format>
    <dc:creator>
     <cc:Agent>
      <dc:title>Matplotlib v3.5.1, https://matplotlib.org/</dc:title>
     </cc:Agent>
    </dc:creator>
   </cc:Work>
  </rdf:RDF>
 </metadata>
 <defs>
  <style type="text/css">*{stroke-linejoin: round; stroke-linecap: butt}</style>
 </defs>
 <g id="figure_1">
  <g id="patch_1">
   <path d="M 0 360 
L 504 360 
L 504 0 
L 0 0 
L 0 360 
z
" style="fill: none"/>
  </g>
  <g id="axes_1">
   <g id="patch_2">
    <path d="M 55.925 313.2 
L 460.825 313.2 
L 460.825 28.8 
L 55.925 28.8 
z
" style="fill: #ffffff"/>
   </g>
   <g id="matplotlib.axis_1">
    <g id="xtick_1">
     <g id="line2d_1">
      <defs>
       <path id="m08cb5f4f3a" d="M 0 0 
L 0 3.5 
" style="stroke: #000000; stroke-width: 0.8"/>
      </defs>
      <g>
       <use xlink:href="#m08cb5f4f3a" x="74.329545" y="313.2" style="stroke: #000000; stroke-width: 0.8"/>
      </g>
     </g>
     <g id="text_1">
      <!-- 0 -->
      <g transform="translate(71.148295 327.798437)scale(0.1 -0.1)">
       <defs>
        <path id="DejaVuSans-30" d="M 2034 4250 
Q 1547 4250 1301 3770 
Q 1056 3291 1056 2328 
Q 1056 1369 1301 889 
Q 1547 409 2034 409 
Q 2525 409 2770 889 
Q 3016 1369 3016 2328 
Q 3016 3291 2770 3770 
Q 2525 4250 2034 4250 
z
M 2034 4750 
Q 2819 4750 3233 4129 
Q 3647 3509 3647 2328 
Q 3647 1150 3233 529 
Q 2819 -91 2034 -91 
Q 1250 -91 836 529 
Q 422 1150 422 2328 
Q 422 3509 836 4129 
Q 1250 4750 2034 4750 
z
" transform="scale(0.015625)"/>
       </defs>
       <use xlink:href="#DejaVuSans-30"/>
      </g>
     </g>
    </g>
    <g id="xtick_2">
     <g id="line2d_2">
      <g>
       <use xlink:href="#m08cb5f4f3a" x="148.021419" y="313.2" style="stroke: #000000; stroke-width: 0.8"/>
      </g>
     </g>
     <g id="text_2">
      <!-- 200 -->
      <g transform="translate(138.477669 327.798437)scale(0.1 -0.1)">
       <defs>
        <path id="DejaVuSans-32" d="M 1228 531 
L 3431 531 
L 3431 0 
L 469 0 
L 469 531 
Q 828 903 1448 1529 
Q 2069 2156 2228 2338 
Q 2531 2678 2651 2914 
Q 2772 3150 2772 3378 
Q 2772 3750 2511 3984 
Q 2250 4219 1831 4219 
Q 1534 4219 1204 4116 
Q 875 4013 500 3803 
L 500 4441 
Q 881 4594 1212 4672 
Q 1544 4750 1819 4750 
Q 2544 4750 2975 4387 
Q 3406 4025 3406 3419 
Q 3406 3131 3298 2873 
Q 3191 2616 2906 2266 
Q 2828 2175 2409 1742 
Q 1991 1309 1228 531 
z
" transform="scale(0.015625)"/>
       </defs>
       <use xlink:href="#DejaVuSans-32"/>
       <use xlink:href="#DejaVuSans-30" x="63.623047"/>
       <use xlink:href="#DejaVuSans-30" x="127.246094"/>
      </g>
     </g>
    </g>
    <g id="xtick_3">
     <g id="line2d_3">
      <g>
       <use xlink:href="#m08cb5f4f3a" x="221.713293" y="313.2" style="stroke: #000000; stroke-width: 0.8"/>
      </g>
     </g>
     <g id="text_3">
      <!-- 400 -->
      <g transform="translate(212.169543 327.798437)scale(0.1 -0.1)">
       <defs>
        <path id="DejaVuSans-34" d="M 2419 4116 
L 825 1625 
L 2419 1625 
L 2419 4116 
z
M 2253 4666 
L 3047 4666 
L 3047 1625 
L 3713 1625 
L 3713 1100 
L 3047 1100 
L 3047 0 
L 2419 0 
L 2419 1100 
L 313 1100 
L 313 1709 
L 2253 4666 
z
" transform="scale(0.015625)"/>
       </defs>
       <use xlink:href="#DejaVuSans-34"/>
       <use xlink:href="#DejaVuSans-30" x="63.623047"/>
       <use xlink:href="#DejaVuSans-30" x="127.246094"/>
      </g>
     </g>
    </g>
    <g id="xtick_4">
     <g id="line2d_4">
      <g>
       <use xlink:href="#m08cb5f4f3a" x="295.405167" y="313.2" style="stroke: #000000; stroke-width: 0.8"/>
      </g>
     </g>
     <g id="text_4">
      <!-- 600 -->
      <g transform="translate(285.861417 327.798437)scale(0.1 -0.1)">
       <defs>
        <path id="DejaVuSans-36" d="M 2113 2584 
Q 1688 2584 1439 2293 
Q 1191 2003 1191 1497 
Q 1191 994 1439 701 
Q 1688 409 2113 409 
Q 2538 409 2786 701 
Q 3034 994 3034 1497 
Q 3034 2003 2786 2293 
Q 2538 2584 2113 2584 
z
M 3366 4563 
L 3366 3988 
Q 3128 4100 2886 4159 
Q 2644 4219 2406 4219 
Q 1781 4219 1451 3797 
Q 1122 3375 1075 2522 
Q 1259 2794 1537 2939 
Q 1816 3084 2150 3084 
Q 2853 3084 3261 2657 
Q 3669 2231 3669 1497 
Q 3669 778 3244 343 
Q 2819 -91 2113 -91 
Q 1303 -91 875 529 
Q 447 1150 447 2328 
Q 447 3434 972 4092 
Q 1497 4750 2381 4750 
Q 2619 4750 2861 4703 
Q 3103 4656 3366 4563 
z
" transform="scale(0.015625)"/>
       </defs>
       <use xlink:href="#DejaVuSans-36"/>
       <use xlink:href="#DejaVuSans-30" x="63.623047"/>
       <use xlink:href="#DejaVuSans-30" x="127.246094"/>
      </g>
     </g>
    </g>
    <g id="xtick_5">
     <g id="line2d_5">
      <g>
       <use xlink:href="#m08cb5f4f3a" x="369.09704" y="313.2" style="stroke: #000000; stroke-width: 0.8"/>
      </g>
     </g>
     <g id="text_5">
      <!-- 800 -->
      <g transform="translate(359.55329 327.798437)scale(0.1 -0.1)">
       <defs>
        <path id="DejaVuSans-38" d="M 2034 2216 
Q 1584 2216 1326 1975 
Q 1069 1734 1069 1313 
Q 1069 891 1326 650 
Q 1584 409 2034 409 
Q 2484 409 2743 651 
Q 3003 894 3003 1313 
Q 3003 1734 2745 1975 
Q 2488 2216 2034 2216 
z
M 1403 2484 
Q 997 2584 770 2862 
Q 544 3141 544 3541 
Q 544 4100 942 4425 
Q 1341 4750 2034 4750 
Q 2731 4750 3128 4425 
Q 3525 4100 3525 3541 
Q 3525 3141 3298 2862 
Q 3072 2584 2669 2484 
Q 3125 2378 3379 2068 
Q 3634 1759 3634 1313 
Q 3634 634 3220 271 
Q 2806 -91 2034 -91 
Q 1263 -91 848 271 
Q 434 634 434 1313 
Q 434 1759 690 2068 
Q 947 2378 1403 2484 
z
M 1172 3481 
Q 1172 3119 1398 2916 
Q 1625 2713 2034 2713 
Q 2441 2713 2670 2916 
Q 2900 3119 2900 3481 
Q 2900 3844 2670 4047 
Q 2441 4250 2034 4250 
Q 1625 4250 1398 4047 
Q 1172 3844 1172 3481 
z
" transform="scale(0.015625)"/>
       </defs>
       <use xlink:href="#DejaVuSans-38"/>
       <use xlink:href="#DejaVuSans-30" x="63.623047"/>
       <use xlink:href="#DejaVuSans-30" x="127.246094"/>
      </g>
     </g>
    </g>
    <g id="xtick_6">
     <g id="line2d_6">
      <g>
       <use xlink:href="#m08cb5f4f3a" x="442.788914" y="313.2" style="stroke: #000000; stroke-width: 0.8"/>
      </g>
     </g>
     <g id="text_6">
      <!-- 1000 -->
      <g transform="translate(430.063914 327.798437)scale(0.1 -0.1)">
       <defs>
        <path id="DejaVuSans-31" d="M 794 531 
L 1825 531 
L 1825 4091 
L 703 3866 
L 703 4441 
L 1819 4666 
L 2450 4666 
L 2450 531 
L 3481 531 
L 3481 0 
L 794 0 
L 794 531 
z
" transform="scale(0.015625)"/>
       </defs>
       <use xlink:href="#DejaVuSans-31"/>
       <use xlink:href="#DejaVuSans-30" x="63.623047"/>
       <use xlink:href="#DejaVuSans-30" x="127.246094"/>
       <use xlink:href="#DejaVuSans-30" x="190.869141"/>
      </g>
     </g>
    </g>
    <g id="text_7">
     <!-- Episode -->
     <g transform="translate(228.91875 345.275781)scale(0.15 -0.15)">
      <defs>
       <path id="DejaVuSans-45" d="M 628 4666 
L 3578 4666 
L 3578 4134 
L 1259 4134 
L 1259 2753 
L 3481 2753 
L 3481 2222 
L 1259 2222 
L 1259 531 
L 3634 531 
L 3634 0 
L 628 0 
L 628 4666 
z
" transform="scale(0.015625)"/>
       <path id="DejaVuSans-70" d="M 1159 525 
L 1159 -1331 
L 581 -1331 
L 581 3500 
L 1159 3500 
L 1159 2969 
Q 1341 3281 1617 3432 
Q 1894 3584 2278 3584 
Q 2916 3584 3314 3078 
Q 3713 2572 3713 1747 
Q 3713 922 3314 415 
Q 2916 -91 2278 -91 
Q 1894 -91 1617 61 
Q 1341 213 1159 525 
z
M 3116 1747 
Q 3116 2381 2855 2742 
Q 2594 3103 2138 3103 
Q 1681 3103 1420 2742 
Q 1159 2381 1159 1747 
Q 1159 1113 1420 752 
Q 1681 391 2138 391 
Q 2594 391 2855 752 
Q 3116 1113 3116 1747 
z
" transform="scale(0.015625)"/>
       <path id="DejaVuSans-69" d="M 603 3500 
L 1178 3500 
L 1178 0 
L 603 0 
L 603 3500 
z
M 603 4863 
L 1178 4863 
L 1178 4134 
L 603 4134 
L 603 4863 
z
" transform="scale(0.015625)"/>
       <path id="DejaVuSans-73" d="M 2834 3397 
L 2834 2853 
Q 2591 2978 2328 3040 
Q 2066 3103 1784 3103 
Q 1356 3103 1142 2972 
Q 928 2841 928 2578 
Q 928 2378 1081 2264 
Q 1234 2150 1697 2047 
L 1894 2003 
Q 2506 1872 2764 1633 
Q 3022 1394 3022 966 
Q 3022 478 2636 193 
Q 2250 -91 1575 -91 
Q 1294 -91 989 -36 
Q 684 19 347 128 
L 347 722 
Q 666 556 975 473 
Q 1284 391 1588 391 
Q 1994 391 2212 530 
Q 2431 669 2431 922 
Q 2431 1156 2273 1281 
Q 2116 1406 1581 1522 
L 1381 1569 
Q 847 1681 609 1914 
Q 372 2147 372 2553 
Q 372 3047 722 3315 
Q 1072 3584 1716 3584 
Q 2034 3584 2315 3537 
Q 2597 3491 2834 3397 
z
" transform="scale(0.015625)"/>
       <path id="DejaVuSans-6f" d="M 1959 3097 
Q 1497 3097 1228 2736 
Q 959 2375 959 1747 
Q 959 1119 1226 758 
Q 1494 397 1959 397 
Q 2419 397 2687 759 
Q 2956 1122 2956 1747 
Q 2956 2369 2687 2733 
Q 2419 3097 1959 3097 
z
M 1959 3584 
Q 2709 3584 3137 3096 
Q 3566 2609 3566 1747 
Q 3566 888 3137 398 
Q 2709 -91 1959 -91 
Q 1206 -91 779 398 
Q 353 888 353 1747 
Q 353 2609 779 3096 
Q 1206 3584 1959 3584 
z
" transform="scale(0.015625)"/>
       <path id="DejaVuSans-64" d="M 2906 2969 
L 2906 4863 
L 3481 4863 
L 3481 0 
L 2906 0 
L 2906 525 
Q 2725 213 2448 61 
Q 2172 -91 1784 -91 
Q 1150 -91 751 415 
Q 353 922 353 1747 
Q 353 2572 751 3078 
Q 1150 3584 1784 3584 
Q 2172 3584 2448 3432 
Q 2725 3281 2906 2969 
z
M 947 1747 
Q 947 1113 1208 752 
Q 1469 391 1925 391 
Q 2381 391 2643 752 
Q 2906 1113 2906 1747 
Q 2906 2381 2643 2742 
Q 2381 3103 1925 3103 
Q 1469 3103 1208 2742 
Q 947 2381 947 1747 
z
" transform="scale(0.015625)"/>
       <path id="DejaVuSans-65" d="M 3597 1894 
L 3597 1613 
L 953 1613 
Q 991 1019 1311 708 
Q 1631 397 2203 397 
Q 2534 397 2845 478 
Q 3156 559 3463 722 
L 3463 178 
Q 3153 47 2828 -22 
Q 2503 -91 2169 -91 
Q 1331 -91 842 396 
Q 353 884 353 1716 
Q 353 2575 817 3079 
Q 1281 3584 2069 3584 
Q 2775 3584 3186 3129 
Q 3597 2675 3597 1894 
z
M 3022 2063 
Q 3016 2534 2758 2815 
Q 2500 3097 2075 3097 
Q 1594 3097 1305 2825 
Q 1016 2553 972 2059 
L 3022 2063 
z
" transform="scale(0.015625)"/>
      </defs>
      <use xlink:href="#DejaVuSans-45"/>
      <use xlink:href="#DejaVuSans-70" x="63.183594"/>
      <use xlink:href="#DejaVuSans-69" x="126.660156"/>
      <use xlink:href="#DejaVuSans-73" x="154.443359"/>
      <use xlink:href="#DejaVuSans-6f" x="206.542969"/>
      <use xlink:href="#DejaVuSans-64" x="267.724609"/>
      <use xlink:href="#DejaVuSans-65" x="331.201172"/>
     </g>
    </g>
   </g>
   <g id="matplotlib.axis_2">
    <g id="ytick_1">
     <g id="line2d_7">
      <defs>
       <path id="mbc0f5a615b" d="M 0 0 
L -3.5 0 
" style="stroke: #000000; stroke-width: 0.8"/>
      </defs>
      <g>
       <use xlink:href="#mbc0f5a615b" x="55.925" y="313.2" style="stroke: #000000; stroke-width: 0.8"/>
      </g>
     </g>
     <g id="text_8">
      <!-- 0 -->
      <g transform="translate(42.5625 316.999219)scale(0.1 -0.1)">
       <use xlink:href="#DejaVuSans-30"/>
      </g>
     </g>
    </g>
    <g id="ytick_2">
     <g id="line2d_8">
      <g>
       <use xlink:href="#mbc0f5a615b" x="55.925" y="269.446154" style="stroke: #000000; stroke-width: 0.8"/>
      </g>
     </g>
     <g id="text_9">
      <!-- 100 -->
      <g transform="translate(29.8375 273.245373)scale(0.1 -0.1)">
       <use xlink:href="#DejaVuSans-31"/>
       <use xlink:href="#DejaVuSans-30" x="63.623047"/>
       <use xlink:href="#DejaVuSans-30" x="127.246094"/>
      </g>
     </g>
    </g>
    <g id="ytick_3">
     <g id="line2d_9">
      <g>
       <use xlink:href="#mbc0f5a615b" x="55.925" y="225.692308" style="stroke: #000000; stroke-width: 0.8"/>
      </g>
     </g>
     <g id="text_10">
      <!-- 200 -->
      <g transform="translate(29.8375 229.491526)scale(0.1 -0.1)">
       <use xlink:href="#DejaVuSans-32"/>
       <use xlink:href="#DejaVuSans-30" x="63.623047"/>
       <use xlink:href="#DejaVuSans-30" x="127.246094"/>
      </g>
     </g>
    </g>
    <g id="ytick_4">
     <g id="line2d_10">
      <g>
       <use xlink:href="#mbc0f5a615b" x="55.925" y="181.938462" style="stroke: #000000; stroke-width: 0.8"/>
      </g>
     </g>
     <g id="text_11">
      <!-- 300 -->
      <g transform="translate(29.8375 185.73768)scale(0.1 -0.1)">
       <defs>
        <path id="DejaVuSans-33" d="M 2597 2516 
Q 3050 2419 3304 2112 
Q 3559 1806 3559 1356 
Q 3559 666 3084 287 
Q 2609 -91 1734 -91 
Q 1441 -91 1130 -33 
Q 819 25 488 141 
L 488 750 
Q 750 597 1062 519 
Q 1375 441 1716 441 
Q 2309 441 2620 675 
Q 2931 909 2931 1356 
Q 2931 1769 2642 2001 
Q 2353 2234 1838 2234 
L 1294 2234 
L 1294 2753 
L 1863 2753 
Q 2328 2753 2575 2939 
Q 2822 3125 2822 3475 
Q 2822 3834 2567 4026 
Q 2313 4219 1838 4219 
Q 1578 4219 1281 4162 
Q 984 4106 628 3988 
L 628 4550 
Q 988 4650 1302 4700 
Q 1616 4750 1894 4750 
Q 2613 4750 3031 4423 
Q 3450 4097 3450 3541 
Q 3450 3153 3228 2886 
Q 3006 2619 2597 2516 
z
" transform="scale(0.015625)"/>
       </defs>
       <use xlink:href="#DejaVuSans-33"/>
       <use xlink:href="#DejaVuSans-30" x="63.623047"/>
       <use xlink:href="#DejaVuSans-30" x="127.246094"/>
      </g>
     </g>
    </g>
    <g id="ytick_5">
     <g id="line2d_11">
      <g>
       <use xlink:href="#mbc0f5a615b" x="55.925" y="138.184615" style="stroke: #000000; stroke-width: 0.8"/>
      </g>
     </g>
     <g id="text_12">
      <!-- 400 -->
      <g transform="translate(29.8375 141.983834)scale(0.1 -0.1)">
       <use xlink:href="#DejaVuSans-34"/>
       <use xlink:href="#DejaVuSans-30" x="63.623047"/>
       <use xlink:href="#DejaVuSans-30" x="127.246094"/>
      </g>
     </g>
    </g>
    <g id="ytick_6">
     <g id="line2d_12">
      <g>
       <use xlink:href="#mbc0f5a615b" x="55.925" y="94.430769" style="stroke: #000000; stroke-width: 0.8"/>
      </g>
     </g>
     <g id="text_13">
      <!-- 500 -->
      <g transform="translate(29.8375 98.229988)scale(0.1 -0.1)">
       <defs>
        <path id="DejaVuSans-35" d="M 691 4666 
L 3169 4666 
L 3169 4134 
L 1269 4134 
L 1269 2991 
Q 1406 3038 1543 3061 
Q 1681 3084 1819 3084 
Q 2600 3084 3056 2656 
Q 3513 2228 3513 1497 
Q 3513 744 3044 326 
Q 2575 -91 1722 -91 
Q 1428 -91 1123 -41 
Q 819 9 494 109 
L 494 744 
Q 775 591 1075 516 
Q 1375 441 1709 441 
Q 2250 441 2565 725 
Q 2881 1009 2881 1497 
Q 2881 1984 2565 2268 
Q 2250 2553 1709 2553 
Q 1456 2553 1204 2497 
Q 953 2441 691 2322 
L 691 4666 
z
" transform="scale(0.015625)"/>
       </defs>
       <use xlink:href="#DejaVuSans-35"/>
       <use xlink:href="#DejaVuSans-30" x="63.623047"/>
       <use xlink:href="#DejaVuSans-30" x="127.246094"/>
      </g>
     </g>
    </g>
    <g id="ytick_7">
     <g id="line2d_13">
      <g>
       <use xlink:href="#mbc0f5a615b" x="55.925" y="50.676923" style="stroke: #000000; stroke-width: 0.8"/>
      </g>
     </g>
     <g id="text_14">
      <!-- 600 -->
      <g transform="translate(29.8375 54.476142)scale(0.1 -0.1)">
       <use xlink:href="#DejaVuSans-36"/>
       <use xlink:href="#DejaVuSans-30" x="63.623047"/>
       <use xlink:href="#DejaVuSans-30" x="127.246094"/>
      </g>
     </g>
    </g>
    <g id="text_15">
     <!-- Score -->
     <g transform="translate(22.717969 192.003516)rotate(-90)scale(0.15 -0.15)">
      <defs>
       <path id="DejaVuSans-53" d="M 3425 4513 
L 3425 3897 
Q 3066 4069 2747 4153 
Q 2428 4238 2131 4238 
Q 1616 4238 1336 4038 
Q 1056 3838 1056 3469 
Q 1056 3159 1242 3001 
Q 1428 2844 1947 2747 
L 2328 2669 
Q 3034 2534 3370 2195 
Q 3706 1856 3706 1288 
Q 3706 609 3251 259 
Q 2797 -91 1919 -91 
Q 1588 -91 1214 -16 
Q 841 59 441 206 
L 441 856 
Q 825 641 1194 531 
Q 1563 422 1919 422 
Q 2459 422 2753 634 
Q 3047 847 3047 1241 
Q 3047 1584 2836 1778 
Q 2625 1972 2144 2069 
L 1759 2144 
Q 1053 2284 737 2584 
Q 422 2884 422 3419 
Q 422 4038 858 4394 
Q 1294 4750 2059 4750 
Q 2388 4750 2728 4690 
Q 3069 4631 3425 4513 
z
" transform="scale(0.015625)"/>
       <path id="DejaVuSans-63" d="M 3122 3366 
L 3122 2828 
Q 2878 2963 2633 3030 
Q 2388 3097 2138 3097 
Q 1578 3097 1268 2742 
Q 959 2388 959 1747 
Q 959 1106 1268 751 
Q 1578 397 2138 397 
Q 2388 397 2633 464 
Q 2878 531 3122 666 
L 3122 134 
Q 2881 22 2623 -34 
Q 2366 -91 2075 -91 
Q 1284 -91 818 406 
Q 353 903 353 1747 
Q 353 2603 823 3093 
Q 1294 3584 2113 3584 
Q 2378 3584 2631 3529 
Q 2884 3475 3122 3366 
z
" transform="scale(0.015625)"/>
       <path id="DejaVuSans-72" d="M 2631 2963 
Q 2534 3019 2420 3045 
Q 2306 3072 2169 3072 
Q 1681 3072 1420 2755 
Q 1159 2438 1159 1844 
L 1159 0 
L 581 0 
L 581 3500 
L 1159 3500 
L 1159 2956 
Q 1341 3275 1631 3429 
Q 1922 3584 2338 3584 
Q 2397 3584 2469 3576 
Q 2541 3569 2628 3553 
L 2631 2963 
z
" transform="scale(0.015625)"/>
      </defs>
      <use xlink:href="#DejaVuSans-53"/>
      <use xlink:href="#DejaVuSans-63" x="63.476562"/>
      <use xlink:href="#DejaVuSans-6f" x="118.457031"/>
      <use xlink:href="#DejaVuSans-72" x="179.638672"/>
      <use xlink:href="#DejaVuSans-65" x="218.501953"/>
     </g>
    </g>
   </g>
   <g id="line2d_14">
    <path d="M 74.329545 307.949538 
L 74.698005 304.011692 
L 75.066464 306.199385 
L 75.434924 305.324308 
L 75.803383 303.574154 
L 76.171842 307.512 
L 76.540302 303.574154 
L 76.908761 308.824615 
L 77.27722 296.136 
L 77.64568 299.198769 
L 78.014139 308.824615 
L 78.382599 304.011692 
L 78.751058 300.948923 
L 79.119517 308.824615 
L 79.487977 300.511385 
L 79.856436 304.011692 
L 80.224895 297.011077 
L 80.593355 284.322462 
L 81.330273 309.262154 
L 81.698733 298.323692 
L 82.067192 304.886769 
L 82.435652 287.822769 
L 83.17257 305.324308 
L 83.54103 304.011692 
L 83.909489 299.636308 
L 84.277948 307.074462 
L 84.646408 296.136 
L 85.014867 307.949538 
L 85.383327 305.761846 
L 85.751786 307.512 
L 86.120245 304.449231 
L 86.488705 282.134769 
L 86.857164 304.886769 
L 87.225623 301.386462 
L 87.594083 307.512 
L 87.962542 308.824615 
L 88.331001 308.387077 
L 88.699461 306.199385 
L 89.06792 307.949538 
L 89.43638 302.699077 
L 89.804839 305.324308 
L 90.173298 303.574154 
L 90.541758 303.136615 
L 90.910217 296.136 
L 91.278676 308.824615 
L 91.647136 297.448615 
L 92.015595 307.512 
L 92.384055 306.199385 
L 92.752514 305.761846 
L 93.120973 307.512 
L 93.489433 300.948923 
L 93.857892 297.011077 
L 94.226351 303.574154 
L 94.594811 303.136615 
L 94.96327 305.761846 
L 95.331729 307.074462 
L 95.700189 306.199385 
L 96.068648 303.574154 
L 96.437108 300.073846 
L 96.805567 303.574154 
L 97.174026 304.886769 
L 97.542486 307.949538 
L 97.910945 306.636923 
L 98.279404 304.011692 
L 98.647864 306.199385 
L 99.016323 297.886154 
L 99.384783 306.199385 
L 99.753242 305.761846 
L 100.121701 300.948923 
L 100.490161 307.074462 
L 100.85862 303.136615 
L 101.227079 306.636923 
L 101.963998 299.636308 
L 102.332457 298.761231 
L 102.700917 302.261538 
L 103.069376 307.074462 
L 103.437836 297.011077 
L 103.806295 306.636923 
L 104.174754 297.011077 
L 104.543214 306.199385 
L 104.911673 307.949538 
L 105.280132 303.136615 
L 105.648592 294.823385 
L 106.017051 306.636923 
L 106.385511 297.886154 
L 106.75397 305.324308 
L 107.122429 307.949538 
L 107.490889 301.824 
L 107.859348 300.948923 
L 108.227807 308.824615 
L 108.596267 308.387077 
L 108.964726 296.136 
L 109.333185 303.136615 
L 109.701645 305.324308 
L 110.070104 303.574154 
L 110.438564 299.198769 
L 110.807023 297.886154 
L 111.175482 301.824 
L 111.912401 307.512 
L 112.28086 307.074462 
L 112.64932 308.387077 
L 113.017779 304.886769 
L 113.386239 308.824615 
L 113.754698 300.948923 
L 114.123157 306.636923 
L 114.491617 302.261538 
L 114.860076 306.199385 
L 115.228535 308.824615 
L 115.596995 304.886769 
L 115.965454 306.636923 
L 116.333913 307.512 
L 116.702373 305.324308 
L 117.070832 305.324308 
L 117.439292 304.886769 
L 117.807751 302.699077 
L 118.17621 304.886769 
L 118.54467 290.010462 
L 118.913129 295.698462 
L 119.281588 305.324308 
L 119.650048 305.761846 
L 120.018507 307.074462 
L 120.386967 307.074462 
L 120.755426 309.262154 
L 121.123885 306.636923 
L 121.492345 307.074462 
L 121.860804 302.699077 
L 122.229263 301.386462 
L 122.597723 301.386462 
L 122.966182 300.511385 
L 123.334641 302.261538 
L 123.703101 302.261538 
L 124.07156 305.761846 
L 124.44002 284.76 
L 124.808479 288.697846 
L 125.176938 307.512 
L 125.545398 303.136615 
L 125.913857 297.011077 
L 126.282316 307.074462 
L 127.019235 297.886154 
L 127.387695 307.074462 
L 127.756154 304.886769 
L 128.124613 301.824 
L 128.493073 304.449231 
L 128.861532 305.761846 
L 129.229991 308.387077 
L 129.598451 304.886769 
L 130.335369 279.947077 
L 130.703829 300.511385 
L 131.072288 304.886769 
L 131.440748 298.761231 
L 131.809207 303.136615 
L 132.177666 304.886769 
L 132.546126 295.260923 
L 132.914585 307.949538 
L 133.283044 297.448615 
L 133.651504 300.511385 
L 134.019963 304.886769 
L 134.388423 304.886769 
L 134.756882 283.447385 
L 135.125341 278.634462 
L 135.493801 306.636923 
L 135.86226 308.387077 
L 136.230719 298.761231 
L 136.599179 304.886769 
L 136.967638 305.324308 
L 137.336097 308.824615 
L 137.704557 303.574154 
L 138.073016 305.324308 
L 138.441476 281.697231 
L 138.809935 307.074462 
L 139.178394 307.074462 
L 139.546854 295.260923 
L 139.915313 303.574154 
L 140.283772 297.011077 
L 140.652232 304.449231 
L 141.020691 308.387077 
L 141.389151 300.948923 
L 141.75761 283.884923 
L 142.126069 290.448 
L 142.494529 305.761846 
L 142.862988 306.199385 
L 143.231447 304.011692 
L 143.599907 308.387077 
L 143.968366 307.512 
L 144.705285 298.761231 
L 145.073744 306.636923 
L 145.442204 296.136 
L 145.810663 303.136615 
L 146.179122 301.824 
L 146.547582 293.073231 
L 146.916041 290.885538 
L 147.2845 309.699692 
L 147.65296 297.886154 
L 148.021419 304.886769 
L 148.389879 302.699077 
L 148.758338 303.574154 
L 149.126797 308.824615 
L 149.495257 304.011692 
L 149.863716 304.011692 
L 150.232175 300.948923 
L 150.600635 302.261538 
L 150.969094 306.199385 
L 151.337553 297.448615 
L 151.706013 300.073846 
L 152.074472 305.761846 
L 152.442932 305.324308 
L 152.811391 305.324308 
L 153.17985 304.886769 
L 153.54831 301.386462 
L 153.916769 304.886769 
L 154.285228 298.323692 
L 154.653688 307.949538 
L 155.022147 307.512 
L 155.390607 279.072 
L 155.759066 303.136615 
L 156.127525 308.387077 
L 156.495985 296.136 
L 156.864444 304.886769 
L 157.601363 298.761231 
L 157.969822 304.449231 
L 158.338281 292.198154 
L 158.706741 299.636308 
L 159.0752 301.386462 
L 159.44366 302.261538 
L 159.812119 297.011077 
L 160.180578 301.386462 
L 160.549038 301.824 
L 160.917497 307.512 
L 161.285956 300.948923 
L 161.654416 303.574154 
L 162.022875 304.449231 
L 162.391335 294.385846 
L 162.759794 280.822154 
L 163.128253 303.574154 
L 163.496713 295.260923 
L 163.865172 300.948923 
L 164.233631 290.448 
L 164.602091 307.512 
L 164.97055 301.824 
L 165.339009 290.885538 
L 165.707469 304.011692 
L 166.075928 303.136615 
L 166.444388 302.699077 
L 166.812847 295.698462 
L 167.181306 301.824 
L 167.549766 298.323692 
L 167.918225 299.636308 
L 168.286684 302.699077 
L 168.655144 299.198769 
L 169.023603 297.011077 
L 169.392063 299.198769 
L 169.760522 300.073846 
L 170.128981 298.323692 
L 170.497441 283.447385 
L 170.8659 294.385846 
L 171.234359 296.136 
L 171.602819 295.698462 
L 171.971278 303.574154 
L 172.339737 294.385846 
L 172.708197 305.324308 
L 173.076656 308.387077 
L 173.445116 286.510154 
L 173.813575 301.386462 
L 174.182034 308.824615 
L 174.550494 303.136615 
L 174.918953 304.449231 
L 175.287412 289.135385 
L 175.655872 291.323077 
L 176.024331 299.636308 
L 176.392791 297.448615 
L 176.76125 294.385846 
L 177.129709 307.949538 
L 177.498169 289.572923 
L 178.603547 306.636923 
L 178.972006 296.136 
L 179.340465 297.886154 
L 179.708925 277.321846 
L 180.077384 297.886154 
L 180.445844 295.260923 
L 180.814303 290.448 
L 181.551222 301.824 
L 181.919681 304.449231 
L 182.6566 301.386462 
L 183.025059 305.324308 
L 183.393519 305.761846 
L 183.761978 300.511385 
L 184.130437 301.824 
L 184.498897 302.699077 
L 184.867356 293.073231 
L 185.235815 297.886154 
L 185.604275 298.323692 
L 185.972734 286.947692 
L 186.341193 301.824 
L 186.709653 306.636923 
L 187.078112 258.507692 
L 187.446572 297.011077 
L 187.815031 303.136615 
L 188.18349 300.511385 
L 188.55195 296.573538 
L 188.920409 298.323692 
L 189.288868 279.947077 
L 189.657328 274.696615 
L 190.025787 304.886769 
L 190.394247 290.010462 
L 191.131165 307.512 
L 191.499625 291.760615 
L 191.868084 300.511385 
L 192.236543 300.948923 
L 192.973462 286.510154 
L 193.341921 303.574154 
L 193.710381 305.324308 
L 194.07884 297.448615 
L 194.4473 283.447385 
L 194.815759 252.819692 
L 195.184218 294.823385 
L 195.552678 266.383385 
L 195.921137 285.635077 
L 196.289596 258.945231 
L 196.658056 272.071385 
L 197.026515 291.760615 
L 197.394975 296.136 
L 197.763434 289.572923 
L 198.131893 293.073231 
L 198.500353 274.259077 
L 199.237271 296.573538 
L 199.605731 298.761231 
L 199.97419 294.385846 
L 200.342649 296.573538 
L 200.711109 292.198154 
L 201.079568 304.011692 
L 201.448028 272.508923 
L 201.816487 300.948923 
L 202.184946 305.761846 
L 202.553406 297.011077 
L 202.921865 280.822154 
L 203.290324 300.073846 
L 203.658784 267.696 
L 204.027243 269.446154 
L 204.395703 274.259077 
L 204.764162 291.760615 
L 205.132621 273.384 
L 205.501081 298.761231 
L 205.86954 282.572308 
L 206.237999 306.199385 
L 206.606459 251.944615 
L 206.974918 262.883077 
L 207.343377 304.449231 
L 207.711837 278.634462 
L 208.080296 289.572923 
L 208.448756 264.633231 
L 208.817215 278.634462 
L 209.185674 299.636308 
L 209.554134 300.511385 
L 209.922593 257.632615 
L 210.291052 287.385231 
L 210.659512 289.135385 
L 211.027971 307.074462 
L 211.396431 268.571077 
L 211.76489 263.320615 
L 212.133349 287.822769 
L 212.501809 300.948923 
L 212.870268 260.257846 
L 213.238727 275.571692 
L 213.607187 281.697231 
L 213.975646 274.696615 
L 214.344105 305.324308 
L 214.712565 181.500923 
L 215.081024 276.446769 
L 215.449484 293.510769 
L 215.817943 301.824 
L 216.186402 294.823385 
L 216.554862 291.323077 
L 216.923321 282.572308 
L 217.29178 268.133538 
L 217.66024 271.196308 
L 218.028699 284.322462 
L 218.397159 279.509538 
L 218.765618 248.881846 
L 219.134077 294.823385 
L 219.502537 256.757538 
L 219.870996 264.195692 
L 220.239455 285.635077 
L 220.607915 297.011077 
L 220.976374 266.820923 
L 221.344833 253.694769 
L 221.713293 265.508308 
L 222.081752 302.699077 
L 222.450212 262.883077 
L 222.818671 299.198769 
L 223.18713 242.756308 
L 223.55559 267.696 
L 223.924049 272.946462 
L 224.292508 238.818462 
L 224.660968 264.195692 
L 225.029427 231.817846 
L 225.397887 260.695385 
L 225.766346 192.876923 
L 226.134805 286.510154 
L 226.503265 301.824 
L 226.871724 295.698462 
L 227.240183 250.194462 
L 227.608643 245.381538 
L 227.977102 273.821538 
L 228.345561 293.510769 
L 228.714021 241.881231 
L 229.45094 278.196923 
L 229.819399 267.696 
L 230.187858 293.510769 
L 230.556318 282.134769 
L 230.924777 281.697231 
L 231.293236 261.570462 
L 231.661696 287.822769 
L 232.030155 289.572923 
L 232.767074 244.506462 
L 233.135533 284.76 
L 233.503993 269.883692 
L 233.872452 298.323692 
L 234.240911 252.382154 
L 234.609371 282.572308 
L 234.97783 283.884923 
L 235.346289 269.008615 
L 235.714749 299.198769 
L 236.083208 291.760615 
L 236.451668 289.572923 
L 237.188586 252.819692 
L 237.557046 268.571077 
L 237.925505 278.196923 
L 238.293964 278.196923 
L 238.662424 246.256615 
L 239.399343 290.010462 
L 239.767802 285.635077 
L 240.136261 274.259077 
L 240.504721 271.196308 
L 240.87318 265.070769 
L 241.241639 281.259692 
L 241.610099 266.820923 
L 241.978558 293.510769 
L 242.347017 288.260308 
L 242.715477 279.072 
L 243.083936 236.630769 
L 243.452396 279.509538 
L 243.820855 270.321231 
L 244.189314 218.254154 
L 244.557774 302.699077 
L 244.926233 253.694769 
L 245.294692 266.820923 
L 245.663152 271.196308 
L 246.031611 262.883077 
L 246.400071 264.633231 
L 246.76853 244.506462 
L 247.136989 293.510769 
L 247.505449 269.883692 
L 247.873908 286.510154 
L 248.610827 304.011692 
L 248.979286 275.571692 
L 249.347745 279.072 
L 249.716205 273.384 
L 250.084664 278.196923 
L 250.453124 276.884308 
L 250.821583 294.823385 
L 251.190042 266.820923 
L 251.558502 297.886154 
L 251.926961 236.630769 
L 252.29542 295.260923 
L 252.66388 293.073231 
L 253.032339 297.886154 
L 253.400799 239.256 
L 254.137717 307.512 
L 254.506177 257.632615 
L 254.874636 288.260308 
L 255.243095 276.884308 
L 255.611555 281.697231 
L 255.980014 282.134769 
L 256.348473 255.882462 
L 256.716933 280.822154 
L 257.085392 285.635077 
L 257.453852 269.883692 
L 257.822311 302.699077 
L 258.19077 271.633846 
L 258.55923 263.758154 
L 258.927689 290.885538 
L 259.296148 279.072 
L 259.664608 300.511385 
L 260.033067 283.009846 
L 260.401527 283.009846 
L 260.769986 275.134154 
L 261.138445 290.885538 
L 261.506905 288.697846 
L 261.875364 280.822154 
L 262.243823 260.257846 
L 262.612283 257.195077 
L 262.980742 279.072 
L 263.349201 255.007385 
L 263.717661 275.571692 
L 264.45458 280.384615 
L 264.823039 274.259077 
L 265.191498 299.636308 
L 265.559958 276.009231 
L 265.928417 261.132923 
L 266.296876 267.696 
L 267.033795 286.510154 
L 267.402255 279.947077 
L 267.770714 290.010462 
L 268.139173 268.571077 
L 268.876092 297.886154 
L 269.613011 232.255385 
L 269.98147 278.196923 
L 270.349929 272.946462 
L 270.718389 254.132308 
L 271.086848 282.134769 
L 271.455308 276.446769 
L 271.823767 268.133538 
L 272.192226 278.196923 
L 272.560686 274.696615 
L 272.929145 281.259692 
L 273.297604 276.009231 
L 273.666064 285.197538 
L 274.034523 279.072 
L 274.402983 287.822769 
L 274.771442 280.822154 
L 275.139901 266.820923 
L 275.508361 288.697846 
L 275.87682 269.446154 
L 276.245279 275.571692 
L 276.613739 277.759385 
L 276.982198 257.632615 
L 277.350657 256.32 
L 277.719117 272.508923 
L 278.087576 256.757538 
L 278.456036 254.132308 
L 278.824495 267.696 
L 279.192954 258.507692 
L 279.561414 259.382769 
L 279.929873 249.319385 
L 280.298332 265.945846 
L 280.666792 267.696 
L 281.035251 288.697846 
L 281.403711 196.814769 
L 281.77217 276.446769 
L 282.140629 276.446769 
L 282.509089 271.633846 
L 282.877548 280.822154 
L 283.246007 239.693538 
L 283.614467 275.571692 
L 283.982926 248.881846 
L 284.351385 264.633231 
L 284.719845 269.883692 
L 285.088304 269.446154 
L 285.456764 254.569846 
L 285.825223 244.506462 
L 286.193682 272.946462 
L 286.562142 257.195077 
L 286.930601 257.195077 
L 287.29906 245.819077 
L 287.66752 259.382769 
L 288.035979 263.320615 
L 288.404439 293.510769 
L 288.772898 248.881846 
L 289.141357 264.633231 
L 289.509817 263.320615 
L 289.878276 271.196308 
L 290.246735 264.195692 
L 290.615195 283.009846 
L 290.983654 258.945231 
L 291.352113 290.448 
L 291.720573 268.571077 
L 292.089032 281.697231 
L 292.457492 268.571077 
L 292.825951 267.258462 
L 293.19441 292.198154 
L 293.56287 275.571692 
L 293.931329 277.759385 
L 294.299788 290.448 
L 294.668248 263.758154 
L 295.036707 262.883077 
L 295.405167 256.32 
L 295.773626 299.636308 
L 296.142085 284.76 
L 296.510545 283.884923 
L 296.879004 259.820308 
L 297.247463 283.009846 
L 297.615923 269.446154 
L 297.984382 293.510769 
L 298.352841 293.948308 
L 298.721301 300.948923 
L 299.08976 292.635692 
L 299.45822 264.195692 
L 299.826679 293.510769 
L 300.195138 272.946462 
L 300.563598 280.384615 
L 300.932057 283.009846 
L 301.300516 278.196923 
L 301.668976 281.259692 
L 302.037435 269.446154 
L 302.774354 293.510769 
L 303.142813 297.011077 
L 303.511273 288.260308 
L 303.879732 299.198769 
L 304.248191 286.072615 
L 304.616651 289.572923 
L 304.98511 284.76 
L 305.353569 286.947692 
L 305.722029 275.134154 
L 306.090488 287.385231 
L 306.458948 283.884923 
L 307.195866 303.136615 
L 307.932785 293.510769 
L 308.301244 281.259692 
L 308.669704 292.635692 
L 309.038163 277.759385 
L 309.775082 297.011077 
L 310.143541 297.886154 
L 310.512001 296.136 
L 310.88046 286.510154 
L 311.248919 296.136 
L 311.617379 293.510769 
L 311.985838 300.511385 
L 312.354297 296.573538 
L 312.722757 285.635077 
L 313.091216 286.947692 
L 313.459676 297.886154 
L 313.828135 291.323077 
L 314.196594 300.073846 
L 314.565054 272.071385 
L 314.933513 288.697846 
L 315.301972 288.697846 
L 315.670432 265.945846 
L 316.038891 273.384 
L 316.407351 284.76 
L 316.77581 263.758154 
L 317.512729 285.197538 
L 317.881188 241.443692 
L 318.249647 258.945231 
L 318.618107 285.635077 
L 318.986566 289.572923 
L 319.355025 265.945846 
L 319.723485 293.073231 
L 320.091944 265.070769 
L 320.460404 294.385846 
L 320.828863 267.258462 
L 321.197322 284.76 
L 321.565782 264.195692 
L 321.934241 291.323077 
L 322.3027 250.194462 
L 322.67116 280.384615 
L 323.039619 276.884308 
L 323.408079 276.446769 
L 323.776538 292.635692 
L 324.144997 286.947692 
L 324.513457 278.196923 
L 324.881916 279.947077 
L 325.250375 286.947692 
L 325.618835 254.569846 
L 325.987294 253.257231 
L 326.355753 290.885538 
L 326.724213 286.947692 
L 327.092672 268.133538 
L 327.461132 271.196308 
L 327.829591 264.195692 
L 328.19805 283.884923 
L 328.56651 230.505231 
L 328.934969 266.820923 
L 329.303428 259.820308 
L 329.671888 284.76 
L 330.040347 277.321846 
L 330.408807 279.947077 
L 330.777266 290.010462 
L 331.145725 262.445538 
L 331.514185 290.885538 
L 331.882644 264.195692 
L 332.251103 272.071385 
L 332.619563 234.005538 
L 332.988022 271.196308 
L 333.356481 266.820923 
L 333.724941 284.76 
L 334.0934 274.696615 
L 334.46186 267.696 
L 334.830319 286.072615 
L 335.198778 280.384615 
L 335.567238 255.882462 
L 335.935697 260.257846 
L 336.304156 284.76 
L 336.672616 268.571077 
L 337.041075 273.384 
L 337.409535 284.76 
L 337.777994 282.572308 
L 338.146453 263.320615 
L 338.514913 265.070769 
L 338.883372 279.947077 
L 339.251831 262.008 
L 339.620291 280.822154 
L 339.98875 271.196308 
L 340.357209 269.883692 
L 340.725669 248.006769 
L 341.094128 281.697231 
L 341.462588 282.134769 
L 341.831047 277.759385 
L 342.199506 271.196308 
L 342.567966 237.505846 
L 342.936425 233.130462 
L 343.304884 262.445538 
L 343.673344 272.946462 
L 344.041803 258.070154 
L 344.410263 256.32 
L 344.778722 252.382154 
L 345.147181 223.942154 
L 345.515641 261.570462 
L 345.8841 265.945846 
L 346.252559 275.134154 
L 346.621019 251.944615 
L 346.989478 271.633846 
L 347.357937 272.071385 
L 347.726397 248.006769 
L 348.094856 273.821538 
L 348.463316 238.818462 
L 348.831775 265.070769 
L 349.200234 262.008 
L 349.568694 262.883077 
L 349.937153 266.383385 
L 350.305612 226.129846 
L 350.674072 271.196308 
L 351.042531 255.007385 
L 351.77945 266.820923 
L 352.147909 267.696 
L 352.516369 252.382154 
L 352.884828 262.008 
L 353.253287 267.696 
L 353.621747 255.882462 
L 353.990206 238.818462 
L 354.358665 257.195077 
L 354.727125 242.318769 
L 355.095584 275.134154 
L 355.832503 230.942769 
L 356.200962 225.692308 
L 356.569422 260.695385 
L 356.937881 252.819692 
L 357.30634 241.881231 
L 357.6748 275.571692 
L 358.043259 272.508923 
L 358.411719 273.384 
L 358.780178 263.758154 
L 359.148637 257.632615 
L 359.517097 273.384 
L 359.885556 258.070154 
L 360.254015 270.758769 
L 360.622475 268.571077 
L 360.990934 258.945231 
L 361.727853 272.508923 
L 362.096312 266.820923 
L 362.464772 266.383385 
L 362.833231 272.508923 
L 363.20169 260.695385 
L 363.57015 269.883692 
L 363.938609 258.070154 
L 364.307068 258.070154 
L 364.675528 231.817846 
L 365.043987 270.758769 
L 365.412447 243.193846 
L 365.780906 253.257231 
L 366.149365 267.696 
L 366.886284 236.630769 
L 367.254743 230.067692 
L 367.623203 241.881231 
L 367.991662 248.881846 
L 368.360121 262.883077 
L 368.728581 258.945231 
L 369.09704 257.195077 
L 369.4655 245.819077 
L 369.833959 250.194462 
L 370.202418 252.382154 
L 370.570878 242.318769 
L 371.307796 268.133538 
L 371.676256 265.945846 
L 372.044715 252.382154 
L 372.781634 264.633231 
L 373.150093 262.883077 
L 373.518553 268.571077 
L 373.887012 258.945231 
L 374.255471 268.133538 
L 374.623931 271.196308 
L 374.99239 267.696 
L 375.360849 255.882462 
L 375.729309 262.008 
L 376.466228 244.944 
L 376.834687 261.132923 
L 377.203146 255.444923 
L 377.571606 269.008615 
L 377.940065 267.258462 
L 378.308524 269.008615 
L 378.676984 249.319385 
L 379.045443 271.196308 
L 379.413903 253.257231 
L 379.782362 251.944615 
L 380.150821 254.569846 
L 380.519281 244.506462 
L 380.88774 269.883692 
L 381.256199 258.507692 
L 381.624659 227.442462 
L 381.993118 262.008 
L 382.361577 241.006154 
L 382.730037 267.696 
L 383.098496 269.446154 
L 383.466956 267.696 
L 383.835415 259.820308 
L 384.203874 267.696 
L 384.572334 268.133538 
L 384.940793 267.258462 
L 385.309252 245.819077 
L 385.677712 272.946462 
L 386.046171 272.071385 
L 386.414631 268.133538 
L 386.78309 270.758769 
L 387.151549 255.007385 
L 387.520009 271.633846 
L 387.888468 269.008615 
L 388.256927 263.758154 
L 388.625387 270.758769 
L 388.993846 266.383385 
L 389.362305 265.070769 
L 389.730765 268.133538 
L 390.099224 260.695385 
L 390.467684 267.696 
L 390.836143 259.382769 
L 391.204602 265.508308 
L 391.573062 256.757538 
L 391.941521 270.321231 
L 392.30998 255.007385 
L 392.67844 265.945846 
L 393.046899 261.570462 
L 393.415359 269.883692 
L 393.783818 270.321231 
L 394.152277 250.194462 
L 394.520737 255.882462 
L 394.889196 268.571077 
L 395.257655 258.070154 
L 395.626115 268.571077 
L 395.994574 268.571077 
L 396.363033 268.133538 
L 396.731493 262.445538 
L 397.099952 264.195692 
L 397.468412 256.757538 
L 397.836871 258.507692 
L 398.57379 264.195692 
L 398.942249 269.883692 
L 399.310708 269.446154 
L 399.679168 267.696 
L 400.047627 271.633846 
L 400.416087 255.882462 
L 400.784546 276.884308 
L 401.153005 259.382769 
L 401.521465 271.196308 
L 401.889924 264.195692 
L 402.258383 272.946462 
L 402.626843 264.633231 
L 402.995302 265.508308 
L 403.363761 273.384 
L 403.732221 272.508923 
L 404.10068 262.008 
L 404.46914 272.071385 
L 404.837599 275.134154 
L 405.206058 265.508308 
L 405.574518 275.571692 
L 405.942977 260.257846 
L 406.311436 273.384 
L 406.679896 274.259077 
L 407.048355 269.008615 
L 407.416815 243.631385 
L 407.785274 269.008615 
L 408.153733 270.758769 
L 408.890652 255.882462 
L 409.259111 272.508923 
L 409.627571 254.569846 
L 409.99603 272.946462 
L 410.364489 271.196308 
L 410.732949 276.884308 
L 411.101408 271.633846 
L 411.469868 250.632 
L 411.838327 276.446769 
L 412.206786 267.258462 
L 412.575246 262.445538 
L 412.943705 269.883692 
L 413.312164 265.945846 
L 413.680624 274.259077 
L 414.049083 258.070154 
L 414.417543 277.321846 
L 414.786002 272.508923 
L 415.154461 271.633846 
L 415.522921 270.321231 
L 415.89138 273.384 
L 416.259839 278.196923 
L 416.628299 252.819692 
L 416.996758 251.069538 
L 417.365217 266.820923 
L 417.733677 258.945231 
L 418.102136 276.009231 
L 418.470596 278.196923 
L 418.839055 273.384 
L 419.207514 276.009231 
L 419.575974 242.318769 
L 419.944433 255.007385 
L 420.312892 280.822154 
L 420.681352 273.821538 
L 421.049811 263.758154 
L 421.418271 272.508923 
L 421.78673 263.758154 
L 422.155189 279.072 
L 422.523649 265.508308 
L 423.260567 278.196923 
L 423.629027 267.696 
L 423.997486 269.008615 
L 424.365945 275.134154 
L 424.734405 269.008615 
L 425.102864 277.321846 
L 425.471324 274.696615 
L 425.839783 267.258462 
L 426.208242 276.884308 
L 427.31362 248.444308 
L 427.68208 269.883692 
L 428.050539 268.571077 
L 428.418999 275.571692 
L 428.787458 254.132308 
L 429.155917 272.946462 
L 429.524377 258.945231 
L 429.892836 256.757538 
L 430.261295 271.196308 
L 430.629755 266.820923 
L 430.998214 271.633846 
L 431.366673 263.758154 
L 431.735133 260.695385 
L 432.103592 270.758769 
L 432.472052 265.070769 
L 432.840511 275.571692 
L 433.57743 263.320615 
L 433.945889 275.571692 
L 434.314348 269.446154 
L 434.682808 273.384 
L 435.051267 268.571077 
L 435.419727 267.696 
L 435.788186 268.571077 
L 436.156645 272.071385 
L 436.525105 264.195692 
L 436.893564 268.133538 
L 437.262023 276.884308 
L 437.630483 272.946462 
L 437.998942 273.384 
L 438.735861 263.320615 
L 439.10432 269.446154 
L 439.47278 262.883077 
L 440.209698 260.257846 
L 440.578158 276.884308 
L 440.946617 274.696615 
L 441.315076 263.320615 
L 441.683536 265.070769 
L 442.051995 273.384 
L 442.420455 267.696 
L 442.420455 267.696 
" clip-path="url(#p42f671aaa1)" style="fill: none; stroke: #708090; stroke-width: 1.5; stroke-linecap: square"/>
   </g>
   <g id="line2d_15">
    <path d="M 74.329545 302.804086 
L 74.698005 302.760332 
L 75.066464 302.830338 
L 76.540302 302.471557 
L 77.64568 302.681575 
L 78.014139 302.769083 
L 78.382599 302.594068 
L 79.487977 302.646572 
L 79.856436 302.769083 
L 80.224895 302.769083 
L 81.330273 303.442892 
L 81.698733 303.372886 
L 82.435652 303.469145 
L 83.17257 303.950437 
L 84.646408 303.714166 
L 85.014867 303.932935 
L 85.383327 303.714166 
L 85.751786 303.731668 
L 86.120245 303.521649 
L 86.488705 303.556652 
L 86.857164 304.072948 
L 87.962542 303.889182 
L 88.331001 303.670412 
L 89.804839 303.486646 
L 90.541758 303.652911 
L 90.910217 303.512898 
L 91.278676 303.652911 
L 91.647136 303.582905 
L 92.015595 303.705415 
L 93.120973 303.294129 
L 93.489433 303.232874 
L 94.96327 303.696665 
L 95.331729 303.75792 
L 95.700189 303.635409 
L 96.805567 303.740418 
L 97.542486 303.845428 
L 99.016323 303.845428 
L 99.384783 303.98544 
L 100.490161 303.679163 
L 100.85862 303.451643 
L 102.332457 303.696665 
L 103.069376 303.994191 
L 103.437836 303.994191 
L 103.806295 304.107951 
L 104.174754 304.002942 
L 104.543214 304.090449 
L 105.648592 303.845428 
L 106.017051 304.064197 
L 106.385511 303.626658 
L 106.75397 303.442892 
L 107.122429 303.486646 
L 107.859348 303.294129 
L 108.227807 303.41664 
L 108.964726 303.07536 
L 109.333185 303.294129 
L 110.070104 303.259126 
L 110.438564 303.276628 
L 111.543942 303.679163 
L 111.912401 303.469145 
L 112.28086 302.917846 
L 113.754698 302.480308 
L 114.123157 302.559065 
L 114.491617 302.331545 
L 114.860076 302.445305 
L 115.596995 302.104025 
L 116.333913 302.069022 
L 117.070832 301.053932 
L 118.54467 301.071434 
L 119.281588 301.640234 
L 120.018507 301.59648 
L 120.386967 301.088935 
L 121.123885 301.045182 
L 121.492345 300.817662 
L 122.597723 300.695151 
L 122.966182 300.835163 
L 123.334641 300.843914 
L 124.07156 300.240111 
L 124.44002 300.240111 
L 125.176938 300.975175 
L 125.913857 301.080185 
L 126.282316 301.211446 
L 126.650776 301.045182 
L 127.019235 301.132689 
L 128.124613 300.957674 
L 128.861532 300.511385 
L 129.229991 300.590142 
L 129.598451 300.380123 
L 129.96691 300.380123 
L 130.335369 300.555138 
L 130.703829 301.02768 
L 131.072288 301.193945 
L 131.440748 301.176443 
L 131.809207 301.281452 
L 132.546126 301.185194 
L 132.914585 301.403963 
L 133.283044 301.193945 
L 134.756882 301.36896 
L 135.493801 302.252788 
L 135.86226 302.217785 
L 136.230719 302.016517 
L 136.599179 302.200283 
L 136.967638 302.252788 
L 137.336097 301.727742 
L 137.704557 301.613982 
L 138.073016 301.71024 
L 138.441476 301.526474 
L 138.809935 301.990265 
L 139.546854 301.718991 
L 139.915313 301.902757 
L 140.283772 301.675237 
L 140.652232 301.727742 
L 141.75761 301.465218 
L 142.494529 302.042769 
L 142.862988 302.077772 
L 143.599907 301.964012 
L 143.968366 301.885255 
L 144.336825 301.622732 
L 144.705285 301.167692 
L 145.073744 301.263951 
L 145.442204 301.036431 
L 145.810663 301.132689 
L 146.179122 300.878917 
L 147.2845 301.167692 
L 147.65296 301.053932 
L 148.021419 301.158942 
L 149.126797 300.940172 
L 149.863716 300.642646 
L 150.969094 300.476382 
L 151.337553 300.336369 
L 152.074472 300.353871 
L 152.442932 299.907582 
L 153.54831 299.32128 
L 153.916769 299.365034 
L 154.285228 299.155015 
L 154.653688 299.295028 
L 155.022147 299.303778 
L 155.390607 298.883742 
L 155.759066 299.330031 
L 156.127525 299.443791 
L 156.495985 299.338782 
L 156.864444 299.505046 
L 157.601363 298.98 
L 157.969822 298.997502 
L 158.338281 298.857489 
L 158.706741 298.901243 
L 159.0752 299.067508 
L 159.812119 298.682474 
L 160.549038 298.874991 
L 161.285956 298.568714 
L 161.654416 298.096172 
L 162.759794 297.719889 
L 163.128253 298.034917 
L 163.496713 297.999914 
L 163.865172 298.18368 
L 164.233631 298.218683 
L 164.602091 298.437452 
L 164.97055 298.393698 
L 165.339009 298.472455 
L 165.707469 298.664972 
L 166.444388 298.612468 
L 166.812847 298.419951 
L 167.181306 298.463705 
L 167.549766 298.393698 
L 167.918225 298.166178 
L 168.655144 298.288689 
L 169.023603 297.474868 
L 170.497441 297.527372 
L 170.8659 297.824898 
L 171.602819 297.107335 
L 171.971278 297.291102 
L 172.339737 297.019828 
L 173.076656 297.133588 
L 173.445116 296.801058 
L 173.813575 297.081083 
L 174.182034 297.072332 
L 174.918953 296.416025 
L 175.287412 296.398523 
L 175.655872 296.722302 
L 176.024331 296.844812 
L 176.392791 296.521034 
L 176.76125 295.628455 
L 177.129709 295.637206 
L 177.498169 294.805883 
L 177.866628 294.727126 
L 178.603547 293.423262 
L 178.972006 293.125735 
L 179.340465 293.125735 
L 179.708925 292.959471 
L 180.077384 293.274498 
L 180.445844 292.801957 
L 180.814303 292.618191 
L 181.551222 292.784455 
L 182.6566 292.26816 
L 183.025059 292.320665 
L 183.393519 291.664357 
L 183.761978 291.568098 
L 184.130437 291.673108 
L 184.498897 291.576849 
L 184.867356 291.139311 
L 185.235815 291.279323 
L 185.972734 290.097969 
L 186.709653 289.642929 
L 187.078112 288.977871 
L 187.446572 289.782942 
L 187.815031 289.494166 
L 188.18349 289.555422 
L 188.920409 287.910277 
L 189.288868 288.032788 
L 189.657328 288.006535 
L 190.025787 288.304062 
L 190.394247 287.498991 
L 190.762706 287.271471 
L 191.131165 287.306474 
L 191.499625 287.166462 
L 191.868084 286.483902 
L 192.605003 285.985108 
L 192.973462 286.273883 
L 193.341921 285.915102 
L 193.710381 285.110031 
L 194.07884 284.76 
L 194.4473 284.830006 
L 194.815759 284.366215 
L 195.184218 284.821255 
L 195.552678 284.558732 
L 195.921137 284.724997 
L 196.289596 285.118782 
L 196.658056 283.569895 
L 198.131893 283.911175 
L 198.500353 283.876172 
L 198.868812 284.042437 
L 200.342649 282.589809 
L 200.711109 281.635975 
L 201.079568 281.68848 
L 201.448028 280.743397 
L 201.816487 280.577132 
L 202.553406 280.09584 
L 203.658784 278.258178 
L 204.027243 278.95824 
L 204.395703 278.826978 
L 204.764162 279.325772 
L 205.132621 278.345686 
L 205.501081 278.231926 
L 205.86954 277.715631 
L 206.606459 276.00048 
L 206.974918 275.597945 
L 207.343377 275.554191 
L 207.711837 273.322745 
L 208.448756 273.72528 
L 208.817215 274.346585 
L 209.185674 273.777785 
L 209.554134 272.692689 
L 209.922593 272.158892 
L 210.291052 272.876455 
L 210.659512 271.966375 
L 211.396431 270.828775 
L 211.76489 270.811274 
L 212.133349 271.415077 
L 212.501809 271.301317 
L 212.870268 270.916283 
L 213.238727 270.942535 
L 213.975646 271.345071 
L 214.344105 271.135052 
L 214.712565 269.918695 
L 215.081024 271.983877 
L 215.449484 271.852615 
L 215.817943 271.948874 
L 216.186402 270.960037 
L 217.29178 270.294978 
L 218.028699 271.327569 
L 218.397159 271.432578 
L 218.765618 271.292566 
L 219.134077 271.371323 
L 219.502537 270.846277 
L 220.239455 271.555089 
L 220.607915 270.76752 
L 220.976374 270.251225 
L 222.081752 271.528837 
L 222.450212 270.898782 
L 222.818671 270.942535 
L 223.18713 270.583754 
L 224.292508 271.887618 
L 224.660968 272.692689 
L 225.029427 272.141391 
L 225.397887 273.095225 
L 225.766346 273.287742 
L 226.503265 274.119065 
L 226.871724 273.15648 
L 227.240183 272.578929 
L 227.977102 273.348997 
L 228.345561 273.165231 
L 228.714021 272.185145 
L 229.08248 273.217735 
L 229.819399 273.559015 
L 230.187858 274.092812 
L 230.556318 274.302831 
L 231.293236 274.119065 
L 231.661696 274.355335 
L 232.398615 273.909046 
L 233.135533 274.967889 
L 233.503993 275.230412 
L 233.872452 274.565354 
L 234.240911 274.504098 
L 234.609371 275.31792 
L 234.97783 275.624197 
L 235.346289 274.731618 
L 236.083208 274.967889 
L 236.451668 274.285329 
L 236.820127 274.259077 
L 237.188586 274.346585 
L 237.557046 274.924135 
L 237.925505 275.195409 
L 238.293964 274.74912 
L 238.662424 274.801625 
L 239.030883 275.589194 
L 239.399343 275.562942 
L 239.767802 275.816714 
L 240.504721 275.326671 
L 241.610099 276.385514 
L 241.978558 276.709292 
L 242.715477 276.236751 
L 243.083936 276.473022 
L 243.452396 277.514363 
L 243.820855 277.540615 
L 244.189314 277.339348 
L 244.557774 278.118166 
L 244.926233 277.645625 
L 245.294692 277.671877 
L 246.031611 277.986905 
L 246.400071 278.336935 
L 246.76853 278.529452 
L 247.136989 279.632049 
L 247.505449 279.282018 
L 247.873908 279.107003 
L 248.979286 278.065662 
L 249.347745 278.153169 
L 249.716205 278.371938 
L 250.084664 278.27568 
L 250.453124 278.363188 
L 250.821583 278.783225 
L 251.926961 277.181834 
L 252.29542 277.908148 
L 252.66388 277.085575 
L 253.032339 276.866806 
L 253.400799 276.438018 
L 253.769258 277.015569 
L 254.137717 277.129329 
L 254.506177 276.473022 
L 254.874636 276.945563 
L 255.243095 276.700542 
L 255.611555 276.866806 
L 255.980014 276.814302 
L 256.348473 276.928062 
L 256.716933 277.426855 
L 257.085392 277.146831 
L 257.822311 277.199335 
L 258.19077 276.656788 
L 258.55923 276.779298 
L 258.927689 276.656788 
L 259.296148 275.965477 
L 259.664608 275.834215 
L 260.033067 274.959138 
L 260.401527 274.381588 
L 261.138445 273.742782 
L 262.243823 272.027631 
L 262.612283 272.176394 
L 262.980742 272.806449 
L 263.349201 271.161305 
L 263.717661 271.590092 
L 264.08612 271.607594 
L 264.45458 271.476332 
L 264.823039 271.485083 
L 265.559958 270.31248 
L 265.928417 269.769932 
L 266.665336 269.883692 
L 267.033795 269.699926 
L 267.770714 268.352308 
L 268.876092 267.275963 
L 269.244551 266.234622 
L 269.613011 266.042105 
L 269.98147 266.663409 
L 270.349929 266.969686 
L 270.718389 266.488394 
L 271.086848 266.698412 
L 271.455308 266.322129 
L 272.192226 266.138363 
L 272.560686 266.234622 
L 272.929145 265.919594 
L 273.297604 266.10336 
L 274.402983 265.674572 
L 274.771442 265.263286 
L 275.508361 265.665822 
L 275.87682 265.447052 
L 276.245279 265.867089 
L 276.982198 265.333292 
L 277.350657 265.30704 
L 277.719117 266.173366 
L 278.087576 266.418388 
L 278.456036 266.960935 
L 278.824495 267.074695 
L 279.561414 267.599742 
L 281.035251 270.373735 
L 281.403711 269.883692 
L 281.77217 271.817612 
L 282.140629 271.747606 
L 282.509089 271.826363 
L 282.877548 272.053883 
L 283.246007 272.001378 
L 283.614467 272.832702 
L 283.982926 272.710191 
L 285.088304 274.469095 
L 285.456764 274.845378 
L 286.193682 276.56928 
L 286.562142 276.901809 
L 288.404439 279.605797 
L 288.772898 279.614548 
L 289.141357 280.699643 
L 289.878276 281.986006 
L 290.246735 282.187274 
L 290.615195 282.756074 
L 290.983654 282.651065 
L 291.352113 283.246117 
L 291.720573 283.377378 
L 292.089032 283.96368 
L 292.825951 284.611237 
L 293.19441 285.188788 
L 293.56287 285.21504 
L 294.299788 286.090117 
L 294.668248 285.993858 
L 295.036707 286.457649 
L 295.773626 287.857772 
L 296.142085 287.866523 
L 296.510545 287.612751 
L 296.879004 287.709009 
L 297.247463 288.28656 
L 297.615923 287.94528 
L 297.984382 288.024037 
L 298.352841 287.849022 
L 299.08976 286.711422 
L 299.45822 286.562658 
L 299.826679 286.107618 
L 300.195138 285.416308 
L 300.932057 285.853846 
L 301.300516 285.512566 
L 301.668976 285.810092 
L 302.037435 285.486314 
L 302.405895 285.985108 
L 303.142813 285.538818 
L 303.511273 284.882511 
L 303.879732 284.943766 
L 304.248191 283.96368 
L 304.616651 283.84992 
L 305.353569 283.429883 
L 305.722029 283.543643 
L 306.090488 283.779914 
L 306.827407 283.517391 
L 307.195866 283.377378 
L 307.932785 281.495963 
L 308.301244 281.443458 
L 308.669704 281.557218 
L 309.038163 281.067175 
L 309.406623 280.935914 
L 309.775082 280.445871 
L 310.143541 280.183348 
L 310.512001 278.835729 
L 311.248919 277.715631 
L 311.985838 277.164332 
L 312.354297 276.753046 
L 312.722757 276.621785 
L 313.091216 276.157994 
L 313.459676 276.236751 
L 313.828135 275.562942 
L 314.196594 275.177908 
L 314.565054 273.856542 
L 314.933513 273.83904 
L 315.301972 273.401502 
L 315.670432 273.322745 
L 316.038891 273.49776 
L 316.407351 273.384 
L 316.77581 273.410252 
L 317.144269 273.742782 
L 317.881188 272.876455 
L 318.249647 273.742782 
L 318.618107 273.935298 
L 318.986566 273.690277 
L 319.355025 273.594018 
L 319.723485 273.926548 
L 320.091944 273.331495 
L 320.460404 273.331495 
L 320.828863 273.04272 
L 321.565782 272.858954 
L 321.934241 272.998966 
L 322.3027 272.570178 
L 323.039619 272.552677 
L 323.776538 272.683938 
L 324.144997 272.255151 
L 324.881916 270.364985 
L 325.618835 269.734929 
L 326.355753 269.866191 
L 326.724213 269.096123 
L 327.092672 267.836012 
L 327.829591 267.599742 
L 328.19805 267.818511 
L 328.56651 267.179705 
L 328.934969 268.002277 
L 329.303428 268.107286 
L 330.040347 267.652246 
L 330.408807 266.882178 
L 330.777266 266.584652 
L 331.145725 266.024603 
L 331.514185 266.033354 
L 331.882644 265.543311 
L 332.251103 264.781994 
L 332.619563 264.764492 
L 332.988022 265.184529 
L 333.356481 264.96576 
L 333.724941 264.96576 
L 335.935697 262.865575 
L 336.304156 262.80432 
L 336.672616 261.955495 
L 337.041075 262.086757 
L 337.409535 261.66672 
L 338.146453 259.452775 
L 338.514913 259.400271 
L 338.883372 259.155249 
L 339.251831 258.393932 
L 339.620291 258.665206 
L 339.98875 258.498942 
L 340.357209 258.542695 
L 340.725669 258.420185 
L 341.094128 258.612702 
L 341.462588 258.446437 
L 341.831047 257.965145 
L 342.567966 257.772628 
L 342.936425 258.201415 
L 343.304884 258.857723 
L 343.673344 259.058991 
L 344.041803 258.93648 
L 344.410263 259.102745 
L 344.778722 259.426523 
L 345.147181 259.592788 
L 345.515641 260.511618 
L 346.252559 260.284098 
L 346.621019 259.417772 
L 346.989478 259.794055 
L 347.726397 258.848972 
L 348.094856 259.242757 
L 348.463316 258.761465 
L 348.831775 258.717711 
L 349.200234 258.017649 
L 349.937153 257.335089 
L 350.305612 257.265083 
L 350.674072 257.921391 
L 351.410991 257.4576 
L 352.147909 256.967557 
L 352.516369 256.460012 
L 353.621747 256.617526 
L 353.990206 256.54752 
L 354.358665 256.950055 
L 354.727125 257.098818 
L 355.095584 257.510105 
L 355.464044 257.378843 
L 355.832503 257.510105 
L 356.569422 259.164 
L 357.30634 259.365268 
L 357.6748 259.767803 
L 358.780178 258.507692 
L 359.148637 258.341428 
L 359.517097 258.568948 
L 359.885556 258.446437 
L 360.254015 258.665206 
L 360.622475 258.236418 
L 360.990934 258.288923 
L 361.359393 258.175163 
L 362.096312 257.536357 
L 362.464772 257.090068 
L 362.833231 257.160074 
L 363.20169 256.880049 
L 363.57015 256.214991 
L 363.938609 256.057477 
L 364.307068 255.716197 
L 364.675528 255.908714 
L 365.043987 256.66128 
L 365.412447 256.600025 
L 366.149365 257.221329 
L 366.517825 257.23008 
L 366.886284 257.580111 
L 367.254743 257.763877 
L 367.991662 259.225255 
L 368.360121 259.610289 
L 368.728581 259.767803 
L 369.09704 259.689046 
L 369.4655 259.977822 
L 369.833959 260.441612 
L 370.570878 261.080418 
L 370.939337 261.561711 
L 371.307796 261.745477 
L 372.044715 261.640468 
L 372.413175 261.946745 
L 373.150093 261.972997 
L 373.518553 261.850486 
L 373.887012 261.885489 
L 375.360849 261.614215 
L 375.729309 261.902991 
L 376.097768 261.66672 
L 376.466228 261.736726 
L 376.834687 262.209268 
L 377.203146 262.148012 
L 377.571606 262.410535 
L 378.676984 262.288025 
L 379.045443 262.585551 
L 379.413903 262.296775 
L 380.150821 262.594302 
L 380.519281 262.786818 
L 380.88774 263.294363 
L 381.256199 263.285612 
L 381.624659 263.469378 
L 381.993118 264.353206 
L 382.361577 264.230695 
L 382.730037 264.948258 
L 383.098496 264.781994 
L 383.835415 264.746991 
L 384.203874 265.009514 
L 384.940793 264.895754 
L 385.309252 265.018265 
L 385.677712 265.552062 
L 386.046171 265.333292 
L 386.414631 265.333292 
L 386.78309 265.473305 
L 387.151549 265.368295 
L 387.520009 265.779582 
L 387.888468 265.552062 
L 388.256927 265.639569 
L 388.625387 265.849588 
L 388.993846 265.814585 
L 389.362305 265.359545 
L 390.467684 265.543311 
L 390.836143 265.30704 
L 391.204602 265.569563 
L 391.573062 265.350794 
L 391.941521 265.674572 
L 392.30998 265.692074 
L 392.67844 266.129612 
L 393.046899 266.243372 
L 393.415359 266.024603 
L 393.783818 266.155865 
L 394.152277 266.094609 
L 394.889196 266.619655 
L 395.257655 266.567151 
L 395.626115 266.890929 
L 395.994574 266.680911 
L 397.099952 267.1272 
L 397.468412 267.249711 
L 398.20533 267.976025 
L 399.679168 267.267212 
L 400.416087 267.564738 
L 400.784546 267.914769 
L 401.153005 267.897268 
L 401.889924 267.232209 
L 402.258383 267.564738 
L 403.363761 267.704751 
L 403.732221 267.512234 
L 404.46914 267.713502 
L 405.942977 267.696 
L 406.311436 267.993526 
L 406.679896 267.906018 
L 407.416815 268.081034 
L 407.785274 268.553575 
L 408.153733 268.711089 
L 409.627571 268.334806 
L 409.99603 268.614831 
L 410.364489 268.667335 
L 410.732949 268.326055 
L 411.101408 268.247298 
L 411.469868 267.993526 
L 411.838327 268.116037 
L 412.575246 268.002277 
L 412.943705 268.186043 
L 414.049083 267.888517 
L 414.417543 268.028529 
L 415.154461 267.914769 
L 415.522921 267.748505 
L 415.89138 267.853514 
L 416.628299 267.678498 
L 417.365217 268.326055 
L 417.733677 268.361058 
L 418.102136 268.623582 
L 418.839055 268.186043 
L 419.207514 268.256049 
L 419.575974 268.194794 
L 419.944433 268.816098 
L 420.312892 269.087372 
L 420.681352 268.737342 
L 422.523649 268.299803 
L 422.892108 268.483569 
L 423.629027 268.03728 
L 423.997486 268.15104 
L 424.365945 268.124788 
L 424.365945 268.124788 
" clip-path="url(#p42f671aaa1)" style="fill: none; stroke: #000080; stroke-width: 1.5; stroke-linecap: square"/>
   </g>
   <g id="line2d_16">
    <path d="M 55.925 94.430769 
L 460.825 94.430769 
" clip-path="url(#p42f671aaa1)" style="fill: none; stroke-dasharray: 5.55,2.4; stroke-dashoffset: 0; stroke: #008000; stroke-width: 1.5"/>
   </g>
   <g id="patch_3">
    <path d="M 55.925 313.2 
L 55.925 28.8 
" style="fill: none; stroke: #000000; stroke-width: 0.8; stroke-linejoin: miter; stroke-linecap: square"/>
   </g>
   <g id="patch_4">
    <path d="M 460.825 313.2 
L 460.825 28.8 
" style="fill: none; stroke: #000000; stroke-width: 0.8; stroke-linejoin: miter; stroke-linecap: square"/>
   </g>
   <g id="patch_5">
    <path d="M 55.925 313.2 
L 460.825 313.2 
" style="fill: none; stroke: #000000; stroke-width: 0.8; stroke-linejoin: miter; stroke-linecap: square"/>
   </g>
   <g id="patch_6">
    <path d="M 55.925 28.8 
L 460.825 28.8 
" style="fill: none; stroke: #000000; stroke-width: 0.8; stroke-linejoin: miter; stroke-linecap: square"/>
   </g>
   <g id="text_16">
    <!-- gamma = 0.9284210526315789,lr = 0.01291549665014884 -->
    <g transform="translate(28.373437 22.8)scale(0.15 -0.15)">
     <defs>
      <path id="DejaVuSans-67" d="M 2906 1791 
Q 2906 2416 2648 2759 
Q 2391 3103 1925 3103 
Q 1463 3103 1205 2759 
Q 947 2416 947 1791 
Q 947 1169 1205 825 
Q 1463 481 1925 481 
Q 2391 481 2648 825 
Q 2906 1169 2906 1791 
z
M 3481 434 
Q 3481 -459 3084 -895 
Q 2688 -1331 1869 -1331 
Q 1566 -1331 1297 -1286 
Q 1028 -1241 775 -1147 
L 775 -588 
Q 1028 -725 1275 -790 
Q 1522 -856 1778 -856 
Q 2344 -856 2625 -561 
Q 2906 -266 2906 331 
L 2906 616 
Q 2728 306 2450 153 
Q 2172 0 1784 0 
Q 1141 0 747 490 
Q 353 981 353 1791 
Q 353 2603 747 3093 
Q 1141 3584 1784 3584 
Q 2172 3584 2450 3431 
Q 2728 3278 2906 2969 
L 2906 3500 
L 3481 3500 
L 3481 434 
z
" transform="scale(0.015625)"/>
      <path id="DejaVuSans-61" d="M 2194 1759 
Q 1497 1759 1228 1600 
Q 959 1441 959 1056 
Q 959 750 1161 570 
Q 1363 391 1709 391 
Q 2188 391 2477 730 
Q 2766 1069 2766 1631 
L 2766 1759 
L 2194 1759 
z
M 3341 1997 
L 3341 0 
L 2766 0 
L 2766 531 
Q 2569 213 2275 61 
Q 1981 -91 1556 -91 
Q 1019 -91 701 211 
Q 384 513 384 1019 
Q 384 1609 779 1909 
Q 1175 2209 1959 2209 
L 2766 2209 
L 2766 2266 
Q 2766 2663 2505 2880 
Q 2244 3097 1772 3097 
Q 1472 3097 1187 3025 
Q 903 2953 641 2809 
L 641 3341 
Q 956 3463 1253 3523 
Q 1550 3584 1831 3584 
Q 2591 3584 2966 3190 
Q 3341 2797 3341 1997 
z
" transform="scale(0.015625)"/>
      <path id="DejaVuSans-6d" d="M 3328 2828 
Q 3544 3216 3844 3400 
Q 4144 3584 4550 3584 
Q 5097 3584 5394 3201 
Q 5691 2819 5691 2113 
L 5691 0 
L 5113 0 
L 5113 2094 
Q 5113 2597 4934 2840 
Q 4756 3084 4391 3084 
Q 3944 3084 3684 2787 
Q 3425 2491 3425 1978 
L 3425 0 
L 2847 0 
L 2847 2094 
Q 2847 2600 2669 2842 
Q 2491 3084 2119 3084 
Q 1678 3084 1418 2786 
Q 1159 2488 1159 1978 
L 1159 0 
L 581 0 
L 581 3500 
L 1159 3500 
L 1159 2956 
Q 1356 3278 1631 3431 
Q 1906 3584 2284 3584 
Q 2666 3584 2933 3390 
Q 3200 3197 3328 2828 
z
" transform="scale(0.015625)"/>
      <path id="DejaVuSans-20" transform="scale(0.015625)"/>
      <path id="DejaVuSans-3d" d="M 678 2906 
L 4684 2906 
L 4684 2381 
L 678 2381 
L 678 2906 
z
M 678 1631 
L 4684 1631 
L 4684 1100 
L 678 1100 
L 678 1631 
z
" transform="scale(0.015625)"/>
      <path id="DejaVuSans-2e" d="M 684 794 
L 1344 794 
L 1344 0 
L 684 0 
L 684 794 
z
" transform="scale(0.015625)"/>
      <path id="DejaVuSans-39" d="M 703 97 
L 703 672 
Q 941 559 1184 500 
Q 1428 441 1663 441 
Q 2288 441 2617 861 
Q 2947 1281 2994 2138 
Q 2813 1869 2534 1725 
Q 2256 1581 1919 1581 
Q 1219 1581 811 2004 
Q 403 2428 403 3163 
Q 403 3881 828 4315 
Q 1253 4750 1959 4750 
Q 2769 4750 3195 4129 
Q 3622 3509 3622 2328 
Q 3622 1225 3098 567 
Q 2575 -91 1691 -91 
Q 1453 -91 1209 -44 
Q 966 3 703 97 
z
M 1959 2075 
Q 2384 2075 2632 2365 
Q 2881 2656 2881 3163 
Q 2881 3666 2632 3958 
Q 2384 4250 1959 4250 
Q 1534 4250 1286 3958 
Q 1038 3666 1038 3163 
Q 1038 2656 1286 2365 
Q 1534 2075 1959 2075 
z
" transform="scale(0.015625)"/>
      <path id="DejaVuSans-37" d="M 525 4666 
L 3525 4666 
L 3525 4397 
L 1831 0 
L 1172 0 
L 2766 4134 
L 525 4134 
L 525 4666 
z
" transform="scale(0.015625)"/>
      <path id="DejaVuSans-2c" d="M 750 794 
L 1409 794 
L 1409 256 
L 897 -744 
L 494 -744 
L 750 256 
L 750 794 
z
" transform="scale(0.015625)"/>
      <path id="DejaVuSans-6c" d="M 603 4863 
L 1178 4863 
L 1178 0 
L 603 0 
L 603 4863 
z
" transform="scale(0.015625)"/>
     </defs>
     <use xlink:href="#DejaVuSans-67"/>
     <use xlink:href="#DejaVuSans-61" x="63.476562"/>
     <use xlink:href="#DejaVuSans-6d" x="124.755859"/>
     <use xlink:href="#DejaVuSans-6d" x="222.167969"/>
     <use xlink:href="#DejaVuSans-61" x="319.580078"/>
     <use xlink:href="#DejaVuSans-20" x="380.859375"/>
     <use xlink:href="#DejaVuSans-3d" x="412.646484"/>
     <use xlink:href="#DejaVuSans-20" x="496.435547"/>
     <use xlink:href="#DejaVuSans-30" x="528.222656"/>
     <use xlink:href="#DejaVuSans-2e" x="591.845703"/>
     <use xlink:href="#DejaVuSans-39" x="623.632812"/>
     <use xlink:href="#DejaVuSans-32" x="687.255859"/>
     <use xlink:href="#DejaVuSans-38" x="750.878906"/>
     <use xlink:href="#DejaVuSans-34" x="814.501953"/>
     <use xlink:href="#DejaVuSans-32" x="878.125"/>
     <use xlink:href="#DejaVuSans-31" x="941.748047"/>
     <use xlink:href="#DejaVuSans-30" x="1005.371094"/>
     <use xlink:href="#DejaVuSans-35" x="1068.994141"/>
     <use xlink:href="#DejaVuSans-32" x="1132.617188"/>
     <use xlink:href="#DejaVuSans-36" x="1196.240234"/>
     <use xlink:href="#DejaVuSans-33" x="1259.863281"/>
     <use xlink:href="#DejaVuSans-31" x="1323.486328"/>
     <use xlink:href="#DejaVuSans-35" x="1387.109375"/>
     <use xlink:href="#DejaVuSans-37" x="1450.732422"/>
     <use xlink:href="#DejaVuSans-38" x="1514.355469"/>
     <use xlink:href="#DejaVuSans-39" x="1577.978516"/>
     <use xlink:href="#DejaVuSans-2c" x="1641.601562"/>
     <use xlink:href="#DejaVuSans-6c" x="1673.388672"/>
     <use xlink:href="#DejaVuSans-72" x="1701.171875"/>
     <use xlink:href="#DejaVuSans-20" x="1742.285156"/>
     <use xlink:href="#DejaVuSans-3d" x="1774.072266"/>
     <use xlink:href="#DejaVuSans-20" x="1857.861328"/>
     <use xlink:href="#DejaVuSans-30" x="1889.648438"/>
     <use xlink:href="#DejaVuSans-2e" x="1953.271484"/>
     <use xlink:href="#DejaVuSans-30" x="1985.058594"/>
     <use xlink:href="#DejaVuSans-31" x="2048.681641"/>
     <use xlink:href="#DejaVuSans-32" x="2112.304688"/>
     <use xlink:href="#DejaVuSans-39" x="2175.927734"/>
     <use xlink:href="#DejaVuSans-31" x="2239.550781"/>
     <use xlink:href="#DejaVuSans-35" x="2303.173828"/>
     <use xlink:href="#DejaVuSans-34" x="2366.796875"/>
     <use xlink:href="#DejaVuSans-39" x="2430.419922"/>
     <use xlink:href="#DejaVuSans-36" x="2494.042969"/>
     <use xlink:href="#DejaVuSans-36" x="2557.666016"/>
     <use xlink:href="#DejaVuSans-35" x="2621.289062"/>
     <use xlink:href="#DejaVuSans-30" x="2684.912109"/>
     <use xlink:href="#DejaVuSans-31" x="2748.535156"/>
     <use xlink:href="#DejaVuSans-34" x="2812.158203"/>
     <use xlink:href="#DejaVuSans-38" x="2875.78125"/>
     <use xlink:href="#DejaVuSans-38" x="2939.404297"/>
     <use xlink:href="#DejaVuSans-34" x="3003.027344"/>
    </g>
   </g>
   <g id="legend_1">
    <g id="patch_7">
     <path d="M 293.50625 80.834375 
L 453.825 80.834375 
Q 455.825 80.834375 455.825 78.834375 
L 455.825 35.8 
Q 455.825 33.8 453.825 33.8 
L 293.50625 33.8 
Q 291.50625 33.8 291.50625 35.8 
L 291.50625 78.834375 
Q 291.50625 80.834375 293.50625 80.834375 
z
" style="fill: #ffffff; opacity: 0.8; stroke: #cccccc; stroke-linejoin: miter"/>
    </g>
    <g id="line2d_17">
     <path d="M 295.50625 41.898438 
L 305.50625 41.898438 
L 315.50625 41.898438 
" style="fill: none; stroke: #708090; stroke-width: 1.5; stroke-linecap: square"/>
    </g>
    <g id="text_17">
     <!-- Episodes score -->
     <g transform="translate(323.50625 45.398438)scale(0.1 -0.1)">
      <use xlink:href="#DejaVuSans-45"/>
      <use xlink:href="#DejaVuSans-70" x="63.183594"/>
      <use xlink:href="#DejaVuSans-69" x="126.660156"/>
      <use xlink:href="#DejaVuSans-73" x="154.443359"/>
      <use xlink:href="#DejaVuSans-6f" x="206.542969"/>
      <use xlink:href="#DejaVuSans-64" x="267.724609"/>
      <use xlink:href="#DejaVuSans-65" x="331.201172"/>
      <use xlink:href="#DejaVuSans-73" x="392.724609"/>
      <use xlink:href="#DejaVuSans-20" x="444.824219"/>
      <use xlink:href="#DejaVuSans-73" x="476.611328"/>
      <use xlink:href="#DejaVuSans-63" x="528.710938"/>
      <use xlink:href="#DejaVuSans-6f" x="583.691406"/>
      <use xlink:href="#DejaVuSans-72" x="644.873047"/>
      <use xlink:href="#DejaVuSans-65" x="683.736328"/>
     </g>
    </g>
    <g id="line2d_18">
     <path d="M 295.50625 56.576563 
L 305.50625 56.576563 
L 315.50625 56.576563 
" style="fill: none; stroke: #000080; stroke-width: 1.5; stroke-linecap: square"/>
    </g>
    <g id="text_18">
     <!-- Moving average of scores -->
     <g transform="translate(323.50625 60.076563)scale(0.1 -0.1)">
      <defs>
       <path id="DejaVuSans-4d" d="M 628 4666 
L 1569 4666 
L 2759 1491 
L 3956 4666 
L 4897 4666 
L 4897 0 
L 4281 0 
L 4281 4097 
L 3078 897 
L 2444 897 
L 1241 4097 
L 1241 0 
L 628 0 
L 628 4666 
z
" transform="scale(0.015625)"/>
       <path id="DejaVuSans-76" d="M 191 3500 
L 800 3500 
L 1894 563 
L 2988 3500 
L 3597 3500 
L 2284 0 
L 1503 0 
L 191 3500 
z
" transform="scale(0.015625)"/>
       <path id="DejaVuSans-6e" d="M 3513 2113 
L 3513 0 
L 2938 0 
L 2938 2094 
Q 2938 2591 2744 2837 
Q 2550 3084 2163 3084 
Q 1697 3084 1428 2787 
Q 1159 2491 1159 1978 
L 1159 0 
L 581 0 
L 581 3500 
L 1159 3500 
L 1159 2956 
Q 1366 3272 1645 3428 
Q 1925 3584 2291 3584 
Q 2894 3584 3203 3211 
Q 3513 2838 3513 2113 
z
" transform="scale(0.015625)"/>
       <path id="DejaVuSans-66" d="M 2375 4863 
L 2375 4384 
L 1825 4384 
Q 1516 4384 1395 4259 
Q 1275 4134 1275 3809 
L 1275 3500 
L 2222 3500 
L 2222 3053 
L 1275 3053 
L 1275 0 
L 697 0 
L 697 3053 
L 147 3053 
L 147 3500 
L 697 3500 
L 697 3744 
Q 697 4328 969 4595 
Q 1241 4863 1831 4863 
L 2375 4863 
z
" transform="scale(0.015625)"/>
      </defs>
      <use xlink:href="#DejaVuSans-4d"/>
      <use xlink:href="#DejaVuSans-6f" x="86.279297"/>
      <use xlink:href="#DejaVuSans-76" x="147.460938"/>
      <use xlink:href="#DejaVuSans-69" x="206.640625"/>
      <use xlink:href="#DejaVuSans-6e" x="234.423828"/>
      <use xlink:href="#DejaVuSans-67" x="297.802734"/>
      <use xlink:href="#DejaVuSans-20" x="361.279297"/>
      <use xlink:href="#DejaVuSans-61" x="393.066406"/>
      <use xlink:href="#DejaVuSans-76" x="454.345703"/>
      <use xlink:href="#DejaVuSans-65" x="513.525391"/>
      <use xlink:href="#DejaVuSans-72" x="575.048828"/>
      <use xlink:href="#DejaVuSans-61" x="616.162109"/>
      <use xlink:href="#DejaVuSans-67" x="677.441406"/>
      <use xlink:href="#DejaVuSans-65" x="740.917969"/>
      <use xlink:href="#DejaVuSans-20" x="802.441406"/>
      <use xlink:href="#DejaVuSans-6f" x="834.228516"/>
      <use xlink:href="#DejaVuSans-66" x="895.410156"/>
      <use xlink:href="#DejaVuSans-20" x="930.615234"/>
      <use xlink:href="#DejaVuSans-73" x="962.402344"/>
      <use xlink:href="#DejaVuSans-63" x="1014.501953"/>
      <use xlink:href="#DejaVuSans-6f" x="1069.482422"/>
      <use xlink:href="#DejaVuSans-72" x="1130.664062"/>
      <use xlink:href="#DejaVuSans-65" x="1169.527344"/>
      <use xlink:href="#DejaVuSans-73" x="1231.050781"/>
     </g>
    </g>
    <g id="line2d_19">
     <path d="M 295.50625 71.254687 
L 305.50625 71.254687 
L 315.50625 71.254687 
" style="fill: none; stroke-dasharray: 5.55,2.4; stroke-dashoffset: 0; stroke: #008000; stroke-width: 1.5"/>
    </g>
    <g id="text_19">
     <!-- Game Solved -->
     <g transform="translate(323.50625 74.754687)scale(0.1 -0.1)">
      <defs>
       <path id="DejaVuSans-47" d="M 3809 666 
L 3809 1919 
L 2778 1919 
L 2778 2438 
L 4434 2438 
L 4434 434 
Q 4069 175 3628 42 
Q 3188 -91 2688 -91 
Q 1594 -91 976 548 
Q 359 1188 359 2328 
Q 359 3472 976 4111 
Q 1594 4750 2688 4750 
Q 3144 4750 3555 4637 
Q 3966 4525 4313 4306 
L 4313 3634 
Q 3963 3931 3569 4081 
Q 3175 4231 2741 4231 
Q 1884 4231 1454 3753 
Q 1025 3275 1025 2328 
Q 1025 1384 1454 906 
Q 1884 428 2741 428 
Q 3075 428 3337 486 
Q 3600 544 3809 666 
z
" transform="scale(0.015625)"/>
      </defs>
      <use xlink:href="#DejaVuSans-47"/>
      <use xlink:href="#DejaVuSans-61" x="77.490234"/>
      <use xlink:href="#DejaVuSans-6d" x="138.769531"/>
      <use xlink:href="#DejaVuSans-65" x="236.181641"/>
      <use xlink:href="#DejaVuSans-20" x="297.705078"/>
      <use xlink:href="#DejaVuSans-53" x="329.492188"/>
      <use xlink:href="#DejaVuSans-6f" x="392.96875"/>
      <use xlink:href="#DejaVuSans-6c" x="454.150391"/>
      <use xlink:href="#DejaVuSans-76" x="481.933594"/>
      <use xlink:href="#DejaVuSans-65" x="541.113281"/>
      <use xlink:href="#DejaVuSans-64" x="602.636719"/>
     </g>
    </g>
   </g>
  </g>
  <g id="axes_2">
   <g id="matplotlib.axis_3">
    <g id="ytick_8">
     <g id="line2d_20">
      <defs>
       <path id="mfc2606e5ee" d="M 0 0 
L 3.5 0 
" style="stroke: #000000; stroke-width: 0.8"/>
      </defs>
      <g>
       <use xlink:href="#mfc2606e5ee" x="460.825" y="300.356157" style="stroke: #000000; stroke-width: 0.8"/>
      </g>
     </g>
     <g id="text_20">
      <!-- 0 -->
      <g transform="translate(467.825 304.155376)scale(0.1 -0.1)">
       <use xlink:href="#DejaVuSans-30"/>
      </g>
     </g>
    </g>
    <g id="ytick_9">
     <g id="line2d_21">
      <g>
       <use xlink:href="#mfc2606e5ee" x="460.825" y="248.63038" style="stroke: #000000; stroke-width: 0.8"/>
      </g>
     </g>
     <g id="text_21">
      <!-- 1 -->
      <g transform="translate(467.825 252.429599)scale(0.1 -0.1)">
       <use xlink:href="#DejaVuSans-31"/>
      </g>
     </g>
    </g>
    <g id="ytick_10">
     <g id="line2d_22">
      <g>
       <use xlink:href="#mfc2606e5ee" x="460.825" y="196.904603" style="stroke: #000000; stroke-width: 0.8"/>
      </g>
     </g>
     <g id="text_22">
      <!-- 2 -->
      <g transform="translate(467.825 200.703822)scale(0.1 -0.1)">
       <use xlink:href="#DejaVuSans-32"/>
      </g>
     </g>
    </g>
    <g id="ytick_11">
     <g id="line2d_23">
      <g>
       <use xlink:href="#mfc2606e5ee" x="460.825" y="145.178827" style="stroke: #000000; stroke-width: 0.8"/>
      </g>
     </g>
     <g id="text_23">
      <!-- 3 -->
      <g transform="translate(467.825 148.978045)scale(0.1 -0.1)">
       <use xlink:href="#DejaVuSans-33"/>
      </g>
     </g>
    </g>
    <g id="ytick_12">
     <g id="line2d_24">
      <g>
       <use xlink:href="#mfc2606e5ee" x="460.825" y="93.45305" style="stroke: #000000; stroke-width: 0.8"/>
      </g>
     </g>
     <g id="text_24">
      <!-- 4 -->
      <g transform="translate(467.825 97.252268)scale(0.1 -0.1)">
       <use xlink:href="#DejaVuSans-34"/>
      </g>
     </g>
    </g>
    <g id="ytick_13">
     <g id="line2d_25">
      <g>
       <use xlink:href="#mfc2606e5ee" x="460.825" y="41.727273" style="stroke: #000000; stroke-width: 0.8"/>
      </g>
     </g>
     <g id="text_25">
      <!-- 5 -->
      <g transform="translate(467.825 45.526491)scale(0.1 -0.1)">
       <use xlink:href="#DejaVuSans-35"/>
      </g>
     </g>
    </g>
    <g id="text_26">
     <!-- Temperature -->
     <g transform="translate(489.585156 218.504297)rotate(-90)scale(0.15 -0.15)">
      <defs>
       <path id="DejaVuSans-54" d="M -19 4666 
L 3928 4666 
L 3928 4134 
L 2272 4134 
L 2272 0 
L 1638 0 
L 1638 4134 
L -19 4134 
L -19 4666 
z
" transform="scale(0.015625)"/>
       <path id="DejaVuSans-74" d="M 1172 4494 
L 1172 3500 
L 2356 3500 
L 2356 3053 
L 1172 3053 
L 1172 1153 
Q 1172 725 1289 603 
Q 1406 481 1766 481 
L 2356 481 
L 2356 0 
L 1766 0 
Q 1100 0 847 248 
Q 594 497 594 1153 
L 594 3053 
L 172 3053 
L 172 3500 
L 594 3500 
L 594 4494 
L 1172 4494 
z
" transform="scale(0.015625)"/>
       <path id="DejaVuSans-75" d="M 544 1381 
L 544 3500 
L 1119 3500 
L 1119 1403 
Q 1119 906 1312 657 
Q 1506 409 1894 409 
Q 2359 409 2629 706 
Q 2900 1003 2900 1516 
L 2900 3500 
L 3475 3500 
L 3475 0 
L 2900 0 
L 2900 538 
Q 2691 219 2414 64 
Q 2138 -91 1772 -91 
Q 1169 -91 856 284 
Q 544 659 544 1381 
z
M 1991 3584 
L 1991 3584 
z
" transform="scale(0.015625)"/>
      </defs>
      <use xlink:href="#DejaVuSans-54"/>
      <use xlink:href="#DejaVuSans-65" x="44.083984"/>
      <use xlink:href="#DejaVuSans-6d" x="105.607422"/>
      <use xlink:href="#DejaVuSans-70" x="203.019531"/>
      <use xlink:href="#DejaVuSans-65" x="266.496094"/>
      <use xlink:href="#DejaVuSans-72" x="328.019531"/>
      <use xlink:href="#DejaVuSans-61" x="369.132812"/>
      <use xlink:href="#DejaVuSans-74" x="430.412109"/>
      <use xlink:href="#DejaVuSans-75" x="469.621094"/>
      <use xlink:href="#DejaVuSans-72" x="533"/>
      <use xlink:href="#DejaVuSans-65" x="571.863281"/>
     </g>
    </g>
   </g>
   <g id="line2d_26">
    <path d="M 74.329545 41.727273 
L 77.64568 59.796179 
L 80.961814 76.602714 
L 84.277948 92.235075 
L 87.594083 106.775292 
L 90.910217 120.299669 
L 94.226351 132.879175 
L 97.542486 144.579825 
L 100.85862 155.463017 
L 104.174754 165.585863 
L 107.490889 175.001485 
L 110.807023 183.759292 
L 114.123157 191.905241 
L 117.439292 199.48208 
L 120.755426 206.529569 
L 124.07156 213.084691 
L 127.387695 219.181844 
L 130.703829 224.853024 
L 134.019963 230.127992 
L 137.704557 235.557975 
L 141.389151 240.568116 
L 145.073744 245.190878 
L 148.758338 249.456211 
L 152.442932 253.391752 
L 156.127525 257.023001 
L 160.180578 260.693942 
L 164.233631 264.053901 
L 168.286684 267.129223 
L 172.339737 269.944021 
L 176.76125 272.743467 
L 181.182762 275.285223 
L 185.972734 277.775454 
L 190.762706 280.018336 
L 195.921137 282.185254 
L 201.448028 284.251415 
L 206.974918 286.082639 
L 212.870268 287.807033 
L 219.134077 289.41153 
L 225.766346 290.887385 
L 233.135533 292.295013 
L 240.87318 293.548388 
L 249.347745 294.698674 
L 258.927689 295.766744 
L 269.613011 296.721977 
L 281.403711 297.547031 
L 295.036707 298.270409 
L 310.88046 298.880507 
L 330.040347 299.385086 
L 353.990206 299.780603 
L 385.677712 300.068067 
L 432.840511 300.253311 
L 442.420455 300.272727 
L 442.420455 300.272727 
" clip-path="url(#p42f671aaa1)" style="fill: none; stroke: #ff0000; stroke-width: 1.5; stroke-linecap: square"/>
   </g>
   <g id="patch_8">
    <path d="M 55.925 313.2 
L 55.925 28.8 
" style="fill: none; stroke: #000000; stroke-width: 0.8; stroke-linejoin: miter; stroke-linecap: square"/>
   </g>
   <g id="patch_9">
    <path d="M 460.825 313.2 
L 460.825 28.8 
" style="fill: none; stroke: #000000; stroke-width: 0.8; stroke-linejoin: miter; stroke-linecap: square"/>
   </g>
   <g id="patch_10">
    <path d="M 55.925 313.2 
L 460.825 313.2 
" style="fill: none; stroke: #000000; stroke-width: 0.8; stroke-linejoin: miter; stroke-linecap: square"/>
   </g>
   <g id="patch_11">
    <path d="M 55.925 28.8 
L 460.825 28.8 
" style="fill: none; stroke: #000000; stroke-width: 0.8; stroke-linejoin: miter; stroke-linecap: square"/>
   </g>
   <g id="legend_2">
    <g id="patch_12">
     <path d="M 62.925 51.478125 
L 158.264063 51.478125 
Q 160.264063 51.478125 160.264063 49.478125 
L 160.264063 35.8 
Q 160.264063 33.8 158.264063 33.8 
L 62.925 33.8 
Q 60.925 33.8 60.925 35.8 
L 60.925 49.478125 
Q 60.925 51.478125 62.925 51.478125 
z
" style="fill: #ffffff; opacity: 0.8; stroke: #cccccc; stroke-linejoin: miter"/>
    </g>
    <g id="line2d_27">
     <path d="M 64.925 41.898438 
L 74.925 41.898438 
L 84.925 41.898438 
" style="fill: none; stroke: #ff0000; stroke-width: 1.5; stroke-linecap: square"/>
    </g>
    <g id="text_27">
     <!-- Temperature -->
     <g transform="translate(92.925 45.398438)scale(0.1 -0.1)">
      <use xlink:href="#DejaVuSans-54"/>
      <use xlink:href="#DejaVuSans-65" x="44.083984"/>
      <use xlink:href="#DejaVuSans-6d" x="105.607422"/>
      <use xlink:href="#DejaVuSans-70" x="203.019531"/>
      <use xlink:href="#DejaVuSans-65" x="266.496094"/>
      <use xlink:href="#DejaVuSans-72" x="328.019531"/>
      <use xlink:href="#DejaVuSans-61" x="369.132812"/>
      <use xlink:href="#DejaVuSans-74" x="430.412109"/>
      <use xlink:href="#DejaVuSans-75" x="469.621094"/>
      <use xlink:href="#DejaVuSans-72" x="533"/>
      <use xlink:href="#DejaVuSans-65" x="571.863281"/>
     </g>
    </g>
   </g>
  </g>
 </g>
 <defs>
  <clipPath id="p42f671aaa1">
   <rect x="55.925" y="28.8" width="404.9" height="284.4"/>
  </clipPath>
 </defs>
</svg>
