<?xml version="1.0" encoding="utf-8" standalone="no"?>
<!DOCTYPE svg PUBLIC "-//W3C//DTD SVG 1.1//EN"
  "http://www.w3.org/Graphics/SVG/1.1/DTD/svg11.dtd">
<svg xmlns:xlink="http://www.w3.org/1999/xlink" width="504pt" height="360pt" viewBox="0 0 504 360" xmlns="http://www.w3.org/2000/svg" version="1.1">
 <metadata>
  <rdf:RDF xmlns:dc="http://purl.org/dc/elements/1.1/" xmlns:cc="http://creativecommons.org/ns#" xmlns:rdf="http://www.w3.org/1999/02/22-rdf-syntax-ns#">
   <cc:Work>
    <dc:type rdf:resource="http://purl.org/dc/dcmitype/StillImage"/>
    <dc:date>2022-07-28T20:50:48.040835</dc:date>
    <dc:format>image/svg+xml</dc:format>
    <dc:creator>
     <cc:Agent>
      <dc:title>Matplotlib v3.5.1, https://matplotlib.org/</dc:title>
     </cc:Agent>
    </dc:creator>
   </cc:Work>
  </rdf:RDF>
 </metadata>
 <defs>
  <style type="text/css">*{stroke-linejoin: round; stroke-linecap: butt}</style>
 </defs>
 <g id="figure_1">
  <g id="patch_1">
   <path d="M 0 360 
L 504 360 
L 504 0 
L 0 0 
L 0 360 
z
" style="fill: none"/>
  </g>
  <g id="axes_1">
   <g id="patch_2">
    <path d="M 55.925 313.2 
L 460.825 313.2 
L 460.825 28.8 
L 55.925 28.8 
z
" style="fill: #ffffff"/>
   </g>
   <g id="matplotlib.axis_1">
    <g id="xtick_1">
     <g id="line2d_1">
      <defs>
       <path id="m12961ee2c6" d="M 0 0 
L 0 3.5 
" style="stroke: #000000; stroke-width: 0.8"/>
      </defs>
      <g>
       <use xlink:href="#m12961ee2c6" x="74.329545" y="313.2" style="stroke: #000000; stroke-width: 0.8"/>
      </g>
     </g>
     <g id="text_1">
      <!-- 0 -->
      <g transform="translate(71.148295 327.798437)scale(0.1 -0.1)">
       <defs>
        <path id="DejaVuSans-30" d="M 2034 4250 
Q 1547 4250 1301 3770 
Q 1056 3291 1056 2328 
Q 1056 1369 1301 889 
Q 1547 409 2034 409 
Q 2525 409 2770 889 
Q 3016 1369 3016 2328 
Q 3016 3291 2770 3770 
Q 2525 4250 2034 4250 
z
M 2034 4750 
Q 2819 4750 3233 4129 
Q 3647 3509 3647 2328 
Q 3647 1150 3233 529 
Q 2819 -91 2034 -91 
Q 1250 -91 836 529 
Q 422 1150 422 2328 
Q 422 3509 836 4129 
Q 1250 4750 2034 4750 
z
" transform="scale(0.015625)"/>
       </defs>
       <use xlink:href="#DejaVuSans-30"/>
      </g>
     </g>
    </g>
    <g id="xtick_2">
     <g id="line2d_2">
      <g>
       <use xlink:href="#m12961ee2c6" x="148.021419" y="313.2" style="stroke: #000000; stroke-width: 0.8"/>
      </g>
     </g>
     <g id="text_2">
      <!-- 200 -->
      <g transform="translate(138.477669 327.798437)scale(0.1 -0.1)">
       <defs>
        <path id="DejaVuSans-32" d="M 1228 531 
L 3431 531 
L 3431 0 
L 469 0 
L 469 531 
Q 828 903 1448 1529 
Q 2069 2156 2228 2338 
Q 2531 2678 2651 2914 
Q 2772 3150 2772 3378 
Q 2772 3750 2511 3984 
Q 2250 4219 1831 4219 
Q 1534 4219 1204 4116 
Q 875 4013 500 3803 
L 500 4441 
Q 881 4594 1212 4672 
Q 1544 4750 1819 4750 
Q 2544 4750 2975 4387 
Q 3406 4025 3406 3419 
Q 3406 3131 3298 2873 
Q 3191 2616 2906 2266 
Q 2828 2175 2409 1742 
Q 1991 1309 1228 531 
z
" transform="scale(0.015625)"/>
       </defs>
       <use xlink:href="#DejaVuSans-32"/>
       <use xlink:href="#DejaVuSans-30" x="63.623047"/>
       <use xlink:href="#DejaVuSans-30" x="127.246094"/>
      </g>
     </g>
    </g>
    <g id="xtick_3">
     <g id="line2d_3">
      <g>
       <use xlink:href="#m12961ee2c6" x="221.713293" y="313.2" style="stroke: #000000; stroke-width: 0.8"/>
      </g>
     </g>
     <g id="text_3">
      <!-- 400 -->
      <g transform="translate(212.169543 327.798437)scale(0.1 -0.1)">
       <defs>
        <path id="DejaVuSans-34" d="M 2419 4116 
L 825 1625 
L 2419 1625 
L 2419 4116 
z
M 2253 4666 
L 3047 4666 
L 3047 1625 
L 3713 1625 
L 3713 1100 
L 3047 1100 
L 3047 0 
L 2419 0 
L 2419 1100 
L 313 1100 
L 313 1709 
L 2253 4666 
z
" transform="scale(0.015625)"/>
       </defs>
       <use xlink:href="#DejaVuSans-34"/>
       <use xlink:href="#DejaVuSans-30" x="63.623047"/>
       <use xlink:href="#DejaVuSans-30" x="127.246094"/>
      </g>
     </g>
    </g>
    <g id="xtick_4">
     <g id="line2d_4">
      <g>
       <use xlink:href="#m12961ee2c6" x="295.405167" y="313.2" style="stroke: #000000; stroke-width: 0.8"/>
      </g>
     </g>
     <g id="text_4">
      <!-- 600 -->
      <g transform="translate(285.861417 327.798437)scale(0.1 -0.1)">
       <defs>
        <path id="DejaVuSans-36" d="M 2113 2584 
Q 1688 2584 1439 2293 
Q 1191 2003 1191 1497 
Q 1191 994 1439 701 
Q 1688 409 2113 409 
Q 2538 409 2786 701 
Q 3034 994 3034 1497 
Q 3034 2003 2786 2293 
Q 2538 2584 2113 2584 
z
M 3366 4563 
L 3366 3988 
Q 3128 4100 2886 4159 
Q 2644 4219 2406 4219 
Q 1781 4219 1451 3797 
Q 1122 3375 1075 2522 
Q 1259 2794 1537 2939 
Q 1816 3084 2150 3084 
Q 2853 3084 3261 2657 
Q 3669 2231 3669 1497 
Q 3669 778 3244 343 
Q 2819 -91 2113 -91 
Q 1303 -91 875 529 
Q 447 1150 447 2328 
Q 447 3434 972 4092 
Q 1497 4750 2381 4750 
Q 2619 4750 2861 4703 
Q 3103 4656 3366 4563 
z
" transform="scale(0.015625)"/>
       </defs>
       <use xlink:href="#DejaVuSans-36"/>
       <use xlink:href="#DejaVuSans-30" x="63.623047"/>
       <use xlink:href="#DejaVuSans-30" x="127.246094"/>
      </g>
     </g>
    </g>
    <g id="xtick_5">
     <g id="line2d_5">
      <g>
       <use xlink:href="#m12961ee2c6" x="369.09704" y="313.2" style="stroke: #000000; stroke-width: 0.8"/>
      </g>
     </g>
     <g id="text_5">
      <!-- 800 -->
      <g transform="translate(359.55329 327.798437)scale(0.1 -0.1)">
       <defs>
        <path id="DejaVuSans-38" d="M 2034 2216 
Q 1584 2216 1326 1975 
Q 1069 1734 1069 1313 
Q 1069 891 1326 650 
Q 1584 409 2034 409 
Q 2484 409 2743 651 
Q 3003 894 3003 1313 
Q 3003 1734 2745 1975 
Q 2488 2216 2034 2216 
z
M 1403 2484 
Q 997 2584 770 2862 
Q 544 3141 544 3541 
Q 544 4100 942 4425 
Q 1341 4750 2034 4750 
Q 2731 4750 3128 4425 
Q 3525 4100 3525 3541 
Q 3525 3141 3298 2862 
Q 3072 2584 2669 2484 
Q 3125 2378 3379 2068 
Q 3634 1759 3634 1313 
Q 3634 634 3220 271 
Q 2806 -91 2034 -91 
Q 1263 -91 848 271 
Q 434 634 434 1313 
Q 434 1759 690 2068 
Q 947 2378 1403 2484 
z
M 1172 3481 
Q 1172 3119 1398 2916 
Q 1625 2713 2034 2713 
Q 2441 2713 2670 2916 
Q 2900 3119 2900 3481 
Q 2900 3844 2670 4047 
Q 2441 4250 2034 4250 
Q 1625 4250 1398 4047 
Q 1172 3844 1172 3481 
z
" transform="scale(0.015625)"/>
       </defs>
       <use xlink:href="#DejaVuSans-38"/>
       <use xlink:href="#DejaVuSans-30" x="63.623047"/>
       <use xlink:href="#DejaVuSans-30" x="127.246094"/>
      </g>
     </g>
    </g>
    <g id="xtick_6">
     <g id="line2d_6">
      <g>
       <use xlink:href="#m12961ee2c6" x="442.788914" y="313.2" style="stroke: #000000; stroke-width: 0.8"/>
      </g>
     </g>
     <g id="text_6">
      <!-- 1000 -->
      <g transform="translate(430.063914 327.798437)scale(0.1 -0.1)">
       <defs>
        <path id="DejaVuSans-31" d="M 794 531 
L 1825 531 
L 1825 4091 
L 703 3866 
L 703 4441 
L 1819 4666 
L 2450 4666 
L 2450 531 
L 3481 531 
L 3481 0 
L 794 0 
L 794 531 
z
" transform="scale(0.015625)"/>
       </defs>
       <use xlink:href="#DejaVuSans-31"/>
       <use xlink:href="#DejaVuSans-30" x="63.623047"/>
       <use xlink:href="#DejaVuSans-30" x="127.246094"/>
       <use xlink:href="#DejaVuSans-30" x="190.869141"/>
      </g>
     </g>
    </g>
    <g id="text_7">
     <!-- Episode -->
     <g transform="translate(228.91875 345.275781)scale(0.15 -0.15)">
      <defs>
       <path id="DejaVuSans-45" d="M 628 4666 
L 3578 4666 
L 3578 4134 
L 1259 4134 
L 1259 2753 
L 3481 2753 
L 3481 2222 
L 1259 2222 
L 1259 531 
L 3634 531 
L 3634 0 
L 628 0 
L 628 4666 
z
" transform="scale(0.015625)"/>
       <path id="DejaVuSans-70" d="M 1159 525 
L 1159 -1331 
L 581 -1331 
L 581 3500 
L 1159 3500 
L 1159 2969 
Q 1341 3281 1617 3432 
Q 1894 3584 2278 3584 
Q 2916 3584 3314 3078 
Q 3713 2572 3713 1747 
Q 3713 922 3314 415 
Q 2916 -91 2278 -91 
Q 1894 -91 1617 61 
Q 1341 213 1159 525 
z
M 3116 1747 
Q 3116 2381 2855 2742 
Q 2594 3103 2138 3103 
Q 1681 3103 1420 2742 
Q 1159 2381 1159 1747 
Q 1159 1113 1420 752 
Q 1681 391 2138 391 
Q 2594 391 2855 752 
Q 3116 1113 3116 1747 
z
" transform="scale(0.015625)"/>
       <path id="DejaVuSans-69" d="M 603 3500 
L 1178 3500 
L 1178 0 
L 603 0 
L 603 3500 
z
M 603 4863 
L 1178 4863 
L 1178 4134 
L 603 4134 
L 603 4863 
z
" transform="scale(0.015625)"/>
       <path id="DejaVuSans-73" d="M 2834 3397 
L 2834 2853 
Q 2591 2978 2328 3040 
Q 2066 3103 1784 3103 
Q 1356 3103 1142 2972 
Q 928 2841 928 2578 
Q 928 2378 1081 2264 
Q 1234 2150 1697 2047 
L 1894 2003 
Q 2506 1872 2764 1633 
Q 3022 1394 3022 966 
Q 3022 478 2636 193 
Q 2250 -91 1575 -91 
Q 1294 -91 989 -36 
Q 684 19 347 128 
L 347 722 
Q 666 556 975 473 
Q 1284 391 1588 391 
Q 1994 391 2212 530 
Q 2431 669 2431 922 
Q 2431 1156 2273 1281 
Q 2116 1406 1581 1522 
L 1381 1569 
Q 847 1681 609 1914 
Q 372 2147 372 2553 
Q 372 3047 722 3315 
Q 1072 3584 1716 3584 
Q 2034 3584 2315 3537 
Q 2597 3491 2834 3397 
z
" transform="scale(0.015625)"/>
       <path id="DejaVuSans-6f" d="M 1959 3097 
Q 1497 3097 1228 2736 
Q 959 2375 959 1747 
Q 959 1119 1226 758 
Q 1494 397 1959 397 
Q 2419 397 2687 759 
Q 2956 1122 2956 1747 
Q 2956 2369 2687 2733 
Q 2419 3097 1959 3097 
z
M 1959 3584 
Q 2709 3584 3137 3096 
Q 3566 2609 3566 1747 
Q 3566 888 3137 398 
Q 2709 -91 1959 -91 
Q 1206 -91 779 398 
Q 353 888 353 1747 
Q 353 2609 779 3096 
Q 1206 3584 1959 3584 
z
" transform="scale(0.015625)"/>
       <path id="DejaVuSans-64" d="M 2906 2969 
L 2906 4863 
L 3481 4863 
L 3481 0 
L 2906 0 
L 2906 525 
Q 2725 213 2448 61 
Q 2172 -91 1784 -91 
Q 1150 -91 751 415 
Q 353 922 353 1747 
Q 353 2572 751 3078 
Q 1150 3584 1784 3584 
Q 2172 3584 2448 3432 
Q 2725 3281 2906 2969 
z
M 947 1747 
Q 947 1113 1208 752 
Q 1469 391 1925 391 
Q 2381 391 2643 752 
Q 2906 1113 2906 1747 
Q 2906 2381 2643 2742 
Q 2381 3103 1925 3103 
Q 1469 3103 1208 2742 
Q 947 2381 947 1747 
z
" transform="scale(0.015625)"/>
       <path id="DejaVuSans-65" d="M 3597 1894 
L 3597 1613 
L 953 1613 
Q 991 1019 1311 708 
Q 1631 397 2203 397 
Q 2534 397 2845 478 
Q 3156 559 3463 722 
L 3463 178 
Q 3153 47 2828 -22 
Q 2503 -91 2169 -91 
Q 1331 -91 842 396 
Q 353 884 353 1716 
Q 353 2575 817 3079 
Q 1281 3584 2069 3584 
Q 2775 3584 3186 3129 
Q 3597 2675 3597 1894 
z
M 3022 2063 
Q 3016 2534 2758 2815 
Q 2500 3097 2075 3097 
Q 1594 3097 1305 2825 
Q 1016 2553 972 2059 
L 3022 2063 
z
" transform="scale(0.015625)"/>
      </defs>
      <use xlink:href="#DejaVuSans-45"/>
      <use xlink:href="#DejaVuSans-70" x="63.183594"/>
      <use xlink:href="#DejaVuSans-69" x="126.660156"/>
      <use xlink:href="#DejaVuSans-73" x="154.443359"/>
      <use xlink:href="#DejaVuSans-6f" x="206.542969"/>
      <use xlink:href="#DejaVuSans-64" x="267.724609"/>
      <use xlink:href="#DejaVuSans-65" x="331.201172"/>
     </g>
    </g>
   </g>
   <g id="matplotlib.axis_2">
    <g id="ytick_1">
     <g id="line2d_7">
      <defs>
       <path id="m8c3f2f2313" d="M 0 0 
L -3.5 0 
" style="stroke: #000000; stroke-width: 0.8"/>
      </defs>
      <g>
       <use xlink:href="#m8c3f2f2313" x="55.925" y="313.2" style="stroke: #000000; stroke-width: 0.8"/>
      </g>
     </g>
     <g id="text_8">
      <!-- 0 -->
      <g transform="translate(42.5625 316.999219)scale(0.1 -0.1)">
       <use xlink:href="#DejaVuSans-30"/>
      </g>
     </g>
    </g>
    <g id="ytick_2">
     <g id="line2d_8">
      <g>
       <use xlink:href="#m8c3f2f2313" x="55.925" y="269.446154" style="stroke: #000000; stroke-width: 0.8"/>
      </g>
     </g>
     <g id="text_9">
      <!-- 100 -->
      <g transform="translate(29.8375 273.245373)scale(0.1 -0.1)">
       <use xlink:href="#DejaVuSans-31"/>
       <use xlink:href="#DejaVuSans-30" x="63.623047"/>
       <use xlink:href="#DejaVuSans-30" x="127.246094"/>
      </g>
     </g>
    </g>
    <g id="ytick_3">
     <g id="line2d_9">
      <g>
       <use xlink:href="#m8c3f2f2313" x="55.925" y="225.692308" style="stroke: #000000; stroke-width: 0.8"/>
      </g>
     </g>
     <g id="text_10">
      <!-- 200 -->
      <g transform="translate(29.8375 229.491526)scale(0.1 -0.1)">
       <use xlink:href="#DejaVuSans-32"/>
       <use xlink:href="#DejaVuSans-30" x="63.623047"/>
       <use xlink:href="#DejaVuSans-30" x="127.246094"/>
      </g>
     </g>
    </g>
    <g id="ytick_4">
     <g id="line2d_10">
      <g>
       <use xlink:href="#m8c3f2f2313" x="55.925" y="181.938462" style="stroke: #000000; stroke-width: 0.8"/>
      </g>
     </g>
     <g id="text_11">
      <!-- 300 -->
      <g transform="translate(29.8375 185.73768)scale(0.1 -0.1)">
       <defs>
        <path id="DejaVuSans-33" d="M 2597 2516 
Q 3050 2419 3304 2112 
Q 3559 1806 3559 1356 
Q 3559 666 3084 287 
Q 2609 -91 1734 -91 
Q 1441 -91 1130 -33 
Q 819 25 488 141 
L 488 750 
Q 750 597 1062 519 
Q 1375 441 1716 441 
Q 2309 441 2620 675 
Q 2931 909 2931 1356 
Q 2931 1769 2642 2001 
Q 2353 2234 1838 2234 
L 1294 2234 
L 1294 2753 
L 1863 2753 
Q 2328 2753 2575 2939 
Q 2822 3125 2822 3475 
Q 2822 3834 2567 4026 
Q 2313 4219 1838 4219 
Q 1578 4219 1281 4162 
Q 984 4106 628 3988 
L 628 4550 
Q 988 4650 1302 4700 
Q 1616 4750 1894 4750 
Q 2613 4750 3031 4423 
Q 3450 4097 3450 3541 
Q 3450 3153 3228 2886 
Q 3006 2619 2597 2516 
z
" transform="scale(0.015625)"/>
       </defs>
       <use xlink:href="#DejaVuSans-33"/>
       <use xlink:href="#DejaVuSans-30" x="63.623047"/>
       <use xlink:href="#DejaVuSans-30" x="127.246094"/>
      </g>
     </g>
    </g>
    <g id="ytick_5">
     <g id="line2d_11">
      <g>
       <use xlink:href="#m8c3f2f2313" x="55.925" y="138.184615" style="stroke: #000000; stroke-width: 0.8"/>
      </g>
     </g>
     <g id="text_12">
      <!-- 400 -->
      <g transform="translate(29.8375 141.983834)scale(0.1 -0.1)">
       <use xlink:href="#DejaVuSans-34"/>
       <use xlink:href="#DejaVuSans-30" x="63.623047"/>
       <use xlink:href="#DejaVuSans-30" x="127.246094"/>
      </g>
     </g>
    </g>
    <g id="ytick_6">
     <g id="line2d_12">
      <g>
       <use xlink:href="#m8c3f2f2313" x="55.925" y="94.430769" style="stroke: #000000; stroke-width: 0.8"/>
      </g>
     </g>
     <g id="text_13">
      <!-- 500 -->
      <g transform="translate(29.8375 98.229988)scale(0.1 -0.1)">
       <defs>
        <path id="DejaVuSans-35" d="M 691 4666 
L 3169 4666 
L 3169 4134 
L 1269 4134 
L 1269 2991 
Q 1406 3038 1543 3061 
Q 1681 3084 1819 3084 
Q 2600 3084 3056 2656 
Q 3513 2228 3513 1497 
Q 3513 744 3044 326 
Q 2575 -91 1722 -91 
Q 1428 -91 1123 -41 
Q 819 9 494 109 
L 494 744 
Q 775 591 1075 516 
Q 1375 441 1709 441 
Q 2250 441 2565 725 
Q 2881 1009 2881 1497 
Q 2881 1984 2565 2268 
Q 2250 2553 1709 2553 
Q 1456 2553 1204 2497 
Q 953 2441 691 2322 
L 691 4666 
z
" transform="scale(0.015625)"/>
       </defs>
       <use xlink:href="#DejaVuSans-35"/>
       <use xlink:href="#DejaVuSans-30" x="63.623047"/>
       <use xlink:href="#DejaVuSans-30" x="127.246094"/>
      </g>
     </g>
    </g>
    <g id="ytick_7">
     <g id="line2d_13">
      <g>
       <use xlink:href="#m8c3f2f2313" x="55.925" y="50.676923" style="stroke: #000000; stroke-width: 0.8"/>
      </g>
     </g>
     <g id="text_14">
      <!-- 600 -->
      <g transform="translate(29.8375 54.476142)scale(0.1 -0.1)">
       <use xlink:href="#DejaVuSans-36"/>
       <use xlink:href="#DejaVuSans-30" x="63.623047"/>
       <use xlink:href="#DejaVuSans-30" x="127.246094"/>
      </g>
     </g>
    </g>
    <g id="text_15">
     <!-- Score -->
     <g transform="translate(22.717969 192.003516)rotate(-90)scale(0.15 -0.15)">
      <defs>
       <path id="DejaVuSans-53" d="M 3425 4513 
L 3425 3897 
Q 3066 4069 2747 4153 
Q 2428 4238 2131 4238 
Q 1616 4238 1336 4038 
Q 1056 3838 1056 3469 
Q 1056 3159 1242 3001 
Q 1428 2844 1947 2747 
L 2328 2669 
Q 3034 2534 3370 2195 
Q 3706 1856 3706 1288 
Q 3706 609 3251 259 
Q 2797 -91 1919 -91 
Q 1588 -91 1214 -16 
Q 841 59 441 206 
L 441 856 
Q 825 641 1194 531 
Q 1563 422 1919 422 
Q 2459 422 2753 634 
Q 3047 847 3047 1241 
Q 3047 1584 2836 1778 
Q 2625 1972 2144 2069 
L 1759 2144 
Q 1053 2284 737 2584 
Q 422 2884 422 3419 
Q 422 4038 858 4394 
Q 1294 4750 2059 4750 
Q 2388 4750 2728 4690 
Q 3069 4631 3425 4513 
z
" transform="scale(0.015625)"/>
       <path id="DejaVuSans-63" d="M 3122 3366 
L 3122 2828 
Q 2878 2963 2633 3030 
Q 2388 3097 2138 3097 
Q 1578 3097 1268 2742 
Q 959 2388 959 1747 
Q 959 1106 1268 751 
Q 1578 397 2138 397 
Q 2388 397 2633 464 
Q 2878 531 3122 666 
L 3122 134 
Q 2881 22 2623 -34 
Q 2366 -91 2075 -91 
Q 1284 -91 818 406 
Q 353 903 353 1747 
Q 353 2603 823 3093 
Q 1294 3584 2113 3584 
Q 2378 3584 2631 3529 
Q 2884 3475 3122 3366 
z
" transform="scale(0.015625)"/>
       <path id="DejaVuSans-72" d="M 2631 2963 
Q 2534 3019 2420 3045 
Q 2306 3072 2169 3072 
Q 1681 3072 1420 2755 
Q 1159 2438 1159 1844 
L 1159 0 
L 581 0 
L 581 3500 
L 1159 3500 
L 1159 2956 
Q 1341 3275 1631 3429 
Q 1922 3584 2338 3584 
Q 2397 3584 2469 3576 
Q 2541 3569 2628 3553 
L 2631 2963 
z
" transform="scale(0.015625)"/>
      </defs>
      <use xlink:href="#DejaVuSans-53"/>
      <use xlink:href="#DejaVuSans-63" x="63.476562"/>
      <use xlink:href="#DejaVuSans-6f" x="118.457031"/>
      <use xlink:href="#DejaVuSans-72" x="179.638672"/>
      <use xlink:href="#DejaVuSans-65" x="218.501953"/>
     </g>
    </g>
   </g>
   <g id="line2d_14">
    <path d="M 74.329545 307.949538 
L 74.698005 304.449231 
L 75.066464 298.323692 
L 75.434924 299.636308 
L 75.803383 306.636923 
L 76.171842 307.949538 
L 76.540302 307.512 
L 76.908761 306.199385 
L 77.27722 302.261538 
L 77.64568 303.136615 
L 78.014139 271.196308 
L 78.382599 303.136615 
L 78.751058 305.324308 
L 79.119517 299.198769 
L 79.487977 306.199385 
L 79.856436 298.323692 
L 80.224895 307.512 
L 80.593355 288.697846 
L 80.961814 303.136615 
L 81.330273 307.512 
L 81.698733 306.199385 
L 82.067192 305.324308 
L 82.435652 305.761846 
L 82.804111 306.636923 
L 83.17257 300.511385 
L 83.54103 307.949538 
L 83.909489 305.324308 
L 84.277948 307.512 
L 84.646408 307.949538 
L 85.014867 306.199385 
L 85.383327 307.074462 
L 85.751786 309.262154 
L 86.120245 307.949538 
L 86.488705 296.573538 
L 86.857164 279.072 
L 87.225623 296.573538 
L 87.594083 308.387077 
L 87.962542 295.260923 
L 88.331001 304.011692 
L 88.699461 302.699077 
L 89.06792 304.886769 
L 89.43638 304.011692 
L 89.804839 298.761231 
L 90.173298 305.324308 
L 90.541758 308.824615 
L 90.910217 307.512 
L 91.278676 309.262154 
L 91.647136 307.512 
L 92.015595 304.011692 
L 92.384055 290.885538 
L 92.752514 303.136615 
L 93.120973 307.074462 
L 93.489433 297.886154 
L 94.226351 309.262154 
L 94.594811 306.199385 
L 94.96327 306.636923 
L 95.331729 306.199385 
L 95.700189 301.386462 
L 96.068648 305.761846 
L 96.805567 308.824615 
L 97.174026 304.011692 
L 97.542486 308.824615 
L 98.279404 298.761231 
L 98.647864 306.636923 
L 99.016323 296.573538 
L 99.384783 307.512 
L 99.753242 307.949538 
L 100.121701 304.886769 
L 100.85862 301.824 
L 101.227079 308.387077 
L 101.595539 302.261538 
L 101.963998 302.699077 
L 102.332457 302.699077 
L 102.700917 300.073846 
L 103.069376 307.074462 
L 103.437836 293.073231 
L 103.806295 308.387077 
L 104.174754 300.073846 
L 104.543214 307.949538 
L 104.911673 293.948308 
L 105.280132 307.949538 
L 105.648592 307.074462 
L 106.017051 304.011692 
L 106.385511 303.574154 
L 106.75397 295.698462 
L 107.490889 308.824615 
L 107.859348 295.698462 
L 108.596267 305.324308 
L 108.964726 303.574154 
L 109.333185 304.886769 
L 109.701645 308.824615 
L 110.070104 307.512 
L 110.438564 308.387077 
L 110.807023 290.885538 
L 111.175482 303.574154 
L 111.543942 289.572923 
L 111.912401 305.761846 
L 112.28086 297.011077 
L 112.64932 297.448615 
L 113.017779 299.198769 
L 113.386239 303.136615 
L 113.754698 296.573538 
L 114.491617 306.636923 
L 114.860076 297.448615 
L 115.228535 308.824615 
L 115.596995 307.074462 
L 115.965454 307.074462 
L 116.333913 303.136615 
L 116.702373 303.574154 
L 117.070832 306.636923 
L 117.439292 307.074462 
L 117.807751 290.010462 
L 118.17621 307.074462 
L 118.54467 300.073846 
L 118.913129 299.198769 
L 119.650048 308.387077 
L 120.018507 297.886154 
L 120.386967 305.761846 
L 120.755426 302.699077 
L 121.123885 290.448 
L 121.492345 308.387077 
L 121.860804 307.949538 
L 122.229263 302.699077 
L 122.597723 307.949538 
L 122.966182 302.699077 
L 123.334641 304.886769 
L 123.703101 305.761846 
L 124.07156 303.574154 
L 124.44002 307.074462 
L 124.808479 307.512 
L 125.176938 308.387077 
L 125.545398 299.636308 
L 125.913857 304.449231 
L 126.282316 305.324308 
L 126.650776 303.574154 
L 127.019235 303.136615 
L 127.387695 300.511385 
L 127.756154 307.512 
L 128.124613 307.512 
L 128.493073 301.386462 
L 128.861532 304.886769 
L 129.229991 305.324308 
L 129.598451 306.636923 
L 129.96691 300.511385 
L 130.335369 308.387077 
L 130.703829 290.010462 
L 131.072288 302.261538 
L 131.440748 299.198769 
L 131.809207 307.512 
L 132.546126 303.136615 
L 132.914585 304.011692 
L 133.283044 309.262154 
L 133.651504 304.886769 
L 134.019963 298.323692 
L 134.388423 302.699077 
L 134.756882 299.198769 
L 135.125341 297.448615 
L 135.493801 301.386462 
L 135.86226 306.636923 
L 136.230719 307.512 
L 136.599179 306.636923 
L 136.967638 307.512 
L 137.336097 307.512 
L 137.704557 305.324308 
L 138.073016 298.323692 
L 138.441476 301.824 
L 138.809935 290.885538 
L 139.178394 300.511385 
L 139.546854 306.636923 
L 139.915313 307.512 
L 140.283772 307.074462 
L 140.652232 305.324308 
L 141.020691 306.636923 
L 141.389151 307.512 
L 141.75761 302.261538 
L 142.126069 307.949538 
L 142.494529 301.386462 
L 142.862988 304.011692 
L 143.231447 300.511385 
L 143.599907 307.512 
L 143.968366 268.571077 
L 144.336825 304.886769 
L 144.705285 307.512 
L 145.073744 294.823385 
L 145.442204 306.199385 
L 145.810663 299.636308 
L 146.179122 279.509538 
L 146.547582 298.323692 
L 147.2845 307.949538 
L 147.65296 304.886769 
L 148.021419 305.761846 
L 148.389879 302.261538 
L 148.758338 304.449231 
L 149.126797 307.512 
L 149.495257 306.199385 
L 149.863716 307.512 
L 150.600635 300.073846 
L 150.969094 299.198769 
L 151.337553 304.886769 
L 151.706013 299.636308 
L 152.074472 288.260308 
L 152.442932 307.512 
L 152.811391 307.512 
L 153.17985 301.824 
L 153.54831 302.261538 
L 153.916769 303.136615 
L 154.285228 292.198154 
L 154.653688 304.011692 
L 155.022147 307.074462 
L 155.390607 306.199385 
L 155.759066 285.197538 
L 156.127525 305.324308 
L 156.495985 301.386462 
L 156.864444 307.949538 
L 157.232903 308.387077 
L 157.601363 292.198154 
L 157.969822 301.386462 
L 158.338281 302.261538 
L 158.706741 282.134769 
L 159.0752 292.198154 
L 159.44366 307.074462 
L 159.812119 305.324308 
L 160.180578 293.073231 
L 160.549038 302.261538 
L 160.917497 304.011692 
L 161.285956 298.761231 
L 161.654416 303.574154 
L 162.022875 300.948923 
L 162.391335 296.573538 
L 162.759794 290.448 
L 163.128253 280.822154 
L 163.865172 293.510769 
L 164.233631 305.324308 
L 164.602091 302.261538 
L 164.97055 304.011692 
L 165.339009 304.449231 
L 165.707469 287.822769 
L 166.075928 284.76 
L 166.444388 302.261538 
L 166.812847 304.011692 
L 167.181306 304.011692 
L 167.549766 301.824 
L 167.918225 305.324308 
L 168.286684 288.260308 
L 168.655144 300.948923 
L 169.023603 286.072615 
L 169.392063 307.512 
L 169.760522 288.260308 
L 170.128981 294.385846 
L 170.497441 284.322462 
L 170.8659 304.011692 
L 171.234359 305.761846 
L 171.602819 306.636923 
L 171.971278 303.574154 
L 172.339737 307.512 
L 173.076656 296.573538 
L 173.445116 295.698462 
L 173.813575 302.699077 
L 174.182034 305.761846 
L 174.550494 280.822154 
L 174.918953 299.636308 
L 175.287412 302.699077 
L 175.655872 308.824615 
L 176.024331 301.824 
L 176.392791 304.449231 
L 176.76125 294.823385 
L 177.129709 296.136 
L 177.498169 278.196923 
L 177.866628 298.761231 
L 178.235087 281.259692 
L 178.603547 279.072 
L 178.972006 285.635077 
L 179.340465 289.572923 
L 179.708925 301.386462 
L 180.077384 290.885538 
L 180.445844 297.011077 
L 180.814303 294.385846 
L 181.182762 285.197538 
L 181.551222 307.512 
L 182.28814 279.509538 
L 182.6566 300.511385 
L 183.025059 297.886154 
L 183.393519 265.945846 
L 183.761978 285.197538 
L 184.130437 286.947692 
L 184.498897 293.948308 
L 184.867356 307.949538 
L 185.235815 292.198154 
L 185.604275 300.073846 
L 185.972734 287.385231 
L 186.341193 291.323077 
L 186.709653 297.011077 
L 187.446572 289.135385 
L 187.815031 289.135385 
L 188.18349 303.136615 
L 188.920409 250.632 
L 189.288868 258.507692 
L 189.657328 298.761231 
L 190.025787 299.198769 
L 190.394247 301.386462 
L 191.131165 280.384615 
L 191.499625 282.134769 
L 191.868084 293.948308 
L 192.236543 301.824 
L 192.605003 298.323692 
L 192.973462 301.824 
L 193.341921 296.136 
L 193.710381 300.511385 
L 194.07884 293.948308 
L 194.4473 302.261538 
L 194.815759 300.073846 
L 195.184218 285.635077 
L 195.552678 299.198769 
L 195.921137 283.009846 
L 196.289596 306.199385 
L 197.026515 293.948308 
L 197.394975 278.634462 
L 197.763434 274.696615 
L 198.131893 300.511385 
L 198.500353 305.324308 
L 198.868812 269.446154 
L 199.237271 296.573538 
L 199.605731 297.886154 
L 199.97419 296.573538 
L 200.342649 259.820308 
L 200.711109 297.011077 
L 201.079568 297.011077 
L 201.448028 284.76 
L 201.816487 297.011077 
L 202.184946 295.260923 
L 202.553406 289.572923 
L 202.921865 305.324308 
L 203.290324 279.947077 
L 203.658784 277.759385 
L 204.027243 299.636308 
L 204.395703 279.072 
L 204.764162 303.136615 
L 205.501081 275.571692 
L 205.86954 286.510154 
L 206.237999 304.011692 
L 206.606459 284.322462 
L 206.974918 300.073846 
L 207.343377 300.073846 
L 207.711837 272.071385 
L 208.080296 291.323077 
L 208.448756 302.699077 
L 208.817215 299.198769 
L 209.185674 279.072 
L 209.554134 292.635692 
L 209.922593 281.259692 
L 210.291052 305.761846 
L 210.659512 294.385846 
L 211.027971 301.824 
L 211.396431 303.136615 
L 211.76489 293.073231 
L 212.133349 275.571692 
L 212.501809 301.824 
L 212.870268 284.76 
L 213.238727 306.199385 
L 213.607187 298.323692 
L 213.975646 299.636308 
L 214.344105 276.884308 
L 214.712565 293.948308 
L 215.081024 295.698462 
L 215.449484 293.948308 
L 215.817943 298.323692 
L 216.186402 298.761231 
L 216.554862 294.823385 
L 216.923321 292.635692 
L 217.29178 300.948923 
L 217.66024 265.945846 
L 218.028699 282.134769 
L 218.397159 283.884923 
L 218.765618 295.698462 
L 219.502537 288.697846 
L 219.870996 298.761231 
L 220.239455 303.136615 
L 220.607915 286.947692 
L 220.976374 289.135385 
L 221.344833 300.948923 
L 221.713293 301.386462 
L 222.081752 276.009231 
L 222.450212 304.011692 
L 223.18713 281.697231 
L 223.55559 295.698462 
L 223.924049 251.944615 
L 224.292508 294.385846 
L 224.660968 305.324308 
L 225.029427 300.948923 
L 225.397887 253.257231 
L 225.766346 288.697846 
L 226.134805 289.135385 
L 226.503265 292.635692 
L 226.871724 287.822769 
L 227.240183 292.635692 
L 227.608643 272.946462 
L 227.977102 292.198154 
L 228.345561 281.259692 
L 228.714021 286.947692 
L 229.08248 279.072 
L 229.45094 295.260923 
L 229.819399 299.636308 
L 230.187858 289.135385 
L 230.556318 296.136 
L 230.924777 275.134154 
L 231.293236 275.571692 
L 231.661696 278.634462 
L 232.030155 291.323077 
L 232.398615 295.698462 
L 232.767074 293.948308 
L 233.135533 289.572923 
L 233.503993 297.011077 
L 233.872452 298.761231 
L 234.240911 270.321231 
L 234.97783 292.198154 
L 235.346289 282.134769 
L 236.083208 283.009846 
L 236.451668 267.258462 
L 236.820127 303.136615 
L 237.188586 191.564308 
L 237.557046 297.886154 
L 237.925505 296.573538 
L 238.293964 290.885538 
L 238.662424 258.507692 
L 239.030883 292.635692 
L 239.399343 294.385846 
L 239.767802 300.073846 
L 240.136261 281.697231 
L 240.504721 288.260308 
L 240.87318 290.448 
L 241.241639 284.322462 
L 241.610099 294.385846 
L 241.978558 291.323077 
L 242.347017 291.760615 
L 242.715477 281.259692 
L 243.083936 290.010462 
L 243.452396 250.632 
L 243.820855 300.948923 
L 244.189314 279.072 
L 244.557774 294.385846 
L 244.926233 282.134769 
L 245.294692 283.884923 
L 245.663152 296.136 
L 246.031611 277.321846 
L 246.400071 270.758769 
L 246.76853 289.572923 
L 247.136989 293.510769 
L 247.505449 293.510769 
L 247.873908 296.573538 
L 248.242367 297.886154 
L 248.610827 284.322462 
L 248.979286 283.884923 
L 249.347745 279.947077 
L 249.716205 279.509538 
L 250.084664 297.886154 
L 250.453124 292.198154 
L 250.821583 291.323077 
L 251.190042 297.011077 
L 251.558502 296.136 
L 251.926961 283.009846 
L 252.29542 290.885538 
L 252.66388 285.197538 
L 253.032339 243.631385 
L 253.400799 280.822154 
L 253.769258 299.198769 
L 254.506177 287.385231 
L 254.874636 292.635692 
L 255.243095 294.823385 
L 255.611555 291.323077 
L 255.980014 282.572308 
L 256.348473 293.948308 
L 256.716933 286.510154 
L 257.085392 301.824 
L 257.453852 295.698462 
L 257.822311 294.823385 
L 258.19077 287.385231 
L 258.55923 237.068308 
L 258.927689 299.198769 
L 259.296148 294.823385 
L 259.664608 281.697231 
L 260.033067 285.635077 
L 260.401527 300.073846 
L 260.769986 296.573538 
L 261.138445 296.136 
L 261.506905 291.760615 
L 261.875364 299.636308 
L 262.243823 280.822154 
L 262.612283 286.510154 
L 262.980742 287.822769 
L 263.349201 300.073846 
L 263.717661 260.695385 
L 264.08612 300.073846 
L 264.45458 298.323692 
L 264.823039 279.947077 
L 265.191498 295.698462 
L 265.559958 279.509538 
L 265.928417 290.885538 
L 266.296876 272.946462 
L 266.665336 300.073846 
L 267.033795 287.822769 
L 267.402255 291.760615 
L 267.770714 292.198154 
L 268.139173 298.323692 
L 268.507633 296.573538 
L 268.876092 297.011077 
L 269.244551 297.011077 
L 269.613011 296.573538 
L 269.98147 290.448 
L 270.349929 298.761231 
L 270.718389 296.136 
L 271.086848 301.386462 
L 271.455308 290.885538 
L 271.823767 294.823385 
L 272.192226 294.385846 
L 272.560686 294.385846 
L 272.929145 278.634462 
L 273.297604 290.885538 
L 273.666064 297.886154 
L 274.034523 286.947692 
L 274.402983 289.135385 
L 274.771442 297.886154 
L 275.139901 302.699077 
L 275.508361 297.011077 
L 275.87682 300.948923 
L 276.245279 273.384 
L 276.613739 293.948308 
L 277.350657 298.761231 
L 277.719117 296.573538 
L 278.087576 258.945231 
L 278.456036 291.323077 
L 278.824495 296.573538 
L 279.192954 290.885538 
L 279.561414 298.323692 
L 279.929873 297.011077 
L 280.298332 269.446154 
L 280.666792 300.073846 
L 281.035251 288.697846 
L 281.403711 302.261538 
L 281.77217 287.385231 
L 282.140629 299.198769 
L 282.509089 300.948923 
L 282.877548 263.758154 
L 283.246007 292.198154 
L 283.614467 299.198769 
L 283.982926 292.198154 
L 284.351385 290.448 
L 284.719845 298.323692 
L 285.088304 290.010462 
L 285.456764 300.511385 
L 286.193682 282.134769 
L 286.562142 300.073846 
L 286.930601 296.136 
L 287.29906 289.572923 
L 287.66752 297.011077 
L 288.035979 298.323692 
L 288.404439 293.948308 
L 288.772898 282.572308 
L 289.141357 276.446769 
L 289.509817 297.886154 
L 290.246735 286.947692 
L 290.615195 287.822769 
L 290.983654 299.636308 
L 291.352113 288.697846 
L 291.720573 297.886154 
L 292.089032 299.198769 
L 292.457492 302.699077 
L 293.931329 292.198154 
L 294.299788 286.510154 
L 294.668248 296.573538 
L 295.036707 301.824 
L 295.405167 262.008 
L 295.773626 297.011077 
L 296.142085 292.198154 
L 296.510545 298.323692 
L 296.879004 297.011077 
L 297.247463 295.260923 
L 297.615923 284.76 
L 297.984382 288.697846 
L 298.352841 282.572308 
L 298.721301 302.699077 
L 299.08976 290.448 
L 299.826679 299.636308 
L 300.563598 274.696615 
L 300.932057 293.948308 
L 301.300516 290.448 
L 301.668976 298.323692 
L 302.037435 303.136615 
L 302.405895 295.698462 
L 302.774354 300.073846 
L 303.142813 295.698462 
L 303.511273 286.510154 
L 303.879732 295.698462 
L 304.248191 300.948923 
L 304.616651 291.760615 
L 305.722029 301.386462 
L 306.090488 296.573538 
L 306.458948 296.136 
L 306.827407 292.198154 
L 307.195866 299.198769 
L 307.564326 295.698462 
L 307.932785 288.697846 
L 308.301244 289.572923 
L 308.669704 281.697231 
L 309.038163 286.072615 
L 309.406623 298.323692 
L 309.775082 294.385846 
L 310.143541 292.635692 
L 310.512001 292.198154 
L 310.88046 295.698462 
L 311.248919 286.072615 
L 311.617379 294.823385 
L 311.985838 300.073846 
L 312.722757 289.135385 
L 313.091216 299.636308 
L 313.459676 284.76 
L 313.828135 286.947692 
L 314.196594 291.323077 
L 314.565054 299.636308 
L 314.933513 282.572308 
L 315.301972 286.947692 
L 316.038891 298.761231 
L 316.407351 299.198769 
L 316.77581 301.386462 
L 317.144269 301.824 
L 317.512729 293.510769 
L 317.881188 302.261538 
L 318.249647 287.385231 
L 318.618107 295.698462 
L 318.986566 282.134769 
L 319.355025 288.697846 
L 319.723485 289.572923 
L 320.091944 281.259692 
L 320.460404 286.072615 
L 320.828863 301.824 
L 321.197322 297.448615 
L 321.565782 296.136 
L 321.934241 290.448 
L 322.3027 301.824 
L 322.67116 293.948308 
L 323.039619 300.073846 
L 323.408079 295.260923 
L 324.144997 300.948923 
L 324.513457 288.260308 
L 325.250375 295.698462 
L 325.618835 297.011077 
L 325.987294 297.448615 
L 326.355753 298.761231 
L 326.724213 300.511385 
L 327.092672 292.198154 
L 327.461132 299.636308 
L 327.829591 293.948308 
L 328.19805 292.635692 
L 328.56651 298.323692 
L 328.934969 290.010462 
L 329.303428 279.072 
L 329.671888 284.76 
L 330.040347 299.198769 
L 330.408807 301.824 
L 330.777266 289.572923 
L 331.145725 289.135385 
L 331.514185 295.260923 
L 331.882644 251.069538 
L 332.251103 290.448 
L 332.619563 296.573538 
L 332.988022 300.511385 
L 333.356481 291.760615 
L 333.724941 298.323692 
L 334.0934 299.636308 
L 334.46186 296.573538 
L 334.830319 295.698462 
L 335.567238 300.511385 
L 335.935697 300.948923 
L 336.304156 286.510154 
L 336.672616 299.198769 
L 337.409535 300.948923 
L 337.777994 290.885538 
L 338.146453 289.572923 
L 338.514913 300.948923 
L 338.883372 298.323692 
L 339.251831 301.824 
L 339.620291 300.511385 
L 339.98875 293.510769 
L 340.357209 299.198769 
L 340.725669 290.010462 
L 341.094128 297.448615 
L 341.462588 284.322462 
L 341.831047 296.136 
L 342.199506 299.198769 
L 342.567966 298.323692 
L 342.936425 294.823385 
L 343.304884 294.385846 
L 343.673344 291.760615 
L 344.041803 300.073846 
L 344.410263 300.948923 
L 344.778722 292.198154 
L 345.147181 287.822769 
L 345.515641 289.572923 
L 345.8841 292.635692 
L 346.252559 298.323692 
L 346.621019 297.448615 
L 346.989478 300.948923 
L 347.357937 302.261538 
L 347.726397 289.572923 
L 348.094856 293.948308 
L 348.463316 296.573538 
L 348.831775 300.073846 
L 349.200234 285.197538 
L 349.937153 290.448 
L 350.305612 300.511385 
L 350.674072 295.260923 
L 351.042531 299.198769 
L 351.410991 298.761231 
L 351.77945 283.447385 
L 352.147909 296.573538 
L 352.516369 297.448615 
L 352.884828 295.698462 
L 353.253287 299.636308 
L 353.621747 276.884308 
L 353.990206 300.948923 
L 354.358665 289.572923 
L 354.727125 300.073846 
L 355.095584 298.323692 
L 355.464044 295.698462 
L 355.832503 299.198769 
L 356.200962 297.886154 
L 356.937881 300.511385 
L 357.30634 297.011077 
L 358.043259 301.386462 
L 358.411719 300.948923 
L 358.780178 299.636308 
L 359.148637 288.260308 
L 359.517097 273.384 
L 359.885556 296.136 
L 360.622475 300.948923 
L 361.359393 280.822154 
L 361.727853 277.759385 
L 362.096312 269.008615 
L 362.464772 290.010462 
L 362.833231 302.261538 
L 363.20169 293.948308 
L 363.57015 297.448615 
L 363.938609 298.323692 
L 364.307068 299.636308 
L 364.675528 287.385231 
L 365.043987 300.073846 
L 365.412447 290.885538 
L 365.780906 296.573538 
L 366.149365 297.448615 
L 366.517825 297.011077 
L 366.886284 297.448615 
L 367.254743 296.573538 
L 367.623203 299.198769 
L 367.991662 291.323077 
L 368.360121 293.510769 
L 368.728581 297.448615 
L 369.09704 297.011077 
L 369.4655 298.323692 
L 369.833959 283.884923 
L 370.570878 298.323692 
L 370.939337 296.573538 
L 371.307796 286.072615 
L 371.676256 290.448 
L 372.044715 282.572308 
L 372.413175 297.886154 
L 372.781634 285.635077 
L 373.150093 298.761231 
L 373.518553 297.886154 
L 373.887012 279.947077 
L 374.255471 280.384615 
L 374.623931 276.446769 
L 374.99239 297.886154 
L 375.360849 298.323692 
L 375.729309 301.824 
L 376.097768 300.948923 
L 376.466228 298.323692 
L 376.834687 298.761231 
L 377.203146 298.761231 
L 377.571606 297.886154 
L 377.940065 298.761231 
L 378.308524 298.323692 
L 378.676984 290.448 
L 379.045443 290.448 
L 379.782362 302.699077 
L 380.150821 298.761231 
L 380.519281 299.198769 
L 380.88774 297.448615 
L 381.256199 293.073231 
L 382.361577 299.198769 
L 383.098496 291.323077 
L 383.466956 272.946462 
L 384.203874 298.323692 
L 384.940793 297.448615 
L 385.309252 287.822769 
L 385.677712 284.322462 
L 386.414631 297.448615 
L 386.78309 285.197538 
L 387.151549 300.511385 
L 387.520009 294.823385 
L 387.888468 299.198769 
L 388.256927 287.385231 
L 388.625387 292.198154 
L 388.993846 286.072615 
L 389.730765 293.073231 
L 390.099224 300.073846 
L 390.467684 290.448 
L 390.836143 286.510154 
L 391.204602 297.448615 
L 391.573062 287.822769 
L 391.941521 299.636308 
L 392.30998 286.947692 
L 392.67844 298.323692 
L 393.046899 297.448615 
L 393.415359 273.821538 
L 393.783818 290.885538 
L 394.152277 301.824 
L 394.520737 286.947692 
L 394.889196 300.511385 
L 395.257655 295.698462 
L 395.626115 300.511385 
L 395.994574 297.448615 
L 396.363033 297.886154 
L 397.099952 293.948308 
L 397.468412 294.385846 
L 397.836871 289.572923 
L 398.20533 282.572308 
L 398.57379 278.196923 
L 398.942249 294.823385 
L 399.310708 300.948923 
L 399.679168 290.448 
L 400.416087 281.697231 
L 400.784546 300.073846 
L 401.153005 298.323692 
L 401.521465 297.448615 
L 401.889924 297.886154 
L 402.258383 288.697846 
L 402.626843 300.948923 
L 402.995302 295.698462 
L 403.363761 302.261538 
L 403.732221 288.697846 
L 404.10068 301.824 
L 404.46914 299.198769 
L 404.837599 297.448615 
L 405.206058 300.948923 
L 405.574518 299.636308 
L 405.942977 300.073846 
L 406.311436 302.261538 
L 406.679896 292.198154 
L 407.048355 301.824 
L 407.416815 301.824 
L 407.785274 298.323692 
L 408.153733 298.761231 
L 408.522193 300.073846 
L 408.890652 272.071385 
L 409.259111 299.198769 
L 409.627571 301.824 
L 410.364489 282.572308 
L 410.732949 298.323692 
L 411.101408 291.323077 
L 411.469868 298.761231 
L 411.838327 301.824 
L 412.206786 288.697846 
L 412.575246 293.510769 
L 412.943705 300.948923 
L 413.312164 300.073846 
L 413.680624 301.386462 
L 414.049083 297.448615 
L 414.417543 286.072615 
L 414.786002 298.323692 
L 415.154461 295.260923 
L 415.522921 299.198769 
L 415.89138 300.948923 
L 416.259839 296.136 
L 416.628299 293.073231 
L 417.365217 271.196308 
L 417.733677 295.260923 
L 418.102136 290.448 
L 418.839055 295.260923 
L 419.207514 299.198769 
L 419.575974 299.636308 
L 419.944433 292.198154 
L 420.312892 299.198769 
L 420.681352 294.823385 
L 421.049811 301.386462 
L 421.418271 290.885538 
L 422.155189 300.948923 
L 422.523649 296.573538 
L 422.892108 285.635077 
L 423.260567 300.948923 
L 423.629027 277.321846 
L 423.997486 297.886154 
L 424.365945 279.509538 
L 424.734405 293.948308 
L 425.102864 297.448615 
L 425.471324 298.323692 
L 425.839783 297.886154 
L 426.208242 300.511385 
L 426.576702 279.947077 
L 426.945161 298.323692 
L 427.31362 299.198769 
L 427.68208 271.196308 
L 428.050539 300.948923 
L 428.787458 285.635077 
L 429.155917 300.948923 
L 429.524377 301.824 
L 429.892836 301.386462 
L 430.261295 300.511385 
L 430.629755 300.511385 
L 430.998214 301.386462 
L 431.366673 292.635692 
L 431.735133 300.948923 
L 432.103592 277.759385 
L 432.472052 297.448615 
L 432.840511 295.260923 
L 433.20897 299.198769 
L 433.57743 276.446769 
L 433.945889 270.758769 
L 434.314348 297.011077 
L 434.682808 293.510769 
L 435.051267 295.698462 
L 435.419727 295.260923 
L 435.788186 288.697846 
L 436.156645 300.948923 
L 436.525105 293.948308 
L 436.893564 300.948923 
L 437.998942 292.198154 
L 438.367401 300.511385 
L 438.735861 298.323692 
L 439.10432 285.635077 
L 439.47278 294.823385 
L 439.841239 289.572923 
L 440.209698 272.946462 
L 440.578158 279.072 
L 440.946617 296.573538 
L 441.315076 298.323692 
L 441.683536 293.948308 
L 442.051995 284.322462 
L 442.420455 290.448 
L 442.420455 290.448 
" clip-path="url(#pf748b43ba2)" style="fill: none; stroke: #708090; stroke-width: 1.5; stroke-linecap: square"/>
   </g>
   <g id="line2d_15">
    <path d="M 74.329545 302.830338 
L 74.698005 302.73408 
L 76.171842 302.900345 
L 77.64568 302.830338 
L 78.014139 302.882843 
L 78.382599 303.609157 
L 78.751058 303.722917 
L 79.119517 303.696665 
L 79.487977 303.889182 
L 80.593355 303.836677 
L 81.330273 304.081698 
L 82.435652 304.020443 
L 82.804111 303.941686 
L 83.54103 304.011692 
L 86.488705 303.267877 
L 86.857164 303.215372 
L 87.225623 303.792923 
L 87.594083 304.002942 
L 87.962542 303.915434 
L 88.331001 304.081698 
L 88.699461 303.915434 
L 90.541758 303.854178 
L 91.278676 303.696665 
L 92.384055 303.775422 
L 93.120973 303.784172 
L 93.489433 303.434142 
L 93.857892 303.591655 
L 94.594811 303.232874 
L 95.700189 302.830338 
L 96.437108 302.839089 
L 96.805567 302.637822 
L 99.016323 302.742831 
L 99.384783 302.952849 
L 99.753242 302.602818 
L 100.490161 302.489058 
L 100.85862 302.410302 
L 101.595539 302.445305 
L 101.963998 302.357797 
L 102.700917 302.419052 
L 103.069376 302.226535 
L 103.437836 302.252788 
L 103.806295 302.550314 
L 104.174754 302.436554 
L 104.543214 302.594068 
L 104.911673 302.489058 
L 105.280132 302.707828 
L 106.385511 302.655323 
L 106.75397 302.73408 
L 107.122429 302.987852 
L 107.859348 302.839089 
L 108.596267 303.101612 
L 110.807023 302.830338 
L 111.175482 303.119114 
L 111.543942 303.180369 
L 111.912401 303.399138 
L 112.28086 303.451643 
L 112.64932 303.311631 
L 114.491617 303.714166 
L 114.860076 303.661662 
L 115.228535 303.897932 
L 116.702373 303.477895 
L 117.439292 303.250375 
L 117.807751 303.241625 
L 118.17621 303.591655 
L 118.54467 303.582905 
L 119.650048 303.932935 
L 120.018507 303.731668 
L 120.386967 303.810425 
L 120.755426 303.512898 
L 121.123885 303.469145 
L 121.492345 303.792923 
L 122.966182 303.784172 
L 123.334641 303.880431 
L 125.545398 303.609157 
L 125.913857 302.987852 
L 126.650776 303.040357 
L 127.019235 302.865342 
L 127.756154 302.909095 
L 128.124613 302.349046 
L 128.493073 302.16528 
L 130.335369 302.270289 
L 130.703829 302.191532 
L 131.072288 302.541563 
L 132.177666 302.699077 
L 132.914585 302.515311 
L 133.283044 302.532812 
L 133.651504 302.340295 
L 134.019963 302.007766 
L 134.756882 302.287791 
L 135.86226 302.471557 
L 136.230719 302.182782 
L 136.967638 302.121526 
L 137.336097 302.095274 
L 137.704557 301.648985 
L 138.441476 301.71024 
L 138.809935 301.832751 
L 139.178394 302.182782 
L 139.915313 301.911508 
L 140.283772 301.806498 
L 140.652232 301.307705 
L 141.020691 301.045182 
L 141.75761 301.010178 
L 142.494529 300.712652 
L 142.862988 300.765157 
L 143.231447 300.660148 
L 143.599907 300.721403 
L 143.968366 300.590142 
L 144.336825 301.150191 
L 144.705285 300.861415 
L 145.073744 300.327618 
L 145.810663 299.925083 
L 146.179122 300.038843 
L 146.547582 300.493883 
L 147.2845 300.633895 
L 148.021419 299.828825 
L 148.758338 299.793822 
L 149.495257 299.671311 
L 149.863716 299.653809 
L 150.232175 299.268775 
L 150.600635 299.225022 
L 150.969094 298.944997 
L 151.337553 299.111262 
L 151.706013 298.778732 
L 152.811391 298.52496 
L 153.17985 298.489957 
L 154.653688 298.901243 
L 155.759066 298.454954 
L 156.127525 298.86624 
L 156.495985 298.376197 
L 157.601363 298.244935 
L 157.969822 298.437452 
L 158.338281 298.498708 
L 158.706741 298.349945 
L 159.0752 298.629969 
L 160.549038 297.422363 
L 161.285956 296.801058 
L 161.654416 296.853563 
L 162.022875 296.599791 
L 163.128253 296.372271 
L 163.496713 296.906068 
L 163.865172 297.028578 
L 164.233631 296.748554 
L 164.97055 296.564788 
L 165.339009 295.803471 
L 165.707469 295.418437 
L 166.075928 295.400935 
L 166.812847 295.698462 
L 167.181306 295.462191 
L 167.549766 295.383434 
L 168.286684 294.814634 
L 168.655144 294.989649 
L 169.023603 294.823385 
L 169.392063 294.88464 
L 169.760522 294.517108 
L 170.128981 294.814634 
L 170.497441 294.525858 
L 170.8659 293.852049 
L 171.234359 292.941969 
L 172.708197 292.285662 
L 173.445116 291.559348 
L 174.550494 291.35808 
L 174.918953 291.778117 
L 175.655872 291.664357 
L 176.024331 291.366831 
L 176.76125 291.288074 
L 177.129709 291.104308 
L 177.866628 291.261822 
L 178.235087 291.410585 
L 178.972006 292.084394 
L 179.340465 291.944382 
L 179.708925 291.646855 
L 180.077384 291.629354 
L 180.445844 291.918129 
L 180.814303 291.366831 
L 181.182762 291.410585 
L 181.551222 291.664357 
L 181.919681 291.445588 
L 182.28814 290.771778 
L 182.6566 291.121809 
L 183.025059 291.051803 
L 183.393519 290.78928 
L 183.761978 291.410585 
L 184.130437 291.611852 
L 184.498897 291.664357 
L 184.867356 291.891877 
L 185.235815 291.331828 
L 185.604275 291.043052 
L 185.972734 291.034302 
L 186.341193 290.868037 
L 186.709653 291.104308 
L 187.078112 290.964295 
L 187.446572 290.623015 
L 187.815031 290.570511 
L 188.18349 290.868037 
L 188.55195 290.491754 
L 188.920409 290.894289 
L 189.288868 291.883126 
L 189.657328 292.1544 
L 190.025787 292.005637 
L 190.394247 292.075643 
L 190.762706 292.031889 
L 191.131165 291.786868 
L 191.499625 292.031889 
L 191.868084 292.014388 
L 192.236543 292.250658 
L 192.605003 292.101895 
L 193.341921 292.198154 
L 193.710381 292.136898 
L 194.07884 291.638105 
L 194.4473 291.795618 
L 194.815759 291.445588 
L 195.184218 291.568098 
L 195.552678 291.821871 
L 195.921137 291.830622 
L 196.289596 291.708111 
L 196.658056 291.463089 
L 197.394975 291.375582 
L 198.131893 292.250658 
L 198.500353 292.136898 
L 198.868812 291.883126 
L 199.237271 292.513182 
L 199.605731 291.900628 
L 200.342649 291.331828 
L 200.711109 292.049391 
L 201.448028 291.795618 
L 201.816487 292.075643 
L 202.184946 292.198154 
L 202.553406 292.031889 
L 203.290324 291.935631 
L 203.658784 292.364418 
L 204.027243 292.329415 
L 204.395703 292.416923 
L 204.764162 292.696948 
L 205.132621 292.26816 
L 205.501081 292.38192 
L 205.86954 291.909378 
L 206.237999 292.066892 
L 206.606459 292.093145 
L 206.974918 292.425674 
L 207.343377 291.489342 
L 207.711837 291.261822 
L 208.080296 291.603102 
L 208.448756 291.629354 
L 208.817215 291.331828 
L 209.554134 291.078055 
L 210.291052 291.069305 
L 211.027971 290.386745 
L 212.133349 290.10672 
L 212.501809 290.518006 
L 212.870268 289.984209 
L 213.238727 289.800443 
L 213.607187 289.249145 
L 214.344105 289.030375 
L 214.712565 289.371655 
L 215.449484 289.3104 
L 215.817943 289.406658 
L 216.554862 288.487828 
L 216.923321 288.435323 
L 217.29178 288.225305 
L 217.66024 287.857772 
L 218.028699 288.199052 
L 218.397159 287.901526 
L 218.765618 288.28656 
L 219.134077 286.203877 
L 219.870996 286.4664 
L 220.239455 286.308886 
L 220.607915 285.416308 
L 221.344833 285.635077 
L 221.713293 285.617575 
L 222.081752 285.223791 
L 222.450212 285.468812 
L 223.18713 285.022523 
L 223.55559 285.276295 
L 223.924049 285.188788 
L 224.292508 285.985108 
L 225.029427 285.416308 
L 225.397887 284.409969 
L 225.766346 285.363803 
L 226.134805 285.171286 
L 226.503265 285.276295 
L 226.871724 285.066277 
L 227.240183 284.98752 
L 227.977102 285.145034 
L 228.345561 284.716246 
L 229.819399 285.3288 
L 230.556318 285.197538 
L 230.924777 284.952517 
L 231.661696 285.127532 
L 232.030155 285.512566 
L 233.503993 285.635077 
L 234.240911 285.197538 
L 234.609371 285.495065 
L 234.97783 284.751249 
L 235.346289 284.523729 
L 236.083208 285.066277 
L 236.451668 285.153785 
L 236.820127 285.661329 
L 237.188586 285.495065 
L 237.557046 287.49024 
L 237.925505 287.183963 
L 238.662424 287.043951 
L 239.030883 287.910277 
L 239.767802 287.980283 
L 240.136261 287.726511 
L 240.504721 286.833932 
L 240.87318 287.052702 
L 241.241639 287.140209 
L 241.610099 287.087705 
L 241.978558 286.912689 
L 243.452396 287.516492 
L 243.820855 288.496578 
L 244.189314 288.094043 
L 244.557774 288.242806 
L 244.926233 288.111545 
L 245.294692 288.470326 
L 245.663152 288.006535 
L 246.031611 288.085292 
L 246.400071 288.505329 
L 247.136989 288.811606 
L 247.505449 288.531582 
L 247.873908 288.479077 
L 248.242367 288.006535 
L 248.979286 288.120295 
L 249.716205 288.522831 
L 250.084664 288.899114 
L 250.453124 288.872862 
L 251.558502 289.074129 
L 251.926961 288.960369 
L 252.29542 289.275397 
L 252.66388 289.380406 
L 253.032339 289.704185 
L 253.400799 290.649268 
L 253.769258 290.929292 
L 254.137717 290.833034 
L 254.506177 290.868037 
L 254.874636 290.693022 
L 255.980014 290.631766 
L 256.716933 290.841785 
L 257.085392 291.165563 
L 257.453852 291.069305 
L 257.822311 291.174314 
L 258.19077 290.745526 
L 258.55923 290.876788 
L 258.927689 292.066892 
L 259.664608 292.093145 
L 260.033067 291.638105 
L 260.401527 291.751865 
L 261.506905 291.611852 
L 261.875364 291.716862 
L 262.243823 291.113058 
L 262.612283 291.498092 
L 262.980742 291.541846 
L 263.349201 291.830622 
L 263.717661 291.576849 
L 264.08612 292.346917 
L 264.45458 292.364418 
L 264.823039 291.673108 
L 265.191498 291.918129 
L 265.559958 291.988135 
L 265.928417 292.241908 
L 266.296876 292.233157 
L 266.665336 292.740702 
L 267.033795 292.539434 
L 267.402255 292.793206 
L 267.770714 292.775705 
L 268.139173 292.574437 
L 268.876092 292.600689 
L 269.244551 292.451926 
L 270.349929 292.556935 
L 271.086848 291.839372 
L 272.560686 291.515594 
L 273.297604 291.821871 
L 274.402983 292.303163 
L 274.771442 292.521932 
L 275.139901 292.513182 
L 276.245279 291.961883 
L 276.613739 292.425674 
L 276.982198 292.583188 
L 277.350657 291.891877 
L 278.087576 291.769366 
L 278.456036 292.556935 
L 278.824495 292.670695 
L 279.561414 292.521932 
L 280.298332 292.04064 
L 280.666792 292.705698 
L 281.035251 292.513182 
L 281.403711 292.635692 
L 282.140629 292.600689 
L 282.509089 292.110646 
L 282.877548 291.970634 
L 283.246007 292.504431 
L 284.719845 292.968222 
L 285.825223 292.749452 
L 286.562142 293.143237 
L 286.930601 293.038228 
L 287.29906 293.081982 
L 287.66752 293.318252 
L 288.772898 293.230745 
L 289.509817 293.948308 
L 290.246735 293.703286 
L 290.983654 293.563274 
L 291.352113 293.537022 
L 291.720573 293.650782 
L 292.825951 293.265748 
L 293.19441 292.985723 
L 293.56287 292.933218 
L 294.299788 293.099483 
L 295.036707 293.213243 
L 295.405167 292.871963 
L 295.773626 293.370757 
L 296.142085 293.256997 
L 296.510545 293.40576 
L 297.247463 292.889465 
L 297.615923 292.845711 
L 298.721301 293.712037 
L 299.45822 293.755791 
L 299.826679 293.904554 
L 300.195138 293.659532 
L 300.932057 293.957058 
L 301.668976 293.834548 
L 302.405895 293.151988 
L 302.774354 293.274498 
L 303.511273 293.230745 
L 304.248191 293.432012 
L 304.616651 293.292 
L 304.98511 293.458265 
L 306.090488 293.449514 
L 306.827407 293.213243 
L 307.195866 293.283249 
L 307.932785 293.274498 
L 309.406623 294.175828 
L 310.143541 294.053317 
L 310.512001 294.167077 
L 310.88046 294.123323 
L 311.248919 293.790794 
L 311.617379 293.764542 
L 312.354297 293.887052 
L 313.091216 293.782043 
L 313.459676 293.694535 
L 313.828135 293.020726 
L 315.301972 293.397009 
L 316.038891 293.755791 
L 317.512729 293.554523 
L 317.881188 293.703286 
L 318.249647 293.388258 
L 318.618107 293.624529 
L 318.986566 293.712037 
L 319.355025 294.08832 
L 320.091944 294.132074 
L 320.828863 294.77088 
L 321.934241 294.779631 
L 322.3027 294.954646 
L 322.67116 294.718375 
L 323.039619 294.788382 
L 323.408079 294.473354 
L 326.724213 294.552111 
L 327.092672 294.298338 
L 328.19805 294.193329 
L 329.303428 294.587114 
L 330.040347 294.980898 
L 331.882644 294.692123 
L 332.251103 295.68096 
L 332.988022 295.829723 
L 333.356481 295.79472 
L 333.724941 295.628455 
L 334.830319 295.532197 
L 335.198778 295.610954 
L 335.567238 295.182166 
L 335.935697 295.190917 
L 336.304156 294.963397 
L 336.672616 295.234671 
L 338.146453 295.234671 
L 338.514913 295.427188 
L 339.98875 295.357182 
L 340.357209 295.505945 
L 341.094128 295.479692 
L 341.462588 294.9984 
L 341.831047 295.234671 
L 342.567966 295.322178 
L 342.936425 295.199668 
L 343.673344 294.587114 
L 344.041803 294.132074 
L 344.410263 293.930806 
L 345.147181 293.992062 
L 346.252559 294.499606 
L 346.621019 294.280837 
L 346.989478 294.333342 
L 347.726397 294.018314 
L 348.463316 294.237083 
L 349.200234 294.184578 
L 349.568694 294.464603 
L 350.305612 294.587114 
L 351.042531 294.560862 
L 351.410991 294.54336 
L 351.77945 294.245834 
L 352.516369 294.4296 
L 352.884828 294.412098 
L 353.621747 294.035815 
L 353.990206 294.149575 
L 355.464044 293.97456 
L 356.200962 293.283249 
L 356.569422 292.854462 
L 357.6748 292.880714 
L 358.411719 292.854462 
L 359.148637 292.793206 
L 359.517097 292.985723 
L 359.885556 293.493268 
L 360.254015 293.537022 
L 360.990934 293.160738 
L 361.359393 293.265748 
L 362.833231 294.875889 
L 363.20169 294.692123 
L 364.307068 294.735877 
L 364.675528 294.639618 
L 365.043987 294.718375 
L 365.412447 294.175828 
L 365.780906 294.08832 
L 366.886284 294.140825 
L 367.991662 293.528271 
L 368.360121 293.650782 
L 368.728581 293.484517 
L 369.4655 293.502018 
L 370.570878 293.615778 
L 371.307796 293.230745 
L 372.413175 293.720788 
L 372.781634 293.493268 
L 373.150093 293.729538 
L 373.518553 293.510769 
L 374.255471 293.685785 
L 374.99239 294.464603 
L 375.360849 293.983311 
L 375.729309 293.834548 
L 376.097768 293.834548 
L 376.466228 293.554523 
L 377.203146 293.537022 
L 378.308524 293.545772 
L 378.676984 293.502018 
L 379.413903 293.650782 
L 379.782362 293.493268 
L 380.519281 292.679446 
L 380.88774 292.591938 
L 381.256199 292.661945 
L 381.624659 292.60944 
L 381.993118 292.434425 
L 382.361577 292.119397 
L 383.098496 292.206905 
L 383.466956 292.329415 
L 383.835415 292.828209 
L 385.677712 292.994474 
L 386.046171 293.344505 
L 386.414631 293.51952 
L 386.78309 293.51952 
L 387.151549 293.834548 
L 387.520009 293.817046 
L 388.993846 294.272086 
L 389.730765 294.762129 
L 390.467684 294.875889 
L 390.836143 294.508357 
L 391.204602 294.762129 
L 391.941521 294.919643 
L 392.30998 294.578363 
L 392.67844 294.805883 
L 393.046899 294.665871 
L 393.415359 294.692123 
L 393.783818 295.252172 
L 394.152277 295.208418 
L 394.520737 295.042154 
L 394.889196 295.322178 
L 395.257655 295.313428 
L 395.626115 295.427188 
L 395.994574 295.365932 
L 396.363033 295.138412 
L 397.468412 295.234671 
L 398.942249 295.777218 
L 399.310708 295.304677 
L 400.047627 295.190917 
L 400.416087 295.322178 
L 400.784546 295.593452 
L 402.258383 295.523446 
L 402.995302 295.654708 
L 403.732221 295.435938 
L 404.10068 295.68096 
L 404.46914 295.575951 
L 404.837599 295.304677 
L 405.206058 295.374683 
L 405.574518 294.902142 
L 405.942977 294.867138 
L 406.311436 294.455852 
L 406.679896 294.289588 
L 407.048355 294.394597 
L 408.153733 294.289588 
L 408.522193 293.913305 
L 408.890652 293.878302 
L 409.259111 294.420849 
L 409.627571 293.8608 
L 410.364489 293.8608 
L 411.101408 293.97456 
L 411.469868 294.184578 
L 412.575246 294.447102 
L 412.943705 294.604615 
L 413.312164 294.438351 
L 413.680624 294.455852 
L 414.049083 293.983311 
L 414.417543 293.983311 
L 414.786002 294.167077 
L 415.154461 294.184578 
L 415.522921 293.808295 
L 415.89138 293.239495 
L 416.628299 293.108234 
L 416.996758 293.160738 
L 418.102136 293.895803 
L 419.575974 294.105822 
L 419.944433 293.957058 
L 420.312892 294.123323 
L 420.681352 294.105822 
L 421.418271 293.790794 
L 421.78673 293.764542 
L 422.523649 292.863212 
L 422.892108 292.863212 
L 423.260567 293.116985 
L 423.629027 292.976972 
L 423.997486 293.116985 
L 424.365945 292.968222 
L 424.365945 292.968222 
" clip-path="url(#pf748b43ba2)" style="fill: none; stroke: #000080; stroke-width: 1.5; stroke-linecap: square"/>
   </g>
   <g id="line2d_16">
    <path d="M 55.925 94.430769 
L 460.825 94.430769 
" clip-path="url(#pf748b43ba2)" style="fill: none; stroke-dasharray: 5.55,2.4; stroke-dashoffset: 0; stroke: #008000; stroke-width: 1.5"/>
   </g>
   <g id="patch_3">
    <path d="M 55.925 313.2 
L 55.925 28.8 
" style="fill: none; stroke: #000000; stroke-width: 0.8; stroke-linejoin: miter; stroke-linecap: square"/>
   </g>
   <g id="patch_4">
    <path d="M 460.825 313.2 
L 460.825 28.8 
" style="fill: none; stroke: #000000; stroke-width: 0.8; stroke-linejoin: miter; stroke-linecap: square"/>
   </g>
   <g id="patch_5">
    <path d="M 55.925 313.2 
L 460.825 313.2 
" style="fill: none; stroke: #000000; stroke-width: 0.8; stroke-linejoin: miter; stroke-linecap: square"/>
   </g>
   <g id="patch_6">
    <path d="M 55.925 28.8 
L 460.825 28.8 
" style="fill: none; stroke: #000000; stroke-width: 0.8; stroke-linejoin: miter; stroke-linecap: square"/>
   </g>
   <g id="text_16">
    <!-- gamma = 0.9852631578947368,lr = 0.001 -->
    <g transform="translate(95.179688 22.8)scale(0.15 -0.15)">
     <defs>
      <path id="DejaVuSans-67" d="M 2906 1791 
Q 2906 2416 2648 2759 
Q 2391 3103 1925 3103 
Q 1463 3103 1205 2759 
Q 947 2416 947 1791 
Q 947 1169 1205 825 
Q 1463 481 1925 481 
Q 2391 481 2648 825 
Q 2906 1169 2906 1791 
z
M 3481 434 
Q 3481 -459 3084 -895 
Q 2688 -1331 1869 -1331 
Q 1566 -1331 1297 -1286 
Q 1028 -1241 775 -1147 
L 775 -588 
Q 1028 -725 1275 -790 
Q 1522 -856 1778 -856 
Q 2344 -856 2625 -561 
Q 2906 -266 2906 331 
L 2906 616 
Q 2728 306 2450 153 
Q 2172 0 1784 0 
Q 1141 0 747 490 
Q 353 981 353 1791 
Q 353 2603 747 3093 
Q 1141 3584 1784 3584 
Q 2172 3584 2450 3431 
Q 2728 3278 2906 2969 
L 2906 3500 
L 3481 3500 
L 3481 434 
z
" transform="scale(0.015625)"/>
      <path id="DejaVuSans-61" d="M 2194 1759 
Q 1497 1759 1228 1600 
Q 959 1441 959 1056 
Q 959 750 1161 570 
Q 1363 391 1709 391 
Q 2188 391 2477 730 
Q 2766 1069 2766 1631 
L 2766 1759 
L 2194 1759 
z
M 3341 1997 
L 3341 0 
L 2766 0 
L 2766 531 
Q 2569 213 2275 61 
Q 1981 -91 1556 -91 
Q 1019 -91 701 211 
Q 384 513 384 1019 
Q 384 1609 779 1909 
Q 1175 2209 1959 2209 
L 2766 2209 
L 2766 2266 
Q 2766 2663 2505 2880 
Q 2244 3097 1772 3097 
Q 1472 3097 1187 3025 
Q 903 2953 641 2809 
L 641 3341 
Q 956 3463 1253 3523 
Q 1550 3584 1831 3584 
Q 2591 3584 2966 3190 
Q 3341 2797 3341 1997 
z
" transform="scale(0.015625)"/>
      <path id="DejaVuSans-6d" d="M 3328 2828 
Q 3544 3216 3844 3400 
Q 4144 3584 4550 3584 
Q 5097 3584 5394 3201 
Q 5691 2819 5691 2113 
L 5691 0 
L 5113 0 
L 5113 2094 
Q 5113 2597 4934 2840 
Q 4756 3084 4391 3084 
Q 3944 3084 3684 2787 
Q 3425 2491 3425 1978 
L 3425 0 
L 2847 0 
L 2847 2094 
Q 2847 2600 2669 2842 
Q 2491 3084 2119 3084 
Q 1678 3084 1418 2786 
Q 1159 2488 1159 1978 
L 1159 0 
L 581 0 
L 581 3500 
L 1159 3500 
L 1159 2956 
Q 1356 3278 1631 3431 
Q 1906 3584 2284 3584 
Q 2666 3584 2933 3390 
Q 3200 3197 3328 2828 
z
" transform="scale(0.015625)"/>
      <path id="DejaVuSans-20" transform="scale(0.015625)"/>
      <path id="DejaVuSans-3d" d="M 678 2906 
L 4684 2906 
L 4684 2381 
L 678 2381 
L 678 2906 
z
M 678 1631 
L 4684 1631 
L 4684 1100 
L 678 1100 
L 678 1631 
z
" transform="scale(0.015625)"/>
      <path id="DejaVuSans-2e" d="M 684 794 
L 1344 794 
L 1344 0 
L 684 0 
L 684 794 
z
" transform="scale(0.015625)"/>
      <path id="DejaVuSans-39" d="M 703 97 
L 703 672 
Q 941 559 1184 500 
Q 1428 441 1663 441 
Q 2288 441 2617 861 
Q 2947 1281 2994 2138 
Q 2813 1869 2534 1725 
Q 2256 1581 1919 1581 
Q 1219 1581 811 2004 
Q 403 2428 403 3163 
Q 403 3881 828 4315 
Q 1253 4750 1959 4750 
Q 2769 4750 3195 4129 
Q 3622 3509 3622 2328 
Q 3622 1225 3098 567 
Q 2575 -91 1691 -91 
Q 1453 -91 1209 -44 
Q 966 3 703 97 
z
M 1959 2075 
Q 2384 2075 2632 2365 
Q 2881 2656 2881 3163 
Q 2881 3666 2632 3958 
Q 2384 4250 1959 4250 
Q 1534 4250 1286 3958 
Q 1038 3666 1038 3163 
Q 1038 2656 1286 2365 
Q 1534 2075 1959 2075 
z
" transform="scale(0.015625)"/>
      <path id="DejaVuSans-37" d="M 525 4666 
L 3525 4666 
L 3525 4397 
L 1831 0 
L 1172 0 
L 2766 4134 
L 525 4134 
L 525 4666 
z
" transform="scale(0.015625)"/>
      <path id="DejaVuSans-2c" d="M 750 794 
L 1409 794 
L 1409 256 
L 897 -744 
L 494 -744 
L 750 256 
L 750 794 
z
" transform="scale(0.015625)"/>
      <path id="DejaVuSans-6c" d="M 603 4863 
L 1178 4863 
L 1178 0 
L 603 0 
L 603 4863 
z
" transform="scale(0.015625)"/>
     </defs>
     <use xlink:href="#DejaVuSans-67"/>
     <use xlink:href="#DejaVuSans-61" x="63.476562"/>
     <use xlink:href="#DejaVuSans-6d" x="124.755859"/>
     <use xlink:href="#DejaVuSans-6d" x="222.167969"/>
     <use xlink:href="#DejaVuSans-61" x="319.580078"/>
     <use xlink:href="#DejaVuSans-20" x="380.859375"/>
     <use xlink:href="#DejaVuSans-3d" x="412.646484"/>
     <use xlink:href="#DejaVuSans-20" x="496.435547"/>
     <use xlink:href="#DejaVuSans-30" x="528.222656"/>
     <use xlink:href="#DejaVuSans-2e" x="591.845703"/>
     <use xlink:href="#DejaVuSans-39" x="623.632812"/>
     <use xlink:href="#DejaVuSans-38" x="687.255859"/>
     <use xlink:href="#DejaVuSans-35" x="750.878906"/>
     <use xlink:href="#DejaVuSans-32" x="814.501953"/>
     <use xlink:href="#DejaVuSans-36" x="878.125"/>
     <use xlink:href="#DejaVuSans-33" x="941.748047"/>
     <use xlink:href="#DejaVuSans-31" x="1005.371094"/>
     <use xlink:href="#DejaVuSans-35" x="1068.994141"/>
     <use xlink:href="#DejaVuSans-37" x="1132.617188"/>
     <use xlink:href="#DejaVuSans-38" x="1196.240234"/>
     <use xlink:href="#DejaVuSans-39" x="1259.863281"/>
     <use xlink:href="#DejaVuSans-34" x="1323.486328"/>
     <use xlink:href="#DejaVuSans-37" x="1387.109375"/>
     <use xlink:href="#DejaVuSans-33" x="1450.732422"/>
     <use xlink:href="#DejaVuSans-36" x="1514.355469"/>
     <use xlink:href="#DejaVuSans-38" x="1577.978516"/>
     <use xlink:href="#DejaVuSans-2c" x="1641.601562"/>
     <use xlink:href="#DejaVuSans-6c" x="1673.388672"/>
     <use xlink:href="#DejaVuSans-72" x="1701.171875"/>
     <use xlink:href="#DejaVuSans-20" x="1742.285156"/>
     <use xlink:href="#DejaVuSans-3d" x="1774.072266"/>
     <use xlink:href="#DejaVuSans-20" x="1857.861328"/>
     <use xlink:href="#DejaVuSans-30" x="1889.648438"/>
     <use xlink:href="#DejaVuSans-2e" x="1953.271484"/>
     <use xlink:href="#DejaVuSans-30" x="1985.058594"/>
     <use xlink:href="#DejaVuSans-30" x="2048.681641"/>
     <use xlink:href="#DejaVuSans-31" x="2112.304688"/>
    </g>
   </g>
   <g id="legend_1">
    <g id="patch_7">
     <path d="M 293.50625 80.834375 
L 453.825 80.834375 
Q 455.825 80.834375 455.825 78.834375 
L 455.825 35.8 
Q 455.825 33.8 453.825 33.8 
L 293.50625 33.8 
Q 291.50625 33.8 291.50625 35.8 
L 291.50625 78.834375 
Q 291.50625 80.834375 293.50625 80.834375 
z
" style="fill: #ffffff; opacity: 0.8; stroke: #cccccc; stroke-linejoin: miter"/>
    </g>
    <g id="line2d_17">
     <path d="M 295.50625 41.898438 
L 305.50625 41.898438 
L 315.50625 41.898438 
" style="fill: none; stroke: #708090; stroke-width: 1.5; stroke-linecap: square"/>
    </g>
    <g id="text_17">
     <!-- Episodes score -->
     <g transform="translate(323.50625 45.398438)scale(0.1 -0.1)">
      <use xlink:href="#DejaVuSans-45"/>
      <use xlink:href="#DejaVuSans-70" x="63.183594"/>
      <use xlink:href="#DejaVuSans-69" x="126.660156"/>
      <use xlink:href="#DejaVuSans-73" x="154.443359"/>
      <use xlink:href="#DejaVuSans-6f" x="206.542969"/>
      <use xlink:href="#DejaVuSans-64" x="267.724609"/>
      <use xlink:href="#DejaVuSans-65" x="331.201172"/>
      <use xlink:href="#DejaVuSans-73" x="392.724609"/>
      <use xlink:href="#DejaVuSans-20" x="444.824219"/>
      <use xlink:href="#DejaVuSans-73" x="476.611328"/>
      <use xlink:href="#DejaVuSans-63" x="528.710938"/>
      <use xlink:href="#DejaVuSans-6f" x="583.691406"/>
      <use xlink:href="#DejaVuSans-72" x="644.873047"/>
      <use xlink:href="#DejaVuSans-65" x="683.736328"/>
     </g>
    </g>
    <g id="line2d_18">
     <path d="M 295.50625 56.576563 
L 305.50625 56.576563 
L 315.50625 56.576563 
" style="fill: none; stroke: #000080; stroke-width: 1.5; stroke-linecap: square"/>
    </g>
    <g id="text_18">
     <!-- Moving average of scores -->
     <g transform="translate(323.50625 60.076563)scale(0.1 -0.1)">
      <defs>
       <path id="DejaVuSans-4d" d="M 628 4666 
L 1569 4666 
L 2759 1491 
L 3956 4666 
L 4897 4666 
L 4897 0 
L 4281 0 
L 4281 4097 
L 3078 897 
L 2444 897 
L 1241 4097 
L 1241 0 
L 628 0 
L 628 4666 
z
" transform="scale(0.015625)"/>
       <path id="DejaVuSans-76" d="M 191 3500 
L 800 3500 
L 1894 563 
L 2988 3500 
L 3597 3500 
L 2284 0 
L 1503 0 
L 191 3500 
z
" transform="scale(0.015625)"/>
       <path id="DejaVuSans-6e" d="M 3513 2113 
L 3513 0 
L 2938 0 
L 2938 2094 
Q 2938 2591 2744 2837 
Q 2550 3084 2163 3084 
Q 1697 3084 1428 2787 
Q 1159 2491 1159 1978 
L 1159 0 
L 581 0 
L 581 3500 
L 1159 3500 
L 1159 2956 
Q 1366 3272 1645 3428 
Q 1925 3584 2291 3584 
Q 2894 3584 3203 3211 
Q 3513 2838 3513 2113 
z
" transform="scale(0.015625)"/>
       <path id="DejaVuSans-66" d="M 2375 4863 
L 2375 4384 
L 1825 4384 
Q 1516 4384 1395 4259 
Q 1275 4134 1275 3809 
L 1275 3500 
L 2222 3500 
L 2222 3053 
L 1275 3053 
L 1275 0 
L 697 0 
L 697 3053 
L 147 3053 
L 147 3500 
L 697 3500 
L 697 3744 
Q 697 4328 969 4595 
Q 1241 4863 1831 4863 
L 2375 4863 
z
" transform="scale(0.015625)"/>
      </defs>
      <use xlink:href="#DejaVuSans-4d"/>
      <use xlink:href="#DejaVuSans-6f" x="86.279297"/>
      <use xlink:href="#DejaVuSans-76" x="147.460938"/>
      <use xlink:href="#DejaVuSans-69" x="206.640625"/>
      <use xlink:href="#DejaVuSans-6e" x="234.423828"/>
      <use xlink:href="#DejaVuSans-67" x="297.802734"/>
      <use xlink:href="#DejaVuSans-20" x="361.279297"/>
      <use xlink:href="#DejaVuSans-61" x="393.066406"/>
      <use xlink:href="#DejaVuSans-76" x="454.345703"/>
      <use xlink:href="#DejaVuSans-65" x="513.525391"/>
      <use xlink:href="#DejaVuSans-72" x="575.048828"/>
      <use xlink:href="#DejaVuSans-61" x="616.162109"/>
      <use xlink:href="#DejaVuSans-67" x="677.441406"/>
      <use xlink:href="#DejaVuSans-65" x="740.917969"/>
      <use xlink:href="#DejaVuSans-20" x="802.441406"/>
      <use xlink:href="#DejaVuSans-6f" x="834.228516"/>
      <use xlink:href="#DejaVuSans-66" x="895.410156"/>
      <use xlink:href="#DejaVuSans-20" x="930.615234"/>
      <use xlink:href="#DejaVuSans-73" x="962.402344"/>
      <use xlink:href="#DejaVuSans-63" x="1014.501953"/>
      <use xlink:href="#DejaVuSans-6f" x="1069.482422"/>
      <use xlink:href="#DejaVuSans-72" x="1130.664062"/>
      <use xlink:href="#DejaVuSans-65" x="1169.527344"/>
      <use xlink:href="#DejaVuSans-73" x="1231.050781"/>
     </g>
    </g>
    <g id="line2d_19">
     <path d="M 295.50625 71.254687 
L 305.50625 71.254687 
L 315.50625 71.254687 
" style="fill: none; stroke-dasharray: 5.55,2.4; stroke-dashoffset: 0; stroke: #008000; stroke-width: 1.5"/>
    </g>
    <g id="text_19">
     <!-- Game Solved -->
     <g transform="translate(323.50625 74.754687)scale(0.1 -0.1)">
      <defs>
       <path id="DejaVuSans-47" d="M 3809 666 
L 3809 1919 
L 2778 1919 
L 2778 2438 
L 4434 2438 
L 4434 434 
Q 4069 175 3628 42 
Q 3188 -91 2688 -91 
Q 1594 -91 976 548 
Q 359 1188 359 2328 
Q 359 3472 976 4111 
Q 1594 4750 2688 4750 
Q 3144 4750 3555 4637 
Q 3966 4525 4313 4306 
L 4313 3634 
Q 3963 3931 3569 4081 
Q 3175 4231 2741 4231 
Q 1884 4231 1454 3753 
Q 1025 3275 1025 2328 
Q 1025 1384 1454 906 
Q 1884 428 2741 428 
Q 3075 428 3337 486 
Q 3600 544 3809 666 
z
" transform="scale(0.015625)"/>
      </defs>
      <use xlink:href="#DejaVuSans-47"/>
      <use xlink:href="#DejaVuSans-61" x="77.490234"/>
      <use xlink:href="#DejaVuSans-6d" x="138.769531"/>
      <use xlink:href="#DejaVuSans-65" x="236.181641"/>
      <use xlink:href="#DejaVuSans-20" x="297.705078"/>
      <use xlink:href="#DejaVuSans-53" x="329.492188"/>
      <use xlink:href="#DejaVuSans-6f" x="392.96875"/>
      <use xlink:href="#DejaVuSans-6c" x="454.150391"/>
      <use xlink:href="#DejaVuSans-76" x="481.933594"/>
      <use xlink:href="#DejaVuSans-65" x="541.113281"/>
      <use xlink:href="#DejaVuSans-64" x="602.636719"/>
     </g>
    </g>
   </g>
  </g>
  <g id="axes_2">
   <g id="matplotlib.axis_3">
    <g id="ytick_8">
     <g id="line2d_20">
      <defs>
       <path id="mbf9d9fd755" d="M 0 0 
L 3.5 0 
" style="stroke: #000000; stroke-width: 0.8"/>
      </defs>
      <g>
       <use xlink:href="#mbf9d9fd755" x="460.825" y="300.356157" style="stroke: #000000; stroke-width: 0.8"/>
      </g>
     </g>
     <g id="text_20">
      <!-- 0 -->
      <g transform="translate(467.825 304.155376)scale(0.1 -0.1)">
       <use xlink:href="#DejaVuSans-30"/>
      </g>
     </g>
    </g>
    <g id="ytick_9">
     <g id="line2d_21">
      <g>
       <use xlink:href="#mbf9d9fd755" x="460.825" y="248.63038" style="stroke: #000000; stroke-width: 0.8"/>
      </g>
     </g>
     <g id="text_21">
      <!-- 1 -->
      <g transform="translate(467.825 252.429599)scale(0.1 -0.1)">
       <use xlink:href="#DejaVuSans-31"/>
      </g>
     </g>
    </g>
    <g id="ytick_10">
     <g id="line2d_22">
      <g>
       <use xlink:href="#mbf9d9fd755" x="460.825" y="196.904603" style="stroke: #000000; stroke-width: 0.8"/>
      </g>
     </g>
     <g id="text_22">
      <!-- 2 -->
      <g transform="translate(467.825 200.703822)scale(0.1 -0.1)">
       <use xlink:href="#DejaVuSans-32"/>
      </g>
     </g>
    </g>
    <g id="ytick_11">
     <g id="line2d_23">
      <g>
       <use xlink:href="#mbf9d9fd755" x="460.825" y="145.178827" style="stroke: #000000; stroke-width: 0.8"/>
      </g>
     </g>
     <g id="text_23">
      <!-- 3 -->
      <g transform="translate(467.825 148.978045)scale(0.1 -0.1)">
       <use xlink:href="#DejaVuSans-33"/>
      </g>
     </g>
    </g>
    <g id="ytick_12">
     <g id="line2d_24">
      <g>
       <use xlink:href="#mbf9d9fd755" x="460.825" y="93.45305" style="stroke: #000000; stroke-width: 0.8"/>
      </g>
     </g>
     <g id="text_24">
      <!-- 4 -->
      <g transform="translate(467.825 97.252268)scale(0.1 -0.1)">
       <use xlink:href="#DejaVuSans-34"/>
      </g>
     </g>
    </g>
    <g id="ytick_13">
     <g id="line2d_25">
      <g>
       <use xlink:href="#mbf9d9fd755" x="460.825" y="41.727273" style="stroke: #000000; stroke-width: 0.8"/>
      </g>
     </g>
     <g id="text_25">
      <!-- 5 -->
      <g transform="translate(467.825 45.526491)scale(0.1 -0.1)">
       <use xlink:href="#DejaVuSans-35"/>
      </g>
     </g>
    </g>
    <g id="text_26">
     <!-- Temperature -->
     <g transform="translate(489.585156 218.504297)rotate(-90)scale(0.15 -0.15)">
      <defs>
       <path id="DejaVuSans-54" d="M -19 4666 
L 3928 4666 
L 3928 4134 
L 2272 4134 
L 2272 0 
L 1638 0 
L 1638 4134 
L -19 4134 
L -19 4666 
z
" transform="scale(0.015625)"/>
       <path id="DejaVuSans-74" d="M 1172 4494 
L 1172 3500 
L 2356 3500 
L 2356 3053 
L 1172 3053 
L 1172 1153 
Q 1172 725 1289 603 
Q 1406 481 1766 481 
L 2356 481 
L 2356 0 
L 1766 0 
Q 1100 0 847 248 
Q 594 497 594 1153 
L 594 3053 
L 172 3053 
L 172 3500 
L 594 3500 
L 594 4494 
L 1172 4494 
z
" transform="scale(0.015625)"/>
       <path id="DejaVuSans-75" d="M 544 1381 
L 544 3500 
L 1119 3500 
L 1119 1403 
Q 1119 906 1312 657 
Q 1506 409 1894 409 
Q 2359 409 2629 706 
Q 2900 1003 2900 1516 
L 2900 3500 
L 3475 3500 
L 3475 0 
L 2900 0 
L 2900 538 
Q 2691 219 2414 64 
Q 2138 -91 1772 -91 
Q 1169 -91 856 284 
Q 544 659 544 1381 
z
M 1991 3584 
L 1991 3584 
z
" transform="scale(0.015625)"/>
      </defs>
      <use xlink:href="#DejaVuSans-54"/>
      <use xlink:href="#DejaVuSans-65" x="44.083984"/>
      <use xlink:href="#DejaVuSans-6d" x="105.607422"/>
      <use xlink:href="#DejaVuSans-70" x="203.019531"/>
      <use xlink:href="#DejaVuSans-65" x="266.496094"/>
      <use xlink:href="#DejaVuSans-72" x="328.019531"/>
      <use xlink:href="#DejaVuSans-61" x="369.132812"/>
      <use xlink:href="#DejaVuSans-74" x="430.412109"/>
      <use xlink:href="#DejaVuSans-75" x="469.621094"/>
      <use xlink:href="#DejaVuSans-72" x="533"/>
      <use xlink:href="#DejaVuSans-65" x="571.863281"/>
     </g>
    </g>
   </g>
   <g id="line2d_26">
    <path d="M 74.329545 41.727273 
L 77.64568 59.796179 
L 80.961814 76.602714 
L 84.277948 92.235075 
L 87.594083 106.775292 
L 90.910217 120.299669 
L 94.226351 132.879175 
L 97.542486 144.579825 
L 100.85862 155.463017 
L 104.174754 165.585863 
L 107.490889 175.001485 
L 110.807023 183.759292 
L 114.123157 191.905241 
L 117.439292 199.48208 
L 120.755426 206.529569 
L 124.07156 213.084691 
L 127.387695 219.181844 
L 130.703829 224.853024 
L 134.019963 230.127992 
L 137.704557 235.557975 
L 141.389151 240.568116 
L 145.073744 245.190878 
L 148.758338 249.456211 
L 152.442932 253.391752 
L 156.127525 257.023001 
L 160.180578 260.693942 
L 164.233631 264.053901 
L 168.286684 267.129223 
L 172.339737 269.944021 
L 176.76125 272.743467 
L 181.182762 275.285223 
L 185.972734 277.775454 
L 190.762706 280.018336 
L 195.921137 282.185254 
L 201.448028 284.251415 
L 206.974918 286.082639 
L 212.870268 287.807033 
L 219.134077 289.41153 
L 225.766346 290.887385 
L 233.135533 292.295013 
L 240.87318 293.548388 
L 249.347745 294.698674 
L 258.927689 295.766744 
L 269.613011 296.721977 
L 281.403711 297.547031 
L 295.036707 298.270409 
L 310.88046 298.880507 
L 330.040347 299.385086 
L 353.990206 299.780603 
L 385.677712 300.068067 
L 432.840511 300.253311 
L 442.420455 300.272727 
L 442.420455 300.272727 
" clip-path="url(#pf748b43ba2)" style="fill: none; stroke: #ff0000; stroke-width: 1.5; stroke-linecap: square"/>
   </g>
   <g id="patch_8">
    <path d="M 55.925 313.2 
L 55.925 28.8 
" style="fill: none; stroke: #000000; stroke-width: 0.8; stroke-linejoin: miter; stroke-linecap: square"/>
   </g>
   <g id="patch_9">
    <path d="M 460.825 313.2 
L 460.825 28.8 
" style="fill: none; stroke: #000000; stroke-width: 0.8; stroke-linejoin: miter; stroke-linecap: square"/>
   </g>
   <g id="patch_10">
    <path d="M 55.925 313.2 
L 460.825 313.2 
" style="fill: none; stroke: #000000; stroke-width: 0.8; stroke-linejoin: miter; stroke-linecap: square"/>
   </g>
   <g id="patch_11">
    <path d="M 55.925 28.8 
L 460.825 28.8 
" style="fill: none; stroke: #000000; stroke-width: 0.8; stroke-linejoin: miter; stroke-linecap: square"/>
   </g>
   <g id="legend_2">
    <g id="patch_12">
     <path d="M 62.925 51.478125 
L 158.264063 51.478125 
Q 160.264063 51.478125 160.264063 49.478125 
L 160.264063 35.8 
Q 160.264063 33.8 158.264063 33.8 
L 62.925 33.8 
Q 60.925 33.8 60.925 35.8 
L 60.925 49.478125 
Q 60.925 51.478125 62.925 51.478125 
z
" style="fill: #ffffff; opacity: 0.8; stroke: #cccccc; stroke-linejoin: miter"/>
    </g>
    <g id="line2d_27">
     <path d="M 64.925 41.898438 
L 74.925 41.898438 
L 84.925 41.898438 
" style="fill: none; stroke: #ff0000; stroke-width: 1.5; stroke-linecap: square"/>
    </g>
    <g id="text_27">
     <!-- Temperature -->
     <g transform="translate(92.925 45.398438)scale(0.1 -0.1)">
      <use xlink:href="#DejaVuSans-54"/>
      <use xlink:href="#DejaVuSans-65" x="44.083984"/>
      <use xlink:href="#DejaVuSans-6d" x="105.607422"/>
      <use xlink:href="#DejaVuSans-70" x="203.019531"/>
      <use xlink:href="#DejaVuSans-65" x="266.496094"/>
      <use xlink:href="#DejaVuSans-72" x="328.019531"/>
      <use xlink:href="#DejaVuSans-61" x="369.132812"/>
      <use xlink:href="#DejaVuSans-74" x="430.412109"/>
      <use xlink:href="#DejaVuSans-75" x="469.621094"/>
      <use xlink:href="#DejaVuSans-72" x="533"/>
      <use xlink:href="#DejaVuSans-65" x="571.863281"/>
     </g>
    </g>
   </g>
  </g>
 </g>
 <defs>
  <clipPath id="pf748b43ba2">
   <rect x="55.925" y="28.8" width="404.9" height="284.4"/>
  </clipPath>
 </defs>
</svg>
