<?xml version="1.0" encoding="utf-8" standalone="no"?>
<!DOCTYPE svg PUBLIC "-//W3C//DTD SVG 1.1//EN"
  "http://www.w3.org/Graphics/SVG/1.1/DTD/svg11.dtd">
<svg xmlns:xlink="http://www.w3.org/1999/xlink" width="504pt" height="360pt" viewBox="0 0 504 360" xmlns="http://www.w3.org/2000/svg" version="1.1">
 <metadata>
  <rdf:RDF xmlns:dc="http://purl.org/dc/elements/1.1/" xmlns:cc="http://creativecommons.org/ns#" xmlns:rdf="http://www.w3.org/1999/02/22-rdf-syntax-ns#">
   <cc:Work>
    <dc:type rdf:resource="http://purl.org/dc/dcmitype/StillImage"/>
    <dc:date>2022-07-28T20:50:49.890526</dc:date>
    <dc:format>image/svg+xml</dc:format>
    <dc:creator>
     <cc:Agent>
      <dc:title>Matplotlib v3.5.1, https://matplotlib.org/</dc:title>
     </cc:Agent>
    </dc:creator>
   </cc:Work>
  </rdf:RDF>
 </metadata>
 <defs>
  <style type="text/css">*{stroke-linejoin: round; stroke-linecap: butt}</style>
 </defs>
 <g id="figure_1">
  <g id="patch_1">
   <path d="M 0 360 
L 504 360 
L 504 0 
L 0 0 
L 0 360 
z
" style="fill: none"/>
  </g>
  <g id="axes_1">
   <g id="patch_2">
    <path d="M 55.925 313.2 
L 460.825 313.2 
L 460.825 28.8 
L 55.925 28.8 
z
" style="fill: #ffffff"/>
   </g>
   <g id="matplotlib.axis_1">
    <g id="xtick_1">
     <g id="line2d_1">
      <defs>
       <path id="m2a3bcf5230" d="M 0 0 
L 0 3.5 
" style="stroke: #000000; stroke-width: 0.8"/>
      </defs>
      <g>
       <use xlink:href="#m2a3bcf5230" x="74.329545" y="313.2" style="stroke: #000000; stroke-width: 0.8"/>
      </g>
     </g>
     <g id="text_1">
      <!-- 0 -->
      <g transform="translate(71.148295 327.798437)scale(0.1 -0.1)">
       <defs>
        <path id="DejaVuSans-30" d="M 2034 4250 
Q 1547 4250 1301 3770 
Q 1056 3291 1056 2328 
Q 1056 1369 1301 889 
Q 1547 409 2034 409 
Q 2525 409 2770 889 
Q 3016 1369 3016 2328 
Q 3016 3291 2770 3770 
Q 2525 4250 2034 4250 
z
M 2034 4750 
Q 2819 4750 3233 4129 
Q 3647 3509 3647 2328 
Q 3647 1150 3233 529 
Q 2819 -91 2034 -91 
Q 1250 -91 836 529 
Q 422 1150 422 2328 
Q 422 3509 836 4129 
Q 1250 4750 2034 4750 
z
" transform="scale(0.015625)"/>
       </defs>
       <use xlink:href="#DejaVuSans-30"/>
      </g>
     </g>
    </g>
    <g id="xtick_2">
     <g id="line2d_2">
      <g>
       <use xlink:href="#m2a3bcf5230" x="148.021419" y="313.2" style="stroke: #000000; stroke-width: 0.8"/>
      </g>
     </g>
     <g id="text_2">
      <!-- 200 -->
      <g transform="translate(138.477669 327.798437)scale(0.1 -0.1)">
       <defs>
        <path id="DejaVuSans-32" d="M 1228 531 
L 3431 531 
L 3431 0 
L 469 0 
L 469 531 
Q 828 903 1448 1529 
Q 2069 2156 2228 2338 
Q 2531 2678 2651 2914 
Q 2772 3150 2772 3378 
Q 2772 3750 2511 3984 
Q 2250 4219 1831 4219 
Q 1534 4219 1204 4116 
Q 875 4013 500 3803 
L 500 4441 
Q 881 4594 1212 4672 
Q 1544 4750 1819 4750 
Q 2544 4750 2975 4387 
Q 3406 4025 3406 3419 
Q 3406 3131 3298 2873 
Q 3191 2616 2906 2266 
Q 2828 2175 2409 1742 
Q 1991 1309 1228 531 
z
" transform="scale(0.015625)"/>
       </defs>
       <use xlink:href="#DejaVuSans-32"/>
       <use xlink:href="#DejaVuSans-30" x="63.623047"/>
       <use xlink:href="#DejaVuSans-30" x="127.246094"/>
      </g>
     </g>
    </g>
    <g id="xtick_3">
     <g id="line2d_3">
      <g>
       <use xlink:href="#m2a3bcf5230" x="221.713293" y="313.2" style="stroke: #000000; stroke-width: 0.8"/>
      </g>
     </g>
     <g id="text_3">
      <!-- 400 -->
      <g transform="translate(212.169543 327.798437)scale(0.1 -0.1)">
       <defs>
        <path id="DejaVuSans-34" d="M 2419 4116 
L 825 1625 
L 2419 1625 
L 2419 4116 
z
M 2253 4666 
L 3047 4666 
L 3047 1625 
L 3713 1625 
L 3713 1100 
L 3047 1100 
L 3047 0 
L 2419 0 
L 2419 1100 
L 313 1100 
L 313 1709 
L 2253 4666 
z
" transform="scale(0.015625)"/>
       </defs>
       <use xlink:href="#DejaVuSans-34"/>
       <use xlink:href="#DejaVuSans-30" x="63.623047"/>
       <use xlink:href="#DejaVuSans-30" x="127.246094"/>
      </g>
     </g>
    </g>
    <g id="xtick_4">
     <g id="line2d_4">
      <g>
       <use xlink:href="#m2a3bcf5230" x="295.405167" y="313.2" style="stroke: #000000; stroke-width: 0.8"/>
      </g>
     </g>
     <g id="text_4">
      <!-- 600 -->
      <g transform="translate(285.861417 327.798437)scale(0.1 -0.1)">
       <defs>
        <path id="DejaVuSans-36" d="M 2113 2584 
Q 1688 2584 1439 2293 
Q 1191 2003 1191 1497 
Q 1191 994 1439 701 
Q 1688 409 2113 409 
Q 2538 409 2786 701 
Q 3034 994 3034 1497 
Q 3034 2003 2786 2293 
Q 2538 2584 2113 2584 
z
M 3366 4563 
L 3366 3988 
Q 3128 4100 2886 4159 
Q 2644 4219 2406 4219 
Q 1781 4219 1451 3797 
Q 1122 3375 1075 2522 
Q 1259 2794 1537 2939 
Q 1816 3084 2150 3084 
Q 2853 3084 3261 2657 
Q 3669 2231 3669 1497 
Q 3669 778 3244 343 
Q 2819 -91 2113 -91 
Q 1303 -91 875 529 
Q 447 1150 447 2328 
Q 447 3434 972 4092 
Q 1497 4750 2381 4750 
Q 2619 4750 2861 4703 
Q 3103 4656 3366 4563 
z
" transform="scale(0.015625)"/>
       </defs>
       <use xlink:href="#DejaVuSans-36"/>
       <use xlink:href="#DejaVuSans-30" x="63.623047"/>
       <use xlink:href="#DejaVuSans-30" x="127.246094"/>
      </g>
     </g>
    </g>
    <g id="xtick_5">
     <g id="line2d_5">
      <g>
       <use xlink:href="#m2a3bcf5230" x="369.09704" y="313.2" style="stroke: #000000; stroke-width: 0.8"/>
      </g>
     </g>
     <g id="text_5">
      <!-- 800 -->
      <g transform="translate(359.55329 327.798437)scale(0.1 -0.1)">
       <defs>
        <path id="DejaVuSans-38" d="M 2034 2216 
Q 1584 2216 1326 1975 
Q 1069 1734 1069 1313 
Q 1069 891 1326 650 
Q 1584 409 2034 409 
Q 2484 409 2743 651 
Q 3003 894 3003 1313 
Q 3003 1734 2745 1975 
Q 2488 2216 2034 2216 
z
M 1403 2484 
Q 997 2584 770 2862 
Q 544 3141 544 3541 
Q 544 4100 942 4425 
Q 1341 4750 2034 4750 
Q 2731 4750 3128 4425 
Q 3525 4100 3525 3541 
Q 3525 3141 3298 2862 
Q 3072 2584 2669 2484 
Q 3125 2378 3379 2068 
Q 3634 1759 3634 1313 
Q 3634 634 3220 271 
Q 2806 -91 2034 -91 
Q 1263 -91 848 271 
Q 434 634 434 1313 
Q 434 1759 690 2068 
Q 947 2378 1403 2484 
z
M 1172 3481 
Q 1172 3119 1398 2916 
Q 1625 2713 2034 2713 
Q 2441 2713 2670 2916 
Q 2900 3119 2900 3481 
Q 2900 3844 2670 4047 
Q 2441 4250 2034 4250 
Q 1625 4250 1398 4047 
Q 1172 3844 1172 3481 
z
" transform="scale(0.015625)"/>
       </defs>
       <use xlink:href="#DejaVuSans-38"/>
       <use xlink:href="#DejaVuSans-30" x="63.623047"/>
       <use xlink:href="#DejaVuSans-30" x="127.246094"/>
      </g>
     </g>
    </g>
    <g id="xtick_6">
     <g id="line2d_6">
      <g>
       <use xlink:href="#m2a3bcf5230" x="442.788914" y="313.2" style="stroke: #000000; stroke-width: 0.8"/>
      </g>
     </g>
     <g id="text_6">
      <!-- 1000 -->
      <g transform="translate(430.063914 327.798437)scale(0.1 -0.1)">
       <defs>
        <path id="DejaVuSans-31" d="M 794 531 
L 1825 531 
L 1825 4091 
L 703 3866 
L 703 4441 
L 1819 4666 
L 2450 4666 
L 2450 531 
L 3481 531 
L 3481 0 
L 794 0 
L 794 531 
z
" transform="scale(0.015625)"/>
       </defs>
       <use xlink:href="#DejaVuSans-31"/>
       <use xlink:href="#DejaVuSans-30" x="63.623047"/>
       <use xlink:href="#DejaVuSans-30" x="127.246094"/>
       <use xlink:href="#DejaVuSans-30" x="190.869141"/>
      </g>
     </g>
    </g>
    <g id="text_7">
     <!-- Episode -->
     <g transform="translate(228.91875 345.275781)scale(0.15 -0.15)">
      <defs>
       <path id="DejaVuSans-45" d="M 628 4666 
L 3578 4666 
L 3578 4134 
L 1259 4134 
L 1259 2753 
L 3481 2753 
L 3481 2222 
L 1259 2222 
L 1259 531 
L 3634 531 
L 3634 0 
L 628 0 
L 628 4666 
z
" transform="scale(0.015625)"/>
       <path id="DejaVuSans-70" d="M 1159 525 
L 1159 -1331 
L 581 -1331 
L 581 3500 
L 1159 3500 
L 1159 2969 
Q 1341 3281 1617 3432 
Q 1894 3584 2278 3584 
Q 2916 3584 3314 3078 
Q 3713 2572 3713 1747 
Q 3713 922 3314 415 
Q 2916 -91 2278 -91 
Q 1894 -91 1617 61 
Q 1341 213 1159 525 
z
M 3116 1747 
Q 3116 2381 2855 2742 
Q 2594 3103 2138 3103 
Q 1681 3103 1420 2742 
Q 1159 2381 1159 1747 
Q 1159 1113 1420 752 
Q 1681 391 2138 391 
Q 2594 391 2855 752 
Q 3116 1113 3116 1747 
z
" transform="scale(0.015625)"/>
       <path id="DejaVuSans-69" d="M 603 3500 
L 1178 3500 
L 1178 0 
L 603 0 
L 603 3500 
z
M 603 4863 
L 1178 4863 
L 1178 4134 
L 603 4134 
L 603 4863 
z
" transform="scale(0.015625)"/>
       <path id="DejaVuSans-73" d="M 2834 3397 
L 2834 2853 
Q 2591 2978 2328 3040 
Q 2066 3103 1784 3103 
Q 1356 3103 1142 2972 
Q 928 2841 928 2578 
Q 928 2378 1081 2264 
Q 1234 2150 1697 2047 
L 1894 2003 
Q 2506 1872 2764 1633 
Q 3022 1394 3022 966 
Q 3022 478 2636 193 
Q 2250 -91 1575 -91 
Q 1294 -91 989 -36 
Q 684 19 347 128 
L 347 722 
Q 666 556 975 473 
Q 1284 391 1588 391 
Q 1994 391 2212 530 
Q 2431 669 2431 922 
Q 2431 1156 2273 1281 
Q 2116 1406 1581 1522 
L 1381 1569 
Q 847 1681 609 1914 
Q 372 2147 372 2553 
Q 372 3047 722 3315 
Q 1072 3584 1716 3584 
Q 2034 3584 2315 3537 
Q 2597 3491 2834 3397 
z
" transform="scale(0.015625)"/>
       <path id="DejaVuSans-6f" d="M 1959 3097 
Q 1497 3097 1228 2736 
Q 959 2375 959 1747 
Q 959 1119 1226 758 
Q 1494 397 1959 397 
Q 2419 397 2687 759 
Q 2956 1122 2956 1747 
Q 2956 2369 2687 2733 
Q 2419 3097 1959 3097 
z
M 1959 3584 
Q 2709 3584 3137 3096 
Q 3566 2609 3566 1747 
Q 3566 888 3137 398 
Q 2709 -91 1959 -91 
Q 1206 -91 779 398 
Q 353 888 353 1747 
Q 353 2609 779 3096 
Q 1206 3584 1959 3584 
z
" transform="scale(0.015625)"/>
       <path id="DejaVuSans-64" d="M 2906 2969 
L 2906 4863 
L 3481 4863 
L 3481 0 
L 2906 0 
L 2906 525 
Q 2725 213 2448 61 
Q 2172 -91 1784 -91 
Q 1150 -91 751 415 
Q 353 922 353 1747 
Q 353 2572 751 3078 
Q 1150 3584 1784 3584 
Q 2172 3584 2448 3432 
Q 2725 3281 2906 2969 
z
M 947 1747 
Q 947 1113 1208 752 
Q 1469 391 1925 391 
Q 2381 391 2643 752 
Q 2906 1113 2906 1747 
Q 2906 2381 2643 2742 
Q 2381 3103 1925 3103 
Q 1469 3103 1208 2742 
Q 947 2381 947 1747 
z
" transform="scale(0.015625)"/>
       <path id="DejaVuSans-65" d="M 3597 1894 
L 3597 1613 
L 953 1613 
Q 991 1019 1311 708 
Q 1631 397 2203 397 
Q 2534 397 2845 478 
Q 3156 559 3463 722 
L 3463 178 
Q 3153 47 2828 -22 
Q 2503 -91 2169 -91 
Q 1331 -91 842 396 
Q 353 884 353 1716 
Q 353 2575 817 3079 
Q 1281 3584 2069 3584 
Q 2775 3584 3186 3129 
Q 3597 2675 3597 1894 
z
M 3022 2063 
Q 3016 2534 2758 2815 
Q 2500 3097 2075 3097 
Q 1594 3097 1305 2825 
Q 1016 2553 972 2059 
L 3022 2063 
z
" transform="scale(0.015625)"/>
      </defs>
      <use xlink:href="#DejaVuSans-45"/>
      <use xlink:href="#DejaVuSans-70" x="63.183594"/>
      <use xlink:href="#DejaVuSans-69" x="126.660156"/>
      <use xlink:href="#DejaVuSans-73" x="154.443359"/>
      <use xlink:href="#DejaVuSans-6f" x="206.542969"/>
      <use xlink:href="#DejaVuSans-64" x="267.724609"/>
      <use xlink:href="#DejaVuSans-65" x="331.201172"/>
     </g>
    </g>
   </g>
   <g id="matplotlib.axis_2">
    <g id="ytick_1">
     <g id="line2d_7">
      <defs>
       <path id="m6d802409a4" d="M 0 0 
L -3.5 0 
" style="stroke: #000000; stroke-width: 0.8"/>
      </defs>
      <g>
       <use xlink:href="#m6d802409a4" x="55.925" y="313.2" style="stroke: #000000; stroke-width: 0.8"/>
      </g>
     </g>
     <g id="text_8">
      <!-- 0 -->
      <g transform="translate(42.5625 316.999219)scale(0.1 -0.1)">
       <use xlink:href="#DejaVuSans-30"/>
      </g>
     </g>
    </g>
    <g id="ytick_2">
     <g id="line2d_8">
      <g>
       <use xlink:href="#m6d802409a4" x="55.925" y="269.446154" style="stroke: #000000; stroke-width: 0.8"/>
      </g>
     </g>
     <g id="text_9">
      <!-- 100 -->
      <g transform="translate(29.8375 273.245373)scale(0.1 -0.1)">
       <use xlink:href="#DejaVuSans-31"/>
       <use xlink:href="#DejaVuSans-30" x="63.623047"/>
       <use xlink:href="#DejaVuSans-30" x="127.246094"/>
      </g>
     </g>
    </g>
    <g id="ytick_3">
     <g id="line2d_9">
      <g>
       <use xlink:href="#m6d802409a4" x="55.925" y="225.692308" style="stroke: #000000; stroke-width: 0.8"/>
      </g>
     </g>
     <g id="text_10">
      <!-- 200 -->
      <g transform="translate(29.8375 229.491526)scale(0.1 -0.1)">
       <use xlink:href="#DejaVuSans-32"/>
       <use xlink:href="#DejaVuSans-30" x="63.623047"/>
       <use xlink:href="#DejaVuSans-30" x="127.246094"/>
      </g>
     </g>
    </g>
    <g id="ytick_4">
     <g id="line2d_10">
      <g>
       <use xlink:href="#m6d802409a4" x="55.925" y="181.938462" style="stroke: #000000; stroke-width: 0.8"/>
      </g>
     </g>
     <g id="text_11">
      <!-- 300 -->
      <g transform="translate(29.8375 185.73768)scale(0.1 -0.1)">
       <defs>
        <path id="DejaVuSans-33" d="M 2597 2516 
Q 3050 2419 3304 2112 
Q 3559 1806 3559 1356 
Q 3559 666 3084 287 
Q 2609 -91 1734 -91 
Q 1441 -91 1130 -33 
Q 819 25 488 141 
L 488 750 
Q 750 597 1062 519 
Q 1375 441 1716 441 
Q 2309 441 2620 675 
Q 2931 909 2931 1356 
Q 2931 1769 2642 2001 
Q 2353 2234 1838 2234 
L 1294 2234 
L 1294 2753 
L 1863 2753 
Q 2328 2753 2575 2939 
Q 2822 3125 2822 3475 
Q 2822 3834 2567 4026 
Q 2313 4219 1838 4219 
Q 1578 4219 1281 4162 
Q 984 4106 628 3988 
L 628 4550 
Q 988 4650 1302 4700 
Q 1616 4750 1894 4750 
Q 2613 4750 3031 4423 
Q 3450 4097 3450 3541 
Q 3450 3153 3228 2886 
Q 3006 2619 2597 2516 
z
" transform="scale(0.015625)"/>
       </defs>
       <use xlink:href="#DejaVuSans-33"/>
       <use xlink:href="#DejaVuSans-30" x="63.623047"/>
       <use xlink:href="#DejaVuSans-30" x="127.246094"/>
      </g>
     </g>
    </g>
    <g id="ytick_5">
     <g id="line2d_11">
      <g>
       <use xlink:href="#m6d802409a4" x="55.925" y="138.184615" style="stroke: #000000; stroke-width: 0.8"/>
      </g>
     </g>
     <g id="text_12">
      <!-- 400 -->
      <g transform="translate(29.8375 141.983834)scale(0.1 -0.1)">
       <use xlink:href="#DejaVuSans-34"/>
       <use xlink:href="#DejaVuSans-30" x="63.623047"/>
       <use xlink:href="#DejaVuSans-30" x="127.246094"/>
      </g>
     </g>
    </g>
    <g id="ytick_6">
     <g id="line2d_12">
      <g>
       <use xlink:href="#m6d802409a4" x="55.925" y="94.430769" style="stroke: #000000; stroke-width: 0.8"/>
      </g>
     </g>
     <g id="text_13">
      <!-- 500 -->
      <g transform="translate(29.8375 98.229988)scale(0.1 -0.1)">
       <defs>
        <path id="DejaVuSans-35" d="M 691 4666 
L 3169 4666 
L 3169 4134 
L 1269 4134 
L 1269 2991 
Q 1406 3038 1543 3061 
Q 1681 3084 1819 3084 
Q 2600 3084 3056 2656 
Q 3513 2228 3513 1497 
Q 3513 744 3044 326 
Q 2575 -91 1722 -91 
Q 1428 -91 1123 -41 
Q 819 9 494 109 
L 494 744 
Q 775 591 1075 516 
Q 1375 441 1709 441 
Q 2250 441 2565 725 
Q 2881 1009 2881 1497 
Q 2881 1984 2565 2268 
Q 2250 2553 1709 2553 
Q 1456 2553 1204 2497 
Q 953 2441 691 2322 
L 691 4666 
z
" transform="scale(0.015625)"/>
       </defs>
       <use xlink:href="#DejaVuSans-35"/>
       <use xlink:href="#DejaVuSans-30" x="63.623047"/>
       <use xlink:href="#DejaVuSans-30" x="127.246094"/>
      </g>
     </g>
    </g>
    <g id="ytick_7">
     <g id="line2d_13">
      <g>
       <use xlink:href="#m6d802409a4" x="55.925" y="50.676923" style="stroke: #000000; stroke-width: 0.8"/>
      </g>
     </g>
     <g id="text_14">
      <!-- 600 -->
      <g transform="translate(29.8375 54.476142)scale(0.1 -0.1)">
       <use xlink:href="#DejaVuSans-36"/>
       <use xlink:href="#DejaVuSans-30" x="63.623047"/>
       <use xlink:href="#DejaVuSans-30" x="127.246094"/>
      </g>
     </g>
    </g>
    <g id="text_15">
     <!-- Score -->
     <g transform="translate(22.717969 192.003516)rotate(-90)scale(0.15 -0.15)">
      <defs>
       <path id="DejaVuSans-53" d="M 3425 4513 
L 3425 3897 
Q 3066 4069 2747 4153 
Q 2428 4238 2131 4238 
Q 1616 4238 1336 4038 
Q 1056 3838 1056 3469 
Q 1056 3159 1242 3001 
Q 1428 2844 1947 2747 
L 2328 2669 
Q 3034 2534 3370 2195 
Q 3706 1856 3706 1288 
Q 3706 609 3251 259 
Q 2797 -91 1919 -91 
Q 1588 -91 1214 -16 
Q 841 59 441 206 
L 441 856 
Q 825 641 1194 531 
Q 1563 422 1919 422 
Q 2459 422 2753 634 
Q 3047 847 3047 1241 
Q 3047 1584 2836 1778 
Q 2625 1972 2144 2069 
L 1759 2144 
Q 1053 2284 737 2584 
Q 422 2884 422 3419 
Q 422 4038 858 4394 
Q 1294 4750 2059 4750 
Q 2388 4750 2728 4690 
Q 3069 4631 3425 4513 
z
" transform="scale(0.015625)"/>
       <path id="DejaVuSans-63" d="M 3122 3366 
L 3122 2828 
Q 2878 2963 2633 3030 
Q 2388 3097 2138 3097 
Q 1578 3097 1268 2742 
Q 959 2388 959 1747 
Q 959 1106 1268 751 
Q 1578 397 2138 397 
Q 2388 397 2633 464 
Q 2878 531 3122 666 
L 3122 134 
Q 2881 22 2623 -34 
Q 2366 -91 2075 -91 
Q 1284 -91 818 406 
Q 353 903 353 1747 
Q 353 2603 823 3093 
Q 1294 3584 2113 3584 
Q 2378 3584 2631 3529 
Q 2884 3475 3122 3366 
z
" transform="scale(0.015625)"/>
       <path id="DejaVuSans-72" d="M 2631 2963 
Q 2534 3019 2420 3045 
Q 2306 3072 2169 3072 
Q 1681 3072 1420 2755 
Q 1159 2438 1159 1844 
L 1159 0 
L 581 0 
L 581 3500 
L 1159 3500 
L 1159 2956 
Q 1341 3275 1631 3429 
Q 1922 3584 2338 3584 
Q 2397 3584 2469 3576 
Q 2541 3569 2628 3553 
L 2631 2963 
z
" transform="scale(0.015625)"/>
      </defs>
      <use xlink:href="#DejaVuSans-53"/>
      <use xlink:href="#DejaVuSans-63" x="63.476562"/>
      <use xlink:href="#DejaVuSans-6f" x="118.457031"/>
      <use xlink:href="#DejaVuSans-72" x="179.638672"/>
      <use xlink:href="#DejaVuSans-65" x="218.501953"/>
     </g>
    </g>
   </g>
   <g id="line2d_14">
    <path d="M 74.329545 308.387077 
L 75.066464 293.073231 
L 75.434924 308.824615 
L 75.803383 304.011692 
L 76.171842 307.074462 
L 76.540302 307.949538 
L 76.908761 307.512 
L 77.27722 305.761846 
L 77.64568 303.136615 
L 78.014139 306.199385 
L 78.382599 305.324308 
L 78.751058 306.199385 
L 79.119517 295.260923 
L 79.856436 308.824615 
L 80.224895 305.324308 
L 80.593355 308.387077 
L 80.961814 297.011077 
L 81.330273 305.761846 
L 81.698733 285.635077 
L 82.067192 305.324308 
L 82.435652 297.011077 
L 82.804111 308.387077 
L 83.17257 307.512 
L 83.54103 307.074462 
L 83.909489 307.949538 
L 84.277948 307.512 
L 84.646408 307.512 
L 85.014867 303.136615 
L 85.383327 293.948308 
L 85.751786 307.512 
L 86.120245 308.824615 
L 86.488705 308.387077 
L 86.857164 308.387077 
L 87.225623 304.011692 
L 87.594083 305.761846 
L 87.962542 306.636923 
L 88.331001 308.387077 
L 89.06792 307.512 
L 89.43638 304.886769 
L 89.804839 300.511385 
L 90.173298 306.636923 
L 90.541758 308.824615 
L 90.910217 305.761846 
L 91.278676 308.824615 
L 91.647136 305.761846 
L 92.015595 300.073846 
L 92.752514 308.387077 
L 93.120973 300.948923 
L 93.489433 307.074462 
L 93.857892 306.199385 
L 94.226351 302.261538 
L 94.594811 308.387077 
L 95.331729 303.574154 
L 95.700189 301.386462 
L 96.068648 307.512 
L 96.437108 307.512 
L 96.805567 308.824615 
L 97.174026 274.696615 
L 97.542486 305.761846 
L 97.910945 309.262154 
L 98.279404 307.512 
L 98.647864 307.512 
L 99.016323 308.824615 
L 99.384783 301.386462 
L 99.753242 304.011692 
L 100.121701 303.136615 
L 100.490161 292.198154 
L 101.227079 302.699077 
L 101.595539 303.574154 
L 101.963998 308.824615 
L 102.332457 304.886769 
L 102.700917 307.074462 
L 103.069376 307.949538 
L 103.437836 302.261538 
L 103.806295 304.886769 
L 104.174754 308.824615 
L 104.543214 299.198769 
L 104.911673 302.261538 
L 105.280132 306.636923 
L 105.648592 306.199385 
L 106.017051 307.512 
L 106.385511 305.324308 
L 106.75397 299.198769 
L 107.122429 302.699077 
L 107.490889 304.886769 
L 107.859348 299.198769 
L 108.227807 303.574154 
L 108.596267 298.761231 
L 108.964726 306.636923 
L 109.333185 304.886769 
L 109.701645 301.386462 
L 110.070104 305.324308 
L 110.438564 305.324308 
L 110.807023 306.199385 
L 111.175482 302.699077 
L 111.543942 302.261538 
L 111.912401 302.699077 
L 112.28086 301.824 
L 112.64932 301.386462 
L 113.017779 307.074462 
L 113.386239 289.135385 
L 113.754698 305.324308 
L 114.123157 306.199385 
L 114.491617 304.011692 
L 114.860076 289.572923 
L 115.228535 305.761846 
L 115.596995 297.448615 
L 115.965454 307.949538 
L 116.333913 309.262154 
L 116.702373 307.512 
L 117.070832 307.074462 
L 117.439292 307.074462 
L 117.807751 282.572308 
L 118.17621 297.886154 
L 118.54467 303.136615 
L 118.913129 303.136615 
L 119.281588 304.449231 
L 119.650048 308.387077 
L 120.018507 307.074462 
L 120.386967 284.322462 
L 120.755426 302.261538 
L 121.123885 290.885538 
L 121.492345 302.699077 
L 121.860804 305.761846 
L 122.229263 305.324308 
L 122.597723 307.949538 
L 122.966182 305.324308 
L 123.334641 305.324308 
L 123.703101 297.886154 
L 124.07156 306.636923 
L 124.44002 305.761846 
L 124.808479 298.761231 
L 125.176938 298.323692 
L 125.545398 308.387077 
L 125.913857 303.136615 
L 126.282316 303.136615 
L 126.650776 302.699077 
L 127.019235 302.699077 
L 127.387695 303.574154 
L 127.756154 307.074462 
L 128.124613 303.136615 
L 128.493073 306.636923 
L 128.861532 300.073846 
L 129.229991 306.199385 
L 129.598451 305.324308 
L 129.96691 297.448615 
L 130.335369 304.449231 
L 130.703829 308.387077 
L 131.072288 304.011692 
L 131.809207 307.512 
L 132.177666 287.385231 
L 132.546126 303.136615 
L 132.914585 304.449231 
L 133.283044 302.699077 
L 133.651504 304.886769 
L 134.019963 299.198769 
L 134.388423 300.948923 
L 134.756882 282.134769 
L 135.125341 307.512 
L 135.86226 293.510769 
L 136.230719 301.386462 
L 136.599179 306.636923 
L 136.967638 308.824615 
L 137.336097 304.449231 
L 137.704557 305.324308 
L 138.073016 294.823385 
L 138.441476 308.387077 
L 138.809935 302.261538 
L 139.178394 292.635692 
L 139.546854 302.699077 
L 139.915313 300.948923 
L 140.283772 285.197538 
L 140.652232 295.260923 
L 141.020691 289.135385 
L 141.389151 296.573538 
L 141.75761 287.385231 
L 142.126069 304.886769 
L 142.494529 297.886154 
L 142.862988 306.199385 
L 143.231447 307.074462 
L 143.599907 295.698462 
L 143.968366 306.199385 
L 144.336825 303.574154 
L 144.705285 304.011692 
L 145.073744 307.512 
L 145.442204 297.011077 
L 145.810663 307.512 
L 146.179122 298.323692 
L 146.547582 309.699692 
L 146.916041 305.761846 
L 147.2845 304.886769 
L 147.65296 269.446154 
L 148.021419 303.574154 
L 148.389879 293.073231 
L 148.758338 300.948923 
L 149.126797 302.261538 
L 149.495257 274.696615 
L 149.863716 306.636923 
L 150.232175 290.885538 
L 150.600635 302.261538 
L 150.969094 306.199385 
L 151.337553 303.574154 
L 151.706013 305.761846 
L 152.074472 302.699077 
L 152.442932 285.197538 
L 152.811391 305.761846 
L 153.17985 297.448615 
L 153.54831 304.449231 
L 153.916769 287.385231 
L 154.285228 307.949538 
L 154.653688 305.324308 
L 155.022147 299.198769 
L 155.390607 300.073846 
L 155.759066 304.449231 
L 156.127525 293.948308 
L 156.495985 299.636308 
L 156.864444 301.824 
L 157.232903 307.949538 
L 157.601363 308.824615 
L 157.969822 304.011692 
L 158.338281 308.824615 
L 158.706741 308.387077 
L 159.0752 293.510769 
L 159.44366 295.698462 
L 160.180578 302.699077 
L 160.549038 298.323692 
L 160.917497 284.322462 
L 161.285956 300.073846 
L 161.654416 300.073846 
L 162.022875 307.512 
L 162.391335 293.948308 
L 162.759794 307.512 
L 163.128253 282.572308 
L 163.496713 297.011077 
L 163.865172 304.011692 
L 164.233631 296.573538 
L 164.602091 283.009846 
L 164.97055 299.198769 
L 165.339009 306.199385 
L 165.707469 297.886154 
L 166.075928 298.761231 
L 166.444388 301.824 
L 166.812847 297.886154 
L 167.181306 307.949538 
L 167.549766 302.261538 
L 167.918225 290.885538 
L 168.286684 292.198154 
L 169.023603 307.512 
L 169.392063 307.074462 
L 169.760522 307.074462 
L 170.497441 293.948308 
L 170.8659 307.949538 
L 171.602819 296.136 
L 171.971278 306.199385 
L 172.339737 305.761846 
L 172.708197 301.824 
L 173.076656 289.135385 
L 173.445116 289.135385 
L 173.813575 300.073846 
L 174.182034 292.635692 
L 174.550494 297.448615 
L 174.918953 306.636923 
L 175.287412 259.382769 
L 175.655872 306.636923 
L 176.024331 281.697231 
L 176.392791 298.761231 
L 176.76125 286.072615 
L 177.129709 305.324308 
L 177.498169 299.198769 
L 177.866628 286.072615 
L 178.235087 291.760615 
L 178.603547 305.761846 
L 178.972006 290.448 
L 179.340465 301.386462 
L 179.708925 297.448615 
L 180.077384 300.073846 
L 180.445844 288.697846 
L 180.814303 299.198769 
L 181.182762 302.261538 
L 181.551222 302.261538 
L 181.919681 305.324308 
L 182.28814 295.260923 
L 182.6566 292.198154 
L 183.025059 293.073231 
L 183.393519 291.760615 
L 183.761978 300.948923 
L 184.130437 305.324308 
L 184.498897 274.696615 
L 184.867356 300.073846 
L 185.235815 281.259692 
L 185.604275 299.198769 
L 185.972734 296.136 
L 186.341193 287.822769 
L 186.709653 301.386462 
L 187.078112 292.198154 
L 187.446572 288.260308 
L 187.815031 290.448 
L 188.18349 286.072615 
L 188.55195 288.697846 
L 188.920409 303.574154 
L 189.288868 270.758769 
L 189.657328 306.199385 
L 190.025787 277.321846 
L 190.394247 296.573538 
L 190.762706 304.886769 
L 191.499625 294.823385 
L 191.868084 297.886154 
L 192.236543 299.198769 
L 192.605003 295.260923 
L 192.973462 293.073231 
L 193.341921 279.072 
L 193.710381 297.448615 
L 194.07884 294.823385 
L 194.4473 286.947692 
L 194.815759 288.697846 
L 195.184218 285.635077 
L 195.552678 298.323692 
L 196.289596 294.385846 
L 196.658056 290.448 
L 197.026515 283.009846 
L 197.394975 304.449231 
L 197.763434 290.885538 
L 198.131893 304.449231 
L 198.500353 291.323077 
L 198.868812 296.136 
L 199.237271 297.886154 
L 199.605731 293.948308 
L 199.97419 292.635692 
L 200.342649 294.385846 
L 200.711109 295.260923 
L 201.079568 264.195692 
L 201.448028 299.636308 
L 201.816487 291.323077 
L 202.184946 304.886769 
L 202.553406 299.198769 
L 202.921865 290.010462 
L 203.290324 295.260923 
L 203.658784 286.947692 
L 204.027243 285.635077 
L 204.395703 265.945846 
L 204.764162 297.011077 
L 205.132621 280.384615 
L 205.501081 305.324308 
L 205.86954 301.824 
L 206.237999 263.758154 
L 206.606459 291.323077 
L 206.974918 303.136615 
L 207.343377 300.073846 
L 207.711837 288.260308 
L 208.080296 302.261538 
L 208.448756 296.573538 
L 208.817215 287.822769 
L 209.185674 269.446154 
L 209.922593 302.261538 
L 210.291052 299.198769 
L 210.659512 262.883077 
L 211.027971 289.572923 
L 211.396431 301.386462 
L 211.76489 281.697231 
L 212.133349 300.073846 
L 212.501809 271.633846 
L 212.870268 267.258462 
L 213.238727 280.384615 
L 213.607187 278.196923 
L 213.975646 290.885538 
L 214.344105 272.508923 
L 214.712565 301.386462 
L 215.081024 290.010462 
L 215.449484 290.885538 
L 215.817943 280.384615 
L 216.186402 280.384615 
L 216.554862 287.385231 
L 216.923321 280.822154 
L 217.29178 295.260923 
L 217.66024 289.135385 
L 218.028699 296.573538 
L 218.397159 279.072 
L 218.765618 277.321846 
L 219.134077 279.509538 
L 219.502537 290.448 
L 219.870996 294.823385 
L 220.239455 273.821538 
L 220.607915 301.386462 
L 221.344833 272.946462 
L 221.713293 291.323077 
L 222.081752 269.446154 
L 222.450212 301.386462 
L 222.818671 303.574154 
L 223.18713 283.009846 
L 223.55559 296.573538 
L 223.924049 300.073846 
L 224.660968 270.321231 
L 225.397887 283.884923 
L 225.766346 299.636308 
L 226.134805 281.259692 
L 226.503265 276.884308 
L 226.871724 269.446154 
L 227.240183 290.010462 
L 227.608643 283.447385 
L 227.977102 292.635692 
L 228.345561 293.948308 
L 228.714021 229.630154 
L 229.08248 281.697231 
L 229.45094 294.385846 
L 229.819399 278.196923 
L 230.187858 251.944615 
L 230.556318 265.070769 
L 230.924777 290.885538 
L 231.293236 289.135385 
L 231.661696 273.821538 
L 232.030155 294.823385 
L 232.398615 268.133538 
L 232.767074 285.635077 
L 233.135533 274.259077 
L 233.503993 275.571692 
L 233.872452 263.320615 
L 234.609371 290.010462 
L 234.97783 262.883077 
L 235.346289 271.196308 
L 236.083208 249.756923 
L 236.451668 294.823385 
L 236.820127 291.760615 
L 237.188586 285.635077 
L 237.557046 296.136 
L 237.925505 272.071385 
L 238.293964 284.76 
L 238.662424 290.448 
L 239.030883 282.572308 
L 239.399343 304.886769 
L 239.767802 283.884923 
L 240.136261 271.633846 
L 240.504721 281.697231 
L 240.87318 270.758769 
L 241.241639 287.822769 
L 241.610099 281.697231 
L 241.978558 282.134769 
L 242.347017 252.382154 
L 242.715477 279.072 
L 243.083936 288.697846 
L 243.452396 263.320615 
L 243.820855 287.822769 
L 244.189314 273.384 
L 244.557774 290.010462 
L 244.926233 292.198154 
L 245.294692 264.195692 
L 245.663152 264.195692 
L 246.031611 255.882462 
L 246.400071 297.011077 
L 246.76853 284.76 
L 247.136989 234.005538 
L 247.505449 288.697846 
L 247.873908 285.635077 
L 248.242367 284.76 
L 248.610827 289.572923 
L 248.979286 272.071385 
L 249.347745 287.385231 
L 249.716205 297.011077 
L 250.084664 263.320615 
L 250.453124 272.071385 
L 250.821583 276.009231 
L 251.190042 287.822769 
L 251.558502 290.010462 
L 251.926961 265.508308 
L 252.29542 286.510154 
L 252.66388 293.073231 
L 253.032339 271.633846 
L 253.400799 284.322462 
L 253.769258 286.510154 
L 254.137717 284.76 
L 254.506177 299.636308 
L 254.874636 297.011077 
L 255.243095 299.636308 
L 255.611555 282.134769 
L 255.980014 287.822769 
L 256.348473 288.260308 
L 256.716933 285.635077 
L 257.085392 281.697231 
L 257.453852 294.823385 
L 257.822311 285.197538 
L 258.19077 287.385231 
L 258.55923 256.32 
L 258.927689 297.886154 
L 259.296148 276.009231 
L 259.664608 285.197538 
L 260.033067 300.073846 
L 260.401527 270.321231 
L 260.769986 294.823385 
L 261.138445 290.448 
L 261.506905 251.944615 
L 261.875364 291.323077 
L 262.243823 241.443692 
L 262.612283 286.072615 
L 262.980742 287.385231 
L 263.349201 288.260308 
L 263.717661 287.385231 
L 264.08612 291.760615 
L 264.45458 293.073231 
L 264.823039 284.76 
L 265.191498 234.443077 
L 265.559958 274.259077 
L 265.928417 276.009231 
L 266.296876 244.068923 
L 267.033795 275.571692 
L 267.402255 282.572308 
L 267.770714 244.944 
L 268.507633 282.134769 
L 268.876092 261.570462 
L 269.244551 289.135385 
L 269.613011 273.821538 
L 269.98147 270.321231 
L 270.349929 262.445538 
L 270.718389 257.195077 
L 271.086848 288.260308 
L 271.455308 281.697231 
L 271.823767 265.508308 
L 272.192226 280.384615 
L 272.560686 280.384615 
L 272.929145 286.072615 
L 273.297604 254.132308 
L 273.666064 285.635077 
L 274.034523 246.694154 
L 274.771442 289.135385 
L 275.139901 268.571077 
L 275.508361 268.571077 
L 275.87682 280.384615 
L 276.245279 189.376615 
L 276.982198 290.010462 
L 277.350657 266.383385 
L 277.719117 234.880615 
L 278.824495 276.009231 
L 279.192954 256.32 
L 279.561414 207.315692 
L 279.929873 236.193231 
L 280.298332 277.759385 
L 280.666792 290.010462 
L 281.035251 292.635692 
L 281.403711 249.756923 
L 281.77217 275.571692 
L 282.140629 271.633846 
L 282.509089 259.820308 
L 282.877548 284.322462 
L 283.246007 273.821538 
L 283.614467 270.321231 
L 283.982926 255.882462 
L 284.351385 259.382769 
L 284.719845 256.32 
L 285.456764 281.259692 
L 285.825223 253.257231 
L 286.193682 253.257231 
L 286.562142 249.319385 
L 286.930601 240.568615 
L 287.29906 264.195692 
L 287.66752 275.134154 
L 288.035979 234.880615 
L 288.404439 246.256615 
L 288.772898 279.072 
L 289.509817 224.379692 
L 289.878276 239.693538 
L 290.246735 228.317538 
L 290.615195 262.445538 
L 290.983654 260.695385 
L 291.352113 262.008 
L 291.720573 259.820308 
L 292.089032 245.819077 
L 292.457492 245.381538 
L 292.825951 257.632615 
L 293.19441 279.072 
L 293.56287 219.566769 
L 293.931329 267.696 
L 294.299788 266.820923 
L 294.668248 231.817846 
L 295.036707 270.758769 
L 295.405167 253.257231 
L 295.773626 248.006769 
L 296.142085 236.630769 
L 296.510545 218.691692 
L 296.879004 227.442462 
L 297.247463 203.815385 
L 297.615923 281.697231 
L 297.984382 265.508308 
L 298.352841 222.192 
L 298.721301 259.820308 
L 299.08976 257.195077 
L 299.45822 237.068308 
L 299.826679 245.819077 
L 300.195138 270.321231 
L 300.563598 279.509538 
L 301.300516 227.442462 
L 301.668976 278.196923 
L 302.037435 281.259692 
L 302.405895 272.508923 
L 302.774354 267.696 
L 303.142813 251.507077 
L 303.511273 276.446769 
L 303.879732 251.069538 
L 304.248191 234.005538 
L 304.616651 283.009846 
L 305.353569 234.443077 
L 305.722029 265.508308 
L 306.090488 268.133538 
L 306.827407 229.630154 
L 307.195866 261.570462 
L 307.564326 248.006769 
L 307.932785 254.132308 
L 308.301244 275.571692 
L 308.669704 254.132308 
L 309.038163 253.257231 
L 309.406623 227.004923 
L 309.775082 271.633846 
L 310.143541 242.318769 
L 310.512001 256.757538 
L 310.88046 278.196923 
L 311.248919 283.447385 
L 311.617379 272.946462 
L 311.985838 265.945846 
L 312.354297 276.009231 
L 312.722757 280.384615 
L 313.091216 286.510154 
L 313.459676 249.319385 
L 313.828135 269.008615 
L 314.196594 278.634462 
L 314.565054 249.756923 
L 314.933513 265.070769 
L 315.301972 267.696 
L 315.670432 281.697231 
L 316.038891 263.758154 
L 316.407351 257.195077 
L 316.77581 271.196308 
L 317.144269 279.509538 
L 317.512729 255.444923 
L 317.881188 246.694154 
L 318.249647 279.947077 
L 318.618107 285.635077 
L 318.986566 284.322462 
L 319.723485 275.134154 
L 320.091944 282.134769 
L 320.460404 274.696615 
L 320.828863 274.696615 
L 321.197322 286.072615 
L 321.565782 287.385231 
L 321.934241 286.072615 
L 322.3027 275.571692 
L 322.67116 276.884308 
L 323.039619 273.821538 
L 323.408079 281.697231 
L 323.776538 282.572308 
L 324.144997 273.821538 
L 324.513457 274.259077 
L 324.881916 272.071385 
L 325.250375 285.197538 
L 325.618835 282.572308 
L 325.987294 276.446769 
L 326.355753 278.196923 
L 326.724213 288.697846 
L 327.092672 275.134154 
L 327.461132 289.135385 
L 327.829591 280.384615 
L 328.19805 283.884923 
L 328.56651 280.822154 
L 328.934969 293.073231 
L 329.303428 283.447385 
L 329.671888 283.447385 
L 330.040347 286.072615 
L 330.408807 282.134769 
L 330.777266 279.509538 
L 331.145725 291.760615 
L 331.514185 280.822154 
L 331.882644 281.697231 
L 332.251103 283.447385 
L 332.988022 296.136 
L 333.356481 293.073231 
L 333.724941 279.072 
L 334.0934 281.259692 
L 334.46186 290.010462 
L 335.198778 294.823385 
L 335.567238 282.572308 
L 335.935697 288.260308 
L 336.304156 288.697846 
L 336.672616 294.823385 
L 337.041075 296.573538 
L 337.777994 294.823385 
L 338.146453 293.510769 
L 338.514913 293.073231 
L 338.883372 291.323077 
L 339.251831 295.260923 
L 339.620291 281.697231 
L 339.98875 300.511385 
L 340.357209 293.510769 
L 340.725669 296.573538 
L 341.094128 285.197538 
L 341.462588 299.198769 
L 341.831047 289.135385 
L 342.199506 288.697846 
L 342.567966 289.572923 
L 342.936425 286.072615 
L 343.304884 285.635077 
L 343.673344 293.948308 
L 344.041803 296.136 
L 344.410263 287.385231 
L 344.778722 285.635077 
L 345.147181 272.946462 
L 345.515641 290.885538 
L 345.8841 282.572308 
L 346.252559 262.883077 
L 346.621019 284.76 
L 346.989478 280.822154 
L 347.357937 286.510154 
L 348.094856 249.319385 
L 348.463316 272.071385 
L 348.831775 279.509538 
L 349.200234 269.446154 
L 349.568694 252.819692 
L 349.937153 259.382769 
L 350.305612 272.508923 
L 350.674072 271.633846 
L 351.042531 280.384615 
L 351.410991 283.009846 
L 351.77945 269.883692 
L 352.147909 263.758154 
L 352.516369 225.692308 
L 352.884828 251.069538 
L 353.253287 256.757538 
L 353.621747 278.634462 
L 353.990206 243.193846 
L 354.358665 271.196308 
L 354.727125 271.196308 
L 355.095584 291.760615 
L 355.464044 256.757538 
L 355.832503 252.819692 
L 356.200962 243.631385 
L 356.569422 221.754462 
L 356.937881 274.696615 
L 357.30634 265.508308 
L 357.6748 277.321846 
L 358.043259 273.821538 
L 358.411719 272.946462 
L 358.780178 285.635077 
L 359.148637 277.759385 
L 359.517097 261.132923 
L 359.885556 272.071385 
L 360.254015 231.380308 
L 360.622475 266.383385 
L 360.990934 273.384 
L 361.359393 259.820308 
L 361.727853 236.193231 
L 362.096312 269.446154 
L 362.464772 280.822154 
L 362.833231 276.884308 
L 363.20169 259.382769 
L 363.57015 270.321231 
L 363.938609 285.197538 
L 364.307068 236.630769 
L 364.675528 236.193231 
L 365.043987 240.568615 
L 365.412447 272.946462 
L 365.780906 290.885538 
L 366.149365 283.009846 
L 366.517825 286.072615 
L 366.886284 293.073231 
L 367.254743 278.196923 
L 367.623203 278.196923 
L 367.991662 284.322462 
L 368.360121 281.697231 
L 368.728581 280.384615 
L 369.09704 290.010462 
L 369.4655 292.635692 
L 369.833959 286.072615 
L 370.202418 290.010462 
L 370.570878 281.259692 
L 370.939337 277.321846 
L 371.307796 286.947692 
L 371.676256 271.196308 
L 372.044715 287.822769 
L 372.413175 291.323077 
L 372.781634 289.135385 
L 373.150093 290.448 
L 373.518553 292.635692 
L 373.887012 291.323077 
L 374.255471 290.885538 
L 374.623931 281.259692 
L 374.99239 290.448 
L 375.360849 272.071385 
L 375.729309 292.635692 
L 376.097768 287.822769 
L 376.466228 262.008 
L 376.834687 290.448 
L 377.203146 290.010462 
L 377.940065 290.010462 
L 378.308524 283.447385 
L 378.676984 292.198154 
L 379.045443 262.008 
L 379.413903 289.135385 
L 379.782362 294.823385 
L 380.150821 280.384615 
L 380.519281 282.572308 
L 380.88774 289.135385 
L 381.256199 291.323077 
L 381.624659 257.195077 
L 381.993118 280.822154 
L 382.361577 281.259692 
L 382.730037 284.76 
L 383.098496 265.945846 
L 383.466956 284.322462 
L 383.835415 273.821538 
L 384.203874 289.572923 
L 384.572334 277.321846 
L 384.940793 289.572923 
L 385.309252 268.571077 
L 385.677712 255.882462 
L 386.046171 249.319385 
L 386.78309 280.384615 
L 387.151549 247.131692 
L 387.520009 281.697231 
L 387.888468 289.135385 
L 388.256927 289.135385 
L 388.625387 290.448 
L 388.993846 277.759385 
L 389.362305 279.509538 
L 389.730765 269.446154 
L 390.099224 286.510154 
L 390.467684 288.260308 
L 390.836143 258.070154 
L 391.204602 284.76 
L 391.573062 269.446154 
L 391.941521 273.384 
L 392.30998 273.821538 
L 392.67844 227.004923 
L 393.046899 276.446769 
L 393.415359 181.500923 
L 393.783818 251.507077 
L 394.152277 272.508923 
L 394.520737 162.249231 
L 394.889196 225.254769 
L 395.257655 262.883077 
L 395.626115 256.32 
L 395.994574 253.257231 
L 396.731493 179.313231 
L 397.099952 216.066462 
L 397.468412 186.313846 
L 397.836871 210.378462 
L 398.20533 245.819077 
L 398.942249 95.743385 
L 399.310708 175.812923 
L 399.679168 155.248615 
L 400.047627 94.430769 
L 400.416087 207.753231 
L 400.784546 201.627692 
L 401.153005 206.878154 
L 401.521465 235.755692 
L 401.889924 236.630769 
L 402.258383 245.819077 
L 402.626843 235.318154 
L 402.995302 192.876923 
L 403.363761 220.004308 
L 403.732221 191.564308 
L 404.10068 183.251077 
L 404.46914 217.379077 
L 404.837599 217.816615 
L 405.206058 196.377231 
L 405.574518 221.316923 
L 405.942977 188.939077 
L 406.311436 216.066462 
L 407.048355 166.187077 
L 407.416815 196.377231 
L 408.153733 215.191385 
L 408.522193 208.190769 
L 408.890652 221.316923 
L 409.627571 209.065846 
L 409.99603 222.192 
L 410.364489 224.379692 
L 410.732949 213.441231 
L 411.101408 217.816615 
L 411.469868 213.441231 
L 411.838327 212.566154 
L 412.206786 211.253538 
L 412.575246 208.190769 
L 412.943705 246.694154 
L 413.312164 244.944 
L 413.680624 154.373538 
L 414.049083 121.120615 
L 414.417543 128.996308 
L 414.786002 94.430769 
L 415.154461 180.188308 
L 415.522921 227.004923 
L 415.89138 231.817846 
L 416.259839 212.566154 
L 416.628299 248.006769 
L 416.996758 232.692923 
L 417.365217 267.696 
L 417.733677 244.068923 
L 418.470596 183.688615 
L 419.207514 226.129846 
L 419.575974 234.005538 
L 419.944433 236.630769 
L 420.312892 201.627692 
L 420.681352 234.880615 
L 421.049811 281.697231 
L 421.418271 230.505231 
L 421.78673 204.690462 
L 422.155189 214.316308 
L 422.523649 229.630154 
L 422.892108 252.382154 
L 423.629027 197.252308 
L 423.997486 255.007385 
L 424.365945 252.819692 
L 424.734405 281.259692 
L 425.102864 252.819692 
L 425.471324 254.132308 
L 425.839783 259.382769 
L 426.208242 242.756308 
L 426.576702 233.130462 
L 426.945161 230.942769 
L 427.31362 245.819077 
L 427.68208 252.819692 
L 428.050539 283.884923 
L 428.418999 281.259692 
L 428.787458 251.944615 
L 429.155917 254.132308 
L 429.524377 260.257846 
L 429.892836 246.694154 
L 430.261295 238.380923 
L 430.629755 284.322462 
L 430.998214 279.509538 
L 431.366673 245.381538 
L 432.103592 282.572308 
L 432.472052 283.009846 
L 433.20897 245.819077 
L 433.57743 281.259692 
L 433.945889 285.197538 
L 434.314348 241.881231 
L 434.682808 283.447385 
L 435.051267 242.756308 
L 435.419727 282.572308 
L 435.788186 241.443692 
L 436.156645 285.197538 
L 436.525105 219.129231 
L 436.893564 241.006154 
L 437.262023 241.006154 
L 437.630483 244.068923 
L 437.998942 282.572308 
L 438.367401 207.753231 
L 438.735861 206.878154 
L 439.47278 213.441231 
L 439.841239 194.189538 
L 440.209698 223.067077 
L 440.578158 238.818462 
L 440.946617 228.755077 
L 441.315076 234.880615 
L 441.683536 243.193846 
L 442.051995 237.505846 
L 442.420455 239.693538 
L 442.420455 239.693538 
" clip-path="url(#pd88880ed5c)" style="fill: none; stroke: #708090; stroke-width: 1.5; stroke-linecap: square"/>
   </g>
   <g id="line2d_15">
    <path d="M 74.329545 304.738006 
L 75.066464 304.746757 
L 75.434924 305.026782 
L 77.64568 304.755508 
L 78.751058 304.939274 
L 79.119517 304.309218 
L 79.856436 304.668 
L 80.961814 304.694252 
L 81.330273 304.78176 
L 81.698733 304.746757 
L 82.067192 305.096788 
L 82.435652 304.834265 
L 82.804111 304.851766 
L 83.54103 304.659249 
L 84.277948 304.632997 
L 85.383327 304.615495 
L 85.751786 304.834265 
L 86.120245 304.860517 
L 86.857164 304.545489 
L 87.594083 304.55424 
L 88.331001 304.562991 
L 89.06792 304.274215 
L 92.384055 303.897932 
L 92.752514 303.924185 
L 93.120973 303.810425 
L 93.489433 303.836677 
L 94.594811 303.64416 
L 94.96327 303.617908 
L 95.331729 303.285378 
L 96.437108 303.346634 
L 96.805567 302.987852 
L 97.174026 302.926597 
L 97.542486 303.381637 
L 98.647864 303.425391 
L 99.384783 303.381637 
L 99.753242 303.005354 
L 100.121701 302.882843 
L 100.490161 302.882843 
L 101.227079 303.232874 
L 101.963998 303.41664 
L 102.332457 302.926597 
L 102.700917 302.874092 
L 103.069376 302.550314 
L 103.437836 302.445305 
L 104.174754 302.524062 
L 104.543214 302.50656 
L 105.280132 302.690326 
L 105.648592 302.515311 
L 106.385511 302.489058 
L 107.122429 302.340295 
L 107.490889 302.454055 
L 107.859348 302.419052 
L 108.964726 302.559065 
L 109.701645 302.541563 
L 110.438564 302.602818 
L 111.175482 302.497809 
L 111.543942 302.550314 
L 111.912401 302.454055 
L 112.64932 302.62032 
L 113.386239 302.646572 
L 113.754698 303.014105 
L 114.123157 302.655323 
L 114.860076 302.602818 
L 115.228535 302.865342 
L 116.333913 302.742831 
L 116.702373 302.200283 
L 117.070832 302.200283 
L 117.439292 302.060271 
L 117.807751 301.788997 
L 118.17621 302.16528 
L 118.913129 302.454055 
L 119.650048 302.497809 
L 120.018507 302.226535 
L 120.386967 302.252788 
L 120.755426 302.611569 
L 121.123885 302.419052 
L 121.492345 302.655323 
L 121.860804 302.62032 
L 122.229263 302.209034 
L 122.597723 302.007766 
L 122.966182 301.631483 
L 123.334641 301.456468 
L 123.703101 301.097686 
L 124.07156 301.237698 
L 124.44002 301.062683 
L 124.808479 301.071434 
L 125.176938 301.237698 
L 126.282316 301.150191 
L 127.756154 301.228948 
L 128.124613 301.053932 
L 128.493073 301.185194 
L 128.861532 301.167692 
L 129.229991 301.263951 
L 129.598451 300.528886 
L 130.703829 300.336369 
L 131.072288 300.213858 
L 131.440748 299.627557 
L 131.809207 299.645058 
L 132.177666 299.312529 
L 132.546126 299.610055 
L 133.651504 299.715065 
L 134.019963 299.671311 
L 134.388423 299.391286 
L 134.756882 299.487545 
L 135.125341 299.793822 
L 135.493801 299.732566 
L 135.86226 299.478794 
L 136.230719 299.767569 
L 136.599179 299.846326 
L 137.336097 299.522548 
L 137.704557 299.522548 
L 138.073016 299.295028 
L 138.441476 299.391286 
L 138.809935 299.260025 
L 139.178394 299.373785 
L 139.546854 299.697563 
L 139.915313 299.723815 
L 140.283772 299.881329 
L 140.652232 300.34512 
L 141.020691 300.310117 
L 142.126069 300.808911 
L 142.494529 300.677649 
L 142.862988 300.406375 
L 143.599907 300.143852 
L 143.968366 300.380123 
L 144.336825 300.135102 
L 144.705285 300.213858 
L 145.073744 299.785071 
L 145.442204 299.575052 
L 145.810663 299.715065 
L 146.916041 298.98 
L 147.2845 298.988751 
L 147.65296 298.848738 
L 148.021419 299.43504 
L 148.389879 299.400037 
L 149.495257 299.636308 
L 149.863716 299.960086 
L 150.232175 299.671311 
L 150.969094 299.968837 
L 152.074472 299.960086 
L 152.442932 299.785071 
L 152.811391 300.240111 
L 153.54831 300.152603 
L 153.916769 300.187606 
L 154.285228 300.555138 
L 154.653688 300.432628 
L 155.390607 299.907582 
L 155.759066 299.907582 
L 156.127525 299.671311 
L 156.864444 299.881329 
L 157.232903 299.032505 
L 157.601363 299.006252 
L 157.969822 298.463705 
L 158.338281 298.358695 
L 158.706741 297.903655 
L 159.0752 297.8424 
L 159.44366 297.95616 
L 160.180578 297.606129 
L 160.549038 297.667385 
L 160.917497 297.509871 
L 161.285956 297.851151 
L 162.022875 297.798646 
L 162.391335 297.422363 
L 162.759794 297.527372 
L 163.128253 297.422363 
L 163.496713 297.816148 
L 163.865172 297.982412 
L 164.602091 297.719889 
L 164.97055 297.921157 
L 165.707469 297.667385 
L 166.075928 297.816148 
L 166.444388 297.334855 
L 166.812847 297.299852 
L 167.181306 296.967323 
L 167.918225 296.669797 
L 168.286684 296.608542 
L 168.655144 296.792308 
L 169.023603 296.626043 
L 170.497441 295.243422 
L 170.8659 295.435938 
L 171.234359 294.692123 
L 171.602819 294.762129 
L 171.971278 294.385846 
L 172.339737 294.193329 
L 173.076656 294.140825 
L 174.182034 294.412098 
L 174.550494 294.464603 
L 174.918953 294.377095 
L 175.287412 293.825797 
L 175.655872 294.587114 
L 176.024331 294.350843 
L 176.392791 294.455852 
L 176.76125 294.254585 
L 177.129709 294.245834 
L 177.866628 294.044566 
L 178.235087 294.210831 
L 178.603547 294.184578 
L 178.972006 293.729538 
L 179.340465 294.009563 
L 179.708925 293.799545 
L 180.077384 293.939557 
L 180.445844 293.764542 
L 180.814303 293.913305 
L 181.182762 293.887052 
L 182.6566 293.309502 
L 183.025059 292.749452 
L 183.393519 292.880714 
L 184.498897 292.828209 
L 184.867356 293.134486 
L 185.235815 293.038228 
L 185.604275 293.151988 
L 185.972734 292.880714 
L 186.341193 292.276911 
L 186.709653 292.460677 
L 187.078112 292.04064 
L 187.815031 292.574437 
L 188.18349 292.04064 
L 188.55195 292.145649 
L 188.920409 292.434425 
L 189.288868 292.364418 
L 189.657328 292.714449 
L 190.025787 292.635692 
L 190.394247 293.020726 
L 190.762706 292.845711 
L 191.131165 292.136898 
L 191.499625 291.900628 
L 191.868084 292.049391 
L 192.236543 292.075643 
L 192.605003 291.349329 
L 192.973462 291.235569 
L 193.710381 291.454338 
L 194.07884 291.506843 
L 194.815759 290.649268 
L 195.921137 290.185477 
L 196.289596 289.712935 
L 196.658056 289.852948 
L 197.026515 289.844197 
L 197.394975 290.001711 
L 197.763434 289.520418 
L 198.131893 289.3104 
L 198.868812 288.759102 
L 199.237271 288.7416 
L 199.605731 288.566585 
L 199.97419 288.619089 
L 201.079568 287.691508 
L 201.448028 288.216554 
L 201.816487 288.120295 
L 202.184946 287.770265 
L 202.553406 287.700258 
L 204.027243 286.676418 
L 204.395703 286.991446 
L 204.764162 287.744012 
L 205.132621 287.463988 
L 205.501081 287.787766 
L 205.86954 287.682757 
L 206.237999 287.367729 
L 206.606459 287.498991 
L 207.343377 286.825182 
L 207.711837 286.816431 
L 208.080296 286.676418 
L 208.817215 285.626326 
L 209.185674 285.67008 
L 209.554134 285.950105 
L 209.922593 286.037612 
L 210.291052 285.871348 
L 210.659512 284.479975 
L 211.027971 284.856258 
L 211.396431 284.952517 
L 212.133349 283.893674 
L 212.501809 283.193612 
L 213.238727 284.016185 
L 213.607187 283.884923 
L 213.975646 284.217452 
L 214.344105 283.762412 
L 214.712565 284.024935 
L 215.081024 283.482388 
L 215.449484 283.193612 
L 215.817943 282.642314 
L 216.186402 282.563557 
L 216.554862 282.756074 
L 216.923321 282.266031 
L 217.29178 282.073514 
L 218.028699 280.585883 
L 218.397159 280.55088 
L 219.502537 281.303446 
L 219.870996 280.935914 
L 220.239455 280.734646 
L 220.607915 281.067175 
L 220.976374 280.690892 
L 221.713293 281.277194 
L 222.081752 280.883409 
L 222.450212 281.128431 
L 222.818671 280.515877 
L 223.18713 280.200849 
L 223.55559 280.174597 
L 223.924049 279.885822 
L 224.292508 278.931988 
L 224.660968 278.791975 
L 225.029427 279.159508 
L 225.397887 278.888234 
L 225.766346 278.966991 
L 226.134805 278.441945 
L 226.503265 278.61696 
L 226.871724 278.923237 
L 227.240183 278.818228 
L 227.977102 277.750634 
L 228.345561 277.838142 
L 228.714021 277.654375 
L 229.45094 277.881895 
L 229.819399 277.70688 
L 230.187858 277.838142 
L 230.556318 278.590708 
L 230.924777 278.73072 
L 231.293236 278.660714 
L 231.661696 278.818228 
L 232.030155 278.608209 
L 232.398615 278.153169 
L 233.503993 278.669465 
L 233.872452 278.468197 
L 234.609371 279.264517 
L 234.97783 278.896985 
L 236.083208 280.122092 
L 236.451668 281.11968 
L 236.820127 281.163434 
L 237.188586 281.320948 
L 237.925505 281.084677 
L 238.293964 281.408455 
L 238.662424 281.425957 
L 239.030883 281.250942 
L 239.399343 281.495963 
L 239.767802 281.102178 
L 240.136261 281.172185 
L 240.504721 280.865908 
L 240.87318 281.189686 
L 241.241639 281.294695 
L 241.610099 281.242191 
L 241.978558 281.609723 
L 242.347017 281.373452 
L 242.715477 282.222277 
L 243.083936 282.449797 
L 243.452396 281.714732 
L 243.820855 282.274782 
L 244.189314 281.3472 
L 244.557774 281.600972 
L 245.294692 281.469711 
L 246.031611 282.4848 
L 246.400071 283.228615 
L 246.76853 282.983594 
L 247.136989 281.977255 
L 247.505449 282.782326 
L 247.873908 282.528554 
L 248.242367 281.697231 
L 248.979286 280.970917 
L 249.347745 281.180935 
L 250.084664 279.632049 
L 250.453124 280.008332 
L 250.821583 279.798314 
L 251.190042 280.060837 
L 252.29542 279.325772 
L 252.66388 278.739471 
L 253.032339 278.643212 
L 253.400799 278.84448 
L 253.769258 278.468197 
L 254.874636 277.986905 
L 255.243095 277.129329 
L 255.611555 276.849305 
L 255.980014 276.140492 
L 256.348473 275.816714 
L 256.716933 275.834215 
L 257.822311 274.941637 
L 258.19077 273.025218 
L 258.55923 272.027631 
L 258.927689 272.70144 
L 259.664608 271.248812 
L 260.401527 269.699926 
L 260.769986 269.813686 
L 261.138445 269.043618 
L 261.506905 267.380972 
L 262.243823 266.794671 
L 262.612283 267.766006 
L 262.980742 267.897268 
L 263.349201 267.144702 
L 264.08612 266.575902 
L 264.45458 265.937095 
L 265.191498 265.543311 
L 265.559958 266.260874 
L 266.296876 265.560812 
L 267.033795 265.954597 
L 267.402255 266.068357 
L 267.770714 265.482055 
L 268.139173 265.64832 
L 268.507633 265.394548 
L 268.876092 264.563225 
L 269.244551 264.615729 
L 269.613011 264.335705 
L 269.98147 263.556886 
L 270.349929 263.075594 
L 270.718389 263.408123 
L 271.086848 263.355618 
L 271.455308 262.078006 
L 272.192226 260.494117 
L 272.929145 259.741551 
L 273.297604 259.260258 
L 273.666064 259.374018 
L 274.034523 258.577698 
L 274.402983 258.551446 
L 275.139901 258.070154 
L 275.508361 257.090068 
L 275.87682 257.072566 
L 276.245279 256.801292 
L 276.982198 258.315175 
L 277.350657 257.580111 
L 277.719117 257.212578 
L 278.087576 257.247582 
L 278.824495 256.013723 
L 279.192954 254.569846 
L 279.561414 255.077391 
L 279.929873 256.241243 
L 280.666792 255.602437 
L 281.035251 254.946129 
L 281.403711 253.834782 
L 282.140629 253.651015 
L 282.509089 253.808529 
L 282.877548 253.598511 
L 283.246007 252.460911 
L 283.614467 252.548418 
L 284.719845 253.265982 
L 285.088304 253.169723 
L 285.456764 253.300985 
L 285.825223 252.697182 
L 286.193682 252.312148 
L 286.562142 252.9072 
L 286.930601 253.073465 
L 287.29906 252.950954 
L 287.66752 252.977206 
L 288.035979 252.837194 
L 288.404439 253.064714 
L 289.141357 252.382154 
L 289.509817 252.250892 
L 290.615195 254.079803 
L 290.983654 253.896037 
L 291.352113 253.222228 
L 291.720573 253.414745 
L 292.089032 253.064714 
L 292.457492 253.283483 
L 293.19441 254.456086 
L 293.56287 254.333575 
L 293.931329 255.261157 
L 294.668248 255.698695 
L 295.036707 256.792542 
L 295.405167 256.363754 
L 295.773626 256.678782 
L 296.142085 257.291335 
L 296.510545 257.553858 
L 297.247463 259.286511 
L 297.615923 260.844148 
L 297.984382 260.485366 
L 298.352841 260.319102 
L 298.721301 261.299188 
L 299.08976 261.692972 
L 299.45822 261.657969 
L 299.826679 261.850486 
L 300.195138 262.533046 
L 300.563598 262.839323 
L 300.932057 262.935582 
L 301.300516 263.539385 
L 301.668976 264.493218 
L 302.037435 264.571975 
L 302.405895 264.440714 
L 302.774354 264.484468 
L 303.142813 264.852 
L 303.511273 265.569563 
L 303.879732 265.76208 
L 304.248191 266.252123 
L 304.616651 267.109698 
L 304.98511 266.925932 
L 305.353569 267.407225 
L 305.722029 268.369809 
L 306.458948 268.658585 
L 306.827407 269.17488 
L 307.195866 270.286228 
L 307.932785 271.275065 
L 308.301244 271.756357 
L 308.669704 272.01888 
L 309.038163 272.438917 
L 309.406623 273.15648 
L 309.775082 274.224074 
L 310.143541 274.469095 
L 310.88046 275.965477 
L 311.985838 276.333009 
L 312.354297 276.656788 
L 312.722757 276.726794 
L 313.091216 276.954314 
L 313.459676 276.840554 
L 313.828135 277.488111 
L 314.565054 277.995655 
L 314.933513 278.923237 
L 315.301972 279.483286 
L 315.670432 279.710806 
L 316.038891 279.702055 
L 317.144269 281.399705 
L 317.512729 281.46096 
L 318.618107 283.254868 
L 319.723485 284.007434 
L 320.460404 284.593735 
L 321.197322 285.337551 
L 321.565782 285.250043 
L 323.039619 286.247631 
L 323.408079 286.755175 
L 324.144997 287.026449 
L 325.250375 287.849022 
L 325.987294 288.295311 
L 326.724213 288.662843 
L 327.092672 288.347815 
L 327.461132 288.662843 
L 327.829591 288.531582 
L 328.19805 288.181551 
L 328.934969 288.199052 
L 329.303428 288.067791 
L 329.671888 287.726511 
L 330.040347 287.043951 
L 330.408807 286.763926 
L 330.777266 286.711422 
L 331.145725 286.510154 
L 331.514185 285.731335 
L 331.882644 285.302548 
L 332.988022 284.698745 
L 333.356481 284.436222 
L 334.0934 283.666154 
L 334.830319 281.775988 
L 335.198778 281.067175 
L 335.567238 280.743397 
L 335.935697 279.955828 
L 336.672616 279.264517 
L 337.041075 279.203262 
L 337.777994 277.549366 
L 338.146453 276.525526 
L 338.514913 275.0904 
L 341.462588 272.123889 
L 341.831047 271.581342 
L 342.199506 270.42624 
L 343.304884 269.131126 
L 343.673344 268.142289 
L 344.410263 267.345969 
L 344.778722 267.135951 
L 345.147181 266.610905 
L 345.8841 266.44464 
L 346.252559 265.525809 
L 346.621019 264.992012 
L 346.989478 264.108185 
L 347.357937 263.950671 
L 347.726397 264.038178 
L 348.094856 264.370708 
L 348.463316 265.105772 
L 348.831775 265.525809 
L 349.200234 265.499557 
L 349.568694 265.674572 
L 350.305612 266.750917 
L 350.674072 266.908431 
L 351.410991 267.520985 
L 351.77945 267.58224 
L 352.516369 268.334806 
L 353.253287 270.08496 
L 353.990206 270.557502 
L 354.358665 271.520086 
L 355.095584 272.263902 
L 355.464044 272.281403 
L 356.569422 274.486597 
L 356.937881 275.860468 
L 357.30634 275.807963 
L 357.6748 276.350511 
L 358.043259 276.560529 
L 358.411719 276.324258 
L 358.780178 276.674289 
L 359.148637 276.761797 
L 359.517097 277.006818 
L 359.885556 277.584369 
L 360.254015 277.811889 
L 360.622475 279.028246 
L 360.990934 278.940738 
L 361.359393 279.255766 
L 362.096312 280.839655 
L 363.20169 281.557218 
L 363.57015 281.513465 
L 363.938609 281.723483 
L 364.307068 281.644726 
L 364.675528 282.607311 
L 365.043987 283.202363 
L 365.412447 284.07744 
L 366.149365 284.068689 
L 366.517825 283.954929 
L 366.886284 284.024935 
L 368.360121 282.117268 
L 368.728581 282.091015 
L 369.09704 281.425957 
L 369.833959 281.189686 
L 370.570878 281.259692 
L 370.939337 281.189686 
L 371.307796 281.23344 
L 371.676256 280.883409 
L 372.044715 281.189686 
L 372.413175 281.198437 
L 372.781634 280.533378 
L 373.150093 280.445871 
L 374.255471 279.290769 
L 374.623931 278.013157 
L 374.99239 277.916898 
L 375.360849 275.737957 
L 376.097768 274.924135 
L 376.466228 272.412665 
L 377.940065 269.717428 
L 378.308524 268.238548 
L 379.045443 264.633231 
L 379.782362 261.544209 
L 380.150821 260.564123 
L 380.519281 258.437686 
L 380.88774 254.701108 
L 381.624659 249.713169 
L 381.993118 246.457883 
L 383.098496 241.846228 
L 383.466956 241.242425 
L 383.835415 240.288591 
L 384.203874 239.728542 
L 384.572334 238.643446 
L 385.677712 234.02304 
L 386.046171 232.570412 
L 386.414631 231.931606 
L 386.78309 230.995274 
L 387.151549 229.315126 
L 387.520009 228.798831 
L 389.730765 217.904123 
L 390.099224 216.819028 
L 390.836143 213.913772 
L 391.204602 213.056197 
L 391.573062 211.542314 
L 392.67844 208.409538 
L 393.046899 208.225772 
L 393.415359 206.965662 
L 393.783818 207.586966 
L 394.152277 206.781895 
L 394.520737 205.495532 
L 394.889196 207.184431 
L 395.257655 207.578215 
L 395.994574 202.704037 
L 396.731493 197.786105 
L 397.099952 197.803606 
L 397.468412 198.022375 
L 397.836871 198.932455 
L 398.57379 199.019963 
L 398.942249 200.192566 
L 399.310708 203.631618 
L 400.416087 207.928246 
L 400.784546 207.936997 
L 401.521465 208.969588 
L 401.889924 208.987089 
L 402.258383 208.287028 
L 402.626843 208.068258 
L 403.363761 209.748406 
L 403.732221 209.442129 
L 404.10068 209.897169 
L 404.837599 211.524812 
L 405.206058 211.691077 
L 405.574518 211.708578 
L 405.942977 212.382388 
L 407.048355 216.232726 
L 407.785274 219.251742 
L 408.153733 219.986806 
L 408.890652 220.800628 
L 409.259111 221.290671 
L 409.627571 222.043237 
L 410.364489 224.720972 
L 410.732949 225.272271 
L 411.838327 227.599975 
L 412.206786 228.116271 
L 412.943705 231.004025 
L 413.312164 230.977772 
L 413.680624 231.327803 
L 414.786002 239.789797 
L 415.154461 242.817563 
L 415.522921 244.838991 
L 415.89138 246.002843 
L 416.259839 246.204111 
L 416.628299 247.621735 
L 416.996758 247.516726 
L 417.365217 248.514314 
L 417.733677 247.989268 
L 418.102136 248.81184 
L 418.470596 248.943102 
L 418.839055 250.089452 
L 419.207514 250.74576 
L 419.575974 251.104542 
L 419.944433 252.075877 
L 420.312892 251.498326 
L 420.681352 251.603335 
L 421.049811 251.104542 
L 421.418271 249.739422 
L 421.78673 249.013108 
L 422.523649 249.870683 
L 422.892108 249.853182 
L 423.260567 249.503151 
L 423.629027 249.844431 
L 423.997486 250.649502 
L 424.365945 250.343225 
L 424.365945 250.343225 
" clip-path="url(#pd88880ed5c)" style="fill: none; stroke: #000080; stroke-width: 1.5; stroke-linecap: square"/>
   </g>
   <g id="line2d_16">
    <path d="M 55.925 94.430769 
L 460.825 94.430769 
" clip-path="url(#pd88880ed5c)" style="fill: none; stroke-dasharray: 5.55,2.4; stroke-dashoffset: 0; stroke: #008000; stroke-width: 1.5"/>
   </g>
   <g id="patch_3">
    <path d="M 55.925 313.2 
L 55.925 28.8 
" style="fill: none; stroke: #000000; stroke-width: 0.8; stroke-linejoin: miter; stroke-linecap: square"/>
   </g>
   <g id="patch_4">
    <path d="M 460.825 313.2 
L 460.825 28.8 
" style="fill: none; stroke: #000000; stroke-width: 0.8; stroke-linejoin: miter; stroke-linecap: square"/>
   </g>
   <g id="patch_5">
    <path d="M 55.925 313.2 
L 460.825 313.2 
" style="fill: none; stroke: #000000; stroke-width: 0.8; stroke-linejoin: miter; stroke-linecap: square"/>
   </g>
   <g id="patch_6">
    <path d="M 55.925 28.8 
L 460.825 28.8 
" style="fill: none; stroke: #000000; stroke-width: 0.8; stroke-linejoin: miter; stroke-linecap: square"/>
   </g>
   <g id="text_16">
    <!-- gamma = 0.9568421052631579,lr = 0.004641588833612777 -->
    <g transform="translate(23.601562 22.8)scale(0.15 -0.15)">
     <defs>
      <path id="DejaVuSans-67" d="M 2906 1791 
Q 2906 2416 2648 2759 
Q 2391 3103 1925 3103 
Q 1463 3103 1205 2759 
Q 947 2416 947 1791 
Q 947 1169 1205 825 
Q 1463 481 1925 481 
Q 2391 481 2648 825 
Q 2906 1169 2906 1791 
z
M 3481 434 
Q 3481 -459 3084 -895 
Q 2688 -1331 1869 -1331 
Q 1566 -1331 1297 -1286 
Q 1028 -1241 775 -1147 
L 775 -588 
Q 1028 -725 1275 -790 
Q 1522 -856 1778 -856 
Q 2344 -856 2625 -561 
Q 2906 -266 2906 331 
L 2906 616 
Q 2728 306 2450 153 
Q 2172 0 1784 0 
Q 1141 0 747 490 
Q 353 981 353 1791 
Q 353 2603 747 3093 
Q 1141 3584 1784 3584 
Q 2172 3584 2450 3431 
Q 2728 3278 2906 2969 
L 2906 3500 
L 3481 3500 
L 3481 434 
z
" transform="scale(0.015625)"/>
      <path id="DejaVuSans-61" d="M 2194 1759 
Q 1497 1759 1228 1600 
Q 959 1441 959 1056 
Q 959 750 1161 570 
Q 1363 391 1709 391 
Q 2188 391 2477 730 
Q 2766 1069 2766 1631 
L 2766 1759 
L 2194 1759 
z
M 3341 1997 
L 3341 0 
L 2766 0 
L 2766 531 
Q 2569 213 2275 61 
Q 1981 -91 1556 -91 
Q 1019 -91 701 211 
Q 384 513 384 1019 
Q 384 1609 779 1909 
Q 1175 2209 1959 2209 
L 2766 2209 
L 2766 2266 
Q 2766 2663 2505 2880 
Q 2244 3097 1772 3097 
Q 1472 3097 1187 3025 
Q 903 2953 641 2809 
L 641 3341 
Q 956 3463 1253 3523 
Q 1550 3584 1831 3584 
Q 2591 3584 2966 3190 
Q 3341 2797 3341 1997 
z
" transform="scale(0.015625)"/>
      <path id="DejaVuSans-6d" d="M 3328 2828 
Q 3544 3216 3844 3400 
Q 4144 3584 4550 3584 
Q 5097 3584 5394 3201 
Q 5691 2819 5691 2113 
L 5691 0 
L 5113 0 
L 5113 2094 
Q 5113 2597 4934 2840 
Q 4756 3084 4391 3084 
Q 3944 3084 3684 2787 
Q 3425 2491 3425 1978 
L 3425 0 
L 2847 0 
L 2847 2094 
Q 2847 2600 2669 2842 
Q 2491 3084 2119 3084 
Q 1678 3084 1418 2786 
Q 1159 2488 1159 1978 
L 1159 0 
L 581 0 
L 581 3500 
L 1159 3500 
L 1159 2956 
Q 1356 3278 1631 3431 
Q 1906 3584 2284 3584 
Q 2666 3584 2933 3390 
Q 3200 3197 3328 2828 
z
" transform="scale(0.015625)"/>
      <path id="DejaVuSans-20" transform="scale(0.015625)"/>
      <path id="DejaVuSans-3d" d="M 678 2906 
L 4684 2906 
L 4684 2381 
L 678 2381 
L 678 2906 
z
M 678 1631 
L 4684 1631 
L 4684 1100 
L 678 1100 
L 678 1631 
z
" transform="scale(0.015625)"/>
      <path id="DejaVuSans-2e" d="M 684 794 
L 1344 794 
L 1344 0 
L 684 0 
L 684 794 
z
" transform="scale(0.015625)"/>
      <path id="DejaVuSans-39" d="M 703 97 
L 703 672 
Q 941 559 1184 500 
Q 1428 441 1663 441 
Q 2288 441 2617 861 
Q 2947 1281 2994 2138 
Q 2813 1869 2534 1725 
Q 2256 1581 1919 1581 
Q 1219 1581 811 2004 
Q 403 2428 403 3163 
Q 403 3881 828 4315 
Q 1253 4750 1959 4750 
Q 2769 4750 3195 4129 
Q 3622 3509 3622 2328 
Q 3622 1225 3098 567 
Q 2575 -91 1691 -91 
Q 1453 -91 1209 -44 
Q 966 3 703 97 
z
M 1959 2075 
Q 2384 2075 2632 2365 
Q 2881 2656 2881 3163 
Q 2881 3666 2632 3958 
Q 2384 4250 1959 4250 
Q 1534 4250 1286 3958 
Q 1038 3666 1038 3163 
Q 1038 2656 1286 2365 
Q 1534 2075 1959 2075 
z
" transform="scale(0.015625)"/>
      <path id="DejaVuSans-37" d="M 525 4666 
L 3525 4666 
L 3525 4397 
L 1831 0 
L 1172 0 
L 2766 4134 
L 525 4134 
L 525 4666 
z
" transform="scale(0.015625)"/>
      <path id="DejaVuSans-2c" d="M 750 794 
L 1409 794 
L 1409 256 
L 897 -744 
L 494 -744 
L 750 256 
L 750 794 
z
" transform="scale(0.015625)"/>
      <path id="DejaVuSans-6c" d="M 603 4863 
L 1178 4863 
L 1178 0 
L 603 0 
L 603 4863 
z
" transform="scale(0.015625)"/>
     </defs>
     <use xlink:href="#DejaVuSans-67"/>
     <use xlink:href="#DejaVuSans-61" x="63.476562"/>
     <use xlink:href="#DejaVuSans-6d" x="124.755859"/>
     <use xlink:href="#DejaVuSans-6d" x="222.167969"/>
     <use xlink:href="#DejaVuSans-61" x="319.580078"/>
     <use xlink:href="#DejaVuSans-20" x="380.859375"/>
     <use xlink:href="#DejaVuSans-3d" x="412.646484"/>
     <use xlink:href="#DejaVuSans-20" x="496.435547"/>
     <use xlink:href="#DejaVuSans-30" x="528.222656"/>
     <use xlink:href="#DejaVuSans-2e" x="591.845703"/>
     <use xlink:href="#DejaVuSans-39" x="623.632812"/>
     <use xlink:href="#DejaVuSans-35" x="687.255859"/>
     <use xlink:href="#DejaVuSans-36" x="750.878906"/>
     <use xlink:href="#DejaVuSans-38" x="814.501953"/>
     <use xlink:href="#DejaVuSans-34" x="878.125"/>
     <use xlink:href="#DejaVuSans-32" x="941.748047"/>
     <use xlink:href="#DejaVuSans-31" x="1005.371094"/>
     <use xlink:href="#DejaVuSans-30" x="1068.994141"/>
     <use xlink:href="#DejaVuSans-35" x="1132.617188"/>
     <use xlink:href="#DejaVuSans-32" x="1196.240234"/>
     <use xlink:href="#DejaVuSans-36" x="1259.863281"/>
     <use xlink:href="#DejaVuSans-33" x="1323.486328"/>
     <use xlink:href="#DejaVuSans-31" x="1387.109375"/>
     <use xlink:href="#DejaVuSans-35" x="1450.732422"/>
     <use xlink:href="#DejaVuSans-37" x="1514.355469"/>
     <use xlink:href="#DejaVuSans-39" x="1577.978516"/>
     <use xlink:href="#DejaVuSans-2c" x="1641.601562"/>
     <use xlink:href="#DejaVuSans-6c" x="1673.388672"/>
     <use xlink:href="#DejaVuSans-72" x="1701.171875"/>
     <use xlink:href="#DejaVuSans-20" x="1742.285156"/>
     <use xlink:href="#DejaVuSans-3d" x="1774.072266"/>
     <use xlink:href="#DejaVuSans-20" x="1857.861328"/>
     <use xlink:href="#DejaVuSans-30" x="1889.648438"/>
     <use xlink:href="#DejaVuSans-2e" x="1953.271484"/>
     <use xlink:href="#DejaVuSans-30" x="1985.058594"/>
     <use xlink:href="#DejaVuSans-30" x="2048.681641"/>
     <use xlink:href="#DejaVuSans-34" x="2112.304688"/>
     <use xlink:href="#DejaVuSans-36" x="2175.927734"/>
     <use xlink:href="#DejaVuSans-34" x="2239.550781"/>
     <use xlink:href="#DejaVuSans-31" x="2303.173828"/>
     <use xlink:href="#DejaVuSans-35" x="2366.796875"/>
     <use xlink:href="#DejaVuSans-38" x="2430.419922"/>
     <use xlink:href="#DejaVuSans-38" x="2494.042969"/>
     <use xlink:href="#DejaVuSans-38" x="2557.666016"/>
     <use xlink:href="#DejaVuSans-33" x="2621.289062"/>
     <use xlink:href="#DejaVuSans-33" x="2684.912109"/>
     <use xlink:href="#DejaVuSans-36" x="2748.535156"/>
     <use xlink:href="#DejaVuSans-31" x="2812.158203"/>
     <use xlink:href="#DejaVuSans-32" x="2875.78125"/>
     <use xlink:href="#DejaVuSans-37" x="2939.404297"/>
     <use xlink:href="#DejaVuSans-37" x="3003.027344"/>
     <use xlink:href="#DejaVuSans-37" x="3066.650391"/>
    </g>
   </g>
   <g id="legend_1">
    <g id="patch_7">
     <path d="M 293.50625 80.834375 
L 453.825 80.834375 
Q 455.825 80.834375 455.825 78.834375 
L 455.825 35.8 
Q 455.825 33.8 453.825 33.8 
L 293.50625 33.8 
Q 291.50625 33.8 291.50625 35.8 
L 291.50625 78.834375 
Q 291.50625 80.834375 293.50625 80.834375 
z
" style="fill: #ffffff; opacity: 0.8; stroke: #cccccc; stroke-linejoin: miter"/>
    </g>
    <g id="line2d_17">
     <path d="M 295.50625 41.898438 
L 305.50625 41.898438 
L 315.50625 41.898438 
" style="fill: none; stroke: #708090; stroke-width: 1.5; stroke-linecap: square"/>
    </g>
    <g id="text_17">
     <!-- Episodes score -->
     <g transform="translate(323.50625 45.398438)scale(0.1 -0.1)">
      <use xlink:href="#DejaVuSans-45"/>
      <use xlink:href="#DejaVuSans-70" x="63.183594"/>
      <use xlink:href="#DejaVuSans-69" x="126.660156"/>
      <use xlink:href="#DejaVuSans-73" x="154.443359"/>
      <use xlink:href="#DejaVuSans-6f" x="206.542969"/>
      <use xlink:href="#DejaVuSans-64" x="267.724609"/>
      <use xlink:href="#DejaVuSans-65" x="331.201172"/>
      <use xlink:href="#DejaVuSans-73" x="392.724609"/>
      <use xlink:href="#DejaVuSans-20" x="444.824219"/>
      <use xlink:href="#DejaVuSans-73" x="476.611328"/>
      <use xlink:href="#DejaVuSans-63" x="528.710938"/>
      <use xlink:href="#DejaVuSans-6f" x="583.691406"/>
      <use xlink:href="#DejaVuSans-72" x="644.873047"/>
      <use xlink:href="#DejaVuSans-65" x="683.736328"/>
     </g>
    </g>
    <g id="line2d_18">
     <path d="M 295.50625 56.576563 
L 305.50625 56.576563 
L 315.50625 56.576563 
" style="fill: none; stroke: #000080; stroke-width: 1.5; stroke-linecap: square"/>
    </g>
    <g id="text_18">
     <!-- Moving average of scores -->
     <g transform="translate(323.50625 60.076563)scale(0.1 -0.1)">
      <defs>
       <path id="DejaVuSans-4d" d="M 628 4666 
L 1569 4666 
L 2759 1491 
L 3956 4666 
L 4897 4666 
L 4897 0 
L 4281 0 
L 4281 4097 
L 3078 897 
L 2444 897 
L 1241 4097 
L 1241 0 
L 628 0 
L 628 4666 
z
" transform="scale(0.015625)"/>
       <path id="DejaVuSans-76" d="M 191 3500 
L 800 3500 
L 1894 563 
L 2988 3500 
L 3597 3500 
L 2284 0 
L 1503 0 
L 191 3500 
z
" transform="scale(0.015625)"/>
       <path id="DejaVuSans-6e" d="M 3513 2113 
L 3513 0 
L 2938 0 
L 2938 2094 
Q 2938 2591 2744 2837 
Q 2550 3084 2163 3084 
Q 1697 3084 1428 2787 
Q 1159 2491 1159 1978 
L 1159 0 
L 581 0 
L 581 3500 
L 1159 3500 
L 1159 2956 
Q 1366 3272 1645 3428 
Q 1925 3584 2291 3584 
Q 2894 3584 3203 3211 
Q 3513 2838 3513 2113 
z
" transform="scale(0.015625)"/>
       <path id="DejaVuSans-66" d="M 2375 4863 
L 2375 4384 
L 1825 4384 
Q 1516 4384 1395 4259 
Q 1275 4134 1275 3809 
L 1275 3500 
L 2222 3500 
L 2222 3053 
L 1275 3053 
L 1275 0 
L 697 0 
L 697 3053 
L 147 3053 
L 147 3500 
L 697 3500 
L 697 3744 
Q 697 4328 969 4595 
Q 1241 4863 1831 4863 
L 2375 4863 
z
" transform="scale(0.015625)"/>
      </defs>
      <use xlink:href="#DejaVuSans-4d"/>
      <use xlink:href="#DejaVuSans-6f" x="86.279297"/>
      <use xlink:href="#DejaVuSans-76" x="147.460938"/>
      <use xlink:href="#DejaVuSans-69" x="206.640625"/>
      <use xlink:href="#DejaVuSans-6e" x="234.423828"/>
      <use xlink:href="#DejaVuSans-67" x="297.802734"/>
      <use xlink:href="#DejaVuSans-20" x="361.279297"/>
      <use xlink:href="#DejaVuSans-61" x="393.066406"/>
      <use xlink:href="#DejaVuSans-76" x="454.345703"/>
      <use xlink:href="#DejaVuSans-65" x="513.525391"/>
      <use xlink:href="#DejaVuSans-72" x="575.048828"/>
      <use xlink:href="#DejaVuSans-61" x="616.162109"/>
      <use xlink:href="#DejaVuSans-67" x="677.441406"/>
      <use xlink:href="#DejaVuSans-65" x="740.917969"/>
      <use xlink:href="#DejaVuSans-20" x="802.441406"/>
      <use xlink:href="#DejaVuSans-6f" x="834.228516"/>
      <use xlink:href="#DejaVuSans-66" x="895.410156"/>
      <use xlink:href="#DejaVuSans-20" x="930.615234"/>
      <use xlink:href="#DejaVuSans-73" x="962.402344"/>
      <use xlink:href="#DejaVuSans-63" x="1014.501953"/>
      <use xlink:href="#DejaVuSans-6f" x="1069.482422"/>
      <use xlink:href="#DejaVuSans-72" x="1130.664062"/>
      <use xlink:href="#DejaVuSans-65" x="1169.527344"/>
      <use xlink:href="#DejaVuSans-73" x="1231.050781"/>
     </g>
    </g>
    <g id="line2d_19">
     <path d="M 295.50625 71.254687 
L 305.50625 71.254687 
L 315.50625 71.254687 
" style="fill: none; stroke-dasharray: 5.55,2.4; stroke-dashoffset: 0; stroke: #008000; stroke-width: 1.5"/>
    </g>
    <g id="text_19">
     <!-- Game Solved -->
     <g transform="translate(323.50625 74.754687)scale(0.1 -0.1)">
      <defs>
       <path id="DejaVuSans-47" d="M 3809 666 
L 3809 1919 
L 2778 1919 
L 2778 2438 
L 4434 2438 
L 4434 434 
Q 4069 175 3628 42 
Q 3188 -91 2688 -91 
Q 1594 -91 976 548 
Q 359 1188 359 2328 
Q 359 3472 976 4111 
Q 1594 4750 2688 4750 
Q 3144 4750 3555 4637 
Q 3966 4525 4313 4306 
L 4313 3634 
Q 3963 3931 3569 4081 
Q 3175 4231 2741 4231 
Q 1884 4231 1454 3753 
Q 1025 3275 1025 2328 
Q 1025 1384 1454 906 
Q 1884 428 2741 428 
Q 3075 428 3337 486 
Q 3600 544 3809 666 
z
" transform="scale(0.015625)"/>
      </defs>
      <use xlink:href="#DejaVuSans-47"/>
      <use xlink:href="#DejaVuSans-61" x="77.490234"/>
      <use xlink:href="#DejaVuSans-6d" x="138.769531"/>
      <use xlink:href="#DejaVuSans-65" x="236.181641"/>
      <use xlink:href="#DejaVuSans-20" x="297.705078"/>
      <use xlink:href="#DejaVuSans-53" x="329.492188"/>
      <use xlink:href="#DejaVuSans-6f" x="392.96875"/>
      <use xlink:href="#DejaVuSans-6c" x="454.150391"/>
      <use xlink:href="#DejaVuSans-76" x="481.933594"/>
      <use xlink:href="#DejaVuSans-65" x="541.113281"/>
      <use xlink:href="#DejaVuSans-64" x="602.636719"/>
     </g>
    </g>
   </g>
  </g>
  <g id="axes_2">
   <g id="matplotlib.axis_3">
    <g id="ytick_8">
     <g id="line2d_20">
      <defs>
       <path id="mb2d85b58af" d="M 0 0 
L 3.5 0 
" style="stroke: #000000; stroke-width: 0.8"/>
      </defs>
      <g>
       <use xlink:href="#mb2d85b58af" x="460.825" y="300.356157" style="stroke: #000000; stroke-width: 0.8"/>
      </g>
     </g>
     <g id="text_20">
      <!-- 0 -->
      <g transform="translate(467.825 304.155376)scale(0.1 -0.1)">
       <use xlink:href="#DejaVuSans-30"/>
      </g>
     </g>
    </g>
    <g id="ytick_9">
     <g id="line2d_21">
      <g>
       <use xlink:href="#mb2d85b58af" x="460.825" y="248.63038" style="stroke: #000000; stroke-width: 0.8"/>
      </g>
     </g>
     <g id="text_21">
      <!-- 1 -->
      <g transform="translate(467.825 252.429599)scale(0.1 -0.1)">
       <use xlink:href="#DejaVuSans-31"/>
      </g>
     </g>
    </g>
    <g id="ytick_10">
     <g id="line2d_22">
      <g>
       <use xlink:href="#mb2d85b58af" x="460.825" y="196.904603" style="stroke: #000000; stroke-width: 0.8"/>
      </g>
     </g>
     <g id="text_22">
      <!-- 2 -->
      <g transform="translate(467.825 200.703822)scale(0.1 -0.1)">
       <use xlink:href="#DejaVuSans-32"/>
      </g>
     </g>
    </g>
    <g id="ytick_11">
     <g id="line2d_23">
      <g>
       <use xlink:href="#mb2d85b58af" x="460.825" y="145.178827" style="stroke: #000000; stroke-width: 0.8"/>
      </g>
     </g>
     <g id="text_23">
      <!-- 3 -->
      <g transform="translate(467.825 148.978045)scale(0.1 -0.1)">
       <use xlink:href="#DejaVuSans-33"/>
      </g>
     </g>
    </g>
    <g id="ytick_12">
     <g id="line2d_24">
      <g>
       <use xlink:href="#mb2d85b58af" x="460.825" y="93.45305" style="stroke: #000000; stroke-width: 0.8"/>
      </g>
     </g>
     <g id="text_24">
      <!-- 4 -->
      <g transform="translate(467.825 97.252268)scale(0.1 -0.1)">
       <use xlink:href="#DejaVuSans-34"/>
      </g>
     </g>
    </g>
    <g id="ytick_13">
     <g id="line2d_25">
      <g>
       <use xlink:href="#mb2d85b58af" x="460.825" y="41.727273" style="stroke: #000000; stroke-width: 0.8"/>
      </g>
     </g>
     <g id="text_25">
      <!-- 5 -->
      <g transform="translate(467.825 45.526491)scale(0.1 -0.1)">
       <use xlink:href="#DejaVuSans-35"/>
      </g>
     </g>
    </g>
    <g id="text_26">
     <!-- Temperature -->
     <g transform="translate(489.585156 218.504297)rotate(-90)scale(0.15 -0.15)">
      <defs>
       <path id="DejaVuSans-54" d="M -19 4666 
L 3928 4666 
L 3928 4134 
L 2272 4134 
L 2272 0 
L 1638 0 
L 1638 4134 
L -19 4134 
L -19 4666 
z
" transform="scale(0.015625)"/>
       <path id="DejaVuSans-74" d="M 1172 4494 
L 1172 3500 
L 2356 3500 
L 2356 3053 
L 1172 3053 
L 1172 1153 
Q 1172 725 1289 603 
Q 1406 481 1766 481 
L 2356 481 
L 2356 0 
L 1766 0 
Q 1100 0 847 248 
Q 594 497 594 1153 
L 594 3053 
L 172 3053 
L 172 3500 
L 594 3500 
L 594 4494 
L 1172 4494 
z
" transform="scale(0.015625)"/>
       <path id="DejaVuSans-75" d="M 544 1381 
L 544 3500 
L 1119 3500 
L 1119 1403 
Q 1119 906 1312 657 
Q 1506 409 1894 409 
Q 2359 409 2629 706 
Q 2900 1003 2900 1516 
L 2900 3500 
L 3475 3500 
L 3475 0 
L 2900 0 
L 2900 538 
Q 2691 219 2414 64 
Q 2138 -91 1772 -91 
Q 1169 -91 856 284 
Q 544 659 544 1381 
z
M 1991 3584 
L 1991 3584 
z
" transform="scale(0.015625)"/>
      </defs>
      <use xlink:href="#DejaVuSans-54"/>
      <use xlink:href="#DejaVuSans-65" x="44.083984"/>
      <use xlink:href="#DejaVuSans-6d" x="105.607422"/>
      <use xlink:href="#DejaVuSans-70" x="203.019531"/>
      <use xlink:href="#DejaVuSans-65" x="266.496094"/>
      <use xlink:href="#DejaVuSans-72" x="328.019531"/>
      <use xlink:href="#DejaVuSans-61" x="369.132812"/>
      <use xlink:href="#DejaVuSans-74" x="430.412109"/>
      <use xlink:href="#DejaVuSans-75" x="469.621094"/>
      <use xlink:href="#DejaVuSans-72" x="533"/>
      <use xlink:href="#DejaVuSans-65" x="571.863281"/>
     </g>
    </g>
   </g>
   <g id="line2d_26">
    <path d="M 74.329545 41.727273 
L 77.64568 59.796179 
L 80.961814 76.602714 
L 84.277948 92.235075 
L 87.594083 106.775292 
L 90.910217 120.299669 
L 94.226351 132.879175 
L 97.542486 144.579825 
L 100.85862 155.463017 
L 104.174754 165.585863 
L 107.490889 175.001485 
L 110.807023 183.759292 
L 114.123157 191.905241 
L 117.439292 199.48208 
L 120.755426 206.529569 
L 124.07156 213.084691 
L 127.387695 219.181844 
L 130.703829 224.853024 
L 134.019963 230.127992 
L 137.704557 235.557975 
L 141.389151 240.568116 
L 145.073744 245.190878 
L 148.758338 249.456211 
L 152.442932 253.391752 
L 156.127525 257.023001 
L 160.180578 260.693942 
L 164.233631 264.053901 
L 168.286684 267.129223 
L 172.339737 269.944021 
L 176.76125 272.743467 
L 181.182762 275.285223 
L 185.972734 277.775454 
L 190.762706 280.018336 
L 195.921137 282.185254 
L 201.448028 284.251415 
L 206.974918 286.082639 
L 212.870268 287.807033 
L 219.134077 289.41153 
L 225.766346 290.887385 
L 233.135533 292.295013 
L 240.87318 293.548388 
L 249.347745 294.698674 
L 258.927689 295.766744 
L 269.613011 296.721977 
L 281.403711 297.547031 
L 295.036707 298.270409 
L 310.88046 298.880507 
L 330.040347 299.385086 
L 353.990206 299.780603 
L 385.677712 300.068067 
L 432.840511 300.253311 
L 442.420455 300.272727 
L 442.420455 300.272727 
" clip-path="url(#pd88880ed5c)" style="fill: none; stroke: #ff0000; stroke-width: 1.5; stroke-linecap: square"/>
   </g>
   <g id="patch_8">
    <path d="M 55.925 313.2 
L 55.925 28.8 
" style="fill: none; stroke: #000000; stroke-width: 0.8; stroke-linejoin: miter; stroke-linecap: square"/>
   </g>
   <g id="patch_9">
    <path d="M 460.825 313.2 
L 460.825 28.8 
" style="fill: none; stroke: #000000; stroke-width: 0.8; stroke-linejoin: miter; stroke-linecap: square"/>
   </g>
   <g id="patch_10">
    <path d="M 55.925 313.2 
L 460.825 313.2 
" style="fill: none; stroke: #000000; stroke-width: 0.8; stroke-linejoin: miter; stroke-linecap: square"/>
   </g>
   <g id="patch_11">
    <path d="M 55.925 28.8 
L 460.825 28.8 
" style="fill: none; stroke: #000000; stroke-width: 0.8; stroke-linejoin: miter; stroke-linecap: square"/>
   </g>
   <g id="legend_2">
    <g id="patch_12">
     <path d="M 62.925 51.478125 
L 158.264063 51.478125 
Q 160.264063 51.478125 160.264063 49.478125 
L 160.264063 35.8 
Q 160.264063 33.8 158.264063 33.8 
L 62.925 33.8 
Q 60.925 33.8 60.925 35.8 
L 60.925 49.478125 
Q 60.925 51.478125 62.925 51.478125 
z
" style="fill: #ffffff; opacity: 0.8; stroke: #cccccc; stroke-linejoin: miter"/>
    </g>
    <g id="line2d_27">
     <path d="M 64.925 41.898438 
L 74.925 41.898438 
L 84.925 41.898438 
" style="fill: none; stroke: #ff0000; stroke-width: 1.5; stroke-linecap: square"/>
    </g>
    <g id="text_27">
     <!-- Temperature -->
     <g transform="translate(92.925 45.398438)scale(0.1 -0.1)">
      <use xlink:href="#DejaVuSans-54"/>
      <use xlink:href="#DejaVuSans-65" x="44.083984"/>
      <use xlink:href="#DejaVuSans-6d" x="105.607422"/>
      <use xlink:href="#DejaVuSans-70" x="203.019531"/>
      <use xlink:href="#DejaVuSans-65" x="266.496094"/>
      <use xlink:href="#DejaVuSans-72" x="328.019531"/>
      <use xlink:href="#DejaVuSans-61" x="369.132812"/>
      <use xlink:href="#DejaVuSans-74" x="430.412109"/>
      <use xlink:href="#DejaVuSans-75" x="469.621094"/>
      <use xlink:href="#DejaVuSans-72" x="533"/>
      <use xlink:href="#DejaVuSans-65" x="571.863281"/>
     </g>
    </g>
   </g>
  </g>
 </g>
 <defs>
  <clipPath id="pd88880ed5c">
   <rect x="55.925" y="28.8" width="404.9" height="284.4"/>
  </clipPath>
 </defs>
</svg>
