<?xml version="1.0" encoding="utf-8" standalone="no"?>
<!DOCTYPE svg PUBLIC "-//W3C//DTD SVG 1.1//EN"
  "http://www.w3.org/Graphics/SVG/1.1/DTD/svg11.dtd">
<svg xmlns:xlink="http://www.w3.org/1999/xlink" width="504pt" height="360pt" viewBox="0 0 504 360" xmlns="http://www.w3.org/2000/svg" version="1.1">
 <metadata>
  <rdf:RDF xmlns:dc="http://purl.org/dc/elements/1.1/" xmlns:cc="http://creativecommons.org/ns#" xmlns:rdf="http://www.w3.org/1999/02/22-rdf-syntax-ns#">
   <cc:Work>
    <dc:type rdf:resource="http://purl.org/dc/dcmitype/StillImage"/>
    <dc:date>2022-07-28T20:50:47.324606</dc:date>
    <dc:format>image/svg+xml</dc:format>
    <dc:creator>
     <cc:Agent>
      <dc:title>Matplotlib v3.5.1, https://matplotlib.org/</dc:title>
     </cc:Agent>
    </dc:creator>
   </cc:Work>
  </rdf:RDF>
 </metadata>
 <defs>
  <style type="text/css">*{stroke-linejoin: round; stroke-linecap: butt}</style>
 </defs>
 <g id="figure_1">
  <g id="patch_1">
   <path d="M 0 360 
L 504 360 
L 504 0 
L 0 0 
L 0 360 
z
" style="fill: none"/>
  </g>
  <g id="axes_1">
   <g id="patch_2">
    <path d="M 55.925 313.2 
L 460.825 313.2 
L 460.825 28.8 
L 55.925 28.8 
z
" style="fill: #ffffff"/>
   </g>
   <g id="matplotlib.axis_1">
    <g id="xtick_1">
     <g id="line2d_1">
      <defs>
       <path id="ma54d69f6aa" d="M 0 0 
L 0 3.5 
" style="stroke: #000000; stroke-width: 0.8"/>
      </defs>
      <g>
       <use xlink:href="#ma54d69f6aa" x="74.329545" y="313.2" style="stroke: #000000; stroke-width: 0.8"/>
      </g>
     </g>
     <g id="text_1">
      <!-- 0 -->
      <g transform="translate(71.148295 327.798437)scale(0.1 -0.1)">
       <defs>
        <path id="DejaVuSans-30" d="M 2034 4250 
Q 1547 4250 1301 3770 
Q 1056 3291 1056 2328 
Q 1056 1369 1301 889 
Q 1547 409 2034 409 
Q 2525 409 2770 889 
Q 3016 1369 3016 2328 
Q 3016 3291 2770 3770 
Q 2525 4250 2034 4250 
z
M 2034 4750 
Q 2819 4750 3233 4129 
Q 3647 3509 3647 2328 
Q 3647 1150 3233 529 
Q 2819 -91 2034 -91 
Q 1250 -91 836 529 
Q 422 1150 422 2328 
Q 422 3509 836 4129 
Q 1250 4750 2034 4750 
z
" transform="scale(0.015625)"/>
       </defs>
       <use xlink:href="#DejaVuSans-30"/>
      </g>
     </g>
    </g>
    <g id="xtick_2">
     <g id="line2d_2">
      <g>
       <use xlink:href="#ma54d69f6aa" x="148.021419" y="313.2" style="stroke: #000000; stroke-width: 0.8"/>
      </g>
     </g>
     <g id="text_2">
      <!-- 200 -->
      <g transform="translate(138.477669 327.798437)scale(0.1 -0.1)">
       <defs>
        <path id="DejaVuSans-32" d="M 1228 531 
L 3431 531 
L 3431 0 
L 469 0 
L 469 531 
Q 828 903 1448 1529 
Q 2069 2156 2228 2338 
Q 2531 2678 2651 2914 
Q 2772 3150 2772 3378 
Q 2772 3750 2511 3984 
Q 2250 4219 1831 4219 
Q 1534 4219 1204 4116 
Q 875 4013 500 3803 
L 500 4441 
Q 881 4594 1212 4672 
Q 1544 4750 1819 4750 
Q 2544 4750 2975 4387 
Q 3406 4025 3406 3419 
Q 3406 3131 3298 2873 
Q 3191 2616 2906 2266 
Q 2828 2175 2409 1742 
Q 1991 1309 1228 531 
z
" transform="scale(0.015625)"/>
       </defs>
       <use xlink:href="#DejaVuSans-32"/>
       <use xlink:href="#DejaVuSans-30" x="63.623047"/>
       <use xlink:href="#DejaVuSans-30" x="127.246094"/>
      </g>
     </g>
    </g>
    <g id="xtick_3">
     <g id="line2d_3">
      <g>
       <use xlink:href="#ma54d69f6aa" x="221.713293" y="313.2" style="stroke: #000000; stroke-width: 0.8"/>
      </g>
     </g>
     <g id="text_3">
      <!-- 400 -->
      <g transform="translate(212.169543 327.798437)scale(0.1 -0.1)">
       <defs>
        <path id="DejaVuSans-34" d="M 2419 4116 
L 825 1625 
L 2419 1625 
L 2419 4116 
z
M 2253 4666 
L 3047 4666 
L 3047 1625 
L 3713 1625 
L 3713 1100 
L 3047 1100 
L 3047 0 
L 2419 0 
L 2419 1100 
L 313 1100 
L 313 1709 
L 2253 4666 
z
" transform="scale(0.015625)"/>
       </defs>
       <use xlink:href="#DejaVuSans-34"/>
       <use xlink:href="#DejaVuSans-30" x="63.623047"/>
       <use xlink:href="#DejaVuSans-30" x="127.246094"/>
      </g>
     </g>
    </g>
    <g id="xtick_4">
     <g id="line2d_4">
      <g>
       <use xlink:href="#ma54d69f6aa" x="295.405167" y="313.2" style="stroke: #000000; stroke-width: 0.8"/>
      </g>
     </g>
     <g id="text_4">
      <!-- 600 -->
      <g transform="translate(285.861417 327.798437)scale(0.1 -0.1)">
       <defs>
        <path id="DejaVuSans-36" d="M 2113 2584 
Q 1688 2584 1439 2293 
Q 1191 2003 1191 1497 
Q 1191 994 1439 701 
Q 1688 409 2113 409 
Q 2538 409 2786 701 
Q 3034 994 3034 1497 
Q 3034 2003 2786 2293 
Q 2538 2584 2113 2584 
z
M 3366 4563 
L 3366 3988 
Q 3128 4100 2886 4159 
Q 2644 4219 2406 4219 
Q 1781 4219 1451 3797 
Q 1122 3375 1075 2522 
Q 1259 2794 1537 2939 
Q 1816 3084 2150 3084 
Q 2853 3084 3261 2657 
Q 3669 2231 3669 1497 
Q 3669 778 3244 343 
Q 2819 -91 2113 -91 
Q 1303 -91 875 529 
Q 447 1150 447 2328 
Q 447 3434 972 4092 
Q 1497 4750 2381 4750 
Q 2619 4750 2861 4703 
Q 3103 4656 3366 4563 
z
" transform="scale(0.015625)"/>
       </defs>
       <use xlink:href="#DejaVuSans-36"/>
       <use xlink:href="#DejaVuSans-30" x="63.623047"/>
       <use xlink:href="#DejaVuSans-30" x="127.246094"/>
      </g>
     </g>
    </g>
    <g id="xtick_5">
     <g id="line2d_5">
      <g>
       <use xlink:href="#ma54d69f6aa" x="369.09704" y="313.2" style="stroke: #000000; stroke-width: 0.8"/>
      </g>
     </g>
     <g id="text_5">
      <!-- 800 -->
      <g transform="translate(359.55329 327.798437)scale(0.1 -0.1)">
       <defs>
        <path id="DejaVuSans-38" d="M 2034 2216 
Q 1584 2216 1326 1975 
Q 1069 1734 1069 1313 
Q 1069 891 1326 650 
Q 1584 409 2034 409 
Q 2484 409 2743 651 
Q 3003 894 3003 1313 
Q 3003 1734 2745 1975 
Q 2488 2216 2034 2216 
z
M 1403 2484 
Q 997 2584 770 2862 
Q 544 3141 544 3541 
Q 544 4100 942 4425 
Q 1341 4750 2034 4750 
Q 2731 4750 3128 4425 
Q 3525 4100 3525 3541 
Q 3525 3141 3298 2862 
Q 3072 2584 2669 2484 
Q 3125 2378 3379 2068 
Q 3634 1759 3634 1313 
Q 3634 634 3220 271 
Q 2806 -91 2034 -91 
Q 1263 -91 848 271 
Q 434 634 434 1313 
Q 434 1759 690 2068 
Q 947 2378 1403 2484 
z
M 1172 3481 
Q 1172 3119 1398 2916 
Q 1625 2713 2034 2713 
Q 2441 2713 2670 2916 
Q 2900 3119 2900 3481 
Q 2900 3844 2670 4047 
Q 2441 4250 2034 4250 
Q 1625 4250 1398 4047 
Q 1172 3844 1172 3481 
z
" transform="scale(0.015625)"/>
       </defs>
       <use xlink:href="#DejaVuSans-38"/>
       <use xlink:href="#DejaVuSans-30" x="63.623047"/>
       <use xlink:href="#DejaVuSans-30" x="127.246094"/>
      </g>
     </g>
    </g>
    <g id="xtick_6">
     <g id="line2d_6">
      <g>
       <use xlink:href="#ma54d69f6aa" x="442.788914" y="313.2" style="stroke: #000000; stroke-width: 0.8"/>
      </g>
     </g>
     <g id="text_6">
      <!-- 1000 -->
      <g transform="translate(430.063914 327.798437)scale(0.1 -0.1)">
       <defs>
        <path id="DejaVuSans-31" d="M 794 531 
L 1825 531 
L 1825 4091 
L 703 3866 
L 703 4441 
L 1819 4666 
L 2450 4666 
L 2450 531 
L 3481 531 
L 3481 0 
L 794 0 
L 794 531 
z
" transform="scale(0.015625)"/>
       </defs>
       <use xlink:href="#DejaVuSans-31"/>
       <use xlink:href="#DejaVuSans-30" x="63.623047"/>
       <use xlink:href="#DejaVuSans-30" x="127.246094"/>
       <use xlink:href="#DejaVuSans-30" x="190.869141"/>
      </g>
     </g>
    </g>
    <g id="text_7">
     <!-- Episode -->
     <g transform="translate(228.91875 345.275781)scale(0.15 -0.15)">
      <defs>
       <path id="DejaVuSans-45" d="M 628 4666 
L 3578 4666 
L 3578 4134 
L 1259 4134 
L 1259 2753 
L 3481 2753 
L 3481 2222 
L 1259 2222 
L 1259 531 
L 3634 531 
L 3634 0 
L 628 0 
L 628 4666 
z
" transform="scale(0.015625)"/>
       <path id="DejaVuSans-70" d="M 1159 525 
L 1159 -1331 
L 581 -1331 
L 581 3500 
L 1159 3500 
L 1159 2969 
Q 1341 3281 1617 3432 
Q 1894 3584 2278 3584 
Q 2916 3584 3314 3078 
Q 3713 2572 3713 1747 
Q 3713 922 3314 415 
Q 2916 -91 2278 -91 
Q 1894 -91 1617 61 
Q 1341 213 1159 525 
z
M 3116 1747 
Q 3116 2381 2855 2742 
Q 2594 3103 2138 3103 
Q 1681 3103 1420 2742 
Q 1159 2381 1159 1747 
Q 1159 1113 1420 752 
Q 1681 391 2138 391 
Q 2594 391 2855 752 
Q 3116 1113 3116 1747 
z
" transform="scale(0.015625)"/>
       <path id="DejaVuSans-69" d="M 603 3500 
L 1178 3500 
L 1178 0 
L 603 0 
L 603 3500 
z
M 603 4863 
L 1178 4863 
L 1178 4134 
L 603 4134 
L 603 4863 
z
" transform="scale(0.015625)"/>
       <path id="DejaVuSans-73" d="M 2834 3397 
L 2834 2853 
Q 2591 2978 2328 3040 
Q 2066 3103 1784 3103 
Q 1356 3103 1142 2972 
Q 928 2841 928 2578 
Q 928 2378 1081 2264 
Q 1234 2150 1697 2047 
L 1894 2003 
Q 2506 1872 2764 1633 
Q 3022 1394 3022 966 
Q 3022 478 2636 193 
Q 2250 -91 1575 -91 
Q 1294 -91 989 -36 
Q 684 19 347 128 
L 347 722 
Q 666 556 975 473 
Q 1284 391 1588 391 
Q 1994 391 2212 530 
Q 2431 669 2431 922 
Q 2431 1156 2273 1281 
Q 2116 1406 1581 1522 
L 1381 1569 
Q 847 1681 609 1914 
Q 372 2147 372 2553 
Q 372 3047 722 3315 
Q 1072 3584 1716 3584 
Q 2034 3584 2315 3537 
Q 2597 3491 2834 3397 
z
" transform="scale(0.015625)"/>
       <path id="DejaVuSans-6f" d="M 1959 3097 
Q 1497 3097 1228 2736 
Q 959 2375 959 1747 
Q 959 1119 1226 758 
Q 1494 397 1959 397 
Q 2419 397 2687 759 
Q 2956 1122 2956 1747 
Q 2956 2369 2687 2733 
Q 2419 3097 1959 3097 
z
M 1959 3584 
Q 2709 3584 3137 3096 
Q 3566 2609 3566 1747 
Q 3566 888 3137 398 
Q 2709 -91 1959 -91 
Q 1206 -91 779 398 
Q 353 888 353 1747 
Q 353 2609 779 3096 
Q 1206 3584 1959 3584 
z
" transform="scale(0.015625)"/>
       <path id="DejaVuSans-64" d="M 2906 2969 
L 2906 4863 
L 3481 4863 
L 3481 0 
L 2906 0 
L 2906 525 
Q 2725 213 2448 61 
Q 2172 -91 1784 -91 
Q 1150 -91 751 415 
Q 353 922 353 1747 
Q 353 2572 751 3078 
Q 1150 3584 1784 3584 
Q 2172 3584 2448 3432 
Q 2725 3281 2906 2969 
z
M 947 1747 
Q 947 1113 1208 752 
Q 1469 391 1925 391 
Q 2381 391 2643 752 
Q 2906 1113 2906 1747 
Q 2906 2381 2643 2742 
Q 2381 3103 1925 3103 
Q 1469 3103 1208 2742 
Q 947 2381 947 1747 
z
" transform="scale(0.015625)"/>
       <path id="DejaVuSans-65" d="M 3597 1894 
L 3597 1613 
L 953 1613 
Q 991 1019 1311 708 
Q 1631 397 2203 397 
Q 2534 397 2845 478 
Q 3156 559 3463 722 
L 3463 178 
Q 3153 47 2828 -22 
Q 2503 -91 2169 -91 
Q 1331 -91 842 396 
Q 353 884 353 1716 
Q 353 2575 817 3079 
Q 1281 3584 2069 3584 
Q 2775 3584 3186 3129 
Q 3597 2675 3597 1894 
z
M 3022 2063 
Q 3016 2534 2758 2815 
Q 2500 3097 2075 3097 
Q 1594 3097 1305 2825 
Q 1016 2553 972 2059 
L 3022 2063 
z
" transform="scale(0.015625)"/>
      </defs>
      <use xlink:href="#DejaVuSans-45"/>
      <use xlink:href="#DejaVuSans-70" x="63.183594"/>
      <use xlink:href="#DejaVuSans-69" x="126.660156"/>
      <use xlink:href="#DejaVuSans-73" x="154.443359"/>
      <use xlink:href="#DejaVuSans-6f" x="206.542969"/>
      <use xlink:href="#DejaVuSans-64" x="267.724609"/>
      <use xlink:href="#DejaVuSans-65" x="331.201172"/>
     </g>
    </g>
   </g>
   <g id="matplotlib.axis_2">
    <g id="ytick_1">
     <g id="line2d_7">
      <defs>
       <path id="mc11bb1382d" d="M 0 0 
L -3.5 0 
" style="stroke: #000000; stroke-width: 0.8"/>
      </defs>
      <g>
       <use xlink:href="#mc11bb1382d" x="55.925" y="313.2" style="stroke: #000000; stroke-width: 0.8"/>
      </g>
     </g>
     <g id="text_8">
      <!-- 0 -->
      <g transform="translate(42.5625 316.999219)scale(0.1 -0.1)">
       <use xlink:href="#DejaVuSans-30"/>
      </g>
     </g>
    </g>
    <g id="ytick_2">
     <g id="line2d_8">
      <g>
       <use xlink:href="#mc11bb1382d" x="55.925" y="269.446154" style="stroke: #000000; stroke-width: 0.8"/>
      </g>
     </g>
     <g id="text_9">
      <!-- 100 -->
      <g transform="translate(29.8375 273.245373)scale(0.1 -0.1)">
       <use xlink:href="#DejaVuSans-31"/>
       <use xlink:href="#DejaVuSans-30" x="63.623047"/>
       <use xlink:href="#DejaVuSans-30" x="127.246094"/>
      </g>
     </g>
    </g>
    <g id="ytick_3">
     <g id="line2d_9">
      <g>
       <use xlink:href="#mc11bb1382d" x="55.925" y="225.692308" style="stroke: #000000; stroke-width: 0.8"/>
      </g>
     </g>
     <g id="text_10">
      <!-- 200 -->
      <g transform="translate(29.8375 229.491526)scale(0.1 -0.1)">
       <use xlink:href="#DejaVuSans-32"/>
       <use xlink:href="#DejaVuSans-30" x="63.623047"/>
       <use xlink:href="#DejaVuSans-30" x="127.246094"/>
      </g>
     </g>
    </g>
    <g id="ytick_4">
     <g id="line2d_10">
      <g>
       <use xlink:href="#mc11bb1382d" x="55.925" y="181.938462" style="stroke: #000000; stroke-width: 0.8"/>
      </g>
     </g>
     <g id="text_11">
      <!-- 300 -->
      <g transform="translate(29.8375 185.73768)scale(0.1 -0.1)">
       <defs>
        <path id="DejaVuSans-33" d="M 2597 2516 
Q 3050 2419 3304 2112 
Q 3559 1806 3559 1356 
Q 3559 666 3084 287 
Q 2609 -91 1734 -91 
Q 1441 -91 1130 -33 
Q 819 25 488 141 
L 488 750 
Q 750 597 1062 519 
Q 1375 441 1716 441 
Q 2309 441 2620 675 
Q 2931 909 2931 1356 
Q 2931 1769 2642 2001 
Q 2353 2234 1838 2234 
L 1294 2234 
L 1294 2753 
L 1863 2753 
Q 2328 2753 2575 2939 
Q 2822 3125 2822 3475 
Q 2822 3834 2567 4026 
Q 2313 4219 1838 4219 
Q 1578 4219 1281 4162 
Q 984 4106 628 3988 
L 628 4550 
Q 988 4650 1302 4700 
Q 1616 4750 1894 4750 
Q 2613 4750 3031 4423 
Q 3450 4097 3450 3541 
Q 3450 3153 3228 2886 
Q 3006 2619 2597 2516 
z
" transform="scale(0.015625)"/>
       </defs>
       <use xlink:href="#DejaVuSans-33"/>
       <use xlink:href="#DejaVuSans-30" x="63.623047"/>
       <use xlink:href="#DejaVuSans-30" x="127.246094"/>
      </g>
     </g>
    </g>
    <g id="ytick_5">
     <g id="line2d_11">
      <g>
       <use xlink:href="#mc11bb1382d" x="55.925" y="138.184615" style="stroke: #000000; stroke-width: 0.8"/>
      </g>
     </g>
     <g id="text_12">
      <!-- 400 -->
      <g transform="translate(29.8375 141.983834)scale(0.1 -0.1)">
       <use xlink:href="#DejaVuSans-34"/>
       <use xlink:href="#DejaVuSans-30" x="63.623047"/>
       <use xlink:href="#DejaVuSans-30" x="127.246094"/>
      </g>
     </g>
    </g>
    <g id="ytick_6">
     <g id="line2d_12">
      <g>
       <use xlink:href="#mc11bb1382d" x="55.925" y="94.430769" style="stroke: #000000; stroke-width: 0.8"/>
      </g>
     </g>
     <g id="text_13">
      <!-- 500 -->
      <g transform="translate(29.8375 98.229988)scale(0.1 -0.1)">
       <defs>
        <path id="DejaVuSans-35" d="M 691 4666 
L 3169 4666 
L 3169 4134 
L 1269 4134 
L 1269 2991 
Q 1406 3038 1543 3061 
Q 1681 3084 1819 3084 
Q 2600 3084 3056 2656 
Q 3513 2228 3513 1497 
Q 3513 744 3044 326 
Q 2575 -91 1722 -91 
Q 1428 -91 1123 -41 
Q 819 9 494 109 
L 494 744 
Q 775 591 1075 516 
Q 1375 441 1709 441 
Q 2250 441 2565 725 
Q 2881 1009 2881 1497 
Q 2881 1984 2565 2268 
Q 2250 2553 1709 2553 
Q 1456 2553 1204 2497 
Q 953 2441 691 2322 
L 691 4666 
z
" transform="scale(0.015625)"/>
       </defs>
       <use xlink:href="#DejaVuSans-35"/>
       <use xlink:href="#DejaVuSans-30" x="63.623047"/>
       <use xlink:href="#DejaVuSans-30" x="127.246094"/>
      </g>
     </g>
    </g>
    <g id="ytick_7">
     <g id="line2d_13">
      <g>
       <use xlink:href="#mc11bb1382d" x="55.925" y="50.676923" style="stroke: #000000; stroke-width: 0.8"/>
      </g>
     </g>
     <g id="text_14">
      <!-- 600 -->
      <g transform="translate(29.8375 54.476142)scale(0.1 -0.1)">
       <use xlink:href="#DejaVuSans-36"/>
       <use xlink:href="#DejaVuSans-30" x="63.623047"/>
       <use xlink:href="#DejaVuSans-30" x="127.246094"/>
      </g>
     </g>
    </g>
    <g id="text_15">
     <!-- Score -->
     <g transform="translate(22.717969 192.003516)rotate(-90)scale(0.15 -0.15)">
      <defs>
       <path id="DejaVuSans-53" d="M 3425 4513 
L 3425 3897 
Q 3066 4069 2747 4153 
Q 2428 4238 2131 4238 
Q 1616 4238 1336 4038 
Q 1056 3838 1056 3469 
Q 1056 3159 1242 3001 
Q 1428 2844 1947 2747 
L 2328 2669 
Q 3034 2534 3370 2195 
Q 3706 1856 3706 1288 
Q 3706 609 3251 259 
Q 2797 -91 1919 -91 
Q 1588 -91 1214 -16 
Q 841 59 441 206 
L 441 856 
Q 825 641 1194 531 
Q 1563 422 1919 422 
Q 2459 422 2753 634 
Q 3047 847 3047 1241 
Q 3047 1584 2836 1778 
Q 2625 1972 2144 2069 
L 1759 2144 
Q 1053 2284 737 2584 
Q 422 2884 422 3419 
Q 422 4038 858 4394 
Q 1294 4750 2059 4750 
Q 2388 4750 2728 4690 
Q 3069 4631 3425 4513 
z
" transform="scale(0.015625)"/>
       <path id="DejaVuSans-63" d="M 3122 3366 
L 3122 2828 
Q 2878 2963 2633 3030 
Q 2388 3097 2138 3097 
Q 1578 3097 1268 2742 
Q 959 2388 959 1747 
Q 959 1106 1268 751 
Q 1578 397 2138 397 
Q 2388 397 2633 464 
Q 2878 531 3122 666 
L 3122 134 
Q 2881 22 2623 -34 
Q 2366 -91 2075 -91 
Q 1284 -91 818 406 
Q 353 903 353 1747 
Q 353 2603 823 3093 
Q 1294 3584 2113 3584 
Q 2378 3584 2631 3529 
Q 2884 3475 3122 3366 
z
" transform="scale(0.015625)"/>
       <path id="DejaVuSans-72" d="M 2631 2963 
Q 2534 3019 2420 3045 
Q 2306 3072 2169 3072 
Q 1681 3072 1420 2755 
Q 1159 2438 1159 1844 
L 1159 0 
L 581 0 
L 581 3500 
L 1159 3500 
L 1159 2956 
Q 1341 3275 1631 3429 
Q 1922 3584 2338 3584 
Q 2397 3584 2469 3576 
Q 2541 3569 2628 3553 
L 2631 2963 
z
" transform="scale(0.015625)"/>
      </defs>
      <use xlink:href="#DejaVuSans-53"/>
      <use xlink:href="#DejaVuSans-63" x="63.476562"/>
      <use xlink:href="#DejaVuSans-6f" x="118.457031"/>
      <use xlink:href="#DejaVuSans-72" x="179.638672"/>
      <use xlink:href="#DejaVuSans-65" x="218.501953"/>
     </g>
    </g>
   </g>
   <g id="line2d_14">
    <path d="M 74.329545 297.011077 
L 75.066464 300.511385 
L 75.434924 304.886769 
L 75.803383 307.512 
L 76.171842 306.636923 
L 76.540302 306.636923 
L 76.908761 304.449231 
L 77.27722 307.949538 
L 77.64568 295.260923 
L 78.382599 307.512 
L 78.751058 308.387077 
L 79.119517 305.324308 
L 79.487977 306.636923 
L 79.856436 304.449231 
L 80.224895 306.199385 
L 80.593355 299.198769 
L 80.961814 299.198769 
L 81.330273 305.761846 
L 81.698733 304.011692 
L 82.067192 295.260923 
L 82.804111 309.262154 
L 83.17257 306.199385 
L 83.54103 294.823385 
L 83.909489 307.512 
L 84.277948 303.136615 
L 84.646408 303.574154 
L 85.383327 308.387077 
L 85.751786 298.323692 
L 86.120245 307.074462 
L 86.488705 299.636308 
L 86.857164 298.323692 
L 87.225623 307.074462 
L 87.594083 307.074462 
L 87.962542 305.324308 
L 88.331001 307.949538 
L 89.06792 300.511385 
L 89.43638 305.324308 
L 89.804839 308.387077 
L 90.173298 305.761846 
L 90.541758 307.074462 
L 90.910217 307.512 
L 91.278676 307.512 
L 91.647136 304.886769 
L 92.015595 288.697846 
L 92.384055 307.512 
L 92.752514 308.824615 
L 93.120973 303.574154 
L 93.489433 301.386462 
L 93.857892 301.824 
L 94.226351 298.761231 
L 94.594811 307.074462 
L 94.96327 300.948923 
L 95.331729 304.449231 
L 95.700189 300.948923 
L 96.068648 299.198769 
L 96.437108 308.387077 
L 96.805567 308.387077 
L 97.174026 307.074462 
L 97.542486 309.699692 
L 97.910945 304.886769 
L 98.279404 305.761846 
L 98.647864 303.574154 
L 99.016323 306.636923 
L 99.384783 307.949538 
L 99.753242 304.449231 
L 100.121701 304.886769 
L 100.490161 306.199385 
L 100.85862 307.074462 
L 101.227079 305.761846 
L 101.595539 302.699077 
L 101.963998 305.324308 
L 102.332457 304.886769 
L 102.700917 303.136615 
L 103.069376 298.323692 
L 103.437836 307.949538 
L 103.806295 306.199385 
L 104.174754 309.262154 
L 104.543214 304.449231 
L 104.911673 304.449231 
L 105.280132 301.386462 
L 105.648592 307.074462 
L 106.017051 305.761846 
L 106.385511 300.948923 
L 106.75397 302.699077 
L 107.122429 307.512 
L 107.490889 303.574154 
L 107.859348 287.385231 
L 108.227807 300.948923 
L 108.596267 301.824 
L 108.964726 299.198769 
L 109.333185 301.824 
L 109.701645 296.136 
L 110.070104 288.697846 
L 110.438564 293.510769 
L 110.807023 301.386462 
L 111.175482 304.886769 
L 111.912401 296.573538 
L 112.28086 308.387077 
L 112.64932 300.073846 
L 113.017779 301.386462 
L 113.386239 299.636308 
L 113.754698 302.261538 
L 114.123157 307.512 
L 114.491617 302.699077 
L 114.860076 302.261538 
L 115.228535 303.136615 
L 115.596995 300.073846 
L 115.965454 290.010462 
L 116.333913 295.698462 
L 116.702373 304.449231 
L 117.070832 296.573538 
L 117.439292 304.449231 
L 117.807751 305.324308 
L 118.54467 306.199385 
L 118.913129 308.387077 
L 119.281588 295.698462 
L 119.650048 307.074462 
L 120.018507 307.074462 
L 120.386967 302.261538 
L 120.755426 294.823385 
L 121.123885 308.387077 
L 121.492345 307.512 
L 121.860804 294.385846 
L 122.229263 287.385231 
L 122.597723 301.386462 
L 122.966182 304.886769 
L 123.334641 301.386462 
L 123.703101 304.886769 
L 124.07156 304.011692 
L 124.44002 295.260923 
L 124.808479 305.324308 
L 125.176938 301.386462 
L 125.545398 304.449231 
L 125.913857 300.511385 
L 126.282316 301.386462 
L 126.650776 292.198154 
L 127.019235 306.636923 
L 127.387695 302.261538 
L 127.756154 289.572923 
L 128.124613 300.073846 
L 128.493073 297.886154 
L 128.861532 306.199385 
L 129.229991 295.698462 
L 129.598451 307.074462 
L 129.96691 307.512 
L 130.703829 293.510769 
L 131.072288 296.136 
L 131.440748 291.323077 
L 131.809207 307.074462 
L 132.177666 301.824 
L 132.546126 298.761231 
L 132.914585 305.324308 
L 133.283044 302.261538 
L 133.651504 306.199385 
L 134.019963 298.761231 
L 134.388423 305.761846 
L 134.756882 304.011692 
L 135.125341 299.636308 
L 135.493801 308.387077 
L 135.86226 309.262154 
L 136.230719 302.261538 
L 136.599179 258.945231 
L 137.336097 308.387077 
L 137.704557 308.824615 
L 138.073016 300.948923 
L 138.441476 307.949538 
L 138.809935 299.636308 
L 139.178394 288.260308 
L 139.546854 294.385846 
L 139.915313 308.387077 
L 140.283772 305.324308 
L 140.652232 288.697846 
L 141.020691 295.260923 
L 141.389151 307.074462 
L 141.75761 304.011692 
L 142.126069 304.449231 
L 142.494529 307.949538 
L 143.231447 297.448615 
L 143.599907 306.199385 
L 143.968366 306.199385 
L 144.336825 306.636923 
L 145.073744 301.386462 
L 145.442204 305.324308 
L 145.810663 307.074462 
L 146.179122 305.761846 
L 146.547582 295.698462 
L 146.916041 307.512 
L 147.2845 305.324308 
L 147.65296 306.199385 
L 148.021419 308.824615 
L 148.389879 303.136615 
L 148.758338 295.698462 
L 149.126797 285.197538 
L 149.495257 295.260923 
L 149.863716 274.696615 
L 150.232175 278.634462 
L 150.600635 295.260923 
L 150.969094 293.510769 
L 151.337553 303.574154 
L 151.706013 298.761231 
L 152.074472 286.947692 
L 152.442932 303.136615 
L 152.811391 304.449231 
L 153.17985 301.386462 
L 153.54831 304.449231 
L 153.916769 303.574154 
L 154.285228 307.512 
L 154.653688 307.949538 
L 155.022147 304.449231 
L 155.390607 304.886769 
L 155.759066 308.824615 
L 156.127525 284.322462 
L 156.495985 271.633846 
L 156.864444 290.885538 
L 157.232903 293.948308 
L 157.601363 305.761846 
L 157.969822 283.009846 
L 158.338281 286.510154 
L 158.706741 306.636923 
L 159.0752 304.449231 
L 159.44366 301.386462 
L 159.812119 303.574154 
L 160.180578 286.510154 
L 160.549038 298.761231 
L 160.917497 303.136615 
L 161.285956 265.070769 
L 161.654416 300.073846 
L 162.022875 298.323692 
L 162.391335 283.884923 
L 162.759794 243.193846 
L 163.128253 283.884923 
L 163.496713 244.944 
L 163.865172 304.011692 
L 164.233631 306.636923 
L 164.602091 306.199385 
L 164.97055 294.385846 
L 165.339009 307.949538 
L 165.707469 246.694154 
L 166.075928 302.699077 
L 166.444388 297.886154 
L 166.812847 305.761846 
L 167.181306 278.196923 
L 167.549766 294.385846 
L 167.918225 296.573538 
L 168.286684 293.948308 
L 168.655144 301.824 
L 169.023603 265.508308 
L 169.392063 288.697846 
L 169.760522 304.449231 
L 170.128981 297.886154 
L 170.497441 303.136615 
L 170.8659 305.761846 
L 171.234359 268.571077 
L 171.602819 291.323077 
L 171.971278 305.761846 
L 172.339737 282.572308 
L 172.708197 285.635077 
L 173.076656 304.449231 
L 173.445116 283.009846 
L 173.813575 250.632 
L 174.550494 299.636308 
L 174.918953 275.134154 
L 175.287412 307.949538 
L 175.655872 301.386462 
L 176.024331 258.507692 
L 176.392791 263.758154 
L 176.76125 297.011077 
L 177.129709 285.197538 
L 177.498169 304.449231 
L 177.866628 240.131077 
L 178.603547 304.011692 
L 178.972006 300.511385 
L 179.340465 284.322462 
L 179.708925 301.386462 
L 180.077384 285.197538 
L 180.445844 299.636308 
L 180.814303 250.194462 
L 181.182762 291.323077 
L 181.551222 272.946462 
L 181.919681 262.883077 
L 182.28814 306.199385 
L 182.6566 282.572308 
L 183.025059 277.321846 
L 183.393519 303.574154 
L 183.761978 264.633231 
L 184.130437 291.760615 
L 184.498897 262.445538 
L 184.867356 273.821538 
L 185.235815 290.885538 
L 185.604275 267.258462 
L 185.972734 290.885538 
L 186.341193 284.76 
L 186.709653 272.071385 
L 187.078112 283.009846 
L 187.446572 297.448615 
L 187.815031 248.444308 
L 188.18349 272.508923 
L 188.55195 269.008615 
L 188.920409 267.696 
L 189.288868 265.945846 
L 189.657328 255.882462 
L 190.025787 300.073846 
L 190.394247 276.446769 
L 190.762706 231.380308 
L 191.131165 279.947077 
L 191.868084 259.820308 
L 192.236543 230.942769 
L 192.605003 281.697231 
L 192.973462 261.132923 
L 193.341921 265.945846 
L 193.710381 299.636308 
L 194.07884 259.820308 
L 194.4473 267.258462 
L 194.815759 283.447385 
L 195.184218 239.256 
L 195.552678 244.506462 
L 195.921137 235.318154 
L 196.289596 262.008 
L 196.658056 261.570462 
L 197.026515 256.757538 
L 197.394975 244.944 
L 197.763434 210.378462 
L 198.500353 258.070154 
L 198.868812 258.070154 
L 199.237271 227.88 
L 199.605731 275.571692 
L 199.97419 271.196308 
L 200.342649 251.944615 
L 200.711109 267.258462 
L 201.079568 260.257846 
L 201.448028 263.320615 
L 201.816487 274.259077 
L 202.184946 254.132308 
L 202.553406 245.381538 
L 202.921865 255.007385 
L 203.290324 277.759385 
L 203.658784 275.571692 
L 204.027243 213.003692 
L 204.395703 277.321846 
L 204.764162 250.632 
L 205.132621 283.009846 
L 205.501081 280.384615 
L 205.86954 286.947692 
L 206.237999 209.940923 
L 206.606459 250.632 
L 206.974918 268.571077 
L 207.343377 229.192615 
L 207.711837 283.884923 
L 208.080296 270.321231 
L 208.448756 266.820923 
L 208.817215 274.259077 
L 209.185674 222.192 
L 209.554134 283.884923 
L 209.922593 269.883692 
L 210.291052 272.946462 
L 210.659512 282.572308 
L 211.027971 271.196308 
L 211.396431 223.504615 
L 211.76489 280.384615 
L 212.133349 263.758154 
L 212.501809 233.130462 
L 212.870268 234.443077 
L 213.238727 251.069538 
L 213.607187 257.195077 
L 213.975646 273.384 
L 214.344105 265.508308 
L 214.712565 272.508923 
L 215.081024 200.752615 
L 215.449484 267.696 
L 215.817943 260.257846 
L 216.186402 229.630154 
L 216.554862 246.256615 
L 216.923321 275.571692 
L 217.29178 260.257846 
L 217.66024 276.009231 
L 218.028699 267.258462 
L 218.397159 272.508923 
L 218.765618 258.945231 
L 219.134077 200.752615 
L 219.502537 268.571077 
L 219.870996 273.821538 
L 220.239455 265.945846 
L 220.607915 253.694769 
L 220.976374 279.509538 
L 221.344833 267.258462 
L 221.713293 279.072 
L 222.081752 220.879385 
L 222.450212 269.446154 
L 222.818671 277.321846 
L 223.18713 260.257846 
L 223.55559 261.570462 
L 223.924049 193.752 
L 224.292508 235.755692 
L 225.029427 266.820923 
L 225.397887 275.571692 
L 225.766346 256.757538 
L 226.134805 283.447385 
L 226.503265 279.072 
L 226.871724 266.383385 
L 227.240183 270.321231 
L 227.608643 254.569846 
L 227.977102 265.945846 
L 228.345561 265.070769 
L 228.714021 267.258462 
L 229.08248 273.821538 
L 229.45094 262.008 
L 229.819399 262.445538 
L 230.187858 297.011077 
L 230.556318 254.132308 
L 230.924777 269.446154 
L 231.293236 276.009231 
L 231.661696 208.190769 
L 232.030155 253.257231 
L 232.398615 270.321231 
L 232.767074 270.758769 
L 233.135533 274.259077 
L 233.503993 285.197538 
L 234.240911 269.883692 
L 234.609371 269.883692 
L 234.97783 265.508308 
L 235.714749 281.259692 
L 236.083208 280.384615 
L 236.451668 254.132308 
L 236.820127 256.757538 
L 237.188586 256.32 
L 237.557046 264.633231 
L 238.293964 241.006154 
L 238.662424 267.696 
L 239.030883 266.383385 
L 239.399343 239.256 
L 239.767802 283.884923 
L 240.136261 265.508308 
L 240.504721 263.320615 
L 240.87318 246.694154 
L 241.241639 252.819692 
L 241.610099 250.194462 
L 241.978558 231.817846 
L 242.347017 254.569846 
L 242.715477 269.883692 
L 243.083936 268.133538 
L 243.820855 237.505846 
L 244.189314 267.258462 
L 244.557774 273.384 
L 244.926233 255.882462 
L 245.294692 259.820308 
L 245.663152 246.694154 
L 246.031611 264.633231 
L 246.400071 258.507692 
L 246.76853 249.319385 
L 247.505449 297.011077 
L 247.873908 257.195077 
L 248.242367 251.944615 
L 248.610827 278.634462 
L 248.979286 251.069538 
L 249.347745 260.257846 
L 249.716205 244.068923 
L 250.084664 276.884308 
L 250.453124 245.819077 
L 250.821583 279.072 
L 251.190042 270.321231 
L 251.558502 266.383385 
L 251.926961 240.131077 
L 252.29542 247.131692 
L 252.66388 269.446154 
L 253.032339 279.072 
L 253.400799 277.759385 
L 253.769258 269.008615 
L 254.137717 269.446154 
L 254.506177 275.134154 
L 254.874636 246.256615 
L 255.243095 230.942769 
L 255.611555 235.755692 
L 255.980014 245.819077 
L 256.348473 261.132923 
L 256.716933 233.568 
L 257.085392 270.758769 
L 257.822311 261.570462 
L 258.55923 275.134154 
L 258.927689 272.071385 
L 259.296148 249.319385 
L 259.664608 209.503385 
L 260.033067 262.008 
L 260.401527 241.006154 
L 261.138445 268.571077 
L 261.506905 231.380308 
L 261.875364 257.632615 
L 262.243823 269.008615 
L 262.612283 261.570462 
L 262.980742 264.195692 
L 263.349201 241.006154 
L 263.717661 236.630769 
L 264.45458 271.196308 
L 264.823039 268.133538 
L 265.191498 252.382154 
L 265.559958 224.379692 
L 265.928417 231.817846 
L 266.296876 258.507692 
L 266.665336 272.946462 
L 267.402255 232.692923 
L 267.770714 249.756923 
L 268.139173 251.069538 
L 268.507633 236.193231 
L 268.876092 246.694154 
L 269.244551 246.694154 
L 269.613011 274.696615 
L 269.98147 209.503385 
L 270.349929 246.256615 
L 270.718389 247.131692 
L 271.086848 253.257231 
L 271.455308 239.256 
L 271.823767 220.879385 
L 272.192226 260.257846 
L 272.560686 243.631385 
L 272.929145 240.131077 
L 273.297604 240.131077 
L 273.666064 256.757538 
L 274.034523 260.257846 
L 274.402983 258.507692 
L 274.771442 235.755692 
L 275.139901 247.131692 
L 275.508361 274.696615 
L 275.87682 244.068923 
L 276.245279 235.755692 
L 276.613739 254.569846 
L 276.982198 256.757538 
L 277.350657 255.444923 
L 277.719117 211.691077 
L 278.087576 257.195077 
L 278.456036 243.193846 
L 278.824495 235.755692 
L 279.192954 248.006769 
L 279.561414 246.694154 
L 279.929873 256.32 
L 280.298332 255.882462 
L 280.666792 271.196308 
L 281.035251 248.881846 
L 281.403711 245.381538 
L 281.77217 243.631385 
L 282.140629 269.008615 
L 282.509089 242.756308 
L 282.877548 244.944 
L 283.246007 237.505846 
L 283.614467 224.817231 
L 283.982926 220.879385 
L 284.351385 235.318154 
L 284.719845 227.88 
L 285.088304 267.258462 
L 285.456764 225.254769 
L 285.825223 250.194462 
L 286.193682 237.068308 
L 286.562142 217.816615 
L 286.930601 248.881846 
L 287.29906 212.566154 
L 287.66752 236.193231 
L 288.035979 243.193846 
L 288.404439 211.691077 
L 288.772898 268.571077 
L 289.141357 227.442462 
L 289.509817 272.508923 
L 289.878276 234.880615 
L 290.246735 216.504 
L 290.615195 276.009231 
L 290.983654 223.504615 
L 291.352113 270.758769 
L 291.720573 258.945231 
L 292.089032 276.884308 
L 292.457492 269.008615 
L 292.825951 204.690462 
L 293.19441 272.508923 
L 293.56287 200.752615 
L 293.931329 276.884308 
L 294.299788 283.447385 
L 294.668248 278.196923 
L 295.036707 286.072615 
L 295.405167 276.009231 
L 295.773626 282.134769 
L 296.142085 183.688615 
L 296.510545 281.259692 
L 296.879004 278.196923 
L 297.247463 268.133538 
L 297.615923 280.384615 
L 297.984382 272.508923 
L 298.352841 262.008 
L 298.721301 136.872 
L 299.08976 278.196923 
L 299.45822 178.438154 
L 299.826679 272.071385 
L 300.195138 270.758769 
L 300.563598 266.820923 
L 300.932057 126.371077 
L 301.300516 274.259077 
L 301.668976 270.758769 
L 302.037435 273.821538 
L 302.774354 259.382769 
L 303.142813 257.195077 
L 303.511273 132.059077 
L 303.879732 280.384615 
L 304.248191 161.811692 
L 304.616651 276.884308 
L 304.98511 273.384 
L 305.353569 213.878769 
L 305.722029 268.571077 
L 306.090488 94.430769 
L 306.458948 272.071385 
L 306.827407 148.685538 
L 307.195866 154.811077 
L 307.564326 276.884308 
L 307.932785 115.432615 
L 308.301244 278.196923 
L 308.669704 247.131692 
L 309.038163 94.430769 
L 309.406623 244.068923 
L 309.775082 273.384 
L 310.143541 234.880615 
L 310.512001 94.430769 
L 310.88046 271.196308 
L 311.248919 94.430769 
L 311.617379 276.446769 
L 311.985838 279.509538 
L 312.722757 263.758154 
L 313.091216 94.430769 
L 313.459676 254.569846 
L 313.828135 94.430769 
L 314.196594 251.944615 
L 314.565054 94.430769 
L 314.933513 259.820308 
L 315.301972 270.758769 
L 315.670432 257.195077 
L 316.038891 264.633231 
L 316.407351 94.430769 
L 316.77581 278.196923 
L 317.144269 273.384 
L 317.512729 275.571692 
L 317.881188 94.430769 
L 318.249647 276.009231 
L 318.618107 239.256 
L 318.986566 94.430769 
L 319.355025 266.820923 
L 319.723485 94.430769 
L 320.091944 94.430769 
L 320.460404 256.32 
L 320.828863 258.945231 
L 321.197322 263.758154 
L 321.565782 94.430769 
L 321.934241 258.070154 
L 322.3027 94.430769 
L 324.513457 94.430769 
L 324.881916 254.569846 
L 325.250375 94.430769 
L 325.618835 94.430769 
L 325.987294 250.632 
L 326.355753 94.430769 
L 327.092672 94.430769 
L 327.461132 231.817846 
L 327.829591 251.507077 
L 328.19805 218.691692 
L 328.56651 94.430769 
L 328.934969 258.507692 
L 329.303428 249.756923 
L 329.671888 260.257846 
L 330.040347 255.444923 
L 330.408807 94.430769 
L 331.145725 94.430769 
L 331.514185 234.005538 
L 331.882644 254.132308 
L 332.251103 94.430769 
L 332.619563 265.945846 
L 332.988022 94.430769 
L 333.356481 250.194462 
L 333.724941 94.430769 
L 334.0934 94.430769 
L 334.46186 267.258462 
L 334.830319 248.006769 
L 335.198778 264.195692 
L 335.567238 261.132923 
L 335.935697 248.006769 
L 336.304156 251.069538 
L 336.672616 238.380923 
L 337.041075 256.757538 
L 337.409535 94.430769 
L 337.777994 253.694769 
L 338.146453 259.820308 
L 338.514913 94.430769 
L 338.883372 94.430769 
L 339.251831 241.881231 
L 339.620291 248.006769 
L 339.98875 235.755692 
L 340.357209 94.430769 
L 340.725669 241.006154 
L 341.094128 203.377846 
L 341.462588 230.505231 
L 341.831047 232.692923 
L 342.199506 240.131077 
L 342.567966 185.438769 
L 342.936425 94.430769 
L 343.304884 94.430769 
L 343.673344 183.251077 
L 344.041803 166.624615 
L 344.410263 94.430769 
L 344.778722 94.430769 
L 345.147181 136.434462 
L 345.515641 94.430769 
L 349.200234 94.430769 
L 349.568694 215.191385 
L 349.937153 94.430769 
L 350.674072 207.315692 
L 351.042531 94.430769 
L 364.307068 94.430769 
L 364.675528 198.127385 
L 365.043987 152.185846 
L 365.412447 183.251077 
L 365.780906 94.430769 
L 383.835415 94.430769 
L 383.835415 94.430769 
" clip-path="url(#pf8be71a816)" style="fill: none; stroke: #708090; stroke-width: 1.5; stroke-linecap: square"/>
   </g>
   <g id="line2d_15">
    <path d="M 74.329545 303.827926 
L 74.698005 304.064197 
L 75.434924 304.177957 
L 75.803383 304.116702 
L 76.171842 303.941686 
L 76.540302 303.950437 
L 77.64568 303.696665 
L 78.751058 303.924185 
L 79.119517 303.897932 
L 79.487977 303.98544 
L 80.593355 303.924185 
L 81.330273 304.247963 
L 82.067192 304.239212 
L 82.804111 304.571742 
L 83.54103 304.431729 
L 83.909489 304.641748 
L 85.751786 304.484234 
L 86.120245 304.703003 
L 86.488705 304.650498 
L 87.225623 304.808012 
L 87.962542 304.78176 
L 88.699461 304.589243 
L 89.43638 304.720505 
L 89.804839 304.361723 
L 91.647136 303.635409 
L 92.015595 303.311631 
L 92.384055 303.407889 
L 93.489433 303.136615 
L 93.857892 303.040357 
L 94.594811 303.197871 
L 95.331729 303.057858 
L 95.700189 303.014105 
L 96.437108 303.215372 
L 97.542486 302.84784 
L 97.910945 302.454055 
L 98.279404 302.270289 
L 98.647864 302.244037 
L 99.384783 302.060271 
L 100.121701 302.034018 
L 100.85862 302.104025 
L 101.227079 301.876505 
L 102.332457 301.929009 
L 102.700917 301.727742 
L 103.437836 302.016517 
L 104.543214 301.211446 
L 106.017051 301.167692 
L 106.385511 300.957674 
L 107.122429 301.018929 
L 107.859348 300.896418 
L 108.227807 301.176443 
L 108.596267 301.001428 
L 109.333185 301.158942 
L 109.701645 300.91392 
L 110.438564 301.176443 
L 110.807023 301.430215 
L 111.175482 301.316455 
L 111.912401 301.508972 
L 112.28086 301.59648 
L 112.64932 301.298954 
L 113.017779 301.220197 
L 113.386239 301.018929 
L 113.754698 301.167692 
L 114.123157 301.158942 
L 114.491617 300.983926 
L 115.596995 301.097686 
L 115.965454 301.071434 
L 116.333913 301.386462 
L 116.702373 301.552726 
L 117.070832 301.456468 
L 117.439292 301.692738 
L 117.807751 301.788997 
L 118.17621 301.727742 
L 118.54467 300.791409 
L 118.913129 300.301366 
L 119.281588 300.301366 
L 119.650048 300.563889 
L 120.018507 300.441378 
L 120.755426 300.406375 
L 121.123885 300.275114 
L 121.492345 299.995089 
L 121.860804 300.012591 
L 122.229263 300.23136 
L 122.597723 300.257612 
L 122.966182 300.135102 
L 126.650776 300.598892 
L 127.019235 300.782658 
L 127.387695 300.756406 
L 127.756154 300.852665 
L 128.124613 301.176443 
L 128.493073 301.088935 
L 128.861532 301.281452 
L 129.229991 301.263951 
L 129.598451 301.473969 
L 129.96691 301.508972 
L 131.440748 301.132689 
L 131.809207 300.80016 
L 132.177666 300.23136 
L 132.914585 299.995089 
L 133.651504 299.89008 
L 134.019963 299.505046 
L 134.756882 299.566302 
L 135.125341 299.513797 
L 135.493801 299.610055 
L 136.230719 299.478794 
L 136.599179 299.592554 
L 136.967638 300.502634 
L 137.336097 300.966425 
L 137.704557 300.975175 
L 138.809935 299.557551 
L 139.178394 299.443791 
L 139.546854 299.793822 
L 139.915313 299.566302 
L 140.283772 299.128763 
L 140.652232 299.155015 
L 141.020691 299.470043 
L 141.389151 299.592554 
L 141.75761 299.522548 
L 142.126069 299.172517 
L 142.862988 298.962498 
L 143.231447 298.209932 
L 143.599907 298.262437 
L 143.968366 298.104923 
L 144.336825 297.658634 
L 144.705285 296.389772 
L 145.073744 295.987237 
L 145.442204 294.858388 
L 147.2845 294.814634 
L 147.65296 293.642031 
L 148.021419 293.572025 
L 148.389879 293.353255 
L 148.758338 293.40576 
L 149.126797 293.055729 
L 149.495257 293.239495 
L 149.863716 293.265748 
L 150.600635 294.114572 
L 150.969094 293.51952 
L 151.706013 293.440763 
L 152.074472 293.423262 
L 152.442932 293.74704 
L 152.811391 293.799545 
L 153.17985 293.081982 
L 153.54831 292.880714 
L 153.916769 292.906966 
L 154.653688 292.049391 
L 155.022147 291.979385 
L 155.390607 291.550597 
L 155.759066 290.465502 
L 156.127525 289.817945 
L 156.495985 290.124222 
L 156.864444 290.194228 
L 157.232903 290.535508 
L 157.601363 290.684271 
L 157.969822 289.739188 
L 158.338281 289.354154 
L 158.706741 289.564172 
L 159.0752 289.135385 
L 159.44366 289.135385 
L 159.812119 287.910277 
L 160.180578 287.350228 
L 160.549038 287.700258 
L 160.917497 287.735262 
L 161.285956 287.358978 
L 161.654416 288.085292 
L 162.022875 287.787766 
L 162.391335 287.814018 
L 162.759794 287.140209 
L 163.128253 288.102794 
L 163.496713 287.884025 
L 163.865172 288.242806 
L 164.233631 288.28656 
L 164.97055 287.227717 
L 165.339009 287.411483 
L 165.707469 286.545157 
L 166.075928 287.446486 
L 166.444388 286.641415 
L 166.812847 286.160123 
L 167.549766 285.643828 
L 167.918225 285.573822 
L 168.286684 285.337551 
L 169.023603 284.523729 
L 169.392063 285.162535 
L 170.128981 283.718658 
L 170.8659 282.432295 
L 171.234359 281.635975 
L 171.602819 281.382203 
L 171.971278 281.557218 
L 172.339737 280.970917 
L 172.708197 279.947077 
L 173.076656 279.833317 
L 173.445116 279.115754 
L 174.182034 278.258178 
L 174.550494 278.363188 
L 174.918953 277.59312 
L 175.655872 277.243089 
L 176.024331 276.411766 
L 176.392791 276.586782 
L 176.76125 276.980566 
L 177.866628 273.629022 
L 178.235087 274.06656 
L 178.603547 273.786535 
L 179.340465 271.730105 
L 180.077384 268.938609 
L 180.445844 268.396062 
L 180.814303 267.564738 
L 181.551222 266.803422 
L 181.919681 266.768418 
L 182.28814 266.549649 
L 182.6566 265.770831 
L 183.761978 264.458215 
L 184.130437 264.248197 
L 184.498897 263.320615 
L 184.867356 263.171852 
L 185.235815 263.250609 
L 185.604275 262.944332 
L 185.972734 261.859237 
L 186.341193 261.587963 
L 186.709653 260.905403 
L 187.078112 261.124172 
L 187.446572 261.071668 
L 187.815031 260.861649 
L 188.18349 260.091582 
L 188.55195 259.654043 
L 188.920409 259.645292 
L 189.288868 258.875225 
L 190.025787 259.522782 
L 190.394247 258.857723 
L 190.762706 258.813969 
L 191.131165 258.630203 
L 191.868084 258.735212 
L 192.236543 258.997735 
L 192.605003 260.030326 
L 192.973462 259.820308 
L 193.341921 259.067742 
L 193.710381 259.356517 
L 194.4473 258.105157 
L 195.184218 256.801292 
L 195.552678 257.160074 
L 196.289596 258.341428 
L 196.658056 258.551446 
L 197.026515 257.335089 
L 197.763434 257.860135 
L 198.131893 258.245169 
L 198.500353 258.455188 
L 198.868812 258.805218 
L 199.237271 258.848972 
L 199.605731 259.811557 
L 199.97419 259.645292 
L 200.342649 259.671545 
L 200.711109 259.811557 
L 201.079568 258.48144 
L 201.816487 258.857723 
L 202.184946 258.691458 
L 202.553406 258.682708 
L 202.921865 259.365268 
L 203.290324 259.610289 
L 203.658784 259.636542 
L 204.027243 258.542695 
L 204.395703 259.671545 
L 204.764162 259.671545 
L 205.132621 259.864062 
L 205.501081 259.435274 
L 205.86954 257.702622 
L 206.237999 256.678782 
L 206.606459 257.553858 
L 206.974918 257.877637 
L 207.343377 258.017649 
L 207.711837 258.568948 
L 208.080296 258.560197 
L 208.448756 258.735212 
L 209.185674 258.647705 
L 209.554134 259.295262 
L 209.922593 258.93648 
L 211.027971 258.551446 
L 211.396431 258.36768 
L 211.76489 259.146498 
L 212.133349 259.479028 
L 212.501809 259.286511 
L 213.238727 260.844148 
L 213.607187 259.986572 
L 214.344105 259.84656 
L 215.081024 259.986572 
L 215.449484 261.675471 
L 216.186402 262.043003 
L 216.554862 262.848074 
L 216.923321 263.233108 
L 217.29178 263.180603 
L 217.66024 263.60064 
L 218.028699 263.688148 
L 218.765618 263.110597 
L 219.134077 263.058092 
L 219.502537 264.335705 
L 219.870996 264.029428 
L 220.239455 263.37312 
L 220.607915 263.408123 
L 220.976374 263.661895 
L 221.344833 262.856825 
L 221.713293 263.189354 
L 222.081752 262.91808 
L 222.450212 263.766905 
L 223.18713 262.821822 
L 223.55559 262.620554 
L 223.924049 262.025502 
L 224.292508 263.241858 
L 224.660968 263.924418 
L 225.029427 264.213194 
L 225.397887 263.959422 
L 225.766346 263.198105 
L 226.134805 263.408123 
L 226.503265 263.206855 
L 226.871724 262.743065 
L 227.240183 262.611803 
L 227.608643 262.139262 
L 227.977102 262.340529 
L 228.345561 262.191766 
L 228.714021 261.876738 
L 229.08248 261.955495 
L 229.45094 262.419286 
L 230.187858 262.113009 
L 230.556318 261.745477 
L 230.924777 261.684222 
L 231.293236 261.500455 
L 231.661696 260.861649 
L 232.030155 262.23552 
L 232.398615 262.086757 
L 232.767074 262.261772 
L 233.135533 262.253022 
L 233.503993 262.095508 
L 233.872452 261.194178 
L 234.240911 260.607877 
L 234.609371 260.599126 
L 235.346289 261.027914 
L 235.714749 260.949157 
L 236.451668 260.607877 
L 236.820127 260.450363 
L 237.557046 259.522782 
L 237.925505 259.146498 
L 238.293964 259.304012 
L 238.662424 259.155249 
L 239.399343 259.199003 
L 239.767802 259.645292 
L 240.136261 259.330265 
L 240.87318 259.697797 
L 241.241639 259.750302 
L 241.610099 258.883975 
L 242.347017 259.304012 
L 243.083936 259.304012 
L 243.452396 258.568948 
L 243.820855 258.638954 
L 244.189314 259.269009 
L 244.926233 258.971483 
L 245.294692 258.673957 
L 245.663152 258.210166 
L 246.76853 258.735212 
L 247.136989 258.796468 
L 247.505449 257.860135 
L 247.873908 256.556271 
L 248.242367 256.582523 
L 248.610827 257.00256 
L 248.979286 256.416258 
L 249.347745 256.048726 
L 249.716205 255.838708 
L 250.084664 255.97872 
L 250.453124 255.164898 
L 250.821583 255.1824 
L 251.190042 254.534843 
L 251.558502 254.622351 
L 251.926961 253.484751 
L 252.29542 253.607262 
L 252.66388 253.607262 
L 253.032339 253.283483 
L 253.400799 252.487163 
L 253.769258 251.349563 
L 254.137717 251.174548 
L 254.874636 249.958191 
L 255.243095 249.83568 
L 255.980014 250.842018 
L 256.348473 251.095791 
L 256.716933 250.588246 
L 257.085392 250.85952 
L 257.453852 250.938277 
L 258.927689 249.354388 
L 259.296148 249.021858 
L 259.664608 248.269292 
L 260.033067 249.223126 
L 260.401527 248.846843 
L 261.138445 248.58432 
L 261.506905 248.146782 
L 261.875364 248.645575 
L 262.612283 248.654326 
L 263.349201 248.024271 
L 263.717661 248.076775 
L 264.08612 248.724332 
L 264.45458 248.444308 
L 265.559958 246.755409 
L 265.928417 246.685403 
L 266.296876 246.755409 
L 266.665336 246.142855 
L 267.033795 246.029095 
L 267.402255 245.547803 
L 267.770714 245.897834 
L 268.139173 245.644062 
L 268.507633 244.979003 
L 268.876092 245.232775 
L 269.244551 244.550215 
L 269.613011 244.340197 
L 269.98147 243.710142 
L 270.349929 243.753895 
L 270.718389 244.200185 
L 271.086848 243.8064 
L 271.455308 244.191434 
L 272.192226 244.016418 
L 272.560686 244.331446 
L 272.929145 243.928911 
L 273.297604 244.541465 
L 274.034523 245.320283 
L 274.402983 245.495298 
L 274.771442 244.418954 
L 275.139901 245.154018 
L 275.508361 244.226437 
L 275.87682 244.270191 
L 276.982198 246.53664 
L 277.719117 247.455471 
L 278.087576 246.895422 
L 278.456036 247.376714 
L 279.561414 249.371889 
L 279.929873 249.888185 
L 280.298332 250.001945 
L 280.666792 247.621735 
L 281.035251 247.761748 
L 281.403711 246.352874 
L 282.140629 247.429218 
L 282.509089 247.385465 
L 282.877548 245.05776 
L 283.614467 246.30912 
L 284.351385 248.216788 
L 285.088304 249.284382 
L 285.456764 246.580394 
L 285.825223 247.682991 
L 286.193682 245.915335 
L 286.562142 246.711655 
L 286.930601 247.823003 
L 287.29906 247.122942 
L 287.66752 248.24304 
L 288.035979 245.407791 
L 288.404439 245.985342 
L 288.772898 244.725231 
L 289.141357 242.450031 
L 289.509817 243.438868 
L 289.878276 240.297342 
L 290.615195 241.776222 
L 290.983654 238.144652 
L 291.352113 238.555938 
L 291.720573 238.608443 
L 292.089032 238.127151 
L 292.457492 234.47808 
L 292.825951 234.521834 
L 293.19441 232.31664 
L 293.56287 232.395397 
L 293.931329 233.970535 
L 294.299788 233.883028 
L 294.668248 233.489243 
L 295.036707 229.81392 
L 295.405167 229.183865 
L 295.773626 225.552295 
L 296.142085 224.948492 
L 296.510545 223.163335 
L 296.879004 222.734548 
L 297.615923 222.367015 
L 297.984382 222.051988 
L 298.352841 218.490425 
L 298.721301 218.814203 
L 299.08976 221.544443 
L 299.45822 221.491938 
L 299.826679 219.811791 
L 300.195138 219.890548 
L 300.563598 219.260492 
L 300.932057 215.812689 
L 301.300516 218.621686 
L 302.037435 211.49856 
L 302.405895 211.148529 
L 302.774354 210.982265 
L 303.142813 211.069772 
L 303.511273 207.814486 
L 303.879732 210.334708 
L 304.248191 206.615631 
L 304.616651 205.268012 
L 305.353569 198.039877 
L 305.722029 195.650917 
L 306.090488 192.168111 
L 306.458948 192.168111 
L 306.827407 191.81808 
L 307.564326 189.525378 
L 308.301244 188.580295 
L 309.038163 181.850954 
L 309.406623 184.598695 
L 309.775082 184.747458 
L 310.143541 183.653612 
L 310.512001 180.844615 
L 310.88046 184.126154 
L 311.248919 183.697366 
L 311.617379 187.013908 
L 311.985838 186.593871 
L 313.091216 175.944185 
L 313.459676 178.73568 
L 314.196594 178.726929 
L 314.565054 179.006954 
L 314.933513 179.006954 
L 315.301972 178.814437 
L 316.038891 172.032591 
L 316.407351 172.085095 
L 316.77581 175.156615 
L 317.512729 174.631569 
L 317.881188 174.080271 
L 318.249647 177.213046 
L 318.618107 176.46048 
L 318.986566 176.810511 
L 319.355025 176.810511 
L 319.723485 176.547988 
L 320.091944 179.855778 
L 320.460404 179.855778 
L 320.828863 176.617994 
L 321.565782 175.961686 
L 321.934241 178.788185 
L 322.3027 175.515397 
L 323.039619 180.625846 
L 324.513457 190.846745 
L 324.881916 190.846745 
L 325.250375 187.643963 
L 325.987294 190.864246 
L 326.355753 187.740222 
L 326.724213 187.740222 
L 327.092672 188.580295 
L 327.461132 188.580295 
L 328.56651 180.205809 
L 328.934969 180.205809 
L 330.408807 167.280923 
L 331.145725 167.280923 
L 331.514185 169.696135 
L 331.882644 166.90464 
L 332.251103 164.97072 
L 332.619563 167.228418 
L 332.988022 163.798117 
L 333.356481 163.798117 
L 333.724941 160.682843 
L 334.46186 160.682843 
L 336.304156 144.353908 
L 337.409535 135.095594 
L 337.777994 135.095594 
L 338.514913 128.602523 
L 339.251831 128.602523 
L 340.357209 119.755495 
L 340.725669 119.755495 
L 341.462588 114.645046 
L 342.936425 104.424148 
L 343.673344 104.424148 
L 344.410263 101.203865 
L 345.147181 101.203865 
L 345.515641 100.363791 
L 346.252559 100.363791 
L 346.621019 102.437723 
L 346.989478 103.592825 
L 347.357937 105.369231 
L 349.568694 105.369231 
L 349.937153 102.954018 
L 350.305612 102.954018 
L 350.674072 101.693908 
L 351.042531 99.436209 
L 364.675528 99.436209 
L 365.043987 97.362277 
L 365.412447 96.207175 
L 365.780906 94.430769 
L 365.780906 94.430769 
" clip-path="url(#pf8be71a816)" style="fill: none; stroke: #000080; stroke-width: 1.5; stroke-linecap: square"/>
   </g>
   <g id="line2d_16">
    <path d="M 55.925 94.430769 
L 460.825 94.430769 
" clip-path="url(#pf8be71a816)" style="fill: none; stroke-dasharray: 5.55,2.4; stroke-dashoffset: 0; stroke: #008000; stroke-width: 1.5"/>
   </g>
   <g id="patch_3">
    <path d="M 55.925 313.2 
L 55.925 28.8 
" style="fill: none; stroke: #000000; stroke-width: 0.8; stroke-linejoin: miter; stroke-linecap: square"/>
   </g>
   <g id="patch_4">
    <path d="M 460.825 313.2 
L 460.825 28.8 
" style="fill: none; stroke: #000000; stroke-width: 0.8; stroke-linejoin: miter; stroke-linecap: square"/>
   </g>
   <g id="patch_5">
    <path d="M 55.925 313.2 
L 460.825 313.2 
" style="fill: none; stroke: #000000; stroke-width: 0.8; stroke-linejoin: miter; stroke-linecap: square"/>
   </g>
   <g id="patch_6">
    <path d="M 55.925 28.8 
L 460.825 28.8 
" style="fill: none; stroke: #000000; stroke-width: 0.8; stroke-linejoin: miter; stroke-linecap: square"/>
   </g>
   <g id="text_16">
    <!-- gamma = 0.9473684210526316,lr = 0.03593813663804626 -->
    <g transform="translate(28.373437 22.8)scale(0.15 -0.15)">
     <defs>
      <path id="DejaVuSans-67" d="M 2906 1791 
Q 2906 2416 2648 2759 
Q 2391 3103 1925 3103 
Q 1463 3103 1205 2759 
Q 947 2416 947 1791 
Q 947 1169 1205 825 
Q 1463 481 1925 481 
Q 2391 481 2648 825 
Q 2906 1169 2906 1791 
z
M 3481 434 
Q 3481 -459 3084 -895 
Q 2688 -1331 1869 -1331 
Q 1566 -1331 1297 -1286 
Q 1028 -1241 775 -1147 
L 775 -588 
Q 1028 -725 1275 -790 
Q 1522 -856 1778 -856 
Q 2344 -856 2625 -561 
Q 2906 -266 2906 331 
L 2906 616 
Q 2728 306 2450 153 
Q 2172 0 1784 0 
Q 1141 0 747 490 
Q 353 981 353 1791 
Q 353 2603 747 3093 
Q 1141 3584 1784 3584 
Q 2172 3584 2450 3431 
Q 2728 3278 2906 2969 
L 2906 3500 
L 3481 3500 
L 3481 434 
z
" transform="scale(0.015625)"/>
      <path id="DejaVuSans-61" d="M 2194 1759 
Q 1497 1759 1228 1600 
Q 959 1441 959 1056 
Q 959 750 1161 570 
Q 1363 391 1709 391 
Q 2188 391 2477 730 
Q 2766 1069 2766 1631 
L 2766 1759 
L 2194 1759 
z
M 3341 1997 
L 3341 0 
L 2766 0 
L 2766 531 
Q 2569 213 2275 61 
Q 1981 -91 1556 -91 
Q 1019 -91 701 211 
Q 384 513 384 1019 
Q 384 1609 779 1909 
Q 1175 2209 1959 2209 
L 2766 2209 
L 2766 2266 
Q 2766 2663 2505 2880 
Q 2244 3097 1772 3097 
Q 1472 3097 1187 3025 
Q 903 2953 641 2809 
L 641 3341 
Q 956 3463 1253 3523 
Q 1550 3584 1831 3584 
Q 2591 3584 2966 3190 
Q 3341 2797 3341 1997 
z
" transform="scale(0.015625)"/>
      <path id="DejaVuSans-6d" d="M 3328 2828 
Q 3544 3216 3844 3400 
Q 4144 3584 4550 3584 
Q 5097 3584 5394 3201 
Q 5691 2819 5691 2113 
L 5691 0 
L 5113 0 
L 5113 2094 
Q 5113 2597 4934 2840 
Q 4756 3084 4391 3084 
Q 3944 3084 3684 2787 
Q 3425 2491 3425 1978 
L 3425 0 
L 2847 0 
L 2847 2094 
Q 2847 2600 2669 2842 
Q 2491 3084 2119 3084 
Q 1678 3084 1418 2786 
Q 1159 2488 1159 1978 
L 1159 0 
L 581 0 
L 581 3500 
L 1159 3500 
L 1159 2956 
Q 1356 3278 1631 3431 
Q 1906 3584 2284 3584 
Q 2666 3584 2933 3390 
Q 3200 3197 3328 2828 
z
" transform="scale(0.015625)"/>
      <path id="DejaVuSans-20" transform="scale(0.015625)"/>
      <path id="DejaVuSans-3d" d="M 678 2906 
L 4684 2906 
L 4684 2381 
L 678 2381 
L 678 2906 
z
M 678 1631 
L 4684 1631 
L 4684 1100 
L 678 1100 
L 678 1631 
z
" transform="scale(0.015625)"/>
      <path id="DejaVuSans-2e" d="M 684 794 
L 1344 794 
L 1344 0 
L 684 0 
L 684 794 
z
" transform="scale(0.015625)"/>
      <path id="DejaVuSans-39" d="M 703 97 
L 703 672 
Q 941 559 1184 500 
Q 1428 441 1663 441 
Q 2288 441 2617 861 
Q 2947 1281 2994 2138 
Q 2813 1869 2534 1725 
Q 2256 1581 1919 1581 
Q 1219 1581 811 2004 
Q 403 2428 403 3163 
Q 403 3881 828 4315 
Q 1253 4750 1959 4750 
Q 2769 4750 3195 4129 
Q 3622 3509 3622 2328 
Q 3622 1225 3098 567 
Q 2575 -91 1691 -91 
Q 1453 -91 1209 -44 
Q 966 3 703 97 
z
M 1959 2075 
Q 2384 2075 2632 2365 
Q 2881 2656 2881 3163 
Q 2881 3666 2632 3958 
Q 2384 4250 1959 4250 
Q 1534 4250 1286 3958 
Q 1038 3666 1038 3163 
Q 1038 2656 1286 2365 
Q 1534 2075 1959 2075 
z
" transform="scale(0.015625)"/>
      <path id="DejaVuSans-37" d="M 525 4666 
L 3525 4666 
L 3525 4397 
L 1831 0 
L 1172 0 
L 2766 4134 
L 525 4134 
L 525 4666 
z
" transform="scale(0.015625)"/>
      <path id="DejaVuSans-2c" d="M 750 794 
L 1409 794 
L 1409 256 
L 897 -744 
L 494 -744 
L 750 256 
L 750 794 
z
" transform="scale(0.015625)"/>
      <path id="DejaVuSans-6c" d="M 603 4863 
L 1178 4863 
L 1178 0 
L 603 0 
L 603 4863 
z
" transform="scale(0.015625)"/>
     </defs>
     <use xlink:href="#DejaVuSans-67"/>
     <use xlink:href="#DejaVuSans-61" x="63.476562"/>
     <use xlink:href="#DejaVuSans-6d" x="124.755859"/>
     <use xlink:href="#DejaVuSans-6d" x="222.167969"/>
     <use xlink:href="#DejaVuSans-61" x="319.580078"/>
     <use xlink:href="#DejaVuSans-20" x="380.859375"/>
     <use xlink:href="#DejaVuSans-3d" x="412.646484"/>
     <use xlink:href="#DejaVuSans-20" x="496.435547"/>
     <use xlink:href="#DejaVuSans-30" x="528.222656"/>
     <use xlink:href="#DejaVuSans-2e" x="591.845703"/>
     <use xlink:href="#DejaVuSans-39" x="623.632812"/>
     <use xlink:href="#DejaVuSans-34" x="687.255859"/>
     <use xlink:href="#DejaVuSans-37" x="750.878906"/>
     <use xlink:href="#DejaVuSans-33" x="814.501953"/>
     <use xlink:href="#DejaVuSans-36" x="878.125"/>
     <use xlink:href="#DejaVuSans-38" x="941.748047"/>
     <use xlink:href="#DejaVuSans-34" x="1005.371094"/>
     <use xlink:href="#DejaVuSans-32" x="1068.994141"/>
     <use xlink:href="#DejaVuSans-31" x="1132.617188"/>
     <use xlink:href="#DejaVuSans-30" x="1196.240234"/>
     <use xlink:href="#DejaVuSans-35" x="1259.863281"/>
     <use xlink:href="#DejaVuSans-32" x="1323.486328"/>
     <use xlink:href="#DejaVuSans-36" x="1387.109375"/>
     <use xlink:href="#DejaVuSans-33" x="1450.732422"/>
     <use xlink:href="#DejaVuSans-31" x="1514.355469"/>
     <use xlink:href="#DejaVuSans-36" x="1577.978516"/>
     <use xlink:href="#DejaVuSans-2c" x="1641.601562"/>
     <use xlink:href="#DejaVuSans-6c" x="1673.388672"/>
     <use xlink:href="#DejaVuSans-72" x="1701.171875"/>
     <use xlink:href="#DejaVuSans-20" x="1742.285156"/>
     <use xlink:href="#DejaVuSans-3d" x="1774.072266"/>
     <use xlink:href="#DejaVuSans-20" x="1857.861328"/>
     <use xlink:href="#DejaVuSans-30" x="1889.648438"/>
     <use xlink:href="#DejaVuSans-2e" x="1953.271484"/>
     <use xlink:href="#DejaVuSans-30" x="1985.058594"/>
     <use xlink:href="#DejaVuSans-33" x="2048.681641"/>
     <use xlink:href="#DejaVuSans-35" x="2112.304688"/>
     <use xlink:href="#DejaVuSans-39" x="2175.927734"/>
     <use xlink:href="#DejaVuSans-33" x="2239.550781"/>
     <use xlink:href="#DejaVuSans-38" x="2303.173828"/>
     <use xlink:href="#DejaVuSans-31" x="2366.796875"/>
     <use xlink:href="#DejaVuSans-33" x="2430.419922"/>
     <use xlink:href="#DejaVuSans-36" x="2494.042969"/>
     <use xlink:href="#DejaVuSans-36" x="2557.666016"/>
     <use xlink:href="#DejaVuSans-33" x="2621.289062"/>
     <use xlink:href="#DejaVuSans-38" x="2684.912109"/>
     <use xlink:href="#DejaVuSans-30" x="2748.535156"/>
     <use xlink:href="#DejaVuSans-34" x="2812.158203"/>
     <use xlink:href="#DejaVuSans-36" x="2875.78125"/>
     <use xlink:href="#DejaVuSans-32" x="2939.404297"/>
     <use xlink:href="#DejaVuSans-36" x="3003.027344"/>
    </g>
   </g>
   <g id="legend_1">
    <g id="patch_7">
     <path d="M 293.50625 80.834375 
L 453.825 80.834375 
Q 455.825 80.834375 455.825 78.834375 
L 455.825 35.8 
Q 455.825 33.8 453.825 33.8 
L 293.50625 33.8 
Q 291.50625 33.8 291.50625 35.8 
L 291.50625 78.834375 
Q 291.50625 80.834375 293.50625 80.834375 
z
" style="fill: #ffffff; opacity: 0.8; stroke: #cccccc; stroke-linejoin: miter"/>
    </g>
    <g id="line2d_17">
     <path d="M 295.50625 41.898438 
L 305.50625 41.898438 
L 315.50625 41.898438 
" style="fill: none; stroke: #708090; stroke-width: 1.5; stroke-linecap: square"/>
    </g>
    <g id="text_17">
     <!-- Episodes score -->
     <g transform="translate(323.50625 45.398438)scale(0.1 -0.1)">
      <use xlink:href="#DejaVuSans-45"/>
      <use xlink:href="#DejaVuSans-70" x="63.183594"/>
      <use xlink:href="#DejaVuSans-69" x="126.660156"/>
      <use xlink:href="#DejaVuSans-73" x="154.443359"/>
      <use xlink:href="#DejaVuSans-6f" x="206.542969"/>
      <use xlink:href="#DejaVuSans-64" x="267.724609"/>
      <use xlink:href="#DejaVuSans-65" x="331.201172"/>
      <use xlink:href="#DejaVuSans-73" x="392.724609"/>
      <use xlink:href="#DejaVuSans-20" x="444.824219"/>
      <use xlink:href="#DejaVuSans-73" x="476.611328"/>
      <use xlink:href="#DejaVuSans-63" x="528.710938"/>
      <use xlink:href="#DejaVuSans-6f" x="583.691406"/>
      <use xlink:href="#DejaVuSans-72" x="644.873047"/>
      <use xlink:href="#DejaVuSans-65" x="683.736328"/>
     </g>
    </g>
    <g id="line2d_18">
     <path d="M 295.50625 56.576563 
L 305.50625 56.576563 
L 315.50625 56.576563 
" style="fill: none; stroke: #000080; stroke-width: 1.5; stroke-linecap: square"/>
    </g>
    <g id="text_18">
     <!-- Moving average of scores -->
     <g transform="translate(323.50625 60.076563)scale(0.1 -0.1)">
      <defs>
       <path id="DejaVuSans-4d" d="M 628 4666 
L 1569 4666 
L 2759 1491 
L 3956 4666 
L 4897 4666 
L 4897 0 
L 4281 0 
L 4281 4097 
L 3078 897 
L 2444 897 
L 1241 4097 
L 1241 0 
L 628 0 
L 628 4666 
z
" transform="scale(0.015625)"/>
       <path id="DejaVuSans-76" d="M 191 3500 
L 800 3500 
L 1894 563 
L 2988 3500 
L 3597 3500 
L 2284 0 
L 1503 0 
L 191 3500 
z
" transform="scale(0.015625)"/>
       <path id="DejaVuSans-6e" d="M 3513 2113 
L 3513 0 
L 2938 0 
L 2938 2094 
Q 2938 2591 2744 2837 
Q 2550 3084 2163 3084 
Q 1697 3084 1428 2787 
Q 1159 2491 1159 1978 
L 1159 0 
L 581 0 
L 581 3500 
L 1159 3500 
L 1159 2956 
Q 1366 3272 1645 3428 
Q 1925 3584 2291 3584 
Q 2894 3584 3203 3211 
Q 3513 2838 3513 2113 
z
" transform="scale(0.015625)"/>
       <path id="DejaVuSans-66" d="M 2375 4863 
L 2375 4384 
L 1825 4384 
Q 1516 4384 1395 4259 
Q 1275 4134 1275 3809 
L 1275 3500 
L 2222 3500 
L 2222 3053 
L 1275 3053 
L 1275 0 
L 697 0 
L 697 3053 
L 147 3053 
L 147 3500 
L 697 3500 
L 697 3744 
Q 697 4328 969 4595 
Q 1241 4863 1831 4863 
L 2375 4863 
z
" transform="scale(0.015625)"/>
      </defs>
      <use xlink:href="#DejaVuSans-4d"/>
      <use xlink:href="#DejaVuSans-6f" x="86.279297"/>
      <use xlink:href="#DejaVuSans-76" x="147.460938"/>
      <use xlink:href="#DejaVuSans-69" x="206.640625"/>
      <use xlink:href="#DejaVuSans-6e" x="234.423828"/>
      <use xlink:href="#DejaVuSans-67" x="297.802734"/>
      <use xlink:href="#DejaVuSans-20" x="361.279297"/>
      <use xlink:href="#DejaVuSans-61" x="393.066406"/>
      <use xlink:href="#DejaVuSans-76" x="454.345703"/>
      <use xlink:href="#DejaVuSans-65" x="513.525391"/>
      <use xlink:href="#DejaVuSans-72" x="575.048828"/>
      <use xlink:href="#DejaVuSans-61" x="616.162109"/>
      <use xlink:href="#DejaVuSans-67" x="677.441406"/>
      <use xlink:href="#DejaVuSans-65" x="740.917969"/>
      <use xlink:href="#DejaVuSans-20" x="802.441406"/>
      <use xlink:href="#DejaVuSans-6f" x="834.228516"/>
      <use xlink:href="#DejaVuSans-66" x="895.410156"/>
      <use xlink:href="#DejaVuSans-20" x="930.615234"/>
      <use xlink:href="#DejaVuSans-73" x="962.402344"/>
      <use xlink:href="#DejaVuSans-63" x="1014.501953"/>
      <use xlink:href="#DejaVuSans-6f" x="1069.482422"/>
      <use xlink:href="#DejaVuSans-72" x="1130.664062"/>
      <use xlink:href="#DejaVuSans-65" x="1169.527344"/>
      <use xlink:href="#DejaVuSans-73" x="1231.050781"/>
     </g>
    </g>
    <g id="line2d_19">
     <path d="M 295.50625 71.254687 
L 305.50625 71.254687 
L 315.50625 71.254687 
" style="fill: none; stroke-dasharray: 5.55,2.4; stroke-dashoffset: 0; stroke: #008000; stroke-width: 1.5"/>
    </g>
    <g id="text_19">
     <!-- Game Solved -->
     <g transform="translate(323.50625 74.754687)scale(0.1 -0.1)">
      <defs>
       <path id="DejaVuSans-47" d="M 3809 666 
L 3809 1919 
L 2778 1919 
L 2778 2438 
L 4434 2438 
L 4434 434 
Q 4069 175 3628 42 
Q 3188 -91 2688 -91 
Q 1594 -91 976 548 
Q 359 1188 359 2328 
Q 359 3472 976 4111 
Q 1594 4750 2688 4750 
Q 3144 4750 3555 4637 
Q 3966 4525 4313 4306 
L 4313 3634 
Q 3963 3931 3569 4081 
Q 3175 4231 2741 4231 
Q 1884 4231 1454 3753 
Q 1025 3275 1025 2328 
Q 1025 1384 1454 906 
Q 1884 428 2741 428 
Q 3075 428 3337 486 
Q 3600 544 3809 666 
z
" transform="scale(0.015625)"/>
      </defs>
      <use xlink:href="#DejaVuSans-47"/>
      <use xlink:href="#DejaVuSans-61" x="77.490234"/>
      <use xlink:href="#DejaVuSans-6d" x="138.769531"/>
      <use xlink:href="#DejaVuSans-65" x="236.181641"/>
      <use xlink:href="#DejaVuSans-20" x="297.705078"/>
      <use xlink:href="#DejaVuSans-53" x="329.492188"/>
      <use xlink:href="#DejaVuSans-6f" x="392.96875"/>
      <use xlink:href="#DejaVuSans-6c" x="454.150391"/>
      <use xlink:href="#DejaVuSans-76" x="481.933594"/>
      <use xlink:href="#DejaVuSans-65" x="541.113281"/>
      <use xlink:href="#DejaVuSans-64" x="602.636719"/>
     </g>
    </g>
   </g>
  </g>
  <g id="axes_2">
   <g id="matplotlib.axis_3">
    <g id="ytick_8">
     <g id="line2d_20">
      <defs>
       <path id="m02f4b6f468" d="M 0 0 
L 3.5 0 
" style="stroke: #000000; stroke-width: 0.8"/>
      </defs>
      <g>
       <use xlink:href="#m02f4b6f468" x="460.825" y="300.356157" style="stroke: #000000; stroke-width: 0.8"/>
      </g>
     </g>
     <g id="text_20">
      <!-- 0 -->
      <g transform="translate(467.825 304.155376)scale(0.1 -0.1)">
       <use xlink:href="#DejaVuSans-30"/>
      </g>
     </g>
    </g>
    <g id="ytick_9">
     <g id="line2d_21">
      <g>
       <use xlink:href="#m02f4b6f468" x="460.825" y="248.63038" style="stroke: #000000; stroke-width: 0.8"/>
      </g>
     </g>
     <g id="text_21">
      <!-- 1 -->
      <g transform="translate(467.825 252.429599)scale(0.1 -0.1)">
       <use xlink:href="#DejaVuSans-31"/>
      </g>
     </g>
    </g>
    <g id="ytick_10">
     <g id="line2d_22">
      <g>
       <use xlink:href="#m02f4b6f468" x="460.825" y="196.904603" style="stroke: #000000; stroke-width: 0.8"/>
      </g>
     </g>
     <g id="text_22">
      <!-- 2 -->
      <g transform="translate(467.825 200.703822)scale(0.1 -0.1)">
       <use xlink:href="#DejaVuSans-32"/>
      </g>
     </g>
    </g>
    <g id="ytick_11">
     <g id="line2d_23">
      <g>
       <use xlink:href="#m02f4b6f468" x="460.825" y="145.178827" style="stroke: #000000; stroke-width: 0.8"/>
      </g>
     </g>
     <g id="text_23">
      <!-- 3 -->
      <g transform="translate(467.825 148.978045)scale(0.1 -0.1)">
       <use xlink:href="#DejaVuSans-33"/>
      </g>
     </g>
    </g>
    <g id="ytick_12">
     <g id="line2d_24">
      <g>
       <use xlink:href="#m02f4b6f468" x="460.825" y="93.45305" style="stroke: #000000; stroke-width: 0.8"/>
      </g>
     </g>
     <g id="text_24">
      <!-- 4 -->
      <g transform="translate(467.825 97.252268)scale(0.1 -0.1)">
       <use xlink:href="#DejaVuSans-34"/>
      </g>
     </g>
    </g>
    <g id="ytick_13">
     <g id="line2d_25">
      <g>
       <use xlink:href="#m02f4b6f468" x="460.825" y="41.727273" style="stroke: #000000; stroke-width: 0.8"/>
      </g>
     </g>
     <g id="text_25">
      <!-- 5 -->
      <g transform="translate(467.825 45.526491)scale(0.1 -0.1)">
       <use xlink:href="#DejaVuSans-35"/>
      </g>
     </g>
    </g>
    <g id="text_26">
     <!-- Temperature -->
     <g transform="translate(489.585156 218.504297)rotate(-90)scale(0.15 -0.15)">
      <defs>
       <path id="DejaVuSans-54" d="M -19 4666 
L 3928 4666 
L 3928 4134 
L 2272 4134 
L 2272 0 
L 1638 0 
L 1638 4134 
L -19 4134 
L -19 4666 
z
" transform="scale(0.015625)"/>
       <path id="DejaVuSans-74" d="M 1172 4494 
L 1172 3500 
L 2356 3500 
L 2356 3053 
L 1172 3053 
L 1172 1153 
Q 1172 725 1289 603 
Q 1406 481 1766 481 
L 2356 481 
L 2356 0 
L 1766 0 
Q 1100 0 847 248 
Q 594 497 594 1153 
L 594 3053 
L 172 3053 
L 172 3500 
L 594 3500 
L 594 4494 
L 1172 4494 
z
" transform="scale(0.015625)"/>
       <path id="DejaVuSans-75" d="M 544 1381 
L 544 3500 
L 1119 3500 
L 1119 1403 
Q 1119 906 1312 657 
Q 1506 409 1894 409 
Q 2359 409 2629 706 
Q 2900 1003 2900 1516 
L 2900 3500 
L 3475 3500 
L 3475 0 
L 2900 0 
L 2900 538 
Q 2691 219 2414 64 
Q 2138 -91 1772 -91 
Q 1169 -91 856 284 
Q 544 659 544 1381 
z
M 1991 3584 
L 1991 3584 
z
" transform="scale(0.015625)"/>
      </defs>
      <use xlink:href="#DejaVuSans-54"/>
      <use xlink:href="#DejaVuSans-65" x="44.083984"/>
      <use xlink:href="#DejaVuSans-6d" x="105.607422"/>
      <use xlink:href="#DejaVuSans-70" x="203.019531"/>
      <use xlink:href="#DejaVuSans-65" x="266.496094"/>
      <use xlink:href="#DejaVuSans-72" x="328.019531"/>
      <use xlink:href="#DejaVuSans-61" x="369.132812"/>
      <use xlink:href="#DejaVuSans-74" x="430.412109"/>
      <use xlink:href="#DejaVuSans-75" x="469.621094"/>
      <use xlink:href="#DejaVuSans-72" x="533"/>
      <use xlink:href="#DejaVuSans-65" x="571.863281"/>
     </g>
    </g>
   </g>
   <g id="line2d_26">
    <path d="M 74.329545 41.727273 
L 77.64568 59.796179 
L 80.961814 76.602714 
L 84.277948 92.235075 
L 87.594083 106.775292 
L 90.910217 120.299669 
L 94.226351 132.879175 
L 97.542486 144.579825 
L 100.85862 155.463017 
L 104.174754 165.585863 
L 107.490889 175.001485 
L 110.807023 183.759292 
L 114.123157 191.905241 
L 117.439292 199.48208 
L 120.755426 206.529569 
L 124.07156 213.084691 
L 127.387695 219.181844 
L 130.703829 224.853024 
L 134.019963 230.127992 
L 137.704557 235.557975 
L 141.389151 240.568116 
L 145.073744 245.190878 
L 148.758338 249.456211 
L 152.442932 253.391752 
L 156.127525 257.023001 
L 160.180578 260.693942 
L 164.233631 264.053901 
L 168.286684 267.129223 
L 172.339737 269.944021 
L 176.76125 272.743467 
L 181.182762 275.285223 
L 185.972734 277.775454 
L 190.762706 280.018336 
L 195.921137 282.185254 
L 201.448028 284.251415 
L 206.974918 286.082639 
L 212.870268 287.807033 
L 219.134077 289.41153 
L 225.766346 290.887385 
L 233.135533 292.295013 
L 240.87318 293.548388 
L 249.347745 294.698674 
L 258.927689 295.766744 
L 269.613011 296.721977 
L 281.403711 297.547031 
L 295.036707 298.270409 
L 310.88046 298.880507 
L 330.040347 299.385086 
L 353.990206 299.780603 
L 385.677712 300.068067 
L 432.840511 300.253311 
L 442.420455 300.272727 
L 442.420455 300.272727 
" clip-path="url(#pf8be71a816)" style="fill: none; stroke: #ff0000; stroke-width: 1.5; stroke-linecap: square"/>
   </g>
   <g id="patch_8">
    <path d="M 55.925 313.2 
L 55.925 28.8 
" style="fill: none; stroke: #000000; stroke-width: 0.8; stroke-linejoin: miter; stroke-linecap: square"/>
   </g>
   <g id="patch_9">
    <path d="M 460.825 313.2 
L 460.825 28.8 
" style="fill: none; stroke: #000000; stroke-width: 0.8; stroke-linejoin: miter; stroke-linecap: square"/>
   </g>
   <g id="patch_10">
    <path d="M 55.925 313.2 
L 460.825 313.2 
" style="fill: none; stroke: #000000; stroke-width: 0.8; stroke-linejoin: miter; stroke-linecap: square"/>
   </g>
   <g id="patch_11">
    <path d="M 55.925 28.8 
L 460.825 28.8 
" style="fill: none; stroke: #000000; stroke-width: 0.8; stroke-linejoin: miter; stroke-linecap: square"/>
   </g>
   <g id="legend_2">
    <g id="patch_12">
     <path d="M 62.925 51.478125 
L 158.264063 51.478125 
Q 160.264063 51.478125 160.264063 49.478125 
L 160.264063 35.8 
Q 160.264063 33.8 158.264063 33.8 
L 62.925 33.8 
Q 60.925 33.8 60.925 35.8 
L 60.925 49.478125 
Q 60.925 51.478125 62.925 51.478125 
z
" style="fill: #ffffff; opacity: 0.8; stroke: #cccccc; stroke-linejoin: miter"/>
    </g>
    <g id="line2d_27">
     <path d="M 64.925 41.898438 
L 74.925 41.898438 
L 84.925 41.898438 
" style="fill: none; stroke: #ff0000; stroke-width: 1.5; stroke-linecap: square"/>
    </g>
    <g id="text_27">
     <!-- Temperature -->
     <g transform="translate(92.925 45.398438)scale(0.1 -0.1)">
      <use xlink:href="#DejaVuSans-54"/>
      <use xlink:href="#DejaVuSans-65" x="44.083984"/>
      <use xlink:href="#DejaVuSans-6d" x="105.607422"/>
      <use xlink:href="#DejaVuSans-70" x="203.019531"/>
      <use xlink:href="#DejaVuSans-65" x="266.496094"/>
      <use xlink:href="#DejaVuSans-72" x="328.019531"/>
      <use xlink:href="#DejaVuSans-61" x="369.132812"/>
      <use xlink:href="#DejaVuSans-74" x="430.412109"/>
      <use xlink:href="#DejaVuSans-75" x="469.621094"/>
      <use xlink:href="#DejaVuSans-72" x="533"/>
      <use xlink:href="#DejaVuSans-65" x="571.863281"/>
     </g>
    </g>
   </g>
  </g>
 </g>
 <defs>
  <clipPath id="pf8be71a816">
   <rect x="55.925" y="28.8" width="404.9" height="284.4"/>
  </clipPath>
 </defs>
</svg>
