<?xml version="1.0" encoding="utf-8" standalone="no"?>
<!DOCTYPE svg PUBLIC "-//W3C//DTD SVG 1.1//EN"
  "http://www.w3.org/Graphics/SVG/1.1/DTD/svg11.dtd">
<svg xmlns:xlink="http://www.w3.org/1999/xlink" width="504pt" height="360pt" viewBox="0 0 504 360" xmlns="http://www.w3.org/2000/svg" version="1.1">
 <metadata>
  <rdf:RDF xmlns:dc="http://purl.org/dc/elements/1.1/" xmlns:cc="http://creativecommons.org/ns#" xmlns:rdf="http://www.w3.org/1999/02/22-rdf-syntax-ns#">
   <cc:Work>
    <dc:type rdf:resource="http://purl.org/dc/dcmitype/StillImage"/>
    <dc:date>2022-07-28T20:50:44.213865</dc:date>
    <dc:format>image/svg+xml</dc:format>
    <dc:creator>
     <cc:Agent>
      <dc:title>Matplotlib v3.5.1, https://matplotlib.org/</dc:title>
     </cc:Agent>
    </dc:creator>
   </cc:Work>
  </rdf:RDF>
 </metadata>
 <defs>
  <style type="text/css">*{stroke-linejoin: round; stroke-linecap: butt}</style>
 </defs>
 <g id="figure_1">
  <g id="patch_1">
   <path d="M 0 360 
L 504 360 
L 504 0 
L 0 0 
L 0 360 
z
" style="fill: none"/>
  </g>
  <g id="axes_1">
   <g id="patch_2">
    <path d="M 55.925 313.2 
L 460.825 313.2 
L 460.825 28.8 
L 55.925 28.8 
z
" style="fill: #ffffff"/>
   </g>
   <g id="matplotlib.axis_1">
    <g id="xtick_1">
     <g id="line2d_1">
      <defs>
       <path id="m19db292d68" d="M 0 0 
L 0 3.5 
" style="stroke: #000000; stroke-width: 0.8"/>
      </defs>
      <g>
       <use xlink:href="#m19db292d68" x="74.329545" y="313.2" style="stroke: #000000; stroke-width: 0.8"/>
      </g>
     </g>
     <g id="text_1">
      <!-- 0 -->
      <g transform="translate(71.148295 327.798437)scale(0.1 -0.1)">
       <defs>
        <path id="DejaVuSans-30" d="M 2034 4250 
Q 1547 4250 1301 3770 
Q 1056 3291 1056 2328 
Q 1056 1369 1301 889 
Q 1547 409 2034 409 
Q 2525 409 2770 889 
Q 3016 1369 3016 2328 
Q 3016 3291 2770 3770 
Q 2525 4250 2034 4250 
z
M 2034 4750 
Q 2819 4750 3233 4129 
Q 3647 3509 3647 2328 
Q 3647 1150 3233 529 
Q 2819 -91 2034 -91 
Q 1250 -91 836 529 
Q 422 1150 422 2328 
Q 422 3509 836 4129 
Q 1250 4750 2034 4750 
z
" transform="scale(0.015625)"/>
       </defs>
       <use xlink:href="#DejaVuSans-30"/>
      </g>
     </g>
    </g>
    <g id="xtick_2">
     <g id="line2d_2">
      <g>
       <use xlink:href="#m19db292d68" x="148.021419" y="313.2" style="stroke: #000000; stroke-width: 0.8"/>
      </g>
     </g>
     <g id="text_2">
      <!-- 200 -->
      <g transform="translate(138.477669 327.798437)scale(0.1 -0.1)">
       <defs>
        <path id="DejaVuSans-32" d="M 1228 531 
L 3431 531 
L 3431 0 
L 469 0 
L 469 531 
Q 828 903 1448 1529 
Q 2069 2156 2228 2338 
Q 2531 2678 2651 2914 
Q 2772 3150 2772 3378 
Q 2772 3750 2511 3984 
Q 2250 4219 1831 4219 
Q 1534 4219 1204 4116 
Q 875 4013 500 3803 
L 500 4441 
Q 881 4594 1212 4672 
Q 1544 4750 1819 4750 
Q 2544 4750 2975 4387 
Q 3406 4025 3406 3419 
Q 3406 3131 3298 2873 
Q 3191 2616 2906 2266 
Q 2828 2175 2409 1742 
Q 1991 1309 1228 531 
z
" transform="scale(0.015625)"/>
       </defs>
       <use xlink:href="#DejaVuSans-32"/>
       <use xlink:href="#DejaVuSans-30" x="63.623047"/>
       <use xlink:href="#DejaVuSans-30" x="127.246094"/>
      </g>
     </g>
    </g>
    <g id="xtick_3">
     <g id="line2d_3">
      <g>
       <use xlink:href="#m19db292d68" x="221.713293" y="313.2" style="stroke: #000000; stroke-width: 0.8"/>
      </g>
     </g>
     <g id="text_3">
      <!-- 400 -->
      <g transform="translate(212.169543 327.798437)scale(0.1 -0.1)">
       <defs>
        <path id="DejaVuSans-34" d="M 2419 4116 
L 825 1625 
L 2419 1625 
L 2419 4116 
z
M 2253 4666 
L 3047 4666 
L 3047 1625 
L 3713 1625 
L 3713 1100 
L 3047 1100 
L 3047 0 
L 2419 0 
L 2419 1100 
L 313 1100 
L 313 1709 
L 2253 4666 
z
" transform="scale(0.015625)"/>
       </defs>
       <use xlink:href="#DejaVuSans-34"/>
       <use xlink:href="#DejaVuSans-30" x="63.623047"/>
       <use xlink:href="#DejaVuSans-30" x="127.246094"/>
      </g>
     </g>
    </g>
    <g id="xtick_4">
     <g id="line2d_4">
      <g>
       <use xlink:href="#m19db292d68" x="295.405167" y="313.2" style="stroke: #000000; stroke-width: 0.8"/>
      </g>
     </g>
     <g id="text_4">
      <!-- 600 -->
      <g transform="translate(285.861417 327.798437)scale(0.1 -0.1)">
       <defs>
        <path id="DejaVuSans-36" d="M 2113 2584 
Q 1688 2584 1439 2293 
Q 1191 2003 1191 1497 
Q 1191 994 1439 701 
Q 1688 409 2113 409 
Q 2538 409 2786 701 
Q 3034 994 3034 1497 
Q 3034 2003 2786 2293 
Q 2538 2584 2113 2584 
z
M 3366 4563 
L 3366 3988 
Q 3128 4100 2886 4159 
Q 2644 4219 2406 4219 
Q 1781 4219 1451 3797 
Q 1122 3375 1075 2522 
Q 1259 2794 1537 2939 
Q 1816 3084 2150 3084 
Q 2853 3084 3261 2657 
Q 3669 2231 3669 1497 
Q 3669 778 3244 343 
Q 2819 -91 2113 -91 
Q 1303 -91 875 529 
Q 447 1150 447 2328 
Q 447 3434 972 4092 
Q 1497 4750 2381 4750 
Q 2619 4750 2861 4703 
Q 3103 4656 3366 4563 
z
" transform="scale(0.015625)"/>
       </defs>
       <use xlink:href="#DejaVuSans-36"/>
       <use xlink:href="#DejaVuSans-30" x="63.623047"/>
       <use xlink:href="#DejaVuSans-30" x="127.246094"/>
      </g>
     </g>
    </g>
    <g id="xtick_5">
     <g id="line2d_5">
      <g>
       <use xlink:href="#m19db292d68" x="369.09704" y="313.2" style="stroke: #000000; stroke-width: 0.8"/>
      </g>
     </g>
     <g id="text_5">
      <!-- 800 -->
      <g transform="translate(359.55329 327.798437)scale(0.1 -0.1)">
       <defs>
        <path id="DejaVuSans-38" d="M 2034 2216 
Q 1584 2216 1326 1975 
Q 1069 1734 1069 1313 
Q 1069 891 1326 650 
Q 1584 409 2034 409 
Q 2484 409 2743 651 
Q 3003 894 3003 1313 
Q 3003 1734 2745 1975 
Q 2488 2216 2034 2216 
z
M 1403 2484 
Q 997 2584 770 2862 
Q 544 3141 544 3541 
Q 544 4100 942 4425 
Q 1341 4750 2034 4750 
Q 2731 4750 3128 4425 
Q 3525 4100 3525 3541 
Q 3525 3141 3298 2862 
Q 3072 2584 2669 2484 
Q 3125 2378 3379 2068 
Q 3634 1759 3634 1313 
Q 3634 634 3220 271 
Q 2806 -91 2034 -91 
Q 1263 -91 848 271 
Q 434 634 434 1313 
Q 434 1759 690 2068 
Q 947 2378 1403 2484 
z
M 1172 3481 
Q 1172 3119 1398 2916 
Q 1625 2713 2034 2713 
Q 2441 2713 2670 2916 
Q 2900 3119 2900 3481 
Q 2900 3844 2670 4047 
Q 2441 4250 2034 4250 
Q 1625 4250 1398 4047 
Q 1172 3844 1172 3481 
z
" transform="scale(0.015625)"/>
       </defs>
       <use xlink:href="#DejaVuSans-38"/>
       <use xlink:href="#DejaVuSans-30" x="63.623047"/>
       <use xlink:href="#DejaVuSans-30" x="127.246094"/>
      </g>
     </g>
    </g>
    <g id="xtick_6">
     <g id="line2d_6">
      <g>
       <use xlink:href="#m19db292d68" x="442.788914" y="313.2" style="stroke: #000000; stroke-width: 0.8"/>
      </g>
     </g>
     <g id="text_6">
      <!-- 1000 -->
      <g transform="translate(430.063914 327.798437)scale(0.1 -0.1)">
       <defs>
        <path id="DejaVuSans-31" d="M 794 531 
L 1825 531 
L 1825 4091 
L 703 3866 
L 703 4441 
L 1819 4666 
L 2450 4666 
L 2450 531 
L 3481 531 
L 3481 0 
L 794 0 
L 794 531 
z
" transform="scale(0.015625)"/>
       </defs>
       <use xlink:href="#DejaVuSans-31"/>
       <use xlink:href="#DejaVuSans-30" x="63.623047"/>
       <use xlink:href="#DejaVuSans-30" x="127.246094"/>
       <use xlink:href="#DejaVuSans-30" x="190.869141"/>
      </g>
     </g>
    </g>
    <g id="text_7">
     <!-- Episode -->
     <g transform="translate(228.91875 345.275781)scale(0.15 -0.15)">
      <defs>
       <path id="DejaVuSans-45" d="M 628 4666 
L 3578 4666 
L 3578 4134 
L 1259 4134 
L 1259 2753 
L 3481 2753 
L 3481 2222 
L 1259 2222 
L 1259 531 
L 3634 531 
L 3634 0 
L 628 0 
L 628 4666 
z
" transform="scale(0.015625)"/>
       <path id="DejaVuSans-70" d="M 1159 525 
L 1159 -1331 
L 581 -1331 
L 581 3500 
L 1159 3500 
L 1159 2969 
Q 1341 3281 1617 3432 
Q 1894 3584 2278 3584 
Q 2916 3584 3314 3078 
Q 3713 2572 3713 1747 
Q 3713 922 3314 415 
Q 2916 -91 2278 -91 
Q 1894 -91 1617 61 
Q 1341 213 1159 525 
z
M 3116 1747 
Q 3116 2381 2855 2742 
Q 2594 3103 2138 3103 
Q 1681 3103 1420 2742 
Q 1159 2381 1159 1747 
Q 1159 1113 1420 752 
Q 1681 391 2138 391 
Q 2594 391 2855 752 
Q 3116 1113 3116 1747 
z
" transform="scale(0.015625)"/>
       <path id="DejaVuSans-69" d="M 603 3500 
L 1178 3500 
L 1178 0 
L 603 0 
L 603 3500 
z
M 603 4863 
L 1178 4863 
L 1178 4134 
L 603 4134 
L 603 4863 
z
" transform="scale(0.015625)"/>
       <path id="DejaVuSans-73" d="M 2834 3397 
L 2834 2853 
Q 2591 2978 2328 3040 
Q 2066 3103 1784 3103 
Q 1356 3103 1142 2972 
Q 928 2841 928 2578 
Q 928 2378 1081 2264 
Q 1234 2150 1697 2047 
L 1894 2003 
Q 2506 1872 2764 1633 
Q 3022 1394 3022 966 
Q 3022 478 2636 193 
Q 2250 -91 1575 -91 
Q 1294 -91 989 -36 
Q 684 19 347 128 
L 347 722 
Q 666 556 975 473 
Q 1284 391 1588 391 
Q 1994 391 2212 530 
Q 2431 669 2431 922 
Q 2431 1156 2273 1281 
Q 2116 1406 1581 1522 
L 1381 1569 
Q 847 1681 609 1914 
Q 372 2147 372 2553 
Q 372 3047 722 3315 
Q 1072 3584 1716 3584 
Q 2034 3584 2315 3537 
Q 2597 3491 2834 3397 
z
" transform="scale(0.015625)"/>
       <path id="DejaVuSans-6f" d="M 1959 3097 
Q 1497 3097 1228 2736 
Q 959 2375 959 1747 
Q 959 1119 1226 758 
Q 1494 397 1959 397 
Q 2419 397 2687 759 
Q 2956 1122 2956 1747 
Q 2956 2369 2687 2733 
Q 2419 3097 1959 3097 
z
M 1959 3584 
Q 2709 3584 3137 3096 
Q 3566 2609 3566 1747 
Q 3566 888 3137 398 
Q 2709 -91 1959 -91 
Q 1206 -91 779 398 
Q 353 888 353 1747 
Q 353 2609 779 3096 
Q 1206 3584 1959 3584 
z
" transform="scale(0.015625)"/>
       <path id="DejaVuSans-64" d="M 2906 2969 
L 2906 4863 
L 3481 4863 
L 3481 0 
L 2906 0 
L 2906 525 
Q 2725 213 2448 61 
Q 2172 -91 1784 -91 
Q 1150 -91 751 415 
Q 353 922 353 1747 
Q 353 2572 751 3078 
Q 1150 3584 1784 3584 
Q 2172 3584 2448 3432 
Q 2725 3281 2906 2969 
z
M 947 1747 
Q 947 1113 1208 752 
Q 1469 391 1925 391 
Q 2381 391 2643 752 
Q 2906 1113 2906 1747 
Q 2906 2381 2643 2742 
Q 2381 3103 1925 3103 
Q 1469 3103 1208 2742 
Q 947 2381 947 1747 
z
" transform="scale(0.015625)"/>
       <path id="DejaVuSans-65" d="M 3597 1894 
L 3597 1613 
L 953 1613 
Q 991 1019 1311 708 
Q 1631 397 2203 397 
Q 2534 397 2845 478 
Q 3156 559 3463 722 
L 3463 178 
Q 3153 47 2828 -22 
Q 2503 -91 2169 -91 
Q 1331 -91 842 396 
Q 353 884 353 1716 
Q 353 2575 817 3079 
Q 1281 3584 2069 3584 
Q 2775 3584 3186 3129 
Q 3597 2675 3597 1894 
z
M 3022 2063 
Q 3016 2534 2758 2815 
Q 2500 3097 2075 3097 
Q 1594 3097 1305 2825 
Q 1016 2553 972 2059 
L 3022 2063 
z
" transform="scale(0.015625)"/>
      </defs>
      <use xlink:href="#DejaVuSans-45"/>
      <use xlink:href="#DejaVuSans-70" x="63.183594"/>
      <use xlink:href="#DejaVuSans-69" x="126.660156"/>
      <use xlink:href="#DejaVuSans-73" x="154.443359"/>
      <use xlink:href="#DejaVuSans-6f" x="206.542969"/>
      <use xlink:href="#DejaVuSans-64" x="267.724609"/>
      <use xlink:href="#DejaVuSans-65" x="331.201172"/>
     </g>
    </g>
   </g>
   <g id="matplotlib.axis_2">
    <g id="ytick_1">
     <g id="line2d_7">
      <defs>
       <path id="mc081d93ebe" d="M 0 0 
L -3.5 0 
" style="stroke: #000000; stroke-width: 0.8"/>
      </defs>
      <g>
       <use xlink:href="#mc081d93ebe" x="55.925" y="313.2" style="stroke: #000000; stroke-width: 0.8"/>
      </g>
     </g>
     <g id="text_8">
      <!-- 0 -->
      <g transform="translate(42.5625 316.999219)scale(0.1 -0.1)">
       <use xlink:href="#DejaVuSans-30"/>
      </g>
     </g>
    </g>
    <g id="ytick_2">
     <g id="line2d_8">
      <g>
       <use xlink:href="#mc081d93ebe" x="55.925" y="269.446154" style="stroke: #000000; stroke-width: 0.8"/>
      </g>
     </g>
     <g id="text_9">
      <!-- 100 -->
      <g transform="translate(29.8375 273.245373)scale(0.1 -0.1)">
       <use xlink:href="#DejaVuSans-31"/>
       <use xlink:href="#DejaVuSans-30" x="63.623047"/>
       <use xlink:href="#DejaVuSans-30" x="127.246094"/>
      </g>
     </g>
    </g>
    <g id="ytick_3">
     <g id="line2d_9">
      <g>
       <use xlink:href="#mc081d93ebe" x="55.925" y="225.692308" style="stroke: #000000; stroke-width: 0.8"/>
      </g>
     </g>
     <g id="text_10">
      <!-- 200 -->
      <g transform="translate(29.8375 229.491526)scale(0.1 -0.1)">
       <use xlink:href="#DejaVuSans-32"/>
       <use xlink:href="#DejaVuSans-30" x="63.623047"/>
       <use xlink:href="#DejaVuSans-30" x="127.246094"/>
      </g>
     </g>
    </g>
    <g id="ytick_4">
     <g id="line2d_10">
      <g>
       <use xlink:href="#mc081d93ebe" x="55.925" y="181.938462" style="stroke: #000000; stroke-width: 0.8"/>
      </g>
     </g>
     <g id="text_11">
      <!-- 300 -->
      <g transform="translate(29.8375 185.73768)scale(0.1 -0.1)">
       <defs>
        <path id="DejaVuSans-33" d="M 2597 2516 
Q 3050 2419 3304 2112 
Q 3559 1806 3559 1356 
Q 3559 666 3084 287 
Q 2609 -91 1734 -91 
Q 1441 -91 1130 -33 
Q 819 25 488 141 
L 488 750 
Q 750 597 1062 519 
Q 1375 441 1716 441 
Q 2309 441 2620 675 
Q 2931 909 2931 1356 
Q 2931 1769 2642 2001 
Q 2353 2234 1838 2234 
L 1294 2234 
L 1294 2753 
L 1863 2753 
Q 2328 2753 2575 2939 
Q 2822 3125 2822 3475 
Q 2822 3834 2567 4026 
Q 2313 4219 1838 4219 
Q 1578 4219 1281 4162 
Q 984 4106 628 3988 
L 628 4550 
Q 988 4650 1302 4700 
Q 1616 4750 1894 4750 
Q 2613 4750 3031 4423 
Q 3450 4097 3450 3541 
Q 3450 3153 3228 2886 
Q 3006 2619 2597 2516 
z
" transform="scale(0.015625)"/>
       </defs>
       <use xlink:href="#DejaVuSans-33"/>
       <use xlink:href="#DejaVuSans-30" x="63.623047"/>
       <use xlink:href="#DejaVuSans-30" x="127.246094"/>
      </g>
     </g>
    </g>
    <g id="ytick_5">
     <g id="line2d_11">
      <g>
       <use xlink:href="#mc081d93ebe" x="55.925" y="138.184615" style="stroke: #000000; stroke-width: 0.8"/>
      </g>
     </g>
     <g id="text_12">
      <!-- 400 -->
      <g transform="translate(29.8375 141.983834)scale(0.1 -0.1)">
       <use xlink:href="#DejaVuSans-34"/>
       <use xlink:href="#DejaVuSans-30" x="63.623047"/>
       <use xlink:href="#DejaVuSans-30" x="127.246094"/>
      </g>
     </g>
    </g>
    <g id="ytick_6">
     <g id="line2d_12">
      <g>
       <use xlink:href="#mc081d93ebe" x="55.925" y="94.430769" style="stroke: #000000; stroke-width: 0.8"/>
      </g>
     </g>
     <g id="text_13">
      <!-- 500 -->
      <g transform="translate(29.8375 98.229988)scale(0.1 -0.1)">
       <defs>
        <path id="DejaVuSans-35" d="M 691 4666 
L 3169 4666 
L 3169 4134 
L 1269 4134 
L 1269 2991 
Q 1406 3038 1543 3061 
Q 1681 3084 1819 3084 
Q 2600 3084 3056 2656 
Q 3513 2228 3513 1497 
Q 3513 744 3044 326 
Q 2575 -91 1722 -91 
Q 1428 -91 1123 -41 
Q 819 9 494 109 
L 494 744 
Q 775 591 1075 516 
Q 1375 441 1709 441 
Q 2250 441 2565 725 
Q 2881 1009 2881 1497 
Q 2881 1984 2565 2268 
Q 2250 2553 1709 2553 
Q 1456 2553 1204 2497 
Q 953 2441 691 2322 
L 691 4666 
z
" transform="scale(0.015625)"/>
       </defs>
       <use xlink:href="#DejaVuSans-35"/>
       <use xlink:href="#DejaVuSans-30" x="63.623047"/>
       <use xlink:href="#DejaVuSans-30" x="127.246094"/>
      </g>
     </g>
    </g>
    <g id="ytick_7">
     <g id="line2d_13">
      <g>
       <use xlink:href="#mc081d93ebe" x="55.925" y="50.676923" style="stroke: #000000; stroke-width: 0.8"/>
      </g>
     </g>
     <g id="text_14">
      <!-- 600 -->
      <g transform="translate(29.8375 54.476142)scale(0.1 -0.1)">
       <use xlink:href="#DejaVuSans-36"/>
       <use xlink:href="#DejaVuSans-30" x="63.623047"/>
       <use xlink:href="#DejaVuSans-30" x="127.246094"/>
      </g>
     </g>
    </g>
    <g id="text_15">
     <!-- Score -->
     <g transform="translate(22.717969 192.003516)rotate(-90)scale(0.15 -0.15)">
      <defs>
       <path id="DejaVuSans-53" d="M 3425 4513 
L 3425 3897 
Q 3066 4069 2747 4153 
Q 2428 4238 2131 4238 
Q 1616 4238 1336 4038 
Q 1056 3838 1056 3469 
Q 1056 3159 1242 3001 
Q 1428 2844 1947 2747 
L 2328 2669 
Q 3034 2534 3370 2195 
Q 3706 1856 3706 1288 
Q 3706 609 3251 259 
Q 2797 -91 1919 -91 
Q 1588 -91 1214 -16 
Q 841 59 441 206 
L 441 856 
Q 825 641 1194 531 
Q 1563 422 1919 422 
Q 2459 422 2753 634 
Q 3047 847 3047 1241 
Q 3047 1584 2836 1778 
Q 2625 1972 2144 2069 
L 1759 2144 
Q 1053 2284 737 2584 
Q 422 2884 422 3419 
Q 422 4038 858 4394 
Q 1294 4750 2059 4750 
Q 2388 4750 2728 4690 
Q 3069 4631 3425 4513 
z
" transform="scale(0.015625)"/>
       <path id="DejaVuSans-63" d="M 3122 3366 
L 3122 2828 
Q 2878 2963 2633 3030 
Q 2388 3097 2138 3097 
Q 1578 3097 1268 2742 
Q 959 2388 959 1747 
Q 959 1106 1268 751 
Q 1578 397 2138 397 
Q 2388 397 2633 464 
Q 2878 531 3122 666 
L 3122 134 
Q 2881 22 2623 -34 
Q 2366 -91 2075 -91 
Q 1284 -91 818 406 
Q 353 903 353 1747 
Q 353 2603 823 3093 
Q 1294 3584 2113 3584 
Q 2378 3584 2631 3529 
Q 2884 3475 3122 3366 
z
" transform="scale(0.015625)"/>
       <path id="DejaVuSans-72" d="M 2631 2963 
Q 2534 3019 2420 3045 
Q 2306 3072 2169 3072 
Q 1681 3072 1420 2755 
Q 1159 2438 1159 1844 
L 1159 0 
L 581 0 
L 581 3500 
L 1159 3500 
L 1159 2956 
Q 1341 3275 1631 3429 
Q 1922 3584 2338 3584 
Q 2397 3584 2469 3576 
Q 2541 3569 2628 3553 
L 2631 2963 
z
" transform="scale(0.015625)"/>
      </defs>
      <use xlink:href="#DejaVuSans-53"/>
      <use xlink:href="#DejaVuSans-63" x="63.476562"/>
      <use xlink:href="#DejaVuSans-6f" x="118.457031"/>
      <use xlink:href="#DejaVuSans-72" x="179.638672"/>
      <use xlink:href="#DejaVuSans-65" x="218.501953"/>
     </g>
    </g>
   </g>
   <g id="line2d_14">
    <path d="M 74.329545 305.324308 
L 74.698005 299.636308 
L 75.434924 307.074462 
L 75.803383 307.512 
L 76.171842 304.886769 
L 76.540302 304.449231 
L 76.908761 306.636923 
L 77.27722 304.886769 
L 77.64568 307.074462 
L 78.014139 304.449231 
L 78.382599 308.387077 
L 78.751058 300.511385 
L 79.119517 308.824615 
L 79.487977 291.760615 
L 79.856436 305.761846 
L 80.224895 303.136615 
L 80.593355 301.824 
L 80.961814 305.324308 
L 81.330273 304.449231 
L 81.698733 308.387077 
L 82.067192 306.636923 
L 82.435652 307.949538 
L 82.804111 303.574154 
L 83.17257 308.824615 
L 83.54103 307.512 
L 83.909489 295.260923 
L 84.277948 305.324308 
L 84.646408 304.449231 
L 85.014867 307.512 
L 85.383327 306.199385 
L 85.751786 301.824 
L 86.120245 295.260923 
L 86.488705 306.636923 
L 87.225623 308.387077 
L 87.594083 307.949538 
L 87.962542 306.636923 
L 88.331001 306.199385 
L 88.699461 293.073231 
L 89.06792 307.074462 
L 89.43638 305.324308 
L 89.804839 307.074462 
L 90.173298 273.384 
L 90.541758 304.011692 
L 90.910217 301.824 
L 91.278676 307.074462 
L 91.647136 306.199385 
L 92.015595 303.136615 
L 92.384055 304.886769 
L 92.752514 308.387077 
L 93.120973 297.011077 
L 93.489433 292.198154 
L 93.857892 302.699077 
L 94.226351 308.824615 
L 94.594811 307.074462 
L 94.96327 307.512 
L 95.331729 301.386462 
L 95.700189 305.761846 
L 96.068648 301.824 
L 96.437108 308.387077 
L 96.805567 307.949538 
L 97.174026 306.199385 
L 97.542486 306.636923 
L 97.910945 306.199385 
L 98.279404 307.512 
L 98.647864 306.636923 
L 99.016323 288.697846 
L 99.384783 305.761846 
L 99.753242 307.512 
L 100.121701 306.636923 
L 100.490161 309.262154 
L 100.85862 303.136615 
L 101.227079 305.324308 
L 101.595539 296.573538 
L 101.963998 307.074462 
L 102.332457 300.948923 
L 102.700917 308.387077 
L 103.069376 309.262154 
L 103.437836 304.886769 
L 103.806295 307.949538 
L 104.174754 290.885538 
L 104.543214 307.949538 
L 104.911673 306.636923 
L 105.280132 304.886769 
L 105.648592 304.886769 
L 106.017051 297.448615 
L 106.385511 305.761846 
L 106.75397 308.824615 
L 107.122429 301.824 
L 107.490889 303.574154 
L 108.227807 304.449231 
L 108.596267 301.824 
L 108.964726 306.199385 
L 109.333185 300.073846 
L 109.701645 297.448615 
L 110.070104 297.448615 
L 110.438564 304.011692 
L 110.807023 305.324308 
L 111.543942 297.011077 
L 111.912401 303.136615 
L 112.28086 306.636923 
L 112.64932 298.323692 
L 113.017779 307.074462 
L 113.386239 299.198769 
L 113.754698 303.574154 
L 114.123157 304.449231 
L 114.491617 304.449231 
L 114.860076 304.886769 
L 115.228535 304.449231 
L 115.596995 294.385846 
L 115.965454 301.386462 
L 116.333913 301.824 
L 116.702373 306.199385 
L 117.070832 308.824615 
L 117.439292 293.948308 
L 117.807751 307.074462 
L 118.54467 290.010462 
L 118.913129 305.761846 
L 119.281588 305.761846 
L 119.650048 306.636923 
L 120.018507 295.260923 
L 120.386967 308.824615 
L 120.755426 301.824 
L 121.123885 303.574154 
L 121.860804 300.948923 
L 122.229263 304.886769 
L 122.597723 294.823385 
L 122.966182 306.636923 
L 123.334641 298.761231 
L 123.703101 305.324308 
L 124.07156 307.074462 
L 124.44002 292.198154 
L 124.808479 304.011692 
L 125.176938 304.011692 
L 125.913857 303.136615 
L 126.282316 307.949538 
L 126.650776 305.324308 
L 127.019235 304.449231 
L 127.387695 282.572308 
L 127.756154 306.199385 
L 128.493073 307.074462 
L 128.861532 293.073231 
L 129.229991 305.761846 
L 129.598451 304.886769 
L 129.96691 307.074462 
L 130.335369 304.011692 
L 130.703829 307.949538 
L 131.072288 303.574154 
L 131.440748 301.386462 
L 131.809207 307.074462 
L 132.177666 307.074462 
L 132.546126 302.699077 
L 132.914585 305.324308 
L 133.283044 308.824615 
L 133.651504 292.198154 
L 134.019963 307.949538 
L 134.388423 308.387077 
L 134.756882 295.698462 
L 135.125341 308.387077 
L 135.493801 304.011692 
L 135.86226 290.448 
L 136.230719 307.512 
L 136.599179 307.949538 
L 136.967638 294.385846 
L 137.336097 307.512 
L 137.704557 309.699692 
L 138.073016 293.510769 
L 138.441476 304.449231 
L 138.809935 302.261538 
L 139.178394 306.199385 
L 139.546854 292.198154 
L 139.915313 301.824 
L 140.283772 297.011077 
L 140.652232 307.512 
L 141.020691 298.761231 
L 141.389151 295.260923 
L 141.75761 297.448615 
L 142.126069 308.387077 
L 142.494529 306.636923 
L 142.862988 306.636923 
L 143.231447 305.324308 
L 143.599907 306.199385 
L 143.968366 306.636923 
L 144.336825 290.885538 
L 144.705285 305.324308 
L 145.073744 307.949538 
L 145.442204 303.574154 
L 145.810663 308.387077 
L 146.179122 284.322462 
L 146.547582 304.011692 
L 146.916041 301.386462 
L 147.2845 292.635692 
L 147.65296 307.512 
L 148.021419 296.136 
L 148.389879 300.073846 
L 148.758338 294.385846 
L 149.126797 297.886154 
L 149.495257 297.448615 
L 149.863716 294.823385 
L 150.232175 282.572308 
L 150.600635 306.199385 
L 150.969094 297.448615 
L 151.337553 297.886154 
L 151.706013 303.136615 
L 152.442932 309.262154 
L 152.811391 295.698462 
L 153.17985 307.949538 
L 153.916769 285.635077 
L 154.285228 306.636923 
L 154.653688 305.761846 
L 155.022147 307.512 
L 155.390607 302.699077 
L 155.759066 300.073846 
L 156.127525 302.699077 
L 156.495985 283.009846 
L 156.864444 307.512 
L 157.232903 307.074462 
L 157.601363 299.636308 
L 157.969822 307.074462 
L 158.706741 298.761231 
L 159.0752 304.449231 
L 159.812119 306.199385 
L 160.180578 307.949538 
L 160.549038 300.511385 
L 160.917497 278.634462 
L 161.285956 282.572308 
L 161.654416 304.449231 
L 162.022875 301.386462 
L 162.391335 304.449231 
L 162.759794 305.324308 
L 163.128253 307.074462 
L 163.496713 291.323077 
L 163.865172 305.324308 
L 164.233631 304.011692 
L 164.602091 300.511385 
L 164.97055 294.385846 
L 165.339009 294.385846 
L 165.707469 290.448 
L 166.444388 308.824615 
L 166.812847 284.322462 
L 167.181306 304.886769 
L 167.549766 304.449231 
L 167.918225 303.574154 
L 168.286684 295.260923 
L 168.655144 304.011692 
L 169.023603 298.761231 
L 169.392063 300.948923 
L 169.760522 302.261538 
L 170.128981 306.636923 
L 170.497441 297.886154 
L 170.8659 304.886769 
L 171.234359 299.198769 
L 171.602819 301.824 
L 171.971278 306.199385 
L 172.339737 305.761846 
L 172.708197 306.636923 
L 173.076656 297.011077 
L 173.445116 295.698462 
L 173.813575 307.074462 
L 174.182034 298.761231 
L 174.550494 298.323692 
L 174.918953 298.323692 
L 175.287412 297.448615 
L 175.655872 305.761846 
L 176.024331 288.260308 
L 176.76125 299.636308 
L 177.129709 299.198769 
L 177.498169 305.324308 
L 177.866628 307.949538 
L 178.235087 298.323692 
L 178.603547 307.949538 
L 178.972006 307.512 
L 179.340465 277.759385 
L 180.077384 297.448615 
L 180.445844 295.698462 
L 180.814303 301.824 
L 181.182762 302.261538 
L 181.551222 305.324308 
L 181.919681 295.260923 
L 182.28814 303.136615 
L 182.6566 306.636923 
L 183.025059 296.573538 
L 183.393519 300.073846 
L 183.761978 285.197538 
L 184.130437 289.135385 
L 184.498897 295.260923 
L 184.867356 303.574154 
L 185.235815 270.758769 
L 185.604275 287.385231 
L 185.972734 296.573538 
L 186.341193 297.448615 
L 187.078112 305.761846 
L 187.446572 298.323692 
L 187.815031 305.761846 
L 188.18349 305.324308 
L 188.55195 295.698462 
L 188.920409 303.136615 
L 189.288868 295.698462 
L 189.657328 295.260923 
L 190.025787 299.198769 
L 190.394247 294.823385 
L 190.762706 286.947692 
L 191.131165 307.512 
L 191.499625 291.323077 
L 191.868084 296.136 
L 192.236543 293.948308 
L 192.605003 293.948308 
L 192.973462 300.511385 
L 193.341921 304.011692 
L 193.710381 288.260308 
L 194.07884 297.011077 
L 194.4473 290.885538 
L 194.815759 290.010462 
L 195.184218 288.260308 
L 195.552678 302.261538 
L 195.921137 290.010462 
L 196.289596 284.322462 
L 196.658056 296.573538 
L 197.026515 300.073846 
L 197.394975 295.698462 
L 197.763434 297.886154 
L 198.131893 295.698462 
L 198.500353 290.885538 
L 198.868812 303.136615 
L 199.237271 301.386462 
L 199.605731 306.636923 
L 199.97419 307.074462 
L 200.342649 298.323692 
L 200.711109 303.136615 
L 201.079568 306.199385 
L 201.448028 298.323692 
L 201.816487 302.699077 
L 202.184946 300.073846 
L 202.553406 294.823385 
L 202.921865 301.824 
L 203.290324 287.385231 
L 203.658784 285.197538 
L 204.027243 302.699077 
L 204.395703 301.386462 
L 204.764162 300.511385 
L 205.132621 292.198154 
L 205.501081 276.884308 
L 205.86954 297.886154 
L 206.237999 279.509538 
L 206.606459 296.573538 
L 206.974918 303.136615 
L 207.343377 302.699077 
L 207.711837 292.198154 
L 208.080296 276.884308 
L 208.448756 304.449231 
L 208.817215 294.823385 
L 209.185674 290.448 
L 209.554134 300.073846 
L 209.922593 279.509538 
L 210.291052 304.449231 
L 210.659512 306.199385 
L 211.027971 277.759385 
L 211.396431 303.574154 
L 211.76489 304.449231 
L 212.870268 299.636308 
L 213.238727 286.947692 
L 213.607187 289.572923 
L 213.975646 293.510769 
L 214.344105 284.322462 
L 214.712565 301.824 
L 215.081024 286.072615 
L 215.449484 286.947692 
L 215.817943 290.885538 
L 216.186402 289.135385 
L 216.554862 263.758154 
L 216.923321 277.759385 
L 217.29178 302.261538 
L 217.66024 291.760615 
L 218.028699 303.136615 
L 218.765618 297.448615 
L 219.134077 289.135385 
L 219.502537 296.573538 
L 219.870996 300.073846 
L 220.239455 281.697231 
L 220.607915 301.386462 
L 220.976374 286.510154 
L 221.344833 293.948308 
L 221.713293 296.573538 
L 222.081752 300.073846 
L 222.450212 279.072 
L 222.818671 293.948308 
L 223.18713 299.636308 
L 223.55559 299.198769 
L 223.924049 285.197538 
L 224.292508 293.948308 
L 224.660968 291.323077 
L 225.029427 279.947077 
L 225.397887 295.698462 
L 225.766346 293.510769 
L 226.134805 301.824 
L 226.503265 284.322462 
L 226.871724 292.635692 
L 227.240183 259.820308 
L 227.608643 280.384615 
L 227.977102 293.073231 
L 228.345561 297.448615 
L 228.714021 282.134769 
L 229.08248 287.385231 
L 229.45094 294.823385 
L 229.819399 282.572308 
L 230.187858 301.386462 
L 230.556318 285.197538 
L 230.924777 285.635077 
L 231.293236 281.259692 
L 231.661696 287.385231 
L 232.030155 281.697231 
L 232.398615 297.011077 
L 232.767074 292.198154 
L 233.135533 297.448615 
L 233.503993 294.385846 
L 233.872452 298.323692 
L 234.240911 278.634462 
L 234.609371 286.510154 
L 234.97783 270.321231 
L 235.346289 297.886154 
L 235.714749 293.948308 
L 236.083208 293.948308 
L 236.451668 269.883692 
L 236.820127 296.136 
L 237.557046 282.572308 
L 237.925505 275.571692 
L 238.293964 301.386462 
L 238.662424 303.136615 
L 239.030883 296.136 
L 239.399343 272.071385 
L 239.767802 301.386462 
L 240.136261 295.698462 
L 240.504721 283.884923 
L 240.87318 296.136 
L 241.241639 297.011077 
L 241.610099 294.385846 
L 241.978558 297.448615 
L 242.347017 275.571692 
L 242.715477 278.634462 
L 243.083936 286.510154 
L 243.452396 272.071385 
L 244.189314 293.948308 
L 244.557774 292.198154 
L 244.926233 294.385846 
L 245.294692 284.322462 
L 245.663152 285.635077 
L 246.031611 302.261538 
L 246.400071 263.320615 
L 246.76853 285.635077 
L 247.136989 290.885538 
L 247.505449 288.697846 
L 247.873908 285.635077 
L 248.242367 272.946462 
L 248.610827 281.259692 
L 248.979286 296.136 
L 249.347745 268.571077 
L 249.716205 286.947692 
L 250.084664 277.321846 
L 250.453124 299.636308 
L 250.821583 299.636308 
L 251.190042 290.010462 
L 251.558502 287.822769 
L 251.926961 286.947692 
L 252.29542 286.947692 
L 252.66388 298.761231 
L 253.032339 299.636308 
L 254.137717 279.947077 
L 254.506177 282.572308 
L 254.874636 289.572923 
L 255.243095 293.948308 
L 255.611555 300.511385 
L 255.980014 283.884923 
L 256.348473 281.697231 
L 256.716933 263.758154 
L 257.085392 287.385231 
L 257.453852 281.697231 
L 257.822311 297.448615 
L 258.55923 286.510154 
L 258.927689 294.385846 
L 259.296148 290.885538 
L 259.664608 298.323692 
L 260.401527 279.072 
L 261.138445 298.761231 
L 261.506905 299.198769 
L 261.875364 291.323077 
L 262.243823 297.011077 
L 262.612283 290.885538 
L 262.980742 291.323077 
L 263.349201 287.385231 
L 263.717661 265.070769 
L 264.08612 301.824 
L 264.45458 280.822154 
L 264.823039 295.698462 
L 265.191498 294.385846 
L 265.559958 275.571692 
L 265.928417 288.697846 
L 266.296876 279.947077 
L 266.665336 290.885538 
L 267.770714 266.820923 
L 268.139173 272.071385 
L 268.507633 258.945231 
L 268.876092 296.136 
L 269.244551 277.759385 
L 269.613011 282.134769 
L 269.98147 263.758154 
L 270.349929 293.510769 
L 270.718389 285.635077 
L 271.086848 293.948308 
L 271.455308 290.010462 
L 271.823767 297.448615 
L 272.192226 286.072615 
L 272.560686 283.447385 
L 272.929145 288.697846 
L 273.297604 290.885538 
L 273.666064 286.072615 
L 274.034523 292.635692 
L 274.402983 279.072 
L 274.771442 298.761231 
L 275.508361 290.448 
L 275.87682 290.448 
L 276.245279 283.884923 
L 276.613739 297.011077 
L 276.982198 266.820923 
L 277.350657 294.385846 
L 277.719117 277.321846 
L 278.087576 278.196923 
L 278.456036 254.569846 
L 278.824495 263.320615 
L 279.192954 296.136 
L 279.561414 287.385231 
L 279.929873 295.698462 
L 280.298332 293.948308 
L 280.666792 293.510769 
L 281.035251 288.260308 
L 281.403711 279.072 
L 281.77217 281.259692 
L 282.140629 279.947077 
L 282.877548 268.571077 
L 283.246007 291.323077 
L 283.614467 294.385846 
L 283.982926 295.260923 
L 284.351385 298.761231 
L 284.719845 279.072 
L 285.088304 294.385846 
L 285.456764 285.635077 
L 285.825223 296.573538 
L 286.193682 287.822769 
L 286.562142 293.948308 
L 286.930601 293.073231 
L 287.29906 294.823385 
L 287.66752 297.886154 
L 288.404439 274.696615 
L 288.772898 267.696 
L 289.141357 269.883692 
L 289.509817 289.572923 
L 289.878276 293.510769 
L 290.246735 293.510769 
L 290.615195 297.448615 
L 290.983654 259.820308 
L 291.352113 274.259077 
L 291.720573 297.448615 
L 292.089032 277.321846 
L 292.457492 288.260308 
L 292.825951 290.010462 
L 293.19441 293.073231 
L 293.56287 293.948308 
L 293.931329 295.260923 
L 294.299788 268.571077 
L 294.668248 274.696615 
L 295.036707 278.634462 
L 295.405167 264.633231 
L 295.773626 257.195077 
L 296.142085 294.385846 
L 296.510545 296.136 
L 296.879004 258.945231 
L 297.247463 263.758154 
L 297.615923 295.698462 
L 297.984382 284.322462 
L 298.352841 293.948308 
L 298.721301 289.135385 
L 299.08976 263.758154 
L 299.45822 290.448 
L 299.826679 285.197538 
L 300.195138 283.009846 
L 300.563598 270.758769 
L 300.932057 294.823385 
L 301.300516 275.571692 
L 301.668976 288.260308 
L 302.037435 294.823385 
L 302.405895 299.198769 
L 302.774354 260.695385 
L 303.142813 293.948308 
L 303.879732 243.193846 
L 304.248191 285.197538 
L 304.616651 290.010462 
L 304.98511 280.384615 
L 305.353569 289.135385 
L 305.722029 272.946462 
L 306.458948 294.823385 
L 306.827407 292.635692 
L 307.195866 283.447385 
L 307.564326 287.822769 
L 307.932785 279.509538 
L 308.301244 287.822769 
L 308.669704 291.760615 
L 309.038163 281.259692 
L 309.406623 288.697846 
L 309.775082 276.884308 
L 310.143541 275.134154 
L 310.512001 291.760615 
L 310.88046 284.76 
L 311.248919 291.323077 
L 311.617379 291.323077 
L 311.985838 278.634462 
L 312.354297 273.821538 
L 312.722757 258.507692 
L 313.091216 287.385231 
L 313.459676 282.134769 
L 313.828135 288.260308 
L 314.196594 269.883692 
L 314.565054 288.697846 
L 314.933513 267.696 
L 315.301972 286.510154 
L 315.670432 290.010462 
L 316.038891 254.132308 
L 316.77581 277.759385 
L 317.144269 277.759385 
L 317.512729 286.510154 
L 317.881188 287.385231 
L 318.249647 253.257231 
L 318.618107 275.571692 
L 318.986566 262.883077 
L 319.355025 281.259692 
L 319.723485 269.008615 
L 320.091944 271.633846 
L 320.460404 283.447385 
L 320.828863 290.885538 
L 321.197322 286.947692 
L 321.565782 290.885538 
L 321.934241 285.635077 
L 322.3027 272.946462 
L 322.67116 282.572308 
L 323.039619 286.510154 
L 323.408079 283.884923 
L 323.776538 269.446154 
L 324.144997 292.198154 
L 324.513457 297.886154 
L 325.250375 258.507692 
L 325.618835 283.884923 
L 325.987294 290.010462 
L 326.355753 253.257231 
L 326.724213 255.007385 
L 327.092672 277.759385 
L 327.461132 280.822154 
L 327.829591 278.634462 
L 328.19805 257.195077 
L 328.56651 268.133538 
L 328.934969 287.822769 
L 329.303428 237.068308 
L 329.671888 273.384 
L 330.040347 272.946462 
L 330.408807 286.072615 
L 330.777266 273.821538 
L 331.145725 272.946462 
L 331.514185 287.822769 
L 331.882644 283.884923 
L 332.251103 293.948308 
L 332.619563 243.631385 
L 332.988022 285.635077 
L 333.356481 283.884923 
L 333.724941 265.070769 
L 334.0934 265.508308 
L 334.46186 283.884923 
L 334.830319 281.259692 
L 335.935697 288.697846 
L 336.304156 278.196923 
L 336.672616 291.323077 
L 337.041075 283.884923 
L 337.409535 263.758154 
L 337.777994 284.76 
L 338.146453 265.508308 
L 338.514913 278.634462 
L 338.883372 277.759385 
L 339.251831 276.009231 
L 339.620291 273.384 
L 339.98875 279.509538 
L 340.357209 283.447385 
L 340.725669 285.197538 
L 341.094128 258.945231 
L 341.462588 287.385231 
L 341.831047 285.197538 
L 342.199506 276.884308 
L 342.567966 247.131692 
L 342.936425 277.759385 
L 343.304884 292.198154 
L 344.041803 266.820923 
L 344.410263 291.760615 
L 344.778722 256.757538 
L 345.147181 297.011077 
L 345.515641 287.385231 
L 345.8841 286.947692 
L 346.252559 285.635077 
L 346.621019 275.571692 
L 346.989478 292.198154 
L 347.357937 290.448 
L 347.726397 292.635692 
L 348.094856 269.883692 
L 348.463316 277.759385 
L 348.831775 293.073231 
L 349.200234 270.321231 
L 349.568694 286.072615 
L 349.937153 280.822154 
L 350.305612 286.947692 
L 350.674072 280.822154 
L 351.042531 292.635692 
L 351.410991 279.947077 
L 351.77945 274.696615 
L 352.516369 291.323077 
L 352.884828 279.947077 
L 353.253287 294.385846 
L 353.621747 276.884308 
L 353.990206 291.323077 
L 354.358665 278.196923 
L 354.727125 276.446769 
L 355.095584 292.198154 
L 355.464044 257.632615 
L 355.832503 282.572308 
L 356.200962 279.947077 
L 356.569422 279.072 
L 356.937881 293.073231 
L 357.30634 270.758769 
L 357.6748 291.760615 
L 358.043259 290.010462 
L 358.411719 290.010462 
L 358.780178 278.634462 
L 359.148637 272.071385 
L 359.517097 287.822769 
L 359.885556 290.885538 
L 360.254015 282.572308 
L 360.622475 263.758154 
L 360.990934 282.134769 
L 361.359393 283.447385 
L 361.727853 275.134154 
L 362.096312 269.446154 
L 362.464772 289.572923 
L 362.833231 288.697846 
L 363.20169 234.880615 
L 363.57015 291.760615 
L 363.938609 286.510154 
L 365.043987 276.009231 
L 365.412447 289.572923 
L 365.780906 292.635692 
L 366.149365 290.448 
L 366.517825 285.197538 
L 366.886284 254.569846 
L 367.254743 280.384615 
L 367.623203 291.323077 
L 367.991662 288.697846 
L 368.360121 283.447385 
L 368.728581 274.259077 
L 369.09704 272.946462 
L 369.4655 277.321846 
L 369.833959 296.136 
L 370.202418 295.260923 
L 370.570878 290.885538 
L 370.939337 277.759385 
L 371.676256 291.760615 
L 372.044715 293.073231 
L 372.781634 251.507077 
L 373.150093 280.384615 
L 373.518553 270.758769 
L 373.887012 289.135385 
L 374.255471 242.318769 
L 374.623931 281.259692 
L 374.99239 272.946462 
L 375.360849 271.196308 
L 375.729309 291.323077 
L 376.097768 288.697846 
L 376.466228 262.445538 
L 377.203146 288.260308 
L 377.571606 270.321231 
L 378.308524 290.010462 
L 378.676984 277.759385 
L 379.045443 290.448 
L 379.413903 283.884923 
L 379.782362 235.318154 
L 380.150821 290.010462 
L 380.519281 251.944615 
L 380.88774 283.447385 
L 381.256199 283.009846 
L 381.624659 271.633846 
L 381.993118 289.135385 
L 382.361577 295.260923 
L 382.730037 287.822769 
L 383.098496 275.571692 
L 383.466956 296.573538 
L 383.835415 258.507692 
L 384.203874 255.882462 
L 384.572334 293.510769 
L 384.940793 276.446769 
L 385.309252 290.010462 
L 385.677712 293.073231 
L 386.046171 276.446769 
L 386.414631 288.697846 
L 386.78309 284.76 
L 387.151549 268.571077 
L 387.520009 285.635077 
L 387.888468 282.572308 
L 388.256927 281.697231 
L 388.625387 292.198154 
L 388.993846 286.072615 
L 389.362305 290.010462 
L 389.730765 291.323077 
L 390.467684 288.697846 
L 390.836143 285.197538 
L 391.204602 296.136 
L 391.573062 292.635692 
L 391.941521 294.823385 
L 392.30998 293.948308 
L 392.67844 285.635077 
L 393.046899 292.635692 
L 393.415359 293.510769 
L 393.783818 241.006154 
L 394.152277 289.572923 
L 394.520737 244.068923 
L 394.889196 283.009846 
L 395.257655 275.571692 
L 395.626115 291.760615 
L 395.994574 279.947077 
L 396.363033 286.510154 
L 396.731493 283.009846 
L 397.099952 294.385846 
L 397.468412 296.136 
L 397.836871 286.947692 
L 398.20533 286.510154 
L 398.57379 292.635692 
L 398.942249 296.136 
L 399.310708 293.073231 
L 400.047627 277.759385 
L 400.416087 296.136 
L 400.784546 295.260923 
L 401.153005 242.756308 
L 401.521465 272.946462 
L 401.889924 290.010462 
L 402.258383 272.508923 
L 402.626843 296.136 
L 403.363761 256.32 
L 403.732221 290.010462 
L 404.10068 293.948308 
L 404.46914 286.510154 
L 404.837599 271.633846 
L 405.206058 263.320615 
L 405.574518 293.948308 
L 406.311436 287.822769 
L 406.679896 282.134769 
L 407.048355 290.885538 
L 407.416815 284.322462 
L 407.785274 272.946462 
L 408.522193 283.447385 
L 408.890652 288.260308 
L 409.259111 278.196923 
L 409.627571 282.572308 
L 409.99603 270.321231 
L 410.364489 225.254769 
L 410.732949 273.821538 
L 411.101408 284.322462 
L 411.469868 279.509538 
L 411.838327 280.822154 
L 412.206786 288.260308 
L 412.575246 288.697846 
L 412.943705 276.009231 
L 413.312164 291.760615 
L 413.680624 288.260308 
L 414.049083 267.258462 
L 414.417543 268.571077 
L 414.786002 285.197538 
L 415.154461 273.821538 
L 415.522921 291.760615 
L 415.89138 267.258462 
L 416.259839 289.572923 
L 416.628299 282.134769 
L 416.996758 287.385231 
L 417.365217 258.070154 
L 417.733677 266.383385 
L 418.102136 264.633231 
L 418.470596 265.508308 
L 418.839055 245.381538 
L 419.207514 283.884923 
L 419.575974 283.009846 
L 419.944433 271.633846 
L 420.312892 253.694769 
L 420.681352 263.758154 
L 421.049811 279.509538 
L 421.418271 279.509538 
L 421.78673 277.759385 
L 422.155189 269.008615 
L 422.523649 280.384615 
L 422.892108 284.322462 
L 423.260567 276.446769 
L 423.629027 275.134154 
L 423.997486 202.065231 
L 424.365945 227.88 
L 425.102864 286.072615 
L 425.471324 278.634462 
L 425.839783 278.196923 
L 426.208242 266.820923 
L 426.576702 261.570462 
L 426.945161 278.196923 
L 427.31362 285.197538 
L 427.68208 271.633846 
L 428.050539 273.821538 
L 428.418999 279.072 
L 428.787458 279.947077 
L 429.155917 281.259692 
L 429.524377 263.758154 
L 429.892836 269.883692 
L 430.261295 268.133538 
L 430.629755 279.072 
L 431.366673 254.569846 
L 431.735133 271.633846 
L 432.103592 255.007385 
L 432.472052 281.697231 
L 432.840511 278.634462 
L 433.20897 283.009846 
L 433.57743 259.382769 
L 433.945889 244.506462 
L 434.314348 263.320615 
L 434.682808 267.258462 
L 435.051267 265.945846 
L 435.419727 261.132923 
L 435.788186 269.446154 
L 436.156645 269.446154 
L 436.525105 244.068923 
L 436.893564 254.569846 
L 437.262023 275.134154 
L 437.630483 256.32 
L 437.998942 258.070154 
L 438.367401 252.819692 
L 438.735861 242.318769 
L 439.47278 276.009231 
L 439.841239 254.132308 
L 440.209698 275.571692 
L 440.578158 272.946462 
L 440.946617 264.633231 
L 441.315076 265.070769 
L 441.683536 272.946462 
L 442.051995 269.883692 
L 442.420455 262.445538 
L 442.420455 262.445538 
" clip-path="url(#pc6809cf80b)" style="fill: none; stroke: #708090; stroke-width: 1.5; stroke-linecap: square"/>
   </g>
   <g id="line2d_15">
    <path d="M 74.329545 304.020443 
L 74.698005 304.081698 
L 75.066464 304.029194 
L 75.434924 303.792923 
L 76.171842 303.731668 
L 76.908761 303.836677 
L 77.27722 303.731668 
L 77.64568 303.749169 
L 78.014139 303.64416 
L 79.119517 303.827926 
L 79.487977 303.784172 
L 79.856436 304.072948 
L 80.593355 304.177957 
L 80.961814 303.915434 
L 83.17257 303.941686 
L 83.54103 303.696665 
L 83.909489 303.687914 
L 85.014867 303.959188 
L 86.120245 303.722917 
L 86.488705 303.976689 
L 87.225623 303.924185 
L 87.594083 303.854178 
L 87.962542 303.64416 
L 88.699461 303.679163 
L 89.06792 303.854178 
L 90.173298 303.705415 
L 90.541758 304.274215 
L 91.278676 304.282966 
L 92.015595 303.915434 
L 92.752514 303.941686 
L 93.120973 303.792923 
L 93.489433 303.792923 
L 93.857892 304.011692 
L 94.226351 304.090449 
L 94.594811 303.880431 
L 94.96327 303.880431 
L 95.331729 303.714166 
L 96.437108 303.784172 
L 97.174026 303.64416 
L 97.910945 303.30288 
L 98.647864 303.18912 
L 99.753242 303.364135 
L 100.121701 303.162868 
L 100.490161 302.830338 
L 100.85862 302.760332 
L 101.963998 302.812837 
L 102.700917 302.865342 
L 104.174754 302.489058 
L 104.911673 302.541563 
L 105.280132 302.384049 
L 106.385511 302.331545 
L 107.859348 302.226535 
L 108.964726 302.375298 
L 109.333185 301.902757 
L 110.070104 302.209034 
L 110.438564 302.401551 
L 110.807023 302.182782 
L 111.543942 302.270289 
L 111.912401 302.471557 
L 113.754698 302.664074 
L 114.491617 302.699077 
L 115.228535 302.795335 
L 115.596995 302.550314 
L 116.333913 302.9616 
L 116.702373 302.839089 
L 117.070832 302.882843 
L 117.807751 302.716578 
L 118.17621 302.725329 
L 118.913129 303.022855 
L 119.650048 303.136615 
L 120.018507 302.874092 
L 120.386967 303.057858 
L 120.755426 302.926597 
L 121.123885 303.014105 
L 121.492345 302.786585 
L 122.966182 302.830338 
L 123.334641 302.602818 
L 124.44002 302.629071 
L 124.808479 302.917846 
L 125.913857 303.049108 
L 126.282316 302.804086 
L 127.019235 302.804086 
L 127.387695 302.786585 
L 127.756154 303.30288 
L 128.124613 302.865342 
L 129.96691 302.550314 
L 131.809207 301.762745 
L 132.177666 301.272702 
L 132.914585 301.150191 
L 133.651504 300.887668 
L 134.019963 301.167692 
L 134.388423 301.193945 
L 134.756882 300.940172 
L 135.125341 301.185194 
L 135.86226 300.546388 
L 136.230719 300.870166 
L 136.967638 300.826412 
L 137.336097 300.992677 
L 138.441476 300.493883 
L 139.178394 300.651397 
L 139.546854 300.520135 
L 139.915313 300.817662 
L 141.389151 300.948923 
L 142.126069 301.377711 
L 142.494529 301.220197 
L 143.231447 300.178855 
L 144.336825 300.021342 
L 144.705285 300.310117 
L 145.073744 300.34512 
L 145.442204 300.012591 
L 145.810663 300.047594 
L 146.179122 299.960086 
L 146.547582 300.283865 
L 147.2845 299.951335 
L 147.65296 299.907582 
L 148.021419 299.741317 
L 148.389879 299.995089 
L 148.758338 299.680062 
L 149.495257 300.021342 
L 150.232175 300.152603 
L 150.600635 300.581391 
L 150.969094 300.432628 
L 152.074472 300.660148 
L 152.811391 300.406375 
L 153.17985 300.476382 
L 153.54831 300.353871 
L 153.916769 300.581391 
L 154.285228 300.983926 
L 154.653688 300.983926 
L 155.390607 300.57264 
L 156.127525 300.633895 
L 156.495985 300.546388 
L 156.864444 300.852665 
L 157.232903 300.651397 
L 157.601363 300.625145 
L 158.338281 300.152603 
L 159.0752 300.091348 
L 159.812119 300.161354 
L 160.180578 300.00384 
L 160.549038 300.00384 
L 160.917497 300.143852 
L 161.285956 300.126351 
L 161.654416 300.257612 
L 162.759794 299.951335 
L 163.496713 299.855077 
L 163.865172 299.933834 
L 164.97055 299.863828 
L 165.339009 299.977588 
L 165.707469 299.793822 
L 166.444388 299.688812 
L 166.812847 299.583803 
L 167.918225 298.804985 
L 168.286684 298.682474 
L 169.023603 298.848738 
L 169.760522 298.936246 
L 170.128981 298.997502 
L 170.497441 298.778732 
L 170.8659 298.883742 
L 171.602819 298.621218 
L 171.971278 298.568714 
L 172.339737 298.341194 
L 172.708197 297.964911 
L 173.076656 297.982412 
L 173.445116 297.868652 
L 173.813575 297.877403 
L 174.182034 297.61488 
L 174.550494 297.518622 
L 175.287412 297.676135 
L 176.024331 297.317354 
L 176.392791 297.369858 
L 176.76125 297.2736 
L 177.129709 297.04608 
L 177.498169 297.107335 
L 177.866628 296.801058 
L 178.235087 296.328517 
L 178.603547 296.293514 
L 179.340465 295.899729 
L 179.708925 296.302265 
L 180.077384 296.433526 
L 180.445844 296.302265 
L 180.814303 296.451028 
L 181.551222 296.529785 
L 183.761978 296.7048 
L 184.130437 297.002326 
L 184.867356 297.247348 
L 185.235815 296.923569 
L 185.972734 297.518622 
L 186.709653 297.676135 
L 187.078112 297.483618 
L 187.446572 296.906068 
L 187.815031 296.897317 
L 188.18349 296.372271 
L 188.55195 296.197255 
L 188.920409 296.346018 
L 189.657328 296.267262 
L 190.025787 295.899729 
L 190.762706 296.004738 
L 191.131165 296.074745 
L 191.868084 295.689711 
L 192.605003 296.100997 
L 192.973462 295.777218 
L 193.710381 295.847225 
L 194.07884 296.136 
L 195.552678 296.346018 
L 196.289596 296.057243 
L 196.658056 296.407274 
L 198.131893 295.663458 
L 198.500353 295.024652 
L 198.868812 294.762129 
L 199.237271 294.744628 
L 199.97419 294.482105 
L 200.342649 294.342092 
L 200.711109 294.324591 
L 201.448028 293.852049 
L 201.816487 293.887052 
L 202.184946 293.467015 
L 202.553406 293.493268 
L 203.290324 293.169489 
L 204.027243 293.650782 
L 204.395703 293.17824 
L 204.764162 293.029477 
L 205.132621 293.011975 
L 205.86954 293.318252 
L 206.237999 293.239495 
L 206.606459 293.475766 
L 206.974918 293.143237 
L 207.711837 292.810708 
L 208.448756 293.151988 
L 208.817215 292.915717 
L 209.185674 292.215655 
L 209.922593 291.874375 
L 210.291052 292.233157 
L 211.027971 291.410585 
L 211.396431 291.751865 
L 211.76489 291.331828 
L 212.133349 291.270572 
L 213.238727 290.255483 
L 213.607187 290.264234 
L 213.975646 290.10672 
L 215.449484 290.412997 
L 215.817943 290.640517 
L 216.186402 290.395495 
L 216.554862 290.342991 
L 216.923321 290.474252 
L 217.29178 290.876788 
L 217.66024 290.710523 
L 218.028699 290.754277 
L 218.397159 290.089218 
L 219.134077 289.861698 
L 219.502537 289.730437 
L 219.870996 289.3104 
L 220.239455 289.336652 
L 220.607915 289.76544 
L 220.976374 289.660431 
L 221.344833 289.371655 
L 221.713293 289.520418 
L 222.081752 289.502917 
L 222.450212 289.179138 
L 222.818671 289.520418 
L 223.18713 289.581674 
L 224.292508 289.249145 
L 224.660968 288.942868 
L 225.397887 288.689095 
L 225.766346 288.417822 
L 226.134805 288.426572 
L 226.503265 288.234055 
L 226.871724 288.435323 
L 227.240183 288.269058 
L 227.977102 289.222892 
L 228.345561 288.62784 
L 228.714021 288.391569 
L 229.08248 288.566585 
L 229.45094 288.592837 
L 230.187858 288.216554 
L 230.556318 287.814018 
L 230.924777 288.032788 
L 231.293236 287.691508 
L 231.661696 287.805268 
L 232.030155 287.604 
L 232.398615 287.962782 
L 233.135533 287.971532 
L 234.240911 287.402732 
L 235.346289 288.51408 
L 236.451668 287.787766 
L 236.820127 288.181551 
L 237.188586 288.137797 
L 237.557046 288.347815 
L 238.293964 288.496578 
L 238.662424 287.744012 
L 239.399343 287.140209 
L 239.767802 287.647754 
L 240.504721 287.271471 
L 240.87318 287.481489 
L 241.241639 287.37648 
L 241.610099 287.402732 
L 241.978558 287.306474 
L 242.347017 286.938942 
L 243.452396 287.884025 
L 244.189314 288.566585 
L 245.294692 288.347815 
L 245.663152 287.962782 
L 246.031611 288.28656 
L 246.400071 287.857772 
L 246.76853 288.505329 
L 247.136989 288.680345 
L 247.505449 288.374068 
L 247.873908 288.374068 
L 248.242367 288.260308 
L 248.610827 288.619089 
L 248.979286 288.645342 
L 249.347745 288.234055 
L 249.716205 288.199052 
L 250.453124 287.533994 
L 250.821583 287.463988 
L 251.190042 287.026449 
L 251.558502 286.868935 
L 251.926961 286.387643 
L 252.29542 286.518905 
L 253.032339 286.396394 
L 253.400799 286.203877 
L 254.137717 286.282634 
L 255.243095 286.501403 
L 256.348473 286.090117 
L 256.716933 286.431397 
L 257.085392 287.0352 
L 257.453852 287.096455 
L 257.822311 287.271471 
L 258.19077 287.000197 
L 258.55923 287.105206 
L 258.927689 286.711422 
L 259.296148 286.711422 
L 260.033067 286.037612 
L 260.401527 285.337551 
L 260.769986 285.022523 
L 261.138445 285.145034 
L 261.506905 284.917514 
L 261.875364 284.847508 
L 262.243823 284.900012 
L 262.980742 284.777502 
L 263.717661 284.409969 
L 264.08612 284.707495 
L 264.45458 284.138695 
L 264.823039 283.893674 
L 265.559958 283.806166 
L 265.928417 284.199951 
L 266.296876 284.401218 
L 267.033795 284.453723 
L 267.402255 284.514978 
L 268.507633 285.792591 
L 268.876092 286.475151 
L 269.244551 286.448898 
L 269.613011 286.851434 
L 269.98147 286.92144 
L 270.349929 287.140209 
L 270.718389 286.623914 
L 271.086848 286.308886 
L 271.455308 286.221378 
L 271.823767 286.291385 
L 272.192226 286.212628 
L 272.560686 286.440148 
L 272.929145 285.967606 
L 273.297604 285.678831 
L 273.666064 285.810092 
L 274.402983 285.547569 
L 274.771442 285.766338 
L 275.508361 285.652578 
L 275.87682 285.748837 
L 276.245279 285.311298 
L 276.613739 285.127532 
L 276.982198 284.76 
L 277.350657 284.716246 
L 277.719117 283.972431 
L 278.456036 284.672492 
L 279.192954 284.768751 
L 280.298332 284.663742 
L 280.666792 284.567483 
L 281.035251 283.972431 
L 282.140629 284.173698 
L 282.509089 283.989932 
L 282.877548 284.41872 
L 283.246007 284.558732 
L 283.982926 284.506228 
L 284.351385 284.584985 
L 284.719845 283.823668 
L 285.088304 284.121194 
L 285.456764 283.666154 
L 285.825223 282.817329 
L 286.193682 282.589809 
L 286.562142 282.633563 
L 286.930601 282.362289 
L 287.29906 282.283532 
L 287.66752 281.845994 
L 288.035979 281.600972 
L 288.404439 281.784738 
L 289.509817 282.817329 
L 290.246735 282.502302 
L 290.615195 282.467298 
L 290.983654 282.14352 
L 291.352113 282.721071 
L 291.720573 282.773575 
L 292.089032 282.327286 
L 292.457492 282.616062 
L 293.19441 282.572308 
L 293.56287 282.537305 
L 294.668248 281.600972 
L 295.036707 281.854745 
L 295.405167 281.924751 
L 295.773626 282.397292 
L 296.142085 282.651065 
L 296.510545 282.537305 
L 296.879004 281.968505 
L 297.615923 283.044849 
L 297.984382 282.213526 
L 298.721301 281.522215 
L 299.08976 281.294695 
L 299.45822 281.749735 
L 299.826679 281.68848 
L 300.195138 281.049674 
L 300.932057 280.743397 
L 301.300516 280.472123 
L 301.668976 280.340862 
L 302.405895 279.780812 
L 302.774354 279.614548 
L 303.142813 280.139594 
L 303.511273 280.078338 
L 303.879732 280.358363 
L 304.248191 280.953415 
L 305.353569 280.900911 
L 305.722029 280.507126 
L 306.458948 281.137182 
L 306.827407 280.839655 
L 307.195866 280.157095 
L 307.932785 280.2096 
L 309.038163 278.748222 
L 309.406623 278.739471 
L 309.775082 278.538203 
L 310.143541 278.144418 
L 310.88046 277.925649 
L 311.248919 276.971815 
L 311.985838 276.245502 
L 312.354297 276.394265 
L 312.722757 276.394265 
L 313.091216 276.68304 
L 313.828135 276.726794 
L 314.196594 276.840554 
L 314.565054 276.315508 
L 314.933513 276.254252 
L 315.301972 276.578031 
L 316.038891 275.6592 
L 316.407351 276.254252 
L 316.77581 276.560529 
L 317.881188 276.91056 
L 318.249647 276.726794 
L 318.618107 277.488111 
L 318.986566 277.654375 
L 320.828863 277.698129 
L 321.934241 276.901809 
L 322.3027 276.858055 
L 322.67116 277.103077 
L 323.039619 276.630535 
L 323.776538 276.674289 
L 324.144997 276.823052 
L 324.513457 275.921723 
L 324.881916 275.519188 
L 325.250375 275.764209 
L 325.618835 276.166745 
L 325.987294 275.825465 
L 326.724213 275.930474 
L 327.092672 276.770548 
L 328.56651 277.59312 
L 328.934969 278.074412 
L 329.303428 278.126917 
L 329.671888 279.238265 
L 330.040347 279.168258 
L 330.777266 279.404529 
L 331.145725 279.334523 
L 331.514185 279.597046 
L 331.882644 279.457034 
L 332.251103 279.518289 
L 332.619563 279.255766 
L 332.988022 280.235852 
L 333.724941 279.938326 
L 334.0934 280.297108 
L 334.46186 280.813403 
L 334.830319 280.734646 
L 335.198778 280.997169 
L 335.567238 280.857157 
L 335.935697 280.944665 
L 336.304156 280.734646 
L 337.041075 280.717145 
L 337.409535 280.192098 
L 337.777994 280.568382 
L 338.146453 280.472123 
L 338.883372 281.032172 
L 339.251831 280.89216 
L 340.357209 281.749735 
L 340.725669 281.653477 
L 341.094128 281.390954 
L 341.462588 281.968505 
L 341.831047 282.038511 
L 342.199506 281.986006 
L 342.567966 281.723483 
L 342.936425 282.423545 
L 343.304884 282.537305 
L 343.673344 282.196025 
L 344.041803 282.012258 
L 344.410263 282.467298 
L 344.778722 282.406043 
L 345.147181 281.968505 
L 346.621019 281.635975 
L 348.094856 281.592222 
L 348.463316 281.898498 
L 348.831775 281.434708 
L 349.200234 281.180935 
L 349.568694 281.600972 
L 350.305612 281.705982 
L 351.410991 280.988418 
L 352.516369 281.880997 
L 352.884828 281.609723 
L 353.253287 281.705982 
L 353.621747 281.653477 
L 353.990206 281.977255 
L 354.727125 281.058425 
L 355.095584 281.137182 
L 355.464044 280.708394 
L 355.832503 281.338449 
L 356.200962 280.533378 
L 356.569422 280.559631 
L 356.937881 280.43712 
L 357.30634 279.999582 
L 357.6748 280.410868 
L 358.043259 280.349612 
L 358.411719 279.798314 
L 358.780178 279.500788 
L 359.148637 279.693305 
L 359.517097 279.658302 
L 359.885556 279.500788 
L 360.622475 279.387028 
L 360.990934 279.920825 
L 361.359393 279.955828 
L 361.727853 278.993243 
L 362.096312 279.290769 
L 362.464772 278.940738 
L 363.20169 278.704468 
L 363.57015 279.439532 
L 363.938609 279.387028 
L 364.675528 279.658302 
L 365.043987 279.588295 
L 365.412447 279.999582 
L 366.149365 278.643212 
L 366.517825 278.704468 
L 366.886284 278.529452 
L 367.254743 279.238265 
L 367.623203 279.492037 
L 367.991662 279.194511 
L 369.09704 279.107003 
L 369.4655 279.360775 
L 369.833959 279.465785 
L 370.202418 279.177009 
L 370.939337 279.019495 
L 371.676256 279.395778 
L 372.413175 279.273268 
L 372.781634 279.535791 
L 373.150093 280.428369 
L 373.518553 280.673391 
L 373.887012 281.154683 
L 374.255471 281.250942 
L 374.623931 282.117268 
L 374.99239 282.344788 
L 375.360849 282.756074 
L 375.729309 282.152271 
L 376.097768 282.117268 
L 376.466228 281.224689 
L 376.834687 281.635975 
L 377.571606 281.714732 
L 378.308524 282.038511 
L 378.676984 281.898498 
L 379.045443 282.231028 
L 379.782362 282.406043 
L 380.150821 283.429883 
L 380.519281 283.482388 
L 380.88774 284.366215 
L 381.256199 284.558732 
L 381.993118 284.742498 
L 382.361577 284.882511 
L 382.730037 284.882511 
L 383.098496 283.981182 
L 383.835415 283.797415 
L 384.203874 284.07744 
L 384.572334 284.882511 
L 385.309252 284.156197 
L 386.046171 284.173698 
L 386.414631 284.374966 
L 387.151549 283.604898 
L 387.520009 284.112443 
L 388.625387 284.322462 
L 389.362305 284.261206 
L 390.099224 283.674905 
L 390.467684 283.543643 
L 390.836143 283.534892 
L 391.204602 283.39488 
L 391.573062 283.123606 
L 391.941521 282.677317 
L 392.30998 281.285945 
L 392.67844 280.883409 
L 393.046899 280.857157 
L 393.783818 280.340862 
L 394.152277 281.285945 
L 394.520737 281.268443 
L 394.889196 281.907249 
L 395.626115 282.336037 
L 395.994574 281.845994 
L 396.363033 281.618474 
L 396.731493 281.592222 
L 397.099952 281.408455 
L 397.468412 281.355951 
L 397.836871 280.7784 
L 398.20533 280.830905 
L 398.942249 280.638388 
L 399.679168 279.343274 
L 400.047627 278.914486 
L 400.416087 278.669465 
L 400.784546 277.654375 
L 401.153005 277.426855 
L 401.521465 278.231926 
L 401.889924 278.205674 
L 402.258383 277.47936 
L 402.626843 277.304345 
L 402.995302 276.971815 
L 403.363761 277.015569 
L 403.732221 277.444357 
L 404.46914 276.753046 
L 404.837599 276.709292 
L 405.206058 276.805551 
L 405.574518 277.041822 
L 405.942977 275.20416 
L 406.311436 273.9528 
L 406.679896 273.427754 
L 407.048355 273.506511 
L 407.785274 273.138978 
L 408.153733 273.016468 
L 408.522193 272.666437 
L 409.99603 272.193895 
L 410.364489 272.368911 
L 410.732949 273.462757 
L 411.101408 273.61152 
L 411.469868 273.200234 
L 412.575246 272.570178 
L 414.049083 270.627508 
L 414.786002 271.117551 
L 415.154461 271.073797 
L 415.522921 270.785022 
L 415.89138 269.839938 
L 416.259839 269.761182 
L 417.365217 268.466068 
L 417.733677 268.693588 
L 418.102136 268.754843 
L 418.470596 268.343557 
L 418.839055 268.124788 
L 419.207514 268.71984 
L 419.944433 267.669748 
L 420.681352 267.065945 
L 421.418271 266.943434 
L 421.78673 266.435889 
L 422.155189 266.392135 
L 422.523649 266.470892 
L 423.260567 265.770831 
L 423.997486 265.595815 
L 424.365945 266.803422 
L 424.365945 266.803422 
" clip-path="url(#pc6809cf80b)" style="fill: none; stroke: #000080; stroke-width: 1.5; stroke-linecap: square"/>
   </g>
   <g id="line2d_16">
    <path d="M 55.925 94.430769 
L 460.825 94.430769 
" clip-path="url(#pc6809cf80b)" style="fill: none; stroke-dasharray: 5.55,2.4; stroke-dashoffset: 0; stroke: #008000; stroke-width: 1.5"/>
   </g>
   <g id="patch_3">
    <path d="M 55.925 313.2 
L 55.925 28.8 
" style="fill: none; stroke: #000000; stroke-width: 0.8; stroke-linejoin: miter; stroke-linecap: square"/>
   </g>
   <g id="patch_4">
    <path d="M 460.825 313.2 
L 460.825 28.8 
" style="fill: none; stroke: #000000; stroke-width: 0.8; stroke-linejoin: miter; stroke-linecap: square"/>
   </g>
   <g id="patch_5">
    <path d="M 55.925 313.2 
L 460.825 313.2 
" style="fill: none; stroke: #000000; stroke-width: 0.8; stroke-linejoin: miter; stroke-linecap: square"/>
   </g>
   <g id="patch_6">
    <path d="M 55.925 28.8 
L 460.825 28.8 
" style="fill: none; stroke: #000000; stroke-width: 0.8; stroke-linejoin: miter; stroke-linecap: square"/>
   </g>
   <g id="text_16">
    <!-- gamma = 0.9710526315789474,lr = 0.0027825594022071257 -->
    <g transform="translate(18.829688 22.8)scale(0.15 -0.15)">
     <defs>
      <path id="DejaVuSans-67" d="M 2906 1791 
Q 2906 2416 2648 2759 
Q 2391 3103 1925 3103 
Q 1463 3103 1205 2759 
Q 947 2416 947 1791 
Q 947 1169 1205 825 
Q 1463 481 1925 481 
Q 2391 481 2648 825 
Q 2906 1169 2906 1791 
z
M 3481 434 
Q 3481 -459 3084 -895 
Q 2688 -1331 1869 -1331 
Q 1566 -1331 1297 -1286 
Q 1028 -1241 775 -1147 
L 775 -588 
Q 1028 -725 1275 -790 
Q 1522 -856 1778 -856 
Q 2344 -856 2625 -561 
Q 2906 -266 2906 331 
L 2906 616 
Q 2728 306 2450 153 
Q 2172 0 1784 0 
Q 1141 0 747 490 
Q 353 981 353 1791 
Q 353 2603 747 3093 
Q 1141 3584 1784 3584 
Q 2172 3584 2450 3431 
Q 2728 3278 2906 2969 
L 2906 3500 
L 3481 3500 
L 3481 434 
z
" transform="scale(0.015625)"/>
      <path id="DejaVuSans-61" d="M 2194 1759 
Q 1497 1759 1228 1600 
Q 959 1441 959 1056 
Q 959 750 1161 570 
Q 1363 391 1709 391 
Q 2188 391 2477 730 
Q 2766 1069 2766 1631 
L 2766 1759 
L 2194 1759 
z
M 3341 1997 
L 3341 0 
L 2766 0 
L 2766 531 
Q 2569 213 2275 61 
Q 1981 -91 1556 -91 
Q 1019 -91 701 211 
Q 384 513 384 1019 
Q 384 1609 779 1909 
Q 1175 2209 1959 2209 
L 2766 2209 
L 2766 2266 
Q 2766 2663 2505 2880 
Q 2244 3097 1772 3097 
Q 1472 3097 1187 3025 
Q 903 2953 641 2809 
L 641 3341 
Q 956 3463 1253 3523 
Q 1550 3584 1831 3584 
Q 2591 3584 2966 3190 
Q 3341 2797 3341 1997 
z
" transform="scale(0.015625)"/>
      <path id="DejaVuSans-6d" d="M 3328 2828 
Q 3544 3216 3844 3400 
Q 4144 3584 4550 3584 
Q 5097 3584 5394 3201 
Q 5691 2819 5691 2113 
L 5691 0 
L 5113 0 
L 5113 2094 
Q 5113 2597 4934 2840 
Q 4756 3084 4391 3084 
Q 3944 3084 3684 2787 
Q 3425 2491 3425 1978 
L 3425 0 
L 2847 0 
L 2847 2094 
Q 2847 2600 2669 2842 
Q 2491 3084 2119 3084 
Q 1678 3084 1418 2786 
Q 1159 2488 1159 1978 
L 1159 0 
L 581 0 
L 581 3500 
L 1159 3500 
L 1159 2956 
Q 1356 3278 1631 3431 
Q 1906 3584 2284 3584 
Q 2666 3584 2933 3390 
Q 3200 3197 3328 2828 
z
" transform="scale(0.015625)"/>
      <path id="DejaVuSans-20" transform="scale(0.015625)"/>
      <path id="DejaVuSans-3d" d="M 678 2906 
L 4684 2906 
L 4684 2381 
L 678 2381 
L 678 2906 
z
M 678 1631 
L 4684 1631 
L 4684 1100 
L 678 1100 
L 678 1631 
z
" transform="scale(0.015625)"/>
      <path id="DejaVuSans-2e" d="M 684 794 
L 1344 794 
L 1344 0 
L 684 0 
L 684 794 
z
" transform="scale(0.015625)"/>
      <path id="DejaVuSans-39" d="M 703 97 
L 703 672 
Q 941 559 1184 500 
Q 1428 441 1663 441 
Q 2288 441 2617 861 
Q 2947 1281 2994 2138 
Q 2813 1869 2534 1725 
Q 2256 1581 1919 1581 
Q 1219 1581 811 2004 
Q 403 2428 403 3163 
Q 403 3881 828 4315 
Q 1253 4750 1959 4750 
Q 2769 4750 3195 4129 
Q 3622 3509 3622 2328 
Q 3622 1225 3098 567 
Q 2575 -91 1691 -91 
Q 1453 -91 1209 -44 
Q 966 3 703 97 
z
M 1959 2075 
Q 2384 2075 2632 2365 
Q 2881 2656 2881 3163 
Q 2881 3666 2632 3958 
Q 2384 4250 1959 4250 
Q 1534 4250 1286 3958 
Q 1038 3666 1038 3163 
Q 1038 2656 1286 2365 
Q 1534 2075 1959 2075 
z
" transform="scale(0.015625)"/>
      <path id="DejaVuSans-37" d="M 525 4666 
L 3525 4666 
L 3525 4397 
L 1831 0 
L 1172 0 
L 2766 4134 
L 525 4134 
L 525 4666 
z
" transform="scale(0.015625)"/>
      <path id="DejaVuSans-2c" d="M 750 794 
L 1409 794 
L 1409 256 
L 897 -744 
L 494 -744 
L 750 256 
L 750 794 
z
" transform="scale(0.015625)"/>
      <path id="DejaVuSans-6c" d="M 603 4863 
L 1178 4863 
L 1178 0 
L 603 0 
L 603 4863 
z
" transform="scale(0.015625)"/>
     </defs>
     <use xlink:href="#DejaVuSans-67"/>
     <use xlink:href="#DejaVuSans-61" x="63.476562"/>
     <use xlink:href="#DejaVuSans-6d" x="124.755859"/>
     <use xlink:href="#DejaVuSans-6d" x="222.167969"/>
     <use xlink:href="#DejaVuSans-61" x="319.580078"/>
     <use xlink:href="#DejaVuSans-20" x="380.859375"/>
     <use xlink:href="#DejaVuSans-3d" x="412.646484"/>
     <use xlink:href="#DejaVuSans-20" x="496.435547"/>
     <use xlink:href="#DejaVuSans-30" x="528.222656"/>
     <use xlink:href="#DejaVuSans-2e" x="591.845703"/>
     <use xlink:href="#DejaVuSans-39" x="623.632812"/>
     <use xlink:href="#DejaVuSans-37" x="687.255859"/>
     <use xlink:href="#DejaVuSans-31" x="750.878906"/>
     <use xlink:href="#DejaVuSans-30" x="814.501953"/>
     <use xlink:href="#DejaVuSans-35" x="878.125"/>
     <use xlink:href="#DejaVuSans-32" x="941.748047"/>
     <use xlink:href="#DejaVuSans-36" x="1005.371094"/>
     <use xlink:href="#DejaVuSans-33" x="1068.994141"/>
     <use xlink:href="#DejaVuSans-31" x="1132.617188"/>
     <use xlink:href="#DejaVuSans-35" x="1196.240234"/>
     <use xlink:href="#DejaVuSans-37" x="1259.863281"/>
     <use xlink:href="#DejaVuSans-38" x="1323.486328"/>
     <use xlink:href="#DejaVuSans-39" x="1387.109375"/>
     <use xlink:href="#DejaVuSans-34" x="1450.732422"/>
     <use xlink:href="#DejaVuSans-37" x="1514.355469"/>
     <use xlink:href="#DejaVuSans-34" x="1577.978516"/>
     <use xlink:href="#DejaVuSans-2c" x="1641.601562"/>
     <use xlink:href="#DejaVuSans-6c" x="1673.388672"/>
     <use xlink:href="#DejaVuSans-72" x="1701.171875"/>
     <use xlink:href="#DejaVuSans-20" x="1742.285156"/>
     <use xlink:href="#DejaVuSans-3d" x="1774.072266"/>
     <use xlink:href="#DejaVuSans-20" x="1857.861328"/>
     <use xlink:href="#DejaVuSans-30" x="1889.648438"/>
     <use xlink:href="#DejaVuSans-2e" x="1953.271484"/>
     <use xlink:href="#DejaVuSans-30" x="1985.058594"/>
     <use xlink:href="#DejaVuSans-30" x="2048.681641"/>
     <use xlink:href="#DejaVuSans-32" x="2112.304688"/>
     <use xlink:href="#DejaVuSans-37" x="2175.927734"/>
     <use xlink:href="#DejaVuSans-38" x="2239.550781"/>
     <use xlink:href="#DejaVuSans-32" x="2303.173828"/>
     <use xlink:href="#DejaVuSans-35" x="2366.796875"/>
     <use xlink:href="#DejaVuSans-35" x="2430.419922"/>
     <use xlink:href="#DejaVuSans-39" x="2494.042969"/>
     <use xlink:href="#DejaVuSans-34" x="2557.666016"/>
     <use xlink:href="#DejaVuSans-30" x="2621.289062"/>
     <use xlink:href="#DejaVuSans-32" x="2684.912109"/>
     <use xlink:href="#DejaVuSans-32" x="2748.535156"/>
     <use xlink:href="#DejaVuSans-30" x="2812.158203"/>
     <use xlink:href="#DejaVuSans-37" x="2875.78125"/>
     <use xlink:href="#DejaVuSans-31" x="2939.404297"/>
     <use xlink:href="#DejaVuSans-32" x="3003.027344"/>
     <use xlink:href="#DejaVuSans-35" x="3066.650391"/>
     <use xlink:href="#DejaVuSans-37" x="3130.273438"/>
    </g>
   </g>
   <g id="legend_1">
    <g id="patch_7">
     <path d="M 293.50625 80.834375 
L 453.825 80.834375 
Q 455.825 80.834375 455.825 78.834375 
L 455.825 35.8 
Q 455.825 33.8 453.825 33.8 
L 293.50625 33.8 
Q 291.50625 33.8 291.50625 35.8 
L 291.50625 78.834375 
Q 291.50625 80.834375 293.50625 80.834375 
z
" style="fill: #ffffff; opacity: 0.8; stroke: #cccccc; stroke-linejoin: miter"/>
    </g>
    <g id="line2d_17">
     <path d="M 295.50625 41.898438 
L 305.50625 41.898438 
L 315.50625 41.898438 
" style="fill: none; stroke: #708090; stroke-width: 1.5; stroke-linecap: square"/>
    </g>
    <g id="text_17">
     <!-- Episodes score -->
     <g transform="translate(323.50625 45.398438)scale(0.1 -0.1)">
      <use xlink:href="#DejaVuSans-45"/>
      <use xlink:href="#DejaVuSans-70" x="63.183594"/>
      <use xlink:href="#DejaVuSans-69" x="126.660156"/>
      <use xlink:href="#DejaVuSans-73" x="154.443359"/>
      <use xlink:href="#DejaVuSans-6f" x="206.542969"/>
      <use xlink:href="#DejaVuSans-64" x="267.724609"/>
      <use xlink:href="#DejaVuSans-65" x="331.201172"/>
      <use xlink:href="#DejaVuSans-73" x="392.724609"/>
      <use xlink:href="#DejaVuSans-20" x="444.824219"/>
      <use xlink:href="#DejaVuSans-73" x="476.611328"/>
      <use xlink:href="#DejaVuSans-63" x="528.710938"/>
      <use xlink:href="#DejaVuSans-6f" x="583.691406"/>
      <use xlink:href="#DejaVuSans-72" x="644.873047"/>
      <use xlink:href="#DejaVuSans-65" x="683.736328"/>
     </g>
    </g>
    <g id="line2d_18">
     <path d="M 295.50625 56.576563 
L 305.50625 56.576563 
L 315.50625 56.576563 
" style="fill: none; stroke: #000080; stroke-width: 1.5; stroke-linecap: square"/>
    </g>
    <g id="text_18">
     <!-- Moving average of scores -->
     <g transform="translate(323.50625 60.076563)scale(0.1 -0.1)">
      <defs>
       <path id="DejaVuSans-4d" d="M 628 4666 
L 1569 4666 
L 2759 1491 
L 3956 4666 
L 4897 4666 
L 4897 0 
L 4281 0 
L 4281 4097 
L 3078 897 
L 2444 897 
L 1241 4097 
L 1241 0 
L 628 0 
L 628 4666 
z
" transform="scale(0.015625)"/>
       <path id="DejaVuSans-76" d="M 191 3500 
L 800 3500 
L 1894 563 
L 2988 3500 
L 3597 3500 
L 2284 0 
L 1503 0 
L 191 3500 
z
" transform="scale(0.015625)"/>
       <path id="DejaVuSans-6e" d="M 3513 2113 
L 3513 0 
L 2938 0 
L 2938 2094 
Q 2938 2591 2744 2837 
Q 2550 3084 2163 3084 
Q 1697 3084 1428 2787 
Q 1159 2491 1159 1978 
L 1159 0 
L 581 0 
L 581 3500 
L 1159 3500 
L 1159 2956 
Q 1366 3272 1645 3428 
Q 1925 3584 2291 3584 
Q 2894 3584 3203 3211 
Q 3513 2838 3513 2113 
z
" transform="scale(0.015625)"/>
       <path id="DejaVuSans-66" d="M 2375 4863 
L 2375 4384 
L 1825 4384 
Q 1516 4384 1395 4259 
Q 1275 4134 1275 3809 
L 1275 3500 
L 2222 3500 
L 2222 3053 
L 1275 3053 
L 1275 0 
L 697 0 
L 697 3053 
L 147 3053 
L 147 3500 
L 697 3500 
L 697 3744 
Q 697 4328 969 4595 
Q 1241 4863 1831 4863 
L 2375 4863 
z
" transform="scale(0.015625)"/>
      </defs>
      <use xlink:href="#DejaVuSans-4d"/>
      <use xlink:href="#DejaVuSans-6f" x="86.279297"/>
      <use xlink:href="#DejaVuSans-76" x="147.460938"/>
      <use xlink:href="#DejaVuSans-69" x="206.640625"/>
      <use xlink:href="#DejaVuSans-6e" x="234.423828"/>
      <use xlink:href="#DejaVuSans-67" x="297.802734"/>
      <use xlink:href="#DejaVuSans-20" x="361.279297"/>
      <use xlink:href="#DejaVuSans-61" x="393.066406"/>
      <use xlink:href="#DejaVuSans-76" x="454.345703"/>
      <use xlink:href="#DejaVuSans-65" x="513.525391"/>
      <use xlink:href="#DejaVuSans-72" x="575.048828"/>
      <use xlink:href="#DejaVuSans-61" x="616.162109"/>
      <use xlink:href="#DejaVuSans-67" x="677.441406"/>
      <use xlink:href="#DejaVuSans-65" x="740.917969"/>
      <use xlink:href="#DejaVuSans-20" x="802.441406"/>
      <use xlink:href="#DejaVuSans-6f" x="834.228516"/>
      <use xlink:href="#DejaVuSans-66" x="895.410156"/>
      <use xlink:href="#DejaVuSans-20" x="930.615234"/>
      <use xlink:href="#DejaVuSans-73" x="962.402344"/>
      <use xlink:href="#DejaVuSans-63" x="1014.501953"/>
      <use xlink:href="#DejaVuSans-6f" x="1069.482422"/>
      <use xlink:href="#DejaVuSans-72" x="1130.664062"/>
      <use xlink:href="#DejaVuSans-65" x="1169.527344"/>
      <use xlink:href="#DejaVuSans-73" x="1231.050781"/>
     </g>
    </g>
    <g id="line2d_19">
     <path d="M 295.50625 71.254687 
L 305.50625 71.254687 
L 315.50625 71.254687 
" style="fill: none; stroke-dasharray: 5.55,2.4; stroke-dashoffset: 0; stroke: #008000; stroke-width: 1.5"/>
    </g>
    <g id="text_19">
     <!-- Game Solved -->
     <g transform="translate(323.50625 74.754687)scale(0.1 -0.1)">
      <defs>
       <path id="DejaVuSans-47" d="M 3809 666 
L 3809 1919 
L 2778 1919 
L 2778 2438 
L 4434 2438 
L 4434 434 
Q 4069 175 3628 42 
Q 3188 -91 2688 -91 
Q 1594 -91 976 548 
Q 359 1188 359 2328 
Q 359 3472 976 4111 
Q 1594 4750 2688 4750 
Q 3144 4750 3555 4637 
Q 3966 4525 4313 4306 
L 4313 3634 
Q 3963 3931 3569 4081 
Q 3175 4231 2741 4231 
Q 1884 4231 1454 3753 
Q 1025 3275 1025 2328 
Q 1025 1384 1454 906 
Q 1884 428 2741 428 
Q 3075 428 3337 486 
Q 3600 544 3809 666 
z
" transform="scale(0.015625)"/>
      </defs>
      <use xlink:href="#DejaVuSans-47"/>
      <use xlink:href="#DejaVuSans-61" x="77.490234"/>
      <use xlink:href="#DejaVuSans-6d" x="138.769531"/>
      <use xlink:href="#DejaVuSans-65" x="236.181641"/>
      <use xlink:href="#DejaVuSans-20" x="297.705078"/>
      <use xlink:href="#DejaVuSans-53" x="329.492188"/>
      <use xlink:href="#DejaVuSans-6f" x="392.96875"/>
      <use xlink:href="#DejaVuSans-6c" x="454.150391"/>
      <use xlink:href="#DejaVuSans-76" x="481.933594"/>
      <use xlink:href="#DejaVuSans-65" x="541.113281"/>
      <use xlink:href="#DejaVuSans-64" x="602.636719"/>
     </g>
    </g>
   </g>
  </g>
  <g id="axes_2">
   <g id="matplotlib.axis_3">
    <g id="ytick_8">
     <g id="line2d_20">
      <defs>
       <path id="m958d857124" d="M 0 0 
L 3.5 0 
" style="stroke: #000000; stroke-width: 0.8"/>
      </defs>
      <g>
       <use xlink:href="#m958d857124" x="460.825" y="300.356157" style="stroke: #000000; stroke-width: 0.8"/>
      </g>
     </g>
     <g id="text_20">
      <!-- 0 -->
      <g transform="translate(467.825 304.155376)scale(0.1 -0.1)">
       <use xlink:href="#DejaVuSans-30"/>
      </g>
     </g>
    </g>
    <g id="ytick_9">
     <g id="line2d_21">
      <g>
       <use xlink:href="#m958d857124" x="460.825" y="248.63038" style="stroke: #000000; stroke-width: 0.8"/>
      </g>
     </g>
     <g id="text_21">
      <!-- 1 -->
      <g transform="translate(467.825 252.429599)scale(0.1 -0.1)">
       <use xlink:href="#DejaVuSans-31"/>
      </g>
     </g>
    </g>
    <g id="ytick_10">
     <g id="line2d_22">
      <g>
       <use xlink:href="#m958d857124" x="460.825" y="196.904603" style="stroke: #000000; stroke-width: 0.8"/>
      </g>
     </g>
     <g id="text_22">
      <!-- 2 -->
      <g transform="translate(467.825 200.703822)scale(0.1 -0.1)">
       <use xlink:href="#DejaVuSans-32"/>
      </g>
     </g>
    </g>
    <g id="ytick_11">
     <g id="line2d_23">
      <g>
       <use xlink:href="#m958d857124" x="460.825" y="145.178827" style="stroke: #000000; stroke-width: 0.8"/>
      </g>
     </g>
     <g id="text_23">
      <!-- 3 -->
      <g transform="translate(467.825 148.978045)scale(0.1 -0.1)">
       <use xlink:href="#DejaVuSans-33"/>
      </g>
     </g>
    </g>
    <g id="ytick_12">
     <g id="line2d_24">
      <g>
       <use xlink:href="#m958d857124" x="460.825" y="93.45305" style="stroke: #000000; stroke-width: 0.8"/>
      </g>
     </g>
     <g id="text_24">
      <!-- 4 -->
      <g transform="translate(467.825 97.252268)scale(0.1 -0.1)">
       <use xlink:href="#DejaVuSans-34"/>
      </g>
     </g>
    </g>
    <g id="ytick_13">
     <g id="line2d_25">
      <g>
       <use xlink:href="#m958d857124" x="460.825" y="41.727273" style="stroke: #000000; stroke-width: 0.8"/>
      </g>
     </g>
     <g id="text_25">
      <!-- 5 -->
      <g transform="translate(467.825 45.526491)scale(0.1 -0.1)">
       <use xlink:href="#DejaVuSans-35"/>
      </g>
     </g>
    </g>
    <g id="text_26">
     <!-- Temperature -->
     <g transform="translate(489.585156 218.504297)rotate(-90)scale(0.15 -0.15)">
      <defs>
       <path id="DejaVuSans-54" d="M -19 4666 
L 3928 4666 
L 3928 4134 
L 2272 4134 
L 2272 0 
L 1638 0 
L 1638 4134 
L -19 4134 
L -19 4666 
z
" transform="scale(0.015625)"/>
       <path id="DejaVuSans-74" d="M 1172 4494 
L 1172 3500 
L 2356 3500 
L 2356 3053 
L 1172 3053 
L 1172 1153 
Q 1172 725 1289 603 
Q 1406 481 1766 481 
L 2356 481 
L 2356 0 
L 1766 0 
Q 1100 0 847 248 
Q 594 497 594 1153 
L 594 3053 
L 172 3053 
L 172 3500 
L 594 3500 
L 594 4494 
L 1172 4494 
z
" transform="scale(0.015625)"/>
       <path id="DejaVuSans-75" d="M 544 1381 
L 544 3500 
L 1119 3500 
L 1119 1403 
Q 1119 906 1312 657 
Q 1506 409 1894 409 
Q 2359 409 2629 706 
Q 2900 1003 2900 1516 
L 2900 3500 
L 3475 3500 
L 3475 0 
L 2900 0 
L 2900 538 
Q 2691 219 2414 64 
Q 2138 -91 1772 -91 
Q 1169 -91 856 284 
Q 544 659 544 1381 
z
M 1991 3584 
L 1991 3584 
z
" transform="scale(0.015625)"/>
      </defs>
      <use xlink:href="#DejaVuSans-54"/>
      <use xlink:href="#DejaVuSans-65" x="44.083984"/>
      <use xlink:href="#DejaVuSans-6d" x="105.607422"/>
      <use xlink:href="#DejaVuSans-70" x="203.019531"/>
      <use xlink:href="#DejaVuSans-65" x="266.496094"/>
      <use xlink:href="#DejaVuSans-72" x="328.019531"/>
      <use xlink:href="#DejaVuSans-61" x="369.132812"/>
      <use xlink:href="#DejaVuSans-74" x="430.412109"/>
      <use xlink:href="#DejaVuSans-75" x="469.621094"/>
      <use xlink:href="#DejaVuSans-72" x="533"/>
      <use xlink:href="#DejaVuSans-65" x="571.863281"/>
     </g>
    </g>
   </g>
   <g id="line2d_26">
    <path d="M 74.329545 41.727273 
L 77.64568 59.796179 
L 80.961814 76.602714 
L 84.277948 92.235075 
L 87.594083 106.775292 
L 90.910217 120.299669 
L 94.226351 132.879175 
L 97.542486 144.579825 
L 100.85862 155.463017 
L 104.174754 165.585863 
L 107.490889 175.001485 
L 110.807023 183.759292 
L 114.123157 191.905241 
L 117.439292 199.48208 
L 120.755426 206.529569 
L 124.07156 213.084691 
L 127.387695 219.181844 
L 130.703829 224.853024 
L 134.019963 230.127992 
L 137.704557 235.557975 
L 141.389151 240.568116 
L 145.073744 245.190878 
L 148.758338 249.456211 
L 152.442932 253.391752 
L 156.127525 257.023001 
L 160.180578 260.693942 
L 164.233631 264.053901 
L 168.286684 267.129223 
L 172.339737 269.944021 
L 176.76125 272.743467 
L 181.182762 275.285223 
L 185.972734 277.775454 
L 190.762706 280.018336 
L 195.921137 282.185254 
L 201.448028 284.251415 
L 206.974918 286.082639 
L 212.870268 287.807033 
L 219.134077 289.41153 
L 225.766346 290.887385 
L 233.135533 292.295013 
L 240.87318 293.548388 
L 249.347745 294.698674 
L 258.927689 295.766744 
L 269.613011 296.721977 
L 281.403711 297.547031 
L 295.036707 298.270409 
L 310.88046 298.880507 
L 330.040347 299.385086 
L 353.990206 299.780603 
L 385.677712 300.068067 
L 432.840511 300.253311 
L 442.420455 300.272727 
L 442.420455 300.272727 
" clip-path="url(#pc6809cf80b)" style="fill: none; stroke: #ff0000; stroke-width: 1.5; stroke-linecap: square"/>
   </g>
   <g id="patch_8">
    <path d="M 55.925 313.2 
L 55.925 28.8 
" style="fill: none; stroke: #000000; stroke-width: 0.8; stroke-linejoin: miter; stroke-linecap: square"/>
   </g>
   <g id="patch_9">
    <path d="M 460.825 313.2 
L 460.825 28.8 
" style="fill: none; stroke: #000000; stroke-width: 0.8; stroke-linejoin: miter; stroke-linecap: square"/>
   </g>
   <g id="patch_10">
    <path d="M 55.925 313.2 
L 460.825 313.2 
" style="fill: none; stroke: #000000; stroke-width: 0.8; stroke-linejoin: miter; stroke-linecap: square"/>
   </g>
   <g id="patch_11">
    <path d="M 55.925 28.8 
L 460.825 28.8 
" style="fill: none; stroke: #000000; stroke-width: 0.8; stroke-linejoin: miter; stroke-linecap: square"/>
   </g>
   <g id="legend_2">
    <g id="patch_12">
     <path d="M 62.925 51.478125 
L 158.264063 51.478125 
Q 160.264063 51.478125 160.264063 49.478125 
L 160.264063 35.8 
Q 160.264063 33.8 158.264063 33.8 
L 62.925 33.8 
Q 60.925 33.8 60.925 35.8 
L 60.925 49.478125 
Q 60.925 51.478125 62.925 51.478125 
z
" style="fill: #ffffff; opacity: 0.8; stroke: #cccccc; stroke-linejoin: miter"/>
    </g>
    <g id="line2d_27">
     <path d="M 64.925 41.898438 
L 74.925 41.898438 
L 84.925 41.898438 
" style="fill: none; stroke: #ff0000; stroke-width: 1.5; stroke-linecap: square"/>
    </g>
    <g id="text_27">
     <!-- Temperature -->
     <g transform="translate(92.925 45.398438)scale(0.1 -0.1)">
      <use xlink:href="#DejaVuSans-54"/>
      <use xlink:href="#DejaVuSans-65" x="44.083984"/>
      <use xlink:href="#DejaVuSans-6d" x="105.607422"/>
      <use xlink:href="#DejaVuSans-70" x="203.019531"/>
      <use xlink:href="#DejaVuSans-65" x="266.496094"/>
      <use xlink:href="#DejaVuSans-72" x="328.019531"/>
      <use xlink:href="#DejaVuSans-61" x="369.132812"/>
      <use xlink:href="#DejaVuSans-74" x="430.412109"/>
      <use xlink:href="#DejaVuSans-75" x="469.621094"/>
      <use xlink:href="#DejaVuSans-72" x="533"/>
      <use xlink:href="#DejaVuSans-65" x="571.863281"/>
     </g>
    </g>
   </g>
  </g>
 </g>
 <defs>
  <clipPath id="pc6809cf80b">
   <rect x="55.925" y="28.8" width="404.9" height="284.4"/>
  </clipPath>
 </defs>
</svg>
