<?xml version="1.0" encoding="utf-8" standalone="no"?>
<!DOCTYPE svg PUBLIC "-//W3C//DTD SVG 1.1//EN"
  "http://www.w3.org/Graphics/SVG/1.1/DTD/svg11.dtd">
<svg xmlns:xlink="http://www.w3.org/1999/xlink" width="504pt" height="360pt" viewBox="0 0 504 360" xmlns="http://www.w3.org/2000/svg" version="1.1">
 <metadata>
  <rdf:RDF xmlns:dc="http://purl.org/dc/elements/1.1/" xmlns:cc="http://creativecommons.org/ns#" xmlns:rdf="http://www.w3.org/1999/02/22-rdf-syntax-ns#">
   <cc:Work>
    <dc:type rdf:resource="http://purl.org/dc/dcmitype/StillImage"/>
    <dc:date>2022-07-28T20:50:45.588657</dc:date>
    <dc:format>image/svg+xml</dc:format>
    <dc:creator>
     <cc:Agent>
      <dc:title>Matplotlib v3.5.1, https://matplotlib.org/</dc:title>
     </cc:Agent>
    </dc:creator>
   </cc:Work>
  </rdf:RDF>
 </metadata>
 <defs>
  <style type="text/css">*{stroke-linejoin: round; stroke-linecap: butt}</style>
 </defs>
 <g id="figure_1">
  <g id="patch_1">
   <path d="M 0 360 
L 504 360 
L 504 0 
L 0 0 
L 0 360 
z
" style="fill: none"/>
  </g>
  <g id="axes_1">
   <g id="patch_2">
    <path d="M 55.925 313.2 
L 460.825 313.2 
L 460.825 28.8 
L 55.925 28.8 
z
" style="fill: #ffffff"/>
   </g>
   <g id="matplotlib.axis_1">
    <g id="xtick_1">
     <g id="line2d_1">
      <defs>
       <path id="m2a323a4027" d="M 0 0 
L 0 3.5 
" style="stroke: #000000; stroke-width: 0.8"/>
      </defs>
      <g>
       <use xlink:href="#m2a323a4027" x="74.329545" y="313.2" style="stroke: #000000; stroke-width: 0.8"/>
      </g>
     </g>
     <g id="text_1">
      <!-- 0 -->
      <g transform="translate(71.148295 327.798437)scale(0.1 -0.1)">
       <defs>
        <path id="DejaVuSans-30" d="M 2034 4250 
Q 1547 4250 1301 3770 
Q 1056 3291 1056 2328 
Q 1056 1369 1301 889 
Q 1547 409 2034 409 
Q 2525 409 2770 889 
Q 3016 1369 3016 2328 
Q 3016 3291 2770 3770 
Q 2525 4250 2034 4250 
z
M 2034 4750 
Q 2819 4750 3233 4129 
Q 3647 3509 3647 2328 
Q 3647 1150 3233 529 
Q 2819 -91 2034 -91 
Q 1250 -91 836 529 
Q 422 1150 422 2328 
Q 422 3509 836 4129 
Q 1250 4750 2034 4750 
z
" transform="scale(0.015625)"/>
       </defs>
       <use xlink:href="#DejaVuSans-30"/>
      </g>
     </g>
    </g>
    <g id="xtick_2">
     <g id="line2d_2">
      <g>
       <use xlink:href="#m2a323a4027" x="148.021419" y="313.2" style="stroke: #000000; stroke-width: 0.8"/>
      </g>
     </g>
     <g id="text_2">
      <!-- 200 -->
      <g transform="translate(138.477669 327.798437)scale(0.1 -0.1)">
       <defs>
        <path id="DejaVuSans-32" d="M 1228 531 
L 3431 531 
L 3431 0 
L 469 0 
L 469 531 
Q 828 903 1448 1529 
Q 2069 2156 2228 2338 
Q 2531 2678 2651 2914 
Q 2772 3150 2772 3378 
Q 2772 3750 2511 3984 
Q 2250 4219 1831 4219 
Q 1534 4219 1204 4116 
Q 875 4013 500 3803 
L 500 4441 
Q 881 4594 1212 4672 
Q 1544 4750 1819 4750 
Q 2544 4750 2975 4387 
Q 3406 4025 3406 3419 
Q 3406 3131 3298 2873 
Q 3191 2616 2906 2266 
Q 2828 2175 2409 1742 
Q 1991 1309 1228 531 
z
" transform="scale(0.015625)"/>
       </defs>
       <use xlink:href="#DejaVuSans-32"/>
       <use xlink:href="#DejaVuSans-30" x="63.623047"/>
       <use xlink:href="#DejaVuSans-30" x="127.246094"/>
      </g>
     </g>
    </g>
    <g id="xtick_3">
     <g id="line2d_3">
      <g>
       <use xlink:href="#m2a323a4027" x="221.713293" y="313.2" style="stroke: #000000; stroke-width: 0.8"/>
      </g>
     </g>
     <g id="text_3">
      <!-- 400 -->
      <g transform="translate(212.169543 327.798437)scale(0.1 -0.1)">
       <defs>
        <path id="DejaVuSans-34" d="M 2419 4116 
L 825 1625 
L 2419 1625 
L 2419 4116 
z
M 2253 4666 
L 3047 4666 
L 3047 1625 
L 3713 1625 
L 3713 1100 
L 3047 1100 
L 3047 0 
L 2419 0 
L 2419 1100 
L 313 1100 
L 313 1709 
L 2253 4666 
z
" transform="scale(0.015625)"/>
       </defs>
       <use xlink:href="#DejaVuSans-34"/>
       <use xlink:href="#DejaVuSans-30" x="63.623047"/>
       <use xlink:href="#DejaVuSans-30" x="127.246094"/>
      </g>
     </g>
    </g>
    <g id="xtick_4">
     <g id="line2d_4">
      <g>
       <use xlink:href="#m2a323a4027" x="295.405167" y="313.2" style="stroke: #000000; stroke-width: 0.8"/>
      </g>
     </g>
     <g id="text_4">
      <!-- 600 -->
      <g transform="translate(285.861417 327.798437)scale(0.1 -0.1)">
       <defs>
        <path id="DejaVuSans-36" d="M 2113 2584 
Q 1688 2584 1439 2293 
Q 1191 2003 1191 1497 
Q 1191 994 1439 701 
Q 1688 409 2113 409 
Q 2538 409 2786 701 
Q 3034 994 3034 1497 
Q 3034 2003 2786 2293 
Q 2538 2584 2113 2584 
z
M 3366 4563 
L 3366 3988 
Q 3128 4100 2886 4159 
Q 2644 4219 2406 4219 
Q 1781 4219 1451 3797 
Q 1122 3375 1075 2522 
Q 1259 2794 1537 2939 
Q 1816 3084 2150 3084 
Q 2853 3084 3261 2657 
Q 3669 2231 3669 1497 
Q 3669 778 3244 343 
Q 2819 -91 2113 -91 
Q 1303 -91 875 529 
Q 447 1150 447 2328 
Q 447 3434 972 4092 
Q 1497 4750 2381 4750 
Q 2619 4750 2861 4703 
Q 3103 4656 3366 4563 
z
" transform="scale(0.015625)"/>
       </defs>
       <use xlink:href="#DejaVuSans-36"/>
       <use xlink:href="#DejaVuSans-30" x="63.623047"/>
       <use xlink:href="#DejaVuSans-30" x="127.246094"/>
      </g>
     </g>
    </g>
    <g id="xtick_5">
     <g id="line2d_5">
      <g>
       <use xlink:href="#m2a323a4027" x="369.09704" y="313.2" style="stroke: #000000; stroke-width: 0.8"/>
      </g>
     </g>
     <g id="text_5">
      <!-- 800 -->
      <g transform="translate(359.55329 327.798437)scale(0.1 -0.1)">
       <defs>
        <path id="DejaVuSans-38" d="M 2034 2216 
Q 1584 2216 1326 1975 
Q 1069 1734 1069 1313 
Q 1069 891 1326 650 
Q 1584 409 2034 409 
Q 2484 409 2743 651 
Q 3003 894 3003 1313 
Q 3003 1734 2745 1975 
Q 2488 2216 2034 2216 
z
M 1403 2484 
Q 997 2584 770 2862 
Q 544 3141 544 3541 
Q 544 4100 942 4425 
Q 1341 4750 2034 4750 
Q 2731 4750 3128 4425 
Q 3525 4100 3525 3541 
Q 3525 3141 3298 2862 
Q 3072 2584 2669 2484 
Q 3125 2378 3379 2068 
Q 3634 1759 3634 1313 
Q 3634 634 3220 271 
Q 2806 -91 2034 -91 
Q 1263 -91 848 271 
Q 434 634 434 1313 
Q 434 1759 690 2068 
Q 947 2378 1403 2484 
z
M 1172 3481 
Q 1172 3119 1398 2916 
Q 1625 2713 2034 2713 
Q 2441 2713 2670 2916 
Q 2900 3119 2900 3481 
Q 2900 3844 2670 4047 
Q 2441 4250 2034 4250 
Q 1625 4250 1398 4047 
Q 1172 3844 1172 3481 
z
" transform="scale(0.015625)"/>
       </defs>
       <use xlink:href="#DejaVuSans-38"/>
       <use xlink:href="#DejaVuSans-30" x="63.623047"/>
       <use xlink:href="#DejaVuSans-30" x="127.246094"/>
      </g>
     </g>
    </g>
    <g id="xtick_6">
     <g id="line2d_6">
      <g>
       <use xlink:href="#m2a323a4027" x="442.788914" y="313.2" style="stroke: #000000; stroke-width: 0.8"/>
      </g>
     </g>
     <g id="text_6">
      <!-- 1000 -->
      <g transform="translate(430.063914 327.798437)scale(0.1 -0.1)">
       <defs>
        <path id="DejaVuSans-31" d="M 794 531 
L 1825 531 
L 1825 4091 
L 703 3866 
L 703 4441 
L 1819 4666 
L 2450 4666 
L 2450 531 
L 3481 531 
L 3481 0 
L 794 0 
L 794 531 
z
" transform="scale(0.015625)"/>
       </defs>
       <use xlink:href="#DejaVuSans-31"/>
       <use xlink:href="#DejaVuSans-30" x="63.623047"/>
       <use xlink:href="#DejaVuSans-30" x="127.246094"/>
       <use xlink:href="#DejaVuSans-30" x="190.869141"/>
      </g>
     </g>
    </g>
    <g id="text_7">
     <!-- Episode -->
     <g transform="translate(228.91875 345.275781)scale(0.15 -0.15)">
      <defs>
       <path id="DejaVuSans-45" d="M 628 4666 
L 3578 4666 
L 3578 4134 
L 1259 4134 
L 1259 2753 
L 3481 2753 
L 3481 2222 
L 1259 2222 
L 1259 531 
L 3634 531 
L 3634 0 
L 628 0 
L 628 4666 
z
" transform="scale(0.015625)"/>
       <path id="DejaVuSans-70" d="M 1159 525 
L 1159 -1331 
L 581 -1331 
L 581 3500 
L 1159 3500 
L 1159 2969 
Q 1341 3281 1617 3432 
Q 1894 3584 2278 3584 
Q 2916 3584 3314 3078 
Q 3713 2572 3713 1747 
Q 3713 922 3314 415 
Q 2916 -91 2278 -91 
Q 1894 -91 1617 61 
Q 1341 213 1159 525 
z
M 3116 1747 
Q 3116 2381 2855 2742 
Q 2594 3103 2138 3103 
Q 1681 3103 1420 2742 
Q 1159 2381 1159 1747 
Q 1159 1113 1420 752 
Q 1681 391 2138 391 
Q 2594 391 2855 752 
Q 3116 1113 3116 1747 
z
" transform="scale(0.015625)"/>
       <path id="DejaVuSans-69" d="M 603 3500 
L 1178 3500 
L 1178 0 
L 603 0 
L 603 3500 
z
M 603 4863 
L 1178 4863 
L 1178 4134 
L 603 4134 
L 603 4863 
z
" transform="scale(0.015625)"/>
       <path id="DejaVuSans-73" d="M 2834 3397 
L 2834 2853 
Q 2591 2978 2328 3040 
Q 2066 3103 1784 3103 
Q 1356 3103 1142 2972 
Q 928 2841 928 2578 
Q 928 2378 1081 2264 
Q 1234 2150 1697 2047 
L 1894 2003 
Q 2506 1872 2764 1633 
Q 3022 1394 3022 966 
Q 3022 478 2636 193 
Q 2250 -91 1575 -91 
Q 1294 -91 989 -36 
Q 684 19 347 128 
L 347 722 
Q 666 556 975 473 
Q 1284 391 1588 391 
Q 1994 391 2212 530 
Q 2431 669 2431 922 
Q 2431 1156 2273 1281 
Q 2116 1406 1581 1522 
L 1381 1569 
Q 847 1681 609 1914 
Q 372 2147 372 2553 
Q 372 3047 722 3315 
Q 1072 3584 1716 3584 
Q 2034 3584 2315 3537 
Q 2597 3491 2834 3397 
z
" transform="scale(0.015625)"/>
       <path id="DejaVuSans-6f" d="M 1959 3097 
Q 1497 3097 1228 2736 
Q 959 2375 959 1747 
Q 959 1119 1226 758 
Q 1494 397 1959 397 
Q 2419 397 2687 759 
Q 2956 1122 2956 1747 
Q 2956 2369 2687 2733 
Q 2419 3097 1959 3097 
z
M 1959 3584 
Q 2709 3584 3137 3096 
Q 3566 2609 3566 1747 
Q 3566 888 3137 398 
Q 2709 -91 1959 -91 
Q 1206 -91 779 398 
Q 353 888 353 1747 
Q 353 2609 779 3096 
Q 1206 3584 1959 3584 
z
" transform="scale(0.015625)"/>
       <path id="DejaVuSans-64" d="M 2906 2969 
L 2906 4863 
L 3481 4863 
L 3481 0 
L 2906 0 
L 2906 525 
Q 2725 213 2448 61 
Q 2172 -91 1784 -91 
Q 1150 -91 751 415 
Q 353 922 353 1747 
Q 353 2572 751 3078 
Q 1150 3584 1784 3584 
Q 2172 3584 2448 3432 
Q 2725 3281 2906 2969 
z
M 947 1747 
Q 947 1113 1208 752 
Q 1469 391 1925 391 
Q 2381 391 2643 752 
Q 2906 1113 2906 1747 
Q 2906 2381 2643 2742 
Q 2381 3103 1925 3103 
Q 1469 3103 1208 2742 
Q 947 2381 947 1747 
z
" transform="scale(0.015625)"/>
       <path id="DejaVuSans-65" d="M 3597 1894 
L 3597 1613 
L 953 1613 
Q 991 1019 1311 708 
Q 1631 397 2203 397 
Q 2534 397 2845 478 
Q 3156 559 3463 722 
L 3463 178 
Q 3153 47 2828 -22 
Q 2503 -91 2169 -91 
Q 1331 -91 842 396 
Q 353 884 353 1716 
Q 353 2575 817 3079 
Q 1281 3584 2069 3584 
Q 2775 3584 3186 3129 
Q 3597 2675 3597 1894 
z
M 3022 2063 
Q 3016 2534 2758 2815 
Q 2500 3097 2075 3097 
Q 1594 3097 1305 2825 
Q 1016 2553 972 2059 
L 3022 2063 
z
" transform="scale(0.015625)"/>
      </defs>
      <use xlink:href="#DejaVuSans-45"/>
      <use xlink:href="#DejaVuSans-70" x="63.183594"/>
      <use xlink:href="#DejaVuSans-69" x="126.660156"/>
      <use xlink:href="#DejaVuSans-73" x="154.443359"/>
      <use xlink:href="#DejaVuSans-6f" x="206.542969"/>
      <use xlink:href="#DejaVuSans-64" x="267.724609"/>
      <use xlink:href="#DejaVuSans-65" x="331.201172"/>
     </g>
    </g>
   </g>
   <g id="matplotlib.axis_2">
    <g id="ytick_1">
     <g id="line2d_7">
      <defs>
       <path id="m711f8433fe" d="M 0 0 
L -3.5 0 
" style="stroke: #000000; stroke-width: 0.8"/>
      </defs>
      <g>
       <use xlink:href="#m711f8433fe" x="55.925" y="313.2" style="stroke: #000000; stroke-width: 0.8"/>
      </g>
     </g>
     <g id="text_8">
      <!-- 0 -->
      <g transform="translate(42.5625 316.999219)scale(0.1 -0.1)">
       <use xlink:href="#DejaVuSans-30"/>
      </g>
     </g>
    </g>
    <g id="ytick_2">
     <g id="line2d_8">
      <g>
       <use xlink:href="#m711f8433fe" x="55.925" y="269.446154" style="stroke: #000000; stroke-width: 0.8"/>
      </g>
     </g>
     <g id="text_9">
      <!-- 100 -->
      <g transform="translate(29.8375 273.245373)scale(0.1 -0.1)">
       <use xlink:href="#DejaVuSans-31"/>
       <use xlink:href="#DejaVuSans-30" x="63.623047"/>
       <use xlink:href="#DejaVuSans-30" x="127.246094"/>
      </g>
     </g>
    </g>
    <g id="ytick_3">
     <g id="line2d_9">
      <g>
       <use xlink:href="#m711f8433fe" x="55.925" y="225.692308" style="stroke: #000000; stroke-width: 0.8"/>
      </g>
     </g>
     <g id="text_10">
      <!-- 200 -->
      <g transform="translate(29.8375 229.491526)scale(0.1 -0.1)">
       <use xlink:href="#DejaVuSans-32"/>
       <use xlink:href="#DejaVuSans-30" x="63.623047"/>
       <use xlink:href="#DejaVuSans-30" x="127.246094"/>
      </g>
     </g>
    </g>
    <g id="ytick_4">
     <g id="line2d_10">
      <g>
       <use xlink:href="#m711f8433fe" x="55.925" y="181.938462" style="stroke: #000000; stroke-width: 0.8"/>
      </g>
     </g>
     <g id="text_11">
      <!-- 300 -->
      <g transform="translate(29.8375 185.73768)scale(0.1 -0.1)">
       <defs>
        <path id="DejaVuSans-33" d="M 2597 2516 
Q 3050 2419 3304 2112 
Q 3559 1806 3559 1356 
Q 3559 666 3084 287 
Q 2609 -91 1734 -91 
Q 1441 -91 1130 -33 
Q 819 25 488 141 
L 488 750 
Q 750 597 1062 519 
Q 1375 441 1716 441 
Q 2309 441 2620 675 
Q 2931 909 2931 1356 
Q 2931 1769 2642 2001 
Q 2353 2234 1838 2234 
L 1294 2234 
L 1294 2753 
L 1863 2753 
Q 2328 2753 2575 2939 
Q 2822 3125 2822 3475 
Q 2822 3834 2567 4026 
Q 2313 4219 1838 4219 
Q 1578 4219 1281 4162 
Q 984 4106 628 3988 
L 628 4550 
Q 988 4650 1302 4700 
Q 1616 4750 1894 4750 
Q 2613 4750 3031 4423 
Q 3450 4097 3450 3541 
Q 3450 3153 3228 2886 
Q 3006 2619 2597 2516 
z
" transform="scale(0.015625)"/>
       </defs>
       <use xlink:href="#DejaVuSans-33"/>
       <use xlink:href="#DejaVuSans-30" x="63.623047"/>
       <use xlink:href="#DejaVuSans-30" x="127.246094"/>
      </g>
     </g>
    </g>
    <g id="ytick_5">
     <g id="line2d_11">
      <g>
       <use xlink:href="#m711f8433fe" x="55.925" y="138.184615" style="stroke: #000000; stroke-width: 0.8"/>
      </g>
     </g>
     <g id="text_12">
      <!-- 400 -->
      <g transform="translate(29.8375 141.983834)scale(0.1 -0.1)">
       <use xlink:href="#DejaVuSans-34"/>
       <use xlink:href="#DejaVuSans-30" x="63.623047"/>
       <use xlink:href="#DejaVuSans-30" x="127.246094"/>
      </g>
     </g>
    </g>
    <g id="ytick_6">
     <g id="line2d_12">
      <g>
       <use xlink:href="#m711f8433fe" x="55.925" y="94.430769" style="stroke: #000000; stroke-width: 0.8"/>
      </g>
     </g>
     <g id="text_13">
      <!-- 500 -->
      <g transform="translate(29.8375 98.229988)scale(0.1 -0.1)">
       <defs>
        <path id="DejaVuSans-35" d="M 691 4666 
L 3169 4666 
L 3169 4134 
L 1269 4134 
L 1269 2991 
Q 1406 3038 1543 3061 
Q 1681 3084 1819 3084 
Q 2600 3084 3056 2656 
Q 3513 2228 3513 1497 
Q 3513 744 3044 326 
Q 2575 -91 1722 -91 
Q 1428 -91 1123 -41 
Q 819 9 494 109 
L 494 744 
Q 775 591 1075 516 
Q 1375 441 1709 441 
Q 2250 441 2565 725 
Q 2881 1009 2881 1497 
Q 2881 1984 2565 2268 
Q 2250 2553 1709 2553 
Q 1456 2553 1204 2497 
Q 953 2441 691 2322 
L 691 4666 
z
" transform="scale(0.015625)"/>
       </defs>
       <use xlink:href="#DejaVuSans-35"/>
       <use xlink:href="#DejaVuSans-30" x="63.623047"/>
       <use xlink:href="#DejaVuSans-30" x="127.246094"/>
      </g>
     </g>
    </g>
    <g id="ytick_7">
     <g id="line2d_13">
      <g>
       <use xlink:href="#m711f8433fe" x="55.925" y="50.676923" style="stroke: #000000; stroke-width: 0.8"/>
      </g>
     </g>
     <g id="text_14">
      <!-- 600 -->
      <g transform="translate(29.8375 54.476142)scale(0.1 -0.1)">
       <use xlink:href="#DejaVuSans-36"/>
       <use xlink:href="#DejaVuSans-30" x="63.623047"/>
       <use xlink:href="#DejaVuSans-30" x="127.246094"/>
      </g>
     </g>
    </g>
    <g id="text_15">
     <!-- Score -->
     <g transform="translate(22.717969 192.003516)rotate(-90)scale(0.15 -0.15)">
      <defs>
       <path id="DejaVuSans-53" d="M 3425 4513 
L 3425 3897 
Q 3066 4069 2747 4153 
Q 2428 4238 2131 4238 
Q 1616 4238 1336 4038 
Q 1056 3838 1056 3469 
Q 1056 3159 1242 3001 
Q 1428 2844 1947 2747 
L 2328 2669 
Q 3034 2534 3370 2195 
Q 3706 1856 3706 1288 
Q 3706 609 3251 259 
Q 2797 -91 1919 -91 
Q 1588 -91 1214 -16 
Q 841 59 441 206 
L 441 856 
Q 825 641 1194 531 
Q 1563 422 1919 422 
Q 2459 422 2753 634 
Q 3047 847 3047 1241 
Q 3047 1584 2836 1778 
Q 2625 1972 2144 2069 
L 1759 2144 
Q 1053 2284 737 2584 
Q 422 2884 422 3419 
Q 422 4038 858 4394 
Q 1294 4750 2059 4750 
Q 2388 4750 2728 4690 
Q 3069 4631 3425 4513 
z
" transform="scale(0.015625)"/>
       <path id="DejaVuSans-63" d="M 3122 3366 
L 3122 2828 
Q 2878 2963 2633 3030 
Q 2388 3097 2138 3097 
Q 1578 3097 1268 2742 
Q 959 2388 959 1747 
Q 959 1106 1268 751 
Q 1578 397 2138 397 
Q 2388 397 2633 464 
Q 2878 531 3122 666 
L 3122 134 
Q 2881 22 2623 -34 
Q 2366 -91 2075 -91 
Q 1284 -91 818 406 
Q 353 903 353 1747 
Q 353 2603 823 3093 
Q 1294 3584 2113 3584 
Q 2378 3584 2631 3529 
Q 2884 3475 3122 3366 
z
" transform="scale(0.015625)"/>
       <path id="DejaVuSans-72" d="M 2631 2963 
Q 2534 3019 2420 3045 
Q 2306 3072 2169 3072 
Q 1681 3072 1420 2755 
Q 1159 2438 1159 1844 
L 1159 0 
L 581 0 
L 581 3500 
L 1159 3500 
L 1159 2956 
Q 1341 3275 1631 3429 
Q 1922 3584 2338 3584 
Q 2397 3584 2469 3576 
Q 2541 3569 2628 3553 
L 2631 2963 
z
" transform="scale(0.015625)"/>
      </defs>
      <use xlink:href="#DejaVuSans-53"/>
      <use xlink:href="#DejaVuSans-63" x="63.476562"/>
      <use xlink:href="#DejaVuSans-6f" x="118.457031"/>
      <use xlink:href="#DejaVuSans-72" x="179.638672"/>
      <use xlink:href="#DejaVuSans-65" x="218.501953"/>
     </g>
    </g>
   </g>
   <g id="line2d_14">
    <path d="M 74.329545 304.449231 
L 74.698005 307.512 
L 75.066464 306.199385 
L 75.434924 302.261538 
L 75.803383 308.824615 
L 76.540302 300.511385 
L 76.908761 308.387077 
L 77.27722 306.199385 
L 77.64568 305.761846 
L 78.014139 293.510769 
L 78.382599 307.512 
L 78.751058 307.074462 
L 79.119517 307.949538 
L 79.487977 305.324308 
L 79.856436 305.761846 
L 80.224895 302.261538 
L 80.593355 303.574154 
L 80.961814 305.761846 
L 81.330273 301.386462 
L 81.698733 306.636923 
L 82.067192 307.949538 
L 82.435652 308.824615 
L 83.54103 303.136615 
L 83.909489 307.949538 
L 84.277948 308.824615 
L 84.646408 298.761231 
L 85.014867 299.636308 
L 85.383327 306.199385 
L 85.751786 309.262154 
L 86.120245 304.886769 
L 86.488705 307.512 
L 86.857164 301.824 
L 87.225623 308.387077 
L 87.594083 302.699077 
L 87.962542 307.074462 
L 88.331001 290.448 
L 89.06792 306.199385 
L 89.43638 303.136615 
L 89.804839 294.385846 
L 90.173298 297.886154 
L 90.541758 307.512 
L 90.910217 307.512 
L 91.278676 304.011692 
L 91.647136 297.886154 
L 92.015595 303.136615 
L 92.384055 302.699077 
L 92.752514 304.449231 
L 93.120973 302.261538 
L 93.489433 298.323692 
L 93.857892 307.074462 
L 94.226351 307.949538 
L 94.594811 305.324308 
L 94.96327 303.574154 
L 95.331729 295.260923 
L 95.700189 303.136615 
L 96.068648 308.387077 
L 96.437108 305.761846 
L 96.805567 296.573538 
L 97.174026 307.512 
L 97.542486 307.074462 
L 97.910945 304.886769 
L 98.279404 301.824 
L 98.647864 303.136615 
L 99.016323 303.136615 
L 99.384783 304.449231 
L 99.753242 308.824615 
L 100.121701 294.385846 
L 100.490161 307.512 
L 100.85862 307.512 
L 101.227079 307.949538 
L 101.963998 307.949538 
L 102.332457 303.136615 
L 102.700917 284.322462 
L 103.069376 306.199385 
L 103.437836 305.761846 
L 103.806295 293.510769 
L 104.174754 307.074462 
L 104.911673 300.073846 
L 105.280132 301.386462 
L 105.648592 302.261538 
L 106.017051 300.511385 
L 106.385511 303.574154 
L 106.75397 287.822769 
L 107.122429 298.761231 
L 107.490889 305.324308 
L 107.859348 304.449231 
L 108.227807 304.886769 
L 108.596267 300.073846 
L 108.964726 301.824 
L 109.333185 307.512 
L 109.701645 298.323692 
L 110.070104 304.449231 
L 110.438564 298.323692 
L 110.807023 300.073846 
L 111.175482 300.948923 
L 111.912401 306.199385 
L 112.28086 307.074462 
L 112.64932 297.011077 
L 113.017779 308.824615 
L 113.386239 298.323692 
L 113.754698 300.073846 
L 114.123157 305.324308 
L 114.491617 290.010462 
L 114.860076 304.449231 
L 115.228535 306.636923 
L 115.596995 293.073231 
L 115.965454 307.074462 
L 116.333913 277.321846 
L 116.702373 305.324308 
L 117.070832 297.886154 
L 117.439292 308.387077 
L 117.807751 271.633846 
L 118.17621 307.512 
L 118.54467 307.949538 
L 118.913129 306.199385 
L 119.281588 303.574154 
L 119.650048 307.512 
L 120.018507 307.074462 
L 120.386967 303.136615 
L 120.755426 307.949538 
L 121.123885 307.512 
L 121.492345 284.322462 
L 121.860804 303.574154 
L 122.229263 293.073231 
L 122.597723 292.198154 
L 122.966182 293.510769 
L 123.334641 302.261538 
L 123.703101 298.761231 
L 124.07156 305.761846 
L 124.808479 302.261538 
L 125.176938 283.447385 
L 125.545398 307.074462 
L 125.913857 304.449231 
L 126.282316 309.262154 
L 127.019235 300.948923 
L 127.387695 307.512 
L 127.756154 304.886769 
L 128.124613 304.011692 
L 128.493073 279.947077 
L 128.861532 305.761846 
L 129.229991 306.636923 
L 129.598451 306.636923 
L 129.96691 303.574154 
L 130.335369 298.761231 
L 131.072288 308.824615 
L 131.440748 291.760615 
L 131.809207 308.387077 
L 132.177666 306.636923 
L 132.546126 300.948923 
L 132.914585 306.636923 
L 133.283044 307.512 
L 133.651504 304.886769 
L 134.388423 306.636923 
L 134.756882 307.074462 
L 135.125341 306.199385 
L 135.493801 303.574154 
L 135.86226 306.636923 
L 136.230719 302.261538 
L 136.599179 307.074462 
L 136.967638 293.510769 
L 137.336097 301.386462 
L 137.704557 303.136615 
L 138.073016 297.011077 
L 138.441476 304.886769 
L 138.809935 305.324308 
L 139.178394 293.073231 
L 139.546854 306.199385 
L 139.915313 303.136615 
L 140.283772 304.886769 
L 140.652232 304.886769 
L 141.020691 283.009846 
L 141.389151 299.198769 
L 141.75761 304.449231 
L 142.126069 298.761231 
L 142.494529 295.260923 
L 142.862988 294.385846 
L 143.231447 298.761231 
L 143.599907 309.262154 
L 143.968366 307.074462 
L 144.336825 299.636308 
L 144.705285 267.258462 
L 145.073744 304.011692 
L 145.442204 305.324308 
L 145.810663 301.386462 
L 146.179122 306.199385 
L 146.547582 300.511385 
L 146.916041 301.824 
L 147.2845 303.574154 
L 147.65296 302.699077 
L 148.021419 298.761231 
L 148.389879 307.949538 
L 148.758338 297.886154 
L 149.126797 304.449231 
L 149.495257 307.949538 
L 150.232175 290.448 
L 150.600635 307.512 
L 150.969094 304.886769 
L 151.337553 304.449231 
L 151.706013 300.073846 
L 152.074472 302.261538 
L 152.442932 305.761846 
L 152.811391 304.011692 
L 153.17985 304.886769 
L 153.54831 297.448615 
L 153.916769 303.574154 
L 154.285228 295.698462 
L 154.653688 307.949538 
L 155.022147 286.072615 
L 155.390607 305.324308 
L 155.759066 299.198769 
L 156.127525 297.448615 
L 156.495985 305.761846 
L 156.864444 303.136615 
L 157.232903 307.949538 
L 157.601363 295.698462 
L 157.969822 301.386462 
L 158.338281 304.886769 
L 158.706741 304.011692 
L 159.0752 305.761846 
L 159.44366 304.011692 
L 159.812119 298.323692 
L 160.180578 287.385231 
L 160.549038 300.511385 
L 160.917497 301.386462 
L 161.285956 306.636923 
L 162.022875 296.573538 
L 162.391335 297.011077 
L 162.759794 296.136 
L 163.128253 289.135385 
L 163.496713 295.260923 
L 163.865172 307.949538 
L 164.233631 302.261538 
L 164.602091 275.134154 
L 164.97055 303.574154 
L 165.339009 286.510154 
L 165.707469 300.073846 
L 166.075928 301.824 
L 166.444388 304.449231 
L 166.812847 295.260923 
L 167.181306 306.199385 
L 167.549766 285.197538 
L 168.286684 301.824 
L 168.655144 289.135385 
L 169.023603 283.447385 
L 169.392063 301.386462 
L 169.760522 297.448615 
L 170.128981 300.511385 
L 170.497441 279.072 
L 170.8659 307.074462 
L 171.234359 287.822769 
L 171.602819 297.448615 
L 171.971278 298.323692 
L 172.339737 298.761231 
L 172.708197 297.886154 
L 173.076656 300.948923 
L 173.445116 296.136 
L 173.813575 303.136615 
L 174.182034 297.886154 
L 174.550494 287.822769 
L 174.918953 305.761846 
L 175.287412 276.884308 
L 175.655872 288.697846 
L 176.024331 291.323077 
L 176.392791 296.136 
L 176.76125 306.199385 
L 177.498169 283.884923 
L 177.866628 290.448 
L 178.235087 300.511385 
L 178.603547 306.636923 
L 178.972006 257.195077 
L 179.340465 299.198769 
L 179.708925 307.949538 
L 180.077384 299.198769 
L 180.445844 301.386462 
L 180.814303 283.009846 
L 181.182762 295.260923 
L 181.551222 290.010462 
L 181.919681 293.948308 
L 182.28814 300.073846 
L 182.6566 264.195692 
L 183.025059 307.512 
L 183.393519 291.323077 
L 183.761978 307.512 
L 184.130437 216.066462 
L 184.498897 303.574154 
L 184.867356 248.881846 
L 185.604275 299.636308 
L 185.972734 301.824 
L 186.341193 274.696615 
L 186.709653 301.824 
L 187.078112 248.881846 
L 187.446572 297.448615 
L 187.815031 267.696 
L 188.18349 275.134154 
L 188.55195 306.199385 
L 188.920409 296.573538 
L 189.288868 307.949538 
L 189.657328 305.324308 
L 190.025787 283.884923 
L 190.394247 270.758769 
L 190.762706 302.261538 
L 191.131165 276.009231 
L 191.868084 284.322462 
L 192.236543 297.011077 
L 192.605003 305.324308 
L 192.973462 275.134154 
L 193.341921 304.449231 
L 193.710381 250.632 
L 194.07884 276.009231 
L 194.4473 280.384615 
L 194.815759 279.509538 
L 195.184218 273.384 
L 195.552678 302.699077 
L 195.921137 263.320615 
L 196.289596 302.699077 
L 196.658056 259.382769 
L 197.026515 274.259077 
L 197.394975 238.818462 
L 197.763434 257.632615 
L 198.868812 288.260308 
L 199.237271 192.001846 
L 199.605731 272.508923 
L 199.97419 248.006769 
L 200.342649 254.569846 
L 200.711109 280.384615 
L 201.079568 274.259077 
L 201.448028 263.758154 
L 201.816487 297.448615 
L 202.553406 233.568 
L 202.921865 278.196923 
L 203.290324 254.132308 
L 203.658784 293.948308 
L 204.027243 232.692923 
L 204.395703 233.130462 
L 204.764162 296.573538 
L 205.132621 237.068308 
L 205.501081 213.441231 
L 205.86954 265.945846 
L 206.237999 283.884923 
L 206.606459 295.698462 
L 207.343377 279.072 
L 207.711837 263.758154 
L 208.080296 290.010462 
L 208.448756 236.630769 
L 208.817215 279.947077 
L 209.185674 284.76 
L 209.554134 215.191385 
L 209.922593 295.260923 
L 210.291052 277.321846 
L 210.659512 278.196923 
L 211.027971 286.947692 
L 211.76489 252.819692 
L 212.133349 286.947692 
L 212.501809 264.633231 
L 212.870268 258.070154 
L 213.238727 272.508923 
L 213.607187 295.698462 
L 213.975646 269.446154 
L 214.344105 284.76 
L 214.712565 290.885538 
L 215.081024 290.448 
L 215.449484 253.257231 
L 215.817943 288.697846 
L 216.186402 304.011692 
L 216.554862 289.135385 
L 216.923321 289.135385 
L 217.29178 265.945846 
L 217.66024 281.697231 
L 218.028699 270.321231 
L 218.397159 299.636308 
L 218.765618 285.635077 
L 219.134077 261.132923 
L 219.502537 288.697846 
L 219.870996 285.635077 
L 220.239455 288.697846 
L 220.607915 288.697846 
L 220.976374 282.134769 
L 221.344833 288.697846 
L 221.713293 279.947077 
L 222.081752 261.132923 
L 222.450212 266.820923 
L 222.818671 246.694154 
L 223.18713 286.510154 
L 223.55559 303.136615 
L 223.924049 274.696615 
L 224.292508 290.010462 
L 224.660968 223.067077 
L 225.029427 286.072615 
L 225.397887 247.569231 
L 225.766346 295.260923 
L 226.134805 300.073846 
L 226.503265 278.634462 
L 226.871724 292.635692 
L 227.240183 286.947692 
L 227.608643 279.509538 
L 227.977102 261.570462 
L 228.345561 264.633231 
L 228.714021 291.760615 
L 229.08248 254.132308 
L 229.45094 282.572308 
L 229.819399 278.634462 
L 230.187858 268.571077 
L 230.556318 283.884923 
L 230.924777 294.385846 
L 231.293236 295.698462 
L 231.661696 304.449231 
L 232.030155 291.323077 
L 232.398615 300.073846 
L 232.767074 303.136615 
L 233.135533 293.510769 
L 233.503993 290.448 
L 233.872452 300.511385 
L 234.240911 306.199385 
L 234.609371 282.134769 
L 234.97783 287.822769 
L 235.346289 304.449231 
L 235.714749 290.448 
L 236.083208 264.633231 
L 236.451668 295.698462 
L 236.820127 281.697231 
L 237.557046 286.947692 
L 237.925505 253.257231 
L 238.293964 299.636308 
L 238.662424 258.507692 
L 239.030883 284.76 
L 239.399343 288.697846 
L 239.767802 279.509538 
L 240.136261 303.136615 
L 240.504721 288.697846 
L 240.87318 252.382154 
L 241.241639 288.697846 
L 241.610099 301.386462 
L 241.978558 277.759385 
L 242.347017 285.635077 
L 242.715477 290.448 
L 243.083936 290.885538 
L 243.452396 289.572923 
L 243.820855 289.135385 
L 244.189314 284.322462 
L 244.557774 300.511385 
L 245.294692 288.260308 
L 245.663152 303.136615 
L 246.031611 295.698462 
L 246.400071 294.823385 
L 246.76853 297.886154 
L 247.136989 287.822769 
L 247.505449 284.322462 
L 247.873908 300.948923 
L 248.242367 295.698462 
L 248.610827 297.011077 
L 248.979286 297.011077 
L 249.347745 297.448615 
L 249.716205 286.072615 
L 250.084664 286.072615 
L 250.453124 286.510154 
L 250.821583 279.947077 
L 251.190042 296.136 
L 251.558502 306.636923 
L 251.926961 292.635692 
L 252.29542 295.260923 
L 252.66388 265.508308 
L 253.032339 279.509538 
L 253.400799 289.135385 
L 253.769258 293.948308 
L 254.137717 292.635692 
L 254.506177 301.824 
L 254.874636 261.132923 
L 255.243095 298.323692 
L 255.611555 297.886154 
L 255.980014 296.573538 
L 256.348473 293.073231 
L 256.716933 304.886769 
L 257.085392 290.885538 
L 257.453852 290.010462 
L 257.822311 289.572923 
L 258.55923 305.761846 
L 258.927689 269.883692 
L 259.296148 293.073231 
L 259.664608 294.385846 
L 260.033067 276.009231 
L 260.401527 289.572923 
L 260.769986 284.322462 
L 261.138445 281.697231 
L 261.875364 301.386462 
L 262.243823 276.884308 
L 262.612283 295.260923 
L 262.980742 274.259077 
L 263.349201 296.573538 
L 263.717661 276.009231 
L 264.08612 291.323077 
L 264.45458 271.196308 
L 264.823039 285.197538 
L 265.559958 271.196308 
L 265.928417 272.508923 
L 266.296876 279.509538 
L 266.665336 268.571077 
L 267.033795 277.759385 
L 267.402255 282.134769 
L 267.770714 278.196923 
L 268.139173 281.259692 
L 268.507633 261.132923 
L 268.876092 281.697231 
L 269.244551 272.071385 
L 269.613011 285.197538 
L 269.98147 269.008615 
L 270.349929 276.884308 
L 270.718389 276.884308 
L 271.086848 276.446769 
L 271.455308 261.570462 
L 271.823767 260.257846 
L 272.192226 272.071385 
L 272.560686 272.946462 
L 272.929145 283.447385 
L 273.297604 271.633846 
L 273.666064 275.134154 
L 274.402983 285.635077 
L 274.771442 277.759385 
L 275.139901 276.446769 
L 275.508361 273.821538 
L 275.87682 284.322462 
L 276.245279 267.696 
L 276.613739 267.258462 
L 276.982198 276.884308 
L 277.350657 276.446769 
L 277.719117 276.884308 
L 278.087576 276.446769 
L 278.456036 275.571692 
L 278.824495 270.321231 
L 279.192954 273.821538 
L 279.561414 272.946462 
L 279.929873 269.883692 
L 280.298332 277.759385 
L 280.666792 272.508923 
L 281.035251 263.320615 
L 281.403711 279.509538 
L 281.77217 261.570462 
L 282.140629 269.008615 
L 282.509089 270.758769 
L 282.877548 275.134154 
L 283.246007 273.384 
L 283.614467 268.133538 
L 283.982926 264.633231 
L 284.351385 277.759385 
L 284.719845 271.633846 
L 285.088304 256.757538 
L 285.456764 271.633846 
L 285.825223 265.070769 
L 286.193682 268.133538 
L 286.562142 272.946462 
L 286.930601 259.382769 
L 287.29906 274.259077 
L 287.66752 261.570462 
L 288.035979 269.008615 
L 288.404439 265.508308 
L 288.772898 263.758154 
L 289.141357 258.945231 
L 289.509817 267.696 
L 289.878276 263.320615 
L 290.246735 268.571077 
L 290.615195 251.944615 
L 290.983654 267.258462 
L 291.352113 262.008 
L 291.720573 272.946462 
L 292.089032 216.504 
L 292.457492 248.006769 
L 292.825951 217.816615 
L 293.19441 212.566154 
L 293.56287 239.693538 
L 293.931329 255.007385 
L 294.299788 251.507077 
L 295.036707 235.755692 
L 295.405167 234.443077 
L 296.142085 261.570462 
L 296.510545 258.945231 
L 296.879004 265.508308 
L 297.247463 249.756923 
L 297.615923 267.258462 
L 297.984382 266.383385 
L 298.352841 266.820923 
L 298.721301 269.446154 
L 299.08976 268.133538 
L 299.45822 253.694769 
L 299.826679 245.819077 
L 300.195138 255.007385 
L 300.563598 251.944615 
L 300.932057 261.132923 
L 301.300516 245.819077 
L 301.668976 241.881231 
L 302.037435 248.444308 
L 302.405895 242.318769 
L 302.774354 248.444308 
L 303.142813 224.379692 
L 303.511273 227.442462 
L 303.879732 209.503385 
L 304.248191 225.692308 
L 304.616651 185.876308 
L 304.98511 214.753846 
L 305.353569 220.441846 
L 305.722029 181.063385 
L 306.090488 227.442462 
L 306.458948 220.441846 
L 306.827407 94.430769 
L 307.195866 139.059692 
L 307.932785 162.249231 
L 308.301244 167.062154 
L 308.669704 130.308923 
L 309.038163 200.752615 
L 309.406623 179.313231 
L 309.775082 95.305846 
L 310.143541 147.810462 
L 310.512001 94.430769 
L 310.88046 141.247385 
L 311.248919 94.430769 
L 315.301972 94.430769 
L 315.670432 185.001231 
L 316.407351 211.691077 
L 317.144269 231.817846 
L 317.512729 237.505846 
L 317.881188 178.438154 
L 318.249647 159.186462 
L 318.618107 110.182154 
L 318.986566 117.182769 
L 319.355025 94.430769 
L 319.723485 157.873846 
L 320.091944 94.430769 
L 320.460404 145.622769 
L 320.828863 94.430769 
L 321.197322 94.430769 
L 321.565782 167.499692 
L 321.934241 167.499692 
L 322.3027 135.559385 
L 322.67116 195.064615 
L 323.039619 190.689231 
L 323.408079 223.942154 
L 323.776538 195.064615 
L 324.144997 177.125538 
L 324.513457 220.441846 
L 324.881916 189.814154 
L 325.250375 94.430769 
L 325.618835 94.430769 
L 325.987294 143.435077 
L 326.355753 94.430769 
L 326.724213 94.430769 
L 327.092672 118.495385 
L 327.829591 94.430769 
L 328.19805 94.430769 
L 328.56651 97.493538 
L 328.934969 94.430769 
L 329.671888 94.430769 
L 330.040347 96.618462 
L 330.408807 94.430769 
L 348.463316 94.430769 
L 348.463316 94.430769 
" clip-path="url(#pc5b0f6eb4f)" style="fill: none; stroke: #708090; stroke-width: 1.5; stroke-linecap: square"/>
   </g>
   <g id="line2d_15">
    <path d="M 74.329545 304.195458 
L 75.066464 304.090449 
L 75.434924 303.932935 
L 76.171842 304.011692 
L 76.908761 304.090449 
L 77.27722 303.827926 
L 77.64568 303.766671 
L 78.014139 303.819175 
L 78.382599 304.064197 
L 78.751058 303.845428 
L 79.856436 303.827926 
L 80.593355 303.766671 
L 81.330273 303.731668 
L 81.698733 303.880431 
L 82.067192 303.635409 
L 83.54103 303.661662 
L 83.909489 303.75792 
L 84.277948 303.661662 
L 84.646408 303.171618 
L 85.383327 303.442892 
L 85.751786 303.18912 
L 87.225623 302.9616 
L 87.962542 302.795335 
L 89.06792 302.690326 
L 89.804839 302.699077 
L 90.173298 302.909095 
L 90.541758 302.952849 
L 91.647136 302.725329 
L 92.015595 302.856591 
L 93.120973 302.637822 
L 93.489433 302.672825 
L 93.857892 302.830338 
L 94.226351 302.830338 
L 94.594811 302.611569 
L 94.96327 302.681575 
L 95.331729 302.576566 
L 96.068648 302.716578 
L 96.437108 302.349046 
L 96.805567 302.322794 
L 97.174026 302.524062 
L 97.542486 302.235286 
L 97.910945 302.235286 
L 98.279404 301.683988 
L 98.647864 301.753994 
L 99.016323 301.648985 
L 99.384783 301.753994 
L 99.753242 301.097686 
L 100.121701 301.071434 
L 100.490161 301.342708 
L 102.700917 301.211446 
L 103.069376 301.675237 
L 103.437836 301.237698 
L 104.174754 301.185194 
L 104.911673 300.6864 
L 106.385511 300.817662 
L 107.122429 300.703902 
L 107.490889 300.870166 
L 107.859348 300.852665 
L 108.596267 300.948923 
L 109.701645 301.02768 
L 110.070104 301.14144 
L 110.438564 300.651397 
L 111.543942 301.045182 
L 111.912401 301.036431 
L 112.64932 300.808911 
L 113.017779 301.045182 
L 113.386239 300.703902 
L 114.123157 301.036431 
L 114.491617 300.948923 
L 114.860076 301.281452 
L 116.333913 301.552726 
L 116.702373 302.147778 
L 117.807751 302.244037 
L 118.17621 302.856591 
L 118.54467 302.84784 
L 118.913129 302.559065 
L 120.386967 302.200283 
L 120.755426 302.244037 
L 121.123885 301.946511 
L 121.492345 301.920258 
L 121.860804 302.296542 
L 122.229263 302.322794 
L 122.597723 302.559065 
L 122.966182 302.375298 
L 123.703101 302.532812 
L 124.07156 302.532812 
L 124.808479 302.130277 
L 125.176938 302.060271 
L 125.545398 302.576566 
L 126.282316 302.480308 
L 126.650776 301.640234 
L 128.493073 301.543975 
L 128.861532 301.981514 
L 129.598451 301.859003 
L 129.96691 301.701489 
L 130.703829 301.771495 
L 131.809207 301.920258 
L 132.177666 301.561477 
L 133.283044 301.613982 
L 134.019963 301.412714 
L 135.125341 301.316455 
L 135.493801 301.14144 
L 135.86226 301.14144 
L 136.230719 300.922671 
L 136.599179 301.036431 
L 136.967638 300.616394 
L 137.336097 300.852665 
L 138.073016 300.695151 
L 138.441476 300.870166 
L 139.178394 300.887668 
L 139.546854 300.940172 
L 139.915313 300.843914 
L 141.020691 300.878917 
L 141.389151 301.298954 
L 141.75761 301.281452 
L 142.126069 300.940172 
L 142.862988 301.097686 
L 143.231447 301.342708 
L 143.599907 301.412714 
L 144.336825 300.957674 
L 144.705285 300.887668 
L 145.073744 301.325206 
L 145.442204 301.150191 
L 146.179122 301.220197 
L 146.547582 300.598892 
L 146.916041 300.660148 
L 147.2845 300.353871 
L 148.021419 300.266363 
L 148.389879 300.380123 
L 148.758338 300.126351 
L 149.126797 300.292615 
L 149.863716 299.636308 
L 150.600635 299.671311 
L 150.969094 299.190018 
L 152.074472 298.988751 
L 152.442932 298.52496 
L 152.811391 298.551212 
L 153.17985 298.227434 
L 153.54831 298.078671 
L 153.916769 298.096172 
L 154.285228 297.999914 
L 154.653688 298.043668 
L 155.022147 297.903655 
L 155.390607 298.104923 
L 156.127525 298.034917 
L 156.495985 297.8424 
L 156.864444 297.8424 
L 157.601363 296.93232 
L 159.0752 296.573538 
L 159.812119 295.864726 
L 160.180578 295.90848 
L 160.549038 296.293514 
L 160.917497 295.427188 
L 162.022875 295.348431 
L 162.391335 295.444689 
L 162.759794 295.164665 
L 163.865172 295.138412 
L 164.233631 294.980898 
L 164.602091 294.219582 
L 164.97055 294.867138 
L 165.339009 294.622117 
L 165.707469 295.042154 
L 166.075928 293.362006 
L 166.444388 293.397009 
L 166.812847 292.285662 
L 167.181306 291.821871 
L 167.549766 291.690609 
L 167.918225 292.023138 
L 168.286684 291.629354 
L 168.655144 291.629354 
L 169.023603 290.824283 
L 169.392063 291.104308 
L 170.128981 289.984209 
L 170.497441 290.097969 
L 170.8659 290.448 
L 171.234359 290.465502 
L 171.602819 290.815532 
L 171.971278 290.544258 
L 172.339737 289.99296 
L 172.708197 290.062966 
L 173.445116 289.214142 
L 174.182034 288.85536 
L 174.550494 289.004123 
L 174.918953 288.750351 
L 175.287412 288.724098 
L 175.655872 288.199052 
L 176.76125 287.393982 
L 177.129709 286.737674 
L 177.498169 286.903938 
L 177.866628 286.492652 
L 178.235087 286.737674 
L 178.972006 285.267545 
L 179.340465 284.900012 
L 180.077384 283.254868 
L 180.445844 282.782326 
L 180.814303 282.519803 
L 181.182762 280.699643 
L 181.551222 280.244603 
L 182.28814 278.61696 
L 182.6566 278.223175 
L 183.025059 278.424443 
L 183.393519 277.549366 
L 183.761978 277.671877 
L 184.130437 276.849305 
L 184.498897 277.199335 
L 184.867356 276.691791 
L 185.235815 276.7968 
L 185.604275 277.234338 
L 186.341193 274.5216 
L 186.709653 274.959138 
L 187.078112 273.664025 
L 187.815031 272.325157 
L 188.55195 273.060222 
L 189.288868 272.351409 
L 189.657328 271.467582 
L 190.025787 271.161305 
L 190.394247 270.216222 
L 190.762706 270.399988 
L 191.131165 270.049957 
L 191.499625 268.8336 
L 191.868084 269.131126 
L 192.236543 268.991114 
L 192.973462 268.247298 
L 193.341921 268.15104 
L 193.710381 267.118449 
L 194.07884 267.844763 
L 194.4473 267.617243 
L 194.815759 267.170954 
L 195.184218 267.030942 
L 195.552678 267.477231 
L 195.921137 266.812172 
L 196.289596 267.24096 
L 196.658056 267.004689 
L 197.026515 267.625994 
L 197.394975 267.205957 
L 198.131893 269.131126 
L 198.868812 269.839938 
L 199.237271 269.393649 
L 199.605731 271.187557 
L 199.97419 271.143803 
L 200.342649 272.176394 
L 200.711109 272.797698 
L 201.079568 272.412665 
L 201.448028 272.70144 
L 201.816487 273.138978 
L 202.184946 272.963963 
L 202.553406 273.410252 
L 202.921865 274.381588 
L 203.290324 274.591606 
L 203.658784 275.107902 
L 204.027243 274.451594 
L 204.395703 275.134154 
L 204.764162 275.405428 
L 205.132621 275.20416 
L 205.86954 277.750634 
L 206.237999 278.231926 
L 206.606459 277.015569 
L 206.974918 276.823052 
L 207.343377 276.009231 
L 207.711837 276.333009 
L 208.080296 277.059323 
L 208.448756 276.831803 
L 208.817215 277.951902 
L 209.185674 278.091914 
L 209.554134 277.986905 
L 209.922593 278.914486 
L 210.291052 278.301932 
L 210.659512 278.590708 
L 211.027971 278.109415 
L 211.396431 278.021908 
L 211.76489 278.188172 
L 212.133349 278.5032 
L 212.501809 278.441945 
L 213.607187 280.428369 
L 213.975646 280.340862 
L 214.344105 280.953415 
L 214.712565 281.320948 
L 215.449484 281.373452 
L 215.817943 282.318535 
L 216.186402 282.668566 
L 216.554862 282.231028 
L 216.923321 282.204775 
L 217.29178 282.511052 
L 217.66024 283.001095 
L 218.028699 282.659815 
L 218.397159 283.16736 
L 218.765618 282.808578 
L 219.134077 282.791077 
L 219.502537 283.307372 
L 219.870996 282.59856 
L 220.239455 282.878585 
L 220.607915 282.274782 
L 220.976374 282.196025 
L 221.344833 282.327286 
L 221.713293 282.14352 
L 222.450212 283.158609 
L 222.818671 282.869834 
L 223.18713 283.709908 
L 223.55559 284.007434 
L 223.924049 283.499889 
L 224.292508 283.718658 
L 224.660968 283.727409 
L 225.029427 285.083778 
L 225.397887 285.153785 
L 225.766346 285.985108 
L 226.134805 285.766338 
L 226.503265 285.775089 
L 226.871724 286.098868 
L 227.240183 286.01136 
L 227.977102 286.658917 
L 228.714021 287.989034 
L 229.08248 287.910277 
L 229.45094 288.51408 
L 230.187858 289.222892 
L 230.556318 289.791692 
L 230.924777 290.054215 
L 231.293236 290.115471 
L 231.661696 289.922954 
L 232.030155 289.555422 
L 232.398615 289.459163 
L 232.767074 289.056628 
L 233.135533 288.916615 
L 233.503993 289.179138 
L 233.872452 289.222892 
L 234.240911 289.117883 
L 234.609371 288.304062 
L 236.083208 288.111545 
L 236.451668 288.85536 
L 236.820127 288.164049 
L 237.557046 288.759102 
L 237.925505 288.951618 
L 238.293964 289.747938 
L 238.662424 289.852948 
L 239.030883 290.500505 
L 239.767802 290.623015 
L 240.136261 291.008049 
L 240.504721 291.060554 
L 240.87318 290.684271 
L 241.241639 291.498092 
L 241.610099 291.611852 
L 241.978558 291.104308 
L 242.347017 291.340578 
L 242.715477 291.314326 
L 243.083936 291.139311 
L 243.452396 291.156812 
L 243.820855 291.393083 
L 244.189314 291.148062 
L 244.557774 291.366831 
L 244.926233 290.841785 
L 245.294692 290.876788 
L 246.031611 290.395495 
L 246.400071 289.905452 
L 246.76853 289.712935 
L 247.505449 288.977871 
L 247.873908 288.7416 
L 249.716205 286.702671 
L 250.084664 286.606412 
L 250.453124 286.107618 
L 251.190042 285.853846 
L 251.558502 285.635077 
L 251.926961 284.882511 
L 252.66388 284.199951 
L 253.032339 284.41872 
L 253.400799 284.059938 
L 254.137717 283.044849 
L 254.874636 282.283532 
L 255.243095 282.493551 
L 255.980014 281.697231 
L 256.716933 281.172185 
L 257.085392 280.603385 
L 257.453852 280.262105 
L 257.822311 280.148345 
L 258.19077 279.710806 
L 258.927689 278.5032 
L 259.296148 278.634462 
L 260.033067 277.951902 
L 260.401527 277.943151 
L 260.769986 277.558117 
L 261.506905 277.173083 
L 262.243823 276.263003 
L 262.612283 276.175495 
L 262.980742 275.536689 
L 263.349201 275.641698 
L 263.717661 274.941637 
L 264.08612 274.801625 
L 264.45458 274.390338 
L 264.823039 274.469095 
L 265.559958 274.040308 
L 265.928417 273.909046 
L 266.296876 274.014055 
L 267.402255 273.49776 
L 268.139173 272.955212 
L 268.507633 272.788948 
L 268.876092 272.753945 
L 269.613011 272.395163 
L 269.98147 272.071385 
L 270.349929 272.001378 
L 271.455308 271.205058 
L 271.823767 271.240062 
L 272.192226 271.406326 
L 272.560686 271.003791 
L 272.929145 270.890031 
L 273.297604 270.461243 
L 273.666064 270.487495 
L 274.034523 269.314892 
L 274.402983 268.649834 
L 275.139901 265.9896 
L 275.508361 265.254535 
L 275.87682 264.878252 
L 277.719117 261.684222 
L 279.561414 260.284098 
L 281.403711 259.645292 
L 281.77217 258.971483 
L 282.140629 258.840222 
L 283.246007 257.720123 
L 283.614467 257.090068 
L 284.351385 256.249994 
L 284.719845 255.663692 
L 285.088304 254.718609 
L 285.456764 254.132308 
L 285.825223 252.889698 
L 286.193682 252.102129 
L 286.930601 249.293132 
L 287.29906 248.514314 
L 287.66752 246.6504 
L 288.035979 245.96784 
L 288.404439 244.996505 
L 289.141357 239.080985 
L 290.615195 230.111446 
L 290.983654 229.087606 
L 291.352113 227.328702 
L 292.089032 221.491938 
L 293.931329 209.179606 
L 295.405167 197.042289 
L 296.510545 187.810228 
L 297.247463 181.098388 
L 298.352841 177.353058 
L 299.08976 175.716665 
L 299.45822 175.104111 
L 300.195138 171.866326 
L 301.300516 162.940542 
L 301.668976 161.181637 
L 303.142813 150.138166 
L 303.879732 147.801711 
L 304.248191 146.322831 
L 304.616651 145.710277 
L 305.353569 145.990302 
L 305.722029 145.482757 
L 306.458948 145.263988 
L 306.827407 144.651434 
L 307.195866 144.651434 
L 307.564326 143.758855 
L 307.932785 143.618843 
L 308.669704 140.809846 
L 309.038163 140.573575 
L 309.775082 137.003262 
L 310.143541 136.98576 
L 310.512001 135.979422 
L 310.88046 135.979422 
L 311.248919 135.043089 
L 315.670432 135.086843 
L 316.407351 131.175249 
L 317.512729 123.518326 
L 317.881188 120.656825 
L 318.618107 117.681563 
L 319.355025 116.911495 
L 319.723485 116.911495 
L 320.091944 115.642634 
L 320.460404 115.642634 
L 320.828863 114.618794 
L 321.565782 114.618794 
L 322.3027 111.696037 
L 322.67116 110.873465 
L 324.513457 100.678818 
L 325.250375 96.250929 
L 325.987294 96.250929 
L 326.355753 95.270843 
L 327.092672 95.270843 
L 327.461132 94.789551 
L 327.829591 94.535778 
L 330.408807 94.430769 
L 330.408807 94.430769 
" clip-path="url(#pc5b0f6eb4f)" style="fill: none; stroke: #000080; stroke-width: 1.5; stroke-linecap: square"/>
   </g>
   <g id="line2d_16">
    <path d="M 55.925 94.430769 
L 460.825 94.430769 
" clip-path="url(#pc5b0f6eb4f)" style="fill: none; stroke-dasharray: 5.55,2.4; stroke-dashoffset: 0; stroke: #008000; stroke-width: 1.5"/>
   </g>
   <g id="patch_3">
    <path d="M 55.925 313.2 
L 55.925 28.8 
" style="fill: none; stroke: #000000; stroke-width: 0.8; stroke-linejoin: miter; stroke-linecap: square"/>
   </g>
   <g id="patch_4">
    <path d="M 460.825 313.2 
L 460.825 28.8 
" style="fill: none; stroke: #000000; stroke-width: 0.8; stroke-linejoin: miter; stroke-linecap: square"/>
   </g>
   <g id="patch_5">
    <path d="M 55.925 313.2 
L 460.825 313.2 
" style="fill: none; stroke: #000000; stroke-width: 0.8; stroke-linejoin: miter; stroke-linecap: square"/>
   </g>
   <g id="patch_6">
    <path d="M 55.925 28.8 
L 460.825 28.8 
" style="fill: none; stroke: #000000; stroke-width: 0.8; stroke-linejoin: miter; stroke-linecap: square"/>
   </g>
   <g id="text_16">
    <!-- gamma = 0.99,lr = 0.01291549665014884 -->
    <g transform="translate(95.179688 22.8)scale(0.15 -0.15)">
     <defs>
      <path id="DejaVuSans-67" d="M 2906 1791 
Q 2906 2416 2648 2759 
Q 2391 3103 1925 3103 
Q 1463 3103 1205 2759 
Q 947 2416 947 1791 
Q 947 1169 1205 825 
Q 1463 481 1925 481 
Q 2391 481 2648 825 
Q 2906 1169 2906 1791 
z
M 3481 434 
Q 3481 -459 3084 -895 
Q 2688 -1331 1869 -1331 
Q 1566 -1331 1297 -1286 
Q 1028 -1241 775 -1147 
L 775 -588 
Q 1028 -725 1275 -790 
Q 1522 -856 1778 -856 
Q 2344 -856 2625 -561 
Q 2906 -266 2906 331 
L 2906 616 
Q 2728 306 2450 153 
Q 2172 0 1784 0 
Q 1141 0 747 490 
Q 353 981 353 1791 
Q 353 2603 747 3093 
Q 1141 3584 1784 3584 
Q 2172 3584 2450 3431 
Q 2728 3278 2906 2969 
L 2906 3500 
L 3481 3500 
L 3481 434 
z
" transform="scale(0.015625)"/>
      <path id="DejaVuSans-61" d="M 2194 1759 
Q 1497 1759 1228 1600 
Q 959 1441 959 1056 
Q 959 750 1161 570 
Q 1363 391 1709 391 
Q 2188 391 2477 730 
Q 2766 1069 2766 1631 
L 2766 1759 
L 2194 1759 
z
M 3341 1997 
L 3341 0 
L 2766 0 
L 2766 531 
Q 2569 213 2275 61 
Q 1981 -91 1556 -91 
Q 1019 -91 701 211 
Q 384 513 384 1019 
Q 384 1609 779 1909 
Q 1175 2209 1959 2209 
L 2766 2209 
L 2766 2266 
Q 2766 2663 2505 2880 
Q 2244 3097 1772 3097 
Q 1472 3097 1187 3025 
Q 903 2953 641 2809 
L 641 3341 
Q 956 3463 1253 3523 
Q 1550 3584 1831 3584 
Q 2591 3584 2966 3190 
Q 3341 2797 3341 1997 
z
" transform="scale(0.015625)"/>
      <path id="DejaVuSans-6d" d="M 3328 2828 
Q 3544 3216 3844 3400 
Q 4144 3584 4550 3584 
Q 5097 3584 5394 3201 
Q 5691 2819 5691 2113 
L 5691 0 
L 5113 0 
L 5113 2094 
Q 5113 2597 4934 2840 
Q 4756 3084 4391 3084 
Q 3944 3084 3684 2787 
Q 3425 2491 3425 1978 
L 3425 0 
L 2847 0 
L 2847 2094 
Q 2847 2600 2669 2842 
Q 2491 3084 2119 3084 
Q 1678 3084 1418 2786 
Q 1159 2488 1159 1978 
L 1159 0 
L 581 0 
L 581 3500 
L 1159 3500 
L 1159 2956 
Q 1356 3278 1631 3431 
Q 1906 3584 2284 3584 
Q 2666 3584 2933 3390 
Q 3200 3197 3328 2828 
z
" transform="scale(0.015625)"/>
      <path id="DejaVuSans-20" transform="scale(0.015625)"/>
      <path id="DejaVuSans-3d" d="M 678 2906 
L 4684 2906 
L 4684 2381 
L 678 2381 
L 678 2906 
z
M 678 1631 
L 4684 1631 
L 4684 1100 
L 678 1100 
L 678 1631 
z
" transform="scale(0.015625)"/>
      <path id="DejaVuSans-2e" d="M 684 794 
L 1344 794 
L 1344 0 
L 684 0 
L 684 794 
z
" transform="scale(0.015625)"/>
      <path id="DejaVuSans-39" d="M 703 97 
L 703 672 
Q 941 559 1184 500 
Q 1428 441 1663 441 
Q 2288 441 2617 861 
Q 2947 1281 2994 2138 
Q 2813 1869 2534 1725 
Q 2256 1581 1919 1581 
Q 1219 1581 811 2004 
Q 403 2428 403 3163 
Q 403 3881 828 4315 
Q 1253 4750 1959 4750 
Q 2769 4750 3195 4129 
Q 3622 3509 3622 2328 
Q 3622 1225 3098 567 
Q 2575 -91 1691 -91 
Q 1453 -91 1209 -44 
Q 966 3 703 97 
z
M 1959 2075 
Q 2384 2075 2632 2365 
Q 2881 2656 2881 3163 
Q 2881 3666 2632 3958 
Q 2384 4250 1959 4250 
Q 1534 4250 1286 3958 
Q 1038 3666 1038 3163 
Q 1038 2656 1286 2365 
Q 1534 2075 1959 2075 
z
" transform="scale(0.015625)"/>
      <path id="DejaVuSans-2c" d="M 750 794 
L 1409 794 
L 1409 256 
L 897 -744 
L 494 -744 
L 750 256 
L 750 794 
z
" transform="scale(0.015625)"/>
      <path id="DejaVuSans-6c" d="M 603 4863 
L 1178 4863 
L 1178 0 
L 603 0 
L 603 4863 
z
" transform="scale(0.015625)"/>
     </defs>
     <use xlink:href="#DejaVuSans-67"/>
     <use xlink:href="#DejaVuSans-61" x="63.476562"/>
     <use xlink:href="#DejaVuSans-6d" x="124.755859"/>
     <use xlink:href="#DejaVuSans-6d" x="222.167969"/>
     <use xlink:href="#DejaVuSans-61" x="319.580078"/>
     <use xlink:href="#DejaVuSans-20" x="380.859375"/>
     <use xlink:href="#DejaVuSans-3d" x="412.646484"/>
     <use xlink:href="#DejaVuSans-20" x="496.435547"/>
     <use xlink:href="#DejaVuSans-30" x="528.222656"/>
     <use xlink:href="#DejaVuSans-2e" x="591.845703"/>
     <use xlink:href="#DejaVuSans-39" x="623.632812"/>
     <use xlink:href="#DejaVuSans-39" x="687.255859"/>
     <use xlink:href="#DejaVuSans-2c" x="750.878906"/>
     <use xlink:href="#DejaVuSans-6c" x="782.666016"/>
     <use xlink:href="#DejaVuSans-72" x="810.449219"/>
     <use xlink:href="#DejaVuSans-20" x="851.5625"/>
     <use xlink:href="#DejaVuSans-3d" x="883.349609"/>
     <use xlink:href="#DejaVuSans-20" x="967.138672"/>
     <use xlink:href="#DejaVuSans-30" x="998.925781"/>
     <use xlink:href="#DejaVuSans-2e" x="1062.548828"/>
     <use xlink:href="#DejaVuSans-30" x="1094.335938"/>
     <use xlink:href="#DejaVuSans-31" x="1157.958984"/>
     <use xlink:href="#DejaVuSans-32" x="1221.582031"/>
     <use xlink:href="#DejaVuSans-39" x="1285.205078"/>
     <use xlink:href="#DejaVuSans-31" x="1348.828125"/>
     <use xlink:href="#DejaVuSans-35" x="1412.451172"/>
     <use xlink:href="#DejaVuSans-34" x="1476.074219"/>
     <use xlink:href="#DejaVuSans-39" x="1539.697266"/>
     <use xlink:href="#DejaVuSans-36" x="1603.320312"/>
     <use xlink:href="#DejaVuSans-36" x="1666.943359"/>
     <use xlink:href="#DejaVuSans-35" x="1730.566406"/>
     <use xlink:href="#DejaVuSans-30" x="1794.189453"/>
     <use xlink:href="#DejaVuSans-31" x="1857.8125"/>
     <use xlink:href="#DejaVuSans-34" x="1921.435547"/>
     <use xlink:href="#DejaVuSans-38" x="1985.058594"/>
     <use xlink:href="#DejaVuSans-38" x="2048.681641"/>
     <use xlink:href="#DejaVuSans-34" x="2112.304688"/>
    </g>
   </g>
   <g id="legend_1">
    <g id="patch_7">
     <path d="M 293.50625 80.834375 
L 453.825 80.834375 
Q 455.825 80.834375 455.825 78.834375 
L 455.825 35.8 
Q 455.825 33.8 453.825 33.8 
L 293.50625 33.8 
Q 291.50625 33.8 291.50625 35.8 
L 291.50625 78.834375 
Q 291.50625 80.834375 293.50625 80.834375 
z
" style="fill: #ffffff; opacity: 0.8; stroke: #cccccc; stroke-linejoin: miter"/>
    </g>
    <g id="line2d_17">
     <path d="M 295.50625 41.898438 
L 305.50625 41.898438 
L 315.50625 41.898438 
" style="fill: none; stroke: #708090; stroke-width: 1.5; stroke-linecap: square"/>
    </g>
    <g id="text_17">
     <!-- Episodes score -->
     <g transform="translate(323.50625 45.398438)scale(0.1 -0.1)">
      <use xlink:href="#DejaVuSans-45"/>
      <use xlink:href="#DejaVuSans-70" x="63.183594"/>
      <use xlink:href="#DejaVuSans-69" x="126.660156"/>
      <use xlink:href="#DejaVuSans-73" x="154.443359"/>
      <use xlink:href="#DejaVuSans-6f" x="206.542969"/>
      <use xlink:href="#DejaVuSans-64" x="267.724609"/>
      <use xlink:href="#DejaVuSans-65" x="331.201172"/>
      <use xlink:href="#DejaVuSans-73" x="392.724609"/>
      <use xlink:href="#DejaVuSans-20" x="444.824219"/>
      <use xlink:href="#DejaVuSans-73" x="476.611328"/>
      <use xlink:href="#DejaVuSans-63" x="528.710938"/>
      <use xlink:href="#DejaVuSans-6f" x="583.691406"/>
      <use xlink:href="#DejaVuSans-72" x="644.873047"/>
      <use xlink:href="#DejaVuSans-65" x="683.736328"/>
     </g>
    </g>
    <g id="line2d_18">
     <path d="M 295.50625 56.576563 
L 305.50625 56.576563 
L 315.50625 56.576563 
" style="fill: none; stroke: #000080; stroke-width: 1.5; stroke-linecap: square"/>
    </g>
    <g id="text_18">
     <!-- Moving average of scores -->
     <g transform="translate(323.50625 60.076563)scale(0.1 -0.1)">
      <defs>
       <path id="DejaVuSans-4d" d="M 628 4666 
L 1569 4666 
L 2759 1491 
L 3956 4666 
L 4897 4666 
L 4897 0 
L 4281 0 
L 4281 4097 
L 3078 897 
L 2444 897 
L 1241 4097 
L 1241 0 
L 628 0 
L 628 4666 
z
" transform="scale(0.015625)"/>
       <path id="DejaVuSans-76" d="M 191 3500 
L 800 3500 
L 1894 563 
L 2988 3500 
L 3597 3500 
L 2284 0 
L 1503 0 
L 191 3500 
z
" transform="scale(0.015625)"/>
       <path id="DejaVuSans-6e" d="M 3513 2113 
L 3513 0 
L 2938 0 
L 2938 2094 
Q 2938 2591 2744 2837 
Q 2550 3084 2163 3084 
Q 1697 3084 1428 2787 
Q 1159 2491 1159 1978 
L 1159 0 
L 581 0 
L 581 3500 
L 1159 3500 
L 1159 2956 
Q 1366 3272 1645 3428 
Q 1925 3584 2291 3584 
Q 2894 3584 3203 3211 
Q 3513 2838 3513 2113 
z
" transform="scale(0.015625)"/>
       <path id="DejaVuSans-66" d="M 2375 4863 
L 2375 4384 
L 1825 4384 
Q 1516 4384 1395 4259 
Q 1275 4134 1275 3809 
L 1275 3500 
L 2222 3500 
L 2222 3053 
L 1275 3053 
L 1275 0 
L 697 0 
L 697 3053 
L 147 3053 
L 147 3500 
L 697 3500 
L 697 3744 
Q 697 4328 969 4595 
Q 1241 4863 1831 4863 
L 2375 4863 
z
" transform="scale(0.015625)"/>
      </defs>
      <use xlink:href="#DejaVuSans-4d"/>
      <use xlink:href="#DejaVuSans-6f" x="86.279297"/>
      <use xlink:href="#DejaVuSans-76" x="147.460938"/>
      <use xlink:href="#DejaVuSans-69" x="206.640625"/>
      <use xlink:href="#DejaVuSans-6e" x="234.423828"/>
      <use xlink:href="#DejaVuSans-67" x="297.802734"/>
      <use xlink:href="#DejaVuSans-20" x="361.279297"/>
      <use xlink:href="#DejaVuSans-61" x="393.066406"/>
      <use xlink:href="#DejaVuSans-76" x="454.345703"/>
      <use xlink:href="#DejaVuSans-65" x="513.525391"/>
      <use xlink:href="#DejaVuSans-72" x="575.048828"/>
      <use xlink:href="#DejaVuSans-61" x="616.162109"/>
      <use xlink:href="#DejaVuSans-67" x="677.441406"/>
      <use xlink:href="#DejaVuSans-65" x="740.917969"/>
      <use xlink:href="#DejaVuSans-20" x="802.441406"/>
      <use xlink:href="#DejaVuSans-6f" x="834.228516"/>
      <use xlink:href="#DejaVuSans-66" x="895.410156"/>
      <use xlink:href="#DejaVuSans-20" x="930.615234"/>
      <use xlink:href="#DejaVuSans-73" x="962.402344"/>
      <use xlink:href="#DejaVuSans-63" x="1014.501953"/>
      <use xlink:href="#DejaVuSans-6f" x="1069.482422"/>
      <use xlink:href="#DejaVuSans-72" x="1130.664062"/>
      <use xlink:href="#DejaVuSans-65" x="1169.527344"/>
      <use xlink:href="#DejaVuSans-73" x="1231.050781"/>
     </g>
    </g>
    <g id="line2d_19">
     <path d="M 295.50625 71.254687 
L 305.50625 71.254687 
L 315.50625 71.254687 
" style="fill: none; stroke-dasharray: 5.55,2.4; stroke-dashoffset: 0; stroke: #008000; stroke-width: 1.5"/>
    </g>
    <g id="text_19">
     <!-- Game Solved -->
     <g transform="translate(323.50625 74.754687)scale(0.1 -0.1)">
      <defs>
       <path id="DejaVuSans-47" d="M 3809 666 
L 3809 1919 
L 2778 1919 
L 2778 2438 
L 4434 2438 
L 4434 434 
Q 4069 175 3628 42 
Q 3188 -91 2688 -91 
Q 1594 -91 976 548 
Q 359 1188 359 2328 
Q 359 3472 976 4111 
Q 1594 4750 2688 4750 
Q 3144 4750 3555 4637 
Q 3966 4525 4313 4306 
L 4313 3634 
Q 3963 3931 3569 4081 
Q 3175 4231 2741 4231 
Q 1884 4231 1454 3753 
Q 1025 3275 1025 2328 
Q 1025 1384 1454 906 
Q 1884 428 2741 428 
Q 3075 428 3337 486 
Q 3600 544 3809 666 
z
" transform="scale(0.015625)"/>
      </defs>
      <use xlink:href="#DejaVuSans-47"/>
      <use xlink:href="#DejaVuSans-61" x="77.490234"/>
      <use xlink:href="#DejaVuSans-6d" x="138.769531"/>
      <use xlink:href="#DejaVuSans-65" x="236.181641"/>
      <use xlink:href="#DejaVuSans-20" x="297.705078"/>
      <use xlink:href="#DejaVuSans-53" x="329.492188"/>
      <use xlink:href="#DejaVuSans-6f" x="392.96875"/>
      <use xlink:href="#DejaVuSans-6c" x="454.150391"/>
      <use xlink:href="#DejaVuSans-76" x="481.933594"/>
      <use xlink:href="#DejaVuSans-65" x="541.113281"/>
      <use xlink:href="#DejaVuSans-64" x="602.636719"/>
     </g>
    </g>
   </g>
  </g>
  <g id="axes_2">
   <g id="matplotlib.axis_3">
    <g id="ytick_8">
     <g id="line2d_20">
      <defs>
       <path id="md41f6e6a95" d="M 0 0 
L 3.5 0 
" style="stroke: #000000; stroke-width: 0.8"/>
      </defs>
      <g>
       <use xlink:href="#md41f6e6a95" x="460.825" y="300.356157" style="stroke: #000000; stroke-width: 0.8"/>
      </g>
     </g>
     <g id="text_20">
      <!-- 0 -->
      <g transform="translate(467.825 304.155376)scale(0.1 -0.1)">
       <use xlink:href="#DejaVuSans-30"/>
      </g>
     </g>
    </g>
    <g id="ytick_9">
     <g id="line2d_21">
      <g>
       <use xlink:href="#md41f6e6a95" x="460.825" y="248.63038" style="stroke: #000000; stroke-width: 0.8"/>
      </g>
     </g>
     <g id="text_21">
      <!-- 1 -->
      <g transform="translate(467.825 252.429599)scale(0.1 -0.1)">
       <use xlink:href="#DejaVuSans-31"/>
      </g>
     </g>
    </g>
    <g id="ytick_10">
     <g id="line2d_22">
      <g>
       <use xlink:href="#md41f6e6a95" x="460.825" y="196.904603" style="stroke: #000000; stroke-width: 0.8"/>
      </g>
     </g>
     <g id="text_22">
      <!-- 2 -->
      <g transform="translate(467.825 200.703822)scale(0.1 -0.1)">
       <use xlink:href="#DejaVuSans-32"/>
      </g>
     </g>
    </g>
    <g id="ytick_11">
     <g id="line2d_23">
      <g>
       <use xlink:href="#md41f6e6a95" x="460.825" y="145.178827" style="stroke: #000000; stroke-width: 0.8"/>
      </g>
     </g>
     <g id="text_23">
      <!-- 3 -->
      <g transform="translate(467.825 148.978045)scale(0.1 -0.1)">
       <use xlink:href="#DejaVuSans-33"/>
      </g>
     </g>
    </g>
    <g id="ytick_12">
     <g id="line2d_24">
      <g>
       <use xlink:href="#md41f6e6a95" x="460.825" y="93.45305" style="stroke: #000000; stroke-width: 0.8"/>
      </g>
     </g>
     <g id="text_24">
      <!-- 4 -->
      <g transform="translate(467.825 97.252268)scale(0.1 -0.1)">
       <use xlink:href="#DejaVuSans-34"/>
      </g>
     </g>
    </g>
    <g id="ytick_13">
     <g id="line2d_25">
      <g>
       <use xlink:href="#md41f6e6a95" x="460.825" y="41.727273" style="stroke: #000000; stroke-width: 0.8"/>
      </g>
     </g>
     <g id="text_25">
      <!-- 5 -->
      <g transform="translate(467.825 45.526491)scale(0.1 -0.1)">
       <use xlink:href="#DejaVuSans-35"/>
      </g>
     </g>
    </g>
    <g id="text_26">
     <!-- Temperature -->
     <g transform="translate(489.585156 218.504297)rotate(-90)scale(0.15 -0.15)">
      <defs>
       <path id="DejaVuSans-54" d="M -19 4666 
L 3928 4666 
L 3928 4134 
L 2272 4134 
L 2272 0 
L 1638 0 
L 1638 4134 
L -19 4134 
L -19 4666 
z
" transform="scale(0.015625)"/>
       <path id="DejaVuSans-74" d="M 1172 4494 
L 1172 3500 
L 2356 3500 
L 2356 3053 
L 1172 3053 
L 1172 1153 
Q 1172 725 1289 603 
Q 1406 481 1766 481 
L 2356 481 
L 2356 0 
L 1766 0 
Q 1100 0 847 248 
Q 594 497 594 1153 
L 594 3053 
L 172 3053 
L 172 3500 
L 594 3500 
L 594 4494 
L 1172 4494 
z
" transform="scale(0.015625)"/>
       <path id="DejaVuSans-75" d="M 544 1381 
L 544 3500 
L 1119 3500 
L 1119 1403 
Q 1119 906 1312 657 
Q 1506 409 1894 409 
Q 2359 409 2629 706 
Q 2900 1003 2900 1516 
L 2900 3500 
L 3475 3500 
L 3475 0 
L 2900 0 
L 2900 538 
Q 2691 219 2414 64 
Q 2138 -91 1772 -91 
Q 1169 -91 856 284 
Q 544 659 544 1381 
z
M 1991 3584 
L 1991 3584 
z
" transform="scale(0.015625)"/>
      </defs>
      <use xlink:href="#DejaVuSans-54"/>
      <use xlink:href="#DejaVuSans-65" x="44.083984"/>
      <use xlink:href="#DejaVuSans-6d" x="105.607422"/>
      <use xlink:href="#DejaVuSans-70" x="203.019531"/>
      <use xlink:href="#DejaVuSans-65" x="266.496094"/>
      <use xlink:href="#DejaVuSans-72" x="328.019531"/>
      <use xlink:href="#DejaVuSans-61" x="369.132812"/>
      <use xlink:href="#DejaVuSans-74" x="430.412109"/>
      <use xlink:href="#DejaVuSans-75" x="469.621094"/>
      <use xlink:href="#DejaVuSans-72" x="533"/>
      <use xlink:href="#DejaVuSans-65" x="571.863281"/>
     </g>
    </g>
   </g>
   <g id="line2d_26">
    <path d="M 74.329545 41.727273 
L 77.64568 59.796179 
L 80.961814 76.602714 
L 84.277948 92.235075 
L 87.594083 106.775292 
L 90.910217 120.299669 
L 94.226351 132.879175 
L 97.542486 144.579825 
L 100.85862 155.463017 
L 104.174754 165.585863 
L 107.490889 175.001485 
L 110.807023 183.759292 
L 114.123157 191.905241 
L 117.439292 199.48208 
L 120.755426 206.529569 
L 124.07156 213.084691 
L 127.387695 219.181844 
L 130.703829 224.853024 
L 134.019963 230.127992 
L 137.704557 235.557975 
L 141.389151 240.568116 
L 145.073744 245.190878 
L 148.758338 249.456211 
L 152.442932 253.391752 
L 156.127525 257.023001 
L 160.180578 260.693942 
L 164.233631 264.053901 
L 168.286684 267.129223 
L 172.339737 269.944021 
L 176.76125 272.743467 
L 181.182762 275.285223 
L 185.972734 277.775454 
L 190.762706 280.018336 
L 195.921137 282.185254 
L 201.448028 284.251415 
L 206.974918 286.082639 
L 212.870268 287.807033 
L 219.134077 289.41153 
L 225.766346 290.887385 
L 233.135533 292.295013 
L 240.87318 293.548388 
L 249.347745 294.698674 
L 258.927689 295.766744 
L 269.613011 296.721977 
L 281.403711 297.547031 
L 295.036707 298.270409 
L 310.88046 298.880507 
L 330.040347 299.385086 
L 353.990206 299.780603 
L 385.677712 300.068067 
L 432.840511 300.253311 
L 442.420455 300.272727 
L 442.420455 300.272727 
" clip-path="url(#pc5b0f6eb4f)" style="fill: none; stroke: #ff0000; stroke-width: 1.5; stroke-linecap: square"/>
   </g>
   <g id="patch_8">
    <path d="M 55.925 313.2 
L 55.925 28.8 
" style="fill: none; stroke: #000000; stroke-width: 0.8; stroke-linejoin: miter; stroke-linecap: square"/>
   </g>
   <g id="patch_9">
    <path d="M 460.825 313.2 
L 460.825 28.8 
" style="fill: none; stroke: #000000; stroke-width: 0.8; stroke-linejoin: miter; stroke-linecap: square"/>
   </g>
   <g id="patch_10">
    <path d="M 55.925 313.2 
L 460.825 313.2 
" style="fill: none; stroke: #000000; stroke-width: 0.8; stroke-linejoin: miter; stroke-linecap: square"/>
   </g>
   <g id="patch_11">
    <path d="M 55.925 28.8 
L 460.825 28.8 
" style="fill: none; stroke: #000000; stroke-width: 0.8; stroke-linejoin: miter; stroke-linecap: square"/>
   </g>
   <g id="legend_2">
    <g id="patch_12">
     <path d="M 62.925 51.478125 
L 158.264063 51.478125 
Q 160.264063 51.478125 160.264063 49.478125 
L 160.264063 35.8 
Q 160.264063 33.8 158.264063 33.8 
L 62.925 33.8 
Q 60.925 33.8 60.925 35.8 
L 60.925 49.478125 
Q 60.925 51.478125 62.925 51.478125 
z
" style="fill: #ffffff; opacity: 0.8; stroke: #cccccc; stroke-linejoin: miter"/>
    </g>
    <g id="line2d_27">
     <path d="M 64.925 41.898438 
L 74.925 41.898438 
L 84.925 41.898438 
" style="fill: none; stroke: #ff0000; stroke-width: 1.5; stroke-linecap: square"/>
    </g>
    <g id="text_27">
     <!-- Temperature -->
     <g transform="translate(92.925 45.398438)scale(0.1 -0.1)">
      <use xlink:href="#DejaVuSans-54"/>
      <use xlink:href="#DejaVuSans-65" x="44.083984"/>
      <use xlink:href="#DejaVuSans-6d" x="105.607422"/>
      <use xlink:href="#DejaVuSans-70" x="203.019531"/>
      <use xlink:href="#DejaVuSans-65" x="266.496094"/>
      <use xlink:href="#DejaVuSans-72" x="328.019531"/>
      <use xlink:href="#DejaVuSans-61" x="369.132812"/>
      <use xlink:href="#DejaVuSans-74" x="430.412109"/>
      <use xlink:href="#DejaVuSans-75" x="469.621094"/>
      <use xlink:href="#DejaVuSans-72" x="533"/>
      <use xlink:href="#DejaVuSans-65" x="571.863281"/>
     </g>
    </g>
   </g>
  </g>
 </g>
 <defs>
  <clipPath id="pc5b0f6eb4f">
   <rect x="55.925" y="28.8" width="404.9" height="284.4"/>
  </clipPath>
 </defs>
</svg>
