<?xml version="1.0" encoding="utf-8" standalone="no"?>
<!DOCTYPE svg PUBLIC "-//W3C//DTD SVG 1.1//EN"
  "http://www.w3.org/Graphics/SVG/1.1/DTD/svg11.dtd">
<svg xmlns:xlink="http://www.w3.org/1999/xlink" width="504pt" height="360pt" viewBox="0 0 504 360" xmlns="http://www.w3.org/2000/svg" version="1.1">
 <metadata>
  <rdf:RDF xmlns:dc="http://purl.org/dc/elements/1.1/" xmlns:cc="http://creativecommons.org/ns#" xmlns:rdf="http://www.w3.org/1999/02/22-rdf-syntax-ns#">
   <cc:Work>
    <dc:type rdf:resource="http://purl.org/dc/dcmitype/StillImage"/>
    <dc:date>2022-07-28T20:50:49.281585</dc:date>
    <dc:format>image/svg+xml</dc:format>
    <dc:creator>
     <cc:Agent>
      <dc:title>Matplotlib v3.5.1, https://matplotlib.org/</dc:title>
     </cc:Agent>
    </dc:creator>
   </cc:Work>
  </rdf:RDF>
 </metadata>
 <defs>
  <style type="text/css">*{stroke-linejoin: round; stroke-linecap: butt}</style>
 </defs>
 <g id="figure_1">
  <g id="patch_1">
   <path d="M 0 360 
L 504 360 
L 504 0 
L 0 0 
L 0 360 
z
" style="fill: none"/>
  </g>
  <g id="axes_1">
   <g id="patch_2">
    <path d="M 55.925 313.2 
L 460.825 313.2 
L 460.825 28.8 
L 55.925 28.8 
z
" style="fill: #ffffff"/>
   </g>
   <g id="matplotlib.axis_1">
    <g id="xtick_1">
     <g id="line2d_1">
      <defs>
       <path id="md8871db843" d="M 0 0 
L 0 3.5 
" style="stroke: #000000; stroke-width: 0.8"/>
      </defs>
      <g>
       <use xlink:href="#md8871db843" x="74.329545" y="313.2" style="stroke: #000000; stroke-width: 0.8"/>
      </g>
     </g>
     <g id="text_1">
      <!-- 0 -->
      <g transform="translate(71.148295 327.798437)scale(0.1 -0.1)">
       <defs>
        <path id="DejaVuSans-30" d="M 2034 4250 
Q 1547 4250 1301 3770 
Q 1056 3291 1056 2328 
Q 1056 1369 1301 889 
Q 1547 409 2034 409 
Q 2525 409 2770 889 
Q 3016 1369 3016 2328 
Q 3016 3291 2770 3770 
Q 2525 4250 2034 4250 
z
M 2034 4750 
Q 2819 4750 3233 4129 
Q 3647 3509 3647 2328 
Q 3647 1150 3233 529 
Q 2819 -91 2034 -91 
Q 1250 -91 836 529 
Q 422 1150 422 2328 
Q 422 3509 836 4129 
Q 1250 4750 2034 4750 
z
" transform="scale(0.015625)"/>
       </defs>
       <use xlink:href="#DejaVuSans-30"/>
      </g>
     </g>
    </g>
    <g id="xtick_2">
     <g id="line2d_2">
      <g>
       <use xlink:href="#md8871db843" x="148.021419" y="313.2" style="stroke: #000000; stroke-width: 0.8"/>
      </g>
     </g>
     <g id="text_2">
      <!-- 200 -->
      <g transform="translate(138.477669 327.798437)scale(0.1 -0.1)">
       <defs>
        <path id="DejaVuSans-32" d="M 1228 531 
L 3431 531 
L 3431 0 
L 469 0 
L 469 531 
Q 828 903 1448 1529 
Q 2069 2156 2228 2338 
Q 2531 2678 2651 2914 
Q 2772 3150 2772 3378 
Q 2772 3750 2511 3984 
Q 2250 4219 1831 4219 
Q 1534 4219 1204 4116 
Q 875 4013 500 3803 
L 500 4441 
Q 881 4594 1212 4672 
Q 1544 4750 1819 4750 
Q 2544 4750 2975 4387 
Q 3406 4025 3406 3419 
Q 3406 3131 3298 2873 
Q 3191 2616 2906 2266 
Q 2828 2175 2409 1742 
Q 1991 1309 1228 531 
z
" transform="scale(0.015625)"/>
       </defs>
       <use xlink:href="#DejaVuSans-32"/>
       <use xlink:href="#DejaVuSans-30" x="63.623047"/>
       <use xlink:href="#DejaVuSans-30" x="127.246094"/>
      </g>
     </g>
    </g>
    <g id="xtick_3">
     <g id="line2d_3">
      <g>
       <use xlink:href="#md8871db843" x="221.713293" y="313.2" style="stroke: #000000; stroke-width: 0.8"/>
      </g>
     </g>
     <g id="text_3">
      <!-- 400 -->
      <g transform="translate(212.169543 327.798437)scale(0.1 -0.1)">
       <defs>
        <path id="DejaVuSans-34" d="M 2419 4116 
L 825 1625 
L 2419 1625 
L 2419 4116 
z
M 2253 4666 
L 3047 4666 
L 3047 1625 
L 3713 1625 
L 3713 1100 
L 3047 1100 
L 3047 0 
L 2419 0 
L 2419 1100 
L 313 1100 
L 313 1709 
L 2253 4666 
z
" transform="scale(0.015625)"/>
       </defs>
       <use xlink:href="#DejaVuSans-34"/>
       <use xlink:href="#DejaVuSans-30" x="63.623047"/>
       <use xlink:href="#DejaVuSans-30" x="127.246094"/>
      </g>
     </g>
    </g>
    <g id="xtick_4">
     <g id="line2d_4">
      <g>
       <use xlink:href="#md8871db843" x="295.405167" y="313.2" style="stroke: #000000; stroke-width: 0.8"/>
      </g>
     </g>
     <g id="text_4">
      <!-- 600 -->
      <g transform="translate(285.861417 327.798437)scale(0.1 -0.1)">
       <defs>
        <path id="DejaVuSans-36" d="M 2113 2584 
Q 1688 2584 1439 2293 
Q 1191 2003 1191 1497 
Q 1191 994 1439 701 
Q 1688 409 2113 409 
Q 2538 409 2786 701 
Q 3034 994 3034 1497 
Q 3034 2003 2786 2293 
Q 2538 2584 2113 2584 
z
M 3366 4563 
L 3366 3988 
Q 3128 4100 2886 4159 
Q 2644 4219 2406 4219 
Q 1781 4219 1451 3797 
Q 1122 3375 1075 2522 
Q 1259 2794 1537 2939 
Q 1816 3084 2150 3084 
Q 2853 3084 3261 2657 
Q 3669 2231 3669 1497 
Q 3669 778 3244 343 
Q 2819 -91 2113 -91 
Q 1303 -91 875 529 
Q 447 1150 447 2328 
Q 447 3434 972 4092 
Q 1497 4750 2381 4750 
Q 2619 4750 2861 4703 
Q 3103 4656 3366 4563 
z
" transform="scale(0.015625)"/>
       </defs>
       <use xlink:href="#DejaVuSans-36"/>
       <use xlink:href="#DejaVuSans-30" x="63.623047"/>
       <use xlink:href="#DejaVuSans-30" x="127.246094"/>
      </g>
     </g>
    </g>
    <g id="xtick_5">
     <g id="line2d_5">
      <g>
       <use xlink:href="#md8871db843" x="369.09704" y="313.2" style="stroke: #000000; stroke-width: 0.8"/>
      </g>
     </g>
     <g id="text_5">
      <!-- 800 -->
      <g transform="translate(359.55329 327.798437)scale(0.1 -0.1)">
       <defs>
        <path id="DejaVuSans-38" d="M 2034 2216 
Q 1584 2216 1326 1975 
Q 1069 1734 1069 1313 
Q 1069 891 1326 650 
Q 1584 409 2034 409 
Q 2484 409 2743 651 
Q 3003 894 3003 1313 
Q 3003 1734 2745 1975 
Q 2488 2216 2034 2216 
z
M 1403 2484 
Q 997 2584 770 2862 
Q 544 3141 544 3541 
Q 544 4100 942 4425 
Q 1341 4750 2034 4750 
Q 2731 4750 3128 4425 
Q 3525 4100 3525 3541 
Q 3525 3141 3298 2862 
Q 3072 2584 2669 2484 
Q 3125 2378 3379 2068 
Q 3634 1759 3634 1313 
Q 3634 634 3220 271 
Q 2806 -91 2034 -91 
Q 1263 -91 848 271 
Q 434 634 434 1313 
Q 434 1759 690 2068 
Q 947 2378 1403 2484 
z
M 1172 3481 
Q 1172 3119 1398 2916 
Q 1625 2713 2034 2713 
Q 2441 2713 2670 2916 
Q 2900 3119 2900 3481 
Q 2900 3844 2670 4047 
Q 2441 4250 2034 4250 
Q 1625 4250 1398 4047 
Q 1172 3844 1172 3481 
z
" transform="scale(0.015625)"/>
       </defs>
       <use xlink:href="#DejaVuSans-38"/>
       <use xlink:href="#DejaVuSans-30" x="63.623047"/>
       <use xlink:href="#DejaVuSans-30" x="127.246094"/>
      </g>
     </g>
    </g>
    <g id="xtick_6">
     <g id="line2d_6">
      <g>
       <use xlink:href="#md8871db843" x="442.788914" y="313.2" style="stroke: #000000; stroke-width: 0.8"/>
      </g>
     </g>
     <g id="text_6">
      <!-- 1000 -->
      <g transform="translate(430.063914 327.798437)scale(0.1 -0.1)">
       <defs>
        <path id="DejaVuSans-31" d="M 794 531 
L 1825 531 
L 1825 4091 
L 703 3866 
L 703 4441 
L 1819 4666 
L 2450 4666 
L 2450 531 
L 3481 531 
L 3481 0 
L 794 0 
L 794 531 
z
" transform="scale(0.015625)"/>
       </defs>
       <use xlink:href="#DejaVuSans-31"/>
       <use xlink:href="#DejaVuSans-30" x="63.623047"/>
       <use xlink:href="#DejaVuSans-30" x="127.246094"/>
       <use xlink:href="#DejaVuSans-30" x="190.869141"/>
      </g>
     </g>
    </g>
    <g id="text_7">
     <!-- Episode -->
     <g transform="translate(228.91875 345.275781)scale(0.15 -0.15)">
      <defs>
       <path id="DejaVuSans-45" d="M 628 4666 
L 3578 4666 
L 3578 4134 
L 1259 4134 
L 1259 2753 
L 3481 2753 
L 3481 2222 
L 1259 2222 
L 1259 531 
L 3634 531 
L 3634 0 
L 628 0 
L 628 4666 
z
" transform="scale(0.015625)"/>
       <path id="DejaVuSans-70" d="M 1159 525 
L 1159 -1331 
L 581 -1331 
L 581 3500 
L 1159 3500 
L 1159 2969 
Q 1341 3281 1617 3432 
Q 1894 3584 2278 3584 
Q 2916 3584 3314 3078 
Q 3713 2572 3713 1747 
Q 3713 922 3314 415 
Q 2916 -91 2278 -91 
Q 1894 -91 1617 61 
Q 1341 213 1159 525 
z
M 3116 1747 
Q 3116 2381 2855 2742 
Q 2594 3103 2138 3103 
Q 1681 3103 1420 2742 
Q 1159 2381 1159 1747 
Q 1159 1113 1420 752 
Q 1681 391 2138 391 
Q 2594 391 2855 752 
Q 3116 1113 3116 1747 
z
" transform="scale(0.015625)"/>
       <path id="DejaVuSans-69" d="M 603 3500 
L 1178 3500 
L 1178 0 
L 603 0 
L 603 3500 
z
M 603 4863 
L 1178 4863 
L 1178 4134 
L 603 4134 
L 603 4863 
z
" transform="scale(0.015625)"/>
       <path id="DejaVuSans-73" d="M 2834 3397 
L 2834 2853 
Q 2591 2978 2328 3040 
Q 2066 3103 1784 3103 
Q 1356 3103 1142 2972 
Q 928 2841 928 2578 
Q 928 2378 1081 2264 
Q 1234 2150 1697 2047 
L 1894 2003 
Q 2506 1872 2764 1633 
Q 3022 1394 3022 966 
Q 3022 478 2636 193 
Q 2250 -91 1575 -91 
Q 1294 -91 989 -36 
Q 684 19 347 128 
L 347 722 
Q 666 556 975 473 
Q 1284 391 1588 391 
Q 1994 391 2212 530 
Q 2431 669 2431 922 
Q 2431 1156 2273 1281 
Q 2116 1406 1581 1522 
L 1381 1569 
Q 847 1681 609 1914 
Q 372 2147 372 2553 
Q 372 3047 722 3315 
Q 1072 3584 1716 3584 
Q 2034 3584 2315 3537 
Q 2597 3491 2834 3397 
z
" transform="scale(0.015625)"/>
       <path id="DejaVuSans-6f" d="M 1959 3097 
Q 1497 3097 1228 2736 
Q 959 2375 959 1747 
Q 959 1119 1226 758 
Q 1494 397 1959 397 
Q 2419 397 2687 759 
Q 2956 1122 2956 1747 
Q 2956 2369 2687 2733 
Q 2419 3097 1959 3097 
z
M 1959 3584 
Q 2709 3584 3137 3096 
Q 3566 2609 3566 1747 
Q 3566 888 3137 398 
Q 2709 -91 1959 -91 
Q 1206 -91 779 398 
Q 353 888 353 1747 
Q 353 2609 779 3096 
Q 1206 3584 1959 3584 
z
" transform="scale(0.015625)"/>
       <path id="DejaVuSans-64" d="M 2906 2969 
L 2906 4863 
L 3481 4863 
L 3481 0 
L 2906 0 
L 2906 525 
Q 2725 213 2448 61 
Q 2172 -91 1784 -91 
Q 1150 -91 751 415 
Q 353 922 353 1747 
Q 353 2572 751 3078 
Q 1150 3584 1784 3584 
Q 2172 3584 2448 3432 
Q 2725 3281 2906 2969 
z
M 947 1747 
Q 947 1113 1208 752 
Q 1469 391 1925 391 
Q 2381 391 2643 752 
Q 2906 1113 2906 1747 
Q 2906 2381 2643 2742 
Q 2381 3103 1925 3103 
Q 1469 3103 1208 2742 
Q 947 2381 947 1747 
z
" transform="scale(0.015625)"/>
       <path id="DejaVuSans-65" d="M 3597 1894 
L 3597 1613 
L 953 1613 
Q 991 1019 1311 708 
Q 1631 397 2203 397 
Q 2534 397 2845 478 
Q 3156 559 3463 722 
L 3463 178 
Q 3153 47 2828 -22 
Q 2503 -91 2169 -91 
Q 1331 -91 842 396 
Q 353 884 353 1716 
Q 353 2575 817 3079 
Q 1281 3584 2069 3584 
Q 2775 3584 3186 3129 
Q 3597 2675 3597 1894 
z
M 3022 2063 
Q 3016 2534 2758 2815 
Q 2500 3097 2075 3097 
Q 1594 3097 1305 2825 
Q 1016 2553 972 2059 
L 3022 2063 
z
" transform="scale(0.015625)"/>
      </defs>
      <use xlink:href="#DejaVuSans-45"/>
      <use xlink:href="#DejaVuSans-70" x="63.183594"/>
      <use xlink:href="#DejaVuSans-69" x="126.660156"/>
      <use xlink:href="#DejaVuSans-73" x="154.443359"/>
      <use xlink:href="#DejaVuSans-6f" x="206.542969"/>
      <use xlink:href="#DejaVuSans-64" x="267.724609"/>
      <use xlink:href="#DejaVuSans-65" x="331.201172"/>
     </g>
    </g>
   </g>
   <g id="matplotlib.axis_2">
    <g id="ytick_1">
     <g id="line2d_7">
      <defs>
       <path id="m8fc08dcf0e" d="M 0 0 
L -3.5 0 
" style="stroke: #000000; stroke-width: 0.8"/>
      </defs>
      <g>
       <use xlink:href="#m8fc08dcf0e" x="55.925" y="313.2" style="stroke: #000000; stroke-width: 0.8"/>
      </g>
     </g>
     <g id="text_8">
      <!-- 0 -->
      <g transform="translate(42.5625 316.999219)scale(0.1 -0.1)">
       <use xlink:href="#DejaVuSans-30"/>
      </g>
     </g>
    </g>
    <g id="ytick_2">
     <g id="line2d_8">
      <g>
       <use xlink:href="#m8fc08dcf0e" x="55.925" y="269.446154" style="stroke: #000000; stroke-width: 0.8"/>
      </g>
     </g>
     <g id="text_9">
      <!-- 100 -->
      <g transform="translate(29.8375 273.245373)scale(0.1 -0.1)">
       <use xlink:href="#DejaVuSans-31"/>
       <use xlink:href="#DejaVuSans-30" x="63.623047"/>
       <use xlink:href="#DejaVuSans-30" x="127.246094"/>
      </g>
     </g>
    </g>
    <g id="ytick_3">
     <g id="line2d_9">
      <g>
       <use xlink:href="#m8fc08dcf0e" x="55.925" y="225.692308" style="stroke: #000000; stroke-width: 0.8"/>
      </g>
     </g>
     <g id="text_10">
      <!-- 200 -->
      <g transform="translate(29.8375 229.491526)scale(0.1 -0.1)">
       <use xlink:href="#DejaVuSans-32"/>
       <use xlink:href="#DejaVuSans-30" x="63.623047"/>
       <use xlink:href="#DejaVuSans-30" x="127.246094"/>
      </g>
     </g>
    </g>
    <g id="ytick_4">
     <g id="line2d_10">
      <g>
       <use xlink:href="#m8fc08dcf0e" x="55.925" y="181.938462" style="stroke: #000000; stroke-width: 0.8"/>
      </g>
     </g>
     <g id="text_11">
      <!-- 300 -->
      <g transform="translate(29.8375 185.73768)scale(0.1 -0.1)">
       <defs>
        <path id="DejaVuSans-33" d="M 2597 2516 
Q 3050 2419 3304 2112 
Q 3559 1806 3559 1356 
Q 3559 666 3084 287 
Q 2609 -91 1734 -91 
Q 1441 -91 1130 -33 
Q 819 25 488 141 
L 488 750 
Q 750 597 1062 519 
Q 1375 441 1716 441 
Q 2309 441 2620 675 
Q 2931 909 2931 1356 
Q 2931 1769 2642 2001 
Q 2353 2234 1838 2234 
L 1294 2234 
L 1294 2753 
L 1863 2753 
Q 2328 2753 2575 2939 
Q 2822 3125 2822 3475 
Q 2822 3834 2567 4026 
Q 2313 4219 1838 4219 
Q 1578 4219 1281 4162 
Q 984 4106 628 3988 
L 628 4550 
Q 988 4650 1302 4700 
Q 1616 4750 1894 4750 
Q 2613 4750 3031 4423 
Q 3450 4097 3450 3541 
Q 3450 3153 3228 2886 
Q 3006 2619 2597 2516 
z
" transform="scale(0.015625)"/>
       </defs>
       <use xlink:href="#DejaVuSans-33"/>
       <use xlink:href="#DejaVuSans-30" x="63.623047"/>
       <use xlink:href="#DejaVuSans-30" x="127.246094"/>
      </g>
     </g>
    </g>
    <g id="ytick_5">
     <g id="line2d_11">
      <g>
       <use xlink:href="#m8fc08dcf0e" x="55.925" y="138.184615" style="stroke: #000000; stroke-width: 0.8"/>
      </g>
     </g>
     <g id="text_12">
      <!-- 400 -->
      <g transform="translate(29.8375 141.983834)scale(0.1 -0.1)">
       <use xlink:href="#DejaVuSans-34"/>
       <use xlink:href="#DejaVuSans-30" x="63.623047"/>
       <use xlink:href="#DejaVuSans-30" x="127.246094"/>
      </g>
     </g>
    </g>
    <g id="ytick_6">
     <g id="line2d_12">
      <g>
       <use xlink:href="#m8fc08dcf0e" x="55.925" y="94.430769" style="stroke: #000000; stroke-width: 0.8"/>
      </g>
     </g>
     <g id="text_13">
      <!-- 500 -->
      <g transform="translate(29.8375 98.229988)scale(0.1 -0.1)">
       <defs>
        <path id="DejaVuSans-35" d="M 691 4666 
L 3169 4666 
L 3169 4134 
L 1269 4134 
L 1269 2991 
Q 1406 3038 1543 3061 
Q 1681 3084 1819 3084 
Q 2600 3084 3056 2656 
Q 3513 2228 3513 1497 
Q 3513 744 3044 326 
Q 2575 -91 1722 -91 
Q 1428 -91 1123 -41 
Q 819 9 494 109 
L 494 744 
Q 775 591 1075 516 
Q 1375 441 1709 441 
Q 2250 441 2565 725 
Q 2881 1009 2881 1497 
Q 2881 1984 2565 2268 
Q 2250 2553 1709 2553 
Q 1456 2553 1204 2497 
Q 953 2441 691 2322 
L 691 4666 
z
" transform="scale(0.015625)"/>
       </defs>
       <use xlink:href="#DejaVuSans-35"/>
       <use xlink:href="#DejaVuSans-30" x="63.623047"/>
       <use xlink:href="#DejaVuSans-30" x="127.246094"/>
      </g>
     </g>
    </g>
    <g id="ytick_7">
     <g id="line2d_13">
      <g>
       <use xlink:href="#m8fc08dcf0e" x="55.925" y="50.676923" style="stroke: #000000; stroke-width: 0.8"/>
      </g>
     </g>
     <g id="text_14">
      <!-- 600 -->
      <g transform="translate(29.8375 54.476142)scale(0.1 -0.1)">
       <use xlink:href="#DejaVuSans-36"/>
       <use xlink:href="#DejaVuSans-30" x="63.623047"/>
       <use xlink:href="#DejaVuSans-30" x="127.246094"/>
      </g>
     </g>
    </g>
    <g id="text_15">
     <!-- Score -->
     <g transform="translate(22.717969 192.003516)rotate(-90)scale(0.15 -0.15)">
      <defs>
       <path id="DejaVuSans-53" d="M 3425 4513 
L 3425 3897 
Q 3066 4069 2747 4153 
Q 2428 4238 2131 4238 
Q 1616 4238 1336 4038 
Q 1056 3838 1056 3469 
Q 1056 3159 1242 3001 
Q 1428 2844 1947 2747 
L 2328 2669 
Q 3034 2534 3370 2195 
Q 3706 1856 3706 1288 
Q 3706 609 3251 259 
Q 2797 -91 1919 -91 
Q 1588 -91 1214 -16 
Q 841 59 441 206 
L 441 856 
Q 825 641 1194 531 
Q 1563 422 1919 422 
Q 2459 422 2753 634 
Q 3047 847 3047 1241 
Q 3047 1584 2836 1778 
Q 2625 1972 2144 2069 
L 1759 2144 
Q 1053 2284 737 2584 
Q 422 2884 422 3419 
Q 422 4038 858 4394 
Q 1294 4750 2059 4750 
Q 2388 4750 2728 4690 
Q 3069 4631 3425 4513 
z
" transform="scale(0.015625)"/>
       <path id="DejaVuSans-63" d="M 3122 3366 
L 3122 2828 
Q 2878 2963 2633 3030 
Q 2388 3097 2138 3097 
Q 1578 3097 1268 2742 
Q 959 2388 959 1747 
Q 959 1106 1268 751 
Q 1578 397 2138 397 
Q 2388 397 2633 464 
Q 2878 531 3122 666 
L 3122 134 
Q 2881 22 2623 -34 
Q 2366 -91 2075 -91 
Q 1284 -91 818 406 
Q 353 903 353 1747 
Q 353 2603 823 3093 
Q 1294 3584 2113 3584 
Q 2378 3584 2631 3529 
Q 2884 3475 3122 3366 
z
" transform="scale(0.015625)"/>
       <path id="DejaVuSans-72" d="M 2631 2963 
Q 2534 3019 2420 3045 
Q 2306 3072 2169 3072 
Q 1681 3072 1420 2755 
Q 1159 2438 1159 1844 
L 1159 0 
L 581 0 
L 581 3500 
L 1159 3500 
L 1159 2956 
Q 1341 3275 1631 3429 
Q 1922 3584 2338 3584 
Q 2397 3584 2469 3576 
Q 2541 3569 2628 3553 
L 2631 2963 
z
" transform="scale(0.015625)"/>
      </defs>
      <use xlink:href="#DejaVuSans-53"/>
      <use xlink:href="#DejaVuSans-63" x="63.476562"/>
      <use xlink:href="#DejaVuSans-6f" x="118.457031"/>
      <use xlink:href="#DejaVuSans-72" x="179.638672"/>
      <use xlink:href="#DejaVuSans-65" x="218.501953"/>
     </g>
    </g>
   </g>
   <g id="line2d_14">
    <path d="M 74.329545 307.512 
L 74.698005 305.324308 
L 75.066464 305.324308 
L 75.434924 307.074462 
L 75.803383 296.573538 
L 76.171842 290.448 
L 76.540302 292.635692 
L 76.908761 305.324308 
L 77.64568 295.260923 
L 78.014139 306.199385 
L 78.382599 307.512 
L 78.751058 305.761846 
L 79.119517 307.949538 
L 79.487977 302.699077 
L 79.856436 295.698462 
L 80.224895 303.136615 
L 80.593355 307.074462 
L 80.961814 304.449231 
L 81.330273 304.449231 
L 81.698733 307.074462 
L 82.067192 296.573538 
L 82.435652 304.886769 
L 82.804111 300.948923 
L 83.17257 288.260308 
L 83.54103 305.761846 
L 83.909489 300.511385 
L 84.277948 307.949538 
L 85.014867 300.073846 
L 85.383327 306.636923 
L 85.751786 307.074462 
L 86.120245 307.949538 
L 86.488705 300.948923 
L 86.857164 306.636923 
L 87.225623 304.449231 
L 87.594083 305.761846 
L 87.962542 297.886154 
L 88.331001 304.886769 
L 88.699461 308.824615 
L 89.06792 306.636923 
L 89.43638 300.511385 
L 89.804839 307.074462 
L 90.173298 307.074462 
L 90.541758 308.824615 
L 90.910217 298.761231 
L 91.278676 307.074462 
L 91.647136 309.262154 
L 92.015595 301.386462 
L 92.384055 290.010462 
L 92.752514 301.824 
L 93.120973 304.886769 
L 93.489433 306.636923 
L 93.857892 300.073846 
L 94.226351 307.074462 
L 94.594811 304.886769 
L 94.96327 304.449231 
L 95.331729 306.636923 
L 95.700189 305.761846 
L 96.068648 308.387077 
L 96.437108 306.636923 
L 96.805567 301.386462 
L 97.174026 308.387077 
L 97.542486 305.324308 
L 97.910945 295.698462 
L 98.279404 305.761846 
L 98.647864 296.573538 
L 99.016323 300.511385 
L 99.384783 308.387077 
L 99.753242 307.949538 
L 100.121701 303.574154 
L 100.490161 304.449231 
L 100.85862 308.387077 
L 101.227079 301.386462 
L 101.595539 301.386462 
L 101.963998 306.636923 
L 102.332457 306.199385 
L 102.700917 307.949538 
L 103.069376 303.136615 
L 103.437836 307.949538 
L 103.806295 299.636308 
L 104.174754 308.387077 
L 104.543214 308.387077 
L 104.911673 306.199385 
L 105.280132 302.699077 
L 105.648592 288.697846 
L 106.017051 307.074462 
L 106.385511 304.011692 
L 106.75397 307.512 
L 107.122429 304.011692 
L 107.490889 307.074462 
L 107.859348 304.011692 
L 108.227807 308.387077 
L 108.596267 306.636923 
L 108.964726 303.136615 
L 109.333185 304.449231 
L 109.701645 306.199385 
L 110.070104 297.886154 
L 110.438564 300.948923 
L 110.807023 308.824615 
L 111.175482 304.886769 
L 111.543942 307.512 
L 111.912401 306.199385 
L 112.28086 300.511385 
L 112.64932 306.636923 
L 113.017779 297.448615 
L 113.386239 306.199385 
L 113.754698 283.009846 
L 114.123157 307.512 
L 114.491617 307.949538 
L 114.860076 307.949538 
L 115.228535 300.511385 
L 115.596995 301.386462 
L 115.965454 297.886154 
L 116.333913 299.198769 
L 116.702373 304.886769 
L 117.070832 292.198154 
L 117.807751 307.512 
L 118.17621 307.949538 
L 118.54467 306.199385 
L 118.913129 306.199385 
L 119.281588 303.136615 
L 119.650048 302.699077 
L 120.018507 293.510769 
L 120.755426 307.949538 
L 121.123885 290.010462 
L 121.492345 307.949538 
L 122.229263 299.636308 
L 122.597723 299.198769 
L 122.966182 295.698462 
L 123.334641 301.824 
L 123.703101 302.699077 
L 124.07156 301.386462 
L 124.44002 307.074462 
L 124.808479 306.636923 
L 125.545398 303.136615 
L 125.913857 297.448615 
L 126.282316 300.511385 
L 126.650776 296.573538 
L 127.019235 294.823385 
L 127.387695 304.011692 
L 127.756154 299.636308 
L 128.124613 303.574154 
L 128.493073 309.262154 
L 128.861532 304.011692 
L 129.229991 302.699077 
L 129.598451 306.636923 
L 129.96691 304.886769 
L 130.335369 302.261538 
L 130.703829 307.074462 
L 131.440748 302.261538 
L 131.809207 308.387077 
L 132.177666 297.886154 
L 132.914585 307.074462 
L 133.651504 296.573538 
L 134.019963 297.886154 
L 134.388423 303.574154 
L 134.756882 304.886769 
L 135.125341 298.761231 
L 135.493801 304.011692 
L 135.86226 297.448615 
L 136.230719 307.949538 
L 136.599179 307.074462 
L 136.967638 304.449231 
L 137.336097 267.258462 
L 137.704557 302.261538 
L 138.073016 299.198769 
L 138.441476 303.574154 
L 138.809935 303.574154 
L 139.178394 305.761846 
L 139.546854 302.699077 
L 140.283772 305.324308 
L 140.652232 307.949538 
L 141.020691 302.699077 
L 141.389151 306.636923 
L 141.75761 302.699077 
L 142.126069 302.261538 
L 142.494529 296.136 
L 142.862988 297.448615 
L 143.231447 298.323692 
L 143.599907 304.886769 
L 143.968366 299.198769 
L 144.336825 304.011692 
L 144.705285 287.822769 
L 145.073744 303.136615 
L 145.442204 300.948923 
L 145.810663 304.886769 
L 146.179122 279.947077 
L 146.547582 308.387077 
L 146.916041 292.198154 
L 147.65296 307.949538 
L 148.021419 297.886154 
L 148.389879 307.512 
L 148.758338 294.385846 
L 149.495257 306.636923 
L 149.863716 306.636923 
L 150.600635 283.884923 
L 150.969094 290.448 
L 151.337553 304.449231 
L 151.706013 297.886154 
L 152.442932 283.009846 
L 152.811391 268.571077 
L 153.17985 304.886769 
L 153.54831 307.949538 
L 153.916769 301.386462 
L 154.285228 284.76 
L 154.653688 305.324308 
L 155.022147 304.449231 
L 155.390607 304.011692 
L 155.759066 304.011692 
L 156.495985 307.074462 
L 156.864444 308.387077 
L 157.232903 303.574154 
L 157.601363 295.698462 
L 157.969822 303.574154 
L 158.338281 302.699077 
L 158.706741 303.136615 
L 159.0752 298.761231 
L 159.44366 297.886154 
L 159.812119 306.199385 
L 160.180578 273.384 
L 160.549038 299.198769 
L 160.917497 306.636923 
L 161.285956 281.259692 
L 161.654416 305.324308 
L 162.022875 299.198769 
L 162.391335 284.322462 
L 162.759794 305.761846 
L 163.128253 304.011692 
L 163.496713 304.886769 
L 163.865172 301.386462 
L 164.233631 274.696615 
L 164.602091 279.947077 
L 164.97055 306.199385 
L 165.339009 283.009846 
L 165.707469 283.009846 
L 166.075928 304.449231 
L 166.444388 289.572923 
L 166.812847 300.948923 
L 167.549766 286.510154 
L 167.918225 254.132308 
L 168.286684 300.511385 
L 169.023603 291.323077 
L 169.392063 234.443077 
L 169.760522 294.823385 
L 170.128981 302.699077 
L 170.8659 262.883077 
L 171.234359 307.074462 
L 171.602819 289.135385 
L 171.971278 296.136 
L 172.339737 300.511385 
L 173.076656 240.568615 
L 173.445116 290.885538 
L 173.813575 298.761231 
L 174.182034 285.635077 
L 174.550494 239.256 
L 174.918953 283.009846 
L 175.287412 283.884923 
L 175.655872 306.636923 
L 176.024331 287.822769 
L 176.392791 303.574154 
L 176.76125 305.324308 
L 177.129709 273.821538 
L 177.498169 297.886154 
L 177.866628 304.011692 
L 178.235087 281.259692 
L 178.603547 267.258462 
L 178.972006 295.698462 
L 179.340465 306.636923 
L 179.708925 300.948923 
L 180.077384 301.824 
L 180.445844 290.885538 
L 180.814303 268.133538 
L 181.182762 275.571692 
L 181.551222 292.198154 
L 181.919681 272.071385 
L 182.28814 279.947077 
L 182.6566 301.386462 
L 183.025059 276.884308 
L 183.393519 273.821538 
L 183.761978 226.567385 
L 184.130437 294.823385 
L 184.498897 290.010462 
L 184.867356 272.946462 
L 185.235815 283.009846 
L 185.604275 303.136615 
L 185.972734 279.947077 
L 186.341193 279.509538 
L 186.709653 281.697231 
L 187.078112 258.507692 
L 187.446572 306.636923 
L 187.815031 215.191385 
L 188.18349 280.822154 
L 188.55195 279.072 
L 188.920409 261.132923 
L 189.288868 232.692923 
L 189.657328 266.820923 
L 190.025787 264.195692 
L 190.394247 276.884308 
L 190.762706 254.569846 
L 191.131165 277.321846 
L 191.499625 290.010462 
L 191.868084 287.822769 
L 192.236543 297.448615 
L 192.605003 253.257231 
L 192.973462 302.261538 
L 193.710381 278.196923 
L 194.07884 246.256615 
L 194.4473 267.696 
L 194.815759 281.697231 
L 195.184218 242.756308 
L 195.552678 254.569846 
L 195.921137 250.632 
L 196.289596 258.945231 
L 196.658056 207.315692 
L 197.026515 262.445538 
L 197.394975 214.753846 
L 197.763434 246.256615 
L 198.131893 241.881231 
L 198.500353 272.071385 
L 198.868812 266.383385 
L 199.237271 218.254154 
L 199.605731 274.696615 
L 199.97419 235.755692 
L 200.342649 246.256615 
L 200.711109 268.571077 
L 201.079568 265.945846 
L 201.816487 229.192615 
L 202.184946 200.315077 
L 202.921865 250.632 
L 203.290324 260.257846 
L 203.658784 277.759385 
L 204.027243 271.633846 
L 204.764162 222.629538 
L 205.132621 240.131077 
L 205.501081 224.817231 
L 205.86954 273.821538 
L 206.237999 265.508308 
L 206.606459 263.320615 
L 206.974918 280.384615 
L 207.343377 286.510154 
L 207.711837 231.817846 
L 208.080296 271.196308 
L 208.448756 260.695385 
L 208.817215 261.132923 
L 209.185674 271.633846 
L 209.554134 265.945846 
L 209.922593 247.569231 
L 210.291052 274.696615 
L 210.659512 261.570462 
L 211.027971 269.446154 
L 211.396431 251.069538 
L 211.76489 275.571692 
L 212.133349 250.194462 
L 212.501809 266.820923 
L 212.870268 254.132308 
L 213.238727 280.822154 
L 213.607187 267.258462 
L 213.975646 269.008615 
L 214.344105 256.757538 
L 214.712565 272.946462 
L 215.081024 271.633846 
L 215.449484 271.196308 
L 215.817943 234.880615 
L 216.186402 226.129846 
L 216.554862 281.259692 
L 216.923321 277.759385 
L 217.29178 251.069538 
L 217.66024 260.257846 
L 218.028699 275.571692 
L 218.397159 269.446154 
L 218.765618 273.821538 
L 219.134077 262.883077 
L 219.502537 259.382769 
L 219.870996 254.569846 
L 220.239455 256.32 
L 220.607915 245.381538 
L 220.976374 276.009231 
L 221.344833 260.257846 
L 221.713293 266.383385 
L 222.081752 262.008 
L 222.450212 246.256615 
L 222.818671 241.006154 
L 223.18713 264.195692 
L 223.55559 248.881846 
L 223.924049 261.132923 
L 224.292508 297.886154 
L 224.660968 254.569846 
L 225.029427 283.884923 
L 225.397887 254.569846 
L 225.766346 279.509538 
L 226.503265 267.258462 
L 226.871724 270.758769 
L 227.240183 277.321846 
L 227.608643 260.257846 
L 227.977102 252.819692 
L 228.345561 281.259692 
L 228.714021 263.320615 
L 229.08248 278.196923 
L 229.45094 266.820923 
L 230.187858 275.571692 
L 230.556318 242.756308 
L 230.924777 273.384 
L 231.293236 284.322462 
L 231.661696 286.072615 
L 232.030155 272.508923 
L 232.398615 272.508923 
L 232.767074 294.385846 
L 233.135533 305.324308 
L 233.503993 233.568 
L 233.872452 278.196923 
L 234.240911 277.759385 
L 234.609371 264.633231 
L 234.97783 303.136615 
L 235.346289 301.386462 
L 235.714749 270.758769 
L 236.083208 278.196923 
L 236.451668 265.070769 
L 236.820127 265.945846 
L 237.188586 282.572308 
L 237.557046 307.512 
L 238.293964 261.570462 
L 238.662424 272.071385 
L 239.030883 263.758154 
L 239.767802 286.510154 
L 240.136261 254.132308 
L 240.504721 270.758769 
L 240.87318 306.199385 
L 241.241639 265.945846 
L 241.610099 264.195692 
L 241.978558 283.009846 
L 242.347017 280.384615 
L 242.715477 273.821538 
L 243.083936 269.883692 
L 243.452396 255.007385 
L 243.820855 304.886769 
L 244.189314 276.884308 
L 244.557774 304.886769 
L 244.926233 293.073231 
L 245.294692 276.009231 
L 245.663152 274.696615 
L 246.400071 305.324308 
L 246.76853 275.571692 
L 247.136989 273.384 
L 247.505449 297.448615 
L 247.873908 264.633231 
L 248.242367 294.823385 
L 248.610827 263.320615 
L 248.979286 281.259692 
L 249.347745 270.321231 
L 249.716205 288.260308 
L 250.084664 280.384615 
L 250.453124 304.449231 
L 250.821583 255.882462 
L 251.190042 251.069538 
L 251.558502 266.383385 
L 251.926961 286.947692 
L 252.29542 269.008615 
L 252.66388 261.570462 
L 253.032339 264.633231 
L 253.769258 298.323692 
L 254.137717 295.698462 
L 254.506177 304.011692 
L 254.874636 290.010462 
L 255.243095 269.883692 
L 255.611555 302.699077 
L 255.980014 265.508308 
L 256.348473 304.011692 
L 256.716933 276.009231 
L 257.085392 300.511385 
L 257.453852 255.882462 
L 257.822311 277.759385 
L 258.19077 276.009231 
L 258.55923 272.508923 
L 258.927689 261.132923 
L 259.296148 276.446769 
L 259.664608 271.633846 
L 260.033067 281.697231 
L 260.401527 267.696 
L 260.769986 282.572308 
L 261.138445 263.758154 
L 261.506905 274.696615 
L 261.875364 258.945231 
L 262.243823 266.383385 
L 262.612283 269.883692 
L 262.980742 274.696615 
L 263.349201 270.321231 
L 263.717661 269.008615 
L 264.08612 264.195692 
L 264.45458 275.571692 
L 264.823039 279.072 
L 265.928417 254.132308 
L 266.296876 277.759385 
L 266.665336 276.009231 
L 267.033795 267.696 
L 267.402255 281.259692 
L 267.770714 274.696615 
L 268.139173 263.320615 
L 268.507633 269.008615 
L 268.876092 272.071385 
L 269.244551 279.947077 
L 269.613011 272.508923 
L 269.98147 247.569231 
L 270.349929 286.947692 
L 270.718389 290.010462 
L 271.086848 265.945846 
L 271.455308 269.008615 
L 271.823767 269.883692 
L 272.192226 281.259692 
L 272.560686 278.634462 
L 272.929145 271.196308 
L 273.297604 277.759385 
L 274.034523 269.883692 
L 274.402983 281.697231 
L 274.771442 271.196308 
L 275.139901 275.134154 
L 275.508361 257.195077 
L 275.87682 280.822154 
L 276.613739 271.196308 
L 276.982198 279.947077 
L 277.350657 264.633231 
L 277.719117 278.634462 
L 278.087576 270.758769 
L 278.456036 260.257846 
L 278.824495 273.384 
L 279.192954 275.571692 
L 279.561414 271.633846 
L 279.929873 272.071385 
L 280.298332 280.384615 
L 280.666792 278.634462 
L 281.035251 279.072 
L 281.403711 279.947077 
L 281.77217 281.259692 
L 282.140629 283.009846 
L 282.509089 268.133538 
L 282.877548 278.634462 
L 283.246007 278.196923 
L 283.614467 279.509538 
L 283.982926 261.570462 
L 284.351385 271.633846 
L 284.719845 265.508308 
L 285.088304 279.509538 
L 285.456764 254.569846 
L 285.825223 272.508923 
L 286.193682 251.507077 
L 286.562142 277.321846 
L 286.930601 265.070769 
L 287.29906 273.384 
L 287.66752 274.259077 
L 288.035979 269.446154 
L 288.404439 272.071385 
L 288.772898 276.884308 
L 289.141357 269.883692 
L 289.509817 272.946462 
L 289.878276 251.944615 
L 290.246735 279.509538 
L 290.615195 280.384615 
L 290.983654 266.383385 
L 291.352113 260.695385 
L 291.720573 275.134154 
L 292.089032 279.509538 
L 292.457492 254.132308 
L 292.825951 282.134769 
L 293.56287 281.259692 
L 293.931329 273.384 
L 294.299788 269.008615 
L 294.668248 256.32 
L 295.036707 271.196308 
L 295.405167 276.446769 
L 295.773626 278.196923 
L 296.142085 266.820923 
L 296.510545 242.318769 
L 297.247463 288.697846 
L 297.615923 268.133538 
L 297.984382 279.947077 
L 298.352841 271.196308 
L 298.721301 277.759385 
L 299.08976 274.696615 
L 299.45822 262.445538 
L 299.826679 276.884308 
L 300.195138 281.697231 
L 300.932057 273.821538 
L 301.300516 249.756923 
L 302.037435 280.384615 
L 302.405895 252.382154 
L 302.774354 274.696615 
L 303.142813 271.196308 
L 303.511273 276.446769 
L 304.248191 263.758154 
L 304.98511 270.321231 
L 305.353569 280.384615 
L 305.722029 251.069538 
L 306.090488 276.009231 
L 306.458948 275.571692 
L 307.195866 270.758769 
L 307.564326 282.572308 
L 307.932785 281.697231 
L 308.301244 267.258462 
L 308.669704 275.134154 
L 309.038163 276.884308 
L 309.775082 274.259077 
L 310.143541 285.635077 
L 310.512001 258.507692 
L 310.88046 277.759385 
L 311.248919 273.821538 
L 311.617379 282.134769 
L 311.985838 281.697231 
L 312.354297 255.007385 
L 312.722757 283.884923 
L 313.091216 273.384 
L 313.459676 280.384615 
L 313.828135 276.009231 
L 314.196594 281.697231 
L 314.933513 270.758769 
L 315.670432 292.635692 
L 316.038891 294.385846 
L 316.407351 278.634462 
L 316.77581 274.696615 
L 317.144269 252.382154 
L 317.512729 273.821538 
L 317.881188 280.822154 
L 318.249647 277.321846 
L 318.986566 275.571692 
L 319.355025 282.134769 
L 319.723485 274.259077 
L 320.091944 275.134154 
L 320.828863 265.070769 
L 321.197322 289.572923 
L 322.3027 265.508308 
L 322.67116 262.445538 
L 323.039619 264.195692 
L 323.408079 277.321846 
L 323.776538 269.883692 
L 324.144997 279.509538 
L 324.513457 280.822154 
L 324.881916 286.947692 
L 325.250375 280.822154 
L 325.618835 272.071385 
L 325.987294 290.010462 
L 326.355753 281.697231 
L 326.724213 278.196923 
L 327.092672 293.948308 
L 327.829591 281.259692 
L 328.19805 263.320615 
L 328.934969 268.571077 
L 329.303428 272.508923 
L 329.671888 261.132923 
L 330.040347 278.196923 
L 330.408807 270.758769 
L 330.777266 278.634462 
L 331.145725 268.571077 
L 331.514185 264.195692 
L 331.882644 284.76 
L 332.251103 280.822154 
L 332.619563 271.633846 
L 332.988022 269.008615 
L 333.356481 271.633846 
L 333.724941 290.010462 
L 334.0934 276.884308 
L 334.46186 280.822154 
L 334.830319 277.759385 
L 335.198778 276.884308 
L 335.567238 262.008 
L 336.304156 273.821538 
L 337.041075 282.134769 
L 337.409535 242.318769 
L 337.777994 275.571692 
L 338.146453 273.821538 
L 338.514913 271.196308 
L 338.883372 276.446769 
L 339.251831 272.946462 
L 339.620291 282.134769 
L 339.98875 271.196308 
L 340.357209 271.633846 
L 340.725669 282.572308 
L 341.094128 270.321231 
L 341.462588 269.883692 
L 341.831047 282.134769 
L 342.199506 262.008 
L 342.567966 267.696 
L 342.936425 282.134769 
L 343.304884 277.759385 
L 343.673344 282.572308 
L 344.041803 269.883692 
L 344.410263 282.572308 
L 344.778722 266.383385 
L 345.147181 258.507692 
L 345.515641 259.820308 
L 345.8841 275.571692 
L 346.252559 258.070154 
L 346.621019 264.195692 
L 346.989478 279.947077 
L 347.357937 269.883692 
L 347.726397 272.946462 
L 348.094856 269.883692 
L 348.463316 258.945231 
L 348.831775 251.507077 
L 349.200234 260.257846 
L 349.568694 277.759385 
L 349.937153 282.572308 
L 350.305612 258.070154 
L 350.674072 283.009846 
L 351.042531 279.947077 
L 351.77945 265.945846 
L 352.147909 281.697231 
L 352.516369 279.072 
L 352.884828 269.883692 
L 353.253287 277.759385 
L 353.621747 266.820923 
L 354.358665 275.571692 
L 354.727125 266.383385 
L 355.095584 270.758769 
L 355.464044 272.946462 
L 355.832503 283.884923 
L 356.200962 269.883692 
L 356.569422 281.697231 
L 356.937881 276.009231 
L 357.30634 279.072 
L 357.6748 272.508923 
L 358.043259 269.008615 
L 358.411719 250.632 
L 358.780178 278.634462 
L 359.148637 274.696615 
L 359.517097 273.384 
L 359.885556 265.070769 
L 360.254015 273.821538 
L 360.622475 279.509538 
L 360.990934 264.633231 
L 361.359393 271.196308 
L 361.727853 267.696 
L 362.096312 271.196308 
L 362.464772 281.259692 
L 362.833231 274.259077 
L 363.20169 271.196308 
L 363.57015 252.819692 
L 363.938609 283.009846 
L 364.307068 269.008615 
L 364.675528 269.008615 
L 365.043987 276.446769 
L 365.412447 253.257231 
L 366.149365 273.384 
L 366.517825 278.196923 
L 366.886284 278.196923 
L 367.254743 274.696615 
L 367.991662 280.384615 
L 368.360121 255.007385 
L 368.728581 269.883692 
L 369.09704 266.383385 
L 369.4655 272.946462 
L 369.833959 274.259077 
L 370.202418 281.259692 
L 370.939337 274.259077 
L 371.307796 264.195692 
L 371.676256 267.696 
L 372.044715 276.446769 
L 372.413175 281.259692 
L 372.781634 268.571077 
L 373.150093 283.009846 
L 373.518553 279.072 
L 373.887012 258.945231 
L 374.255471 277.321846 
L 374.623931 290.010462 
L 374.99239 288.697846 
L 375.360849 286.072615 
L 375.729309 276.009231 
L 376.466228 272.946462 
L 376.834687 279.072 
L 377.203146 281.259692 
L 377.940065 270.758769 
L 378.308524 275.571692 
L 379.045443 251.069538 
L 379.413903 277.321846 
L 379.782362 286.947692 
L 380.150821 270.321231 
L 380.519281 270.321231 
L 380.88774 280.384615 
L 381.256199 279.947077 
L 381.624659 276.884308 
L 381.993118 284.76 
L 382.361577 269.446154 
L 382.730037 281.259692 
L 383.098496 273.384 
L 383.466956 252.819692 
L 383.835415 280.384615 
L 384.203874 269.446154 
L 384.572334 265.508308 
L 384.940793 267.696 
L 385.309252 272.946462 
L 385.677712 260.257846 
L 386.414631 277.759385 
L 386.78309 269.446154 
L 387.151549 268.571077 
L 387.520009 256.32 
L 388.256927 269.446154 
L 388.625387 280.384615 
L 388.993846 275.571692 
L 389.362305 282.134769 
L 389.730765 280.384615 
L 390.099224 262.883077 
L 390.467684 276.009231 
L 390.836143 272.508923 
L 391.204602 278.196923 
L 391.573062 258.945231 
L 391.941521 280.822154 
L 392.30998 273.384 
L 392.67844 280.822154 
L 393.046899 258.507692 
L 393.783818 282.134769 
L 394.520737 263.320615 
L 394.889196 266.820923 
L 395.257655 272.071385 
L 395.626115 275.571692 
L 395.994574 272.071385 
L 396.363033 280.384615 
L 396.731493 279.072 
L 397.099952 281.697231 
L 397.468412 273.821538 
L 397.836871 259.820308 
L 398.20533 269.008615 
L 398.57379 274.259077 
L 399.310708 292.635692 
L 399.679168 282.134769 
L 400.047627 283.447385 
L 400.416087 281.697231 
L 400.784546 270.758769 
L 401.153005 279.072 
L 401.521465 280.822154 
L 401.889924 265.945846 
L 402.258383 272.071385 
L 402.626843 290.010462 
L 403.363761 268.133538 
L 403.732221 268.571077 
L 404.10068 268.133538 
L 404.46914 289.135385 
L 404.837599 275.134154 
L 405.206058 272.508923 
L 405.574518 276.009231 
L 405.942977 264.633231 
L 406.311436 280.822154 
L 406.679896 273.384 
L 407.048355 277.759385 
L 407.416815 279.947077 
L 407.785274 251.944615 
L 408.153733 272.508923 
L 408.522193 271.196308 
L 408.890652 278.634462 
L 409.259111 276.009231 
L 409.627571 272.508923 
L 409.99603 276.446769 
L 410.364489 271.196308 
L 410.732949 271.196308 
L 411.101408 262.008 
L 411.469868 265.945846 
L 411.838327 292.198154 
L 412.206786 267.696 
L 412.943705 281.259692 
L 413.312164 259.820308 
L 413.680624 250.194462 
L 414.049083 279.509538 
L 414.417543 279.947077 
L 414.786002 278.634462 
L 415.154461 276.446769 
L 415.522921 254.132308 
L 415.89138 278.196923 
L 416.259839 276.009231 
L 416.628299 274.696615 
L 416.996758 272.508923 
L 417.365217 282.572308 
L 417.733677 281.259692 
L 418.102136 273.384 
L 418.470596 246.694154 
L 418.839055 272.946462 
L 419.207514 269.008615 
L 419.575974 277.321846 
L 419.944433 274.259077 
L 420.312892 284.322462 
L 420.681352 272.946462 
L 421.418271 281.259692 
L 421.78673 278.634462 
L 422.155189 280.384615 
L 422.523649 274.259077 
L 422.892108 282.134769 
L 423.260567 279.947077 
L 423.629027 271.196308 
L 423.997486 284.322462 
L 424.365945 279.072 
L 424.734405 283.884923 
L 425.102864 280.822154 
L 425.471324 272.071385 
L 425.839783 282.572308 
L 426.208242 280.822154 
L 426.945161 273.821538 
L 427.31362 276.009231 
L 427.68208 282.572308 
L 428.050539 260.257846 
L 428.418999 272.946462 
L 428.787458 272.508923 
L 429.155917 277.759385 
L 429.524377 279.072 
L 429.892836 282.134769 
L 430.261295 268.571077 
L 430.629755 286.072615 
L 430.998214 271.633846 
L 431.366673 283.447385 
L 431.735133 273.384 
L 432.103592 282.134769 
L 432.840511 272.508923 
L 433.20897 280.822154 
L 433.57743 286.072615 
L 433.945889 268.133538 
L 434.314348 278.634462 
L 434.682808 276.446769 
L 435.051267 270.758769 
L 435.419727 272.946462 
L 435.788186 274.259077 
L 436.156645 262.445538 
L 436.525105 280.822154 
L 436.893564 271.196308 
L 437.262023 275.571692 
L 437.630483 275.571692 
L 437.998942 285.197538 
L 438.367401 283.447385 
L 438.735861 294.385846 
L 439.10432 280.822154 
L 439.47278 277.321846 
L 439.841239 292.635692 
L 440.209698 272.946462 
L 440.578158 296.573538 
L 440.946617 282.134769 
L 441.315076 288.697846 
L 441.683536 266.820923 
L 442.051995 276.884308 
L 442.420455 269.883692 
L 442.420455 269.883692 
" clip-path="url(#p397f33de18)" style="fill: none; stroke: #708090; stroke-width: 1.5; stroke-linecap: square"/>
   </g>
   <g id="line2d_15">
    <path d="M 74.329545 303.101612 
L 75.066464 302.979102 
L 75.434924 303.005354 
L 75.803383 302.865342 
L 77.27722 303.626658 
L 77.64568 303.731668 
L 78.014139 303.994191 
L 78.382599 304.002942 
L 78.751058 303.880431 
L 79.487977 303.880431 
L 79.856436 303.740418 
L 80.224895 303.941686 
L 80.961814 303.679163 
L 81.698733 303.827926 
L 82.067192 303.75792 
L 82.804111 303.98544 
L 83.17257 303.994191 
L 83.54103 304.256714 
L 85.014867 304.361723 
L 85.383327 304.519237 
L 85.751786 304.379225 
L 87.225623 304.44048 
L 87.594083 304.125452 
L 88.331001 304.274215 
L 88.699461 304.32672 
L 89.43638 304.239212 
L 90.173298 304.335471 
L 91.647136 304.309218 
L 92.015595 304.081698 
L 92.384055 304.072948 
L 92.752514 304.449231 
L 93.857892 304.55424 
L 94.594811 304.55424 
L 94.96327 304.405477 
L 95.331729 304.44048 
L 95.700189 303.967938 
L 97.174026 304.002942 
L 97.910945 303.714166 
L 98.647864 303.766671 
L 99.384783 303.661662 
L 100.490161 303.696665 
L 100.85862 303.731668 
L 101.227079 303.626658 
L 101.595539 303.652911 
L 102.332457 303.372886 
L 102.700917 303.407889 
L 103.069376 303.049108 
L 103.437836 303.145366 
L 104.543214 302.865342 
L 104.911673 302.611569 
L 105.648592 302.524062 
L 106.017051 302.777834 
L 107.490889 302.760332 
L 108.964726 302.025268 
L 109.333185 302.042769 
L 110.070104 301.894006 
L 110.438564 302.121526 
L 110.807023 302.182782 
L 111.175482 302.060271 
L 111.912401 302.042769 
L 112.28086 301.964012 
L 112.64932 302.095274 
L 113.017779 302.060271 
L 113.754698 302.200283 
L 114.123157 302.497809 
L 115.965454 302.130277 
L 116.702373 302.357797 
L 117.070832 302.235286 
L 117.439292 302.471557 
L 118.913129 302.384049 
L 119.281588 301.605231 
L 120.018507 301.517723 
L 120.386967 301.718991 
L 122.966182 302.191532 
L 123.334641 302.410302 
L 124.07156 302.419052 
L 124.808479 302.121526 
L 125.176938 301.955262 
L 126.282316 302.007766 
L 126.650776 301.753994 
L 127.387695 302.007766 
L 127.756154 302.025268 
L 128.124613 301.631483 
L 128.493073 301.727742 
L 128.861532 301.386462 
L 129.229991 301.333957 
L 129.598451 301.438966 
L 129.96691 301.263951 
L 130.335369 301.316455 
L 131.072288 301.045182 
L 131.809207 301.167692 
L 133.283044 300.34512 
L 134.019963 300.108849 
L 134.388423 299.811323 
L 134.756882 299.111262 
L 135.125341 299.111262 
L 135.493801 299.295028 
L 135.86226 299.242523 
L 136.230719 298.988751 
L 137.336097 298.874991 
L 137.704557 299.610055 
L 138.441476 299.837575 
L 139.178394 299.933834 
L 139.546854 299.732566 
L 140.652232 299.680062 
L 141.389151 299.400037 
L 141.75761 299.391286 
L 142.126069 298.804985 
L 142.494529 298.743729 
L 142.862988 298.953748 
L 143.231447 298.629969 
L 143.599907 298.769982 
L 143.968366 298.656222 
L 144.336825 298.358695 
L 144.705285 298.393698 
L 145.073744 298.717477 
L 145.810663 298.761231 
L 146.179122 298.157428 
L 146.916041 298.113674 
L 147.2845 297.929908 
L 147.65296 297.562375 
L 148.389879 297.326105 
L 149.495257 296.879815 
L 149.863716 295.829723 
L 150.600635 295.68096 
L 150.969094 295.829723 
L 151.337553 294.709625 
L 151.706013 294.517108 
L 152.074472 294.613366 
L 152.442932 294.499606 
L 152.811391 294.097071 
L 153.17985 294.867138 
L 153.916769 294.31584 
L 154.285228 294.298338 
L 154.653688 294.027065 
L 155.022147 292.731951 
L 155.390607 292.460677 
L 155.759066 292.355668 
L 156.127525 291.988135 
L 156.495985 290.658018 
L 157.232903 289.686683 
L 157.601363 289.747938 
L 157.969822 289.590425 
L 158.706741 289.642929 
L 159.0752 289.056628 
L 159.44366 289.039126 
L 159.812119 289.161637 
L 160.180578 288.662843 
L 160.917497 288.470326 
L 161.285956 288.470326 
L 161.654416 288.864111 
L 162.391335 288.62784 
L 162.759794 288.304062 
L 163.128253 287.700258 
L 163.496713 287.463988 
L 163.865172 286.80768 
L 164.233631 286.378892 
L 164.602091 286.912689 
L 164.97055 286.851434 
L 165.339009 286.203877 
L 165.707469 285.075028 
L 166.075928 285.311298 
L 167.181306 284.331212 
L 167.549766 284.523729 
L 167.918225 284.392468 
L 168.286684 284.900012 
L 168.655144 284.523729 
L 169.023603 283.788665 
L 169.392063 284.094942 
L 170.8659 282.511052 
L 172.708197 279.29952 
L 173.076656 279.422031 
L 173.445116 280.410868 
L 174.182034 280.32336 
L 174.550494 279.675803 
L 174.918953 280.935914 
L 175.287412 281.093428 
L 175.655872 280.979668 
L 176.024331 279.772062 
L 176.76125 278.931988 
L 177.129709 277.680628 
L 177.498169 277.295594 
L 178.235087 275.449182 
L 178.603547 273.970302 
L 178.972006 273.874043 
L 179.708925 271.047545 
L 180.077384 269.866191 
L 180.814303 268.781095 
L 181.182762 267.783508 
L 181.551222 267.766006 
L 181.919681 266.637157 
L 182.28814 266.120862 
L 182.6566 265.893342 
L 184.130437 263.171852 
L 184.498897 261.806732 
L 184.867356 261.019163 
L 185.235815 260.765391 
L 185.604275 260.660382 
L 186.341193 259.339015 
L 187.078112 257.370092 
L 187.815031 256.039975 
L 188.18349 257.046314 
L 188.55195 256.696283 
L 188.920409 256.722535 
L 189.288868 257.23008 
L 190.394247 257.23008 
L 190.762706 256.915052 
L 191.131165 257.256332 
L 191.499625 257.028812 
L 191.868084 256.179988 
L 192.236543 255.917465 
L 192.605003 255.199902 
L 192.973462 255.52368 
L 193.341921 254.49984 
L 193.710381 254.193563 
L 194.07884 253.633514 
L 194.4473 254.0448 
L 194.815759 253.773526 
L 195.184218 253.756025 
L 195.552678 254.246068 
L 195.921137 254.534843 
L 196.289596 254.657354 
L 196.658056 254.937378 
L 197.026515 256.223742 
L 197.394975 256.398757 
L 197.763434 256.801292 
L 198.131893 256.398757 
L 198.500353 257.186326 
L 198.868812 257.300086 
L 199.237271 256.993809 
L 199.605731 257.833883 
L 199.97419 257.851385 
L 200.711109 259.076492 
L 201.448028 258.831471 
L 201.816487 258.980234 
L 202.184946 259.522782 
L 202.921865 261.412948 
L 203.658784 261.727975 
L 204.027243 261.412948 
L 204.395703 260.905403 
L 204.764162 260.817895 
L 205.132621 261.649218 
L 205.501081 261.824234 
L 206.237999 263.03184 
L 206.606459 262.813071 
L 206.974918 263.224357 
L 207.343377 262.708062 
L 207.711837 262.568049 
L 208.080296 263.390622 
L 208.448756 263.311865 
L 209.185674 263.836911 
L 209.922593 263.346868 
L 210.291052 264.020677 
L 210.659512 263.793157 
L 211.027971 264.125686 
L 211.396431 264.073182 
L 211.76489 264.484468 
L 212.133349 264.484468 
L 212.501809 264.335705 
L 212.870268 264.466966 
L 213.238727 265.070769 
L 214.344105 265.350794 
L 215.081024 266.750917 
L 215.449484 265.9896 
L 215.817943 266.129612 
L 216.554862 267.757255 
L 218.028699 269.419902 
L 218.397159 269.209883 
L 218.765618 269.139877 
L 219.134077 269.314892 
L 219.502537 270.207471 
L 219.870996 270.680012 
L 220.239455 270.820025 
L 220.976374 271.502585 
L 221.344833 271.493834 
L 221.713293 272.01888 
L 222.081752 271.773858 
L 222.450212 271.948874 
L 222.818671 273.147729 
L 223.18713 273.646523 
L 223.55559 273.646523 
L 223.924049 274.329083 
L 224.292508 274.714117 
L 224.660968 274.232825 
L 225.029427 274.539102 
L 225.397887 273.961551 
L 225.766346 274.967889 
L 226.134805 274.915385 
L 226.871724 276.070486 
L 227.240183 276.175495 
L 227.608643 276.122991 
L 227.977102 276.744295 
L 228.345561 277.794388 
L 228.714021 277.680628 
L 229.08248 277.881895 
L 229.45094 278.266929 
L 229.819399 278.223175 
L 230.187858 278.686966 
L 230.556318 278.441945 
L 230.924777 279.212012 
L 231.293236 279.150757 
L 231.661696 279.229514 
L 232.030155 279.115754 
L 232.398615 279.75456 
L 232.767074 279.422031 
L 233.503993 277.776886 
L 233.872452 278.84448 
L 234.240911 278.660714 
L 234.609371 278.336935 
L 234.97783 278.336935 
L 235.346289 277.881895 
L 235.714749 277.82064 
L 236.820127 279.334523 
L 237.188586 279.41328 
L 237.557046 279.815815 
L 237.925505 278.975742 
L 239.030883 280.253354 
L 239.399343 280.09584 
L 239.767802 280.139594 
L 240.136261 279.929575 
L 240.504721 280.297108 
L 240.87318 280.104591 
L 241.241639 279.509538 
L 241.610099 279.623298 
L 241.978558 279.973329 
L 242.347017 279.667052 
L 242.715477 279.710806 
L 243.083936 279.509538 
L 243.820855 279.684554 
L 244.189314 278.914486 
L 244.557774 278.774474 
L 245.294692 277.715631 
L 246.031611 277.3656 
L 246.400071 277.050572 
L 246.76853 276.525526 
L 247.505449 276.201748 
L 247.873908 275.335422 
L 248.242367 275.597945 
L 248.610827 275.221662 
L 249.716205 275.396677 
L 250.084664 274.897883 
L 250.453124 274.670363 
L 250.821583 274.022806 
L 251.558502 274.932886 
L 251.926961 274.556603 
L 252.29542 274.556603 
L 252.66388 274.97664 
L 253.400799 275.151655 
L 253.769258 274.941637 
L 254.506177 274.259077 
L 254.874636 273.602769 
L 255.243095 273.357748 
L 255.611555 273.445255 
L 255.980014 272.788948 
L 256.348473 273.112726 
L 256.716933 272.456418 
L 257.085392 272.438917 
L 257.453852 271.572591 
L 257.822311 272.071385 
L 258.927689 272.097637 
L 259.664608 272.211397 
L 260.033067 272.193895 
L 260.401527 271.765108 
L 260.769986 271.878868 
L 261.138445 271.738855 
L 261.506905 271.896369 
L 261.875364 271.843865 
L 262.243823 272.272652 
L 262.980742 272.70144 
L 263.717661 273.025218 
L 264.08612 273.305243 
L 264.823039 273.445255 
L 265.191498 273.427754 
L 265.559958 273.620271 
L 265.928417 273.594018 
L 266.296876 273.944049 
L 266.665336 273.699028 
L 267.033795 273.769034 
L 268.139173 272.867705 
L 268.507633 273.147729 
L 269.98147 272.920209 
L 270.349929 273.410252 
L 270.718389 273.208985 
L 271.086848 272.806449 
L 271.455308 272.946462 
L 271.823767 272.605182 
L 272.192226 272.797698 
L 272.560686 272.780197 
L 273.297604 272.325157 
L 273.666064 272.272652 
L 274.034523 272.377662 
L 274.402983 272.062634 
L 274.771442 272.071385 
L 275.87682 272.727692 
L 276.245279 272.491422 
L 276.613739 272.088886 
L 277.350657 272.01888 
L 277.719117 272.290154 
L 278.087576 272.053883 
L 278.456036 271.485083 
L 278.824495 271.660098 
L 279.192954 271.966375 
L 279.561414 271.817612 
L 279.929873 271.983877 
L 281.035251 271.835114 
L 281.403711 271.502585 
L 282.509089 271.33632 
L 282.877548 271.45008 
L 283.246007 270.872529 
L 283.614467 270.618757 
L 283.982926 270.636258 
L 284.351385 270.452492 
L 285.456764 270.566252 
L 285.825223 270.863778 
L 286.193682 270.688763 
L 286.562142 270.99504 
L 286.930601 270.855028 
L 287.29906 271.161305 
L 287.66752 270.715015 
L 289.141357 270.776271 
L 290.246735 271.511335 
L 290.983654 271.353822 
L 292.089032 272.01888 
L 292.457492 271.598843 
L 292.825951 272.071385 
L 293.19441 271.90512 
L 293.931329 271.922622 
L 294.299788 271.555089 
L 295.405167 272.377662 
L 296.142085 272.438917 
L 296.510545 272.622683 
L 296.879004 273.191483 
L 297.247463 273.445255 
L 297.615923 273.524012 
L 297.984382 274.049058 
L 298.721301 274.092812 
L 299.08976 273.585268 
L 299.45822 273.567766 
L 299.826679 273.935298 
L 300.195138 273.944049 
L 300.932057 273.804037 
L 301.300516 273.970302 
L 301.668976 274.460345 
L 302.037435 274.652862 
L 302.405895 274.434092 
L 303.511273 275.186658 
L 304.98511 274.985391 
L 305.353569 275.125403 
L 305.722029 274.915385 
L 306.090488 275.484185 
L 306.458948 275.580443 
L 307.195866 275.956726 
L 307.564326 275.982978 
L 307.932785 276.131742 
L 308.301244 276.131742 
L 308.669704 276.350511 
L 309.038163 276.726794 
L 309.775082 277.041822 
L 310.143541 276.823052 
L 310.512001 276.429268 
L 310.88046 276.630535 
L 311.248919 276.525526 
L 311.617379 276.271754 
L 311.985838 276.192997 
L 312.354297 275.974228 
L 312.722757 276.446769 
L 313.459676 275.956726 
L 314.196594 276.140492 
L 314.933513 275.799212 
L 315.301972 275.816714 
L 315.670432 275.982978 
L 316.407351 275.396677 
L 317.144269 275.422929 
L 317.512729 275.615446 
L 318.618107 275.387926 
L 318.986566 275.501686 
L 319.355025 274.836628 
L 319.723485 274.705366 
L 320.828863 274.757871 
L 321.197322 274.915385 
L 322.3027 274.512849 
L 322.67116 274.854129 
L 323.776538 275.221662 
L 325.250375 274.670363 
L 325.987294 274.661612 
L 326.355753 274.512849 
L 327.092672 273.812788 
L 327.461132 273.130228 
L 327.829591 272.902708 
L 328.19805 272.438917 
L 328.56651 272.456418 
L 328.934969 272.736443 
L 329.671888 272.771446 
L 330.040347 272.946462 
L 331.145725 271.808862 
L 331.514185 271.992628 
L 331.882644 272.36016 
L 332.251103 271.826363 
L 332.619563 271.870117 
L 333.356481 272.106388 
L 335.567238 271.45008 
L 336.304156 271.773858 
L 337.409535 271.292566 
L 337.777994 272.123889 
L 338.146453 272.010129 
L 338.883372 272.263902 
L 339.620291 272.307655 
L 339.98875 272.045132 
L 340.357209 271.633846 
L 340.725669 271.773858 
L 341.094128 271.616345 
L 341.462588 271.6776 
L 342.199506 271.415077 
L 342.567966 271.765108 
L 342.936425 271.703852 
L 344.041803 271.056295 
L 344.410263 271.283815 
L 344.778722 271.117551 
L 345.147181 271.213809 
L 345.515641 271.100049 
L 345.8841 271.56384 
L 346.252559 271.432578 
L 346.989478 271.896369 
L 347.357937 271.362572 
L 348.094856 271.266314 
L 348.463316 271.432578 
L 349.568694 272.622683 
L 349.937153 272.675188 
L 350.305612 272.123889 
L 350.674072 272.36016 
L 351.042531 272.027631 
L 351.410991 271.887618 
L 351.77945 271.922622 
L 352.147909 272.228898 
L 353.253287 271.931372 
L 353.621747 271.730105 
L 354.358665 272.123889 
L 354.727125 271.983877 
L 355.095584 272.316406 
L 355.464044 272.482671 
L 355.832503 272.202646 
L 356.200962 272.071385 
L 356.569422 272.47392 
L 357.30634 272.8152 
L 358.043259 272.788948 
L 358.411719 272.867705 
L 358.780178 273.436505 
L 359.517097 273.49776 
L 359.885556 273.445255 
L 360.254015 273.655274 
L 360.622475 273.471508 
L 360.990934 272.902708 
L 361.727853 273.471508 
L 362.464772 273.506511 
L 362.833231 273.489009 
L 363.57015 273.716529 
L 363.938609 274.355335 
L 364.307068 274.084062 
L 364.675528 274.329083 
L 365.043987 274.416591 
L 365.412447 273.944049 
L 365.780906 274.486597 
L 366.149365 274.582855 
L 367.254743 274.110314 
L 367.991662 273.672775 
L 368.360121 273.620271 
L 368.728581 273.909046 
L 369.09704 273.882794 
L 370.202418 273.384 
L 370.939337 273.331495 
L 371.307796 273.489009 
L 371.676256 273.812788 
L 372.781634 273.532763 
L 373.150093 273.72528 
L 373.518553 273.243988 
L 373.887012 273.278991 
L 374.255471 273.567766 
L 374.623931 273.637772 
L 374.99239 273.007717 
L 375.360849 272.622683 
L 376.097768 272.482671 
L 376.834687 272.141391 
L 377.940065 271.826363 
L 379.045443 272.430166 
L 379.413903 272.885206 
L 380.150821 272.176394 
L 380.519281 272.255151 
L 381.256199 272.771446 
L 382.730037 272.911458 
L 383.098496 272.867705 
L 383.835415 273.278991 
L 384.203874 273.112726 
L 384.940793 273.812788 
L 386.046171 273.891545 
L 386.414631 274.276578 
L 386.78309 274.224074 
L 387.520009 274.434092 
L 387.888468 274.600357 
L 388.256927 274.959138 
L 388.625387 275.037895 
L 388.993846 274.985391 
L 389.362305 275.072898 
L 389.730765 274.469095 
L 390.099224 274.311582 
L 390.836143 274.530351 
L 391.204602 274.600357 
L 391.573062 274.486597 
L 391.941521 274.836628 
L 392.30998 274.644111 
L 392.67844 274.600357 
L 393.046899 274.224074 
L 393.415359 274.372837 
L 393.783818 274.827877 
L 394.152277 274.539102 
L 394.520737 274.574105 
L 394.889196 274.932886 
L 395.257655 274.792874 
L 395.626115 274.355335 
L 396.731493 274.556603 
L 397.099952 274.504098 
L 397.468412 273.9528 
L 397.836871 274.040308 
L 398.20533 274.364086 
L 398.57379 274.477846 
L 399.310708 274.416591 
L 400.047627 274.014055 
L 400.416087 273.278991 
L 400.784546 273.103975 
L 401.889924 272.902708 
L 402.258383 273.27024 
L 402.626843 273.287742 
L 402.995302 273.04272 
L 403.363761 273.068972 
L 404.46914 273.637772 
L 404.837599 273.49776 
L 405.206058 273.594018 
L 405.574518 273.567766 
L 405.942977 273.734031 
L 406.311436 274.022806 
L 407.785274 274.171569 
L 408.153733 274.74912 
L 408.890652 274.897883 
L 409.259111 274.845378 
L 409.627571 274.97664 
L 409.99603 274.731618 
L 410.732949 274.687865 
L 411.101408 274.819126 
L 411.838327 275.484185 
L 412.206786 275.011643 
L 412.575246 275.379175 
L 413.312164 275.361674 
L 413.680624 275.632948 
L 414.049083 276.271754 
L 415.154461 276.11424 
L 416.259839 276.595532 
L 417.365217 276.534277 
L 417.733677 276.368012 
L 418.102136 275.991729 
L 418.470596 276.140492 
L 418.839055 276.630535 
L 419.575974 276.814302 
L 421.78673 277.733132 
L 422.155189 277.619372 
L 422.523649 277.943151 
L 423.260567 278.231926 
L 423.629027 277.969403 
L 423.997486 278.083163 
L 424.365945 277.794388 
L 424.365945 277.794388 
" clip-path="url(#p397f33de18)" style="fill: none; stroke: #000080; stroke-width: 1.5; stroke-linecap: square"/>
   </g>
   <g id="line2d_16">
    <path d="M 55.925 94.430769 
L 460.825 94.430769 
" clip-path="url(#p397f33de18)" style="fill: none; stroke-dasharray: 5.55,2.4; stroke-dashoffset: 0; stroke: #008000; stroke-width: 1.5"/>
   </g>
   <g id="patch_3">
    <path d="M 55.925 313.2 
L 55.925 28.8 
" style="fill: none; stroke: #000000; stroke-width: 0.8; stroke-linejoin: miter; stroke-linecap: square"/>
   </g>
   <g id="patch_4">
    <path d="M 460.825 313.2 
L 460.825 28.8 
" style="fill: none; stroke: #000000; stroke-width: 0.8; stroke-linejoin: miter; stroke-linecap: square"/>
   </g>
   <g id="patch_5">
    <path d="M 55.925 313.2 
L 460.825 313.2 
" style="fill: none; stroke: #000000; stroke-width: 0.8; stroke-linejoin: miter; stroke-linecap: square"/>
   </g>
   <g id="patch_6">
    <path d="M 55.925 28.8 
L 460.825 28.8 
" style="fill: none; stroke: #000000; stroke-width: 0.8; stroke-linejoin: miter; stroke-linecap: square"/>
   </g>
   <g id="text_16">
    <!-- gamma = 0.9094736842105263,lr = 0.05994842503189409 -->
    <g transform="translate(28.373437 22.8)scale(0.15 -0.15)">
     <defs>
      <path id="DejaVuSans-67" d="M 2906 1791 
Q 2906 2416 2648 2759 
Q 2391 3103 1925 3103 
Q 1463 3103 1205 2759 
Q 947 2416 947 1791 
Q 947 1169 1205 825 
Q 1463 481 1925 481 
Q 2391 481 2648 825 
Q 2906 1169 2906 1791 
z
M 3481 434 
Q 3481 -459 3084 -895 
Q 2688 -1331 1869 -1331 
Q 1566 -1331 1297 -1286 
Q 1028 -1241 775 -1147 
L 775 -588 
Q 1028 -725 1275 -790 
Q 1522 -856 1778 -856 
Q 2344 -856 2625 -561 
Q 2906 -266 2906 331 
L 2906 616 
Q 2728 306 2450 153 
Q 2172 0 1784 0 
Q 1141 0 747 490 
Q 353 981 353 1791 
Q 353 2603 747 3093 
Q 1141 3584 1784 3584 
Q 2172 3584 2450 3431 
Q 2728 3278 2906 2969 
L 2906 3500 
L 3481 3500 
L 3481 434 
z
" transform="scale(0.015625)"/>
      <path id="DejaVuSans-61" d="M 2194 1759 
Q 1497 1759 1228 1600 
Q 959 1441 959 1056 
Q 959 750 1161 570 
Q 1363 391 1709 391 
Q 2188 391 2477 730 
Q 2766 1069 2766 1631 
L 2766 1759 
L 2194 1759 
z
M 3341 1997 
L 3341 0 
L 2766 0 
L 2766 531 
Q 2569 213 2275 61 
Q 1981 -91 1556 -91 
Q 1019 -91 701 211 
Q 384 513 384 1019 
Q 384 1609 779 1909 
Q 1175 2209 1959 2209 
L 2766 2209 
L 2766 2266 
Q 2766 2663 2505 2880 
Q 2244 3097 1772 3097 
Q 1472 3097 1187 3025 
Q 903 2953 641 2809 
L 641 3341 
Q 956 3463 1253 3523 
Q 1550 3584 1831 3584 
Q 2591 3584 2966 3190 
Q 3341 2797 3341 1997 
z
" transform="scale(0.015625)"/>
      <path id="DejaVuSans-6d" d="M 3328 2828 
Q 3544 3216 3844 3400 
Q 4144 3584 4550 3584 
Q 5097 3584 5394 3201 
Q 5691 2819 5691 2113 
L 5691 0 
L 5113 0 
L 5113 2094 
Q 5113 2597 4934 2840 
Q 4756 3084 4391 3084 
Q 3944 3084 3684 2787 
Q 3425 2491 3425 1978 
L 3425 0 
L 2847 0 
L 2847 2094 
Q 2847 2600 2669 2842 
Q 2491 3084 2119 3084 
Q 1678 3084 1418 2786 
Q 1159 2488 1159 1978 
L 1159 0 
L 581 0 
L 581 3500 
L 1159 3500 
L 1159 2956 
Q 1356 3278 1631 3431 
Q 1906 3584 2284 3584 
Q 2666 3584 2933 3390 
Q 3200 3197 3328 2828 
z
" transform="scale(0.015625)"/>
      <path id="DejaVuSans-20" transform="scale(0.015625)"/>
      <path id="DejaVuSans-3d" d="M 678 2906 
L 4684 2906 
L 4684 2381 
L 678 2381 
L 678 2906 
z
M 678 1631 
L 4684 1631 
L 4684 1100 
L 678 1100 
L 678 1631 
z
" transform="scale(0.015625)"/>
      <path id="DejaVuSans-2e" d="M 684 794 
L 1344 794 
L 1344 0 
L 684 0 
L 684 794 
z
" transform="scale(0.015625)"/>
      <path id="DejaVuSans-39" d="M 703 97 
L 703 672 
Q 941 559 1184 500 
Q 1428 441 1663 441 
Q 2288 441 2617 861 
Q 2947 1281 2994 2138 
Q 2813 1869 2534 1725 
Q 2256 1581 1919 1581 
Q 1219 1581 811 2004 
Q 403 2428 403 3163 
Q 403 3881 828 4315 
Q 1253 4750 1959 4750 
Q 2769 4750 3195 4129 
Q 3622 3509 3622 2328 
Q 3622 1225 3098 567 
Q 2575 -91 1691 -91 
Q 1453 -91 1209 -44 
Q 966 3 703 97 
z
M 1959 2075 
Q 2384 2075 2632 2365 
Q 2881 2656 2881 3163 
Q 2881 3666 2632 3958 
Q 2384 4250 1959 4250 
Q 1534 4250 1286 3958 
Q 1038 3666 1038 3163 
Q 1038 2656 1286 2365 
Q 1534 2075 1959 2075 
z
" transform="scale(0.015625)"/>
      <path id="DejaVuSans-37" d="M 525 4666 
L 3525 4666 
L 3525 4397 
L 1831 0 
L 1172 0 
L 2766 4134 
L 525 4134 
L 525 4666 
z
" transform="scale(0.015625)"/>
      <path id="DejaVuSans-2c" d="M 750 794 
L 1409 794 
L 1409 256 
L 897 -744 
L 494 -744 
L 750 256 
L 750 794 
z
" transform="scale(0.015625)"/>
      <path id="DejaVuSans-6c" d="M 603 4863 
L 1178 4863 
L 1178 0 
L 603 0 
L 603 4863 
z
" transform="scale(0.015625)"/>
     </defs>
     <use xlink:href="#DejaVuSans-67"/>
     <use xlink:href="#DejaVuSans-61" x="63.476562"/>
     <use xlink:href="#DejaVuSans-6d" x="124.755859"/>
     <use xlink:href="#DejaVuSans-6d" x="222.167969"/>
     <use xlink:href="#DejaVuSans-61" x="319.580078"/>
     <use xlink:href="#DejaVuSans-20" x="380.859375"/>
     <use xlink:href="#DejaVuSans-3d" x="412.646484"/>
     <use xlink:href="#DejaVuSans-20" x="496.435547"/>
     <use xlink:href="#DejaVuSans-30" x="528.222656"/>
     <use xlink:href="#DejaVuSans-2e" x="591.845703"/>
     <use xlink:href="#DejaVuSans-39" x="623.632812"/>
     <use xlink:href="#DejaVuSans-30" x="687.255859"/>
     <use xlink:href="#DejaVuSans-39" x="750.878906"/>
     <use xlink:href="#DejaVuSans-34" x="814.501953"/>
     <use xlink:href="#DejaVuSans-37" x="878.125"/>
     <use xlink:href="#DejaVuSans-33" x="941.748047"/>
     <use xlink:href="#DejaVuSans-36" x="1005.371094"/>
     <use xlink:href="#DejaVuSans-38" x="1068.994141"/>
     <use xlink:href="#DejaVuSans-34" x="1132.617188"/>
     <use xlink:href="#DejaVuSans-32" x="1196.240234"/>
     <use xlink:href="#DejaVuSans-31" x="1259.863281"/>
     <use xlink:href="#DejaVuSans-30" x="1323.486328"/>
     <use xlink:href="#DejaVuSans-35" x="1387.109375"/>
     <use xlink:href="#DejaVuSans-32" x="1450.732422"/>
     <use xlink:href="#DejaVuSans-36" x="1514.355469"/>
     <use xlink:href="#DejaVuSans-33" x="1577.978516"/>
     <use xlink:href="#DejaVuSans-2c" x="1641.601562"/>
     <use xlink:href="#DejaVuSans-6c" x="1673.388672"/>
     <use xlink:href="#DejaVuSans-72" x="1701.171875"/>
     <use xlink:href="#DejaVuSans-20" x="1742.285156"/>
     <use xlink:href="#DejaVuSans-3d" x="1774.072266"/>
     <use xlink:href="#DejaVuSans-20" x="1857.861328"/>
     <use xlink:href="#DejaVuSans-30" x="1889.648438"/>
     <use xlink:href="#DejaVuSans-2e" x="1953.271484"/>
     <use xlink:href="#DejaVuSans-30" x="1985.058594"/>
     <use xlink:href="#DejaVuSans-35" x="2048.681641"/>
     <use xlink:href="#DejaVuSans-39" x="2112.304688"/>
     <use xlink:href="#DejaVuSans-39" x="2175.927734"/>
     <use xlink:href="#DejaVuSans-34" x="2239.550781"/>
     <use xlink:href="#DejaVuSans-38" x="2303.173828"/>
     <use xlink:href="#DejaVuSans-34" x="2366.796875"/>
     <use xlink:href="#DejaVuSans-32" x="2430.419922"/>
     <use xlink:href="#DejaVuSans-35" x="2494.042969"/>
     <use xlink:href="#DejaVuSans-30" x="2557.666016"/>
     <use xlink:href="#DejaVuSans-33" x="2621.289062"/>
     <use xlink:href="#DejaVuSans-31" x="2684.912109"/>
     <use xlink:href="#DejaVuSans-38" x="2748.535156"/>
     <use xlink:href="#DejaVuSans-39" x="2812.158203"/>
     <use xlink:href="#DejaVuSans-34" x="2875.78125"/>
     <use xlink:href="#DejaVuSans-30" x="2939.404297"/>
     <use xlink:href="#DejaVuSans-39" x="3003.027344"/>
    </g>
   </g>
   <g id="legend_1">
    <g id="patch_7">
     <path d="M 293.50625 80.834375 
L 453.825 80.834375 
Q 455.825 80.834375 455.825 78.834375 
L 455.825 35.8 
Q 455.825 33.8 453.825 33.8 
L 293.50625 33.8 
Q 291.50625 33.8 291.50625 35.8 
L 291.50625 78.834375 
Q 291.50625 80.834375 293.50625 80.834375 
z
" style="fill: #ffffff; opacity: 0.8; stroke: #cccccc; stroke-linejoin: miter"/>
    </g>
    <g id="line2d_17">
     <path d="M 295.50625 41.898438 
L 305.50625 41.898438 
L 315.50625 41.898438 
" style="fill: none; stroke: #708090; stroke-width: 1.5; stroke-linecap: square"/>
    </g>
    <g id="text_17">
     <!-- Episodes score -->
     <g transform="translate(323.50625 45.398438)scale(0.1 -0.1)">
      <use xlink:href="#DejaVuSans-45"/>
      <use xlink:href="#DejaVuSans-70" x="63.183594"/>
      <use xlink:href="#DejaVuSans-69" x="126.660156"/>
      <use xlink:href="#DejaVuSans-73" x="154.443359"/>
      <use xlink:href="#DejaVuSans-6f" x="206.542969"/>
      <use xlink:href="#DejaVuSans-64" x="267.724609"/>
      <use xlink:href="#DejaVuSans-65" x="331.201172"/>
      <use xlink:href="#DejaVuSans-73" x="392.724609"/>
      <use xlink:href="#DejaVuSans-20" x="444.824219"/>
      <use xlink:href="#DejaVuSans-73" x="476.611328"/>
      <use xlink:href="#DejaVuSans-63" x="528.710938"/>
      <use xlink:href="#DejaVuSans-6f" x="583.691406"/>
      <use xlink:href="#DejaVuSans-72" x="644.873047"/>
      <use xlink:href="#DejaVuSans-65" x="683.736328"/>
     </g>
    </g>
    <g id="line2d_18">
     <path d="M 295.50625 56.576563 
L 305.50625 56.576563 
L 315.50625 56.576563 
" style="fill: none; stroke: #000080; stroke-width: 1.5; stroke-linecap: square"/>
    </g>
    <g id="text_18">
     <!-- Moving average of scores -->
     <g transform="translate(323.50625 60.076563)scale(0.1 -0.1)">
      <defs>
       <path id="DejaVuSans-4d" d="M 628 4666 
L 1569 4666 
L 2759 1491 
L 3956 4666 
L 4897 4666 
L 4897 0 
L 4281 0 
L 4281 4097 
L 3078 897 
L 2444 897 
L 1241 4097 
L 1241 0 
L 628 0 
L 628 4666 
z
" transform="scale(0.015625)"/>
       <path id="DejaVuSans-76" d="M 191 3500 
L 800 3500 
L 1894 563 
L 2988 3500 
L 3597 3500 
L 2284 0 
L 1503 0 
L 191 3500 
z
" transform="scale(0.015625)"/>
       <path id="DejaVuSans-6e" d="M 3513 2113 
L 3513 0 
L 2938 0 
L 2938 2094 
Q 2938 2591 2744 2837 
Q 2550 3084 2163 3084 
Q 1697 3084 1428 2787 
Q 1159 2491 1159 1978 
L 1159 0 
L 581 0 
L 581 3500 
L 1159 3500 
L 1159 2956 
Q 1366 3272 1645 3428 
Q 1925 3584 2291 3584 
Q 2894 3584 3203 3211 
Q 3513 2838 3513 2113 
z
" transform="scale(0.015625)"/>
       <path id="DejaVuSans-66" d="M 2375 4863 
L 2375 4384 
L 1825 4384 
Q 1516 4384 1395 4259 
Q 1275 4134 1275 3809 
L 1275 3500 
L 2222 3500 
L 2222 3053 
L 1275 3053 
L 1275 0 
L 697 0 
L 697 3053 
L 147 3053 
L 147 3500 
L 697 3500 
L 697 3744 
Q 697 4328 969 4595 
Q 1241 4863 1831 4863 
L 2375 4863 
z
" transform="scale(0.015625)"/>
      </defs>
      <use xlink:href="#DejaVuSans-4d"/>
      <use xlink:href="#DejaVuSans-6f" x="86.279297"/>
      <use xlink:href="#DejaVuSans-76" x="147.460938"/>
      <use xlink:href="#DejaVuSans-69" x="206.640625"/>
      <use xlink:href="#DejaVuSans-6e" x="234.423828"/>
      <use xlink:href="#DejaVuSans-67" x="297.802734"/>
      <use xlink:href="#DejaVuSans-20" x="361.279297"/>
      <use xlink:href="#DejaVuSans-61" x="393.066406"/>
      <use xlink:href="#DejaVuSans-76" x="454.345703"/>
      <use xlink:href="#DejaVuSans-65" x="513.525391"/>
      <use xlink:href="#DejaVuSans-72" x="575.048828"/>
      <use xlink:href="#DejaVuSans-61" x="616.162109"/>
      <use xlink:href="#DejaVuSans-67" x="677.441406"/>
      <use xlink:href="#DejaVuSans-65" x="740.917969"/>
      <use xlink:href="#DejaVuSans-20" x="802.441406"/>
      <use xlink:href="#DejaVuSans-6f" x="834.228516"/>
      <use xlink:href="#DejaVuSans-66" x="895.410156"/>
      <use xlink:href="#DejaVuSans-20" x="930.615234"/>
      <use xlink:href="#DejaVuSans-73" x="962.402344"/>
      <use xlink:href="#DejaVuSans-63" x="1014.501953"/>
      <use xlink:href="#DejaVuSans-6f" x="1069.482422"/>
      <use xlink:href="#DejaVuSans-72" x="1130.664062"/>
      <use xlink:href="#DejaVuSans-65" x="1169.527344"/>
      <use xlink:href="#DejaVuSans-73" x="1231.050781"/>
     </g>
    </g>
    <g id="line2d_19">
     <path d="M 295.50625 71.254687 
L 305.50625 71.254687 
L 315.50625 71.254687 
" style="fill: none; stroke-dasharray: 5.55,2.4; stroke-dashoffset: 0; stroke: #008000; stroke-width: 1.5"/>
    </g>
    <g id="text_19">
     <!-- Game Solved -->
     <g transform="translate(323.50625 74.754687)scale(0.1 -0.1)">
      <defs>
       <path id="DejaVuSans-47" d="M 3809 666 
L 3809 1919 
L 2778 1919 
L 2778 2438 
L 4434 2438 
L 4434 434 
Q 4069 175 3628 42 
Q 3188 -91 2688 -91 
Q 1594 -91 976 548 
Q 359 1188 359 2328 
Q 359 3472 976 4111 
Q 1594 4750 2688 4750 
Q 3144 4750 3555 4637 
Q 3966 4525 4313 4306 
L 4313 3634 
Q 3963 3931 3569 4081 
Q 3175 4231 2741 4231 
Q 1884 4231 1454 3753 
Q 1025 3275 1025 2328 
Q 1025 1384 1454 906 
Q 1884 428 2741 428 
Q 3075 428 3337 486 
Q 3600 544 3809 666 
z
" transform="scale(0.015625)"/>
      </defs>
      <use xlink:href="#DejaVuSans-47"/>
      <use xlink:href="#DejaVuSans-61" x="77.490234"/>
      <use xlink:href="#DejaVuSans-6d" x="138.769531"/>
      <use xlink:href="#DejaVuSans-65" x="236.181641"/>
      <use xlink:href="#DejaVuSans-20" x="297.705078"/>
      <use xlink:href="#DejaVuSans-53" x="329.492188"/>
      <use xlink:href="#DejaVuSans-6f" x="392.96875"/>
      <use xlink:href="#DejaVuSans-6c" x="454.150391"/>
      <use xlink:href="#DejaVuSans-76" x="481.933594"/>
      <use xlink:href="#DejaVuSans-65" x="541.113281"/>
      <use xlink:href="#DejaVuSans-64" x="602.636719"/>
     </g>
    </g>
   </g>
  </g>
  <g id="axes_2">
   <g id="matplotlib.axis_3">
    <g id="ytick_8">
     <g id="line2d_20">
      <defs>
       <path id="m65d940879f" d="M 0 0 
L 3.5 0 
" style="stroke: #000000; stroke-width: 0.8"/>
      </defs>
      <g>
       <use xlink:href="#m65d940879f" x="460.825" y="300.356157" style="stroke: #000000; stroke-width: 0.8"/>
      </g>
     </g>
     <g id="text_20">
      <!-- 0 -->
      <g transform="translate(467.825 304.155376)scale(0.1 -0.1)">
       <use xlink:href="#DejaVuSans-30"/>
      </g>
     </g>
    </g>
    <g id="ytick_9">
     <g id="line2d_21">
      <g>
       <use xlink:href="#m65d940879f" x="460.825" y="248.63038" style="stroke: #000000; stroke-width: 0.8"/>
      </g>
     </g>
     <g id="text_21">
      <!-- 1 -->
      <g transform="translate(467.825 252.429599)scale(0.1 -0.1)">
       <use xlink:href="#DejaVuSans-31"/>
      </g>
     </g>
    </g>
    <g id="ytick_10">
     <g id="line2d_22">
      <g>
       <use xlink:href="#m65d940879f" x="460.825" y="196.904603" style="stroke: #000000; stroke-width: 0.8"/>
      </g>
     </g>
     <g id="text_22">
      <!-- 2 -->
      <g transform="translate(467.825 200.703822)scale(0.1 -0.1)">
       <use xlink:href="#DejaVuSans-32"/>
      </g>
     </g>
    </g>
    <g id="ytick_11">
     <g id="line2d_23">
      <g>
       <use xlink:href="#m65d940879f" x="460.825" y="145.178827" style="stroke: #000000; stroke-width: 0.8"/>
      </g>
     </g>
     <g id="text_23">
      <!-- 3 -->
      <g transform="translate(467.825 148.978045)scale(0.1 -0.1)">
       <use xlink:href="#DejaVuSans-33"/>
      </g>
     </g>
    </g>
    <g id="ytick_12">
     <g id="line2d_24">
      <g>
       <use xlink:href="#m65d940879f" x="460.825" y="93.45305" style="stroke: #000000; stroke-width: 0.8"/>
      </g>
     </g>
     <g id="text_24">
      <!-- 4 -->
      <g transform="translate(467.825 97.252268)scale(0.1 -0.1)">
       <use xlink:href="#DejaVuSans-34"/>
      </g>
     </g>
    </g>
    <g id="ytick_13">
     <g id="line2d_25">
      <g>
       <use xlink:href="#m65d940879f" x="460.825" y="41.727273" style="stroke: #000000; stroke-width: 0.8"/>
      </g>
     </g>
     <g id="text_25">
      <!-- 5 -->
      <g transform="translate(467.825 45.526491)scale(0.1 -0.1)">
       <use xlink:href="#DejaVuSans-35"/>
      </g>
     </g>
    </g>
    <g id="text_26">
     <!-- Temperature -->
     <g transform="translate(489.585156 218.504297)rotate(-90)scale(0.15 -0.15)">
      <defs>
       <path id="DejaVuSans-54" d="M -19 4666 
L 3928 4666 
L 3928 4134 
L 2272 4134 
L 2272 0 
L 1638 0 
L 1638 4134 
L -19 4134 
L -19 4666 
z
" transform="scale(0.015625)"/>
       <path id="DejaVuSans-74" d="M 1172 4494 
L 1172 3500 
L 2356 3500 
L 2356 3053 
L 1172 3053 
L 1172 1153 
Q 1172 725 1289 603 
Q 1406 481 1766 481 
L 2356 481 
L 2356 0 
L 1766 0 
Q 1100 0 847 248 
Q 594 497 594 1153 
L 594 3053 
L 172 3053 
L 172 3500 
L 594 3500 
L 594 4494 
L 1172 4494 
z
" transform="scale(0.015625)"/>
       <path id="DejaVuSans-75" d="M 544 1381 
L 544 3500 
L 1119 3500 
L 1119 1403 
Q 1119 906 1312 657 
Q 1506 409 1894 409 
Q 2359 409 2629 706 
Q 2900 1003 2900 1516 
L 2900 3500 
L 3475 3500 
L 3475 0 
L 2900 0 
L 2900 538 
Q 2691 219 2414 64 
Q 2138 -91 1772 -91 
Q 1169 -91 856 284 
Q 544 659 544 1381 
z
M 1991 3584 
L 1991 3584 
z
" transform="scale(0.015625)"/>
      </defs>
      <use xlink:href="#DejaVuSans-54"/>
      <use xlink:href="#DejaVuSans-65" x="44.083984"/>
      <use xlink:href="#DejaVuSans-6d" x="105.607422"/>
      <use xlink:href="#DejaVuSans-70" x="203.019531"/>
      <use xlink:href="#DejaVuSans-65" x="266.496094"/>
      <use xlink:href="#DejaVuSans-72" x="328.019531"/>
      <use xlink:href="#DejaVuSans-61" x="369.132812"/>
      <use xlink:href="#DejaVuSans-74" x="430.412109"/>
      <use xlink:href="#DejaVuSans-75" x="469.621094"/>
      <use xlink:href="#DejaVuSans-72" x="533"/>
      <use xlink:href="#DejaVuSans-65" x="571.863281"/>
     </g>
    </g>
   </g>
   <g id="line2d_26">
    <path d="M 74.329545 41.727273 
L 77.64568 59.796179 
L 80.961814 76.602714 
L 84.277948 92.235075 
L 87.594083 106.775292 
L 90.910217 120.299669 
L 94.226351 132.879175 
L 97.542486 144.579825 
L 100.85862 155.463017 
L 104.174754 165.585863 
L 107.490889 175.001485 
L 110.807023 183.759292 
L 114.123157 191.905241 
L 117.439292 199.48208 
L 120.755426 206.529569 
L 124.07156 213.084691 
L 127.387695 219.181844 
L 130.703829 224.853024 
L 134.019963 230.127992 
L 137.704557 235.557975 
L 141.389151 240.568116 
L 145.073744 245.190878 
L 148.758338 249.456211 
L 152.442932 253.391752 
L 156.127525 257.023001 
L 160.180578 260.693942 
L 164.233631 264.053901 
L 168.286684 267.129223 
L 172.339737 269.944021 
L 176.76125 272.743467 
L 181.182762 275.285223 
L 185.972734 277.775454 
L 190.762706 280.018336 
L 195.921137 282.185254 
L 201.448028 284.251415 
L 206.974918 286.082639 
L 212.870268 287.807033 
L 219.134077 289.41153 
L 225.766346 290.887385 
L 233.135533 292.295013 
L 240.87318 293.548388 
L 249.347745 294.698674 
L 258.927689 295.766744 
L 269.613011 296.721977 
L 281.403711 297.547031 
L 295.036707 298.270409 
L 310.88046 298.880507 
L 330.040347 299.385086 
L 353.990206 299.780603 
L 385.677712 300.068067 
L 432.840511 300.253311 
L 442.420455 300.272727 
L 442.420455 300.272727 
" clip-path="url(#p397f33de18)" style="fill: none; stroke: #ff0000; stroke-width: 1.5; stroke-linecap: square"/>
   </g>
   <g id="patch_8">
    <path d="M 55.925 313.2 
L 55.925 28.8 
" style="fill: none; stroke: #000000; stroke-width: 0.8; stroke-linejoin: miter; stroke-linecap: square"/>
   </g>
   <g id="patch_9">
    <path d="M 460.825 313.2 
L 460.825 28.8 
" style="fill: none; stroke: #000000; stroke-width: 0.8; stroke-linejoin: miter; stroke-linecap: square"/>
   </g>
   <g id="patch_10">
    <path d="M 55.925 313.2 
L 460.825 313.2 
" style="fill: none; stroke: #000000; stroke-width: 0.8; stroke-linejoin: miter; stroke-linecap: square"/>
   </g>
   <g id="patch_11">
    <path d="M 55.925 28.8 
L 460.825 28.8 
" style="fill: none; stroke: #000000; stroke-width: 0.8; stroke-linejoin: miter; stroke-linecap: square"/>
   </g>
   <g id="legend_2">
    <g id="patch_12">
     <path d="M 62.925 51.478125 
L 158.264063 51.478125 
Q 160.264063 51.478125 160.264063 49.478125 
L 160.264063 35.8 
Q 160.264063 33.8 158.264063 33.8 
L 62.925 33.8 
Q 60.925 33.8 60.925 35.8 
L 60.925 49.478125 
Q 60.925 51.478125 62.925 51.478125 
z
" style="fill: #ffffff; opacity: 0.8; stroke: #cccccc; stroke-linejoin: miter"/>
    </g>
    <g id="line2d_27">
     <path d="M 64.925 41.898438 
L 74.925 41.898438 
L 84.925 41.898438 
" style="fill: none; stroke: #ff0000; stroke-width: 1.5; stroke-linecap: square"/>
    </g>
    <g id="text_27">
     <!-- Temperature -->
     <g transform="translate(92.925 45.398438)scale(0.1 -0.1)">
      <use xlink:href="#DejaVuSans-54"/>
      <use xlink:href="#DejaVuSans-65" x="44.083984"/>
      <use xlink:href="#DejaVuSans-6d" x="105.607422"/>
      <use xlink:href="#DejaVuSans-70" x="203.019531"/>
      <use xlink:href="#DejaVuSans-65" x="266.496094"/>
      <use xlink:href="#DejaVuSans-72" x="328.019531"/>
      <use xlink:href="#DejaVuSans-61" x="369.132812"/>
      <use xlink:href="#DejaVuSans-74" x="430.412109"/>
      <use xlink:href="#DejaVuSans-75" x="469.621094"/>
      <use xlink:href="#DejaVuSans-72" x="533"/>
      <use xlink:href="#DejaVuSans-65" x="571.863281"/>
     </g>
    </g>
   </g>
  </g>
 </g>
 <defs>
  <clipPath id="p397f33de18">
   <rect x="55.925" y="28.8" width="404.9" height="284.4"/>
  </clipPath>
 </defs>
</svg>
