<?xml version="1.0" encoding="utf-8" standalone="no"?>
<!DOCTYPE svg PUBLIC "-//W3C//DTD SVG 1.1//EN"
  "http://www.w3.org/Graphics/SVG/1.1/DTD/svg11.dtd">
<svg xmlns:xlink="http://www.w3.org/1999/xlink" width="504pt" height="360pt" viewBox="0 0 504 360" xmlns="http://www.w3.org/2000/svg" version="1.1">
 <metadata>
  <rdf:RDF xmlns:dc="http://purl.org/dc/elements/1.1/" xmlns:cc="http://creativecommons.org/ns#" xmlns:rdf="http://www.w3.org/1999/02/22-rdf-syntax-ns#">
   <cc:Work>
    <dc:type rdf:resource="http://purl.org/dc/dcmitype/StillImage"/>
    <dc:date>2022-07-28T20:50:49.595495</dc:date>
    <dc:format>image/svg+xml</dc:format>
    <dc:creator>
     <cc:Agent>
      <dc:title>Matplotlib v3.5.1, https://matplotlib.org/</dc:title>
     </cc:Agent>
    </dc:creator>
   </cc:Work>
  </rdf:RDF>
 </metadata>
 <defs>
  <style type="text/css">*{stroke-linejoin: round; stroke-linecap: butt}</style>
 </defs>
 <g id="figure_1">
  <g id="patch_1">
   <path d="M 0 360 
L 504 360 
L 504 0 
L 0 0 
L 0 360 
z
" style="fill: none"/>
  </g>
  <g id="axes_1">
   <g id="patch_2">
    <path d="M 55.925 313.2 
L 460.825 313.2 
L 460.825 28.8 
L 55.925 28.8 
z
" style="fill: #ffffff"/>
   </g>
   <g id="matplotlib.axis_1">
    <g id="xtick_1">
     <g id="line2d_1">
      <defs>
       <path id="mdc34f32f04" d="M 0 0 
L 0 3.5 
" style="stroke: #000000; stroke-width: 0.8"/>
      </defs>
      <g>
       <use xlink:href="#mdc34f32f04" x="74.329545" y="313.2" style="stroke: #000000; stroke-width: 0.8"/>
      </g>
     </g>
     <g id="text_1">
      <!-- 0 -->
      <g transform="translate(71.148295 327.798437)scale(0.1 -0.1)">
       <defs>
        <path id="DejaVuSans-30" d="M 2034 4250 
Q 1547 4250 1301 3770 
Q 1056 3291 1056 2328 
Q 1056 1369 1301 889 
Q 1547 409 2034 409 
Q 2525 409 2770 889 
Q 3016 1369 3016 2328 
Q 3016 3291 2770 3770 
Q 2525 4250 2034 4250 
z
M 2034 4750 
Q 2819 4750 3233 4129 
Q 3647 3509 3647 2328 
Q 3647 1150 3233 529 
Q 2819 -91 2034 -91 
Q 1250 -91 836 529 
Q 422 1150 422 2328 
Q 422 3509 836 4129 
Q 1250 4750 2034 4750 
z
" transform="scale(0.015625)"/>
       </defs>
       <use xlink:href="#DejaVuSans-30"/>
      </g>
     </g>
    </g>
    <g id="xtick_2">
     <g id="line2d_2">
      <g>
       <use xlink:href="#mdc34f32f04" x="148.021419" y="313.2" style="stroke: #000000; stroke-width: 0.8"/>
      </g>
     </g>
     <g id="text_2">
      <!-- 200 -->
      <g transform="translate(138.477669 327.798437)scale(0.1 -0.1)">
       <defs>
        <path id="DejaVuSans-32" d="M 1228 531 
L 3431 531 
L 3431 0 
L 469 0 
L 469 531 
Q 828 903 1448 1529 
Q 2069 2156 2228 2338 
Q 2531 2678 2651 2914 
Q 2772 3150 2772 3378 
Q 2772 3750 2511 3984 
Q 2250 4219 1831 4219 
Q 1534 4219 1204 4116 
Q 875 4013 500 3803 
L 500 4441 
Q 881 4594 1212 4672 
Q 1544 4750 1819 4750 
Q 2544 4750 2975 4387 
Q 3406 4025 3406 3419 
Q 3406 3131 3298 2873 
Q 3191 2616 2906 2266 
Q 2828 2175 2409 1742 
Q 1991 1309 1228 531 
z
" transform="scale(0.015625)"/>
       </defs>
       <use xlink:href="#DejaVuSans-32"/>
       <use xlink:href="#DejaVuSans-30" x="63.623047"/>
       <use xlink:href="#DejaVuSans-30" x="127.246094"/>
      </g>
     </g>
    </g>
    <g id="xtick_3">
     <g id="line2d_3">
      <g>
       <use xlink:href="#mdc34f32f04" x="221.713293" y="313.2" style="stroke: #000000; stroke-width: 0.8"/>
      </g>
     </g>
     <g id="text_3">
      <!-- 400 -->
      <g transform="translate(212.169543 327.798437)scale(0.1 -0.1)">
       <defs>
        <path id="DejaVuSans-34" d="M 2419 4116 
L 825 1625 
L 2419 1625 
L 2419 4116 
z
M 2253 4666 
L 3047 4666 
L 3047 1625 
L 3713 1625 
L 3713 1100 
L 3047 1100 
L 3047 0 
L 2419 0 
L 2419 1100 
L 313 1100 
L 313 1709 
L 2253 4666 
z
" transform="scale(0.015625)"/>
       </defs>
       <use xlink:href="#DejaVuSans-34"/>
       <use xlink:href="#DejaVuSans-30" x="63.623047"/>
       <use xlink:href="#DejaVuSans-30" x="127.246094"/>
      </g>
     </g>
    </g>
    <g id="xtick_4">
     <g id="line2d_4">
      <g>
       <use xlink:href="#mdc34f32f04" x="295.405167" y="313.2" style="stroke: #000000; stroke-width: 0.8"/>
      </g>
     </g>
     <g id="text_4">
      <!-- 600 -->
      <g transform="translate(285.861417 327.798437)scale(0.1 -0.1)">
       <defs>
        <path id="DejaVuSans-36" d="M 2113 2584 
Q 1688 2584 1439 2293 
Q 1191 2003 1191 1497 
Q 1191 994 1439 701 
Q 1688 409 2113 409 
Q 2538 409 2786 701 
Q 3034 994 3034 1497 
Q 3034 2003 2786 2293 
Q 2538 2584 2113 2584 
z
M 3366 4563 
L 3366 3988 
Q 3128 4100 2886 4159 
Q 2644 4219 2406 4219 
Q 1781 4219 1451 3797 
Q 1122 3375 1075 2522 
Q 1259 2794 1537 2939 
Q 1816 3084 2150 3084 
Q 2853 3084 3261 2657 
Q 3669 2231 3669 1497 
Q 3669 778 3244 343 
Q 2819 -91 2113 -91 
Q 1303 -91 875 529 
Q 447 1150 447 2328 
Q 447 3434 972 4092 
Q 1497 4750 2381 4750 
Q 2619 4750 2861 4703 
Q 3103 4656 3366 4563 
z
" transform="scale(0.015625)"/>
       </defs>
       <use xlink:href="#DejaVuSans-36"/>
       <use xlink:href="#DejaVuSans-30" x="63.623047"/>
       <use xlink:href="#DejaVuSans-30" x="127.246094"/>
      </g>
     </g>
    </g>
    <g id="xtick_5">
     <g id="line2d_5">
      <g>
       <use xlink:href="#mdc34f32f04" x="369.09704" y="313.2" style="stroke: #000000; stroke-width: 0.8"/>
      </g>
     </g>
     <g id="text_5">
      <!-- 800 -->
      <g transform="translate(359.55329 327.798437)scale(0.1 -0.1)">
       <defs>
        <path id="DejaVuSans-38" d="M 2034 2216 
Q 1584 2216 1326 1975 
Q 1069 1734 1069 1313 
Q 1069 891 1326 650 
Q 1584 409 2034 409 
Q 2484 409 2743 651 
Q 3003 894 3003 1313 
Q 3003 1734 2745 1975 
Q 2488 2216 2034 2216 
z
M 1403 2484 
Q 997 2584 770 2862 
Q 544 3141 544 3541 
Q 544 4100 942 4425 
Q 1341 4750 2034 4750 
Q 2731 4750 3128 4425 
Q 3525 4100 3525 3541 
Q 3525 3141 3298 2862 
Q 3072 2584 2669 2484 
Q 3125 2378 3379 2068 
Q 3634 1759 3634 1313 
Q 3634 634 3220 271 
Q 2806 -91 2034 -91 
Q 1263 -91 848 271 
Q 434 634 434 1313 
Q 434 1759 690 2068 
Q 947 2378 1403 2484 
z
M 1172 3481 
Q 1172 3119 1398 2916 
Q 1625 2713 2034 2713 
Q 2441 2713 2670 2916 
Q 2900 3119 2900 3481 
Q 2900 3844 2670 4047 
Q 2441 4250 2034 4250 
Q 1625 4250 1398 4047 
Q 1172 3844 1172 3481 
z
" transform="scale(0.015625)"/>
       </defs>
       <use xlink:href="#DejaVuSans-38"/>
       <use xlink:href="#DejaVuSans-30" x="63.623047"/>
       <use xlink:href="#DejaVuSans-30" x="127.246094"/>
      </g>
     </g>
    </g>
    <g id="xtick_6">
     <g id="line2d_6">
      <g>
       <use xlink:href="#mdc34f32f04" x="442.788914" y="313.2" style="stroke: #000000; stroke-width: 0.8"/>
      </g>
     </g>
     <g id="text_6">
      <!-- 1000 -->
      <g transform="translate(430.063914 327.798437)scale(0.1 -0.1)">
       <defs>
        <path id="DejaVuSans-31" d="M 794 531 
L 1825 531 
L 1825 4091 
L 703 3866 
L 703 4441 
L 1819 4666 
L 2450 4666 
L 2450 531 
L 3481 531 
L 3481 0 
L 794 0 
L 794 531 
z
" transform="scale(0.015625)"/>
       </defs>
       <use xlink:href="#DejaVuSans-31"/>
       <use xlink:href="#DejaVuSans-30" x="63.623047"/>
       <use xlink:href="#DejaVuSans-30" x="127.246094"/>
       <use xlink:href="#DejaVuSans-30" x="190.869141"/>
      </g>
     </g>
    </g>
    <g id="text_7">
     <!-- Episode -->
     <g transform="translate(228.91875 345.275781)scale(0.15 -0.15)">
      <defs>
       <path id="DejaVuSans-45" d="M 628 4666 
L 3578 4666 
L 3578 4134 
L 1259 4134 
L 1259 2753 
L 3481 2753 
L 3481 2222 
L 1259 2222 
L 1259 531 
L 3634 531 
L 3634 0 
L 628 0 
L 628 4666 
z
" transform="scale(0.015625)"/>
       <path id="DejaVuSans-70" d="M 1159 525 
L 1159 -1331 
L 581 -1331 
L 581 3500 
L 1159 3500 
L 1159 2969 
Q 1341 3281 1617 3432 
Q 1894 3584 2278 3584 
Q 2916 3584 3314 3078 
Q 3713 2572 3713 1747 
Q 3713 922 3314 415 
Q 2916 -91 2278 -91 
Q 1894 -91 1617 61 
Q 1341 213 1159 525 
z
M 3116 1747 
Q 3116 2381 2855 2742 
Q 2594 3103 2138 3103 
Q 1681 3103 1420 2742 
Q 1159 2381 1159 1747 
Q 1159 1113 1420 752 
Q 1681 391 2138 391 
Q 2594 391 2855 752 
Q 3116 1113 3116 1747 
z
" transform="scale(0.015625)"/>
       <path id="DejaVuSans-69" d="M 603 3500 
L 1178 3500 
L 1178 0 
L 603 0 
L 603 3500 
z
M 603 4863 
L 1178 4863 
L 1178 4134 
L 603 4134 
L 603 4863 
z
" transform="scale(0.015625)"/>
       <path id="DejaVuSans-73" d="M 2834 3397 
L 2834 2853 
Q 2591 2978 2328 3040 
Q 2066 3103 1784 3103 
Q 1356 3103 1142 2972 
Q 928 2841 928 2578 
Q 928 2378 1081 2264 
Q 1234 2150 1697 2047 
L 1894 2003 
Q 2506 1872 2764 1633 
Q 3022 1394 3022 966 
Q 3022 478 2636 193 
Q 2250 -91 1575 -91 
Q 1294 -91 989 -36 
Q 684 19 347 128 
L 347 722 
Q 666 556 975 473 
Q 1284 391 1588 391 
Q 1994 391 2212 530 
Q 2431 669 2431 922 
Q 2431 1156 2273 1281 
Q 2116 1406 1581 1522 
L 1381 1569 
Q 847 1681 609 1914 
Q 372 2147 372 2553 
Q 372 3047 722 3315 
Q 1072 3584 1716 3584 
Q 2034 3584 2315 3537 
Q 2597 3491 2834 3397 
z
" transform="scale(0.015625)"/>
       <path id="DejaVuSans-6f" d="M 1959 3097 
Q 1497 3097 1228 2736 
Q 959 2375 959 1747 
Q 959 1119 1226 758 
Q 1494 397 1959 397 
Q 2419 397 2687 759 
Q 2956 1122 2956 1747 
Q 2956 2369 2687 2733 
Q 2419 3097 1959 3097 
z
M 1959 3584 
Q 2709 3584 3137 3096 
Q 3566 2609 3566 1747 
Q 3566 888 3137 398 
Q 2709 -91 1959 -91 
Q 1206 -91 779 398 
Q 353 888 353 1747 
Q 353 2609 779 3096 
Q 1206 3584 1959 3584 
z
" transform="scale(0.015625)"/>
       <path id="DejaVuSans-64" d="M 2906 2969 
L 2906 4863 
L 3481 4863 
L 3481 0 
L 2906 0 
L 2906 525 
Q 2725 213 2448 61 
Q 2172 -91 1784 -91 
Q 1150 -91 751 415 
Q 353 922 353 1747 
Q 353 2572 751 3078 
Q 1150 3584 1784 3584 
Q 2172 3584 2448 3432 
Q 2725 3281 2906 2969 
z
M 947 1747 
Q 947 1113 1208 752 
Q 1469 391 1925 391 
Q 2381 391 2643 752 
Q 2906 1113 2906 1747 
Q 2906 2381 2643 2742 
Q 2381 3103 1925 3103 
Q 1469 3103 1208 2742 
Q 947 2381 947 1747 
z
" transform="scale(0.015625)"/>
       <path id="DejaVuSans-65" d="M 3597 1894 
L 3597 1613 
L 953 1613 
Q 991 1019 1311 708 
Q 1631 397 2203 397 
Q 2534 397 2845 478 
Q 3156 559 3463 722 
L 3463 178 
Q 3153 47 2828 -22 
Q 2503 -91 2169 -91 
Q 1331 -91 842 396 
Q 353 884 353 1716 
Q 353 2575 817 3079 
Q 1281 3584 2069 3584 
Q 2775 3584 3186 3129 
Q 3597 2675 3597 1894 
z
M 3022 2063 
Q 3016 2534 2758 2815 
Q 2500 3097 2075 3097 
Q 1594 3097 1305 2825 
Q 1016 2553 972 2059 
L 3022 2063 
z
" transform="scale(0.015625)"/>
      </defs>
      <use xlink:href="#DejaVuSans-45"/>
      <use xlink:href="#DejaVuSans-70" x="63.183594"/>
      <use xlink:href="#DejaVuSans-69" x="126.660156"/>
      <use xlink:href="#DejaVuSans-73" x="154.443359"/>
      <use xlink:href="#DejaVuSans-6f" x="206.542969"/>
      <use xlink:href="#DejaVuSans-64" x="267.724609"/>
      <use xlink:href="#DejaVuSans-65" x="331.201172"/>
     </g>
    </g>
   </g>
   <g id="matplotlib.axis_2">
    <g id="ytick_1">
     <g id="line2d_7">
      <defs>
       <path id="m6c6bae72f9" d="M 0 0 
L -3.5 0 
" style="stroke: #000000; stroke-width: 0.8"/>
      </defs>
      <g>
       <use xlink:href="#m6c6bae72f9" x="55.925" y="313.2" style="stroke: #000000; stroke-width: 0.8"/>
      </g>
     </g>
     <g id="text_8">
      <!-- 0 -->
      <g transform="translate(42.5625 316.999219)scale(0.1 -0.1)">
       <use xlink:href="#DejaVuSans-30"/>
      </g>
     </g>
    </g>
    <g id="ytick_2">
     <g id="line2d_8">
      <g>
       <use xlink:href="#m6c6bae72f9" x="55.925" y="269.446154" style="stroke: #000000; stroke-width: 0.8"/>
      </g>
     </g>
     <g id="text_9">
      <!-- 100 -->
      <g transform="translate(29.8375 273.245373)scale(0.1 -0.1)">
       <use xlink:href="#DejaVuSans-31"/>
       <use xlink:href="#DejaVuSans-30" x="63.623047"/>
       <use xlink:href="#DejaVuSans-30" x="127.246094"/>
      </g>
     </g>
    </g>
    <g id="ytick_3">
     <g id="line2d_9">
      <g>
       <use xlink:href="#m6c6bae72f9" x="55.925" y="225.692308" style="stroke: #000000; stroke-width: 0.8"/>
      </g>
     </g>
     <g id="text_10">
      <!-- 200 -->
      <g transform="translate(29.8375 229.491526)scale(0.1 -0.1)">
       <use xlink:href="#DejaVuSans-32"/>
       <use xlink:href="#DejaVuSans-30" x="63.623047"/>
       <use xlink:href="#DejaVuSans-30" x="127.246094"/>
      </g>
     </g>
    </g>
    <g id="ytick_4">
     <g id="line2d_10">
      <g>
       <use xlink:href="#m6c6bae72f9" x="55.925" y="181.938462" style="stroke: #000000; stroke-width: 0.8"/>
      </g>
     </g>
     <g id="text_11">
      <!-- 300 -->
      <g transform="translate(29.8375 185.73768)scale(0.1 -0.1)">
       <defs>
        <path id="DejaVuSans-33" d="M 2597 2516 
Q 3050 2419 3304 2112 
Q 3559 1806 3559 1356 
Q 3559 666 3084 287 
Q 2609 -91 1734 -91 
Q 1441 -91 1130 -33 
Q 819 25 488 141 
L 488 750 
Q 750 597 1062 519 
Q 1375 441 1716 441 
Q 2309 441 2620 675 
Q 2931 909 2931 1356 
Q 2931 1769 2642 2001 
Q 2353 2234 1838 2234 
L 1294 2234 
L 1294 2753 
L 1863 2753 
Q 2328 2753 2575 2939 
Q 2822 3125 2822 3475 
Q 2822 3834 2567 4026 
Q 2313 4219 1838 4219 
Q 1578 4219 1281 4162 
Q 984 4106 628 3988 
L 628 4550 
Q 988 4650 1302 4700 
Q 1616 4750 1894 4750 
Q 2613 4750 3031 4423 
Q 3450 4097 3450 3541 
Q 3450 3153 3228 2886 
Q 3006 2619 2597 2516 
z
" transform="scale(0.015625)"/>
       </defs>
       <use xlink:href="#DejaVuSans-33"/>
       <use xlink:href="#DejaVuSans-30" x="63.623047"/>
       <use xlink:href="#DejaVuSans-30" x="127.246094"/>
      </g>
     </g>
    </g>
    <g id="ytick_5">
     <g id="line2d_11">
      <g>
       <use xlink:href="#m6c6bae72f9" x="55.925" y="138.184615" style="stroke: #000000; stroke-width: 0.8"/>
      </g>
     </g>
     <g id="text_12">
      <!-- 400 -->
      <g transform="translate(29.8375 141.983834)scale(0.1 -0.1)">
       <use xlink:href="#DejaVuSans-34"/>
       <use xlink:href="#DejaVuSans-30" x="63.623047"/>
       <use xlink:href="#DejaVuSans-30" x="127.246094"/>
      </g>
     </g>
    </g>
    <g id="ytick_6">
     <g id="line2d_12">
      <g>
       <use xlink:href="#m6c6bae72f9" x="55.925" y="94.430769" style="stroke: #000000; stroke-width: 0.8"/>
      </g>
     </g>
     <g id="text_13">
      <!-- 500 -->
      <g transform="translate(29.8375 98.229988)scale(0.1 -0.1)">
       <defs>
        <path id="DejaVuSans-35" d="M 691 4666 
L 3169 4666 
L 3169 4134 
L 1269 4134 
L 1269 2991 
Q 1406 3038 1543 3061 
Q 1681 3084 1819 3084 
Q 2600 3084 3056 2656 
Q 3513 2228 3513 1497 
Q 3513 744 3044 326 
Q 2575 -91 1722 -91 
Q 1428 -91 1123 -41 
Q 819 9 494 109 
L 494 744 
Q 775 591 1075 516 
Q 1375 441 1709 441 
Q 2250 441 2565 725 
Q 2881 1009 2881 1497 
Q 2881 1984 2565 2268 
Q 2250 2553 1709 2553 
Q 1456 2553 1204 2497 
Q 953 2441 691 2322 
L 691 4666 
z
" transform="scale(0.015625)"/>
       </defs>
       <use xlink:href="#DejaVuSans-35"/>
       <use xlink:href="#DejaVuSans-30" x="63.623047"/>
       <use xlink:href="#DejaVuSans-30" x="127.246094"/>
      </g>
     </g>
    </g>
    <g id="ytick_7">
     <g id="line2d_13">
      <g>
       <use xlink:href="#m6c6bae72f9" x="55.925" y="50.676923" style="stroke: #000000; stroke-width: 0.8"/>
      </g>
     </g>
     <g id="text_14">
      <!-- 600 -->
      <g transform="translate(29.8375 54.476142)scale(0.1 -0.1)">
       <use xlink:href="#DejaVuSans-36"/>
       <use xlink:href="#DejaVuSans-30" x="63.623047"/>
       <use xlink:href="#DejaVuSans-30" x="127.246094"/>
      </g>
     </g>
    </g>
    <g id="text_15">
     <!-- Score -->
     <g transform="translate(22.717969 192.003516)rotate(-90)scale(0.15 -0.15)">
      <defs>
       <path id="DejaVuSans-53" d="M 3425 4513 
L 3425 3897 
Q 3066 4069 2747 4153 
Q 2428 4238 2131 4238 
Q 1616 4238 1336 4038 
Q 1056 3838 1056 3469 
Q 1056 3159 1242 3001 
Q 1428 2844 1947 2747 
L 2328 2669 
Q 3034 2534 3370 2195 
Q 3706 1856 3706 1288 
Q 3706 609 3251 259 
Q 2797 -91 1919 -91 
Q 1588 -91 1214 -16 
Q 841 59 441 206 
L 441 856 
Q 825 641 1194 531 
Q 1563 422 1919 422 
Q 2459 422 2753 634 
Q 3047 847 3047 1241 
Q 3047 1584 2836 1778 
Q 2625 1972 2144 2069 
L 1759 2144 
Q 1053 2284 737 2584 
Q 422 2884 422 3419 
Q 422 4038 858 4394 
Q 1294 4750 2059 4750 
Q 2388 4750 2728 4690 
Q 3069 4631 3425 4513 
z
" transform="scale(0.015625)"/>
       <path id="DejaVuSans-63" d="M 3122 3366 
L 3122 2828 
Q 2878 2963 2633 3030 
Q 2388 3097 2138 3097 
Q 1578 3097 1268 2742 
Q 959 2388 959 1747 
Q 959 1106 1268 751 
Q 1578 397 2138 397 
Q 2388 397 2633 464 
Q 2878 531 3122 666 
L 3122 134 
Q 2881 22 2623 -34 
Q 2366 -91 2075 -91 
Q 1284 -91 818 406 
Q 353 903 353 1747 
Q 353 2603 823 3093 
Q 1294 3584 2113 3584 
Q 2378 3584 2631 3529 
Q 2884 3475 3122 3366 
z
" transform="scale(0.015625)"/>
       <path id="DejaVuSans-72" d="M 2631 2963 
Q 2534 3019 2420 3045 
Q 2306 3072 2169 3072 
Q 1681 3072 1420 2755 
Q 1159 2438 1159 1844 
L 1159 0 
L 581 0 
L 581 3500 
L 1159 3500 
L 1159 2956 
Q 1341 3275 1631 3429 
Q 1922 3584 2338 3584 
Q 2397 3584 2469 3576 
Q 2541 3569 2628 3553 
L 2631 2963 
z
" transform="scale(0.015625)"/>
      </defs>
      <use xlink:href="#DejaVuSans-53"/>
      <use xlink:href="#DejaVuSans-63" x="63.476562"/>
      <use xlink:href="#DejaVuSans-6f" x="118.457031"/>
      <use xlink:href="#DejaVuSans-72" x="179.638672"/>
      <use xlink:href="#DejaVuSans-65" x="218.501953"/>
     </g>
    </g>
   </g>
   <g id="line2d_14">
    <path d="M 74.329545 289.572923 
L 74.698005 303.136615 
L 75.066464 305.761846 
L 75.434924 305.761846 
L 75.803383 308.824615 
L 76.171842 301.824 
L 76.540302 300.073846 
L 77.27722 305.324308 
L 77.64568 306.636923 
L 78.014139 308.824615 
L 78.382599 305.324308 
L 78.751058 300.073846 
L 79.119517 300.948923 
L 79.487977 283.884923 
L 79.856436 305.324308 
L 80.224895 305.324308 
L 80.593355 300.948923 
L 80.961814 307.074462 
L 81.330273 306.636923 
L 81.698733 307.949538 
L 82.067192 308.824615 
L 82.435652 303.136615 
L 82.804111 301.386462 
L 83.17257 306.199385 
L 83.54103 300.948923 
L 83.909489 303.136615 
L 84.277948 309.262154 
L 84.646408 306.199385 
L 85.014867 307.949538 
L 85.383327 306.199385 
L 85.751786 299.636308 
L 86.488705 307.949538 
L 87.225623 295.260923 
L 87.594083 304.011692 
L 87.962542 302.261538 
L 88.331001 305.324308 
L 88.699461 302.261538 
L 89.06792 306.636923 
L 89.43638 308.824615 
L 89.804839 296.136 
L 90.173298 307.949538 
L 90.541758 307.074462 
L 90.910217 300.073846 
L 91.278676 306.636923 
L 92.015595 306.636923 
L 92.384055 305.324308 
L 92.752514 296.136 
L 93.120973 307.949538 
L 93.857892 302.261538 
L 94.226351 297.011077 
L 94.594811 308.824615 
L 94.96327 292.198154 
L 95.331729 306.636923 
L 95.700189 305.761846 
L 96.068648 305.761846 
L 96.437108 309.262154 
L 96.805567 302.699077 
L 97.174026 300.511385 
L 97.542486 296.136 
L 97.910945 308.387077 
L 98.279404 306.199385 
L 98.647864 307.512 
L 99.016323 296.573538 
L 99.384783 300.948923 
L 99.753242 307.512 
L 100.121701 304.449231 
L 100.490161 307.074462 
L 100.85862 305.761846 
L 101.227079 308.387077 
L 101.595539 307.949538 
L 101.963998 306.199385 
L 102.332457 306.199385 
L 102.700917 303.574154 
L 103.069376 302.699077 
L 103.806295 307.074462 
L 104.174754 299.198769 
L 104.543214 307.074462 
L 104.911673 306.199385 
L 105.280132 307.949538 
L 105.648592 304.886769 
L 106.017051 304.011692 
L 106.75397 307.949538 
L 107.122429 285.197538 
L 107.490889 306.636923 
L 108.227807 292.635692 
L 108.596267 307.512 
L 108.964726 304.886769 
L 109.333185 307.949538 
L 109.701645 303.574154 
L 110.070104 281.259692 
L 110.438564 304.886769 
L 110.807023 303.136615 
L 111.175482 299.198769 
L 111.543942 308.387077 
L 111.912401 306.199385 
L 112.28086 305.761846 
L 112.64932 304.011692 
L 113.017779 293.073231 
L 113.386239 303.574154 
L 113.754698 307.512 
L 114.491617 303.574154 
L 114.860076 307.949538 
L 115.596995 297.448615 
L 115.965454 280.822154 
L 116.333913 304.886769 
L 116.702373 304.011692 
L 117.070832 304.886769 
L 117.439292 309.699692 
L 118.17621 304.886769 
L 118.54467 296.136 
L 118.913129 304.011692 
L 119.281588 305.761846 
L 119.650048 297.886154 
L 120.018507 299.636308 
L 120.386967 299.636308 
L 120.755426 304.886769 
L 121.123885 307.074462 
L 121.492345 298.323692 
L 121.860804 304.449231 
L 122.229263 307.074462 
L 122.966182 301.386462 
L 123.334641 307.512 
L 123.703101 308.387077 
L 124.07156 308.387077 
L 124.44002 305.761846 
L 124.808479 304.449231 
L 125.176938 306.636923 
L 125.545398 299.636308 
L 125.913857 303.136615 
L 126.282316 298.761231 
L 126.650776 300.511385 
L 127.019235 299.636308 
L 127.387695 304.449231 
L 127.756154 299.636308 
L 128.124613 298.761231 
L 128.493073 307.512 
L 128.861532 303.136615 
L 129.229991 283.884923 
L 129.598451 304.449231 
L 129.96691 305.324308 
L 130.335369 307.074462 
L 130.703829 290.885538 
L 131.072288 307.074462 
L 131.440748 304.449231 
L 131.809207 307.074462 
L 132.177666 307.512 
L 132.546126 301.386462 
L 132.914585 306.636923 
L 133.283044 286.072615 
L 134.019963 303.574154 
L 134.388423 301.824 
L 134.756882 302.699077 
L 135.125341 302.699077 
L 135.493801 301.386462 
L 135.86226 301.824 
L 136.230719 290.010462 
L 136.599179 304.886769 
L 136.967638 292.198154 
L 137.336097 308.387077 
L 137.704557 306.199385 
L 138.073016 307.074462 
L 138.441476 297.011077 
L 138.809935 298.761231 
L 139.178394 298.761231 
L 139.546854 302.261538 
L 139.915313 298.323692 
L 140.283772 301.824 
L 140.652232 299.198769 
L 141.020691 297.886154 
L 141.389151 306.636923 
L 141.75761 306.199385 
L 142.126069 304.449231 
L 142.494529 304.449231 
L 142.862988 295.260923 
L 143.231447 306.199385 
L 143.599907 285.635077 
L 143.968366 304.449231 
L 144.336825 302.261538 
L 144.705285 302.699077 
L 145.073744 309.262154 
L 145.442204 302.699077 
L 145.810663 299.636308 
L 146.179122 300.073846 
L 146.547582 305.324308 
L 146.916041 279.947077 
L 147.2845 307.512 
L 147.65296 305.761846 
L 148.021419 296.573538 
L 148.389879 295.260923 
L 148.758338 304.011692 
L 149.495257 303.136615 
L 149.863716 307.074462 
L 150.232175 283.009846 
L 150.600635 305.324308 
L 150.969094 303.136615 
L 151.337553 298.323692 
L 151.706013 304.886769 
L 152.074472 308.824615 
L 152.442932 280.822154 
L 152.811391 308.824615 
L 153.17985 307.512 
L 153.54831 307.074462 
L 153.916769 302.699077 
L 154.285228 307.949538 
L 154.653688 297.011077 
L 155.022147 300.073846 
L 155.390607 297.448615 
L 155.759066 298.761231 
L 156.127525 302.699077 
L 156.495985 302.261538 
L 156.864444 299.636308 
L 157.232903 288.697846 
L 157.601363 300.073846 
L 157.969822 306.636923 
L 158.338281 295.260923 
L 158.706741 298.761231 
L 159.0752 306.199385 
L 159.44366 299.636308 
L 159.812119 304.886769 
L 160.180578 306.636923 
L 160.917497 298.323692 
L 161.654416 283.447385 
L 162.022875 307.074462 
L 162.391335 298.761231 
L 162.759794 300.073846 
L 163.128253 305.324308 
L 163.496713 293.073231 
L 163.865172 301.824 
L 164.233631 271.633846 
L 164.602091 277.759385 
L 164.97055 301.386462 
L 165.339009 301.386462 
L 165.707469 279.509538 
L 166.075928 306.636923 
L 166.444388 300.073846 
L 166.812847 305.324308 
L 167.181306 298.761231 
L 167.549766 300.073846 
L 167.918225 304.449231 
L 168.286684 302.261538 
L 168.655144 289.572923 
L 169.023603 303.136615 
L 169.392063 307.074462 
L 169.760522 290.885538 
L 170.128981 307.949538 
L 170.497441 273.821538 
L 170.8659 307.074462 
L 171.234359 292.635692 
L 171.602819 301.386462 
L 171.971278 278.634462 
L 172.708197 295.698462 
L 173.076656 295.260923 
L 173.445116 307.074462 
L 173.813575 301.386462 
L 174.182034 300.948923 
L 174.550494 305.761846 
L 174.918953 304.886769 
L 175.287412 292.198154 
L 175.655872 302.261538 
L 176.024331 308.387077 
L 176.392791 295.698462 
L 176.76125 288.697846 
L 177.129709 301.824 
L 177.498169 304.449231 
L 177.866628 305.761846 
L 178.235087 301.824 
L 178.603547 301.386462 
L 178.972006 296.136 
L 179.340465 297.011077 
L 179.708925 307.074462 
L 180.077384 300.073846 
L 180.445844 296.573538 
L 180.814303 291.323077 
L 181.182762 297.448615 
L 181.919681 305.324308 
L 182.28814 300.948923 
L 182.6566 293.073231 
L 183.025059 304.886769 
L 183.393519 301.386462 
L 183.761978 262.445538 
L 184.130437 291.323077 
L 184.498897 307.074462 
L 184.867356 300.511385 
L 185.235815 300.511385 
L 185.604275 297.886154 
L 185.972734 299.198769 
L 186.341193 291.760615 
L 186.709653 288.697846 
L 187.446572 298.761231 
L 187.815031 298.761231 
L 188.18349 302.699077 
L 188.55195 292.198154 
L 188.920409 294.823385 
L 189.288868 305.324308 
L 189.657328 272.508923 
L 190.025787 281.259692 
L 190.394247 300.948923 
L 190.762706 302.261538 
L 191.131165 305.324308 
L 191.499625 294.823385 
L 191.868084 292.198154 
L 192.236543 293.073231 
L 192.605003 300.511385 
L 192.973462 303.574154 
L 193.341921 284.322462 
L 193.710381 279.947077 
L 194.07884 305.324308 
L 194.815759 288.260308 
L 195.184218 297.011077 
L 195.552678 282.572308 
L 195.921137 273.384 
L 196.289596 295.260923 
L 197.026515 304.011692 
L 197.394975 306.199385 
L 197.763434 302.699077 
L 198.131893 291.760615 
L 198.500353 298.323692 
L 198.868812 302.699077 
L 199.237271 287.385231 
L 199.605731 303.574154 
L 199.97419 268.571077 
L 200.342649 290.448 
L 200.711109 286.072615 
L 201.079568 297.448615 
L 201.448028 288.697846 
L 201.816487 296.136 
L 202.184946 286.947692 
L 202.553406 285.635077 
L 202.921865 300.073846 
L 203.290324 302.699077 
L 203.658784 306.199385 
L 204.027243 287.822769 
L 204.395703 303.574154 
L 204.764162 304.011692 
L 205.132621 294.385846 
L 205.501081 278.634462 
L 205.86954 302.261538 
L 206.237999 287.822769 
L 206.606459 293.510769 
L 206.974918 286.510154 
L 207.343377 304.011692 
L 207.711837 300.948923 
L 208.080296 305.324308 
L 208.448756 293.948308 
L 208.817215 302.261538 
L 209.185674 289.572923 
L 209.554134 300.511385 
L 209.922593 272.071385 
L 210.291052 304.886769 
L 210.659512 300.948923 
L 211.027971 287.385231 
L 211.396431 291.323077 
L 211.76489 299.636308 
L 212.133349 297.448615 
L 212.501809 289.572923 
L 212.870268 284.76 
L 213.238727 283.884923 
L 213.607187 274.259077 
L 213.975646 297.886154 
L 214.712565 295.260923 
L 215.081024 300.511385 
L 215.449484 269.008615 
L 215.817943 292.635692 
L 216.554862 295.260923 
L 216.923321 291.760615 
L 217.29178 282.572308 
L 217.66024 299.198769 
L 218.028699 297.448615 
L 218.397159 298.761231 
L 218.765618 276.884308 
L 219.134077 298.761231 
L 219.502537 268.571077 
L 219.870996 294.385846 
L 220.239455 293.948308 
L 220.607915 284.322462 
L 220.976374 279.072 
L 221.344833 293.073231 
L 221.713293 262.883077 
L 222.081752 291.760615 
L 222.450212 289.135385 
L 222.818671 293.073231 
L 223.18713 295.260923 
L 223.55559 294.385846 
L 223.924049 280.384615 
L 224.292508 296.573538 
L 224.660968 295.260923 
L 225.029427 304.449231 
L 225.397887 283.447385 
L 225.766346 283.447385 
L 226.134805 287.822769 
L 226.503265 274.259077 
L 226.871724 295.698462 
L 227.240183 297.886154 
L 227.608643 296.573538 
L 227.977102 297.448615 
L 228.345561 286.072615 
L 228.714021 278.634462 
L 229.08248 290.448 
L 229.45094 297.448615 
L 229.819399 296.573538 
L 230.556318 287.822769 
L 230.924777 274.696615 
L 231.293236 292.198154 
L 231.661696 276.884308 
L 232.030155 283.009846 
L 232.398615 300.073846 
L 232.767074 291.760615 
L 233.135533 296.136 
L 233.503993 297.886154 
L 233.872452 287.822769 
L 234.240911 297.448615 
L 234.97783 265.945846 
L 235.346289 293.073231 
L 235.714749 259.820308 
L 236.083208 298.761231 
L 236.451668 286.510154 
L 236.820127 290.010462 
L 237.188586 281.697231 
L 237.557046 280.822154 
L 237.925505 282.572308 
L 238.293964 300.948923 
L 238.662424 285.197538 
L 239.030883 261.570462 
L 239.399343 279.072 
L 239.767802 285.635077 
L 240.136261 296.573538 
L 240.504721 291.323077 
L 240.87318 287.822769 
L 241.241639 293.948308 
L 241.610099 290.448 
L 241.978558 279.072 
L 242.347017 297.011077 
L 242.715477 291.760615 
L 243.083936 299.198769 
L 243.452396 287.822769 
L 243.820855 265.070769 
L 244.189314 268.571077 
L 244.557774 282.134769 
L 244.926233 279.072 
L 245.294692 298.323692 
L 245.663152 269.008615 
L 246.031611 297.886154 
L 246.400071 282.572308 
L 246.76853 248.444308 
L 247.136989 248.444308 
L 247.505449 285.635077 
L 247.873908 301.386462 
L 248.242367 295.260923 
L 248.610827 293.510769 
L 248.979286 272.508923 
L 249.347745 293.948308 
L 249.716205 284.322462 
L 250.084664 282.134769 
L 250.453124 286.947692 
L 250.821583 287.822769 
L 251.190042 278.196923 
L 251.558502 279.509538 
L 251.926961 264.633231 
L 252.29542 292.635692 
L 252.66388 275.134154 
L 253.032339 300.073846 
L 253.400799 292.635692 
L 253.769258 279.072 
L 254.137717 293.948308 
L 254.506177 285.197538 
L 254.874636 291.760615 
L 255.243095 267.258462 
L 255.611555 289.572923 
L 255.980014 283.884923 
L 256.348473 292.198154 
L 256.716933 260.695385 
L 257.085392 288.697846 
L 257.453852 289.572923 
L 257.822311 297.886154 
L 258.19077 278.634462 
L 258.55923 275.571692 
L 258.927689 261.570462 
L 259.296148 293.948308 
L 259.664608 289.135385 
L 260.033067 273.821538 
L 260.401527 289.135385 
L 260.769986 288.260308 
L 261.138445 286.072615 
L 261.506905 282.134769 
L 261.875364 287.385231 
L 262.243823 270.321231 
L 262.612283 297.011077 
L 262.980742 285.197538 
L 263.349201 291.760615 
L 263.717661 234.880615 
L 264.45458 277.759385 
L 264.823039 291.323077 
L 265.191498 282.572308 
L 265.559958 277.321846 
L 265.928417 295.698462 
L 266.296876 281.697231 
L 266.665336 250.194462 
L 267.033795 278.634462 
L 267.402255 271.196308 
L 267.770714 223.942154 
L 268.139173 278.634462 
L 268.507633 273.821538 
L 268.876092 293.510769 
L 269.244551 293.073231 
L 269.613011 277.321846 
L 269.98147 280.384615 
L 270.349929 277.759385 
L 270.718389 253.694769 
L 271.086848 294.823385 
L 271.455308 276.446769 
L 271.823767 241.006154 
L 272.192226 266.820923 
L 272.560686 269.446154 
L 272.929145 282.572308 
L 273.297604 283.884923 
L 273.666064 286.510154 
L 274.034523 278.634462 
L 274.402983 290.010462 
L 274.771442 275.571692 
L 275.139901 255.444923 
L 275.508361 277.321846 
L 275.87682 265.945846 
L 276.245279 245.381538 
L 276.613739 274.696615 
L 276.982198 264.633231 
L 277.350657 272.946462 
L 277.719117 265.508308 
L 278.087576 243.631385 
L 278.456036 263.758154 
L 278.824495 256.757538 
L 279.192954 268.133538 
L 279.561414 219.129231 
L 279.929873 275.571692 
L 280.298332 275.134154 
L 280.666792 264.633231 
L 281.035251 279.072 
L 281.403711 260.257846 
L 281.77217 266.383385 
L 282.140629 280.822154 
L 282.509089 276.446769 
L 282.877548 234.005538 
L 283.246007 277.321846 
L 283.614467 261.132923 
L 283.982926 258.945231 
L 284.351385 228.755077 
L 284.719845 293.510769 
L 285.088304 272.508923 
L 285.456764 220.879385 
L 285.825223 230.942769 
L 286.193682 270.758769 
L 286.930601 238.818462 
L 287.29906 280.384615 
L 287.66752 272.946462 
L 288.035979 282.134769 
L 288.404439 253.257231 
L 288.772898 280.822154 
L 289.141357 286.947692 
L 289.509817 234.443077 
L 289.878276 275.571692 
L 290.246735 287.822769 
L 290.615195 232.692923 
L 290.983654 250.632 
L 291.352113 252.382154 
L 291.720573 283.009846 
L 292.089032 280.822154 
L 292.457492 257.632615 
L 292.825951 263.320615 
L 293.19441 279.509538 
L 293.56287 287.385231 
L 293.931329 290.448 
L 294.299788 264.633231 
L 294.668248 275.134154 
L 295.036707 242.318769 
L 295.405167 247.569231 
L 295.773626 266.820923 
L 296.142085 268.133538 
L 296.510545 276.446769 
L 296.879004 276.009231 
L 297.247463 282.572308 
L 297.615923 233.568 
L 297.984382 280.822154 
L 298.352841 278.196923 
L 299.08976 245.819077 
L 299.45822 271.633846 
L 299.826679 229.630154 
L 300.195138 286.510154 
L 300.563598 246.694154 
L 300.932057 290.885538 
L 301.300516 262.883077 
L 301.668976 272.508923 
L 302.037435 279.072 
L 302.405895 270.758769 
L 302.774354 283.009846 
L 303.142813 274.696615 
L 303.511273 278.196923 
L 303.879732 277.759385 
L 304.248191 272.071385 
L 304.98511 283.884923 
L 305.353569 279.947077 
L 305.722029 283.447385 
L 306.090488 279.072 
L 306.458948 256.757538 
L 306.827407 275.571692 
L 307.195866 284.76 
L 307.564326 256.32 
L 307.932785 273.384 
L 308.301244 255.007385 
L 308.669704 287.822769 
L 309.038163 258.945231 
L 309.406623 284.322462 
L 309.775082 280.822154 
L 310.512001 253.257231 
L 310.88046 273.384 
L 311.248919 275.571692 
L 311.617379 268.571077 
L 311.985838 256.32 
L 312.354297 272.508923 
L 312.722757 242.318769 
L 313.091216 286.072615 
L 313.459676 258.070154 
L 313.828135 287.822769 
L 314.196594 277.759385 
L 314.565054 275.134154 
L 314.933513 275.571692 
L 315.301972 280.384615 
L 315.670432 292.198154 
L 316.038891 282.572308 
L 316.407351 284.322462 
L 316.77581 268.133538 
L 317.144269 264.195692 
L 317.512729 289.572923 
L 317.881188 293.073231 
L 318.249647 277.321846 
L 318.618107 266.820923 
L 318.986566 282.572308 
L 319.355025 288.260308 
L 319.723485 282.134769 
L 320.091944 281.259692 
L 320.460404 272.508923 
L 320.828863 285.197538 
L 321.197322 279.072 
L 321.565782 261.570462 
L 321.934241 289.135385 
L 322.3027 251.069538 
L 322.67116 289.135385 
L 323.039619 291.323077 
L 323.408079 286.072615 
L 323.776538 272.946462 
L 324.144997 277.759385 
L 324.513457 285.197538 
L 324.881916 262.445538 
L 325.250375 276.009231 
L 325.618835 271.633846 
L 325.987294 290.010462 
L 326.355753 269.008615 
L 326.724213 293.510769 
L 327.092672 288.260308 
L 327.461132 269.008615 
L 327.829591 281.259692 
L 328.19805 261.570462 
L 328.56651 296.573538 
L 328.934969 288.260308 
L 329.303428 293.073231 
L 329.671888 278.196923 
L 330.040347 279.509538 
L 330.408807 253.257231 
L 330.777266 271.633846 
L 331.145725 265.508308 
L 331.514185 283.884923 
L 331.882644 283.447385 
L 332.251103 238.380923 
L 332.619563 286.510154 
L 332.988022 283.884923 
L 333.356481 284.76 
L 333.724941 287.822769 
L 334.0934 279.072 
L 334.46186 286.947692 
L 334.830319 258.945231 
L 335.198778 279.947077 
L 335.567238 288.697846 
L 335.935697 277.321846 
L 336.304156 294.823385 
L 336.672616 291.760615 
L 337.041075 292.635692 
L 337.409535 292.635692 
L 337.777994 283.884923 
L 338.146453 292.635692 
L 338.514913 297.011077 
L 338.883372 294.823385 
L 339.251831 293.948308 
L 339.620291 291.760615 
L 339.98875 294.823385 
L 340.357209 284.322462 
L 340.725669 293.073231 
L 341.462588 284.322462 
L 341.831047 287.822769 
L 342.199506 288.697846 
L 342.567966 290.448 
L 342.936425 293.510769 
L 343.304884 292.198154 
L 343.673344 297.011077 
L 344.041803 280.822154 
L 344.410263 275.134154 
L 344.778722 274.259077 
L 345.147181 293.510769 
L 345.515641 293.510769 
L 345.8841 279.072 
L 346.252559 283.884923 
L 346.621019 292.198154 
L 346.989478 276.009231 
L 347.357937 280.384615 
L 347.726397 288.697846 
L 348.094856 283.447385 
L 348.463316 296.136 
L 348.831775 287.385231 
L 349.200234 294.385846 
L 349.568694 293.948308 
L 349.937153 286.947692 
L 350.305612 297.011077 
L 350.674072 281.259692 
L 351.042531 282.572308 
L 351.410991 289.135385 
L 351.77945 283.447385 
L 352.147909 293.510769 
L 352.516369 263.758154 
L 352.884828 268.571077 
L 353.253287 286.947692 
L 353.621747 292.635692 
L 353.990206 283.884923 
L 354.358665 288.697846 
L 354.727125 289.135385 
L 355.095584 282.134769 
L 355.464044 283.884923 
L 355.832503 295.260923 
L 356.200962 286.947692 
L 356.569422 286.510154 
L 356.937881 292.198154 
L 357.30634 282.134769 
L 357.6748 292.635692 
L 358.043259 292.635692 
L 358.411719 266.383385 
L 358.780178 274.696615 
L 359.148637 263.320615 
L 359.517097 296.136 
L 359.885556 295.698462 
L 360.254015 282.134769 
L 360.622475 295.260923 
L 360.990934 276.446769 
L 361.359393 294.823385 
L 362.096312 279.072 
L 362.833231 295.260923 
L 363.20169 292.635692 
L 363.57015 279.947077 
L 363.938609 292.635692 
L 364.307068 297.448615 
L 364.675528 284.76 
L 365.043987 283.009846 
L 365.412447 290.010462 
L 365.780906 289.572923 
L 366.149365 286.947692 
L 366.517825 295.260923 
L 366.886284 294.385846 
L 367.254743 293.073231 
L 367.623203 289.572923 
L 367.991662 283.884923 
L 368.360121 284.322462 
L 368.728581 261.132923 
L 369.09704 297.011077 
L 369.4655 279.947077 
L 369.833959 288.697846 
L 370.202418 290.010462 
L 370.570878 288.260308 
L 370.939337 289.572923 
L 371.307796 291.323077 
L 371.676256 291.323077 
L 372.044715 289.135385 
L 372.413175 284.322462 
L 372.781634 283.447385 
L 373.518553 290.448 
L 373.887012 295.698462 
L 374.623931 287.385231 
L 374.99239 276.884308 
L 375.360849 291.760615 
L 375.729309 296.573538 
L 376.097768 282.134769 
L 376.834687 297.011077 
L 377.203146 280.822154 
L 377.571606 288.697846 
L 377.940065 272.946462 
L 378.308524 272.508923 
L 379.045443 290.885538 
L 379.413903 280.384615 
L 380.150821 290.448 
L 380.519281 281.697231 
L 380.88774 282.134769 
L 381.256199 275.571692 
L 381.624659 287.385231 
L 381.993118 290.448 
L 382.361577 294.823385 
L 382.730037 286.072615 
L 383.098496 270.321231 
L 383.466956 292.635692 
L 383.835415 277.759385 
L 384.203874 282.572308 
L 384.572334 289.572923 
L 384.940793 265.070769 
L 385.309252 289.572923 
L 385.677712 272.071385 
L 386.046171 276.446769 
L 386.414631 289.572923 
L 386.78309 286.072615 
L 387.151549 280.384615 
L 387.520009 281.697231 
L 387.888468 292.198154 
L 388.256927 280.384615 
L 388.625387 284.76 
L 388.993846 283.009846 
L 389.362305 287.822769 
L 389.730765 282.134769 
L 390.099224 292.635692 
L 390.467684 256.32 
L 390.836143 265.508308 
L 391.204602 264.195692 
L 391.573062 290.010462 
L 391.941521 276.884308 
L 392.30998 292.635692 
L 392.67844 269.446154 
L 393.046899 283.884923 
L 393.415359 261.132923 
L 393.783818 276.446769 
L 394.520737 290.885538 
L 394.889196 280.384615 
L 395.257655 259.820308 
L 395.626115 264.195692 
L 395.994574 281.697231 
L 396.363033 283.884923 
L 396.731493 266.820923 
L 397.099952 277.321846 
L 397.468412 282.134769 
L 397.836871 281.697231 
L 398.20533 277.321846 
L 398.57379 286.947692 
L 398.942249 286.072615 
L 399.310708 272.946462 
L 399.679168 276.446769 
L 400.047627 288.260308 
L 400.416087 265.945846 
L 400.784546 272.946462 
L 401.153005 282.572308 
L 401.521465 242.318769 
L 401.889924 265.070769 
L 402.258383 275.571692 
L 402.995302 263.758154 
L 403.363761 265.508308 
L 403.732221 271.196308 
L 404.10068 283.884923 
L 404.46914 269.446154 
L 404.837599 280.384615 
L 405.206058 278.196923 
L 405.574518 279.509538 
L 405.942977 257.195077 
L 406.679896 286.072615 
L 407.416815 280.384615 
L 407.785274 264.633231 
L 408.153733 281.697231 
L 408.522193 238.818462 
L 408.890652 282.572308 
L 409.259111 269.446154 
L 409.627571 213.441231 
L 409.99603 255.882462 
L 410.364489 280.822154 
L 410.732949 231.817846 
L 411.101408 255.007385 
L 411.469868 262.883077 
L 411.838327 233.130462 
L 412.206786 281.259692 
L 412.575246 252.819692 
L 412.943705 247.569231 
L 413.312164 265.070769 
L 413.680624 269.883692 
L 414.417543 263.320615 
L 414.786002 239.256 
L 415.154461 263.320615 
L 415.522921 271.633846 
L 415.89138 259.382769 
L 416.259839 265.945846 
L 416.628299 265.945846 
L 416.996758 251.944615 
L 417.733677 275.571692 
L 418.102136 274.259077 
L 418.470596 278.196923 
L 418.839055 275.134154 
L 419.207514 258.507692 
L 419.575974 258.507692 
L 419.944433 263.320615 
L 420.312892 282.572308 
L 420.681352 261.132923 
L 421.049811 257.632615 
L 421.418271 277.759385 
L 421.78673 270.321231 
L 422.155189 256.757538 
L 422.523649 261.570462 
L 422.892108 244.068923 
L 423.629027 284.322462 
L 423.997486 248.006769 
L 424.365945 276.884308 
L 424.734405 282.134769 
L 425.102864 262.008 
L 425.471324 277.759385 
L 425.839783 280.822154 
L 426.208242 278.634462 
L 426.576702 279.947077 
L 426.945161 278.634462 
L 427.31362 289.135385 
L 427.68208 260.257846 
L 428.050539 282.134769 
L 428.418999 282.572308 
L 428.787458 275.134154 
L 429.155917 283.009846 
L 429.524377 274.696615 
L 429.892836 286.072615 
L 430.261295 274.259077 
L 430.629755 266.820923 
L 430.998214 265.070769 
L 431.366673 283.009846 
L 431.735133 276.884308 
L 432.103592 265.508308 
L 432.472052 276.446769 
L 432.840511 275.571692 
L 433.20897 272.946462 
L 433.57743 279.947077 
L 433.945889 279.072 
L 434.314348 265.070769 
L 434.682808 284.322462 
L 435.051267 289.135385 
L 435.419727 269.883692 
L 435.788186 283.447385 
L 436.156645 273.821538 
L 436.525105 275.134154 
L 436.893564 272.508923 
L 437.262023 240.568615 
L 437.630483 275.134154 
L 437.998942 275.134154 
L 438.735861 280.822154 
L 439.10432 281.259692 
L 439.47278 270.758769 
L 439.841239 274.259077 
L 440.209698 272.071385 
L 440.578158 268.571077 
L 440.946617 279.072 
L 441.315076 283.884923 
L 441.683536 281.697231 
L 442.051995 270.321231 
L 442.420455 278.634462 
L 442.420455 278.634462 
" clip-path="url(#p4ba60bee5e)" style="fill: none; stroke: #708090; stroke-width: 1.5; stroke-linecap: square"/>
   </g>
   <g id="line2d_15">
    <path d="M 74.329545 303.801674 
L 75.066464 304.029194 
L 75.803383 303.950437 
L 76.171842 303.714166 
L 76.540302 303.854178 
L 76.908761 303.696665 
L 77.64568 303.775422 
L 79.487977 303.626658 
L 79.856436 304.116702 
L 80.961814 304.090449 
L 81.330273 303.967938 
L 82.067192 303.915434 
L 82.804111 303.932935 
L 83.54103 304.107951 
L 84.277948 304.274215 
L 85.383327 304.029194 
L 87.225623 304.186708 
L 87.594083 304.379225 
L 88.331001 304.449231 
L 88.699461 304.501735 
L 89.06792 304.160455 
L 89.43638 304.160455 
L 89.804839 303.959188 
L 90.910217 303.836677 
L 91.278676 303.994191 
L 91.647136 303.932935 
L 92.015595 303.425391 
L 93.120973 303.407889 
L 94.226351 303.504148 
L 94.594811 303.64416 
L 94.96327 303.329132 
L 95.331729 303.556652 
L 96.437108 303.521649 
L 97.542486 303.434142 
L 97.910945 303.127865 
L 99.016323 302.9616 
L 99.753242 303.355385 
L 100.121701 303.30288 
L 100.85862 303.07536 
L 101.227079 303.07536 
L 102.332457 302.567815 
L 104.174754 302.515311 
L 104.543214 302.611569 
L 104.911673 302.497809 
L 107.122429 302.585317 
L 107.490889 302.874092 
L 108.227807 302.804086 
L 108.596267 302.9616 
L 108.964726 302.804086 
L 109.333185 302.795335 
L 110.070104 302.532812 
L 110.438564 303.057858 
L 110.807023 303.022855 
L 111.175482 302.637822 
L 111.543942 302.742831 
L 112.28086 302.699077 
L 112.64932 302.401551 
L 113.017779 302.462806 
L 113.386239 302.690326 
L 114.123157 302.760332 
L 114.491617 302.681575 
L 114.860076 302.742831 
L 115.228535 302.305292 
L 115.596995 302.174031 
L 115.965454 302.296542 
L 116.333913 302.716578 
L 117.439292 302.576566 
L 117.807751 302.419052 
L 118.17621 302.069022 
L 119.650048 302.086523 
L 120.018507 302.270289 
L 122.229263 301.929009 
L 122.966182 301.648985 
L 123.334641 301.753994 
L 124.44002 301.570228 
L 124.808479 301.360209 
L 125.176938 301.395212 
L 125.545398 300.975175 
L 126.282316 301.053932 
L 127.756154 301.272702 
L 128.124613 301.281452 
L 128.493073 301.412714 
L 128.861532 300.861415 
L 129.229991 300.948923 
L 129.598451 301.386462 
L 130.703829 300.966425 
L 131.072288 301.220197 
L 131.440748 301.14144 
L 131.809207 301.193945 
L 132.177666 300.712652 
L 133.283044 300.537637 
L 134.019963 301.167692 
L 134.388423 300.712652 
L 135.493801 301.036431 
L 136.230719 301.185194 
L 136.599179 301.325206 
L 136.967638 301.228948 
L 137.336097 301.333957 
L 138.073016 301.071434 
L 138.441476 300.975175 
L 138.809935 301.02768 
L 139.178394 300.826412 
L 140.283772 300.878917 
L 140.652232 300.817662 
L 141.389151 300.992677 
L 142.862988 300.791409 
L 143.231447 300.677649 
L 143.599907 300.222609 
L 143.968366 300.651397 
L 144.705285 300.493883 
L 145.073744 300.546388 
L 145.442204 300.222609 
L 145.810663 300.205108 
L 146.547582 299.198769 
L 146.916041 299.120012 
L 147.2845 299.5488 
L 147.65296 298.988751 
L 148.389879 299.076258 
L 148.758338 299.277526 
L 149.495257 299.102511 
L 149.863716 299.128763 
L 150.232175 299.032505 
L 150.600635 299.163766 
L 150.969094 299.120012 
L 151.337553 299.198769 
L 151.706013 299.050006 
L 152.074472 299.111262 
L 152.442932 298.4112 
L 152.811391 298.936246 
L 153.17985 298.612468 
L 153.54831 298.489957 
L 153.916769 297.921157 
L 154.653688 297.343606 
L 155.022147 297.308603 
L 155.759066 297.527372 
L 156.864444 297.684886 
L 157.232903 297.536123 
L 157.969822 297.973662 
L 158.706741 297.623631 
L 159.812119 297.772394 
L 161.285956 297.466117 
L 162.022875 298.148677 
L 162.759794 297.789895 
L 163.496713 297.649883 
L 163.865172 297.894905 
L 164.233631 297.877403 
L 164.97055 298.848738 
L 165.339009 298.848738 
L 165.707469 298.06992 
L 166.075928 298.306191 
L 167.181306 298.227434 
L 167.918225 298.192431 
L 168.655144 297.667385 
L 169.023603 297.763643 
L 169.760522 297.509871 
L 170.128981 297.746142 
L 170.497441 297.431114 
L 170.8659 297.851151 
L 171.234359 297.816148 
L 171.971278 297.011077 
L 172.708197 297.781145 
L 173.076656 297.973662 
L 173.445116 297.964911 
L 174.182034 297.50112 
L 174.918953 297.448615 
L 175.655872 296.792308 
L 176.024331 296.853563 
L 176.76125 296.494782 
L 177.129709 296.661046 
L 177.498169 296.276012 
L 177.866628 295.654708 
L 178.235087 295.444689 
L 178.972006 295.462191 
L 179.708925 295.777218 
L 180.077384 295.470942 
L 180.445844 295.435938 
L 180.814303 295.558449 
L 181.182762 295.479692 
L 181.551222 295.602203 
L 181.919681 294.954646 
L 182.6566 294.359594 
L 183.025059 294.447102 
L 183.393519 294.123323 
L 183.761978 294.018314 
L 184.130437 294.508357 
L 184.867356 294.254585 
L 185.604275 294.412098 
L 185.972734 294.210831 
L 186.341193 294.298338 
L 187.078112 294.65712 
L 187.446572 294.342092 
L 187.815031 294.412098 
L 188.55195 294.009563 
L 188.920409 293.895803 
L 189.288868 294.079569 
L 189.657328 293.992062 
L 190.025787 294.648369 
L 190.394247 294.902142 
L 190.762706 294.928394 
L 191.131165 294.674622 
L 191.499625 294.578363 
L 191.868084 294.123323 
L 192.605003 294.534609 
L 193.341921 294.027065 
L 194.07884 294.683372 
L 194.815759 294.105822 
L 195.184218 294.018314 
L 195.552678 293.563274 
L 195.921137 293.869551 
L 196.289596 294.333342 
L 197.026515 294.342092 
L 197.394975 293.642031 
L 198.131893 293.195742 
L 198.500353 293.265748 
L 198.868812 293.134486 
L 199.237271 292.731951 
L 199.605731 292.968222 
L 199.97419 292.845711 
L 200.342649 293.449514 
L 200.711109 293.17824 
L 201.079568 293.432012 
L 201.448028 292.854462 
L 201.816487 292.968222 
L 202.921865 292.740702 
L 203.290324 292.600689 
L 203.658784 291.804369 
L 204.027243 291.515594 
L 204.395703 291.541846 
L 205.132621 291.156812 
L 206.606459 291.226818 
L 206.974918 291.445588 
L 207.343377 291.384332 
L 208.448756 290.089218 
L 208.817215 290.124222 
L 209.185674 290.036714 
L 209.554134 290.176726 
L 209.922593 290.115471 
L 210.291052 290.395495 
L 210.659512 289.870449 
L 211.027971 289.660431 
L 211.76489 289.966708 
L 212.501809 289.625428 
L 212.870268 289.327902 
L 213.238727 289.476665 
L 213.607187 289.336652 
L 213.975646 289.511668 
L 214.344105 289.555422 
L 215.081024 289.476665 
L 215.449484 289.42416 
L 215.817943 289.800443 
L 216.186402 289.896702 
L 216.554862 289.65168 
L 216.923321 289.065378 
L 217.29178 289.091631 
L 217.66024 288.636591 
L 218.028699 288.62784 
L 218.765618 288.234055 
L 219.134077 288.330314 
L 219.502537 287.971532 
L 219.870996 288.251557 
L 220.239455 288.382818 
L 220.607915 288.207803 
L 220.976374 287.752763 
L 221.344833 287.752763 
L 221.713293 287.604 
L 222.081752 288.277809 
L 223.55559 288.164049 
L 223.924049 287.857772 
L 224.292508 288.190302 
L 224.660968 288.094043 
L 225.029427 288.1728 
L 226.134805 287.175212 
L 226.503265 287.061452 
L 227.240183 287.210215 
L 227.608643 286.632665 
L 227.977102 286.658917 
L 228.345561 286.361391 
L 229.08248 285.005022 
L 229.45094 284.908763 
L 230.187858 284.961268 
L 230.556318 284.98752 
L 230.924777 284.681243 
L 231.293236 285.066277 
L 231.661696 284.908763 
L 232.398615 285.092529 
L 233.503993 284.243705 
L 233.872452 283.578646 
L 234.240911 283.674905 
L 234.609371 283.228615 
L 234.97783 283.596148 
L 235.346289 284.129945 
L 235.714749 283.84992 
L 236.083208 284.53248 
L 236.451668 284.261206 
L 236.820127 284.366215 
L 237.188586 283.911175 
L 238.293964 284.322462 
L 238.662424 283.517391 
L 239.030883 283.587397 
L 239.767802 284.523729 
L 240.136261 284.383717 
L 240.504721 283.96368 
L 240.87318 283.368628 
L 241.241639 283.491138 
L 241.610099 283.39488 
L 241.978558 283.062351 
L 242.347017 283.263618 
L 243.820855 282.624812 
L 244.189314 282.729822 
L 244.557774 283.298622 
L 244.926233 283.359877 
L 245.294692 283.613649 
L 245.663152 282.344788 
L 246.031611 282.126018 
L 246.400071 281.723483 
L 246.76853 281.898498 
L 247.505449 283.158609 
L 247.873908 283.359877 
L 248.242367 282.966092 
L 248.610827 282.064763 
L 248.979286 281.767237 
L 249.347745 281.740985 
L 249.716205 280.340862 
L 250.453124 280.060837 
L 251.190042 280.297108 
L 251.926961 280.297108 
L 252.29542 280.559631 
L 252.66388 279.780812 
L 253.032339 280.174597 
L 253.400799 279.702055 
L 253.769258 278.669465 
L 254.137717 278.424443 
L 254.506177 277.9344 
L 255.243095 277.724382 
L 255.611555 278.109415 
L 255.980014 277.890646 
L 256.348473 278.013157 
L 256.716933 277.680628 
L 257.085392 277.575618 
L 257.453852 277.348098 
L 257.822311 276.875557 
L 258.19077 275.825465 
L 258.55923 275.746708 
L 258.927689 275.527938 
L 259.296148 275.755458 
L 259.664608 275.186658 
L 260.033067 274.276578 
L 260.401527 274.075311 
L 260.769986 273.427754 
L 261.138445 273.025218 
L 261.506905 271.686351 
L 262.612283 271.196308 
L 263.349201 270.338732 
L 263.717661 269.831188 
L 264.08612 270.750018 
L 264.45458 271.117551 
L 264.823039 270.242474 
L 265.191498 269.962449 
L 265.928417 269.166129 
L 266.296876 267.827262 
L 266.665336 268.063532 
L 267.033795 268.509822 
L 267.770714 266.549649 
L 268.139173 267.485982 
L 268.507633 266.987188 
L 268.876092 266.287126 
L 269.244551 266.024603 
L 269.613011 265.622068 
L 269.98147 265.718326 
L 270.349929 265.175778 
L 270.718389 265.237034 
L 271.086848 265.902092 
L 271.455308 264.694486 
L 271.823767 264.676985 
L 272.192226 265.613317 
L 272.560686 264.930757 
L 272.929145 264.554474 
L 273.297604 263.950671 
L 274.034523 263.819409 
L 274.771442 262.865575 
L 275.139901 262.944332 
L 275.508361 263.583138 
L 275.87682 263.845662 
L 276.245279 263.819409 
L 276.613739 264.414462 
L 276.982198 263.766905 
L 277.350657 263.425625 
L 277.719117 263.303114 
L 278.087576 263.355618 
L 278.456036 264.011926 
L 278.824495 264.256948 
L 279.192954 264.773243 
L 279.561414 264.081932 
L 279.929873 265.315791 
L 280.298332 265.368295 
L 281.403711 264.563225 
L 281.77217 263.950671 
L 282.140629 264.353206 
L 282.509089 263.670646 
L 282.877548 263.959422 
L 283.246007 264.536972 
L 283.614467 264.440714 
L 284.351385 265.035766 
L 284.719845 266.120862 
L 285.088304 265.744578 
L 285.456764 265.858338 
L 286.193682 267.818511 
L 286.562142 267.958523 
L 286.930601 268.562326 
L 287.29906 269.384898 
L 288.035979 269.568665 
L 288.404439 269.06112 
L 288.772898 269.507409 
L 289.141357 269.586166 
L 289.509817 268.973612 
L 289.878276 269.752431 
L 290.246735 269.341145 
L 290.615195 269.341145 
L 291.720573 271.1088 
L 292.089032 270.793772 
L 292.457492 270.242474 
L 293.19441 270.802523 
L 293.56287 270.583754 
L 293.931329 269.962449 
L 294.668248 269.157378 
L 295.405167 269.691175 
L 295.773626 270.496246 
L 296.510545 270.855028 
L 297.247463 270.925034 
L 297.615923 271.117551 
L 297.984382 272.097637 
L 298.352841 272.167643 
L 298.721301 271.966375 
L 299.08976 272.027631 
L 299.45822 272.902708 
L 299.826679 273.331495 
L 300.195138 274.285329 
L 300.563598 273.891545 
L 300.932057 274.609108 
L 301.300516 274.556603 
L 301.668976 274.941637 
L 302.037435 275.116652 
L 302.405895 274.985391 
L 302.774354 275.274166 
L 303.142813 275.195409 
L 303.511273 274.932886 
L 303.879732 275.151655 
L 304.248191 274.617858 
L 304.98511 275.230412 
L 305.353569 275.274166 
L 306.090488 275.020394 
L 306.827407 275.256665 
L 307.195866 275.265415 
L 307.564326 275.002892 
L 307.932785 275.676702 
L 308.301244 275.589194 
L 308.669704 276.359262 
L 309.038163 276.368012 
L 309.406623 276.56928 
L 309.775082 276.508025 
L 310.143541 276.122991 
L 311.248919 277.803138 
L 311.617379 277.855643 
L 311.985838 278.074412 
L 312.722757 277.995655 
L 313.091216 278.459446 
L 313.459676 278.415692 
L 313.828135 278.923237 
L 314.196594 277.9344 
L 315.670432 278.61696 
L 316.038891 278.354437 
L 316.407351 278.441945 
L 316.77581 277.9344 
L 317.144269 278.170671 
L 317.512729 278.660714 
L 317.881188 278.415692 
L 318.249647 278.450695 
L 318.618107 278.739471 
L 318.986566 279.255766 
L 319.355025 279.457034 
L 319.723485 279.369526 
L 320.460404 279.894572 
L 320.828863 280.340862 
L 321.565782 280.769649 
L 321.934241 281.434708 
L 322.3027 281.338449 
L 322.67116 282.178523 
L 323.039619 282.178523 
L 323.408079 282.038511 
L 323.776538 282.073514 
L 324.513457 282.642314 
L 324.881916 282.808578 
L 325.618835 283.823668 
L 325.987294 284.007434 
L 326.355753 283.709908 
L 328.19805 284.173698 
L 328.56651 284.786252 
L 328.934969 284.374966 
L 329.671888 284.129945 
L 330.040347 284.234954 
L 330.408807 284.567483 
L 331.145725 285.705083 
L 331.514185 286.273883 
L 331.882644 286.335138 
L 332.251103 286.606412 
L 332.619563 287.463988 
L 332.988022 287.385231 
L 333.356481 287.49024 
L 333.724941 287.463988 
L 334.0934 287.577748 
L 334.830319 286.903938 
L 335.198778 287.463988 
L 335.567238 287.71776 
L 335.935697 287.621502 
L 336.304156 287.849022 
L 337.041075 287.542745 
L 337.409535 287.367729 
L 338.146453 287.481489 
L 339.620291 286.982695 
L 339.98875 287.000197 
L 340.357209 286.431397 
L 340.725669 286.23888 
L 341.094128 285.643828 
L 341.831047 286.01136 
L 342.199506 285.8976 
L 342.567966 286.028862 
L 342.936425 285.748837 
L 343.304884 285.775089 
L 343.673344 285.687582 
L 344.041803 285.3288 
L 344.410263 285.468812 
L 345.147181 286.23888 
L 345.515641 285.967606 
L 345.8841 285.950105 
L 346.252559 286.317637 
L 346.621019 286.335138 
L 346.989478 286.151372 
L 347.726397 286.615163 
L 348.094856 286.58016 
L 348.463316 286.816431 
L 348.831775 286.781428 
L 349.200234 286.895188 
L 350.305612 286.545157 
L 350.674072 285.827594 
L 351.042531 286.142622 
L 351.77945 286.081366 
L 352.147909 286.212628 
L 352.516369 286.107618 
L 353.253287 287.078954 
L 353.621747 287.166462 
L 355.095584 286.947692 
L 355.832503 287.350228 
L 357.30634 287.078954 
L 357.6748 287.367729 
L 358.043259 287.157711 
L 358.411719 287.087705 
L 358.780178 287.700258 
L 359.148637 287.822769 
L 359.517097 288.330314 
L 360.254015 287.402732 
L 361.359393 287.37648 
L 361.727853 287.175212 
L 362.464772 287.280222 
L 362.833231 287.166462 
L 363.20169 286.772677 
L 363.57015 286.667668 
L 363.938609 286.877686 
L 364.307068 286.92144 
L 365.043987 286.405145 
L 365.412447 286.597662 
L 366.149365 286.212628 
L 366.517825 286.265132 
L 366.886284 285.661329 
L 367.254743 285.565071 
L 367.991662 284.882511 
L 368.728581 285.031274 
L 369.09704 285.416308 
L 369.4655 285.110031 
L 369.833959 285.355052 
L 370.570878 285.083778 
L 371.676256 284.76 
L 372.044715 284.786252 
L 372.413175 284.129945 
L 373.150093 283.368628 
L 373.518553 283.438634 
L 373.887012 283.16736 
L 374.255471 283.106105 
L 374.623931 282.668566 
L 374.99239 282.59856 
L 376.097768 281.732234 
L 376.466228 281.907249 
L 376.834687 281.732234 
L 377.203146 280.988418 
L 377.571606 280.655889 
L 377.940065 280.515877 
L 378.308524 280.734646 
L 380.150821 280.244603 
L 380.519281 280.174597 
L 380.88774 280.262105 
L 381.256199 280.078338 
L 381.993118 280.113342 
L 382.730037 279.18576 
L 383.098496 279.115754 
L 383.835415 278.004406 
L 384.203874 277.960652 
L 384.572334 277.715631 
L 384.940793 277.199335 
L 385.309252 277.208086 
L 385.677712 276.840554 
L 386.046171 277.076825 
L 387.520009 276.578031 
L 388.256927 275.641698 
L 388.625387 275.755458 
L 389.362305 275.676702 
L 389.730765 275.212911 
L 390.099224 275.20416 
L 390.467684 274.127815 
L 390.836143 274.652862 
L 391.204602 274.731618 
L 391.573062 273.716529 
L 391.941521 273.033969 
L 392.30998 273.112726 
L 392.67844 271.896369 
L 393.415359 271.187557 
L 393.783818 270.627508 
L 394.152277 270.723766 
L 394.520737 270.093711 
L 394.889196 269.227385 
L 395.257655 268.921108 
L 395.626115 269.122375 
L 395.994574 269.17488 
L 396.363033 268.807348 
L 396.731493 267.914769 
L 397.468412 267.731003 
L 398.20533 266.960935 
L 398.57379 266.733415 
L 398.942249 266.033354 
L 399.310708 265.604566 
L 400.047627 265.613317 
L 400.416087 265.412049 
L 400.784546 265.595815 
L 401.153005 265.30704 
L 401.521465 264.825748 
L 402.258383 265.595815 
L 402.995302 265.053268 
L 403.363761 265.333292 
L 403.732221 265.429551 
L 404.10068 265.140775 
L 405.206058 263.863163 
L 405.574518 263.985674 
L 405.942977 263.355618 
L 406.679896 263.994425 
L 407.048355 263.513132 
L 407.416815 263.399372 
L 407.785274 263.408123 
L 408.153733 263.688148 
L 408.522193 263.653145 
L 408.890652 264.449465 
L 409.259111 264.580726 
L 409.627571 264.39696 
L 409.99603 265.770831 
L 410.364489 266.304628 
L 410.732949 266.190868 
L 411.101408 267.214708 
L 411.838327 268.072283 
L 412.206786 268.894855 
L 412.575246 268.60608 
L 412.943705 268.851102 
L 413.312164 269.559914 
L 413.680624 269.796185 
L 414.049083 269.708677 
L 414.786002 270.146215 
L 415.154461 270.820025 
L 415.522921 271.152554 
L 416.259839 271.415077 
L 417.733677 272.981465 
L 418.839055 272.850203 
L 419.207514 272.158892 
L 420.312892 273.112726 
L 420.681352 273.077723 
L 421.418271 273.742782 
L 422.155189 273.707778 
L 422.892108 274.29408 
L 423.260567 275.0904 
L 423.629027 275.440431 
L 423.997486 275.160406 
L 424.365945 275.77296 
L 424.365945 275.77296 
" clip-path="url(#p4ba60bee5e)" style="fill: none; stroke: #000080; stroke-width: 1.5; stroke-linecap: square"/>
   </g>
   <g id="line2d_16">
    <path d="M 55.925 94.430769 
L 460.825 94.430769 
" clip-path="url(#p4ba60bee5e)" style="fill: none; stroke-dasharray: 5.55,2.4; stroke-dashoffset: 0; stroke: #008000; stroke-width: 1.5"/>
   </g>
   <g id="patch_3">
    <path d="M 55.925 313.2 
L 55.925 28.8 
" style="fill: none; stroke: #000000; stroke-width: 0.8; stroke-linejoin: miter; stroke-linecap: square"/>
   </g>
   <g id="patch_4">
    <path d="M 460.825 313.2 
L 460.825 28.8 
" style="fill: none; stroke: #000000; stroke-width: 0.8; stroke-linejoin: miter; stroke-linecap: square"/>
   </g>
   <g id="patch_5">
    <path d="M 55.925 313.2 
L 460.825 313.2 
" style="fill: none; stroke: #000000; stroke-width: 0.8; stroke-linejoin: miter; stroke-linecap: square"/>
   </g>
   <g id="patch_6">
    <path d="M 55.925 28.8 
L 460.825 28.8 
" style="fill: none; stroke: #000000; stroke-width: 0.8; stroke-linejoin: miter; stroke-linecap: square"/>
   </g>
   <g id="text_16">
    <!-- gamma = 0.9521052631578948,lr = 0.0027825594022071257 -->
    <g transform="translate(18.829688 22.8)scale(0.15 -0.15)">
     <defs>
      <path id="DejaVuSans-67" d="M 2906 1791 
Q 2906 2416 2648 2759 
Q 2391 3103 1925 3103 
Q 1463 3103 1205 2759 
Q 947 2416 947 1791 
Q 947 1169 1205 825 
Q 1463 481 1925 481 
Q 2391 481 2648 825 
Q 2906 1169 2906 1791 
z
M 3481 434 
Q 3481 -459 3084 -895 
Q 2688 -1331 1869 -1331 
Q 1566 -1331 1297 -1286 
Q 1028 -1241 775 -1147 
L 775 -588 
Q 1028 -725 1275 -790 
Q 1522 -856 1778 -856 
Q 2344 -856 2625 -561 
Q 2906 -266 2906 331 
L 2906 616 
Q 2728 306 2450 153 
Q 2172 0 1784 0 
Q 1141 0 747 490 
Q 353 981 353 1791 
Q 353 2603 747 3093 
Q 1141 3584 1784 3584 
Q 2172 3584 2450 3431 
Q 2728 3278 2906 2969 
L 2906 3500 
L 3481 3500 
L 3481 434 
z
" transform="scale(0.015625)"/>
      <path id="DejaVuSans-61" d="M 2194 1759 
Q 1497 1759 1228 1600 
Q 959 1441 959 1056 
Q 959 750 1161 570 
Q 1363 391 1709 391 
Q 2188 391 2477 730 
Q 2766 1069 2766 1631 
L 2766 1759 
L 2194 1759 
z
M 3341 1997 
L 3341 0 
L 2766 0 
L 2766 531 
Q 2569 213 2275 61 
Q 1981 -91 1556 -91 
Q 1019 -91 701 211 
Q 384 513 384 1019 
Q 384 1609 779 1909 
Q 1175 2209 1959 2209 
L 2766 2209 
L 2766 2266 
Q 2766 2663 2505 2880 
Q 2244 3097 1772 3097 
Q 1472 3097 1187 3025 
Q 903 2953 641 2809 
L 641 3341 
Q 956 3463 1253 3523 
Q 1550 3584 1831 3584 
Q 2591 3584 2966 3190 
Q 3341 2797 3341 1997 
z
" transform="scale(0.015625)"/>
      <path id="DejaVuSans-6d" d="M 3328 2828 
Q 3544 3216 3844 3400 
Q 4144 3584 4550 3584 
Q 5097 3584 5394 3201 
Q 5691 2819 5691 2113 
L 5691 0 
L 5113 0 
L 5113 2094 
Q 5113 2597 4934 2840 
Q 4756 3084 4391 3084 
Q 3944 3084 3684 2787 
Q 3425 2491 3425 1978 
L 3425 0 
L 2847 0 
L 2847 2094 
Q 2847 2600 2669 2842 
Q 2491 3084 2119 3084 
Q 1678 3084 1418 2786 
Q 1159 2488 1159 1978 
L 1159 0 
L 581 0 
L 581 3500 
L 1159 3500 
L 1159 2956 
Q 1356 3278 1631 3431 
Q 1906 3584 2284 3584 
Q 2666 3584 2933 3390 
Q 3200 3197 3328 2828 
z
" transform="scale(0.015625)"/>
      <path id="DejaVuSans-20" transform="scale(0.015625)"/>
      <path id="DejaVuSans-3d" d="M 678 2906 
L 4684 2906 
L 4684 2381 
L 678 2381 
L 678 2906 
z
M 678 1631 
L 4684 1631 
L 4684 1100 
L 678 1100 
L 678 1631 
z
" transform="scale(0.015625)"/>
      <path id="DejaVuSans-2e" d="M 684 794 
L 1344 794 
L 1344 0 
L 684 0 
L 684 794 
z
" transform="scale(0.015625)"/>
      <path id="DejaVuSans-39" d="M 703 97 
L 703 672 
Q 941 559 1184 500 
Q 1428 441 1663 441 
Q 2288 441 2617 861 
Q 2947 1281 2994 2138 
Q 2813 1869 2534 1725 
Q 2256 1581 1919 1581 
Q 1219 1581 811 2004 
Q 403 2428 403 3163 
Q 403 3881 828 4315 
Q 1253 4750 1959 4750 
Q 2769 4750 3195 4129 
Q 3622 3509 3622 2328 
Q 3622 1225 3098 567 
Q 2575 -91 1691 -91 
Q 1453 -91 1209 -44 
Q 966 3 703 97 
z
M 1959 2075 
Q 2384 2075 2632 2365 
Q 2881 2656 2881 3163 
Q 2881 3666 2632 3958 
Q 2384 4250 1959 4250 
Q 1534 4250 1286 3958 
Q 1038 3666 1038 3163 
Q 1038 2656 1286 2365 
Q 1534 2075 1959 2075 
z
" transform="scale(0.015625)"/>
      <path id="DejaVuSans-37" d="M 525 4666 
L 3525 4666 
L 3525 4397 
L 1831 0 
L 1172 0 
L 2766 4134 
L 525 4134 
L 525 4666 
z
" transform="scale(0.015625)"/>
      <path id="DejaVuSans-2c" d="M 750 794 
L 1409 794 
L 1409 256 
L 897 -744 
L 494 -744 
L 750 256 
L 750 794 
z
" transform="scale(0.015625)"/>
      <path id="DejaVuSans-6c" d="M 603 4863 
L 1178 4863 
L 1178 0 
L 603 0 
L 603 4863 
z
" transform="scale(0.015625)"/>
     </defs>
     <use xlink:href="#DejaVuSans-67"/>
     <use xlink:href="#DejaVuSans-61" x="63.476562"/>
     <use xlink:href="#DejaVuSans-6d" x="124.755859"/>
     <use xlink:href="#DejaVuSans-6d" x="222.167969"/>
     <use xlink:href="#DejaVuSans-61" x="319.580078"/>
     <use xlink:href="#DejaVuSans-20" x="380.859375"/>
     <use xlink:href="#DejaVuSans-3d" x="412.646484"/>
     <use xlink:href="#DejaVuSans-20" x="496.435547"/>
     <use xlink:href="#DejaVuSans-30" x="528.222656"/>
     <use xlink:href="#DejaVuSans-2e" x="591.845703"/>
     <use xlink:href="#DejaVuSans-39" x="623.632812"/>
     <use xlink:href="#DejaVuSans-35" x="687.255859"/>
     <use xlink:href="#DejaVuSans-32" x="750.878906"/>
     <use xlink:href="#DejaVuSans-31" x="814.501953"/>
     <use xlink:href="#DejaVuSans-30" x="878.125"/>
     <use xlink:href="#DejaVuSans-35" x="941.748047"/>
     <use xlink:href="#DejaVuSans-32" x="1005.371094"/>
     <use xlink:href="#DejaVuSans-36" x="1068.994141"/>
     <use xlink:href="#DejaVuSans-33" x="1132.617188"/>
     <use xlink:href="#DejaVuSans-31" x="1196.240234"/>
     <use xlink:href="#DejaVuSans-35" x="1259.863281"/>
     <use xlink:href="#DejaVuSans-37" x="1323.486328"/>
     <use xlink:href="#DejaVuSans-38" x="1387.109375"/>
     <use xlink:href="#DejaVuSans-39" x="1450.732422"/>
     <use xlink:href="#DejaVuSans-34" x="1514.355469"/>
     <use xlink:href="#DejaVuSans-38" x="1577.978516"/>
     <use xlink:href="#DejaVuSans-2c" x="1641.601562"/>
     <use xlink:href="#DejaVuSans-6c" x="1673.388672"/>
     <use xlink:href="#DejaVuSans-72" x="1701.171875"/>
     <use xlink:href="#DejaVuSans-20" x="1742.285156"/>
     <use xlink:href="#DejaVuSans-3d" x="1774.072266"/>
     <use xlink:href="#DejaVuSans-20" x="1857.861328"/>
     <use xlink:href="#DejaVuSans-30" x="1889.648438"/>
     <use xlink:href="#DejaVuSans-2e" x="1953.271484"/>
     <use xlink:href="#DejaVuSans-30" x="1985.058594"/>
     <use xlink:href="#DejaVuSans-30" x="2048.681641"/>
     <use xlink:href="#DejaVuSans-32" x="2112.304688"/>
     <use xlink:href="#DejaVuSans-37" x="2175.927734"/>
     <use xlink:href="#DejaVuSans-38" x="2239.550781"/>
     <use xlink:href="#DejaVuSans-32" x="2303.173828"/>
     <use xlink:href="#DejaVuSans-35" x="2366.796875"/>
     <use xlink:href="#DejaVuSans-35" x="2430.419922"/>
     <use xlink:href="#DejaVuSans-39" x="2494.042969"/>
     <use xlink:href="#DejaVuSans-34" x="2557.666016"/>
     <use xlink:href="#DejaVuSans-30" x="2621.289062"/>
     <use xlink:href="#DejaVuSans-32" x="2684.912109"/>
     <use xlink:href="#DejaVuSans-32" x="2748.535156"/>
     <use xlink:href="#DejaVuSans-30" x="2812.158203"/>
     <use xlink:href="#DejaVuSans-37" x="2875.78125"/>
     <use xlink:href="#DejaVuSans-31" x="2939.404297"/>
     <use xlink:href="#DejaVuSans-32" x="3003.027344"/>
     <use xlink:href="#DejaVuSans-35" x="3066.650391"/>
     <use xlink:href="#DejaVuSans-37" x="3130.273438"/>
    </g>
   </g>
   <g id="legend_1">
    <g id="patch_7">
     <path d="M 293.50625 80.834375 
L 453.825 80.834375 
Q 455.825 80.834375 455.825 78.834375 
L 455.825 35.8 
Q 455.825 33.8 453.825 33.8 
L 293.50625 33.8 
Q 291.50625 33.8 291.50625 35.8 
L 291.50625 78.834375 
Q 291.50625 80.834375 293.50625 80.834375 
z
" style="fill: #ffffff; opacity: 0.8; stroke: #cccccc; stroke-linejoin: miter"/>
    </g>
    <g id="line2d_17">
     <path d="M 295.50625 41.898438 
L 305.50625 41.898438 
L 315.50625 41.898438 
" style="fill: none; stroke: #708090; stroke-width: 1.5; stroke-linecap: square"/>
    </g>
    <g id="text_17">
     <!-- Episodes score -->
     <g transform="translate(323.50625 45.398438)scale(0.1 -0.1)">
      <use xlink:href="#DejaVuSans-45"/>
      <use xlink:href="#DejaVuSans-70" x="63.183594"/>
      <use xlink:href="#DejaVuSans-69" x="126.660156"/>
      <use xlink:href="#DejaVuSans-73" x="154.443359"/>
      <use xlink:href="#DejaVuSans-6f" x="206.542969"/>
      <use xlink:href="#DejaVuSans-64" x="267.724609"/>
      <use xlink:href="#DejaVuSans-65" x="331.201172"/>
      <use xlink:href="#DejaVuSans-73" x="392.724609"/>
      <use xlink:href="#DejaVuSans-20" x="444.824219"/>
      <use xlink:href="#DejaVuSans-73" x="476.611328"/>
      <use xlink:href="#DejaVuSans-63" x="528.710938"/>
      <use xlink:href="#DejaVuSans-6f" x="583.691406"/>
      <use xlink:href="#DejaVuSans-72" x="644.873047"/>
      <use xlink:href="#DejaVuSans-65" x="683.736328"/>
     </g>
    </g>
    <g id="line2d_18">
     <path d="M 295.50625 56.576563 
L 305.50625 56.576563 
L 315.50625 56.576563 
" style="fill: none; stroke: #000080; stroke-width: 1.5; stroke-linecap: square"/>
    </g>
    <g id="text_18">
     <!-- Moving average of scores -->
     <g transform="translate(323.50625 60.076563)scale(0.1 -0.1)">
      <defs>
       <path id="DejaVuSans-4d" d="M 628 4666 
L 1569 4666 
L 2759 1491 
L 3956 4666 
L 4897 4666 
L 4897 0 
L 4281 0 
L 4281 4097 
L 3078 897 
L 2444 897 
L 1241 4097 
L 1241 0 
L 628 0 
L 628 4666 
z
" transform="scale(0.015625)"/>
       <path id="DejaVuSans-76" d="M 191 3500 
L 800 3500 
L 1894 563 
L 2988 3500 
L 3597 3500 
L 2284 0 
L 1503 0 
L 191 3500 
z
" transform="scale(0.015625)"/>
       <path id="DejaVuSans-6e" d="M 3513 2113 
L 3513 0 
L 2938 0 
L 2938 2094 
Q 2938 2591 2744 2837 
Q 2550 3084 2163 3084 
Q 1697 3084 1428 2787 
Q 1159 2491 1159 1978 
L 1159 0 
L 581 0 
L 581 3500 
L 1159 3500 
L 1159 2956 
Q 1366 3272 1645 3428 
Q 1925 3584 2291 3584 
Q 2894 3584 3203 3211 
Q 3513 2838 3513 2113 
z
" transform="scale(0.015625)"/>
       <path id="DejaVuSans-66" d="M 2375 4863 
L 2375 4384 
L 1825 4384 
Q 1516 4384 1395 4259 
Q 1275 4134 1275 3809 
L 1275 3500 
L 2222 3500 
L 2222 3053 
L 1275 3053 
L 1275 0 
L 697 0 
L 697 3053 
L 147 3053 
L 147 3500 
L 697 3500 
L 697 3744 
Q 697 4328 969 4595 
Q 1241 4863 1831 4863 
L 2375 4863 
z
" transform="scale(0.015625)"/>
      </defs>
      <use xlink:href="#DejaVuSans-4d"/>
      <use xlink:href="#DejaVuSans-6f" x="86.279297"/>
      <use xlink:href="#DejaVuSans-76" x="147.460938"/>
      <use xlink:href="#DejaVuSans-69" x="206.640625"/>
      <use xlink:href="#DejaVuSans-6e" x="234.423828"/>
      <use xlink:href="#DejaVuSans-67" x="297.802734"/>
      <use xlink:href="#DejaVuSans-20" x="361.279297"/>
      <use xlink:href="#DejaVuSans-61" x="393.066406"/>
      <use xlink:href="#DejaVuSans-76" x="454.345703"/>
      <use xlink:href="#DejaVuSans-65" x="513.525391"/>
      <use xlink:href="#DejaVuSans-72" x="575.048828"/>
      <use xlink:href="#DejaVuSans-61" x="616.162109"/>
      <use xlink:href="#DejaVuSans-67" x="677.441406"/>
      <use xlink:href="#DejaVuSans-65" x="740.917969"/>
      <use xlink:href="#DejaVuSans-20" x="802.441406"/>
      <use xlink:href="#DejaVuSans-6f" x="834.228516"/>
      <use xlink:href="#DejaVuSans-66" x="895.410156"/>
      <use xlink:href="#DejaVuSans-20" x="930.615234"/>
      <use xlink:href="#DejaVuSans-73" x="962.402344"/>
      <use xlink:href="#DejaVuSans-63" x="1014.501953"/>
      <use xlink:href="#DejaVuSans-6f" x="1069.482422"/>
      <use xlink:href="#DejaVuSans-72" x="1130.664062"/>
      <use xlink:href="#DejaVuSans-65" x="1169.527344"/>
      <use xlink:href="#DejaVuSans-73" x="1231.050781"/>
     </g>
    </g>
    <g id="line2d_19">
     <path d="M 295.50625 71.254687 
L 305.50625 71.254687 
L 315.50625 71.254687 
" style="fill: none; stroke-dasharray: 5.55,2.4; stroke-dashoffset: 0; stroke: #008000; stroke-width: 1.5"/>
    </g>
    <g id="text_19">
     <!-- Game Solved -->
     <g transform="translate(323.50625 74.754687)scale(0.1 -0.1)">
      <defs>
       <path id="DejaVuSans-47" d="M 3809 666 
L 3809 1919 
L 2778 1919 
L 2778 2438 
L 4434 2438 
L 4434 434 
Q 4069 175 3628 42 
Q 3188 -91 2688 -91 
Q 1594 -91 976 548 
Q 359 1188 359 2328 
Q 359 3472 976 4111 
Q 1594 4750 2688 4750 
Q 3144 4750 3555 4637 
Q 3966 4525 4313 4306 
L 4313 3634 
Q 3963 3931 3569 4081 
Q 3175 4231 2741 4231 
Q 1884 4231 1454 3753 
Q 1025 3275 1025 2328 
Q 1025 1384 1454 906 
Q 1884 428 2741 428 
Q 3075 428 3337 486 
Q 3600 544 3809 666 
z
" transform="scale(0.015625)"/>
      </defs>
      <use xlink:href="#DejaVuSans-47"/>
      <use xlink:href="#DejaVuSans-61" x="77.490234"/>
      <use xlink:href="#DejaVuSans-6d" x="138.769531"/>
      <use xlink:href="#DejaVuSans-65" x="236.181641"/>
      <use xlink:href="#DejaVuSans-20" x="297.705078"/>
      <use xlink:href="#DejaVuSans-53" x="329.492188"/>
      <use xlink:href="#DejaVuSans-6f" x="392.96875"/>
      <use xlink:href="#DejaVuSans-6c" x="454.150391"/>
      <use xlink:href="#DejaVuSans-76" x="481.933594"/>
      <use xlink:href="#DejaVuSans-65" x="541.113281"/>
      <use xlink:href="#DejaVuSans-64" x="602.636719"/>
     </g>
    </g>
   </g>
  </g>
  <g id="axes_2">
   <g id="matplotlib.axis_3">
    <g id="ytick_8">
     <g id="line2d_20">
      <defs>
       <path id="md5b8ff25c9" d="M 0 0 
L 3.5 0 
" style="stroke: #000000; stroke-width: 0.8"/>
      </defs>
      <g>
       <use xlink:href="#md5b8ff25c9" x="460.825" y="300.356157" style="stroke: #000000; stroke-width: 0.8"/>
      </g>
     </g>
     <g id="text_20">
      <!-- 0 -->
      <g transform="translate(467.825 304.155376)scale(0.1 -0.1)">
       <use xlink:href="#DejaVuSans-30"/>
      </g>
     </g>
    </g>
    <g id="ytick_9">
     <g id="line2d_21">
      <g>
       <use xlink:href="#md5b8ff25c9" x="460.825" y="248.63038" style="stroke: #000000; stroke-width: 0.8"/>
      </g>
     </g>
     <g id="text_21">
      <!-- 1 -->
      <g transform="translate(467.825 252.429599)scale(0.1 -0.1)">
       <use xlink:href="#DejaVuSans-31"/>
      </g>
     </g>
    </g>
    <g id="ytick_10">
     <g id="line2d_22">
      <g>
       <use xlink:href="#md5b8ff25c9" x="460.825" y="196.904603" style="stroke: #000000; stroke-width: 0.8"/>
      </g>
     </g>
     <g id="text_22">
      <!-- 2 -->
      <g transform="translate(467.825 200.703822)scale(0.1 -0.1)">
       <use xlink:href="#DejaVuSans-32"/>
      </g>
     </g>
    </g>
    <g id="ytick_11">
     <g id="line2d_23">
      <g>
       <use xlink:href="#md5b8ff25c9" x="460.825" y="145.178827" style="stroke: #000000; stroke-width: 0.8"/>
      </g>
     </g>
     <g id="text_23">
      <!-- 3 -->
      <g transform="translate(467.825 148.978045)scale(0.1 -0.1)">
       <use xlink:href="#DejaVuSans-33"/>
      </g>
     </g>
    </g>
    <g id="ytick_12">
     <g id="line2d_24">
      <g>
       <use xlink:href="#md5b8ff25c9" x="460.825" y="93.45305" style="stroke: #000000; stroke-width: 0.8"/>
      </g>
     </g>
     <g id="text_24">
      <!-- 4 -->
      <g transform="translate(467.825 97.252268)scale(0.1 -0.1)">
       <use xlink:href="#DejaVuSans-34"/>
      </g>
     </g>
    </g>
    <g id="ytick_13">
     <g id="line2d_25">
      <g>
       <use xlink:href="#md5b8ff25c9" x="460.825" y="41.727273" style="stroke: #000000; stroke-width: 0.8"/>
      </g>
     </g>
     <g id="text_25">
      <!-- 5 -->
      <g transform="translate(467.825 45.526491)scale(0.1 -0.1)">
       <use xlink:href="#DejaVuSans-35"/>
      </g>
     </g>
    </g>
    <g id="text_26">
     <!-- Temperature -->
     <g transform="translate(489.585156 218.504297)rotate(-90)scale(0.15 -0.15)">
      <defs>
       <path id="DejaVuSans-54" d="M -19 4666 
L 3928 4666 
L 3928 4134 
L 2272 4134 
L 2272 0 
L 1638 0 
L 1638 4134 
L -19 4134 
L -19 4666 
z
" transform="scale(0.015625)"/>
       <path id="DejaVuSans-74" d="M 1172 4494 
L 1172 3500 
L 2356 3500 
L 2356 3053 
L 1172 3053 
L 1172 1153 
Q 1172 725 1289 603 
Q 1406 481 1766 481 
L 2356 481 
L 2356 0 
L 1766 0 
Q 1100 0 847 248 
Q 594 497 594 1153 
L 594 3053 
L 172 3053 
L 172 3500 
L 594 3500 
L 594 4494 
L 1172 4494 
z
" transform="scale(0.015625)"/>
       <path id="DejaVuSans-75" d="M 544 1381 
L 544 3500 
L 1119 3500 
L 1119 1403 
Q 1119 906 1312 657 
Q 1506 409 1894 409 
Q 2359 409 2629 706 
Q 2900 1003 2900 1516 
L 2900 3500 
L 3475 3500 
L 3475 0 
L 2900 0 
L 2900 538 
Q 2691 219 2414 64 
Q 2138 -91 1772 -91 
Q 1169 -91 856 284 
Q 544 659 544 1381 
z
M 1991 3584 
L 1991 3584 
z
" transform="scale(0.015625)"/>
      </defs>
      <use xlink:href="#DejaVuSans-54"/>
      <use xlink:href="#DejaVuSans-65" x="44.083984"/>
      <use xlink:href="#DejaVuSans-6d" x="105.607422"/>
      <use xlink:href="#DejaVuSans-70" x="203.019531"/>
      <use xlink:href="#DejaVuSans-65" x="266.496094"/>
      <use xlink:href="#DejaVuSans-72" x="328.019531"/>
      <use xlink:href="#DejaVuSans-61" x="369.132812"/>
      <use xlink:href="#DejaVuSans-74" x="430.412109"/>
      <use xlink:href="#DejaVuSans-75" x="469.621094"/>
      <use xlink:href="#DejaVuSans-72" x="533"/>
      <use xlink:href="#DejaVuSans-65" x="571.863281"/>
     </g>
    </g>
   </g>
   <g id="line2d_26">
    <path d="M 74.329545 41.727273 
L 77.64568 59.796179 
L 80.961814 76.602714 
L 84.277948 92.235075 
L 87.594083 106.775292 
L 90.910217 120.299669 
L 94.226351 132.879175 
L 97.542486 144.579825 
L 100.85862 155.463017 
L 104.174754 165.585863 
L 107.490889 175.001485 
L 110.807023 183.759292 
L 114.123157 191.905241 
L 117.439292 199.48208 
L 120.755426 206.529569 
L 124.07156 213.084691 
L 127.387695 219.181844 
L 130.703829 224.853024 
L 134.019963 230.127992 
L 137.704557 235.557975 
L 141.389151 240.568116 
L 145.073744 245.190878 
L 148.758338 249.456211 
L 152.442932 253.391752 
L 156.127525 257.023001 
L 160.180578 260.693942 
L 164.233631 264.053901 
L 168.286684 267.129223 
L 172.339737 269.944021 
L 176.76125 272.743467 
L 181.182762 275.285223 
L 185.972734 277.775454 
L 190.762706 280.018336 
L 195.921137 282.185254 
L 201.448028 284.251415 
L 206.974918 286.082639 
L 212.870268 287.807033 
L 219.134077 289.41153 
L 225.766346 290.887385 
L 233.135533 292.295013 
L 240.87318 293.548388 
L 249.347745 294.698674 
L 258.927689 295.766744 
L 269.613011 296.721977 
L 281.403711 297.547031 
L 295.036707 298.270409 
L 310.88046 298.880507 
L 330.040347 299.385086 
L 353.990206 299.780603 
L 385.677712 300.068067 
L 432.840511 300.253311 
L 442.420455 300.272727 
L 442.420455 300.272727 
" clip-path="url(#p4ba60bee5e)" style="fill: none; stroke: #ff0000; stroke-width: 1.5; stroke-linecap: square"/>
   </g>
   <g id="patch_8">
    <path d="M 55.925 313.2 
L 55.925 28.8 
" style="fill: none; stroke: #000000; stroke-width: 0.8; stroke-linejoin: miter; stroke-linecap: square"/>
   </g>
   <g id="patch_9">
    <path d="M 460.825 313.2 
L 460.825 28.8 
" style="fill: none; stroke: #000000; stroke-width: 0.8; stroke-linejoin: miter; stroke-linecap: square"/>
   </g>
   <g id="patch_10">
    <path d="M 55.925 313.2 
L 460.825 313.2 
" style="fill: none; stroke: #000000; stroke-width: 0.8; stroke-linejoin: miter; stroke-linecap: square"/>
   </g>
   <g id="patch_11">
    <path d="M 55.925 28.8 
L 460.825 28.8 
" style="fill: none; stroke: #000000; stroke-width: 0.8; stroke-linejoin: miter; stroke-linecap: square"/>
   </g>
   <g id="legend_2">
    <g id="patch_12">
     <path d="M 62.925 51.478125 
L 158.264063 51.478125 
Q 160.264063 51.478125 160.264063 49.478125 
L 160.264063 35.8 
Q 160.264063 33.8 158.264063 33.8 
L 62.925 33.8 
Q 60.925 33.8 60.925 35.8 
L 60.925 49.478125 
Q 60.925 51.478125 62.925 51.478125 
z
" style="fill: #ffffff; opacity: 0.8; stroke: #cccccc; stroke-linejoin: miter"/>
    </g>
    <g id="line2d_27">
     <path d="M 64.925 41.898438 
L 74.925 41.898438 
L 84.925 41.898438 
" style="fill: none; stroke: #ff0000; stroke-width: 1.5; stroke-linecap: square"/>
    </g>
    <g id="text_27">
     <!-- Temperature -->
     <g transform="translate(92.925 45.398438)scale(0.1 -0.1)">
      <use xlink:href="#DejaVuSans-54"/>
      <use xlink:href="#DejaVuSans-65" x="44.083984"/>
      <use xlink:href="#DejaVuSans-6d" x="105.607422"/>
      <use xlink:href="#DejaVuSans-70" x="203.019531"/>
      <use xlink:href="#DejaVuSans-65" x="266.496094"/>
      <use xlink:href="#DejaVuSans-72" x="328.019531"/>
      <use xlink:href="#DejaVuSans-61" x="369.132812"/>
      <use xlink:href="#DejaVuSans-74" x="430.412109"/>
      <use xlink:href="#DejaVuSans-75" x="469.621094"/>
      <use xlink:href="#DejaVuSans-72" x="533"/>
      <use xlink:href="#DejaVuSans-65" x="571.863281"/>
     </g>
    </g>
   </g>
  </g>
 </g>
 <defs>
  <clipPath id="p4ba60bee5e">
   <rect x="55.925" y="28.8" width="404.9" height="284.4"/>
  </clipPath>
 </defs>
</svg>
