<?xml version="1.0" encoding="utf-8" standalone="no"?>
<!DOCTYPE svg PUBLIC "-//W3C//DTD SVG 1.1//EN"
  "http://www.w3.org/Graphics/SVG/1.1/DTD/svg11.dtd">
<svg xmlns:xlink="http://www.w3.org/1999/xlink" width="504pt" height="360pt" viewBox="0 0 504 360" xmlns="http://www.w3.org/2000/svg" version="1.1">
 <metadata>
  <rdf:RDF xmlns:dc="http://purl.org/dc/elements/1.1/" xmlns:cc="http://creativecommons.org/ns#" xmlns:rdf="http://www.w3.org/1999/02/22-rdf-syntax-ns#">
   <cc:Work>
    <dc:type rdf:resource="http://purl.org/dc/dcmitype/StillImage"/>
    <dc:date>2022-07-28T20:50:44.840586</dc:date>
    <dc:format>image/svg+xml</dc:format>
    <dc:creator>
     <cc:Agent>
      <dc:title>Matplotlib v3.5.1, https://matplotlib.org/</dc:title>
     </cc:Agent>
    </dc:creator>
   </cc:Work>
  </rdf:RDF>
 </metadata>
 <defs>
  <style type="text/css">*{stroke-linejoin: round; stroke-linecap: butt}</style>
 </defs>
 <g id="figure_1">
  <g id="patch_1">
   <path d="M 0 360 
L 504 360 
L 504 0 
L 0 0 
L 0 360 
z
" style="fill: none"/>
  </g>
  <g id="axes_1">
   <g id="patch_2">
    <path d="M 55.925 313.2 
L 460.825 313.2 
L 460.825 28.8 
L 55.925 28.8 
z
" style="fill: #ffffff"/>
   </g>
   <g id="matplotlib.axis_1">
    <g id="xtick_1">
     <g id="line2d_1">
      <defs>
       <path id="me720f90867" d="M 0 0 
L 0 3.5 
" style="stroke: #000000; stroke-width: 0.8"/>
      </defs>
      <g>
       <use xlink:href="#me720f90867" x="74.329545" y="313.2" style="stroke: #000000; stroke-width: 0.8"/>
      </g>
     </g>
     <g id="text_1">
      <!-- 0 -->
      <g transform="translate(71.148295 327.798437)scale(0.1 -0.1)">
       <defs>
        <path id="DejaVuSans-30" d="M 2034 4250 
Q 1547 4250 1301 3770 
Q 1056 3291 1056 2328 
Q 1056 1369 1301 889 
Q 1547 409 2034 409 
Q 2525 409 2770 889 
Q 3016 1369 3016 2328 
Q 3016 3291 2770 3770 
Q 2525 4250 2034 4250 
z
M 2034 4750 
Q 2819 4750 3233 4129 
Q 3647 3509 3647 2328 
Q 3647 1150 3233 529 
Q 2819 -91 2034 -91 
Q 1250 -91 836 529 
Q 422 1150 422 2328 
Q 422 3509 836 4129 
Q 1250 4750 2034 4750 
z
" transform="scale(0.015625)"/>
       </defs>
       <use xlink:href="#DejaVuSans-30"/>
      </g>
     </g>
    </g>
    <g id="xtick_2">
     <g id="line2d_2">
      <g>
       <use xlink:href="#me720f90867" x="148.021419" y="313.2" style="stroke: #000000; stroke-width: 0.8"/>
      </g>
     </g>
     <g id="text_2">
      <!-- 200 -->
      <g transform="translate(138.477669 327.798437)scale(0.1 -0.1)">
       <defs>
        <path id="DejaVuSans-32" d="M 1228 531 
L 3431 531 
L 3431 0 
L 469 0 
L 469 531 
Q 828 903 1448 1529 
Q 2069 2156 2228 2338 
Q 2531 2678 2651 2914 
Q 2772 3150 2772 3378 
Q 2772 3750 2511 3984 
Q 2250 4219 1831 4219 
Q 1534 4219 1204 4116 
Q 875 4013 500 3803 
L 500 4441 
Q 881 4594 1212 4672 
Q 1544 4750 1819 4750 
Q 2544 4750 2975 4387 
Q 3406 4025 3406 3419 
Q 3406 3131 3298 2873 
Q 3191 2616 2906 2266 
Q 2828 2175 2409 1742 
Q 1991 1309 1228 531 
z
" transform="scale(0.015625)"/>
       </defs>
       <use xlink:href="#DejaVuSans-32"/>
       <use xlink:href="#DejaVuSans-30" x="63.623047"/>
       <use xlink:href="#DejaVuSans-30" x="127.246094"/>
      </g>
     </g>
    </g>
    <g id="xtick_3">
     <g id="line2d_3">
      <g>
       <use xlink:href="#me720f90867" x="221.713293" y="313.2" style="stroke: #000000; stroke-width: 0.8"/>
      </g>
     </g>
     <g id="text_3">
      <!-- 400 -->
      <g transform="translate(212.169543 327.798437)scale(0.1 -0.1)">
       <defs>
        <path id="DejaVuSans-34" d="M 2419 4116 
L 825 1625 
L 2419 1625 
L 2419 4116 
z
M 2253 4666 
L 3047 4666 
L 3047 1625 
L 3713 1625 
L 3713 1100 
L 3047 1100 
L 3047 0 
L 2419 0 
L 2419 1100 
L 313 1100 
L 313 1709 
L 2253 4666 
z
" transform="scale(0.015625)"/>
       </defs>
       <use xlink:href="#DejaVuSans-34"/>
       <use xlink:href="#DejaVuSans-30" x="63.623047"/>
       <use xlink:href="#DejaVuSans-30" x="127.246094"/>
      </g>
     </g>
    </g>
    <g id="xtick_4">
     <g id="line2d_4">
      <g>
       <use xlink:href="#me720f90867" x="295.405167" y="313.2" style="stroke: #000000; stroke-width: 0.8"/>
      </g>
     </g>
     <g id="text_4">
      <!-- 600 -->
      <g transform="translate(285.861417 327.798437)scale(0.1 -0.1)">
       <defs>
        <path id="DejaVuSans-36" d="M 2113 2584 
Q 1688 2584 1439 2293 
Q 1191 2003 1191 1497 
Q 1191 994 1439 701 
Q 1688 409 2113 409 
Q 2538 409 2786 701 
Q 3034 994 3034 1497 
Q 3034 2003 2786 2293 
Q 2538 2584 2113 2584 
z
M 3366 4563 
L 3366 3988 
Q 3128 4100 2886 4159 
Q 2644 4219 2406 4219 
Q 1781 4219 1451 3797 
Q 1122 3375 1075 2522 
Q 1259 2794 1537 2939 
Q 1816 3084 2150 3084 
Q 2853 3084 3261 2657 
Q 3669 2231 3669 1497 
Q 3669 778 3244 343 
Q 2819 -91 2113 -91 
Q 1303 -91 875 529 
Q 447 1150 447 2328 
Q 447 3434 972 4092 
Q 1497 4750 2381 4750 
Q 2619 4750 2861 4703 
Q 3103 4656 3366 4563 
z
" transform="scale(0.015625)"/>
       </defs>
       <use xlink:href="#DejaVuSans-36"/>
       <use xlink:href="#DejaVuSans-30" x="63.623047"/>
       <use xlink:href="#DejaVuSans-30" x="127.246094"/>
      </g>
     </g>
    </g>
    <g id="xtick_5">
     <g id="line2d_5">
      <g>
       <use xlink:href="#me720f90867" x="369.09704" y="313.2" style="stroke: #000000; stroke-width: 0.8"/>
      </g>
     </g>
     <g id="text_5">
      <!-- 800 -->
      <g transform="translate(359.55329 327.798437)scale(0.1 -0.1)">
       <defs>
        <path id="DejaVuSans-38" d="M 2034 2216 
Q 1584 2216 1326 1975 
Q 1069 1734 1069 1313 
Q 1069 891 1326 650 
Q 1584 409 2034 409 
Q 2484 409 2743 651 
Q 3003 894 3003 1313 
Q 3003 1734 2745 1975 
Q 2488 2216 2034 2216 
z
M 1403 2484 
Q 997 2584 770 2862 
Q 544 3141 544 3541 
Q 544 4100 942 4425 
Q 1341 4750 2034 4750 
Q 2731 4750 3128 4425 
Q 3525 4100 3525 3541 
Q 3525 3141 3298 2862 
Q 3072 2584 2669 2484 
Q 3125 2378 3379 2068 
Q 3634 1759 3634 1313 
Q 3634 634 3220 271 
Q 2806 -91 2034 -91 
Q 1263 -91 848 271 
Q 434 634 434 1313 
Q 434 1759 690 2068 
Q 947 2378 1403 2484 
z
M 1172 3481 
Q 1172 3119 1398 2916 
Q 1625 2713 2034 2713 
Q 2441 2713 2670 2916 
Q 2900 3119 2900 3481 
Q 2900 3844 2670 4047 
Q 2441 4250 2034 4250 
Q 1625 4250 1398 4047 
Q 1172 3844 1172 3481 
z
" transform="scale(0.015625)"/>
       </defs>
       <use xlink:href="#DejaVuSans-38"/>
       <use xlink:href="#DejaVuSans-30" x="63.623047"/>
       <use xlink:href="#DejaVuSans-30" x="127.246094"/>
      </g>
     </g>
    </g>
    <g id="xtick_6">
     <g id="line2d_6">
      <g>
       <use xlink:href="#me720f90867" x="442.788914" y="313.2" style="stroke: #000000; stroke-width: 0.8"/>
      </g>
     </g>
     <g id="text_6">
      <!-- 1000 -->
      <g transform="translate(430.063914 327.798437)scale(0.1 -0.1)">
       <defs>
        <path id="DejaVuSans-31" d="M 794 531 
L 1825 531 
L 1825 4091 
L 703 3866 
L 703 4441 
L 1819 4666 
L 2450 4666 
L 2450 531 
L 3481 531 
L 3481 0 
L 794 0 
L 794 531 
z
" transform="scale(0.015625)"/>
       </defs>
       <use xlink:href="#DejaVuSans-31"/>
       <use xlink:href="#DejaVuSans-30" x="63.623047"/>
       <use xlink:href="#DejaVuSans-30" x="127.246094"/>
       <use xlink:href="#DejaVuSans-30" x="190.869141"/>
      </g>
     </g>
    </g>
    <g id="text_7">
     <!-- Episode -->
     <g transform="translate(228.91875 345.275781)scale(0.15 -0.15)">
      <defs>
       <path id="DejaVuSans-45" d="M 628 4666 
L 3578 4666 
L 3578 4134 
L 1259 4134 
L 1259 2753 
L 3481 2753 
L 3481 2222 
L 1259 2222 
L 1259 531 
L 3634 531 
L 3634 0 
L 628 0 
L 628 4666 
z
" transform="scale(0.015625)"/>
       <path id="DejaVuSans-70" d="M 1159 525 
L 1159 -1331 
L 581 -1331 
L 581 3500 
L 1159 3500 
L 1159 2969 
Q 1341 3281 1617 3432 
Q 1894 3584 2278 3584 
Q 2916 3584 3314 3078 
Q 3713 2572 3713 1747 
Q 3713 922 3314 415 
Q 2916 -91 2278 -91 
Q 1894 -91 1617 61 
Q 1341 213 1159 525 
z
M 3116 1747 
Q 3116 2381 2855 2742 
Q 2594 3103 2138 3103 
Q 1681 3103 1420 2742 
Q 1159 2381 1159 1747 
Q 1159 1113 1420 752 
Q 1681 391 2138 391 
Q 2594 391 2855 752 
Q 3116 1113 3116 1747 
z
" transform="scale(0.015625)"/>
       <path id="DejaVuSans-69" d="M 603 3500 
L 1178 3500 
L 1178 0 
L 603 0 
L 603 3500 
z
M 603 4863 
L 1178 4863 
L 1178 4134 
L 603 4134 
L 603 4863 
z
" transform="scale(0.015625)"/>
       <path id="DejaVuSans-73" d="M 2834 3397 
L 2834 2853 
Q 2591 2978 2328 3040 
Q 2066 3103 1784 3103 
Q 1356 3103 1142 2972 
Q 928 2841 928 2578 
Q 928 2378 1081 2264 
Q 1234 2150 1697 2047 
L 1894 2003 
Q 2506 1872 2764 1633 
Q 3022 1394 3022 966 
Q 3022 478 2636 193 
Q 2250 -91 1575 -91 
Q 1294 -91 989 -36 
Q 684 19 347 128 
L 347 722 
Q 666 556 975 473 
Q 1284 391 1588 391 
Q 1994 391 2212 530 
Q 2431 669 2431 922 
Q 2431 1156 2273 1281 
Q 2116 1406 1581 1522 
L 1381 1569 
Q 847 1681 609 1914 
Q 372 2147 372 2553 
Q 372 3047 722 3315 
Q 1072 3584 1716 3584 
Q 2034 3584 2315 3537 
Q 2597 3491 2834 3397 
z
" transform="scale(0.015625)"/>
       <path id="DejaVuSans-6f" d="M 1959 3097 
Q 1497 3097 1228 2736 
Q 959 2375 959 1747 
Q 959 1119 1226 758 
Q 1494 397 1959 397 
Q 2419 397 2687 759 
Q 2956 1122 2956 1747 
Q 2956 2369 2687 2733 
Q 2419 3097 1959 3097 
z
M 1959 3584 
Q 2709 3584 3137 3096 
Q 3566 2609 3566 1747 
Q 3566 888 3137 398 
Q 2709 -91 1959 -91 
Q 1206 -91 779 398 
Q 353 888 353 1747 
Q 353 2609 779 3096 
Q 1206 3584 1959 3584 
z
" transform="scale(0.015625)"/>
       <path id="DejaVuSans-64" d="M 2906 2969 
L 2906 4863 
L 3481 4863 
L 3481 0 
L 2906 0 
L 2906 525 
Q 2725 213 2448 61 
Q 2172 -91 1784 -91 
Q 1150 -91 751 415 
Q 353 922 353 1747 
Q 353 2572 751 3078 
Q 1150 3584 1784 3584 
Q 2172 3584 2448 3432 
Q 2725 3281 2906 2969 
z
M 947 1747 
Q 947 1113 1208 752 
Q 1469 391 1925 391 
Q 2381 391 2643 752 
Q 2906 1113 2906 1747 
Q 2906 2381 2643 2742 
Q 2381 3103 1925 3103 
Q 1469 3103 1208 2742 
Q 947 2381 947 1747 
z
" transform="scale(0.015625)"/>
       <path id="DejaVuSans-65" d="M 3597 1894 
L 3597 1613 
L 953 1613 
Q 991 1019 1311 708 
Q 1631 397 2203 397 
Q 2534 397 2845 478 
Q 3156 559 3463 722 
L 3463 178 
Q 3153 47 2828 -22 
Q 2503 -91 2169 -91 
Q 1331 -91 842 396 
Q 353 884 353 1716 
Q 353 2575 817 3079 
Q 1281 3584 2069 3584 
Q 2775 3584 3186 3129 
Q 3597 2675 3597 1894 
z
M 3022 2063 
Q 3016 2534 2758 2815 
Q 2500 3097 2075 3097 
Q 1594 3097 1305 2825 
Q 1016 2553 972 2059 
L 3022 2063 
z
" transform="scale(0.015625)"/>
      </defs>
      <use xlink:href="#DejaVuSans-45"/>
      <use xlink:href="#DejaVuSans-70" x="63.183594"/>
      <use xlink:href="#DejaVuSans-69" x="126.660156"/>
      <use xlink:href="#DejaVuSans-73" x="154.443359"/>
      <use xlink:href="#DejaVuSans-6f" x="206.542969"/>
      <use xlink:href="#DejaVuSans-64" x="267.724609"/>
      <use xlink:href="#DejaVuSans-65" x="331.201172"/>
     </g>
    </g>
   </g>
   <g id="matplotlib.axis_2">
    <g id="ytick_1">
     <g id="line2d_7">
      <defs>
       <path id="mf0bed1a928" d="M 0 0 
L -3.5 0 
" style="stroke: #000000; stroke-width: 0.8"/>
      </defs>
      <g>
       <use xlink:href="#mf0bed1a928" x="55.925" y="313.2" style="stroke: #000000; stroke-width: 0.8"/>
      </g>
     </g>
     <g id="text_8">
      <!-- 0 -->
      <g transform="translate(42.5625 316.999219)scale(0.1 -0.1)">
       <use xlink:href="#DejaVuSans-30"/>
      </g>
     </g>
    </g>
    <g id="ytick_2">
     <g id="line2d_8">
      <g>
       <use xlink:href="#mf0bed1a928" x="55.925" y="269.446154" style="stroke: #000000; stroke-width: 0.8"/>
      </g>
     </g>
     <g id="text_9">
      <!-- 100 -->
      <g transform="translate(29.8375 273.245373)scale(0.1 -0.1)">
       <use xlink:href="#DejaVuSans-31"/>
       <use xlink:href="#DejaVuSans-30" x="63.623047"/>
       <use xlink:href="#DejaVuSans-30" x="127.246094"/>
      </g>
     </g>
    </g>
    <g id="ytick_3">
     <g id="line2d_9">
      <g>
       <use xlink:href="#mf0bed1a928" x="55.925" y="225.692308" style="stroke: #000000; stroke-width: 0.8"/>
      </g>
     </g>
     <g id="text_10">
      <!-- 200 -->
      <g transform="translate(29.8375 229.491526)scale(0.1 -0.1)">
       <use xlink:href="#DejaVuSans-32"/>
       <use xlink:href="#DejaVuSans-30" x="63.623047"/>
       <use xlink:href="#DejaVuSans-30" x="127.246094"/>
      </g>
     </g>
    </g>
    <g id="ytick_4">
     <g id="line2d_10">
      <g>
       <use xlink:href="#mf0bed1a928" x="55.925" y="181.938462" style="stroke: #000000; stroke-width: 0.8"/>
      </g>
     </g>
     <g id="text_11">
      <!-- 300 -->
      <g transform="translate(29.8375 185.73768)scale(0.1 -0.1)">
       <defs>
        <path id="DejaVuSans-33" d="M 2597 2516 
Q 3050 2419 3304 2112 
Q 3559 1806 3559 1356 
Q 3559 666 3084 287 
Q 2609 -91 1734 -91 
Q 1441 -91 1130 -33 
Q 819 25 488 141 
L 488 750 
Q 750 597 1062 519 
Q 1375 441 1716 441 
Q 2309 441 2620 675 
Q 2931 909 2931 1356 
Q 2931 1769 2642 2001 
Q 2353 2234 1838 2234 
L 1294 2234 
L 1294 2753 
L 1863 2753 
Q 2328 2753 2575 2939 
Q 2822 3125 2822 3475 
Q 2822 3834 2567 4026 
Q 2313 4219 1838 4219 
Q 1578 4219 1281 4162 
Q 984 4106 628 3988 
L 628 4550 
Q 988 4650 1302 4700 
Q 1616 4750 1894 4750 
Q 2613 4750 3031 4423 
Q 3450 4097 3450 3541 
Q 3450 3153 3228 2886 
Q 3006 2619 2597 2516 
z
" transform="scale(0.015625)"/>
       </defs>
       <use xlink:href="#DejaVuSans-33"/>
       <use xlink:href="#DejaVuSans-30" x="63.623047"/>
       <use xlink:href="#DejaVuSans-30" x="127.246094"/>
      </g>
     </g>
    </g>
    <g id="ytick_5">
     <g id="line2d_11">
      <g>
       <use xlink:href="#mf0bed1a928" x="55.925" y="138.184615" style="stroke: #000000; stroke-width: 0.8"/>
      </g>
     </g>
     <g id="text_12">
      <!-- 400 -->
      <g transform="translate(29.8375 141.983834)scale(0.1 -0.1)">
       <use xlink:href="#DejaVuSans-34"/>
       <use xlink:href="#DejaVuSans-30" x="63.623047"/>
       <use xlink:href="#DejaVuSans-30" x="127.246094"/>
      </g>
     </g>
    </g>
    <g id="ytick_6">
     <g id="line2d_12">
      <g>
       <use xlink:href="#mf0bed1a928" x="55.925" y="94.430769" style="stroke: #000000; stroke-width: 0.8"/>
      </g>
     </g>
     <g id="text_13">
      <!-- 500 -->
      <g transform="translate(29.8375 98.229988)scale(0.1 -0.1)">
       <defs>
        <path id="DejaVuSans-35" d="M 691 4666 
L 3169 4666 
L 3169 4134 
L 1269 4134 
L 1269 2991 
Q 1406 3038 1543 3061 
Q 1681 3084 1819 3084 
Q 2600 3084 3056 2656 
Q 3513 2228 3513 1497 
Q 3513 744 3044 326 
Q 2575 -91 1722 -91 
Q 1428 -91 1123 -41 
Q 819 9 494 109 
L 494 744 
Q 775 591 1075 516 
Q 1375 441 1709 441 
Q 2250 441 2565 725 
Q 2881 1009 2881 1497 
Q 2881 1984 2565 2268 
Q 2250 2553 1709 2553 
Q 1456 2553 1204 2497 
Q 953 2441 691 2322 
L 691 4666 
z
" transform="scale(0.015625)"/>
       </defs>
       <use xlink:href="#DejaVuSans-35"/>
       <use xlink:href="#DejaVuSans-30" x="63.623047"/>
       <use xlink:href="#DejaVuSans-30" x="127.246094"/>
      </g>
     </g>
    </g>
    <g id="ytick_7">
     <g id="line2d_13">
      <g>
       <use xlink:href="#mf0bed1a928" x="55.925" y="50.676923" style="stroke: #000000; stroke-width: 0.8"/>
      </g>
     </g>
     <g id="text_14">
      <!-- 600 -->
      <g transform="translate(29.8375 54.476142)scale(0.1 -0.1)">
       <use xlink:href="#DejaVuSans-36"/>
       <use xlink:href="#DejaVuSans-30" x="63.623047"/>
       <use xlink:href="#DejaVuSans-30" x="127.246094"/>
      </g>
     </g>
    </g>
    <g id="text_15">
     <!-- Score -->
     <g transform="translate(22.717969 192.003516)rotate(-90)scale(0.15 -0.15)">
      <defs>
       <path id="DejaVuSans-53" d="M 3425 4513 
L 3425 3897 
Q 3066 4069 2747 4153 
Q 2428 4238 2131 4238 
Q 1616 4238 1336 4038 
Q 1056 3838 1056 3469 
Q 1056 3159 1242 3001 
Q 1428 2844 1947 2747 
L 2328 2669 
Q 3034 2534 3370 2195 
Q 3706 1856 3706 1288 
Q 3706 609 3251 259 
Q 2797 -91 1919 -91 
Q 1588 -91 1214 -16 
Q 841 59 441 206 
L 441 856 
Q 825 641 1194 531 
Q 1563 422 1919 422 
Q 2459 422 2753 634 
Q 3047 847 3047 1241 
Q 3047 1584 2836 1778 
Q 2625 1972 2144 2069 
L 1759 2144 
Q 1053 2284 737 2584 
Q 422 2884 422 3419 
Q 422 4038 858 4394 
Q 1294 4750 2059 4750 
Q 2388 4750 2728 4690 
Q 3069 4631 3425 4513 
z
" transform="scale(0.015625)"/>
       <path id="DejaVuSans-63" d="M 3122 3366 
L 3122 2828 
Q 2878 2963 2633 3030 
Q 2388 3097 2138 3097 
Q 1578 3097 1268 2742 
Q 959 2388 959 1747 
Q 959 1106 1268 751 
Q 1578 397 2138 397 
Q 2388 397 2633 464 
Q 2878 531 3122 666 
L 3122 134 
Q 2881 22 2623 -34 
Q 2366 -91 2075 -91 
Q 1284 -91 818 406 
Q 353 903 353 1747 
Q 353 2603 823 3093 
Q 1294 3584 2113 3584 
Q 2378 3584 2631 3529 
Q 2884 3475 3122 3366 
z
" transform="scale(0.015625)"/>
       <path id="DejaVuSans-72" d="M 2631 2963 
Q 2534 3019 2420 3045 
Q 2306 3072 2169 3072 
Q 1681 3072 1420 2755 
Q 1159 2438 1159 1844 
L 1159 0 
L 581 0 
L 581 3500 
L 1159 3500 
L 1159 2956 
Q 1341 3275 1631 3429 
Q 1922 3584 2338 3584 
Q 2397 3584 2469 3576 
Q 2541 3569 2628 3553 
L 2631 2963 
z
" transform="scale(0.015625)"/>
      </defs>
      <use xlink:href="#DejaVuSans-53"/>
      <use xlink:href="#DejaVuSans-63" x="63.476562"/>
      <use xlink:href="#DejaVuSans-6f" x="118.457031"/>
      <use xlink:href="#DejaVuSans-72" x="179.638672"/>
      <use xlink:href="#DejaVuSans-65" x="218.501953"/>
     </g>
    </g>
   </g>
   <g id="line2d_14">
    <path d="M 74.329545 304.886769 
L 74.698005 306.199385 
L 75.066464 297.886154 
L 75.434924 300.948923 
L 75.803383 308.387077 
L 76.171842 304.011692 
L 76.908761 298.323692 
L 77.27722 306.636923 
L 77.64568 294.823385 
L 78.014139 293.073231 
L 78.382599 286.510154 
L 78.751058 298.761231 
L 79.119517 306.199385 
L 79.487977 301.386462 
L 79.856436 290.885538 
L 80.224895 296.573538 
L 80.593355 306.636923 
L 80.961814 304.886769 
L 81.330273 307.949538 
L 81.698733 305.761846 
L 82.067192 300.073846 
L 82.435652 307.949538 
L 82.804111 294.823385 
L 83.17257 304.886769 
L 83.54103 304.449231 
L 83.909489 308.824615 
L 84.277948 302.699077 
L 84.646408 300.511385 
L 85.014867 307.949538 
L 85.383327 307.512 
L 85.751786 306.199385 
L 86.120245 307.512 
L 86.488705 295.260923 
L 86.857164 307.949538 
L 87.225623 307.074462 
L 87.594083 295.260923 
L 87.962542 303.574154 
L 88.331001 307.949538 
L 88.699461 303.136615 
L 89.06792 303.574154 
L 89.43638 301.386462 
L 89.804839 301.824 
L 90.173298 307.074462 
L 90.541758 302.699077 
L 90.910217 304.886769 
L 91.278676 303.136615 
L 91.647136 305.324308 
L 92.015595 305.324308 
L 92.384055 303.574154 
L 92.752514 309.262154 
L 93.120973 301.386462 
L 93.489433 301.386462 
L 93.857892 309.262154 
L 94.226351 304.011692 
L 94.594811 308.824615 
L 94.96327 301.824 
L 95.331729 300.948923 
L 95.700189 298.323692 
L 96.068648 291.323077 
L 96.437108 306.636923 
L 96.805567 306.199385 
L 97.542486 308.824615 
L 97.910945 301.386462 
L 98.279404 307.074462 
L 99.016323 306.199385 
L 99.384783 308.387077 
L 99.753242 301.386462 
L 100.490161 303.136615 
L 100.85862 297.448615 
L 101.227079 300.511385 
L 101.595539 308.387077 
L 101.963998 293.073231 
L 102.332457 308.387077 
L 102.700917 301.386462 
L 103.069376 303.136615 
L 103.437836 301.824 
L 104.174754 305.324308 
L 104.543214 299.636308 
L 104.911673 307.074462 
L 105.280132 303.136615 
L 105.648592 307.512 
L 106.017051 308.824615 
L 106.385511 305.761846 
L 106.75397 308.387077 
L 107.122429 304.011692 
L 107.490889 307.949538 
L 107.859348 308.387077 
L 108.227807 304.011692 
L 108.596267 306.199385 
L 108.964726 304.886769 
L 109.333185 294.823385 
L 109.701645 304.011692 
L 110.438564 307.949538 
L 110.807023 307.512 
L 111.543942 303.574154 
L 111.912401 304.449231 
L 112.28086 303.574154 
L 112.64932 307.949538 
L 113.017779 307.949538 
L 113.386239 301.824 
L 113.754698 303.574154 
L 114.123157 308.824615 
L 114.491617 306.199385 
L 114.860076 307.512 
L 115.228535 299.636308 
L 115.596995 305.761846 
L 115.965454 302.261538 
L 116.333913 303.136615 
L 116.702373 301.386462 
L 117.070832 290.885538 
L 117.439292 299.198769 
L 117.807751 302.261538 
L 118.17621 307.074462 
L 118.54467 299.198769 
L 118.913129 305.761846 
L 119.281588 307.512 
L 119.650048 304.886769 
L 120.018507 300.511385 
L 120.386967 306.199385 
L 120.755426 308.824615 
L 121.123885 300.948923 
L 121.492345 305.324308 
L 121.860804 307.074462 
L 122.229263 307.074462 
L 122.597723 302.261538 
L 122.966182 295.260923 
L 123.334641 305.761846 
L 123.703101 308.824615 
L 124.07156 307.074462 
L 124.44002 290.885538 
L 124.808479 303.574154 
L 125.176938 297.011077 
L 125.545398 300.948923 
L 125.913857 303.574154 
L 126.282316 305.324308 
L 126.650776 306.199385 
L 127.019235 302.699077 
L 127.387695 302.261538 
L 127.756154 299.636308 
L 128.124613 303.574154 
L 128.493073 298.323692 
L 128.861532 299.636308 
L 129.229991 307.512 
L 129.598451 299.636308 
L 129.96691 309.262154 
L 130.335369 304.886769 
L 130.703829 304.011692 
L 131.072288 301.824 
L 131.440748 308.824615 
L 131.809207 267.258462 
L 132.177666 307.074462 
L 132.546126 298.323692 
L 132.914585 306.199385 
L 133.283044 308.824615 
L 133.651504 307.949538 
L 134.019963 304.886769 
L 134.388423 307.512 
L 134.756882 299.636308 
L 135.125341 300.073846 
L 135.493801 292.635692 
L 135.86226 305.761846 
L 136.230719 307.949538 
L 136.599179 303.574154 
L 136.967638 301.386462 
L 137.336097 300.948923 
L 137.704557 298.323692 
L 138.073016 300.073846 
L 138.441476 303.136615 
L 138.809935 299.636308 
L 139.178394 279.947077 
L 139.546854 303.136615 
L 139.915313 306.199385 
L 140.283772 299.636308 
L 140.652232 306.199385 
L 141.020691 304.011692 
L 141.389151 306.636923 
L 141.75761 300.511385 
L 142.126069 307.949538 
L 142.494529 298.761231 
L 142.862988 307.512 
L 143.231447 300.073846 
L 143.599907 305.324308 
L 143.968366 304.011692 
L 144.336825 306.199385 
L 144.705285 303.574154 
L 145.073744 307.512 
L 145.442204 301.824 
L 145.810663 307.074462 
L 146.179122 294.385846 
L 146.547582 304.886769 
L 146.916041 299.198769 
L 147.2845 307.074462 
L 147.65296 304.886769 
L 148.021419 307.949538 
L 148.389879 302.261538 
L 148.758338 299.198769 
L 149.126797 306.636923 
L 149.495257 305.761846 
L 149.863716 294.823385 
L 150.232175 305.761846 
L 150.600635 303.136615 
L 150.969094 302.699077 
L 151.337553 276.446769 
L 151.706013 305.761846 
L 152.074472 304.449231 
L 152.442932 307.512 
L 152.811391 307.074462 
L 153.17985 302.699077 
L 153.54831 305.761846 
L 153.916769 295.260923 
L 154.285228 306.199385 
L 154.653688 301.386462 
L 155.022147 294.385846 
L 155.390607 305.761846 
L 155.759066 279.072 
L 156.127525 302.261538 
L 156.495985 300.511385 
L 156.864444 306.199385 
L 157.232903 303.136615 
L 157.601363 296.573538 
L 157.969822 303.136615 
L 158.338281 283.884923 
L 158.706741 299.636308 
L 159.0752 306.199385 
L 159.44366 306.199385 
L 159.812119 302.261538 
L 160.180578 289.135385 
L 160.549038 305.761846 
L 161.285956 307.512 
L 161.654416 304.449231 
L 162.022875 305.761846 
L 162.391335 290.448 
L 162.759794 307.512 
L 163.496713 293.073231 
L 163.865172 294.385846 
L 164.233631 298.323692 
L 164.602091 293.948308 
L 164.97055 303.136615 
L 165.339009 304.449231 
L 165.707469 276.446769 
L 166.075928 308.824615 
L 166.444388 305.761846 
L 166.812847 304.449231 
L 167.181306 307.512 
L 167.549766 306.636923 
L 167.918225 304.011692 
L 168.286684 293.073231 
L 168.655144 307.512 
L 169.023603 286.947692 
L 169.760522 301.386462 
L 170.497441 308.387077 
L 170.8659 298.323692 
L 171.234359 305.324308 
L 171.971278 300.948923 
L 172.339737 300.948923 
L 172.708197 305.761846 
L 173.076656 305.761846 
L 173.445116 305.324308 
L 173.813575 299.636308 
L 174.182034 274.259077 
L 174.918953 307.074462 
L 175.287412 303.574154 
L 175.655872 293.948308 
L 176.024331 302.261538 
L 176.392791 299.198769 
L 176.76125 300.511385 
L 177.129709 299.198769 
L 177.498169 293.510769 
L 177.866628 306.199385 
L 178.235087 300.948923 
L 178.603547 305.324308 
L 179.340465 283.009846 
L 179.708925 276.009231 
L 180.077384 300.511385 
L 180.445844 282.134769 
L 180.814303 297.886154 
L 181.182762 303.574154 
L 181.551222 305.324308 
L 181.919681 299.198769 
L 182.28814 306.199385 
L 182.6566 287.385231 
L 183.025059 308.387077 
L 183.393519 304.011692 
L 183.761978 305.324308 
L 184.130437 295.698462 
L 184.498897 269.446154 
L 184.867356 290.885538 
L 185.235815 291.760615 
L 185.604275 296.136 
L 185.972734 280.384615 
L 186.341193 298.323692 
L 186.709653 300.948923 
L 187.078112 291.323077 
L 187.446572 304.449231 
L 187.815031 286.947692 
L 188.18349 304.449231 
L 188.920409 290.885538 
L 189.288868 290.010462 
L 189.657328 301.386462 
L 190.025787 304.011692 
L 190.394247 286.072615 
L 190.762706 305.761846 
L 191.131165 302.699077 
L 191.499625 300.948923 
L 191.868084 304.886769 
L 192.236543 297.886154 
L 192.605003 300.073846 
L 192.973462 279.509538 
L 193.341921 307.949538 
L 193.710381 296.573538 
L 194.07884 305.324308 
L 194.4473 294.823385 
L 194.815759 296.136 
L 195.184218 279.509538 
L 195.552678 295.260923 
L 195.921137 303.574154 
L 196.289596 284.322462 
L 196.658056 294.823385 
L 197.026515 294.823385 
L 197.394975 307.512 
L 197.763434 302.699077 
L 198.500353 287.822769 
L 198.868812 283.447385 
L 199.237271 298.323692 
L 199.605731 298.323692 
L 199.97419 288.697846 
L 200.342649 301.824 
L 200.711109 246.694154 
L 201.079568 290.448 
L 201.448028 293.948308 
L 201.816487 293.948308 
L 202.553406 288.697846 
L 202.921865 293.948308 
L 203.290324 278.634462 
L 203.658784 300.511385 
L 204.027243 294.823385 
L 204.395703 296.136 
L 204.764162 271.196308 
L 205.132621 288.697846 
L 205.501081 295.260923 
L 205.86954 265.945846 
L 206.237999 267.258462 
L 206.606459 301.386462 
L 206.974918 306.636923 
L 207.343377 294.823385 
L 207.711837 291.760615 
L 208.080296 298.323692 
L 208.448756 290.010462 
L 208.817215 301.386462 
L 209.185674 304.449231 
L 209.554134 297.011077 
L 209.922593 285.635077 
L 210.291052 291.760615 
L 210.659512 300.511385 
L 211.027971 297.448615 
L 211.396431 304.449231 
L 211.76489 290.885538 
L 212.133349 293.510769 
L 212.501809 301.824 
L 212.870268 293.948308 
L 213.238727 288.697846 
L 213.607187 295.698462 
L 213.975646 298.323692 
L 214.344105 290.885538 
L 214.712565 305.761846 
L 215.817943 276.009231 
L 216.186402 284.76 
L 216.554862 303.574154 
L 216.923321 299.636308 
L 217.29178 289.572923 
L 217.66024 297.011077 
L 218.028699 299.636308 
L 218.397159 276.009231 
L 218.765618 282.572308 
L 219.134077 277.321846 
L 219.502537 292.635692 
L 219.870996 298.761231 
L 220.239455 302.261538 
L 220.607915 299.636308 
L 220.976374 297.886154 
L 221.344833 287.385231 
L 221.713293 298.323692 
L 222.081752 289.572923 
L 222.450212 289.135385 
L 222.818671 274.696615 
L 223.18713 298.761231 
L 223.55559 297.886154 
L 223.924049 295.698462 
L 224.292508 291.323077 
L 224.660968 301.824 
L 225.029427 302.261538 
L 225.397887 297.886154 
L 225.766346 289.135385 
L 226.134805 291.323077 
L 226.871724 269.008615 
L 227.240183 288.697846 
L 227.608643 295.260923 
L 227.977102 291.760615 
L 228.345561 284.76 
L 228.714021 292.198154 
L 229.08248 275.571692 
L 229.45094 298.323692 
L 229.819399 288.260308 
L 230.187858 295.698462 
L 230.556318 290.885538 
L 230.924777 299.636308 
L 231.293236 297.011077 
L 231.661696 292.198154 
L 232.030155 292.198154 
L 232.398615 249.756923 
L 232.767074 290.885538 
L 233.135533 284.76 
L 233.503993 269.008615 
L 233.872452 296.136 
L 234.240911 302.261538 
L 234.609371 303.574154 
L 234.97783 300.948923 
L 235.714749 281.697231 
L 236.083208 289.572923 
L 236.451668 285.635077 
L 236.820127 295.260923 
L 237.557046 247.569231 
L 237.925505 278.196923 
L 238.293964 298.761231 
L 239.030883 283.447385 
L 239.399343 290.885538 
L 239.767802 289.572923 
L 240.136261 287.822769 
L 240.87318 265.070769 
L 241.241639 293.948308 
L 241.610099 293.948308 
L 241.978558 285.635077 
L 242.347017 282.134769 
L 243.083936 300.948923 
L 243.452396 301.824 
L 243.820855 278.634462 
L 244.189314 292.198154 
L 244.926233 273.384 
L 245.663152 294.385846 
L 246.031611 292.198154 
L 246.400071 287.822769 
L 246.76853 288.697846 
L 247.136989 290.010462 
L 247.505449 274.259077 
L 247.873908 292.198154 
L 248.242367 267.258462 
L 248.610827 278.196923 
L 248.979286 303.574154 
L 249.347745 269.446154 
L 249.716205 288.260308 
L 250.084664 250.194462 
L 250.453124 275.134154 
L 250.821583 284.76 
L 251.190042 300.073846 
L 251.558502 280.384615 
L 251.926961 283.884923 
L 252.29542 289.572923 
L 252.66388 291.760615 
L 253.032339 293.073231 
L 253.400799 262.008 
L 253.769258 275.134154 
L 254.137717 279.509538 
L 254.506177 295.260923 
L 254.874636 283.884923 
L 255.243095 299.198769 
L 255.611555 271.196308 
L 255.980014 284.322462 
L 256.348473 276.446769 
L 256.716933 287.822769 
L 257.085392 284.76 
L 257.453852 293.073231 
L 257.822311 263.320615 
L 258.19077 301.824 
L 258.55923 284.322462 
L 258.927689 296.573538 
L 259.296148 288.697846 
L 259.664608 292.198154 
L 260.033067 292.198154 
L 260.401527 292.635692 
L 260.769986 294.385846 
L 261.138445 276.884308 
L 261.506905 278.196923 
L 261.875364 296.573538 
L 262.243823 284.76 
L 262.612283 278.634462 
L 262.980742 293.073231 
L 263.349201 278.196923 
L 263.717661 272.508923 
L 264.08612 288.697846 
L 264.45458 284.76 
L 264.823039 282.134769 
L 265.191498 300.948923 
L 265.559958 278.196923 
L 265.928417 270.758769 
L 266.296876 271.196308 
L 266.665336 273.821538 
L 267.033795 294.385846 
L 267.402255 295.260923 
L 267.770714 276.009231 
L 268.139173 273.384 
L 268.507633 279.509538 
L 268.876092 272.946462 
L 269.244551 300.511385 
L 269.613011 284.322462 
L 269.98147 276.446769 
L 270.349929 291.323077 
L 270.718389 292.635692 
L 271.086848 262.445538 
L 271.455308 297.448615 
L 271.823767 278.196923 
L 272.192226 281.697231 
L 272.560686 292.198154 
L 272.929145 288.697846 
L 273.297604 195.939692 
L 273.666064 279.072 
L 274.034523 285.635077 
L 274.402983 295.698462 
L 275.139901 280.822154 
L 275.508361 298.323692 
L 275.87682 284.76 
L 276.245279 282.572308 
L 276.613739 286.947692 
L 276.982198 275.571692 
L 277.350657 285.635077 
L 277.719117 259.820308 
L 278.087576 267.258462 
L 278.456036 288.260308 
L 278.824495 290.010462 
L 279.192954 276.884308 
L 279.561414 288.260308 
L 279.929873 277.321846 
L 280.298332 288.697846 
L 280.666792 286.947692 
L 281.035251 282.134769 
L 281.403711 279.509538 
L 281.77217 264.195692 
L 282.140629 282.572308 
L 282.509089 267.258462 
L 282.877548 290.448 
L 283.246007 294.385846 
L 283.614467 287.822769 
L 283.982926 289.572923 
L 284.351385 281.697231 
L 284.719845 293.948308 
L 285.088304 286.947692 
L 285.456764 287.822769 
L 285.825223 280.822154 
L 286.193682 290.010462 
L 286.562142 281.697231 
L 286.930601 281.697231 
L 287.29906 269.008615 
L 287.66752 284.322462 
L 288.035979 290.010462 
L 288.404439 285.635077 
L 288.772898 289.135385 
L 289.141357 287.385231 
L 289.509817 275.571692 
L 289.878276 277.321846 
L 290.246735 289.572923 
L 290.615195 289.135385 
L 290.983654 269.446154 
L 291.352113 290.448 
L 291.720573 286.510154 
L 292.089032 265.508308 
L 292.457492 288.697846 
L 292.825951 286.510154 
L 293.19441 293.948308 
L 293.56287 267.696 
L 293.931329 291.323077 
L 294.299788 289.572923 
L 294.668248 295.698462 
L 295.036707 285.635077 
L 295.405167 285.635077 
L 295.773626 259.820308 
L 296.142085 294.385846 
L 296.510545 293.510769 
L 296.879004 265.945846 
L 297.247463 292.635692 
L 297.615923 266.820923 
L 297.984382 292.198154 
L 298.352841 293.948308 
L 298.721301 284.76 
L 299.08976 283.447385 
L 299.45822 287.385231 
L 299.826679 268.571077 
L 300.195138 284.322462 
L 300.563598 286.947692 
L 300.932057 292.198154 
L 301.300516 237.505846 
L 301.668976 283.884923 
L 302.037435 282.134769 
L 302.405895 274.259077 
L 302.774354 272.946462 
L 303.142813 284.76 
L 303.511273 289.572923 
L 303.879732 272.946462 
L 304.248191 250.194462 
L 304.616651 288.260308 
L 304.98511 291.760615 
L 305.353569 288.260308 
L 305.722029 281.259692 
L 306.090488 287.822769 
L 306.458948 265.508308 
L 306.827407 252.819692 
L 307.195866 281.259692 
L 307.564326 272.946462 
L 307.932785 286.947692 
L 308.301244 257.195077 
L 308.669704 288.260308 
L 309.038163 288.260308 
L 309.406623 286.072615 
L 309.775082 263.758154 
L 310.143541 279.509538 
L 310.512001 286.072615 
L 310.88046 284.76 
L 311.248919 294.823385 
L 311.617379 278.634462 
L 311.985838 277.759385 
L 312.354297 286.510154 
L 312.722757 270.321231 
L 313.091216 265.945846 
L 313.459676 250.194462 
L 313.828135 282.134769 
L 314.196594 289.135385 
L 314.565054 274.259077 
L 314.933513 279.947077 
L 315.301972 279.947077 
L 315.670432 269.883692 
L 316.038891 280.384615 
L 316.407351 273.384 
L 316.77581 264.195692 
L 317.144269 296.136 
L 317.512729 278.634462 
L 317.881188 276.446769 
L 318.249647 291.760615 
L 318.618107 225.692308 
L 318.986566 272.508923 
L 319.355025 287.385231 
L 319.723485 232.255385 
L 320.091944 279.072 
L 320.460404 242.318769 
L 320.828863 295.698462 
L 321.197322 290.010462 
L 321.565782 282.134769 
L 321.934241 284.322462 
L 322.3027 275.571692 
L 322.67116 280.384615 
L 323.039619 277.759385 
L 323.408079 277.759385 
L 323.776538 272.508923 
L 324.144997 291.760615 
L 324.513457 270.758769 
L 325.618835 282.572308 
L 325.987294 268.133538 
L 326.355753 292.198154 
L 326.724213 274.259077 
L 327.092672 280.822154 
L 327.461132 280.822154 
L 327.829591 287.822769 
L 328.19805 271.196308 
L 328.56651 297.448615 
L 328.934969 293.073231 
L 329.303428 274.259077 
L 329.671888 287.385231 
L 330.040347 289.135385 
L 330.408807 273.821538 
L 330.777266 278.196923 
L 331.145725 267.258462 
L 331.514185 264.633231 
L 331.882644 283.009846 
L 332.251103 290.885538 
L 332.619563 244.068923 
L 332.988022 281.259692 
L 333.356481 267.258462 
L 333.724941 286.947692 
L 334.0934 258.507692 
L 334.46186 271.196308 
L 334.830319 270.758769 
L 335.198778 290.885538 
L 335.567238 276.884308 
L 335.935697 290.010462 
L 336.304156 290.010462 
L 336.672616 275.134154 
L 337.041075 282.572308 
L 337.409535 255.882462 
L 337.777994 254.569846 
L 338.146453 258.507692 
L 338.514913 284.322462 
L 338.883372 291.323077 
L 339.251831 282.572308 
L 339.620291 294.823385 
L 339.98875 232.692923 
L 340.357209 281.697231 
L 340.725669 293.510769 
L 341.094128 282.572308 
L 341.462588 290.448 
L 341.831047 286.510154 
L 342.199506 283.884923 
L 342.567966 273.384 
L 342.936425 256.757538 
L 343.304884 256.32 
L 343.673344 265.508308 
L 344.041803 287.385231 
L 344.410263 265.070769 
L 344.778722 284.76 
L 345.147181 272.071385 
L 345.515641 282.134769 
L 345.8841 279.947077 
L 346.621019 285.635077 
L 346.989478 267.258462 
L 347.357937 279.072 
L 347.726397 273.384 
L 348.094856 280.384615 
L 348.463316 285.197538 
L 348.831775 282.134769 
L 349.200234 285.197538 
L 349.568694 269.883692 
L 349.937153 265.508308 
L 350.305612 287.385231 
L 350.674072 290.885538 
L 351.410991 286.947692 
L 351.77945 269.446154 
L 352.147909 277.759385 
L 352.516369 293.073231 
L 352.884828 271.633846 
L 353.253287 272.946462 
L 353.621747 260.257846 
L 353.990206 293.510769 
L 354.358665 257.195077 
L 354.727125 249.756923 
L 355.095584 287.822769 
L 355.464044 274.696615 
L 355.832503 289.572923 
L 356.200962 266.820923 
L 356.569422 230.067692 
L 356.937881 286.072615 
L 357.30634 286.947692 
L 358.043259 252.819692 
L 358.411719 281.697231 
L 358.780178 268.133538 
L 359.148637 282.134769 
L 359.517097 278.196923 
L 359.885556 283.447385 
L 360.254015 274.696615 
L 360.622475 255.882462 
L 360.990934 227.004923 
L 361.359393 276.446769 
L 361.727853 280.384615 
L 362.096312 247.569231 
L 362.464772 282.134769 
L 362.833231 283.009846 
L 363.20169 278.196923 
L 363.57015 286.947692 
L 363.938609 286.072615 
L 364.307068 284.76 
L 364.675528 286.510154 
L 365.043987 282.134769 
L 365.412447 290.448 
L 365.780906 288.260308 
L 366.149365 282.572308 
L 366.517825 279.947077 
L 366.886284 278.196923 
L 367.254743 279.947077 
L 367.623203 291.760615 
L 367.991662 285.635077 
L 368.360121 274.259077 
L 368.728581 282.134769 
L 369.09704 279.947077 
L 369.4655 293.073231 
L 369.833959 285.197538 
L 370.202418 283.447385 
L 370.939337 289.572923 
L 371.307796 281.697231 
L 371.676256 297.011077 
L 372.044715 297.886154 
L 372.413175 272.071385 
L 372.781634 265.508308 
L 373.150093 290.010462 
L 373.518553 269.446154 
L 373.887012 287.385231 
L 374.255471 293.073231 
L 374.99239 298.323692 
L 375.360849 297.011077 
L 375.729309 288.260308 
L 376.097768 290.448 
L 376.466228 290.010462 
L 376.834687 284.76 
L 377.203146 293.948308 
L 377.571606 251.507077 
L 377.940065 259.820308 
L 378.308524 297.011077 
L 378.676984 293.510769 
L 379.045443 257.632615 
L 379.413903 299.198769 
L 379.782362 295.698462 
L 380.150821 300.073846 
L 380.519281 299.636308 
L 380.88774 278.634462 
L 381.256199 283.009846 
L 381.624659 269.446154 
L 381.993118 296.136 
L 382.361577 293.948308 
L 382.730037 298.323692 
L 383.098496 293.510769 
L 383.466956 292.635692 
L 383.835415 294.385846 
L 384.203874 298.761231 
L 384.572334 300.073846 
L 384.940793 290.885538 
L 385.309252 299.198769 
L 385.677712 293.073231 
L 386.046171 293.073231 
L 386.78309 297.886154 
L 387.151549 292.198154 
L 387.520009 272.508923 
L 387.888468 295.698462 
L 388.256927 294.385846 
L 388.625387 300.073846 
L 388.993846 295.698462 
L 389.362305 294.385846 
L 389.730765 285.197538 
L 390.099224 298.323692 
L 390.467684 270.758769 
L 390.836143 293.073231 
L 391.204602 298.323692 
L 391.573062 285.197538 
L 391.941521 300.073846 
L 392.67844 290.885538 
L 393.046899 296.573538 
L 393.415359 293.073231 
L 393.783818 300.073846 
L 394.152277 292.635692 
L 394.520737 277.759385 
L 394.889196 300.073846 
L 395.257655 282.572308 
L 395.994574 293.948308 
L 396.363033 286.947692 
L 396.731493 290.010462 
L 397.099952 289.135385 
L 397.468412 274.259077 
L 397.836871 290.885538 
L 398.20533 295.698462 
L 398.57379 283.447385 
L 398.942249 296.136 
L 399.310708 299.198769 
L 399.679168 292.635692 
L 400.047627 276.446769 
L 400.416087 295.698462 
L 400.784546 297.886154 
L 401.153005 297.448615 
L 401.521465 299.636308 
L 401.889924 291.760615 
L 402.258383 245.381538 
L 402.626843 297.011077 
L 402.995302 291.323077 
L 403.363761 287.822769 
L 403.732221 295.260923 
L 404.10068 291.323077 
L 404.46914 297.448615 
L 404.837599 296.573538 
L 405.206058 292.198154 
L 405.574518 297.448615 
L 405.942977 294.385846 
L 406.311436 289.135385 
L 406.679896 294.823385 
L 407.048355 296.573538 
L 407.416815 290.448 
L 407.785274 291.760615 
L 408.153733 296.573538 
L 408.522193 295.698462 
L 408.890652 295.698462 
L 409.259111 300.511385 
L 409.627571 297.011077 
L 409.99603 278.634462 
L 410.364489 282.572308 
L 410.732949 296.573538 
L 411.101408 263.758154 
L 411.469868 286.947692 
L 411.838327 278.634462 
L 412.206786 280.822154 
L 412.575246 296.136 
L 412.943705 283.009846 
L 413.312164 287.822769 
L 413.680624 289.135385 
L 414.049083 270.758769 
L 414.417543 292.198154 
L 414.786002 288.260308 
L 415.154461 274.259077 
L 415.522921 295.260923 
L 415.89138 296.136 
L 416.259839 286.510154 
L 416.628299 279.947077 
L 416.996758 282.134769 
L 417.365217 280.384615 
L 417.733677 294.823385 
L 418.102136 292.635692 
L 418.470596 291.323077 
L 418.839055 273.384 
L 419.207514 289.572923 
L 419.575974 292.635692 
L 419.944433 291.323077 
L 420.312892 299.198769 
L 420.681352 290.885538 
L 421.049811 291.760615 
L 421.418271 250.194462 
L 421.78673 274.259077 
L 422.155189 260.257846 
L 422.523649 289.135385 
L 422.892108 275.571692 
L 423.629027 292.635692 
L 423.997486 286.947692 
L 424.365945 297.886154 
L 424.734405 284.76 
L 425.102864 285.635077 
L 425.471324 281.259692 
L 425.839783 287.385231 
L 426.208242 257.195077 
L 426.576702 283.447385 
L 426.945161 264.195692 
L 427.31362 280.384615 
L 427.68208 279.947077 
L 428.050539 270.321231 
L 428.418999 279.072 
L 428.787458 279.509538 
L 429.155917 276.009231 
L 429.524377 292.198154 
L 429.892836 252.819692 
L 430.261295 260.695385 
L 430.629755 274.696615 
L 430.998214 277.321846 
L 431.366673 269.883692 
L 431.735133 239.256 
L 432.103592 268.571077 
L 432.472052 275.134154 
L 432.840511 278.196923 
L 433.20897 284.76 
L 433.57743 259.820308 
L 433.945889 277.759385 
L 434.314348 261.132923 
L 434.682808 265.945846 
L 435.051267 253.694769 
L 435.419727 248.006769 
L 435.788186 254.132308 
L 436.156645 289.572923 
L 436.525105 234.443077 
L 436.893564 274.696615 
L 437.262023 251.944615 
L 437.630483 265.070769 
L 437.998942 242.318769 
L 438.367401 232.692923 
L 438.735861 273.384 
L 439.10432 234.443077 
L 439.47278 238.818462 
L 439.841239 281.259692 
L 440.209698 245.381538 
L 440.578158 258.945231 
L 440.946617 258.507692 
L 441.315076 261.570462 
L 441.683536 279.072 
L 442.051995 289.135385 
L 442.420455 250.194462 
L 442.420455 250.194462 
" clip-path="url(#pdbf139c1ee)" style="fill: none; stroke: #708090; stroke-width: 1.5; stroke-linecap: square"/>
   </g>
   <g id="line2d_15">
    <path d="M 74.329545 302.690326 
L 74.698005 302.777834 
L 75.066464 302.681575 
L 76.908761 302.935348 
L 77.27722 302.987852 
L 78.014139 302.751582 
L 79.119517 303.591655 
L 79.856436 303.64416 
L 80.593355 304.169206 
L 82.435652 304.090449 
L 82.804111 303.880431 
L 83.54103 304.064197 
L 83.909489 303.836677 
L 85.383327 303.731668 
L 86.488705 303.477895 
L 86.857164 303.714166 
L 87.594083 303.626658 
L 87.962542 303.897932 
L 90.910217 304.265465 
L 91.278676 304.064197 
L 95.700189 304.256714 
L 96.805567 304.78176 
L 97.910945 304.484234 
L 98.279404 304.519237 
L 98.647864 304.405477 
L 99.016323 304.090449 
L 99.753242 303.827926 
L 100.121701 303.941686 
L 100.490161 303.880431 
L 100.85862 303.932935 
L 101.595539 304.221711 
L 101.963998 304.064197 
L 102.332457 304.32672 
L 103.437836 304.370474 
L 104.174754 304.545489 
L 105.280132 304.370474 
L 105.648592 304.484234 
L 106.017051 304.475483 
L 106.385511 304.116702 
L 106.75397 304.072948 
L 107.122429 303.845428 
L 109.333185 303.556652 
L 110.070104 303.64416 
L 110.807023 303.329132 
L 111.175482 303.329132 
L 111.543942 303.206622 
L 112.28086 303.329132 
L 112.64932 303.337883 
L 113.017779 303.215372 
L 113.386239 303.232874 
L 113.754698 302.541563 
L 114.123157 302.611569 
L 114.491617 302.401551 
L 115.228535 302.427803 
L 115.596995 302.594068 
L 115.965454 302.576566 
L 116.333913 302.681575 
L 117.070832 302.585317 
L 117.807751 302.751582 
L 118.17621 302.865342 
L 118.54467 302.795335 
L 118.913129 302.839089 
L 120.755426 302.384049 
L 121.123885 301.806498 
L 121.860804 301.867754 
L 122.229263 301.718991 
L 122.966182 301.736492 
L 123.334641 301.964012 
L 124.44002 301.675237 
L 124.808479 302.007766 
L 125.176938 301.93776 
L 125.913857 302.16528 
L 126.650776 302.182782 
L 128.493073 302.209034 
L 128.861532 302.226535 
L 129.229991 302.375298 
L 129.598451 302.322794 
L 129.96691 302.489058 
L 130.703829 302.235286 
L 131.440748 302.366548 
L 131.809207 302.086523 
L 132.177666 302.856591 
L 132.546126 302.777834 
L 132.914585 302.865342 
L 133.283044 302.270289 
L 134.388423 302.191532 
L 135.125341 302.244037 
L 135.86226 302.410302 
L 136.230719 302.419052 
L 136.967638 302.104025 
L 137.336097 302.191532 
L 137.704557 301.753994 
L 139.178394 301.972763 
L 139.546854 302.305292 
L 139.915313 302.305292 
L 140.283772 301.859003 
L 141.75761 301.815249 
L 142.126069 301.587729 
L 142.494529 301.543975 
L 142.862988 301.701489 
L 143.968366 301.797748 
L 144.336825 301.526474 
L 145.073744 301.500222 
L 145.810663 301.062683 
L 146.179122 300.887668 
L 147.2845 300.948923 
L 147.65296 300.336369 
L 148.021419 300.415126 
L 148.758338 300.415126 
L 149.126797 300.581391 
L 150.600635 300.546388 
L 151.337553 300.038843 
L 151.706013 300.537637 
L 154.653688 300.388874 
L 155.022147 300.476382 
L 155.390607 300.695151 
L 156.495985 300.283865 
L 156.864444 300.415126 
L 157.232903 300.362622 
L 157.601363 300.178855 
L 157.969822 300.292615 
L 158.338281 300.213858 
L 158.706741 300.546388 
L 159.0752 300.537637 
L 159.44366 300.283865 
L 160.180578 300.257612 
L 160.549038 300.581391 
L 160.917497 300.336369 
L 161.654416 299.233772 
L 162.022875 299.155015 
L 162.391335 298.682474 
L 162.759794 298.831237 
L 163.128253 298.75248 
L 163.865172 298.962498 
L 164.233631 299.198769 
L 164.602091 298.98 
L 164.97055 299.268775 
L 165.707469 299.303778 
L 166.075928 299.688812 
L 166.444388 298.901243 
L 168.286684 297.483618 
L 168.655144 297.641132 
L 169.023603 297.317354 
L 169.392063 297.667385 
L 169.760522 297.536123 
L 170.128981 297.597378 
L 170.497441 297.466117 
L 170.8659 297.116086 
L 171.602819 296.871065 
L 171.971278 296.888566 
L 172.339737 296.59104 
L 172.708197 296.687298 
L 174.182034 296.486031 
L 174.550494 297.002326 
L 174.918953 296.739803 
L 175.287412 296.757305 
L 175.655872 296.617292 
L 176.024331 296.844812 
L 176.76125 296.634794 
L 177.129709 296.214757 
L 177.498169 296.136 
L 177.866628 296.337268 
L 178.235087 295.899729 
L 178.972006 295.5672 
L 179.708925 296.241009 
L 180.077384 296.617292 
L 180.445844 296.36352 
L 181.182762 296.398523 
L 181.551222 296.293514 
L 181.919681 295.960985 
L 182.28814 296.013489 
L 182.6566 294.823385 
L 183.025059 294.88464 
L 184.130437 294.105822 
L 184.498897 293.965809 
L 184.867356 294.455852 
L 185.235815 294.210831 
L 185.604275 294.385846 
L 185.972734 294.359594 
L 186.341193 294.674622 
L 186.709653 294.132074 
L 187.078112 293.887052 
L 187.446572 293.965809 
L 187.815031 293.195742 
L 188.18349 292.801957 
L 188.55195 292.740702 
L 189.288868 292.994474 
L 190.025787 292.968222 
L 190.394247 292.688197 
L 190.762706 292.994474 
L 191.499625 292.854462 
L 192.236543 292.285662 
L 192.973462 292.285662 
L 193.341921 292.784455 
L 193.710381 292.443175 
L 195.184218 292.145649 
L 195.552678 292.469428 
L 195.921137 292.530683 
L 196.289596 292.276911 
L 196.658056 292.705698 
L 197.026515 292.731951 
L 197.394975 292.521932 
L 197.763434 291.891877 
L 198.131893 291.533095 
L 199.237271 292.066892 
L 199.97419 292.066892 
L 200.711109 291.428086 
L 201.079568 292.04064 
L 201.816487 292.180652 
L 202.921865 292.705698 
L 203.290324 292.574437 
L 203.658784 292.968222 
L 204.764162 292.206905 
L 205.132621 292.758203 
L 205.501081 292.941969 
L 205.86954 292.95072 
L 206.606459 294.149575 
L 206.974918 294.167077 
L 207.711837 293.878302 
L 208.080296 293.869551 
L 209.185674 292.854462 
L 209.922593 292.565686 
L 210.659512 292.556935 
L 211.027971 292.058142 
L 211.396431 292.075643 
L 211.76489 291.751865 
L 212.133349 291.848123 
L 212.870268 291.751865 
L 213.607187 291.883126 
L 213.975646 291.81312 
L 214.344105 290.841785 
L 214.712565 290.841785 
L 215.449484 289.8792 
L 215.817943 290.115471 
L 216.554862 291.0168 
L 216.923321 290.964295 
L 218.397159 290.194228 
L 218.765618 290.579262 
L 219.134077 290.316738 
L 219.502537 289.721686 
L 219.870996 289.432911 
L 220.239455 289.432911 
L 221.344833 288.7416 
L 221.713293 288.785354 
L 222.450212 288.339065 
L 222.818671 287.857772 
L 223.18713 288.242806 
L 223.55559 288.146548 
L 224.292508 287.630252 
L 225.397887 287.630252 
L 225.766346 287.245218 
L 226.134805 287.306474 
L 226.871724 286.973945 
L 227.240183 287.306474 
L 227.608643 287.420234 
L 228.345561 287.280222 
L 228.714021 287.358978 
L 229.819399 287.166462 
L 230.556318 286.396394 
L 230.924777 286.650166 
L 231.293236 286.046363 
L 231.661696 285.871348 
L 232.030155 285.031274 
L 232.398615 284.689994 
L 232.767074 285.390055 
L 233.135533 285.573822 
L 233.503993 285.486314 
L 233.872452 285.78384 
L 234.609371 285.44256 
L 234.97783 285.232542 
L 235.346289 284.453723 
L 235.714749 284.147446 
L 236.083208 284.103692 
L 236.451668 284.217452 
L 236.820127 284.182449 
L 237.557046 284.296209 
L 237.925505 285.031274 
L 238.293964 284.996271 
L 239.030883 284.654991 
L 239.399343 284.847508 
L 239.767802 284.296209 
L 240.136261 284.541231 
L 240.504721 284.471225 
L 241.241639 285.320049 
L 241.978558 285.250043 
L 242.715477 285.635077 
L 243.820855 284.76 
L 244.189314 284.882511 
L 244.557774 284.611237 
L 245.294692 284.917514 
L 245.663152 284.654991 
L 246.76853 284.278708 
L 247.136989 284.523729 
L 247.505449 284.287458 
L 247.873908 284.217452 
L 248.242367 283.797415 
L 248.610827 283.928677 
L 248.979286 284.252455 
L 249.347745 284.086191 
L 249.716205 284.217452 
L 250.084664 283.919926 
L 250.453124 284.506228 
L 250.821583 284.462474 
L 251.190042 284.777502 
L 251.558502 284.462474 
L 251.926961 284.383717 
L 252.66388 284.593735 
L 253.032339 284.007434 
L 253.400799 284.094942 
L 253.769258 284.41872 
L 254.137717 284.549982 
L 254.506177 284.803754 
L 254.874636 284.672492 
L 255.243095 282.913588 
L 255.611555 282.511052 
L 256.716933 283.28112 
L 257.085392 283.141108 
L 257.453852 283.412382 
L 257.822311 283.246117 
L 258.19077 283.631151 
L 258.927689 283.158609 
L 259.296148 282.93984 
L 260.033067 281.863495 
L 260.769986 281.732234 
L 261.138445 281.382203 
L 261.506905 281.609723 
L 261.875364 281.592222 
L 262.243823 281.434708 
L 262.980742 281.548468 
L 263.717661 280.997169 
L 264.08612 281.198437 
L 264.45458 280.769649 
L 264.823039 280.883409 
L 265.191498 281.128431 
L 265.559958 280.865908 
L 266.296876 281.312197 
L 266.665336 281.767237 
L 267.033795 282.02976 
L 267.402255 281.898498 
L 267.770714 281.609723 
L 268.507633 282.056012 
L 268.876092 282.099766 
L 269.244551 282.021009 
L 269.613011 281.697231 
L 270.718389 281.951003 
L 271.086848 281.845994 
L 271.455308 282.108517 
L 271.823767 281.705982 
L 272.560686 282.082265 
L 272.929145 281.627225 
L 273.297604 281.662228 
L 273.666064 283.473637 
L 274.034523 283.202363 
L 274.402983 283.263618 
L 274.771442 283.079852 
L 275.139901 283.176111 
L 275.87682 282.773575 
L 276.245279 282.869834 
L 276.613739 283.132357 
L 276.982198 283.106105 
L 277.350657 283.307372 
L 277.719117 282.791077 
L 278.456036 284.007434 
L 278.824495 283.561145 
L 279.192954 283.613649 
L 279.561414 283.412382 
L 279.929873 283.491138 
L 280.298332 283.823668 
L 281.035251 283.674905 
L 281.403711 283.779914 
L 281.77217 283.561145 
L 282.140629 283.96368 
L 282.509089 284.051188 
L 282.877548 284.549982 
L 283.246007 283.491138 
L 285.088304 282.502302 
L 285.456764 282.554806 
L 285.825223 282.25728 
L 286.193682 281.644726 
L 286.562142 281.609723 
L 287.66752 282.187274 
L 288.035979 282.25728 
L 289.141357 280.953415 
L 289.509817 280.66464 
L 289.878276 280.89216 
L 290.246735 280.489625 
L 290.983654 280.445871 
L 291.352113 280.7784 
L 291.720573 280.244603 
L 292.089032 280.104591 
L 292.457492 280.515877 
L 292.825951 280.43712 
L 293.19441 280.603385 
L 293.56287 280.297108 
L 293.931329 280.498375 
L 294.299788 280.402117 
L 294.668248 280.017083 
L 295.405167 278.713218 
L 295.773626 278.643212 
L 296.142085 279.229514 
L 296.879004 278.555705 
L 297.247463 278.835729 
L 297.615923 278.380689 
L 297.984382 278.651963 
L 298.352841 278.27568 
L 298.721301 277.680628 
L 299.08976 277.908148 
L 299.45822 277.811889 
L 299.826679 277.59312 
L 300.195138 278.056911 
L 300.563598 276.884308 
L 300.932057 276.595532 
L 302.037435 276.298006 
L 302.405895 275.501686 
L 303.142813 276.271754 
L 304.248191 276.166745 
L 304.616651 276.770548 
L 305.353569 276.280505 
L 305.722029 275.965477 
L 306.090488 276.175495 
L 306.458948 275.834215 
L 306.827407 276.026732 
L 307.195866 276.551778 
L 307.564326 276.578031 
L 307.932785 276.481772 
L 308.301244 276.586782 
L 308.669704 276.928062 
L 309.406623 276.630535 
L 309.775082 276.665538 
L 310.143541 276.814302 
L 310.512001 277.173083 
L 310.88046 277.313095 
L 311.617379 276.954314 
L 311.985838 277.164332 
L 313.459676 276.831803 
L 313.828135 277.488111 
L 314.196594 277.663126 
L 314.565054 276.761797 
L 314.933513 276.901809 
L 315.301972 276.648037 
L 315.670432 276.788049 
L 316.407351 276.376763 
L 316.77581 276.324258 
L 317.144269 276.858055 
L 317.512729 276.473022 
L 318.249647 276.971815 
L 318.618107 276.639286 
L 318.986566 277.776886 
L 319.355025 277.444357 
L 319.723485 276.788049 
L 320.091944 277.313095 
L 320.460404 277.418105 
L 320.828863 278.398191 
L 321.197322 278.135668 
L 321.565782 278.231926 
L 321.934241 277.243089 
L 322.3027 277.190585 
L 322.67116 277.549366 
L 323.039619 277.59312 
L 324.144997 278.249428 
L 325.250375 277.225588 
L 325.618835 276.954314 
L 325.987294 277.050572 
L 328.19805 276.700542 
L 328.56651 276.989317 
L 328.934969 276.385514 
L 329.303428 276.105489 
L 329.671888 276.087988 
L 330.408807 275.869218 
L 331.145725 276.175495 
L 332.619563 276.333009 
L 332.988022 277.225588 
L 333.724941 277.383102 
L 334.0934 277.199335 
L 334.46186 277.890646 
L 335.198778 277.943151 
L 335.567238 277.330597 
L 335.935697 277.663126 
L 336.672616 276.201748 
L 337.041075 276.45552 
L 337.409535 276.298006 
L 337.777994 276.971815 
L 338.146453 277.216837 
L 338.514913 276.648037 
L 338.883372 276.68304 
L 339.251831 276.595532 
L 339.620291 276.350511 
L 339.98875 275.510437 
L 340.357209 276.490523 
L 341.094128 275.991729 
L 341.831047 275.764209 
L 342.199506 275.527938 
L 342.567966 274.967889 
L 342.936425 274.040308 
L 343.673344 274.915385 
L 344.041803 274.556603 
L 344.410263 274.451594 
L 344.778722 274.810375 
L 345.147181 274.679114 
L 345.515641 274.97664 
L 346.621019 275.230412 
L 346.989478 275.160406 
L 347.357937 275.624197 
L 348.094856 275.991729 
L 348.463316 275.982978 
L 349.200234 275.799212 
L 349.568694 275.930474 
L 350.305612 276.420517 
L 351.410991 276.184246 
L 351.77945 276.149243 
L 352.516369 276.604283 
L 352.884828 276.534277 
L 353.253287 276.735545 
L 353.621747 277.216837 
L 353.990206 277.969403 
L 354.358665 277.540615 
L 354.727125 277.70688 
L 355.095584 278.511951 
L 355.464044 278.144418 
L 355.832503 278.398191 
L 356.200962 278.468197 
L 356.569422 279.045748 
L 356.937881 280.410868 
L 357.30634 280.629637 
L 357.6748 280.655889 
L 358.043259 281.058425 
L 358.411719 281.80224 
L 358.780178 281.863495 
L 359.148637 282.379791 
L 359.517097 281.767237 
L 359.885556 281.399705 
L 360.990934 282.082265 
L 361.359393 283.526142 
L 362.096312 284.30496 
L 362.464772 285.346302 
L 363.57015 285.10128 
L 366.149365 286.35264 
L 367.623203 287.604 
L 367.991662 287.630252 
L 368.360121 287.83152 
L 368.728581 288.304062 
L 369.09704 288.505329 
L 369.4655 288.356566 
L 369.833959 288.409071 
L 370.202418 288.592837 
L 370.939337 289.109132 
L 372.044715 289.301649 
L 372.413175 288.759102 
L 372.781634 289.179138 
L 373.150093 289.835446 
L 373.518553 289.739188 
L 373.887012 290.351742 
L 374.255471 290.518006 
L 375.729309 290.448 
L 376.097768 290.535508 
L 376.466228 290.281735 
L 376.834687 290.483003 
L 377.571606 290.316738 
L 377.940065 291.165563 
L 378.308524 291.708111 
L 379.045443 291.480591 
L 379.413903 291.81312 
L 379.782362 291.646855 
L 380.150821 291.646855 
L 380.519281 291.314326 
L 380.88774 291.24432 
L 381.256199 291.655606 
L 381.993118 291.988135 
L 383.098496 292.04064 
L 383.466956 292.163151 
L 383.835415 292.145649 
L 384.203874 291.165563 
L 384.572334 291.13056 
L 385.309252 290.894289 
L 386.046171 290.780529 
L 386.78309 290.885538 
L 387.151549 290.771778 
L 387.520009 290.876788 
L 387.888468 291.314326 
L 388.256927 291.183065 
L 388.993846 291.121809 
L 389.730765 290.964295 
L 390.099224 291.191815 
L 390.467684 291.139311 
L 390.836143 291.638105 
L 391.204602 291.786868 
L 391.941521 291.629354 
L 392.30998 291.279323 
L 392.67844 291.296825 
L 393.046899 290.754277 
L 393.783818 290.272985 
L 394.152277 289.887951 
L 394.889196 290.062966 
L 395.257655 289.817945 
L 395.626115 289.949206 
L 395.994574 289.607926 
L 396.731493 289.599175 
L 397.099952 289.284148 
L 397.468412 289.406658 
L 397.836871 289.844197 
L 398.20533 289.756689 
L 398.57379 289.441662 
L 398.942249 289.415409 
L 399.310708 289.100382 
L 400.047627 289.012874 
L 400.416087 289.3104 
L 400.784546 288.864111 
L 401.889924 288.435323 
L 402.258383 288.584086 
L 402.626843 289.494166 
L 402.995302 289.389157 
L 403.363761 288.566585 
L 403.732221 288.295311 
L 404.10068 287.595249 
L 404.46914 287.551495 
L 404.837599 287.113957 
L 405.206058 286.886437 
L 405.574518 286.895188 
L 405.942977 286.685169 
L 406.311436 286.755175 
L 407.048355 286.483902 
L 407.416815 286.177625 
L 407.785274 286.116369 
L 408.153733 285.425058 
L 408.522193 285.162535 
L 408.890652 284.53248 
L 409.627571 283.814917 
L 409.99603 283.28112 
L 410.732949 283.228615 
L 411.101408 282.817329 
L 411.469868 283.386129 
L 411.838327 282.703569 
L 412.206786 282.344788 
L 412.575246 282.222277 
L 413.312164 281.583471 
L 413.680624 280.612135 
L 414.049083 280.200849 
L 414.417543 280.288357 
L 414.786002 280.008332 
L 415.154461 279.938326 
L 415.89138 279.29952 
L 416.259839 278.599458 
L 416.996758 277.663126 
L 417.733677 276.45552 
L 418.102136 276.350511 
L 418.470596 275.186658 
L 419.207514 274.425342 
L 419.575974 273.935298 
L 420.312892 271.756357 
L 420.681352 271.240062 
L 421.418271 269.052369 
L 421.78673 269.673674 
L 422.155189 269.096123 
L 422.523649 269.069871 
L 422.892108 268.457317 
L 423.260567 268.177292 
L 423.997486 267.984775 
L 424.365945 267.249711 
L 424.365945 267.249711 
" clip-path="url(#pdbf139c1ee)" style="fill: none; stroke: #000080; stroke-width: 1.5; stroke-linecap: square"/>
   </g>
   <g id="line2d_16">
    <path d="M 55.925 94.430769 
L 460.825 94.430769 
" clip-path="url(#pdbf139c1ee)" style="fill: none; stroke-dasharray: 5.55,2.4; stroke-dashoffset: 0; stroke: #008000; stroke-width: 1.5"/>
   </g>
   <g id="patch_3">
    <path d="M 55.925 313.2 
L 55.925 28.8 
" style="fill: none; stroke: #000000; stroke-width: 0.8; stroke-linejoin: miter; stroke-linecap: square"/>
   </g>
   <g id="patch_4">
    <path d="M 460.825 313.2 
L 460.825 28.8 
" style="fill: none; stroke: #000000; stroke-width: 0.8; stroke-linejoin: miter; stroke-linecap: square"/>
   </g>
   <g id="patch_5">
    <path d="M 55.925 313.2 
L 460.825 313.2 
" style="fill: none; stroke: #000000; stroke-width: 0.8; stroke-linejoin: miter; stroke-linecap: square"/>
   </g>
   <g id="patch_6">
    <path d="M 55.925 28.8 
L 460.825 28.8 
" style="fill: none; stroke: #000000; stroke-width: 0.8; stroke-linejoin: miter; stroke-linecap: square"/>
   </g>
   <g id="text_16">
    <!-- gamma = 0.9047368421052632,lr = 0.0027825594022071257 -->
    <g transform="translate(18.829688 22.8)scale(0.15 -0.15)">
     <defs>
      <path id="DejaVuSans-67" d="M 2906 1791 
Q 2906 2416 2648 2759 
Q 2391 3103 1925 3103 
Q 1463 3103 1205 2759 
Q 947 2416 947 1791 
Q 947 1169 1205 825 
Q 1463 481 1925 481 
Q 2391 481 2648 825 
Q 2906 1169 2906 1791 
z
M 3481 434 
Q 3481 -459 3084 -895 
Q 2688 -1331 1869 -1331 
Q 1566 -1331 1297 -1286 
Q 1028 -1241 775 -1147 
L 775 -588 
Q 1028 -725 1275 -790 
Q 1522 -856 1778 -856 
Q 2344 -856 2625 -561 
Q 2906 -266 2906 331 
L 2906 616 
Q 2728 306 2450 153 
Q 2172 0 1784 0 
Q 1141 0 747 490 
Q 353 981 353 1791 
Q 353 2603 747 3093 
Q 1141 3584 1784 3584 
Q 2172 3584 2450 3431 
Q 2728 3278 2906 2969 
L 2906 3500 
L 3481 3500 
L 3481 434 
z
" transform="scale(0.015625)"/>
      <path id="DejaVuSans-61" d="M 2194 1759 
Q 1497 1759 1228 1600 
Q 959 1441 959 1056 
Q 959 750 1161 570 
Q 1363 391 1709 391 
Q 2188 391 2477 730 
Q 2766 1069 2766 1631 
L 2766 1759 
L 2194 1759 
z
M 3341 1997 
L 3341 0 
L 2766 0 
L 2766 531 
Q 2569 213 2275 61 
Q 1981 -91 1556 -91 
Q 1019 -91 701 211 
Q 384 513 384 1019 
Q 384 1609 779 1909 
Q 1175 2209 1959 2209 
L 2766 2209 
L 2766 2266 
Q 2766 2663 2505 2880 
Q 2244 3097 1772 3097 
Q 1472 3097 1187 3025 
Q 903 2953 641 2809 
L 641 3341 
Q 956 3463 1253 3523 
Q 1550 3584 1831 3584 
Q 2591 3584 2966 3190 
Q 3341 2797 3341 1997 
z
" transform="scale(0.015625)"/>
      <path id="DejaVuSans-6d" d="M 3328 2828 
Q 3544 3216 3844 3400 
Q 4144 3584 4550 3584 
Q 5097 3584 5394 3201 
Q 5691 2819 5691 2113 
L 5691 0 
L 5113 0 
L 5113 2094 
Q 5113 2597 4934 2840 
Q 4756 3084 4391 3084 
Q 3944 3084 3684 2787 
Q 3425 2491 3425 1978 
L 3425 0 
L 2847 0 
L 2847 2094 
Q 2847 2600 2669 2842 
Q 2491 3084 2119 3084 
Q 1678 3084 1418 2786 
Q 1159 2488 1159 1978 
L 1159 0 
L 581 0 
L 581 3500 
L 1159 3500 
L 1159 2956 
Q 1356 3278 1631 3431 
Q 1906 3584 2284 3584 
Q 2666 3584 2933 3390 
Q 3200 3197 3328 2828 
z
" transform="scale(0.015625)"/>
      <path id="DejaVuSans-20" transform="scale(0.015625)"/>
      <path id="DejaVuSans-3d" d="M 678 2906 
L 4684 2906 
L 4684 2381 
L 678 2381 
L 678 2906 
z
M 678 1631 
L 4684 1631 
L 4684 1100 
L 678 1100 
L 678 1631 
z
" transform="scale(0.015625)"/>
      <path id="DejaVuSans-2e" d="M 684 794 
L 1344 794 
L 1344 0 
L 684 0 
L 684 794 
z
" transform="scale(0.015625)"/>
      <path id="DejaVuSans-39" d="M 703 97 
L 703 672 
Q 941 559 1184 500 
Q 1428 441 1663 441 
Q 2288 441 2617 861 
Q 2947 1281 2994 2138 
Q 2813 1869 2534 1725 
Q 2256 1581 1919 1581 
Q 1219 1581 811 2004 
Q 403 2428 403 3163 
Q 403 3881 828 4315 
Q 1253 4750 1959 4750 
Q 2769 4750 3195 4129 
Q 3622 3509 3622 2328 
Q 3622 1225 3098 567 
Q 2575 -91 1691 -91 
Q 1453 -91 1209 -44 
Q 966 3 703 97 
z
M 1959 2075 
Q 2384 2075 2632 2365 
Q 2881 2656 2881 3163 
Q 2881 3666 2632 3958 
Q 2384 4250 1959 4250 
Q 1534 4250 1286 3958 
Q 1038 3666 1038 3163 
Q 1038 2656 1286 2365 
Q 1534 2075 1959 2075 
z
" transform="scale(0.015625)"/>
      <path id="DejaVuSans-37" d="M 525 4666 
L 3525 4666 
L 3525 4397 
L 1831 0 
L 1172 0 
L 2766 4134 
L 525 4134 
L 525 4666 
z
" transform="scale(0.015625)"/>
      <path id="DejaVuSans-2c" d="M 750 794 
L 1409 794 
L 1409 256 
L 897 -744 
L 494 -744 
L 750 256 
L 750 794 
z
" transform="scale(0.015625)"/>
      <path id="DejaVuSans-6c" d="M 603 4863 
L 1178 4863 
L 1178 0 
L 603 0 
L 603 4863 
z
" transform="scale(0.015625)"/>
     </defs>
     <use xlink:href="#DejaVuSans-67"/>
     <use xlink:href="#DejaVuSans-61" x="63.476562"/>
     <use xlink:href="#DejaVuSans-6d" x="124.755859"/>
     <use xlink:href="#DejaVuSans-6d" x="222.167969"/>
     <use xlink:href="#DejaVuSans-61" x="319.580078"/>
     <use xlink:href="#DejaVuSans-20" x="380.859375"/>
     <use xlink:href="#DejaVuSans-3d" x="412.646484"/>
     <use xlink:href="#DejaVuSans-20" x="496.435547"/>
     <use xlink:href="#DejaVuSans-30" x="528.222656"/>
     <use xlink:href="#DejaVuSans-2e" x="591.845703"/>
     <use xlink:href="#DejaVuSans-39" x="623.632812"/>
     <use xlink:href="#DejaVuSans-30" x="687.255859"/>
     <use xlink:href="#DejaVuSans-34" x="750.878906"/>
     <use xlink:href="#DejaVuSans-37" x="814.501953"/>
     <use xlink:href="#DejaVuSans-33" x="878.125"/>
     <use xlink:href="#DejaVuSans-36" x="941.748047"/>
     <use xlink:href="#DejaVuSans-38" x="1005.371094"/>
     <use xlink:href="#DejaVuSans-34" x="1068.994141"/>
     <use xlink:href="#DejaVuSans-32" x="1132.617188"/>
     <use xlink:href="#DejaVuSans-31" x="1196.240234"/>
     <use xlink:href="#DejaVuSans-30" x="1259.863281"/>
     <use xlink:href="#DejaVuSans-35" x="1323.486328"/>
     <use xlink:href="#DejaVuSans-32" x="1387.109375"/>
     <use xlink:href="#DejaVuSans-36" x="1450.732422"/>
     <use xlink:href="#DejaVuSans-33" x="1514.355469"/>
     <use xlink:href="#DejaVuSans-32" x="1577.978516"/>
     <use xlink:href="#DejaVuSans-2c" x="1641.601562"/>
     <use xlink:href="#DejaVuSans-6c" x="1673.388672"/>
     <use xlink:href="#DejaVuSans-72" x="1701.171875"/>
     <use xlink:href="#DejaVuSans-20" x="1742.285156"/>
     <use xlink:href="#DejaVuSans-3d" x="1774.072266"/>
     <use xlink:href="#DejaVuSans-20" x="1857.861328"/>
     <use xlink:href="#DejaVuSans-30" x="1889.648438"/>
     <use xlink:href="#DejaVuSans-2e" x="1953.271484"/>
     <use xlink:href="#DejaVuSans-30" x="1985.058594"/>
     <use xlink:href="#DejaVuSans-30" x="2048.681641"/>
     <use xlink:href="#DejaVuSans-32" x="2112.304688"/>
     <use xlink:href="#DejaVuSans-37" x="2175.927734"/>
     <use xlink:href="#DejaVuSans-38" x="2239.550781"/>
     <use xlink:href="#DejaVuSans-32" x="2303.173828"/>
     <use xlink:href="#DejaVuSans-35" x="2366.796875"/>
     <use xlink:href="#DejaVuSans-35" x="2430.419922"/>
     <use xlink:href="#DejaVuSans-39" x="2494.042969"/>
     <use xlink:href="#DejaVuSans-34" x="2557.666016"/>
     <use xlink:href="#DejaVuSans-30" x="2621.289062"/>
     <use xlink:href="#DejaVuSans-32" x="2684.912109"/>
     <use xlink:href="#DejaVuSans-32" x="2748.535156"/>
     <use xlink:href="#DejaVuSans-30" x="2812.158203"/>
     <use xlink:href="#DejaVuSans-37" x="2875.78125"/>
     <use xlink:href="#DejaVuSans-31" x="2939.404297"/>
     <use xlink:href="#DejaVuSans-32" x="3003.027344"/>
     <use xlink:href="#DejaVuSans-35" x="3066.650391"/>
     <use xlink:href="#DejaVuSans-37" x="3130.273438"/>
    </g>
   </g>
   <g id="legend_1">
    <g id="patch_7">
     <path d="M 293.50625 80.834375 
L 453.825 80.834375 
Q 455.825 80.834375 455.825 78.834375 
L 455.825 35.8 
Q 455.825 33.8 453.825 33.8 
L 293.50625 33.8 
Q 291.50625 33.8 291.50625 35.8 
L 291.50625 78.834375 
Q 291.50625 80.834375 293.50625 80.834375 
z
" style="fill: #ffffff; opacity: 0.8; stroke: #cccccc; stroke-linejoin: miter"/>
    </g>
    <g id="line2d_17">
     <path d="M 295.50625 41.898438 
L 305.50625 41.898438 
L 315.50625 41.898438 
" style="fill: none; stroke: #708090; stroke-width: 1.5; stroke-linecap: square"/>
    </g>
    <g id="text_17">
     <!-- Episodes score -->
     <g transform="translate(323.50625 45.398438)scale(0.1 -0.1)">
      <use xlink:href="#DejaVuSans-45"/>
      <use xlink:href="#DejaVuSans-70" x="63.183594"/>
      <use xlink:href="#DejaVuSans-69" x="126.660156"/>
      <use xlink:href="#DejaVuSans-73" x="154.443359"/>
      <use xlink:href="#DejaVuSans-6f" x="206.542969"/>
      <use xlink:href="#DejaVuSans-64" x="267.724609"/>
      <use xlink:href="#DejaVuSans-65" x="331.201172"/>
      <use xlink:href="#DejaVuSans-73" x="392.724609"/>
      <use xlink:href="#DejaVuSans-20" x="444.824219"/>
      <use xlink:href="#DejaVuSans-73" x="476.611328"/>
      <use xlink:href="#DejaVuSans-63" x="528.710938"/>
      <use xlink:href="#DejaVuSans-6f" x="583.691406"/>
      <use xlink:href="#DejaVuSans-72" x="644.873047"/>
      <use xlink:href="#DejaVuSans-65" x="683.736328"/>
     </g>
    </g>
    <g id="line2d_18">
     <path d="M 295.50625 56.576563 
L 305.50625 56.576563 
L 315.50625 56.576563 
" style="fill: none; stroke: #000080; stroke-width: 1.5; stroke-linecap: square"/>
    </g>
    <g id="text_18">
     <!-- Moving average of scores -->
     <g transform="translate(323.50625 60.076563)scale(0.1 -0.1)">
      <defs>
       <path id="DejaVuSans-4d" d="M 628 4666 
L 1569 4666 
L 2759 1491 
L 3956 4666 
L 4897 4666 
L 4897 0 
L 4281 0 
L 4281 4097 
L 3078 897 
L 2444 897 
L 1241 4097 
L 1241 0 
L 628 0 
L 628 4666 
z
" transform="scale(0.015625)"/>
       <path id="DejaVuSans-76" d="M 191 3500 
L 800 3500 
L 1894 563 
L 2988 3500 
L 3597 3500 
L 2284 0 
L 1503 0 
L 191 3500 
z
" transform="scale(0.015625)"/>
       <path id="DejaVuSans-6e" d="M 3513 2113 
L 3513 0 
L 2938 0 
L 2938 2094 
Q 2938 2591 2744 2837 
Q 2550 3084 2163 3084 
Q 1697 3084 1428 2787 
Q 1159 2491 1159 1978 
L 1159 0 
L 581 0 
L 581 3500 
L 1159 3500 
L 1159 2956 
Q 1366 3272 1645 3428 
Q 1925 3584 2291 3584 
Q 2894 3584 3203 3211 
Q 3513 2838 3513 2113 
z
" transform="scale(0.015625)"/>
       <path id="DejaVuSans-66" d="M 2375 4863 
L 2375 4384 
L 1825 4384 
Q 1516 4384 1395 4259 
Q 1275 4134 1275 3809 
L 1275 3500 
L 2222 3500 
L 2222 3053 
L 1275 3053 
L 1275 0 
L 697 0 
L 697 3053 
L 147 3053 
L 147 3500 
L 697 3500 
L 697 3744 
Q 697 4328 969 4595 
Q 1241 4863 1831 4863 
L 2375 4863 
z
" transform="scale(0.015625)"/>
      </defs>
      <use xlink:href="#DejaVuSans-4d"/>
      <use xlink:href="#DejaVuSans-6f" x="86.279297"/>
      <use xlink:href="#DejaVuSans-76" x="147.460938"/>
      <use xlink:href="#DejaVuSans-69" x="206.640625"/>
      <use xlink:href="#DejaVuSans-6e" x="234.423828"/>
      <use xlink:href="#DejaVuSans-67" x="297.802734"/>
      <use xlink:href="#DejaVuSans-20" x="361.279297"/>
      <use xlink:href="#DejaVuSans-61" x="393.066406"/>
      <use xlink:href="#DejaVuSans-76" x="454.345703"/>
      <use xlink:href="#DejaVuSans-65" x="513.525391"/>
      <use xlink:href="#DejaVuSans-72" x="575.048828"/>
      <use xlink:href="#DejaVuSans-61" x="616.162109"/>
      <use xlink:href="#DejaVuSans-67" x="677.441406"/>
      <use xlink:href="#DejaVuSans-65" x="740.917969"/>
      <use xlink:href="#DejaVuSans-20" x="802.441406"/>
      <use xlink:href="#DejaVuSans-6f" x="834.228516"/>
      <use xlink:href="#DejaVuSans-66" x="895.410156"/>
      <use xlink:href="#DejaVuSans-20" x="930.615234"/>
      <use xlink:href="#DejaVuSans-73" x="962.402344"/>
      <use xlink:href="#DejaVuSans-63" x="1014.501953"/>
      <use xlink:href="#DejaVuSans-6f" x="1069.482422"/>
      <use xlink:href="#DejaVuSans-72" x="1130.664062"/>
      <use xlink:href="#DejaVuSans-65" x="1169.527344"/>
      <use xlink:href="#DejaVuSans-73" x="1231.050781"/>
     </g>
    </g>
    <g id="line2d_19">
     <path d="M 295.50625 71.254687 
L 305.50625 71.254687 
L 315.50625 71.254687 
" style="fill: none; stroke-dasharray: 5.55,2.4; stroke-dashoffset: 0; stroke: #008000; stroke-width: 1.5"/>
    </g>
    <g id="text_19">
     <!-- Game Solved -->
     <g transform="translate(323.50625 74.754687)scale(0.1 -0.1)">
      <defs>
       <path id="DejaVuSans-47" d="M 3809 666 
L 3809 1919 
L 2778 1919 
L 2778 2438 
L 4434 2438 
L 4434 434 
Q 4069 175 3628 42 
Q 3188 -91 2688 -91 
Q 1594 -91 976 548 
Q 359 1188 359 2328 
Q 359 3472 976 4111 
Q 1594 4750 2688 4750 
Q 3144 4750 3555 4637 
Q 3966 4525 4313 4306 
L 4313 3634 
Q 3963 3931 3569 4081 
Q 3175 4231 2741 4231 
Q 1884 4231 1454 3753 
Q 1025 3275 1025 2328 
Q 1025 1384 1454 906 
Q 1884 428 2741 428 
Q 3075 428 3337 486 
Q 3600 544 3809 666 
z
" transform="scale(0.015625)"/>
      </defs>
      <use xlink:href="#DejaVuSans-47"/>
      <use xlink:href="#DejaVuSans-61" x="77.490234"/>
      <use xlink:href="#DejaVuSans-6d" x="138.769531"/>
      <use xlink:href="#DejaVuSans-65" x="236.181641"/>
      <use xlink:href="#DejaVuSans-20" x="297.705078"/>
      <use xlink:href="#DejaVuSans-53" x="329.492188"/>
      <use xlink:href="#DejaVuSans-6f" x="392.96875"/>
      <use xlink:href="#DejaVuSans-6c" x="454.150391"/>
      <use xlink:href="#DejaVuSans-76" x="481.933594"/>
      <use xlink:href="#DejaVuSans-65" x="541.113281"/>
      <use xlink:href="#DejaVuSans-64" x="602.636719"/>
     </g>
    </g>
   </g>
  </g>
  <g id="axes_2">
   <g id="matplotlib.axis_3">
    <g id="ytick_8">
     <g id="line2d_20">
      <defs>
       <path id="m0347b2a704" d="M 0 0 
L 3.5 0 
" style="stroke: #000000; stroke-width: 0.8"/>
      </defs>
      <g>
       <use xlink:href="#m0347b2a704" x="460.825" y="300.356157" style="stroke: #000000; stroke-width: 0.8"/>
      </g>
     </g>
     <g id="text_20">
      <!-- 0 -->
      <g transform="translate(467.825 304.155376)scale(0.1 -0.1)">
       <use xlink:href="#DejaVuSans-30"/>
      </g>
     </g>
    </g>
    <g id="ytick_9">
     <g id="line2d_21">
      <g>
       <use xlink:href="#m0347b2a704" x="460.825" y="248.63038" style="stroke: #000000; stroke-width: 0.8"/>
      </g>
     </g>
     <g id="text_21">
      <!-- 1 -->
      <g transform="translate(467.825 252.429599)scale(0.1 -0.1)">
       <use xlink:href="#DejaVuSans-31"/>
      </g>
     </g>
    </g>
    <g id="ytick_10">
     <g id="line2d_22">
      <g>
       <use xlink:href="#m0347b2a704" x="460.825" y="196.904603" style="stroke: #000000; stroke-width: 0.8"/>
      </g>
     </g>
     <g id="text_22">
      <!-- 2 -->
      <g transform="translate(467.825 200.703822)scale(0.1 -0.1)">
       <use xlink:href="#DejaVuSans-32"/>
      </g>
     </g>
    </g>
    <g id="ytick_11">
     <g id="line2d_23">
      <g>
       <use xlink:href="#m0347b2a704" x="460.825" y="145.178827" style="stroke: #000000; stroke-width: 0.8"/>
      </g>
     </g>
     <g id="text_23">
      <!-- 3 -->
      <g transform="translate(467.825 148.978045)scale(0.1 -0.1)">
       <use xlink:href="#DejaVuSans-33"/>
      </g>
     </g>
    </g>
    <g id="ytick_12">
     <g id="line2d_24">
      <g>
       <use xlink:href="#m0347b2a704" x="460.825" y="93.45305" style="stroke: #000000; stroke-width: 0.8"/>
      </g>
     </g>
     <g id="text_24">
      <!-- 4 -->
      <g transform="translate(467.825 97.252268)scale(0.1 -0.1)">
       <use xlink:href="#DejaVuSans-34"/>
      </g>
     </g>
    </g>
    <g id="ytick_13">
     <g id="line2d_25">
      <g>
       <use xlink:href="#m0347b2a704" x="460.825" y="41.727273" style="stroke: #000000; stroke-width: 0.8"/>
      </g>
     </g>
     <g id="text_25">
      <!-- 5 -->
      <g transform="translate(467.825 45.526491)scale(0.1 -0.1)">
       <use xlink:href="#DejaVuSans-35"/>
      </g>
     </g>
    </g>
    <g id="text_26">
     <!-- Temperature -->
     <g transform="translate(489.585156 218.504297)rotate(-90)scale(0.15 -0.15)">
      <defs>
       <path id="DejaVuSans-54" d="M -19 4666 
L 3928 4666 
L 3928 4134 
L 2272 4134 
L 2272 0 
L 1638 0 
L 1638 4134 
L -19 4134 
L -19 4666 
z
" transform="scale(0.015625)"/>
       <path id="DejaVuSans-74" d="M 1172 4494 
L 1172 3500 
L 2356 3500 
L 2356 3053 
L 1172 3053 
L 1172 1153 
Q 1172 725 1289 603 
Q 1406 481 1766 481 
L 2356 481 
L 2356 0 
L 1766 0 
Q 1100 0 847 248 
Q 594 497 594 1153 
L 594 3053 
L 172 3053 
L 172 3500 
L 594 3500 
L 594 4494 
L 1172 4494 
z
" transform="scale(0.015625)"/>
       <path id="DejaVuSans-75" d="M 544 1381 
L 544 3500 
L 1119 3500 
L 1119 1403 
Q 1119 906 1312 657 
Q 1506 409 1894 409 
Q 2359 409 2629 706 
Q 2900 1003 2900 1516 
L 2900 3500 
L 3475 3500 
L 3475 0 
L 2900 0 
L 2900 538 
Q 2691 219 2414 64 
Q 2138 -91 1772 -91 
Q 1169 -91 856 284 
Q 544 659 544 1381 
z
M 1991 3584 
L 1991 3584 
z
" transform="scale(0.015625)"/>
      </defs>
      <use xlink:href="#DejaVuSans-54"/>
      <use xlink:href="#DejaVuSans-65" x="44.083984"/>
      <use xlink:href="#DejaVuSans-6d" x="105.607422"/>
      <use xlink:href="#DejaVuSans-70" x="203.019531"/>
      <use xlink:href="#DejaVuSans-65" x="266.496094"/>
      <use xlink:href="#DejaVuSans-72" x="328.019531"/>
      <use xlink:href="#DejaVuSans-61" x="369.132812"/>
      <use xlink:href="#DejaVuSans-74" x="430.412109"/>
      <use xlink:href="#DejaVuSans-75" x="469.621094"/>
      <use xlink:href="#DejaVuSans-72" x="533"/>
      <use xlink:href="#DejaVuSans-65" x="571.863281"/>
     </g>
    </g>
   </g>
   <g id="line2d_26">
    <path d="M 74.329545 41.727273 
L 77.64568 59.796179 
L 80.961814 76.602714 
L 84.277948 92.235075 
L 87.594083 106.775292 
L 90.910217 120.299669 
L 94.226351 132.879175 
L 97.542486 144.579825 
L 100.85862 155.463017 
L 104.174754 165.585863 
L 107.490889 175.001485 
L 110.807023 183.759292 
L 114.123157 191.905241 
L 117.439292 199.48208 
L 120.755426 206.529569 
L 124.07156 213.084691 
L 127.387695 219.181844 
L 130.703829 224.853024 
L 134.019963 230.127992 
L 137.704557 235.557975 
L 141.389151 240.568116 
L 145.073744 245.190878 
L 148.758338 249.456211 
L 152.442932 253.391752 
L 156.127525 257.023001 
L 160.180578 260.693942 
L 164.233631 264.053901 
L 168.286684 267.129223 
L 172.339737 269.944021 
L 176.76125 272.743467 
L 181.182762 275.285223 
L 185.972734 277.775454 
L 190.762706 280.018336 
L 195.921137 282.185254 
L 201.448028 284.251415 
L 206.974918 286.082639 
L 212.870268 287.807033 
L 219.134077 289.41153 
L 225.766346 290.887385 
L 233.135533 292.295013 
L 240.87318 293.548388 
L 249.347745 294.698674 
L 258.927689 295.766744 
L 269.613011 296.721977 
L 281.403711 297.547031 
L 295.036707 298.270409 
L 310.88046 298.880507 
L 330.040347 299.385086 
L 353.990206 299.780603 
L 385.677712 300.068067 
L 432.840511 300.253311 
L 442.420455 300.272727 
L 442.420455 300.272727 
" clip-path="url(#pdbf139c1ee)" style="fill: none; stroke: #ff0000; stroke-width: 1.5; stroke-linecap: square"/>
   </g>
   <g id="patch_8">
    <path d="M 55.925 313.2 
L 55.925 28.8 
" style="fill: none; stroke: #000000; stroke-width: 0.8; stroke-linejoin: miter; stroke-linecap: square"/>
   </g>
   <g id="patch_9">
    <path d="M 460.825 313.2 
L 460.825 28.8 
" style="fill: none; stroke: #000000; stroke-width: 0.8; stroke-linejoin: miter; stroke-linecap: square"/>
   </g>
   <g id="patch_10">
    <path d="M 55.925 313.2 
L 460.825 313.2 
" style="fill: none; stroke: #000000; stroke-width: 0.8; stroke-linejoin: miter; stroke-linecap: square"/>
   </g>
   <g id="patch_11">
    <path d="M 55.925 28.8 
L 460.825 28.8 
" style="fill: none; stroke: #000000; stroke-width: 0.8; stroke-linejoin: miter; stroke-linecap: square"/>
   </g>
   <g id="legend_2">
    <g id="patch_12">
     <path d="M 62.925 51.478125 
L 158.264063 51.478125 
Q 160.264063 51.478125 160.264063 49.478125 
L 160.264063 35.8 
Q 160.264063 33.8 158.264063 33.8 
L 62.925 33.8 
Q 60.925 33.8 60.925 35.8 
L 60.925 49.478125 
Q 60.925 51.478125 62.925 51.478125 
z
" style="fill: #ffffff; opacity: 0.8; stroke: #cccccc; stroke-linejoin: miter"/>
    </g>
    <g id="line2d_27">
     <path d="M 64.925 41.898438 
L 74.925 41.898438 
L 84.925 41.898438 
" style="fill: none; stroke: #ff0000; stroke-width: 1.5; stroke-linecap: square"/>
    </g>
    <g id="text_27">
     <!-- Temperature -->
     <g transform="translate(92.925 45.398438)scale(0.1 -0.1)">
      <use xlink:href="#DejaVuSans-54"/>
      <use xlink:href="#DejaVuSans-65" x="44.083984"/>
      <use xlink:href="#DejaVuSans-6d" x="105.607422"/>
      <use xlink:href="#DejaVuSans-70" x="203.019531"/>
      <use xlink:href="#DejaVuSans-65" x="266.496094"/>
      <use xlink:href="#DejaVuSans-72" x="328.019531"/>
      <use xlink:href="#DejaVuSans-61" x="369.132812"/>
      <use xlink:href="#DejaVuSans-74" x="430.412109"/>
      <use xlink:href="#DejaVuSans-75" x="469.621094"/>
      <use xlink:href="#DejaVuSans-72" x="533"/>
      <use xlink:href="#DejaVuSans-65" x="571.863281"/>
     </g>
    </g>
   </g>
  </g>
 </g>
 <defs>
  <clipPath id="pdbf139c1ee">
   <rect x="55.925" y="28.8" width="404.9" height="284.4"/>
  </clipPath>
 </defs>
</svg>
