<?xml version="1.0" encoding="utf-8" standalone="no"?>
<!DOCTYPE svg PUBLIC "-//W3C//DTD SVG 1.1//EN"
  "http://www.w3.org/Graphics/SVG/1.1/DTD/svg11.dtd">
<svg xmlns:xlink="http://www.w3.org/1999/xlink" width="504pt" height="360pt" viewBox="0 0 504 360" xmlns="http://www.w3.org/2000/svg" version="1.1">
 <metadata>
  <rdf:RDF xmlns:dc="http://purl.org/dc/elements/1.1/" xmlns:cc="http://creativecommons.org/ns#" xmlns:rdf="http://www.w3.org/1999/02/22-rdf-syntax-ns#">
   <cc:Work>
    <dc:type rdf:resource="http://purl.org/dc/dcmitype/StillImage"/>
    <dc:date>2022-07-28T20:50:43.881998</dc:date>
    <dc:format>image/svg+xml</dc:format>
    <dc:creator>
     <cc:Agent>
      <dc:title>Matplotlib v3.5.1, https://matplotlib.org/</dc:title>
     </cc:Agent>
    </dc:creator>
   </cc:Work>
  </rdf:RDF>
 </metadata>
 <defs>
  <style type="text/css">*{stroke-linejoin: round; stroke-linecap: butt}</style>
 </defs>
 <g id="figure_1">
  <g id="patch_1">
   <path d="M 0 360 
L 504 360 
L 504 0 
L 0 0 
L 0 360 
z
" style="fill: none"/>
  </g>
  <g id="axes_1">
   <g id="patch_2">
    <path d="M 55.925 313.2 
L 460.825 313.2 
L 460.825 28.8 
L 55.925 28.8 
z
" style="fill: #ffffff"/>
   </g>
   <g id="matplotlib.axis_1">
    <g id="xtick_1">
     <g id="line2d_1">
      <defs>
       <path id="mee606cd4cd" d="M 0 0 
L 0 3.5 
" style="stroke: #000000; stroke-width: 0.8"/>
      </defs>
      <g>
       <use xlink:href="#mee606cd4cd" x="74.329545" y="313.2" style="stroke: #000000; stroke-width: 0.8"/>
      </g>
     </g>
     <g id="text_1">
      <!-- 0 -->
      <g transform="translate(71.148295 327.798437)scale(0.1 -0.1)">
       <defs>
        <path id="DejaVuSans-30" d="M 2034 4250 
Q 1547 4250 1301 3770 
Q 1056 3291 1056 2328 
Q 1056 1369 1301 889 
Q 1547 409 2034 409 
Q 2525 409 2770 889 
Q 3016 1369 3016 2328 
Q 3016 3291 2770 3770 
Q 2525 4250 2034 4250 
z
M 2034 4750 
Q 2819 4750 3233 4129 
Q 3647 3509 3647 2328 
Q 3647 1150 3233 529 
Q 2819 -91 2034 -91 
Q 1250 -91 836 529 
Q 422 1150 422 2328 
Q 422 3509 836 4129 
Q 1250 4750 2034 4750 
z
" transform="scale(0.015625)"/>
       </defs>
       <use xlink:href="#DejaVuSans-30"/>
      </g>
     </g>
    </g>
    <g id="xtick_2">
     <g id="line2d_2">
      <g>
       <use xlink:href="#mee606cd4cd" x="148.021419" y="313.2" style="stroke: #000000; stroke-width: 0.8"/>
      </g>
     </g>
     <g id="text_2">
      <!-- 200 -->
      <g transform="translate(138.477669 327.798437)scale(0.1 -0.1)">
       <defs>
        <path id="DejaVuSans-32" d="M 1228 531 
L 3431 531 
L 3431 0 
L 469 0 
L 469 531 
Q 828 903 1448 1529 
Q 2069 2156 2228 2338 
Q 2531 2678 2651 2914 
Q 2772 3150 2772 3378 
Q 2772 3750 2511 3984 
Q 2250 4219 1831 4219 
Q 1534 4219 1204 4116 
Q 875 4013 500 3803 
L 500 4441 
Q 881 4594 1212 4672 
Q 1544 4750 1819 4750 
Q 2544 4750 2975 4387 
Q 3406 4025 3406 3419 
Q 3406 3131 3298 2873 
Q 3191 2616 2906 2266 
Q 2828 2175 2409 1742 
Q 1991 1309 1228 531 
z
" transform="scale(0.015625)"/>
       </defs>
       <use xlink:href="#DejaVuSans-32"/>
       <use xlink:href="#DejaVuSans-30" x="63.623047"/>
       <use xlink:href="#DejaVuSans-30" x="127.246094"/>
      </g>
     </g>
    </g>
    <g id="xtick_3">
     <g id="line2d_3">
      <g>
       <use xlink:href="#mee606cd4cd" x="221.713293" y="313.2" style="stroke: #000000; stroke-width: 0.8"/>
      </g>
     </g>
     <g id="text_3">
      <!-- 400 -->
      <g transform="translate(212.169543 327.798437)scale(0.1 -0.1)">
       <defs>
        <path id="DejaVuSans-34" d="M 2419 4116 
L 825 1625 
L 2419 1625 
L 2419 4116 
z
M 2253 4666 
L 3047 4666 
L 3047 1625 
L 3713 1625 
L 3713 1100 
L 3047 1100 
L 3047 0 
L 2419 0 
L 2419 1100 
L 313 1100 
L 313 1709 
L 2253 4666 
z
" transform="scale(0.015625)"/>
       </defs>
       <use xlink:href="#DejaVuSans-34"/>
       <use xlink:href="#DejaVuSans-30" x="63.623047"/>
       <use xlink:href="#DejaVuSans-30" x="127.246094"/>
      </g>
     </g>
    </g>
    <g id="xtick_4">
     <g id="line2d_4">
      <g>
       <use xlink:href="#mee606cd4cd" x="295.405167" y="313.2" style="stroke: #000000; stroke-width: 0.8"/>
      </g>
     </g>
     <g id="text_4">
      <!-- 600 -->
      <g transform="translate(285.861417 327.798437)scale(0.1 -0.1)">
       <defs>
        <path id="DejaVuSans-36" d="M 2113 2584 
Q 1688 2584 1439 2293 
Q 1191 2003 1191 1497 
Q 1191 994 1439 701 
Q 1688 409 2113 409 
Q 2538 409 2786 701 
Q 3034 994 3034 1497 
Q 3034 2003 2786 2293 
Q 2538 2584 2113 2584 
z
M 3366 4563 
L 3366 3988 
Q 3128 4100 2886 4159 
Q 2644 4219 2406 4219 
Q 1781 4219 1451 3797 
Q 1122 3375 1075 2522 
Q 1259 2794 1537 2939 
Q 1816 3084 2150 3084 
Q 2853 3084 3261 2657 
Q 3669 2231 3669 1497 
Q 3669 778 3244 343 
Q 2819 -91 2113 -91 
Q 1303 -91 875 529 
Q 447 1150 447 2328 
Q 447 3434 972 4092 
Q 1497 4750 2381 4750 
Q 2619 4750 2861 4703 
Q 3103 4656 3366 4563 
z
" transform="scale(0.015625)"/>
       </defs>
       <use xlink:href="#DejaVuSans-36"/>
       <use xlink:href="#DejaVuSans-30" x="63.623047"/>
       <use xlink:href="#DejaVuSans-30" x="127.246094"/>
      </g>
     </g>
    </g>
    <g id="xtick_5">
     <g id="line2d_5">
      <g>
       <use xlink:href="#mee606cd4cd" x="369.09704" y="313.2" style="stroke: #000000; stroke-width: 0.8"/>
      </g>
     </g>
     <g id="text_5">
      <!-- 800 -->
      <g transform="translate(359.55329 327.798437)scale(0.1 -0.1)">
       <defs>
        <path id="DejaVuSans-38" d="M 2034 2216 
Q 1584 2216 1326 1975 
Q 1069 1734 1069 1313 
Q 1069 891 1326 650 
Q 1584 409 2034 409 
Q 2484 409 2743 651 
Q 3003 894 3003 1313 
Q 3003 1734 2745 1975 
Q 2488 2216 2034 2216 
z
M 1403 2484 
Q 997 2584 770 2862 
Q 544 3141 544 3541 
Q 544 4100 942 4425 
Q 1341 4750 2034 4750 
Q 2731 4750 3128 4425 
Q 3525 4100 3525 3541 
Q 3525 3141 3298 2862 
Q 3072 2584 2669 2484 
Q 3125 2378 3379 2068 
Q 3634 1759 3634 1313 
Q 3634 634 3220 271 
Q 2806 -91 2034 -91 
Q 1263 -91 848 271 
Q 434 634 434 1313 
Q 434 1759 690 2068 
Q 947 2378 1403 2484 
z
M 1172 3481 
Q 1172 3119 1398 2916 
Q 1625 2713 2034 2713 
Q 2441 2713 2670 2916 
Q 2900 3119 2900 3481 
Q 2900 3844 2670 4047 
Q 2441 4250 2034 4250 
Q 1625 4250 1398 4047 
Q 1172 3844 1172 3481 
z
" transform="scale(0.015625)"/>
       </defs>
       <use xlink:href="#DejaVuSans-38"/>
       <use xlink:href="#DejaVuSans-30" x="63.623047"/>
       <use xlink:href="#DejaVuSans-30" x="127.246094"/>
      </g>
     </g>
    </g>
    <g id="xtick_6">
     <g id="line2d_6">
      <g>
       <use xlink:href="#mee606cd4cd" x="442.788914" y="313.2" style="stroke: #000000; stroke-width: 0.8"/>
      </g>
     </g>
     <g id="text_6">
      <!-- 1000 -->
      <g transform="translate(430.063914 327.798437)scale(0.1 -0.1)">
       <defs>
        <path id="DejaVuSans-31" d="M 794 531 
L 1825 531 
L 1825 4091 
L 703 3866 
L 703 4441 
L 1819 4666 
L 2450 4666 
L 2450 531 
L 3481 531 
L 3481 0 
L 794 0 
L 794 531 
z
" transform="scale(0.015625)"/>
       </defs>
       <use xlink:href="#DejaVuSans-31"/>
       <use xlink:href="#DejaVuSans-30" x="63.623047"/>
       <use xlink:href="#DejaVuSans-30" x="127.246094"/>
       <use xlink:href="#DejaVuSans-30" x="190.869141"/>
      </g>
     </g>
    </g>
    <g id="text_7">
     <!-- Episode -->
     <g transform="translate(228.91875 345.275781)scale(0.15 -0.15)">
      <defs>
       <path id="DejaVuSans-45" d="M 628 4666 
L 3578 4666 
L 3578 4134 
L 1259 4134 
L 1259 2753 
L 3481 2753 
L 3481 2222 
L 1259 2222 
L 1259 531 
L 3634 531 
L 3634 0 
L 628 0 
L 628 4666 
z
" transform="scale(0.015625)"/>
       <path id="DejaVuSans-70" d="M 1159 525 
L 1159 -1331 
L 581 -1331 
L 581 3500 
L 1159 3500 
L 1159 2969 
Q 1341 3281 1617 3432 
Q 1894 3584 2278 3584 
Q 2916 3584 3314 3078 
Q 3713 2572 3713 1747 
Q 3713 922 3314 415 
Q 2916 -91 2278 -91 
Q 1894 -91 1617 61 
Q 1341 213 1159 525 
z
M 3116 1747 
Q 3116 2381 2855 2742 
Q 2594 3103 2138 3103 
Q 1681 3103 1420 2742 
Q 1159 2381 1159 1747 
Q 1159 1113 1420 752 
Q 1681 391 2138 391 
Q 2594 391 2855 752 
Q 3116 1113 3116 1747 
z
" transform="scale(0.015625)"/>
       <path id="DejaVuSans-69" d="M 603 3500 
L 1178 3500 
L 1178 0 
L 603 0 
L 603 3500 
z
M 603 4863 
L 1178 4863 
L 1178 4134 
L 603 4134 
L 603 4863 
z
" transform="scale(0.015625)"/>
       <path id="DejaVuSans-73" d="M 2834 3397 
L 2834 2853 
Q 2591 2978 2328 3040 
Q 2066 3103 1784 3103 
Q 1356 3103 1142 2972 
Q 928 2841 928 2578 
Q 928 2378 1081 2264 
Q 1234 2150 1697 2047 
L 1894 2003 
Q 2506 1872 2764 1633 
Q 3022 1394 3022 966 
Q 3022 478 2636 193 
Q 2250 -91 1575 -91 
Q 1294 -91 989 -36 
Q 684 19 347 128 
L 347 722 
Q 666 556 975 473 
Q 1284 391 1588 391 
Q 1994 391 2212 530 
Q 2431 669 2431 922 
Q 2431 1156 2273 1281 
Q 2116 1406 1581 1522 
L 1381 1569 
Q 847 1681 609 1914 
Q 372 2147 372 2553 
Q 372 3047 722 3315 
Q 1072 3584 1716 3584 
Q 2034 3584 2315 3537 
Q 2597 3491 2834 3397 
z
" transform="scale(0.015625)"/>
       <path id="DejaVuSans-6f" d="M 1959 3097 
Q 1497 3097 1228 2736 
Q 959 2375 959 1747 
Q 959 1119 1226 758 
Q 1494 397 1959 397 
Q 2419 397 2687 759 
Q 2956 1122 2956 1747 
Q 2956 2369 2687 2733 
Q 2419 3097 1959 3097 
z
M 1959 3584 
Q 2709 3584 3137 3096 
Q 3566 2609 3566 1747 
Q 3566 888 3137 398 
Q 2709 -91 1959 -91 
Q 1206 -91 779 398 
Q 353 888 353 1747 
Q 353 2609 779 3096 
Q 1206 3584 1959 3584 
z
" transform="scale(0.015625)"/>
       <path id="DejaVuSans-64" d="M 2906 2969 
L 2906 4863 
L 3481 4863 
L 3481 0 
L 2906 0 
L 2906 525 
Q 2725 213 2448 61 
Q 2172 -91 1784 -91 
Q 1150 -91 751 415 
Q 353 922 353 1747 
Q 353 2572 751 3078 
Q 1150 3584 1784 3584 
Q 2172 3584 2448 3432 
Q 2725 3281 2906 2969 
z
M 947 1747 
Q 947 1113 1208 752 
Q 1469 391 1925 391 
Q 2381 391 2643 752 
Q 2906 1113 2906 1747 
Q 2906 2381 2643 2742 
Q 2381 3103 1925 3103 
Q 1469 3103 1208 2742 
Q 947 2381 947 1747 
z
" transform="scale(0.015625)"/>
       <path id="DejaVuSans-65" d="M 3597 1894 
L 3597 1613 
L 953 1613 
Q 991 1019 1311 708 
Q 1631 397 2203 397 
Q 2534 397 2845 478 
Q 3156 559 3463 722 
L 3463 178 
Q 3153 47 2828 -22 
Q 2503 -91 2169 -91 
Q 1331 -91 842 396 
Q 353 884 353 1716 
Q 353 2575 817 3079 
Q 1281 3584 2069 3584 
Q 2775 3584 3186 3129 
Q 3597 2675 3597 1894 
z
M 3022 2063 
Q 3016 2534 2758 2815 
Q 2500 3097 2075 3097 
Q 1594 3097 1305 2825 
Q 1016 2553 972 2059 
L 3022 2063 
z
" transform="scale(0.015625)"/>
      </defs>
      <use xlink:href="#DejaVuSans-45"/>
      <use xlink:href="#DejaVuSans-70" x="63.183594"/>
      <use xlink:href="#DejaVuSans-69" x="126.660156"/>
      <use xlink:href="#DejaVuSans-73" x="154.443359"/>
      <use xlink:href="#DejaVuSans-6f" x="206.542969"/>
      <use xlink:href="#DejaVuSans-64" x="267.724609"/>
      <use xlink:href="#DejaVuSans-65" x="331.201172"/>
     </g>
    </g>
   </g>
   <g id="matplotlib.axis_2">
    <g id="ytick_1">
     <g id="line2d_7">
      <defs>
       <path id="md1b7e06626" d="M 0 0 
L -3.5 0 
" style="stroke: #000000; stroke-width: 0.8"/>
      </defs>
      <g>
       <use xlink:href="#md1b7e06626" x="55.925" y="313.2" style="stroke: #000000; stroke-width: 0.8"/>
      </g>
     </g>
     <g id="text_8">
      <!-- 0 -->
      <g transform="translate(42.5625 316.999219)scale(0.1 -0.1)">
       <use xlink:href="#DejaVuSans-30"/>
      </g>
     </g>
    </g>
    <g id="ytick_2">
     <g id="line2d_8">
      <g>
       <use xlink:href="#md1b7e06626" x="55.925" y="269.446154" style="stroke: #000000; stroke-width: 0.8"/>
      </g>
     </g>
     <g id="text_9">
      <!-- 100 -->
      <g transform="translate(29.8375 273.245373)scale(0.1 -0.1)">
       <use xlink:href="#DejaVuSans-31"/>
       <use xlink:href="#DejaVuSans-30" x="63.623047"/>
       <use xlink:href="#DejaVuSans-30" x="127.246094"/>
      </g>
     </g>
    </g>
    <g id="ytick_3">
     <g id="line2d_9">
      <g>
       <use xlink:href="#md1b7e06626" x="55.925" y="225.692308" style="stroke: #000000; stroke-width: 0.8"/>
      </g>
     </g>
     <g id="text_10">
      <!-- 200 -->
      <g transform="translate(29.8375 229.491526)scale(0.1 -0.1)">
       <use xlink:href="#DejaVuSans-32"/>
       <use xlink:href="#DejaVuSans-30" x="63.623047"/>
       <use xlink:href="#DejaVuSans-30" x="127.246094"/>
      </g>
     </g>
    </g>
    <g id="ytick_4">
     <g id="line2d_10">
      <g>
       <use xlink:href="#md1b7e06626" x="55.925" y="181.938462" style="stroke: #000000; stroke-width: 0.8"/>
      </g>
     </g>
     <g id="text_11">
      <!-- 300 -->
      <g transform="translate(29.8375 185.73768)scale(0.1 -0.1)">
       <defs>
        <path id="DejaVuSans-33" d="M 2597 2516 
Q 3050 2419 3304 2112 
Q 3559 1806 3559 1356 
Q 3559 666 3084 287 
Q 2609 -91 1734 -91 
Q 1441 -91 1130 -33 
Q 819 25 488 141 
L 488 750 
Q 750 597 1062 519 
Q 1375 441 1716 441 
Q 2309 441 2620 675 
Q 2931 909 2931 1356 
Q 2931 1769 2642 2001 
Q 2353 2234 1838 2234 
L 1294 2234 
L 1294 2753 
L 1863 2753 
Q 2328 2753 2575 2939 
Q 2822 3125 2822 3475 
Q 2822 3834 2567 4026 
Q 2313 4219 1838 4219 
Q 1578 4219 1281 4162 
Q 984 4106 628 3988 
L 628 4550 
Q 988 4650 1302 4700 
Q 1616 4750 1894 4750 
Q 2613 4750 3031 4423 
Q 3450 4097 3450 3541 
Q 3450 3153 3228 2886 
Q 3006 2619 2597 2516 
z
" transform="scale(0.015625)"/>
       </defs>
       <use xlink:href="#DejaVuSans-33"/>
       <use xlink:href="#DejaVuSans-30" x="63.623047"/>
       <use xlink:href="#DejaVuSans-30" x="127.246094"/>
      </g>
     </g>
    </g>
    <g id="ytick_5">
     <g id="line2d_11">
      <g>
       <use xlink:href="#md1b7e06626" x="55.925" y="138.184615" style="stroke: #000000; stroke-width: 0.8"/>
      </g>
     </g>
     <g id="text_12">
      <!-- 400 -->
      <g transform="translate(29.8375 141.983834)scale(0.1 -0.1)">
       <use xlink:href="#DejaVuSans-34"/>
       <use xlink:href="#DejaVuSans-30" x="63.623047"/>
       <use xlink:href="#DejaVuSans-30" x="127.246094"/>
      </g>
     </g>
    </g>
    <g id="ytick_6">
     <g id="line2d_12">
      <g>
       <use xlink:href="#md1b7e06626" x="55.925" y="94.430769" style="stroke: #000000; stroke-width: 0.8"/>
      </g>
     </g>
     <g id="text_13">
      <!-- 500 -->
      <g transform="translate(29.8375 98.229988)scale(0.1 -0.1)">
       <defs>
        <path id="DejaVuSans-35" d="M 691 4666 
L 3169 4666 
L 3169 4134 
L 1269 4134 
L 1269 2991 
Q 1406 3038 1543 3061 
Q 1681 3084 1819 3084 
Q 2600 3084 3056 2656 
Q 3513 2228 3513 1497 
Q 3513 744 3044 326 
Q 2575 -91 1722 -91 
Q 1428 -91 1123 -41 
Q 819 9 494 109 
L 494 744 
Q 775 591 1075 516 
Q 1375 441 1709 441 
Q 2250 441 2565 725 
Q 2881 1009 2881 1497 
Q 2881 1984 2565 2268 
Q 2250 2553 1709 2553 
Q 1456 2553 1204 2497 
Q 953 2441 691 2322 
L 691 4666 
z
" transform="scale(0.015625)"/>
       </defs>
       <use xlink:href="#DejaVuSans-35"/>
       <use xlink:href="#DejaVuSans-30" x="63.623047"/>
       <use xlink:href="#DejaVuSans-30" x="127.246094"/>
      </g>
     </g>
    </g>
    <g id="ytick_7">
     <g id="line2d_13">
      <g>
       <use xlink:href="#md1b7e06626" x="55.925" y="50.676923" style="stroke: #000000; stroke-width: 0.8"/>
      </g>
     </g>
     <g id="text_14">
      <!-- 600 -->
      <g transform="translate(29.8375 54.476142)scale(0.1 -0.1)">
       <use xlink:href="#DejaVuSans-36"/>
       <use xlink:href="#DejaVuSans-30" x="63.623047"/>
       <use xlink:href="#DejaVuSans-30" x="127.246094"/>
      </g>
     </g>
    </g>
    <g id="text_15">
     <!-- Score -->
     <g transform="translate(22.717969 192.003516)rotate(-90)scale(0.15 -0.15)">
      <defs>
       <path id="DejaVuSans-53" d="M 3425 4513 
L 3425 3897 
Q 3066 4069 2747 4153 
Q 2428 4238 2131 4238 
Q 1616 4238 1336 4038 
Q 1056 3838 1056 3469 
Q 1056 3159 1242 3001 
Q 1428 2844 1947 2747 
L 2328 2669 
Q 3034 2534 3370 2195 
Q 3706 1856 3706 1288 
Q 3706 609 3251 259 
Q 2797 -91 1919 -91 
Q 1588 -91 1214 -16 
Q 841 59 441 206 
L 441 856 
Q 825 641 1194 531 
Q 1563 422 1919 422 
Q 2459 422 2753 634 
Q 3047 847 3047 1241 
Q 3047 1584 2836 1778 
Q 2625 1972 2144 2069 
L 1759 2144 
Q 1053 2284 737 2584 
Q 422 2884 422 3419 
Q 422 4038 858 4394 
Q 1294 4750 2059 4750 
Q 2388 4750 2728 4690 
Q 3069 4631 3425 4513 
z
" transform="scale(0.015625)"/>
       <path id="DejaVuSans-63" d="M 3122 3366 
L 3122 2828 
Q 2878 2963 2633 3030 
Q 2388 3097 2138 3097 
Q 1578 3097 1268 2742 
Q 959 2388 959 1747 
Q 959 1106 1268 751 
Q 1578 397 2138 397 
Q 2388 397 2633 464 
Q 2878 531 3122 666 
L 3122 134 
Q 2881 22 2623 -34 
Q 2366 -91 2075 -91 
Q 1284 -91 818 406 
Q 353 903 353 1747 
Q 353 2603 823 3093 
Q 1294 3584 2113 3584 
Q 2378 3584 2631 3529 
Q 2884 3475 3122 3366 
z
" transform="scale(0.015625)"/>
       <path id="DejaVuSans-72" d="M 2631 2963 
Q 2534 3019 2420 3045 
Q 2306 3072 2169 3072 
Q 1681 3072 1420 2755 
Q 1159 2438 1159 1844 
L 1159 0 
L 581 0 
L 581 3500 
L 1159 3500 
L 1159 2956 
Q 1341 3275 1631 3429 
Q 1922 3584 2338 3584 
Q 2397 3584 2469 3576 
Q 2541 3569 2628 3553 
L 2631 2963 
z
" transform="scale(0.015625)"/>
      </defs>
      <use xlink:href="#DejaVuSans-53"/>
      <use xlink:href="#DejaVuSans-63" x="63.476562"/>
      <use xlink:href="#DejaVuSans-6f" x="118.457031"/>
      <use xlink:href="#DejaVuSans-72" x="179.638672"/>
      <use xlink:href="#DejaVuSans-65" x="218.501953"/>
     </g>
    </g>
   </g>
   <g id="line2d_14">
    <path d="M 74.329545 300.073846 
L 74.698005 307.949538 
L 75.066464 305.761846 
L 75.434924 305.324308 
L 75.803383 306.199385 
L 76.171842 308.387077 
L 76.540302 305.324308 
L 76.908761 305.761846 
L 77.27722 307.949538 
L 77.64568 304.449231 
L 78.014139 303.574154 
L 78.382599 303.574154 
L 78.751058 300.948923 
L 79.119517 299.636308 
L 79.487977 304.449231 
L 79.856436 298.761231 
L 80.224895 298.323692 
L 80.593355 290.010462 
L 80.961814 306.636923 
L 81.330273 304.449231 
L 81.698733 308.824615 
L 82.067192 304.886769 
L 82.435652 295.698462 
L 82.804111 307.512 
L 83.17257 299.636308 
L 83.54103 304.011692 
L 83.909489 294.385846 
L 84.277948 308.387077 
L 84.646408 306.199385 
L 85.014867 307.512 
L 85.383327 297.011077 
L 85.751786 307.949538 
L 86.120245 308.824615 
L 86.488705 294.823385 
L 86.857164 293.073231 
L 87.225623 305.761846 
L 87.594083 307.074462 
L 87.962542 307.074462 
L 88.331001 299.198769 
L 88.699461 307.949538 
L 89.06792 307.074462 
L 89.43638 308.387077 
L 89.804839 304.886769 
L 90.173298 298.761231 
L 90.541758 304.011692 
L 90.910217 297.448615 
L 91.278676 306.636923 
L 91.647136 307.949538 
L 92.384055 295.698462 
L 92.752514 304.449231 
L 93.120973 301.824 
L 93.489433 309.262154 
L 93.857892 306.636923 
L 94.226351 302.261538 
L 94.594811 304.011692 
L 94.96327 304.886769 
L 95.331729 307.512 
L 95.700189 306.636923 
L 96.068648 304.886769 
L 96.437108 300.948923 
L 96.805567 293.510769 
L 97.174026 307.512 
L 97.542486 305.324308 
L 97.910945 298.761231 
L 98.279404 299.636308 
L 98.647864 302.699077 
L 99.016323 296.573538 
L 99.384783 307.512 
L 99.753242 307.074462 
L 100.121701 305.761846 
L 100.490161 306.636923 
L 100.85862 283.447385 
L 101.227079 308.824615 
L 101.595539 308.387077 
L 101.963998 302.261538 
L 102.332457 306.199385 
L 102.700917 308.387077 
L 103.069376 305.761846 
L 103.437836 307.074462 
L 103.806295 302.699077 
L 104.174754 305.761846 
L 104.543214 304.011692 
L 104.911673 304.011692 
L 105.280132 294.823385 
L 105.648592 304.449231 
L 106.017051 298.323692 
L 106.385511 305.761846 
L 106.75397 307.512 
L 107.122429 306.199385 
L 107.490889 306.636923 
L 107.859348 274.696615 
L 108.227807 284.76 
L 108.596267 307.074462 
L 108.964726 308.824615 
L 109.333185 305.761846 
L 109.701645 304.449231 
L 110.070104 300.511385 
L 110.438564 300.073846 
L 110.807023 304.011692 
L 111.175482 306.199385 
L 111.543942 277.321846 
L 111.912401 308.387077 
L 112.28086 305.324308 
L 112.64932 307.512 
L 113.017779 302.261538 
L 113.386239 306.636923 
L 113.754698 296.136 
L 114.123157 295.698462 
L 114.491617 307.074462 
L 114.860076 305.761846 
L 115.228535 297.011077 
L 115.596995 303.136615 
L 115.965454 306.199385 
L 116.333913 286.072615 
L 116.702373 303.136615 
L 117.070832 301.386462 
L 117.807751 288.260308 
L 118.17621 305.324308 
L 118.54467 264.633231 
L 118.913129 304.011692 
L 119.281588 299.636308 
L 120.018507 308.387077 
L 120.386967 300.511385 
L 120.755426 304.011692 
L 121.123885 297.448615 
L 121.492345 283.447385 
L 121.860804 301.824 
L 122.229263 307.512 
L 122.597723 305.761846 
L 122.966182 307.949538 
L 123.334641 300.511385 
L 123.703101 290.448 
L 124.07156 306.636923 
L 124.44002 306.636923 
L 124.808479 285.635077 
L 125.176938 305.324308 
L 125.545398 304.449231 
L 125.913857 294.385846 
L 126.282316 304.449231 
L 126.650776 309.262154 
L 127.019235 292.198154 
L 127.387695 306.199385 
L 127.756154 302.261538 
L 128.493073 307.949538 
L 128.861532 300.073846 
L 129.229991 300.511385 
L 129.598451 304.886769 
L 129.96691 306.636923 
L 130.335369 306.199385 
L 130.703829 306.636923 
L 131.072288 304.011692 
L 131.440748 306.199385 
L 131.809207 303.574154 
L 132.177666 306.636923 
L 132.914585 269.446154 
L 133.283044 299.636308 
L 133.651504 304.886769 
L 134.019963 306.199385 
L 134.756882 296.573538 
L 135.125341 304.011692 
L 135.493801 307.949538 
L 135.86226 308.824615 
L 136.230719 306.636923 
L 136.967638 305.761846 
L 137.336097 305.761846 
L 137.704557 296.573538 
L 138.441476 307.512 
L 138.809935 303.136615 
L 139.178394 306.199385 
L 139.546854 296.573538 
L 139.915313 297.448615 
L 140.283772 295.260923 
L 140.652232 279.072 
L 141.020691 303.574154 
L 141.389151 293.073231 
L 141.75761 307.949538 
L 142.126069 306.636923 
L 142.494529 306.636923 
L 142.862988 304.011692 
L 143.599907 302.261538 
L 143.968366 293.073231 
L 144.336825 307.949538 
L 144.705285 298.761231 
L 145.073744 297.448615 
L 145.442204 306.199385 
L 145.810663 305.761846 
L 146.547582 305.761846 
L 146.916041 305.324308 
L 147.2845 306.199385 
L 147.65296 306.636923 
L 148.021419 304.886769 
L 148.389879 307.074462 
L 148.758338 307.512 
L 149.126797 302.261538 
L 149.495257 307.074462 
L 149.863716 305.761846 
L 150.232175 299.636308 
L 150.600635 307.949538 
L 150.969094 300.511385 
L 151.337553 301.386462 
L 151.706013 286.947692 
L 152.074472 309.262154 
L 152.442932 306.199385 
L 152.811391 294.385846 
L 153.17985 297.886154 
L 153.54831 306.199385 
L 153.916769 294.385846 
L 154.285228 300.948923 
L 154.653688 299.198769 
L 155.022147 288.260308 
L 155.390607 283.009846 
L 155.759066 309.262154 
L 156.127525 286.947692 
L 156.495985 300.073846 
L 156.864444 281.259692 
L 157.232903 303.574154 
L 157.601363 294.385846 
L 157.969822 305.761846 
L 158.338281 280.384615 
L 158.706741 300.511385 
L 159.0752 306.636923 
L 159.44366 306.199385 
L 159.812119 296.573538 
L 160.180578 304.886769 
L 160.549038 285.197538 
L 160.917497 294.385846 
L 161.285956 275.134154 
L 161.654416 297.011077 
L 162.022875 303.136615 
L 162.391335 305.324308 
L 162.759794 301.824 
L 163.128253 289.572923 
L 163.496713 294.385846 
L 163.865172 297.448615 
L 164.233631 304.886769 
L 164.97055 298.761231 
L 165.339009 269.446154 
L 165.707469 261.132923 
L 166.075928 307.949538 
L 166.444388 291.760615 
L 166.812847 303.136615 
L 167.549766 282.134769 
L 167.918225 304.886769 
L 168.286684 294.823385 
L 168.655144 291.323077 
L 169.023603 306.636923 
L 169.392063 294.385846 
L 169.760522 264.195692 
L 170.128981 302.261538 
L 170.497441 291.323077 
L 170.8659 291.323077 
L 171.234359 264.195692 
L 171.602819 301.386462 
L 171.971278 297.448615 
L 172.339737 297.011077 
L 172.708197 285.197538 
L 173.076656 303.136615 
L 173.445116 304.886769 
L 173.813575 289.135385 
L 174.182034 298.761231 
L 174.550494 289.135385 
L 174.918953 305.324308 
L 175.287412 287.822769 
L 175.655872 302.699077 
L 176.024331 306.636923 
L 176.392791 294.823385 
L 177.129709 304.886769 
L 177.498169 287.822769 
L 177.866628 303.136615 
L 178.235087 286.947692 
L 178.603547 292.198154 
L 178.972006 287.385231 
L 179.340465 291.760615 
L 179.708925 298.761231 
L 180.077384 275.571692 
L 180.445844 302.699077 
L 180.814303 290.010462 
L 181.182762 302.699077 
L 181.551222 303.574154 
L 181.919681 301.824 
L 182.28814 286.510154 
L 182.6566 305.761846 
L 183.025059 283.884923 
L 183.393519 291.760615 
L 183.761978 292.635692 
L 184.130437 275.134154 
L 184.498897 295.260923 
L 184.867356 291.760615 
L 185.235815 289.572923 
L 185.604275 299.198769 
L 185.972734 286.072615 
L 186.341193 301.824 
L 186.709653 286.947692 
L 187.078112 297.886154 
L 187.446572 276.446769 
L 187.815031 291.323077 
L 188.18349 300.073846 
L 188.55195 290.448 
L 188.920409 275.571692 
L 189.288868 279.947077 
L 189.657328 273.384 
L 190.025787 271.633846 
L 190.394247 267.258462 
L 190.762706 289.572923 
L 191.131165 299.198769 
L 191.499625 287.822769 
L 191.868084 306.636923 
L 192.236543 285.197538 
L 192.605003 303.574154 
L 192.973462 307.949538 
L 193.341921 301.824 
L 193.710381 292.635692 
L 194.4473 269.883692 
L 194.815759 297.886154 
L 195.184218 283.447385 
L 195.552678 279.072 
L 195.921137 283.447385 
L 196.289596 268.133538 
L 197.026515 281.697231 
L 197.394975 270.758769 
L 197.763434 274.696615 
L 198.500353 296.573538 
L 198.868812 303.574154 
L 199.237271 272.071385 
L 199.605731 279.947077 
L 199.97419 244.506462 
L 200.342649 285.635077 
L 200.711109 256.32 
L 201.079568 307.512 
L 201.448028 298.323692 
L 202.184946 232.692923 
L 202.553406 259.820308 
L 202.921865 275.134154 
L 203.290324 300.948923 
L 203.658784 255.444923 
L 204.027243 244.068923 
L 204.395703 267.696 
L 204.764162 301.386462 
L 205.132621 266.383385 
L 205.501081 293.510769 
L 205.86954 242.756308 
L 206.237999 255.007385 
L 206.606459 251.944615 
L 206.974918 233.568 
L 207.343377 240.131077 
L 207.711837 307.074462 
L 208.080296 297.886154 
L 208.448756 254.569846 
L 208.817215 237.943385 
L 209.185674 304.449231 
L 209.554134 250.194462 
L 209.922593 302.699077 
L 210.291052 253.257231 
L 210.659512 302.261538 
L 211.027971 264.633231 
L 211.396431 267.258462 
L 211.76489 273.384 
L 212.501809 238.818462 
L 212.870268 284.322462 
L 213.238727 232.692923 
L 213.607187 278.634462 
L 213.975646 246.694154 
L 214.344105 280.822154 
L 214.712565 273.821538 
L 215.081024 279.947077 
L 215.449484 276.884308 
L 215.817943 186.313846 
L 216.186402 272.071385 
L 216.554862 234.005538 
L 216.923321 274.259077 
L 217.29178 273.384 
L 217.66024 269.883692 
L 218.028699 238.818462 
L 218.397159 289.572923 
L 218.765618 292.198154 
L 219.502537 252.382154 
L 219.870996 279.947077 
L 220.239455 255.882462 
L 220.607915 273.384 
L 220.976374 260.257846 
L 221.344833 286.947692 
L 221.713293 233.568 
L 222.081752 267.258462 
L 222.450212 192.001846 
L 222.818671 209.503385 
L 223.18713 262.883077 
L 223.55559 282.572308 
L 224.292508 255.007385 
L 224.660968 301.386462 
L 225.397887 247.569231 
L 226.134805 283.884923 
L 226.503265 293.948308 
L 226.871724 282.572308 
L 227.240183 261.132923 
L 227.608643 289.135385 
L 227.977102 264.633231 
L 228.345561 275.134154 
L 228.714021 279.509538 
L 229.08248 272.946462 
L 229.45094 281.259692 
L 229.819399 300.948923 
L 230.187858 259.382769 
L 230.556318 280.384615 
L 230.924777 270.321231 
L 231.661696 303.136615 
L 232.030155 291.760615 
L 232.398615 266.820923 
L 232.767074 271.196308 
L 233.135533 266.383385 
L 233.503993 286.510154 
L 233.872452 295.260923 
L 234.240911 290.010462 
L 234.609371 303.136615 
L 234.97783 306.636923 
L 235.346289 278.634462 
L 235.714749 301.824 
L 236.083208 272.946462 
L 236.451668 284.76 
L 237.188586 298.323692 
L 237.557046 288.697846 
L 237.925505 296.136 
L 238.293964 300.073846 
L 238.662424 256.32 
L 239.030883 303.136615 
L 239.399343 279.947077 
L 240.136261 306.636923 
L 240.504721 283.009846 
L 240.87318 289.572923 
L 241.241639 269.446154 
L 241.610099 291.760615 
L 241.978558 297.011077 
L 242.347017 279.947077 
L 242.715477 304.449231 
L 243.083936 293.073231 
L 243.820855 287.822769 
L 244.189314 289.572923 
L 244.557774 275.134154 
L 244.926233 271.633846 
L 245.294692 291.323077 
L 245.663152 299.636308 
L 246.031611 303.136615 
L 246.400071 289.135385 
L 246.76853 279.947077 
L 247.136989 294.823385 
L 247.505449 303.136615 
L 247.873908 297.886154 
L 248.242367 303.136615 
L 248.610827 293.948308 
L 248.979286 297.448615 
L 249.347745 276.884308 
L 249.716205 275.571692 
L 250.084664 283.447385 
L 250.453124 278.196923 
L 250.821583 304.011692 
L 251.190042 301.386462 
L 251.558502 300.511385 
L 251.926961 297.448615 
L 252.29542 288.697846 
L 252.66388 287.822769 
L 253.032339 293.510769 
L 253.400799 290.010462 
L 253.769258 300.948923 
L 254.137717 297.011077 
L 254.506177 302.261538 
L 255.243095 286.947692 
L 255.611555 300.511385 
L 255.980014 300.073846 
L 256.348473 296.573538 
L 256.716933 295.698462 
L 257.085392 264.195692 
L 257.453852 296.573538 
L 257.822311 299.198769 
L 258.19077 290.010462 
L 258.55923 290.010462 
L 258.927689 295.698462 
L 259.296148 293.073231 
L 259.664608 300.948923 
L 260.033067 295.260923 
L 260.401527 294.385846 
L 260.769986 290.010462 
L 261.138445 287.385231 
L 261.506905 280.822154 
L 261.875364 299.198769 
L 262.243823 301.386462 
L 262.980742 290.885538 
L 263.349201 294.823385 
L 263.717661 306.636923 
L 264.45458 291.760615 
L 264.823039 258.945231 
L 265.191498 294.385846 
L 265.928417 289.572923 
L 266.296876 293.073231 
L 266.665336 299.198769 
L 267.033795 286.947692 
L 267.402255 292.635692 
L 267.770714 289.135385 
L 268.139173 269.008615 
L 268.507633 304.449231 
L 268.876092 301.386462 
L 269.244551 296.136 
L 269.613011 303.574154 
L 270.349929 287.822769 
L 270.718389 290.010462 
L 271.086848 281.259692 
L 271.455308 292.198154 
L 271.823767 287.822769 
L 272.192226 296.136 
L 272.560686 269.883692 
L 272.929145 287.385231 
L 273.297604 290.885538 
L 273.666064 287.385231 
L 274.034523 289.135385 
L 274.402983 282.134769 
L 274.771442 280.822154 
L 275.139901 277.759385 
L 275.508361 289.572923 
L 275.87682 286.510154 
L 276.245279 290.010462 
L 276.982198 258.945231 
L 277.350657 285.635077 
L 277.719117 241.881231 
L 278.087576 297.448615 
L 278.456036 283.884923 
L 278.824495 294.823385 
L 279.192954 289.572923 
L 279.929873 297.886154 
L 280.298332 280.822154 
L 280.666792 290.885538 
L 281.035251 290.448 
L 281.403711 288.697846 
L 281.77217 294.823385 
L 282.140629 284.322462 
L 282.509089 290.448 
L 282.877548 289.135385 
L 283.246007 290.010462 
L 283.614467 274.259077 
L 283.982926 276.009231 
L 284.351385 282.572308 
L 284.719845 271.196308 
L 285.088304 266.820923 
L 285.456764 286.947692 
L 285.825223 291.323077 
L 286.193682 285.635077 
L 286.562142 288.697846 
L 286.930601 283.009846 
L 287.29906 292.635692 
L 287.66752 289.572923 
L 288.035979 281.697231 
L 288.404439 280.822154 
L 288.772898 289.572923 
L 289.141357 289.572923 
L 289.509817 290.448 
L 289.878276 269.883692 
L 290.246735 286.072615 
L 290.615195 285.635077 
L 290.983654 273.821538 
L 291.352113 249.756923 
L 291.720573 276.446769 
L 292.089032 285.197538 
L 292.457492 287.385231 
L 292.825951 261.570462 
L 293.19441 257.632615 
L 293.56287 274.696615 
L 293.931329 285.635077 
L 294.668248 266.820923 
L 295.036707 280.384615 
L 295.405167 280.822154 
L 295.773626 281.697231 
L 296.142085 283.884923 
L 296.510545 276.009231 
L 296.879004 249.756923 
L 297.247463 275.571692 
L 297.615923 260.257846 
L 297.984382 253.694769 
L 298.352841 275.134154 
L 298.721301 264.633231 
L 299.08976 268.571077 
L 299.45822 195.064615 
L 299.826679 278.634462 
L 300.195138 218.254154 
L 300.563598 226.129846 
L 301.300516 257.632615 
L 301.668976 243.193846 
L 302.037435 265.508308 
L 302.405895 271.196308 
L 302.774354 258.945231 
L 303.511273 279.072 
L 303.879732 276.884308 
L 304.248191 262.883077 
L 304.616651 276.446769 
L 304.98511 284.76 
L 305.353569 256.757538 
L 305.722029 275.134154 
L 306.090488 248.006769 
L 306.458948 279.947077 
L 306.827407 276.884308 
L 307.195866 276.446769 
L 307.564326 270.321231 
L 307.932785 284.76 
L 308.301244 276.446769 
L 308.669704 271.633846 
L 309.038163 272.946462 
L 309.406623 278.196923 
L 309.775082 275.571692 
L 310.143541 275.571692 
L 310.512001 247.569231 
L 310.88046 260.257846 
L 311.248919 267.696 
L 311.617379 262.445538 
L 311.985838 276.446769 
L 312.722757 266.383385 
L 313.091216 264.195692 
L 313.459676 271.633846 
L 313.828135 261.132923 
L 314.196594 259.820308 
L 314.933513 267.258462 
L 315.301972 262.883077 
L 315.670432 249.756923 
L 316.038891 249.319385 
L 316.407351 271.633846 
L 317.144269 239.693538 
L 317.512729 280.384615 
L 317.881188 258.507692 
L 318.249647 255.444923 
L 318.618107 258.070154 
L 318.986566 269.883692 
L 319.355025 259.820308 
L 319.723485 257.195077 
L 320.091944 249.756923 
L 320.460404 265.070769 
L 320.828863 254.132308 
L 321.197322 276.884308 
L 321.565782 269.446154 
L 321.934241 275.134154 
L 322.3027 272.071385 
L 322.67116 276.884308 
L 323.039619 275.571692 
L 323.408079 275.134154 
L 323.776538 259.382769 
L 324.144997 259.820308 
L 324.513457 262.445538 
L 324.881916 244.506462 
L 325.250375 272.508923 
L 325.618835 266.383385 
L 325.987294 269.883692 
L 326.355753 203.815385 
L 326.724213 265.945846 
L 327.092672 256.757538 
L 327.461132 267.696 
L 327.829591 245.381538 
L 328.19805 265.945846 
L 328.56651 265.945846 
L 328.934969 264.195692 
L 329.303428 246.256615 
L 329.671888 261.132923 
L 330.040347 266.383385 
L 330.408807 233.130462 
L 330.777266 226.567385 
L 331.145725 266.383385 
L 331.514185 198.564923 
L 331.882644 256.757538 
L 332.619563 185.001231 
L 333.356481 255.444923 
L 333.724941 246.256615 
L 334.0934 252.382154 
L 334.46186 209.940923 
L 334.830319 241.006154 
L 335.198778 259.382769 
L 335.567238 227.88 
L 335.935697 144.747692 
L 336.304156 256.32 
L 336.672616 219.566769 
L 337.041075 267.696 
L 337.409535 242.318769 
L 338.146453 245.381538 
L 338.514913 214.316308 
L 338.883372 210.816 
L 339.251831 254.132308 
L 339.620291 219.129231 
L 339.98875 220.879385 
L 340.357209 130.746462 
L 340.725669 268.571077 
L 341.094128 226.129846 
L 341.462588 255.882462 
L 341.831047 227.004923 
L 342.199506 242.318769 
L 342.567966 243.193846 
L 342.936425 217.816615 
L 343.304884 254.132308 
L 343.673344 253.694769 
L 344.041803 243.631385 
L 344.410263 248.006769 
L 344.778722 236.193231 
L 345.147181 209.065846 
L 345.515641 241.881231 
L 345.8841 239.256 
L 346.252559 241.881231 
L 346.621019 165.312 
L 346.989478 242.756308 
L 347.357937 245.381538 
L 347.726397 259.382769 
L 348.094856 213.003692 
L 348.463316 244.506462 
L 348.831775 249.756923 
L 349.200234 239.256 
L 349.568694 258.070154 
L 349.937153 234.880615 
L 350.305612 244.944 
L 350.674072 228.755077 
L 351.042531 228.755077 
L 351.410991 218.691692 
L 351.77945 222.629538 
L 352.147909 184.563692 
L 352.516369 238.818462 
L 352.884828 179.750769 
L 353.253287 234.005538 
L 353.621747 218.691692 
L 353.990206 242.756308 
L 354.358665 220.441846 
L 354.727125 255.444923 
L 355.095584 229.630154 
L 355.464044 264.633231 
L 355.832503 201.627692 
L 356.200962 225.692308 
L 356.569422 198.564923 
L 356.937881 184.126154 
L 357.6748 254.569846 
L 358.043259 192.001846 
L 358.411719 227.442462 
L 358.780178 222.192 
L 359.148637 220.441846 
L 359.517097 229.630154 
L 359.885556 261.132923 
L 360.254015 223.504615 
L 360.622475 248.881846 
L 360.990934 253.694769 
L 361.359393 237.068308 
L 361.727853 256.757538 
L 362.096312 227.004923 
L 362.464772 274.259077 
L 362.833231 229.630154 
L 363.20169 229.630154 
L 363.57015 180.625846 
L 363.938609 223.067077 
L 364.307068 213.003692 
L 364.675528 234.005538 
L 365.043987 272.508923 
L 365.412447 272.508923 
L 365.780906 162.686769 
L 366.149365 241.443692 
L 366.517825 225.254769 
L 366.886284 260.257846 
L 367.254743 232.255385 
L 367.623203 220.004308 
L 368.360121 185.876308 
L 368.728581 228.755077 
L 369.09704 232.692923 
L 369.4655 217.379077 
L 369.833959 226.567385 
L 370.202418 224.379692 
L 370.570878 206.003077 
L 370.939337 219.566769 
L 371.307796 214.316308 
L 371.676256 260.257846 
L 372.044715 228.755077 
L 372.413175 216.504 
L 372.781634 263.758154 
L 373.150093 193.752 
L 373.518553 270.758769 
L 373.887012 256.32 
L 374.255471 215.191385 
L 374.623931 216.066462 
L 374.99239 244.068923 
L 375.360849 224.379692 
L 375.729309 230.067692 
L 376.097768 245.819077 
L 376.466228 269.883692 
L 376.834687 243.631385 
L 377.203146 189.814154 
L 377.571606 239.693538 
L 377.940065 229.630154 
L 378.308524 199.44 
L 378.676984 255.444923 
L 379.045443 190.251692 
L 379.782362 249.319385 
L 380.150821 232.692923 
L 380.519281 245.381538 
L 380.88774 244.506462 
L 381.256199 227.88 
L 381.624659 267.258462 
L 381.993118 220.441846 
L 382.361577 256.32 
L 382.730037 240.568615 
L 383.466956 227.88 
L 383.835415 241.881231 
L 384.203874 262.445538 
L 384.572334 187.626462 
L 384.940793 175.375385 
L 385.309252 243.193846 
L 385.677712 224.379692 
L 386.046171 230.942769 
L 386.414631 248.006769 
L 386.78309 258.945231 
L 387.151549 190.689231 
L 387.520009 262.883077 
L 387.888468 249.319385 
L 388.625387 269.008615 
L 388.993846 234.880615 
L 389.362305 244.068923 
L 389.730765 246.256615 
L 390.099224 261.132923 
L 390.467684 262.445538 
L 390.836143 241.006154 
L 391.204602 252.819692 
L 391.573062 232.692923 
L 391.941521 266.383385 
L 392.30998 265.945846 
L 392.67844 245.381538 
L 393.046899 241.006154 
L 393.415359 240.568615 
L 393.783818 225.692308 
L 394.152277 239.256 
L 394.520737 221.754462 
L 394.889196 275.571692 
L 395.626115 245.381538 
L 395.994574 245.381538 
L 396.731493 265.070769 
L 397.099952 214.753846 
L 397.468412 237.068308 
L 397.836871 247.569231 
L 398.20533 243.193846 
L 398.57379 204.690462 
L 398.942249 251.944615 
L 399.310708 223.504615 
L 399.679168 261.570462 
L 400.047627 239.256 
L 400.416087 263.320615 
L 400.784546 253.694769 
L 401.153005 271.633846 
L 401.521465 251.069538 
L 402.258383 248.444308 
L 402.626843 249.319385 
L 402.995302 249.319385 
L 403.363761 216.941538 
L 403.732221 271.196308 
L 404.46914 189.376615 
L 404.837599 215.628923 
L 405.206058 257.632615 
L 405.574518 254.569846 
L 405.942977 259.820308 
L 406.311436 262.883077 
L 406.679896 247.569231 
L 407.048355 220.441846 
L 407.416815 174.500308 
L 407.785274 250.194462 
L 408.153733 238.380923 
L 408.522193 245.819077 
L 409.259111 271.196308 
L 409.627571 246.694154 
L 409.99603 261.570462 
L 410.364489 161.811692 
L 410.732949 172.750154 
L 411.101408 245.381538 
L 411.469868 245.381538 
L 411.838327 244.506462 
L 412.206786 255.882462 
L 412.575246 255.444923 
L 412.943705 260.257846 
L 413.312164 222.629538 
L 413.680624 251.944615 
L 414.049083 227.004923 
L 414.417543 253.257231 
L 414.786002 262.445538 
L 415.154461 241.443692 
L 415.522921 209.503385 
L 415.89138 238.818462 
L 416.259839 238.818462 
L 416.628299 237.943385 
L 416.996758 231.380308 
L 417.365217 267.696 
L 417.733677 248.444308 
L 418.102136 250.194462 
L 418.470596 255.444923 
L 418.839055 253.257231 
L 419.207514 246.256615 
L 419.575974 251.507077 
L 419.944433 249.319385 
L 420.312892 231.380308 
L 421.049811 261.570462 
L 421.418271 218.254154 
L 421.78673 247.569231 
L 422.155189 256.757538 
L 422.523649 227.442462 
L 422.892108 255.007385 
L 423.260567 227.442462 
L 423.629027 216.941538 
L 423.997486 261.132923 
L 424.365945 195.064615 
L 425.102864 258.945231 
L 425.471324 250.194462 
L 425.839783 256.757538 
L 426.208242 234.443077 
L 426.576702 262.008 
L 426.945161 249.756923 
L 427.31362 218.691692 
L 427.68208 219.129231 
L 428.050539 262.008 
L 428.418999 255.007385 
L 428.787458 235.318154 
L 429.155917 248.006769 
L 429.524377 227.004923 
L 429.892836 262.445538 
L 430.261295 253.257231 
L 430.629755 255.007385 
L 430.998214 239.693538 
L 431.735133 251.944615 
L 432.103592 260.257846 
L 432.472052 239.256 
L 432.840511 260.257846 
L 433.20897 244.944 
L 433.57743 287.822769 
L 433.945889 250.632 
L 434.314348 226.129846 
L 434.682808 234.880615 
L 435.051267 257.632615 
L 435.419727 255.444923 
L 435.788186 275.571692 
L 436.156645 231.817846 
L 436.525105 228.755077 
L 436.893564 222.629538 
L 437.262023 254.569846 
L 437.630483 266.820923 
L 437.998942 245.819077 
L 438.367401 270.758769 
L 438.735861 204.690462 
L 439.10432 247.131692 
L 440.209698 287.385231 
L 440.578158 258.070154 
L 440.946617 281.697231 
L 441.315076 257.632615 
L 441.683536 256.32 
L 442.420455 238.818462 
L 442.420455 238.818462 
" clip-path="url(#p79f51c6c9b)" style="fill: none; stroke: #708090; stroke-width: 1.5; stroke-linecap: square"/>
   </g>
   <g id="line2d_15">
    <path d="M 74.329545 303.329132 
L 74.698005 303.41664 
L 75.066464 303.294129 
L 75.803383 303.390388 
L 76.908761 303.215372 
L 78.014139 303.232874 
L 78.382599 303.180369 
L 78.751058 302.979102 
L 79.487977 303.224123 
L 79.856436 303.110363 
L 80.593355 303.215372 
L 81.330273 303.364135 
L 81.698733 303.41664 
L 83.17257 303.171618 
L 83.54103 303.346634 
L 83.909489 303.311631 
L 84.277948 303.547902 
L 86.488705 303.504148 
L 86.857164 303.687914 
L 87.594083 303.696665 
L 87.962542 303.521649 
L 88.331001 303.495397 
L 88.699461 303.661662 
L 89.43638 303.617908 
L 89.804839 302.944098 
L 90.173298 302.541563 
L 91.278676 302.970351 
L 92.752514 302.900345 
L 93.120973 302.935348 
L 93.489433 302.445305 
L 94.226351 302.401551 
L 94.594811 302.50656 
L 95.331729 302.50656 
L 96.068648 302.060271 
L 97.910945 302.200283 
L 98.279404 301.946511 
L 99.016323 301.990265 
L 99.384783 301.946511 
L 99.753242 301.561477 
L 100.121701 301.526474 
L 100.490161 300.703902 
L 100.85862 300.651397 
L 101.227079 300.975175 
L 101.963998 300.870166 
L 102.700917 300.791409 
L 103.069376 300.57264 
L 103.437836 300.126351 
L 103.806295 300.021342 
L 104.911673 300.196357 
L 106.017051 300.082597 
L 106.385511 300.248862 
L 106.75397 299.846326 
L 107.490889 299.767569 
L 107.859348 299.522548 
L 108.596267 300.607643 
L 108.964726 300.310117 
L 110.070104 300.196357 
L 110.438564 300.34512 
L 111.543942 300.248862 
L 111.912401 300.835163 
L 113.017779 300.747655 
L 113.386239 300.826412 
L 113.754698 300.765157 
L 114.123157 300.975175 
L 114.491617 300.791409 
L 114.860076 300.038843 
L 115.228535 299.916332 
L 115.965454 300.135102 
L 116.333913 300.038843 
L 116.702373 300.248862 
L 117.070832 300.266363 
L 117.439292 300.397625 
L 118.17621 301.053932 
L 118.54467 301.071434 
L 118.913129 301.894006 
L 119.650048 301.867754 
L 120.386967 301.806498 
L 121.492345 301.885255 
L 121.860804 302.16528 
L 122.229263 302.034018 
L 122.597723 301.465218 
L 122.966182 301.421465 
L 123.334641 301.123938 
L 123.703101 301.272702 
L 124.07156 301.59648 
L 124.808479 301.543975 
L 125.176938 301.894006 
L 125.545398 301.832751 
L 125.913857 301.605231 
L 126.282316 301.876505 
L 126.650776 301.762745 
L 127.019235 301.526474 
L 127.387695 301.806498 
L 128.861532 301.832751 
L 129.598451 302.077772 
L 132.546126 302.025268 
L 132.914585 302.305292 
L 133.283044 302.944098 
L 133.651504 302.690326 
L 134.388423 302.777834 
L 134.756882 302.637822 
L 135.493801 302.707828 
L 136.230719 302.27904 
L 136.599179 302.130277 
L 137.336097 301.316455 
L 137.704557 301.386462 
L 138.073016 301.193945 
L 138.441476 301.167692 
L 138.809935 300.642646 
L 139.178394 300.651397 
L 139.546854 300.415126 
L 139.915313 300.598892 
L 140.283772 300.257612 
L 140.652232 300.362622 
L 141.020691 300.91392 
L 142.126069 300.975175 
L 142.494529 300.546388 
L 142.862988 300.301366 
L 143.231447 299.723815 
L 143.599907 299.601305 
L 143.968366 299.618806 
L 144.336825 299.863828 
L 146.916041 299.085009 
L 147.65296 297.466117 
L 148.021419 297.492369 
L 148.389879 297.229846 
L 148.758338 297.151089 
L 149.495257 296.424775 
L 149.863716 296.381022 
L 150.600635 295.995988 
L 151.337553 295.847225 
L 151.706013 295.103409 
L 152.074472 295.409686 
L 152.811391 294.753378 
L 153.17985 294.149575 
L 153.54831 294.219582 
L 153.916769 294.044566 
L 154.285228 294.097071 
L 154.653688 293.782043 
L 155.022147 293.8608 
L 155.390607 294.193329 
L 155.759066 294.31584 
L 156.127525 294.105822 
L 156.864444 294.254585 
L 157.232903 294.385846 
L 157.601363 294.368345 
L 157.969822 294.613366 
L 158.338281 294.394597 
L 158.706741 294.788382 
L 159.0752 294.875889 
L 159.44366 294.499606 
L 159.812119 294.438351 
L 160.549038 293.992062 
L 161.285956 293.983311 
L 161.654416 294.455852 
L 162.022875 294.027065 
L 162.391335 294.018314 
L 162.759794 293.712037 
L 163.128253 293.729538 
L 163.865172 294.158326 
L 164.233631 293.939557 
L 164.602091 293.957058 
L 164.97055 293.598277 
L 165.339009 293.458265 
L 165.707469 293.922055 
L 166.075928 294.20208 
L 166.444388 293.948308 
L 166.812847 293.948308 
L 167.181306 293.677034 
L 167.918225 293.913305 
L 169.023603 293.825797 
L 169.392063 293.221994 
L 169.760522 293.160738 
L 170.128981 293.878302 
L 171.234359 293.099483 
L 171.602819 293.283249 
L 172.339737 292.084394 
L 172.708197 291.935631 
L 173.076656 292.215655 
L 173.445116 291.909378 
L 173.813575 291.944382 
L 174.182034 291.865625 
L 174.550494 291.961883 
L 174.918953 292.338166 
L 175.287412 292.26816 
L 175.655872 292.364418 
L 176.024331 291.900628 
L 176.392791 291.165563 
L 176.76125 291.226818 
L 177.129709 290.894289 
L 177.498169 290.377994 
L 177.866628 290.290486 
L 178.235087 289.590425 
L 179.340465 288.811606 
L 180.077384 288.225305 
L 180.445844 288.645342 
L 180.814303 288.662843 
L 181.551222 287.849022 
L 181.919681 286.667668 
L 182.28814 286.343889 
L 182.6566 285.740086 
L 183.025059 285.775089 
L 183.393519 286.063865 
L 183.761978 285.582572 
L 184.130437 284.383717 
L 184.867356 283.674905 
L 185.235815 283.858671 
L 185.604275 283.176111 
L 185.972734 282.073514 
L 186.341193 281.705982 
L 186.709653 281.697231 
L 187.078112 281.285945 
L 187.446572 281.198437 
L 188.18349 279.798314 
L 189.288868 276.989317 
L 190.025787 278.021908 
L 190.394247 277.680628 
L 190.762706 277.094326 
L 191.131165 277.391852 
L 191.499625 276.411766 
L 191.868084 276.709292 
L 192.236543 275.641698 
L 192.605003 275.982978 
L 194.4473 272.263902 
L 194.815759 272.552677 
L 195.184218 271.248812 
L 195.552678 271.152554 
L 195.921137 270.504997 
L 196.289596 270.452492 
L 197.026515 270.662511 
L 197.394975 270.566252 
L 197.763434 268.877354 
L 198.131893 268.824849 
L 198.500353 267.774757 
L 199.237271 266.724665 
L 199.605731 266.680911 
L 199.97419 265.858338 
L 200.342649 266.759668 
L 200.711109 266.890929 
L 201.079568 267.144702 
L 201.448028 266.042105 
L 202.184946 265.438302 
L 202.553406 266.252123 
L 202.921865 266.260874 
L 203.290324 266.497145 
L 203.658784 265.149526 
L 204.027243 265.385797 
L 205.132621 262.410535 
L 205.501081 262.734314 
L 205.86954 262.23552 
L 206.237999 262.480542 
L 206.606459 263.408123 
L 207.711837 264.650732 
L 208.080296 264.186942 
L 208.448756 264.108185 
L 209.185674 265.132025 
L 209.554134 264.825748 
L 209.922593 265.114523 
L 210.291052 264.563225 
L 210.659512 265.088271 
L 211.027971 264.501969 
L 211.396431 264.834498 
L 211.76489 265.508308 
L 212.133349 265.228283 
L 212.870268 266.357132 
L 213.238727 266.365883 
L 213.607187 267.774757 
L 213.975646 268.03728 
L 214.344105 268.439815 
L 215.081024 268.098535 
L 215.449484 268.229797 
L 215.817943 268.597329 
L 216.186402 270.671262 
L 216.554862 271.292566 
L 216.923321 272.745194 
L 217.29178 272.832702 
L 217.66024 273.401502 
L 218.028699 273.462757 
L 218.397159 274.381588 
L 219.134077 274.556603 
L 219.502537 274.950388 
L 219.870996 275.825465 
L 220.239455 276.228 
L 220.607915 276.236751 
L 221.344833 277.225588 
L 221.713293 277.3656 
L 222.081752 278.826978 
L 222.450212 279.142006 
L 222.818671 281.093428 
L 223.18713 282.292283 
L 223.55559 282.869834 
L 224.292508 283.386129 
L 224.660968 284.374966 
L 225.029427 284.208702 
L 225.397887 284.541231 
L 225.766346 285.346302 
L 226.134805 285.801342 
L 226.503265 285.626326 
L 226.871724 285.180037 
L 227.240183 285.355052 
L 227.608643 286.12512 
L 227.977102 286.405145 
L 228.345561 286.895188 
L 228.714021 286.991446 
L 229.08248 287.297723 
L 229.45094 287.901526 
L 229.819399 288.234055 
L 230.187858 288.277809 
L 230.556318 288.96912 
L 230.924777 289.3104 
L 231.293236 289.441662 
L 231.661696 289.257895 
L 232.398615 288.592837 
L 233.503993 290.623015 
L 233.872452 290.841785 
L 234.97783 290.474252 
L 235.346289 290.141723 
L 235.714749 290.588012 
L 236.083208 290.491754 
L 236.451668 291.078055 
L 236.820127 291.253071 
L 237.188586 291.148062 
L 237.557046 291.191815 
L 237.925505 291.419335 
L 239.399343 291.366831 
L 239.767802 291.751865 
L 240.136261 291.673108 
L 240.504721 291.340578 
L 240.87318 291.594351 
L 241.241639 291.664357 
L 241.610099 292.294412 
L 241.978558 292.364418 
L 242.347017 292.311914 
L 242.715477 292.513182 
L 243.452396 291.92688 
L 244.557774 292.49568 
L 244.926233 292.810708 
L 245.663152 293.580775 
L 246.031611 293.589526 
L 246.400071 293.362006 
L 246.76853 292.758203 
L 247.136989 293.046978 
L 247.505449 292.985723 
L 247.873908 292.714449 
L 249.347745 292.303163 
L 249.716205 292.548185 
L 250.084664 292.416923 
L 250.821583 293.300751 
L 251.190042 293.143237 
L 251.558502 293.186991 
L 251.926961 293.108234 
L 252.29542 292.915717 
L 252.66388 292.941969 
L 253.400799 292.784455 
L 254.137717 292.644443 
L 254.506177 292.101895 
L 254.874636 291.804369 
L 255.611555 291.760615 
L 255.980014 291.533095 
L 257.085392 290.500505 
L 257.453852 291.008049 
L 258.55923 290.290486 
L 258.927689 289.669182 
L 259.296148 289.467914 
L 259.664608 288.444074 
L 260.033067 288.374068 
L 260.401527 288.146548 
L 261.506905 288.269058 
L 261.875364 288.610338 
L 262.243823 288.242806 
L 262.980742 287.936529 
L 263.717661 287.892775 
L 264.08612 287.446486 
L 264.45458 287.253969 
L 264.823039 287.201465 
L 265.191498 287.822769 
L 265.928417 287.105206 
L 266.296876 286.965194 
L 266.665336 286.527655 
L 267.033795 285.880098 
L 268.139173 285.78384 
L 268.507633 286.177625 
L 268.876092 285.748837 
L 269.613011 285.44256 
L 270.349929 284.689994 
L 271.455308 284.900012 
L 271.823767 284.453723 
L 272.192226 284.41872 
L 272.560686 284.208702 
L 272.929145 284.287458 
L 273.297604 283.534892 
L 273.666064 283.246117 
L 274.402983 283.16736 
L 275.139901 282.292283 
L 275.87682 282.152271 
L 276.245279 281.916 
L 276.613739 281.452209 
L 276.982198 281.592222 
L 277.350657 282.02976 
L 277.719117 281.951003 
L 278.087576 282.791077 
L 278.456036 282.362289 
L 278.824495 281.679729 
L 279.192954 281.294695 
L 279.561414 280.708394 
L 279.929873 279.912074 
L 281.035251 278.686966 
L 281.403711 276.779298 
L 281.77217 276.578031 
L 282.509089 273.882794 
L 282.877548 272.937711 
L 283.246007 272.307655 
L 283.614467 271.371323 
L 284.351385 271.100049 
L 284.719845 270.627508 
L 285.088304 270.601255 
L 285.456764 270.846277 
L 285.825223 270.645009 
L 286.193682 270.076209 
L 286.930601 269.813686 
L 288.035979 268.107286 
L 288.772898 267.993526 
L 289.878276 267.232209 
L 290.246735 267.363471 
L 290.983654 266.820923 
L 291.352113 266.908431 
L 291.720573 267.424726 
L 292.089032 267.407225 
L 292.825951 266.112111 
L 293.931329 266.365883 
L 294.668248 265.910843 
L 295.036707 265.858338 
L 295.405167 265.683323 
L 296.510545 264.449465 
L 296.879004 264.274449 
L 297.247463 264.536972 
L 297.615923 264.020677 
L 297.984382 263.801908 
L 298.352841 264.160689 
L 299.08976 263.224357 
L 299.45822 263.460628 
L 299.826679 264.729489 
L 300.195138 264.265698 
L 300.932057 265.937095 
L 301.300516 266.269625 
L 301.668976 266.260874 
L 302.037435 266.392135 
L 302.405895 266.383385 
L 302.774354 266.042105 
L 303.142813 266.400886 
L 303.879732 266.313378 
L 304.248191 266.21712 
L 304.616651 266.497145 
L 304.98511 266.479643 
L 305.353569 266.287126 
L 305.722029 266.339631 
L 306.090488 266.033354 
L 306.458948 266.322129 
L 306.827407 265.613317 
L 307.932785 265.315791 
L 308.301244 263.696898 
L 309.406623 263.084345 
L 309.775082 262.428037 
L 310.512001 262.043003 
L 310.88046 262.375532 
L 311.248919 262.095508 
L 311.617379 261.964246 
L 311.985838 262.043003 
L 312.722757 260.284098 
L 313.091216 260.284098 
L 313.459676 258.971483 
L 313.828135 258.673957 
L 314.196594 257.868886 
L 314.565054 256.372505 
L 314.933513 255.418671 
L 315.670432 254.849871 
L 316.038891 254.902375 
L 316.77581 253.502252 
L 317.144269 253.624763 
L 317.512729 253.388492 
L 317.881188 250.675754 
L 318.249647 250.632 
L 318.618107 249.914437 
L 318.986566 250.106954 
L 319.355025 249.555655 
L 320.091944 249.004357 
L 320.460404 248.295545 
L 320.828863 247.210449 
L 321.197322 247.210449 
L 321.934241 245.084012 
L 322.3027 242.196258 
L 322.67116 242.126252 
L 323.039619 241.111163 
L 323.408079 240.717378 
L 323.776538 239.754794 
L 324.513457 239.080985 
L 324.881916 238.188406 
L 325.250375 238.380923 
L 326.355753 237.112062 
L 326.724213 237.759618 
L 327.092672 236.622018 
L 327.461132 236.324492 
L 327.829591 235.755692 
L 328.19805 235.685686 
L 328.56651 233.673009 
L 329.303428 232.832935 
L 329.671888 233.095458 
L 330.040347 232.132874 
L 330.408807 231.695335 
L 331.145725 232.281637 
L 331.514185 232.115372 
L 331.882644 232.841686 
L 332.251103 232.605415 
L 332.619563 232.762929 
L 332.988022 233.638006 
L 333.356481 233.690511 
L 333.724941 233.034203 
L 334.0934 231.800345 
L 334.46186 231.529071 
L 334.830319 230.925268 
L 335.198778 230.785255 
L 335.567238 229.971434 
L 335.935697 230.26896 
L 336.304156 231.782843 
L 336.672616 231.765342 
L 337.041075 231.966609 
L 337.409535 231.905354 
L 337.777994 231.091532 
L 338.146453 230.724 
L 338.514913 229.787668 
L 338.883372 229.183865 
L 339.251831 229.428886 
L 339.620291 229.437637 
L 339.98875 228.895089 
L 340.357209 229.026351 
L 340.725669 230.855262 
L 341.094128 229.892677 
L 342.936425 230.338966 
L 343.304884 230.724 
L 343.673344 230.776505 
L 344.041803 230.242708 
L 344.410263 230.855262 
L 344.778722 230.487729 
L 345.147181 230.356468 
L 345.8841 229.411385 
L 346.252559 228.886338 
L 346.621019 228.728825 
L 346.989478 230.872763 
L 347.357937 231.467815 
L 347.726397 229.81392 
L 348.094856 229.455138 
L 348.831775 230.015188 
L 349.568694 229.280123 
L 350.305612 227.153686 
L 350.674072 226.829908 
L 351.042531 226.908665 
L 351.410991 226.681145 
L 351.77945 226.838658 
L 352.147909 226.873662 
L 352.516369 227.302449 
L 352.884828 226.917415 
L 353.621747 228.133772 
L 353.990206 228.33504 
L 354.358665 227.809994 
L 354.727125 228.67632 
L 355.095584 227.442462 
L 355.464044 228.265034 
L 355.832503 228.098769 
L 356.200962 228.370043 
L 356.569422 228.177526 
L 357.30634 229.892677 
L 357.6748 230.032689 
L 358.043259 229.857674 
L 358.411719 231.415311 
L 358.780178 231.739089 
L 359.148637 231.091532 
L 359.517097 231.476566 
L 359.885556 231.476566 
L 360.254015 230.242708 
L 360.622475 230.881514 
L 360.990934 229.708911 
L 361.359393 229.113858 
L 361.727853 229.35888 
L 362.096312 228.877588 
L 362.464772 229.24512 
L 362.833231 228.650068 
L 363.20169 228.615065 
L 364.675528 231.380308 
L 365.043987 231.380308 
L 365.780906 229.875175 
L 366.149365 231.870351 
L 366.886284 229.796418 
L 367.254743 229.455138 
L 367.623203 229.297625 
L 367.991662 229.516394 
L 368.360121 230.461477 
L 368.728581 231.922855 
L 369.09704 231.161538 
L 370.202418 233.069206 
L 370.570878 233.961785 
L 371.676256 235.668185 
L 372.044715 235.685686 
L 372.781634 236.849538 
L 373.150093 236.630769 
L 373.518553 237.409588 
L 373.887012 237.32208 
L 374.255471 237.514597 
L 374.99239 238.617194 
L 375.729309 238.57344 
L 376.097768 238.757206 
L 376.466228 238.275914 
L 376.834687 238.389674 
L 377.203146 238.722203 
L 377.571606 239.833551 
L 377.940065 239.947311 
L 378.308524 240.463606 
L 378.676984 241.776222 
L 379.045443 240.9624 
L 379.413903 241.898732 
L 379.782362 242.371274 
L 380.150821 242.248763 
L 380.519281 241.688714 
L 380.88774 241.819975 
L 381.256199 241.399938 
L 381.624659 242.073748 
L 381.993118 241.513698 
L 382.361577 242.371274 
L 382.730037 242.318769 
L 383.098496 242.940074 
L 384.203874 243.850154 
L 384.572334 243.587631 
L 384.940793 244.821489 
L 385.677712 246.212862 
L 386.046171 246.326622 
L 386.78309 244.847742 
L 387.151549 244.821489 
L 387.520009 246.099102 
L 387.888468 246.037846 
L 388.256927 246.30912 
L 388.625387 246.064098 
L 389.362305 243.885157 
L 389.730765 244.007668 
L 390.099224 243.850154 
L 390.467684 243.543877 
L 390.836143 243.438868 
L 391.204602 244.042671 
L 391.573062 243.92016 
L 391.941521 244.497711 
L 392.67844 240.542363 
L 393.415359 240.629871 
L 393.783818 240.708628 
L 394.152277 241.312431 
L 394.520737 241.636209 
L 394.889196 242.406277 
L 395.257655 241.347434 
L 395.626115 241.181169 
L 395.994574 240.813637 
L 396.731493 241.111163 
L 397.099952 240.638622 
L 397.468412 240.533612 
L 397.836871 240.568615 
L 398.57379 240.288591 
L 398.942249 240.822388 
L 399.310708 241.137415 
L 399.679168 241.636209 
L 400.047627 241.408689 
L 400.416087 241.732468 
L 401.153005 241.382437 
L 401.521465 240.979902 
L 401.889924 240.944898 
L 402.258383 240.577366 
L 402.626843 240.524862 
L 402.995302 240.769883 
L 403.363761 240.148578 
L 403.732221 240.761132 
L 404.10068 240.472357 
L 404.46914 240.419852 
L 404.837599 241.732468 
L 405.206058 241.968738 
L 405.574518 241.154917 
L 405.942977 241.286178 
L 406.311436 239.991065 
L 406.679896 239.264751 
L 407.048355 239.492271 
L 407.416815 240.087323 
L 407.785274 241.732468 
L 408.153733 241.41744 
L 408.522193 241.889982 
L 408.890652 241.968738 
L 409.259111 241.198671 
L 409.627571 240.157329 
L 409.99603 240.463606 
L 410.364489 240.332345 
L 411.101408 243.307606 
L 411.469868 242.940074 
L 411.838327 243.281354 
L 412.206786 243.456369 
L 412.575246 243.438868 
L 413.312164 242.835065 
L 413.680624 243.421366 
L 414.786002 243.972665 
L 415.154461 243.622634 
L 415.89138 245.372788 
L 416.259839 245.119015 
L 416.628299 245.040258 
L 417.733677 246.072849 
L 418.470596 245.311532 
L 418.839055 244.655225 
L 419.207514 244.681477 
L 419.575974 245.092763 
L 419.944433 244.979003 
L 420.312892 245.407791 
L 420.681352 244.873994 
L 421.418271 244.900246 
L 422.155189 246.790412 
L 422.523649 246.816665 
L 422.892108 247.90176 
L 423.260567 247.954265 
L 423.997486 249.135618 
L 424.365945 248.689329 
L 424.365945 248.689329 
" clip-path="url(#p79f51c6c9b)" style="fill: none; stroke: #000080; stroke-width: 1.5; stroke-linecap: square"/>
   </g>
   <g id="line2d_16">
    <path d="M 55.925 94.430769 
L 460.825 94.430769 
" clip-path="url(#p79f51c6c9b)" style="fill: none; stroke-dasharray: 5.55,2.4; stroke-dashoffset: 0; stroke: #008000; stroke-width: 1.5"/>
   </g>
   <g id="patch_3">
    <path d="M 55.925 313.2 
L 55.925 28.8 
" style="fill: none; stroke: #000000; stroke-width: 0.8; stroke-linejoin: miter; stroke-linecap: square"/>
   </g>
   <g id="patch_4">
    <path d="M 460.825 313.2 
L 460.825 28.8 
" style="fill: none; stroke: #000000; stroke-width: 0.8; stroke-linejoin: miter; stroke-linecap: square"/>
   </g>
   <g id="patch_5">
    <path d="M 55.925 313.2 
L 460.825 313.2 
" style="fill: none; stroke: #000000; stroke-width: 0.8; stroke-linejoin: miter; stroke-linecap: square"/>
   </g>
   <g id="patch_6">
    <path d="M 55.925 28.8 
L 460.825 28.8 
" style="fill: none; stroke: #000000; stroke-width: 0.8; stroke-linejoin: miter; stroke-linecap: square"/>
   </g>
   <g id="text_16">
    <!-- gamma = 0.9568421052631579,lr = 0.01291549665014884 -->
    <g transform="translate(28.373437 22.8)scale(0.15 -0.15)">
     <defs>
      <path id="DejaVuSans-67" d="M 2906 1791 
Q 2906 2416 2648 2759 
Q 2391 3103 1925 3103 
Q 1463 3103 1205 2759 
Q 947 2416 947 1791 
Q 947 1169 1205 825 
Q 1463 481 1925 481 
Q 2391 481 2648 825 
Q 2906 1169 2906 1791 
z
M 3481 434 
Q 3481 -459 3084 -895 
Q 2688 -1331 1869 -1331 
Q 1566 -1331 1297 -1286 
Q 1028 -1241 775 -1147 
L 775 -588 
Q 1028 -725 1275 -790 
Q 1522 -856 1778 -856 
Q 2344 -856 2625 -561 
Q 2906 -266 2906 331 
L 2906 616 
Q 2728 306 2450 153 
Q 2172 0 1784 0 
Q 1141 0 747 490 
Q 353 981 353 1791 
Q 353 2603 747 3093 
Q 1141 3584 1784 3584 
Q 2172 3584 2450 3431 
Q 2728 3278 2906 2969 
L 2906 3500 
L 3481 3500 
L 3481 434 
z
" transform="scale(0.015625)"/>
      <path id="DejaVuSans-61" d="M 2194 1759 
Q 1497 1759 1228 1600 
Q 959 1441 959 1056 
Q 959 750 1161 570 
Q 1363 391 1709 391 
Q 2188 391 2477 730 
Q 2766 1069 2766 1631 
L 2766 1759 
L 2194 1759 
z
M 3341 1997 
L 3341 0 
L 2766 0 
L 2766 531 
Q 2569 213 2275 61 
Q 1981 -91 1556 -91 
Q 1019 -91 701 211 
Q 384 513 384 1019 
Q 384 1609 779 1909 
Q 1175 2209 1959 2209 
L 2766 2209 
L 2766 2266 
Q 2766 2663 2505 2880 
Q 2244 3097 1772 3097 
Q 1472 3097 1187 3025 
Q 903 2953 641 2809 
L 641 3341 
Q 956 3463 1253 3523 
Q 1550 3584 1831 3584 
Q 2591 3584 2966 3190 
Q 3341 2797 3341 1997 
z
" transform="scale(0.015625)"/>
      <path id="DejaVuSans-6d" d="M 3328 2828 
Q 3544 3216 3844 3400 
Q 4144 3584 4550 3584 
Q 5097 3584 5394 3201 
Q 5691 2819 5691 2113 
L 5691 0 
L 5113 0 
L 5113 2094 
Q 5113 2597 4934 2840 
Q 4756 3084 4391 3084 
Q 3944 3084 3684 2787 
Q 3425 2491 3425 1978 
L 3425 0 
L 2847 0 
L 2847 2094 
Q 2847 2600 2669 2842 
Q 2491 3084 2119 3084 
Q 1678 3084 1418 2786 
Q 1159 2488 1159 1978 
L 1159 0 
L 581 0 
L 581 3500 
L 1159 3500 
L 1159 2956 
Q 1356 3278 1631 3431 
Q 1906 3584 2284 3584 
Q 2666 3584 2933 3390 
Q 3200 3197 3328 2828 
z
" transform="scale(0.015625)"/>
      <path id="DejaVuSans-20" transform="scale(0.015625)"/>
      <path id="DejaVuSans-3d" d="M 678 2906 
L 4684 2906 
L 4684 2381 
L 678 2381 
L 678 2906 
z
M 678 1631 
L 4684 1631 
L 4684 1100 
L 678 1100 
L 678 1631 
z
" transform="scale(0.015625)"/>
      <path id="DejaVuSans-2e" d="M 684 794 
L 1344 794 
L 1344 0 
L 684 0 
L 684 794 
z
" transform="scale(0.015625)"/>
      <path id="DejaVuSans-39" d="M 703 97 
L 703 672 
Q 941 559 1184 500 
Q 1428 441 1663 441 
Q 2288 441 2617 861 
Q 2947 1281 2994 2138 
Q 2813 1869 2534 1725 
Q 2256 1581 1919 1581 
Q 1219 1581 811 2004 
Q 403 2428 403 3163 
Q 403 3881 828 4315 
Q 1253 4750 1959 4750 
Q 2769 4750 3195 4129 
Q 3622 3509 3622 2328 
Q 3622 1225 3098 567 
Q 2575 -91 1691 -91 
Q 1453 -91 1209 -44 
Q 966 3 703 97 
z
M 1959 2075 
Q 2384 2075 2632 2365 
Q 2881 2656 2881 3163 
Q 2881 3666 2632 3958 
Q 2384 4250 1959 4250 
Q 1534 4250 1286 3958 
Q 1038 3666 1038 3163 
Q 1038 2656 1286 2365 
Q 1534 2075 1959 2075 
z
" transform="scale(0.015625)"/>
      <path id="DejaVuSans-37" d="M 525 4666 
L 3525 4666 
L 3525 4397 
L 1831 0 
L 1172 0 
L 2766 4134 
L 525 4134 
L 525 4666 
z
" transform="scale(0.015625)"/>
      <path id="DejaVuSans-2c" d="M 750 794 
L 1409 794 
L 1409 256 
L 897 -744 
L 494 -744 
L 750 256 
L 750 794 
z
" transform="scale(0.015625)"/>
      <path id="DejaVuSans-6c" d="M 603 4863 
L 1178 4863 
L 1178 0 
L 603 0 
L 603 4863 
z
" transform="scale(0.015625)"/>
     </defs>
     <use xlink:href="#DejaVuSans-67"/>
     <use xlink:href="#DejaVuSans-61" x="63.476562"/>
     <use xlink:href="#DejaVuSans-6d" x="124.755859"/>
     <use xlink:href="#DejaVuSans-6d" x="222.167969"/>
     <use xlink:href="#DejaVuSans-61" x="319.580078"/>
     <use xlink:href="#DejaVuSans-20" x="380.859375"/>
     <use xlink:href="#DejaVuSans-3d" x="412.646484"/>
     <use xlink:href="#DejaVuSans-20" x="496.435547"/>
     <use xlink:href="#DejaVuSans-30" x="528.222656"/>
     <use xlink:href="#DejaVuSans-2e" x="591.845703"/>
     <use xlink:href="#DejaVuSans-39" x="623.632812"/>
     <use xlink:href="#DejaVuSans-35" x="687.255859"/>
     <use xlink:href="#DejaVuSans-36" x="750.878906"/>
     <use xlink:href="#DejaVuSans-38" x="814.501953"/>
     <use xlink:href="#DejaVuSans-34" x="878.125"/>
     <use xlink:href="#DejaVuSans-32" x="941.748047"/>
     <use xlink:href="#DejaVuSans-31" x="1005.371094"/>
     <use xlink:href="#DejaVuSans-30" x="1068.994141"/>
     <use xlink:href="#DejaVuSans-35" x="1132.617188"/>
     <use xlink:href="#DejaVuSans-32" x="1196.240234"/>
     <use xlink:href="#DejaVuSans-36" x="1259.863281"/>
     <use xlink:href="#DejaVuSans-33" x="1323.486328"/>
     <use xlink:href="#DejaVuSans-31" x="1387.109375"/>
     <use xlink:href="#DejaVuSans-35" x="1450.732422"/>
     <use xlink:href="#DejaVuSans-37" x="1514.355469"/>
     <use xlink:href="#DejaVuSans-39" x="1577.978516"/>
     <use xlink:href="#DejaVuSans-2c" x="1641.601562"/>
     <use xlink:href="#DejaVuSans-6c" x="1673.388672"/>
     <use xlink:href="#DejaVuSans-72" x="1701.171875"/>
     <use xlink:href="#DejaVuSans-20" x="1742.285156"/>
     <use xlink:href="#DejaVuSans-3d" x="1774.072266"/>
     <use xlink:href="#DejaVuSans-20" x="1857.861328"/>
     <use xlink:href="#DejaVuSans-30" x="1889.648438"/>
     <use xlink:href="#DejaVuSans-2e" x="1953.271484"/>
     <use xlink:href="#DejaVuSans-30" x="1985.058594"/>
     <use xlink:href="#DejaVuSans-31" x="2048.681641"/>
     <use xlink:href="#DejaVuSans-32" x="2112.304688"/>
     <use xlink:href="#DejaVuSans-39" x="2175.927734"/>
     <use xlink:href="#DejaVuSans-31" x="2239.550781"/>
     <use xlink:href="#DejaVuSans-35" x="2303.173828"/>
     <use xlink:href="#DejaVuSans-34" x="2366.796875"/>
     <use xlink:href="#DejaVuSans-39" x="2430.419922"/>
     <use xlink:href="#DejaVuSans-36" x="2494.042969"/>
     <use xlink:href="#DejaVuSans-36" x="2557.666016"/>
     <use xlink:href="#DejaVuSans-35" x="2621.289062"/>
     <use xlink:href="#DejaVuSans-30" x="2684.912109"/>
     <use xlink:href="#DejaVuSans-31" x="2748.535156"/>
     <use xlink:href="#DejaVuSans-34" x="2812.158203"/>
     <use xlink:href="#DejaVuSans-38" x="2875.78125"/>
     <use xlink:href="#DejaVuSans-38" x="2939.404297"/>
     <use xlink:href="#DejaVuSans-34" x="3003.027344"/>
    </g>
   </g>
   <g id="legend_1">
    <g id="patch_7">
     <path d="M 293.50625 80.834375 
L 453.825 80.834375 
Q 455.825 80.834375 455.825 78.834375 
L 455.825 35.8 
Q 455.825 33.8 453.825 33.8 
L 293.50625 33.8 
Q 291.50625 33.8 291.50625 35.8 
L 291.50625 78.834375 
Q 291.50625 80.834375 293.50625 80.834375 
z
" style="fill: #ffffff; opacity: 0.8; stroke: #cccccc; stroke-linejoin: miter"/>
    </g>
    <g id="line2d_17">
     <path d="M 295.50625 41.898438 
L 305.50625 41.898438 
L 315.50625 41.898438 
" style="fill: none; stroke: #708090; stroke-width: 1.5; stroke-linecap: square"/>
    </g>
    <g id="text_17">
     <!-- Episodes score -->
     <g transform="translate(323.50625 45.398438)scale(0.1 -0.1)">
      <use xlink:href="#DejaVuSans-45"/>
      <use xlink:href="#DejaVuSans-70" x="63.183594"/>
      <use xlink:href="#DejaVuSans-69" x="126.660156"/>
      <use xlink:href="#DejaVuSans-73" x="154.443359"/>
      <use xlink:href="#DejaVuSans-6f" x="206.542969"/>
      <use xlink:href="#DejaVuSans-64" x="267.724609"/>
      <use xlink:href="#DejaVuSans-65" x="331.201172"/>
      <use xlink:href="#DejaVuSans-73" x="392.724609"/>
      <use xlink:href="#DejaVuSans-20" x="444.824219"/>
      <use xlink:href="#DejaVuSans-73" x="476.611328"/>
      <use xlink:href="#DejaVuSans-63" x="528.710938"/>
      <use xlink:href="#DejaVuSans-6f" x="583.691406"/>
      <use xlink:href="#DejaVuSans-72" x="644.873047"/>
      <use xlink:href="#DejaVuSans-65" x="683.736328"/>
     </g>
    </g>
    <g id="line2d_18">
     <path d="M 295.50625 56.576563 
L 305.50625 56.576563 
L 315.50625 56.576563 
" style="fill: none; stroke: #000080; stroke-width: 1.5; stroke-linecap: square"/>
    </g>
    <g id="text_18">
     <!-- Moving average of scores -->
     <g transform="translate(323.50625 60.076563)scale(0.1 -0.1)">
      <defs>
       <path id="DejaVuSans-4d" d="M 628 4666 
L 1569 4666 
L 2759 1491 
L 3956 4666 
L 4897 4666 
L 4897 0 
L 4281 0 
L 4281 4097 
L 3078 897 
L 2444 897 
L 1241 4097 
L 1241 0 
L 628 0 
L 628 4666 
z
" transform="scale(0.015625)"/>
       <path id="DejaVuSans-76" d="M 191 3500 
L 800 3500 
L 1894 563 
L 2988 3500 
L 3597 3500 
L 2284 0 
L 1503 0 
L 191 3500 
z
" transform="scale(0.015625)"/>
       <path id="DejaVuSans-6e" d="M 3513 2113 
L 3513 0 
L 2938 0 
L 2938 2094 
Q 2938 2591 2744 2837 
Q 2550 3084 2163 3084 
Q 1697 3084 1428 2787 
Q 1159 2491 1159 1978 
L 1159 0 
L 581 0 
L 581 3500 
L 1159 3500 
L 1159 2956 
Q 1366 3272 1645 3428 
Q 1925 3584 2291 3584 
Q 2894 3584 3203 3211 
Q 3513 2838 3513 2113 
z
" transform="scale(0.015625)"/>
       <path id="DejaVuSans-66" d="M 2375 4863 
L 2375 4384 
L 1825 4384 
Q 1516 4384 1395 4259 
Q 1275 4134 1275 3809 
L 1275 3500 
L 2222 3500 
L 2222 3053 
L 1275 3053 
L 1275 0 
L 697 0 
L 697 3053 
L 147 3053 
L 147 3500 
L 697 3500 
L 697 3744 
Q 697 4328 969 4595 
Q 1241 4863 1831 4863 
L 2375 4863 
z
" transform="scale(0.015625)"/>
      </defs>
      <use xlink:href="#DejaVuSans-4d"/>
      <use xlink:href="#DejaVuSans-6f" x="86.279297"/>
      <use xlink:href="#DejaVuSans-76" x="147.460938"/>
      <use xlink:href="#DejaVuSans-69" x="206.640625"/>
      <use xlink:href="#DejaVuSans-6e" x="234.423828"/>
      <use xlink:href="#DejaVuSans-67" x="297.802734"/>
      <use xlink:href="#DejaVuSans-20" x="361.279297"/>
      <use xlink:href="#DejaVuSans-61" x="393.066406"/>
      <use xlink:href="#DejaVuSans-76" x="454.345703"/>
      <use xlink:href="#DejaVuSans-65" x="513.525391"/>
      <use xlink:href="#DejaVuSans-72" x="575.048828"/>
      <use xlink:href="#DejaVuSans-61" x="616.162109"/>
      <use xlink:href="#DejaVuSans-67" x="677.441406"/>
      <use xlink:href="#DejaVuSans-65" x="740.917969"/>
      <use xlink:href="#DejaVuSans-20" x="802.441406"/>
      <use xlink:href="#DejaVuSans-6f" x="834.228516"/>
      <use xlink:href="#DejaVuSans-66" x="895.410156"/>
      <use xlink:href="#DejaVuSans-20" x="930.615234"/>
      <use xlink:href="#DejaVuSans-73" x="962.402344"/>
      <use xlink:href="#DejaVuSans-63" x="1014.501953"/>
      <use xlink:href="#DejaVuSans-6f" x="1069.482422"/>
      <use xlink:href="#DejaVuSans-72" x="1130.664062"/>
      <use xlink:href="#DejaVuSans-65" x="1169.527344"/>
      <use xlink:href="#DejaVuSans-73" x="1231.050781"/>
     </g>
    </g>
    <g id="line2d_19">
     <path d="M 295.50625 71.254687 
L 305.50625 71.254687 
L 315.50625 71.254687 
" style="fill: none; stroke-dasharray: 5.55,2.4; stroke-dashoffset: 0; stroke: #008000; stroke-width: 1.5"/>
    </g>
    <g id="text_19">
     <!-- Game Solved -->
     <g transform="translate(323.50625 74.754687)scale(0.1 -0.1)">
      <defs>
       <path id="DejaVuSans-47" d="M 3809 666 
L 3809 1919 
L 2778 1919 
L 2778 2438 
L 4434 2438 
L 4434 434 
Q 4069 175 3628 42 
Q 3188 -91 2688 -91 
Q 1594 -91 976 548 
Q 359 1188 359 2328 
Q 359 3472 976 4111 
Q 1594 4750 2688 4750 
Q 3144 4750 3555 4637 
Q 3966 4525 4313 4306 
L 4313 3634 
Q 3963 3931 3569 4081 
Q 3175 4231 2741 4231 
Q 1884 4231 1454 3753 
Q 1025 3275 1025 2328 
Q 1025 1384 1454 906 
Q 1884 428 2741 428 
Q 3075 428 3337 486 
Q 3600 544 3809 666 
z
" transform="scale(0.015625)"/>
      </defs>
      <use xlink:href="#DejaVuSans-47"/>
      <use xlink:href="#DejaVuSans-61" x="77.490234"/>
      <use xlink:href="#DejaVuSans-6d" x="138.769531"/>
      <use xlink:href="#DejaVuSans-65" x="236.181641"/>
      <use xlink:href="#DejaVuSans-20" x="297.705078"/>
      <use xlink:href="#DejaVuSans-53" x="329.492188"/>
      <use xlink:href="#DejaVuSans-6f" x="392.96875"/>
      <use xlink:href="#DejaVuSans-6c" x="454.150391"/>
      <use xlink:href="#DejaVuSans-76" x="481.933594"/>
      <use xlink:href="#DejaVuSans-65" x="541.113281"/>
      <use xlink:href="#DejaVuSans-64" x="602.636719"/>
     </g>
    </g>
   </g>
  </g>
  <g id="axes_2">
   <g id="matplotlib.axis_3">
    <g id="ytick_8">
     <g id="line2d_20">
      <defs>
       <path id="m15000d0d1f" d="M 0 0 
L 3.5 0 
" style="stroke: #000000; stroke-width: 0.8"/>
      </defs>
      <g>
       <use xlink:href="#m15000d0d1f" x="460.825" y="300.356157" style="stroke: #000000; stroke-width: 0.8"/>
      </g>
     </g>
     <g id="text_20">
      <!-- 0 -->
      <g transform="translate(467.825 304.155376)scale(0.1 -0.1)">
       <use xlink:href="#DejaVuSans-30"/>
      </g>
     </g>
    </g>
    <g id="ytick_9">
     <g id="line2d_21">
      <g>
       <use xlink:href="#m15000d0d1f" x="460.825" y="248.63038" style="stroke: #000000; stroke-width: 0.8"/>
      </g>
     </g>
     <g id="text_21">
      <!-- 1 -->
      <g transform="translate(467.825 252.429599)scale(0.1 -0.1)">
       <use xlink:href="#DejaVuSans-31"/>
      </g>
     </g>
    </g>
    <g id="ytick_10">
     <g id="line2d_22">
      <g>
       <use xlink:href="#m15000d0d1f" x="460.825" y="196.904603" style="stroke: #000000; stroke-width: 0.8"/>
      </g>
     </g>
     <g id="text_22">
      <!-- 2 -->
      <g transform="translate(467.825 200.703822)scale(0.1 -0.1)">
       <use xlink:href="#DejaVuSans-32"/>
      </g>
     </g>
    </g>
    <g id="ytick_11">
     <g id="line2d_23">
      <g>
       <use xlink:href="#m15000d0d1f" x="460.825" y="145.178827" style="stroke: #000000; stroke-width: 0.8"/>
      </g>
     </g>
     <g id="text_23">
      <!-- 3 -->
      <g transform="translate(467.825 148.978045)scale(0.1 -0.1)">
       <use xlink:href="#DejaVuSans-33"/>
      </g>
     </g>
    </g>
    <g id="ytick_12">
     <g id="line2d_24">
      <g>
       <use xlink:href="#m15000d0d1f" x="460.825" y="93.45305" style="stroke: #000000; stroke-width: 0.8"/>
      </g>
     </g>
     <g id="text_24">
      <!-- 4 -->
      <g transform="translate(467.825 97.252268)scale(0.1 -0.1)">
       <use xlink:href="#DejaVuSans-34"/>
      </g>
     </g>
    </g>
    <g id="ytick_13">
     <g id="line2d_25">
      <g>
       <use xlink:href="#m15000d0d1f" x="460.825" y="41.727273" style="stroke: #000000; stroke-width: 0.8"/>
      </g>
     </g>
     <g id="text_25">
      <!-- 5 -->
      <g transform="translate(467.825 45.526491)scale(0.1 -0.1)">
       <use xlink:href="#DejaVuSans-35"/>
      </g>
     </g>
    </g>
    <g id="text_26">
     <!-- Temperature -->
     <g transform="translate(489.585156 218.504297)rotate(-90)scale(0.15 -0.15)">
      <defs>
       <path id="DejaVuSans-54" d="M -19 4666 
L 3928 4666 
L 3928 4134 
L 2272 4134 
L 2272 0 
L 1638 0 
L 1638 4134 
L -19 4134 
L -19 4666 
z
" transform="scale(0.015625)"/>
       <path id="DejaVuSans-74" d="M 1172 4494 
L 1172 3500 
L 2356 3500 
L 2356 3053 
L 1172 3053 
L 1172 1153 
Q 1172 725 1289 603 
Q 1406 481 1766 481 
L 2356 481 
L 2356 0 
L 1766 0 
Q 1100 0 847 248 
Q 594 497 594 1153 
L 594 3053 
L 172 3053 
L 172 3500 
L 594 3500 
L 594 4494 
L 1172 4494 
z
" transform="scale(0.015625)"/>
       <path id="DejaVuSans-75" d="M 544 1381 
L 544 3500 
L 1119 3500 
L 1119 1403 
Q 1119 906 1312 657 
Q 1506 409 1894 409 
Q 2359 409 2629 706 
Q 2900 1003 2900 1516 
L 2900 3500 
L 3475 3500 
L 3475 0 
L 2900 0 
L 2900 538 
Q 2691 219 2414 64 
Q 2138 -91 1772 -91 
Q 1169 -91 856 284 
Q 544 659 544 1381 
z
M 1991 3584 
L 1991 3584 
z
" transform="scale(0.015625)"/>
      </defs>
      <use xlink:href="#DejaVuSans-54"/>
      <use xlink:href="#DejaVuSans-65" x="44.083984"/>
      <use xlink:href="#DejaVuSans-6d" x="105.607422"/>
      <use xlink:href="#DejaVuSans-70" x="203.019531"/>
      <use xlink:href="#DejaVuSans-65" x="266.496094"/>
      <use xlink:href="#DejaVuSans-72" x="328.019531"/>
      <use xlink:href="#DejaVuSans-61" x="369.132812"/>
      <use xlink:href="#DejaVuSans-74" x="430.412109"/>
      <use xlink:href="#DejaVuSans-75" x="469.621094"/>
      <use xlink:href="#DejaVuSans-72" x="533"/>
      <use xlink:href="#DejaVuSans-65" x="571.863281"/>
     </g>
    </g>
   </g>
   <g id="line2d_26">
    <path d="M 74.329545 41.727273 
L 77.64568 59.796179 
L 80.961814 76.602714 
L 84.277948 92.235075 
L 87.594083 106.775292 
L 90.910217 120.299669 
L 94.226351 132.879175 
L 97.542486 144.579825 
L 100.85862 155.463017 
L 104.174754 165.585863 
L 107.490889 175.001485 
L 110.807023 183.759292 
L 114.123157 191.905241 
L 117.439292 199.48208 
L 120.755426 206.529569 
L 124.07156 213.084691 
L 127.387695 219.181844 
L 130.703829 224.853024 
L 134.019963 230.127992 
L 137.704557 235.557975 
L 141.389151 240.568116 
L 145.073744 245.190878 
L 148.758338 249.456211 
L 152.442932 253.391752 
L 156.127525 257.023001 
L 160.180578 260.693942 
L 164.233631 264.053901 
L 168.286684 267.129223 
L 172.339737 269.944021 
L 176.76125 272.743467 
L 181.182762 275.285223 
L 185.972734 277.775454 
L 190.762706 280.018336 
L 195.921137 282.185254 
L 201.448028 284.251415 
L 206.974918 286.082639 
L 212.870268 287.807033 
L 219.134077 289.41153 
L 225.766346 290.887385 
L 233.135533 292.295013 
L 240.87318 293.548388 
L 249.347745 294.698674 
L 258.927689 295.766744 
L 269.613011 296.721977 
L 281.403711 297.547031 
L 295.036707 298.270409 
L 310.88046 298.880507 
L 330.040347 299.385086 
L 353.990206 299.780603 
L 385.677712 300.068067 
L 432.840511 300.253311 
L 442.420455 300.272727 
L 442.420455 300.272727 
" clip-path="url(#p79f51c6c9b)" style="fill: none; stroke: #ff0000; stroke-width: 1.5; stroke-linecap: square"/>
   </g>
   <g id="patch_8">
    <path d="M 55.925 313.2 
L 55.925 28.8 
" style="fill: none; stroke: #000000; stroke-width: 0.8; stroke-linejoin: miter; stroke-linecap: square"/>
   </g>
   <g id="patch_9">
    <path d="M 460.825 313.2 
L 460.825 28.8 
" style="fill: none; stroke: #000000; stroke-width: 0.8; stroke-linejoin: miter; stroke-linecap: square"/>
   </g>
   <g id="patch_10">
    <path d="M 55.925 313.2 
L 460.825 313.2 
" style="fill: none; stroke: #000000; stroke-width: 0.8; stroke-linejoin: miter; stroke-linecap: square"/>
   </g>
   <g id="patch_11">
    <path d="M 55.925 28.8 
L 460.825 28.8 
" style="fill: none; stroke: #000000; stroke-width: 0.8; stroke-linejoin: miter; stroke-linecap: square"/>
   </g>
   <g id="legend_2">
    <g id="patch_12">
     <path d="M 62.925 51.478125 
L 158.264063 51.478125 
Q 160.264063 51.478125 160.264063 49.478125 
L 160.264063 35.8 
Q 160.264063 33.8 158.264063 33.8 
L 62.925 33.8 
Q 60.925 33.8 60.925 35.8 
L 60.925 49.478125 
Q 60.925 51.478125 62.925 51.478125 
z
" style="fill: #ffffff; opacity: 0.8; stroke: #cccccc; stroke-linejoin: miter"/>
    </g>
    <g id="line2d_27">
     <path d="M 64.925 41.898438 
L 74.925 41.898438 
L 84.925 41.898438 
" style="fill: none; stroke: #ff0000; stroke-width: 1.5; stroke-linecap: square"/>
    </g>
    <g id="text_27">
     <!-- Temperature -->
     <g transform="translate(92.925 45.398438)scale(0.1 -0.1)">
      <use xlink:href="#DejaVuSans-54"/>
      <use xlink:href="#DejaVuSans-65" x="44.083984"/>
      <use xlink:href="#DejaVuSans-6d" x="105.607422"/>
      <use xlink:href="#DejaVuSans-70" x="203.019531"/>
      <use xlink:href="#DejaVuSans-65" x="266.496094"/>
      <use xlink:href="#DejaVuSans-72" x="328.019531"/>
      <use xlink:href="#DejaVuSans-61" x="369.132812"/>
      <use xlink:href="#DejaVuSans-74" x="430.412109"/>
      <use xlink:href="#DejaVuSans-75" x="469.621094"/>
      <use xlink:href="#DejaVuSans-72" x="533"/>
      <use xlink:href="#DejaVuSans-65" x="571.863281"/>
     </g>
    </g>
   </g>
  </g>
 </g>
 <defs>
  <clipPath id="p79f51c6c9b">
   <rect x="55.925" y="28.8" width="404.9" height="284.4"/>
  </clipPath>
 </defs>
</svg>
