<?xml version="1.0" encoding="utf-8" standalone="no"?>
<!DOCTYPE svg PUBLIC "-//W3C//DTD SVG 1.1//EN"
  "http://www.w3.org/Graphics/SVG/1.1/DTD/svg11.dtd">
<svg xmlns:xlink="http://www.w3.org/1999/xlink" width="504pt" height="360pt" viewBox="0 0 504 360" xmlns="http://www.w3.org/2000/svg" version="1.1">
 <metadata>
  <rdf:RDF xmlns:dc="http://purl.org/dc/elements/1.1/" xmlns:cc="http://creativecommons.org/ns#" xmlns:rdf="http://www.w3.org/1999/02/22-rdf-syntax-ns#">
   <cc:Work>
    <dc:type rdf:resource="http://purl.org/dc/dcmitype/StillImage"/>
    <dc:date>2022-07-28T20:50:48.353266</dc:date>
    <dc:format>image/svg+xml</dc:format>
    <dc:creator>
     <cc:Agent>
      <dc:title>Matplotlib v3.5.1, https://matplotlib.org/</dc:title>
     </cc:Agent>
    </dc:creator>
   </cc:Work>
  </rdf:RDF>
 </metadata>
 <defs>
  <style type="text/css">*{stroke-linejoin: round; stroke-linecap: butt}</style>
 </defs>
 <g id="figure_1">
  <g id="patch_1">
   <path d="M 0 360 
L 504 360 
L 504 0 
L 0 0 
L 0 360 
z
" style="fill: none"/>
  </g>
  <g id="axes_1">
   <g id="patch_2">
    <path d="M 55.925 313.2 
L 460.825 313.2 
L 460.825 28.8 
L 55.925 28.8 
z
" style="fill: #ffffff"/>
   </g>
   <g id="matplotlib.axis_1">
    <g id="xtick_1">
     <g id="line2d_1">
      <defs>
       <path id="mce5d1aacfc" d="M 0 0 
L 0 3.5 
" style="stroke: #000000; stroke-width: 0.8"/>
      </defs>
      <g>
       <use xlink:href="#mce5d1aacfc" x="74.329545" y="313.2" style="stroke: #000000; stroke-width: 0.8"/>
      </g>
     </g>
     <g id="text_1">
      <!-- 0 -->
      <g transform="translate(71.148295 327.798437)scale(0.1 -0.1)">
       <defs>
        <path id="DejaVuSans-30" d="M 2034 4250 
Q 1547 4250 1301 3770 
Q 1056 3291 1056 2328 
Q 1056 1369 1301 889 
Q 1547 409 2034 409 
Q 2525 409 2770 889 
Q 3016 1369 3016 2328 
Q 3016 3291 2770 3770 
Q 2525 4250 2034 4250 
z
M 2034 4750 
Q 2819 4750 3233 4129 
Q 3647 3509 3647 2328 
Q 3647 1150 3233 529 
Q 2819 -91 2034 -91 
Q 1250 -91 836 529 
Q 422 1150 422 2328 
Q 422 3509 836 4129 
Q 1250 4750 2034 4750 
z
" transform="scale(0.015625)"/>
       </defs>
       <use xlink:href="#DejaVuSans-30"/>
      </g>
     </g>
    </g>
    <g id="xtick_2">
     <g id="line2d_2">
      <g>
       <use xlink:href="#mce5d1aacfc" x="148.021419" y="313.2" style="stroke: #000000; stroke-width: 0.8"/>
      </g>
     </g>
     <g id="text_2">
      <!-- 200 -->
      <g transform="translate(138.477669 327.798437)scale(0.1 -0.1)">
       <defs>
        <path id="DejaVuSans-32" d="M 1228 531 
L 3431 531 
L 3431 0 
L 469 0 
L 469 531 
Q 828 903 1448 1529 
Q 2069 2156 2228 2338 
Q 2531 2678 2651 2914 
Q 2772 3150 2772 3378 
Q 2772 3750 2511 3984 
Q 2250 4219 1831 4219 
Q 1534 4219 1204 4116 
Q 875 4013 500 3803 
L 500 4441 
Q 881 4594 1212 4672 
Q 1544 4750 1819 4750 
Q 2544 4750 2975 4387 
Q 3406 4025 3406 3419 
Q 3406 3131 3298 2873 
Q 3191 2616 2906 2266 
Q 2828 2175 2409 1742 
Q 1991 1309 1228 531 
z
" transform="scale(0.015625)"/>
       </defs>
       <use xlink:href="#DejaVuSans-32"/>
       <use xlink:href="#DejaVuSans-30" x="63.623047"/>
       <use xlink:href="#DejaVuSans-30" x="127.246094"/>
      </g>
     </g>
    </g>
    <g id="xtick_3">
     <g id="line2d_3">
      <g>
       <use xlink:href="#mce5d1aacfc" x="221.713293" y="313.2" style="stroke: #000000; stroke-width: 0.8"/>
      </g>
     </g>
     <g id="text_3">
      <!-- 400 -->
      <g transform="translate(212.169543 327.798437)scale(0.1 -0.1)">
       <defs>
        <path id="DejaVuSans-34" d="M 2419 4116 
L 825 1625 
L 2419 1625 
L 2419 4116 
z
M 2253 4666 
L 3047 4666 
L 3047 1625 
L 3713 1625 
L 3713 1100 
L 3047 1100 
L 3047 0 
L 2419 0 
L 2419 1100 
L 313 1100 
L 313 1709 
L 2253 4666 
z
" transform="scale(0.015625)"/>
       </defs>
       <use xlink:href="#DejaVuSans-34"/>
       <use xlink:href="#DejaVuSans-30" x="63.623047"/>
       <use xlink:href="#DejaVuSans-30" x="127.246094"/>
      </g>
     </g>
    </g>
    <g id="xtick_4">
     <g id="line2d_4">
      <g>
       <use xlink:href="#mce5d1aacfc" x="295.405167" y="313.2" style="stroke: #000000; stroke-width: 0.8"/>
      </g>
     </g>
     <g id="text_4">
      <!-- 600 -->
      <g transform="translate(285.861417 327.798437)scale(0.1 -0.1)">
       <defs>
        <path id="DejaVuSans-36" d="M 2113 2584 
Q 1688 2584 1439 2293 
Q 1191 2003 1191 1497 
Q 1191 994 1439 701 
Q 1688 409 2113 409 
Q 2538 409 2786 701 
Q 3034 994 3034 1497 
Q 3034 2003 2786 2293 
Q 2538 2584 2113 2584 
z
M 3366 4563 
L 3366 3988 
Q 3128 4100 2886 4159 
Q 2644 4219 2406 4219 
Q 1781 4219 1451 3797 
Q 1122 3375 1075 2522 
Q 1259 2794 1537 2939 
Q 1816 3084 2150 3084 
Q 2853 3084 3261 2657 
Q 3669 2231 3669 1497 
Q 3669 778 3244 343 
Q 2819 -91 2113 -91 
Q 1303 -91 875 529 
Q 447 1150 447 2328 
Q 447 3434 972 4092 
Q 1497 4750 2381 4750 
Q 2619 4750 2861 4703 
Q 3103 4656 3366 4563 
z
" transform="scale(0.015625)"/>
       </defs>
       <use xlink:href="#DejaVuSans-36"/>
       <use xlink:href="#DejaVuSans-30" x="63.623047"/>
       <use xlink:href="#DejaVuSans-30" x="127.246094"/>
      </g>
     </g>
    </g>
    <g id="xtick_5">
     <g id="line2d_5">
      <g>
       <use xlink:href="#mce5d1aacfc" x="369.09704" y="313.2" style="stroke: #000000; stroke-width: 0.8"/>
      </g>
     </g>
     <g id="text_5">
      <!-- 800 -->
      <g transform="translate(359.55329 327.798437)scale(0.1 -0.1)">
       <defs>
        <path id="DejaVuSans-38" d="M 2034 2216 
Q 1584 2216 1326 1975 
Q 1069 1734 1069 1313 
Q 1069 891 1326 650 
Q 1584 409 2034 409 
Q 2484 409 2743 651 
Q 3003 894 3003 1313 
Q 3003 1734 2745 1975 
Q 2488 2216 2034 2216 
z
M 1403 2484 
Q 997 2584 770 2862 
Q 544 3141 544 3541 
Q 544 4100 942 4425 
Q 1341 4750 2034 4750 
Q 2731 4750 3128 4425 
Q 3525 4100 3525 3541 
Q 3525 3141 3298 2862 
Q 3072 2584 2669 2484 
Q 3125 2378 3379 2068 
Q 3634 1759 3634 1313 
Q 3634 634 3220 271 
Q 2806 -91 2034 -91 
Q 1263 -91 848 271 
Q 434 634 434 1313 
Q 434 1759 690 2068 
Q 947 2378 1403 2484 
z
M 1172 3481 
Q 1172 3119 1398 2916 
Q 1625 2713 2034 2713 
Q 2441 2713 2670 2916 
Q 2900 3119 2900 3481 
Q 2900 3844 2670 4047 
Q 2441 4250 2034 4250 
Q 1625 4250 1398 4047 
Q 1172 3844 1172 3481 
z
" transform="scale(0.015625)"/>
       </defs>
       <use xlink:href="#DejaVuSans-38"/>
       <use xlink:href="#DejaVuSans-30" x="63.623047"/>
       <use xlink:href="#DejaVuSans-30" x="127.246094"/>
      </g>
     </g>
    </g>
    <g id="xtick_6">
     <g id="line2d_6">
      <g>
       <use xlink:href="#mce5d1aacfc" x="442.788914" y="313.2" style="stroke: #000000; stroke-width: 0.8"/>
      </g>
     </g>
     <g id="text_6">
      <!-- 1000 -->
      <g transform="translate(430.063914 327.798437)scale(0.1 -0.1)">
       <defs>
        <path id="DejaVuSans-31" d="M 794 531 
L 1825 531 
L 1825 4091 
L 703 3866 
L 703 4441 
L 1819 4666 
L 2450 4666 
L 2450 531 
L 3481 531 
L 3481 0 
L 794 0 
L 794 531 
z
" transform="scale(0.015625)"/>
       </defs>
       <use xlink:href="#DejaVuSans-31"/>
       <use xlink:href="#DejaVuSans-30" x="63.623047"/>
       <use xlink:href="#DejaVuSans-30" x="127.246094"/>
       <use xlink:href="#DejaVuSans-30" x="190.869141"/>
      </g>
     </g>
    </g>
    <g id="text_7">
     <!-- Episode -->
     <g transform="translate(228.91875 345.275781)scale(0.15 -0.15)">
      <defs>
       <path id="DejaVuSans-45" d="M 628 4666 
L 3578 4666 
L 3578 4134 
L 1259 4134 
L 1259 2753 
L 3481 2753 
L 3481 2222 
L 1259 2222 
L 1259 531 
L 3634 531 
L 3634 0 
L 628 0 
L 628 4666 
z
" transform="scale(0.015625)"/>
       <path id="DejaVuSans-70" d="M 1159 525 
L 1159 -1331 
L 581 -1331 
L 581 3500 
L 1159 3500 
L 1159 2969 
Q 1341 3281 1617 3432 
Q 1894 3584 2278 3584 
Q 2916 3584 3314 3078 
Q 3713 2572 3713 1747 
Q 3713 922 3314 415 
Q 2916 -91 2278 -91 
Q 1894 -91 1617 61 
Q 1341 213 1159 525 
z
M 3116 1747 
Q 3116 2381 2855 2742 
Q 2594 3103 2138 3103 
Q 1681 3103 1420 2742 
Q 1159 2381 1159 1747 
Q 1159 1113 1420 752 
Q 1681 391 2138 391 
Q 2594 391 2855 752 
Q 3116 1113 3116 1747 
z
" transform="scale(0.015625)"/>
       <path id="DejaVuSans-69" d="M 603 3500 
L 1178 3500 
L 1178 0 
L 603 0 
L 603 3500 
z
M 603 4863 
L 1178 4863 
L 1178 4134 
L 603 4134 
L 603 4863 
z
" transform="scale(0.015625)"/>
       <path id="DejaVuSans-73" d="M 2834 3397 
L 2834 2853 
Q 2591 2978 2328 3040 
Q 2066 3103 1784 3103 
Q 1356 3103 1142 2972 
Q 928 2841 928 2578 
Q 928 2378 1081 2264 
Q 1234 2150 1697 2047 
L 1894 2003 
Q 2506 1872 2764 1633 
Q 3022 1394 3022 966 
Q 3022 478 2636 193 
Q 2250 -91 1575 -91 
Q 1294 -91 989 -36 
Q 684 19 347 128 
L 347 722 
Q 666 556 975 473 
Q 1284 391 1588 391 
Q 1994 391 2212 530 
Q 2431 669 2431 922 
Q 2431 1156 2273 1281 
Q 2116 1406 1581 1522 
L 1381 1569 
Q 847 1681 609 1914 
Q 372 2147 372 2553 
Q 372 3047 722 3315 
Q 1072 3584 1716 3584 
Q 2034 3584 2315 3537 
Q 2597 3491 2834 3397 
z
" transform="scale(0.015625)"/>
       <path id="DejaVuSans-6f" d="M 1959 3097 
Q 1497 3097 1228 2736 
Q 959 2375 959 1747 
Q 959 1119 1226 758 
Q 1494 397 1959 397 
Q 2419 397 2687 759 
Q 2956 1122 2956 1747 
Q 2956 2369 2687 2733 
Q 2419 3097 1959 3097 
z
M 1959 3584 
Q 2709 3584 3137 3096 
Q 3566 2609 3566 1747 
Q 3566 888 3137 398 
Q 2709 -91 1959 -91 
Q 1206 -91 779 398 
Q 353 888 353 1747 
Q 353 2609 779 3096 
Q 1206 3584 1959 3584 
z
" transform="scale(0.015625)"/>
       <path id="DejaVuSans-64" d="M 2906 2969 
L 2906 4863 
L 3481 4863 
L 3481 0 
L 2906 0 
L 2906 525 
Q 2725 213 2448 61 
Q 2172 -91 1784 -91 
Q 1150 -91 751 415 
Q 353 922 353 1747 
Q 353 2572 751 3078 
Q 1150 3584 1784 3584 
Q 2172 3584 2448 3432 
Q 2725 3281 2906 2969 
z
M 947 1747 
Q 947 1113 1208 752 
Q 1469 391 1925 391 
Q 2381 391 2643 752 
Q 2906 1113 2906 1747 
Q 2906 2381 2643 2742 
Q 2381 3103 1925 3103 
Q 1469 3103 1208 2742 
Q 947 2381 947 1747 
z
" transform="scale(0.015625)"/>
       <path id="DejaVuSans-65" d="M 3597 1894 
L 3597 1613 
L 953 1613 
Q 991 1019 1311 708 
Q 1631 397 2203 397 
Q 2534 397 2845 478 
Q 3156 559 3463 722 
L 3463 178 
Q 3153 47 2828 -22 
Q 2503 -91 2169 -91 
Q 1331 -91 842 396 
Q 353 884 353 1716 
Q 353 2575 817 3079 
Q 1281 3584 2069 3584 
Q 2775 3584 3186 3129 
Q 3597 2675 3597 1894 
z
M 3022 2063 
Q 3016 2534 2758 2815 
Q 2500 3097 2075 3097 
Q 1594 3097 1305 2825 
Q 1016 2553 972 2059 
L 3022 2063 
z
" transform="scale(0.015625)"/>
      </defs>
      <use xlink:href="#DejaVuSans-45"/>
      <use xlink:href="#DejaVuSans-70" x="63.183594"/>
      <use xlink:href="#DejaVuSans-69" x="126.660156"/>
      <use xlink:href="#DejaVuSans-73" x="154.443359"/>
      <use xlink:href="#DejaVuSans-6f" x="206.542969"/>
      <use xlink:href="#DejaVuSans-64" x="267.724609"/>
      <use xlink:href="#DejaVuSans-65" x="331.201172"/>
     </g>
    </g>
   </g>
   <g id="matplotlib.axis_2">
    <g id="ytick_1">
     <g id="line2d_7">
      <defs>
       <path id="m00e9917907" d="M 0 0 
L -3.5 0 
" style="stroke: #000000; stroke-width: 0.8"/>
      </defs>
      <g>
       <use xlink:href="#m00e9917907" x="55.925" y="313.2" style="stroke: #000000; stroke-width: 0.8"/>
      </g>
     </g>
     <g id="text_8">
      <!-- 0 -->
      <g transform="translate(42.5625 316.999219)scale(0.1 -0.1)">
       <use xlink:href="#DejaVuSans-30"/>
      </g>
     </g>
    </g>
    <g id="ytick_2">
     <g id="line2d_8">
      <g>
       <use xlink:href="#m00e9917907" x="55.925" y="269.446154" style="stroke: #000000; stroke-width: 0.8"/>
      </g>
     </g>
     <g id="text_9">
      <!-- 100 -->
      <g transform="translate(29.8375 273.245373)scale(0.1 -0.1)">
       <use xlink:href="#DejaVuSans-31"/>
       <use xlink:href="#DejaVuSans-30" x="63.623047"/>
       <use xlink:href="#DejaVuSans-30" x="127.246094"/>
      </g>
     </g>
    </g>
    <g id="ytick_3">
     <g id="line2d_9">
      <g>
       <use xlink:href="#m00e9917907" x="55.925" y="225.692308" style="stroke: #000000; stroke-width: 0.8"/>
      </g>
     </g>
     <g id="text_10">
      <!-- 200 -->
      <g transform="translate(29.8375 229.491526)scale(0.1 -0.1)">
       <use xlink:href="#DejaVuSans-32"/>
       <use xlink:href="#DejaVuSans-30" x="63.623047"/>
       <use xlink:href="#DejaVuSans-30" x="127.246094"/>
      </g>
     </g>
    </g>
    <g id="ytick_4">
     <g id="line2d_10">
      <g>
       <use xlink:href="#m00e9917907" x="55.925" y="181.938462" style="stroke: #000000; stroke-width: 0.8"/>
      </g>
     </g>
     <g id="text_11">
      <!-- 300 -->
      <g transform="translate(29.8375 185.73768)scale(0.1 -0.1)">
       <defs>
        <path id="DejaVuSans-33" d="M 2597 2516 
Q 3050 2419 3304 2112 
Q 3559 1806 3559 1356 
Q 3559 666 3084 287 
Q 2609 -91 1734 -91 
Q 1441 -91 1130 -33 
Q 819 25 488 141 
L 488 750 
Q 750 597 1062 519 
Q 1375 441 1716 441 
Q 2309 441 2620 675 
Q 2931 909 2931 1356 
Q 2931 1769 2642 2001 
Q 2353 2234 1838 2234 
L 1294 2234 
L 1294 2753 
L 1863 2753 
Q 2328 2753 2575 2939 
Q 2822 3125 2822 3475 
Q 2822 3834 2567 4026 
Q 2313 4219 1838 4219 
Q 1578 4219 1281 4162 
Q 984 4106 628 3988 
L 628 4550 
Q 988 4650 1302 4700 
Q 1616 4750 1894 4750 
Q 2613 4750 3031 4423 
Q 3450 4097 3450 3541 
Q 3450 3153 3228 2886 
Q 3006 2619 2597 2516 
z
" transform="scale(0.015625)"/>
       </defs>
       <use xlink:href="#DejaVuSans-33"/>
       <use xlink:href="#DejaVuSans-30" x="63.623047"/>
       <use xlink:href="#DejaVuSans-30" x="127.246094"/>
      </g>
     </g>
    </g>
    <g id="ytick_5">
     <g id="line2d_11">
      <g>
       <use xlink:href="#m00e9917907" x="55.925" y="138.184615" style="stroke: #000000; stroke-width: 0.8"/>
      </g>
     </g>
     <g id="text_12">
      <!-- 400 -->
      <g transform="translate(29.8375 141.983834)scale(0.1 -0.1)">
       <use xlink:href="#DejaVuSans-34"/>
       <use xlink:href="#DejaVuSans-30" x="63.623047"/>
       <use xlink:href="#DejaVuSans-30" x="127.246094"/>
      </g>
     </g>
    </g>
    <g id="ytick_6">
     <g id="line2d_12">
      <g>
       <use xlink:href="#m00e9917907" x="55.925" y="94.430769" style="stroke: #000000; stroke-width: 0.8"/>
      </g>
     </g>
     <g id="text_13">
      <!-- 500 -->
      <g transform="translate(29.8375 98.229988)scale(0.1 -0.1)">
       <defs>
        <path id="DejaVuSans-35" d="M 691 4666 
L 3169 4666 
L 3169 4134 
L 1269 4134 
L 1269 2991 
Q 1406 3038 1543 3061 
Q 1681 3084 1819 3084 
Q 2600 3084 3056 2656 
Q 3513 2228 3513 1497 
Q 3513 744 3044 326 
Q 2575 -91 1722 -91 
Q 1428 -91 1123 -41 
Q 819 9 494 109 
L 494 744 
Q 775 591 1075 516 
Q 1375 441 1709 441 
Q 2250 441 2565 725 
Q 2881 1009 2881 1497 
Q 2881 1984 2565 2268 
Q 2250 2553 1709 2553 
Q 1456 2553 1204 2497 
Q 953 2441 691 2322 
L 691 4666 
z
" transform="scale(0.015625)"/>
       </defs>
       <use xlink:href="#DejaVuSans-35"/>
       <use xlink:href="#DejaVuSans-30" x="63.623047"/>
       <use xlink:href="#DejaVuSans-30" x="127.246094"/>
      </g>
     </g>
    </g>
    <g id="ytick_7">
     <g id="line2d_13">
      <g>
       <use xlink:href="#m00e9917907" x="55.925" y="50.676923" style="stroke: #000000; stroke-width: 0.8"/>
      </g>
     </g>
     <g id="text_14">
      <!-- 600 -->
      <g transform="translate(29.8375 54.476142)scale(0.1 -0.1)">
       <use xlink:href="#DejaVuSans-36"/>
       <use xlink:href="#DejaVuSans-30" x="63.623047"/>
       <use xlink:href="#DejaVuSans-30" x="127.246094"/>
      </g>
     </g>
    </g>
    <g id="text_15">
     <!-- Score -->
     <g transform="translate(22.717969 192.003516)rotate(-90)scale(0.15 -0.15)">
      <defs>
       <path id="DejaVuSans-53" d="M 3425 4513 
L 3425 3897 
Q 3066 4069 2747 4153 
Q 2428 4238 2131 4238 
Q 1616 4238 1336 4038 
Q 1056 3838 1056 3469 
Q 1056 3159 1242 3001 
Q 1428 2844 1947 2747 
L 2328 2669 
Q 3034 2534 3370 2195 
Q 3706 1856 3706 1288 
Q 3706 609 3251 259 
Q 2797 -91 1919 -91 
Q 1588 -91 1214 -16 
Q 841 59 441 206 
L 441 856 
Q 825 641 1194 531 
Q 1563 422 1919 422 
Q 2459 422 2753 634 
Q 3047 847 3047 1241 
Q 3047 1584 2836 1778 
Q 2625 1972 2144 2069 
L 1759 2144 
Q 1053 2284 737 2584 
Q 422 2884 422 3419 
Q 422 4038 858 4394 
Q 1294 4750 2059 4750 
Q 2388 4750 2728 4690 
Q 3069 4631 3425 4513 
z
" transform="scale(0.015625)"/>
       <path id="DejaVuSans-63" d="M 3122 3366 
L 3122 2828 
Q 2878 2963 2633 3030 
Q 2388 3097 2138 3097 
Q 1578 3097 1268 2742 
Q 959 2388 959 1747 
Q 959 1106 1268 751 
Q 1578 397 2138 397 
Q 2388 397 2633 464 
Q 2878 531 3122 666 
L 3122 134 
Q 2881 22 2623 -34 
Q 2366 -91 2075 -91 
Q 1284 -91 818 406 
Q 353 903 353 1747 
Q 353 2603 823 3093 
Q 1294 3584 2113 3584 
Q 2378 3584 2631 3529 
Q 2884 3475 3122 3366 
z
" transform="scale(0.015625)"/>
       <path id="DejaVuSans-72" d="M 2631 2963 
Q 2534 3019 2420 3045 
Q 2306 3072 2169 3072 
Q 1681 3072 1420 2755 
Q 1159 2438 1159 1844 
L 1159 0 
L 581 0 
L 581 3500 
L 1159 3500 
L 1159 2956 
Q 1341 3275 1631 3429 
Q 1922 3584 2338 3584 
Q 2397 3584 2469 3576 
Q 2541 3569 2628 3553 
L 2631 2963 
z
" transform="scale(0.015625)"/>
      </defs>
      <use xlink:href="#DejaVuSans-53"/>
      <use xlink:href="#DejaVuSans-63" x="63.476562"/>
      <use xlink:href="#DejaVuSans-6f" x="118.457031"/>
      <use xlink:href="#DejaVuSans-72" x="179.638672"/>
      <use xlink:href="#DejaVuSans-65" x="218.501953"/>
     </g>
    </g>
   </g>
   <g id="line2d_14">
    <path d="M 74.329545 290.448 
L 74.698005 302.699077 
L 75.066464 308.824615 
L 75.434924 287.822769 
L 75.803383 306.636923 
L 76.171842 301.386462 
L 76.540302 306.199385 
L 76.908761 304.011692 
L 77.27722 307.074462 
L 77.64568 294.385846 
L 78.014139 304.886769 
L 78.382599 307.074462 
L 78.751058 293.073231 
L 79.487977 297.886154 
L 79.856436 302.699077 
L 80.224895 302.261538 
L 80.593355 302.699077 
L 80.961814 308.824615 
L 81.698733 301.824 
L 82.067192 308.387077 
L 82.435652 306.199385 
L 82.804111 306.636923 
L 83.17257 301.386462 
L 83.54103 308.387077 
L 83.909489 305.324308 
L 84.277948 306.199385 
L 84.646408 304.886769 
L 85.014867 300.948923 
L 85.383327 307.074462 
L 85.751786 304.011692 
L 86.120245 299.198769 
L 86.488705 304.011692 
L 86.857164 303.574154 
L 87.225623 304.886769 
L 87.594083 297.448615 
L 87.962542 301.824 
L 88.331001 304.449231 
L 88.699461 307.949538 
L 89.06792 284.76 
L 89.43638 302.699077 
L 89.804839 301.386462 
L 90.173298 302.699077 
L 90.541758 303.136615 
L 90.910217 306.636923 
L 91.278676 306.199385 
L 91.647136 306.636923 
L 92.015595 301.386462 
L 92.384055 302.699077 
L 92.752514 307.512 
L 93.120973 306.199385 
L 93.489433 300.073846 
L 93.857892 300.511385 
L 94.226351 300.073846 
L 94.594811 306.199385 
L 94.96327 304.011692 
L 95.331729 303.136615 
L 95.700189 307.512 
L 96.068648 307.949538 
L 96.437108 300.948923 
L 96.805567 307.074462 
L 97.174026 305.761846 
L 97.542486 298.323692 
L 97.910945 307.512 
L 98.279404 303.574154 
L 98.647864 307.949538 
L 99.016323 298.761231 
L 99.384783 308.824615 
L 99.753242 307.949538 
L 100.121701 304.449231 
L 100.490161 302.699077 
L 100.85862 304.886769 
L 101.227079 306.199385 
L 101.595539 288.697846 
L 101.963998 290.885538 
L 102.332457 306.636923 
L 102.700917 306.636923 
L 103.069376 293.510769 
L 103.437836 300.948923 
L 103.806295 293.510769 
L 104.174754 302.261538 
L 104.543214 303.136615 
L 104.911673 303.574154 
L 105.280132 285.197538 
L 105.648592 306.199385 
L 106.017051 305.761846 
L 106.385511 302.699077 
L 106.75397 302.699077 
L 107.122429 308.387077 
L 107.490889 307.512 
L 107.859348 304.011692 
L 108.227807 299.198769 
L 108.964726 306.636923 
L 109.333185 305.761846 
L 109.701645 303.574154 
L 110.070104 308.824615 
L 110.438564 306.636923 
L 110.807023 305.324308 
L 111.175482 307.074462 
L 111.543942 305.761846 
L 111.912401 300.511385 
L 112.28086 300.948923 
L 113.017779 302.699077 
L 113.386239 307.074462 
L 113.754698 307.512 
L 114.123157 304.449231 
L 114.491617 304.011692 
L 114.860076 300.948923 
L 115.228535 307.949538 
L 115.596995 304.449231 
L 115.965454 294.823385 
L 116.333913 307.074462 
L 116.702373 301.386462 
L 117.070832 302.699077 
L 117.439292 301.386462 
L 117.807751 303.574154 
L 118.17621 307.074462 
L 118.54467 302.699077 
L 118.913129 304.449231 
L 119.281588 308.387077 
L 119.650048 306.199385 
L 120.018507 278.196923 
L 120.386967 302.699077 
L 120.755426 305.761846 
L 121.123885 293.510769 
L 121.492345 305.324308 
L 121.860804 305.324308 
L 122.229263 286.947692 
L 122.597723 305.761846 
L 122.966182 307.512 
L 123.334641 306.636923 
L 123.703101 301.824 
L 124.44002 306.199385 
L 124.808479 305.761846 
L 125.176938 294.385846 
L 125.913857 301.824 
L 126.282316 285.635077 
L 126.650776 297.011077 
L 127.019235 301.824 
L 127.387695 308.824615 
L 127.756154 307.949538 
L 128.124613 308.387077 
L 128.861532 295.260923 
L 129.229991 304.886769 
L 129.598451 307.074462 
L 129.96691 283.447385 
L 130.335369 307.949538 
L 130.703829 303.574154 
L 131.072288 305.324308 
L 131.440748 304.449231 
L 131.809207 302.261538 
L 132.177666 300.948923 
L 132.546126 303.574154 
L 132.914585 307.949538 
L 133.651504 301.386462 
L 134.019963 291.760615 
L 134.388423 305.324308 
L 134.756882 298.761231 
L 135.125341 302.261538 
L 135.493801 297.886154 
L 135.86226 281.697231 
L 136.230719 297.886154 
L 136.599179 306.636923 
L 136.967638 297.011077 
L 137.336097 305.324308 
L 138.073016 283.009846 
L 138.441476 293.510769 
L 138.809935 298.761231 
L 139.178394 296.573538 
L 139.546854 305.324308 
L 139.915313 299.198769 
L 140.283772 296.136 
L 140.652232 304.449231 
L 141.020691 306.199385 
L 141.389151 304.886769 
L 141.75761 305.324308 
L 142.126069 291.323077 
L 142.494529 292.198154 
L 143.231447 301.386462 
L 143.599907 291.760615 
L 143.968366 304.886769 
L 144.336825 300.948923 
L 144.705285 284.76 
L 145.442204 308.387077 
L 145.810663 307.074462 
L 146.179122 301.386462 
L 146.547582 293.510769 
L 146.916041 307.074462 
L 147.2845 304.886769 
L 147.65296 293.510769 
L 148.021419 307.949538 
L 148.389879 302.261538 
L 149.126797 306.199385 
L 149.495257 303.136615 
L 149.863716 305.324308 
L 150.232175 303.136615 
L 150.600635 304.011692 
L 150.969094 306.199385 
L 151.337553 305.761846 
L 151.706013 304.886769 
L 152.074472 290.885538 
L 152.811391 307.512 
L 153.17985 291.760615 
L 153.54831 305.761846 
L 153.916769 290.448 
L 154.285228 302.261538 
L 154.653688 291.760615 
L 155.390607 304.449231 
L 156.127525 289.572923 
L 156.495985 291.323077 
L 156.864444 308.387077 
L 157.232903 296.573538 
L 157.601363 293.510769 
L 157.969822 297.011077 
L 158.338281 295.698462 
L 158.706741 299.636308 
L 159.0752 297.448615 
L 159.44366 302.261538 
L 159.812119 302.699077 
L 160.180578 293.073231 
L 160.549038 304.886769 
L 161.285956 295.698462 
L 161.654416 305.324308 
L 162.022875 305.324308 
L 162.391335 302.261538 
L 162.759794 304.449231 
L 163.128253 301.824 
L 163.496713 278.634462 
L 163.865172 285.197538 
L 164.233631 304.011692 
L 164.602091 283.009846 
L 164.97055 300.511385 
L 165.707469 287.822769 
L 166.075928 306.199385 
L 166.444388 287.385231 
L 166.812847 298.323692 
L 167.181306 294.385846 
L 167.549766 294.385846 
L 167.918225 304.449231 
L 168.286684 293.073231 
L 168.655144 303.136615 
L 169.023603 293.073231 
L 169.392063 290.885538 
L 169.760522 304.886769 
L 170.128981 251.944615 
L 170.497441 274.259077 
L 171.234359 297.886154 
L 171.602819 302.261538 
L 171.971278 265.508308 
L 172.339737 299.636308 
L 172.708197 286.947692 
L 173.076656 290.010462 
L 173.445116 305.761846 
L 174.182034 276.009231 
L 174.550494 305.324308 
L 174.918953 283.009846 
L 175.287412 301.386462 
L 175.655872 297.886154 
L 176.024331 303.574154 
L 176.392791 303.136615 
L 176.76125 282.134769 
L 177.129709 304.449231 
L 177.498169 286.072615 
L 178.235087 308.387077 
L 178.603547 303.574154 
L 178.972006 250.632 
L 179.340465 285.635077 
L 179.708925 298.323692 
L 180.077384 303.574154 
L 180.445844 304.011692 
L 180.814303 295.260923 
L 181.182762 279.509538 
L 181.551222 300.948923 
L 182.28814 277.759385 
L 182.6566 298.761231 
L 183.025059 266.383385 
L 183.393519 300.948923 
L 183.761978 299.198769 
L 184.130437 304.449231 
L 184.498897 292.635692 
L 184.867356 289.135385 
L 185.235815 253.694769 
L 185.604275 244.506462 
L 185.972734 303.136615 
L 186.341193 297.886154 
L 186.709653 280.384615 
L 187.078112 298.761231 
L 187.446572 285.635077 
L 187.815031 290.885538 
L 188.18349 289.572923 
L 188.55195 265.070769 
L 189.288868 303.574154 
L 190.025787 298.761231 
L 190.394247 283.447385 
L 190.762706 304.886769 
L 191.131165 294.385846 
L 191.499625 305.324308 
L 191.868084 302.261538 
L 192.236543 276.009231 
L 192.605003 278.196923 
L 192.973462 241.881231 
L 193.341921 307.512 
L 193.710381 249.319385 
L 194.07884 276.009231 
L 194.4473 289.572923 
L 194.815759 280.822154 
L 195.184218 304.886769 
L 195.552678 229.630154 
L 195.921137 237.505846 
L 196.289596 286.947692 
L 196.658056 254.569846 
L 197.026515 292.635692 
L 197.394975 282.572308 
L 197.763434 291.760615 
L 198.131893 297.448615 
L 198.500353 289.572923 
L 198.868812 236.193231 
L 199.237271 227.004923 
L 199.97419 288.697846 
L 200.342649 300.073846 
L 200.711109 303.574154 
L 201.079568 237.943385 
L 201.448028 278.634462 
L 201.816487 293.948308 
L 202.184946 249.319385 
L 202.553406 285.635077 
L 202.921865 254.569846 
L 203.290324 256.757538 
L 204.027243 305.761846 
L 204.395703 300.073846 
L 204.764162 255.444923 
L 205.132621 241.006154 
L 205.501081 272.946462 
L 205.86954 283.884923 
L 206.237999 267.696 
L 206.606459 284.322462 
L 206.974918 283.884923 
L 207.343377 287.385231 
L 207.711837 180.625846 
L 208.080296 255.444923 
L 208.448756 269.446154 
L 208.817215 246.256615 
L 209.554134 300.511385 
L 209.922593 284.76 
L 210.291052 273.821538 
L 210.659512 288.697846 
L 211.027971 295.698462 
L 211.396431 260.695385 
L 211.76489 276.884308 
L 212.133349 261.132923 
L 212.501809 283.009846 
L 212.870268 230.505231 
L 213.238727 271.196308 
L 213.607187 262.883077 
L 213.975646 249.756923 
L 214.344105 280.384615 
L 214.712565 257.195077 
L 215.081024 275.571692 
L 215.449484 257.195077 
L 215.817943 266.820923 
L 216.186402 267.258462 
L 216.554862 258.070154 
L 216.923321 270.321231 
L 217.29178 273.384 
L 217.66024 244.944 
L 218.028699 258.507692 
L 218.397159 287.822769 
L 218.765618 273.821538 
L 219.134077 288.260308 
L 219.502537 259.820308 
L 219.870996 300.511385 
L 220.607915 269.446154 
L 220.976374 258.945231 
L 221.344833 272.946462 
L 221.713293 261.132923 
L 222.081752 303.574154 
L 222.450212 251.507077 
L 222.818671 273.384 
L 223.18713 288.260308 
L 223.55559 275.134154 
L 223.924049 271.196308 
L 224.292508 278.196923 
L 224.660968 299.636308 
L 225.029427 277.759385 
L 225.397887 265.508308 
L 225.766346 282.572308 
L 226.134805 250.194462 
L 226.503265 248.881846 
L 226.871724 252.819692 
L 227.240183 279.947077 
L 227.608643 272.071385 
L 227.977102 274.259077 
L 228.345561 271.633846 
L 228.714021 277.759385 
L 229.08248 286.072615 
L 229.45094 305.761846 
L 229.819399 265.508308 
L 230.187858 277.321846 
L 230.556318 259.820308 
L 230.924777 259.382769 
L 231.293236 273.821538 
L 231.661696 278.196923 
L 232.030155 248.881846 
L 232.398615 265.508308 
L 232.767074 269.883692 
L 233.135533 283.884923 
L 233.503993 277.759385 
L 234.240911 235.318154 
L 234.609371 273.384 
L 234.97783 277.759385 
L 235.346289 257.632615 
L 235.714749 275.571692 
L 236.083208 261.132923 
L 236.451668 288.697846 
L 236.820127 274.696615 
L 237.188586 274.259077 
L 237.557046 269.883692 
L 237.925505 269.446154 
L 238.293964 289.572923 
L 239.030883 268.133538 
L 239.399343 281.259692 
L 239.767802 219.566769 
L 240.136261 281.259692 
L 240.504721 263.758154 
L 240.87318 280.822154 
L 241.241639 256.32 
L 241.610099 266.383385 
L 241.978558 281.697231 
L 242.347017 281.697231 
L 242.715477 272.946462 
L 243.083936 255.882462 
L 243.452396 266.820923 
L 243.820855 247.131692 
L 244.926233 291.323077 
L 245.294692 258.507692 
L 245.663152 241.006154 
L 246.031611 283.447385 
L 246.76853 229.630154 
L 247.136989 253.257231 
L 247.505449 293.510769 
L 248.242367 266.383385 
L 248.610827 283.009846 
L 248.979286 286.510154 
L 249.347745 283.447385 
L 249.716205 282.572308 
L 250.453124 271.196308 
L 250.821583 273.384 
L 251.190042 241.881231 
L 251.558502 293.948308 
L 251.926961 262.008 
L 252.29542 260.695385 
L 252.66388 270.321231 
L 253.400799 245.819077 
L 254.137717 277.321846 
L 254.506177 281.259692 
L 254.874636 272.071385 
L 255.243095 240.131077 
L 255.611555 285.635077 
L 255.980014 230.942769 
L 256.348473 277.321846 
L 256.716933 245.381538 
L 257.085392 273.384 
L 257.453852 249.319385 
L 257.822311 275.571692 
L 258.19077 259.820308 
L 258.55923 278.196923 
L 258.927689 262.008 
L 259.296148 227.88 
L 259.664608 276.009231 
L 260.033067 260.257846 
L 260.401527 264.633231 
L 260.769986 253.694769 
L 261.138445 248.881846 
L 261.506905 261.132923 
L 261.875364 259.820308 
L 262.243823 256.757538 
L 262.612283 242.318769 
L 262.980742 237.068308 
L 263.349201 269.446154 
L 263.717661 262.883077 
L 264.08612 258.507692 
L 264.45458 274.696615 
L 264.823039 262.445538 
L 265.191498 238.818462 
L 265.559958 262.445538 
L 265.928417 257.632615 
L 266.296876 258.070154 
L 266.665336 217.816615 
L 267.033795 250.194462 
L 267.770714 272.508923 
L 268.139173 229.630154 
L 268.507633 255.882462 
L 268.876092 264.195692 
L 269.244551 265.070769 
L 269.613011 262.883077 
L 269.98147 258.945231 
L 270.349929 252.382154 
L 270.718389 263.320615 
L 271.086848 258.507692 
L 271.455308 272.946462 
L 271.823767 262.008 
L 272.192226 271.633846 
L 272.560686 262.445538 
L 272.929145 258.507692 
L 273.297604 246.256615 
L 273.666064 278.634462 
L 274.034523 276.884308 
L 274.402983 276.009231 
L 274.771442 272.508923 
L 275.139901 263.320615 
L 275.508361 238.380923 
L 275.87682 268.133538 
L 276.245279 272.071385 
L 276.613739 257.195077 
L 277.350657 261.132923 
L 278.087576 269.883692 
L 278.456036 258.945231 
L 278.824495 273.384 
L 279.192954 251.069538 
L 279.561414 273.821538 
L 279.929873 249.756923 
L 280.666792 279.509538 
L 281.035251 248.881846 
L 281.403711 255.007385 
L 281.77217 266.820923 
L 282.140629 252.819692 
L 282.509089 267.258462 
L 282.877548 267.696 
L 283.246007 265.070769 
L 283.614467 240.568615 
L 283.982926 248.881846 
L 284.351385 261.132923 
L 284.719845 261.570462 
L 285.088304 267.258462 
L 285.456764 246.694154 
L 285.825223 276.446769 
L 286.193682 258.070154 
L 286.562142 232.255385 
L 286.930601 228.317538 
L 287.29906 268.133538 
L 287.66752 252.819692 
L 288.035979 263.758154 
L 288.404439 266.820923 
L 289.141357 207.753231 
L 289.509817 247.569231 
L 289.878276 249.756923 
L 290.246735 265.508308 
L 290.615195 243.631385 
L 290.983654 255.882462 
L 291.352113 256.32 
L 291.720573 250.632 
L 292.089032 248.006769 
L 292.457492 257.632615 
L 292.825951 263.758154 
L 293.19441 266.383385 
L 293.56287 248.444308 
L 293.931329 236.630769 
L 294.299788 244.506462 
L 294.668248 248.006769 
L 295.036707 198.564923 
L 295.405167 253.257231 
L 295.773626 228.755077 
L 296.510545 260.695385 
L 296.879004 251.507077 
L 297.247463 248.006769 
L 297.615923 259.820308 
L 297.984382 245.381538 
L 298.352841 262.883077 
L 298.721301 268.133538 
L 299.45822 258.507692 
L 299.826679 242.756308 
L 300.195138 255.007385 
L 300.563598 257.195077 
L 300.932057 251.069538 
L 301.300516 210.378462 
L 301.668976 188.939077 
L 302.037435 251.944615 
L 302.774354 188.064 
L 303.142813 251.507077 
L 303.511273 247.569231 
L 303.879732 246.694154 
L 304.248191 213.003692 
L 304.616651 260.695385 
L 304.98511 248.444308 
L 305.353569 262.445538 
L 305.722029 248.444308 
L 306.090488 212.566154 
L 306.458948 229.192615 
L 306.827407 236.193231 
L 307.195866 237.505846 
L 307.564326 270.758769 
L 307.932785 264.633231 
L 308.301244 253.257231 
L 308.669704 254.132308 
L 309.406623 241.443692 
L 309.775082 254.569846 
L 310.143541 220.879385 
L 310.512001 255.444923 
L 310.88046 242.318769 
L 311.248919 246.256615 
L 311.617379 265.508308 
L 311.985838 269.883692 
L 312.722757 218.691692 
L 313.091216 248.444308 
L 313.459676 251.069538 
L 313.828135 237.505846 
L 314.196594 210.816 
L 314.565054 265.508308 
L 314.933513 234.443077 
L 315.301972 250.632 
L 315.670432 237.505846 
L 316.407351 251.944615 
L 316.77581 248.444308 
L 317.144269 223.504615 
L 317.512729 256.32 
L 317.881188 233.130462 
L 318.249647 268.133538 
L 318.618107 235.318154 
L 318.986566 261.570462 
L 319.355025 220.441846 
L 319.723485 229.192615 
L 320.091944 266.383385 
L 320.460404 256.32 
L 320.828863 271.633846 
L 321.565782 213.878769 
L 321.934241 263.320615 
L 322.3027 263.758154 
L 322.67116 246.256615 
L 323.039619 265.070769 
L 323.408079 240.568615 
L 323.776538 227.004923 
L 324.144997 261.132923 
L 324.513457 270.321231 
L 324.881916 248.881846 
L 325.250375 258.945231 
L 325.618835 263.758154 
L 325.987294 266.383385 
L 326.355753 244.068923 
L 326.724213 266.820923 
L 327.092672 255.882462 
L 327.461132 254.132308 
L 327.829591 247.569231 
L 328.19805 220.004308 
L 328.56651 247.569231 
L 328.934969 251.069538 
L 329.303428 248.006769 
L 329.671888 225.254769 
L 330.040347 233.130462 
L 330.408807 227.442462 
L 330.777266 269.446154 
L 331.145725 232.692923 
L 331.514185 236.630769 
L 331.882644 271.633846 
L 332.251103 269.008615 
L 332.619563 253.257231 
L 332.988022 260.257846 
L 333.356481 221.754462 
L 334.0934 233.568 
L 334.46186 248.006769 
L 334.830319 224.817231 
L 335.198778 255.882462 
L 335.567238 258.070154 
L 335.935697 214.316308 
L 336.304156 254.569846 
L 336.672616 261.132923 
L 337.041075 264.633231 
L 337.409535 255.444923 
L 337.777994 266.820923 
L 338.514913 256.757538 
L 338.883372 247.131692 
L 339.251831 259.382769 
L 339.620291 267.258462 
L 339.98875 229.630154 
L 340.357209 258.070154 
L 340.725669 267.258462 
L 341.094128 254.132308 
L 341.462588 265.508308 
L 341.831047 257.195077 
L 342.199506 262.008 
L 342.567966 244.506462 
L 342.936425 261.570462 
L 343.304884 237.068308 
L 343.673344 263.320615 
L 344.041803 256.757538 
L 344.410263 266.820923 
L 344.778722 257.632615 
L 345.147181 260.257846 
L 345.515641 247.569231 
L 345.8841 257.195077 
L 346.252559 274.696615 
L 346.621019 267.258462 
L 346.989478 219.129231 
L 347.357937 264.633231 
L 347.726397 251.507077 
L 348.094856 224.817231 
L 348.463316 270.758769 
L 348.831775 141.247385 
L 349.200234 246.256615 
L 349.568694 94.430769 
L 349.937153 267.696 
L 350.305612 102.744 
L 350.674072 245.819077 
L 351.042531 94.430769 
L 351.410991 269.446154 
L 351.77945 244.068923 
L 352.147909 267.258462 
L 352.516369 252.819692 
L 352.884828 264.195692 
L 353.253287 265.070769 
L 353.621747 246.256615 
L 353.990206 262.445538 
L 354.358665 246.694154 
L 354.727125 262.883077 
L 355.095584 222.192 
L 355.464044 224.817231 
L 355.832503 263.758154 
L 356.200962 264.195692 
L 356.569422 246.256615 
L 356.937881 222.192 
L 357.30634 94.430769 
L 357.6748 254.569846 
L 358.043259 266.383385 
L 358.411719 263.758154 
L 358.780178 94.430769 
L 359.148637 94.430769 
L 359.517097 265.070769 
L 359.885556 267.696 
L 360.254015 262.883077 
L 360.622475 266.820923 
L 360.990934 234.443077 
L 361.359393 229.192615 
L 361.727853 94.430769 
L 362.096312 258.070154 
L 362.464772 256.32 
L 362.833231 218.691692 
L 363.20169 94.430769 
L 363.57015 258.507692 
L 363.938609 245.381538 
L 364.307068 265.070769 
L 364.675528 253.694769 
L 365.043987 256.32 
L 365.412447 248.006769 
L 365.780906 242.756308 
L 366.149365 255.444923 
L 366.517825 209.940923 
L 366.886284 255.007385 
L 367.254743 248.006769 
L 367.623203 220.441846 
L 367.991662 94.430769 
L 368.360121 258.507692 
L 368.728581 212.566154 
L 369.09704 250.632 
L 369.4655 258.945231 
L 369.833959 259.382769 
L 370.202418 254.132308 
L 370.570878 246.694154 
L 370.939337 259.820308 
L 371.307796 227.004923 
L 371.676256 252.819692 
L 372.044715 201.627692 
L 372.413175 94.430769 
L 372.781634 260.695385 
L 373.150093 251.069538 
L 373.518553 94.430769 
L 373.887012 223.942154 
L 374.623931 94.430769 
L 374.99239 201.190154 
L 375.360849 248.006769 
L 375.729309 262.883077 
L 376.097768 256.32 
L 376.466228 94.430769 
L 376.834687 256.32 
L 377.203146 94.430769 
L 377.571606 253.257231 
L 377.940065 94.430769 
L 378.308524 94.430769 
L 378.676984 246.694154 
L 379.045443 94.430769 
L 379.413903 94.430769 
L 379.782362 250.632 
L 380.150821 215.191385 
L 380.519281 211.691077 
L 380.88774 94.430769 
L 381.624659 94.430769 
L 381.993118 241.881231 
L 382.361577 94.430769 
L 382.730037 246.256615 
L 383.098496 94.430769 
L 383.466956 94.430769 
L 383.835415 246.256615 
L 384.203874 94.430769 
L 384.572334 94.430769 
L 384.940793 242.756308 
L 385.309252 164.436923 
L 385.677712 257.632615 
L 386.046171 94.430769 
L 386.414631 226.567385 
L 386.78309 94.430769 
L 387.888468 94.430769 
L 388.256927 214.753846 
L 388.625387 219.129231 
L 388.993846 94.430769 
L 389.730765 94.430769 
L 390.099224 244.506462 
L 390.467684 94.430769 
L 390.836143 101.431385 
L 391.204602 94.430769 
L 392.30998 94.430769 
L 392.67844 237.505846 
L 393.046899 94.430769 
L 393.415359 253.257231 
L 393.783818 94.430769 
L 402.258383 94.430769 
L 402.626843 171.875077 
L 402.995302 189.814154 
L 403.363761 165.312 
L 403.732221 102.306462 
L 404.10068 94.430769 
L 409.259111 94.430769 
L 409.627571 105.369231 
L 409.99603 94.430769 
L 428.050539 94.430769 
L 428.050539 94.430769 
" clip-path="url(#pdee2ad4b4f)" style="fill: none; stroke: #708090; stroke-width: 1.5; stroke-linecap: square"/>
   </g>
   <g id="line2d_15">
    <path d="M 74.329545 302.664074 
L 74.698005 303.005354 
L 75.066464 303.07536 
L 75.434924 302.900345 
L 75.803383 303.154117 
L 76.171842 303.022855 
L 76.540302 303.119114 
L 77.64568 303.066609 
L 78.014139 303.337883 
L 78.751058 303.259126 
L 79.119517 303.512898 
L 79.487977 303.565403 
L 79.856436 303.75792 
L 82.435652 303.792923 
L 83.17257 303.75792 
L 83.909489 303.154117 
L 84.646408 303.18912 
L 85.014867 302.9616 
L 85.383327 302.9616 
L 85.751786 302.690326 
L 86.120245 302.655323 
L 86.857164 302.725329 
L 87.225623 302.357797 
L 87.594083 302.384049 
L 87.962542 302.550314 
L 89.06792 302.541563 
L 89.43638 302.996603 
L 91.278676 303.049108 
L 92.015595 303.040357 
L 92.752514 303.197871 
L 95.331729 303.224123 
L 95.700189 303.311631 
L 96.805567 303.171618 
L 97.542486 303.162868 
L 99.016323 302.935348 
L 99.384783 302.987852 
L 100.121701 302.865342 
L 100.85862 302.865342 
L 101.595539 302.935348 
L 101.963998 302.725329 
L 102.332457 302.9616 
L 102.700917 302.944098 
L 103.069376 302.681575 
L 103.437836 302.917846 
L 103.806295 303.005354 
L 104.174754 302.874092 
L 105.280132 303.092862 
L 105.648592 303.425391 
L 106.385511 303.390388 
L 106.75397 303.451643 
L 107.859348 302.970351 
L 108.227807 302.602818 
L 109.333185 302.567815 
L 110.070104 302.707828 
L 111.175482 302.340295 
L 111.543942 302.340295 
L 111.912401 301.894006 
L 112.64932 302.095274 
L 113.386239 302.200283 
L 114.491617 301.955262 
L 115.228535 302.104025 
L 115.596995 301.972763 
L 115.965454 301.718991 
L 116.333913 301.929009 
L 116.702373 301.762745 
L 117.070832 301.780246 
L 117.439292 301.683988 
L 117.807751 301.290203 
L 118.913129 301.053932 
L 119.281588 301.071434 
L 119.650048 300.80016 
L 120.018507 300.336369 
L 120.386967 300.642646 
L 121.123885 300.380123 
L 121.492345 300.616394 
L 122.229263 300.310117 
L 122.597723 300.660148 
L 123.703101 300.590142 
L 124.808479 299.968837 
L 125.545398 299.828825 
L 125.913857 299.960086 
L 127.019235 299.951335 
L 127.387695 300.082597 
L 128.124613 299.916332 
L 128.493073 299.618806 
L 129.229991 299.907582 
L 129.598451 299.680062 
L 129.96691 299.697563 
L 130.335369 300.073846 
L 130.703829 300.00384 
L 131.440748 300.012591 
L 133.651504 300.126351 
L 134.019963 299.916332 
L 134.388423 300.091348 
L 134.756882 300.135102 
L 135.125341 299.995089 
L 135.493801 300.065095 
L 135.86226 299.916332 
L 136.230719 300.327618 
L 136.967638 300.047594 
L 137.336097 300.196357 
L 138.073016 299.916332 
L 138.441476 300.082597 
L 138.809935 300.380123 
L 139.546854 300.275114 
L 140.283772 300.038843 
L 140.652232 300.108849 
L 141.389151 299.89008 
L 141.75761 299.846326 
L 142.126069 299.601305 
L 142.862988 300.030092 
L 143.231447 299.995089 
L 143.599907 300.073846 
L 143.968366 300.34512 
L 144.336825 300.292615 
L 144.705285 300.362622 
L 145.073744 300.703902 
L 145.810663 299.846326 
L 146.179122 299.785071 
L 146.547582 299.417538 
L 146.916041 299.557551 
L 147.65296 298.944997 
L 148.021419 299.198769 
L 148.389879 298.787483 
L 148.758338 298.708726 
L 149.495257 298.271188 
L 149.863716 298.29744 
L 150.232175 298.052418 
L 150.600635 298.052418 
L 151.706013 297.509871 
L 152.074472 296.451028 
L 152.811391 295.803471 
L 153.17985 295.610954 
L 153.54831 295.820972 
L 153.916769 295.015902 
L 154.285228 295.199668 
L 154.653688 294.893391 
L 155.022147 294.858388 
L 155.390607 294.9984 
L 155.759066 294.735877 
L 156.127525 294.324591 
L 156.495985 294.639618 
L 157.232903 294.333342 
L 157.601363 294.359594 
L 158.338281 294.683372 
L 158.706741 294.412098 
L 159.0752 294.508357 
L 159.812119 294.175828 
L 160.549038 294.499606 
L 160.917497 293.414511 
L 161.285956 293.125735 
L 162.022875 293.143237 
L 162.391335 293.116985 
L 162.759794 292.976972 
L 163.128253 292.478178 
L 163.496713 292.460677 
L 163.865172 292.679446 
L 164.602091 292.425674 
L 164.97055 292.093145 
L 165.707469 292.215655 
L 166.075928 292.548185 
L 166.444388 292.276911 
L 166.812847 292.311914 
L 167.549766 290.421748 
L 167.918225 290.596763 
L 168.286684 290.465502 
L 168.655144 290.211729 
L 169.760522 289.975458 
L 170.128981 289.669182 
L 171.602819 290.631766 
L 171.971278 290.56176 
L 172.339737 290.920542 
L 173.076656 291.174314 
L 173.445116 291.480591 
L 173.813575 291.410585 
L 174.182034 291.104308 
L 174.550494 291.148062 
L 174.918953 289.8792 
L 175.287412 290.369243 
L 175.655872 289.327902 
L 176.76125 288.164049 
L 177.129709 288.619089 
L 177.498169 287.122708 
L 177.866628 286.151372 
L 178.235087 285.950105 
L 178.603547 284.87376 
L 178.972006 284.654991 
L 179.340465 285.293797 
L 179.708925 285.416308 
L 180.077384 285.398806 
L 180.445844 285.118782 
L 181.182762 282.397292 
L 181.919681 281.784738 
L 182.28814 281.994757 
L 182.6566 282.511052 
L 183.025059 281.294695 
L 183.393519 281.539717 
L 183.761978 281.399705 
L 184.130437 280.402117 
L 184.498897 280.025834 
L 185.235815 278.61696 
L 185.604275 279.107003 
L 185.972734 280.332111 
L 186.341193 280.270855 
L 187.078112 278.634462 
L 187.446572 278.118166 
L 187.815031 278.083163 
L 188.18349 277.619372 
L 188.55195 277.514363 
L 188.920409 277.890646 
L 189.288868 277.899397 
L 189.657328 275.440431 
L 190.025787 274.5216 
L 191.131165 272.570178 
L 191.499625 272.692689 
L 192.236543 271.712603 
L 192.973462 272.316406 
L 193.341921 272.692689 
L 193.710381 272.080135 
L 194.4473 272.456418 
L 194.815759 271.275065 
L 195.184218 271.082548 
L 195.552678 270.242474 
L 195.921137 270.645009 
L 196.289596 271.502585 
L 196.658056 270.907532 
L 197.026515 271.327569 
L 197.394975 270.618757 
L 197.763434 270.303729 
L 198.131893 269.813686 
L 198.500353 269.026117 
L 198.868812 268.641083 
L 199.237271 269.384898 
L 199.605731 269.74368 
L 200.342649 269.673674 
L 200.711109 269.148628 
L 201.079568 268.842351 
L 201.816487 269.717428 
L 202.184946 269.507409 
L 202.553406 269.909945 
L 202.921865 269.376148 
L 203.290324 269.74368 
L 203.658784 269.831188 
L 204.027243 270.338732 
L 204.395703 269.253637 
L 204.764162 268.71984 
L 205.501081 270.058708 
L 206.237999 269.909945 
L 206.606459 270.548751 
L 206.974918 270.417489 
L 207.343377 270.049957 
L 207.711837 269.953698 
L 208.080296 271.345071 
L 208.448756 271.213809 
L 208.817215 270.88128 
L 209.185674 271.555089 
L 209.554134 271.520086 
L 209.922593 270.99504 
L 210.291052 270.732517 
L 210.659512 270.811274 
L 211.027971 270.758769 
L 211.76489 271.056295 
L 212.501809 271.038794 
L 212.870268 270.566252 
L 213.238727 271.432578 
L 213.607187 271.572591 
L 213.975646 271.292566 
L 214.344105 271.607594 
L 214.712565 271.397575 
L 215.081024 271.931372 
L 215.817943 271.992628 
L 216.186402 271.362572 
L 216.554862 271.485083 
L 216.923321 271.878868 
L 217.29178 271.625095 
L 217.66024 271.668849 
L 218.028699 271.992628 
L 218.397159 272.596431 
L 218.765618 272.333908 
L 219.134077 272.342658 
L 219.502537 271.975126 
L 219.870996 272.167643 
L 220.607915 271.835114 
L 220.976374 271.808862 
L 221.344833 272.255151 
L 221.713293 271.187557 
L 222.081752 271.590092 
L 222.450212 270.793772 
L 222.818671 271.380074 
L 223.55559 270.601255 
L 224.292508 270.942535 
L 224.660968 270.837526 
L 225.029427 269.962449 
L 225.397887 269.74368 
L 226.134805 268.956111 
L 226.503265 269.419902 
L 226.871724 270.268726 
L 227.240183 270.382486 
L 227.608643 269.603668 
L 227.977102 269.831188 
L 228.345561 269.51616 
L 228.714021 268.676086 
L 229.08248 268.186043 
L 229.45094 268.334806 
L 229.819399 267.792258 
L 230.556318 267.92352 
L 231.293236 268.938609 
L 231.661696 269.113625 
L 232.030155 269.087372 
L 232.398615 269.533662 
L 232.767074 269.691175 
L 233.135533 269.131126 
L 233.503993 269.332394 
L 233.872452 269.017366 
L 234.240911 269.069871 
L 234.609371 269.769932 
L 234.97783 269.489908 
L 235.346289 268.851102 
L 236.083208 268.956111 
L 236.451668 269.358646 
L 236.820127 269.026117 
L 237.188586 268.334806 
L 237.557046 268.562326 
L 237.925505 267.783508 
L 238.293964 267.941022 
L 238.662424 267.057194 
L 239.030883 266.969686 
L 239.399343 266.593403 
L 239.767802 266.479643 
L 240.136261 267.284714 
L 240.87318 267.188455 
L 241.241639 266.129612 
L 241.610099 266.523397 
L 241.978558 266.400886 
L 242.347017 266.059606 
L 243.083936 265.018265 
L 243.452396 265.123274 
L 243.820855 264.983262 
L 244.189314 265.175778 
L 244.557774 264.790745 
L 244.926233 264.064431 
L 245.294692 263.626892 
L 245.663152 263.7144 
L 246.031611 264.064431 
L 246.400071 263.889415 
L 247.136989 264.151938 
L 247.505449 264.335705 
L 247.873908 263.618142 
L 248.242367 263.206855 
L 248.610827 262.23552 
L 249.347745 261.089169 
L 249.716205 260.8704 
L 250.084664 259.811557 
L 250.453124 259.39152 
L 251.190042 259.085243 
L 251.558502 259.50528 
L 251.926961 258.805218 
L 252.29542 258.612702 
L 252.66388 258.665206 
L 253.032339 258.428935 
L 254.137717 259.234006 
L 254.506177 258.93648 
L 255.243095 257.965145 
L 255.611555 258.735212 
L 255.980014 258.560197 
L 256.348473 259.461526 
L 256.716933 259.365268 
L 257.085392 259.724049 
L 257.453852 259.023988 
L 257.822311 259.400271 
L 258.55923 259.27776 
L 258.927689 258.892726 
L 259.296148 258.875225 
L 259.664608 259.627791 
L 260.401527 259.479028 
L 260.769986 259.654043 
L 261.138445 259.601538 
L 261.506905 260.100332 
L 261.875364 259.872812 
L 262.243823 260.004074 
L 262.612283 260.459114 
L 262.980742 260.590375 
L 263.349201 260.949157 
L 263.717661 260.896652 
L 264.08612 260.695385 
L 264.45458 260.8704 
L 264.823039 260.730388 
L 265.559958 260.817895 
L 265.928417 260.546622 
L 266.665336 260.686634 
L 267.033795 261.675471 
L 267.402255 261.605465 
L 267.770714 261.89424 
L 268.139173 261.605465 
L 268.507633 261.657969 
L 268.876092 261.106671 
L 269.244551 261.185428 
L 269.613011 260.940406 
L 269.98147 260.957908 
L 270.349929 261.115422 
L 270.718389 260.835397 
L 271.086848 259.724049 
L 271.455308 259.50528 
L 271.823767 259.041489 
L 272.192226 259.111495 
L 272.560686 258.551446 
L 273.297604 258.376431 
L 273.666064 258.463938 
L 274.034523 257.851385 
L 274.771442 257.221329 
L 275.139901 257.098818 
L 275.508361 256.801292 
L 275.87682 256.766289 
L 276.613739 255.812455 
L 276.982198 254.639852 
L 277.350657 254.526092 
L 278.087576 253.449748 
L 278.824495 253.117218 
L 279.192954 252.609674 
L 279.561414 252.784689 
L 279.929873 252.215889 
L 280.298332 252.478412 
L 280.666792 252.513415 
L 281.035251 252.189637 
L 281.403711 252.382154 
L 282.140629 251.900862 
L 282.509089 251.988369 
L 282.877548 251.664591 
L 283.246007 250.51824 
L 283.614467 248.995606 
L 283.982926 249.223126 
L 284.351385 248.724332 
L 284.719845 247.262954 
L 285.088304 247.061686 
L 285.456764 246.667902 
L 285.825223 246.667902 
L 286.193682 245.39904 
L 286.562142 245.451545 
L 286.930601 245.775323 
L 287.29906 246.457883 
L 287.66752 246.064098 
L 288.404439 244.567717 
L 288.772898 243.955163 
L 289.141357 243.937662 
L 289.509817 245.197772 
L 289.878276 245.539052 
L 290.246735 245.609058 
L 290.615195 245.381538 
L 290.983654 245.469046 
L 291.352113 245.180271 
L 291.720573 245.145268 
L 292.089032 244.550215 
L 292.457492 244.698978 
L 293.19441 244.042671 
L 293.56287 244.025169 
L 293.931329 244.453957 
L 294.299788 244.611471 
L 294.668248 244.095175 
L 295.036707 244.103926 
L 295.405167 245.154018 
L 296.142085 244.480209 
L 296.510545 244.908997 
L 296.879004 244.383951 
L 297.247463 244.366449 
L 297.984382 243.876406 
L 298.352841 244.007668 
L 298.721301 243.718892 
L 299.08976 242.826314 
L 299.45822 242.686302 
L 299.826679 242.178757 
L 300.195138 242.686302 
L 300.563598 242.292517 
L 300.932057 242.380025 
L 301.300516 241.767471 
L 301.668976 242.143754 
L 302.037435 243.69264 
L 302.405895 243.780148 
L 303.142813 245.784074 
L 303.511273 245.031508 
L 304.248191 245.687815 
L 304.616651 246.352874 
L 304.98511 246.440382 
L 305.353569 246.282868 
L 305.722029 245.574055 
L 306.090488 245.827828 
L 306.458948 246.982929 
L 307.195866 247.831754 
L 307.564326 248.3568 
L 307.932785 248.269292 
L 308.301244 247.858006 
L 308.669704 248.12928 
L 309.406623 248.286794 
L 309.775082 248.409305 
L 310.143541 247.717994 
L 310.512001 248.251791 
L 310.88046 248.164283 
L 311.248919 248.278043 
L 311.617379 247.858006 
L 312.354297 246.361625 
L 312.722757 246.860418 
L 313.091216 247.140443 
L 313.459676 246.904172 
L 313.828135 247.315458 
L 314.565054 248.794338 
L 314.933513 248.689329 
L 315.301972 248.435557 
L 315.670432 247.980517 
L 316.038891 247.90176 
L 316.407351 247.945514 
L 316.77581 247.402966 
L 317.144269 247.551729 
L 317.512729 248.24304 
L 317.881188 247.402966 
L 318.249647 247.831754 
L 318.618107 247.691742 
L 318.986566 248.278043 
L 319.355025 248.155532 
L 320.091944 249.72192 
L 321.197322 249.100615 
L 321.565782 249.634412 
L 321.934241 249.94944 
L 322.3027 249.844431 
L 323.408079 250.080702 
L 323.776538 250.413231 
L 324.144997 251.113292 
L 324.513457 250.780763 
L 325.250375 250.369477 
L 325.618835 250.456985 
L 325.987294 250.316972 
L 326.355753 250.325723 
L 326.724213 250.596997 
L 327.461132 250.299471 
L 327.829591 250.360726 
L 328.19805 250.903274 
L 328.56651 251.848357 
L 328.934969 251.279557 
L 329.303428 251.550831 
L 330.040347 251.612086 
L 330.408807 252.364652 
L 330.777266 250.640751 
L 331.145725 250.17696 
L 331.514185 247.411717 
L 331.882644 248.033022 
L 332.251103 244.655225 
L 332.619563 244.191434 
L 332.988022 241.014905 
L 333.356481 241.198671 
L 333.724941 241.64496 
L 334.0934 242.432529 
L 334.830319 243.141342 
L 335.198778 243.946412 
L 335.567238 243.753895 
L 335.935697 243.841403 
L 336.304156 244.48896 
L 336.672616 244.655225 
L 337.409535 243.080086 
L 337.777994 243.246351 
L 338.146453 243.193846 
L 338.514913 242.89632 
L 338.883372 242.205009 
L 339.251831 239.150991 
L 339.98875 239.037231 
L 340.357209 239.719791 
L 341.094128 232.990449 
L 341.462588 233.209218 
L 342.199506 233.366732 
L 342.567966 233.462991 
L 342.936425 233.261723 
L 343.304884 232.614166 
L 343.673344 229.761415 
L 344.410263 229.647655 
L 344.778722 228.685071 
L 345.147181 225.421034 
L 345.8841 225.342277 
L 346.252559 225.499791 
L 346.621019 225.079754 
L 346.989478 224.860985 
L 347.357937 225.438535 
L 347.726397 225.000997 
L 348.094856 225.079754 
L 348.831775 224.4672 
L 349.200234 226.602388 
L 349.568694 226.086092 
L 349.937153 226.086092 
L 350.305612 225.902326 
L 350.674072 228.098769 
L 351.042531 228.195028 
L 351.410991 231.485317 
L 351.77945 231.284049 
L 352.147909 231.485317 
L 352.516369 231.074031 
L 352.884828 231.214043 
L 353.253287 230.470228 
L 353.621747 230.225206 
L 353.990206 229.332628 
L 354.358665 225.972332 
L 354.727125 226.252357 
L 355.095584 226.016086 
L 355.464044 223.460862 
L 355.832503 223.44336 
L 356.200962 221.343175 
L 356.569422 217.947877 
L 356.937881 217.046548 
L 357.30634 217.562843 
L 357.6748 220.931889 
L 358.043259 220.966892 
L 358.411719 217.52784 
L 358.780178 217.379077 
L 359.148637 217.379077 
L 359.517097 220.555606 
L 360.254015 213.677502 
L 360.622475 213.353723 
L 361.359393 207.105674 
L 361.727853 207.534462 
L 362.096312 209.949674 
L 362.464772 209.022092 
L 363.20169 203.299089 
L 363.57015 203.299089 
L 363.938609 202.96656 
L 364.307068 199.947545 
L 364.675528 199.571262 
L 365.412447 193.148197 
L 365.780906 193.113194 
L 366.517825 186.9264 
L 366.886284 187.582708 
L 367.254743 185.771298 
L 367.623203 185.963815 
L 367.991662 183.443594 
L 368.360121 186.086326 
L 369.09704 180.44208 
L 369.833959 174.027766 
L 370.570878 172.435126 
L 371.676256 163.430585 
L 372.044715 163.26432 
L 372.413175 161.120382 
L 372.781634 161.260394 
L 373.518553 154.802326 
L 373.887012 154.802326 
L 374.255471 152.212098 
L 374.623931 153.787237 
L 374.99239 153.787237 
L 375.360849 154.828578 
L 376.466228 145.150228 
L 376.834687 145.150228 
L 377.203146 141.912443 
L 377.571606 141.912443 
L 377.940065 138.735914 
L 378.676984 138.735914 
L 379.045443 135.690646 
L 379.782362 135.690646 
L 380.519281 130.151409 
L 380.88774 127.806203 
L 381.993118 127.806203 
L 382.361577 124.857194 
L 382.730037 124.857194 
L 383.098496 121.820677 
L 383.835415 121.820677 
L 384.203874 118.78416 
L 384.940793 122.240714 
L 385.677712 119.449218 
L 386.046171 116.185182 
L 386.414631 116.185182 
L 386.78309 113.542449 
L 388.256927 113.542449 
L 388.993846 108.642018 
L 390.099224 108.642018 
L 390.467684 105.640505 
L 390.836143 105.640505 
L 391.204602 105.500492 
L 391.573062 105.719262 
L 392.67844 105.719262 
L 393.046899 102.85776 
L 393.415359 102.85776 
L 393.783818 99.681231 
L 402.626843 99.681231 
L 403.732221 94.807052 
L 404.10068 94.649538 
L 409.627571 94.649538 
L 409.99603 94.430769 
L 409.99603 94.430769 
" clip-path="url(#pdee2ad4b4f)" style="fill: none; stroke: #000080; stroke-width: 1.5; stroke-linecap: square"/>
   </g>
   <g id="line2d_16">
    <path d="M 55.925 94.430769 
L 460.825 94.430769 
" clip-path="url(#pdee2ad4b4f)" style="fill: none; stroke-dasharray: 5.55,2.4; stroke-dashoffset: 0; stroke: #008000; stroke-width: 1.5"/>
   </g>
   <g id="patch_3">
    <path d="M 55.925 313.2 
L 55.925 28.8 
" style="fill: none; stroke: #000000; stroke-width: 0.8; stroke-linejoin: miter; stroke-linecap: square"/>
   </g>
   <g id="patch_4">
    <path d="M 460.825 313.2 
L 460.825 28.8 
" style="fill: none; stroke: #000000; stroke-width: 0.8; stroke-linejoin: miter; stroke-linecap: square"/>
   </g>
   <g id="patch_5">
    <path d="M 55.925 313.2 
L 460.825 313.2 
" style="fill: none; stroke: #000000; stroke-width: 0.8; stroke-linejoin: miter; stroke-linecap: square"/>
   </g>
   <g id="patch_6">
    <path d="M 55.925 28.8 
L 460.825 28.8 
" style="fill: none; stroke: #000000; stroke-width: 0.8; stroke-linejoin: miter; stroke-linecap: square"/>
   </g>
   <g id="text_16">
    <!-- gamma = 0.9473684210526316,lr = 0.021544346900318832 -->
    <g transform="translate(23.601562 22.8)scale(0.15 -0.15)">
     <defs>
      <path id="DejaVuSans-67" d="M 2906 1791 
Q 2906 2416 2648 2759 
Q 2391 3103 1925 3103 
Q 1463 3103 1205 2759 
Q 947 2416 947 1791 
Q 947 1169 1205 825 
Q 1463 481 1925 481 
Q 2391 481 2648 825 
Q 2906 1169 2906 1791 
z
M 3481 434 
Q 3481 -459 3084 -895 
Q 2688 -1331 1869 -1331 
Q 1566 -1331 1297 -1286 
Q 1028 -1241 775 -1147 
L 775 -588 
Q 1028 -725 1275 -790 
Q 1522 -856 1778 -856 
Q 2344 -856 2625 -561 
Q 2906 -266 2906 331 
L 2906 616 
Q 2728 306 2450 153 
Q 2172 0 1784 0 
Q 1141 0 747 490 
Q 353 981 353 1791 
Q 353 2603 747 3093 
Q 1141 3584 1784 3584 
Q 2172 3584 2450 3431 
Q 2728 3278 2906 2969 
L 2906 3500 
L 3481 3500 
L 3481 434 
z
" transform="scale(0.015625)"/>
      <path id="DejaVuSans-61" d="M 2194 1759 
Q 1497 1759 1228 1600 
Q 959 1441 959 1056 
Q 959 750 1161 570 
Q 1363 391 1709 391 
Q 2188 391 2477 730 
Q 2766 1069 2766 1631 
L 2766 1759 
L 2194 1759 
z
M 3341 1997 
L 3341 0 
L 2766 0 
L 2766 531 
Q 2569 213 2275 61 
Q 1981 -91 1556 -91 
Q 1019 -91 701 211 
Q 384 513 384 1019 
Q 384 1609 779 1909 
Q 1175 2209 1959 2209 
L 2766 2209 
L 2766 2266 
Q 2766 2663 2505 2880 
Q 2244 3097 1772 3097 
Q 1472 3097 1187 3025 
Q 903 2953 641 2809 
L 641 3341 
Q 956 3463 1253 3523 
Q 1550 3584 1831 3584 
Q 2591 3584 2966 3190 
Q 3341 2797 3341 1997 
z
" transform="scale(0.015625)"/>
      <path id="DejaVuSans-6d" d="M 3328 2828 
Q 3544 3216 3844 3400 
Q 4144 3584 4550 3584 
Q 5097 3584 5394 3201 
Q 5691 2819 5691 2113 
L 5691 0 
L 5113 0 
L 5113 2094 
Q 5113 2597 4934 2840 
Q 4756 3084 4391 3084 
Q 3944 3084 3684 2787 
Q 3425 2491 3425 1978 
L 3425 0 
L 2847 0 
L 2847 2094 
Q 2847 2600 2669 2842 
Q 2491 3084 2119 3084 
Q 1678 3084 1418 2786 
Q 1159 2488 1159 1978 
L 1159 0 
L 581 0 
L 581 3500 
L 1159 3500 
L 1159 2956 
Q 1356 3278 1631 3431 
Q 1906 3584 2284 3584 
Q 2666 3584 2933 3390 
Q 3200 3197 3328 2828 
z
" transform="scale(0.015625)"/>
      <path id="DejaVuSans-20" transform="scale(0.015625)"/>
      <path id="DejaVuSans-3d" d="M 678 2906 
L 4684 2906 
L 4684 2381 
L 678 2381 
L 678 2906 
z
M 678 1631 
L 4684 1631 
L 4684 1100 
L 678 1100 
L 678 1631 
z
" transform="scale(0.015625)"/>
      <path id="DejaVuSans-2e" d="M 684 794 
L 1344 794 
L 1344 0 
L 684 0 
L 684 794 
z
" transform="scale(0.015625)"/>
      <path id="DejaVuSans-39" d="M 703 97 
L 703 672 
Q 941 559 1184 500 
Q 1428 441 1663 441 
Q 2288 441 2617 861 
Q 2947 1281 2994 2138 
Q 2813 1869 2534 1725 
Q 2256 1581 1919 1581 
Q 1219 1581 811 2004 
Q 403 2428 403 3163 
Q 403 3881 828 4315 
Q 1253 4750 1959 4750 
Q 2769 4750 3195 4129 
Q 3622 3509 3622 2328 
Q 3622 1225 3098 567 
Q 2575 -91 1691 -91 
Q 1453 -91 1209 -44 
Q 966 3 703 97 
z
M 1959 2075 
Q 2384 2075 2632 2365 
Q 2881 2656 2881 3163 
Q 2881 3666 2632 3958 
Q 2384 4250 1959 4250 
Q 1534 4250 1286 3958 
Q 1038 3666 1038 3163 
Q 1038 2656 1286 2365 
Q 1534 2075 1959 2075 
z
" transform="scale(0.015625)"/>
      <path id="DejaVuSans-37" d="M 525 4666 
L 3525 4666 
L 3525 4397 
L 1831 0 
L 1172 0 
L 2766 4134 
L 525 4134 
L 525 4666 
z
" transform="scale(0.015625)"/>
      <path id="DejaVuSans-2c" d="M 750 794 
L 1409 794 
L 1409 256 
L 897 -744 
L 494 -744 
L 750 256 
L 750 794 
z
" transform="scale(0.015625)"/>
      <path id="DejaVuSans-6c" d="M 603 4863 
L 1178 4863 
L 1178 0 
L 603 0 
L 603 4863 
z
" transform="scale(0.015625)"/>
     </defs>
     <use xlink:href="#DejaVuSans-67"/>
     <use xlink:href="#DejaVuSans-61" x="63.476562"/>
     <use xlink:href="#DejaVuSans-6d" x="124.755859"/>
     <use xlink:href="#DejaVuSans-6d" x="222.167969"/>
     <use xlink:href="#DejaVuSans-61" x="319.580078"/>
     <use xlink:href="#DejaVuSans-20" x="380.859375"/>
     <use xlink:href="#DejaVuSans-3d" x="412.646484"/>
     <use xlink:href="#DejaVuSans-20" x="496.435547"/>
     <use xlink:href="#DejaVuSans-30" x="528.222656"/>
     <use xlink:href="#DejaVuSans-2e" x="591.845703"/>
     <use xlink:href="#DejaVuSans-39" x="623.632812"/>
     <use xlink:href="#DejaVuSans-34" x="687.255859"/>
     <use xlink:href="#DejaVuSans-37" x="750.878906"/>
     <use xlink:href="#DejaVuSans-33" x="814.501953"/>
     <use xlink:href="#DejaVuSans-36" x="878.125"/>
     <use xlink:href="#DejaVuSans-38" x="941.748047"/>
     <use xlink:href="#DejaVuSans-34" x="1005.371094"/>
     <use xlink:href="#DejaVuSans-32" x="1068.994141"/>
     <use xlink:href="#DejaVuSans-31" x="1132.617188"/>
     <use xlink:href="#DejaVuSans-30" x="1196.240234"/>
     <use xlink:href="#DejaVuSans-35" x="1259.863281"/>
     <use xlink:href="#DejaVuSans-32" x="1323.486328"/>
     <use xlink:href="#DejaVuSans-36" x="1387.109375"/>
     <use xlink:href="#DejaVuSans-33" x="1450.732422"/>
     <use xlink:href="#DejaVuSans-31" x="1514.355469"/>
     <use xlink:href="#DejaVuSans-36" x="1577.978516"/>
     <use xlink:href="#DejaVuSans-2c" x="1641.601562"/>
     <use xlink:href="#DejaVuSans-6c" x="1673.388672"/>
     <use xlink:href="#DejaVuSans-72" x="1701.171875"/>
     <use xlink:href="#DejaVuSans-20" x="1742.285156"/>
     <use xlink:href="#DejaVuSans-3d" x="1774.072266"/>
     <use xlink:href="#DejaVuSans-20" x="1857.861328"/>
     <use xlink:href="#DejaVuSans-30" x="1889.648438"/>
     <use xlink:href="#DejaVuSans-2e" x="1953.271484"/>
     <use xlink:href="#DejaVuSans-30" x="1985.058594"/>
     <use xlink:href="#DejaVuSans-32" x="2048.681641"/>
     <use xlink:href="#DejaVuSans-31" x="2112.304688"/>
     <use xlink:href="#DejaVuSans-35" x="2175.927734"/>
     <use xlink:href="#DejaVuSans-34" x="2239.550781"/>
     <use xlink:href="#DejaVuSans-34" x="2303.173828"/>
     <use xlink:href="#DejaVuSans-33" x="2366.796875"/>
     <use xlink:href="#DejaVuSans-34" x="2430.419922"/>
     <use xlink:href="#DejaVuSans-36" x="2494.042969"/>
     <use xlink:href="#DejaVuSans-39" x="2557.666016"/>
     <use xlink:href="#DejaVuSans-30" x="2621.289062"/>
     <use xlink:href="#DejaVuSans-30" x="2684.912109"/>
     <use xlink:href="#DejaVuSans-33" x="2748.535156"/>
     <use xlink:href="#DejaVuSans-31" x="2812.158203"/>
     <use xlink:href="#DejaVuSans-38" x="2875.78125"/>
     <use xlink:href="#DejaVuSans-38" x="2939.404297"/>
     <use xlink:href="#DejaVuSans-33" x="3003.027344"/>
     <use xlink:href="#DejaVuSans-32" x="3066.650391"/>
    </g>
   </g>
   <g id="legend_1">
    <g id="patch_7">
     <path d="M 293.50625 80.834375 
L 453.825 80.834375 
Q 455.825 80.834375 455.825 78.834375 
L 455.825 35.8 
Q 455.825 33.8 453.825 33.8 
L 293.50625 33.8 
Q 291.50625 33.8 291.50625 35.8 
L 291.50625 78.834375 
Q 291.50625 80.834375 293.50625 80.834375 
z
" style="fill: #ffffff; opacity: 0.8; stroke: #cccccc; stroke-linejoin: miter"/>
    </g>
    <g id="line2d_17">
     <path d="M 295.50625 41.898438 
L 305.50625 41.898438 
L 315.50625 41.898438 
" style="fill: none; stroke: #708090; stroke-width: 1.5; stroke-linecap: square"/>
    </g>
    <g id="text_17">
     <!-- Episodes score -->
     <g transform="translate(323.50625 45.398438)scale(0.1 -0.1)">
      <use xlink:href="#DejaVuSans-45"/>
      <use xlink:href="#DejaVuSans-70" x="63.183594"/>
      <use xlink:href="#DejaVuSans-69" x="126.660156"/>
      <use xlink:href="#DejaVuSans-73" x="154.443359"/>
      <use xlink:href="#DejaVuSans-6f" x="206.542969"/>
      <use xlink:href="#DejaVuSans-64" x="267.724609"/>
      <use xlink:href="#DejaVuSans-65" x="331.201172"/>
      <use xlink:href="#DejaVuSans-73" x="392.724609"/>
      <use xlink:href="#DejaVuSans-20" x="444.824219"/>
      <use xlink:href="#DejaVuSans-73" x="476.611328"/>
      <use xlink:href="#DejaVuSans-63" x="528.710938"/>
      <use xlink:href="#DejaVuSans-6f" x="583.691406"/>
      <use xlink:href="#DejaVuSans-72" x="644.873047"/>
      <use xlink:href="#DejaVuSans-65" x="683.736328"/>
     </g>
    </g>
    <g id="line2d_18">
     <path d="M 295.50625 56.576563 
L 305.50625 56.576563 
L 315.50625 56.576563 
" style="fill: none; stroke: #000080; stroke-width: 1.5; stroke-linecap: square"/>
    </g>
    <g id="text_18">
     <!-- Moving average of scores -->
     <g transform="translate(323.50625 60.076563)scale(0.1 -0.1)">
      <defs>
       <path id="DejaVuSans-4d" d="M 628 4666 
L 1569 4666 
L 2759 1491 
L 3956 4666 
L 4897 4666 
L 4897 0 
L 4281 0 
L 4281 4097 
L 3078 897 
L 2444 897 
L 1241 4097 
L 1241 0 
L 628 0 
L 628 4666 
z
" transform="scale(0.015625)"/>
       <path id="DejaVuSans-76" d="M 191 3500 
L 800 3500 
L 1894 563 
L 2988 3500 
L 3597 3500 
L 2284 0 
L 1503 0 
L 191 3500 
z
" transform="scale(0.015625)"/>
       <path id="DejaVuSans-6e" d="M 3513 2113 
L 3513 0 
L 2938 0 
L 2938 2094 
Q 2938 2591 2744 2837 
Q 2550 3084 2163 3084 
Q 1697 3084 1428 2787 
Q 1159 2491 1159 1978 
L 1159 0 
L 581 0 
L 581 3500 
L 1159 3500 
L 1159 2956 
Q 1366 3272 1645 3428 
Q 1925 3584 2291 3584 
Q 2894 3584 3203 3211 
Q 3513 2838 3513 2113 
z
" transform="scale(0.015625)"/>
       <path id="DejaVuSans-66" d="M 2375 4863 
L 2375 4384 
L 1825 4384 
Q 1516 4384 1395 4259 
Q 1275 4134 1275 3809 
L 1275 3500 
L 2222 3500 
L 2222 3053 
L 1275 3053 
L 1275 0 
L 697 0 
L 697 3053 
L 147 3053 
L 147 3500 
L 697 3500 
L 697 3744 
Q 697 4328 969 4595 
Q 1241 4863 1831 4863 
L 2375 4863 
z
" transform="scale(0.015625)"/>
      </defs>
      <use xlink:href="#DejaVuSans-4d"/>
      <use xlink:href="#DejaVuSans-6f" x="86.279297"/>
      <use xlink:href="#DejaVuSans-76" x="147.460938"/>
      <use xlink:href="#DejaVuSans-69" x="206.640625"/>
      <use xlink:href="#DejaVuSans-6e" x="234.423828"/>
      <use xlink:href="#DejaVuSans-67" x="297.802734"/>
      <use xlink:href="#DejaVuSans-20" x="361.279297"/>
      <use xlink:href="#DejaVuSans-61" x="393.066406"/>
      <use xlink:href="#DejaVuSans-76" x="454.345703"/>
      <use xlink:href="#DejaVuSans-65" x="513.525391"/>
      <use xlink:href="#DejaVuSans-72" x="575.048828"/>
      <use xlink:href="#DejaVuSans-61" x="616.162109"/>
      <use xlink:href="#DejaVuSans-67" x="677.441406"/>
      <use xlink:href="#DejaVuSans-65" x="740.917969"/>
      <use xlink:href="#DejaVuSans-20" x="802.441406"/>
      <use xlink:href="#DejaVuSans-6f" x="834.228516"/>
      <use xlink:href="#DejaVuSans-66" x="895.410156"/>
      <use xlink:href="#DejaVuSans-20" x="930.615234"/>
      <use xlink:href="#DejaVuSans-73" x="962.402344"/>
      <use xlink:href="#DejaVuSans-63" x="1014.501953"/>
      <use xlink:href="#DejaVuSans-6f" x="1069.482422"/>
      <use xlink:href="#DejaVuSans-72" x="1130.664062"/>
      <use xlink:href="#DejaVuSans-65" x="1169.527344"/>
      <use xlink:href="#DejaVuSans-73" x="1231.050781"/>
     </g>
    </g>
    <g id="line2d_19">
     <path d="M 295.50625 71.254687 
L 305.50625 71.254687 
L 315.50625 71.254687 
" style="fill: none; stroke-dasharray: 5.55,2.4; stroke-dashoffset: 0; stroke: #008000; stroke-width: 1.5"/>
    </g>
    <g id="text_19">
     <!-- Game Solved -->
     <g transform="translate(323.50625 74.754687)scale(0.1 -0.1)">
      <defs>
       <path id="DejaVuSans-47" d="M 3809 666 
L 3809 1919 
L 2778 1919 
L 2778 2438 
L 4434 2438 
L 4434 434 
Q 4069 175 3628 42 
Q 3188 -91 2688 -91 
Q 1594 -91 976 548 
Q 359 1188 359 2328 
Q 359 3472 976 4111 
Q 1594 4750 2688 4750 
Q 3144 4750 3555 4637 
Q 3966 4525 4313 4306 
L 4313 3634 
Q 3963 3931 3569 4081 
Q 3175 4231 2741 4231 
Q 1884 4231 1454 3753 
Q 1025 3275 1025 2328 
Q 1025 1384 1454 906 
Q 1884 428 2741 428 
Q 3075 428 3337 486 
Q 3600 544 3809 666 
z
" transform="scale(0.015625)"/>
      </defs>
      <use xlink:href="#DejaVuSans-47"/>
      <use xlink:href="#DejaVuSans-61" x="77.490234"/>
      <use xlink:href="#DejaVuSans-6d" x="138.769531"/>
      <use xlink:href="#DejaVuSans-65" x="236.181641"/>
      <use xlink:href="#DejaVuSans-20" x="297.705078"/>
      <use xlink:href="#DejaVuSans-53" x="329.492188"/>
      <use xlink:href="#DejaVuSans-6f" x="392.96875"/>
      <use xlink:href="#DejaVuSans-6c" x="454.150391"/>
      <use xlink:href="#DejaVuSans-76" x="481.933594"/>
      <use xlink:href="#DejaVuSans-65" x="541.113281"/>
      <use xlink:href="#DejaVuSans-64" x="602.636719"/>
     </g>
    </g>
   </g>
  </g>
  <g id="axes_2">
   <g id="matplotlib.axis_3">
    <g id="ytick_8">
     <g id="line2d_20">
      <defs>
       <path id="md465e9246b" d="M 0 0 
L 3.5 0 
" style="stroke: #000000; stroke-width: 0.8"/>
      </defs>
      <g>
       <use xlink:href="#md465e9246b" x="460.825" y="300.356157" style="stroke: #000000; stroke-width: 0.8"/>
      </g>
     </g>
     <g id="text_20">
      <!-- 0 -->
      <g transform="translate(467.825 304.155376)scale(0.1 -0.1)">
       <use xlink:href="#DejaVuSans-30"/>
      </g>
     </g>
    </g>
    <g id="ytick_9">
     <g id="line2d_21">
      <g>
       <use xlink:href="#md465e9246b" x="460.825" y="248.63038" style="stroke: #000000; stroke-width: 0.8"/>
      </g>
     </g>
     <g id="text_21">
      <!-- 1 -->
      <g transform="translate(467.825 252.429599)scale(0.1 -0.1)">
       <use xlink:href="#DejaVuSans-31"/>
      </g>
     </g>
    </g>
    <g id="ytick_10">
     <g id="line2d_22">
      <g>
       <use xlink:href="#md465e9246b" x="460.825" y="196.904603" style="stroke: #000000; stroke-width: 0.8"/>
      </g>
     </g>
     <g id="text_22">
      <!-- 2 -->
      <g transform="translate(467.825 200.703822)scale(0.1 -0.1)">
       <use xlink:href="#DejaVuSans-32"/>
      </g>
     </g>
    </g>
    <g id="ytick_11">
     <g id="line2d_23">
      <g>
       <use xlink:href="#md465e9246b" x="460.825" y="145.178827" style="stroke: #000000; stroke-width: 0.8"/>
      </g>
     </g>
     <g id="text_23">
      <!-- 3 -->
      <g transform="translate(467.825 148.978045)scale(0.1 -0.1)">
       <use xlink:href="#DejaVuSans-33"/>
      </g>
     </g>
    </g>
    <g id="ytick_12">
     <g id="line2d_24">
      <g>
       <use xlink:href="#md465e9246b" x="460.825" y="93.45305" style="stroke: #000000; stroke-width: 0.8"/>
      </g>
     </g>
     <g id="text_24">
      <!-- 4 -->
      <g transform="translate(467.825 97.252268)scale(0.1 -0.1)">
       <use xlink:href="#DejaVuSans-34"/>
      </g>
     </g>
    </g>
    <g id="ytick_13">
     <g id="line2d_25">
      <g>
       <use xlink:href="#md465e9246b" x="460.825" y="41.727273" style="stroke: #000000; stroke-width: 0.8"/>
      </g>
     </g>
     <g id="text_25">
      <!-- 5 -->
      <g transform="translate(467.825 45.526491)scale(0.1 -0.1)">
       <use xlink:href="#DejaVuSans-35"/>
      </g>
     </g>
    </g>
    <g id="text_26">
     <!-- Temperature -->
     <g transform="translate(489.585156 218.504297)rotate(-90)scale(0.15 -0.15)">
      <defs>
       <path id="DejaVuSans-54" d="M -19 4666 
L 3928 4666 
L 3928 4134 
L 2272 4134 
L 2272 0 
L 1638 0 
L 1638 4134 
L -19 4134 
L -19 4666 
z
" transform="scale(0.015625)"/>
       <path id="DejaVuSans-74" d="M 1172 4494 
L 1172 3500 
L 2356 3500 
L 2356 3053 
L 1172 3053 
L 1172 1153 
Q 1172 725 1289 603 
Q 1406 481 1766 481 
L 2356 481 
L 2356 0 
L 1766 0 
Q 1100 0 847 248 
Q 594 497 594 1153 
L 594 3053 
L 172 3053 
L 172 3500 
L 594 3500 
L 594 4494 
L 1172 4494 
z
" transform="scale(0.015625)"/>
       <path id="DejaVuSans-75" d="M 544 1381 
L 544 3500 
L 1119 3500 
L 1119 1403 
Q 1119 906 1312 657 
Q 1506 409 1894 409 
Q 2359 409 2629 706 
Q 2900 1003 2900 1516 
L 2900 3500 
L 3475 3500 
L 3475 0 
L 2900 0 
L 2900 538 
Q 2691 219 2414 64 
Q 2138 -91 1772 -91 
Q 1169 -91 856 284 
Q 544 659 544 1381 
z
M 1991 3584 
L 1991 3584 
z
" transform="scale(0.015625)"/>
      </defs>
      <use xlink:href="#DejaVuSans-54"/>
      <use xlink:href="#DejaVuSans-65" x="44.083984"/>
      <use xlink:href="#DejaVuSans-6d" x="105.607422"/>
      <use xlink:href="#DejaVuSans-70" x="203.019531"/>
      <use xlink:href="#DejaVuSans-65" x="266.496094"/>
      <use xlink:href="#DejaVuSans-72" x="328.019531"/>
      <use xlink:href="#DejaVuSans-61" x="369.132812"/>
      <use xlink:href="#DejaVuSans-74" x="430.412109"/>
      <use xlink:href="#DejaVuSans-75" x="469.621094"/>
      <use xlink:href="#DejaVuSans-72" x="533"/>
      <use xlink:href="#DejaVuSans-65" x="571.863281"/>
     </g>
    </g>
   </g>
   <g id="line2d_26">
    <path d="M 74.329545 41.727273 
L 77.64568 59.796179 
L 80.961814 76.602714 
L 84.277948 92.235075 
L 87.594083 106.775292 
L 90.910217 120.299669 
L 94.226351 132.879175 
L 97.542486 144.579825 
L 100.85862 155.463017 
L 104.174754 165.585863 
L 107.490889 175.001485 
L 110.807023 183.759292 
L 114.123157 191.905241 
L 117.439292 199.48208 
L 120.755426 206.529569 
L 124.07156 213.084691 
L 127.387695 219.181844 
L 130.703829 224.853024 
L 134.019963 230.127992 
L 137.704557 235.557975 
L 141.389151 240.568116 
L 145.073744 245.190878 
L 148.758338 249.456211 
L 152.442932 253.391752 
L 156.127525 257.023001 
L 160.180578 260.693942 
L 164.233631 264.053901 
L 168.286684 267.129223 
L 172.339737 269.944021 
L 176.76125 272.743467 
L 181.182762 275.285223 
L 185.972734 277.775454 
L 190.762706 280.018336 
L 195.921137 282.185254 
L 201.448028 284.251415 
L 206.974918 286.082639 
L 212.870268 287.807033 
L 219.134077 289.41153 
L 225.766346 290.887385 
L 233.135533 292.295013 
L 240.87318 293.548388 
L 249.347745 294.698674 
L 258.927689 295.766744 
L 269.613011 296.721977 
L 281.403711 297.547031 
L 295.036707 298.270409 
L 310.88046 298.880507 
L 330.040347 299.385086 
L 353.990206 299.780603 
L 385.677712 300.068067 
L 432.840511 300.253311 
L 442.420455 300.272727 
L 442.420455 300.272727 
" clip-path="url(#pdee2ad4b4f)" style="fill: none; stroke: #ff0000; stroke-width: 1.5; stroke-linecap: square"/>
   </g>
   <g id="patch_8">
    <path d="M 55.925 313.2 
L 55.925 28.8 
" style="fill: none; stroke: #000000; stroke-width: 0.8; stroke-linejoin: miter; stroke-linecap: square"/>
   </g>
   <g id="patch_9">
    <path d="M 460.825 313.2 
L 460.825 28.8 
" style="fill: none; stroke: #000000; stroke-width: 0.8; stroke-linejoin: miter; stroke-linecap: square"/>
   </g>
   <g id="patch_10">
    <path d="M 55.925 313.2 
L 460.825 313.2 
" style="fill: none; stroke: #000000; stroke-width: 0.8; stroke-linejoin: miter; stroke-linecap: square"/>
   </g>
   <g id="patch_11">
    <path d="M 55.925 28.8 
L 460.825 28.8 
" style="fill: none; stroke: #000000; stroke-width: 0.8; stroke-linejoin: miter; stroke-linecap: square"/>
   </g>
   <g id="legend_2">
    <g id="patch_12">
     <path d="M 62.925 51.478125 
L 158.264063 51.478125 
Q 160.264063 51.478125 160.264063 49.478125 
L 160.264063 35.8 
Q 160.264063 33.8 158.264063 33.8 
L 62.925 33.8 
Q 60.925 33.8 60.925 35.8 
L 60.925 49.478125 
Q 60.925 51.478125 62.925 51.478125 
z
" style="fill: #ffffff; opacity: 0.8; stroke: #cccccc; stroke-linejoin: miter"/>
    </g>
    <g id="line2d_27">
     <path d="M 64.925 41.898438 
L 74.925 41.898438 
L 84.925 41.898438 
" style="fill: none; stroke: #ff0000; stroke-width: 1.5; stroke-linecap: square"/>
    </g>
    <g id="text_27">
     <!-- Temperature -->
     <g transform="translate(92.925 45.398438)scale(0.1 -0.1)">
      <use xlink:href="#DejaVuSans-54"/>
      <use xlink:href="#DejaVuSans-65" x="44.083984"/>
      <use xlink:href="#DejaVuSans-6d" x="105.607422"/>
      <use xlink:href="#DejaVuSans-70" x="203.019531"/>
      <use xlink:href="#DejaVuSans-65" x="266.496094"/>
      <use xlink:href="#DejaVuSans-72" x="328.019531"/>
      <use xlink:href="#DejaVuSans-61" x="369.132812"/>
      <use xlink:href="#DejaVuSans-74" x="430.412109"/>
      <use xlink:href="#DejaVuSans-75" x="469.621094"/>
      <use xlink:href="#DejaVuSans-72" x="533"/>
      <use xlink:href="#DejaVuSans-65" x="571.863281"/>
     </g>
    </g>
   </g>
  </g>
 </g>
 <defs>
  <clipPath id="pdee2ad4b4f">
   <rect x="55.925" y="28.8" width="404.9" height="284.4"/>
  </clipPath>
 </defs>
</svg>
