<?xml version="1.0" encoding="utf-8" standalone="no"?>
<!DOCTYPE svg PUBLIC "-//W3C//DTD SVG 1.1//EN"
  "http://www.w3.org/Graphics/SVG/1.1/DTD/svg11.dtd">
<svg xmlns:xlink="http://www.w3.org/1999/xlink" width="504pt" height="360pt" viewBox="0 0 504 360" xmlns="http://www.w3.org/2000/svg" version="1.1">
 <metadata>
  <rdf:RDF xmlns:dc="http://purl.org/dc/elements/1.1/" xmlns:cc="http://creativecommons.org/ns#" xmlns:rdf="http://www.w3.org/1999/02/22-rdf-syntax-ns#">
   <cc:Work>
    <dc:type rdf:resource="http://purl.org/dc/dcmitype/StillImage"/>
    <dc:date>2022-07-28T20:50:44.525694</dc:date>
    <dc:format>image/svg+xml</dc:format>
    <dc:creator>
     <cc:Agent>
      <dc:title>Matplotlib v3.5.1, https://matplotlib.org/</dc:title>
     </cc:Agent>
    </dc:creator>
   </cc:Work>
  </rdf:RDF>
 </metadata>
 <defs>
  <style type="text/css">*{stroke-linejoin: round; stroke-linecap: butt}</style>
 </defs>
 <g id="figure_1">
  <g id="patch_1">
   <path d="M 0 360 
L 504 360 
L 504 0 
L 0 0 
L 0 360 
z
" style="fill: none"/>
  </g>
  <g id="axes_1">
   <g id="patch_2">
    <path d="M 55.925 313.2 
L 460.825 313.2 
L 460.825 28.8 
L 55.925 28.8 
z
" style="fill: #ffffff"/>
   </g>
   <g id="matplotlib.axis_1">
    <g id="xtick_1">
     <g id="line2d_1">
      <defs>
       <path id="m51fa10c350" d="M 0 0 
L 0 3.5 
" style="stroke: #000000; stroke-width: 0.8"/>
      </defs>
      <g>
       <use xlink:href="#m51fa10c350" x="74.329545" y="313.2" style="stroke: #000000; stroke-width: 0.8"/>
      </g>
     </g>
     <g id="text_1">
      <!-- 0 -->
      <g transform="translate(71.148295 327.798437)scale(0.1 -0.1)">
       <defs>
        <path id="DejaVuSans-30" d="M 2034 4250 
Q 1547 4250 1301 3770 
Q 1056 3291 1056 2328 
Q 1056 1369 1301 889 
Q 1547 409 2034 409 
Q 2525 409 2770 889 
Q 3016 1369 3016 2328 
Q 3016 3291 2770 3770 
Q 2525 4250 2034 4250 
z
M 2034 4750 
Q 2819 4750 3233 4129 
Q 3647 3509 3647 2328 
Q 3647 1150 3233 529 
Q 2819 -91 2034 -91 
Q 1250 -91 836 529 
Q 422 1150 422 2328 
Q 422 3509 836 4129 
Q 1250 4750 2034 4750 
z
" transform="scale(0.015625)"/>
       </defs>
       <use xlink:href="#DejaVuSans-30"/>
      </g>
     </g>
    </g>
    <g id="xtick_2">
     <g id="line2d_2">
      <g>
       <use xlink:href="#m51fa10c350" x="148.021419" y="313.2" style="stroke: #000000; stroke-width: 0.8"/>
      </g>
     </g>
     <g id="text_2">
      <!-- 200 -->
      <g transform="translate(138.477669 327.798437)scale(0.1 -0.1)">
       <defs>
        <path id="DejaVuSans-32" d="M 1228 531 
L 3431 531 
L 3431 0 
L 469 0 
L 469 531 
Q 828 903 1448 1529 
Q 2069 2156 2228 2338 
Q 2531 2678 2651 2914 
Q 2772 3150 2772 3378 
Q 2772 3750 2511 3984 
Q 2250 4219 1831 4219 
Q 1534 4219 1204 4116 
Q 875 4013 500 3803 
L 500 4441 
Q 881 4594 1212 4672 
Q 1544 4750 1819 4750 
Q 2544 4750 2975 4387 
Q 3406 4025 3406 3419 
Q 3406 3131 3298 2873 
Q 3191 2616 2906 2266 
Q 2828 2175 2409 1742 
Q 1991 1309 1228 531 
z
" transform="scale(0.015625)"/>
       </defs>
       <use xlink:href="#DejaVuSans-32"/>
       <use xlink:href="#DejaVuSans-30" x="63.623047"/>
       <use xlink:href="#DejaVuSans-30" x="127.246094"/>
      </g>
     </g>
    </g>
    <g id="xtick_3">
     <g id="line2d_3">
      <g>
       <use xlink:href="#m51fa10c350" x="221.713293" y="313.2" style="stroke: #000000; stroke-width: 0.8"/>
      </g>
     </g>
     <g id="text_3">
      <!-- 400 -->
      <g transform="translate(212.169543 327.798437)scale(0.1 -0.1)">
       <defs>
        <path id="DejaVuSans-34" d="M 2419 4116 
L 825 1625 
L 2419 1625 
L 2419 4116 
z
M 2253 4666 
L 3047 4666 
L 3047 1625 
L 3713 1625 
L 3713 1100 
L 3047 1100 
L 3047 0 
L 2419 0 
L 2419 1100 
L 313 1100 
L 313 1709 
L 2253 4666 
z
" transform="scale(0.015625)"/>
       </defs>
       <use xlink:href="#DejaVuSans-34"/>
       <use xlink:href="#DejaVuSans-30" x="63.623047"/>
       <use xlink:href="#DejaVuSans-30" x="127.246094"/>
      </g>
     </g>
    </g>
    <g id="xtick_4">
     <g id="line2d_4">
      <g>
       <use xlink:href="#m51fa10c350" x="295.405167" y="313.2" style="stroke: #000000; stroke-width: 0.8"/>
      </g>
     </g>
     <g id="text_4">
      <!-- 600 -->
      <g transform="translate(285.861417 327.798437)scale(0.1 -0.1)">
       <defs>
        <path id="DejaVuSans-36" d="M 2113 2584 
Q 1688 2584 1439 2293 
Q 1191 2003 1191 1497 
Q 1191 994 1439 701 
Q 1688 409 2113 409 
Q 2538 409 2786 701 
Q 3034 994 3034 1497 
Q 3034 2003 2786 2293 
Q 2538 2584 2113 2584 
z
M 3366 4563 
L 3366 3988 
Q 3128 4100 2886 4159 
Q 2644 4219 2406 4219 
Q 1781 4219 1451 3797 
Q 1122 3375 1075 2522 
Q 1259 2794 1537 2939 
Q 1816 3084 2150 3084 
Q 2853 3084 3261 2657 
Q 3669 2231 3669 1497 
Q 3669 778 3244 343 
Q 2819 -91 2113 -91 
Q 1303 -91 875 529 
Q 447 1150 447 2328 
Q 447 3434 972 4092 
Q 1497 4750 2381 4750 
Q 2619 4750 2861 4703 
Q 3103 4656 3366 4563 
z
" transform="scale(0.015625)"/>
       </defs>
       <use xlink:href="#DejaVuSans-36"/>
       <use xlink:href="#DejaVuSans-30" x="63.623047"/>
       <use xlink:href="#DejaVuSans-30" x="127.246094"/>
      </g>
     </g>
    </g>
    <g id="xtick_5">
     <g id="line2d_5">
      <g>
       <use xlink:href="#m51fa10c350" x="369.09704" y="313.2" style="stroke: #000000; stroke-width: 0.8"/>
      </g>
     </g>
     <g id="text_5">
      <!-- 800 -->
      <g transform="translate(359.55329 327.798437)scale(0.1 -0.1)">
       <defs>
        <path id="DejaVuSans-38" d="M 2034 2216 
Q 1584 2216 1326 1975 
Q 1069 1734 1069 1313 
Q 1069 891 1326 650 
Q 1584 409 2034 409 
Q 2484 409 2743 651 
Q 3003 894 3003 1313 
Q 3003 1734 2745 1975 
Q 2488 2216 2034 2216 
z
M 1403 2484 
Q 997 2584 770 2862 
Q 544 3141 544 3541 
Q 544 4100 942 4425 
Q 1341 4750 2034 4750 
Q 2731 4750 3128 4425 
Q 3525 4100 3525 3541 
Q 3525 3141 3298 2862 
Q 3072 2584 2669 2484 
Q 3125 2378 3379 2068 
Q 3634 1759 3634 1313 
Q 3634 634 3220 271 
Q 2806 -91 2034 -91 
Q 1263 -91 848 271 
Q 434 634 434 1313 
Q 434 1759 690 2068 
Q 947 2378 1403 2484 
z
M 1172 3481 
Q 1172 3119 1398 2916 
Q 1625 2713 2034 2713 
Q 2441 2713 2670 2916 
Q 2900 3119 2900 3481 
Q 2900 3844 2670 4047 
Q 2441 4250 2034 4250 
Q 1625 4250 1398 4047 
Q 1172 3844 1172 3481 
z
" transform="scale(0.015625)"/>
       </defs>
       <use xlink:href="#DejaVuSans-38"/>
       <use xlink:href="#DejaVuSans-30" x="63.623047"/>
       <use xlink:href="#DejaVuSans-30" x="127.246094"/>
      </g>
     </g>
    </g>
    <g id="xtick_6">
     <g id="line2d_6">
      <g>
       <use xlink:href="#m51fa10c350" x="442.788914" y="313.2" style="stroke: #000000; stroke-width: 0.8"/>
      </g>
     </g>
     <g id="text_6">
      <!-- 1000 -->
      <g transform="translate(430.063914 327.798437)scale(0.1 -0.1)">
       <defs>
        <path id="DejaVuSans-31" d="M 794 531 
L 1825 531 
L 1825 4091 
L 703 3866 
L 703 4441 
L 1819 4666 
L 2450 4666 
L 2450 531 
L 3481 531 
L 3481 0 
L 794 0 
L 794 531 
z
" transform="scale(0.015625)"/>
       </defs>
       <use xlink:href="#DejaVuSans-31"/>
       <use xlink:href="#DejaVuSans-30" x="63.623047"/>
       <use xlink:href="#DejaVuSans-30" x="127.246094"/>
       <use xlink:href="#DejaVuSans-30" x="190.869141"/>
      </g>
     </g>
    </g>
    <g id="text_7">
     <!-- Episode -->
     <g transform="translate(228.91875 345.275781)scale(0.15 -0.15)">
      <defs>
       <path id="DejaVuSans-45" d="M 628 4666 
L 3578 4666 
L 3578 4134 
L 1259 4134 
L 1259 2753 
L 3481 2753 
L 3481 2222 
L 1259 2222 
L 1259 531 
L 3634 531 
L 3634 0 
L 628 0 
L 628 4666 
z
" transform="scale(0.015625)"/>
       <path id="DejaVuSans-70" d="M 1159 525 
L 1159 -1331 
L 581 -1331 
L 581 3500 
L 1159 3500 
L 1159 2969 
Q 1341 3281 1617 3432 
Q 1894 3584 2278 3584 
Q 2916 3584 3314 3078 
Q 3713 2572 3713 1747 
Q 3713 922 3314 415 
Q 2916 -91 2278 -91 
Q 1894 -91 1617 61 
Q 1341 213 1159 525 
z
M 3116 1747 
Q 3116 2381 2855 2742 
Q 2594 3103 2138 3103 
Q 1681 3103 1420 2742 
Q 1159 2381 1159 1747 
Q 1159 1113 1420 752 
Q 1681 391 2138 391 
Q 2594 391 2855 752 
Q 3116 1113 3116 1747 
z
" transform="scale(0.015625)"/>
       <path id="DejaVuSans-69" d="M 603 3500 
L 1178 3500 
L 1178 0 
L 603 0 
L 603 3500 
z
M 603 4863 
L 1178 4863 
L 1178 4134 
L 603 4134 
L 603 4863 
z
" transform="scale(0.015625)"/>
       <path id="DejaVuSans-73" d="M 2834 3397 
L 2834 2853 
Q 2591 2978 2328 3040 
Q 2066 3103 1784 3103 
Q 1356 3103 1142 2972 
Q 928 2841 928 2578 
Q 928 2378 1081 2264 
Q 1234 2150 1697 2047 
L 1894 2003 
Q 2506 1872 2764 1633 
Q 3022 1394 3022 966 
Q 3022 478 2636 193 
Q 2250 -91 1575 -91 
Q 1294 -91 989 -36 
Q 684 19 347 128 
L 347 722 
Q 666 556 975 473 
Q 1284 391 1588 391 
Q 1994 391 2212 530 
Q 2431 669 2431 922 
Q 2431 1156 2273 1281 
Q 2116 1406 1581 1522 
L 1381 1569 
Q 847 1681 609 1914 
Q 372 2147 372 2553 
Q 372 3047 722 3315 
Q 1072 3584 1716 3584 
Q 2034 3584 2315 3537 
Q 2597 3491 2834 3397 
z
" transform="scale(0.015625)"/>
       <path id="DejaVuSans-6f" d="M 1959 3097 
Q 1497 3097 1228 2736 
Q 959 2375 959 1747 
Q 959 1119 1226 758 
Q 1494 397 1959 397 
Q 2419 397 2687 759 
Q 2956 1122 2956 1747 
Q 2956 2369 2687 2733 
Q 2419 3097 1959 3097 
z
M 1959 3584 
Q 2709 3584 3137 3096 
Q 3566 2609 3566 1747 
Q 3566 888 3137 398 
Q 2709 -91 1959 -91 
Q 1206 -91 779 398 
Q 353 888 353 1747 
Q 353 2609 779 3096 
Q 1206 3584 1959 3584 
z
" transform="scale(0.015625)"/>
       <path id="DejaVuSans-64" d="M 2906 2969 
L 2906 4863 
L 3481 4863 
L 3481 0 
L 2906 0 
L 2906 525 
Q 2725 213 2448 61 
Q 2172 -91 1784 -91 
Q 1150 -91 751 415 
Q 353 922 353 1747 
Q 353 2572 751 3078 
Q 1150 3584 1784 3584 
Q 2172 3584 2448 3432 
Q 2725 3281 2906 2969 
z
M 947 1747 
Q 947 1113 1208 752 
Q 1469 391 1925 391 
Q 2381 391 2643 752 
Q 2906 1113 2906 1747 
Q 2906 2381 2643 2742 
Q 2381 3103 1925 3103 
Q 1469 3103 1208 2742 
Q 947 2381 947 1747 
z
" transform="scale(0.015625)"/>
       <path id="DejaVuSans-65" d="M 3597 1894 
L 3597 1613 
L 953 1613 
Q 991 1019 1311 708 
Q 1631 397 2203 397 
Q 2534 397 2845 478 
Q 3156 559 3463 722 
L 3463 178 
Q 3153 47 2828 -22 
Q 2503 -91 2169 -91 
Q 1331 -91 842 396 
Q 353 884 353 1716 
Q 353 2575 817 3079 
Q 1281 3584 2069 3584 
Q 2775 3584 3186 3129 
Q 3597 2675 3597 1894 
z
M 3022 2063 
Q 3016 2534 2758 2815 
Q 2500 3097 2075 3097 
Q 1594 3097 1305 2825 
Q 1016 2553 972 2059 
L 3022 2063 
z
" transform="scale(0.015625)"/>
      </defs>
      <use xlink:href="#DejaVuSans-45"/>
      <use xlink:href="#DejaVuSans-70" x="63.183594"/>
      <use xlink:href="#DejaVuSans-69" x="126.660156"/>
      <use xlink:href="#DejaVuSans-73" x="154.443359"/>
      <use xlink:href="#DejaVuSans-6f" x="206.542969"/>
      <use xlink:href="#DejaVuSans-64" x="267.724609"/>
      <use xlink:href="#DejaVuSans-65" x="331.201172"/>
     </g>
    </g>
   </g>
   <g id="matplotlib.axis_2">
    <g id="ytick_1">
     <g id="line2d_7">
      <defs>
       <path id="m289a44bd14" d="M 0 0 
L -3.5 0 
" style="stroke: #000000; stroke-width: 0.8"/>
      </defs>
      <g>
       <use xlink:href="#m289a44bd14" x="55.925" y="313.2" style="stroke: #000000; stroke-width: 0.8"/>
      </g>
     </g>
     <g id="text_8">
      <!-- 0 -->
      <g transform="translate(42.5625 316.999219)scale(0.1 -0.1)">
       <use xlink:href="#DejaVuSans-30"/>
      </g>
     </g>
    </g>
    <g id="ytick_2">
     <g id="line2d_8">
      <g>
       <use xlink:href="#m289a44bd14" x="55.925" y="269.446154" style="stroke: #000000; stroke-width: 0.8"/>
      </g>
     </g>
     <g id="text_9">
      <!-- 100 -->
      <g transform="translate(29.8375 273.245373)scale(0.1 -0.1)">
       <use xlink:href="#DejaVuSans-31"/>
       <use xlink:href="#DejaVuSans-30" x="63.623047"/>
       <use xlink:href="#DejaVuSans-30" x="127.246094"/>
      </g>
     </g>
    </g>
    <g id="ytick_3">
     <g id="line2d_9">
      <g>
       <use xlink:href="#m289a44bd14" x="55.925" y="225.692308" style="stroke: #000000; stroke-width: 0.8"/>
      </g>
     </g>
     <g id="text_10">
      <!-- 200 -->
      <g transform="translate(29.8375 229.491526)scale(0.1 -0.1)">
       <use xlink:href="#DejaVuSans-32"/>
       <use xlink:href="#DejaVuSans-30" x="63.623047"/>
       <use xlink:href="#DejaVuSans-30" x="127.246094"/>
      </g>
     </g>
    </g>
    <g id="ytick_4">
     <g id="line2d_10">
      <g>
       <use xlink:href="#m289a44bd14" x="55.925" y="181.938462" style="stroke: #000000; stroke-width: 0.8"/>
      </g>
     </g>
     <g id="text_11">
      <!-- 300 -->
      <g transform="translate(29.8375 185.73768)scale(0.1 -0.1)">
       <defs>
        <path id="DejaVuSans-33" d="M 2597 2516 
Q 3050 2419 3304 2112 
Q 3559 1806 3559 1356 
Q 3559 666 3084 287 
Q 2609 -91 1734 -91 
Q 1441 -91 1130 -33 
Q 819 25 488 141 
L 488 750 
Q 750 597 1062 519 
Q 1375 441 1716 441 
Q 2309 441 2620 675 
Q 2931 909 2931 1356 
Q 2931 1769 2642 2001 
Q 2353 2234 1838 2234 
L 1294 2234 
L 1294 2753 
L 1863 2753 
Q 2328 2753 2575 2939 
Q 2822 3125 2822 3475 
Q 2822 3834 2567 4026 
Q 2313 4219 1838 4219 
Q 1578 4219 1281 4162 
Q 984 4106 628 3988 
L 628 4550 
Q 988 4650 1302 4700 
Q 1616 4750 1894 4750 
Q 2613 4750 3031 4423 
Q 3450 4097 3450 3541 
Q 3450 3153 3228 2886 
Q 3006 2619 2597 2516 
z
" transform="scale(0.015625)"/>
       </defs>
       <use xlink:href="#DejaVuSans-33"/>
       <use xlink:href="#DejaVuSans-30" x="63.623047"/>
       <use xlink:href="#DejaVuSans-30" x="127.246094"/>
      </g>
     </g>
    </g>
    <g id="ytick_5">
     <g id="line2d_11">
      <g>
       <use xlink:href="#m289a44bd14" x="55.925" y="138.184615" style="stroke: #000000; stroke-width: 0.8"/>
      </g>
     </g>
     <g id="text_12">
      <!-- 400 -->
      <g transform="translate(29.8375 141.983834)scale(0.1 -0.1)">
       <use xlink:href="#DejaVuSans-34"/>
       <use xlink:href="#DejaVuSans-30" x="63.623047"/>
       <use xlink:href="#DejaVuSans-30" x="127.246094"/>
      </g>
     </g>
    </g>
    <g id="ytick_6">
     <g id="line2d_12">
      <g>
       <use xlink:href="#m289a44bd14" x="55.925" y="94.430769" style="stroke: #000000; stroke-width: 0.8"/>
      </g>
     </g>
     <g id="text_13">
      <!-- 500 -->
      <g transform="translate(29.8375 98.229988)scale(0.1 -0.1)">
       <defs>
        <path id="DejaVuSans-35" d="M 691 4666 
L 3169 4666 
L 3169 4134 
L 1269 4134 
L 1269 2991 
Q 1406 3038 1543 3061 
Q 1681 3084 1819 3084 
Q 2600 3084 3056 2656 
Q 3513 2228 3513 1497 
Q 3513 744 3044 326 
Q 2575 -91 1722 -91 
Q 1428 -91 1123 -41 
Q 819 9 494 109 
L 494 744 
Q 775 591 1075 516 
Q 1375 441 1709 441 
Q 2250 441 2565 725 
Q 2881 1009 2881 1497 
Q 2881 1984 2565 2268 
Q 2250 2553 1709 2553 
Q 1456 2553 1204 2497 
Q 953 2441 691 2322 
L 691 4666 
z
" transform="scale(0.015625)"/>
       </defs>
       <use xlink:href="#DejaVuSans-35"/>
       <use xlink:href="#DejaVuSans-30" x="63.623047"/>
       <use xlink:href="#DejaVuSans-30" x="127.246094"/>
      </g>
     </g>
    </g>
    <g id="ytick_7">
     <g id="line2d_13">
      <g>
       <use xlink:href="#m289a44bd14" x="55.925" y="50.676923" style="stroke: #000000; stroke-width: 0.8"/>
      </g>
     </g>
     <g id="text_14">
      <!-- 600 -->
      <g transform="translate(29.8375 54.476142)scale(0.1 -0.1)">
       <use xlink:href="#DejaVuSans-36"/>
       <use xlink:href="#DejaVuSans-30" x="63.623047"/>
       <use xlink:href="#DejaVuSans-30" x="127.246094"/>
      </g>
     </g>
    </g>
    <g id="text_15">
     <!-- Score -->
     <g transform="translate(22.717969 192.003516)rotate(-90)scale(0.15 -0.15)">
      <defs>
       <path id="DejaVuSans-53" d="M 3425 4513 
L 3425 3897 
Q 3066 4069 2747 4153 
Q 2428 4238 2131 4238 
Q 1616 4238 1336 4038 
Q 1056 3838 1056 3469 
Q 1056 3159 1242 3001 
Q 1428 2844 1947 2747 
L 2328 2669 
Q 3034 2534 3370 2195 
Q 3706 1856 3706 1288 
Q 3706 609 3251 259 
Q 2797 -91 1919 -91 
Q 1588 -91 1214 -16 
Q 841 59 441 206 
L 441 856 
Q 825 641 1194 531 
Q 1563 422 1919 422 
Q 2459 422 2753 634 
Q 3047 847 3047 1241 
Q 3047 1584 2836 1778 
Q 2625 1972 2144 2069 
L 1759 2144 
Q 1053 2284 737 2584 
Q 422 2884 422 3419 
Q 422 4038 858 4394 
Q 1294 4750 2059 4750 
Q 2388 4750 2728 4690 
Q 3069 4631 3425 4513 
z
" transform="scale(0.015625)"/>
       <path id="DejaVuSans-63" d="M 3122 3366 
L 3122 2828 
Q 2878 2963 2633 3030 
Q 2388 3097 2138 3097 
Q 1578 3097 1268 2742 
Q 959 2388 959 1747 
Q 959 1106 1268 751 
Q 1578 397 2138 397 
Q 2388 397 2633 464 
Q 2878 531 3122 666 
L 3122 134 
Q 2881 22 2623 -34 
Q 2366 -91 2075 -91 
Q 1284 -91 818 406 
Q 353 903 353 1747 
Q 353 2603 823 3093 
Q 1294 3584 2113 3584 
Q 2378 3584 2631 3529 
Q 2884 3475 3122 3366 
z
" transform="scale(0.015625)"/>
       <path id="DejaVuSans-72" d="M 2631 2963 
Q 2534 3019 2420 3045 
Q 2306 3072 2169 3072 
Q 1681 3072 1420 2755 
Q 1159 2438 1159 1844 
L 1159 0 
L 581 0 
L 581 3500 
L 1159 3500 
L 1159 2956 
Q 1341 3275 1631 3429 
Q 1922 3584 2338 3584 
Q 2397 3584 2469 3576 
Q 2541 3569 2628 3553 
L 2631 2963 
z
" transform="scale(0.015625)"/>
      </defs>
      <use xlink:href="#DejaVuSans-53"/>
      <use xlink:href="#DejaVuSans-63" x="63.476562"/>
      <use xlink:href="#DejaVuSans-6f" x="118.457031"/>
      <use xlink:href="#DejaVuSans-72" x="179.638672"/>
      <use xlink:href="#DejaVuSans-65" x="218.501953"/>
     </g>
    </g>
   </g>
   <g id="line2d_14">
    <path d="M 74.329545 307.074462 
L 74.698005 294.823385 
L 75.066464 299.198769 
L 75.434924 301.386462 
L 75.803383 306.199385 
L 76.540302 299.636308 
L 76.908761 304.449231 
L 77.27722 298.323692 
L 77.64568 307.512 
L 78.014139 307.949538 
L 78.751058 307.949538 
L 79.119517 300.073846 
L 79.487977 303.574154 
L 79.856436 300.073846 
L 80.224895 305.761846 
L 80.593355 303.136615 
L 80.961814 291.760615 
L 81.330273 302.699077 
L 81.698733 306.636923 
L 82.067192 298.761231 
L 82.435652 308.387077 
L 82.804111 297.886154 
L 83.17257 305.324308 
L 83.54103 295.698462 
L 83.909489 304.886769 
L 84.277948 309.262154 
L 84.646408 296.573538 
L 85.014867 304.449231 
L 85.383327 302.261538 
L 85.751786 307.512 
L 86.488705 302.261538 
L 86.857164 293.948308 
L 87.225623 304.449231 
L 87.594083 300.511385 
L 87.962542 300.073846 
L 88.331001 307.512 
L 88.699461 307.949538 
L 89.06792 303.574154 
L 89.43638 303.574154 
L 89.804839 306.199385 
L 90.173298 307.949538 
L 90.541758 307.512 
L 90.910217 285.197538 
L 91.278676 305.324308 
L 91.647136 294.823385 
L 92.015595 307.074462 
L 92.384055 308.387077 
L 92.752514 307.949538 
L 93.120973 306.636923 
L 93.489433 304.449231 
L 93.857892 303.136615 
L 94.226351 294.385846 
L 94.594811 303.136615 
L 94.96327 307.074462 
L 95.331729 306.636923 
L 95.700189 291.760615 
L 96.068648 303.136615 
L 96.437108 302.699077 
L 96.805567 303.574154 
L 97.174026 307.074462 
L 97.542486 307.949538 
L 97.910945 307.512 
L 98.279404 309.262154 
L 99.016323 307.512 
L 99.384783 305.761846 
L 99.753242 307.949538 
L 100.121701 306.636923 
L 100.490161 307.949538 
L 100.85862 298.761231 
L 101.227079 304.886769 
L 101.595539 304.449231 
L 101.963998 306.636923 
L 102.332457 298.323692 
L 102.700917 299.198769 
L 103.069376 307.512 
L 103.437836 304.011692 
L 103.806295 305.761846 
L 104.174754 304.449231 
L 104.543214 305.761846 
L 104.911673 307.949538 
L 105.280132 305.761846 
L 105.648592 307.512 
L 106.017051 305.761846 
L 106.385511 306.199385 
L 106.75397 300.511385 
L 107.122429 300.948923 
L 107.490889 286.072615 
L 107.859348 307.949538 
L 108.227807 303.136615 
L 108.596267 306.636923 
L 108.964726 306.636923 
L 109.701645 298.761231 
L 110.438564 306.636923 
L 110.807023 288.260308 
L 111.175482 305.761846 
L 111.543942 294.385846 
L 111.912401 298.761231 
L 112.28086 293.510769 
L 112.64932 306.636923 
L 113.386239 305.761846 
L 113.754698 296.573538 
L 114.123157 305.324308 
L 114.491617 301.386462 
L 114.860076 306.199385 
L 115.228535 309.262154 
L 115.965454 306.199385 
L 116.333913 305.761846 
L 116.702373 292.635692 
L 117.070832 308.824615 
L 117.439292 304.886769 
L 117.807751 293.510769 
L 118.17621 303.136615 
L 118.54467 308.824615 
L 118.913129 303.574154 
L 119.281588 304.011692 
L 119.650048 307.949538 
L 120.018507 307.512 
L 120.386967 305.324308 
L 120.755426 297.886154 
L 121.123885 303.574154 
L 121.492345 305.761846 
L 121.860804 308.824615 
L 122.229263 292.635692 
L 122.597723 306.636923 
L 122.966182 305.761846 
L 123.334641 306.199385 
L 123.703101 292.198154 
L 124.07156 307.512 
L 124.808479 300.511385 
L 125.176938 304.449231 
L 125.545398 286.510154 
L 125.913857 307.074462 
L 126.282316 306.636923 
L 126.650776 298.761231 
L 127.019235 307.949538 
L 127.387695 306.636923 
L 127.756154 299.198769 
L 128.124613 304.011692 
L 128.493073 305.324308 
L 128.861532 305.761846 
L 129.229991 300.511385 
L 129.598451 286.510154 
L 129.96691 304.886769 
L 130.335369 293.073231 
L 130.703829 306.199385 
L 131.072288 302.699077 
L 131.440748 290.885538 
L 131.809207 301.824 
L 132.177666 307.074462 
L 132.546126 307.512 
L 132.914585 284.76 
L 133.283044 305.324308 
L 133.651504 305.761846 
L 134.019963 307.949538 
L 134.388423 308.387077 
L 135.125341 299.198769 
L 135.493801 300.948923 
L 135.86226 307.512 
L 136.230719 306.199385 
L 136.599179 305.761846 
L 136.967638 306.199385 
L 137.336097 307.512 
L 137.704557 303.574154 
L 138.073016 304.449231 
L 138.441476 308.387077 
L 138.809935 293.510769 
L 139.546854 307.949538 
L 139.915313 301.824 
L 140.283772 303.136615 
L 140.652232 306.199385 
L 141.020691 306.636923 
L 141.389151 306.636923 
L 141.75761 293.948308 
L 142.126069 297.448615 
L 142.494529 302.699077 
L 142.862988 305.761846 
L 143.231447 307.512 
L 143.599907 307.949538 
L 143.968366 282.134769 
L 144.336825 299.198769 
L 144.705285 305.324308 
L 145.073744 308.387077 
L 146.179122 292.198154 
L 146.547582 304.886769 
L 146.916041 302.261538 
L 147.2845 305.324308 
L 147.65296 305.324308 
L 148.021419 307.512 
L 148.389879 304.886769 
L 148.758338 300.948923 
L 149.126797 298.761231 
L 149.495257 305.761846 
L 149.863716 305.324308 
L 150.232175 307.949538 
L 150.969094 288.260308 
L 151.706013 305.761846 
L 152.074472 303.574154 
L 152.442932 305.761846 
L 152.811391 308.824615 
L 153.17985 308.387077 
L 153.54831 306.636923 
L 153.916769 302.261538 
L 154.285228 303.574154 
L 154.653688 302.261538 
L 155.022147 304.449231 
L 155.390607 305.324308 
L 155.759066 308.824615 
L 156.127525 305.324308 
L 156.495985 300.511385 
L 156.864444 307.949538 
L 157.232903 279.509538 
L 157.601363 297.448615 
L 157.969822 292.198154 
L 158.338281 302.699077 
L 158.706741 302.261538 
L 159.0752 307.512 
L 159.44366 305.761846 
L 159.812119 305.761846 
L 160.180578 306.199385 
L 160.549038 287.385231 
L 161.285956 305.324308 
L 161.654416 290.885538 
L 162.022875 303.136615 
L 162.391335 292.198154 
L 162.759794 307.949538 
L 163.128253 302.699077 
L 163.496713 302.699077 
L 163.865172 296.136 
L 164.233631 304.886769 
L 164.602091 294.385846 
L 164.97055 305.761846 
L 165.339009 304.886769 
L 165.707469 307.949538 
L 166.075928 304.011692 
L 166.444388 303.136615 
L 166.812847 302.699077 
L 167.181306 296.573538 
L 167.549766 299.198769 
L 167.918225 308.824615 
L 168.286684 300.511385 
L 168.655144 303.574154 
L 169.023603 267.696 
L 169.392063 306.636923 
L 169.760522 286.947692 
L 170.128981 291.760615 
L 170.497441 300.073846 
L 170.8659 296.136 
L 171.234359 306.199385 
L 171.602819 304.886769 
L 171.971278 295.698462 
L 172.339737 305.761846 
L 172.708197 307.512 
L 173.076656 263.758154 
L 173.445116 295.698462 
L 173.813575 303.574154 
L 174.182034 304.449231 
L 174.550494 298.761231 
L 174.918953 299.636308 
L 175.287412 303.136615 
L 175.655872 299.198769 
L 176.024331 303.574154 
L 176.392791 258.507692 
L 176.76125 298.323692 
L 177.129709 300.511385 
L 177.498169 303.574154 
L 177.866628 303.136615 
L 178.235087 298.323692 
L 178.603547 271.196308 
L 179.340465 298.761231 
L 179.708925 295.698462 
L 180.077384 300.511385 
L 180.445844 301.386462 
L 181.182762 272.946462 
L 181.551222 293.948308 
L 181.919681 293.510769 
L 182.28814 305.761846 
L 182.6566 304.449231 
L 183.025059 286.947692 
L 183.393519 286.510154 
L 183.761978 300.948923 
L 184.130437 286.072615 
L 184.498897 299.198769 
L 184.867356 303.136615 
L 185.235815 277.321846 
L 185.604275 298.323692 
L 185.972734 299.636308 
L 186.341193 303.574154 
L 186.709653 281.697231 
L 187.078112 298.761231 
L 187.446572 304.449231 
L 187.815031 287.385231 
L 188.18349 290.010462 
L 188.55195 255.882462 
L 188.920409 288.697846 
L 189.288868 302.699077 
L 189.657328 301.386462 
L 190.025787 305.324308 
L 190.394247 294.385846 
L 190.762706 286.947692 
L 191.131165 303.574154 
L 191.499625 272.508923 
L 191.868084 300.073846 
L 192.236543 297.886154 
L 192.605003 278.196923 
L 192.973462 297.448615 
L 193.341921 300.948923 
L 193.710381 297.886154 
L 194.07884 269.008615 
L 194.4473 294.385846 
L 194.815759 283.009846 
L 195.184218 298.323692 
L 195.552678 280.384615 
L 195.921137 284.322462 
L 196.289596 293.073231 
L 196.658056 284.322462 
L 197.026515 304.886769 
L 197.394975 281.259692 
L 197.763434 296.136 
L 198.131893 304.886769 
L 198.500353 290.448 
L 198.868812 296.136 
L 199.237271 305.761846 
L 199.605731 294.823385 
L 199.97419 299.636308 
L 200.342649 280.822154 
L 200.711109 297.448615 
L 201.079568 299.636308 
L 201.448028 293.073231 
L 201.816487 292.198154 
L 202.184946 271.196308 
L 202.553406 297.886154 
L 202.921865 292.198154 
L 203.290324 298.761231 
L 203.658784 288.697846 
L 204.395703 303.136615 
L 204.764162 305.324308 
L 205.132621 304.011692 
L 205.501081 280.822154 
L 205.86954 300.511385 
L 206.237999 300.511385 
L 206.606459 284.322462 
L 206.974918 299.198769 
L 207.343377 304.449231 
L 207.711837 289.572923 
L 208.080296 295.698462 
L 208.448756 305.324308 
L 208.817215 297.448615 
L 209.185674 281.259692 
L 209.554134 305.761846 
L 209.922593 298.761231 
L 210.291052 302.699077 
L 210.659512 282.572308 
L 211.027971 302.699077 
L 211.396431 301.386462 
L 212.133349 289.135385 
L 212.501809 300.073846 
L 212.870268 284.76 
L 213.238727 279.072 
L 213.607187 301.824 
L 214.344105 289.135385 
L 214.712565 279.947077 
L 215.081024 276.009231 
L 215.449484 282.134769 
L 215.817943 286.072615 
L 216.186402 299.636308 
L 216.554862 290.885538 
L 216.923321 302.699077 
L 217.29178 279.947077 
L 217.66024 292.635692 
L 218.028699 290.885538 
L 218.397159 298.323692 
L 218.765618 293.948308 
L 219.134077 296.573538 
L 219.502537 278.196923 
L 219.870996 281.259692 
L 220.239455 301.824 
L 220.607915 302.261538 
L 220.976374 299.198769 
L 221.344833 291.323077 
L 221.713293 292.198154 
L 222.081752 285.197538 
L 222.450212 292.198154 
L 222.818671 290.010462 
L 223.18713 290.010462 
L 223.55559 285.635077 
L 223.924049 267.258462 
L 224.292508 212.128615 
L 224.660968 303.136615 
L 225.029427 283.447385 
L 225.397887 269.883692 
L 225.766346 296.573538 
L 226.134805 288.697846 
L 226.503265 285.197538 
L 226.871724 286.510154 
L 227.240183 285.197538 
L 227.608643 278.634462 
L 227.977102 286.947692 
L 228.345561 289.135385 
L 228.714021 293.073231 
L 229.08248 294.385846 
L 229.45094 300.073846 
L 229.819399 289.135385 
L 230.187858 270.321231 
L 230.556318 269.883692 
L 230.924777 268.133538 
L 231.293236 291.323077 
L 231.661696 291.760615 
L 232.030155 300.511385 
L 232.398615 267.696 
L 232.767074 294.385846 
L 233.135533 299.636308 
L 233.503993 290.010462 
L 233.872452 295.698462 
L 234.240911 293.510769 
L 234.609371 300.511385 
L 234.97783 286.947692 
L 235.346289 284.76 
L 235.714749 294.385846 
L 236.083208 280.384615 
L 236.451668 290.885538 
L 236.820127 262.445538 
L 237.188586 296.136 
L 237.557046 278.634462 
L 237.925505 297.886154 
L 238.293964 254.132308 
L 238.662424 288.260308 
L 239.030883 283.884923 
L 239.399343 293.073231 
L 239.767802 280.822154 
L 240.136261 290.010462 
L 240.504721 258.070154 
L 240.87318 289.135385 
L 241.241639 286.072615 
L 241.610099 267.258462 
L 241.978558 278.196923 
L 242.347017 283.009846 
L 242.715477 271.633846 
L 243.083936 272.071385 
L 243.452396 279.509538 
L 243.820855 297.886154 
L 244.557774 286.947692 
L 244.926233 276.446769 
L 245.294692 282.134769 
L 245.663152 262.008 
L 246.031611 278.196923 
L 246.400071 263.320615 
L 246.76853 297.448615 
L 247.136989 288.260308 
L 247.505449 302.261538 
L 247.873908 286.947692 
L 248.242367 282.134769 
L 248.610827 285.197538 
L 248.979286 294.823385 
L 249.347745 286.510154 
L 249.716205 293.948308 
L 250.084664 284.322462 
L 250.453124 286.510154 
L 250.821583 265.945846 
L 251.190042 289.572923 
L 251.558502 284.322462 
L 251.926961 280.822154 
L 252.29542 285.197538 
L 252.66388 293.073231 
L 253.032339 287.822769 
L 253.400799 255.007385 
L 253.769258 288.697846 
L 254.137717 281.259692 
L 254.506177 291.760615 
L 254.874636 286.947692 
L 255.243095 289.572923 
L 255.611555 268.133538 
L 255.980014 296.136 
L 256.348473 247.131692 
L 256.716933 288.260308 
L 257.085392 283.009846 
L 257.453852 290.010462 
L 257.822311 275.134154 
L 258.19077 272.508923 
L 258.55923 276.446769 
L 258.927689 269.883692 
L 259.296148 283.447385 
L 259.664608 282.134769 
L 260.033067 293.073231 
L 260.401527 269.883692 
L 260.769986 288.260308 
L 261.138445 265.945846 
L 261.506905 285.197538 
L 261.875364 265.945846 
L 262.243823 291.323077 
L 262.612283 286.072615 
L 262.980742 286.510154 
L 263.349201 294.385846 
L 263.717661 293.073231 
L 264.08612 262.445538 
L 264.45458 285.635077 
L 264.823039 273.821538 
L 265.191498 283.884923 
L 265.559958 278.196923 
L 265.928417 275.571692 
L 266.665336 271.633846 
L 267.033795 276.446769 
L 267.402255 283.447385 
L 267.770714 272.946462 
L 268.139173 285.635077 
L 268.507633 237.068308 
L 268.876092 277.321846 
L 269.244551 293.073231 
L 269.613011 281.697231 
L 269.98147 286.072615 
L 270.349929 287.385231 
L 270.718389 277.321846 
L 271.455308 290.448 
L 271.823767 292.635692 
L 272.192226 286.510154 
L 272.560686 288.697846 
L 272.929145 294.823385 
L 273.297604 279.947077 
L 273.666064 289.572923 
L 274.034523 286.072615 
L 274.402983 294.823385 
L 274.771442 294.385846 
L 275.139901 272.071385 
L 275.508361 293.510769 
L 275.87682 277.321846 
L 276.245279 283.009846 
L 276.613739 280.384615 
L 276.982198 295.260923 
L 277.350657 292.198154 
L 277.719117 294.823385 
L 278.087576 281.259692 
L 278.824495 271.633846 
L 279.192954 278.634462 
L 279.561414 287.822769 
L 279.929873 288.260308 
L 280.298332 293.073231 
L 280.666792 299.636308 
L 281.035251 280.822154 
L 281.403711 289.572923 
L 281.77217 286.947692 
L 282.140629 283.009846 
L 282.509089 277.321846 
L 282.877548 283.009846 
L 283.246007 293.073231 
L 283.614467 293.510769 
L 283.982926 265.508308 
L 284.351385 279.509538 
L 284.719845 275.571692 
L 285.088304 203.377846 
L 285.456764 278.196923 
L 285.825223 290.448 
L 286.193682 287.385231 
L 286.562142 282.134769 
L 286.930601 295.260923 
L 287.29906 279.947077 
L 287.66752 295.260923 
L 288.035979 279.509538 
L 288.404439 293.948308 
L 288.772898 269.883692 
L 289.141357 287.385231 
L 289.509817 268.133538 
L 289.878276 290.010462 
L 290.246735 276.884308 
L 290.615195 280.822154 
L 290.983654 274.696615 
L 291.352113 286.510154 
L 291.720573 281.697231 
L 292.089032 293.073231 
L 292.457492 276.884308 
L 292.825951 279.947077 
L 293.19441 288.697846 
L 293.56287 292.198154 
L 293.931329 286.510154 
L 294.299788 286.947692 
L 294.668248 277.321846 
L 295.036707 283.884923 
L 295.773626 267.258462 
L 296.142085 269.446154 
L 296.510545 282.134769 
L 296.879004 280.822154 
L 297.247463 265.508308 
L 297.615923 274.259077 
L 297.984382 276.009231 
L 298.352841 292.198154 
L 298.721301 289.572923 
L 299.08976 283.884923 
L 299.45822 286.510154 
L 299.826679 262.883077 
L 300.195138 294.385846 
L 300.563598 246.694154 
L 300.932057 283.447385 
L 301.300516 278.634462 
L 301.668976 292.198154 
L 302.037435 287.822769 
L 302.405895 255.444923 
L 302.774354 262.008 
L 303.142813 260.695385 
L 303.511273 275.571692 
L 303.879732 276.884308 
L 304.248191 295.698462 
L 304.616651 292.198154 
L 304.98511 287.385231 
L 305.353569 269.883692 
L 305.722029 263.320615 
L 306.090488 263.758154 
L 306.458948 279.509538 
L 306.827407 283.447385 
L 307.195866 267.258462 
L 307.564326 262.008 
L 307.932785 272.071385 
L 308.301244 275.134154 
L 308.669704 269.008615 
L 309.038163 288.260308 
L 309.406623 292.198154 
L 309.775082 284.322462 
L 310.143541 288.260308 
L 310.512001 274.259077 
L 310.88046 243.631385 
L 311.248919 291.323077 
L 311.617379 276.884308 
L 311.985838 280.822154 
L 312.354297 288.697846 
L 312.722757 279.072 
L 313.091216 286.072615 
L 313.828135 274.696615 
L 314.196594 286.947692 
L 314.565054 265.508308 
L 315.301972 285.635077 
L 315.670432 284.76 
L 316.038891 287.385231 
L 316.407351 283.447385 
L 316.77581 275.134154 
L 317.144269 280.822154 
L 317.512729 280.384615 
L 317.881188 274.259077 
L 318.249647 271.633846 
L 318.618107 285.197538 
L 318.986566 281.697231 
L 319.355025 276.884308 
L 319.723485 285.197538 
L 320.091944 286.947692 
L 320.460404 266.820923 
L 320.828863 215.628923 
L 321.197322 290.448 
L 321.565782 278.196923 
L 321.934241 279.947077 
L 322.3027 284.76 
L 322.67116 278.634462 
L 323.039619 263.758154 
L 323.408079 274.259077 
L 323.776538 278.196923 
L 324.144997 288.697846 
L 324.513457 291.323077 
L 324.881916 276.446769 
L 325.250375 248.881846 
L 325.618835 292.198154 
L 325.987294 280.822154 
L 326.355753 290.885538 
L 326.724213 259.382769 
L 327.092672 291.760615 
L 327.461132 290.010462 
L 328.19805 271.633846 
L 328.934969 280.384615 
L 329.303428 265.508308 
L 329.671888 279.947077 
L 330.408807 265.508308 
L 330.777266 279.509538 
L 331.145725 278.634462 
L 331.514185 273.384 
L 331.882644 280.384615 
L 332.251103 278.196923 
L 332.619563 277.759385 
L 332.988022 285.635077 
L 333.356481 284.322462 
L 333.724941 291.323077 
L 334.0934 259.382769 
L 334.46186 287.822769 
L 334.830319 258.507692 
L 335.198778 277.321846 
L 335.567238 261.570462 
L 335.935697 278.634462 
L 336.304156 228.317538 
L 336.672616 295.260923 
L 337.041075 278.196923 
L 337.409535 292.198154 
L 337.777994 282.572308 
L 338.146453 288.697846 
L 338.514913 289.135385 
L 338.883372 286.072615 
L 339.251831 287.822769 
L 339.620291 250.194462 
L 339.98875 201.190154 
L 340.357209 278.196923 
L 340.725669 248.444308 
L 341.094128 283.447385 
L 341.462588 279.947077 
L 341.831047 223.067077 
L 342.199506 255.444923 
L 342.936425 286.947692 
L 343.304884 284.322462 
L 343.673344 272.508923 
L 344.041803 286.510154 
L 344.410263 283.009846 
L 344.778722 287.385231 
L 345.147181 285.197538 
L 345.515641 230.942769 
L 345.8841 235.318154 
L 346.252559 275.134154 
L 346.621019 287.822769 
L 346.989478 287.822769 
L 347.357937 290.010462 
L 347.726397 281.697231 
L 348.094856 258.070154 
L 348.463316 261.132923 
L 348.831775 251.507077 
L 349.200234 283.447385 
L 349.568694 251.507077 
L 349.937153 262.008 
L 350.305612 290.010462 
L 350.674072 266.820923 
L 351.042531 288.260308 
L 351.410991 269.446154 
L 351.77945 281.697231 
L 352.147909 248.444308 
L 352.516369 283.447385 
L 352.884828 225.692308 
L 353.253287 276.446769 
L 353.621747 251.944615 
L 353.990206 266.383385 
L 354.358665 269.446154 
L 354.727125 244.944 
L 355.095584 290.010462 
L 355.464044 270.321231 
L 355.832503 293.073231 
L 356.200962 209.065846 
L 356.569422 289.572923 
L 356.937881 178.875692 
L 357.6748 288.260308 
L 358.043259 257.195077 
L 358.411719 283.447385 
L 358.780178 289.135385 
L 359.148637 271.633846 
L 359.885556 255.444923 
L 360.254015 278.634462 
L 360.622475 270.321231 
L 360.990934 249.756923 
L 361.359393 256.32 
L 361.727853 286.947692 
L 362.096312 290.885538 
L 362.464772 285.635077 
L 362.833231 291.760615 
L 363.20169 290.448 
L 363.57015 283.009846 
L 363.938609 251.069538 
L 364.307068 287.822769 
L 364.675528 279.509538 
L 365.043987 285.635077 
L 365.412447 262.445538 
L 365.780906 287.385231 
L 366.149365 288.697846 
L 366.517825 236.630769 
L 367.254743 277.759385 
L 367.623203 287.822769 
L 367.991662 287.385231 
L 368.360121 292.198154 
L 368.728581 265.508308 
L 369.09704 273.384 
L 369.4655 289.572923 
L 369.833959 273.384 
L 370.202418 269.008615 
L 370.570878 280.822154 
L 370.939337 238.380923 
L 371.307796 274.696615 
L 371.676256 285.197538 
L 372.044715 273.821538 
L 372.413175 286.510154 
L 372.781634 289.572923 
L 373.150093 262.008 
L 373.518553 282.572308 
L 373.887012 272.946462 
L 374.255471 269.883692 
L 374.623931 222.629538 
L 374.99239 291.760615 
L 375.360849 286.072615 
L 375.729309 277.321846 
L 376.097768 255.444923 
L 376.466228 278.634462 
L 376.834687 268.133538 
L 377.203146 282.572308 
L 377.571606 282.572308 
L 377.940065 244.068923 
L 378.308524 271.196308 
L 378.676984 289.572923 
L 379.045443 265.945846 
L 379.413903 289.135385 
L 379.782362 287.385231 
L 380.150821 292.198154 
L 380.519281 286.947692 
L 381.256199 266.820923 
L 381.624659 290.885538 
L 381.993118 276.884308 
L 382.361577 290.448 
L 382.730037 264.195692 
L 383.098496 286.510154 
L 383.466956 288.697846 
L 383.835415 259.382769 
L 384.203874 261.570462 
L 384.572334 279.072 
L 384.940793 281.259692 
L 385.309252 287.385231 
L 385.677712 280.822154 
L 386.046171 269.883692 
L 386.414631 284.76 
L 386.78309 269.008615 
L 387.151549 280.822154 
L 387.520009 272.946462 
L 387.888468 290.448 
L 388.256927 288.697846 
L 388.993846 283.009846 
L 389.362305 260.257846 
L 389.730765 195.939692 
L 390.099224 288.260308 
L 390.467684 267.258462 
L 390.836143 213.441231 
L 391.204602 285.197538 
L 391.573062 285.197538 
L 391.941521 292.635692 
L 392.30998 255.444923 
L 393.046899 281.259692 
L 393.415359 281.259692 
L 393.783818 283.884923 
L 394.152277 292.198154 
L 394.520737 252.382154 
L 394.889196 286.947692 
L 395.257655 258.070154 
L 395.626115 284.322462 
L 395.994574 283.447385 
L 396.363033 280.822154 
L 396.731493 291.323077 
L 397.468412 262.445538 
L 397.836871 278.634462 
L 398.20533 283.447385 
L 398.57379 277.759385 
L 398.942249 280.384615 
L 399.310708 256.32 
L 399.679168 285.635077 
L 400.047627 282.134769 
L 400.416087 288.260308 
L 400.784546 269.008615 
L 401.153005 284.76 
L 401.521465 267.696 
L 401.889924 285.197538 
L 402.258383 265.508308 
L 402.626843 275.134154 
L 402.995302 289.135385 
L 403.363761 284.76 
L 403.732221 283.884923 
L 404.10068 288.260308 
L 404.46914 286.510154 
L 404.837599 291.323077 
L 405.206058 274.259077 
L 405.574518 281.259692 
L 405.942977 268.571077 
L 406.311436 286.947692 
L 406.679896 288.260308 
L 407.048355 279.072 
L 407.416815 277.321846 
L 407.785274 277.759385 
L 408.153733 288.697846 
L 408.522193 279.509538 
L 408.890652 290.010462 
L 409.259111 273.384 
L 409.627571 282.572308 
L 409.99603 283.884923 
L 410.364489 267.696 
L 410.732949 286.510154 
L 411.101408 287.385231 
L 411.838327 264.633231 
L 412.206786 263.758154 
L 412.575246 270.758769 
L 412.943705 262.445538 
L 413.312164 264.195692 
L 413.680624 270.321231 
L 414.049083 283.447385 
L 414.417543 265.945846 
L 414.786002 282.572308 
L 415.154461 267.258462 
L 415.522921 259.820308 
L 415.89138 275.571692 
L 416.259839 230.067692 
L 416.628299 263.758154 
L 416.996758 259.820308 
L 417.365217 267.696 
L 417.733677 252.819692 
L 418.102136 247.569231 
L 418.839055 121.558154 
L 419.207514 275.571692 
L 419.575974 276.884308 
L 420.312892 187.188923 
L 420.681352 238.818462 
L 421.049811 255.882462 
L 421.418271 279.072 
L 421.78673 258.945231 
L 422.155189 257.632615 
L 422.523649 276.446769 
L 422.892108 271.196308 
L 423.260567 286.947692 
L 423.629027 243.193846 
L 423.997486 261.132923 
L 424.365945 287.385231 
L 424.734405 277.321846 
L 425.102864 230.942769 
L 425.471324 241.443692 
L 425.839783 244.506462 
L 426.208242 255.444923 
L 426.576702 279.947077 
L 426.945161 269.446154 
L 427.31362 255.444923 
L 427.68208 220.441846 
L 428.050539 277.321846 
L 428.418999 275.571692 
L 429.155917 286.947692 
L 429.524377 271.196308 
L 429.892836 269.883692 
L 430.261295 269.883692 
L 430.629755 270.321231 
L 430.998214 228.755077 
L 431.366673 271.633846 
L 431.735133 276.884308 
L 432.103592 267.696 
L 432.472052 280.822154 
L 432.840511 283.884923 
L 433.57743 249.319385 
L 433.945889 275.571692 
L 434.314348 260.257846 
L 434.682808 265.508308 
L 435.051267 283.884923 
L 435.419727 278.634462 
L 435.788186 284.322462 
L 436.156645 279.072 
L 436.525105 270.758769 
L 436.893564 279.509538 
L 437.262023 265.945846 
L 437.630483 281.259692 
L 438.735861 258.507692 
L 439.10432 275.571692 
L 439.47278 262.883077 
L 439.841239 272.508923 
L 440.209698 272.071385 
L 440.578158 233.568 
L 440.946617 263.320615 
L 441.315076 265.070769 
L 441.683536 274.259077 
L 442.051995 270.321231 
L 442.420455 272.508923 
L 442.420455 272.508923 
" clip-path="url(#pe1c7b2e1b3)" style="fill: none; stroke: #708090; stroke-width: 1.5; stroke-linecap: square"/>
   </g>
   <g id="line2d_15">
    <path d="M 74.329545 302.830338 
L 74.698005 302.84784 
L 75.434924 303.18912 
L 75.803383 303.224123 
L 76.171842 302.987852 
L 76.540302 302.987852 
L 77.27722 303.180369 
L 78.751058 302.769083 
L 79.119517 302.751582 
L 80.224895 303.171618 
L 80.961814 303.311631 
L 81.330273 303.591655 
L 82.435652 303.880431 
L 82.804111 303.687914 
L 83.17257 303.827926 
L 83.54103 303.810425 
L 83.909489 304.029194 
L 84.646408 303.696665 
L 85.014867 303.915434 
L 86.488705 303.932935 
L 86.857164 304.046695 
L 87.225623 304.282966 
L 88.699461 304.431729 
L 89.06792 304.291717 
L 89.43638 303.941686 
L 89.804839 304.029194 
L 90.910217 303.924185 
L 91.278676 304.274215 
L 91.647136 304.142954 
L 92.015595 304.309218 
L 92.384055 304.300468 
L 92.752514 303.897932 
L 93.120973 303.854178 
L 93.857892 303.495397 
L 94.226351 303.30288 
L 94.594811 303.547902 
L 95.331729 303.582905 
L 95.700189 303.381637 
L 96.068648 303.652911 
L 96.805567 303.687914 
L 97.542486 303.810425 
L 98.279404 303.740418 
L 98.647864 303.407889 
L 99.384783 303.364135 
L 99.753242 303.119114 
L 100.121701 303.022855 
L 100.490161 303.066609 
L 100.85862 302.979102 
L 101.963998 303.206622 
L 102.700917 303.171618 
L 103.069376 303.259126 
L 103.437836 303.224123 
L 103.806295 303.320382 
L 104.174754 303.057858 
L 104.911673 303.101612 
L 105.280132 303.066609 
L 105.648592 302.795335 
L 106.385511 302.751582 
L 106.75397 302.637822 
L 107.122429 302.716578 
L 107.490889 302.427803 
L 107.859348 302.84784 
L 110.070104 302.795335 
L 110.807023 302.821588 
L 111.175482 303.066609 
L 111.543942 302.681575 
L 111.912401 302.891594 
L 112.28086 302.777834 
L 112.64932 303.031606 
L 113.017779 302.952849 
L 113.386239 302.646572 
L 113.754698 302.567815 
L 114.123157 302.777834 
L 114.491617 302.821588 
L 114.860076 302.489058 
L 116.702373 302.410302 
L 117.070832 302.541563 
L 117.439292 302.384049 
L 117.807751 302.436554 
L 118.17621 302.690326 
L 119.281588 302.769083 
L 120.386967 302.707828 
L 120.755426 302.471557 
L 121.860804 302.532812 
L 122.229263 302.419052 
L 122.597723 302.690326 
L 123.334641 302.707828 
L 123.703101 302.462806 
L 124.07156 302.567815 
L 124.44002 302.471557 
L 125.176938 302.655323 
L 125.545398 302.725329 
L 126.650776 302.454055 
L 127.019235 302.646572 
L 127.756154 302.357797 
L 128.124613 302.217785 
L 129.598451 302.261538 
L 129.96691 302.681575 
L 130.335369 302.681575 
L 130.703829 302.839089 
L 131.072288 302.690326 
L 131.440748 302.751582 
L 131.809207 303.040357 
L 132.177666 303.162868 
L 132.546126 302.970351 
L 132.914585 302.585317 
L 133.283044 302.856591 
L 135.125341 302.882843 
L 135.493801 303.031606 
L 136.230719 302.979102 
L 136.967638 302.874092 
L 138.809935 302.830338 
L 139.178394 302.550314 
L 139.546854 302.489058 
L 139.915313 302.174031 
L 141.75761 302.16528 
L 142.126069 302.410302 
L 142.862988 302.112775 
L 143.231447 302.104025 
L 143.599907 301.771495 
L 143.968366 301.675237 
L 144.705285 302.05152 
L 145.442204 301.885255 
L 145.810663 301.745243 
L 146.547582 301.946511 
L 148.389879 301.955262 
L 149.495257 301.832751 
L 149.863716 301.894006 
L 150.600635 301.71024 
L 150.969094 301.115188 
L 151.337553 301.48272 
L 152.442932 300.905169 
L 152.811391 300.712652 
L 153.54831 300.590142 
L 153.916769 300.371372 
L 154.653688 300.520135 
L 155.022147 299.750068 
L 155.390607 299.575052 
L 156.127525 299.452542 
L 156.864444 299.303778 
L 157.232903 299.20752 
L 157.601363 299.601305 
L 157.969822 299.723815 
L 158.338281 299.050006 
L 160.180578 298.647471 
L 160.549038 297.947409 
L 161.654416 297.72864 
L 162.022875 297.921157 
L 162.759794 297.807397 
L 163.128253 297.107335 
L 163.865172 296.748554 
L 164.233631 296.941071 
L 164.602091 296.93232 
L 164.97055 296.783557 
L 165.339009 296.398523 
L 165.707469 296.319766 
L 166.075928 295.882228 
L 166.812847 295.785969 
L 167.181306 295.278425 
L 167.918225 295.322178 
L 168.286684 295.217169 
L 168.655144 294.840886 
L 169.023603 294.744628 
L 169.392063 295.479692 
L 169.760522 295.094658 
L 170.128981 295.155914 
L 170.497441 294.438351 
L 170.8659 294.210831 
L 171.234359 294.342092 
L 171.971278 294.254585 
L 172.339737 294.228332 
L 172.708197 293.852049 
L 173.076656 293.773292 
L 173.813575 294.035815 
L 174.182034 293.922055 
L 174.550494 293.397009 
L 175.655872 293.292 
L 176.024331 292.688197 
L 176.392791 292.504431 
L 176.76125 292.994474 
L 177.129709 292.994474 
L 177.866628 292.206905 
L 178.603547 291.725612 
L 178.972006 292.399422 
L 179.708925 292.26816 
L 180.077384 292.451926 
L 180.814303 292.145649 
L 181.919681 293.046978 
L 182.6566 292.626942 
L 183.025059 292.530683 
L 183.761978 292.766954 
L 184.130437 292.171902 
L 184.498897 292.408172 
L 185.235815 292.180652 
L 185.604275 292.408172 
L 185.972734 292.355668 
L 186.709653 292.460677 
L 187.078112 292.906966 
L 187.446572 292.548185 
L 187.815031 292.469428 
L 188.18349 292.731951 
L 188.55195 292.618191 
L 188.920409 293.484517 
L 189.288868 293.799545 
L 189.657328 293.537022 
L 190.394247 293.423262 
L 190.762706 293.484517 
L 191.131165 293.370757 
L 191.499625 293.414511 
L 191.868084 293.939557 
L 192.236543 293.992062 
L 192.605003 293.685785 
L 192.973462 294.175828 
L 193.341921 294.254585 
L 194.07884 293.965809 
L 194.4473 294.587114 
L 195.184218 294.31584 
L 195.552678 294.385846 
L 195.921137 294.683372 
L 196.289596 294.779631 
L 197.394975 293.895803 
L 198.131893 294.062068 
L 198.500353 293.782043 
L 198.868812 294.027065 
L 199.605731 293.440763 
L 200.342649 293.335754 
L 200.711109 293.598277 
L 201.079568 293.580775 
L 201.448028 293.151988 
L 201.816487 292.915717 
L 202.184946 293.108234 
L 202.553406 293.729538 
L 203.290324 293.738289 
L 204.027243 293.537022 
L 204.395703 293.467015 
L 205.132621 292.898215 
L 205.86954 292.259409 
L 206.237999 290.491754 
L 206.974918 290.526757 
L 207.343377 289.940455 
L 207.711837 289.782942 
L 208.080296 289.76544 
L 208.448756 289.555422 
L 209.185674 288.934117 
L 209.554134 288.881612 
L 209.922593 288.505329 
L 210.659512 288.120295 
L 211.027971 288.356566 
L 211.396431 288.304062 
L 211.76489 288.05904 
L 212.870268 286.536406 
L 213.238727 286.667668 
L 213.607187 286.92144 
L 213.975646 286.895188 
L 214.344105 286.343889 
L 214.712565 286.448898 
L 215.449484 287.122708 
L 216.186402 287.542745 
L 216.923321 287.481489 
L 217.29178 287.122708 
L 217.66024 287.411483 
L 218.028699 287.166462 
L 218.397159 287.166462 
L 218.765618 286.448898 
L 219.134077 286.492652 
L 219.502537 286.133871 
L 219.870996 286.527655 
L 220.239455 285.985108 
L 221.713293 285.013772 
L 222.081752 284.970018 
L 222.450212 284.427471 
L 223.18713 284.287458 
L 223.55559 283.832418 
L 223.924049 283.683655 
L 224.292508 283.998683 
L 224.660968 285.188788 
L 225.029427 284.567483 
L 225.397887 284.488726 
L 225.766346 285.048775 
L 227.240183 284.681243 
L 227.608643 284.217452 
L 227.977102 284.208702 
L 228.345561 283.73616 
L 228.714021 283.902425 
L 229.08248 283.806166 
L 229.45094 283.96368 
L 230.187858 283.561145 
L 230.556318 283.858671 
L 231.293236 284.724997 
L 231.661696 284.777502 
L 232.030155 284.628738 
L 232.398615 284.348714 
L 233.135533 284.217452 
L 233.872452 283.727409 
L 234.240911 283.517391 
L 234.609371 283.50864 
L 234.97783 283.254868 
L 235.346289 282.616062 
L 235.714749 282.694818 
L 236.083208 282.432295 
L 236.451668 282.659815 
L 236.820127 282.581058 
L 237.188586 283.123606 
L 237.557046 282.563557 
L 237.925505 282.913588 
L 238.293964 281.898498 
L 238.662424 282.581058 
L 239.030883 282.476049 
L 239.399343 282.59856 
L 239.767802 282.239778 
L 240.504721 281.80224 
L 240.87318 282.038511 
L 241.610099 281.845994 
L 241.978558 282.362289 
L 242.347017 282.196025 
L 242.715477 282.301034 
L 243.083936 282.187274 
L 243.452396 282.449797 
L 243.820855 282.178523 
L 244.926233 281.898498 
L 245.663152 282.476049 
L 246.031611 282.4848 
L 246.76853 282.843582 
L 247.505449 282.37104 
L 247.873908 281.837243 
L 248.610827 281.364702 
L 249.347745 280.962166 
L 250.084664 280.524628 
L 250.453124 279.579545 
L 250.821583 279.395778 
L 251.190042 279.938326 
L 251.558502 279.780812 
L 252.66388 279.789563 
L 253.032339 279.623298 
L 253.400799 279.675803 
L 253.769258 280.428369 
L 254.137717 280.384615 
L 254.874636 280.594634 
L 255.243095 280.454622 
L 255.611555 280.454622 
L 255.980014 280.813403 
L 256.348473 280.787151 
L 256.716933 281.732234 
L 257.085392 281.408455 
L 257.453852 281.618474 
L 257.822311 281.364702 
L 258.55923 281.679729 
L 259.664608 282.729822 
L 260.033067 282.71232 
L 260.401527 282.388542 
L 260.769986 282.423545 
L 261.138445 282.231028 
L 261.506905 282.668566 
L 261.875364 282.729822 
L 262.243823 283.272369 
L 262.612283 283.438634 
L 262.980742 283.333625 
L 263.349201 283.39488 
L 264.08612 283.044849 
L 264.45458 283.342375 
L 264.823039 283.289871 
L 265.191498 283.674905 
L 265.559958 283.867422 
L 265.928417 283.613649 
L 266.665336 283.727409 
L 267.033795 282.362289 
L 267.770714 282.537305 
L 268.139173 282.82608 
L 268.507633 282.756074 
L 268.876092 283.919926 
L 270.349929 284.129945 
L 270.718389 283.779914 
L 271.086848 283.981182 
L 271.455308 283.648652 
L 271.823767 283.639902 
L 272.192226 283.324874 
L 272.560686 283.211114 
L 273.297604 282.764825 
L 274.034523 282.869834 
L 275.139901 282.274782 
L 275.508361 282.677317 
L 275.87682 282.537305 
L 276.245279 282.729822 
L 276.613739 282.616062 
L 276.982198 282.686068 
L 278.087576 281.259692 
L 279.192954 281.23344 
L 279.561414 281.145932 
L 279.929873 280.909662 
L 280.298332 280.988418 
L 280.666792 280.918412 
L 281.035251 280.603385 
L 281.403711 280.717145 
L 281.77217 280.183348 
L 282.140629 280.332111 
L 282.509089 279.605797 
L 282.877548 279.728308 
L 284.351385 279.308271 
L 285.088304 278.660714 
L 285.456764 280.104591 
L 285.825223 280.078338 
L 286.930601 280.384615 
L 288.035979 278.914486 
L 288.404439 278.914486 
L 288.772898 278.704468 
L 289.141357 278.651963 
L 289.509817 278.144418 
L 289.878276 278.223175 
L 290.615195 277.768135 
L 290.983654 277.916898 
L 291.352113 278.266929 
L 291.720573 278.223175 
L 292.089032 278.354437 
L 292.457492 277.978154 
L 292.825951 277.313095 
L 293.19441 277.540615 
L 293.931329 277.076825 
L 294.299788 277.120578 
L 294.668248 276.963065 
L 295.036707 277.13808 
L 295.773626 277.076825 
L 296.142085 277.470609 
L 296.879004 277.278092 
L 297.247463 277.374351 
L 297.984382 278.021908 
L 298.352841 278.170671 
L 298.721301 277.829391 
L 299.826679 277.339348 
L 300.195138 277.514363 
L 300.563598 277.330597 
L 300.932057 278.030658 
L 301.300516 277.899397 
L 301.668976 278.030658 
L 302.037435 277.925649 
L 302.405895 277.505612 
L 302.774354 276.709292 
L 303.142813 277.278092 
L 303.511273 277.628123 
L 304.248191 277.873145 
L 304.616651 277.531865 
L 304.98511 276.963065 
L 305.353569 276.700542 
L 305.722029 276.866806 
L 306.458948 277.925649 
L 306.827407 277.864394 
L 307.195866 277.173083 
L 307.932785 278.04816 
L 308.301244 278.424443 
L 308.669704 278.109415 
L 309.038163 278.564455 
L 309.406623 278.599458 
L 310.512001 277.864394 
L 310.88046 277.986905 
L 311.248919 278.424443 
L 311.617379 278.196923 
L 311.985838 278.118166 
L 312.722757 277.628123 
L 313.091216 277.619372 
L 313.459676 277.3656 
L 314.196594 277.435606 
L 314.565054 277.25184 
L 314.933513 277.654375 
L 315.670432 277.925649 
L 316.038891 277.418105 
L 316.407351 277.426855 
L 316.77581 276.928062 
L 317.144269 276.971815 
L 317.512729 276.586782 
L 317.881188 276.551778 
L 318.249647 275.632948 
L 318.618107 276.105489 
L 318.986566 275.965477 
L 319.723485 276.289255 
L 320.460404 276.403015 
L 320.828863 276.788049 
L 321.197322 278.231926 
L 321.565782 277.426855 
L 321.934241 275.88672 
L 322.3027 275.851717 
L 322.67116 275.125403 
L 323.039619 275.221662 
L 323.408079 275.54544 
L 323.776538 274.5216 
L 324.513457 273.751532 
L 324.881916 273.664025 
L 325.250375 273.821538 
L 325.618835 274.29408 
L 325.987294 274.18032 
L 326.355753 274.224074 
L 326.724213 274.154068 
L 327.092672 274.670363 
L 327.829591 272.36016 
L 328.19805 272.255151 
L 328.934969 272.8152 
L 329.303428 273.007717 
L 329.671888 273.331495 
L 330.040347 272.893957 
L 330.777266 272.377662 
L 331.145725 272.456418 
L 331.514185 271.913871 
L 331.882644 271.686351 
L 332.251103 271.878868 
L 332.619563 271.651348 
L 332.988022 271.861366 
L 333.356481 271.537588 
L 333.724941 271.485083 
L 334.0934 270.627508 
L 334.46186 271.1088 
L 334.830319 269.866191 
L 335.198778 270.224972 
L 335.567238 269.717428 
L 335.935697 269.813686 
L 336.304156 269.62992 
L 336.672616 269.962449 
L 337.777994 269.717428 
L 338.146453 268.247298 
L 338.514913 268.2648 
L 338.883372 266.059606 
L 339.251831 265.184529 
L 339.620291 265.19328 
L 339.98875 265.333292 
L 340.357209 266.978437 
L 340.725669 267.197206 
L 341.094128 267.660997 
L 341.831047 266.768418 
L 342.199506 267.879766 
L 342.567966 268.177292 
L 343.304884 267.100948 
L 343.673344 267.153452 
L 344.041803 267.520985 
L 344.410263 267.503483 
L 345.147181 267.739754 
L 345.515641 267.696 
L 345.8841 268.098535 
L 346.252559 269.148628 
L 346.621019 269.236135 
L 346.989478 269.192382 
L 347.357937 268.684837 
L 347.726397 268.632332 
L 348.094856 268.772345 
L 348.463316 268.343557 
L 348.831775 268.299803 
L 349.200234 268.824849 
L 349.568694 268.912357 
L 350.305612 270.233723 
L 350.674072 269.74368 
L 351.410991 269.901194 
L 351.77945 269.979951 
L 352.147909 269.726178 
L 352.516369 270.373735 
L 352.884828 269.472406 
L 353.253287 270.452492 
L 353.621747 270.627508 
L 355.095584 272.211397 
L 355.464044 272.062634 
L 355.832503 272.115138 
L 356.200962 271.651348 
L 356.569422 271.922622 
L 356.937881 271.966375 
L 357.30634 274.110314 
L 357.6748 274.810375 
L 358.043259 274.154068 
L 358.411719 274.582855 
L 358.780178 274.276578 
L 359.148637 274.145317 
L 359.517097 274.364086 
L 359.885556 273.979052 
L 360.622475 274.512849 
L 360.990934 274.425342 
L 361.727853 275.834215 
L 362.096312 275.939225 
L 362.464772 275.860468 
L 362.833231 275.667951 
L 363.20169 275.169157 
L 363.57015 275.177908 
L 363.938609 275.055397 
L 364.307068 275.842966 
L 364.675528 275.370425 
L 365.412447 275.571692 
L 365.780906 275.510437 
L 366.149365 274.994142 
L 366.517825 274.801625 
L 366.886284 275.694203 
L 367.254743 276.263003 
L 367.623203 276.324258 
L 367.991662 275.965477 
L 368.360121 275.912972 
L 368.728581 275.449182 
L 369.09704 275.755458 
L 369.833959 275.764209 
L 370.570878 276.403015 
L 370.939337 276.446769 
L 371.307796 276.884308 
L 371.676256 275.309169 
L 372.044715 275.370425 
L 372.413175 275.239163 
L 372.781634 273.777785 
L 373.150093 273.690277 
L 373.518553 274.154068 
L 373.887012 274.355335 
L 374.255471 274.005305 
L 374.623931 274.014055 
L 374.99239 275.186658 
L 375.360849 274.97664 
L 375.729309 274.932886 
L 376.097768 275.230412 
L 376.466228 275.169157 
L 376.834687 275.335422 
L 377.203146 275.134154 
L 377.940065 275.186658 
L 378.308524 275.921723 
L 378.676984 276.324258 
L 379.045443 276.096738 
L 379.413903 276.026732 
L 379.782362 275.816714 
L 380.150821 275.737957 
L 380.519281 275.449182 
L 380.88774 275.31792 
L 381.256199 274.924135 
L 381.624659 275.300418 
L 381.993118 275.125403 
L 382.361577 275.352923 
L 382.730037 274.924135 
L 383.098496 275.335422 
L 383.466956 274.959138 
L 383.835415 274.889132 
L 384.203874 275.011643 
L 384.940793 275.484185 
L 385.309252 275.554191 
L 385.677712 275.484185 
L 386.046171 275.632948 
L 386.414631 275.965477 
L 387.151549 276.201748 
L 387.888468 276.122991 
L 389.362305 275.799212 
L 389.730765 276.149243 
L 390.099224 278.004406 
L 390.467684 277.829391 
L 390.836143 278.284431 
L 391.204602 279.483286 
L 391.941521 279.404529 
L 392.30998 278.905735 
L 392.67844 279.52704 
L 393.046899 279.86832 
L 393.415359 279.772062 
L 394.152277 279.036997 
L 394.520737 278.608209 
L 394.889196 278.809477 
L 395.257655 278.354437 
L 395.626115 278.599458 
L 395.994574 278.581957 
L 396.363033 278.231926 
L 396.731493 278.266929 
L 397.468412 277.418105 
L 397.836871 277.680628 
L 398.20533 276.709292 
L 398.942249 275.956726 
L 399.310708 275.702954 
L 399.679168 275.632948 
L 400.047627 274.871631 
L 400.416087 272.745194 
L 400.784546 269.411151 
L 401.153005 269.542412 
L 401.521465 269.384898 
L 401.889924 268.667335 
L 402.258383 266.707163 
L 402.995302 265.788332 
L 403.363761 265.587065 
L 404.10068 264.545723 
L 405.206058 263.915668 
L 405.574518 263.294363 
L 405.942977 262.891828 
L 406.311436 263.268111 
L 406.679896 263.075594 
L 407.048355 261.929243 
L 407.785274 260.520369 
L 408.153733 260.07408 
L 408.890652 259.697797 
L 409.259111 259.006486 
L 409.627571 257.947643 
L 410.364489 257.676369 
L 410.732949 257.938892 
L 411.101408 257.947643 
L 411.469868 257.623865 
L 411.838327 257.492603 
L 412.575246 257.728874 
L 412.943705 256.8888 
L 413.680624 257.326338 
L 414.417543 257.221329 
L 414.786002 257.580111 
L 415.522921 256.862548 
L 415.89138 257.177575 
L 416.259839 256.871298 
L 416.628299 257.580111 
L 418.470596 259.680295 
L 418.839055 261.754228 
L 419.207514 264.641982 
L 419.575974 264.755742 
L 419.944433 264.685735 
L 420.312892 265.403298 
L 420.681352 266.829674 
L 421.049811 267.564738 
L 421.418271 267.704751 
L 421.78673 267.573489 
L 422.155189 267.836012 
L 422.523649 267.35472 
L 422.892108 267.092197 
L 423.260567 266.969686 
L 423.629027 266.715914 
L 423.997486 267.258462 
L 424.365945 267.485982 
L 424.365945 267.485982 
" clip-path="url(#pe1c7b2e1b3)" style="fill: none; stroke: #000080; stroke-width: 1.5; stroke-linecap: square"/>
   </g>
   <g id="line2d_16">
    <path d="M 55.925 94.430769 
L 460.825 94.430769 
" clip-path="url(#pe1c7b2e1b3)" style="fill: none; stroke-dasharray: 5.55,2.4; stroke-dashoffset: 0; stroke: #008000; stroke-width: 1.5"/>
   </g>
   <g id="patch_3">
    <path d="M 55.925 313.2 
L 55.925 28.8 
" style="fill: none; stroke: #000000; stroke-width: 0.8; stroke-linejoin: miter; stroke-linecap: square"/>
   </g>
   <g id="patch_4">
    <path d="M 460.825 313.2 
L 460.825 28.8 
" style="fill: none; stroke: #000000; stroke-width: 0.8; stroke-linejoin: miter; stroke-linecap: square"/>
   </g>
   <g id="patch_5">
    <path d="M 55.925 313.2 
L 460.825 313.2 
" style="fill: none; stroke: #000000; stroke-width: 0.8; stroke-linejoin: miter; stroke-linecap: square"/>
   </g>
   <g id="patch_6">
    <path d="M 55.925 28.8 
L 460.825 28.8 
" style="fill: none; stroke: #000000; stroke-width: 0.8; stroke-linejoin: miter; stroke-linecap: square"/>
   </g>
   <g id="text_16">
    <!-- gamma = 0.9805263157894737,lr = 0.0016681005372000592 -->
    <g transform="translate(18.829688 22.8)scale(0.15 -0.15)">
     <defs>
      <path id="DejaVuSans-67" d="M 2906 1791 
Q 2906 2416 2648 2759 
Q 2391 3103 1925 3103 
Q 1463 3103 1205 2759 
Q 947 2416 947 1791 
Q 947 1169 1205 825 
Q 1463 481 1925 481 
Q 2391 481 2648 825 
Q 2906 1169 2906 1791 
z
M 3481 434 
Q 3481 -459 3084 -895 
Q 2688 -1331 1869 -1331 
Q 1566 -1331 1297 -1286 
Q 1028 -1241 775 -1147 
L 775 -588 
Q 1028 -725 1275 -790 
Q 1522 -856 1778 -856 
Q 2344 -856 2625 -561 
Q 2906 -266 2906 331 
L 2906 616 
Q 2728 306 2450 153 
Q 2172 0 1784 0 
Q 1141 0 747 490 
Q 353 981 353 1791 
Q 353 2603 747 3093 
Q 1141 3584 1784 3584 
Q 2172 3584 2450 3431 
Q 2728 3278 2906 2969 
L 2906 3500 
L 3481 3500 
L 3481 434 
z
" transform="scale(0.015625)"/>
      <path id="DejaVuSans-61" d="M 2194 1759 
Q 1497 1759 1228 1600 
Q 959 1441 959 1056 
Q 959 750 1161 570 
Q 1363 391 1709 391 
Q 2188 391 2477 730 
Q 2766 1069 2766 1631 
L 2766 1759 
L 2194 1759 
z
M 3341 1997 
L 3341 0 
L 2766 0 
L 2766 531 
Q 2569 213 2275 61 
Q 1981 -91 1556 -91 
Q 1019 -91 701 211 
Q 384 513 384 1019 
Q 384 1609 779 1909 
Q 1175 2209 1959 2209 
L 2766 2209 
L 2766 2266 
Q 2766 2663 2505 2880 
Q 2244 3097 1772 3097 
Q 1472 3097 1187 3025 
Q 903 2953 641 2809 
L 641 3341 
Q 956 3463 1253 3523 
Q 1550 3584 1831 3584 
Q 2591 3584 2966 3190 
Q 3341 2797 3341 1997 
z
" transform="scale(0.015625)"/>
      <path id="DejaVuSans-6d" d="M 3328 2828 
Q 3544 3216 3844 3400 
Q 4144 3584 4550 3584 
Q 5097 3584 5394 3201 
Q 5691 2819 5691 2113 
L 5691 0 
L 5113 0 
L 5113 2094 
Q 5113 2597 4934 2840 
Q 4756 3084 4391 3084 
Q 3944 3084 3684 2787 
Q 3425 2491 3425 1978 
L 3425 0 
L 2847 0 
L 2847 2094 
Q 2847 2600 2669 2842 
Q 2491 3084 2119 3084 
Q 1678 3084 1418 2786 
Q 1159 2488 1159 1978 
L 1159 0 
L 581 0 
L 581 3500 
L 1159 3500 
L 1159 2956 
Q 1356 3278 1631 3431 
Q 1906 3584 2284 3584 
Q 2666 3584 2933 3390 
Q 3200 3197 3328 2828 
z
" transform="scale(0.015625)"/>
      <path id="DejaVuSans-20" transform="scale(0.015625)"/>
      <path id="DejaVuSans-3d" d="M 678 2906 
L 4684 2906 
L 4684 2381 
L 678 2381 
L 678 2906 
z
M 678 1631 
L 4684 1631 
L 4684 1100 
L 678 1100 
L 678 1631 
z
" transform="scale(0.015625)"/>
      <path id="DejaVuSans-2e" d="M 684 794 
L 1344 794 
L 1344 0 
L 684 0 
L 684 794 
z
" transform="scale(0.015625)"/>
      <path id="DejaVuSans-39" d="M 703 97 
L 703 672 
Q 941 559 1184 500 
Q 1428 441 1663 441 
Q 2288 441 2617 861 
Q 2947 1281 2994 2138 
Q 2813 1869 2534 1725 
Q 2256 1581 1919 1581 
Q 1219 1581 811 2004 
Q 403 2428 403 3163 
Q 403 3881 828 4315 
Q 1253 4750 1959 4750 
Q 2769 4750 3195 4129 
Q 3622 3509 3622 2328 
Q 3622 1225 3098 567 
Q 2575 -91 1691 -91 
Q 1453 -91 1209 -44 
Q 966 3 703 97 
z
M 1959 2075 
Q 2384 2075 2632 2365 
Q 2881 2656 2881 3163 
Q 2881 3666 2632 3958 
Q 2384 4250 1959 4250 
Q 1534 4250 1286 3958 
Q 1038 3666 1038 3163 
Q 1038 2656 1286 2365 
Q 1534 2075 1959 2075 
z
" transform="scale(0.015625)"/>
      <path id="DejaVuSans-37" d="M 525 4666 
L 3525 4666 
L 3525 4397 
L 1831 0 
L 1172 0 
L 2766 4134 
L 525 4134 
L 525 4666 
z
" transform="scale(0.015625)"/>
      <path id="DejaVuSans-2c" d="M 750 794 
L 1409 794 
L 1409 256 
L 897 -744 
L 494 -744 
L 750 256 
L 750 794 
z
" transform="scale(0.015625)"/>
      <path id="DejaVuSans-6c" d="M 603 4863 
L 1178 4863 
L 1178 0 
L 603 0 
L 603 4863 
z
" transform="scale(0.015625)"/>
     </defs>
     <use xlink:href="#DejaVuSans-67"/>
     <use xlink:href="#DejaVuSans-61" x="63.476562"/>
     <use xlink:href="#DejaVuSans-6d" x="124.755859"/>
     <use xlink:href="#DejaVuSans-6d" x="222.167969"/>
     <use xlink:href="#DejaVuSans-61" x="319.580078"/>
     <use xlink:href="#DejaVuSans-20" x="380.859375"/>
     <use xlink:href="#DejaVuSans-3d" x="412.646484"/>
     <use xlink:href="#DejaVuSans-20" x="496.435547"/>
     <use xlink:href="#DejaVuSans-30" x="528.222656"/>
     <use xlink:href="#DejaVuSans-2e" x="591.845703"/>
     <use xlink:href="#DejaVuSans-39" x="623.632812"/>
     <use xlink:href="#DejaVuSans-38" x="687.255859"/>
     <use xlink:href="#DejaVuSans-30" x="750.878906"/>
     <use xlink:href="#DejaVuSans-35" x="814.501953"/>
     <use xlink:href="#DejaVuSans-32" x="878.125"/>
     <use xlink:href="#DejaVuSans-36" x="941.748047"/>
     <use xlink:href="#DejaVuSans-33" x="1005.371094"/>
     <use xlink:href="#DejaVuSans-31" x="1068.994141"/>
     <use xlink:href="#DejaVuSans-35" x="1132.617188"/>
     <use xlink:href="#DejaVuSans-37" x="1196.240234"/>
     <use xlink:href="#DejaVuSans-38" x="1259.863281"/>
     <use xlink:href="#DejaVuSans-39" x="1323.486328"/>
     <use xlink:href="#DejaVuSans-34" x="1387.109375"/>
     <use xlink:href="#DejaVuSans-37" x="1450.732422"/>
     <use xlink:href="#DejaVuSans-33" x="1514.355469"/>
     <use xlink:href="#DejaVuSans-37" x="1577.978516"/>
     <use xlink:href="#DejaVuSans-2c" x="1641.601562"/>
     <use xlink:href="#DejaVuSans-6c" x="1673.388672"/>
     <use xlink:href="#DejaVuSans-72" x="1701.171875"/>
     <use xlink:href="#DejaVuSans-20" x="1742.285156"/>
     <use xlink:href="#DejaVuSans-3d" x="1774.072266"/>
     <use xlink:href="#DejaVuSans-20" x="1857.861328"/>
     <use xlink:href="#DejaVuSans-30" x="1889.648438"/>
     <use xlink:href="#DejaVuSans-2e" x="1953.271484"/>
     <use xlink:href="#DejaVuSans-30" x="1985.058594"/>
     <use xlink:href="#DejaVuSans-30" x="2048.681641"/>
     <use xlink:href="#DejaVuSans-31" x="2112.304688"/>
     <use xlink:href="#DejaVuSans-36" x="2175.927734"/>
     <use xlink:href="#DejaVuSans-36" x="2239.550781"/>
     <use xlink:href="#DejaVuSans-38" x="2303.173828"/>
     <use xlink:href="#DejaVuSans-31" x="2366.796875"/>
     <use xlink:href="#DejaVuSans-30" x="2430.419922"/>
     <use xlink:href="#DejaVuSans-30" x="2494.042969"/>
     <use xlink:href="#DejaVuSans-35" x="2557.666016"/>
     <use xlink:href="#DejaVuSans-33" x="2621.289062"/>
     <use xlink:href="#DejaVuSans-37" x="2684.912109"/>
     <use xlink:href="#DejaVuSans-32" x="2748.535156"/>
     <use xlink:href="#DejaVuSans-30" x="2812.158203"/>
     <use xlink:href="#DejaVuSans-30" x="2875.78125"/>
     <use xlink:href="#DejaVuSans-30" x="2939.404297"/>
     <use xlink:href="#DejaVuSans-35" x="3003.027344"/>
     <use xlink:href="#DejaVuSans-39" x="3066.650391"/>
     <use xlink:href="#DejaVuSans-32" x="3130.273438"/>
    </g>
   </g>
   <g id="legend_1">
    <g id="patch_7">
     <path d="M 293.50625 80.834375 
L 453.825 80.834375 
Q 455.825 80.834375 455.825 78.834375 
L 455.825 35.8 
Q 455.825 33.8 453.825 33.8 
L 293.50625 33.8 
Q 291.50625 33.8 291.50625 35.8 
L 291.50625 78.834375 
Q 291.50625 80.834375 293.50625 80.834375 
z
" style="fill: #ffffff; opacity: 0.8; stroke: #cccccc; stroke-linejoin: miter"/>
    </g>
    <g id="line2d_17">
     <path d="M 295.50625 41.898438 
L 305.50625 41.898438 
L 315.50625 41.898438 
" style="fill: none; stroke: #708090; stroke-width: 1.5; stroke-linecap: square"/>
    </g>
    <g id="text_17">
     <!-- Episodes score -->
     <g transform="translate(323.50625 45.398438)scale(0.1 -0.1)">
      <use xlink:href="#DejaVuSans-45"/>
      <use xlink:href="#DejaVuSans-70" x="63.183594"/>
      <use xlink:href="#DejaVuSans-69" x="126.660156"/>
      <use xlink:href="#DejaVuSans-73" x="154.443359"/>
      <use xlink:href="#DejaVuSans-6f" x="206.542969"/>
      <use xlink:href="#DejaVuSans-64" x="267.724609"/>
      <use xlink:href="#DejaVuSans-65" x="331.201172"/>
      <use xlink:href="#DejaVuSans-73" x="392.724609"/>
      <use xlink:href="#DejaVuSans-20" x="444.824219"/>
      <use xlink:href="#DejaVuSans-73" x="476.611328"/>
      <use xlink:href="#DejaVuSans-63" x="528.710938"/>
      <use xlink:href="#DejaVuSans-6f" x="583.691406"/>
      <use xlink:href="#DejaVuSans-72" x="644.873047"/>
      <use xlink:href="#DejaVuSans-65" x="683.736328"/>
     </g>
    </g>
    <g id="line2d_18">
     <path d="M 295.50625 56.576563 
L 305.50625 56.576563 
L 315.50625 56.576563 
" style="fill: none; stroke: #000080; stroke-width: 1.5; stroke-linecap: square"/>
    </g>
    <g id="text_18">
     <!-- Moving average of scores -->
     <g transform="translate(323.50625 60.076563)scale(0.1 -0.1)">
      <defs>
       <path id="DejaVuSans-4d" d="M 628 4666 
L 1569 4666 
L 2759 1491 
L 3956 4666 
L 4897 4666 
L 4897 0 
L 4281 0 
L 4281 4097 
L 3078 897 
L 2444 897 
L 1241 4097 
L 1241 0 
L 628 0 
L 628 4666 
z
" transform="scale(0.015625)"/>
       <path id="DejaVuSans-76" d="M 191 3500 
L 800 3500 
L 1894 563 
L 2988 3500 
L 3597 3500 
L 2284 0 
L 1503 0 
L 191 3500 
z
" transform="scale(0.015625)"/>
       <path id="DejaVuSans-6e" d="M 3513 2113 
L 3513 0 
L 2938 0 
L 2938 2094 
Q 2938 2591 2744 2837 
Q 2550 3084 2163 3084 
Q 1697 3084 1428 2787 
Q 1159 2491 1159 1978 
L 1159 0 
L 581 0 
L 581 3500 
L 1159 3500 
L 1159 2956 
Q 1366 3272 1645 3428 
Q 1925 3584 2291 3584 
Q 2894 3584 3203 3211 
Q 3513 2838 3513 2113 
z
" transform="scale(0.015625)"/>
       <path id="DejaVuSans-66" d="M 2375 4863 
L 2375 4384 
L 1825 4384 
Q 1516 4384 1395 4259 
Q 1275 4134 1275 3809 
L 1275 3500 
L 2222 3500 
L 2222 3053 
L 1275 3053 
L 1275 0 
L 697 0 
L 697 3053 
L 147 3053 
L 147 3500 
L 697 3500 
L 697 3744 
Q 697 4328 969 4595 
Q 1241 4863 1831 4863 
L 2375 4863 
z
" transform="scale(0.015625)"/>
      </defs>
      <use xlink:href="#DejaVuSans-4d"/>
      <use xlink:href="#DejaVuSans-6f" x="86.279297"/>
      <use xlink:href="#DejaVuSans-76" x="147.460938"/>
      <use xlink:href="#DejaVuSans-69" x="206.640625"/>
      <use xlink:href="#DejaVuSans-6e" x="234.423828"/>
      <use xlink:href="#DejaVuSans-67" x="297.802734"/>
      <use xlink:href="#DejaVuSans-20" x="361.279297"/>
      <use xlink:href="#DejaVuSans-61" x="393.066406"/>
      <use xlink:href="#DejaVuSans-76" x="454.345703"/>
      <use xlink:href="#DejaVuSans-65" x="513.525391"/>
      <use xlink:href="#DejaVuSans-72" x="575.048828"/>
      <use xlink:href="#DejaVuSans-61" x="616.162109"/>
      <use xlink:href="#DejaVuSans-67" x="677.441406"/>
      <use xlink:href="#DejaVuSans-65" x="740.917969"/>
      <use xlink:href="#DejaVuSans-20" x="802.441406"/>
      <use xlink:href="#DejaVuSans-6f" x="834.228516"/>
      <use xlink:href="#DejaVuSans-66" x="895.410156"/>
      <use xlink:href="#DejaVuSans-20" x="930.615234"/>
      <use xlink:href="#DejaVuSans-73" x="962.402344"/>
      <use xlink:href="#DejaVuSans-63" x="1014.501953"/>
      <use xlink:href="#DejaVuSans-6f" x="1069.482422"/>
      <use xlink:href="#DejaVuSans-72" x="1130.664062"/>
      <use xlink:href="#DejaVuSans-65" x="1169.527344"/>
      <use xlink:href="#DejaVuSans-73" x="1231.050781"/>
     </g>
    </g>
    <g id="line2d_19">
     <path d="M 295.50625 71.254687 
L 305.50625 71.254687 
L 315.50625 71.254687 
" style="fill: none; stroke-dasharray: 5.55,2.4; stroke-dashoffset: 0; stroke: #008000; stroke-width: 1.5"/>
    </g>
    <g id="text_19">
     <!-- Game Solved -->
     <g transform="translate(323.50625 74.754687)scale(0.1 -0.1)">
      <defs>
       <path id="DejaVuSans-47" d="M 3809 666 
L 3809 1919 
L 2778 1919 
L 2778 2438 
L 4434 2438 
L 4434 434 
Q 4069 175 3628 42 
Q 3188 -91 2688 -91 
Q 1594 -91 976 548 
Q 359 1188 359 2328 
Q 359 3472 976 4111 
Q 1594 4750 2688 4750 
Q 3144 4750 3555 4637 
Q 3966 4525 4313 4306 
L 4313 3634 
Q 3963 3931 3569 4081 
Q 3175 4231 2741 4231 
Q 1884 4231 1454 3753 
Q 1025 3275 1025 2328 
Q 1025 1384 1454 906 
Q 1884 428 2741 428 
Q 3075 428 3337 486 
Q 3600 544 3809 666 
z
" transform="scale(0.015625)"/>
      </defs>
      <use xlink:href="#DejaVuSans-47"/>
      <use xlink:href="#DejaVuSans-61" x="77.490234"/>
      <use xlink:href="#DejaVuSans-6d" x="138.769531"/>
      <use xlink:href="#DejaVuSans-65" x="236.181641"/>
      <use xlink:href="#DejaVuSans-20" x="297.705078"/>
      <use xlink:href="#DejaVuSans-53" x="329.492188"/>
      <use xlink:href="#DejaVuSans-6f" x="392.96875"/>
      <use xlink:href="#DejaVuSans-6c" x="454.150391"/>
      <use xlink:href="#DejaVuSans-76" x="481.933594"/>
      <use xlink:href="#DejaVuSans-65" x="541.113281"/>
      <use xlink:href="#DejaVuSans-64" x="602.636719"/>
     </g>
    </g>
   </g>
  </g>
  <g id="axes_2">
   <g id="matplotlib.axis_3">
    <g id="ytick_8">
     <g id="line2d_20">
      <defs>
       <path id="mdf89ec6efb" d="M 0 0 
L 3.5 0 
" style="stroke: #000000; stroke-width: 0.8"/>
      </defs>
      <g>
       <use xlink:href="#mdf89ec6efb" x="460.825" y="300.356157" style="stroke: #000000; stroke-width: 0.8"/>
      </g>
     </g>
     <g id="text_20">
      <!-- 0 -->
      <g transform="translate(467.825 304.155376)scale(0.1 -0.1)">
       <use xlink:href="#DejaVuSans-30"/>
      </g>
     </g>
    </g>
    <g id="ytick_9">
     <g id="line2d_21">
      <g>
       <use xlink:href="#mdf89ec6efb" x="460.825" y="248.63038" style="stroke: #000000; stroke-width: 0.8"/>
      </g>
     </g>
     <g id="text_21">
      <!-- 1 -->
      <g transform="translate(467.825 252.429599)scale(0.1 -0.1)">
       <use xlink:href="#DejaVuSans-31"/>
      </g>
     </g>
    </g>
    <g id="ytick_10">
     <g id="line2d_22">
      <g>
       <use xlink:href="#mdf89ec6efb" x="460.825" y="196.904603" style="stroke: #000000; stroke-width: 0.8"/>
      </g>
     </g>
     <g id="text_22">
      <!-- 2 -->
      <g transform="translate(467.825 200.703822)scale(0.1 -0.1)">
       <use xlink:href="#DejaVuSans-32"/>
      </g>
     </g>
    </g>
    <g id="ytick_11">
     <g id="line2d_23">
      <g>
       <use xlink:href="#mdf89ec6efb" x="460.825" y="145.178827" style="stroke: #000000; stroke-width: 0.8"/>
      </g>
     </g>
     <g id="text_23">
      <!-- 3 -->
      <g transform="translate(467.825 148.978045)scale(0.1 -0.1)">
       <use xlink:href="#DejaVuSans-33"/>
      </g>
     </g>
    </g>
    <g id="ytick_12">
     <g id="line2d_24">
      <g>
       <use xlink:href="#mdf89ec6efb" x="460.825" y="93.45305" style="stroke: #000000; stroke-width: 0.8"/>
      </g>
     </g>
     <g id="text_24">
      <!-- 4 -->
      <g transform="translate(467.825 97.252268)scale(0.1 -0.1)">
       <use xlink:href="#DejaVuSans-34"/>
      </g>
     </g>
    </g>
    <g id="ytick_13">
     <g id="line2d_25">
      <g>
       <use xlink:href="#mdf89ec6efb" x="460.825" y="41.727273" style="stroke: #000000; stroke-width: 0.8"/>
      </g>
     </g>
     <g id="text_25">
      <!-- 5 -->
      <g transform="translate(467.825 45.526491)scale(0.1 -0.1)">
       <use xlink:href="#DejaVuSans-35"/>
      </g>
     </g>
    </g>
    <g id="text_26">
     <!-- Temperature -->
     <g transform="translate(489.585156 218.504297)rotate(-90)scale(0.15 -0.15)">
      <defs>
       <path id="DejaVuSans-54" d="M -19 4666 
L 3928 4666 
L 3928 4134 
L 2272 4134 
L 2272 0 
L 1638 0 
L 1638 4134 
L -19 4134 
L -19 4666 
z
" transform="scale(0.015625)"/>
       <path id="DejaVuSans-74" d="M 1172 4494 
L 1172 3500 
L 2356 3500 
L 2356 3053 
L 1172 3053 
L 1172 1153 
Q 1172 725 1289 603 
Q 1406 481 1766 481 
L 2356 481 
L 2356 0 
L 1766 0 
Q 1100 0 847 248 
Q 594 497 594 1153 
L 594 3053 
L 172 3053 
L 172 3500 
L 594 3500 
L 594 4494 
L 1172 4494 
z
" transform="scale(0.015625)"/>
       <path id="DejaVuSans-75" d="M 544 1381 
L 544 3500 
L 1119 3500 
L 1119 1403 
Q 1119 906 1312 657 
Q 1506 409 1894 409 
Q 2359 409 2629 706 
Q 2900 1003 2900 1516 
L 2900 3500 
L 3475 3500 
L 3475 0 
L 2900 0 
L 2900 538 
Q 2691 219 2414 64 
Q 2138 -91 1772 -91 
Q 1169 -91 856 284 
Q 544 659 544 1381 
z
M 1991 3584 
L 1991 3584 
z
" transform="scale(0.015625)"/>
      </defs>
      <use xlink:href="#DejaVuSans-54"/>
      <use xlink:href="#DejaVuSans-65" x="44.083984"/>
      <use xlink:href="#DejaVuSans-6d" x="105.607422"/>
      <use xlink:href="#DejaVuSans-70" x="203.019531"/>
      <use xlink:href="#DejaVuSans-65" x="266.496094"/>
      <use xlink:href="#DejaVuSans-72" x="328.019531"/>
      <use xlink:href="#DejaVuSans-61" x="369.132812"/>
      <use xlink:href="#DejaVuSans-74" x="430.412109"/>
      <use xlink:href="#DejaVuSans-75" x="469.621094"/>
      <use xlink:href="#DejaVuSans-72" x="533"/>
      <use xlink:href="#DejaVuSans-65" x="571.863281"/>
     </g>
    </g>
   </g>
   <g id="line2d_26">
    <path d="M 74.329545 41.727273 
L 77.64568 59.796179 
L 80.961814 76.602714 
L 84.277948 92.235075 
L 87.594083 106.775292 
L 90.910217 120.299669 
L 94.226351 132.879175 
L 97.542486 144.579825 
L 100.85862 155.463017 
L 104.174754 165.585863 
L 107.490889 175.001485 
L 110.807023 183.759292 
L 114.123157 191.905241 
L 117.439292 199.48208 
L 120.755426 206.529569 
L 124.07156 213.084691 
L 127.387695 219.181844 
L 130.703829 224.853024 
L 134.019963 230.127992 
L 137.704557 235.557975 
L 141.389151 240.568116 
L 145.073744 245.190878 
L 148.758338 249.456211 
L 152.442932 253.391752 
L 156.127525 257.023001 
L 160.180578 260.693942 
L 164.233631 264.053901 
L 168.286684 267.129223 
L 172.339737 269.944021 
L 176.76125 272.743467 
L 181.182762 275.285223 
L 185.972734 277.775454 
L 190.762706 280.018336 
L 195.921137 282.185254 
L 201.448028 284.251415 
L 206.974918 286.082639 
L 212.870268 287.807033 
L 219.134077 289.41153 
L 225.766346 290.887385 
L 233.135533 292.295013 
L 240.87318 293.548388 
L 249.347745 294.698674 
L 258.927689 295.766744 
L 269.613011 296.721977 
L 281.403711 297.547031 
L 295.036707 298.270409 
L 310.88046 298.880507 
L 330.040347 299.385086 
L 353.990206 299.780603 
L 385.677712 300.068067 
L 432.840511 300.253311 
L 442.420455 300.272727 
L 442.420455 300.272727 
" clip-path="url(#pe1c7b2e1b3)" style="fill: none; stroke: #ff0000; stroke-width: 1.5; stroke-linecap: square"/>
   </g>
   <g id="patch_8">
    <path d="M 55.925 313.2 
L 55.925 28.8 
" style="fill: none; stroke: #000000; stroke-width: 0.8; stroke-linejoin: miter; stroke-linecap: square"/>
   </g>
   <g id="patch_9">
    <path d="M 460.825 313.2 
L 460.825 28.8 
" style="fill: none; stroke: #000000; stroke-width: 0.8; stroke-linejoin: miter; stroke-linecap: square"/>
   </g>
   <g id="patch_10">
    <path d="M 55.925 313.2 
L 460.825 313.2 
" style="fill: none; stroke: #000000; stroke-width: 0.8; stroke-linejoin: miter; stroke-linecap: square"/>
   </g>
   <g id="patch_11">
    <path d="M 55.925 28.8 
L 460.825 28.8 
" style="fill: none; stroke: #000000; stroke-width: 0.8; stroke-linejoin: miter; stroke-linecap: square"/>
   </g>
   <g id="legend_2">
    <g id="patch_12">
     <path d="M 62.925 51.478125 
L 158.264063 51.478125 
Q 160.264063 51.478125 160.264063 49.478125 
L 160.264063 35.8 
Q 160.264063 33.8 158.264063 33.8 
L 62.925 33.8 
Q 60.925 33.8 60.925 35.8 
L 60.925 49.478125 
Q 60.925 51.478125 62.925 51.478125 
z
" style="fill: #ffffff; opacity: 0.8; stroke: #cccccc; stroke-linejoin: miter"/>
    </g>
    <g id="line2d_27">
     <path d="M 64.925 41.898438 
L 74.925 41.898438 
L 84.925 41.898438 
" style="fill: none; stroke: #ff0000; stroke-width: 1.5; stroke-linecap: square"/>
    </g>
    <g id="text_27">
     <!-- Temperature -->
     <g transform="translate(92.925 45.398438)scale(0.1 -0.1)">
      <use xlink:href="#DejaVuSans-54"/>
      <use xlink:href="#DejaVuSans-65" x="44.083984"/>
      <use xlink:href="#DejaVuSans-6d" x="105.607422"/>
      <use xlink:href="#DejaVuSans-70" x="203.019531"/>
      <use xlink:href="#DejaVuSans-65" x="266.496094"/>
      <use xlink:href="#DejaVuSans-72" x="328.019531"/>
      <use xlink:href="#DejaVuSans-61" x="369.132812"/>
      <use xlink:href="#DejaVuSans-74" x="430.412109"/>
      <use xlink:href="#DejaVuSans-75" x="469.621094"/>
      <use xlink:href="#DejaVuSans-72" x="533"/>
      <use xlink:href="#DejaVuSans-65" x="571.863281"/>
     </g>
    </g>
   </g>
  </g>
 </g>
 <defs>
  <clipPath id="pe1c7b2e1b3">
   <rect x="55.925" y="28.8" width="404.9" height="284.4"/>
  </clipPath>
 </defs>
</svg>
