<?xml version="1.0" encoding="utf-8" standalone="no"?>
<!DOCTYPE svg PUBLIC "-//W3C//DTD SVG 1.1//EN"
  "http://www.w3.org/Graphics/SVG/1.1/DTD/svg11.dtd">
<svg xmlns:xlink="http://www.w3.org/1999/xlink" width="504pt" height="360pt" viewBox="0 0 504 360" xmlns="http://www.w3.org/2000/svg" version="1.1">
 <metadata>
  <rdf:RDF xmlns:dc="http://purl.org/dc/elements/1.1/" xmlns:cc="http://creativecommons.org/ns#" xmlns:rdf="http://www.w3.org/1999/02/22-rdf-syntax-ns#">
   <cc:Work>
    <dc:type rdf:resource="http://purl.org/dc/dcmitype/StillImage"/>
    <dc:date>2022-07-28T20:58:29.371058</dc:date>
    <dc:format>image/svg+xml</dc:format>
    <dc:creator>
     <cc:Agent>
      <dc:title>Matplotlib v3.5.1, https://matplotlib.org/</dc:title>
     </cc:Agent>
    </dc:creator>
   </cc:Work>
  </rdf:RDF>
 </metadata>
 <defs>
  <style type="text/css">*{stroke-linejoin: round; stroke-linecap: butt}</style>
 </defs>
 <g id="figure_1">
  <g id="patch_1">
   <path d="M 0 360 
L 504 360 
L 504 0 
L 0 0 
L 0 360 
z
" style="fill: none"/>
  </g>
  <g id="axes_1">
   <g id="patch_2">
    <path d="M 55.925 313.2 
L 460.825 313.2 
L 460.825 28.8 
L 55.925 28.8 
z
" style="fill: #ffffff"/>
   </g>
   <g id="matplotlib.axis_1">
    <g id="xtick_1">
     <g id="line2d_1">
      <defs>
       <path id="mc08dada02a" d="M 0 0 
L 0 3.5 
" style="stroke: #000000; stroke-width: 0.8"/>
      </defs>
      <g>
       <use xlink:href="#mc08dada02a" x="74.329545" y="313.2" style="stroke: #000000; stroke-width: 0.8"/>
      </g>
     </g>
     <g id="text_1">
      <!-- 0 -->
      <g transform="translate(71.148295 327.798437)scale(0.1 -0.1)">
       <defs>
        <path id="DejaVuSans-30" d="M 2034 4250 
Q 1547 4250 1301 3770 
Q 1056 3291 1056 2328 
Q 1056 1369 1301 889 
Q 1547 409 2034 409 
Q 2525 409 2770 889 
Q 3016 1369 3016 2328 
Q 3016 3291 2770 3770 
Q 2525 4250 2034 4250 
z
M 2034 4750 
Q 2819 4750 3233 4129 
Q 3647 3509 3647 2328 
Q 3647 1150 3233 529 
Q 2819 -91 2034 -91 
Q 1250 -91 836 529 
Q 422 1150 422 2328 
Q 422 3509 836 4129 
Q 1250 4750 2034 4750 
z
" transform="scale(0.015625)"/>
       </defs>
       <use xlink:href="#DejaVuSans-30"/>
      </g>
     </g>
    </g>
    <g id="xtick_2">
     <g id="line2d_2">
      <g>
       <use xlink:href="#mc08dada02a" x="148.021419" y="313.2" style="stroke: #000000; stroke-width: 0.8"/>
      </g>
     </g>
     <g id="text_2">
      <!-- 200 -->
      <g transform="translate(138.477669 327.798437)scale(0.1 -0.1)">
       <defs>
        <path id="DejaVuSans-32" d="M 1228 531 
L 3431 531 
L 3431 0 
L 469 0 
L 469 531 
Q 828 903 1448 1529 
Q 2069 2156 2228 2338 
Q 2531 2678 2651 2914 
Q 2772 3150 2772 3378 
Q 2772 3750 2511 3984 
Q 2250 4219 1831 4219 
Q 1534 4219 1204 4116 
Q 875 4013 500 3803 
L 500 4441 
Q 881 4594 1212 4672 
Q 1544 4750 1819 4750 
Q 2544 4750 2975 4387 
Q 3406 4025 3406 3419 
Q 3406 3131 3298 2873 
Q 3191 2616 2906 2266 
Q 2828 2175 2409 1742 
Q 1991 1309 1228 531 
z
" transform="scale(0.015625)"/>
       </defs>
       <use xlink:href="#DejaVuSans-32"/>
       <use xlink:href="#DejaVuSans-30" x="63.623047"/>
       <use xlink:href="#DejaVuSans-30" x="127.246094"/>
      </g>
     </g>
    </g>
    <g id="xtick_3">
     <g id="line2d_3">
      <g>
       <use xlink:href="#mc08dada02a" x="221.713293" y="313.2" style="stroke: #000000; stroke-width: 0.8"/>
      </g>
     </g>
     <g id="text_3">
      <!-- 400 -->
      <g transform="translate(212.169543 327.798437)scale(0.1 -0.1)">
       <defs>
        <path id="DejaVuSans-34" d="M 2419 4116 
L 825 1625 
L 2419 1625 
L 2419 4116 
z
M 2253 4666 
L 3047 4666 
L 3047 1625 
L 3713 1625 
L 3713 1100 
L 3047 1100 
L 3047 0 
L 2419 0 
L 2419 1100 
L 313 1100 
L 313 1709 
L 2253 4666 
z
" transform="scale(0.015625)"/>
       </defs>
       <use xlink:href="#DejaVuSans-34"/>
       <use xlink:href="#DejaVuSans-30" x="63.623047"/>
       <use xlink:href="#DejaVuSans-30" x="127.246094"/>
      </g>
     </g>
    </g>
    <g id="xtick_4">
     <g id="line2d_4">
      <g>
       <use xlink:href="#mc08dada02a" x="295.405167" y="313.2" style="stroke: #000000; stroke-width: 0.8"/>
      </g>
     </g>
     <g id="text_4">
      <!-- 600 -->
      <g transform="translate(285.861417 327.798437)scale(0.1 -0.1)">
       <defs>
        <path id="DejaVuSans-36" d="M 2113 2584 
Q 1688 2584 1439 2293 
Q 1191 2003 1191 1497 
Q 1191 994 1439 701 
Q 1688 409 2113 409 
Q 2538 409 2786 701 
Q 3034 994 3034 1497 
Q 3034 2003 2786 2293 
Q 2538 2584 2113 2584 
z
M 3366 4563 
L 3366 3988 
Q 3128 4100 2886 4159 
Q 2644 4219 2406 4219 
Q 1781 4219 1451 3797 
Q 1122 3375 1075 2522 
Q 1259 2794 1537 2939 
Q 1816 3084 2150 3084 
Q 2853 3084 3261 2657 
Q 3669 2231 3669 1497 
Q 3669 778 3244 343 
Q 2819 -91 2113 -91 
Q 1303 -91 875 529 
Q 447 1150 447 2328 
Q 447 3434 972 4092 
Q 1497 4750 2381 4750 
Q 2619 4750 2861 4703 
Q 3103 4656 3366 4563 
z
" transform="scale(0.015625)"/>
       </defs>
       <use xlink:href="#DejaVuSans-36"/>
       <use xlink:href="#DejaVuSans-30" x="63.623047"/>
       <use xlink:href="#DejaVuSans-30" x="127.246094"/>
      </g>
     </g>
    </g>
    <g id="xtick_5">
     <g id="line2d_5">
      <g>
       <use xlink:href="#mc08dada02a" x="369.09704" y="313.2" style="stroke: #000000; stroke-width: 0.8"/>
      </g>
     </g>
     <g id="text_5">
      <!-- 800 -->
      <g transform="translate(359.55329 327.798437)scale(0.1 -0.1)">
       <defs>
        <path id="DejaVuSans-38" d="M 2034 2216 
Q 1584 2216 1326 1975 
Q 1069 1734 1069 1313 
Q 1069 891 1326 650 
Q 1584 409 2034 409 
Q 2484 409 2743 651 
Q 3003 894 3003 1313 
Q 3003 1734 2745 1975 
Q 2488 2216 2034 2216 
z
M 1403 2484 
Q 997 2584 770 2862 
Q 544 3141 544 3541 
Q 544 4100 942 4425 
Q 1341 4750 2034 4750 
Q 2731 4750 3128 4425 
Q 3525 4100 3525 3541 
Q 3525 3141 3298 2862 
Q 3072 2584 2669 2484 
Q 3125 2378 3379 2068 
Q 3634 1759 3634 1313 
Q 3634 634 3220 271 
Q 2806 -91 2034 -91 
Q 1263 -91 848 271 
Q 434 634 434 1313 
Q 434 1759 690 2068 
Q 947 2378 1403 2484 
z
M 1172 3481 
Q 1172 3119 1398 2916 
Q 1625 2713 2034 2713 
Q 2441 2713 2670 2916 
Q 2900 3119 2900 3481 
Q 2900 3844 2670 4047 
Q 2441 4250 2034 4250 
Q 1625 4250 1398 4047 
Q 1172 3844 1172 3481 
z
" transform="scale(0.015625)"/>
       </defs>
       <use xlink:href="#DejaVuSans-38"/>
       <use xlink:href="#DejaVuSans-30" x="63.623047"/>
       <use xlink:href="#DejaVuSans-30" x="127.246094"/>
      </g>
     </g>
    </g>
    <g id="xtick_6">
     <g id="line2d_6">
      <g>
       <use xlink:href="#mc08dada02a" x="442.788914" y="313.2" style="stroke: #000000; stroke-width: 0.8"/>
      </g>
     </g>
     <g id="text_6">
      <!-- 1000 -->
      <g transform="translate(430.063914 327.798437)scale(0.1 -0.1)">
       <defs>
        <path id="DejaVuSans-31" d="M 794 531 
L 1825 531 
L 1825 4091 
L 703 3866 
L 703 4441 
L 1819 4666 
L 2450 4666 
L 2450 531 
L 3481 531 
L 3481 0 
L 794 0 
L 794 531 
z
" transform="scale(0.015625)"/>
       </defs>
       <use xlink:href="#DejaVuSans-31"/>
       <use xlink:href="#DejaVuSans-30" x="63.623047"/>
       <use xlink:href="#DejaVuSans-30" x="127.246094"/>
       <use xlink:href="#DejaVuSans-30" x="190.869141"/>
      </g>
     </g>
    </g>
    <g id="text_7">
     <!-- Episode -->
     <g transform="translate(228.91875 345.275781)scale(0.15 -0.15)">
      <defs>
       <path id="DejaVuSans-45" d="M 628 4666 
L 3578 4666 
L 3578 4134 
L 1259 4134 
L 1259 2753 
L 3481 2753 
L 3481 2222 
L 1259 2222 
L 1259 531 
L 3634 531 
L 3634 0 
L 628 0 
L 628 4666 
z
" transform="scale(0.015625)"/>
       <path id="DejaVuSans-70" d="M 1159 525 
L 1159 -1331 
L 581 -1331 
L 581 3500 
L 1159 3500 
L 1159 2969 
Q 1341 3281 1617 3432 
Q 1894 3584 2278 3584 
Q 2916 3584 3314 3078 
Q 3713 2572 3713 1747 
Q 3713 922 3314 415 
Q 2916 -91 2278 -91 
Q 1894 -91 1617 61 
Q 1341 213 1159 525 
z
M 3116 1747 
Q 3116 2381 2855 2742 
Q 2594 3103 2138 3103 
Q 1681 3103 1420 2742 
Q 1159 2381 1159 1747 
Q 1159 1113 1420 752 
Q 1681 391 2138 391 
Q 2594 391 2855 752 
Q 3116 1113 3116 1747 
z
" transform="scale(0.015625)"/>
       <path id="DejaVuSans-69" d="M 603 3500 
L 1178 3500 
L 1178 0 
L 603 0 
L 603 3500 
z
M 603 4863 
L 1178 4863 
L 1178 4134 
L 603 4134 
L 603 4863 
z
" transform="scale(0.015625)"/>
       <path id="DejaVuSans-73" d="M 2834 3397 
L 2834 2853 
Q 2591 2978 2328 3040 
Q 2066 3103 1784 3103 
Q 1356 3103 1142 2972 
Q 928 2841 928 2578 
Q 928 2378 1081 2264 
Q 1234 2150 1697 2047 
L 1894 2003 
Q 2506 1872 2764 1633 
Q 3022 1394 3022 966 
Q 3022 478 2636 193 
Q 2250 -91 1575 -91 
Q 1294 -91 989 -36 
Q 684 19 347 128 
L 347 722 
Q 666 556 975 473 
Q 1284 391 1588 391 
Q 1994 391 2212 530 
Q 2431 669 2431 922 
Q 2431 1156 2273 1281 
Q 2116 1406 1581 1522 
L 1381 1569 
Q 847 1681 609 1914 
Q 372 2147 372 2553 
Q 372 3047 722 3315 
Q 1072 3584 1716 3584 
Q 2034 3584 2315 3537 
Q 2597 3491 2834 3397 
z
" transform="scale(0.015625)"/>
       <path id="DejaVuSans-6f" d="M 1959 3097 
Q 1497 3097 1228 2736 
Q 959 2375 959 1747 
Q 959 1119 1226 758 
Q 1494 397 1959 397 
Q 2419 397 2687 759 
Q 2956 1122 2956 1747 
Q 2956 2369 2687 2733 
Q 2419 3097 1959 3097 
z
M 1959 3584 
Q 2709 3584 3137 3096 
Q 3566 2609 3566 1747 
Q 3566 888 3137 398 
Q 2709 -91 1959 -91 
Q 1206 -91 779 398 
Q 353 888 353 1747 
Q 353 2609 779 3096 
Q 1206 3584 1959 3584 
z
" transform="scale(0.015625)"/>
       <path id="DejaVuSans-64" d="M 2906 2969 
L 2906 4863 
L 3481 4863 
L 3481 0 
L 2906 0 
L 2906 525 
Q 2725 213 2448 61 
Q 2172 -91 1784 -91 
Q 1150 -91 751 415 
Q 353 922 353 1747 
Q 353 2572 751 3078 
Q 1150 3584 1784 3584 
Q 2172 3584 2448 3432 
Q 2725 3281 2906 2969 
z
M 947 1747 
Q 947 1113 1208 752 
Q 1469 391 1925 391 
Q 2381 391 2643 752 
Q 2906 1113 2906 1747 
Q 2906 2381 2643 2742 
Q 2381 3103 1925 3103 
Q 1469 3103 1208 2742 
Q 947 2381 947 1747 
z
" transform="scale(0.015625)"/>
       <path id="DejaVuSans-65" d="M 3597 1894 
L 3597 1613 
L 953 1613 
Q 991 1019 1311 708 
Q 1631 397 2203 397 
Q 2534 397 2845 478 
Q 3156 559 3463 722 
L 3463 178 
Q 3153 47 2828 -22 
Q 2503 -91 2169 -91 
Q 1331 -91 842 396 
Q 353 884 353 1716 
Q 353 2575 817 3079 
Q 1281 3584 2069 3584 
Q 2775 3584 3186 3129 
Q 3597 2675 3597 1894 
z
M 3022 2063 
Q 3016 2534 2758 2815 
Q 2500 3097 2075 3097 
Q 1594 3097 1305 2825 
Q 1016 2553 972 2059 
L 3022 2063 
z
" transform="scale(0.015625)"/>
      </defs>
      <use xlink:href="#DejaVuSans-45"/>
      <use xlink:href="#DejaVuSans-70" x="63.183594"/>
      <use xlink:href="#DejaVuSans-69" x="126.660156"/>
      <use xlink:href="#DejaVuSans-73" x="154.443359"/>
      <use xlink:href="#DejaVuSans-6f" x="206.542969"/>
      <use xlink:href="#DejaVuSans-64" x="267.724609"/>
      <use xlink:href="#DejaVuSans-65" x="331.201172"/>
     </g>
    </g>
   </g>
   <g id="matplotlib.axis_2">
    <g id="ytick_1">
     <g id="line2d_7">
      <defs>
       <path id="m06b8065d2e" d="M 0 0 
L -3.5 0 
" style="stroke: #000000; stroke-width: 0.8"/>
      </defs>
      <g>
       <use xlink:href="#m06b8065d2e" x="55.925" y="313.2" style="stroke: #000000; stroke-width: 0.8"/>
      </g>
     </g>
     <g id="text_8">
      <!-- 0 -->
      <g transform="translate(42.5625 316.999219)scale(0.1 -0.1)">
       <use xlink:href="#DejaVuSans-30"/>
      </g>
     </g>
    </g>
    <g id="ytick_2">
     <g id="line2d_8">
      <g>
       <use xlink:href="#m06b8065d2e" x="55.925" y="269.446154" style="stroke: #000000; stroke-width: 0.8"/>
      </g>
     </g>
     <g id="text_9">
      <!-- 100 -->
      <g transform="translate(29.8375 273.245373)scale(0.1 -0.1)">
       <use xlink:href="#DejaVuSans-31"/>
       <use xlink:href="#DejaVuSans-30" x="63.623047"/>
       <use xlink:href="#DejaVuSans-30" x="127.246094"/>
      </g>
     </g>
    </g>
    <g id="ytick_3">
     <g id="line2d_9">
      <g>
       <use xlink:href="#m06b8065d2e" x="55.925" y="225.692308" style="stroke: #000000; stroke-width: 0.8"/>
      </g>
     </g>
     <g id="text_10">
      <!-- 200 -->
      <g transform="translate(29.8375 229.491526)scale(0.1 -0.1)">
       <use xlink:href="#DejaVuSans-32"/>
       <use xlink:href="#DejaVuSans-30" x="63.623047"/>
       <use xlink:href="#DejaVuSans-30" x="127.246094"/>
      </g>
     </g>
    </g>
    <g id="ytick_4">
     <g id="line2d_10">
      <g>
       <use xlink:href="#m06b8065d2e" x="55.925" y="181.938462" style="stroke: #000000; stroke-width: 0.8"/>
      </g>
     </g>
     <g id="text_11">
      <!-- 300 -->
      <g transform="translate(29.8375 185.73768)scale(0.1 -0.1)">
       <defs>
        <path id="DejaVuSans-33" d="M 2597 2516 
Q 3050 2419 3304 2112 
Q 3559 1806 3559 1356 
Q 3559 666 3084 287 
Q 2609 -91 1734 -91 
Q 1441 -91 1130 -33 
Q 819 25 488 141 
L 488 750 
Q 750 597 1062 519 
Q 1375 441 1716 441 
Q 2309 441 2620 675 
Q 2931 909 2931 1356 
Q 2931 1769 2642 2001 
Q 2353 2234 1838 2234 
L 1294 2234 
L 1294 2753 
L 1863 2753 
Q 2328 2753 2575 2939 
Q 2822 3125 2822 3475 
Q 2822 3834 2567 4026 
Q 2313 4219 1838 4219 
Q 1578 4219 1281 4162 
Q 984 4106 628 3988 
L 628 4550 
Q 988 4650 1302 4700 
Q 1616 4750 1894 4750 
Q 2613 4750 3031 4423 
Q 3450 4097 3450 3541 
Q 3450 3153 3228 2886 
Q 3006 2619 2597 2516 
z
" transform="scale(0.015625)"/>
       </defs>
       <use xlink:href="#DejaVuSans-33"/>
       <use xlink:href="#DejaVuSans-30" x="63.623047"/>
       <use xlink:href="#DejaVuSans-30" x="127.246094"/>
      </g>
     </g>
    </g>
    <g id="ytick_5">
     <g id="line2d_11">
      <g>
       <use xlink:href="#m06b8065d2e" x="55.925" y="138.184615" style="stroke: #000000; stroke-width: 0.8"/>
      </g>
     </g>
     <g id="text_12">
      <!-- 400 -->
      <g transform="translate(29.8375 141.983834)scale(0.1 -0.1)">
       <use xlink:href="#DejaVuSans-34"/>
       <use xlink:href="#DejaVuSans-30" x="63.623047"/>
       <use xlink:href="#DejaVuSans-30" x="127.246094"/>
      </g>
     </g>
    </g>
    <g id="ytick_6">
     <g id="line2d_12">
      <g>
       <use xlink:href="#m06b8065d2e" x="55.925" y="94.430769" style="stroke: #000000; stroke-width: 0.8"/>
      </g>
     </g>
     <g id="text_13">
      <!-- 500 -->
      <g transform="translate(29.8375 98.229988)scale(0.1 -0.1)">
       <defs>
        <path id="DejaVuSans-35" d="M 691 4666 
L 3169 4666 
L 3169 4134 
L 1269 4134 
L 1269 2991 
Q 1406 3038 1543 3061 
Q 1681 3084 1819 3084 
Q 2600 3084 3056 2656 
Q 3513 2228 3513 1497 
Q 3513 744 3044 326 
Q 2575 -91 1722 -91 
Q 1428 -91 1123 -41 
Q 819 9 494 109 
L 494 744 
Q 775 591 1075 516 
Q 1375 441 1709 441 
Q 2250 441 2565 725 
Q 2881 1009 2881 1497 
Q 2881 1984 2565 2268 
Q 2250 2553 1709 2553 
Q 1456 2553 1204 2497 
Q 953 2441 691 2322 
L 691 4666 
z
" transform="scale(0.015625)"/>
       </defs>
       <use xlink:href="#DejaVuSans-35"/>
       <use xlink:href="#DejaVuSans-30" x="63.623047"/>
       <use xlink:href="#DejaVuSans-30" x="127.246094"/>
      </g>
     </g>
    </g>
    <g id="ytick_7">
     <g id="line2d_13">
      <g>
       <use xlink:href="#m06b8065d2e" x="55.925" y="50.676923" style="stroke: #000000; stroke-width: 0.8"/>
      </g>
     </g>
     <g id="text_14">
      <!-- 600 -->
      <g transform="translate(29.8375 54.476142)scale(0.1 -0.1)">
       <use xlink:href="#DejaVuSans-36"/>
       <use xlink:href="#DejaVuSans-30" x="63.623047"/>
       <use xlink:href="#DejaVuSans-30" x="127.246094"/>
      </g>
     </g>
    </g>
    <g id="text_15">
     <!-- Score -->
     <g transform="translate(22.717969 192.003516)rotate(-90)scale(0.15 -0.15)">
      <defs>
       <path id="DejaVuSans-53" d="M 3425 4513 
L 3425 3897 
Q 3066 4069 2747 4153 
Q 2428 4238 2131 4238 
Q 1616 4238 1336 4038 
Q 1056 3838 1056 3469 
Q 1056 3159 1242 3001 
Q 1428 2844 1947 2747 
L 2328 2669 
Q 3034 2534 3370 2195 
Q 3706 1856 3706 1288 
Q 3706 609 3251 259 
Q 2797 -91 1919 -91 
Q 1588 -91 1214 -16 
Q 841 59 441 206 
L 441 856 
Q 825 641 1194 531 
Q 1563 422 1919 422 
Q 2459 422 2753 634 
Q 3047 847 3047 1241 
Q 3047 1584 2836 1778 
Q 2625 1972 2144 2069 
L 1759 2144 
Q 1053 2284 737 2584 
Q 422 2884 422 3419 
Q 422 4038 858 4394 
Q 1294 4750 2059 4750 
Q 2388 4750 2728 4690 
Q 3069 4631 3425 4513 
z
" transform="scale(0.015625)"/>
       <path id="DejaVuSans-63" d="M 3122 3366 
L 3122 2828 
Q 2878 2963 2633 3030 
Q 2388 3097 2138 3097 
Q 1578 3097 1268 2742 
Q 959 2388 959 1747 
Q 959 1106 1268 751 
Q 1578 397 2138 397 
Q 2388 397 2633 464 
Q 2878 531 3122 666 
L 3122 134 
Q 2881 22 2623 -34 
Q 2366 -91 2075 -91 
Q 1284 -91 818 406 
Q 353 903 353 1747 
Q 353 2603 823 3093 
Q 1294 3584 2113 3584 
Q 2378 3584 2631 3529 
Q 2884 3475 3122 3366 
z
" transform="scale(0.015625)"/>
       <path id="DejaVuSans-72" d="M 2631 2963 
Q 2534 3019 2420 3045 
Q 2306 3072 2169 3072 
Q 1681 3072 1420 2755 
Q 1159 2438 1159 1844 
L 1159 0 
L 581 0 
L 581 3500 
L 1159 3500 
L 1159 2956 
Q 1341 3275 1631 3429 
Q 1922 3584 2338 3584 
Q 2397 3584 2469 3576 
Q 2541 3569 2628 3553 
L 2631 2963 
z
" transform="scale(0.015625)"/>
      </defs>
      <use xlink:href="#DejaVuSans-53"/>
      <use xlink:href="#DejaVuSans-63" x="63.476562"/>
      <use xlink:href="#DejaVuSans-6f" x="118.457031"/>
      <use xlink:href="#DejaVuSans-72" x="179.638672"/>
      <use xlink:href="#DejaVuSans-65" x="218.501953"/>
     </g>
    </g>
   </g>
   <g id="line2d_14">
    <path d="M 74.329545 301.386462 
L 74.698005 303.574154 
L 75.066464 304.886769 
L 75.434924 307.949538 
L 75.803383 307.074462 
L 76.171842 301.386462 
L 76.540302 297.886154 
L 76.908761 303.574154 
L 77.27722 304.449231 
L 77.64568 305.761846 
L 78.014139 300.511385 
L 78.382599 304.011692 
L 78.751058 298.323692 
L 79.119517 308.824615 
L 79.487977 305.761846 
L 79.856436 300.073846 
L 80.224895 297.011077 
L 80.593355 307.512 
L 80.961814 298.323692 
L 81.330273 298.323692 
L 81.698733 302.261538 
L 82.067192 299.198769 
L 82.435652 286.072615 
L 82.804111 302.699077 
L 83.17257 307.512 
L 83.54103 307.074462 
L 83.909489 301.386462 
L 84.277948 306.199385 
L 84.646408 299.636308 
L 85.014867 307.512 
L 85.383327 308.824615 
L 85.751786 308.824615 
L 86.120245 303.574154 
L 86.488705 308.387077 
L 86.857164 308.387077 
L 87.225623 305.324308 
L 87.594083 307.512 
L 87.962542 305.761846 
L 88.331001 308.387077 
L 88.699461 304.449231 
L 89.06792 290.885538 
L 89.43638 307.074462 
L 89.804839 300.948923 
L 90.173298 300.948923 
L 90.541758 307.074462 
L 90.910217 301.824 
L 91.278676 304.886769 
L 91.647136 303.136615 
L 92.015595 303.136615 
L 92.384055 297.448615 
L 92.752514 308.824615 
L 93.120973 304.449231 
L 93.489433 306.636923 
L 93.857892 297.886154 
L 94.226351 296.136 
L 94.594811 297.448615 
L 94.96327 306.199385 
L 95.331729 309.262154 
L 95.700189 303.574154 
L 96.068648 304.886769 
L 96.437108 303.574154 
L 96.805567 306.636923 
L 97.174026 293.948308 
L 97.542486 300.948923 
L 97.910945 305.761846 
L 98.279404 306.636923 
L 98.647864 296.573538 
L 99.016323 293.073231 
L 99.384783 304.011692 
L 99.753242 306.636923 
L 100.121701 307.074462 
L 100.490161 303.574154 
L 100.85862 306.199385 
L 101.227079 302.699077 
L 101.595539 304.011692 
L 101.963998 308.824615 
L 102.332457 300.948923 
L 102.700917 307.512 
L 103.069376 299.636308 
L 103.437836 305.324308 
L 103.806295 303.574154 
L 104.174754 307.949538 
L 104.543214 305.324308 
L 104.911673 308.824615 
L 105.280132 289.135385 
L 105.648592 306.636923 
L 106.017051 299.198769 
L 106.385511 308.824615 
L 107.122429 300.948923 
L 107.490889 304.886769 
L 107.859348 284.76 
L 108.227807 305.324308 
L 108.596267 301.386462 
L 108.964726 304.886769 
L 109.333185 300.511385 
L 109.701645 300.511385 
L 110.070104 307.512 
L 110.438564 307.074462 
L 110.807023 304.449231 
L 111.175482 304.449231 
L 111.543942 298.323692 
L 111.912401 296.573538 
L 112.28086 304.449231 
L 112.64932 293.948308 
L 113.017779 306.636923 
L 113.386239 307.512 
L 113.754698 303.574154 
L 114.123157 305.761846 
L 114.491617 306.199385 
L 114.860076 307.074462 
L 115.228535 282.572308 
L 115.596995 301.386462 
L 115.965454 299.636308 
L 116.333913 305.324308 
L 116.702373 307.512 
L 117.070832 276.446769 
L 117.439292 300.511385 
L 117.807751 307.949538 
L 118.17621 303.574154 
L 118.54467 306.199385 
L 118.913129 296.573538 
L 119.281588 307.074462 
L 119.650048 307.512 
L 120.018507 303.574154 
L 120.386967 307.074462 
L 120.755426 303.136615 
L 121.123885 307.512 
L 122.229263 301.824 
L 122.597723 294.385846 
L 123.703101 304.011692 
L 124.07156 304.449231 
L 124.44002 307.074462 
L 124.808479 300.948923 
L 125.176938 285.635077 
L 125.545398 281.697231 
L 125.913857 307.074462 
L 126.282316 306.199385 
L 126.650776 307.074462 
L 127.019235 307.074462 
L 127.387695 298.761231 
L 127.756154 306.636923 
L 128.124613 308.387077 
L 128.493073 305.324308 
L 128.861532 304.886769 
L 129.229991 288.697846 
L 129.598451 307.074462 
L 129.96691 308.387077 
L 130.703829 294.823385 
L 131.072288 307.949538 
L 131.440748 304.886769 
L 131.809207 305.761846 
L 132.177666 304.449231 
L 132.546126 290.010462 
L 132.914585 305.761846 
L 133.283044 306.199385 
L 133.651504 305.324308 
L 134.019963 298.323692 
L 134.388423 304.449231 
L 134.756882 304.449231 
L 135.125341 260.257846 
L 135.493801 297.886154 
L 135.86226 306.199385 
L 136.230719 304.011692 
L 136.967638 298.761231 
L 137.336097 298.323692 
L 137.704557 301.386462 
L 138.073016 297.886154 
L 138.441476 305.761846 
L 138.809935 302.699077 
L 139.178394 304.011692 
L 139.546854 308.387077 
L 139.915313 303.574154 
L 140.283772 304.449231 
L 140.652232 307.512 
L 141.020691 301.386462 
L 141.389151 307.512 
L 141.75761 295.698462 
L 142.126069 303.574154 
L 142.494529 302.261538 
L 142.862988 307.074462 
L 143.231447 306.199385 
L 143.599907 307.949538 
L 143.968366 294.385846 
L 144.336825 307.074462 
L 144.705285 293.510769 
L 145.073744 303.136615 
L 145.442204 308.824615 
L 145.810663 306.199385 
L 146.179122 295.260923 
L 146.547582 304.449231 
L 146.916041 296.573538 
L 147.2845 307.512 
L 147.65296 302.699077 
L 148.021419 300.511385 
L 148.389879 297.011077 
L 148.758338 301.824 
L 149.126797 299.636308 
L 149.495257 281.259692 
L 149.863716 306.636923 
L 150.232175 306.636923 
L 150.600635 304.449231 
L 150.969094 295.698462 
L 151.337553 293.510769 
L 151.706013 306.199385 
L 152.442932 299.198769 
L 152.811391 283.009846 
L 153.17985 294.385846 
L 153.54831 301.824 
L 153.916769 292.635692 
L 154.285228 275.571692 
L 154.653688 288.260308 
L 155.022147 288.697846 
L 155.390607 307.074462 
L 155.759066 284.76 
L 156.127525 297.886154 
L 156.495985 300.073846 
L 156.864444 309.262154 
L 157.232903 307.512 
L 157.601363 301.386462 
L 157.969822 307.512 
L 158.338281 299.198769 
L 158.706741 293.510769 
L 159.0752 304.886769 
L 159.44366 299.198769 
L 159.812119 305.761846 
L 160.180578 304.886769 
L 160.549038 284.76 
L 160.917497 304.449231 
L 161.285956 291.760615 
L 161.654416 307.512 
L 162.022875 291.760615 
L 162.391335 292.635692 
L 162.759794 306.199385 
L 163.496713 278.634462 
L 163.865172 307.949538 
L 164.233631 292.635692 
L 164.602091 302.261538 
L 164.97055 300.511385 
L 165.339009 304.886769 
L 165.707469 276.884308 
L 166.075928 294.823385 
L 166.444388 302.261538 
L 166.812847 299.198769 
L 167.181306 300.073846 
L 167.549766 305.324308 
L 167.918225 302.699077 
L 168.286684 301.386462 
L 168.655144 302.699077 
L 169.023603 309.262154 
L 169.392063 299.198769 
L 169.760522 305.761846 
L 170.128981 292.635692 
L 170.497441 305.761846 
L 170.8659 295.698462 
L 171.234359 295.260923 
L 171.602819 290.885538 
L 171.971278 279.072 
L 172.339737 306.199385 
L 172.708197 276.446769 
L 173.076656 297.011077 
L 173.445116 252.819692 
L 173.813575 302.699077 
L 174.182034 303.136615 
L 174.550494 288.697846 
L 174.918953 304.011692 
L 175.287412 295.260923 
L 175.655872 300.511385 
L 176.024331 302.261538 
L 176.392791 308.387077 
L 176.76125 269.008615 
L 177.129709 272.508923 
L 177.498169 304.886769 
L 177.866628 275.134154 
L 178.235087 297.448615 
L 178.603547 304.011692 
L 178.972006 304.011692 
L 179.340465 298.323692 
L 179.708925 277.321846 
L 180.445844 304.011692 
L 180.814303 300.511385 
L 181.182762 305.324308 
L 181.551222 295.260923 
L 181.919681 304.886769 
L 182.28814 277.321846 
L 182.6566 290.010462 
L 183.025059 255.007385 
L 183.393519 304.449231 
L 183.761978 261.132923 
L 184.130437 305.761846 
L 184.498897 292.635692 
L 184.867356 304.886769 
L 185.235815 242.756308 
L 185.604275 263.320615 
L 185.972734 275.571692 
L 186.341193 302.699077 
L 186.709653 287.385231 
L 187.078112 297.011077 
L 187.446572 300.511385 
L 188.18349 278.634462 
L 188.55195 284.322462 
L 188.920409 234.880615 
L 189.288868 297.448615 
L 190.025787 257.632615 
L 190.394247 306.636923 
L 190.762706 284.322462 
L 191.131165 292.635692 
L 191.499625 225.692308 
L 191.868084 250.632 
L 192.236543 286.072615 
L 192.605003 251.507077 
L 192.973462 278.196923 
L 193.341921 263.758154 
L 193.710381 303.136615 
L 194.07884 269.008615 
L 194.4473 284.76 
L 194.815759 271.196308 
L 195.184218 304.886769 
L 195.552678 283.009846 
L 195.921137 274.696615 
L 196.289596 304.449231 
L 196.658056 251.944615 
L 197.026515 237.943385 
L 197.394975 299.636308 
L 197.763434 257.195077 
L 198.131893 248.444308 
L 198.500353 297.886154 
L 198.868812 284.322462 
L 199.237271 279.509538 
L 199.605731 260.695385 
L 199.97419 282.134769 
L 200.342649 255.444923 
L 200.711109 260.257846 
L 201.079568 219.129231 
L 201.448028 281.259692 
L 201.816487 253.694769 
L 202.184946 265.070769 
L 202.553406 283.009846 
L 202.921865 269.883692 
L 203.290324 293.073231 
L 203.658784 262.008 
L 204.027243 269.008615 
L 204.395703 248.444308 
L 205.501081 303.574154 
L 205.86954 254.132308 
L 206.237999 272.071385 
L 206.606459 261.570462 
L 206.974918 241.881231 
L 207.343377 267.696 
L 207.711837 245.819077 
L 208.080296 270.321231 
L 208.448756 263.320615 
L 208.817215 271.196308 
L 209.185674 272.508923 
L 209.554134 276.009231 
L 209.922593 248.881846 
L 210.291052 239.256 
L 210.659512 188.501538 
L 211.027971 279.509538 
L 211.396431 271.633846 
L 211.76489 229.192615 
L 212.133349 266.383385 
L 212.501809 217.379077 
L 212.870268 260.695385 
L 213.238727 279.072 
L 213.607187 263.320615 
L 213.975646 288.697846 
L 214.344105 223.942154 
L 214.712565 237.943385 
L 215.081024 259.820308 
L 215.449484 230.505231 
L 215.817943 263.758154 
L 216.186402 265.945846 
L 216.554862 260.257846 
L 216.923321 248.006769 
L 217.29178 203.377846 
L 217.66024 263.758154 
L 218.028699 281.697231 
L 218.397159 282.134769 
L 218.765618 272.508923 
L 219.134077 256.32 
L 219.502537 256.757538 
L 219.870996 230.505231 
L 220.239455 273.821538 
L 220.607915 208.190769 
L 220.976374 271.633846 
L 221.344833 256.32 
L 221.713293 262.008 
L 222.081752 219.566769 
L 222.450212 280.384615 
L 222.818671 249.319385 
L 223.18713 250.194462 
L 223.55559 265.945846 
L 223.924049 223.504615 
L 224.660968 275.571692 
L 225.029427 271.196308 
L 225.397887 271.196308 
L 226.134805 243.193846 
L 226.503265 263.758154 
L 226.871724 257.632615 
L 227.240183 263.320615 
L 227.608643 245.819077 
L 227.977102 247.569231 
L 228.345561 274.259077 
L 228.714021 242.756308 
L 229.08248 239.256 
L 229.45094 258.507692 
L 229.819399 261.132923 
L 230.187858 232.255385 
L 230.556318 273.821538 
L 231.293236 251.507077 
L 232.030155 285.635077 
L 232.398615 264.195692 
L 232.767074 253.257231 
L 233.135533 222.192 
L 233.503993 264.195692 
L 233.872452 262.883077 
L 234.240911 265.070769 
L 234.97783 284.76 
L 235.346289 220.441846 
L 235.714749 266.820923 
L 236.083208 248.881846 
L 236.451668 276.446769 
L 237.188586 250.632 
L 237.557046 270.321231 
L 237.925505 270.758769 
L 238.293964 268.133538 
L 238.662424 273.384 
L 239.030883 268.571077 
L 239.399343 269.446154 
L 240.136261 250.632 
L 240.504721 266.820923 
L 240.87318 262.008 
L 241.241639 268.133538 
L 241.610099 257.195077 
L 241.978558 274.696615 
L 242.347017 263.758154 
L 242.715477 258.507692 
L 243.083936 275.571692 
L 243.452396 276.446769 
L 243.820855 274.696615 
L 244.189314 271.633846 
L 244.926233 272.508923 
L 245.294692 274.259077 
L 245.663152 283.009846 
L 246.031611 263.758154 
L 246.76853 272.508923 
L 247.136989 273.821538 
L 247.505449 277.759385 
L 247.873908 270.758769 
L 248.242367 256.757538 
L 248.610827 261.132923 
L 248.979286 276.884308 
L 249.347745 263.320615 
L 249.716205 259.820308 
L 250.084664 272.946462 
L 250.453124 268.133538 
L 250.821583 276.884308 
L 251.190042 273.821538 
L 251.558502 283.447385 
L 251.926961 276.009231 
L 252.29542 258.945231 
L 252.66388 259.382769 
L 253.032339 246.694154 
L 253.400799 277.759385 
L 253.769258 257.195077 
L 254.137717 257.632615 
L 254.506177 279.509538 
L 254.874636 275.134154 
L 255.243095 256.32 
L 255.611555 260.257846 
L 255.980014 261.132923 
L 256.348473 262.445538 
L 256.716933 267.696 
L 257.453852 286.510154 
L 257.822311 281.259692 
L 258.19077 249.756923 
L 258.55923 273.384 
L 258.927689 257.195077 
L 259.296148 275.134154 
L 259.664608 235.318154 
L 260.033067 271.633846 
L 260.401527 252.382154 
L 260.769986 262.445538 
L 261.138445 229.192615 
L 261.506905 269.008615 
L 261.875364 255.007385 
L 262.243823 271.633846 
L 262.612283 272.508923 
L 262.980742 278.634462 
L 263.349201 262.883077 
L 263.717661 273.821538 
L 264.08612 269.008615 
L 264.823039 272.071385 
L 265.191498 258.945231 
L 265.559958 252.819692 
L 265.928417 248.881846 
L 266.296876 264.633231 
L 266.665336 270.321231 
L 267.033795 266.383385 
L 267.402255 245.819077 
L 267.770714 253.257231 
L 268.139173 271.633846 
L 268.507633 252.819692 
L 268.876092 251.069538 
L 269.244551 272.946462 
L 269.613011 249.756923 
L 269.98147 265.508308 
L 270.349929 237.068308 
L 270.718389 264.195692 
L 271.455308 206.003077 
L 271.823767 244.068923 
L 272.192226 244.068923 
L 272.560686 237.943385 
L 272.929145 220.004308 
L 273.297604 265.945846 
L 273.666064 220.879385 
L 274.034523 248.444308 
L 274.402983 224.379692 
L 274.771442 245.819077 
L 275.139901 260.257846 
L 275.508361 248.881846 
L 275.87682 270.321231 
L 276.245279 216.941538 
L 276.613739 262.445538 
L 276.982198 247.131692 
L 277.350657 251.507077 
L 277.719117 234.880615 
L 278.087576 202.065231 
L 278.456036 216.504 
L 278.824495 244.944 
L 279.192954 232.255385 
L 279.561414 211.253538 
L 279.929873 250.632 
L 280.298332 257.632615 
L 280.666792 225.692308 
L 281.035251 239.256 
L 281.403711 191.126769 
L 282.140629 254.132308 
L 282.877548 201.627692 
L 283.246007 241.881231 
L 283.614467 211.253538 
L 283.982926 251.507077 
L 284.351385 191.126769 
L 284.719845 193.314462 
L 285.088304 220.441846 
L 285.456764 232.692923 
L 286.193682 198.127385 
L 286.562142 219.129231 
L 286.930601 199.002462 
L 287.29906 199.44 
L 287.66752 181.063385 
L 288.035979 202.940308 
L 288.404439 206.440615 
L 288.772898 153.498462 
L 289.141357 214.753846 
L 289.509817 225.692308 
L 289.878276 130.308923 
L 290.246735 185.438769 
L 290.615195 178.875692 
L 290.983654 127.246154 
L 291.352113 141.247385 
L 292.089032 211.691077 
L 292.457492 196.814769 
L 292.825951 161.811692 
L 293.19441 197.689846 
L 293.56287 163.561846 
L 293.931329 253.257231 
L 294.299788 286.072615 
L 294.668248 216.504 
L 295.036707 286.510154 
L 295.405167 283.447385 
L 295.773626 94.430769 
L 296.142085 94.430769 
L 296.510545 266.383385 
L 296.879004 265.070769 
L 297.247463 264.633231 
L 297.615923 141.684923 
L 297.984382 277.321846 
L 298.352841 141.247385 
L 299.08976 94.430769 
L 299.45822 94.430769 
L 299.826679 250.194462 
L 300.195138 270.321231 
L 300.563598 94.430769 
L 300.932057 260.695385 
L 301.300516 94.430769 
L 301.668976 94.430769 
L 302.037435 248.881846 
L 302.405895 94.430769 
L 302.774354 94.430769 
L 303.142813 247.569231 
L 303.511273 94.430769 
L 303.879732 243.193846 
L 304.248191 94.430769 
L 306.827407 94.430769 
L 307.195866 272.508923 
L 307.564326 94.430769 
L 309.038163 94.430769 
L 309.406623 275.134154 
L 309.775082 94.430769 
L 310.88046 94.430769 
L 311.248919 225.692308 
L 311.617379 94.430769 
L 311.985838 213.003692 
L 312.354297 275.134154 
L 312.722757 94.430769 
L 313.828135 94.430769 
L 314.196594 249.319385 
L 314.565054 223.942154 
L 314.933513 252.819692 
L 315.301972 250.194462 
L 315.670432 250.632 
L 316.038891 154.811077 
L 316.407351 160.936615 
L 316.77581 94.430769 
L 334.830319 94.430769 
L 334.830319 94.430769 
" clip-path="url(#p3210c490f5)" style="fill: none; stroke: #708090; stroke-width: 1.5; stroke-linecap: square"/>
   </g>
   <g id="line2d_15">
    <path d="M 74.329545 303.259126 
L 74.698005 303.407889 
L 75.434924 303.460394 
L 76.540302 302.9616 
L 77.27722 303.241625 
L 78.382599 303.267877 
L 78.751058 303.320382 
L 79.856436 303.07536 
L 80.224895 303.206622 
L 80.593355 303.197871 
L 80.961814 302.909095 
L 82.435652 303.372886 
L 82.804111 303.775422 
L 85.383327 303.714166 
L 86.120245 303.591655 
L 86.857164 303.635409 
L 87.225623 303.250375 
L 87.594083 303.276628 
L 87.962542 303.110363 
L 88.331001 303.171618 
L 89.06792 303.031606 
L 89.43638 303.311631 
L 89.804839 302.865342 
L 90.541758 302.9616 
L 92.015595 302.891594 
L 93.120973 303.022855 
L 93.857892 302.699077 
L 94.226351 302.830338 
L 94.594811 302.786585 
L 94.96327 302.970351 
L 95.331729 302.996603 
L 95.700189 302.882843 
L 96.805567 303.022855 
L 97.174026 302.541563 
L 97.542486 302.690326 
L 98.647864 302.672825 
L 99.016323 302.270289 
L 99.753242 302.497809 
L 101.227079 302.296542 
L 101.963998 302.384049 
L 102.700917 302.3928 
L 103.069376 302.3928 
L 103.437836 302.515311 
L 104.174754 302.462806 
L 104.911673 302.042769 
L 105.280132 301.911508 
L 105.648592 302.209034 
L 106.017051 302.16528 
L 106.385511 302.322794 
L 106.75397 302.16528 
L 107.490889 301.395212 
L 107.859348 301.438966 
L 108.227807 301.867754 
L 109.701645 302.016517 
L 110.070104 302.174031 
L 110.807023 302.086523 
L 111.175482 301.771495 
L 111.543942 301.824 
L 112.28086 302.130277 
L 112.64932 301.93776 
L 113.017779 302.217785 
L 114.123157 302.16528 
L 114.491617 301.850252 
L 115.228535 301.824 
L 115.596995 302.27904 
L 115.965454 302.217785 
L 116.702373 302.296542 
L 117.070832 301.351458 
L 117.439292 301.780246 
L 117.807751 301.894006 
L 120.755426 301.298954 
L 122.597723 301.403963 
L 123.334641 301.736492 
L 123.703101 301.605231 
L 125.176938 301.657735 
L 125.545398 302.104025 
L 125.913857 302.357797 
L 126.282316 302.357797 
L 126.650776 302.104025 
L 127.019235 302.025268 
L 127.387695 302.060271 
L 127.756154 302.209034 
L 128.124613 301.981514 
L 129.229991 301.780246 
L 129.598451 302.060271 
L 130.703829 301.701489 
L 131.072288 301.797748 
L 131.440748 301.263951 
L 132.914585 301.430215 
L 133.283044 301.185194 
L 134.388423 301.14144 
L 134.756882 300.712652 
L 135.125341 300.511385 
L 135.493801 301.342708 
L 135.86226 301.237698 
L 136.230719 300.625145 
L 136.967638 300.065095 
L 137.336097 300.23136 
L 137.704557 299.960086 
L 138.073016 299.89008 
L 139.915313 300.030092 
L 140.283772 299.942585 
L 140.652232 299.723815 
L 141.75761 299.592554 
L 142.126069 299.77632 
L 142.494529 299.400037 
L 142.862988 299.443791 
L 143.231447 299.137514 
L 143.599907 299.163766 
L 143.968366 298.839988 
L 145.073744 298.769982 
L 145.442204 298.279938 
L 145.810663 298.262437 
L 146.179122 297.991163 
L 146.547582 298.131175 
L 146.916041 298.052418 
L 147.2845 298.218683 
L 147.65296 297.606129 
L 148.021419 297.448615 
L 149.495257 297.606129 
L 149.863716 298.034917 
L 150.600635 297.851151 
L 151.337553 298.017415 
L 151.706013 298.262437 
L 152.074472 297.991163 
L 152.442932 298.061169 
L 152.811391 297.991163 
L 153.17985 298.236185 
L 153.54831 298.166178 
L 153.916769 297.711138 
L 154.285228 297.982412 
L 154.653688 297.999914 
L 155.022147 298.174929 
L 155.390607 297.457366 
L 155.759066 297.369858 
L 156.127525 297.737391 
L 156.495985 297.553625 
L 156.864444 297.632382 
L 157.232903 297.352357 
L 157.601363 297.212345 
L 158.338281 297.247348 
L 159.0752 296.223508 
L 159.44366 296.223508 
L 159.812119 295.742215 
L 160.180578 295.575951 
L 160.549038 295.558449 
L 160.917497 295.943483 
L 161.285956 295.820972 
L 162.022875 295.217169 
L 162.759794 295.619705 
L 163.496713 295.654708 
L 163.865172 296.179754 
L 164.233631 295.5672 
L 164.602091 295.514695 
L 164.97055 294.569612 
L 165.339009 294.648369 
L 165.707469 293.773292 
L 166.075928 294.350843 
L 166.812847 294.359594 
L 167.181306 293.230745 
L 167.918225 291.900628 
L 168.286684 291.900628 
L 168.655144 291.620603 
L 169.392063 291.331828 
L 169.760522 291.104308 
L 170.128981 290.56176 
L 170.497441 290.395495 
L 170.8659 288.977871 
L 171.234359 289.012874 
L 171.602819 288.62784 
L 171.971278 287.962782 
L 172.339737 288.51408 
L 172.708197 288.076542 
L 173.076656 288.40032 
L 173.445116 286.973945 
L 173.813575 286.930191 
L 174.182034 286.597662 
L 174.550494 285.565071 
L 174.918953 285.355052 
L 175.287412 284.549982 
L 175.655872 284.707495 
L 176.024331 284.07744 
L 176.392791 283.727409 
L 176.76125 282.983594 
L 177.129709 283.701157 
L 177.498169 283.911175 
L 177.866628 283.307372 
L 178.235087 283.893674 
L 178.603547 282.983594 
L 178.972006 281.662228 
L 179.340465 281.57472 
L 180.077384 280.174597 
L 180.445844 280.297108 
L 181.182762 279.483286 
L 181.551222 278.590708 
L 181.919681 278.328185 
L 182.28814 277.339348 
L 182.6566 276.998068 
L 183.025059 275.580443 
L 183.393519 276.105489 
L 183.761978 275.0904 
L 184.130437 275.169157 
L 184.867356 274.259077 
L 185.235815 274.022806 
L 185.604275 274.40784 
L 185.972734 274.5216 
L 186.709653 273.287742 
L 187.078112 273.182732 
L 187.446572 273.313994 
L 187.815031 272.386412 
L 188.55195 271.730105 
L 188.920409 270.88128 
L 189.288868 271.537588 
L 189.657328 270.504997 
L 190.025787 270.391237 
L 190.394247 270.504997 
L 190.762706 269.796185 
L 191.499625 269.227385 
L 191.868084 269.691175 
L 192.236543 269.463655 
L 192.605003 267.512234 
L 192.973462 268.072283 
L 193.341921 267.941022 
L 194.07884 266.514646 
L 194.4473 265.482055 
L 194.815759 265.000763 
L 195.184218 265.158277 
L 195.552678 264.326954 
L 195.921137 264.440714 
L 196.658056 262.095508 
L 197.026515 262.253022 
L 197.394975 262.104258 
L 197.763434 261.386695 
L 198.500353 261.797982 
L 198.868812 260.800394 
L 199.237271 259.181502 
L 199.605731 258.866474 
L 199.97419 259.286511 
L 200.342649 259.286511 
L 200.711109 259.627791 
L 201.079568 259.549034 
L 201.448028 260.3016 
L 201.816487 259.286511 
L 202.184946 259.689046 
L 202.553406 258.551446 
L 203.290324 258.052652 
L 203.658784 257.431348 
L 204.027243 256.582523 
L 204.395703 256.810043 
L 204.764162 256.827545 
L 205.501081 256.144985 
L 205.86954 254.543594 
L 206.237999 254.429834 
L 206.606459 254.49984 
L 206.974918 254.692357 
L 207.343377 255.278658 
L 207.711837 255.051138 
L 208.448756 254.867372 
L 209.185674 254.596098 
L 209.922593 253.493502 
L 210.291052 254.001046 
L 210.659512 254.071052 
L 211.027971 255.086142 
L 211.396431 254.666105 
L 211.76489 254.456086 
L 212.501809 254.666105 
L 212.870268 255.584935 
L 213.607187 255.147397 
L 213.975646 255.593686 
L 214.344105 255.103643 
L 214.712565 255.689945 
L 215.081024 255.374917 
L 215.449484 255.462425 
L 215.817943 256.109982 
L 216.186402 256.136234 
L 216.554862 256.32 
L 216.923321 256.810043 
L 217.29178 256.258745 
L 217.66024 257.527606 
L 218.028699 257.23008 
L 218.397159 257.125071 
L 219.134077 256.302498 
L 219.870996 256.862548 
L 220.239455 257.615114 
L 220.607915 257.606363 
L 220.976374 258.813969 
L 221.344833 258.770215 
L 221.713293 258.866474 
L 222.081752 258.638954 
L 222.450212 259.584037 
L 222.818671 259.216505 
L 223.18713 259.592788 
L 223.924049 259.907815 
L 224.292508 260.712886 
L 224.660968 260.914154 
L 225.397887 261.019163 
L 225.766346 261.089169 
L 226.134805 261.395446 
L 226.503265 261.972997 
L 226.871724 262.148012 
L 227.977102 263.233108 
L 228.345561 263.635643 
L 228.714021 263.60064 
L 229.45094 264.992012 
L 229.819399 265.237034 
L 230.187858 265.149526 
L 230.556318 265.727077 
L 231.661696 265.954597 
L 232.030155 266.085858 
L 232.398615 265.735828 
L 232.767074 265.9896 
L 233.135533 266.400886 
L 233.503993 267.625994 
L 233.872452 267.862265 
L 234.609371 267.669748 
L 234.97783 267.100948 
L 235.346289 266.960935 
L 235.714749 267.696 
L 236.083208 267.512234 
L 236.451668 268.124788 
L 237.188586 267.967274 
L 237.557046 268.159791 
L 238.293964 267.80976 
L 238.662424 267.801009 
L 239.030883 267.906018 
L 239.767802 268.501071 
L 240.136261 268.273551 
L 240.504721 268.728591 
L 240.87318 268.536074 
L 241.241639 268.798597 
L 241.610099 268.142289 
L 241.978558 268.431065 
L 242.347017 267.984775 
L 242.715477 267.958523 
L 243.083936 267.372222 
L 243.452396 267.24096 
L 243.820855 266.812172 
L 244.557774 266.768418 
L 244.926233 266.89968 
L 245.294692 266.707163 
L 245.663152 266.698412 
L 246.031611 266.418388 
L 246.76853 266.645908 
L 247.136989 266.374634 
L 248.242367 265.254535 
L 248.610827 265.525809 
L 248.979286 265.630818 
L 249.347745 265.009514 
L 249.716205 264.808246 
L 250.084664 265.044517 
L 250.821583 264.300702 
L 251.190042 264.221945 
L 252.29542 262.603052 
L 252.66388 262.708062 
L 253.032339 262.270523 
L 253.769258 260.782892 
L 254.506177 260.126585 
L 254.874636 258.93648 
L 255.243095 258.752714 
L 255.611555 258.043902 
L 255.980014 257.807631 
L 256.348473 257.072566 
L 256.716933 256.740037 
L 257.085392 256.591274 
L 257.453852 255.996222 
L 257.822311 255.672443 
L 258.19077 254.38608 
L 258.55923 254.639852 
L 258.927689 254.114806 
L 259.296148 254.001046 
L 260.401527 251.42832 
L 260.769986 251.279557 
L 261.138445 250.675754 
L 261.875364 249.94944 
L 262.243823 250.001945 
L 262.980742 248.418055 
L 263.349201 246.667902 
L 263.717661 245.932837 
L 264.08612 245.539052 
L 264.45458 244.681477 
L 264.823039 243.298855 
L 265.191498 242.695052 
L 265.559958 241.741218 
L 265.928417 241.714966 
L 267.033795 238.135902 
L 267.770714 236.814535 
L 269.244551 232.552911 
L 269.613011 230.715249 
L 270.349929 228.597563 
L 270.718389 226.926166 
L 271.086848 225.937329 
L 271.455308 225.701058 
L 272.192226 223.014572 
L 272.560686 221.710708 
L 273.297604 217.921625 
L 273.666064 216.066462 
L 274.034523 215.882695 
L 275.139901 212.63616 
L 275.508361 210.70224 
L 275.87682 210.789748 
L 276.245279 211.104775 
L 276.613739 211.096025 
L 276.982198 211.577317 
L 277.350657 212.303631 
L 278.087576 206.353108 
L 278.824495 208.610806 
L 279.192954 209.004591 
L 279.561414 207.193182 
L 279.929873 208.514548 
L 280.666792 203.517858 
L 281.403711 197.996123 
L 282.140629 200.061305 
L 282.509089 196.867274 
L 282.877548 197.558585 
L 283.246007 195.414646 
L 283.614467 192.465637 
L 283.982926 193.218203 
L 284.351385 190.076677 
L 284.719845 188.142757 
L 285.088304 189.227852 
L 285.456764 186.707631 
L 285.825223 186.917649 
L 287.29906 177.878105 
L 288.772898 169.63488 
L 289.141357 172.015089 
L 289.878276 166.983397 
L 290.246735 166.265834 
L 290.983654 162.756775 
L 291.352113 165.714535 
L 291.720573 164.778203 
L 292.089032 163.203065 
L 292.825951 158.810178 
L 293.19441 160.087791 
L 293.56287 158.022609 
L 293.931329 159.011446 
L 294.299788 159.448985 
L 294.668248 155.616148 
L 295.036707 153.174683 
L 295.773626 145.552763 
L 296.510545 151.240763 
L 297.615923 150.391938 
L 297.984382 150.654462 
L 298.352841 148.326757 
L 298.721301 147.390425 
L 299.08976 146.935385 
L 299.826679 146.935385 
L 300.563598 140.302302 
L 300.932057 140.302302 
L 301.300516 136.977009 
L 302.037435 136.977009 
L 302.405895 133.887988 
L 303.142813 133.887988 
L 303.511273 130.825218 
L 303.879732 130.825218 
L 304.248191 127.849957 
L 307.195866 127.849957 
L 307.564326 124.288394 
L 309.406623 124.288394 
L 309.775082 120.674326 
L 311.248919 120.674326 
L 311.617379 118.049095 
L 311.985838 118.049095 
L 312.354297 115.677637 
L 312.722757 112.063569 
L 314.196594 112.063569 
L 316.038891 96.968492 
L 316.77581 94.430769 
L 316.77581 94.430769 
" clip-path="url(#p3210c490f5)" style="fill: none; stroke: #000080; stroke-width: 1.5; stroke-linecap: square"/>
   </g>
   <g id="line2d_16">
    <path d="M 55.925 94.430769 
L 460.825 94.430769 
" clip-path="url(#p3210c490f5)" style="fill: none; stroke-dasharray: 5.55,2.4; stroke-dashoffset: 0; stroke: #008000; stroke-width: 1.5"/>
   </g>
   <g id="patch_3">
    <path d="M 55.925 313.2 
L 55.925 28.8 
" style="fill: none; stroke: #000000; stroke-width: 0.8; stroke-linejoin: miter; stroke-linecap: square"/>
   </g>
   <g id="patch_4">
    <path d="M 460.825 313.2 
L 460.825 28.8 
" style="fill: none; stroke: #000000; stroke-width: 0.8; stroke-linejoin: miter; stroke-linecap: square"/>
   </g>
   <g id="patch_5">
    <path d="M 55.925 313.2 
L 460.825 313.2 
" style="fill: none; stroke: #000000; stroke-width: 0.8; stroke-linejoin: miter; stroke-linecap: square"/>
   </g>
   <g id="patch_6">
    <path d="M 55.925 28.8 
L 460.825 28.8 
" style="fill: none; stroke: #000000; stroke-width: 0.8; stroke-linejoin: miter; stroke-linecap: square"/>
   </g>
   <g id="text_16">
    <!-- Training process for the best performing model -->
    <g transform="translate(81.924609 22.8)scale(0.15 -0.15)">
     <defs>
      <path id="DejaVuSans-54" d="M -19 4666 
L 3928 4666 
L 3928 4134 
L 2272 4134 
L 2272 0 
L 1638 0 
L 1638 4134 
L -19 4134 
L -19 4666 
z
" transform="scale(0.015625)"/>
      <path id="DejaVuSans-61" d="M 2194 1759 
Q 1497 1759 1228 1600 
Q 959 1441 959 1056 
Q 959 750 1161 570 
Q 1363 391 1709 391 
Q 2188 391 2477 730 
Q 2766 1069 2766 1631 
L 2766 1759 
L 2194 1759 
z
M 3341 1997 
L 3341 0 
L 2766 0 
L 2766 531 
Q 2569 213 2275 61 
Q 1981 -91 1556 -91 
Q 1019 -91 701 211 
Q 384 513 384 1019 
Q 384 1609 779 1909 
Q 1175 2209 1959 2209 
L 2766 2209 
L 2766 2266 
Q 2766 2663 2505 2880 
Q 2244 3097 1772 3097 
Q 1472 3097 1187 3025 
Q 903 2953 641 2809 
L 641 3341 
Q 956 3463 1253 3523 
Q 1550 3584 1831 3584 
Q 2591 3584 2966 3190 
Q 3341 2797 3341 1997 
z
" transform="scale(0.015625)"/>
      <path id="DejaVuSans-6e" d="M 3513 2113 
L 3513 0 
L 2938 0 
L 2938 2094 
Q 2938 2591 2744 2837 
Q 2550 3084 2163 3084 
Q 1697 3084 1428 2787 
Q 1159 2491 1159 1978 
L 1159 0 
L 581 0 
L 581 3500 
L 1159 3500 
L 1159 2956 
Q 1366 3272 1645 3428 
Q 1925 3584 2291 3584 
Q 2894 3584 3203 3211 
Q 3513 2838 3513 2113 
z
" transform="scale(0.015625)"/>
      <path id="DejaVuSans-67" d="M 2906 1791 
Q 2906 2416 2648 2759 
Q 2391 3103 1925 3103 
Q 1463 3103 1205 2759 
Q 947 2416 947 1791 
Q 947 1169 1205 825 
Q 1463 481 1925 481 
Q 2391 481 2648 825 
Q 2906 1169 2906 1791 
z
M 3481 434 
Q 3481 -459 3084 -895 
Q 2688 -1331 1869 -1331 
Q 1566 -1331 1297 -1286 
Q 1028 -1241 775 -1147 
L 775 -588 
Q 1028 -725 1275 -790 
Q 1522 -856 1778 -856 
Q 2344 -856 2625 -561 
Q 2906 -266 2906 331 
L 2906 616 
Q 2728 306 2450 153 
Q 2172 0 1784 0 
Q 1141 0 747 490 
Q 353 981 353 1791 
Q 353 2603 747 3093 
Q 1141 3584 1784 3584 
Q 2172 3584 2450 3431 
Q 2728 3278 2906 2969 
L 2906 3500 
L 3481 3500 
L 3481 434 
z
" transform="scale(0.015625)"/>
      <path id="DejaVuSans-20" transform="scale(0.015625)"/>
      <path id="DejaVuSans-66" d="M 2375 4863 
L 2375 4384 
L 1825 4384 
Q 1516 4384 1395 4259 
Q 1275 4134 1275 3809 
L 1275 3500 
L 2222 3500 
L 2222 3053 
L 1275 3053 
L 1275 0 
L 697 0 
L 697 3053 
L 147 3053 
L 147 3500 
L 697 3500 
L 697 3744 
Q 697 4328 969 4595 
Q 1241 4863 1831 4863 
L 2375 4863 
z
" transform="scale(0.015625)"/>
      <path id="DejaVuSans-74" d="M 1172 4494 
L 1172 3500 
L 2356 3500 
L 2356 3053 
L 1172 3053 
L 1172 1153 
Q 1172 725 1289 603 
Q 1406 481 1766 481 
L 2356 481 
L 2356 0 
L 1766 0 
Q 1100 0 847 248 
Q 594 497 594 1153 
L 594 3053 
L 172 3053 
L 172 3500 
L 594 3500 
L 594 4494 
L 1172 4494 
z
" transform="scale(0.015625)"/>
      <path id="DejaVuSans-68" d="M 3513 2113 
L 3513 0 
L 2938 0 
L 2938 2094 
Q 2938 2591 2744 2837 
Q 2550 3084 2163 3084 
Q 1697 3084 1428 2787 
Q 1159 2491 1159 1978 
L 1159 0 
L 581 0 
L 581 4863 
L 1159 4863 
L 1159 2956 
Q 1366 3272 1645 3428 
Q 1925 3584 2291 3584 
Q 2894 3584 3203 3211 
Q 3513 2838 3513 2113 
z
" transform="scale(0.015625)"/>
      <path id="DejaVuSans-62" d="M 3116 1747 
Q 3116 2381 2855 2742 
Q 2594 3103 2138 3103 
Q 1681 3103 1420 2742 
Q 1159 2381 1159 1747 
Q 1159 1113 1420 752 
Q 1681 391 2138 391 
Q 2594 391 2855 752 
Q 3116 1113 3116 1747 
z
M 1159 2969 
Q 1341 3281 1617 3432 
Q 1894 3584 2278 3584 
Q 2916 3584 3314 3078 
Q 3713 2572 3713 1747 
Q 3713 922 3314 415 
Q 2916 -91 2278 -91 
Q 1894 -91 1617 61 
Q 1341 213 1159 525 
L 1159 0 
L 581 0 
L 581 4863 
L 1159 4863 
L 1159 2969 
z
" transform="scale(0.015625)"/>
      <path id="DejaVuSans-6d" d="M 3328 2828 
Q 3544 3216 3844 3400 
Q 4144 3584 4550 3584 
Q 5097 3584 5394 3201 
Q 5691 2819 5691 2113 
L 5691 0 
L 5113 0 
L 5113 2094 
Q 5113 2597 4934 2840 
Q 4756 3084 4391 3084 
Q 3944 3084 3684 2787 
Q 3425 2491 3425 1978 
L 3425 0 
L 2847 0 
L 2847 2094 
Q 2847 2600 2669 2842 
Q 2491 3084 2119 3084 
Q 1678 3084 1418 2786 
Q 1159 2488 1159 1978 
L 1159 0 
L 581 0 
L 581 3500 
L 1159 3500 
L 1159 2956 
Q 1356 3278 1631 3431 
Q 1906 3584 2284 3584 
Q 2666 3584 2933 3390 
Q 3200 3197 3328 2828 
z
" transform="scale(0.015625)"/>
      <path id="DejaVuSans-6c" d="M 603 4863 
L 1178 4863 
L 1178 0 
L 603 0 
L 603 4863 
z
" transform="scale(0.015625)"/>
     </defs>
     <use xlink:href="#DejaVuSans-54"/>
     <use xlink:href="#DejaVuSans-72" x="46.333984"/>
     <use xlink:href="#DejaVuSans-61" x="87.447266"/>
     <use xlink:href="#DejaVuSans-69" x="148.726562"/>
     <use xlink:href="#DejaVuSans-6e" x="176.509766"/>
     <use xlink:href="#DejaVuSans-69" x="239.888672"/>
     <use xlink:href="#DejaVuSans-6e" x="267.671875"/>
     <use xlink:href="#DejaVuSans-67" x="331.050781"/>
     <use xlink:href="#DejaVuSans-20" x="394.527344"/>
     <use xlink:href="#DejaVuSans-70" x="426.314453"/>
     <use xlink:href="#DejaVuSans-72" x="489.791016"/>
     <use xlink:href="#DejaVuSans-6f" x="528.654297"/>
     <use xlink:href="#DejaVuSans-63" x="589.835938"/>
     <use xlink:href="#DejaVuSans-65" x="644.816406"/>
     <use xlink:href="#DejaVuSans-73" x="706.339844"/>
     <use xlink:href="#DejaVuSans-73" x="758.439453"/>
     <use xlink:href="#DejaVuSans-20" x="810.539062"/>
     <use xlink:href="#DejaVuSans-66" x="842.326172"/>
     <use xlink:href="#DejaVuSans-6f" x="877.53125"/>
     <use xlink:href="#DejaVuSans-72" x="938.712891"/>
     <use xlink:href="#DejaVuSans-20" x="979.826172"/>
     <use xlink:href="#DejaVuSans-74" x="1011.613281"/>
     <use xlink:href="#DejaVuSans-68" x="1050.822266"/>
     <use xlink:href="#DejaVuSans-65" x="1114.201172"/>
     <use xlink:href="#DejaVuSans-20" x="1175.724609"/>
     <use xlink:href="#DejaVuSans-62" x="1207.511719"/>
     <use xlink:href="#DejaVuSans-65" x="1270.988281"/>
     <use xlink:href="#DejaVuSans-73" x="1332.511719"/>
     <use xlink:href="#DejaVuSans-74" x="1384.611328"/>
     <use xlink:href="#DejaVuSans-20" x="1423.820312"/>
     <use xlink:href="#DejaVuSans-70" x="1455.607422"/>
     <use xlink:href="#DejaVuSans-65" x="1519.083984"/>
     <use xlink:href="#DejaVuSans-72" x="1580.607422"/>
     <use xlink:href="#DejaVuSans-66" x="1621.720703"/>
     <use xlink:href="#DejaVuSans-6f" x="1656.925781"/>
     <use xlink:href="#DejaVuSans-72" x="1718.107422"/>
     <use xlink:href="#DejaVuSans-6d" x="1757.470703"/>
     <use xlink:href="#DejaVuSans-69" x="1854.882812"/>
     <use xlink:href="#DejaVuSans-6e" x="1882.666016"/>
     <use xlink:href="#DejaVuSans-67" x="1946.044922"/>
     <use xlink:href="#DejaVuSans-20" x="2009.521484"/>
     <use xlink:href="#DejaVuSans-6d" x="2041.308594"/>
     <use xlink:href="#DejaVuSans-6f" x="2138.720703"/>
     <use xlink:href="#DejaVuSans-64" x="2199.902344"/>
     <use xlink:href="#DejaVuSans-65" x="2263.378906"/>
     <use xlink:href="#DejaVuSans-6c" x="2324.902344"/>
    </g>
   </g>
   <g id="legend_1">
    <g id="patch_7">
     <path d="M 293.50625 80.834375 
L 453.825 80.834375 
Q 455.825 80.834375 455.825 78.834375 
L 455.825 35.8 
Q 455.825 33.8 453.825 33.8 
L 293.50625 33.8 
Q 291.50625 33.8 291.50625 35.8 
L 291.50625 78.834375 
Q 291.50625 80.834375 293.50625 80.834375 
z
" style="fill: #ffffff; opacity: 0.8; stroke: #cccccc; stroke-linejoin: miter"/>
    </g>
    <g id="line2d_17">
     <path d="M 295.50625 41.898438 
L 305.50625 41.898438 
L 315.50625 41.898438 
" style="fill: none; stroke: #708090; stroke-width: 1.5; stroke-linecap: square"/>
    </g>
    <g id="text_17">
     <!-- Episodes score -->
     <g transform="translate(323.50625 45.398438)scale(0.1 -0.1)">
      <use xlink:href="#DejaVuSans-45"/>
      <use xlink:href="#DejaVuSans-70" x="63.183594"/>
      <use xlink:href="#DejaVuSans-69" x="126.660156"/>
      <use xlink:href="#DejaVuSans-73" x="154.443359"/>
      <use xlink:href="#DejaVuSans-6f" x="206.542969"/>
      <use xlink:href="#DejaVuSans-64" x="267.724609"/>
      <use xlink:href="#DejaVuSans-65" x="331.201172"/>
      <use xlink:href="#DejaVuSans-73" x="392.724609"/>
      <use xlink:href="#DejaVuSans-20" x="444.824219"/>
      <use xlink:href="#DejaVuSans-73" x="476.611328"/>
      <use xlink:href="#DejaVuSans-63" x="528.710938"/>
      <use xlink:href="#DejaVuSans-6f" x="583.691406"/>
      <use xlink:href="#DejaVuSans-72" x="644.873047"/>
      <use xlink:href="#DejaVuSans-65" x="683.736328"/>
     </g>
    </g>
    <g id="line2d_18">
     <path d="M 295.50625 56.576563 
L 305.50625 56.576563 
L 315.50625 56.576563 
" style="fill: none; stroke: #000080; stroke-width: 1.5; stroke-linecap: square"/>
    </g>
    <g id="text_18">
     <!-- Moving average of scores -->
     <g transform="translate(323.50625 60.076563)scale(0.1 -0.1)">
      <defs>
       <path id="DejaVuSans-4d" d="M 628 4666 
L 1569 4666 
L 2759 1491 
L 3956 4666 
L 4897 4666 
L 4897 0 
L 4281 0 
L 4281 4097 
L 3078 897 
L 2444 897 
L 1241 4097 
L 1241 0 
L 628 0 
L 628 4666 
z
" transform="scale(0.015625)"/>
       <path id="DejaVuSans-76" d="M 191 3500 
L 800 3500 
L 1894 563 
L 2988 3500 
L 3597 3500 
L 2284 0 
L 1503 0 
L 191 3500 
z
" transform="scale(0.015625)"/>
      </defs>
      <use xlink:href="#DejaVuSans-4d"/>
      <use xlink:href="#DejaVuSans-6f" x="86.279297"/>
      <use xlink:href="#DejaVuSans-76" x="147.460938"/>
      <use xlink:href="#DejaVuSans-69" x="206.640625"/>
      <use xlink:href="#DejaVuSans-6e" x="234.423828"/>
      <use xlink:href="#DejaVuSans-67" x="297.802734"/>
      <use xlink:href="#DejaVuSans-20" x="361.279297"/>
      <use xlink:href="#DejaVuSans-61" x="393.066406"/>
      <use xlink:href="#DejaVuSans-76" x="454.345703"/>
      <use xlink:href="#DejaVuSans-65" x="513.525391"/>
      <use xlink:href="#DejaVuSans-72" x="575.048828"/>
      <use xlink:href="#DejaVuSans-61" x="616.162109"/>
      <use xlink:href="#DejaVuSans-67" x="677.441406"/>
      <use xlink:href="#DejaVuSans-65" x="740.917969"/>
      <use xlink:href="#DejaVuSans-20" x="802.441406"/>
      <use xlink:href="#DejaVuSans-6f" x="834.228516"/>
      <use xlink:href="#DejaVuSans-66" x="895.410156"/>
      <use xlink:href="#DejaVuSans-20" x="930.615234"/>
      <use xlink:href="#DejaVuSans-73" x="962.402344"/>
      <use xlink:href="#DejaVuSans-63" x="1014.501953"/>
      <use xlink:href="#DejaVuSans-6f" x="1069.482422"/>
      <use xlink:href="#DejaVuSans-72" x="1130.664062"/>
      <use xlink:href="#DejaVuSans-65" x="1169.527344"/>
      <use xlink:href="#DejaVuSans-73" x="1231.050781"/>
     </g>
    </g>
    <g id="line2d_19">
     <path d="M 295.50625 71.254687 
L 305.50625 71.254687 
L 315.50625 71.254687 
" style="fill: none; stroke-dasharray: 5.55,2.4; stroke-dashoffset: 0; stroke: #008000; stroke-width: 1.5"/>
    </g>
    <g id="text_19">
     <!-- Game Solved -->
     <g transform="translate(323.50625 74.754687)scale(0.1 -0.1)">
      <defs>
       <path id="DejaVuSans-47" d="M 3809 666 
L 3809 1919 
L 2778 1919 
L 2778 2438 
L 4434 2438 
L 4434 434 
Q 4069 175 3628 42 
Q 3188 -91 2688 -91 
Q 1594 -91 976 548 
Q 359 1188 359 2328 
Q 359 3472 976 4111 
Q 1594 4750 2688 4750 
Q 3144 4750 3555 4637 
Q 3966 4525 4313 4306 
L 4313 3634 
Q 3963 3931 3569 4081 
Q 3175 4231 2741 4231 
Q 1884 4231 1454 3753 
Q 1025 3275 1025 2328 
Q 1025 1384 1454 906 
Q 1884 428 2741 428 
Q 3075 428 3337 486 
Q 3600 544 3809 666 
z
" transform="scale(0.015625)"/>
      </defs>
      <use xlink:href="#DejaVuSans-47"/>
      <use xlink:href="#DejaVuSans-61" x="77.490234"/>
      <use xlink:href="#DejaVuSans-6d" x="138.769531"/>
      <use xlink:href="#DejaVuSans-65" x="236.181641"/>
      <use xlink:href="#DejaVuSans-20" x="297.705078"/>
      <use xlink:href="#DejaVuSans-53" x="329.492188"/>
      <use xlink:href="#DejaVuSans-6f" x="392.96875"/>
      <use xlink:href="#DejaVuSans-6c" x="454.150391"/>
      <use xlink:href="#DejaVuSans-76" x="481.933594"/>
      <use xlink:href="#DejaVuSans-65" x="541.113281"/>
      <use xlink:href="#DejaVuSans-64" x="602.636719"/>
     </g>
    </g>
   </g>
  </g>
  <g id="axes_2">
   <g id="matplotlib.axis_3">
    <g id="ytick_8">
     <g id="line2d_20">
      <defs>
       <path id="ma5da60ae15" d="M 0 0 
L 3.5 0 
" style="stroke: #000000; stroke-width: 0.8"/>
      </defs>
      <g>
       <use xlink:href="#ma5da60ae15" x="460.825" y="300.356157" style="stroke: #000000; stroke-width: 0.8"/>
      </g>
     </g>
     <g id="text_20">
      <!-- 0 -->
      <g transform="translate(467.825 304.155376)scale(0.1 -0.1)">
       <use xlink:href="#DejaVuSans-30"/>
      </g>
     </g>
    </g>
    <g id="ytick_9">
     <g id="line2d_21">
      <g>
       <use xlink:href="#ma5da60ae15" x="460.825" y="248.63038" style="stroke: #000000; stroke-width: 0.8"/>
      </g>
     </g>
     <g id="text_21">
      <!-- 1 -->
      <g transform="translate(467.825 252.429599)scale(0.1 -0.1)">
       <use xlink:href="#DejaVuSans-31"/>
      </g>
     </g>
    </g>
    <g id="ytick_10">
     <g id="line2d_22">
      <g>
       <use xlink:href="#ma5da60ae15" x="460.825" y="196.904603" style="stroke: #000000; stroke-width: 0.8"/>
      </g>
     </g>
     <g id="text_22">
      <!-- 2 -->
      <g transform="translate(467.825 200.703822)scale(0.1 -0.1)">
       <use xlink:href="#DejaVuSans-32"/>
      </g>
     </g>
    </g>
    <g id="ytick_11">
     <g id="line2d_23">
      <g>
       <use xlink:href="#ma5da60ae15" x="460.825" y="145.178827" style="stroke: #000000; stroke-width: 0.8"/>
      </g>
     </g>
     <g id="text_23">
      <!-- 3 -->
      <g transform="translate(467.825 148.978045)scale(0.1 -0.1)">
       <use xlink:href="#DejaVuSans-33"/>
      </g>
     </g>
    </g>
    <g id="ytick_12">
     <g id="line2d_24">
      <g>
       <use xlink:href="#ma5da60ae15" x="460.825" y="93.45305" style="stroke: #000000; stroke-width: 0.8"/>
      </g>
     </g>
     <g id="text_24">
      <!-- 4 -->
      <g transform="translate(467.825 97.252268)scale(0.1 -0.1)">
       <use xlink:href="#DejaVuSans-34"/>
      </g>
     </g>
    </g>
    <g id="ytick_13">
     <g id="line2d_25">
      <g>
       <use xlink:href="#ma5da60ae15" x="460.825" y="41.727273" style="stroke: #000000; stroke-width: 0.8"/>
      </g>
     </g>
     <g id="text_25">
      <!-- 5 -->
      <g transform="translate(467.825 45.526491)scale(0.1 -0.1)">
       <use xlink:href="#DejaVuSans-35"/>
      </g>
     </g>
    </g>
    <g id="text_26">
     <!-- Temperature -->
     <g transform="translate(489.585156 218.504297)rotate(-90)scale(0.15 -0.15)">
      <defs>
       <path id="DejaVuSans-75" d="M 544 1381 
L 544 3500 
L 1119 3500 
L 1119 1403 
Q 1119 906 1312 657 
Q 1506 409 1894 409 
Q 2359 409 2629 706 
Q 2900 1003 2900 1516 
L 2900 3500 
L 3475 3500 
L 3475 0 
L 2900 0 
L 2900 538 
Q 2691 219 2414 64 
Q 2138 -91 1772 -91 
Q 1169 -91 856 284 
Q 544 659 544 1381 
z
M 1991 3584 
L 1991 3584 
z
" transform="scale(0.015625)"/>
      </defs>
      <use xlink:href="#DejaVuSans-54"/>
      <use xlink:href="#DejaVuSans-65" x="44.083984"/>
      <use xlink:href="#DejaVuSans-6d" x="105.607422"/>
      <use xlink:href="#DejaVuSans-70" x="203.019531"/>
      <use xlink:href="#DejaVuSans-65" x="266.496094"/>
      <use xlink:href="#DejaVuSans-72" x="328.019531"/>
      <use xlink:href="#DejaVuSans-61" x="369.132812"/>
      <use xlink:href="#DejaVuSans-74" x="430.412109"/>
      <use xlink:href="#DejaVuSans-75" x="469.621094"/>
      <use xlink:href="#DejaVuSans-72" x="533"/>
      <use xlink:href="#DejaVuSans-65" x="571.863281"/>
     </g>
    </g>
   </g>
   <g id="line2d_26">
    <path d="M 74.329545 41.727273 
L 77.64568 59.796179 
L 80.961814 76.602714 
L 84.277948 92.235075 
L 87.594083 106.775292 
L 90.910217 120.299669 
L 94.226351 132.879175 
L 97.542486 144.579825 
L 100.85862 155.463017 
L 104.174754 165.585863 
L 107.490889 175.001485 
L 110.807023 183.759292 
L 114.123157 191.905241 
L 117.439292 199.48208 
L 120.755426 206.529569 
L 124.07156 213.084691 
L 127.387695 219.181844 
L 130.703829 224.853024 
L 134.019963 230.127992 
L 137.704557 235.557975 
L 141.389151 240.568116 
L 145.073744 245.190878 
L 148.758338 249.456211 
L 152.442932 253.391752 
L 156.127525 257.023001 
L 160.180578 260.693942 
L 164.233631 264.053901 
L 168.286684 267.129223 
L 172.339737 269.944021 
L 176.76125 272.743467 
L 181.182762 275.285223 
L 185.972734 277.775454 
L 190.762706 280.018336 
L 195.921137 282.185254 
L 201.448028 284.251415 
L 206.974918 286.082639 
L 212.870268 287.807033 
L 219.134077 289.41153 
L 225.766346 290.887385 
L 233.135533 292.295013 
L 240.87318 293.548388 
L 249.347745 294.698674 
L 258.927689 295.766744 
L 269.613011 296.721977 
L 281.403711 297.547031 
L 295.036707 298.270409 
L 310.88046 298.880507 
L 330.040347 299.385086 
L 353.990206 299.780603 
L 385.677712 300.068067 
L 432.840511 300.253311 
L 442.420455 300.272727 
L 442.420455 300.272727 
" clip-path="url(#p3210c490f5)" style="fill: none; stroke: #ff0000; stroke-width: 1.5; stroke-linecap: square"/>
   </g>
   <g id="patch_8">
    <path d="M 55.925 313.2 
L 55.925 28.8 
" style="fill: none; stroke: #000000; stroke-width: 0.8; stroke-linejoin: miter; stroke-linecap: square"/>
   </g>
   <g id="patch_9">
    <path d="M 460.825 313.2 
L 460.825 28.8 
" style="fill: none; stroke: #000000; stroke-width: 0.8; stroke-linejoin: miter; stroke-linecap: square"/>
   </g>
   <g id="patch_10">
    <path d="M 55.925 313.2 
L 460.825 313.2 
" style="fill: none; stroke: #000000; stroke-width: 0.8; stroke-linejoin: miter; stroke-linecap: square"/>
   </g>
   <g id="patch_11">
    <path d="M 55.925 28.8 
L 460.825 28.8 
" style="fill: none; stroke: #000000; stroke-width: 0.8; stroke-linejoin: miter; stroke-linecap: square"/>
   </g>
   <g id="legend_2">
    <g id="patch_12">
     <path d="M 62.925 51.478125 
L 158.264063 51.478125 
Q 160.264063 51.478125 160.264063 49.478125 
L 160.264063 35.8 
Q 160.264063 33.8 158.264063 33.8 
L 62.925 33.8 
Q 60.925 33.8 60.925 35.8 
L 60.925 49.478125 
Q 60.925 51.478125 62.925 51.478125 
z
" style="fill: #ffffff; opacity: 0.8; stroke: #cccccc; stroke-linejoin: miter"/>
    </g>
    <g id="line2d_27">
     <path d="M 64.925 41.898438 
L 74.925 41.898438 
L 84.925 41.898438 
" style="fill: none; stroke: #ff0000; stroke-width: 1.5; stroke-linecap: square"/>
    </g>
    <g id="text_27">
     <!-- Temperature -->
     <g transform="translate(92.925 45.398438)scale(0.1 -0.1)">
      <use xlink:href="#DejaVuSans-54"/>
      <use xlink:href="#DejaVuSans-65" x="44.083984"/>
      <use xlink:href="#DejaVuSans-6d" x="105.607422"/>
      <use xlink:href="#DejaVuSans-70" x="203.019531"/>
      <use xlink:href="#DejaVuSans-65" x="266.496094"/>
      <use xlink:href="#DejaVuSans-72" x="328.019531"/>
      <use xlink:href="#DejaVuSans-61" x="369.132812"/>
      <use xlink:href="#DejaVuSans-74" x="430.412109"/>
      <use xlink:href="#DejaVuSans-75" x="469.621094"/>
      <use xlink:href="#DejaVuSans-72" x="533"/>
      <use xlink:href="#DejaVuSans-65" x="571.863281"/>
     </g>
    </g>
   </g>
  </g>
 </g>
 <defs>
  <clipPath id="p3210c490f5">
   <rect x="55.925" y="28.8" width="404.9" height="284.4"/>
  </clipPath>
 </defs>
</svg>
