<?xml version="1.0" encoding="utf-8" standalone="no"?>
<!DOCTYPE svg PUBLIC "-//W3C//DTD SVG 1.1//EN"
  "http://www.w3.org/Graphics/SVG/1.1/DTD/svg11.dtd">
<svg xmlns:xlink="http://www.w3.org/1999/xlink" width="504pt" height="360pt" viewBox="0 0 504 360" xmlns="http://www.w3.org/2000/svg" version="1.1">
 <metadata>
  <rdf:RDF xmlns:dc="http://purl.org/dc/elements/1.1/" xmlns:cc="http://creativecommons.org/ns#" xmlns:rdf="http://www.w3.org/1999/02/22-rdf-syntax-ns#">
   <cc:Work>
    <dc:type rdf:resource="http://purl.org/dc/dcmitype/StillImage"/>
    <dc:date>2022-07-28T20:50:47.652012</dc:date>
    <dc:format>image/svg+xml</dc:format>
    <dc:creator>
     <cc:Agent>
      <dc:title>Matplotlib v3.5.1, https://matplotlib.org/</dc:title>
     </cc:Agent>
    </dc:creator>
   </cc:Work>
  </rdf:RDF>
 </metadata>
 <defs>
  <style type="text/css">*{stroke-linejoin: round; stroke-linecap: butt}</style>
 </defs>
 <g id="figure_1">
  <g id="patch_1">
   <path d="M 0 360 
L 504 360 
L 504 0 
L 0 0 
L 0 360 
z
" style="fill: none"/>
  </g>
  <g id="axes_1">
   <g id="patch_2">
    <path d="M 55.925 313.2 
L 460.825 313.2 
L 460.825 28.8 
L 55.925 28.8 
z
" style="fill: #ffffff"/>
   </g>
   <g id="matplotlib.axis_1">
    <g id="xtick_1">
     <g id="line2d_1">
      <defs>
       <path id="md9b36f25e6" d="M 0 0 
L 0 3.5 
" style="stroke: #000000; stroke-width: 0.8"/>
      </defs>
      <g>
       <use xlink:href="#md9b36f25e6" x="74.329545" y="313.2" style="stroke: #000000; stroke-width: 0.8"/>
      </g>
     </g>
     <g id="text_1">
      <!-- 0 -->
      <g transform="translate(71.148295 327.798437)scale(0.1 -0.1)">
       <defs>
        <path id="DejaVuSans-30" d="M 2034 4250 
Q 1547 4250 1301 3770 
Q 1056 3291 1056 2328 
Q 1056 1369 1301 889 
Q 1547 409 2034 409 
Q 2525 409 2770 889 
Q 3016 1369 3016 2328 
Q 3016 3291 2770 3770 
Q 2525 4250 2034 4250 
z
M 2034 4750 
Q 2819 4750 3233 4129 
Q 3647 3509 3647 2328 
Q 3647 1150 3233 529 
Q 2819 -91 2034 -91 
Q 1250 -91 836 529 
Q 422 1150 422 2328 
Q 422 3509 836 4129 
Q 1250 4750 2034 4750 
z
" transform="scale(0.015625)"/>
       </defs>
       <use xlink:href="#DejaVuSans-30"/>
      </g>
     </g>
    </g>
    <g id="xtick_2">
     <g id="line2d_2">
      <g>
       <use xlink:href="#md9b36f25e6" x="148.021419" y="313.2" style="stroke: #000000; stroke-width: 0.8"/>
      </g>
     </g>
     <g id="text_2">
      <!-- 200 -->
      <g transform="translate(138.477669 327.798437)scale(0.1 -0.1)">
       <defs>
        <path id="DejaVuSans-32" d="M 1228 531 
L 3431 531 
L 3431 0 
L 469 0 
L 469 531 
Q 828 903 1448 1529 
Q 2069 2156 2228 2338 
Q 2531 2678 2651 2914 
Q 2772 3150 2772 3378 
Q 2772 3750 2511 3984 
Q 2250 4219 1831 4219 
Q 1534 4219 1204 4116 
Q 875 4013 500 3803 
L 500 4441 
Q 881 4594 1212 4672 
Q 1544 4750 1819 4750 
Q 2544 4750 2975 4387 
Q 3406 4025 3406 3419 
Q 3406 3131 3298 2873 
Q 3191 2616 2906 2266 
Q 2828 2175 2409 1742 
Q 1991 1309 1228 531 
z
" transform="scale(0.015625)"/>
       </defs>
       <use xlink:href="#DejaVuSans-32"/>
       <use xlink:href="#DejaVuSans-30" x="63.623047"/>
       <use xlink:href="#DejaVuSans-30" x="127.246094"/>
      </g>
     </g>
    </g>
    <g id="xtick_3">
     <g id="line2d_3">
      <g>
       <use xlink:href="#md9b36f25e6" x="221.713293" y="313.2" style="stroke: #000000; stroke-width: 0.8"/>
      </g>
     </g>
     <g id="text_3">
      <!-- 400 -->
      <g transform="translate(212.169543 327.798437)scale(0.1 -0.1)">
       <defs>
        <path id="DejaVuSans-34" d="M 2419 4116 
L 825 1625 
L 2419 1625 
L 2419 4116 
z
M 2253 4666 
L 3047 4666 
L 3047 1625 
L 3713 1625 
L 3713 1100 
L 3047 1100 
L 3047 0 
L 2419 0 
L 2419 1100 
L 313 1100 
L 313 1709 
L 2253 4666 
z
" transform="scale(0.015625)"/>
       </defs>
       <use xlink:href="#DejaVuSans-34"/>
       <use xlink:href="#DejaVuSans-30" x="63.623047"/>
       <use xlink:href="#DejaVuSans-30" x="127.246094"/>
      </g>
     </g>
    </g>
    <g id="xtick_4">
     <g id="line2d_4">
      <g>
       <use xlink:href="#md9b36f25e6" x="295.405167" y="313.2" style="stroke: #000000; stroke-width: 0.8"/>
      </g>
     </g>
     <g id="text_4">
      <!-- 600 -->
      <g transform="translate(285.861417 327.798437)scale(0.1 -0.1)">
       <defs>
        <path id="DejaVuSans-36" d="M 2113 2584 
Q 1688 2584 1439 2293 
Q 1191 2003 1191 1497 
Q 1191 994 1439 701 
Q 1688 409 2113 409 
Q 2538 409 2786 701 
Q 3034 994 3034 1497 
Q 3034 2003 2786 2293 
Q 2538 2584 2113 2584 
z
M 3366 4563 
L 3366 3988 
Q 3128 4100 2886 4159 
Q 2644 4219 2406 4219 
Q 1781 4219 1451 3797 
Q 1122 3375 1075 2522 
Q 1259 2794 1537 2939 
Q 1816 3084 2150 3084 
Q 2853 3084 3261 2657 
Q 3669 2231 3669 1497 
Q 3669 778 3244 343 
Q 2819 -91 2113 -91 
Q 1303 -91 875 529 
Q 447 1150 447 2328 
Q 447 3434 972 4092 
Q 1497 4750 2381 4750 
Q 2619 4750 2861 4703 
Q 3103 4656 3366 4563 
z
" transform="scale(0.015625)"/>
       </defs>
       <use xlink:href="#DejaVuSans-36"/>
       <use xlink:href="#DejaVuSans-30" x="63.623047"/>
       <use xlink:href="#DejaVuSans-30" x="127.246094"/>
      </g>
     </g>
    </g>
    <g id="xtick_5">
     <g id="line2d_5">
      <g>
       <use xlink:href="#md9b36f25e6" x="369.09704" y="313.2" style="stroke: #000000; stroke-width: 0.8"/>
      </g>
     </g>
     <g id="text_5">
      <!-- 800 -->
      <g transform="translate(359.55329 327.798437)scale(0.1 -0.1)">
       <defs>
        <path id="DejaVuSans-38" d="M 2034 2216 
Q 1584 2216 1326 1975 
Q 1069 1734 1069 1313 
Q 1069 891 1326 650 
Q 1584 409 2034 409 
Q 2484 409 2743 651 
Q 3003 894 3003 1313 
Q 3003 1734 2745 1975 
Q 2488 2216 2034 2216 
z
M 1403 2484 
Q 997 2584 770 2862 
Q 544 3141 544 3541 
Q 544 4100 942 4425 
Q 1341 4750 2034 4750 
Q 2731 4750 3128 4425 
Q 3525 4100 3525 3541 
Q 3525 3141 3298 2862 
Q 3072 2584 2669 2484 
Q 3125 2378 3379 2068 
Q 3634 1759 3634 1313 
Q 3634 634 3220 271 
Q 2806 -91 2034 -91 
Q 1263 -91 848 271 
Q 434 634 434 1313 
Q 434 1759 690 2068 
Q 947 2378 1403 2484 
z
M 1172 3481 
Q 1172 3119 1398 2916 
Q 1625 2713 2034 2713 
Q 2441 2713 2670 2916 
Q 2900 3119 2900 3481 
Q 2900 3844 2670 4047 
Q 2441 4250 2034 4250 
Q 1625 4250 1398 4047 
Q 1172 3844 1172 3481 
z
" transform="scale(0.015625)"/>
       </defs>
       <use xlink:href="#DejaVuSans-38"/>
       <use xlink:href="#DejaVuSans-30" x="63.623047"/>
       <use xlink:href="#DejaVuSans-30" x="127.246094"/>
      </g>
     </g>
    </g>
    <g id="xtick_6">
     <g id="line2d_6">
      <g>
       <use xlink:href="#md9b36f25e6" x="442.788914" y="313.2" style="stroke: #000000; stroke-width: 0.8"/>
      </g>
     </g>
     <g id="text_6">
      <!-- 1000 -->
      <g transform="translate(430.063914 327.798437)scale(0.1 -0.1)">
       <defs>
        <path id="DejaVuSans-31" d="M 794 531 
L 1825 531 
L 1825 4091 
L 703 3866 
L 703 4441 
L 1819 4666 
L 2450 4666 
L 2450 531 
L 3481 531 
L 3481 0 
L 794 0 
L 794 531 
z
" transform="scale(0.015625)"/>
       </defs>
       <use xlink:href="#DejaVuSans-31"/>
       <use xlink:href="#DejaVuSans-30" x="63.623047"/>
       <use xlink:href="#DejaVuSans-30" x="127.246094"/>
       <use xlink:href="#DejaVuSans-30" x="190.869141"/>
      </g>
     </g>
    </g>
    <g id="text_7">
     <!-- Episode -->
     <g transform="translate(228.91875 345.275781)scale(0.15 -0.15)">
      <defs>
       <path id="DejaVuSans-45" d="M 628 4666 
L 3578 4666 
L 3578 4134 
L 1259 4134 
L 1259 2753 
L 3481 2753 
L 3481 2222 
L 1259 2222 
L 1259 531 
L 3634 531 
L 3634 0 
L 628 0 
L 628 4666 
z
" transform="scale(0.015625)"/>
       <path id="DejaVuSans-70" d="M 1159 525 
L 1159 -1331 
L 581 -1331 
L 581 3500 
L 1159 3500 
L 1159 2969 
Q 1341 3281 1617 3432 
Q 1894 3584 2278 3584 
Q 2916 3584 3314 3078 
Q 3713 2572 3713 1747 
Q 3713 922 3314 415 
Q 2916 -91 2278 -91 
Q 1894 -91 1617 61 
Q 1341 213 1159 525 
z
M 3116 1747 
Q 3116 2381 2855 2742 
Q 2594 3103 2138 3103 
Q 1681 3103 1420 2742 
Q 1159 2381 1159 1747 
Q 1159 1113 1420 752 
Q 1681 391 2138 391 
Q 2594 391 2855 752 
Q 3116 1113 3116 1747 
z
" transform="scale(0.015625)"/>
       <path id="DejaVuSans-69" d="M 603 3500 
L 1178 3500 
L 1178 0 
L 603 0 
L 603 3500 
z
M 603 4863 
L 1178 4863 
L 1178 4134 
L 603 4134 
L 603 4863 
z
" transform="scale(0.015625)"/>
       <path id="DejaVuSans-73" d="M 2834 3397 
L 2834 2853 
Q 2591 2978 2328 3040 
Q 2066 3103 1784 3103 
Q 1356 3103 1142 2972 
Q 928 2841 928 2578 
Q 928 2378 1081 2264 
Q 1234 2150 1697 2047 
L 1894 2003 
Q 2506 1872 2764 1633 
Q 3022 1394 3022 966 
Q 3022 478 2636 193 
Q 2250 -91 1575 -91 
Q 1294 -91 989 -36 
Q 684 19 347 128 
L 347 722 
Q 666 556 975 473 
Q 1284 391 1588 391 
Q 1994 391 2212 530 
Q 2431 669 2431 922 
Q 2431 1156 2273 1281 
Q 2116 1406 1581 1522 
L 1381 1569 
Q 847 1681 609 1914 
Q 372 2147 372 2553 
Q 372 3047 722 3315 
Q 1072 3584 1716 3584 
Q 2034 3584 2315 3537 
Q 2597 3491 2834 3397 
z
" transform="scale(0.015625)"/>
       <path id="DejaVuSans-6f" d="M 1959 3097 
Q 1497 3097 1228 2736 
Q 959 2375 959 1747 
Q 959 1119 1226 758 
Q 1494 397 1959 397 
Q 2419 397 2687 759 
Q 2956 1122 2956 1747 
Q 2956 2369 2687 2733 
Q 2419 3097 1959 3097 
z
M 1959 3584 
Q 2709 3584 3137 3096 
Q 3566 2609 3566 1747 
Q 3566 888 3137 398 
Q 2709 -91 1959 -91 
Q 1206 -91 779 398 
Q 353 888 353 1747 
Q 353 2609 779 3096 
Q 1206 3584 1959 3584 
z
" transform="scale(0.015625)"/>
       <path id="DejaVuSans-64" d="M 2906 2969 
L 2906 4863 
L 3481 4863 
L 3481 0 
L 2906 0 
L 2906 525 
Q 2725 213 2448 61 
Q 2172 -91 1784 -91 
Q 1150 -91 751 415 
Q 353 922 353 1747 
Q 353 2572 751 3078 
Q 1150 3584 1784 3584 
Q 2172 3584 2448 3432 
Q 2725 3281 2906 2969 
z
M 947 1747 
Q 947 1113 1208 752 
Q 1469 391 1925 391 
Q 2381 391 2643 752 
Q 2906 1113 2906 1747 
Q 2906 2381 2643 2742 
Q 2381 3103 1925 3103 
Q 1469 3103 1208 2742 
Q 947 2381 947 1747 
z
" transform="scale(0.015625)"/>
       <path id="DejaVuSans-65" d="M 3597 1894 
L 3597 1613 
L 953 1613 
Q 991 1019 1311 708 
Q 1631 397 2203 397 
Q 2534 397 2845 478 
Q 3156 559 3463 722 
L 3463 178 
Q 3153 47 2828 -22 
Q 2503 -91 2169 -91 
Q 1331 -91 842 396 
Q 353 884 353 1716 
Q 353 2575 817 3079 
Q 1281 3584 2069 3584 
Q 2775 3584 3186 3129 
Q 3597 2675 3597 1894 
z
M 3022 2063 
Q 3016 2534 2758 2815 
Q 2500 3097 2075 3097 
Q 1594 3097 1305 2825 
Q 1016 2553 972 2059 
L 3022 2063 
z
" transform="scale(0.015625)"/>
      </defs>
      <use xlink:href="#DejaVuSans-45"/>
      <use xlink:href="#DejaVuSans-70" x="63.183594"/>
      <use xlink:href="#DejaVuSans-69" x="126.660156"/>
      <use xlink:href="#DejaVuSans-73" x="154.443359"/>
      <use xlink:href="#DejaVuSans-6f" x="206.542969"/>
      <use xlink:href="#DejaVuSans-64" x="267.724609"/>
      <use xlink:href="#DejaVuSans-65" x="331.201172"/>
     </g>
    </g>
   </g>
   <g id="matplotlib.axis_2">
    <g id="ytick_1">
     <g id="line2d_7">
      <defs>
       <path id="m394ff92a8a" d="M 0 0 
L -3.5 0 
" style="stroke: #000000; stroke-width: 0.8"/>
      </defs>
      <g>
       <use xlink:href="#m394ff92a8a" x="55.925" y="313.2" style="stroke: #000000; stroke-width: 0.8"/>
      </g>
     </g>
     <g id="text_8">
      <!-- 0 -->
      <g transform="translate(42.5625 316.999219)scale(0.1 -0.1)">
       <use xlink:href="#DejaVuSans-30"/>
      </g>
     </g>
    </g>
    <g id="ytick_2">
     <g id="line2d_8">
      <g>
       <use xlink:href="#m394ff92a8a" x="55.925" y="269.446154" style="stroke: #000000; stroke-width: 0.8"/>
      </g>
     </g>
     <g id="text_9">
      <!-- 100 -->
      <g transform="translate(29.8375 273.245373)scale(0.1 -0.1)">
       <use xlink:href="#DejaVuSans-31"/>
       <use xlink:href="#DejaVuSans-30" x="63.623047"/>
       <use xlink:href="#DejaVuSans-30" x="127.246094"/>
      </g>
     </g>
    </g>
    <g id="ytick_3">
     <g id="line2d_9">
      <g>
       <use xlink:href="#m394ff92a8a" x="55.925" y="225.692308" style="stroke: #000000; stroke-width: 0.8"/>
      </g>
     </g>
     <g id="text_10">
      <!-- 200 -->
      <g transform="translate(29.8375 229.491526)scale(0.1 -0.1)">
       <use xlink:href="#DejaVuSans-32"/>
       <use xlink:href="#DejaVuSans-30" x="63.623047"/>
       <use xlink:href="#DejaVuSans-30" x="127.246094"/>
      </g>
     </g>
    </g>
    <g id="ytick_4">
     <g id="line2d_10">
      <g>
       <use xlink:href="#m394ff92a8a" x="55.925" y="181.938462" style="stroke: #000000; stroke-width: 0.8"/>
      </g>
     </g>
     <g id="text_11">
      <!-- 300 -->
      <g transform="translate(29.8375 185.73768)scale(0.1 -0.1)">
       <defs>
        <path id="DejaVuSans-33" d="M 2597 2516 
Q 3050 2419 3304 2112 
Q 3559 1806 3559 1356 
Q 3559 666 3084 287 
Q 2609 -91 1734 -91 
Q 1441 -91 1130 -33 
Q 819 25 488 141 
L 488 750 
Q 750 597 1062 519 
Q 1375 441 1716 441 
Q 2309 441 2620 675 
Q 2931 909 2931 1356 
Q 2931 1769 2642 2001 
Q 2353 2234 1838 2234 
L 1294 2234 
L 1294 2753 
L 1863 2753 
Q 2328 2753 2575 2939 
Q 2822 3125 2822 3475 
Q 2822 3834 2567 4026 
Q 2313 4219 1838 4219 
Q 1578 4219 1281 4162 
Q 984 4106 628 3988 
L 628 4550 
Q 988 4650 1302 4700 
Q 1616 4750 1894 4750 
Q 2613 4750 3031 4423 
Q 3450 4097 3450 3541 
Q 3450 3153 3228 2886 
Q 3006 2619 2597 2516 
z
" transform="scale(0.015625)"/>
       </defs>
       <use xlink:href="#DejaVuSans-33"/>
       <use xlink:href="#DejaVuSans-30" x="63.623047"/>
       <use xlink:href="#DejaVuSans-30" x="127.246094"/>
      </g>
     </g>
    </g>
    <g id="ytick_5">
     <g id="line2d_11">
      <g>
       <use xlink:href="#m394ff92a8a" x="55.925" y="138.184615" style="stroke: #000000; stroke-width: 0.8"/>
      </g>
     </g>
     <g id="text_12">
      <!-- 400 -->
      <g transform="translate(29.8375 141.983834)scale(0.1 -0.1)">
       <use xlink:href="#DejaVuSans-34"/>
       <use xlink:href="#DejaVuSans-30" x="63.623047"/>
       <use xlink:href="#DejaVuSans-30" x="127.246094"/>
      </g>
     </g>
    </g>
    <g id="ytick_6">
     <g id="line2d_12">
      <g>
       <use xlink:href="#m394ff92a8a" x="55.925" y="94.430769" style="stroke: #000000; stroke-width: 0.8"/>
      </g>
     </g>
     <g id="text_13">
      <!-- 500 -->
      <g transform="translate(29.8375 98.229988)scale(0.1 -0.1)">
       <defs>
        <path id="DejaVuSans-35" d="M 691 4666 
L 3169 4666 
L 3169 4134 
L 1269 4134 
L 1269 2991 
Q 1406 3038 1543 3061 
Q 1681 3084 1819 3084 
Q 2600 3084 3056 2656 
Q 3513 2228 3513 1497 
Q 3513 744 3044 326 
Q 2575 -91 1722 -91 
Q 1428 -91 1123 -41 
Q 819 9 494 109 
L 494 744 
Q 775 591 1075 516 
Q 1375 441 1709 441 
Q 2250 441 2565 725 
Q 2881 1009 2881 1497 
Q 2881 1984 2565 2268 
Q 2250 2553 1709 2553 
Q 1456 2553 1204 2497 
Q 953 2441 691 2322 
L 691 4666 
z
" transform="scale(0.015625)"/>
       </defs>
       <use xlink:href="#DejaVuSans-35"/>
       <use xlink:href="#DejaVuSans-30" x="63.623047"/>
       <use xlink:href="#DejaVuSans-30" x="127.246094"/>
      </g>
     </g>
    </g>
    <g id="ytick_7">
     <g id="line2d_13">
      <g>
       <use xlink:href="#m394ff92a8a" x="55.925" y="50.676923" style="stroke: #000000; stroke-width: 0.8"/>
      </g>
     </g>
     <g id="text_14">
      <!-- 600 -->
      <g transform="translate(29.8375 54.476142)scale(0.1 -0.1)">
       <use xlink:href="#DejaVuSans-36"/>
       <use xlink:href="#DejaVuSans-30" x="63.623047"/>
       <use xlink:href="#DejaVuSans-30" x="127.246094"/>
      </g>
     </g>
    </g>
    <g id="text_15">
     <!-- Score -->
     <g transform="translate(22.717969 192.003516)rotate(-90)scale(0.15 -0.15)">
      <defs>
       <path id="DejaVuSans-53" d="M 3425 4513 
L 3425 3897 
Q 3066 4069 2747 4153 
Q 2428 4238 2131 4238 
Q 1616 4238 1336 4038 
Q 1056 3838 1056 3469 
Q 1056 3159 1242 3001 
Q 1428 2844 1947 2747 
L 2328 2669 
Q 3034 2534 3370 2195 
Q 3706 1856 3706 1288 
Q 3706 609 3251 259 
Q 2797 -91 1919 -91 
Q 1588 -91 1214 -16 
Q 841 59 441 206 
L 441 856 
Q 825 641 1194 531 
Q 1563 422 1919 422 
Q 2459 422 2753 634 
Q 3047 847 3047 1241 
Q 3047 1584 2836 1778 
Q 2625 1972 2144 2069 
L 1759 2144 
Q 1053 2284 737 2584 
Q 422 2884 422 3419 
Q 422 4038 858 4394 
Q 1294 4750 2059 4750 
Q 2388 4750 2728 4690 
Q 3069 4631 3425 4513 
z
" transform="scale(0.015625)"/>
       <path id="DejaVuSans-63" d="M 3122 3366 
L 3122 2828 
Q 2878 2963 2633 3030 
Q 2388 3097 2138 3097 
Q 1578 3097 1268 2742 
Q 959 2388 959 1747 
Q 959 1106 1268 751 
Q 1578 397 2138 397 
Q 2388 397 2633 464 
Q 2878 531 3122 666 
L 3122 134 
Q 2881 22 2623 -34 
Q 2366 -91 2075 -91 
Q 1284 -91 818 406 
Q 353 903 353 1747 
Q 353 2603 823 3093 
Q 1294 3584 2113 3584 
Q 2378 3584 2631 3529 
Q 2884 3475 3122 3366 
z
" transform="scale(0.015625)"/>
       <path id="DejaVuSans-72" d="M 2631 2963 
Q 2534 3019 2420 3045 
Q 2306 3072 2169 3072 
Q 1681 3072 1420 2755 
Q 1159 2438 1159 1844 
L 1159 0 
L 581 0 
L 581 3500 
L 1159 3500 
L 1159 2956 
Q 1341 3275 1631 3429 
Q 1922 3584 2338 3584 
Q 2397 3584 2469 3576 
Q 2541 3569 2628 3553 
L 2631 2963 
z
" transform="scale(0.015625)"/>
      </defs>
      <use xlink:href="#DejaVuSans-53"/>
      <use xlink:href="#DejaVuSans-63" x="63.476562"/>
      <use xlink:href="#DejaVuSans-6f" x="118.457031"/>
      <use xlink:href="#DejaVuSans-72" x="179.638672"/>
      <use xlink:href="#DejaVuSans-65" x="218.501953"/>
     </g>
    </g>
   </g>
   <g id="line2d_14">
    <path d="M 74.329545 302.699077 
L 74.698005 302.699077 
L 75.066464 303.574154 
L 75.434924 306.199385 
L 75.803383 307.949538 
L 76.171842 302.699077 
L 76.540302 307.512 
L 76.908761 284.322462 
L 77.27722 307.949538 
L 77.64568 304.886769 
L 78.014139 304.886769 
L 78.382599 303.574154 
L 78.751058 308.824615 
L 79.119517 306.199385 
L 79.487977 300.073846 
L 79.856436 306.636923 
L 80.224895 302.261538 
L 80.593355 304.011692 
L 80.961814 309.262154 
L 81.330273 297.011077 
L 81.698733 307.512 
L 82.435652 291.760615 
L 82.804111 307.512 
L 83.17257 308.387077 
L 83.54103 307.074462 
L 83.909489 295.698462 
L 84.277948 289.572923 
L 84.646408 308.387077 
L 85.014867 296.136 
L 85.383327 308.387077 
L 85.751786 297.448615 
L 86.488705 304.011692 
L 86.857164 304.886769 
L 87.225623 309.262154 
L 87.594083 303.574154 
L 87.962542 303.574154 
L 88.331001 297.011077 
L 88.699461 309.262154 
L 89.06792 302.261538 
L 89.43638 306.199385 
L 89.804839 307.949538 
L 90.173298 305.324308 
L 90.541758 304.886769 
L 90.910217 296.573538 
L 91.647136 308.387077 
L 92.015595 295.260923 
L 92.384055 296.573538 
L 92.752514 303.136615 
L 93.120973 291.323077 
L 93.489433 307.074462 
L 93.857892 307.949538 
L 94.226351 309.262154 
L 94.594811 299.198769 
L 94.96327 301.824 
L 95.331729 308.824615 
L 95.700189 304.011692 
L 96.068648 306.636923 
L 96.437108 302.261538 
L 96.805567 303.574154 
L 97.174026 308.387077 
L 97.542486 297.886154 
L 98.279404 304.449231 
L 98.647864 304.449231 
L 99.016323 294.823385 
L 99.384783 309.262154 
L 99.753242 286.947692 
L 100.121701 308.387077 
L 100.490161 308.387077 
L 100.85862 307.949538 
L 101.227079 299.198769 
L 101.595539 304.011692 
L 101.963998 306.199385 
L 102.332457 285.635077 
L 102.700917 303.574154 
L 103.069376 304.886769 
L 103.437836 305.761846 
L 103.806295 303.574154 
L 104.174754 306.199385 
L 104.543214 300.073846 
L 104.911673 306.636923 
L 105.280132 302.699077 
L 105.648592 294.823385 
L 106.017051 307.512 
L 106.385511 306.199385 
L 106.75397 305.761846 
L 107.122429 299.198769 
L 107.490889 300.948923 
L 107.859348 274.259077 
L 108.227807 307.512 
L 108.596267 305.324308 
L 108.964726 296.136 
L 109.333185 305.761846 
L 109.701645 301.386462 
L 110.070104 301.386462 
L 110.438564 306.199385 
L 110.807023 293.510769 
L 111.175482 304.011692 
L 111.543942 300.511385 
L 111.912401 300.948923 
L 112.28086 308.387077 
L 112.64932 299.636308 
L 113.017779 295.260923 
L 113.386239 303.136615 
L 113.754698 307.512 
L 114.123157 305.324308 
L 114.491617 309.262154 
L 114.860076 308.824615 
L 115.228535 307.512 
L 115.596995 308.824615 
L 115.965454 306.199385 
L 116.333913 305.761846 
L 116.702373 306.199385 
L 117.070832 308.387077 
L 117.439292 304.449231 
L 117.807751 306.636923 
L 118.17621 301.386462 
L 118.54467 305.324308 
L 118.913129 298.323692 
L 119.281588 305.761846 
L 119.650048 302.261538 
L 120.018507 304.886769 
L 120.386967 304.011692 
L 120.755426 304.011692 
L 121.123885 307.949538 
L 121.492345 306.636923 
L 121.860804 303.136615 
L 122.229263 303.574154 
L 122.597723 282.134769 
L 122.966182 304.886769 
L 123.334641 306.199385 
L 123.703101 304.886769 
L 124.07156 304.011692 
L 124.44002 303.574154 
L 124.808479 303.574154 
L 125.176938 304.011692 
L 125.545398 304.011692 
L 125.913857 308.387077 
L 126.282316 300.948923 
L 126.650776 299.636308 
L 127.019235 305.324308 
L 127.387695 306.199385 
L 127.756154 308.824615 
L 128.124613 306.636923 
L 128.493073 297.011077 
L 128.861532 295.698462 
L 129.229991 299.198769 
L 129.598451 299.636308 
L 129.96691 286.947692 
L 130.335369 303.574154 
L 130.703829 300.511385 
L 131.072288 304.886769 
L 131.440748 302.699077 
L 131.809207 286.510154 
L 132.177666 294.385846 
L 132.546126 293.948308 
L 132.914585 305.324308 
L 133.283044 308.387077 
L 133.651504 303.136615 
L 134.019963 303.574154 
L 134.388423 307.512 
L 134.756882 307.074462 
L 135.125341 307.074462 
L 135.493801 305.324308 
L 135.86226 292.198154 
L 136.599179 307.074462 
L 136.967638 299.198769 
L 137.336097 307.949538 
L 137.704557 304.449231 
L 138.073016 304.449231 
L 138.441476 298.323692 
L 138.809935 304.886769 
L 139.178394 307.074462 
L 139.546854 302.699077 
L 139.915313 294.823385 
L 140.283772 305.324308 
L 140.652232 300.073846 
L 141.020691 305.761846 
L 141.389151 287.822769 
L 141.75761 306.636923 
L 142.494529 297.011077 
L 142.862988 300.948923 
L 143.231447 300.511385 
L 143.599907 298.323692 
L 143.968366 306.199385 
L 144.336825 307.074462 
L 144.705285 297.448615 
L 145.073744 301.386462 
L 145.442204 307.512 
L 145.810663 307.949538 
L 146.179122 286.072615 
L 146.547582 306.636923 
L 146.916041 304.011692 
L 147.2845 295.698462 
L 147.65296 297.011077 
L 148.021419 300.948923 
L 148.389879 298.761231 
L 148.758338 304.011692 
L 149.126797 302.699077 
L 149.495257 308.824615 
L 149.863716 301.386462 
L 150.232175 290.448 
L 150.600635 301.824 
L 150.969094 300.073846 
L 151.337553 307.074462 
L 151.706013 290.885538 
L 152.074472 301.386462 
L 152.442932 307.074462 
L 153.17985 289.135385 
L 153.916769 305.324308 
L 154.285228 305.761846 
L 154.653688 278.196923 
L 155.022147 302.261538 
L 155.390607 308.387077 
L 155.759066 303.574154 
L 156.127525 288.260308 
L 156.495985 307.074462 
L 157.232903 294.823385 
L 157.601363 296.573538 
L 157.969822 304.449231 
L 158.338281 285.197538 
L 158.706741 301.386462 
L 159.0752 306.636923 
L 159.44366 293.948308 
L 159.812119 294.385846 
L 160.180578 306.636923 
L 160.549038 298.323692 
L 160.917497 307.512 
L 161.285956 301.824 
L 161.654416 305.761846 
L 162.022875 307.512 
L 162.391335 294.823385 
L 162.759794 302.261538 
L 163.128253 305.761846 
L 163.496713 298.761231 
L 163.865172 306.199385 
L 164.233631 306.199385 
L 164.602091 304.449231 
L 164.97055 305.324308 
L 165.339009 290.010462 
L 165.707469 301.386462 
L 166.075928 303.136615 
L 166.444388 282.572308 
L 166.812847 305.324308 
L 167.181306 301.824 
L 167.549766 301.386462 
L 167.918225 307.512 
L 168.286684 297.448615 
L 168.655144 303.136615 
L 169.023603 297.448615 
L 169.392063 301.386462 
L 169.760522 298.761231 
L 170.128981 304.886769 
L 170.497441 259.820308 
L 170.8659 301.824 
L 171.234359 307.949538 
L 171.602819 307.512 
L 172.339737 296.573538 
L 172.708197 295.260923 
L 173.076656 296.573538 
L 173.445116 294.823385 
L 173.813575 308.387077 
L 174.182034 284.76 
L 174.550494 300.511385 
L 174.918953 290.885538 
L 175.287412 293.510769 
L 175.655872 304.449231 
L 176.024331 290.010462 
L 176.392791 280.384615 
L 176.76125 290.010462 
L 177.129709 303.136615 
L 177.498169 297.886154 
L 177.866628 300.948923 
L 178.235087 292.635692 
L 178.603547 302.699077 
L 178.972006 277.321846 
L 179.340465 296.136 
L 179.708925 297.011077 
L 180.077384 303.574154 
L 180.445844 303.574154 
L 180.814303 268.133538 
L 181.182762 303.136615 
L 181.551222 290.885538 
L 181.919681 295.698462 
L 182.28814 295.698462 
L 182.6566 302.261538 
L 183.025059 303.574154 
L 183.393519 298.761231 
L 183.761978 306.199385 
L 184.130437 270.758769 
L 184.498897 307.512 
L 184.867356 305.761846 
L 185.235815 276.009231 
L 185.604275 295.698462 
L 185.972734 276.009231 
L 186.341193 306.199385 
L 186.709653 279.947077 
L 187.078112 301.386462 
L 187.446572 298.323692 
L 187.815031 304.886769 
L 188.18349 304.011692 
L 188.55195 302.699077 
L 188.920409 278.196923 
L 189.288868 293.073231 
L 189.657328 292.198154 
L 190.025787 302.699077 
L 190.394247 294.385846 
L 190.762706 291.323077 
L 191.131165 274.259077 
L 191.499625 290.448 
L 192.236543 295.698462 
L 192.605003 295.698462 
L 192.973462 300.511385 
L 193.341921 297.011077 
L 193.710381 299.198769 
L 194.07884 298.761231 
L 194.4473 305.761846 
L 194.815759 294.385846 
L 195.184218 298.323692 
L 195.552678 295.260923 
L 195.921137 304.449231 
L 196.289596 294.823385 
L 196.658056 297.011077 
L 197.026515 300.948923 
L 197.394975 289.572923 
L 198.131893 307.074462 
L 198.868812 294.385846 
L 199.237271 287.385231 
L 199.605731 300.948923 
L 199.97419 296.573538 
L 200.342649 299.198769 
L 200.711109 289.572923 
L 201.079568 288.260308 
L 201.448028 303.574154 
L 202.184946 296.573538 
L 202.553406 300.511385 
L 202.921865 300.073846 
L 203.290324 265.945846 
L 203.658784 304.011692 
L 204.027243 284.76 
L 204.395703 277.321846 
L 204.764162 300.511385 
L 205.501081 286.510154 
L 206.237999 304.886769 
L 206.606459 294.823385 
L 206.974918 301.824 
L 207.343377 300.073846 
L 207.711837 306.199385 
L 208.080296 297.011077 
L 208.448756 297.886154 
L 209.185674 275.571692 
L 209.554134 283.884923 
L 209.922593 272.508923 
L 210.291052 301.386462 
L 210.659512 280.384615 
L 211.027971 281.259692 
L 211.396431 284.322462 
L 211.76489 300.948923 
L 212.133349 282.134769 
L 212.501809 288.697846 
L 212.870268 299.636308 
L 213.238727 279.509538 
L 213.607187 297.886154 
L 213.975646 287.385231 
L 214.344105 299.198769 
L 214.712565 298.323692 
L 215.081024 267.258462 
L 215.449484 296.573538 
L 215.817943 290.010462 
L 216.186402 292.635692 
L 216.554862 299.198769 
L 216.923321 299.636308 
L 217.29178 297.448615 
L 217.66024 264.633231 
L 218.028699 292.635692 
L 218.397159 292.635692 
L 218.765618 293.510769 
L 219.134077 297.886154 
L 219.502537 285.197538 
L 219.870996 298.761231 
L 220.239455 294.823385 
L 220.607915 279.072 
L 220.976374 294.385846 
L 221.344833 288.260308 
L 221.713293 287.385231 
L 222.081752 294.385846 
L 222.450212 264.633231 
L 222.818671 299.636308 
L 223.18713 288.697846 
L 223.55559 301.824 
L 223.924049 296.136 
L 224.292508 295.260923 
L 224.660968 299.198769 
L 225.029427 298.323692 
L 225.397887 299.636308 
L 225.766346 288.697846 
L 226.134805 283.447385 
L 226.871724 303.574154 
L 227.608643 284.322462 
L 227.977102 290.010462 
L 228.345561 280.384615 
L 228.714021 295.698462 
L 229.08248 290.448 
L 229.45094 291.760615 
L 229.819399 292.635692 
L 230.187858 300.073846 
L 230.556318 293.948308 
L 230.924777 294.823385 
L 231.293236 300.073846 
L 231.661696 279.947077 
L 232.030155 295.698462 
L 232.398615 297.886154 
L 232.767074 302.261538 
L 233.872452 283.009846 
L 234.240911 296.136 
L 234.609371 298.323692 
L 234.97783 291.323077 
L 235.346289 295.698462 
L 235.714749 278.634462 
L 236.083208 298.323692 
L 236.451668 288.260308 
L 236.820127 300.073846 
L 237.188586 283.009846 
L 237.557046 300.511385 
L 237.925505 279.072 
L 238.293964 297.448615 
L 238.662424 264.633231 
L 239.030883 298.323692 
L 239.399343 298.323692 
L 239.767802 283.884923 
L 240.136261 297.448615 
L 240.504721 287.385231 
L 240.87318 291.323077 
L 241.241639 290.448 
L 241.610099 244.068923 
L 241.978558 297.886154 
L 242.715477 261.132923 
L 243.083936 260.695385 
L 243.452396 293.510769 
L 243.820855 300.511385 
L 244.189314 286.072615 
L 244.926233 296.136 
L 245.294692 262.883077 
L 245.663152 290.010462 
L 246.031611 281.259692 
L 246.400071 300.073846 
L 246.76853 232.692923 
L 247.136989 300.948923 
L 247.505449 289.135385 
L 247.873908 286.510154 
L 248.242367 286.947692 
L 248.610827 292.635692 
L 248.979286 294.823385 
L 249.347745 302.699077 
L 249.716205 226.129846 
L 250.084664 287.822769 
L 250.453124 294.823385 
L 250.821583 293.510769 
L 251.190042 293.510769 
L 251.558502 284.76 
L 251.926961 286.510154 
L 252.29542 294.385846 
L 252.66388 285.635077 
L 253.032339 265.508308 
L 253.400799 270.758769 
L 253.769258 284.76 
L 254.137717 284.322462 
L 254.506177 287.822769 
L 254.874636 279.947077 
L 255.243095 296.573538 
L 255.611555 284.322462 
L 255.980014 281.697231 
L 256.348473 268.571077 
L 256.716933 296.573538 
L 257.085392 269.008615 
L 257.453852 287.822769 
L 257.822311 290.010462 
L 258.19077 289.135385 
L 258.55923 297.011077 
L 258.927689 259.820308 
L 259.296148 272.071385 
L 259.664608 245.819077 
L 260.033067 291.760615 
L 260.401527 270.321231 
L 260.769986 257.632615 
L 261.138445 272.071385 
L 261.506905 290.885538 
L 261.875364 293.948308 
L 262.243823 281.259692 
L 262.612283 294.385846 
L 262.980742 294.823385 
L 263.349201 253.257231 
L 263.717661 294.385846 
L 264.08612 286.510154 
L 264.45458 289.135385 
L 264.823039 244.944 
L 265.191498 250.632 
L 265.559958 290.885538 
L 265.928417 283.009846 
L 266.296876 245.819077 
L 266.665336 236.630769 
L 267.033795 280.822154 
L 267.402255 287.385231 
L 267.770714 275.134154 
L 268.139173 251.944615 
L 268.876092 290.448 
L 269.244551 280.822154 
L 269.613011 277.759385 
L 269.98147 262.445538 
L 270.349929 297.011077 
L 270.718389 286.947692 
L 271.086848 263.758154 
L 271.455308 287.822769 
L 271.823767 259.382769 
L 272.192226 292.198154 
L 272.560686 263.758154 
L 272.929145 291.760615 
L 273.297604 297.011077 
L 273.666064 297.011077 
L 274.034523 276.009231 
L 274.402983 270.758769 
L 274.771442 284.76 
L 275.139901 255.882462 
L 275.508361 281.697231 
L 275.87682 219.566769 
L 276.245279 234.005538 
L 276.613739 228.755077 
L 276.982198 217.816615 
L 277.350657 262.445538 
L 277.719117 226.567385 
L 278.087576 279.509538 
L 278.456036 284.76 
L 278.824495 286.072615 
L 279.192954 231.817846 
L 279.561414 274.259077 
L 279.929873 260.695385 
L 280.298332 264.633231 
L 280.666792 283.884923 
L 281.035251 264.195692 
L 281.403711 273.384 
L 281.77217 264.195692 
L 282.140629 273.384 
L 282.509089 273.821538 
L 282.877548 252.819692 
L 283.246007 266.820923 
L 283.614467 285.635077 
L 283.982926 270.321231 
L 284.351385 269.008615 
L 284.719845 269.008615 
L 285.088304 229.630154 
L 285.456764 269.008615 
L 285.825223 280.822154 
L 286.193682 257.195077 
L 286.562142 257.632615 
L 286.930601 259.382769 
L 287.29906 250.194462 
L 287.66752 213.003692 
L 288.035979 265.508308 
L 288.404439 271.633846 
L 288.772898 275.571692 
L 289.141357 282.572308 
L 289.509817 277.759385 
L 289.878276 278.634462 
L 290.246735 253.694769 
L 290.615195 272.508923 
L 290.983654 248.881846 
L 291.352113 268.571077 
L 291.720573 272.071385 
L 292.089032 285.197538 
L 292.457492 283.884923 
L 293.19441 238.380923 
L 293.56287 280.822154 
L 293.931329 283.884923 
L 294.299788 253.694769 
L 294.668248 270.321231 
L 295.036707 277.759385 
L 295.405167 258.507692 
L 295.773626 283.009846 
L 296.142085 280.384615 
L 296.510545 260.257846 
L 297.247463 279.509538 
L 297.615923 282.134769 
L 297.984382 269.446154 
L 298.352841 251.069538 
L 298.721301 261.132923 
L 299.08976 263.320615 
L 299.45822 279.947077 
L 299.826679 279.947077 
L 300.195138 283.884923 
L 300.563598 270.758769 
L 300.932057 265.070769 
L 301.300516 264.633231 
L 301.668976 283.884923 
L 302.037435 267.258462 
L 302.405895 284.76 
L 302.774354 270.321231 
L 303.142813 288.697846 
L 303.511273 280.384615 
L 303.879732 290.010462 
L 304.248191 275.134154 
L 304.616651 279.509538 
L 304.98511 272.946462 
L 305.353569 257.632615 
L 305.722029 273.384 
L 306.090488 279.072 
L 306.458948 266.383385 
L 306.827407 281.259692 
L 307.195866 269.446154 
L 307.564326 275.134154 
L 307.932785 272.071385 
L 308.301244 278.196923 
L 308.669704 272.508923 
L 309.038163 274.696615 
L 309.406623 262.883077 
L 309.775082 279.947077 
L 310.143541 273.384 
L 310.88046 273.384 
L 311.248919 272.946462 
L 311.617379 288.260308 
L 311.985838 272.946462 
L 312.354297 274.696615 
L 312.722757 283.447385 
L 313.091216 283.009846 
L 313.459676 262.445538 
L 313.828135 274.696615 
L 314.196594 291.323077 
L 314.565054 291.323077 
L 314.933513 288.260308 
L 315.301972 274.259077 
L 315.670432 265.508308 
L 316.038891 272.071385 
L 316.407351 273.384 
L 316.77581 265.945846 
L 317.144269 264.195692 
L 317.512729 269.446154 
L 317.881188 269.446154 
L 318.249647 266.820923 
L 318.618107 283.009846 
L 318.986566 286.510154 
L 319.355025 286.947692 
L 319.723485 276.884308 
L 320.091944 271.633846 
L 320.460404 259.382769 
L 320.828863 274.696615 
L 321.565782 286.072615 
L 322.3027 299.636308 
L 322.67116 276.009231 
L 323.039619 284.322462 
L 323.408079 285.197538 
L 323.776538 274.259077 
L 324.144997 267.696 
L 324.513457 280.384615 
L 324.881916 281.259692 
L 325.250375 287.385231 
L 325.618835 276.446769 
L 325.987294 276.884308 
L 326.355753 279.072 
L 326.724213 273.384 
L 327.092672 286.072615 
L 327.461132 279.509538 
L 327.829591 278.634462 
L 328.19805 279.072 
L 328.56651 273.821538 
L 328.934969 283.884923 
L 329.303428 286.947692 
L 329.671888 293.073231 
L 330.040347 282.572308 
L 330.408807 283.447385 
L 330.777266 277.321846 
L 331.145725 279.509538 
L 331.514185 283.009846 
L 331.882644 279.509538 
L 332.251103 269.008615 
L 332.619563 280.384615 
L 332.988022 274.696615 
L 333.356481 279.947077 
L 333.724941 294.385846 
L 334.0934 262.008 
L 334.46186 272.508923 
L 334.830319 264.195692 
L 335.198778 265.945846 
L 335.567238 257.632615 
L 335.935697 263.758154 
L 336.304156 293.948308 
L 336.672616 267.696 
L 337.041075 263.758154 
L 337.409535 273.384 
L 338.146453 280.384615 
L 338.514913 274.696615 
L 338.883372 276.446769 
L 339.251831 276.446769 
L 339.620291 296.136 
L 339.98875 293.948308 
L 340.357209 298.323692 
L 340.725669 297.886154 
L 341.094128 299.198769 
L 341.462588 294.385846 
L 341.831047 295.698462 
L 342.199506 300.948923 
L 342.567966 300.511385 
L 342.936425 299.636308 
L 343.304884 296.573538 
L 343.673344 295.260923 
L 344.041803 300.073846 
L 344.410263 299.636308 
L 344.778722 303.574154 
L 345.147181 303.574154 
L 345.515641 299.198769 
L 345.8841 297.448615 
L 346.252559 300.948923 
L 346.621019 300.511385 
L 346.989478 292.198154 
L 347.357937 297.886154 
L 347.726397 300.948923 
L 348.094856 300.511385 
L 348.463316 301.386462 
L 348.831775 300.073846 
L 349.200234 299.198769 
L 349.568694 300.073846 
L 349.937153 295.260923 
L 350.305612 302.261538 
L 350.674072 300.511385 
L 351.042531 300.511385 
L 351.410991 302.699077 
L 351.77945 298.323692 
L 352.147909 304.011692 
L 352.516369 299.198769 
L 352.884828 299.198769 
L 353.253287 295.698462 
L 353.621747 300.948923 
L 353.990206 301.386462 
L 354.358665 300.073846 
L 354.727125 302.699077 
L 355.095584 297.448615 
L 355.464044 302.261538 
L 355.832503 294.385846 
L 356.569422 301.386462 
L 356.937881 299.198769 
L 357.30634 294.385846 
L 357.6748 300.511385 
L 358.043259 297.886154 
L 358.411719 297.448615 
L 358.780178 286.947692 
L 359.148637 286.947692 
L 359.517097 293.948308 
L 359.885556 291.323077 
L 360.254015 282.134769 
L 360.622475 286.510154 
L 360.990934 285.197538 
L 361.359393 286.072615 
L 361.727853 286.072615 
L 362.096312 297.011077 
L 362.464772 297.011077 
L 362.833231 298.761231 
L 363.20169 288.260308 
L 363.57015 288.260308 
L 363.938609 299.198769 
L 364.307068 288.260308 
L 364.675528 293.948308 
L 365.043987 296.573538 
L 365.412447 297.886154 
L 365.780906 296.136 
L 366.149365 301.824 
L 366.517825 301.386462 
L 366.886284 299.198769 
L 367.254743 294.823385 
L 367.623203 297.886154 
L 367.991662 297.011077 
L 368.360121 285.197538 
L 368.728581 289.572923 
L 369.09704 290.448 
L 369.4655 293.510769 
L 369.833959 289.572923 
L 370.202418 275.571692 
L 370.570878 282.134769 
L 370.939337 290.885538 
L 371.307796 279.947077 
L 371.676256 287.385231 
L 372.044715 286.947692 
L 372.413175 286.072615 
L 372.781634 290.885538 
L 373.150093 286.510154 
L 373.518553 287.822769 
L 373.887012 291.323077 
L 374.255471 286.947692 
L 374.623931 291.323077 
L 374.99239 290.448 
L 375.360849 287.385231 
L 375.729309 297.448615 
L 376.097768 287.385231 
L 376.466228 288.697846 
L 376.834687 289.572923 
L 377.203146 281.697231 
L 377.571606 288.260308 
L 377.940065 276.446769 
L 378.308524 272.946462 
L 378.676984 286.072615 
L 379.045443 286.072615 
L 379.413903 292.635692 
L 379.782362 286.510154 
L 380.150821 289.572923 
L 380.519281 284.76 
L 380.88774 291.323077 
L 381.256199 280.384615 
L 381.624659 255.882462 
L 381.993118 285.197538 
L 382.361577 291.323077 
L 382.730037 282.572308 
L 383.098496 288.697846 
L 383.466956 262.008 
L 383.835415 283.884923 
L 384.203874 286.072615 
L 384.572334 290.448 
L 385.677712 276.446769 
L 386.046171 270.758769 
L 387.520009 291.760615 
L 387.888468 278.634462 
L 388.256927 282.572308 
L 388.625387 282.134769 
L 388.993846 280.822154 
L 389.362305 280.822154 
L 389.730765 270.758769 
L 390.099224 251.944615 
L 390.467684 279.947077 
L 390.836143 277.759385 
L 391.204602 273.384 
L 391.573062 288.697846 
L 391.941521 282.572308 
L 392.67844 265.070769 
L 393.046899 279.072 
L 393.415359 231.380308 
L 393.783818 263.758154 
L 394.152277 270.758769 
L 394.520737 269.008615 
L 394.889196 274.259077 
L 395.257655 242.318769 
L 395.626115 254.569846 
L 395.994574 244.944 
L 396.363033 252.382154 
L 396.731493 250.632 
L 397.099952 266.383385 
L 397.468412 272.071385 
L 397.836871 256.32 
L 398.20533 269.446154 
L 398.942249 259.382769 
L 399.310708 248.881846 
L 399.679168 250.194462 
L 400.047627 234.880615 
L 400.416087 258.507692 
L 400.784546 245.819077 
L 401.153005 243.631385 
L 401.521465 254.132308 
L 401.889924 253.257231 
L 402.258383 272.508923 
L 402.626843 268.571077 
L 402.995302 267.696 
L 403.363761 262.008 
L 403.732221 239.693538 
L 404.10068 243.193846 
L 404.46914 252.819692 
L 404.837599 265.508308 
L 405.206058 251.944615 
L 405.574518 251.944615 
L 405.942977 279.947077 
L 406.311436 267.258462 
L 406.679896 237.068308 
L 407.048355 256.32 
L 407.416815 244.506462 
L 407.785274 243.631385 
L 408.153733 247.131692 
L 408.522193 255.444923 
L 408.890652 249.319385 
L 409.259111 248.006769 
L 409.627571 251.069538 
L 409.99603 265.508308 
L 410.364489 265.070769 
L 410.732949 255.882462 
L 411.101408 209.065846 
L 411.469868 241.881231 
L 411.838327 236.630769 
L 412.206786 253.257231 
L 412.575246 254.569846 
L 412.943705 251.507077 
L 413.312164 267.696 
L 413.680624 237.505846 
L 414.417543 255.444923 
L 414.786002 247.131692 
L 415.154461 249.756923 
L 415.522921 236.630769 
L 415.89138 240.568615 
L 416.259839 249.756923 
L 416.628299 253.257231 
L 416.996758 247.569231 
L 417.365217 212.128615 
L 417.733677 244.944 
L 418.102136 234.443077 
L 418.470596 213.878769 
L 418.839055 203.815385 
L 419.207514 240.131077 
L 419.575974 212.566154 
L 419.944433 227.88 
L 420.312892 209.940923 
L 420.681352 179.313231 
L 421.049811 239.693538 
L 421.418271 244.944 
L 421.78673 224.817231 
L 422.155189 223.504615 
L 422.523649 233.568 
L 422.892108 237.505846 
L 423.260567 235.318154 
L 423.629027 251.944615 
L 423.997486 170.124923 
L 424.365945 251.069538 
L 424.734405 256.32 
L 425.102864 220.004308 
L 425.471324 223.942154 
L 425.839783 242.318769 
L 426.208242 234.443077 
L 426.576702 231.380308 
L 426.945161 222.192 
L 427.31362 227.004923 
L 427.68208 248.881846 
L 428.418999 237.505846 
L 428.787458 259.820308 
L 429.155917 262.008 
L 429.524377 251.944615 
L 430.261295 279.072 
L 430.629755 254.132308 
L 430.998214 256.757538 
L 431.366673 264.195692 
L 431.735133 277.321846 
L 432.103592 270.321231 
L 432.472052 272.071385 
L 432.840511 259.382769 
L 433.20897 276.884308 
L 433.57743 279.072 
L 433.945889 270.321231 
L 434.314348 280.384615 
L 434.682808 279.947077 
L 435.051267 277.321846 
L 435.419727 271.196308 
L 435.788186 276.884308 
L 436.525105 282.572308 
L 436.893564 278.634462 
L 437.262023 283.447385 
L 437.630483 278.196923 
L 437.998942 282.134769 
L 438.367401 283.447385 
L 438.735861 281.259692 
L 439.10432 284.76 
L 439.47278 283.009846 
L 439.841239 279.072 
L 440.209698 278.634462 
L 440.578158 283.884923 
L 440.946617 283.884923 
L 441.315076 297.011077 
L 441.683536 283.447385 
L 442.051995 282.134769 
L 442.420455 278.196923 
L 442.420455 278.196923 
" clip-path="url(#pc89709e043)" style="fill: none; stroke: #708090; stroke-width: 1.5; stroke-linecap: square"/>
   </g>
   <g id="line2d_15">
    <path d="M 74.329545 302.979102 
L 74.698005 302.987852 
L 75.066464 302.760332 
L 76.171842 302.891594 
L 76.908761 302.707828 
L 77.27722 303.197871 
L 77.64568 303.119114 
L 78.382599 303.101612 
L 79.119517 303.092862 
L 79.487977 302.926597 
L 80.593355 302.944098 
L 80.961814 302.760332 
L 81.330273 302.760332 
L 81.698733 302.559065 
L 82.067192 302.576566 
L 82.435652 302.742831 
L 82.804111 303.066609 
L 83.54103 302.812837 
L 83.909489 302.795335 
L 84.277948 302.594068 
L 84.646408 302.874092 
L 85.014867 302.804086 
L 85.383327 302.996603 
L 85.751786 302.900345 
L 86.120245 303.07536 
L 87.225623 303.07536 
L 87.594083 302.786585 
L 88.699461 303.092862 
L 89.06792 302.891594 
L 89.43638 302.865342 
L 89.804839 302.226535 
L 90.541758 302.217785 
L 90.910217 302.042769 
L 91.278676 302.226535 
L 91.647136 302.209034 
L 92.015595 302.069022 
L 92.384055 302.287791 
L 93.120973 302.244037 
L 93.489433 302.427803 
L 93.857892 302.305292 
L 94.226351 302.314043 
L 94.96327 302.042769 
L 96.805567 302.252788 
L 99.753242 302.856591 
L 100.121701 303.145366 
L 100.490161 303.084111 
L 100.85862 302.882843 
L 101.595539 302.900345 
L 102.332457 302.874092 
L 102.700917 303.241625 
L 103.437836 303.364135 
L 104.174754 303.311631 
L 104.543214 302.830338 
L 105.280132 302.917846 
L 105.648592 302.9616 
L 106.017051 303.145366 
L 107.122429 302.979102 
L 107.859348 303.224123 
L 108.227807 303.75792 
L 108.596267 303.600406 
L 108.964726 303.600406 
L 109.333185 303.801674 
L 110.438564 303.880431 
L 110.807023 303.670412 
L 111.175482 303.784172 
L 111.543942 303.696665 
L 111.912401 303.425391 
L 112.28086 303.477895 
L 112.64932 303.320382 
L 113.386239 303.574154 
L 114.123157 302.979102 
L 114.491617 302.751582 
L 115.965454 302.471557 
L 117.439292 302.480308 
L 118.17621 302.104025 
L 118.54467 302.217785 
L 118.913129 302.095274 
L 119.281588 302.287791 
L 121.492345 302.147778 
L 121.860804 301.911508 
L 122.229263 301.955262 
L 122.597723 301.885255 
L 122.966182 302.357797 
L 123.334641 302.016517 
L 124.07156 301.972763 
L 124.808479 301.780246 
L 126.650776 301.552726 
L 127.756154 301.666486 
L 128.124613 301.211446 
L 128.493073 301.211446 
L 128.861532 301.351458 
L 129.96691 301.333957 
L 130.335369 301.570228 
L 131.809207 301.675237 
L 132.546126 301.902757 
L 133.283044 302.060271 
L 133.651504 301.71024 
L 134.756882 301.570228 
L 135.125341 301.211446 
L 135.493801 301.018929 
L 135.86226 301.018929 
L 136.230719 301.290203 
L 136.599179 300.852665 
L 136.967638 300.756406 
L 137.336097 300.940172 
L 137.704557 300.852665 
L 138.073016 300.528886 
L 138.809935 300.633895 
L 139.546854 300.222609 
L 139.915313 300.257612 
L 140.652232 299.986338 
L 141.020691 300.1176 
L 141.389151 299.881329 
L 141.75761 300.012591 
L 142.494529 299.933834 
L 142.862988 300.143852 
L 143.599907 300.266363 
L 143.968366 300.450129 
L 144.336825 300.222609 
L 144.705285 300.126351 
L 145.073744 300.292615 
L 146.179122 300.178855 
L 146.547582 300.546388 
L 146.916041 300.520135 
L 147.2845 300.240111 
L 148.021419 300.476382 
L 148.389879 300.108849 
L 148.758338 300.240111 
L 150.232175 300.065095 
L 150.600635 300.318868 
L 151.706013 300.091348 
L 152.074472 300.371372 
L 152.442932 299.540049 
L 152.811391 299.43504 
L 153.17985 299.618806 
L 153.54831 299.986338 
L 153.916769 300.073846 
L 154.653688 299.688812 
L 155.022147 300.056345 
L 155.390607 299.907582 
L 155.759066 299.907582 
L 156.127525 299.531298 
L 156.495985 299.77632 
L 156.864444 299.452542 
L 157.232903 299.303778 
L 157.601363 299.496295 
L 157.969822 299.365034 
L 158.338281 298.883742 
L 159.0752 299.015003 
L 159.44366 298.839988 
L 159.812119 298.98 
L 160.549038 298.86624 
L 160.917497 298.446203 
L 161.285956 298.218683 
L 162.391335 297.999914 
L 162.759794 297.466117 
L 163.128253 297.483618 
L 163.496713 297.186092 
L 163.865172 297.124837 
L 164.233631 296.914818 
L 165.339009 296.687298 
L 165.707469 297.011077 
L 166.075928 296.398523 
L 166.444388 296.486031 
L 166.812847 296.949822 
L 167.181306 296.36352 
L 167.549766 296.241009 
L 167.918225 295.733465 
L 168.286684 295.707212 
L 168.655144 295.357182 
L 169.392063 295.33968 
L 170.497441 295.470942 
L 170.8659 295.838474 
L 171.234359 295.663458 
L 171.602819 295.348431 
L 172.708197 294.9984 
L 173.076656 294.578363 
L 174.182034 294.167077 
L 174.550494 294.385846 
L 174.918953 294.385846 
L 175.655872 294.622117 
L 176.024331 294.508357 
L 176.76125 295.103409 
L 177.129709 295.269674 
L 177.498169 295.11216 
L 177.866628 295.243422 
L 178.235087 295.120911 
L 178.603547 295.208418 
L 178.972006 295.173415 
L 179.340465 295.418437 
L 179.708925 295.444689 
L 180.077384 295.645957 
L 180.814303 295.383434 
L 181.182762 295.768468 
L 181.551222 295.724714 
L 182.28814 295.90848 
L 182.6566 295.785969 
L 183.025059 295.505945 
L 183.761978 295.540948 
L 184.130437 295.348431 
L 184.498897 295.943483 
L 184.867356 295.79472 
L 185.235815 294.9984 
L 185.604275 295.558449 
L 185.972734 295.33968 
L 186.341193 295.365932 
L 186.709653 295.252172 
L 187.078112 295.532197 
L 187.446572 295.234671 
L 188.18349 295.199668 
L 188.55195 295.015902 
L 188.920409 294.9984 
L 189.288868 295.435938 
L 189.657328 295.698462 
L 190.025787 295.79472 
L 190.762706 295.505945 
L 191.131165 295.190917 
L 191.499625 295.383434 
L 191.868084 295.024652 
L 192.236543 295.190917 
L 193.341921 294.272086 
L 193.710381 294.350843 
L 194.4473 293.808295 
L 194.815759 293.685785 
L 195.184218 293.388258 
L 195.552678 293.379508 
L 196.289596 293.116985 
L 196.658056 293.186991 
L 197.026515 292.591938 
L 198.868812 292.259409 
L 199.237271 292.320665 
L 199.605731 291.865625 
L 200.342649 291.620603 
L 200.711109 291.506843 
L 201.079568 291.673108 
L 202.184946 291.401834 
L 202.553406 291.051803 
L 203.290324 290.693022 
L 203.658784 291.121809 
L 204.027243 290.929292 
L 204.395703 290.526757 
L 204.764162 290.973046 
L 205.132621 290.736775 
L 205.86954 291.086806 
L 207.343377 290.973046 
L 207.711837 290.745526 
L 208.080296 290.290486 
L 208.448756 290.211729 
L 209.185674 290.509255 
L 210.291052 290.964295 
L 210.659512 290.850535 
L 211.76489 291.428086 
L 212.133349 291.410585 
L 212.870268 291.769366 
L 213.975646 291.743114 
L 214.344105 291.953132 
L 214.712565 292.014388 
L 215.081024 291.961883 
L 215.449484 292.425674 
L 215.817943 292.1544 
L 216.554862 292.390671 
L 217.29178 292.1544 
L 217.66024 291.778117 
L 218.028699 292.451926 
L 218.397159 292.364418 
L 218.765618 292.513182 
L 219.134077 292.303163 
L 219.502537 292.355668 
L 220.239455 292.206905 
L 220.607915 291.603102 
L 220.976374 291.988135 
L 221.344833 292.066892 
L 221.713293 291.979385 
L 222.081752 292.180652 
L 222.450212 292.04064 
L 222.818671 292.574437 
L 223.18713 292.390671 
L 223.55559 291.498092 
L 223.924049 291.419335 
L 224.292508 291.025551 
L 225.029427 289.572923 
L 225.766346 289.494166 
L 226.134805 289.441662 
L 226.871724 289.65168 
L 227.240183 288.837858 
L 227.977102 288.697846 
L 228.345561 288.899114 
L 228.714021 287.94528 
L 229.08248 288.050289 
L 229.819399 287.919028 
L 230.924777 287.674006 
L 231.293236 287.83152 
L 231.661696 286.35264 
L 232.030155 286.510154 
L 232.767074 286.405145 
L 233.872452 285.932603 
L 234.240911 286.160123 
L 234.609371 285.950105 
L 234.97783 285.293797 
L 235.346289 284.882511 
L 235.714749 284.663742 
L 236.083208 284.777502 
L 236.820127 284.401218 
L 237.557046 284.357465 
L 237.925505 283.981182 
L 238.293964 283.771163 
L 239.399343 283.631151 
L 239.767802 283.464886 
L 240.504721 283.561145 
L 241.610099 281.732234 
L 241.978558 282.686068 
L 242.715477 281.758486 
L 243.083936 281.977255 
L 243.452396 282.581058 
L 243.820855 282.589809 
L 244.189314 282.204775 
L 244.926233 282.449797 
L 245.294692 281.592222 
L 245.663152 282.222277 
L 246.031611 282.152271 
L 246.400071 282.309785 
L 246.76853 281.207188 
L 247.136989 281.565969 
L 247.873908 281.242191 
L 248.610827 279.422031 
L 249.347745 279.036997 
L 249.716205 278.485698 
L 250.084664 279.001994 
L 250.453124 278.660714 
L 250.821583 278.573206 
L 251.558502 278.004406 
L 251.926961 277.558117 
L 252.29542 277.768135 
L 252.66388 277.619372 
L 253.032339 277.181834 
L 253.400799 277.628123 
L 253.769258 277.400603 
L 254.137717 277.549366 
L 254.506177 277.13808 
L 254.874636 277.216837 
L 255.243095 277.558117 
L 255.611555 277.566868 
L 256.348473 277.181834 
L 256.716933 277.505612 
L 257.085392 276.691791 
L 257.453852 276.945563 
L 258.927689 271.668849 
L 259.296148 271.721354 
L 259.664608 270.811274 
L 260.033067 271.485083 
L 260.401527 271.345071 
L 260.769986 271.660098 
L 261.138445 271.143803 
L 261.506905 271.187557 
L 262.243823 269.997452 
L 262.612283 270.049957 
L 263.349201 269.017366 
L 263.717661 269.236135 
L 264.823039 267.836012 
L 265.191498 268.273551 
L 265.559958 268.973612 
L 266.296876 268.282302 
L 266.665336 268.746092 
L 267.770714 268.238548 
L 268.139173 267.879766 
L 268.507633 267.993526 
L 268.876092 267.766006 
L 269.244551 266.960935 
L 269.613011 265.604566 
L 269.98147 265.359545 
L 270.349929 265.543311 
L 270.718389 265.114523 
L 271.086848 265.027015 
L 271.455308 265.30704 
L 272.192226 265.009514 
L 274.034523 263.119348 
L 274.402983 263.276862 
L 274.771442 263.023089 
L 275.139901 262.095508 
L 275.508361 262.594302 
L 275.87682 262.638055 
L 276.613739 264.046929 
L 277.350657 265.840837 
L 277.719117 266.252123 
L 278.087576 267.328468 
L 278.824495 266.637157 
L 279.192954 266.505895 
L 279.561414 267.512234 
L 280.666792 267.153452 
L 281.035251 266.742166 
L 281.403711 267.057194 
L 281.77217 267.188455 
L 282.140629 267.58224 
L 282.509089 267.529735 
L 282.877548 267.35472 
L 283.614467 267.932271 
L 283.982926 267.564738 
L 284.351385 267.853514 
L 284.719845 267.879766 
L 285.088304 268.273551 
L 285.456764 269.28864 
L 285.825223 269.708677 
L 286.193682 269.594917 
L 286.930601 270.347483 
L 287.29906 270.31248 
L 287.66752 270.776271 
L 288.035979 272.097637 
L 288.404439 272.115138 
L 288.772898 272.307655 
L 290.246735 271.913871 
L 290.615195 272.290154 
L 290.983654 272.333908 
L 291.720573 272.841452 
L 292.089032 272.867705 
L 292.825951 272.421415 
L 293.19441 272.718942 
L 293.56287 273.716529 
L 294.299788 273.375249 
L 294.668248 273.970302 
L 295.036707 274.224074 
L 295.405167 273.917797 
L 295.773626 274.241575 
L 296.510545 274.626609 
L 296.879004 275.186658 
L 297.247463 275.282917 
L 297.984382 274.801625 
L 298.352841 274.880382 
L 298.721301 275.177908 
L 299.45822 275.361674 
L 300.195138 274.889132 
L 300.563598 274.871631 
L 301.668976 275.869218 
L 302.774354 275.265415 
L 303.142813 275.484185 
L 303.511273 275.43168 
L 304.248191 275.860468 
L 304.98511 275.974228 
L 305.722029 276.551778 
L 306.090488 276.438018 
L 306.458948 276.464271 
L 306.827407 276.761797 
L 308.301244 277.199335 
L 308.669704 277.103077 
L 309.038163 277.374351 
L 309.406623 277.470609 
L 309.775082 277.785637 
L 310.512001 277.776886 
L 311.248919 278.258178 
L 311.617379 278.660714 
L 311.985838 278.546954 
L 312.354297 278.756972 
L 312.722757 278.809477 
L 313.459676 278.73072 
L 313.828135 279.072 
L 314.565054 278.739471 
L 314.933513 278.406942 
L 315.301972 278.240677 
L 315.670432 278.643212 
L 317.881188 278.153169 
L 318.249647 278.643212 
L 318.618107 278.660714 
L 319.355025 278.013157 
L 319.723485 277.811889 
L 320.460404 277.943151 
L 320.828863 278.284431 
L 321.197322 278.319434 
L 321.934241 278.774474 
L 322.3027 278.896985 
L 322.67116 278.861982 
L 323.039619 279.325772 
L 323.776538 279.737058 
L 324.881916 281.312197 
L 325.250375 281.618474 
L 325.618835 281.775988 
L 327.461132 284.059938 
L 328.19805 284.865009 
L 328.934969 285.661329 
L 330.777266 287.078954 
L 331.514185 287.927778 
L 331.882644 288.1728 
L 332.988022 289.660431 
L 333.724941 290.588012 
L 334.0934 290.780529 
L 334.830319 292.058142 
L 335.567238 293.388258 
L 336.304156 294.989649 
L 336.672616 295.164665 
L 338.146453 297.361108 
L 339.620291 299.111262 
L 340.357209 299.216271 
L 341.094128 298.769982 
L 341.831047 298.603717 
L 343.673344 297.256098 
L 344.410263 297.229846 
L 344.778722 297.212345 
L 345.515641 296.599791 
L 345.8841 296.599791 
L 346.621019 296.276012 
L 346.989478 296.197255 
L 347.357937 296.311015 
L 349.937153 296.074745 
L 351.77945 295.015902 
L 352.516369 294.123323 
L 352.884828 293.957058 
L 353.253287 293.572025 
L 353.990206 293.125735 
L 355.095584 292.311914 
L 357.30634 291.174314 
L 357.6748 291.235569 
L 358.411719 290.78928 
L 359.148637 290.526757 
L 359.517097 290.553009 
L 360.254015 289.835446 
L 362.096312 290.132972 
L 363.20169 289.406658 
L 363.57015 288.759102 
L 364.307068 288.540332 
L 365.043987 288.321563 
L 365.412447 287.630252 
L 367.623203 285.888849 
L 368.360121 284.926265 
L 369.4655 284.821255 
L 369.833959 284.523729 
L 370.202418 284.383717 
L 370.570878 284.514978 
L 370.939337 284.488726 
L 371.676256 284.103692 
L 372.044715 283.39488 
L 372.781634 283.088603 
L 373.150093 282.738572 
L 373.518553 282.782326 
L 373.887012 282.677317 
L 374.99239 281.635975 
L 375.360849 280.454622 
L 376.466228 279.080751 
L 376.834687 278.791975 
L 377.203146 277.846892 
L 377.571606 277.304345 
L 377.940065 276.438018 
L 379.045443 275.116652 
L 379.413903 274.836628 
L 379.782362 274.110314 
L 380.150821 273.769034 
L 380.88774 272.745194 
L 381.624659 271.292566 
L 382.361577 270.338732 
L 383.098496 268.649834 
L 383.466956 267.958523 
L 384.203874 267.555988 
L 384.940793 266.750917 
L 385.309252 266.269625 
L 386.046171 264.773243 
L 387.151549 263.60064 
L 387.520009 262.91808 
L 388.256927 262.454289 
L 388.625387 261.544209 
L 388.993846 261.027914 
L 390.099224 259.085243 
L 390.467684 259.155249 
L 391.573062 257.501354 
L 392.30998 256.687532 
L 392.67844 256.337502 
L 393.046899 255.217403 
L 393.415359 254.473588 
L 393.783818 254.578597 
L 394.520737 254.0448 
L 394.889196 253.694769 
L 395.994574 253.283483 
L 396.363033 253.493502 
L 397.099952 253.370991 
L 397.836871 252.145883 
L 398.20533 252.014622 
L 398.942249 251.367065 
L 399.310708 250.421982 
L 399.679168 250.343225 
L 400.416087 249.60816 
L 400.784546 248.514314 
L 401.153005 248.400554 
L 402.258383 246.387877 
L 402.626843 244.523963 
L 403.732221 242.747557 
L 404.46914 242.231262 
L 404.837599 241.924985 
L 405.206058 241.321182 
L 405.574518 241.321182 
L 405.942977 239.684788 
L 406.311436 239.107237 
L 407.048355 238.547188 
L 407.416815 237.899631 
L 407.785274 237.855877 
L 408.153733 237.672111 
L 408.522193 237.357083 
L 409.259111 236.245735 
L 409.627571 236.263237 
L 409.99603 236.096972 
L 410.364489 235.536923 
L 410.732949 235.431914 
L 411.101408 235.554425 
L 411.469868 236.412 
L 411.838327 236.858289 
L 412.206786 237.707114 
L 412.943705 237.768369 
L 413.680624 238.214658 
L 414.417543 239.404763 
L 414.786002 239.48352 
L 415.89138 241.338683 
L 416.628299 242.738806 
L 417.365217 243.69264 
L 417.733677 244.987754 
L 418.102136 245.687815 
L 418.470596 246.6504 
L 420.681352 254.228566 
L 421.049811 256.337502 
L 422.155189 258.962732 
L 423.260567 262.366782 
L 423.629027 263.329366 
L 423.997486 263.933169 
L 424.365945 266.094609 
L 424.365945 266.094609 
" clip-path="url(#pc89709e043)" style="fill: none; stroke: #000080; stroke-width: 1.5; stroke-linecap: square"/>
   </g>
   <g id="line2d_16">
    <path d="M 55.925 94.430769 
L 460.825 94.430769 
" clip-path="url(#pc89709e043)" style="fill: none; stroke-dasharray: 5.55,2.4; stroke-dashoffset: 0; stroke: #008000; stroke-width: 1.5"/>
   </g>
   <g id="patch_3">
    <path d="M 55.925 313.2 
L 55.925 28.8 
" style="fill: none; stroke: #000000; stroke-width: 0.8; stroke-linejoin: miter; stroke-linecap: square"/>
   </g>
   <g id="patch_4">
    <path d="M 460.825 313.2 
L 460.825 28.8 
" style="fill: none; stroke: #000000; stroke-width: 0.8; stroke-linejoin: miter; stroke-linecap: square"/>
   </g>
   <g id="patch_5">
    <path d="M 55.925 313.2 
L 460.825 313.2 
" style="fill: none; stroke: #000000; stroke-width: 0.8; stroke-linejoin: miter; stroke-linecap: square"/>
   </g>
   <g id="patch_6">
    <path d="M 55.925 28.8 
L 460.825 28.8 
" style="fill: none; stroke: #000000; stroke-width: 0.8; stroke-linejoin: miter; stroke-linecap: square"/>
   </g>
   <g id="text_16">
    <!-- gamma = 0.9521052631578948,lr = 0.004641588833612777 -->
    <g transform="translate(23.601562 22.8)scale(0.15 -0.15)">
     <defs>
      <path id="DejaVuSans-67" d="M 2906 1791 
Q 2906 2416 2648 2759 
Q 2391 3103 1925 3103 
Q 1463 3103 1205 2759 
Q 947 2416 947 1791 
Q 947 1169 1205 825 
Q 1463 481 1925 481 
Q 2391 481 2648 825 
Q 2906 1169 2906 1791 
z
M 3481 434 
Q 3481 -459 3084 -895 
Q 2688 -1331 1869 -1331 
Q 1566 -1331 1297 -1286 
Q 1028 -1241 775 -1147 
L 775 -588 
Q 1028 -725 1275 -790 
Q 1522 -856 1778 -856 
Q 2344 -856 2625 -561 
Q 2906 -266 2906 331 
L 2906 616 
Q 2728 306 2450 153 
Q 2172 0 1784 0 
Q 1141 0 747 490 
Q 353 981 353 1791 
Q 353 2603 747 3093 
Q 1141 3584 1784 3584 
Q 2172 3584 2450 3431 
Q 2728 3278 2906 2969 
L 2906 3500 
L 3481 3500 
L 3481 434 
z
" transform="scale(0.015625)"/>
      <path id="DejaVuSans-61" d="M 2194 1759 
Q 1497 1759 1228 1600 
Q 959 1441 959 1056 
Q 959 750 1161 570 
Q 1363 391 1709 391 
Q 2188 391 2477 730 
Q 2766 1069 2766 1631 
L 2766 1759 
L 2194 1759 
z
M 3341 1997 
L 3341 0 
L 2766 0 
L 2766 531 
Q 2569 213 2275 61 
Q 1981 -91 1556 -91 
Q 1019 -91 701 211 
Q 384 513 384 1019 
Q 384 1609 779 1909 
Q 1175 2209 1959 2209 
L 2766 2209 
L 2766 2266 
Q 2766 2663 2505 2880 
Q 2244 3097 1772 3097 
Q 1472 3097 1187 3025 
Q 903 2953 641 2809 
L 641 3341 
Q 956 3463 1253 3523 
Q 1550 3584 1831 3584 
Q 2591 3584 2966 3190 
Q 3341 2797 3341 1997 
z
" transform="scale(0.015625)"/>
      <path id="DejaVuSans-6d" d="M 3328 2828 
Q 3544 3216 3844 3400 
Q 4144 3584 4550 3584 
Q 5097 3584 5394 3201 
Q 5691 2819 5691 2113 
L 5691 0 
L 5113 0 
L 5113 2094 
Q 5113 2597 4934 2840 
Q 4756 3084 4391 3084 
Q 3944 3084 3684 2787 
Q 3425 2491 3425 1978 
L 3425 0 
L 2847 0 
L 2847 2094 
Q 2847 2600 2669 2842 
Q 2491 3084 2119 3084 
Q 1678 3084 1418 2786 
Q 1159 2488 1159 1978 
L 1159 0 
L 581 0 
L 581 3500 
L 1159 3500 
L 1159 2956 
Q 1356 3278 1631 3431 
Q 1906 3584 2284 3584 
Q 2666 3584 2933 3390 
Q 3200 3197 3328 2828 
z
" transform="scale(0.015625)"/>
      <path id="DejaVuSans-20" transform="scale(0.015625)"/>
      <path id="DejaVuSans-3d" d="M 678 2906 
L 4684 2906 
L 4684 2381 
L 678 2381 
L 678 2906 
z
M 678 1631 
L 4684 1631 
L 4684 1100 
L 678 1100 
L 678 1631 
z
" transform="scale(0.015625)"/>
      <path id="DejaVuSans-2e" d="M 684 794 
L 1344 794 
L 1344 0 
L 684 0 
L 684 794 
z
" transform="scale(0.015625)"/>
      <path id="DejaVuSans-39" d="M 703 97 
L 703 672 
Q 941 559 1184 500 
Q 1428 441 1663 441 
Q 2288 441 2617 861 
Q 2947 1281 2994 2138 
Q 2813 1869 2534 1725 
Q 2256 1581 1919 1581 
Q 1219 1581 811 2004 
Q 403 2428 403 3163 
Q 403 3881 828 4315 
Q 1253 4750 1959 4750 
Q 2769 4750 3195 4129 
Q 3622 3509 3622 2328 
Q 3622 1225 3098 567 
Q 2575 -91 1691 -91 
Q 1453 -91 1209 -44 
Q 966 3 703 97 
z
M 1959 2075 
Q 2384 2075 2632 2365 
Q 2881 2656 2881 3163 
Q 2881 3666 2632 3958 
Q 2384 4250 1959 4250 
Q 1534 4250 1286 3958 
Q 1038 3666 1038 3163 
Q 1038 2656 1286 2365 
Q 1534 2075 1959 2075 
z
" transform="scale(0.015625)"/>
      <path id="DejaVuSans-37" d="M 525 4666 
L 3525 4666 
L 3525 4397 
L 1831 0 
L 1172 0 
L 2766 4134 
L 525 4134 
L 525 4666 
z
" transform="scale(0.015625)"/>
      <path id="DejaVuSans-2c" d="M 750 794 
L 1409 794 
L 1409 256 
L 897 -744 
L 494 -744 
L 750 256 
L 750 794 
z
" transform="scale(0.015625)"/>
      <path id="DejaVuSans-6c" d="M 603 4863 
L 1178 4863 
L 1178 0 
L 603 0 
L 603 4863 
z
" transform="scale(0.015625)"/>
     </defs>
     <use xlink:href="#DejaVuSans-67"/>
     <use xlink:href="#DejaVuSans-61" x="63.476562"/>
     <use xlink:href="#DejaVuSans-6d" x="124.755859"/>
     <use xlink:href="#DejaVuSans-6d" x="222.167969"/>
     <use xlink:href="#DejaVuSans-61" x="319.580078"/>
     <use xlink:href="#DejaVuSans-20" x="380.859375"/>
     <use xlink:href="#DejaVuSans-3d" x="412.646484"/>
     <use xlink:href="#DejaVuSans-20" x="496.435547"/>
     <use xlink:href="#DejaVuSans-30" x="528.222656"/>
     <use xlink:href="#DejaVuSans-2e" x="591.845703"/>
     <use xlink:href="#DejaVuSans-39" x="623.632812"/>
     <use xlink:href="#DejaVuSans-35" x="687.255859"/>
     <use xlink:href="#DejaVuSans-32" x="750.878906"/>
     <use xlink:href="#DejaVuSans-31" x="814.501953"/>
     <use xlink:href="#DejaVuSans-30" x="878.125"/>
     <use xlink:href="#DejaVuSans-35" x="941.748047"/>
     <use xlink:href="#DejaVuSans-32" x="1005.371094"/>
     <use xlink:href="#DejaVuSans-36" x="1068.994141"/>
     <use xlink:href="#DejaVuSans-33" x="1132.617188"/>
     <use xlink:href="#DejaVuSans-31" x="1196.240234"/>
     <use xlink:href="#DejaVuSans-35" x="1259.863281"/>
     <use xlink:href="#DejaVuSans-37" x="1323.486328"/>
     <use xlink:href="#DejaVuSans-38" x="1387.109375"/>
     <use xlink:href="#DejaVuSans-39" x="1450.732422"/>
     <use xlink:href="#DejaVuSans-34" x="1514.355469"/>
     <use xlink:href="#DejaVuSans-38" x="1577.978516"/>
     <use xlink:href="#DejaVuSans-2c" x="1641.601562"/>
     <use xlink:href="#DejaVuSans-6c" x="1673.388672"/>
     <use xlink:href="#DejaVuSans-72" x="1701.171875"/>
     <use xlink:href="#DejaVuSans-20" x="1742.285156"/>
     <use xlink:href="#DejaVuSans-3d" x="1774.072266"/>
     <use xlink:href="#DejaVuSans-20" x="1857.861328"/>
     <use xlink:href="#DejaVuSans-30" x="1889.648438"/>
     <use xlink:href="#DejaVuSans-2e" x="1953.271484"/>
     <use xlink:href="#DejaVuSans-30" x="1985.058594"/>
     <use xlink:href="#DejaVuSans-30" x="2048.681641"/>
     <use xlink:href="#DejaVuSans-34" x="2112.304688"/>
     <use xlink:href="#DejaVuSans-36" x="2175.927734"/>
     <use xlink:href="#DejaVuSans-34" x="2239.550781"/>
     <use xlink:href="#DejaVuSans-31" x="2303.173828"/>
     <use xlink:href="#DejaVuSans-35" x="2366.796875"/>
     <use xlink:href="#DejaVuSans-38" x="2430.419922"/>
     <use xlink:href="#DejaVuSans-38" x="2494.042969"/>
     <use xlink:href="#DejaVuSans-38" x="2557.666016"/>
     <use xlink:href="#DejaVuSans-33" x="2621.289062"/>
     <use xlink:href="#DejaVuSans-33" x="2684.912109"/>
     <use xlink:href="#DejaVuSans-36" x="2748.535156"/>
     <use xlink:href="#DejaVuSans-31" x="2812.158203"/>
     <use xlink:href="#DejaVuSans-32" x="2875.78125"/>
     <use xlink:href="#DejaVuSans-37" x="2939.404297"/>
     <use xlink:href="#DejaVuSans-37" x="3003.027344"/>
     <use xlink:href="#DejaVuSans-37" x="3066.650391"/>
    </g>
   </g>
   <g id="legend_1">
    <g id="patch_7">
     <path d="M 293.50625 80.834375 
L 453.825 80.834375 
Q 455.825 80.834375 455.825 78.834375 
L 455.825 35.8 
Q 455.825 33.8 453.825 33.8 
L 293.50625 33.8 
Q 291.50625 33.8 291.50625 35.8 
L 291.50625 78.834375 
Q 291.50625 80.834375 293.50625 80.834375 
z
" style="fill: #ffffff; opacity: 0.8; stroke: #cccccc; stroke-linejoin: miter"/>
    </g>
    <g id="line2d_17">
     <path d="M 295.50625 41.898438 
L 305.50625 41.898438 
L 315.50625 41.898438 
" style="fill: none; stroke: #708090; stroke-width: 1.5; stroke-linecap: square"/>
    </g>
    <g id="text_17">
     <!-- Episodes score -->
     <g transform="translate(323.50625 45.398438)scale(0.1 -0.1)">
      <use xlink:href="#DejaVuSans-45"/>
      <use xlink:href="#DejaVuSans-70" x="63.183594"/>
      <use xlink:href="#DejaVuSans-69" x="126.660156"/>
      <use xlink:href="#DejaVuSans-73" x="154.443359"/>
      <use xlink:href="#DejaVuSans-6f" x="206.542969"/>
      <use xlink:href="#DejaVuSans-64" x="267.724609"/>
      <use xlink:href="#DejaVuSans-65" x="331.201172"/>
      <use xlink:href="#DejaVuSans-73" x="392.724609"/>
      <use xlink:href="#DejaVuSans-20" x="444.824219"/>
      <use xlink:href="#DejaVuSans-73" x="476.611328"/>
      <use xlink:href="#DejaVuSans-63" x="528.710938"/>
      <use xlink:href="#DejaVuSans-6f" x="583.691406"/>
      <use xlink:href="#DejaVuSans-72" x="644.873047"/>
      <use xlink:href="#DejaVuSans-65" x="683.736328"/>
     </g>
    </g>
    <g id="line2d_18">
     <path d="M 295.50625 56.576563 
L 305.50625 56.576563 
L 315.50625 56.576563 
" style="fill: none; stroke: #000080; stroke-width: 1.5; stroke-linecap: square"/>
    </g>
    <g id="text_18">
     <!-- Moving average of scores -->
     <g transform="translate(323.50625 60.076563)scale(0.1 -0.1)">
      <defs>
       <path id="DejaVuSans-4d" d="M 628 4666 
L 1569 4666 
L 2759 1491 
L 3956 4666 
L 4897 4666 
L 4897 0 
L 4281 0 
L 4281 4097 
L 3078 897 
L 2444 897 
L 1241 4097 
L 1241 0 
L 628 0 
L 628 4666 
z
" transform="scale(0.015625)"/>
       <path id="DejaVuSans-76" d="M 191 3500 
L 800 3500 
L 1894 563 
L 2988 3500 
L 3597 3500 
L 2284 0 
L 1503 0 
L 191 3500 
z
" transform="scale(0.015625)"/>
       <path id="DejaVuSans-6e" d="M 3513 2113 
L 3513 0 
L 2938 0 
L 2938 2094 
Q 2938 2591 2744 2837 
Q 2550 3084 2163 3084 
Q 1697 3084 1428 2787 
Q 1159 2491 1159 1978 
L 1159 0 
L 581 0 
L 581 3500 
L 1159 3500 
L 1159 2956 
Q 1366 3272 1645 3428 
Q 1925 3584 2291 3584 
Q 2894 3584 3203 3211 
Q 3513 2838 3513 2113 
z
" transform="scale(0.015625)"/>
       <path id="DejaVuSans-66" d="M 2375 4863 
L 2375 4384 
L 1825 4384 
Q 1516 4384 1395 4259 
Q 1275 4134 1275 3809 
L 1275 3500 
L 2222 3500 
L 2222 3053 
L 1275 3053 
L 1275 0 
L 697 0 
L 697 3053 
L 147 3053 
L 147 3500 
L 697 3500 
L 697 3744 
Q 697 4328 969 4595 
Q 1241 4863 1831 4863 
L 2375 4863 
z
" transform="scale(0.015625)"/>
      </defs>
      <use xlink:href="#DejaVuSans-4d"/>
      <use xlink:href="#DejaVuSans-6f" x="86.279297"/>
      <use xlink:href="#DejaVuSans-76" x="147.460938"/>
      <use xlink:href="#DejaVuSans-69" x="206.640625"/>
      <use xlink:href="#DejaVuSans-6e" x="234.423828"/>
      <use xlink:href="#DejaVuSans-67" x="297.802734"/>
      <use xlink:href="#DejaVuSans-20" x="361.279297"/>
      <use xlink:href="#DejaVuSans-61" x="393.066406"/>
      <use xlink:href="#DejaVuSans-76" x="454.345703"/>
      <use xlink:href="#DejaVuSans-65" x="513.525391"/>
      <use xlink:href="#DejaVuSans-72" x="575.048828"/>
      <use xlink:href="#DejaVuSans-61" x="616.162109"/>
      <use xlink:href="#DejaVuSans-67" x="677.441406"/>
      <use xlink:href="#DejaVuSans-65" x="740.917969"/>
      <use xlink:href="#DejaVuSans-20" x="802.441406"/>
      <use xlink:href="#DejaVuSans-6f" x="834.228516"/>
      <use xlink:href="#DejaVuSans-66" x="895.410156"/>
      <use xlink:href="#DejaVuSans-20" x="930.615234"/>
      <use xlink:href="#DejaVuSans-73" x="962.402344"/>
      <use xlink:href="#DejaVuSans-63" x="1014.501953"/>
      <use xlink:href="#DejaVuSans-6f" x="1069.482422"/>
      <use xlink:href="#DejaVuSans-72" x="1130.664062"/>
      <use xlink:href="#DejaVuSans-65" x="1169.527344"/>
      <use xlink:href="#DejaVuSans-73" x="1231.050781"/>
     </g>
    </g>
    <g id="line2d_19">
     <path d="M 295.50625 71.254687 
L 305.50625 71.254687 
L 315.50625 71.254687 
" style="fill: none; stroke-dasharray: 5.55,2.4; stroke-dashoffset: 0; stroke: #008000; stroke-width: 1.5"/>
    </g>
    <g id="text_19">
     <!-- Game Solved -->
     <g transform="translate(323.50625 74.754687)scale(0.1 -0.1)">
      <defs>
       <path id="DejaVuSans-47" d="M 3809 666 
L 3809 1919 
L 2778 1919 
L 2778 2438 
L 4434 2438 
L 4434 434 
Q 4069 175 3628 42 
Q 3188 -91 2688 -91 
Q 1594 -91 976 548 
Q 359 1188 359 2328 
Q 359 3472 976 4111 
Q 1594 4750 2688 4750 
Q 3144 4750 3555 4637 
Q 3966 4525 4313 4306 
L 4313 3634 
Q 3963 3931 3569 4081 
Q 3175 4231 2741 4231 
Q 1884 4231 1454 3753 
Q 1025 3275 1025 2328 
Q 1025 1384 1454 906 
Q 1884 428 2741 428 
Q 3075 428 3337 486 
Q 3600 544 3809 666 
z
" transform="scale(0.015625)"/>
      </defs>
      <use xlink:href="#DejaVuSans-47"/>
      <use xlink:href="#DejaVuSans-61" x="77.490234"/>
      <use xlink:href="#DejaVuSans-6d" x="138.769531"/>
      <use xlink:href="#DejaVuSans-65" x="236.181641"/>
      <use xlink:href="#DejaVuSans-20" x="297.705078"/>
      <use xlink:href="#DejaVuSans-53" x="329.492188"/>
      <use xlink:href="#DejaVuSans-6f" x="392.96875"/>
      <use xlink:href="#DejaVuSans-6c" x="454.150391"/>
      <use xlink:href="#DejaVuSans-76" x="481.933594"/>
      <use xlink:href="#DejaVuSans-65" x="541.113281"/>
      <use xlink:href="#DejaVuSans-64" x="602.636719"/>
     </g>
    </g>
   </g>
  </g>
  <g id="axes_2">
   <g id="matplotlib.axis_3">
    <g id="ytick_8">
     <g id="line2d_20">
      <defs>
       <path id="m5b22e5f3ec" d="M 0 0 
L 3.5 0 
" style="stroke: #000000; stroke-width: 0.8"/>
      </defs>
      <g>
       <use xlink:href="#m5b22e5f3ec" x="460.825" y="300.356157" style="stroke: #000000; stroke-width: 0.8"/>
      </g>
     </g>
     <g id="text_20">
      <!-- 0 -->
      <g transform="translate(467.825 304.155376)scale(0.1 -0.1)">
       <use xlink:href="#DejaVuSans-30"/>
      </g>
     </g>
    </g>
    <g id="ytick_9">
     <g id="line2d_21">
      <g>
       <use xlink:href="#m5b22e5f3ec" x="460.825" y="248.63038" style="stroke: #000000; stroke-width: 0.8"/>
      </g>
     </g>
     <g id="text_21">
      <!-- 1 -->
      <g transform="translate(467.825 252.429599)scale(0.1 -0.1)">
       <use xlink:href="#DejaVuSans-31"/>
      </g>
     </g>
    </g>
    <g id="ytick_10">
     <g id="line2d_22">
      <g>
       <use xlink:href="#m5b22e5f3ec" x="460.825" y="196.904603" style="stroke: #000000; stroke-width: 0.8"/>
      </g>
     </g>
     <g id="text_22">
      <!-- 2 -->
      <g transform="translate(467.825 200.703822)scale(0.1 -0.1)">
       <use xlink:href="#DejaVuSans-32"/>
      </g>
     </g>
    </g>
    <g id="ytick_11">
     <g id="line2d_23">
      <g>
       <use xlink:href="#m5b22e5f3ec" x="460.825" y="145.178827" style="stroke: #000000; stroke-width: 0.8"/>
      </g>
     </g>
     <g id="text_23">
      <!-- 3 -->
      <g transform="translate(467.825 148.978045)scale(0.1 -0.1)">
       <use xlink:href="#DejaVuSans-33"/>
      </g>
     </g>
    </g>
    <g id="ytick_12">
     <g id="line2d_24">
      <g>
       <use xlink:href="#m5b22e5f3ec" x="460.825" y="93.45305" style="stroke: #000000; stroke-width: 0.8"/>
      </g>
     </g>
     <g id="text_24">
      <!-- 4 -->
      <g transform="translate(467.825 97.252268)scale(0.1 -0.1)">
       <use xlink:href="#DejaVuSans-34"/>
      </g>
     </g>
    </g>
    <g id="ytick_13">
     <g id="line2d_25">
      <g>
       <use xlink:href="#m5b22e5f3ec" x="460.825" y="41.727273" style="stroke: #000000; stroke-width: 0.8"/>
      </g>
     </g>
     <g id="text_25">
      <!-- 5 -->
      <g transform="translate(467.825 45.526491)scale(0.1 -0.1)">
       <use xlink:href="#DejaVuSans-35"/>
      </g>
     </g>
    </g>
    <g id="text_26">
     <!-- Temperature -->
     <g transform="translate(489.585156 218.504297)rotate(-90)scale(0.15 -0.15)">
      <defs>
       <path id="DejaVuSans-54" d="M -19 4666 
L 3928 4666 
L 3928 4134 
L 2272 4134 
L 2272 0 
L 1638 0 
L 1638 4134 
L -19 4134 
L -19 4666 
z
" transform="scale(0.015625)"/>
       <path id="DejaVuSans-74" d="M 1172 4494 
L 1172 3500 
L 2356 3500 
L 2356 3053 
L 1172 3053 
L 1172 1153 
Q 1172 725 1289 603 
Q 1406 481 1766 481 
L 2356 481 
L 2356 0 
L 1766 0 
Q 1100 0 847 248 
Q 594 497 594 1153 
L 594 3053 
L 172 3053 
L 172 3500 
L 594 3500 
L 594 4494 
L 1172 4494 
z
" transform="scale(0.015625)"/>
       <path id="DejaVuSans-75" d="M 544 1381 
L 544 3500 
L 1119 3500 
L 1119 1403 
Q 1119 906 1312 657 
Q 1506 409 1894 409 
Q 2359 409 2629 706 
Q 2900 1003 2900 1516 
L 2900 3500 
L 3475 3500 
L 3475 0 
L 2900 0 
L 2900 538 
Q 2691 219 2414 64 
Q 2138 -91 1772 -91 
Q 1169 -91 856 284 
Q 544 659 544 1381 
z
M 1991 3584 
L 1991 3584 
z
" transform="scale(0.015625)"/>
      </defs>
      <use xlink:href="#DejaVuSans-54"/>
      <use xlink:href="#DejaVuSans-65" x="44.083984"/>
      <use xlink:href="#DejaVuSans-6d" x="105.607422"/>
      <use xlink:href="#DejaVuSans-70" x="203.019531"/>
      <use xlink:href="#DejaVuSans-65" x="266.496094"/>
      <use xlink:href="#DejaVuSans-72" x="328.019531"/>
      <use xlink:href="#DejaVuSans-61" x="369.132812"/>
      <use xlink:href="#DejaVuSans-74" x="430.412109"/>
      <use xlink:href="#DejaVuSans-75" x="469.621094"/>
      <use xlink:href="#DejaVuSans-72" x="533"/>
      <use xlink:href="#DejaVuSans-65" x="571.863281"/>
     </g>
    </g>
   </g>
   <g id="line2d_26">
    <path d="M 74.329545 41.727273 
L 77.64568 59.796179 
L 80.961814 76.602714 
L 84.277948 92.235075 
L 87.594083 106.775292 
L 90.910217 120.299669 
L 94.226351 132.879175 
L 97.542486 144.579825 
L 100.85862 155.463017 
L 104.174754 165.585863 
L 107.490889 175.001485 
L 110.807023 183.759292 
L 114.123157 191.905241 
L 117.439292 199.48208 
L 120.755426 206.529569 
L 124.07156 213.084691 
L 127.387695 219.181844 
L 130.703829 224.853024 
L 134.019963 230.127992 
L 137.704557 235.557975 
L 141.389151 240.568116 
L 145.073744 245.190878 
L 148.758338 249.456211 
L 152.442932 253.391752 
L 156.127525 257.023001 
L 160.180578 260.693942 
L 164.233631 264.053901 
L 168.286684 267.129223 
L 172.339737 269.944021 
L 176.76125 272.743467 
L 181.182762 275.285223 
L 185.972734 277.775454 
L 190.762706 280.018336 
L 195.921137 282.185254 
L 201.448028 284.251415 
L 206.974918 286.082639 
L 212.870268 287.807033 
L 219.134077 289.41153 
L 225.766346 290.887385 
L 233.135533 292.295013 
L 240.87318 293.548388 
L 249.347745 294.698674 
L 258.927689 295.766744 
L 269.613011 296.721977 
L 281.403711 297.547031 
L 295.036707 298.270409 
L 310.88046 298.880507 
L 330.040347 299.385086 
L 353.990206 299.780603 
L 385.677712 300.068067 
L 432.840511 300.253311 
L 442.420455 300.272727 
L 442.420455 300.272727 
" clip-path="url(#pc89709e043)" style="fill: none; stroke: #ff0000; stroke-width: 1.5; stroke-linecap: square"/>
   </g>
   <g id="patch_8">
    <path d="M 55.925 313.2 
L 55.925 28.8 
" style="fill: none; stroke: #000000; stroke-width: 0.8; stroke-linejoin: miter; stroke-linecap: square"/>
   </g>
   <g id="patch_9">
    <path d="M 460.825 313.2 
L 460.825 28.8 
" style="fill: none; stroke: #000000; stroke-width: 0.8; stroke-linejoin: miter; stroke-linecap: square"/>
   </g>
   <g id="patch_10">
    <path d="M 55.925 313.2 
L 460.825 313.2 
" style="fill: none; stroke: #000000; stroke-width: 0.8; stroke-linejoin: miter; stroke-linecap: square"/>
   </g>
   <g id="patch_11">
    <path d="M 55.925 28.8 
L 460.825 28.8 
" style="fill: none; stroke: #000000; stroke-width: 0.8; stroke-linejoin: miter; stroke-linecap: square"/>
   </g>
   <g id="legend_2">
    <g id="patch_12">
     <path d="M 62.925 51.478125 
L 158.264063 51.478125 
Q 160.264063 51.478125 160.264063 49.478125 
L 160.264063 35.8 
Q 160.264063 33.8 158.264063 33.8 
L 62.925 33.8 
Q 60.925 33.8 60.925 35.8 
L 60.925 49.478125 
Q 60.925 51.478125 62.925 51.478125 
z
" style="fill: #ffffff; opacity: 0.8; stroke: #cccccc; stroke-linejoin: miter"/>
    </g>
    <g id="line2d_27">
     <path d="M 64.925 41.898438 
L 74.925 41.898438 
L 84.925 41.898438 
" style="fill: none; stroke: #ff0000; stroke-width: 1.5; stroke-linecap: square"/>
    </g>
    <g id="text_27">
     <!-- Temperature -->
     <g transform="translate(92.925 45.398438)scale(0.1 -0.1)">
      <use xlink:href="#DejaVuSans-54"/>
      <use xlink:href="#DejaVuSans-65" x="44.083984"/>
      <use xlink:href="#DejaVuSans-6d" x="105.607422"/>
      <use xlink:href="#DejaVuSans-70" x="203.019531"/>
      <use xlink:href="#DejaVuSans-65" x="266.496094"/>
      <use xlink:href="#DejaVuSans-72" x="328.019531"/>
      <use xlink:href="#DejaVuSans-61" x="369.132812"/>
      <use xlink:href="#DejaVuSans-74" x="430.412109"/>
      <use xlink:href="#DejaVuSans-75" x="469.621094"/>
      <use xlink:href="#DejaVuSans-72" x="533"/>
      <use xlink:href="#DejaVuSans-65" x="571.863281"/>
     </g>
    </g>
   </g>
  </g>
 </g>
 <defs>
  <clipPath id="pc89709e043">
   <rect x="55.925" y="28.8" width="404.9" height="284.4"/>
  </clipPath>
 </defs>
</svg>
