<?xml version="1.0" encoding="utf-8" standalone="no"?>
<!DOCTYPE svg PUBLIC "-//W3C//DTD SVG 1.1//EN"
  "http://www.w3.org/Graphics/SVG/1.1/DTD/svg11.dtd">
<svg xmlns:xlink="http://www.w3.org/1999/xlink" width="504pt" height="360pt" viewBox="0 0 504 360" xmlns="http://www.w3.org/2000/svg" version="1.1">
 <metadata>
  <rdf:RDF xmlns:dc="http://purl.org/dc/elements/1.1/" xmlns:cc="http://creativecommons.org/ns#" xmlns:rdf="http://www.w3.org/1999/02/22-rdf-syntax-ns#">
   <cc:Work>
    <dc:type rdf:resource="http://purl.org/dc/dcmitype/StillImage"/>
    <dc:date>2022-07-28T17:59:59.049158</dc:date>
    <dc:format>image/svg+xml</dc:format>
    <dc:creator>
     <cc:Agent>
      <dc:title>Matplotlib v3.5.1, https://matplotlib.org/</dc:title>
     </cc:Agent>
    </dc:creator>
   </cc:Work>
  </rdf:RDF>
 </metadata>
 <defs>
  <style type="text/css">*{stroke-linejoin: round; stroke-linecap: butt}</style>
 </defs>
 <g id="figure_1">
  <g id="patch_1">
   <path d="M 0 360 
L 504 360 
L 504 0 
L 0 0 
L 0 360 
z
" style="fill: none"/>
  </g>
  <g id="axes_1">
   <g id="patch_2">
    <path d="M 55.925 313.2 
L 460.825 313.2 
L 460.825 28.8 
L 55.925 28.8 
z
" style="fill: #ffffff"/>
   </g>
   <g id="matplotlib.axis_1">
    <g id="xtick_1">
     <g id="line2d_1">
      <defs>
       <path id="m9b2748977a" d="M 0 0 
L 0 3.5 
" style="stroke: #000000; stroke-width: 0.8"/>
      </defs>
      <g>
       <use xlink:href="#m9b2748977a" x="74.329545" y="313.2" style="stroke: #000000; stroke-width: 0.8"/>
      </g>
     </g>
     <g id="text_1">
      <!-- 0 -->
      <g transform="translate(71.148295 327.798437)scale(0.1 -0.1)">
       <defs>
        <path id="DejaVuSans-30" d="M 2034 4250 
Q 1547 4250 1301 3770 
Q 1056 3291 1056 2328 
Q 1056 1369 1301 889 
Q 1547 409 2034 409 
Q 2525 409 2770 889 
Q 3016 1369 3016 2328 
Q 3016 3291 2770 3770 
Q 2525 4250 2034 4250 
z
M 2034 4750 
Q 2819 4750 3233 4129 
Q 3647 3509 3647 2328 
Q 3647 1150 3233 529 
Q 2819 -91 2034 -91 
Q 1250 -91 836 529 
Q 422 1150 422 2328 
Q 422 3509 836 4129 
Q 1250 4750 2034 4750 
z
" transform="scale(0.015625)"/>
       </defs>
       <use xlink:href="#DejaVuSans-30"/>
      </g>
     </g>
    </g>
    <g id="xtick_2">
     <g id="line2d_2">
      <g>
       <use xlink:href="#m9b2748977a" x="148.095259" y="313.2" style="stroke: #000000; stroke-width: 0.8"/>
      </g>
     </g>
     <g id="text_2">
      <!-- 100 -->
      <g transform="translate(138.551509 327.798437)scale(0.1 -0.1)">
       <defs>
        <path id="DejaVuSans-31" d="M 794 531 
L 1825 531 
L 1825 4091 
L 703 3866 
L 703 4441 
L 1819 4666 
L 2450 4666 
L 2450 531 
L 3481 531 
L 3481 0 
L 794 0 
L 794 531 
z
" transform="scale(0.015625)"/>
       </defs>
       <use xlink:href="#DejaVuSans-31"/>
       <use xlink:href="#DejaVuSans-30" x="63.623047"/>
       <use xlink:href="#DejaVuSans-30" x="127.246094"/>
      </g>
     </g>
    </g>
    <g id="xtick_3">
     <g id="line2d_3">
      <g>
       <use xlink:href="#m9b2748977a" x="221.860972" y="313.2" style="stroke: #000000; stroke-width: 0.8"/>
      </g>
     </g>
     <g id="text_3">
      <!-- 200 -->
      <g transform="translate(212.317222 327.798437)scale(0.1 -0.1)">
       <defs>
        <path id="DejaVuSans-32" d="M 1228 531 
L 3431 531 
L 3431 0 
L 469 0 
L 469 531 
Q 828 903 1448 1529 
Q 2069 2156 2228 2338 
Q 2531 2678 2651 2914 
Q 2772 3150 2772 3378 
Q 2772 3750 2511 3984 
Q 2250 4219 1831 4219 
Q 1534 4219 1204 4116 
Q 875 4013 500 3803 
L 500 4441 
Q 881 4594 1212 4672 
Q 1544 4750 1819 4750 
Q 2544 4750 2975 4387 
Q 3406 4025 3406 3419 
Q 3406 3131 3298 2873 
Q 3191 2616 2906 2266 
Q 2828 2175 2409 1742 
Q 1991 1309 1228 531 
z
" transform="scale(0.015625)"/>
       </defs>
       <use xlink:href="#DejaVuSans-32"/>
       <use xlink:href="#DejaVuSans-30" x="63.623047"/>
       <use xlink:href="#DejaVuSans-30" x="127.246094"/>
      </g>
     </g>
    </g>
    <g id="xtick_4">
     <g id="line2d_4">
      <g>
       <use xlink:href="#m9b2748977a" x="295.626685" y="313.2" style="stroke: #000000; stroke-width: 0.8"/>
      </g>
     </g>
     <g id="text_4">
      <!-- 300 -->
      <g transform="translate(286.082935 327.798437)scale(0.1 -0.1)">
       <defs>
        <path id="DejaVuSans-33" d="M 2597 2516 
Q 3050 2419 3304 2112 
Q 3559 1806 3559 1356 
Q 3559 666 3084 287 
Q 2609 -91 1734 -91 
Q 1441 -91 1130 -33 
Q 819 25 488 141 
L 488 750 
Q 750 597 1062 519 
Q 1375 441 1716 441 
Q 2309 441 2620 675 
Q 2931 909 2931 1356 
Q 2931 1769 2642 2001 
Q 2353 2234 1838 2234 
L 1294 2234 
L 1294 2753 
L 1863 2753 
Q 2328 2753 2575 2939 
Q 2822 3125 2822 3475 
Q 2822 3834 2567 4026 
Q 2313 4219 1838 4219 
Q 1578 4219 1281 4162 
Q 984 4106 628 3988 
L 628 4550 
Q 988 4650 1302 4700 
Q 1616 4750 1894 4750 
Q 2613 4750 3031 4423 
Q 3450 4097 3450 3541 
Q 3450 3153 3228 2886 
Q 3006 2619 2597 2516 
z
" transform="scale(0.015625)"/>
       </defs>
       <use xlink:href="#DejaVuSans-33"/>
       <use xlink:href="#DejaVuSans-30" x="63.623047"/>
       <use xlink:href="#DejaVuSans-30" x="127.246094"/>
      </g>
     </g>
    </g>
    <g id="xtick_5">
     <g id="line2d_5">
      <g>
       <use xlink:href="#m9b2748977a" x="369.392398" y="313.2" style="stroke: #000000; stroke-width: 0.8"/>
      </g>
     </g>
     <g id="text_5">
      <!-- 400 -->
      <g transform="translate(359.848648 327.798437)scale(0.1 -0.1)">
       <defs>
        <path id="DejaVuSans-34" d="M 2419 4116 
L 825 1625 
L 2419 1625 
L 2419 4116 
z
M 2253 4666 
L 3047 4666 
L 3047 1625 
L 3713 1625 
L 3713 1100 
L 3047 1100 
L 3047 0 
L 2419 0 
L 2419 1100 
L 313 1100 
L 313 1709 
L 2253 4666 
z
" transform="scale(0.015625)"/>
       </defs>
       <use xlink:href="#DejaVuSans-34"/>
       <use xlink:href="#DejaVuSans-30" x="63.623047"/>
       <use xlink:href="#DejaVuSans-30" x="127.246094"/>
      </g>
     </g>
    </g>
    <g id="xtick_6">
     <g id="line2d_6">
      <g>
       <use xlink:href="#m9b2748977a" x="443.158112" y="313.2" style="stroke: #000000; stroke-width: 0.8"/>
      </g>
     </g>
     <g id="text_6">
      <!-- 500 -->
      <g transform="translate(433.614362 327.798437)scale(0.1 -0.1)">
       <defs>
        <path id="DejaVuSans-35" d="M 691 4666 
L 3169 4666 
L 3169 4134 
L 1269 4134 
L 1269 2991 
Q 1406 3038 1543 3061 
Q 1681 3084 1819 3084 
Q 2600 3084 3056 2656 
Q 3513 2228 3513 1497 
Q 3513 744 3044 326 
Q 2575 -91 1722 -91 
Q 1428 -91 1123 -41 
Q 819 9 494 109 
L 494 744 
Q 775 591 1075 516 
Q 1375 441 1709 441 
Q 2250 441 2565 725 
Q 2881 1009 2881 1497 
Q 2881 1984 2565 2268 
Q 2250 2553 1709 2553 
Q 1456 2553 1204 2497 
Q 953 2441 691 2322 
L 691 4666 
z
" transform="scale(0.015625)"/>
       </defs>
       <use xlink:href="#DejaVuSans-35"/>
       <use xlink:href="#DejaVuSans-30" x="63.623047"/>
       <use xlink:href="#DejaVuSans-30" x="127.246094"/>
      </g>
     </g>
    </g>
    <g id="text_7">
     <!-- Episode -->
     <g transform="translate(228.91875 345.275781)scale(0.15 -0.15)">
      <defs>
       <path id="DejaVuSans-45" d="M 628 4666 
L 3578 4666 
L 3578 4134 
L 1259 4134 
L 1259 2753 
L 3481 2753 
L 3481 2222 
L 1259 2222 
L 1259 531 
L 3634 531 
L 3634 0 
L 628 0 
L 628 4666 
z
" transform="scale(0.015625)"/>
       <path id="DejaVuSans-70" d="M 1159 525 
L 1159 -1331 
L 581 -1331 
L 581 3500 
L 1159 3500 
L 1159 2969 
Q 1341 3281 1617 3432 
Q 1894 3584 2278 3584 
Q 2916 3584 3314 3078 
Q 3713 2572 3713 1747 
Q 3713 922 3314 415 
Q 2916 -91 2278 -91 
Q 1894 -91 1617 61 
Q 1341 213 1159 525 
z
M 3116 1747 
Q 3116 2381 2855 2742 
Q 2594 3103 2138 3103 
Q 1681 3103 1420 2742 
Q 1159 2381 1159 1747 
Q 1159 1113 1420 752 
Q 1681 391 2138 391 
Q 2594 391 2855 752 
Q 3116 1113 3116 1747 
z
" transform="scale(0.015625)"/>
       <path id="DejaVuSans-69" d="M 603 3500 
L 1178 3500 
L 1178 0 
L 603 0 
L 603 3500 
z
M 603 4863 
L 1178 4863 
L 1178 4134 
L 603 4134 
L 603 4863 
z
" transform="scale(0.015625)"/>
       <path id="DejaVuSans-73" d="M 2834 3397 
L 2834 2853 
Q 2591 2978 2328 3040 
Q 2066 3103 1784 3103 
Q 1356 3103 1142 2972 
Q 928 2841 928 2578 
Q 928 2378 1081 2264 
Q 1234 2150 1697 2047 
L 1894 2003 
Q 2506 1872 2764 1633 
Q 3022 1394 3022 966 
Q 3022 478 2636 193 
Q 2250 -91 1575 -91 
Q 1294 -91 989 -36 
Q 684 19 347 128 
L 347 722 
Q 666 556 975 473 
Q 1284 391 1588 391 
Q 1994 391 2212 530 
Q 2431 669 2431 922 
Q 2431 1156 2273 1281 
Q 2116 1406 1581 1522 
L 1381 1569 
Q 847 1681 609 1914 
Q 372 2147 372 2553 
Q 372 3047 722 3315 
Q 1072 3584 1716 3584 
Q 2034 3584 2315 3537 
Q 2597 3491 2834 3397 
z
" transform="scale(0.015625)"/>
       <path id="DejaVuSans-6f" d="M 1959 3097 
Q 1497 3097 1228 2736 
Q 959 2375 959 1747 
Q 959 1119 1226 758 
Q 1494 397 1959 397 
Q 2419 397 2687 759 
Q 2956 1122 2956 1747 
Q 2956 2369 2687 2733 
Q 2419 3097 1959 3097 
z
M 1959 3584 
Q 2709 3584 3137 3096 
Q 3566 2609 3566 1747 
Q 3566 888 3137 398 
Q 2709 -91 1959 -91 
Q 1206 -91 779 398 
Q 353 888 353 1747 
Q 353 2609 779 3096 
Q 1206 3584 1959 3584 
z
" transform="scale(0.015625)"/>
       <path id="DejaVuSans-64" d="M 2906 2969 
L 2906 4863 
L 3481 4863 
L 3481 0 
L 2906 0 
L 2906 525 
Q 2725 213 2448 61 
Q 2172 -91 1784 -91 
Q 1150 -91 751 415 
Q 353 922 353 1747 
Q 353 2572 751 3078 
Q 1150 3584 1784 3584 
Q 2172 3584 2448 3432 
Q 2725 3281 2906 2969 
z
M 947 1747 
Q 947 1113 1208 752 
Q 1469 391 1925 391 
Q 2381 391 2643 752 
Q 2906 1113 2906 1747 
Q 2906 2381 2643 2742 
Q 2381 3103 1925 3103 
Q 1469 3103 1208 2742 
Q 947 2381 947 1747 
z
" transform="scale(0.015625)"/>
       <path id="DejaVuSans-65" d="M 3597 1894 
L 3597 1613 
L 953 1613 
Q 991 1019 1311 708 
Q 1631 397 2203 397 
Q 2534 397 2845 478 
Q 3156 559 3463 722 
L 3463 178 
Q 3153 47 2828 -22 
Q 2503 -91 2169 -91 
Q 1331 -91 842 396 
Q 353 884 353 1716 
Q 353 2575 817 3079 
Q 1281 3584 2069 3584 
Q 2775 3584 3186 3129 
Q 3597 2675 3597 1894 
z
M 3022 2063 
Q 3016 2534 2758 2815 
Q 2500 3097 2075 3097 
Q 1594 3097 1305 2825 
Q 1016 2553 972 2059 
L 3022 2063 
z
" transform="scale(0.015625)"/>
      </defs>
      <use xlink:href="#DejaVuSans-45"/>
      <use xlink:href="#DejaVuSans-70" x="63.183594"/>
      <use xlink:href="#DejaVuSans-69" x="126.660156"/>
      <use xlink:href="#DejaVuSans-73" x="154.443359"/>
      <use xlink:href="#DejaVuSans-6f" x="206.542969"/>
      <use xlink:href="#DejaVuSans-64" x="267.724609"/>
      <use xlink:href="#DejaVuSans-65" x="331.201172"/>
     </g>
    </g>
   </g>
   <g id="matplotlib.axis_2">
    <g id="ytick_1">
     <g id="line2d_7">
      <defs>
       <path id="m5297b348c8" d="M 0 0 
L -3.5 0 
" style="stroke: #000000; stroke-width: 0.8"/>
      </defs>
      <g>
       <use xlink:href="#m5297b348c8" x="55.925" y="313.2" style="stroke: #000000; stroke-width: 0.8"/>
      </g>
     </g>
     <g id="text_8">
      <!-- 0 -->
      <g transform="translate(42.5625 316.999219)scale(0.1 -0.1)">
       <use xlink:href="#DejaVuSans-30"/>
      </g>
     </g>
    </g>
    <g id="ytick_2">
     <g id="line2d_8">
      <g>
       <use xlink:href="#m5297b348c8" x="55.925" y="269.446154" style="stroke: #000000; stroke-width: 0.8"/>
      </g>
     </g>
     <g id="text_9">
      <!-- 100 -->
      <g transform="translate(29.8375 273.245373)scale(0.1 -0.1)">
       <use xlink:href="#DejaVuSans-31"/>
       <use xlink:href="#DejaVuSans-30" x="63.623047"/>
       <use xlink:href="#DejaVuSans-30" x="127.246094"/>
      </g>
     </g>
    </g>
    <g id="ytick_3">
     <g id="line2d_9">
      <g>
       <use xlink:href="#m5297b348c8" x="55.925" y="225.692308" style="stroke: #000000; stroke-width: 0.8"/>
      </g>
     </g>
     <g id="text_10">
      <!-- 200 -->
      <g transform="translate(29.8375 229.491526)scale(0.1 -0.1)">
       <use xlink:href="#DejaVuSans-32"/>
       <use xlink:href="#DejaVuSans-30" x="63.623047"/>
       <use xlink:href="#DejaVuSans-30" x="127.246094"/>
      </g>
     </g>
    </g>
    <g id="ytick_4">
     <g id="line2d_10">
      <g>
       <use xlink:href="#m5297b348c8" x="55.925" y="181.938462" style="stroke: #000000; stroke-width: 0.8"/>
      </g>
     </g>
     <g id="text_11">
      <!-- 300 -->
      <g transform="translate(29.8375 185.73768)scale(0.1 -0.1)">
       <use xlink:href="#DejaVuSans-33"/>
       <use xlink:href="#DejaVuSans-30" x="63.623047"/>
       <use xlink:href="#DejaVuSans-30" x="127.246094"/>
      </g>
     </g>
    </g>
    <g id="ytick_5">
     <g id="line2d_11">
      <g>
       <use xlink:href="#m5297b348c8" x="55.925" y="138.184615" style="stroke: #000000; stroke-width: 0.8"/>
      </g>
     </g>
     <g id="text_12">
      <!-- 400 -->
      <g transform="translate(29.8375 141.983834)scale(0.1 -0.1)">
       <use xlink:href="#DejaVuSans-34"/>
       <use xlink:href="#DejaVuSans-30" x="63.623047"/>
       <use xlink:href="#DejaVuSans-30" x="127.246094"/>
      </g>
     </g>
    </g>
    <g id="ytick_6">
     <g id="line2d_12">
      <g>
       <use xlink:href="#m5297b348c8" x="55.925" y="94.430769" style="stroke: #000000; stroke-width: 0.8"/>
      </g>
     </g>
     <g id="text_13">
      <!-- 500 -->
      <g transform="translate(29.8375 98.229988)scale(0.1 -0.1)">
       <use xlink:href="#DejaVuSans-35"/>
       <use xlink:href="#DejaVuSans-30" x="63.623047"/>
       <use xlink:href="#DejaVuSans-30" x="127.246094"/>
      </g>
     </g>
    </g>
    <g id="ytick_7">
     <g id="line2d_13">
      <g>
       <use xlink:href="#m5297b348c8" x="55.925" y="50.676923" style="stroke: #000000; stroke-width: 0.8"/>
      </g>
     </g>
     <g id="text_14">
      <!-- 600 -->
      <g transform="translate(29.8375 54.476142)scale(0.1 -0.1)">
       <defs>
        <path id="DejaVuSans-36" d="M 2113 2584 
Q 1688 2584 1439 2293 
Q 1191 2003 1191 1497 
Q 1191 994 1439 701 
Q 1688 409 2113 409 
Q 2538 409 2786 701 
Q 3034 994 3034 1497 
Q 3034 2003 2786 2293 
Q 2538 2584 2113 2584 
z
M 3366 4563 
L 3366 3988 
Q 3128 4100 2886 4159 
Q 2644 4219 2406 4219 
Q 1781 4219 1451 3797 
Q 1122 3375 1075 2522 
Q 1259 2794 1537 2939 
Q 1816 3084 2150 3084 
Q 2853 3084 3261 2657 
Q 3669 2231 3669 1497 
Q 3669 778 3244 343 
Q 2819 -91 2113 -91 
Q 1303 -91 875 529 
Q 447 1150 447 2328 
Q 447 3434 972 4092 
Q 1497 4750 2381 4750 
Q 2619 4750 2861 4703 
Q 3103 4656 3366 4563 
z
" transform="scale(0.015625)"/>
       </defs>
       <use xlink:href="#DejaVuSans-36"/>
       <use xlink:href="#DejaVuSans-30" x="63.623047"/>
       <use xlink:href="#DejaVuSans-30" x="127.246094"/>
      </g>
     </g>
    </g>
    <g id="text_15">
     <!-- Score -->
     <g transform="translate(22.717969 192.003516)rotate(-90)scale(0.15 -0.15)">
      <defs>
       <path id="DejaVuSans-53" d="M 3425 4513 
L 3425 3897 
Q 3066 4069 2747 4153 
Q 2428 4238 2131 4238 
Q 1616 4238 1336 4038 
Q 1056 3838 1056 3469 
Q 1056 3159 1242 3001 
Q 1428 2844 1947 2747 
L 2328 2669 
Q 3034 2534 3370 2195 
Q 3706 1856 3706 1288 
Q 3706 609 3251 259 
Q 2797 -91 1919 -91 
Q 1588 -91 1214 -16 
Q 841 59 441 206 
L 441 856 
Q 825 641 1194 531 
Q 1563 422 1919 422 
Q 2459 422 2753 634 
Q 3047 847 3047 1241 
Q 3047 1584 2836 1778 
Q 2625 1972 2144 2069 
L 1759 2144 
Q 1053 2284 737 2584 
Q 422 2884 422 3419 
Q 422 4038 858 4394 
Q 1294 4750 2059 4750 
Q 2388 4750 2728 4690 
Q 3069 4631 3425 4513 
z
" transform="scale(0.015625)"/>
       <path id="DejaVuSans-63" d="M 3122 3366 
L 3122 2828 
Q 2878 2963 2633 3030 
Q 2388 3097 2138 3097 
Q 1578 3097 1268 2742 
Q 959 2388 959 1747 
Q 959 1106 1268 751 
Q 1578 397 2138 397 
Q 2388 397 2633 464 
Q 2878 531 3122 666 
L 3122 134 
Q 2881 22 2623 -34 
Q 2366 -91 2075 -91 
Q 1284 -91 818 406 
Q 353 903 353 1747 
Q 353 2603 823 3093 
Q 1294 3584 2113 3584 
Q 2378 3584 2631 3529 
Q 2884 3475 3122 3366 
z
" transform="scale(0.015625)"/>
       <path id="DejaVuSans-72" d="M 2631 2963 
Q 2534 3019 2420 3045 
Q 2306 3072 2169 3072 
Q 1681 3072 1420 2755 
Q 1159 2438 1159 1844 
L 1159 0 
L 581 0 
L 581 3500 
L 1159 3500 
L 1159 2956 
Q 1341 3275 1631 3429 
Q 1922 3584 2338 3584 
Q 2397 3584 2469 3576 
Q 2541 3569 2628 3553 
L 2631 2963 
z
" transform="scale(0.015625)"/>
      </defs>
      <use xlink:href="#DejaVuSans-53"/>
      <use xlink:href="#DejaVuSans-63" x="63.476562"/>
      <use xlink:href="#DejaVuSans-6f" x="118.457031"/>
      <use xlink:href="#DejaVuSans-72" x="179.638672"/>
      <use xlink:href="#DejaVuSans-65" x="218.501953"/>
     </g>
    </g>
   </g>
   <g id="line2d_14">
    <path d="M 74.329545 308.824615 
L 75.067203 298.323692 
L 75.80486 306.199385 
L 76.542517 306.199385 
L 77.280174 296.136 
L 78.017831 299.636308 
L 78.755488 307.074462 
L 79.493145 305.761846 
L 80.230803 307.074462 
L 80.96846 308.824615 
L 81.706117 307.074462 
L 82.443774 307.074462 
L 83.181431 304.886769 
L 83.919088 305.761846 
L 84.656745 307.949538 
L 85.394402 304.011692 
L 86.13206 308.824615 
L 86.869717 296.136 
L 87.607374 304.449231 
L 88.345031 303.136615 
L 89.082688 307.512 
L 89.820345 304.886769 
L 90.558002 308.387077 
L 91.29566 305.324308 
L 92.033317 300.948923 
L 92.770974 307.949538 
L 93.508631 299.198769 
L 94.246288 308.387077 
L 94.983945 304.011692 
L 95.721602 302.261538 
L 96.459259 294.385846 
L 97.196917 302.699077 
L 97.934574 303.136615 
L 98.672231 307.512 
L 99.409888 293.073231 
L 100.147545 300.948923 
L 100.885202 307.074462 
L 101.622859 306.199385 
L 102.360516 306.199385 
L 103.098174 304.449231 
L 103.835831 308.824615 
L 104.573488 303.136615 
L 105.311145 307.512 
L 106.048802 306.199385 
L 106.786459 307.074462 
L 107.524116 301.824 
L 108.261774 306.636923 
L 108.999431 306.636923 
L 109.737088 307.512 
L 110.474745 304.886769 
L 111.212402 295.698462 
L 111.950059 302.261538 
L 112.687716 305.761846 
L 113.425373 308.387077 
L 114.163031 308.387077 
L 114.900688 306.636923 
L 115.638345 306.636923 
L 116.376002 301.386462 
L 117.113659 304.449231 
L 117.851316 306.199385 
L 118.588973 306.199385 
L 119.326631 307.074462 
L 120.064288 304.011692 
L 121.539602 304.011692 
L 122.277259 305.761846 
L 123.014916 306.636923 
L 123.752573 297.448615 
L 124.49023 303.574154 
L 125.227888 296.573538 
L 125.965545 307.074462 
L 126.703202 303.136615 
L 127.440859 307.949538 
L 128.178516 307.512 
L 128.916173 296.136 
L 129.65383 304.011692 
L 130.391488 307.949538 
L 131.129145 307.949538 
L 131.866802 302.699077 
L 132.604459 303.574154 
L 133.342116 296.136 
L 134.81743 304.449231 
L 135.555087 305.324308 
L 136.292745 306.636923 
L 137.030402 304.449231 
L 137.768059 306.636923 
L 138.505716 301.824 
L 139.243373 301.824 
L 139.98103 306.636923 
L 140.718687 292.198154 
L 141.456345 303.136615 
L 142.194002 306.636923 
L 142.931659 308.824615 
L 143.669316 306.636923 
L 144.406973 300.511385 
L 145.14463 303.574154 
L 145.882287 307.949538 
L 146.619944 306.199385 
L 147.357602 306.199385 
L 148.095259 307.949538 
L 148.832916 308.387077 
L 150.30823 300.511385 
L 151.045887 298.761231 
L 151.783544 299.198769 
L 152.521201 308.824615 
L 153.258859 300.511385 
L 153.996516 304.886769 
L 154.734173 300.511385 
L 155.47183 304.886769 
L 156.209487 306.636923 
L 156.947144 300.948923 
L 158.422459 307.512 
L 159.160116 306.199385 
L 159.897773 304.011692 
L 160.63543 280.384615 
L 161.373087 306.199385 
L 162.110744 307.074462 
L 162.848401 295.698462 
L 163.586058 302.261538 
L 164.323716 303.574154 
L 165.061373 306.199385 
L 165.79903 299.198769 
L 166.536687 305.761846 
L 167.274344 306.636923 
L 168.012001 290.448 
L 168.749658 307.074462 
L 169.487316 302.261538 
L 170.224973 293.073231 
L 170.96263 304.886769 
L 171.700287 307.074462 
L 172.437944 305.761846 
L 173.175601 290.010462 
L 173.913258 289.135385 
L 174.650915 307.512 
L 175.388573 290.010462 
L 176.12623 290.448 
L 176.863887 305.761846 
L 177.601544 295.698462 
L 178.339201 293.510769 
L 179.076858 304.449231 
L 179.814515 299.198769 
L 180.552173 297.886154 
L 181.28983 301.386462 
L 182.027487 290.010462 
L 182.765144 270.321231 
L 183.502801 260.695385 
L 184.240458 301.824 
L 184.978115 279.947077 
L 185.715772 300.948923 
L 186.45343 294.823385 
L 187.191087 302.261538 
L 187.928744 302.261538 
L 188.666401 300.073846 
L 189.404058 304.011692 
L 190.141715 295.260923 
L 190.879372 300.511385 
L 191.61703 295.260923 
L 192.354687 268.571077 
L 193.092344 293.510769 
L 193.830001 302.699077 
L 194.567658 293.073231 
L 195.305315 302.699077 
L 196.042972 290.010462 
L 196.780629 287.385231 
L 197.518287 293.073231 
L 198.255944 302.261538 
L 198.993601 301.824 
L 199.731258 288.697846 
L 200.468915 281.697231 
L 201.206572 307.512 
L 201.944229 294.385846 
L 202.681887 299.198769 
L 203.419544 289.135385 
L 204.157201 307.949538 
L 204.894858 299.198769 
L 205.632515 297.011077 
L 206.370172 304.449231 
L 207.107829 295.260923 
L 207.845486 294.823385 
L 208.583144 289.135385 
L 209.320801 296.573538 
L 210.058458 302.261538 
L 210.796115 288.260308 
L 211.533772 303.136615 
L 212.271429 302.699077 
L 213.009086 296.136 
L 213.746743 292.635692 
L 214.484401 296.573538 
L 215.222058 304.449231 
L 215.959715 276.009231 
L 216.697372 303.136615 
L 217.435029 297.011077 
L 218.172686 296.573538 
L 218.910343 303.136615 
L 219.648001 300.073846 
L 220.385658 298.761231 
L 221.123315 281.259692 
L 221.860972 268.571077 
L 223.336286 300.948923 
L 224.073943 269.446154 
L 224.8116 289.135385 
L 225.549258 298.323692 
L 226.286915 290.885538 
L 227.024572 290.010462 
L 227.762229 283.009846 
L 228.499886 274.259077 
L 229.237543 262.883077 
L 230.712858 302.699077 
L 231.450515 289.135385 
L 232.188172 293.510769 
L 232.925829 276.009231 
L 233.663486 280.822154 
L 234.401143 270.321231 
L 235.1388 302.261538 
L 235.876457 295.260923 
L 236.614115 282.572308 
L 237.351772 292.198154 
L 238.089429 293.948308 
L 238.827086 276.446769 
L 239.564743 269.008615 
L 240.3024 258.507692 
L 241.040057 297.886154 
L 241.777715 296.573538 
L 242.515372 299.636308 
L 243.253029 272.508923 
L 243.990686 276.446769 
L 244.728343 271.196308 
L 245.466 297.886154 
L 246.203657 292.635692 
L 246.941314 276.884308 
L 247.678972 244.068923 
L 248.416629 294.385846 
L 249.154286 288.260308 
L 249.891943 274.259077 
L 250.6296 290.448 
L 251.367257 285.635077 
L 252.104914 294.385846 
L 252.842572 286.947692 
L 253.580229 289.135385 
L 254.317886 273.821538 
L 255.055543 287.385231 
L 255.7932 289.572923 
L 256.530857 258.070154 
L 257.268514 286.947692 
L 258.006171 292.635692 
L 258.743829 275.571692 
L 259.481486 279.509538 
L 260.219143 242.318769 
L 260.9568 280.384615 
L 261.694457 277.321846 
L 262.432114 282.572308 
L 263.169771 279.509538 
L 263.907428 279.947077 
L 264.645086 299.198769 
L 265.382743 279.072 
L 266.1204 279.509538 
L 266.858057 243.631385 
L 267.595714 295.260923 
L 268.333371 231.380308 
L 269.071028 272.071385 
L 269.808686 288.260308 
L 270.546343 222.629538 
L 271.284 259.382769 
L 272.021657 276.884308 
L 272.759314 242.318769 
L 273.496971 266.820923 
L 274.234628 270.758769 
L 274.972285 276.884308 
L 275.709943 279.072 
L 276.4476 271.196308 
L 277.185257 253.694769 
L 277.922914 255.882462 
L 278.660571 264.633231 
L 279.398228 248.006769 
L 280.135885 275.134154 
L 280.873543 228.755077 
L 281.6112 251.944615 
L 282.348857 258.945231 
L 283.086514 260.257846 
L 283.824171 291.323077 
L 284.561828 239.256 
L 285.299485 276.446769 
L 286.037142 261.570462 
L 286.7748 251.944615 
L 287.512457 208.190769 
L 288.250114 239.256 
L 288.987771 288.697846 
L 289.725428 261.132923 
L 290.463085 261.570462 
L 291.200742 234.880615 
L 291.9384 262.008 
L 292.676057 265.070769 
L 293.413714 276.009231 
L 294.151371 243.631385 
L 294.889028 254.132308 
L 295.626685 262.008 
L 296.364342 249.319385 
L 297.101999 248.444308 
L 297.839657 247.131692 
L 298.577314 195.064615 
L 299.314971 240.568615 
L 300.052628 247.569231 
L 300.790285 230.505231 
L 301.527942 253.694769 
L 302.265599 258.945231 
L 303.003257 209.065846 
L 303.740914 235.318154 
L 304.478571 238.380923 
L 305.216228 218.254154 
L 306.691542 258.070154 
L 307.429199 256.757538 
L 308.166856 248.444308 
L 308.904514 261.132923 
L 309.642171 261.132923 
L 310.379828 251.507077 
L 311.117485 215.628923 
L 311.855142 237.505846 
L 312.592799 231.817846 
L 313.330456 253.694769 
L 314.068113 234.880615 
L 314.805771 231.817846 
L 315.543428 248.006769 
L 316.281085 234.005538 
L 317.018742 241.443692 
L 317.756399 216.504 
L 318.494056 216.066462 
L 319.231713 245.819077 
L 319.969371 233.130462 
L 320.707028 227.442462 
L 322.182342 251.944615 
L 322.919999 249.756923 
L 323.657656 252.819692 
L 324.395313 208.628308 
L 325.13297 230.067692 
L 325.870628 215.628923 
L 326.608285 195.939692 
L 327.345942 246.256615 
L 328.083599 251.944615 
L 328.821256 249.756923 
L 329.558913 209.503385 
L 330.29657 211.691077 
L 331.034228 210.816 
L 331.771885 221.754462 
L 332.509542 238.818462 
L 333.247199 242.318769 
L 333.984856 250.632 
L 334.722513 230.067692 
L 335.46017 236.193231 
L 336.197827 246.256615 
L 336.935485 242.756308 
L 337.673142 234.005538 
L 338.410799 257.632615 
L 339.148456 242.318769 
L 339.886113 254.132308 
L 340.62377 251.944615 
L 341.361427 221.754462 
L 342.099085 265.945846 
L 343.574399 214.316308 
L 344.312056 241.443692 
L 345.049713 249.319385 
L 345.78737 259.382769 
L 346.525027 203.377846 
L 347.262684 220.441846 
L 348.000342 179.750769 
L 348.737999 230.505231 
L 349.475656 238.380923 
L 350.213313 256.32 
L 350.95097 242.318769 
L 351.688627 212.128615 
L 352.426284 249.319385 
L 353.163942 225.254769 
L 353.901599 210.816 
L 354.639256 218.254154 
L 355.376913 243.631385 
L 356.11457 241.006154 
L 356.852227 258.945231 
L 357.589884 256.32 
L 358.327541 258.070154 
L 359.065199 251.069538 
L 359.802856 226.567385 
L 360.540513 237.505846 
L 361.27817 240.568615 
L 362.015827 233.130462 
L 362.753484 247.131692 
L 363.491141 231.380308 
L 364.228799 237.505846 
L 364.966456 230.505231 
L 365.704113 243.193846 
L 366.44177 215.191385 
L 367.179427 201.627692 
L 367.917084 230.067692 
L 368.654741 234.443077 
L 369.392398 236.193231 
L 370.130056 249.319385 
L 370.867713 237.505846 
L 371.60537 236.193231 
L 372.343027 193.314462 
L 373.080684 239.256 
L 373.818341 228.317538 
L 374.555998 252.382154 
L 375.293655 237.068308 
L 376.76897 202.502769 
L 377.506627 243.631385 
L 378.244284 224.817231 
L 378.981941 192.001846 
L 379.719598 220.004308 
L 380.457255 163.561846 
L 381.194913 207.753231 
L 381.93257 234.880615 
L 382.670227 183.251077 
L 383.407884 231.817846 
L 384.145541 206.878154 
L 384.883198 234.005538 
L 385.620855 197.689846 
L 386.358512 147.372923 
L 387.09617 155.686154 
L 387.833827 199.877538 
L 388.571484 212.128615 
L 389.309141 219.566769 
L 390.046798 210.816 
L 390.784455 227.004923 
L 391.522112 230.067692 
L 392.25977 223.942154 
L 392.997427 248.444308 
L 393.735084 255.007385 
L 394.472741 253.257231 
L 395.210398 224.379692 
L 395.948055 247.569231 
L 396.685712 257.632615 
L 397.423369 233.568 
L 398.161027 231.817846 
L 398.898684 236.630769 
L 399.636341 252.819692 
L 400.373998 236.193231 
L 401.111655 199.877538 
L 401.849312 249.756923 
L 402.586969 241.881231 
L 403.324627 248.006769 
L 404.062284 243.631385 
L 404.799941 233.568 
L 405.537598 229.630154 
L 406.275255 241.006154 
L 407.012912 226.567385 
L 407.750569 251.069538 
L 408.488226 242.756308 
L 409.225884 250.632 
L 409.963541 241.006154 
L 410.701198 214.753846 
L 411.438855 199.44 
L 412.176512 246.694154 
L 412.914169 238.380923 
L 413.651826 248.444308 
L 414.389484 253.694769 
L 415.127141 230.067692 
L 415.864798 245.381538 
L 416.602455 235.755692 
L 417.340112 256.32 
L 418.077769 246.694154 
L 418.815426 254.132308 
L 419.553083 234.443077 
L 420.290741 251.944615 
L 421.028398 241.006154 
L 421.766055 248.006769 
L 422.503712 226.567385 
L 423.241369 217.379077 
L 423.979026 245.819077 
L 424.716683 212.566154 
L 426.191998 245.381538 
L 426.929655 232.255385 
L 427.667312 246.256615 
L 428.404969 242.318769 
L 429.142626 237.505846 
L 429.880283 231.380308 
L 430.61794 229.630154 
L 431.355598 236.193231 
L 432.093255 234.880615 
L 432.830912 224.817231 
L 433.568569 239.256 
L 434.306226 240.131077 
L 435.043883 237.068308 
L 435.78154 244.068923 
L 436.519197 258.945231 
L 437.256855 251.069538 
L 437.994512 237.505846 
L 438.732169 255.444923 
L 439.469826 234.005538 
L 440.207483 259.382769 
L 440.94514 256.757538 
L 441.682797 262.883077 
L 442.420455 253.694769 
L 442.420455 253.694769 
" clip-path="url(#p5bd2697d39)" style="fill: none; stroke: #708090; stroke-width: 1.5; stroke-linecap: square"/>
   </g>
   <g id="line2d_15">
    <path d="M 74.329545 304.562991 
L 75.067203 304.300468 
L 76.542517 304.370474 
L 77.280174 304.414228 
L 78.755488 304.799262 
L 80.230803 304.703003 
L 83.181431 304.580492 
L 88.345031 304.449231 
L 89.082688 304.317969 
L 92.770974 304.21296 
L 93.508631 304.134203 
L 94.246288 304.309218 
L 99.409888 304.274215 
L 100.147545 304.545489 
L 101.622859 304.606745 
L 103.098174 304.431729 
L 103.835831 304.475483 
L 104.573488 304.142954 
L 111.212402 304.107951 
L 111.950059 304.352972 
L 112.687716 304.475483 
L 113.425373 304.449231 
L 115.638345 303.950437 
L 117.851316 303.98544 
L 119.326631 303.845428 
L 123.752573 303.810425 
L 124.49023 303.469145 
L 125.227888 303.521649 
L 125.965545 303.731668 
L 126.703202 303.504148 
L 131.129145 303.442892 
L 131.866802 303.092862 
L 132.604459 303.180369 
L 134.81743 303.180369 
L 136.292745 303.241625 
L 137.768059 302.602818 
L 138.505716 302.62032 
L 139.98103 302.156529 
L 142.194002 302.016517 
L 142.931659 301.972763 
L 144.406973 301.605231 
L 145.14463 301.622732 
L 145.882287 301.351458 
L 147.357602 299.688812 
L 148.095259 299.601305 
L 148.832916 299.041255 
L 150.30823 298.699975 
L 152.521201 298.822486 
L 155.47183 298.428702 
L 156.209487 297.702388 
L 156.947144 297.439865 
L 157.684801 297.474868 
L 158.422459 297.247348 
L 159.160116 297.151089 
L 160.63543 296.494782 
L 161.373087 296.748554 
L 163.586058 296.424775 
L 164.323716 296.013489 
L 165.061373 296.092246 
L 165.79903 295.855975 
L 166.536687 295.855975 
L 167.274344 295.523446 
L 168.012001 295.549698 
L 168.749658 295.724714 
L 169.487316 295.523446 
L 170.96263 295.610954 
L 171.700287 295.409686 
L 172.437944 295.050905 
L 173.175601 294.867138 
L 173.913258 295.11216 
L 175.388573 295.007151 
L 176.12623 295.260923 
L 176.863887 295.374683 
L 177.601544 295.11216 
L 178.339201 295.129662 
L 179.076858 295.348431 
L 179.814515 294.779631 
L 181.28983 294.840886 
L 182.027487 294.744628 
L 182.765144 295.007151 
L 183.502801 295.602203 
L 184.240458 296.36352 
L 184.978115 295.952234 
L 186.45343 295.383434 
L 187.191087 295.505945 
L 187.928744 294.849637 
L 188.666401 294.587114 
L 189.404058 294.552111 
L 190.141715 294.289588 
L 190.879372 294.184578 
L 192.354687 293.414511 
L 196.042972 292.828209 
L 196.780629 292.548185 
L 197.518287 292.416923 
L 198.255944 291.961883 
L 198.993601 291.961883 
L 200.468915 291.708111 
L 201.206572 291.918129 
L 202.681887 291.288074 
L 204.157201 290.071717 
L 204.894858 289.870449 
L 206.370172 289.870449 
L 207.107829 289.231643 
L 208.583144 288.382818 
L 209.320801 288.557834 
L 210.058458 288.479077 
L 210.796115 287.971532 
L 211.533772 287.087705 
L 213.009086 286.623914 
L 213.746743 286.186375 
L 214.484401 286.142622 
L 215.959715 285.722585 
L 216.697372 285.941354 
L 217.435029 285.661329 
L 218.172686 285.197538 
L 219.648001 284.742498 
L 220.385658 283.902425 
L 221.123315 283.666154 
L 222.598629 284.033686 
L 223.336286 283.946178 
L 224.073943 282.773575 
L 224.8116 282.992345 
L 227.762229 282.012258 
L 228.499886 282.336037 
L 229.237543 282.432295 
L 229.9752 282.764825 
L 230.712858 281.977255 
L 231.450515 281.828492 
L 232.188172 280.673391 
L 232.925829 280.244603 
L 233.663486 280.489625 
L 234.401143 279.325772 
L 235.1388 279.107003 
L 235.876457 278.599458 
L 236.614115 277.540615 
L 238.089429 276.7968 
L 238.827086 276.45552 
L 240.3024 276.551778 
L 241.040057 276.45552 
L 241.777715 275.615446 
L 242.515372 274.97664 
L 243.253029 273.944049 
L 243.990686 273.996554 
L 244.728343 273.04272 
L 245.466 272.657686 
L 246.941314 271.231311 
L 247.678972 271.520086 
L 248.416629 271.423828 
L 249.154286 271.065046 
L 250.6296 270.08496 
L 251.367257 268.439815 
L 252.104914 267.512234 
L 252.842572 267.398474 
L 254.317886 266.33088 
L 255.055543 265.552062 
L 256.530857 264.554474 
L 257.268514 264.913255 
L 258.743829 263.276862 
L 259.481486 263.005588 
L 260.219143 262.401785 
L 260.9568 262.524295 
L 261.694457 261.859237 
L 262.432114 260.214092 
L 263.169771 259.374018 
L 263.907428 258.735212 
L 265.382743 256.836295 
L 266.1204 256.43376 
L 266.858057 255.024886 
L 267.595714 254.858622 
L 268.333371 253.721022 
L 269.071028 253.458498 
L 270.546343 252.154634 
L 271.284 252.837194 
L 272.759314 252.303397 
L 273.496971 252.67968 
L 274.234628 252.373403 
L 274.972285 251.270806 
L 276.4476 249.538154 
L 277.922914 248.81184 
L 278.660571 248.330548 
L 280.135885 247.717994 
L 280.873543 247.044185 
L 281.6112 246.799163 
L 282.348857 246.0816 
L 283.086514 245.819077 
L 283.824171 245.276529 
L 284.561828 243.998917 
L 285.299485 244.025169 
L 286.037142 243.535126 
L 286.7748 243.298855 
L 288.250114 243.325108 
L 288.987771 243.141342 
L 290.463085 240.376098 
L 291.200742 240.069822 
L 291.9384 240.411102 
L 292.676057 240.16608 
L 294.151371 237.768369 
L 295.626685 236.464505 
L 296.364342 236.000714 
L 297.101999 235.860702 
L 297.839657 235.904455 
L 298.577314 235.563175 
L 299.314971 236.385748 
L 300.052628 236.499508 
L 300.790285 236.403249 
L 302.265599 236.552012 
L 303.003257 236.219483 
L 303.740914 237.120812 
L 304.478571 237.453342 
L 305.216228 237.120812 
L 305.953885 238.074646 
L 306.691542 238.127151 
L 307.429199 237.252074 
L 308.166856 236.945797 
L 309.642171 236.928295 
L 310.379828 235.773194 
L 311.855142 234.434326 
L 312.592799 234.294314 
L 314.805771 234.626843 
L 315.543428 234.233058 
L 316.281085 234.259311 
L 317.018742 234.084295 
L 317.756399 233.471742 
L 318.494056 233.506745 
L 319.231713 234.058043 
L 319.969371 233.961785 
L 322.182342 235.405662 
L 322.919999 235.38816 
L 323.657656 234.924369 
L 324.395313 234.618092 
L 325.13297 235.256898 
L 325.870628 235.318154 
L 327.345942 236.657022 
L 328.083599 236.482006 
L 328.821256 236.053218 
L 329.558913 235.921957 
L 330.29657 236.035717 
L 331.034228 235.834449 
L 331.771885 236.219483 
L 332.509542 236.473255 
L 333.247199 236.420751 
L 333.984856 236.560763 
L 334.722513 236.29824 
L 335.46017 236.420751 
L 336.197827 235.563175 
L 336.935485 235.423163 
L 337.673142 235.134388 
L 338.410799 235.50192 
L 339.886113 234.618092 
L 340.62377 233.585502 
L 341.361427 233.419237 
L 342.099085 233.480492 
L 342.836742 232.001612 
L 343.574399 231.607828 
L 344.312056 230.592738 
L 345.049713 229.918929 
L 345.78737 229.630154 
L 346.525027 228.10752 
L 347.262684 228.67632 
L 348.000342 228.405046 
L 348.737999 229.490142 
L 349.475656 228.833834 
L 350.95097 225.000997 
L 351.688627 224.152172 
L 352.426284 224.152172 
L 353.163942 223.55712 
L 353.901599 223.268345 
L 355.376913 223.828394 
L 356.11457 223.434609 
L 356.852227 223.583372 
L 358.327541 223.44336 
L 359.065199 222.769551 
L 359.802856 222.699545 
L 360.540513 223.320849 
L 362.753484 223.137083 
L 364.228799 223.347102 
L 364.966456 222.594535 
L 365.704113 222.979569 
L 366.44177 222.953317 
L 367.179427 223.609625 
L 367.917084 224.449698 
L 368.654741 224.519705 
L 369.392398 224.423446 
L 370.130056 224.519705 
L 370.867713 224.064665 
L 371.60537 224.335938 
L 372.343027 224.4672 
L 373.080684 225.613551 
L 373.818341 225.648554 
L 374.555998 225.37728 
L 375.293655 224.318437 
L 376.031313 224.510954 
L 376.76897 224.904738 
L 377.506627 225.823569 
L 378.981941 226.129846 
L 379.719598 227.19744 
L 380.457255 227.512468 
L 381.194913 229.367631 
L 381.93257 230.146449 
L 382.670227 230.531483 
L 383.407884 231.555323 
L 384.145541 231.957858 
L 384.883198 232.640418 
L 385.620855 232.920443 
L 386.358512 233.497994 
L 387.09617 234.898117 
L 387.833827 236.700775 
L 389.309141 237.269575 
L 390.784455 238.214658 
L 391.522112 238.599692 
L 392.997427 239.115988 
L 393.735084 238.774708 
L 394.472741 238.267163 
L 395.210398 237.925883 
L 395.948055 238.135902 
L 397.423369 237.313329 
L 400.373998 237.820874 
L 401.111655 238.1184 
L 401.849312 238.870966 
L 402.586969 238.984726 
L 403.324627 238.827212 
L 404.799941 239.317255 
L 406.275255 240.384849 
L 406.275255 240.384849 
" clip-path="url(#p5bd2697d39)" style="fill: none; stroke: #000080; stroke-width: 1.5; stroke-linecap: square"/>
   </g>
   <g id="line2d_16">
    <path d="M 55.925 94.430769 
L 460.825 94.430769 
" clip-path="url(#p5bd2697d39)" style="fill: none; stroke-dasharray: 5.55,2.4; stroke-dashoffset: 0; stroke: #008000; stroke-width: 1.5"/>
   </g>
   <g id="patch_3">
    <path d="M 55.925 313.2 
L 55.925 28.8 
" style="fill: none; stroke: #000000; stroke-width: 0.8; stroke-linejoin: miter; stroke-linecap: square"/>
   </g>
   <g id="patch_4">
    <path d="M 460.825 313.2 
L 460.825 28.8 
" style="fill: none; stroke: #000000; stroke-width: 0.8; stroke-linejoin: miter; stroke-linecap: square"/>
   </g>
   <g id="patch_5">
    <path d="M 55.925 313.2 
L 460.825 313.2 
" style="fill: none; stroke: #000000; stroke-width: 0.8; stroke-linejoin: miter; stroke-linecap: square"/>
   </g>
   <g id="patch_6">
    <path d="M 55.925 28.8 
L 460.825 28.8 
" style="fill: none; stroke: #000000; stroke-width: 0.8; stroke-linejoin: miter; stroke-linecap: square"/>
   </g>
   <g id="text_16">
    <!-- Slope = 5 -->
    <g transform="translate(221.741016 22.8)scale(0.15 -0.15)">
     <defs>
      <path id="DejaVuSans-6c" d="M 603 4863 
L 1178 4863 
L 1178 0 
L 603 0 
L 603 4863 
z
" transform="scale(0.015625)"/>
      <path id="DejaVuSans-20" transform="scale(0.015625)"/>
      <path id="DejaVuSans-3d" d="M 678 2906 
L 4684 2906 
L 4684 2381 
L 678 2381 
L 678 2906 
z
M 678 1631 
L 4684 1631 
L 4684 1100 
L 678 1100 
L 678 1631 
z
" transform="scale(0.015625)"/>
     </defs>
     <use xlink:href="#DejaVuSans-53"/>
     <use xlink:href="#DejaVuSans-6c" x="63.476562"/>
     <use xlink:href="#DejaVuSans-6f" x="91.259766"/>
     <use xlink:href="#DejaVuSans-70" x="152.441406"/>
     <use xlink:href="#DejaVuSans-65" x="215.917969"/>
     <use xlink:href="#DejaVuSans-20" x="277.441406"/>
     <use xlink:href="#DejaVuSans-3d" x="309.228516"/>
     <use xlink:href="#DejaVuSans-20" x="393.017578"/>
     <use xlink:href="#DejaVuSans-35" x="424.804688"/>
    </g>
   </g>
   <g id="legend_1">
    <g id="patch_7">
     <path d="M 293.50625 80.834375 
L 453.825 80.834375 
Q 455.825 80.834375 455.825 78.834375 
L 455.825 35.8 
Q 455.825 33.8 453.825 33.8 
L 293.50625 33.8 
Q 291.50625 33.8 291.50625 35.8 
L 291.50625 78.834375 
Q 291.50625 80.834375 293.50625 80.834375 
z
" style="fill: #ffffff; opacity: 0.8; stroke: #cccccc; stroke-linejoin: miter"/>
    </g>
    <g id="line2d_17">
     <path d="M 295.50625 41.898438 
L 305.50625 41.898438 
L 315.50625 41.898438 
" style="fill: none; stroke: #708090; stroke-width: 1.5; stroke-linecap: square"/>
    </g>
    <g id="text_17">
     <!-- Episodes score -->
     <g transform="translate(323.50625 45.398438)scale(0.1 -0.1)">
      <use xlink:href="#DejaVuSans-45"/>
      <use xlink:href="#DejaVuSans-70" x="63.183594"/>
      <use xlink:href="#DejaVuSans-69" x="126.660156"/>
      <use xlink:href="#DejaVuSans-73" x="154.443359"/>
      <use xlink:href="#DejaVuSans-6f" x="206.542969"/>
      <use xlink:href="#DejaVuSans-64" x="267.724609"/>
      <use xlink:href="#DejaVuSans-65" x="331.201172"/>
      <use xlink:href="#DejaVuSans-73" x="392.724609"/>
      <use xlink:href="#DejaVuSans-20" x="444.824219"/>
      <use xlink:href="#DejaVuSans-73" x="476.611328"/>
      <use xlink:href="#DejaVuSans-63" x="528.710938"/>
      <use xlink:href="#DejaVuSans-6f" x="583.691406"/>
      <use xlink:href="#DejaVuSans-72" x="644.873047"/>
      <use xlink:href="#DejaVuSans-65" x="683.736328"/>
     </g>
    </g>
    <g id="line2d_18">
     <path d="M 295.50625 56.576563 
L 305.50625 56.576563 
L 315.50625 56.576563 
" style="fill: none; stroke: #000080; stroke-width: 1.5; stroke-linecap: square"/>
    </g>
    <g id="text_18">
     <!-- Moving average of scores -->
     <g transform="translate(323.50625 60.076563)scale(0.1 -0.1)">
      <defs>
       <path id="DejaVuSans-4d" d="M 628 4666 
L 1569 4666 
L 2759 1491 
L 3956 4666 
L 4897 4666 
L 4897 0 
L 4281 0 
L 4281 4097 
L 3078 897 
L 2444 897 
L 1241 4097 
L 1241 0 
L 628 0 
L 628 4666 
z
" transform="scale(0.015625)"/>
       <path id="DejaVuSans-76" d="M 191 3500 
L 800 3500 
L 1894 563 
L 2988 3500 
L 3597 3500 
L 2284 0 
L 1503 0 
L 191 3500 
z
" transform="scale(0.015625)"/>
       <path id="DejaVuSans-6e" d="M 3513 2113 
L 3513 0 
L 2938 0 
L 2938 2094 
Q 2938 2591 2744 2837 
Q 2550 3084 2163 3084 
Q 1697 3084 1428 2787 
Q 1159 2491 1159 1978 
L 1159 0 
L 581 0 
L 581 3500 
L 1159 3500 
L 1159 2956 
Q 1366 3272 1645 3428 
Q 1925 3584 2291 3584 
Q 2894 3584 3203 3211 
Q 3513 2838 3513 2113 
z
" transform="scale(0.015625)"/>
       <path id="DejaVuSans-67" d="M 2906 1791 
Q 2906 2416 2648 2759 
Q 2391 3103 1925 3103 
Q 1463 3103 1205 2759 
Q 947 2416 947 1791 
Q 947 1169 1205 825 
Q 1463 481 1925 481 
Q 2391 481 2648 825 
Q 2906 1169 2906 1791 
z
M 3481 434 
Q 3481 -459 3084 -895 
Q 2688 -1331 1869 -1331 
Q 1566 -1331 1297 -1286 
Q 1028 -1241 775 -1147 
L 775 -588 
Q 1028 -725 1275 -790 
Q 1522 -856 1778 -856 
Q 2344 -856 2625 -561 
Q 2906 -266 2906 331 
L 2906 616 
Q 2728 306 2450 153 
Q 2172 0 1784 0 
Q 1141 0 747 490 
Q 353 981 353 1791 
Q 353 2603 747 3093 
Q 1141 3584 1784 3584 
Q 2172 3584 2450 3431 
Q 2728 3278 2906 2969 
L 2906 3500 
L 3481 3500 
L 3481 434 
z
" transform="scale(0.015625)"/>
       <path id="DejaVuSans-61" d="M 2194 1759 
Q 1497 1759 1228 1600 
Q 959 1441 959 1056 
Q 959 750 1161 570 
Q 1363 391 1709 391 
Q 2188 391 2477 730 
Q 2766 1069 2766 1631 
L 2766 1759 
L 2194 1759 
z
M 3341 1997 
L 3341 0 
L 2766 0 
L 2766 531 
Q 2569 213 2275 61 
Q 1981 -91 1556 -91 
Q 1019 -91 701 211 
Q 384 513 384 1019 
Q 384 1609 779 1909 
Q 1175 2209 1959 2209 
L 2766 2209 
L 2766 2266 
Q 2766 2663 2505 2880 
Q 2244 3097 1772 3097 
Q 1472 3097 1187 3025 
Q 903 2953 641 2809 
L 641 3341 
Q 956 3463 1253 3523 
Q 1550 3584 1831 3584 
Q 2591 3584 2966 3190 
Q 3341 2797 3341 1997 
z
" transform="scale(0.015625)"/>
       <path id="DejaVuSans-66" d="M 2375 4863 
L 2375 4384 
L 1825 4384 
Q 1516 4384 1395 4259 
Q 1275 4134 1275 3809 
L 1275 3500 
L 2222 3500 
L 2222 3053 
L 1275 3053 
L 1275 0 
L 697 0 
L 697 3053 
L 147 3053 
L 147 3500 
L 697 3500 
L 697 3744 
Q 697 4328 969 4595 
Q 1241 4863 1831 4863 
L 2375 4863 
z
" transform="scale(0.015625)"/>
      </defs>
      <use xlink:href="#DejaVuSans-4d"/>
      <use xlink:href="#DejaVuSans-6f" x="86.279297"/>
      <use xlink:href="#DejaVuSans-76" x="147.460938"/>
      <use xlink:href="#DejaVuSans-69" x="206.640625"/>
      <use xlink:href="#DejaVuSans-6e" x="234.423828"/>
      <use xlink:href="#DejaVuSans-67" x="297.802734"/>
      <use xlink:href="#DejaVuSans-20" x="361.279297"/>
      <use xlink:href="#DejaVuSans-61" x="393.066406"/>
      <use xlink:href="#DejaVuSans-76" x="454.345703"/>
      <use xlink:href="#DejaVuSans-65" x="513.525391"/>
      <use xlink:href="#DejaVuSans-72" x="575.048828"/>
      <use xlink:href="#DejaVuSans-61" x="616.162109"/>
      <use xlink:href="#DejaVuSans-67" x="677.441406"/>
      <use xlink:href="#DejaVuSans-65" x="740.917969"/>
      <use xlink:href="#DejaVuSans-20" x="802.441406"/>
      <use xlink:href="#DejaVuSans-6f" x="834.228516"/>
      <use xlink:href="#DejaVuSans-66" x="895.410156"/>
      <use xlink:href="#DejaVuSans-20" x="930.615234"/>
      <use xlink:href="#DejaVuSans-73" x="962.402344"/>
      <use xlink:href="#DejaVuSans-63" x="1014.501953"/>
      <use xlink:href="#DejaVuSans-6f" x="1069.482422"/>
      <use xlink:href="#DejaVuSans-72" x="1130.664062"/>
      <use xlink:href="#DejaVuSans-65" x="1169.527344"/>
      <use xlink:href="#DejaVuSans-73" x="1231.050781"/>
     </g>
    </g>
    <g id="line2d_19">
     <path d="M 295.50625 71.254687 
L 305.50625 71.254687 
L 315.50625 71.254687 
" style="fill: none; stroke-dasharray: 5.55,2.4; stroke-dashoffset: 0; stroke: #008000; stroke-width: 1.5"/>
    </g>
    <g id="text_19">
     <!-- Game Solved -->
     <g transform="translate(323.50625 74.754687)scale(0.1 -0.1)">
      <defs>
       <path id="DejaVuSans-47" d="M 3809 666 
L 3809 1919 
L 2778 1919 
L 2778 2438 
L 4434 2438 
L 4434 434 
Q 4069 175 3628 42 
Q 3188 -91 2688 -91 
Q 1594 -91 976 548 
Q 359 1188 359 2328 
Q 359 3472 976 4111 
Q 1594 4750 2688 4750 
Q 3144 4750 3555 4637 
Q 3966 4525 4313 4306 
L 4313 3634 
Q 3963 3931 3569 4081 
Q 3175 4231 2741 4231 
Q 1884 4231 1454 3753 
Q 1025 3275 1025 2328 
Q 1025 1384 1454 906 
Q 1884 428 2741 428 
Q 3075 428 3337 486 
Q 3600 544 3809 666 
z
" transform="scale(0.015625)"/>
       <path id="DejaVuSans-6d" d="M 3328 2828 
Q 3544 3216 3844 3400 
Q 4144 3584 4550 3584 
Q 5097 3584 5394 3201 
Q 5691 2819 5691 2113 
L 5691 0 
L 5113 0 
L 5113 2094 
Q 5113 2597 4934 2840 
Q 4756 3084 4391 3084 
Q 3944 3084 3684 2787 
Q 3425 2491 3425 1978 
L 3425 0 
L 2847 0 
L 2847 2094 
Q 2847 2600 2669 2842 
Q 2491 3084 2119 3084 
Q 1678 3084 1418 2786 
Q 1159 2488 1159 1978 
L 1159 0 
L 581 0 
L 581 3500 
L 1159 3500 
L 1159 2956 
Q 1356 3278 1631 3431 
Q 1906 3584 2284 3584 
Q 2666 3584 2933 3390 
Q 3200 3197 3328 2828 
z
" transform="scale(0.015625)"/>
      </defs>
      <use xlink:href="#DejaVuSans-47"/>
      <use xlink:href="#DejaVuSans-61" x="77.490234"/>
      <use xlink:href="#DejaVuSans-6d" x="138.769531"/>
      <use xlink:href="#DejaVuSans-65" x="236.181641"/>
      <use xlink:href="#DejaVuSans-20" x="297.705078"/>
      <use xlink:href="#DejaVuSans-53" x="329.492188"/>
      <use xlink:href="#DejaVuSans-6f" x="392.96875"/>
      <use xlink:href="#DejaVuSans-6c" x="454.150391"/>
      <use xlink:href="#DejaVuSans-76" x="481.933594"/>
      <use xlink:href="#DejaVuSans-65" x="541.113281"/>
      <use xlink:href="#DejaVuSans-64" x="602.636719"/>
     </g>
    </g>
   </g>
  </g>
  <g id="axes_2">
   <g id="matplotlib.axis_3">
    <g id="ytick_8">
     <g id="line2d_20">
      <defs>
       <path id="m7ea1683748" d="M 0 0 
L 3.5 0 
" style="stroke: #000000; stroke-width: 0.8"/>
      </defs>
      <g>
       <use xlink:href="#m7ea1683748" x="460.825" y="300.356832" style="stroke: #000000; stroke-width: 0.8"/>
      </g>
     </g>
     <g id="text_20">
      <!-- 0 -->
      <g transform="translate(467.825 304.15605)scale(0.1 -0.1)">
       <use xlink:href="#DejaVuSans-30"/>
      </g>
     </g>
    </g>
    <g id="ytick_9">
     <g id="line2d_21">
      <g>
       <use xlink:href="#m7ea1683748" x="460.825" y="248.63092" style="stroke: #000000; stroke-width: 0.8"/>
      </g>
     </g>
     <g id="text_21">
      <!-- 1 -->
      <g transform="translate(467.825 252.430138)scale(0.1 -0.1)">
       <use xlink:href="#DejaVuSans-31"/>
      </g>
     </g>
    </g>
    <g id="ytick_10">
     <g id="line2d_22">
      <g>
       <use xlink:href="#m7ea1683748" x="460.825" y="196.905008" style="stroke: #000000; stroke-width: 0.8"/>
      </g>
     </g>
     <g id="text_22">
      <!-- 2 -->
      <g transform="translate(467.825 200.704227)scale(0.1 -0.1)">
       <use xlink:href="#DejaVuSans-32"/>
      </g>
     </g>
    </g>
    <g id="ytick_11">
     <g id="line2d_23">
      <g>
       <use xlink:href="#m7ea1683748" x="460.825" y="145.179096" style="stroke: #000000; stroke-width: 0.8"/>
      </g>
     </g>
     <g id="text_23">
      <!-- 3 -->
      <g transform="translate(467.825 148.978315)scale(0.1 -0.1)">
       <use xlink:href="#DejaVuSans-33"/>
      </g>
     </g>
    </g>
    <g id="ytick_12">
     <g id="line2d_24">
      <g>
       <use xlink:href="#m7ea1683748" x="460.825" y="93.453184" style="stroke: #000000; stroke-width: 0.8"/>
      </g>
     </g>
     <g id="text_24">
      <!-- 4 -->
      <g transform="translate(467.825 97.252403)scale(0.1 -0.1)">
       <use xlink:href="#DejaVuSans-34"/>
      </g>
     </g>
    </g>
    <g id="ytick_13">
     <g id="line2d_25">
      <g>
       <use xlink:href="#m7ea1683748" x="460.825" y="41.727273" style="stroke: #000000; stroke-width: 0.8"/>
      </g>
     </g>
     <g id="text_25">
      <!-- 5 -->
      <g transform="translate(467.825 45.526491)scale(0.1 -0.1)">
       <use xlink:href="#DejaVuSans-35"/>
      </g>
     </g>
    </g>
    <g id="text_26">
     <!-- Temperature -->
     <g transform="translate(489.585156 218.504297)rotate(-90)scale(0.15 -0.15)">
      <defs>
       <path id="DejaVuSans-54" d="M -19 4666 
L 3928 4666 
L 3928 4134 
L 2272 4134 
L 2272 0 
L 1638 0 
L 1638 4134 
L -19 4134 
L -19 4666 
z
" transform="scale(0.015625)"/>
       <path id="DejaVuSans-74" d="M 1172 4494 
L 1172 3500 
L 2356 3500 
L 2356 3053 
L 1172 3053 
L 1172 1153 
Q 1172 725 1289 603 
Q 1406 481 1766 481 
L 2356 481 
L 2356 0 
L 1766 0 
Q 1100 0 847 248 
Q 594 497 594 1153 
L 594 3053 
L 172 3053 
L 172 3500 
L 594 3500 
L 594 4494 
L 1172 4494 
z
" transform="scale(0.015625)"/>
       <path id="DejaVuSans-75" d="M 544 1381 
L 544 3500 
L 1119 3500 
L 1119 1403 
Q 1119 906 1312 657 
Q 1506 409 1894 409 
Q 2359 409 2629 706 
Q 2900 1003 2900 1516 
L 2900 3500 
L 3475 3500 
L 3475 0 
L 2900 0 
L 2900 538 
Q 2691 219 2414 64 
Q 2138 -91 1772 -91 
Q 1169 -91 856 284 
Q 544 659 544 1381 
z
M 1991 3584 
L 1991 3584 
z
" transform="scale(0.015625)"/>
      </defs>
      <use xlink:href="#DejaVuSans-54"/>
      <use xlink:href="#DejaVuSans-65" x="44.083984"/>
      <use xlink:href="#DejaVuSans-6d" x="105.607422"/>
      <use xlink:href="#DejaVuSans-70" x="203.019531"/>
      <use xlink:href="#DejaVuSans-65" x="266.496094"/>
      <use xlink:href="#DejaVuSans-72" x="328.019531"/>
      <use xlink:href="#DejaVuSans-61" x="369.132812"/>
      <use xlink:href="#DejaVuSans-74" x="430.412109"/>
      <use xlink:href="#DejaVuSans-75" x="469.621094"/>
      <use xlink:href="#DejaVuSans-72" x="533"/>
      <use xlink:href="#DejaVuSans-65" x="571.863281"/>
     </g>
    </g>
   </g>
   <g id="line2d_26">
    <path d="M 74.329545 41.727273 
L 77.280174 57.852579 
L 80.230803 72.972488 
L 83.181431 87.149685 
L 86.13206 100.442947 
L 89.082688 112.907387 
L 92.033317 124.594681 
L 94.983945 135.553283 
L 97.934574 145.828627 
L 101.622859 157.776619 
L 105.311145 168.800802 
L 108.999431 178.972605 
L 112.687716 188.357932 
L 116.376002 197.017593 
L 120.064288 205.007697 
L 123.752573 212.380012 
L 127.440859 219.182307 
L 131.129145 225.458653 
L 134.81743 231.249718 
L 138.505716 236.593022 
L 142.194002 241.523187 
L 145.882287 246.072155 
L 149.570573 250.269401 
L 153.258859 254.142119 
L 156.947144 257.715402 
L 160.63543 261.012402 
L 164.323716 264.05448 
L 168.749658 267.396122 
L 173.175601 270.430164 
L 177.601544 273.184922 
L 182.027487 275.686104 
L 186.45343 277.957052 
L 191.61703 280.343663 
L 196.780629 282.47599 
L 201.944229 284.381126 
L 207.845486 286.311162 
L 213.746743 288.008029 
L 220.385658 289.673233 
L 227.024572 291.113889 
L 234.401143 292.487946 
L 242.515372 293.76469 
L 251.367257 294.92245 
L 260.9568 295.9484 
L 272.021657 296.893943 
L 284.561828 297.722844 
L 298.577314 298.416797 
L 314.805771 298.995274 
L 334.722513 299.475145 
L 359.802856 299.846721 
L 393.735084 300.113534 
L 442.420455 300.272727 
L 442.420455 300.272727 
" clip-path="url(#p5bd2697d39)" style="fill: none; stroke: #ff0000; stroke-width: 1.5; stroke-linecap: square"/>
   </g>
   <g id="patch_8">
    <path d="M 55.925 313.2 
L 55.925 28.8 
" style="fill: none; stroke: #000000; stroke-width: 0.8; stroke-linejoin: miter; stroke-linecap: square"/>
   </g>
   <g id="patch_9">
    <path d="M 460.825 313.2 
L 460.825 28.8 
" style="fill: none; stroke: #000000; stroke-width: 0.8; stroke-linejoin: miter; stroke-linecap: square"/>
   </g>
   <g id="patch_10">
    <path d="M 55.925 313.2 
L 460.825 313.2 
" style="fill: none; stroke: #000000; stroke-width: 0.8; stroke-linejoin: miter; stroke-linecap: square"/>
   </g>
   <g id="patch_11">
    <path d="M 55.925 28.8 
L 460.825 28.8 
" style="fill: none; stroke: #000000; stroke-width: 0.8; stroke-linejoin: miter; stroke-linecap: square"/>
   </g>
   <g id="legend_2">
    <g id="patch_12">
     <path d="M 62.925 51.478125 
L 158.264063 51.478125 
Q 160.264063 51.478125 160.264063 49.478125 
L 160.264063 35.8 
Q 160.264063 33.8 158.264063 33.8 
L 62.925 33.8 
Q 60.925 33.8 60.925 35.8 
L 60.925 49.478125 
Q 60.925 51.478125 62.925 51.478125 
z
" style="fill: #ffffff; opacity: 0.8; stroke: #cccccc; stroke-linejoin: miter"/>
    </g>
    <g id="line2d_27">
     <path d="M 64.925 41.898438 
L 74.925 41.898438 
L 84.925 41.898438 
" style="fill: none; stroke: #ff0000; stroke-width: 1.5; stroke-linecap: square"/>
    </g>
    <g id="text_27">
     <!-- Temperature -->
     <g transform="translate(92.925 45.398438)scale(0.1 -0.1)">
      <use xlink:href="#DejaVuSans-54"/>
      <use xlink:href="#DejaVuSans-65" x="44.083984"/>
      <use xlink:href="#DejaVuSans-6d" x="105.607422"/>
      <use xlink:href="#DejaVuSans-70" x="203.019531"/>
      <use xlink:href="#DejaVuSans-65" x="266.496094"/>
      <use xlink:href="#DejaVuSans-72" x="328.019531"/>
      <use xlink:href="#DejaVuSans-61" x="369.132812"/>
      <use xlink:href="#DejaVuSans-74" x="430.412109"/>
      <use xlink:href="#DejaVuSans-75" x="469.621094"/>
      <use xlink:href="#DejaVuSans-72" x="533"/>
      <use xlink:href="#DejaVuSans-65" x="571.863281"/>
     </g>
    </g>
   </g>
  </g>
 </g>
 <defs>
  <clipPath id="p5bd2697d39">
   <rect x="55.925" y="28.8" width="404.9" height="284.4"/>
  </clipPath>
 </defs>
</svg>
