<?xml version="1.0" encoding="utf-8" standalone="no"?>
<!DOCTYPE svg PUBLIC "-//W3C//DTD SVG 1.1//EN"
  "http://www.w3.org/Graphics/SVG/1.1/DTD/svg11.dtd">
<svg xmlns:xlink="http://www.w3.org/1999/xlink" width="504pt" height="360pt" viewBox="0 0 504 360" xmlns="http://www.w3.org/2000/svg" version="1.1">
 <metadata>
  <rdf:RDF xmlns:dc="http://purl.org/dc/elements/1.1/" xmlns:cc="http://creativecommons.org/ns#" xmlns:rdf="http://www.w3.org/1999/02/22-rdf-syntax-ns#">
   <cc:Work>
    <dc:type rdf:resource="http://purl.org/dc/dcmitype/StillImage"/>
    <dc:date>2022-07-28T20:50:46.983118</dc:date>
    <dc:format>image/svg+xml</dc:format>
    <dc:creator>
     <cc:Agent>
      <dc:title>Matplotlib v3.5.1, https://matplotlib.org/</dc:title>
     </cc:Agent>
    </dc:creator>
   </cc:Work>
  </rdf:RDF>
 </metadata>
 <defs>
  <style type="text/css">*{stroke-linejoin: round; stroke-linecap: butt}</style>
 </defs>
 <g id="figure_1">
  <g id="patch_1">
   <path d="M 0 360 
L 504 360 
L 504 0 
L 0 0 
L 0 360 
z
" style="fill: none"/>
  </g>
  <g id="axes_1">
   <g id="patch_2">
    <path d="M 55.925 313.2 
L 460.825 313.2 
L 460.825 28.8 
L 55.925 28.8 
z
" style="fill: #ffffff"/>
   </g>
   <g id="matplotlib.axis_1">
    <g id="xtick_1">
     <g id="line2d_1">
      <defs>
       <path id="m56bc61140c" d="M 0 0 
L 0 3.5 
" style="stroke: #000000; stroke-width: 0.8"/>
      </defs>
      <g>
       <use xlink:href="#m56bc61140c" x="74.329545" y="313.2" style="stroke: #000000; stroke-width: 0.8"/>
      </g>
     </g>
     <g id="text_1">
      <!-- 0 -->
      <g transform="translate(71.148295 327.798437)scale(0.1 -0.1)">
       <defs>
        <path id="DejaVuSans-30" d="M 2034 4250 
Q 1547 4250 1301 3770 
Q 1056 3291 1056 2328 
Q 1056 1369 1301 889 
Q 1547 409 2034 409 
Q 2525 409 2770 889 
Q 3016 1369 3016 2328 
Q 3016 3291 2770 3770 
Q 2525 4250 2034 4250 
z
M 2034 4750 
Q 2819 4750 3233 4129 
Q 3647 3509 3647 2328 
Q 3647 1150 3233 529 
Q 2819 -91 2034 -91 
Q 1250 -91 836 529 
Q 422 1150 422 2328 
Q 422 3509 836 4129 
Q 1250 4750 2034 4750 
z
" transform="scale(0.015625)"/>
       </defs>
       <use xlink:href="#DejaVuSans-30"/>
      </g>
     </g>
    </g>
    <g id="xtick_2">
     <g id="line2d_2">
      <g>
       <use xlink:href="#m56bc61140c" x="148.021419" y="313.2" style="stroke: #000000; stroke-width: 0.8"/>
      </g>
     </g>
     <g id="text_2">
      <!-- 200 -->
      <g transform="translate(138.477669 327.798437)scale(0.1 -0.1)">
       <defs>
        <path id="DejaVuSans-32" d="M 1228 531 
L 3431 531 
L 3431 0 
L 469 0 
L 469 531 
Q 828 903 1448 1529 
Q 2069 2156 2228 2338 
Q 2531 2678 2651 2914 
Q 2772 3150 2772 3378 
Q 2772 3750 2511 3984 
Q 2250 4219 1831 4219 
Q 1534 4219 1204 4116 
Q 875 4013 500 3803 
L 500 4441 
Q 881 4594 1212 4672 
Q 1544 4750 1819 4750 
Q 2544 4750 2975 4387 
Q 3406 4025 3406 3419 
Q 3406 3131 3298 2873 
Q 3191 2616 2906 2266 
Q 2828 2175 2409 1742 
Q 1991 1309 1228 531 
z
" transform="scale(0.015625)"/>
       </defs>
       <use xlink:href="#DejaVuSans-32"/>
       <use xlink:href="#DejaVuSans-30" x="63.623047"/>
       <use xlink:href="#DejaVuSans-30" x="127.246094"/>
      </g>
     </g>
    </g>
    <g id="xtick_3">
     <g id="line2d_3">
      <g>
       <use xlink:href="#m56bc61140c" x="221.713293" y="313.2" style="stroke: #000000; stroke-width: 0.8"/>
      </g>
     </g>
     <g id="text_3">
      <!-- 400 -->
      <g transform="translate(212.169543 327.798437)scale(0.1 -0.1)">
       <defs>
        <path id="DejaVuSans-34" d="M 2419 4116 
L 825 1625 
L 2419 1625 
L 2419 4116 
z
M 2253 4666 
L 3047 4666 
L 3047 1625 
L 3713 1625 
L 3713 1100 
L 3047 1100 
L 3047 0 
L 2419 0 
L 2419 1100 
L 313 1100 
L 313 1709 
L 2253 4666 
z
" transform="scale(0.015625)"/>
       </defs>
       <use xlink:href="#DejaVuSans-34"/>
       <use xlink:href="#DejaVuSans-30" x="63.623047"/>
       <use xlink:href="#DejaVuSans-30" x="127.246094"/>
      </g>
     </g>
    </g>
    <g id="xtick_4">
     <g id="line2d_4">
      <g>
       <use xlink:href="#m56bc61140c" x="295.405167" y="313.2" style="stroke: #000000; stroke-width: 0.8"/>
      </g>
     </g>
     <g id="text_4">
      <!-- 600 -->
      <g transform="translate(285.861417 327.798437)scale(0.1 -0.1)">
       <defs>
        <path id="DejaVuSans-36" d="M 2113 2584 
Q 1688 2584 1439 2293 
Q 1191 2003 1191 1497 
Q 1191 994 1439 701 
Q 1688 409 2113 409 
Q 2538 409 2786 701 
Q 3034 994 3034 1497 
Q 3034 2003 2786 2293 
Q 2538 2584 2113 2584 
z
M 3366 4563 
L 3366 3988 
Q 3128 4100 2886 4159 
Q 2644 4219 2406 4219 
Q 1781 4219 1451 3797 
Q 1122 3375 1075 2522 
Q 1259 2794 1537 2939 
Q 1816 3084 2150 3084 
Q 2853 3084 3261 2657 
Q 3669 2231 3669 1497 
Q 3669 778 3244 343 
Q 2819 -91 2113 -91 
Q 1303 -91 875 529 
Q 447 1150 447 2328 
Q 447 3434 972 4092 
Q 1497 4750 2381 4750 
Q 2619 4750 2861 4703 
Q 3103 4656 3366 4563 
z
" transform="scale(0.015625)"/>
       </defs>
       <use xlink:href="#DejaVuSans-36"/>
       <use xlink:href="#DejaVuSans-30" x="63.623047"/>
       <use xlink:href="#DejaVuSans-30" x="127.246094"/>
      </g>
     </g>
    </g>
    <g id="xtick_5">
     <g id="line2d_5">
      <g>
       <use xlink:href="#m56bc61140c" x="369.09704" y="313.2" style="stroke: #000000; stroke-width: 0.8"/>
      </g>
     </g>
     <g id="text_5">
      <!-- 800 -->
      <g transform="translate(359.55329 327.798437)scale(0.1 -0.1)">
       <defs>
        <path id="DejaVuSans-38" d="M 2034 2216 
Q 1584 2216 1326 1975 
Q 1069 1734 1069 1313 
Q 1069 891 1326 650 
Q 1584 409 2034 409 
Q 2484 409 2743 651 
Q 3003 894 3003 1313 
Q 3003 1734 2745 1975 
Q 2488 2216 2034 2216 
z
M 1403 2484 
Q 997 2584 770 2862 
Q 544 3141 544 3541 
Q 544 4100 942 4425 
Q 1341 4750 2034 4750 
Q 2731 4750 3128 4425 
Q 3525 4100 3525 3541 
Q 3525 3141 3298 2862 
Q 3072 2584 2669 2484 
Q 3125 2378 3379 2068 
Q 3634 1759 3634 1313 
Q 3634 634 3220 271 
Q 2806 -91 2034 -91 
Q 1263 -91 848 271 
Q 434 634 434 1313 
Q 434 1759 690 2068 
Q 947 2378 1403 2484 
z
M 1172 3481 
Q 1172 3119 1398 2916 
Q 1625 2713 2034 2713 
Q 2441 2713 2670 2916 
Q 2900 3119 2900 3481 
Q 2900 3844 2670 4047 
Q 2441 4250 2034 4250 
Q 1625 4250 1398 4047 
Q 1172 3844 1172 3481 
z
" transform="scale(0.015625)"/>
       </defs>
       <use xlink:href="#DejaVuSans-38"/>
       <use xlink:href="#DejaVuSans-30" x="63.623047"/>
       <use xlink:href="#DejaVuSans-30" x="127.246094"/>
      </g>
     </g>
    </g>
    <g id="xtick_6">
     <g id="line2d_6">
      <g>
       <use xlink:href="#m56bc61140c" x="442.788914" y="313.2" style="stroke: #000000; stroke-width: 0.8"/>
      </g>
     </g>
     <g id="text_6">
      <!-- 1000 -->
      <g transform="translate(430.063914 327.798437)scale(0.1 -0.1)">
       <defs>
        <path id="DejaVuSans-31" d="M 794 531 
L 1825 531 
L 1825 4091 
L 703 3866 
L 703 4441 
L 1819 4666 
L 2450 4666 
L 2450 531 
L 3481 531 
L 3481 0 
L 794 0 
L 794 531 
z
" transform="scale(0.015625)"/>
       </defs>
       <use xlink:href="#DejaVuSans-31"/>
       <use xlink:href="#DejaVuSans-30" x="63.623047"/>
       <use xlink:href="#DejaVuSans-30" x="127.246094"/>
       <use xlink:href="#DejaVuSans-30" x="190.869141"/>
      </g>
     </g>
    </g>
    <g id="text_7">
     <!-- Episode -->
     <g transform="translate(228.91875 345.275781)scale(0.15 -0.15)">
      <defs>
       <path id="DejaVuSans-45" d="M 628 4666 
L 3578 4666 
L 3578 4134 
L 1259 4134 
L 1259 2753 
L 3481 2753 
L 3481 2222 
L 1259 2222 
L 1259 531 
L 3634 531 
L 3634 0 
L 628 0 
L 628 4666 
z
" transform="scale(0.015625)"/>
       <path id="DejaVuSans-70" d="M 1159 525 
L 1159 -1331 
L 581 -1331 
L 581 3500 
L 1159 3500 
L 1159 2969 
Q 1341 3281 1617 3432 
Q 1894 3584 2278 3584 
Q 2916 3584 3314 3078 
Q 3713 2572 3713 1747 
Q 3713 922 3314 415 
Q 2916 -91 2278 -91 
Q 1894 -91 1617 61 
Q 1341 213 1159 525 
z
M 3116 1747 
Q 3116 2381 2855 2742 
Q 2594 3103 2138 3103 
Q 1681 3103 1420 2742 
Q 1159 2381 1159 1747 
Q 1159 1113 1420 752 
Q 1681 391 2138 391 
Q 2594 391 2855 752 
Q 3116 1113 3116 1747 
z
" transform="scale(0.015625)"/>
       <path id="DejaVuSans-69" d="M 603 3500 
L 1178 3500 
L 1178 0 
L 603 0 
L 603 3500 
z
M 603 4863 
L 1178 4863 
L 1178 4134 
L 603 4134 
L 603 4863 
z
" transform="scale(0.015625)"/>
       <path id="DejaVuSans-73" d="M 2834 3397 
L 2834 2853 
Q 2591 2978 2328 3040 
Q 2066 3103 1784 3103 
Q 1356 3103 1142 2972 
Q 928 2841 928 2578 
Q 928 2378 1081 2264 
Q 1234 2150 1697 2047 
L 1894 2003 
Q 2506 1872 2764 1633 
Q 3022 1394 3022 966 
Q 3022 478 2636 193 
Q 2250 -91 1575 -91 
Q 1294 -91 989 -36 
Q 684 19 347 128 
L 347 722 
Q 666 556 975 473 
Q 1284 391 1588 391 
Q 1994 391 2212 530 
Q 2431 669 2431 922 
Q 2431 1156 2273 1281 
Q 2116 1406 1581 1522 
L 1381 1569 
Q 847 1681 609 1914 
Q 372 2147 372 2553 
Q 372 3047 722 3315 
Q 1072 3584 1716 3584 
Q 2034 3584 2315 3537 
Q 2597 3491 2834 3397 
z
" transform="scale(0.015625)"/>
       <path id="DejaVuSans-6f" d="M 1959 3097 
Q 1497 3097 1228 2736 
Q 959 2375 959 1747 
Q 959 1119 1226 758 
Q 1494 397 1959 397 
Q 2419 397 2687 759 
Q 2956 1122 2956 1747 
Q 2956 2369 2687 2733 
Q 2419 3097 1959 3097 
z
M 1959 3584 
Q 2709 3584 3137 3096 
Q 3566 2609 3566 1747 
Q 3566 888 3137 398 
Q 2709 -91 1959 -91 
Q 1206 -91 779 398 
Q 353 888 353 1747 
Q 353 2609 779 3096 
Q 1206 3584 1959 3584 
z
" transform="scale(0.015625)"/>
       <path id="DejaVuSans-64" d="M 2906 2969 
L 2906 4863 
L 3481 4863 
L 3481 0 
L 2906 0 
L 2906 525 
Q 2725 213 2448 61 
Q 2172 -91 1784 -91 
Q 1150 -91 751 415 
Q 353 922 353 1747 
Q 353 2572 751 3078 
Q 1150 3584 1784 3584 
Q 2172 3584 2448 3432 
Q 2725 3281 2906 2969 
z
M 947 1747 
Q 947 1113 1208 752 
Q 1469 391 1925 391 
Q 2381 391 2643 752 
Q 2906 1113 2906 1747 
Q 2906 2381 2643 2742 
Q 2381 3103 1925 3103 
Q 1469 3103 1208 2742 
Q 947 2381 947 1747 
z
" transform="scale(0.015625)"/>
       <path id="DejaVuSans-65" d="M 3597 1894 
L 3597 1613 
L 953 1613 
Q 991 1019 1311 708 
Q 1631 397 2203 397 
Q 2534 397 2845 478 
Q 3156 559 3463 722 
L 3463 178 
Q 3153 47 2828 -22 
Q 2503 -91 2169 -91 
Q 1331 -91 842 396 
Q 353 884 353 1716 
Q 353 2575 817 3079 
Q 1281 3584 2069 3584 
Q 2775 3584 3186 3129 
Q 3597 2675 3597 1894 
z
M 3022 2063 
Q 3016 2534 2758 2815 
Q 2500 3097 2075 3097 
Q 1594 3097 1305 2825 
Q 1016 2553 972 2059 
L 3022 2063 
z
" transform="scale(0.015625)"/>
      </defs>
      <use xlink:href="#DejaVuSans-45"/>
      <use xlink:href="#DejaVuSans-70" x="63.183594"/>
      <use xlink:href="#DejaVuSans-69" x="126.660156"/>
      <use xlink:href="#DejaVuSans-73" x="154.443359"/>
      <use xlink:href="#DejaVuSans-6f" x="206.542969"/>
      <use xlink:href="#DejaVuSans-64" x="267.724609"/>
      <use xlink:href="#DejaVuSans-65" x="331.201172"/>
     </g>
    </g>
   </g>
   <g id="matplotlib.axis_2">
    <g id="ytick_1">
     <g id="line2d_7">
      <defs>
       <path id="m870c38af68" d="M 0 0 
L -3.5 0 
" style="stroke: #000000; stroke-width: 0.8"/>
      </defs>
      <g>
       <use xlink:href="#m870c38af68" x="55.925" y="313.2" style="stroke: #000000; stroke-width: 0.8"/>
      </g>
     </g>
     <g id="text_8">
      <!-- 0 -->
      <g transform="translate(42.5625 316.999219)scale(0.1 -0.1)">
       <use xlink:href="#DejaVuSans-30"/>
      </g>
     </g>
    </g>
    <g id="ytick_2">
     <g id="line2d_8">
      <g>
       <use xlink:href="#m870c38af68" x="55.925" y="269.446154" style="stroke: #000000; stroke-width: 0.8"/>
      </g>
     </g>
     <g id="text_9">
      <!-- 100 -->
      <g transform="translate(29.8375 273.245373)scale(0.1 -0.1)">
       <use xlink:href="#DejaVuSans-31"/>
       <use xlink:href="#DejaVuSans-30" x="63.623047"/>
       <use xlink:href="#DejaVuSans-30" x="127.246094"/>
      </g>
     </g>
    </g>
    <g id="ytick_3">
     <g id="line2d_9">
      <g>
       <use xlink:href="#m870c38af68" x="55.925" y="225.692308" style="stroke: #000000; stroke-width: 0.8"/>
      </g>
     </g>
     <g id="text_10">
      <!-- 200 -->
      <g transform="translate(29.8375 229.491526)scale(0.1 -0.1)">
       <use xlink:href="#DejaVuSans-32"/>
       <use xlink:href="#DejaVuSans-30" x="63.623047"/>
       <use xlink:href="#DejaVuSans-30" x="127.246094"/>
      </g>
     </g>
    </g>
    <g id="ytick_4">
     <g id="line2d_10">
      <g>
       <use xlink:href="#m870c38af68" x="55.925" y="181.938462" style="stroke: #000000; stroke-width: 0.8"/>
      </g>
     </g>
     <g id="text_11">
      <!-- 300 -->
      <g transform="translate(29.8375 185.73768)scale(0.1 -0.1)">
       <defs>
        <path id="DejaVuSans-33" d="M 2597 2516 
Q 3050 2419 3304 2112 
Q 3559 1806 3559 1356 
Q 3559 666 3084 287 
Q 2609 -91 1734 -91 
Q 1441 -91 1130 -33 
Q 819 25 488 141 
L 488 750 
Q 750 597 1062 519 
Q 1375 441 1716 441 
Q 2309 441 2620 675 
Q 2931 909 2931 1356 
Q 2931 1769 2642 2001 
Q 2353 2234 1838 2234 
L 1294 2234 
L 1294 2753 
L 1863 2753 
Q 2328 2753 2575 2939 
Q 2822 3125 2822 3475 
Q 2822 3834 2567 4026 
Q 2313 4219 1838 4219 
Q 1578 4219 1281 4162 
Q 984 4106 628 3988 
L 628 4550 
Q 988 4650 1302 4700 
Q 1616 4750 1894 4750 
Q 2613 4750 3031 4423 
Q 3450 4097 3450 3541 
Q 3450 3153 3228 2886 
Q 3006 2619 2597 2516 
z
" transform="scale(0.015625)"/>
       </defs>
       <use xlink:href="#DejaVuSans-33"/>
       <use xlink:href="#DejaVuSans-30" x="63.623047"/>
       <use xlink:href="#DejaVuSans-30" x="127.246094"/>
      </g>
     </g>
    </g>
    <g id="ytick_5">
     <g id="line2d_11">
      <g>
       <use xlink:href="#m870c38af68" x="55.925" y="138.184615" style="stroke: #000000; stroke-width: 0.8"/>
      </g>
     </g>
     <g id="text_12">
      <!-- 400 -->
      <g transform="translate(29.8375 141.983834)scale(0.1 -0.1)">
       <use xlink:href="#DejaVuSans-34"/>
       <use xlink:href="#DejaVuSans-30" x="63.623047"/>
       <use xlink:href="#DejaVuSans-30" x="127.246094"/>
      </g>
     </g>
    </g>
    <g id="ytick_6">
     <g id="line2d_12">
      <g>
       <use xlink:href="#m870c38af68" x="55.925" y="94.430769" style="stroke: #000000; stroke-width: 0.8"/>
      </g>
     </g>
     <g id="text_13">
      <!-- 500 -->
      <g transform="translate(29.8375 98.229988)scale(0.1 -0.1)">
       <defs>
        <path id="DejaVuSans-35" d="M 691 4666 
L 3169 4666 
L 3169 4134 
L 1269 4134 
L 1269 2991 
Q 1406 3038 1543 3061 
Q 1681 3084 1819 3084 
Q 2600 3084 3056 2656 
Q 3513 2228 3513 1497 
Q 3513 744 3044 326 
Q 2575 -91 1722 -91 
Q 1428 -91 1123 -41 
Q 819 9 494 109 
L 494 744 
Q 775 591 1075 516 
Q 1375 441 1709 441 
Q 2250 441 2565 725 
Q 2881 1009 2881 1497 
Q 2881 1984 2565 2268 
Q 2250 2553 1709 2553 
Q 1456 2553 1204 2497 
Q 953 2441 691 2322 
L 691 4666 
z
" transform="scale(0.015625)"/>
       </defs>
       <use xlink:href="#DejaVuSans-35"/>
       <use xlink:href="#DejaVuSans-30" x="63.623047"/>
       <use xlink:href="#DejaVuSans-30" x="127.246094"/>
      </g>
     </g>
    </g>
    <g id="ytick_7">
     <g id="line2d_13">
      <g>
       <use xlink:href="#m870c38af68" x="55.925" y="50.676923" style="stroke: #000000; stroke-width: 0.8"/>
      </g>
     </g>
     <g id="text_14">
      <!-- 600 -->
      <g transform="translate(29.8375 54.476142)scale(0.1 -0.1)">
       <use xlink:href="#DejaVuSans-36"/>
       <use xlink:href="#DejaVuSans-30" x="63.623047"/>
       <use xlink:href="#DejaVuSans-30" x="127.246094"/>
      </g>
     </g>
    </g>
    <g id="text_15">
     <!-- Score -->
     <g transform="translate(22.717969 192.003516)rotate(-90)scale(0.15 -0.15)">
      <defs>
       <path id="DejaVuSans-53" d="M 3425 4513 
L 3425 3897 
Q 3066 4069 2747 4153 
Q 2428 4238 2131 4238 
Q 1616 4238 1336 4038 
Q 1056 3838 1056 3469 
Q 1056 3159 1242 3001 
Q 1428 2844 1947 2747 
L 2328 2669 
Q 3034 2534 3370 2195 
Q 3706 1856 3706 1288 
Q 3706 609 3251 259 
Q 2797 -91 1919 -91 
Q 1588 -91 1214 -16 
Q 841 59 441 206 
L 441 856 
Q 825 641 1194 531 
Q 1563 422 1919 422 
Q 2459 422 2753 634 
Q 3047 847 3047 1241 
Q 3047 1584 2836 1778 
Q 2625 1972 2144 2069 
L 1759 2144 
Q 1053 2284 737 2584 
Q 422 2884 422 3419 
Q 422 4038 858 4394 
Q 1294 4750 2059 4750 
Q 2388 4750 2728 4690 
Q 3069 4631 3425 4513 
z
" transform="scale(0.015625)"/>
       <path id="DejaVuSans-63" d="M 3122 3366 
L 3122 2828 
Q 2878 2963 2633 3030 
Q 2388 3097 2138 3097 
Q 1578 3097 1268 2742 
Q 959 2388 959 1747 
Q 959 1106 1268 751 
Q 1578 397 2138 397 
Q 2388 397 2633 464 
Q 2878 531 3122 666 
L 3122 134 
Q 2881 22 2623 -34 
Q 2366 -91 2075 -91 
Q 1284 -91 818 406 
Q 353 903 353 1747 
Q 353 2603 823 3093 
Q 1294 3584 2113 3584 
Q 2378 3584 2631 3529 
Q 2884 3475 3122 3366 
z
" transform="scale(0.015625)"/>
       <path id="DejaVuSans-72" d="M 2631 2963 
Q 2534 3019 2420 3045 
Q 2306 3072 2169 3072 
Q 1681 3072 1420 2755 
Q 1159 2438 1159 1844 
L 1159 0 
L 581 0 
L 581 3500 
L 1159 3500 
L 1159 2956 
Q 1341 3275 1631 3429 
Q 1922 3584 2338 3584 
Q 2397 3584 2469 3576 
Q 2541 3569 2628 3553 
L 2631 2963 
z
" transform="scale(0.015625)"/>
      </defs>
      <use xlink:href="#DejaVuSans-53"/>
      <use xlink:href="#DejaVuSans-63" x="63.476562"/>
      <use xlink:href="#DejaVuSans-6f" x="118.457031"/>
      <use xlink:href="#DejaVuSans-72" x="179.638672"/>
      <use xlink:href="#DejaVuSans-65" x="218.501953"/>
     </g>
    </g>
   </g>
   <g id="line2d_14">
    <path d="M 74.329545 305.324308 
L 74.698005 305.324308 
L 75.066464 304.449231 
L 75.434924 289.135385 
L 75.803383 296.573538 
L 76.171842 307.949538 
L 76.540302 307.512 
L 76.908761 307.512 
L 77.27722 292.198154 
L 77.64568 307.074462 
L 78.014139 307.949538 
L 78.382599 307.949538 
L 78.751058 302.261538 
L 79.119517 309.262154 
L 79.487977 308.387077 
L 79.856436 299.198769 
L 80.224895 306.636923 
L 80.593355 300.511385 
L 80.961814 307.074462 
L 81.330273 305.761846 
L 81.698733 300.511385 
L 82.067192 303.574154 
L 82.435652 302.261538 
L 82.804111 297.886154 
L 83.54103 308.387077 
L 83.909489 304.011692 
L 84.277948 308.387077 
L 84.646408 306.636923 
L 85.014867 306.199385 
L 85.383327 304.011692 
L 85.751786 294.385846 
L 86.120245 305.761846 
L 86.488705 304.449231 
L 86.857164 295.260923 
L 87.225623 304.011692 
L 87.594083 305.324308 
L 87.962542 307.949538 
L 88.331001 296.573538 
L 88.699461 304.886769 
L 89.06792 307.074462 
L 89.43638 296.136 
L 89.804839 307.512 
L 90.173298 307.074462 
L 90.541758 305.324308 
L 90.910217 307.074462 
L 91.278676 288.260308 
L 91.647136 308.824615 
L 92.015595 305.761846 
L 92.384055 307.949538 
L 92.752514 308.387077 
L 93.120973 306.636923 
L 93.489433 297.886154 
L 94.226351 307.512 
L 94.594811 303.136615 
L 94.96327 307.074462 
L 95.331729 308.387077 
L 95.700189 302.261538 
L 96.068648 306.199385 
L 96.437108 307.949538 
L 96.805567 307.949538 
L 97.174026 277.321846 
L 97.542486 304.449231 
L 97.910945 299.636308 
L 98.279404 298.761231 
L 98.647864 300.511385 
L 99.016323 308.387077 
L 99.384783 303.136615 
L 99.753242 307.949538 
L 100.121701 302.261538 
L 100.490161 306.636923 
L 100.85862 296.136 
L 101.227079 307.949538 
L 101.595539 307.512 
L 101.963998 305.324308 
L 102.332457 300.948923 
L 102.700917 305.324308 
L 103.069376 306.636923 
L 103.437836 303.574154 
L 103.806295 305.761846 
L 104.174754 306.199385 
L 104.543214 290.885538 
L 104.911673 307.074462 
L 105.648592 302.699077 
L 106.017051 307.512 
L 106.385511 297.448615 
L 106.75397 298.761231 
L 107.122429 300.511385 
L 107.490889 293.948308 
L 107.859348 290.010462 
L 108.227807 300.948923 
L 108.596267 301.824 
L 108.964726 306.636923 
L 109.333185 304.886769 
L 109.701645 290.448 
L 110.070104 300.073846 
L 110.438564 286.947692 
L 110.807023 301.824 
L 111.175482 304.011692 
L 111.543942 300.511385 
L 111.912401 307.949538 
L 112.28086 291.323077 
L 112.64932 285.635077 
L 113.017779 299.636308 
L 113.386239 303.574154 
L 113.754698 301.386462 
L 114.123157 306.636923 
L 114.491617 308.824615 
L 114.860076 295.698462 
L 115.228535 302.261538 
L 115.596995 297.011077 
L 115.965454 308.387077 
L 116.333913 309.262154 
L 116.702373 303.574154 
L 117.070832 307.074462 
L 117.439292 285.635077 
L 117.807751 306.636923 
L 118.17621 294.385846 
L 118.54467 307.949538 
L 118.913129 305.761846 
L 119.281588 301.824 
L 119.650048 300.073846 
L 120.018507 288.260308 
L 120.386967 305.761846 
L 120.755426 305.761846 
L 121.123885 292.198154 
L 121.492345 303.574154 
L 121.860804 306.199385 
L 122.229263 295.260923 
L 122.597723 307.512 
L 122.966182 303.136615 
L 123.334641 304.011692 
L 123.703101 303.136615 
L 124.07156 305.324308 
L 124.44002 303.574154 
L 124.808479 309.699692 
L 125.176938 304.449231 
L 125.545398 309.262154 
L 125.913857 303.574154 
L 126.282316 292.635692 
L 126.650776 304.886769 
L 127.019235 301.386462 
L 127.387695 305.324308 
L 127.756154 306.199385 
L 128.124613 302.699077 
L 128.493073 295.260923 
L 128.861532 304.011692 
L 129.229991 304.011692 
L 129.598451 298.761231 
L 129.96691 306.636923 
L 130.335369 305.761846 
L 130.703829 304.011692 
L 131.072288 307.512 
L 131.440748 305.761846 
L 131.809207 305.761846 
L 132.177666 304.011692 
L 132.546126 295.260923 
L 132.914585 306.636923 
L 133.283044 300.073846 
L 133.651504 298.761231 
L 134.019963 293.073231 
L 134.388423 285.197538 
L 134.756882 294.385846 
L 135.125341 297.448615 
L 135.493801 290.010462 
L 135.86226 306.636923 
L 136.230719 305.324308 
L 136.599179 297.448615 
L 136.967638 304.449231 
L 137.336097 301.824 
L 137.704557 307.512 
L 138.073016 305.761846 
L 138.441476 304.886769 
L 138.809935 299.636308 
L 139.178394 306.636923 
L 139.546854 307.949538 
L 139.915313 308.824615 
L 140.283772 297.011077 
L 140.652232 291.323077 
L 141.020691 301.824 
L 141.389151 306.636923 
L 141.75761 302.699077 
L 142.126069 307.949538 
L 142.494529 293.948308 
L 142.862988 299.198769 
L 143.231447 296.136 
L 143.599907 307.512 
L 143.968366 307.949538 
L 144.336825 293.510769 
L 144.705285 304.449231 
L 145.073744 305.324308 
L 145.442204 300.511385 
L 145.810663 308.387077 
L 146.179122 301.824 
L 146.547582 270.758769 
L 146.916041 290.010462 
L 147.2845 292.635692 
L 147.65296 301.824 
L 148.021419 297.448615 
L 148.389879 276.884308 
L 148.758338 302.699077 
L 149.126797 296.573538 
L 149.495257 304.011692 
L 149.863716 299.198769 
L 150.232175 286.072615 
L 150.600635 293.073231 
L 150.969094 278.196923 
L 151.337553 297.448615 
L 151.706013 286.947692 
L 152.074472 302.699077 
L 152.442932 296.573538 
L 152.811391 301.386462 
L 153.17985 302.699077 
L 153.54831 299.636308 
L 153.916769 264.633231 
L 154.285228 294.385846 
L 154.653688 304.449231 
L 155.022147 302.699077 
L 155.390607 306.199385 
L 155.759066 306.199385 
L 156.127525 304.449231 
L 156.495985 307.074462 
L 156.864444 303.574154 
L 157.232903 297.886154 
L 157.601363 304.886769 
L 157.969822 299.636308 
L 158.338281 262.883077 
L 158.706741 304.011692 
L 159.0752 300.073846 
L 159.44366 270.758769 
L 160.180578 302.261538 
L 160.549038 301.824 
L 160.917497 274.696615 
L 161.285956 297.886154 
L 161.654416 239.256 
L 162.022875 293.510769 
L 162.759794 266.383385 
L 163.496713 308.824615 
L 163.865172 297.886154 
L 164.233631 302.699077 
L 164.602091 297.886154 
L 164.97055 283.009846 
L 165.339009 296.573538 
L 165.707469 305.324308 
L 166.075928 289.135385 
L 166.444388 291.323077 
L 166.812847 270.321231 
L 167.181306 272.946462 
L 167.549766 273.384 
L 167.918225 284.322462 
L 168.286684 248.444308 
L 168.655144 287.822769 
L 169.023603 276.009231 
L 169.392063 305.324308 
L 169.760522 289.572923 
L 170.128981 304.449231 
L 170.497441 285.635077 
L 170.8659 252.819692 
L 171.234359 279.072 
L 171.602819 271.633846 
L 171.971278 290.448 
L 172.339737 297.011077 
L 172.708197 279.947077 
L 173.076656 276.446769 
L 173.445116 262.445538 
L 173.813575 239.693538 
L 174.182034 277.759385 
L 174.550494 279.947077 
L 174.918953 295.260923 
L 175.287412 256.32 
L 175.655872 250.632 
L 176.392791 258.070154 
L 176.76125 261.132923 
L 177.129709 265.945846 
L 177.498169 308.387077 
L 177.866628 245.819077 
L 178.235087 292.198154 
L 178.603547 268.571077 
L 178.972006 292.635692 
L 179.340465 266.820923 
L 179.708925 266.383385 
L 180.077384 280.384615 
L 180.445844 254.132308 
L 180.814303 241.006154 
L 181.182762 261.132923 
L 181.551222 267.696 
L 181.919681 237.505846 
L 182.28814 268.571077 
L 182.6566 278.196923 
L 183.025059 296.573538 
L 183.393519 276.446769 
L 184.130437 281.259692 
L 184.498897 263.320615 
L 184.867356 261.132923 
L 185.235815 249.319385 
L 185.604275 300.948923 
L 185.972734 259.382769 
L 186.341193 298.323692 
L 186.709653 276.884308 
L 187.078112 272.071385 
L 187.446572 283.447385 
L 187.815031 255.007385 
L 188.18349 286.072615 
L 188.55195 219.566769 
L 188.920409 276.009231 
L 189.288868 276.009231 
L 189.657328 279.072 
L 190.025787 273.821538 
L 190.394247 294.385846 
L 191.131165 241.006154 
L 191.499625 248.881846 
L 192.236543 291.760615 
L 192.605003 250.194462 
L 192.973462 280.384615 
L 193.341921 265.945846 
L 193.710381 245.381538 
L 194.07884 306.636923 
L 194.4473 251.069538 
L 194.815759 232.255385 
L 195.184218 280.384615 
L 195.552678 258.507692 
L 195.921137 255.444923 
L 196.289596 293.073231 
L 196.658056 252.819692 
L 197.026515 261.570462 
L 197.394975 153.936 
L 197.763434 262.883077 
L 198.131893 265.070769 
L 198.500353 268.133538 
L 199.237271 256.757538 
L 199.605731 283.009846 
L 199.97419 240.568615 
L 200.342649 245.381538 
L 200.711109 283.009846 
L 201.079568 273.821538 
L 201.448028 279.947077 
L 201.816487 275.134154 
L 202.184946 265.945846 
L 202.553406 264.195692 
L 203.290324 297.448615 
L 203.658784 282.572308 
L 204.027243 228.755077 
L 204.395703 259.382769 
L 204.764162 307.074462 
L 205.132621 272.508923 
L 205.501081 258.507692 
L 205.86954 237.068308 
L 206.237999 260.695385 
L 206.606459 262.883077 
L 206.974918 244.944 
L 207.343377 264.195692 
L 207.711837 259.382769 
L 208.080296 251.069538 
L 208.448756 262.445538 
L 208.817215 255.007385 
L 209.185674 263.758154 
L 209.554134 262.883077 
L 209.922593 265.508308 
L 210.291052 272.071385 
L 211.027971 251.069538 
L 211.396431 255.444923 
L 211.76489 245.819077 
L 212.133349 244.506462 
L 212.501809 261.570462 
L 212.870268 296.573538 
L 213.238727 284.322462 
L 213.607187 230.942769 
L 213.975646 250.632 
L 214.344105 246.256615 
L 214.712565 275.571692 
L 215.449484 240.568615 
L 215.817943 265.508308 
L 216.186402 264.633231 
L 216.554862 265.508308 
L 216.923321 234.880615 
L 217.29178 262.883077 
L 217.66024 300.948923 
L 218.028699 265.945846 
L 218.397159 265.070769 
L 218.765618 274.696615 
L 219.134077 269.883692 
L 219.502537 260.695385 
L 219.870996 247.131692 
L 220.239455 255.882462 
L 220.607915 285.635077 
L 221.344833 246.694154 
L 221.713293 256.757538 
L 222.081752 262.445538 
L 222.818671 286.947692 
L 223.18713 263.320615 
L 223.55559 263.320615 
L 224.292508 277.759385 
L 224.660968 269.883692 
L 225.029427 266.383385 
L 225.397887 236.193231 
L 225.766346 270.758769 
L 226.134805 273.384 
L 226.503265 230.942769 
L 226.871724 259.820308 
L 227.240183 262.883077 
L 227.608643 231.817846 
L 227.977102 280.384615 
L 228.345561 253.257231 
L 229.08248 279.947077 
L 229.45094 259.820308 
L 229.819399 268.571077 
L 230.187858 284.76 
L 230.556318 257.632615 
L 230.924777 266.820923 
L 231.293236 296.573538 
L 231.661696 241.881231 
L 232.030155 286.510154 
L 232.398615 295.260923 
L 232.767074 287.822769 
L 233.135533 253.694769 
L 233.503993 269.883692 
L 233.872452 261.570462 
L 234.240911 269.446154 
L 234.609371 270.321231 
L 235.346289 262.008 
L 235.714749 253.257231 
L 236.083208 235.755692 
L 236.451668 303.574154 
L 236.820127 284.322462 
L 237.188586 286.947692 
L 237.557046 287.385231 
L 237.925505 301.386462 
L 238.293964 249.319385 
L 238.662424 260.695385 
L 239.030883 281.697231 
L 239.399343 240.568615 
L 239.767802 272.508923 
L 240.136261 283.009846 
L 240.504721 262.008 
L 240.87318 265.070769 
L 241.241639 262.883077 
L 241.610099 263.758154 
L 241.978558 255.007385 
L 242.347017 258.070154 
L 242.715477 271.633846 
L 243.083936 272.946462 
L 243.452396 260.257846 
L 243.820855 266.820923 
L 244.189314 234.005538 
L 244.557774 255.007385 
L 244.926233 265.070769 
L 245.294692 229.630154 
L 245.663152 268.133538 
L 246.031611 264.633231 
L 246.400071 254.569846 
L 246.76853 254.132308 
L 247.136989 237.505846 
L 247.505449 271.633846 
L 247.873908 255.882462 
L 248.242367 265.508308 
L 248.610827 244.944 
L 249.347745 274.259077 
L 249.716205 283.009846 
L 250.084664 269.008615 
L 250.453124 273.384 
L 250.821583 253.257231 
L 251.190042 272.071385 
L 251.558502 272.071385 
L 251.926961 272.946462 
L 252.29542 262.008 
L 252.66388 274.696615 
L 253.032339 281.697231 
L 253.400799 268.571077 
L 253.769258 259.820308 
L 254.137717 274.696615 
L 254.506177 278.196923 
L 254.874636 275.571692 
L 255.243095 280.822154 
L 255.611555 251.069538 
L 255.980014 261.132923 
L 256.348473 275.571692 
L 256.716933 245.819077 
L 257.085392 254.132308 
L 257.453852 275.134154 
L 257.822311 273.821538 
L 258.19077 255.007385 
L 258.55923 269.446154 
L 258.927689 256.32 
L 259.664608 278.196923 
L 260.401527 272.508923 
L 260.769986 264.195692 
L 261.138445 265.508308 
L 261.506905 267.258462 
L 261.875364 272.508923 
L 262.243823 275.571692 
L 262.612283 271.196308 
L 262.980742 274.259077 
L 263.349201 269.446154 
L 263.717661 270.758769 
L 264.08612 274.696615 
L 264.45458 269.008615 
L 265.191498 272.071385 
L 265.559958 277.321846 
L 265.928417 271.633846 
L 266.296876 280.384615 
L 266.665336 255.007385 
L 267.033795 266.820923 
L 267.402255 271.633846 
L 268.139173 266.820923 
L 268.507633 269.883692 
L 268.876092 279.947077 
L 269.244551 278.634462 
L 269.98147 258.507692 
L 270.349929 269.446154 
L 270.718389 265.945846 
L 271.086848 244.068923 
L 271.455308 269.883692 
L 271.823767 258.507692 
L 272.560686 280.384615 
L 273.297604 256.757538 
L 273.666064 267.258462 
L 274.034523 269.883692 
L 274.402983 275.571692 
L 274.771442 271.633846 
L 275.139901 265.070769 
L 275.508361 267.258462 
L 275.87682 265.508308 
L 276.245279 275.571692 
L 276.613739 276.884308 
L 276.982198 263.758154 
L 277.350657 262.445538 
L 277.719117 272.071385 
L 278.087576 253.257231 
L 278.456036 265.945846 
L 278.824495 260.695385 
L 279.192954 265.945846 
L 279.561414 268.571077 
L 279.929873 266.820923 
L 280.298332 275.134154 
L 280.666792 272.071385 
L 281.035251 265.508308 
L 281.403711 263.758154 
L 282.140629 278.634462 
L 282.509089 276.884308 
L 282.877548 267.258462 
L 283.246007 276.446769 
L 283.614467 269.008615 
L 283.982926 265.945846 
L 284.351385 267.696 
L 284.719845 278.634462 
L 285.088304 275.571692 
L 285.456764 280.822154 
L 285.825223 280.384615 
L 286.193682 276.884308 
L 286.562142 279.072 
L 286.930601 283.009846 
L 287.29906 270.758769 
L 287.66752 279.947077 
L 288.035979 269.883692 
L 288.404439 279.509538 
L 288.772898 271.633846 
L 289.141357 276.009231 
L 289.509817 265.945846 
L 289.878276 273.384 
L 290.246735 276.446769 
L 290.615195 268.571077 
L 290.983654 239.693538 
L 291.352113 268.133538 
L 292.089032 275.134154 
L 292.457492 272.508923 
L 292.825951 278.196923 
L 293.19441 258.507692 
L 293.56287 276.884308 
L 293.931329 266.383385 
L 294.299788 273.384 
L 294.668248 272.508923 
L 295.036707 276.884308 
L 295.405167 270.758769 
L 295.773626 250.632 
L 296.142085 279.072 
L 296.510545 269.446154 
L 296.879004 273.821538 
L 297.247463 275.134154 
L 297.615923 260.257846 
L 297.984382 276.446769 
L 298.352841 279.947077 
L 298.721301 274.696615 
L 299.08976 266.383385 
L 299.45822 272.946462 
L 299.826679 268.133538 
L 300.195138 275.571692 
L 300.563598 275.571692 
L 300.932057 266.383385 
L 301.300516 272.071385 
L 301.668976 267.696 
L 302.037435 255.007385 
L 302.405895 276.884308 
L 302.774354 270.758769 
L 303.142813 277.321846 
L 303.511273 278.634462 
L 303.879732 277.759385 
L 304.248191 268.133538 
L 304.616651 269.446154 
L 304.98511 268.133538 
L 305.353569 262.008 
L 305.722029 273.384 
L 306.090488 277.321846 
L 306.458948 277.759385 
L 306.827407 278.634462 
L 307.564326 265.070769 
L 307.932785 276.884308 
L 308.301244 277.321846 
L 308.669704 278.634462 
L 309.038163 273.384 
L 309.406623 255.444923 
L 309.775082 268.571077 
L 310.143541 270.321231 
L 310.512001 268.133538 
L 310.88046 271.633846 
L 311.248919 273.821538 
L 311.617379 274.259077 
L 311.985838 277.321846 
L 312.354297 267.696 
L 312.722757 254.132308 
L 313.091216 257.195077 
L 313.459676 274.259077 
L 313.828135 279.947077 
L 314.196594 239.693538 
L 314.565054 267.696 
L 314.933513 265.508308 
L 315.301972 275.134154 
L 315.670432 245.381538 
L 316.038891 275.134154 
L 316.407351 247.569231 
L 316.77581 280.384615 
L 317.144269 267.696 
L 317.512729 267.258462 
L 317.881188 263.758154 
L 318.249647 269.883692 
L 318.618107 280.384615 
L 319.355025 269.008615 
L 319.723485 269.446154 
L 320.091944 246.256615 
L 320.460404 270.758769 
L 320.828863 277.321846 
L 321.565782 267.258462 
L 321.934241 274.696615 
L 322.3027 268.133538 
L 322.67116 280.384615 
L 323.039619 267.258462 
L 323.408079 276.884308 
L 323.776538 254.132308 
L 324.144997 268.571077 
L 324.513457 251.069538 
L 324.881916 276.009231 
L 325.250375 279.072 
L 325.618835 274.259077 
L 326.355753 268.571077 
L 326.724213 276.446769 
L 327.092672 266.383385 
L 327.461132 266.820923 
L 327.829591 260.695385 
L 328.19805 275.134154 
L 328.56651 262.445538 
L 328.934969 265.070769 
L 329.303428 276.884308 
L 329.671888 275.134154 
L 330.040347 265.945846 
L 330.408807 219.129231 
L 330.777266 263.758154 
L 331.145725 268.571077 
L 331.514185 270.758769 
L 331.882644 276.446769 
L 332.251103 267.258462 
L 332.619563 264.633231 
L 332.988022 245.819077 
L 333.356481 270.758769 
L 333.724941 269.883692 
L 334.0934 262.883077 
L 334.46186 273.384 
L 334.830319 272.946462 
L 335.198778 263.320615 
L 335.567238 279.509538 
L 335.935697 274.259077 
L 336.304156 260.695385 
L 336.672616 269.446154 
L 337.041075 266.383385 
L 337.409535 269.883692 
L 337.777994 257.195077 
L 338.146453 276.009231 
L 338.514913 251.944615 
L 338.883372 271.633846 
L 339.251831 266.383385 
L 339.620291 269.008615 
L 339.98875 261.132923 
L 340.357209 261.132923 
L 340.725669 263.758154 
L 341.094128 277.759385 
L 341.462588 251.944615 
L 341.831047 259.382769 
L 342.199506 248.006769 
L 342.567966 270.758769 
L 342.936425 263.758154 
L 343.304884 266.820923 
L 343.673344 273.821538 
L 344.041803 255.444923 
L 344.410263 272.071385 
L 344.778722 260.257846 
L 345.147181 263.758154 
L 345.515641 253.257231 
L 345.8841 269.446154 
L 346.252559 269.883692 
L 346.621019 272.071385 
L 346.989478 267.258462 
L 347.357937 267.696 
L 347.726397 265.508308 
L 348.094856 268.133538 
L 348.463316 256.757538 
L 348.831775 270.758769 
L 349.200234 273.821538 
L 349.568694 270.321231 
L 349.937153 269.008615 
L 350.305612 258.070154 
L 350.674072 275.134154 
L 351.410991 257.632615 
L 351.77945 271.633846 
L 352.147909 274.696615 
L 352.516369 268.133538 
L 352.884828 265.508308 
L 353.253287 272.946462 
L 353.621747 265.508308 
L 354.727125 276.446769 
L 355.095584 260.695385 
L 355.464044 283.447385 
L 355.832503 268.571077 
L 356.200962 274.259077 
L 356.569422 273.821538 
L 356.937881 272.946462 
L 357.30634 272.508923 
L 357.6748 275.571692 
L 358.043259 272.071385 
L 358.411719 265.508308 
L 358.780178 271.633846 
L 359.148637 270.758769 
L 359.517097 272.508923 
L 359.885556 254.132308 
L 360.254015 263.320615 
L 360.622475 230.505231 
L 360.990934 272.071385 
L 361.359393 259.820308 
L 362.096312 269.446154 
L 362.464772 260.695385 
L 362.833231 269.446154 
L 363.20169 259.382769 
L 363.57015 280.384615 
L 363.938609 251.069538 
L 364.307068 264.195692 
L 364.675528 269.883692 
L 365.043987 267.696 
L 365.412447 270.321231 
L 365.780906 276.884308 
L 366.149365 239.256 
L 366.517825 266.820923 
L 366.886284 265.508308 
L 367.254743 263.758154 
L 367.623203 243.631385 
L 367.991662 265.070769 
L 368.360121 251.944615 
L 368.728581 265.070769 
L 369.09704 216.504 
L 369.4655 269.883692 
L 369.833959 248.444308 
L 370.202418 264.633231 
L 370.570878 264.633231 
L 370.939337 267.696 
L 371.307796 255.882462 
L 371.676256 251.507077 
L 372.044715 268.571077 
L 372.413175 263.758154 
L 372.781634 266.820923 
L 373.150093 248.006769 
L 373.518553 263.758154 
L 373.887012 265.508308 
L 374.255471 275.571692 
L 374.623931 260.695385 
L 374.99239 258.507692 
L 375.360849 269.446154 
L 375.729309 267.696 
L 376.097768 243.193846 
L 376.466228 246.256615 
L 376.834687 244.944 
L 377.203146 265.070769 
L 377.571606 255.882462 
L 377.940065 263.758154 
L 378.308524 260.695385 
L 378.676984 237.505846 
L 379.045443 262.883077 
L 379.413903 271.196308 
L 379.782362 269.446154 
L 380.150821 253.257231 
L 380.519281 244.506462 
L 380.88774 251.507077 
L 381.256199 274.259077 
L 381.624659 273.821538 
L 382.361577 263.320615 
L 382.730037 255.007385 
L 383.098496 268.571077 
L 383.466956 269.446154 
L 383.835415 275.571692 
L 384.203874 223.504615 
L 384.572334 265.070769 
L 384.940793 260.257846 
L 385.309252 270.321231 
L 385.677712 258.070154 
L 386.046171 269.008615 
L 386.414631 268.133538 
L 386.78309 240.131077 
L 387.520009 276.884308 
L 387.888468 258.945231 
L 388.256927 269.008615 
L 388.625387 261.570462 
L 388.993846 275.571692 
L 389.362305 266.820923 
L 389.730765 264.195692 
L 390.099224 262.445538 
L 390.467684 276.009231 
L 390.836143 236.630769 
L 391.204602 270.321231 
L 391.573062 250.632 
L 391.941521 273.821538 
L 392.30998 265.945846 
L 392.67844 271.196308 
L 393.046899 272.946462 
L 393.415359 244.944 
L 393.783818 269.883692 
L 394.152277 251.069538 
L 394.520737 259.820308 
L 394.889196 256.32 
L 395.257655 270.321231 
L 395.626115 236.630769 
L 395.994574 263.758154 
L 396.363033 267.696 
L 396.731493 261.570462 
L 397.099952 259.820308 
L 397.468412 271.196308 
L 397.836871 274.259077 
L 398.20533 258.507692 
L 398.57379 265.508308 
L 398.942249 255.882462 
L 399.310708 268.133538 
L 399.679168 264.195692 
L 400.047627 264.195692 
L 400.416087 264.633231 
L 400.784546 273.821538 
L 401.153005 268.571077 
L 401.521465 258.945231 
L 402.258383 274.259077 
L 402.626843 257.632615 
L 402.995302 264.195692 
L 403.363761 259.820308 
L 404.10068 273.384 
L 404.46914 275.571692 
L 404.837599 259.382769 
L 405.206058 268.133538 
L 405.574518 239.693538 
L 405.942977 253.694769 
L 406.311436 260.257846 
L 406.679896 254.132308 
L 407.048355 225.254769 
L 407.416815 267.258462 
L 407.785274 276.009231 
L 408.153733 247.569231 
L 408.522193 271.196308 
L 408.890652 264.195692 
L 409.259111 275.134154 
L 409.627571 268.133538 
L 409.99603 274.696615 
L 410.364489 261.570462 
L 410.732949 260.695385 
L 411.101408 263.758154 
L 411.469868 256.757538 
L 411.838327 267.258462 
L 412.206786 262.445538 
L 412.575246 272.071385 
L 412.943705 271.633846 
L 413.312164 235.318154 
L 413.680624 274.696615 
L 414.049083 249.756923 
L 414.417543 260.695385 
L 414.786002 254.569846 
L 415.154461 236.630769 
L 415.522921 265.945846 
L 415.89138 239.693538 
L 416.259839 271.196308 
L 416.628299 267.696 
L 416.996758 261.570462 
L 417.365217 264.195692 
L 417.733677 256.32 
L 418.102136 253.257231 
L 418.470596 253.257231 
L 418.839055 258.945231 
L 419.207514 261.570462 
L 419.575974 260.257846 
L 419.944433 262.008 
L 420.312892 271.633846 
L 420.681352 254.569846 
L 421.049811 247.131692 
L 421.418271 253.694769 
L 421.78673 268.133538 
L 422.155189 266.820923 
L 422.523649 258.945231 
L 422.892108 258.945231 
L 423.260567 269.008615 
L 423.629027 258.945231 
L 423.997486 265.945846 
L 424.365945 264.195692 
L 425.102864 253.257231 
L 425.471324 272.508923 
L 425.839783 260.695385 
L 426.208242 211.691077 
L 426.945161 272.508923 
L 427.31362 272.071385 
L 427.68208 248.444308 
L 428.050539 264.633231 
L 428.418999 258.945231 
L 428.787458 269.883692 
L 429.155917 247.131692 
L 429.524377 266.820923 
L 429.892836 235.755692 
L 430.629755 272.946462 
L 430.998214 255.882462 
L 431.366673 266.383385 
L 431.735133 265.508308 
L 432.103592 267.258462 
L 432.472052 258.070154 
L 432.840511 269.446154 
L 433.20897 253.257231 
L 433.57743 260.695385 
L 434.682808 273.821538 
L 435.051267 256.757538 
L 435.419727 272.071385 
L 435.788186 264.633231 
L 436.156645 265.945846 
L 436.525105 272.071385 
L 436.893564 248.881846 
L 437.262023 265.508308 
L 437.630483 265.508308 
L 437.998942 273.384 
L 438.735861 252.819692 
L 439.10432 269.883692 
L 439.47278 261.132923 
L 439.841239 268.571077 
L 440.209698 265.945846 
L 440.578158 268.133538 
L 440.946617 272.508923 
L 441.315076 271.196308 
L 441.683536 253.694769 
L 442.051995 258.507692 
L 442.420455 226.129846 
L 442.420455 226.129846 
" clip-path="url(#p9eb4170d30)" style="fill: none; stroke: #708090; stroke-width: 1.5; stroke-linecap: square"/>
   </g>
   <g id="line2d_15">
    <path d="M 74.329545 303.670412 
L 75.066464 303.75792 
L 75.434924 303.626658 
L 76.171842 304.125452 
L 76.908761 304.020443 
L 77.27722 304.037945 
L 77.64568 304.239212 
L 78.751058 304.221711 
L 79.119517 303.722917 
L 80.593355 303.320382 
L 80.961814 303.477895 
L 81.330273 303.399138 
L 82.435652 303.539151 
L 82.804111 303.41664 
L 83.17257 303.617908 
L 83.54103 303.687914 
L 85.383327 303.451643 
L 85.751786 303.486646 
L 86.120245 303.722917 
L 86.488705 303.425391 
L 86.857164 303.477895 
L 87.225623 303.670412 
L 87.962542 303.687914 
L 88.331001 303.477895 
L 88.699461 303.521649 
L 89.06792 303.434142 
L 89.43638 303.171618 
L 90.541758 302.812837 
L 91.647136 302.839089 
L 92.015595 302.664074 
L 92.384055 302.287791 
L 93.489433 301.955262 
L 93.857892 302.156529 
L 94.226351 301.920258 
L 94.594811 301.48272 
L 96.068648 301.290203 
L 96.437108 301.342708 
L 97.174026 300.983926 
L 97.542486 301.377711 
L 97.910945 301.456468 
L 98.647864 301.745243 
L 99.016323 301.876505 
L 99.384783 301.421465 
L 99.753242 301.491471 
L 100.121701 301.220197 
L 100.490161 301.333957 
L 100.85862 301.316455 
L 101.227079 301.430215 
L 101.595539 301.272702 
L 101.963998 300.887668 
L 102.700917 300.992677 
L 103.069376 300.730154 
L 103.437836 300.668898 
L 103.806295 300.721403 
L 104.174754 300.511385 
L 104.543214 300.537637 
L 104.911673 300.782658 
L 105.648592 300.6864 
L 106.017051 300.738905 
L 106.385511 300.660148 
L 107.122429 301.018929 
L 108.227807 301.438966 
L 108.964726 301.508972 
L 109.701645 301.508972 
L 110.070104 301.753994 
L 110.438564 301.657735 
L 110.807023 301.999015 
L 111.175482 302.042769 
L 111.543942 301.93776 
L 111.912401 302.060271 
L 112.28086 302.016517 
L 112.64932 302.270289 
L 113.017779 302.707828 
L 113.754698 302.874092 
L 114.123157 302.926597 
L 114.491617 302.699077 
L 114.860076 302.655323 
L 115.228535 302.742831 
L 115.965454 302.594068 
L 116.702373 301.832751 
L 117.070832 301.71024 
L 117.439292 301.36896 
L 117.807751 301.788997 
L 119.281588 301.675237 
L 120.018507 301.902757 
L 120.386967 302.235286 
L 120.755426 302.112775 
L 121.123885 302.130277 
L 121.492345 302.445305 
L 121.860804 302.550314 
L 122.597723 302.287791 
L 122.966182 302.174031 
L 124.07156 302.314043 
L 124.44002 302.086523 
L 124.808479 301.999015 
L 125.176938 301.727742 
L 125.913857 301.762745 
L 126.282316 301.561477 
L 126.650776 301.797748 
L 128.124613 301.762745 
L 128.493073 301.123938 
L 128.861532 301.018929 
L 129.229991 300.791409 
L 129.96691 300.721403 
L 130.335369 300.126351 
L 131.440748 299.846326 
L 131.809207 299.715065 
L 132.177666 299.32128 
L 133.283044 298.577465 
L 133.651504 298.314942 
L 134.388423 298.463705 
L 134.756882 298.787483 
L 135.125341 298.953748 
L 135.493801 298.997502 
L 135.86226 298.489957 
L 136.230719 298.244935 
L 136.599179 298.227434 
L 137.704557 298.454954 
L 138.441476 298.419951 
L 139.546854 298.323692 
L 139.915313 298.157428 
L 140.283772 297.238597 
L 141.020691 297.553625 
L 141.75761 296.512283 
L 142.126069 296.503532 
L 142.494529 296.381022 
L 142.862988 295.995988 
L 143.231447 295.969735 
L 143.599907 294.832135 
L 143.968366 294.552111 
L 144.705285 293.467015 
L 145.073744 293.160738 
L 145.442204 293.230745 
L 146.547582 292.985723 
L 147.65296 293.615778 
L 148.389879 293.239495 
L 148.758338 293.108234 
L 149.495257 292.049391 
L 149.863716 291.655606 
L 150.232175 290.640517 
L 150.600635 290.67552 
L 150.969094 290.33424 
L 151.337553 290.876788 
L 151.706013 290.719274 
L 152.074472 291.069305 
L 152.442932 290.728025 
L 152.811391 289.852948 
L 153.17985 289.406658 
L 153.54831 288.785354 
L 153.916769 288.601588 
L 154.285228 289.249145 
L 154.653688 288.960369 
L 155.022147 288.40032 
L 155.390607 287.595249 
L 155.759066 286.265132 
L 156.495985 285.206289 
L 156.864444 284.970018 
L 158.338281 281.242191 
L 158.706741 281.207188 
L 159.0752 280.445871 
L 159.44366 280.612135 
L 159.812119 280.113342 
L 160.180578 280.244603 
L 160.549038 279.570794 
L 161.285956 279.229514 
L 161.654416 278.599458 
L 162.022875 279.422031 
L 162.759794 277.838142 
L 163.128253 277.733132 
L 163.496713 277.304345 
L 163.865172 275.877969 
L 164.602091 274.801625 
L 165.339009 274.644111 
L 166.075928 273.804037 
L 167.181306 272.263902 
L 167.549766 272.823951 
L 167.918225 272.543926 
L 168.286684 272.823951 
L 168.655144 273.392751 
L 169.023603 273.077723 
L 169.392063 273.226486 
L 169.760522 272.220148 
L 170.128981 272.150142 
L 170.497441 270.452492 
L 170.8659 270.259975 
L 171.234359 270.723766 
L 171.971278 270.76752 
L 172.339737 270.846277 
L 173.445116 268.868603 
L 173.813575 269.096123 
L 174.182034 270.137465 
L 174.550494 269.586166 
L 174.918953 269.594917 
L 175.287412 269.008615 
L 175.655872 268.789846 
L 176.024331 269.909945 
L 176.392791 269.839938 
L 176.76125 269.323643 
L 177.129709 269.708677 
L 177.498169 269.559914 
L 177.866628 268.501071 
L 178.235087 269.446154 
L 178.603547 268.658585 
L 178.972006 268.518572 
L 179.340465 265.744578 
L 180.077384 265.639569 
L 180.445844 265.394548 
L 180.814303 265.552062 
L 181.551222 266.304628 
L 181.919681 265.76208 
L 182.28814 265.919594 
L 182.6566 266.208369 
L 183.025059 266.120862 
L 183.393519 265.788332 
L 183.761978 265.76208 
L 184.498897 265.167028 
L 184.867356 265.499557 
L 185.604275 266.890929 
L 185.972734 265.447052 
L 186.341193 265.447052 
L 186.709653 265.622068 
L 187.078112 265.53456 
L 187.446572 265.263286 
L 187.815031 264.335705 
L 188.18349 264.449465 
L 188.55195 263.985674 
L 188.920409 264.493218 
L 189.657328 263.924418 
L 190.025787 263.364369 
L 190.394247 263.136849 
L 190.762706 262.34928 
L 191.131165 262.331778 
L 191.868084 263.101846 
L 192.236543 263.066843 
L 192.605003 262.436788 
L 192.973462 262.454289 
L 193.710381 261.55296 
L 194.07884 261.535458 
L 194.4473 260.634129 
L 195.184218 262.585551 
L 195.552678 261.596714 
L 196.289596 261.255434 
L 196.658056 260.905403 
L 197.026515 261.027914 
L 197.394975 260.607877 
L 197.763434 262.839323 
L 198.500353 262.883077 
L 198.868812 262.218018 
L 199.237271 262.23552 
L 199.605731 263.119348 
L 199.97419 262.778068 
L 200.711109 263.854412 
L 201.448028 263.329366 
L 201.816487 262.673058 
L 202.184946 262.288025 
L 202.553406 262.681809 
L 202.921865 262.743065 
L 204.027243 260.861649 
L 204.395703 261.754228 
L 204.764162 262.305526 
L 205.132621 261.430449 
L 205.501081 261.246683 
L 205.86954 261.491705 
L 206.237999 262.305526 
L 206.974918 262.559298 
L 207.343377 262.384283 
L 207.711837 262.515545 
L 208.080296 262.795569 
L 208.448756 262.393034 
L 208.817215 262.340529 
L 209.185674 262.498043 
L 209.554134 261.859237 
L 209.922593 262.209268 
L 210.291052 261.964246 
L 210.659512 261.876738 
L 211.027971 262.270523 
L 211.76489 262.708062 
L 212.133349 263.48688 
L 212.501809 263.749403 
L 213.238727 263.854412 
L 213.607187 263.005588 
L 214.344105 265.009514 
L 214.712565 265.840837 
L 215.081024 265.403298 
L 215.449484 265.622068 
L 215.817943 266.042105 
L 216.923321 266.234622 
L 217.29178 266.777169 
L 217.66024 266.584652 
L 218.028699 265.280788 
L 218.397159 266.033354 
L 219.134077 266.663409 
L 219.502537 267.01344 
L 219.870996 267.827262 
L 220.976374 267.888517 
L 221.344833 267.35472 
L 222.081752 268.396062 
L 222.450212 268.387311 
L 222.818671 268.221046 
L 223.18713 267.739754 
L 223.55559 267.748505 
L 224.660968 267.205957 
L 225.029427 267.267212 
L 225.397887 267.144702 
L 225.766346 267.757255 
L 226.134805 267.022191 
L 226.503265 266.654658 
L 226.871724 267.337218 
L 227.240183 266.733415 
L 227.608643 266.838425 
L 227.977102 267.494732 
L 228.345561 266.978437 
L 228.714021 266.995938 
L 229.08248 266.392135 
L 229.819399 266.147114 
L 230.187858 266.085858 
L 230.556318 265.289538 
L 231.293236 265.499557 
L 231.661696 265.228283 
L 232.030155 265.770831 
L 232.398615 265.508308 
L 232.767074 264.668234 
L 233.135533 264.353206 
L 233.503993 264.720738 
L 234.609371 264.895754 
L 234.97783 265.123274 
L 235.714749 265.140775 
L 236.083208 265.569563 
L 236.451668 266.418388 
L 236.820127 265.858338 
L 237.188586 265.788332 
L 237.925505 264.545723 
L 238.293964 264.029428 
L 239.030883 263.82816 
L 239.399343 263.696898 
L 239.767802 264.361957 
L 240.504721 263.740652 
L 240.87318 263.626892 
L 241.241639 263.705649 
L 242.347017 264.598228 
L 242.715477 264.720738 
L 243.452396 264.484468 
L 244.189314 264.904505 
L 244.557774 265.64832 
L 244.926233 266.033354 
L 245.294692 266.120862 
L 245.663152 266.943434 
L 246.400071 267.162203 
L 247.136989 267.844763 
L 247.505449 268.641083 
L 247.873908 268.641083 
L 248.242367 269.131126 
L 248.610827 268.921108 
L 248.979286 269.358646 
L 249.347745 269.577415 
L 249.716205 269.481157 
L 250.084664 269.157378 
L 250.453124 269.17488 
L 250.821583 269.306142 
L 251.190042 269.813686 
L 251.558502 269.761182 
L 251.926961 269.489908 
L 252.29542 269.419902 
L 252.66388 269.498658 
L 253.032339 268.886105 
L 253.769258 268.448566 
L 254.506177 268.763594 
L 254.874636 268.536074 
L 255.611555 267.888517 
L 256.348473 268.553575 
L 256.716933 268.474818 
L 257.453852 269.122375 
L 257.822311 268.929858 
L 258.19077 268.964862 
L 258.55923 269.4024 
L 258.927689 269.28864 
L 259.664608 269.472406 
L 260.033067 268.973612 
L 260.769986 268.544825 
L 262.612283 268.614831 
L 263.717661 268.352308 
L 264.45458 268.553575 
L 264.823039 268.518572 
L 265.191498 268.632332 
L 265.559958 268.571077 
L 265.928417 268.343557 
L 266.665336 268.229797 
L 267.402255 268.921108 
L 268.507633 269.489908 
L 268.876092 269.752431 
L 269.244551 269.568665 
L 269.98147 269.603668 
L 270.349929 270.023705 
L 270.718389 270.067458 
L 271.086848 270.268726 
L 271.455308 270.706265 
L 271.823767 270.776271 
L 272.192226 271.135052 
L 272.560686 271.1088 
L 272.929145 270.294978 
L 273.297604 270.321231 
L 274.034523 270.776271 
L 274.771442 270.88128 
L 275.139901 270.618757 
L 275.508361 270.855028 
L 275.87682 270.837526 
L 276.245279 270.99504 
L 276.982198 270.933785 
L 277.350657 271.073797 
L 277.719117 270.837526 
L 278.087576 270.977538 
L 278.456036 271.301317 
L 278.824495 271.458831 
L 279.192954 271.747606 
L 279.561414 271.633846 
L 280.666792 272.045132 
L 281.035251 271.931372 
L 281.77217 272.167643 
L 282.140629 272.228898 
L 282.509089 272.167643 
L 282.877548 271.957625 
L 283.246007 272.053883 
L 283.982926 271.598843 
L 284.351385 271.817612 
L 285.456764 271.913871 
L 285.825223 271.852615 
L 287.29906 270.820025 
L 289.141357 270.977538 
L 289.509817 270.758769 
L 289.878276 270.977538 
L 290.983654 271.196308 
L 291.352113 271.511335 
L 292.089032 271.493834 
L 292.457492 271.353822 
L 293.19441 271.248812 
L 293.56287 271.56384 
L 294.299788 271.598843 
L 295.036707 270.907532 
L 295.405167 270.855028 
L 295.773626 271.038794 
L 296.510545 270.592505 
L 297.247463 270.54 
L 297.615923 269.944948 
L 297.984382 270.242474 
L 298.352841 269.664923 
L 298.721301 269.673674 
L 299.08976 269.533662 
L 299.45822 269.551163 
L 299.826679 269.367397 
L 301.668976 269.463655 
L 302.037435 269.034868 
L 302.405895 269.349895 
L 303.142813 269.376148 
L 303.879732 269.096123 
L 304.248191 268.903606 
L 304.616651 269.148628 
L 304.98511 269.104874 
L 305.353569 269.279889 
L 306.090488 269.026117 
L 306.458948 268.501071 
L 307.195866 268.474818 
L 307.932785 268.632332 
L 308.301244 268.466068 
L 308.669704 268.448566 
L 309.406623 268.072283 
L 310.143541 268.308554 
L 310.88046 268.089785 
L 311.617379 268.221046 
L 311.985838 268.054782 
L 312.354297 266.890929 
L 312.722757 266.812172 
L 313.459676 267.372222 
L 313.828135 267.415975 
L 314.196594 267.162203 
L 314.565054 267.660997 
L 314.933513 267.223458 
L 315.301972 267.328468 
L 315.670432 267.223458 
L 316.038891 267.573489 
L 316.407351 267.538486 
L 316.77581 268.046031 
L 317.144269 267.704751 
L 317.881188 268.081034 
L 318.618107 268.011028 
L 318.986566 267.731003 
L 319.355025 267.652246 
L 319.723485 267.415975 
L 320.460404 267.660997 
L 320.828863 267.678498 
L 321.197322 267.459729 
L 321.934241 267.284714 
L 322.3027 267.01344 
L 323.039619 266.873428 
L 324.144997 266.094609 
L 324.513457 266.138363 
L 324.881916 266.392135 
L 327.461132 265.062018 
L 327.829591 265.114523 
L 328.19805 265.298289 
L 328.56651 265.237034 
L 329.303428 265.385797 
L 330.040347 265.018265 
L 330.408807 264.834498 
L 330.777266 265.867089 
L 331.145725 266.068357 
L 331.882644 266.068357 
L 332.251103 265.700825 
L 332.619563 265.858338 
L 332.988022 265.87584 
L 333.356481 266.112111 
L 334.0934 266.225871 
L 334.46186 266.33088 
L 334.830319 266.173366 
L 335.567238 266.21712 
L 335.935697 266.015852 
L 336.304156 265.9896 
L 336.672616 266.304628 
L 337.041075 266.129612 
L 337.409535 266.470892 
L 337.777994 266.44464 
L 338.146453 266.78592 
L 338.514913 266.742166 
L 338.883372 267.162203 
L 339.251831 267.179705 
L 339.98875 267.424726 
L 340.357209 267.512234 
L 341.094128 267.862265 
L 341.462588 267.757255 
L 342.199506 267.879766 
L 342.567966 267.529735 
L 343.304884 267.477231 
L 344.778722 267.398474 
L 345.147181 267.380972 
L 345.515641 267.713502 
L 347.357937 267.538486 
L 347.726397 267.722252 
L 348.094856 267.197206 
L 348.463316 267.170954 
L 348.831775 267.345969 
L 349.200234 267.205957 
L 349.568694 266.602154 
L 349.937153 266.497145 
L 350.305612 266.155865 
L 350.674072 266.295877 
L 351.042531 265.123274 
L 351.410991 265.210782 
L 352.516369 264.685735 
L 352.884828 264.676985 
L 353.253287 264.484468 
L 353.621747 264.05568 
L 353.990206 264.116935 
L 354.727125 263.880665 
L 355.095584 263.311865 
L 355.464044 263.37312 
L 355.832503 263.014338 
L 356.200962 263.154351 
L 356.937881 262.5768 
L 357.6748 262.410535 
L 358.411719 261.246683 
L 358.780178 260.835397 
L 359.148637 260.704135 
L 359.885556 260.231594 
L 360.254015 260.362855 
L 360.622475 259.84656 
L 360.990934 260.494117 
L 361.359393 260.476615 
L 361.727853 260.669132 
L 362.096312 260.441612 
L 362.464772 259.942818 
L 362.833231 259.759052 
L 363.20169 259.855311 
L 363.57015 260.144086 
L 363.938609 259.916566 
L 364.307068 260.161588 
L 364.675528 259.977822 
L 365.412447 259.986572 
L 365.780906 260.091582 
L 366.149365 259.023988 
L 366.517825 259.540283 
L 366.886284 259.409022 
L 367.254743 259.50528 
L 367.623203 259.39152 
L 367.991662 259.899065 
L 368.360121 259.96032 
L 369.09704 259.592788 
L 369.4655 260.800394 
L 369.833959 260.581625 
L 370.202418 260.992911 
L 370.570878 260.931655 
L 370.939337 261.150425 
L 371.307796 261.132923 
L 372.413175 261.66672 
L 372.781634 261.124172 
L 373.518553 261.246683 
L 373.887012 261.447951 
L 374.623931 261.369194 
L 374.99239 261.614215 
L 375.360849 261.342942 
L 375.729309 261.351692 
L 376.097768 261.019163 
L 377.203146 262.060505 
L 377.571606 261.491705 
L 378.308524 261.727975 
L 378.676984 261.745477 
L 379.045443 262.191766 
L 379.782362 262.419286 
L 380.150821 262.200517 
L 381.256199 263.005588 
L 382.361577 262.524295 
L 383.098496 263.005588 
L 383.466956 262.813071 
L 384.203874 262.743065 
L 384.572334 263.425625 
L 385.677712 263.346868 
L 386.046171 263.653145 
L 386.414631 263.784406 
L 386.78309 263.609391 
L 387.151549 264.16944 
L 387.888468 263.329366 
L 388.256927 263.355618 
L 388.625387 263.058092 
L 388.993846 262.331778 
L 389.362305 262.165514 
L 389.730765 262.34928 
L 390.099224 262.016751 
L 390.467684 262.191766 
L 390.836143 261.955495 
L 391.204602 262.725563 
L 391.573062 262.681809 
L 391.941521 263.163102 
L 392.30998 262.91808 
L 393.046899 262.664308 
L 393.415359 262.340529 
L 393.783818 262.786818 
L 394.152277 262.638055 
L 394.520737 263.058092 
L 394.889196 263.294363 
L 395.257655 262.874326 
L 395.626115 262.961834 
L 395.994574 263.224357 
L 396.363033 263.163102 
L 396.731493 262.900578 
L 397.099952 262.401785 
L 397.468412 262.524295 
L 397.836871 261.89424 
L 398.20533 261.832985 
L 398.57379 262.016751 
L 398.942249 261.937994 
L 399.310708 262.104258 
L 400.416087 261.430449 
L 400.784546 261.316689 
L 401.521465 260.905403 
L 402.258383 261.054166 
L 402.626843 260.660382 
L 403.363761 260.240345 
L 403.732221 260.406609 
L 404.10068 260.389108 
L 404.837599 259.767803 
L 405.206058 259.96032 
L 405.574518 259.776554 
L 405.942977 260.3016 
L 406.311436 260.511618 
L 407.048355 260.467865 
L 407.416815 261.412948 
L 407.785274 261.281686 
L 408.153733 259.995323 
L 408.522193 259.855311 
L 408.890652 259.881563 
L 409.259111 260.039077 
L 409.627571 259.50528 
L 409.99603 259.435274 
L 410.364489 259.120246 
L 410.732949 259.286511 
L 411.101408 259.015237 
L 411.469868 259.076492 
L 411.838327 258.656455 
L 412.206786 258.455188 
L 412.575246 258.665206 
L 412.943705 258.341428 
L 413.312164 258.236418 
L 413.680624 258.840222 
L 414.049083 258.691458 
L 414.786002 259.032738 
L 415.154461 259.006486 
L 415.522921 259.487778 
L 415.89138 259.479028 
L 416.259839 260.065329 
L 416.628299 260.117834 
L 416.996758 259.899065 
L 417.365217 260.109083 
L 417.733677 260.117834 
L 418.102136 260.310351 
L 418.470596 260.686634 
L 418.839055 260.599126 
L 420.312892 261.09792 
L 420.681352 260.721637 
L 421.78673 261.605465 
L 422.523649 261.587963 
L 423.260567 262.104258 
L 423.629027 261.797982 
L 423.997486 261.789231 
L 424.365945 260.992911 
L 424.365945 260.992911 
" clip-path="url(#p9eb4170d30)" style="fill: none; stroke: #000080; stroke-width: 1.5; stroke-linecap: square"/>
   </g>
   <g id="line2d_16">
    <path d="M 55.925 94.430769 
L 460.825 94.430769 
" clip-path="url(#p9eb4170d30)" style="fill: none; stroke-dasharray: 5.55,2.4; stroke-dashoffset: 0; stroke: #008000; stroke-width: 1.5"/>
   </g>
   <g id="patch_3">
    <path d="M 55.925 313.2 
L 55.925 28.8 
" style="fill: none; stroke: #000000; stroke-width: 0.8; stroke-linejoin: miter; stroke-linecap: square"/>
   </g>
   <g id="patch_4">
    <path d="M 460.825 313.2 
L 460.825 28.8 
" style="fill: none; stroke: #000000; stroke-width: 0.8; stroke-linejoin: miter; stroke-linecap: square"/>
   </g>
   <g id="patch_5">
    <path d="M 55.925 313.2 
L 460.825 313.2 
" style="fill: none; stroke: #000000; stroke-width: 0.8; stroke-linejoin: miter; stroke-linecap: square"/>
   </g>
   <g id="patch_6">
    <path d="M 55.925 28.8 
L 460.825 28.8 
" style="fill: none; stroke: #000000; stroke-width: 0.8; stroke-linejoin: miter; stroke-linecap: square"/>
   </g>
   <g id="text_16">
    <!-- gamma = 0.9378947368421052,lr = 0.05994842503189409 -->
    <g transform="translate(28.373437 22.8)scale(0.15 -0.15)">
     <defs>
      <path id="DejaVuSans-67" d="M 2906 1791 
Q 2906 2416 2648 2759 
Q 2391 3103 1925 3103 
Q 1463 3103 1205 2759 
Q 947 2416 947 1791 
Q 947 1169 1205 825 
Q 1463 481 1925 481 
Q 2391 481 2648 825 
Q 2906 1169 2906 1791 
z
M 3481 434 
Q 3481 -459 3084 -895 
Q 2688 -1331 1869 -1331 
Q 1566 -1331 1297 -1286 
Q 1028 -1241 775 -1147 
L 775 -588 
Q 1028 -725 1275 -790 
Q 1522 -856 1778 -856 
Q 2344 -856 2625 -561 
Q 2906 -266 2906 331 
L 2906 616 
Q 2728 306 2450 153 
Q 2172 0 1784 0 
Q 1141 0 747 490 
Q 353 981 353 1791 
Q 353 2603 747 3093 
Q 1141 3584 1784 3584 
Q 2172 3584 2450 3431 
Q 2728 3278 2906 2969 
L 2906 3500 
L 3481 3500 
L 3481 434 
z
" transform="scale(0.015625)"/>
      <path id="DejaVuSans-61" d="M 2194 1759 
Q 1497 1759 1228 1600 
Q 959 1441 959 1056 
Q 959 750 1161 570 
Q 1363 391 1709 391 
Q 2188 391 2477 730 
Q 2766 1069 2766 1631 
L 2766 1759 
L 2194 1759 
z
M 3341 1997 
L 3341 0 
L 2766 0 
L 2766 531 
Q 2569 213 2275 61 
Q 1981 -91 1556 -91 
Q 1019 -91 701 211 
Q 384 513 384 1019 
Q 384 1609 779 1909 
Q 1175 2209 1959 2209 
L 2766 2209 
L 2766 2266 
Q 2766 2663 2505 2880 
Q 2244 3097 1772 3097 
Q 1472 3097 1187 3025 
Q 903 2953 641 2809 
L 641 3341 
Q 956 3463 1253 3523 
Q 1550 3584 1831 3584 
Q 2591 3584 2966 3190 
Q 3341 2797 3341 1997 
z
" transform="scale(0.015625)"/>
      <path id="DejaVuSans-6d" d="M 3328 2828 
Q 3544 3216 3844 3400 
Q 4144 3584 4550 3584 
Q 5097 3584 5394 3201 
Q 5691 2819 5691 2113 
L 5691 0 
L 5113 0 
L 5113 2094 
Q 5113 2597 4934 2840 
Q 4756 3084 4391 3084 
Q 3944 3084 3684 2787 
Q 3425 2491 3425 1978 
L 3425 0 
L 2847 0 
L 2847 2094 
Q 2847 2600 2669 2842 
Q 2491 3084 2119 3084 
Q 1678 3084 1418 2786 
Q 1159 2488 1159 1978 
L 1159 0 
L 581 0 
L 581 3500 
L 1159 3500 
L 1159 2956 
Q 1356 3278 1631 3431 
Q 1906 3584 2284 3584 
Q 2666 3584 2933 3390 
Q 3200 3197 3328 2828 
z
" transform="scale(0.015625)"/>
      <path id="DejaVuSans-20" transform="scale(0.015625)"/>
      <path id="DejaVuSans-3d" d="M 678 2906 
L 4684 2906 
L 4684 2381 
L 678 2381 
L 678 2906 
z
M 678 1631 
L 4684 1631 
L 4684 1100 
L 678 1100 
L 678 1631 
z
" transform="scale(0.015625)"/>
      <path id="DejaVuSans-2e" d="M 684 794 
L 1344 794 
L 1344 0 
L 684 0 
L 684 794 
z
" transform="scale(0.015625)"/>
      <path id="DejaVuSans-39" d="M 703 97 
L 703 672 
Q 941 559 1184 500 
Q 1428 441 1663 441 
Q 2288 441 2617 861 
Q 2947 1281 2994 2138 
Q 2813 1869 2534 1725 
Q 2256 1581 1919 1581 
Q 1219 1581 811 2004 
Q 403 2428 403 3163 
Q 403 3881 828 4315 
Q 1253 4750 1959 4750 
Q 2769 4750 3195 4129 
Q 3622 3509 3622 2328 
Q 3622 1225 3098 567 
Q 2575 -91 1691 -91 
Q 1453 -91 1209 -44 
Q 966 3 703 97 
z
M 1959 2075 
Q 2384 2075 2632 2365 
Q 2881 2656 2881 3163 
Q 2881 3666 2632 3958 
Q 2384 4250 1959 4250 
Q 1534 4250 1286 3958 
Q 1038 3666 1038 3163 
Q 1038 2656 1286 2365 
Q 1534 2075 1959 2075 
z
" transform="scale(0.015625)"/>
      <path id="DejaVuSans-37" d="M 525 4666 
L 3525 4666 
L 3525 4397 
L 1831 0 
L 1172 0 
L 2766 4134 
L 525 4134 
L 525 4666 
z
" transform="scale(0.015625)"/>
      <path id="DejaVuSans-2c" d="M 750 794 
L 1409 794 
L 1409 256 
L 897 -744 
L 494 -744 
L 750 256 
L 750 794 
z
" transform="scale(0.015625)"/>
      <path id="DejaVuSans-6c" d="M 603 4863 
L 1178 4863 
L 1178 0 
L 603 0 
L 603 4863 
z
" transform="scale(0.015625)"/>
     </defs>
     <use xlink:href="#DejaVuSans-67"/>
     <use xlink:href="#DejaVuSans-61" x="63.476562"/>
     <use xlink:href="#DejaVuSans-6d" x="124.755859"/>
     <use xlink:href="#DejaVuSans-6d" x="222.167969"/>
     <use xlink:href="#DejaVuSans-61" x="319.580078"/>
     <use xlink:href="#DejaVuSans-20" x="380.859375"/>
     <use xlink:href="#DejaVuSans-3d" x="412.646484"/>
     <use xlink:href="#DejaVuSans-20" x="496.435547"/>
     <use xlink:href="#DejaVuSans-30" x="528.222656"/>
     <use xlink:href="#DejaVuSans-2e" x="591.845703"/>
     <use xlink:href="#DejaVuSans-39" x="623.632812"/>
     <use xlink:href="#DejaVuSans-33" x="687.255859"/>
     <use xlink:href="#DejaVuSans-37" x="750.878906"/>
     <use xlink:href="#DejaVuSans-38" x="814.501953"/>
     <use xlink:href="#DejaVuSans-39" x="878.125"/>
     <use xlink:href="#DejaVuSans-34" x="941.748047"/>
     <use xlink:href="#DejaVuSans-37" x="1005.371094"/>
     <use xlink:href="#DejaVuSans-33" x="1068.994141"/>
     <use xlink:href="#DejaVuSans-36" x="1132.617188"/>
     <use xlink:href="#DejaVuSans-38" x="1196.240234"/>
     <use xlink:href="#DejaVuSans-34" x="1259.863281"/>
     <use xlink:href="#DejaVuSans-32" x="1323.486328"/>
     <use xlink:href="#DejaVuSans-31" x="1387.109375"/>
     <use xlink:href="#DejaVuSans-30" x="1450.732422"/>
     <use xlink:href="#DejaVuSans-35" x="1514.355469"/>
     <use xlink:href="#DejaVuSans-32" x="1577.978516"/>
     <use xlink:href="#DejaVuSans-2c" x="1641.601562"/>
     <use xlink:href="#DejaVuSans-6c" x="1673.388672"/>
     <use xlink:href="#DejaVuSans-72" x="1701.171875"/>
     <use xlink:href="#DejaVuSans-20" x="1742.285156"/>
     <use xlink:href="#DejaVuSans-3d" x="1774.072266"/>
     <use xlink:href="#DejaVuSans-20" x="1857.861328"/>
     <use xlink:href="#DejaVuSans-30" x="1889.648438"/>
     <use xlink:href="#DejaVuSans-2e" x="1953.271484"/>
     <use xlink:href="#DejaVuSans-30" x="1985.058594"/>
     <use xlink:href="#DejaVuSans-35" x="2048.681641"/>
     <use xlink:href="#DejaVuSans-39" x="2112.304688"/>
     <use xlink:href="#DejaVuSans-39" x="2175.927734"/>
     <use xlink:href="#DejaVuSans-34" x="2239.550781"/>
     <use xlink:href="#DejaVuSans-38" x="2303.173828"/>
     <use xlink:href="#DejaVuSans-34" x="2366.796875"/>
     <use xlink:href="#DejaVuSans-32" x="2430.419922"/>
     <use xlink:href="#DejaVuSans-35" x="2494.042969"/>
     <use xlink:href="#DejaVuSans-30" x="2557.666016"/>
     <use xlink:href="#DejaVuSans-33" x="2621.289062"/>
     <use xlink:href="#DejaVuSans-31" x="2684.912109"/>
     <use xlink:href="#DejaVuSans-38" x="2748.535156"/>
     <use xlink:href="#DejaVuSans-39" x="2812.158203"/>
     <use xlink:href="#DejaVuSans-34" x="2875.78125"/>
     <use xlink:href="#DejaVuSans-30" x="2939.404297"/>
     <use xlink:href="#DejaVuSans-39" x="3003.027344"/>
    </g>
   </g>
   <g id="legend_1">
    <g id="patch_7">
     <path d="M 293.50625 80.834375 
L 453.825 80.834375 
Q 455.825 80.834375 455.825 78.834375 
L 455.825 35.8 
Q 455.825 33.8 453.825 33.8 
L 293.50625 33.8 
Q 291.50625 33.8 291.50625 35.8 
L 291.50625 78.834375 
Q 291.50625 80.834375 293.50625 80.834375 
z
" style="fill: #ffffff; opacity: 0.8; stroke: #cccccc; stroke-linejoin: miter"/>
    </g>
    <g id="line2d_17">
     <path d="M 295.50625 41.898438 
L 305.50625 41.898438 
L 315.50625 41.898438 
" style="fill: none; stroke: #708090; stroke-width: 1.5; stroke-linecap: square"/>
    </g>
    <g id="text_17">
     <!-- Episodes score -->
     <g transform="translate(323.50625 45.398438)scale(0.1 -0.1)">
      <use xlink:href="#DejaVuSans-45"/>
      <use xlink:href="#DejaVuSans-70" x="63.183594"/>
      <use xlink:href="#DejaVuSans-69" x="126.660156"/>
      <use xlink:href="#DejaVuSans-73" x="154.443359"/>
      <use xlink:href="#DejaVuSans-6f" x="206.542969"/>
      <use xlink:href="#DejaVuSans-64" x="267.724609"/>
      <use xlink:href="#DejaVuSans-65" x="331.201172"/>
      <use xlink:href="#DejaVuSans-73" x="392.724609"/>
      <use xlink:href="#DejaVuSans-20" x="444.824219"/>
      <use xlink:href="#DejaVuSans-73" x="476.611328"/>
      <use xlink:href="#DejaVuSans-63" x="528.710938"/>
      <use xlink:href="#DejaVuSans-6f" x="583.691406"/>
      <use xlink:href="#DejaVuSans-72" x="644.873047"/>
      <use xlink:href="#DejaVuSans-65" x="683.736328"/>
     </g>
    </g>
    <g id="line2d_18">
     <path d="M 295.50625 56.576563 
L 305.50625 56.576563 
L 315.50625 56.576563 
" style="fill: none; stroke: #000080; stroke-width: 1.5; stroke-linecap: square"/>
    </g>
    <g id="text_18">
     <!-- Moving average of scores -->
     <g transform="translate(323.50625 60.076563)scale(0.1 -0.1)">
      <defs>
       <path id="DejaVuSans-4d" d="M 628 4666 
L 1569 4666 
L 2759 1491 
L 3956 4666 
L 4897 4666 
L 4897 0 
L 4281 0 
L 4281 4097 
L 3078 897 
L 2444 897 
L 1241 4097 
L 1241 0 
L 628 0 
L 628 4666 
z
" transform="scale(0.015625)"/>
       <path id="DejaVuSans-76" d="M 191 3500 
L 800 3500 
L 1894 563 
L 2988 3500 
L 3597 3500 
L 2284 0 
L 1503 0 
L 191 3500 
z
" transform="scale(0.015625)"/>
       <path id="DejaVuSans-6e" d="M 3513 2113 
L 3513 0 
L 2938 0 
L 2938 2094 
Q 2938 2591 2744 2837 
Q 2550 3084 2163 3084 
Q 1697 3084 1428 2787 
Q 1159 2491 1159 1978 
L 1159 0 
L 581 0 
L 581 3500 
L 1159 3500 
L 1159 2956 
Q 1366 3272 1645 3428 
Q 1925 3584 2291 3584 
Q 2894 3584 3203 3211 
Q 3513 2838 3513 2113 
z
" transform="scale(0.015625)"/>
       <path id="DejaVuSans-66" d="M 2375 4863 
L 2375 4384 
L 1825 4384 
Q 1516 4384 1395 4259 
Q 1275 4134 1275 3809 
L 1275 3500 
L 2222 3500 
L 2222 3053 
L 1275 3053 
L 1275 0 
L 697 0 
L 697 3053 
L 147 3053 
L 147 3500 
L 697 3500 
L 697 3744 
Q 697 4328 969 4595 
Q 1241 4863 1831 4863 
L 2375 4863 
z
" transform="scale(0.015625)"/>
      </defs>
      <use xlink:href="#DejaVuSans-4d"/>
      <use xlink:href="#DejaVuSans-6f" x="86.279297"/>
      <use xlink:href="#DejaVuSans-76" x="147.460938"/>
      <use xlink:href="#DejaVuSans-69" x="206.640625"/>
      <use xlink:href="#DejaVuSans-6e" x="234.423828"/>
      <use xlink:href="#DejaVuSans-67" x="297.802734"/>
      <use xlink:href="#DejaVuSans-20" x="361.279297"/>
      <use xlink:href="#DejaVuSans-61" x="393.066406"/>
      <use xlink:href="#DejaVuSans-76" x="454.345703"/>
      <use xlink:href="#DejaVuSans-65" x="513.525391"/>
      <use xlink:href="#DejaVuSans-72" x="575.048828"/>
      <use xlink:href="#DejaVuSans-61" x="616.162109"/>
      <use xlink:href="#DejaVuSans-67" x="677.441406"/>
      <use xlink:href="#DejaVuSans-65" x="740.917969"/>
      <use xlink:href="#DejaVuSans-20" x="802.441406"/>
      <use xlink:href="#DejaVuSans-6f" x="834.228516"/>
      <use xlink:href="#DejaVuSans-66" x="895.410156"/>
      <use xlink:href="#DejaVuSans-20" x="930.615234"/>
      <use xlink:href="#DejaVuSans-73" x="962.402344"/>
      <use xlink:href="#DejaVuSans-63" x="1014.501953"/>
      <use xlink:href="#DejaVuSans-6f" x="1069.482422"/>
      <use xlink:href="#DejaVuSans-72" x="1130.664062"/>
      <use xlink:href="#DejaVuSans-65" x="1169.527344"/>
      <use xlink:href="#DejaVuSans-73" x="1231.050781"/>
     </g>
    </g>
    <g id="line2d_19">
     <path d="M 295.50625 71.254687 
L 305.50625 71.254687 
L 315.50625 71.254687 
" style="fill: none; stroke-dasharray: 5.55,2.4; stroke-dashoffset: 0; stroke: #008000; stroke-width: 1.5"/>
    </g>
    <g id="text_19">
     <!-- Game Solved -->
     <g transform="translate(323.50625 74.754687)scale(0.1 -0.1)">
      <defs>
       <path id="DejaVuSans-47" d="M 3809 666 
L 3809 1919 
L 2778 1919 
L 2778 2438 
L 4434 2438 
L 4434 434 
Q 4069 175 3628 42 
Q 3188 -91 2688 -91 
Q 1594 -91 976 548 
Q 359 1188 359 2328 
Q 359 3472 976 4111 
Q 1594 4750 2688 4750 
Q 3144 4750 3555 4637 
Q 3966 4525 4313 4306 
L 4313 3634 
Q 3963 3931 3569 4081 
Q 3175 4231 2741 4231 
Q 1884 4231 1454 3753 
Q 1025 3275 1025 2328 
Q 1025 1384 1454 906 
Q 1884 428 2741 428 
Q 3075 428 3337 486 
Q 3600 544 3809 666 
z
" transform="scale(0.015625)"/>
      </defs>
      <use xlink:href="#DejaVuSans-47"/>
      <use xlink:href="#DejaVuSans-61" x="77.490234"/>
      <use xlink:href="#DejaVuSans-6d" x="138.769531"/>
      <use xlink:href="#DejaVuSans-65" x="236.181641"/>
      <use xlink:href="#DejaVuSans-20" x="297.705078"/>
      <use xlink:href="#DejaVuSans-53" x="329.492188"/>
      <use xlink:href="#DejaVuSans-6f" x="392.96875"/>
      <use xlink:href="#DejaVuSans-6c" x="454.150391"/>
      <use xlink:href="#DejaVuSans-76" x="481.933594"/>
      <use xlink:href="#DejaVuSans-65" x="541.113281"/>
      <use xlink:href="#DejaVuSans-64" x="602.636719"/>
     </g>
    </g>
   </g>
  </g>
  <g id="axes_2">
   <g id="matplotlib.axis_3">
    <g id="ytick_8">
     <g id="line2d_20">
      <defs>
       <path id="m72d83ff7e5" d="M 0 0 
L 3.5 0 
" style="stroke: #000000; stroke-width: 0.8"/>
      </defs>
      <g>
       <use xlink:href="#m72d83ff7e5" x="460.825" y="300.356157" style="stroke: #000000; stroke-width: 0.8"/>
      </g>
     </g>
     <g id="text_20">
      <!-- 0 -->
      <g transform="translate(467.825 304.155376)scale(0.1 -0.1)">
       <use xlink:href="#DejaVuSans-30"/>
      </g>
     </g>
    </g>
    <g id="ytick_9">
     <g id="line2d_21">
      <g>
       <use xlink:href="#m72d83ff7e5" x="460.825" y="248.63038" style="stroke: #000000; stroke-width: 0.8"/>
      </g>
     </g>
     <g id="text_21">
      <!-- 1 -->
      <g transform="translate(467.825 252.429599)scale(0.1 -0.1)">
       <use xlink:href="#DejaVuSans-31"/>
      </g>
     </g>
    </g>
    <g id="ytick_10">
     <g id="line2d_22">
      <g>
       <use xlink:href="#m72d83ff7e5" x="460.825" y="196.904603" style="stroke: #000000; stroke-width: 0.8"/>
      </g>
     </g>
     <g id="text_22">
      <!-- 2 -->
      <g transform="translate(467.825 200.703822)scale(0.1 -0.1)">
       <use xlink:href="#DejaVuSans-32"/>
      </g>
     </g>
    </g>
    <g id="ytick_11">
     <g id="line2d_23">
      <g>
       <use xlink:href="#m72d83ff7e5" x="460.825" y="145.178827" style="stroke: #000000; stroke-width: 0.8"/>
      </g>
     </g>
     <g id="text_23">
      <!-- 3 -->
      <g transform="translate(467.825 148.978045)scale(0.1 -0.1)">
       <use xlink:href="#DejaVuSans-33"/>
      </g>
     </g>
    </g>
    <g id="ytick_12">
     <g id="line2d_24">
      <g>
       <use xlink:href="#m72d83ff7e5" x="460.825" y="93.45305" style="stroke: #000000; stroke-width: 0.8"/>
      </g>
     </g>
     <g id="text_24">
      <!-- 4 -->
      <g transform="translate(467.825 97.252268)scale(0.1 -0.1)">
       <use xlink:href="#DejaVuSans-34"/>
      </g>
     </g>
    </g>
    <g id="ytick_13">
     <g id="line2d_25">
      <g>
       <use xlink:href="#m72d83ff7e5" x="460.825" y="41.727273" style="stroke: #000000; stroke-width: 0.8"/>
      </g>
     </g>
     <g id="text_25">
      <!-- 5 -->
      <g transform="translate(467.825 45.526491)scale(0.1 -0.1)">
       <use xlink:href="#DejaVuSans-35"/>
      </g>
     </g>
    </g>
    <g id="text_26">
     <!-- Temperature -->
     <g transform="translate(489.585156 218.504297)rotate(-90)scale(0.15 -0.15)">
      <defs>
       <path id="DejaVuSans-54" d="M -19 4666 
L 3928 4666 
L 3928 4134 
L 2272 4134 
L 2272 0 
L 1638 0 
L 1638 4134 
L -19 4134 
L -19 4666 
z
" transform="scale(0.015625)"/>
       <path id="DejaVuSans-74" d="M 1172 4494 
L 1172 3500 
L 2356 3500 
L 2356 3053 
L 1172 3053 
L 1172 1153 
Q 1172 725 1289 603 
Q 1406 481 1766 481 
L 2356 481 
L 2356 0 
L 1766 0 
Q 1100 0 847 248 
Q 594 497 594 1153 
L 594 3053 
L 172 3053 
L 172 3500 
L 594 3500 
L 594 4494 
L 1172 4494 
z
" transform="scale(0.015625)"/>
       <path id="DejaVuSans-75" d="M 544 1381 
L 544 3500 
L 1119 3500 
L 1119 1403 
Q 1119 906 1312 657 
Q 1506 409 1894 409 
Q 2359 409 2629 706 
Q 2900 1003 2900 1516 
L 2900 3500 
L 3475 3500 
L 3475 0 
L 2900 0 
L 2900 538 
Q 2691 219 2414 64 
Q 2138 -91 1772 -91 
Q 1169 -91 856 284 
Q 544 659 544 1381 
z
M 1991 3584 
L 1991 3584 
z
" transform="scale(0.015625)"/>
      </defs>
      <use xlink:href="#DejaVuSans-54"/>
      <use xlink:href="#DejaVuSans-65" x="44.083984"/>
      <use xlink:href="#DejaVuSans-6d" x="105.607422"/>
      <use xlink:href="#DejaVuSans-70" x="203.019531"/>
      <use xlink:href="#DejaVuSans-65" x="266.496094"/>
      <use xlink:href="#DejaVuSans-72" x="328.019531"/>
      <use xlink:href="#DejaVuSans-61" x="369.132812"/>
      <use xlink:href="#DejaVuSans-74" x="430.412109"/>
      <use xlink:href="#DejaVuSans-75" x="469.621094"/>
      <use xlink:href="#DejaVuSans-72" x="533"/>
      <use xlink:href="#DejaVuSans-65" x="571.863281"/>
     </g>
    </g>
   </g>
   <g id="line2d_26">
    <path d="M 74.329545 41.727273 
L 77.64568 59.796179 
L 80.961814 76.602714 
L 84.277948 92.235075 
L 87.594083 106.775292 
L 90.910217 120.299669 
L 94.226351 132.879175 
L 97.542486 144.579825 
L 100.85862 155.463017 
L 104.174754 165.585863 
L 107.490889 175.001485 
L 110.807023 183.759292 
L 114.123157 191.905241 
L 117.439292 199.48208 
L 120.755426 206.529569 
L 124.07156 213.084691 
L 127.387695 219.181844 
L 130.703829 224.853024 
L 134.019963 230.127992 
L 137.704557 235.557975 
L 141.389151 240.568116 
L 145.073744 245.190878 
L 148.758338 249.456211 
L 152.442932 253.391752 
L 156.127525 257.023001 
L 160.180578 260.693942 
L 164.233631 264.053901 
L 168.286684 267.129223 
L 172.339737 269.944021 
L 176.76125 272.743467 
L 181.182762 275.285223 
L 185.972734 277.775454 
L 190.762706 280.018336 
L 195.921137 282.185254 
L 201.448028 284.251415 
L 206.974918 286.082639 
L 212.870268 287.807033 
L 219.134077 289.41153 
L 225.766346 290.887385 
L 233.135533 292.295013 
L 240.87318 293.548388 
L 249.347745 294.698674 
L 258.927689 295.766744 
L 269.613011 296.721977 
L 281.403711 297.547031 
L 295.036707 298.270409 
L 310.88046 298.880507 
L 330.040347 299.385086 
L 353.990206 299.780603 
L 385.677712 300.068067 
L 432.840511 300.253311 
L 442.420455 300.272727 
L 442.420455 300.272727 
" clip-path="url(#p9eb4170d30)" style="fill: none; stroke: #ff0000; stroke-width: 1.5; stroke-linecap: square"/>
   </g>
   <g id="patch_8">
    <path d="M 55.925 313.2 
L 55.925 28.8 
" style="fill: none; stroke: #000000; stroke-width: 0.8; stroke-linejoin: miter; stroke-linecap: square"/>
   </g>
   <g id="patch_9">
    <path d="M 460.825 313.2 
L 460.825 28.8 
" style="fill: none; stroke: #000000; stroke-width: 0.8; stroke-linejoin: miter; stroke-linecap: square"/>
   </g>
   <g id="patch_10">
    <path d="M 55.925 313.2 
L 460.825 313.2 
" style="fill: none; stroke: #000000; stroke-width: 0.8; stroke-linejoin: miter; stroke-linecap: square"/>
   </g>
   <g id="patch_11">
    <path d="M 55.925 28.8 
L 460.825 28.8 
" style="fill: none; stroke: #000000; stroke-width: 0.8; stroke-linejoin: miter; stroke-linecap: square"/>
   </g>
   <g id="legend_2">
    <g id="patch_12">
     <path d="M 62.925 51.478125 
L 158.264063 51.478125 
Q 160.264063 51.478125 160.264063 49.478125 
L 160.264063 35.8 
Q 160.264063 33.8 158.264063 33.8 
L 62.925 33.8 
Q 60.925 33.8 60.925 35.8 
L 60.925 49.478125 
Q 60.925 51.478125 62.925 51.478125 
z
" style="fill: #ffffff; opacity: 0.8; stroke: #cccccc; stroke-linejoin: miter"/>
    </g>
    <g id="line2d_27">
     <path d="M 64.925 41.898438 
L 74.925 41.898438 
L 84.925 41.898438 
" style="fill: none; stroke: #ff0000; stroke-width: 1.5; stroke-linecap: square"/>
    </g>
    <g id="text_27">
     <!-- Temperature -->
     <g transform="translate(92.925 45.398438)scale(0.1 -0.1)">
      <use xlink:href="#DejaVuSans-54"/>
      <use xlink:href="#DejaVuSans-65" x="44.083984"/>
      <use xlink:href="#DejaVuSans-6d" x="105.607422"/>
      <use xlink:href="#DejaVuSans-70" x="203.019531"/>
      <use xlink:href="#DejaVuSans-65" x="266.496094"/>
      <use xlink:href="#DejaVuSans-72" x="328.019531"/>
      <use xlink:href="#DejaVuSans-61" x="369.132812"/>
      <use xlink:href="#DejaVuSans-74" x="430.412109"/>
      <use xlink:href="#DejaVuSans-75" x="469.621094"/>
      <use xlink:href="#DejaVuSans-72" x="533"/>
      <use xlink:href="#DejaVuSans-65" x="571.863281"/>
     </g>
    </g>
   </g>
  </g>
 </g>
 <defs>
  <clipPath id="p9eb4170d30">
   <rect x="55.925" y="28.8" width="404.9" height="284.4"/>
  </clipPath>
 </defs>
</svg>
