<?xml version="1.0" encoding="utf-8" standalone="no"?>
<!DOCTYPE svg PUBLIC "-//W3C//DTD SVG 1.1//EN"
  "http://www.w3.org/Graphics/SVG/1.1/DTD/svg11.dtd">
<svg xmlns:xlink="http://www.w3.org/1999/xlink" width="504pt" height="360pt" viewBox="0 0 504 360" xmlns="http://www.w3.org/2000/svg" version="1.1">
 <metadata>
  <rdf:RDF xmlns:dc="http://purl.org/dc/elements/1.1/" xmlns:cc="http://creativecommons.org/ns#" xmlns:rdf="http://www.w3.org/1999/02/22-rdf-syntax-ns#">
   <cc:Work>
    <dc:type rdf:resource="http://purl.org/dc/dcmitype/StillImage"/>
    <dc:date>2022-09-07T19:54:32.699547</dc:date>
    <dc:format>image/svg+xml</dc:format>
    <dc:creator>
     <cc:Agent>
      <dc:title>Matplotlib v3.5.1, https://matplotlib.org/</dc:title>
     </cc:Agent>
    </dc:creator>
   </cc:Work>
  </rdf:RDF>
 </metadata>
 <defs>
  <style type="text/css">*{stroke-linejoin: round; stroke-linecap: butt}</style>
 </defs>
 <g id="figure_1">
  <g id="patch_1">
   <path d="M 0 360 
L 504 360 
L 504 0 
L 0 0 
L 0 360 
z
" style="fill: none"/>
  </g>
  <g id="axes_1">
   <g id="patch_2">
    <path d="M 63 315 
L 453.6 315 
L 453.6 43.2 
L 63 43.2 
z
" style="fill: #ffffff"/>
   </g>
   <g id="patch_3">
    <path d="M 329.876915 179.736057 
C 339.315382 179.736057 348.368545 177.356748 355.04255 173.122144 
C 361.716554 168.88754 365.466497 163.143379 365.466497 157.154745 
C 365.466497 151.166111 361.716554 145.421949 355.04255 141.187345 
C 348.368545 136.952742 339.315382 134.573432 329.876915 134.573432 
C 320.438447 134.573432 311.385284 136.952742 304.71128 141.187345 
C 298.037275 145.421949 294.287332 151.166111 294.287332 157.154745 
C 294.287332 163.143379 298.037275 168.88754 304.71128 173.122144 
C 311.385284 177.356748 320.438447 179.736057 329.876915 179.736057 
L 329.876915 179.736057 
z
" clip-path="url(#pf30abaddc8)" style="fill: none; stroke: #0000ff; stroke-linejoin: miter"/>
   </g>
   <g id="patch_4">
    <path d="M 187.518584 157.154745 
C 199.788592 157.154745 211.557704 154.061642 220.23391 148.556657 
C 228.910116 143.051672 233.785042 135.584262 233.785042 127.799038 
C 233.785042 120.013814 228.910116 112.546404 220.23391 107.041419 
C 211.557704 101.536434 199.788592 98.443331 187.518584 98.443331 
C 175.248576 98.443331 163.479464 101.536434 154.803259 107.041419 
C 146.127053 112.546404 141.252127 120.013814 141.252127 127.799038 
C 141.252127 135.584262 146.127053 143.051672 154.803259 148.556657 
C 163.479464 154.061642 175.248576 157.154745 187.518584 157.154745 
L 187.518584 157.154745 
z
" clip-path="url(#pf30abaddc8)" style="fill: none; stroke: #0000ff; stroke-linejoin: miter"/>
   </g>
   <g id="matplotlib.axis_1">
    <g id="xtick_1">
     <g id="line2d_1">
      <path d="M 116.339419 315 
L 116.339419 43.2 
" clip-path="url(#pf30abaddc8)" style="fill: none; stroke: #b0b0b0; stroke-width: 0.8; stroke-linecap: square"/>
     </g>
     <g id="line2d_2">
      <defs>
       <path id="me247abaf7a" d="M 0 0 
L 0 3.5 
" style="stroke: #000000; stroke-width: 0.8"/>
      </defs>
      <g>
       <use xlink:href="#me247abaf7a" x="116.339419" y="315" style="stroke: #000000; stroke-width: 0.8"/>
      </g>
     </g>
     <g id="text_1">
      <!-- −4 -->
      <g transform="translate(108.968325 329.598437)scale(0.1 -0.1)">
       <defs>
        <path id="DejaVuSans-2212" d="M 678 2272 
L 4684 2272 
L 4684 1741 
L 678 1741 
L 678 2272 
z
" transform="scale(0.015625)"/>
        <path id="DejaVuSans-34" d="M 2419 4116 
L 825 1625 
L 2419 1625 
L 2419 4116 
z
M 2253 4666 
L 3047 4666 
L 3047 1625 
L 3713 1625 
L 3713 1100 
L 3047 1100 
L 3047 0 
L 2419 0 
L 2419 1100 
L 313 1100 
L 313 1709 
L 2253 4666 
z
" transform="scale(0.015625)"/>
       </defs>
       <use xlink:href="#DejaVuSans-2212"/>
       <use xlink:href="#DejaVuSans-34" x="83.789062"/>
      </g>
     </g>
    </g>
    <g id="xtick_2">
     <g id="line2d_3">
      <path d="M 187.518584 315 
L 187.518584 43.2 
" clip-path="url(#pf30abaddc8)" style="fill: none; stroke: #b0b0b0; stroke-width: 0.8; stroke-linecap: square"/>
     </g>
     <g id="line2d_4">
      <g>
       <use xlink:href="#me247abaf7a" x="187.518584" y="315" style="stroke: #000000; stroke-width: 0.8"/>
      </g>
     </g>
     <g id="text_2">
      <!-- −2 -->
      <g transform="translate(180.147491 329.598437)scale(0.1 -0.1)">
       <defs>
        <path id="DejaVuSans-32" d="M 1228 531 
L 3431 531 
L 3431 0 
L 469 0 
L 469 531 
Q 828 903 1448 1529 
Q 2069 2156 2228 2338 
Q 2531 2678 2651 2914 
Q 2772 3150 2772 3378 
Q 2772 3750 2511 3984 
Q 2250 4219 1831 4219 
Q 1534 4219 1204 4116 
Q 875 4013 500 3803 
L 500 4441 
Q 881 4594 1212 4672 
Q 1544 4750 1819 4750 
Q 2544 4750 2975 4387 
Q 3406 4025 3406 3419 
Q 3406 3131 3298 2873 
Q 3191 2616 2906 2266 
Q 2828 2175 2409 1742 
Q 1991 1309 1228 531 
z
" transform="scale(0.015625)"/>
       </defs>
       <use xlink:href="#DejaVuSans-2212"/>
       <use xlink:href="#DejaVuSans-32" x="83.789062"/>
      </g>
     </g>
    </g>
    <g id="xtick_3">
     <g id="line2d_5">
      <path d="M 258.697749 315 
L 258.697749 43.2 
" clip-path="url(#pf30abaddc8)" style="fill: none; stroke: #b0b0b0; stroke-width: 0.8; stroke-linecap: square"/>
     </g>
     <g id="line2d_6">
      <g>
       <use xlink:href="#me247abaf7a" x="258.697749" y="315" style="stroke: #000000; stroke-width: 0.8"/>
      </g>
     </g>
     <g id="text_3">
      <!-- 0 -->
      <g transform="translate(255.516499 329.598437)scale(0.1 -0.1)">
       <defs>
        <path id="DejaVuSans-30" d="M 2034 4250 
Q 1547 4250 1301 3770 
Q 1056 3291 1056 2328 
Q 1056 1369 1301 889 
Q 1547 409 2034 409 
Q 2525 409 2770 889 
Q 3016 1369 3016 2328 
Q 3016 3291 2770 3770 
Q 2525 4250 2034 4250 
z
M 2034 4750 
Q 2819 4750 3233 4129 
Q 3647 3509 3647 2328 
Q 3647 1150 3233 529 
Q 2819 -91 2034 -91 
Q 1250 -91 836 529 
Q 422 1150 422 2328 
Q 422 3509 836 4129 
Q 1250 4750 2034 4750 
z
" transform="scale(0.015625)"/>
       </defs>
       <use xlink:href="#DejaVuSans-30"/>
      </g>
     </g>
    </g>
    <g id="xtick_4">
     <g id="line2d_7">
      <path d="M 329.876915 315 
L 329.876915 43.2 
" clip-path="url(#pf30abaddc8)" style="fill: none; stroke: #b0b0b0; stroke-width: 0.8; stroke-linecap: square"/>
     </g>
     <g id="line2d_8">
      <g>
       <use xlink:href="#me247abaf7a" x="329.876915" y="315" style="stroke: #000000; stroke-width: 0.8"/>
      </g>
     </g>
     <g id="text_4">
      <!-- 2 -->
      <g transform="translate(326.695665 329.598437)scale(0.1 -0.1)">
       <use xlink:href="#DejaVuSans-32"/>
      </g>
     </g>
    </g>
    <g id="xtick_5">
     <g id="line2d_9">
      <path d="M 401.05608 315 
L 401.05608 43.2 
" clip-path="url(#pf30abaddc8)" style="fill: none; stroke: #b0b0b0; stroke-width: 0.8; stroke-linecap: square"/>
     </g>
     <g id="line2d_10">
      <g>
       <use xlink:href="#me247abaf7a" x="401.05608" y="315" style="stroke: #000000; stroke-width: 0.8"/>
      </g>
     </g>
     <g id="text_5">
      <!-- 4 -->
      <g transform="translate(397.87483 329.598437)scale(0.1 -0.1)">
       <use xlink:href="#DejaVuSans-34"/>
      </g>
     </g>
    </g>
    <g id="text_6">
     <!-- Input -->
     <g transform="translate(238.879688 347.075781)scale(0.15 -0.15)">
      <defs>
       <path id="DejaVuSans-49" d="M 628 4666 
L 1259 4666 
L 1259 0 
L 628 0 
L 628 4666 
z
" transform="scale(0.015625)"/>
       <path id="DejaVuSans-6e" d="M 3513 2113 
L 3513 0 
L 2938 0 
L 2938 2094 
Q 2938 2591 2744 2837 
Q 2550 3084 2163 3084 
Q 1697 3084 1428 2787 
Q 1159 2491 1159 1978 
L 1159 0 
L 581 0 
L 581 3500 
L 1159 3500 
L 1159 2956 
Q 1366 3272 1645 3428 
Q 1925 3584 2291 3584 
Q 2894 3584 3203 3211 
Q 3513 2838 3513 2113 
z
" transform="scale(0.015625)"/>
       <path id="DejaVuSans-70" d="M 1159 525 
L 1159 -1331 
L 581 -1331 
L 581 3500 
L 1159 3500 
L 1159 2969 
Q 1341 3281 1617 3432 
Q 1894 3584 2278 3584 
Q 2916 3584 3314 3078 
Q 3713 2572 3713 1747 
Q 3713 922 3314 415 
Q 2916 -91 2278 -91 
Q 1894 -91 1617 61 
Q 1341 213 1159 525 
z
M 3116 1747 
Q 3116 2381 2855 2742 
Q 2594 3103 2138 3103 
Q 1681 3103 1420 2742 
Q 1159 2381 1159 1747 
Q 1159 1113 1420 752 
Q 1681 391 2138 391 
Q 2594 391 2855 752 
Q 3116 1113 3116 1747 
z
" transform="scale(0.015625)"/>
       <path id="DejaVuSans-75" d="M 544 1381 
L 544 3500 
L 1119 3500 
L 1119 1403 
Q 1119 906 1312 657 
Q 1506 409 1894 409 
Q 2359 409 2629 706 
Q 2900 1003 2900 1516 
L 2900 3500 
L 3475 3500 
L 3475 0 
L 2900 0 
L 2900 538 
Q 2691 219 2414 64 
Q 2138 -91 1772 -91 
Q 1169 -91 856 284 
Q 544 659 544 1381 
z
M 1991 3584 
L 1991 3584 
z
" transform="scale(0.015625)"/>
       <path id="DejaVuSans-74" d="M 1172 4494 
L 1172 3500 
L 2356 3500 
L 2356 3053 
L 1172 3053 
L 1172 1153 
Q 1172 725 1289 603 
Q 1406 481 1766 481 
L 2356 481 
L 2356 0 
L 1766 0 
Q 1100 0 847 248 
Q 594 497 594 1153 
L 594 3053 
L 172 3053 
L 172 3500 
L 594 3500 
L 594 4494 
L 1172 4494 
z
" transform="scale(0.015625)"/>
      </defs>
      <use xlink:href="#DejaVuSans-49"/>
      <use xlink:href="#DejaVuSans-6e" x="29.492188"/>
      <use xlink:href="#DejaVuSans-70" x="92.871094"/>
      <use xlink:href="#DejaVuSans-75" x="156.347656"/>
      <use xlink:href="#DejaVuSans-74" x="219.726562"/>
     </g>
    </g>
   </g>
   <g id="matplotlib.axis_2">
    <g id="ytick_1">
     <g id="line2d_11">
      <path d="M 63 308.44954 
L 453.6 308.44954 
" clip-path="url(#pf30abaddc8)" style="fill: none; stroke: #b0b0b0; stroke-width: 0.8; stroke-linecap: square"/>
     </g>
     <g id="line2d_12">
      <defs>
       <path id="mc3560c14cd" d="M 0 0 
L -3.5 0 
" style="stroke: #000000; stroke-width: 0.8"/>
      </defs>
      <g>
       <use xlink:href="#mc3560c14cd" x="63" y="308.44954" style="stroke: #000000; stroke-width: 0.8"/>
      </g>
     </g>
     <g id="text_7">
      <!-- −4 -->
      <g transform="translate(41.257812 312.248759)scale(0.1 -0.1)">
       <use xlink:href="#DejaVuSans-2212"/>
       <use xlink:href="#DejaVuSans-34" x="83.789062"/>
      </g>
     </g>
    </g>
    <g id="ytick_2">
     <g id="line2d_13">
      <path d="M 63 263.286915 
L 453.6 263.286915 
" clip-path="url(#pf30abaddc8)" style="fill: none; stroke: #b0b0b0; stroke-width: 0.8; stroke-linecap: square"/>
     </g>
     <g id="line2d_14">
      <g>
       <use xlink:href="#mc3560c14cd" x="63" y="263.286915" style="stroke: #000000; stroke-width: 0.8"/>
      </g>
     </g>
     <g id="text_8">
      <!-- −2 -->
      <g transform="translate(41.257812 267.086133)scale(0.1 -0.1)">
       <use xlink:href="#DejaVuSans-2212"/>
       <use xlink:href="#DejaVuSans-32" x="83.789062"/>
      </g>
     </g>
    </g>
    <g id="ytick_3">
     <g id="line2d_15">
      <path d="M 63 218.124289 
L 453.6 218.124289 
" clip-path="url(#pf30abaddc8)" style="fill: none; stroke: #b0b0b0; stroke-width: 0.8; stroke-linecap: square"/>
     </g>
     <g id="line2d_16">
      <g>
       <use xlink:href="#mc3560c14cd" x="63" y="218.124289" style="stroke: #000000; stroke-width: 0.8"/>
      </g>
     </g>
     <g id="text_9">
      <!-- 0 -->
      <g transform="translate(49.6375 221.923508)scale(0.1 -0.1)">
       <use xlink:href="#DejaVuSans-30"/>
      </g>
     </g>
    </g>
    <g id="ytick_4">
     <g id="line2d_17">
      <path d="M 63 172.961664 
L 453.6 172.961664 
" clip-path="url(#pf30abaddc8)" style="fill: none; stroke: #b0b0b0; stroke-width: 0.8; stroke-linecap: square"/>
     </g>
     <g id="line2d_18">
      <g>
       <use xlink:href="#mc3560c14cd" x="63" y="172.961664" style="stroke: #000000; stroke-width: 0.8"/>
      </g>
     </g>
     <g id="text_10">
      <!-- 2 -->
      <g transform="translate(49.6375 176.760882)scale(0.1 -0.1)">
       <use xlink:href="#DejaVuSans-32"/>
      </g>
     </g>
    </g>
    <g id="ytick_5">
     <g id="line2d_19">
      <path d="M 63 127.799038 
L 453.6 127.799038 
" clip-path="url(#pf30abaddc8)" style="fill: none; stroke: #b0b0b0; stroke-width: 0.8; stroke-linecap: square"/>
     </g>
     <g id="line2d_20">
      <g>
       <use xlink:href="#mc3560c14cd" x="63" y="127.799038" style="stroke: #000000; stroke-width: 0.8"/>
      </g>
     </g>
     <g id="text_11">
      <!-- 4 -->
      <g transform="translate(49.6375 131.598257)scale(0.1 -0.1)">
       <use xlink:href="#DejaVuSans-34"/>
      </g>
     </g>
    </g>
    <g id="ytick_6">
     <g id="line2d_21">
      <path d="M 63 82.636413 
L 453.6 82.636413 
" clip-path="url(#pf30abaddc8)" style="fill: none; stroke: #b0b0b0; stroke-width: 0.8; stroke-linecap: square"/>
     </g>
     <g id="line2d_22">
      <g>
       <use xlink:href="#mc3560c14cd" x="63" y="82.636413" style="stroke: #000000; stroke-width: 0.8"/>
      </g>
     </g>
     <g id="text_12">
      <!-- 6 -->
      <g transform="translate(49.6375 86.435631)scale(0.1 -0.1)">
       <defs>
        <path id="DejaVuSans-36" d="M 2113 2584 
Q 1688 2584 1439 2293 
Q 1191 2003 1191 1497 
Q 1191 994 1439 701 
Q 1688 409 2113 409 
Q 2538 409 2786 701 
Q 3034 994 3034 1497 
Q 3034 2003 2786 2293 
Q 2538 2584 2113 2584 
z
M 3366 4563 
L 3366 3988 
Q 3128 4100 2886 4159 
Q 2644 4219 2406 4219 
Q 1781 4219 1451 3797 
Q 1122 3375 1075 2522 
Q 1259 2794 1537 2939 
Q 1816 3084 2150 3084 
Q 2853 3084 3261 2657 
Q 3669 2231 3669 1497 
Q 3669 778 3244 343 
Q 2819 -91 2113 -91 
Q 1303 -91 875 529 
Q 447 1150 447 2328 
Q 447 3434 972 4092 
Q 1497 4750 2381 4750 
Q 2619 4750 2861 4703 
Q 3103 4656 3366 4563 
z
" transform="scale(0.015625)"/>
       </defs>
       <use xlink:href="#DejaVuSans-36"/>
      </g>
     </g>
    </g>
    <g id="text_13">
     <!-- Label -->
     <g transform="translate(34.138281 199.334766)rotate(-90)scale(0.15 -0.15)">
      <defs>
       <path id="DejaVuSans-4c" d="M 628 4666 
L 1259 4666 
L 1259 531 
L 3531 531 
L 3531 0 
L 628 0 
L 628 4666 
z
" transform="scale(0.015625)"/>
       <path id="DejaVuSans-61" d="M 2194 1759 
Q 1497 1759 1228 1600 
Q 959 1441 959 1056 
Q 959 750 1161 570 
Q 1363 391 1709 391 
Q 2188 391 2477 730 
Q 2766 1069 2766 1631 
L 2766 1759 
L 2194 1759 
z
M 3341 1997 
L 3341 0 
L 2766 0 
L 2766 531 
Q 2569 213 2275 61 
Q 1981 -91 1556 -91 
Q 1019 -91 701 211 
Q 384 513 384 1019 
Q 384 1609 779 1909 
Q 1175 2209 1959 2209 
L 2766 2209 
L 2766 2266 
Q 2766 2663 2505 2880 
Q 2244 3097 1772 3097 
Q 1472 3097 1187 3025 
Q 903 2953 641 2809 
L 641 3341 
Q 956 3463 1253 3523 
Q 1550 3584 1831 3584 
Q 2591 3584 2966 3190 
Q 3341 2797 3341 1997 
z
" transform="scale(0.015625)"/>
       <path id="DejaVuSans-62" d="M 3116 1747 
Q 3116 2381 2855 2742 
Q 2594 3103 2138 3103 
Q 1681 3103 1420 2742 
Q 1159 2381 1159 1747 
Q 1159 1113 1420 752 
Q 1681 391 2138 391 
Q 2594 391 2855 752 
Q 3116 1113 3116 1747 
z
M 1159 2969 
Q 1341 3281 1617 3432 
Q 1894 3584 2278 3584 
Q 2916 3584 3314 3078 
Q 3713 2572 3713 1747 
Q 3713 922 3314 415 
Q 2916 -91 2278 -91 
Q 1894 -91 1617 61 
Q 1341 213 1159 525 
L 1159 0 
L 581 0 
L 581 4863 
L 1159 4863 
L 1159 2969 
z
" transform="scale(0.015625)"/>
       <path id="DejaVuSans-65" d="M 3597 1894 
L 3597 1613 
L 953 1613 
Q 991 1019 1311 708 
Q 1631 397 2203 397 
Q 2534 397 2845 478 
Q 3156 559 3463 722 
L 3463 178 
Q 3153 47 2828 -22 
Q 2503 -91 2169 -91 
Q 1331 -91 842 396 
Q 353 884 353 1716 
Q 353 2575 817 3079 
Q 1281 3584 2069 3584 
Q 2775 3584 3186 3129 
Q 3597 2675 3597 1894 
z
M 3022 2063 
Q 3016 2534 2758 2815 
Q 2500 3097 2075 3097 
Q 1594 3097 1305 2825 
Q 1016 2553 972 2059 
L 3022 2063 
z
" transform="scale(0.015625)"/>
       <path id="DejaVuSans-6c" d="M 603 4863 
L 1178 4863 
L 1178 0 
L 603 0 
L 603 4863 
z
" transform="scale(0.015625)"/>
      </defs>
      <use xlink:href="#DejaVuSans-4c"/>
      <use xlink:href="#DejaVuSans-61" x="55.712891"/>
      <use xlink:href="#DejaVuSans-62" x="116.992188"/>
      <use xlink:href="#DejaVuSans-65" x="180.46875"/>
      <use xlink:href="#DejaVuSans-6c" x="241.992188"/>
     </g>
    </g>
   </g>
   <g id="line2d_23">
    <defs>
     <path id="mf06d5d4b64" d="M 0 2.5 
C 0.663008 2.5 1.29895 2.236584 1.767767 1.767767 
C 2.236584 1.29895 2.5 0.663008 2.5 0 
C 2.5 -0.663008 2.236584 -1.29895 1.767767 -1.767767 
C 1.29895 -2.236584 0.663008 -2.5 0 -2.5 
C -0.663008 -2.5 -1.29895 -2.236584 -1.767767 -1.767767 
C -2.236584 -1.29895 -2.5 -0.663008 -2.5 0 
C -2.5 0.663008 -2.236584 1.29895 -1.767767 1.767767 
C -1.29895 2.236584 -0.663008 2.5 0 2.5 
z
" style="stroke: #ff0000"/>
    </defs>
    <g clip-path="url(#pf30abaddc8)">
     <use xlink:href="#mf06d5d4b64" x="88.299448" y="245.601312" style="fill: #ff0000; stroke: #ff0000"/>
     <use xlink:href="#mf06d5d4b64" x="133.811874" y="144.112205" style="fill: #ff0000; stroke: #ff0000"/>
     <use xlink:href="#mf06d5d4b64" x="121.486636" y="158.930202" style="fill: #ff0000; stroke: #ff0000"/>
     <use xlink:href="#mf06d5d4b64" x="113.367061" y="194.50225" style="fill: #ff0000; stroke: #ff0000"/>
     <use xlink:href="#mf06d5d4b64" x="108.132881" y="190.374696" style="fill: #ff0000; stroke: #ff0000"/>
     <use xlink:href="#mf06d5d4b64" x="100.252167" y="220.725009" style="fill: #ff0000; stroke: #ff0000"/>
     <use xlink:href="#mf06d5d4b64" x="128.294843" y="138.306942" style="fill: #ff0000; stroke: #ff0000"/>
     <use xlink:href="#mf06d5d4b64" x="108.899418" y="173.428265" style="fill: #ff0000; stroke: #ff0000"/>
     <use xlink:href="#mf06d5d4b64" x="100.79196" y="203.944624" style="fill: #ff0000; stroke: #ff0000"/>
     <use xlink:href="#mf06d5d4b64" x="136.26387" y="153.411155" style="fill: #ff0000; stroke: #ff0000"/>
     <use xlink:href="#mf06d5d4b64" x="123.392859" y="166.783791" style="fill: #ff0000; stroke: #ff0000"/>
     <use xlink:href="#mf06d5d4b64" x="89.501056" y="253.536172" style="fill: #ff0000; stroke: #ff0000"/>
     <use xlink:href="#mf06d5d4b64" x="108.479391" y="181.121154" style="fill: #ff0000; stroke: #ff0000"/>
     <use xlink:href="#mf06d5d4b64" x="150.148694" y="131.867522" style="fill: #ff0000; stroke: #ff0000"/>
     <use xlink:href="#mf06d5d4b64" x="114.033136" y="205.147406" style="fill: #ff0000; stroke: #ff0000"/>
     <use xlink:href="#mf06d5d4b64" x="90.72712" y="237.786424" style="fill: #ff0000; stroke: #ff0000"/>
     <use xlink:href="#mf06d5d4b64" x="83.744243" y="302.645455" style="fill: #ff0000; stroke: #ff0000"/>
     <use xlink:href="#mf06d5d4b64" x="132.568003" y="164.125824" style="fill: #ff0000; stroke: #ff0000"/>
     <use xlink:href="#mf06d5d4b64" x="124.568123" y="176.605708" style="fill: #ff0000; stroke: #ff0000"/>
     <use xlink:href="#mf06d5d4b64" x="145.005553" y="131.188443" style="fill: #ff0000; stroke: #ff0000"/>
     <use xlink:href="#mf06d5d4b64" x="125.068363" y="141.314733" style="fill: #ff0000; stroke: #ff0000"/>
     <use xlink:href="#mf06d5d4b64" x="99.265082" y="219.414174" style="fill: #ff0000; stroke: #ff0000"/>
     <use xlink:href="#mf06d5d4b64" x="120.291121" y="183.175191" style="fill: #ff0000; stroke: #ff0000"/>
     <use xlink:href="#mf06d5d4b64" x="109.576436" y="193.399468" style="fill: #ff0000; stroke: #ff0000"/>
     <use xlink:href="#mf06d5d4b64" x="90.839901" y="242.251194" style="fill: #ff0000; stroke: #ff0000"/>
     <use xlink:href="#mf06d5d4b64" x="121.87334" y="174.788893" style="fill: #ff0000; stroke: #ff0000"/>
     <use xlink:href="#mf06d5d4b64" x="118.227179" y="168.419374" style="fill: #ff0000; stroke: #ff0000"/>
     <use xlink:href="#mf06d5d4b64" x="147.556403" y="134.622794" style="fill: #ff0000; stroke: #ff0000"/>
     <use xlink:href="#mf06d5d4b64" x="149.002028" y="140.441642" style="fill: #ff0000; stroke: #ff0000"/>
     <use xlink:href="#mf06d5d4b64" x="150.82087" y="136.229263" style="fill: #ff0000; stroke: #ff0000"/>
     <use xlink:href="#mf06d5d4b64" x="231.327799" y="142.669226" style="fill: #ff0000; stroke: #ff0000"/>
     <use xlink:href="#mf06d5d4b64" x="226.563177" y="149.235063" style="fill: #ff0000; stroke: #ff0000"/>
     <use xlink:href="#mf06d5d4b64" x="231.854259" y="151.47851" style="fill: #ff0000; stroke: #ff0000"/>
     <use xlink:href="#mf06d5d4b64" x="247.691944" y="161.798693" style="fill: #ff0000; stroke: #ff0000"/>
     <use xlink:href="#mf06d5d4b64" x="230.134686" y="136.34534" style="fill: #ff0000; stroke: #ff0000"/>
     <use xlink:href="#mf06d5d4b64" x="252.630694" y="182.535275" style="fill: #ff0000; stroke: #ff0000"/>
     <use xlink:href="#mf06d5d4b64" x="235.426692" y="161.954724" style="fill: #ff0000; stroke: #ff0000"/>
     <use xlink:href="#mf06d5d4b64" x="241.401741" y="138.305096" style="fill: #ff0000; stroke: #ff0000"/>
     <use xlink:href="#mf06d5d4b64" x="246.638503" y="146.851917" style="fill: #ff0000; stroke: #ff0000"/>
     <use xlink:href="#mf06d5d4b64" x="256.335473" y="179.94144" style="fill: #ff0000; stroke: #ff0000"/>
     <use xlink:href="#mf06d5d4b64" x="225.489134" y="127.908589" style="fill: #ff0000; stroke: #ff0000"/>
     <use xlink:href="#mf06d5d4b64" x="249.689659" y="157.405694" style="fill: #ff0000; stroke: #ff0000"/>
     <use xlink:href="#mf06d5d4b64" x="236.998162" y="170.490026" style="fill: #ff0000; stroke: #ff0000"/>
     <use xlink:href="#mf06d5d4b64" x="242.175586" y="136.185536" style="fill: #ff0000; stroke: #ff0000"/>
     <use xlink:href="#mf06d5d4b64" x="225.258817" y="147.302551" style="fill: #ff0000; stroke: #ff0000"/>
     <use xlink:href="#mf06d5d4b64" x="254.831148" y="165.064807" style="fill: #ff0000; stroke: #ff0000"/>
     <use xlink:href="#mf06d5d4b64" x="250.792368" y="168.650992" style="fill: #ff0000; stroke: #ff0000"/>
     <use xlink:href="#mf06d5d4b64" x="246.957447" y="160.028823" style="fill: #ff0000; stroke: #ff0000"/>
     <use xlink:href="#mf06d5d4b64" x="249.268386" y="172.004711" style="fill: #ff0000; stroke: #ff0000"/>
     <use xlink:href="#mf06d5d4b64" x="246.728956" y="148.221274" style="fill: #ff0000; stroke: #ff0000"/>
     <use xlink:href="#mf06d5d4b64" x="271.635719" y="194.082646" style="fill: #ff0000; stroke: #ff0000"/>
     <use xlink:href="#mf06d5d4b64" x="320.125196" y="155.116857" style="fill: #ff0000; stroke: #ff0000"/>
     <use xlink:href="#mf06d5d4b64" x="290.830086" y="190.228499" style="fill: #ff0000; stroke: #ff0000"/>
     <use xlink:href="#mf06d5d4b64" x="304.944967" y="175.901877" style="fill: #ff0000; stroke: #ff0000"/>
     <use xlink:href="#mf06d5d4b64" x="270.041716" y="181.735141" style="fill: #ff0000; stroke: #ff0000"/>
     <use xlink:href="#mf06d5d4b64" x="287.595192" y="176.70895" style="fill: #ff0000; stroke: #ff0000"/>
     <use xlink:href="#mf06d5d4b64" x="315.559338" y="169.809948" style="fill: #ff0000; stroke: #ff0000"/>
     <use xlink:href="#mf06d5d4b64" x="310.598342" y="166.382396" style="fill: #ff0000; stroke: #ff0000"/>
     <use xlink:href="#mf06d5d4b64" x="263.74465" y="157.038809" style="fill: #ff0000; stroke: #ff0000"/>
     <use xlink:href="#mf06d5d4b64" x="313.485295" y="181.356105" style="fill: #ff0000; stroke: #ff0000"/>
     <use xlink:href="#mf06d5d4b64" x="383.162196" y="179.20189" style="fill: #ff0000; stroke: #ff0000"/>
     <use xlink:href="#mf06d5d4b64" x="392.760921" y="172.011795" style="fill: #ff0000; stroke: #ff0000"/>
     <use xlink:href="#mf06d5d4b64" x="389.658819" y="183.699439" style="fill: #ff0000; stroke: #ff0000"/>
     <use xlink:href="#mf06d5d4b64" x="370.10242" y="195.512143" style="fill: #ff0000; stroke: #ff0000"/>
     <use xlink:href="#mf06d5d4b64" x="388.910909" y="188.295926" style="fill: #ff0000; stroke: #ff0000"/>
     <use xlink:href="#mf06d5d4b64" x="374.197651" y="185.1243" style="fill: #ff0000; stroke: #ff0000"/>
     <use xlink:href="#mf06d5d4b64" x="374.20202" y="190.471047" style="fill: #ff0000; stroke: #ff0000"/>
     <use xlink:href="#mf06d5d4b64" x="395.288995" y="158.557035" style="fill: #ff0000; stroke: #ff0000"/>
     <use xlink:href="#mf06d5d4b64" x="369.220862" y="188.083746" style="fill: #ff0000; stroke: #ff0000"/>
     <use xlink:href="#mf06d5d4b64" x="391.319921" y="179.401007" style="fill: #ff0000; stroke: #ff0000"/>
     <use xlink:href="#mf06d5d4b64" x="434.712635" y="55.554545" style="fill: #ff0000; stroke: #ff0000"/>
     <use xlink:href="#mf06d5d4b64" x="426.739833" y="82.508527" style="fill: #ff0000; stroke: #ff0000"/>
     <use xlink:href="#mf06d5d4b64" x="406.177361" y="155.230358" style="fill: #ff0000; stroke: #ff0000"/>
     <use xlink:href="#mf06d5d4b64" x="429.280508" y="100.3697" style="fill: #ff0000; stroke: #ff0000"/>
     <use xlink:href="#mf06d5d4b64" x="426.287438" y="87.135265" style="fill: #ff0000; stroke: #ff0000"/>
     <use xlink:href="#mf06d5d4b64" x="435.665885" y="56.610411" style="fill: #ff0000; stroke: #ff0000"/>
     <use xlink:href="#mf06d5d4b64" x="435.845455" y="61.131237" style="fill: #ff0000; stroke: #ff0000"/>
     <use xlink:href="#mf06d5d4b64" x="418.850828" y="131.904268" style="fill: #ff0000; stroke: #ff0000"/>
     <use xlink:href="#mf06d5d4b64" x="424.3919" y="96.683867" style="fill: #ff0000; stroke: #ff0000"/>
     <use xlink:href="#mf06d5d4b64" x="410.621436" y="152.743232" style="fill: #ff0000; stroke: #ff0000"/>
     <use xlink:href="#mf06d5d4b64" x="423.566119" y="113.123814" style="fill: #ff0000; stroke: #ff0000"/>
     <use xlink:href="#mf06d5d4b64" x="431.378864" y="72.025172" style="fill: #ff0000; stroke: #ff0000"/>
     <use xlink:href="#mf06d5d4b64" x="421.305214" y="119.453505" style="fill: #ff0000; stroke: #ff0000"/>
     <use xlink:href="#mf06d5d4b64" x="401.888389" y="160.731321" style="fill: #ff0000; stroke: #ff0000"/>
     <use xlink:href="#mf06d5d4b64" x="420.795712" y="106.162803" style="fill: #ff0000; stroke: #ff0000"/>
     <use xlink:href="#mf06d5d4b64" x="414.17441" y="116.106418" style="fill: #ff0000; stroke: #ff0000"/>
     <use xlink:href="#mf06d5d4b64" x="435.233162" y="72.228643" style="fill: #ff0000; stroke: #ff0000"/>
     <use xlink:href="#mf06d5d4b64" x="414.979964" y="130.571231" style="fill: #ff0000; stroke: #ff0000"/>
     <use xlink:href="#mf06d5d4b64" x="402.411075" y="142.806899" style="fill: #ff0000; stroke: #ff0000"/>
     <use xlink:href="#mf06d5d4b64" x="432.806392" y="83.112051" style="fill: #ff0000; stroke: #ff0000"/>
     <use xlink:href="#mf06d5d4b64" x="406.176572" y="142.313912" style="fill: #ff0000; stroke: #ff0000"/>
     <use xlink:href="#mf06d5d4b64" x="423.783116" y="103.661299" style="fill: #ff0000; stroke: #ff0000"/>
     <use xlink:href="#mf06d5d4b64" x="404.616372" y="149.819567" style="fill: #ff0000; stroke: #ff0000"/>
     <use xlink:href="#mf06d5d4b64" x="432.754422" y="72.794376" style="fill: #ff0000; stroke: #ff0000"/>
     <use xlink:href="#mf06d5d4b64" x="403.433839" y="175.431807" style="fill: #ff0000; stroke: #ff0000"/>
     <use xlink:href="#mf06d5d4b64" x="427.601075" y="86.256247" style="fill: #ff0000; stroke: #ff0000"/>
     <use xlink:href="#mf06d5d4b64" x="417.232381" y="137.172113" style="fill: #ff0000; stroke: #ff0000"/>
     <use xlink:href="#mf06d5d4b64" x="420.532339" y="114.555469" style="fill: #ff0000; stroke: #ff0000"/>
     <use xlink:href="#mf06d5d4b64" x="424.176788" y="101.028086" style="fill: #ff0000; stroke: #ff0000"/>
     <use xlink:href="#mf06d5d4b64" x="428.881283" y="68.705734" style="fill: #ff0000; stroke: #ff0000"/>
    </g>
   </g>
   <g id="line2d_24">
    <defs>
     <path id="mf69f15d1db" d="M 0 2.5 
C 0.663008 2.5 1.29895 2.236584 1.767767 1.767767 
C 2.236584 1.29895 2.5 0.663008 2.5 0 
C 2.5 -0.663008 2.236584 -1.29895 1.767767 -1.767767 
C 1.29895 -2.236584 0.663008 -2.5 0 -2.5 
C -0.663008 -2.5 -1.29895 -2.236584 -1.767767 -1.767767 
C -2.236584 -1.29895 -2.5 -0.663008 -2.5 0 
C -2.5 0.663008 -2.236584 1.29895 -1.767767 1.767767 
C -1.29895 2.236584 -0.663008 2.5 0 2.5 
z
" style="stroke: #008000"/>
    </defs>
    <g clip-path="url(#pf30abaddc8)">
     <use xlink:href="#mf69f15d1db" x="236.519477" y="152.440184" style="fill: #008000; stroke: #008000"/>
     <use xlink:href="#mf69f15d1db" x="422.887918" y="106.095714" style="fill: #008000; stroke: #008000"/>
     <use xlink:href="#mf69f15d1db" x="409.359641" y="141.27649" style="fill: #008000; stroke: #008000"/>
     <use xlink:href="#mf69f15d1db" x="96.554485" y="231.817529" style="fill: #008000; stroke: #008000"/>
     <use xlink:href="#mf69f15d1db" x="361.718354" y="186.577572" style="fill: #008000; stroke: #008000"/>
     <use xlink:href="#mf69f15d1db" x="84.44629" y="273.112754" style="fill: #008000; stroke: #008000"/>
     <use xlink:href="#mf69f15d1db" x="190.199378" y="119.330678" style="fill: #008000; stroke: #008000"/>
     <use xlink:href="#mf69f15d1db" x="146.636989" y="135.879703" style="fill: #008000; stroke: #008000"/>
     <use xlink:href="#mf69f15d1db" x="315.437381" y="157.350348" style="fill: #008000; stroke: #008000"/>
     <use xlink:href="#mf69f15d1db" x="247.736753" y="160.826787" style="fill: #008000; stroke: #008000"/>
     <use xlink:href="#mf69f15d1db" x="268.93137" y="176.969637" style="fill: #008000; stroke: #008000"/>
     <use xlink:href="#mf69f15d1db" x="140.749823" y="143.47459" style="fill: #008000; stroke: #008000"/>
     <use xlink:href="#mf69f15d1db" x="84.260936" y="272.60274" style="fill: #008000; stroke: #008000"/>
     <use xlink:href="#mf69f15d1db" x="329.281425" y="154.919415" style="fill: #008000; stroke: #008000"/>
     <use xlink:href="#mf69f15d1db" x="241.344697" y="157.387248" style="fill: #008000; stroke: #008000"/>
     <use xlink:href="#mf69f15d1db" x="350.063773" y="166.092802" style="fill: #008000; stroke: #008000"/>
     <use xlink:href="#mf69f15d1db" x="395.407461" y="169.832454" style="fill: #008000; stroke: #008000"/>
     <use xlink:href="#mf69f15d1db" x="420.935172" y="110.45127" style="fill: #008000; stroke: #008000"/>
     <use xlink:href="#mf69f15d1db" x="183.838433" y="126.539686" style="fill: #008000; stroke: #008000"/>
     <use xlink:href="#mf69f15d1db" x="211.278746" y="134.690647" style="fill: #008000; stroke: #008000"/>
     <use xlink:href="#mf69f15d1db" x="156.474914" y="127.281802" style="fill: #008000; stroke: #008000"/>
     <use xlink:href="#mf69f15d1db" x="153.889961" y="134.588138" style="fill: #008000; stroke: #008000"/>
     <use xlink:href="#mf69f15d1db" x="234.518814" y="149.72676" style="fill: #008000; stroke: #008000"/>
     <use xlink:href="#mf69f15d1db" x="327.766389" y="153.947466" style="fill: #008000; stroke: #008000"/>
     <use xlink:href="#mf69f15d1db" x="420.903759" y="115.703983" style="fill: #008000; stroke: #008000"/>
     <use xlink:href="#mf69f15d1db" x="339.863791" y="161.841411" style="fill: #008000; stroke: #008000"/>
     <use xlink:href="#mf69f15d1db" x="323.198138" y="158.423152" style="fill: #008000; stroke: #008000"/>
     <use xlink:href="#mf69f15d1db" x="224.056469" y="139.501181" style="fill: #008000; stroke: #008000"/>
     <use xlink:href="#mf69f15d1db" x="159.259026" y="130.524675" style="fill: #008000; stroke: #008000"/>
     <use xlink:href="#mf69f15d1db" x="288.746154" y="179.584219" style="fill: #008000; stroke: #008000"/>
     <use xlink:href="#mf69f15d1db" x="152.678195" y="135.736151" style="fill: #008000; stroke: #008000"/>
     <use xlink:href="#mf69f15d1db" x="103.330636" y="210.068263" style="fill: #008000; stroke: #008000"/>
     <use xlink:href="#mf69f15d1db" x="328.520035" y="152.593811" style="fill: #008000; stroke: #008000"/>
     <use xlink:href="#mf69f15d1db" x="125.319621" y="168.027059" style="fill: #008000; stroke: #008000"/>
     <use xlink:href="#mf69f15d1db" x="196.903736" y="125.0874" style="fill: #008000; stroke: #008000"/>
     <use xlink:href="#mf69f15d1db" x="240.287741" y="153.637774" style="fill: #008000; stroke: #008000"/>
     <use xlink:href="#mf69f15d1db" x="302.118304" y="173.810028" style="fill: #008000; stroke: #008000"/>
     <use xlink:href="#mf69f15d1db" x="381.552636" y="191.159058" style="fill: #008000; stroke: #008000"/>
     <use xlink:href="#mf69f15d1db" x="325.619275" y="158.137338" style="fill: #008000; stroke: #008000"/>
     <use xlink:href="#mf69f15d1db" x="164.954158" y="124.811968" style="fill: #008000; stroke: #008000"/>
     <use xlink:href="#mf69f15d1db" x="206.057056" y="132.849274" style="fill: #008000; stroke: #008000"/>
     <use xlink:href="#mf69f15d1db" x="179.013622" y="121.811054" style="fill: #008000; stroke: #008000"/>
     <use xlink:href="#mf69f15d1db" x="258.436625" y="168.089039" style="fill: #008000; stroke: #008000"/>
     <use xlink:href="#mf69f15d1db" x="82.10486" y="276.622035" style="fill: #008000; stroke: #008000"/>
     <use xlink:href="#mf69f15d1db" x="350.219956" y="174.962407" style="fill: #008000; stroke: #008000"/>
     <use xlink:href="#mf69f15d1db" x="216.563297" y="136.22401" style="fill: #008000; stroke: #008000"/>
     <use xlink:href="#mf69f15d1db" x="268.111519" y="180.75584" style="fill: #008000; stroke: #008000"/>
     <use xlink:href="#mf69f15d1db" x="322.074728" y="155.387674" style="fill: #008000; stroke: #008000"/>
     <use xlink:href="#mf69f15d1db" x="290.447485" y="182.008158" style="fill: #008000; stroke: #008000"/>
     <use xlink:href="#mf69f15d1db" x="401.05784" y="160.562344" style="fill: #008000; stroke: #008000"/>
     <use xlink:href="#mf69f15d1db" x="153.422601" y="133.120843" style="fill: #008000; stroke: #008000"/>
     <use xlink:href="#mf69f15d1db" x="308.036643" y="167.149077" style="fill: #008000; stroke: #008000"/>
     <use xlink:href="#mf69f15d1db" x="356.214058" y="178.356907" style="fill: #008000; stroke: #008000"/>
     <use xlink:href="#mf69f15d1db" x="264.219886" y="175.821831" style="fill: #008000; stroke: #008000"/>
     <use xlink:href="#mf69f15d1db" x="116.587442" y="181.491943" style="fill: #008000; stroke: #008000"/>
     <use xlink:href="#mf69f15d1db" x="331.557494" y="154.924254" style="fill: #008000; stroke: #008000"/>
     <use xlink:href="#mf69f15d1db" x="293.916046" y="179.307793" style="fill: #008000; stroke: #008000"/>
     <use xlink:href="#mf69f15d1db" x="343.574616" y="164.189939" style="fill: #008000; stroke: #008000"/>
     <use xlink:href="#mf69f15d1db" x="142.674993" y="141.628738" style="fill: #008000; stroke: #008000"/>
     <use xlink:href="#mf69f15d1db" x="352.797907" y="178.991626" style="fill: #008000; stroke: #008000"/>
     <use xlink:href="#mf69f15d1db" x="268.200893" y="177.851486" style="fill: #008000; stroke: #008000"/>
     <use xlink:href="#mf69f15d1db" x="430.269875" y="81.31325" style="fill: #008000; stroke: #008000"/>
     <use xlink:href="#mf69f15d1db" x="424.377128" y="103.772568" style="fill: #008000; stroke: #008000"/>
     <use xlink:href="#mf69f15d1db" x="80.754545" y="285.865262" style="fill: #008000; stroke: #008000"/>
     <use xlink:href="#mf69f15d1db" x="355.498636" y="178.003107" style="fill: #008000; stroke: #008000"/>
     <use xlink:href="#mf69f15d1db" x="208.539816" y="131.400476" style="fill: #008000; stroke: #008000"/>
     <use xlink:href="#mf69f15d1db" x="184.153619" y="119.244117" style="fill: #008000; stroke: #008000"/>
     <use xlink:href="#mf69f15d1db" x="145.25376" y="141.389807" style="fill: #008000; stroke: #008000"/>
     <use xlink:href="#mf69f15d1db" x="280.217379" y="184.519601" style="fill: #008000; stroke: #008000"/>
     <use xlink:href="#mf69f15d1db" x="382.375023" y="188.580158" style="fill: #008000; stroke: #008000"/>
     <use xlink:href="#mf69f15d1db" x="432.904298" y="75.049184" style="fill: #008000; stroke: #008000"/>
     <use xlink:href="#mf69f15d1db" x="84.235431" y="273.025364" style="fill: #008000; stroke: #008000"/>
     <use xlink:href="#mf69f15d1db" x="336.432179" y="158.997886" style="fill: #008000; stroke: #008000"/>
     <use xlink:href="#mf69f15d1db" x="278.654539" y="184.36622" style="fill: #008000; stroke: #008000"/>
     <use xlink:href="#mf69f15d1db" x="328.18616" y="153.524681" style="fill: #008000; stroke: #008000"/>
     <use xlink:href="#mf69f15d1db" x="320.360026" y="153.814077" style="fill: #008000; stroke: #008000"/>
     <use xlink:href="#mf69f15d1db" x="198.44095" y="128.042389" style="fill: #008000; stroke: #008000"/>
     <use xlink:href="#mf69f15d1db" x="322.435584" y="156.256984" style="fill: #008000; stroke: #008000"/>
     <use xlink:href="#mf69f15d1db" x="227.125389" y="144.209866" style="fill: #008000; stroke: #008000"/>
     <use xlink:href="#mf69f15d1db" x="203.86583" y="126.751523" style="fill: #008000; stroke: #008000"/>
     <use xlink:href="#mf69f15d1db" x="416.348399" y="130.89163" style="fill: #008000; stroke: #008000"/>
     <use xlink:href="#mf69f15d1db" x="342.280138" y="164.246621" style="fill: #008000; stroke: #008000"/>
     <use xlink:href="#mf69f15d1db" x="167.868748" y="123.636926" style="fill: #008000; stroke: #008000"/>
     <use xlink:href="#mf69f15d1db" x="415.37932" y="130.723941" style="fill: #008000; stroke: #008000"/>
     <use xlink:href="#mf69f15d1db" x="99.988412" y="222.157466" style="fill: #008000; stroke: #008000"/>
     <use xlink:href="#mf69f15d1db" x="103.762504" y="210.008284" style="fill: #008000; stroke: #008000"/>
     <use xlink:href="#mf69f15d1db" x="209.741956" y="132.45006" style="fill: #008000; stroke: #008000"/>
     <use xlink:href="#mf69f15d1db" x="109.018586" y="202.243556" style="fill: #008000; stroke: #008000"/>
     <use xlink:href="#mf69f15d1db" x="118.543917" y="178.424937" style="fill: #008000; stroke: #008000"/>
     <use xlink:href="#mf69f15d1db" x="114.24973" y="185.639948" style="fill: #008000; stroke: #008000"/>
     <use xlink:href="#mf69f15d1db" x="402.964082" y="157.834101" style="fill: #008000; stroke: #008000"/>
     <use xlink:href="#mf69f15d1db" x="162.145128" y="128.330173" style="fill: #008000; stroke: #008000"/>
     <use xlink:href="#mf69f15d1db" x="409.508129" y="141.950055" style="fill: #008000; stroke: #008000"/>
     <use xlink:href="#mf69f15d1db" x="155.438743" y="128.552331" style="fill: #008000; stroke: #008000"/>
     <use xlink:href="#mf69f15d1db" x="261.092282" y="173.121261" style="fill: #008000; stroke: #008000"/>
     <use xlink:href="#mf69f15d1db" x="186.486008" y="124.855503" style="fill: #008000; stroke: #008000"/>
     <use xlink:href="#mf69f15d1db" x="269.867731" y="176.667496" style="fill: #008000; stroke: #008000"/>
     <use xlink:href="#mf69f15d1db" x="148.05009" y="140.566235" style="fill: #008000; stroke: #008000"/>
     <use xlink:href="#mf69f15d1db" x="251.097353" y="166.597299" style="fill: #008000; stroke: #008000"/>
     <use xlink:href="#mf69f15d1db" x="395.439597" y="172.652142" style="fill: #008000; stroke: #008000"/>
    </g>
   </g>
   <g id="patch_5">
    <path d="M 63 315 
L 63 43.2 
" style="fill: none; stroke: #000000; stroke-width: 0.8; stroke-linejoin: miter; stroke-linecap: square"/>
   </g>
   <g id="patch_6">
    <path d="M 453.6 315 
L 453.6 43.2 
" style="fill: none; stroke: #000000; stroke-width: 0.8; stroke-linejoin: miter; stroke-linecap: square"/>
   </g>
   <g id="patch_7">
    <path d="M 63 315 
L 453.6 315 
" style="fill: none; stroke: #000000; stroke-width: 0.8; stroke-linejoin: miter; stroke-linecap: square"/>
   </g>
   <g id="patch_8">
    <path d="M 63 43.2 
L 453.6 43.2 
" style="fill: none; stroke: #000000; stroke-width: 0.8; stroke-linejoin: miter; stroke-linecap: square"/>
   </g>
   <g id="text_14">
    <!-- Training and test dataset -->
    <g transform="translate(164.691797 37.2)scale(0.15 -0.15)">
     <defs>
      <path id="DejaVuSans-54" d="M -19 4666 
L 3928 4666 
L 3928 4134 
L 2272 4134 
L 2272 0 
L 1638 0 
L 1638 4134 
L -19 4134 
L -19 4666 
z
" transform="scale(0.015625)"/>
      <path id="DejaVuSans-72" d="M 2631 2963 
Q 2534 3019 2420 3045 
Q 2306 3072 2169 3072 
Q 1681 3072 1420 2755 
Q 1159 2438 1159 1844 
L 1159 0 
L 581 0 
L 581 3500 
L 1159 3500 
L 1159 2956 
Q 1341 3275 1631 3429 
Q 1922 3584 2338 3584 
Q 2397 3584 2469 3576 
Q 2541 3569 2628 3553 
L 2631 2963 
z
" transform="scale(0.015625)"/>
      <path id="DejaVuSans-69" d="M 603 3500 
L 1178 3500 
L 1178 0 
L 603 0 
L 603 3500 
z
M 603 4863 
L 1178 4863 
L 1178 4134 
L 603 4134 
L 603 4863 
z
" transform="scale(0.015625)"/>
      <path id="DejaVuSans-67" d="M 2906 1791 
Q 2906 2416 2648 2759 
Q 2391 3103 1925 3103 
Q 1463 3103 1205 2759 
Q 947 2416 947 1791 
Q 947 1169 1205 825 
Q 1463 481 1925 481 
Q 2391 481 2648 825 
Q 2906 1169 2906 1791 
z
M 3481 434 
Q 3481 -459 3084 -895 
Q 2688 -1331 1869 -1331 
Q 1566 -1331 1297 -1286 
Q 1028 -1241 775 -1147 
L 775 -588 
Q 1028 -725 1275 -790 
Q 1522 -856 1778 -856 
Q 2344 -856 2625 -561 
Q 2906 -266 2906 331 
L 2906 616 
Q 2728 306 2450 153 
Q 2172 0 1784 0 
Q 1141 0 747 490 
Q 353 981 353 1791 
Q 353 2603 747 3093 
Q 1141 3584 1784 3584 
Q 2172 3584 2450 3431 
Q 2728 3278 2906 2969 
L 2906 3500 
L 3481 3500 
L 3481 434 
z
" transform="scale(0.015625)"/>
      <path id="DejaVuSans-20" transform="scale(0.015625)"/>
      <path id="DejaVuSans-64" d="M 2906 2969 
L 2906 4863 
L 3481 4863 
L 3481 0 
L 2906 0 
L 2906 525 
Q 2725 213 2448 61 
Q 2172 -91 1784 -91 
Q 1150 -91 751 415 
Q 353 922 353 1747 
Q 353 2572 751 3078 
Q 1150 3584 1784 3584 
Q 2172 3584 2448 3432 
Q 2725 3281 2906 2969 
z
M 947 1747 
Q 947 1113 1208 752 
Q 1469 391 1925 391 
Q 2381 391 2643 752 
Q 2906 1113 2906 1747 
Q 2906 2381 2643 2742 
Q 2381 3103 1925 3103 
Q 1469 3103 1208 2742 
Q 947 2381 947 1747 
z
" transform="scale(0.015625)"/>
      <path id="DejaVuSans-73" d="M 2834 3397 
L 2834 2853 
Q 2591 2978 2328 3040 
Q 2066 3103 1784 3103 
Q 1356 3103 1142 2972 
Q 928 2841 928 2578 
Q 928 2378 1081 2264 
Q 1234 2150 1697 2047 
L 1894 2003 
Q 2506 1872 2764 1633 
Q 3022 1394 3022 966 
Q 3022 478 2636 193 
Q 2250 -91 1575 -91 
Q 1294 -91 989 -36 
Q 684 19 347 128 
L 347 722 
Q 666 556 975 473 
Q 1284 391 1588 391 
Q 1994 391 2212 530 
Q 2431 669 2431 922 
Q 2431 1156 2273 1281 
Q 2116 1406 1581 1522 
L 1381 1569 
Q 847 1681 609 1914 
Q 372 2147 372 2553 
Q 372 3047 722 3315 
Q 1072 3584 1716 3584 
Q 2034 3584 2315 3537 
Q 2597 3491 2834 3397 
z
" transform="scale(0.015625)"/>
     </defs>
     <use xlink:href="#DejaVuSans-54"/>
     <use xlink:href="#DejaVuSans-72" x="46.333984"/>
     <use xlink:href="#DejaVuSans-61" x="87.447266"/>
     <use xlink:href="#DejaVuSans-69" x="148.726562"/>
     <use xlink:href="#DejaVuSans-6e" x="176.509766"/>
     <use xlink:href="#DejaVuSans-69" x="239.888672"/>
     <use xlink:href="#DejaVuSans-6e" x="267.671875"/>
     <use xlink:href="#DejaVuSans-67" x="331.050781"/>
     <use xlink:href="#DejaVuSans-20" x="394.527344"/>
     <use xlink:href="#DejaVuSans-61" x="426.314453"/>
     <use xlink:href="#DejaVuSans-6e" x="487.59375"/>
     <use xlink:href="#DejaVuSans-64" x="550.972656"/>
     <use xlink:href="#DejaVuSans-20" x="614.449219"/>
     <use xlink:href="#DejaVuSans-74" x="646.236328"/>
     <use xlink:href="#DejaVuSans-65" x="685.445312"/>
     <use xlink:href="#DejaVuSans-73" x="746.96875"/>
     <use xlink:href="#DejaVuSans-74" x="799.068359"/>
     <use xlink:href="#DejaVuSans-20" x="838.277344"/>
     <use xlink:href="#DejaVuSans-64" x="870.064453"/>
     <use xlink:href="#DejaVuSans-61" x="933.541016"/>
     <use xlink:href="#DejaVuSans-74" x="994.820312"/>
     <use xlink:href="#DejaVuSans-61" x="1034.029297"/>
     <use xlink:href="#DejaVuSans-73" x="1095.308594"/>
     <use xlink:href="#DejaVuSans-65" x="1147.408203"/>
     <use xlink:href="#DejaVuSans-74" x="1208.931641"/>
    </g>
   </g>
   <g id="legend_1">
    <g id="patch_9">
     <path d="M 70 80.55625 
L 185.58125 80.55625 
Q 187.58125 80.55625 187.58125 78.55625 
L 187.58125 50.2 
Q 187.58125 48.2 185.58125 48.2 
L 70 48.2 
Q 68 48.2 68 50.2 
L 68 78.55625 
Q 68 80.55625 70 80.55625 
z
" style="fill: #ffffff; opacity: 0.8; stroke: #cccccc; stroke-linejoin: miter"/>
    </g>
    <g id="line2d_25">
     <g>
      <use xlink:href="#mf06d5d4b64" x="82" y="56.298437" style="fill: #ff0000; stroke: #ff0000"/>
     </g>
    </g>
    <g id="text_15">
     <!-- Train data points -->
     <g transform="translate(100 59.798437)scale(0.1 -0.1)">
      <defs>
       <path id="DejaVuSans-6f" d="M 1959 3097 
Q 1497 3097 1228 2736 
Q 959 2375 959 1747 
Q 959 1119 1226 758 
Q 1494 397 1959 397 
Q 2419 397 2687 759 
Q 2956 1122 2956 1747 
Q 2956 2369 2687 2733 
Q 2419 3097 1959 3097 
z
M 1959 3584 
Q 2709 3584 3137 3096 
Q 3566 2609 3566 1747 
Q 3566 888 3137 398 
Q 2709 -91 1959 -91 
Q 1206 -91 779 398 
Q 353 888 353 1747 
Q 353 2609 779 3096 
Q 1206 3584 1959 3584 
z
" transform="scale(0.015625)"/>
      </defs>
      <use xlink:href="#DejaVuSans-54"/>
      <use xlink:href="#DejaVuSans-72" x="46.333984"/>
      <use xlink:href="#DejaVuSans-61" x="87.447266"/>
      <use xlink:href="#DejaVuSans-69" x="148.726562"/>
      <use xlink:href="#DejaVuSans-6e" x="176.509766"/>
      <use xlink:href="#DejaVuSans-20" x="239.888672"/>
      <use xlink:href="#DejaVuSans-64" x="271.675781"/>
      <use xlink:href="#DejaVuSans-61" x="335.152344"/>
      <use xlink:href="#DejaVuSans-74" x="396.431641"/>
      <use xlink:href="#DejaVuSans-61" x="435.640625"/>
      <use xlink:href="#DejaVuSans-20" x="496.919922"/>
      <use xlink:href="#DejaVuSans-70" x="528.707031"/>
      <use xlink:href="#DejaVuSans-6f" x="592.183594"/>
      <use xlink:href="#DejaVuSans-69" x="653.365234"/>
      <use xlink:href="#DejaVuSans-6e" x="681.148438"/>
      <use xlink:href="#DejaVuSans-74" x="744.527344"/>
      <use xlink:href="#DejaVuSans-73" x="783.736328"/>
     </g>
    </g>
    <g id="line2d_26">
     <g>
      <use xlink:href="#mf69f15d1db" x="82" y="70.976562" style="fill: #008000; stroke: #008000"/>
     </g>
    </g>
    <g id="text_16">
     <!-- Test data points -->
     <g transform="translate(100 74.476562)scale(0.1 -0.1)">
      <use xlink:href="#DejaVuSans-54"/>
      <use xlink:href="#DejaVuSans-65" x="44.083984"/>
      <use xlink:href="#DejaVuSans-73" x="105.607422"/>
      <use xlink:href="#DejaVuSans-74" x="157.707031"/>
      <use xlink:href="#DejaVuSans-20" x="196.916016"/>
      <use xlink:href="#DejaVuSans-64" x="228.703125"/>
      <use xlink:href="#DejaVuSans-61" x="292.179688"/>
      <use xlink:href="#DejaVuSans-74" x="353.458984"/>
      <use xlink:href="#DejaVuSans-61" x="392.667969"/>
      <use xlink:href="#DejaVuSans-20" x="453.947266"/>
      <use xlink:href="#DejaVuSans-70" x="485.734375"/>
      <use xlink:href="#DejaVuSans-6f" x="549.210938"/>
      <use xlink:href="#DejaVuSans-69" x="610.392578"/>
      <use xlink:href="#DejaVuSans-6e" x="638.175781"/>
      <use xlink:href="#DejaVuSans-74" x="701.554688"/>
      <use xlink:href="#DejaVuSans-73" x="740.763672"/>
     </g>
    </g>
   </g>
  </g>
 </g>
 <defs>
  <clipPath id="pf30abaddc8">
   <rect x="63" y="43.2" width="390.6" height="271.8"/>
  </clipPath>
 </defs>
</svg>
