<?xml version="1.0" encoding="utf-8" standalone="no"?>
<!DOCTYPE svg PUBLIC "-//W3C//DTD SVG 1.1//EN"
  "http://www.w3.org/Graphics/SVG/1.1/DTD/svg11.dtd">
<svg xmlns:xlink="http://www.w3.org/1999/xlink" width="504pt" height="360pt" viewBox="0 0 504 360" xmlns="http://www.w3.org/2000/svg" version="1.1">
 <metadata>
  <rdf:RDF xmlns:dc="http://purl.org/dc/elements/1.1/" xmlns:cc="http://creativecommons.org/ns#" xmlns:rdf="http://www.w3.org/1999/02/22-rdf-syntax-ns#">
   <cc:Work>
    <dc:type rdf:resource="http://purl.org/dc/dcmitype/StillImage"/>
    <dc:date>2022-06-20T16:54:29.669079</dc:date>
    <dc:format>image/svg+xml</dc:format>
    <dc:creator>
     <cc:Agent>
      <dc:title>Matplotlib v3.5.1, https://matplotlib.org/</dc:title>
     </cc:Agent>
    </dc:creator>
   </cc:Work>
  </rdf:RDF>
 </metadata>
 <defs>
  <style type="text/css">*{stroke-linejoin: round; stroke-linecap: butt}</style>
 </defs>
 <g id="figure_1">
  <g id="patch_1">
   <path d="M 0 360 
L 504 360 
L 504 0 
L 0 0 
L 0 360 
z
" style="fill: none"/>
  </g>
  <g id="axes_1">
   <g id="patch_2">
    <path d="M 49.55 313.2 
L 493.2 313.2 
L 493.2 28.8 
L 49.55 28.8 
z
" style="fill: #ffffff"/>
   </g>
   <g id="matplotlib.axis_1">
    <g id="xtick_1">
     <g id="line2d_1">
      <path d="M 69.715909 313.2 
L 69.715909 28.8 
" clip-path="url(#p123f85aee9)" style="fill: none; stroke: #b0b0b0; stroke-width: 0.8; stroke-linecap: square"/>
     </g>
     <g id="line2d_2">
      <defs>
       <path id="mf8234bec15" d="M 0 0 
L 0 3.5 
" style="stroke: #000000; stroke-width: 0.8"/>
      </defs>
      <g>
       <use xlink:href="#mf8234bec15" x="69.715909" y="313.2" style="stroke: #000000; stroke-width: 0.8"/>
      </g>
     </g>
     <g id="text_1">
      <!-- 0 -->
      <g transform="translate(66.534659 327.798437)scale(0.1 -0.1)">
       <defs>
        <path id="DejaVuSans-30" d="M 2034 4250 
Q 1547 4250 1301 3770 
Q 1056 3291 1056 2328 
Q 1056 1369 1301 889 
Q 1547 409 2034 409 
Q 2525 409 2770 889 
Q 3016 1369 3016 2328 
Q 3016 3291 2770 3770 
Q 2525 4250 2034 4250 
z
M 2034 4750 
Q 2819 4750 3233 4129 
Q 3647 3509 3647 2328 
Q 3647 1150 3233 529 
Q 2819 -91 2034 -91 
Q 1250 -91 836 529 
Q 422 1150 422 2328 
Q 422 3509 836 4129 
Q 1250 4750 2034 4750 
z
" transform="scale(0.015625)"/>
       </defs>
       <use xlink:href="#DejaVuSans-30"/>
      </g>
     </g>
    </g>
    <g id="xtick_2">
     <g id="line2d_3">
      <path d="M 151.359266 313.2 
L 151.359266 28.8 
" clip-path="url(#p123f85aee9)" style="fill: none; stroke: #b0b0b0; stroke-width: 0.8; stroke-linecap: square"/>
     </g>
     <g id="line2d_4">
      <g>
       <use xlink:href="#mf8234bec15" x="151.359266" y="313.2" style="stroke: #000000; stroke-width: 0.8"/>
      </g>
     </g>
     <g id="text_2">
      <!-- 50 -->
      <g transform="translate(144.996766 327.798437)scale(0.1 -0.1)">
       <defs>
        <path id="DejaVuSans-35" d="M 691 4666 
L 3169 4666 
L 3169 4134 
L 1269 4134 
L 1269 2991 
Q 1406 3038 1543 3061 
Q 1681 3084 1819 3084 
Q 2600 3084 3056 2656 
Q 3513 2228 3513 1497 
Q 3513 744 3044 326 
Q 2575 -91 1722 -91 
Q 1428 -91 1123 -41 
Q 819 9 494 109 
L 494 744 
Q 775 591 1075 516 
Q 1375 441 1709 441 
Q 2250 441 2565 725 
Q 2881 1009 2881 1497 
Q 2881 1984 2565 2268 
Q 2250 2553 1709 2553 
Q 1456 2553 1204 2497 
Q 953 2441 691 2322 
L 691 4666 
z
" transform="scale(0.015625)"/>
       </defs>
       <use xlink:href="#DejaVuSans-35"/>
       <use xlink:href="#DejaVuSans-30" x="63.623047"/>
      </g>
     </g>
    </g>
    <g id="xtick_3">
     <g id="line2d_5">
      <path d="M 233.002622 313.2 
L 233.002622 28.8 
" clip-path="url(#p123f85aee9)" style="fill: none; stroke: #b0b0b0; stroke-width: 0.8; stroke-linecap: square"/>
     </g>
     <g id="line2d_6">
      <g>
       <use xlink:href="#mf8234bec15" x="233.002622" y="313.2" style="stroke: #000000; stroke-width: 0.8"/>
      </g>
     </g>
     <g id="text_3">
      <!-- 100 -->
      <g transform="translate(223.458872 327.798437)scale(0.1 -0.1)">
       <defs>
        <path id="DejaVuSans-31" d="M 794 531 
L 1825 531 
L 1825 4091 
L 703 3866 
L 703 4441 
L 1819 4666 
L 2450 4666 
L 2450 531 
L 3481 531 
L 3481 0 
L 794 0 
L 794 531 
z
" transform="scale(0.015625)"/>
       </defs>
       <use xlink:href="#DejaVuSans-31"/>
       <use xlink:href="#DejaVuSans-30" x="63.623047"/>
       <use xlink:href="#DejaVuSans-30" x="127.246094"/>
      </g>
     </g>
    </g>
    <g id="xtick_4">
     <g id="line2d_7">
      <path d="M 314.645979 313.2 
L 314.645979 28.8 
" clip-path="url(#p123f85aee9)" style="fill: none; stroke: #b0b0b0; stroke-width: 0.8; stroke-linecap: square"/>
     </g>
     <g id="line2d_8">
      <g>
       <use xlink:href="#mf8234bec15" x="314.645979" y="313.2" style="stroke: #000000; stroke-width: 0.8"/>
      </g>
     </g>
     <g id="text_4">
      <!-- 150 -->
      <g transform="translate(305.102229 327.798437)scale(0.1 -0.1)">
       <use xlink:href="#DejaVuSans-31"/>
       <use xlink:href="#DejaVuSans-35" x="63.623047"/>
       <use xlink:href="#DejaVuSans-30" x="127.246094"/>
      </g>
     </g>
    </g>
    <g id="xtick_5">
     <g id="line2d_9">
      <path d="M 396.289336 313.2 
L 396.289336 28.8 
" clip-path="url(#p123f85aee9)" style="fill: none; stroke: #b0b0b0; stroke-width: 0.8; stroke-linecap: square"/>
     </g>
     <g id="line2d_10">
      <g>
       <use xlink:href="#mf8234bec15" x="396.289336" y="313.2" style="stroke: #000000; stroke-width: 0.8"/>
      </g>
     </g>
     <g id="text_5">
      <!-- 200 -->
      <g transform="translate(386.745586 327.798437)scale(0.1 -0.1)">
       <defs>
        <path id="DejaVuSans-32" d="M 1228 531 
L 3431 531 
L 3431 0 
L 469 0 
L 469 531 
Q 828 903 1448 1529 
Q 2069 2156 2228 2338 
Q 2531 2678 2651 2914 
Q 2772 3150 2772 3378 
Q 2772 3750 2511 3984 
Q 2250 4219 1831 4219 
Q 1534 4219 1204 4116 
Q 875 4013 500 3803 
L 500 4441 
Q 881 4594 1212 4672 
Q 1544 4750 1819 4750 
Q 2544 4750 2975 4387 
Q 3406 4025 3406 3419 
Q 3406 3131 3298 2873 
Q 3191 2616 2906 2266 
Q 2828 2175 2409 1742 
Q 1991 1309 1228 531 
z
" transform="scale(0.015625)"/>
       </defs>
       <use xlink:href="#DejaVuSans-32"/>
       <use xlink:href="#DejaVuSans-30" x="63.623047"/>
       <use xlink:href="#DejaVuSans-30" x="127.246094"/>
      </g>
     </g>
    </g>
    <g id="xtick_6">
     <g id="line2d_11">
      <path d="M 477.932692 313.2 
L 477.932692 28.8 
" clip-path="url(#p123f85aee9)" style="fill: none; stroke: #b0b0b0; stroke-width: 0.8; stroke-linecap: square"/>
     </g>
     <g id="line2d_12">
      <g>
       <use xlink:href="#mf8234bec15" x="477.932692" y="313.2" style="stroke: #000000; stroke-width: 0.8"/>
      </g>
     </g>
     <g id="text_6">
      <!-- 250 -->
      <g transform="translate(468.388942 327.798437)scale(0.1 -0.1)">
       <use xlink:href="#DejaVuSans-32"/>
       <use xlink:href="#DejaVuSans-35" x="63.623047"/>
       <use xlink:href="#DejaVuSans-30" x="127.246094"/>
      </g>
     </g>
    </g>
    <g id="text_7">
     <!-- Epoch -->
     <g transform="translate(248.408594 345.275781)scale(0.15 -0.15)">
      <defs>
       <path id="DejaVuSans-45" d="M 628 4666 
L 3578 4666 
L 3578 4134 
L 1259 4134 
L 1259 2753 
L 3481 2753 
L 3481 2222 
L 1259 2222 
L 1259 531 
L 3634 531 
L 3634 0 
L 628 0 
L 628 4666 
z
" transform="scale(0.015625)"/>
       <path id="DejaVuSans-70" d="M 1159 525 
L 1159 -1331 
L 581 -1331 
L 581 3500 
L 1159 3500 
L 1159 2969 
Q 1341 3281 1617 3432 
Q 1894 3584 2278 3584 
Q 2916 3584 3314 3078 
Q 3713 2572 3713 1747 
Q 3713 922 3314 415 
Q 2916 -91 2278 -91 
Q 1894 -91 1617 61 
Q 1341 213 1159 525 
z
M 3116 1747 
Q 3116 2381 2855 2742 
Q 2594 3103 2138 3103 
Q 1681 3103 1420 2742 
Q 1159 2381 1159 1747 
Q 1159 1113 1420 752 
Q 1681 391 2138 391 
Q 2594 391 2855 752 
Q 3116 1113 3116 1747 
z
" transform="scale(0.015625)"/>
       <path id="DejaVuSans-6f" d="M 1959 3097 
Q 1497 3097 1228 2736 
Q 959 2375 959 1747 
Q 959 1119 1226 758 
Q 1494 397 1959 397 
Q 2419 397 2687 759 
Q 2956 1122 2956 1747 
Q 2956 2369 2687 2733 
Q 2419 3097 1959 3097 
z
M 1959 3584 
Q 2709 3584 3137 3096 
Q 3566 2609 3566 1747 
Q 3566 888 3137 398 
Q 2709 -91 1959 -91 
Q 1206 -91 779 398 
Q 353 888 353 1747 
Q 353 2609 779 3096 
Q 1206 3584 1959 3584 
z
" transform="scale(0.015625)"/>
       <path id="DejaVuSans-63" d="M 3122 3366 
L 3122 2828 
Q 2878 2963 2633 3030 
Q 2388 3097 2138 3097 
Q 1578 3097 1268 2742 
Q 959 2388 959 1747 
Q 959 1106 1268 751 
Q 1578 397 2138 397 
Q 2388 397 2633 464 
Q 2878 531 3122 666 
L 3122 134 
Q 2881 22 2623 -34 
Q 2366 -91 2075 -91 
Q 1284 -91 818 406 
Q 353 903 353 1747 
Q 353 2603 823 3093 
Q 1294 3584 2113 3584 
Q 2378 3584 2631 3529 
Q 2884 3475 3122 3366 
z
" transform="scale(0.015625)"/>
       <path id="DejaVuSans-68" d="M 3513 2113 
L 3513 0 
L 2938 0 
L 2938 2094 
Q 2938 2591 2744 2837 
Q 2550 3084 2163 3084 
Q 1697 3084 1428 2787 
Q 1159 2491 1159 1978 
L 1159 0 
L 581 0 
L 581 4863 
L 1159 4863 
L 1159 2956 
Q 1366 3272 1645 3428 
Q 1925 3584 2291 3584 
Q 2894 3584 3203 3211 
Q 3513 2838 3513 2113 
z
" transform="scale(0.015625)"/>
      </defs>
      <use xlink:href="#DejaVuSans-45"/>
      <use xlink:href="#DejaVuSans-70" x="63.183594"/>
      <use xlink:href="#DejaVuSans-6f" x="126.660156"/>
      <use xlink:href="#DejaVuSans-63" x="187.841797"/>
      <use xlink:href="#DejaVuSans-68" x="242.822266"/>
     </g>
    </g>
   </g>
   <g id="matplotlib.axis_2">
    <g id="ytick_1">
     <g id="line2d_13">
      <path d="M 49.55 304.546511 
L 493.2 304.546511 
" clip-path="url(#p123f85aee9)" style="fill: none; stroke: #b0b0b0; stroke-width: 0.8; stroke-linecap: square"/>
     </g>
     <g id="line2d_14">
      <defs>
       <path id="m485eb05fc1" d="M 0 0 
L -3.5 0 
" style="stroke: #000000; stroke-width: 0.8"/>
      </defs>
      <g>
       <use xlink:href="#m485eb05fc1" x="49.55" y="304.546511" style="stroke: #000000; stroke-width: 0.8"/>
      </g>
     </g>
     <g id="text_8">
      <!-- 0 -->
      <g transform="translate(36.1875 308.34573)scale(0.1 -0.1)">
       <use xlink:href="#DejaVuSans-30"/>
      </g>
     </g>
    </g>
    <g id="ytick_2">
     <g id="line2d_15">
      <path d="M 49.55 265.819625 
L 493.2 265.819625 
" clip-path="url(#p123f85aee9)" style="fill: none; stroke: #b0b0b0; stroke-width: 0.8; stroke-linecap: square"/>
     </g>
     <g id="line2d_16">
      <g>
       <use xlink:href="#m485eb05fc1" x="49.55" y="265.819625" style="stroke: #000000; stroke-width: 0.8"/>
      </g>
     </g>
     <g id="text_9">
      <!-- 2 -->
      <g transform="translate(36.1875 269.618843)scale(0.1 -0.1)">
       <use xlink:href="#DejaVuSans-32"/>
      </g>
     </g>
    </g>
    <g id="ytick_3">
     <g id="line2d_17">
      <path d="M 49.55 227.092738 
L 493.2 227.092738 
" clip-path="url(#p123f85aee9)" style="fill: none; stroke: #b0b0b0; stroke-width: 0.8; stroke-linecap: square"/>
     </g>
     <g id="line2d_18">
      <g>
       <use xlink:href="#m485eb05fc1" x="49.55" y="227.092738" style="stroke: #000000; stroke-width: 0.8"/>
      </g>
     </g>
     <g id="text_10">
      <!-- 4 -->
      <g transform="translate(36.1875 230.891957)scale(0.1 -0.1)">
       <defs>
        <path id="DejaVuSans-34" d="M 2419 4116 
L 825 1625 
L 2419 1625 
L 2419 4116 
z
M 2253 4666 
L 3047 4666 
L 3047 1625 
L 3713 1625 
L 3713 1100 
L 3047 1100 
L 3047 0 
L 2419 0 
L 2419 1100 
L 313 1100 
L 313 1709 
L 2253 4666 
z
" transform="scale(0.015625)"/>
       </defs>
       <use xlink:href="#DejaVuSans-34"/>
      </g>
     </g>
    </g>
    <g id="ytick_4">
     <g id="line2d_19">
      <path d="M 49.55 188.365852 
L 493.2 188.365852 
" clip-path="url(#p123f85aee9)" style="fill: none; stroke: #b0b0b0; stroke-width: 0.8; stroke-linecap: square"/>
     </g>
     <g id="line2d_20">
      <g>
       <use xlink:href="#m485eb05fc1" x="49.55" y="188.365852" style="stroke: #000000; stroke-width: 0.8"/>
      </g>
     </g>
     <g id="text_11">
      <!-- 6 -->
      <g transform="translate(36.1875 192.165071)scale(0.1 -0.1)">
       <defs>
        <path id="DejaVuSans-36" d="M 2113 2584 
Q 1688 2584 1439 2293 
Q 1191 2003 1191 1497 
Q 1191 994 1439 701 
Q 1688 409 2113 409 
Q 2538 409 2786 701 
Q 3034 994 3034 1497 
Q 3034 2003 2786 2293 
Q 2538 2584 2113 2584 
z
M 3366 4563 
L 3366 3988 
Q 3128 4100 2886 4159 
Q 2644 4219 2406 4219 
Q 1781 4219 1451 3797 
Q 1122 3375 1075 2522 
Q 1259 2794 1537 2939 
Q 1816 3084 2150 3084 
Q 2853 3084 3261 2657 
Q 3669 2231 3669 1497 
Q 3669 778 3244 343 
Q 2819 -91 2113 -91 
Q 1303 -91 875 529 
Q 447 1150 447 2328 
Q 447 3434 972 4092 
Q 1497 4750 2381 4750 
Q 2619 4750 2861 4703 
Q 3103 4656 3366 4563 
z
" transform="scale(0.015625)"/>
       </defs>
       <use xlink:href="#DejaVuSans-36"/>
      </g>
     </g>
    </g>
    <g id="ytick_5">
     <g id="line2d_21">
      <path d="M 49.55 149.638965 
L 493.2 149.638965 
" clip-path="url(#p123f85aee9)" style="fill: none; stroke: #b0b0b0; stroke-width: 0.8; stroke-linecap: square"/>
     </g>
     <g id="line2d_22">
      <g>
       <use xlink:href="#m485eb05fc1" x="49.55" y="149.638965" style="stroke: #000000; stroke-width: 0.8"/>
      </g>
     </g>
     <g id="text_12">
      <!-- 8 -->
      <g transform="translate(36.1875 153.438184)scale(0.1 -0.1)">
       <defs>
        <path id="DejaVuSans-38" d="M 2034 2216 
Q 1584 2216 1326 1975 
Q 1069 1734 1069 1313 
Q 1069 891 1326 650 
Q 1584 409 2034 409 
Q 2484 409 2743 651 
Q 3003 894 3003 1313 
Q 3003 1734 2745 1975 
Q 2488 2216 2034 2216 
z
M 1403 2484 
Q 997 2584 770 2862 
Q 544 3141 544 3541 
Q 544 4100 942 4425 
Q 1341 4750 2034 4750 
Q 2731 4750 3128 4425 
Q 3525 4100 3525 3541 
Q 3525 3141 3298 2862 
Q 3072 2584 2669 2484 
Q 3125 2378 3379 2068 
Q 3634 1759 3634 1313 
Q 3634 634 3220 271 
Q 2806 -91 2034 -91 
Q 1263 -91 848 271 
Q 434 634 434 1313 
Q 434 1759 690 2068 
Q 947 2378 1403 2484 
z
M 1172 3481 
Q 1172 3119 1398 2916 
Q 1625 2713 2034 2713 
Q 2441 2713 2670 2916 
Q 2900 3119 2900 3481 
Q 2900 3844 2670 4047 
Q 2441 4250 2034 4250 
Q 1625 4250 1398 4047 
Q 1172 3844 1172 3481 
z
" transform="scale(0.015625)"/>
       </defs>
       <use xlink:href="#DejaVuSans-38"/>
      </g>
     </g>
    </g>
    <g id="ytick_6">
     <g id="line2d_23">
      <path d="M 49.55 110.912079 
L 493.2 110.912079 
" clip-path="url(#p123f85aee9)" style="fill: none; stroke: #b0b0b0; stroke-width: 0.8; stroke-linecap: square"/>
     </g>
     <g id="line2d_24">
      <g>
       <use xlink:href="#m485eb05fc1" x="49.55" y="110.912079" style="stroke: #000000; stroke-width: 0.8"/>
      </g>
     </g>
     <g id="text_13">
      <!-- 10 -->
      <g transform="translate(29.825 114.711298)scale(0.1 -0.1)">
       <use xlink:href="#DejaVuSans-31"/>
       <use xlink:href="#DejaVuSans-30" x="63.623047"/>
      </g>
     </g>
    </g>
    <g id="ytick_7">
     <g id="line2d_25">
      <path d="M 49.55 72.185192 
L 493.2 72.185192 
" clip-path="url(#p123f85aee9)" style="fill: none; stroke: #b0b0b0; stroke-width: 0.8; stroke-linecap: square"/>
     </g>
     <g id="line2d_26">
      <g>
       <use xlink:href="#m485eb05fc1" x="49.55" y="72.185192" style="stroke: #000000; stroke-width: 0.8"/>
      </g>
     </g>
     <g id="text_14">
      <!-- 12 -->
      <g transform="translate(29.825 75.984411)scale(0.1 -0.1)">
       <use xlink:href="#DejaVuSans-31"/>
       <use xlink:href="#DejaVuSans-32" x="63.623047"/>
      </g>
     </g>
    </g>
    <g id="ytick_8">
     <g id="line2d_27">
      <path d="M 49.55 33.458306 
L 493.2 33.458306 
" clip-path="url(#p123f85aee9)" style="fill: none; stroke: #b0b0b0; stroke-width: 0.8; stroke-linecap: square"/>
     </g>
     <g id="line2d_28">
      <g>
       <use xlink:href="#m485eb05fc1" x="49.55" y="33.458306" style="stroke: #000000; stroke-width: 0.8"/>
      </g>
     </g>
     <g id="text_15">
      <!-- 14 -->
      <g transform="translate(29.825 37.257525)scale(0.1 -0.1)">
       <use xlink:href="#DejaVuSans-31"/>
       <use xlink:href="#DejaVuSans-34" x="63.623047"/>
      </g>
     </g>
    </g>
    <g id="text_16">
     <!-- Loss -->
     <g transform="translate(22.705469 187.450781)rotate(-90)scale(0.15 -0.15)">
      <defs>
       <path id="DejaVuSans-4c" d="M 628 4666 
L 1259 4666 
L 1259 531 
L 3531 531 
L 3531 0 
L 628 0 
L 628 4666 
z
" transform="scale(0.015625)"/>
       <path id="DejaVuSans-73" d="M 2834 3397 
L 2834 2853 
Q 2591 2978 2328 3040 
Q 2066 3103 1784 3103 
Q 1356 3103 1142 2972 
Q 928 2841 928 2578 
Q 928 2378 1081 2264 
Q 1234 2150 1697 2047 
L 1894 2003 
Q 2506 1872 2764 1633 
Q 3022 1394 3022 966 
Q 3022 478 2636 193 
Q 2250 -91 1575 -91 
Q 1294 -91 989 -36 
Q 684 19 347 128 
L 347 722 
Q 666 556 975 473 
Q 1284 391 1588 391 
Q 1994 391 2212 530 
Q 2431 669 2431 922 
Q 2431 1156 2273 1281 
Q 2116 1406 1581 1522 
L 1381 1569 
Q 847 1681 609 1914 
Q 372 2147 372 2553 
Q 372 3047 722 3315 
Q 1072 3584 1716 3584 
Q 2034 3584 2315 3537 
Q 2597 3491 2834 3397 
z
" transform="scale(0.015625)"/>
      </defs>
      <use xlink:href="#DejaVuSans-4c"/>
      <use xlink:href="#DejaVuSans-6f" x="53.962891"/>
      <use xlink:href="#DejaVuSans-73" x="115.144531"/>
      <use xlink:href="#DejaVuSans-73" x="167.244141"/>
     </g>
    </g>
   </g>
   <g id="line2d_29">
    <path d="M 69.715909 53.581716 
L 71.348776 217.680239 
L 72.981643 250.081924 
L 74.61451 216.321295 
L 76.247378 228.869199 
L 77.880245 248.153504 
L 79.513112 258.095616 
L 81.145979 256.206769 
L 82.778846 256.808156 
L 84.411713 255.745561 
L 86.04458 259.0133 
L 87.677448 266.228753 
L 89.310315 269.220248 
L 90.943182 263.919024 
L 92.576049 271.227356 
L 94.208916 267.569526 
L 97.47465 274.209129 
L 99.107517 276.487996 
L 100.740385 270.671332 
L 102.373252 270.228265 
L 104.006119 272.80142 
L 105.638986 272.982995 
L 107.271853 277.146674 
L 108.90472 272.172087 
L 110.537587 273.854784 
L 112.170455 272.698236 
L 113.803322 272.810212 
L 115.436189 275.134804 
L 117.069056 274.452634 
L 118.701923 275.476578 
L 120.33479 275.586814 
L 121.967657 277.535722 
L 123.600524 275.967139 
L 125.233392 275.632947 
L 126.866259 276.754362 
L 128.499126 277.170404 
L 130.131993 278.550415 
L 131.76486 277.337638 
L 133.397727 278.715858 
L 136.663462 280.87136 
L 138.296329 278.4934 
L 139.929196 279.061566 
L 141.562063 280.562777 
L 143.19493 277.388847 
L 144.827797 276.404966 
L 146.460664 278.896227 
L 148.093531 278.813349 
L 149.726399 277.18694 
L 151.359266 279.445222 
L 152.992133 282.14368 
L 154.625 279.151174 
L 156.257867 279.890618 
L 157.890734 282.280108 
L 159.523601 280.128045 
L 161.156469 281.217031 
L 162.789336 281.307696 
L 164.422203 283.440295 
L 166.05507 279.504356 
L 167.687937 281.220897 
L 169.320804 281.117326 
L 170.953671 282.705569 
L 172.586538 281.710518 
L 174.219406 279.058463 
L 175.852273 284.857856 
L 177.48514 280.858958 
L 179.118007 282.702562 
L 180.750874 282.618934 
L 182.383741 279.289956 
L 184.016608 284.05582 
L 185.649476 282.896143 
L 187.282343 285.108953 
L 188.91521 283.107918 
L 190.548077 283.827841 
L 192.180944 285.179698 
L 193.813811 283.92156 
L 195.446678 285.173886 
L 197.079545 286.031311 
L 198.712413 285.324177 
L 200.34528 286.281028 
L 201.978147 284.081782 
L 203.611014 282.908435 
L 205.243881 285.488765 
L 206.876748 287.095817 
L 208.509615 287.524763 
L 210.142483 286.851208 
L 211.77535 285.153806 
L 213.408217 287.843832 
L 215.041084 288.703159 
L 216.673951 288.88319 
L 218.306818 289.371627 
L 219.939685 287.205729 
L 221.572552 291.242986 
L 223.20542 289.93273 
L 224.838287 290.281223 
L 226.471154 288.793952 
L 228.104021 290.854523 
L 229.736888 290.774706 
L 231.369755 291.069157 
L 233.002622 290.923112 
L 234.63549 292.545756 
L 236.268357 289.502337 
L 237.901224 291.374188 
L 239.534091 292.702739 
L 241.166958 291.510845 
L 242.799825 292.020156 
L 244.432692 292.393042 
L 246.065559 292.395316 
L 247.698427 292.546652 
L 249.331294 295.596064 
L 250.964161 295.327635 
L 252.597028 293.327315 
L 254.229895 295.799903 
L 255.862762 293.565379 
L 257.495629 294.007417 
L 259.128497 296.001858 
L 260.761364 295.772589 
L 262.394231 293.751118 
L 264.027098 294.907706 
L 268.925699 295.877168 
L 270.558566 295.990212 
L 272.191434 295.425536 
L 273.824301 297.606715 
L 275.457168 296.144774 
L 277.090035 296.859568 
L 278.722902 297.027081 
L 280.355769 295.645224 
L 281.988636 298.126856 
L 283.621503 297.920374 
L 285.254371 296.769865 
L 286.887238 296.224096 
L 290.152972 297.269324 
L 291.785839 297.919892 
L 293.418706 296.042761 
L 295.051573 297.527443 
L 296.684441 296.486082 
L 298.317308 297.716871 
L 299.950175 297.442017 
L 303.215909 297.294999 
L 304.848776 297.614458 
L 306.481643 296.595184 
L 308.11451 297.13053 
L 309.747378 297.520537 
L 311.380245 297.047346 
L 313.013112 296.26872 
L 314.645979 296.743994 
L 316.278846 298.604303 
L 317.911713 296.242065 
L 319.54458 297.316393 
L 321.177448 294.824543 
L 322.810315 299.504536 
L 324.443182 294.976496 
L 326.076049 296.308213 
L 327.708916 297.106601 
L 329.341783 295.894062 
L 330.97465 297.369792 
L 332.607517 298.455287 
L 334.240385 297.965037 
L 335.873252 297.290576 
L 337.506119 297.890985 
L 339.138986 297.361145 
L 340.771853 297.055902 
L 342.40472 299.036335 
L 344.037587 296.897207 
L 345.670455 299.36348 
L 347.303322 297.762266 
L 350.569056 297.797208 
L 352.201923 297.786774 
L 353.83479 297.540833 
L 355.467657 299.302862 
L 357.100524 298.607538 
L 358.733392 297.644439 
L 360.366259 295.722034 
L 361.999126 298.306403 
L 363.631993 297.834274 
L 365.26486 299.205038 
L 366.897727 298.849743 
L 368.530594 299.253922 
L 371.796329 296.512659 
L 373.429196 297.207151 
L 375.062063 299.447612 
L 376.69493 296.998255 
L 378.327797 297.523463 
L 379.960664 298.791571 
L 381.593531 298.425988 
L 383.226399 299.229838 
L 386.492133 298.800961 
L 389.757867 297.396001 
L 391.390734 298.673447 
L 393.023601 297.376408 
L 394.656469 297.224134 
L 396.289336 298.731725 
L 397.922203 297.954922 
L 402.820804 298.26947 
L 404.453671 299.474513 
L 406.086538 298.49203 
L 407.719406 298.815122 
L 409.352273 298.97472 
L 410.98514 298.904633 
L 412.618007 298.217783 
L 414.250874 297.380753 
L 415.883741 298.797572 
L 417.516608 298.554134 
L 419.149476 298.659074 
L 420.782343 297.560662 
L 422.41521 299.450454 
L 424.048077 299.214837 
L 425.680944 298.590702 
L 427.313811 296.601973 
L 428.946678 298.199739 
L 430.579545 298.740089 
L 432.212413 297.574681 
L 433.84528 297.773545 
L 435.478147 297.520484 
L 437.111014 298.765142 
L 440.376748 298.612262 
L 442.009615 299.026919 
L 443.642483 298.080963 
L 445.27535 296.932298 
L 446.908217 298.736878 
L 448.541084 298.395431 
L 450.173951 300.272727 
L 451.806818 299.971495 
L 453.439685 298.357635 
L 455.072552 298.785253 
L 456.70542 297.496188 
L 458.338287 298.881563 
L 459.971154 299.732146 
L 461.604021 298.922942 
L 463.236888 299.741599 
L 464.869755 299.343119 
L 466.502622 298.7706 
L 468.13549 299.694738 
L 469.768357 298.825019 
L 471.401224 298.082281 
L 473.034091 299.159787 
L 473.034091 299.159787 
" clip-path="url(#p123f85aee9)" style="fill: none; stroke: #ff0000; stroke-width: 1.5; stroke-linecap: square"/>
   </g>
   <g id="line2d_30">
    <path d="M 69.715909 212.647567 
L 71.348776 95.439842 
L 72.981643 41.727273 
L 76.247378 163.419475 
L 77.880245 202.251804 
L 79.513112 219.00273 
L 81.145979 224.401165 
L 82.778846 225.439191 
L 84.411713 223.379889 
L 86.04458 215.938338 
L 87.677448 203.106467 
L 89.310315 194.883445 
L 90.943182 202.119049 
L 94.208916 236.211982 
L 95.841783 244.88697 
L 97.47465 247.116855 
L 99.107517 248.196244 
L 100.740385 245.425765 
L 102.373252 237.895224 
L 104.006119 232.292499 
L 105.638986 238.402076 
L 107.271853 248.948973 
L 108.90472 253.404398 
L 112.170455 253.908974 
L 113.803322 253.184343 
L 115.436189 247.947035 
L 118.701923 233.355587 
L 120.33479 234.286664 
L 121.967657 239.667312 
L 123.600524 245.853465 
L 125.233392 250.204587 
L 126.866259 252.788418 
L 128.499126 254.365538 
L 130.131993 254.644205 
L 131.76486 253.487418 
L 133.397727 252.121429 
L 135.030594 251.54235 
L 136.663462 251.729249 
L 138.296329 253.831988 
L 139.929196 256.39936 
L 143.19493 260.321359 
L 144.827797 261.343226 
L 146.460664 260.923258 
L 148.093531 262.481515 
L 149.726399 263.771634 
L 151.359266 265.221858 
L 152.992133 265.714823 
L 154.625 266.967299 
L 156.257867 267.546117 
L 159.523601 267.080235 
L 161.156469 266.031231 
L 162.789336 267.655681 
L 164.422203 269.963835 
L 166.05507 271.565631 
L 167.687937 272.346954 
L 169.320804 271.517394 
L 170.953671 270.939188 
L 172.586538 273.43759 
L 175.852273 277.168398 
L 177.48514 277.305192 
L 179.118007 276.501178 
L 180.750874 276.591839 
L 182.383741 280.091468 
L 184.016608 281.419561 
L 185.649476 281.964556 
L 187.282343 280.818228 
L 188.91521 277.926338 
L 192.180944 284.140606 
L 193.813811 283.881162 
L 195.446678 284.692646 
L 197.079545 279.569143 
L 198.712413 276.794787 
L 200.34528 285.08759 
L 201.978147 284.344644 
L 203.611014 283.910873 
L 205.243881 285.874177 
L 206.876748 280.295118 
L 208.509615 279.229532 
L 210.142483 286.449336 
L 211.77535 286.702762 
L 213.408217 287.177854 
L 215.041084 288.030239 
L 216.673951 285.650209 
L 218.306818 287.485701 
L 219.939685 289.964649 
L 221.572552 290.220333 
L 223.20542 290.596383 
L 224.838287 290.438022 
L 226.471154 289.331198 
L 228.104021 289.85294 
L 229.736888 291.116923 
L 231.369755 291.551949 
L 233.002622 291.688255 
L 234.63549 291.258513 
L 237.901224 292.133865 
L 239.534091 292.330045 
L 241.166958 292.411833 
L 242.799825 291.885513 
L 244.432692 290.551346 
L 246.065559 291.701516 
L 247.698427 292.332009 
L 249.331294 292.394404 
L 250.964161 291.918458 
L 252.597028 292.739246 
L 254.229895 292.985606 
L 255.862762 293.634918 
L 257.495629 293.795749 
L 259.128497 293.009546 
L 260.761364 292.467225 
L 262.394231 293.350106 
L 264.027098 292.963876 
L 267.292832 292.543554 
L 268.925699 292.41679 
L 270.558566 292.717817 
L 272.191434 293.288708 
L 273.824301 293.283062 
L 275.457168 293.440835 
L 277.090035 292.38043 
L 278.722902 291.754353 
L 280.355769 293.090935 
L 283.621503 293.168947 
L 286.887238 292.552278 
L 288.520105 294.052872 
L 290.152972 290.92336 
L 291.785839 292.957456 
L 293.418706 291.65085 
L 295.051573 291.557352 
L 296.684441 292.440716 
L 298.317308 292.560729 
L 299.950175 291.662835 
L 301.583042 292.837876 
L 303.215909 288.2008 
L 304.848776 291.292377 
L 306.481643 294.017718 
L 308.11451 293.422084 
L 309.747378 294.300333 
L 311.380245 292.351896 
L 313.013112 292.931808 
L 314.645979 293.914884 
L 316.278846 294.074935 
L 317.911713 291.019556 
L 319.54458 291.334059 
L 321.177448 293.919517 
L 322.810315 293.307716 
L 324.443182 293.691534 
L 326.076049 292.696373 
L 327.708916 292.617646 
L 329.341783 292.787348 
L 330.97465 293.309751 
L 332.607517 293.370714 
L 335.873252 293.073022 
L 339.138986 293.554296 
L 340.771853 293.504029 
L 344.037587 292.712609 
L 345.670455 293.489115 
L 347.303322 293.409002 
L 348.936189 293.589172 
L 350.569056 293.633066 
L 352.201923 293.521927 
L 357.100524 293.806847 
L 360.366259 292.599212 
L 361.999126 293.723507 
L 363.631993 294.234173 
L 365.26486 294.250672 
L 371.796329 293.715881 
L 373.429196 294.132736 
L 375.062063 293.322338 
L 376.69493 293.962125 
L 378.327797 293.393346 
L 379.960664 293.632908 
L 383.226399 293.792128 
L 384.859266 292.92969 
L 386.492133 292.962976 
L 388.125 293.436257 
L 393.023601 293.091377 
L 394.656469 291.46746 
L 396.289336 293.411134 
L 397.922203 290.538429 
L 399.55507 293.511151 
L 401.187937 291.954582 
L 402.820804 287.299575 
L 404.453671 293.400673 
L 406.086538 291.280215 
L 407.719406 292.374367 
L 409.352273 291.960424 
L 410.98514 290.339743 
L 412.618007 292.959539 
L 414.250874 291.049099 
L 417.516608 292.392417 
L 419.149476 288.570542 
L 420.782343 293.829816 
L 422.41521 291.171435 
L 424.048077 293.5977 
L 425.680944 291.708536 
L 427.313811 291.205801 
L 428.946678 293.236736 
L 430.579545 289.577085 
L 432.212413 293.453431 
L 433.84528 288.695504 
L 435.478147 288.034314 
L 437.111014 293.24926 
L 438.743881 289.646925 
L 440.376748 292.059389 
L 442.009615 291.420516 
L 443.642483 289.190891 
L 445.27535 292.040361 
L 450.173951 293.095958 
L 453.439685 292.29513 
L 455.072552 293.65755 
L 458.338287 293.948212 
L 459.971154 293.444922 
L 461.604021 293.319168 
L 463.236888 293.969974 
L 464.869755 292.967008 
L 466.502622 293.299697 
L 468.13549 293.333616 
L 469.768357 292.919244 
L 471.401224 292.983709 
L 473.034091 292.913635 
L 473.034091 292.913635 
" clip-path="url(#p123f85aee9)" style="fill: none; stroke: #008000; stroke-width: 1.5; stroke-linecap: square"/>
   </g>
   <g id="patch_3">
    <path d="M 49.55 313.2 
L 49.55 28.8 
" style="fill: none; stroke: #000000; stroke-width: 0.8; stroke-linejoin: miter; stroke-linecap: square"/>
   </g>
   <g id="patch_4">
    <path d="M 493.2 313.2 
L 493.2 28.8 
" style="fill: none; stroke: #000000; stroke-width: 0.8; stroke-linejoin: miter; stroke-linecap: square"/>
   </g>
   <g id="patch_5">
    <path d="M 49.55 313.2 
L 493.2 313.2 
" style="fill: none; stroke: #000000; stroke-width: 0.8; stroke-linejoin: miter; stroke-linecap: square"/>
   </g>
   <g id="patch_6">
    <path d="M 49.55 28.8 
L 493.2 28.8 
" style="fill: none; stroke: #000000; stroke-width: 0.8; stroke-linejoin: miter; stroke-linecap: square"/>
   </g>
   <g id="text_17">
    <!-- Losses -->
    <g transform="translate(246.402344 22.8)scale(0.15 -0.15)">
     <defs>
      <path id="DejaVuSans-65" d="M 3597 1894 
L 3597 1613 
L 953 1613 
Q 991 1019 1311 708 
Q 1631 397 2203 397 
Q 2534 397 2845 478 
Q 3156 559 3463 722 
L 3463 178 
Q 3153 47 2828 -22 
Q 2503 -91 2169 -91 
Q 1331 -91 842 396 
Q 353 884 353 1716 
Q 353 2575 817 3079 
Q 1281 3584 2069 3584 
Q 2775 3584 3186 3129 
Q 3597 2675 3597 1894 
z
M 3022 2063 
Q 3016 2534 2758 2815 
Q 2500 3097 2075 3097 
Q 1594 3097 1305 2825 
Q 1016 2553 972 2059 
L 3022 2063 
z
" transform="scale(0.015625)"/>
     </defs>
     <use xlink:href="#DejaVuSans-4c"/>
     <use xlink:href="#DejaVuSans-6f" x="53.962891"/>
     <use xlink:href="#DejaVuSans-73" x="115.144531"/>
     <use xlink:href="#DejaVuSans-73" x="167.244141"/>
     <use xlink:href="#DejaVuSans-65" x="219.34375"/>
     <use xlink:href="#DejaVuSans-73" x="280.867188"/>
    </g>
   </g>
   <g id="legend_1">
    <g id="patch_7">
     <path d="M 382.325 66.15625 
L 486.2 66.15625 
Q 488.2 66.15625 488.2 64.15625 
L 488.2 35.8 
Q 488.2 33.8 486.2 33.8 
L 382.325 33.8 
Q 380.325 33.8 380.325 35.8 
L 380.325 64.15625 
Q 380.325 66.15625 382.325 66.15625 
z
" style="fill: #ffffff; opacity: 0.8; stroke: #cccccc; stroke-linejoin: miter"/>
    </g>
    <g id="line2d_31">
     <path d="M 384.325 41.898438 
L 394.325 41.898438 
L 404.325 41.898438 
" style="fill: none; stroke: #ff0000; stroke-width: 1.5; stroke-linecap: square"/>
    </g>
    <g id="text_18">
     <!-- Training loss -->
     <g transform="translate(412.325 45.398438)scale(0.1 -0.1)">
      <defs>
       <path id="DejaVuSans-54" d="M -19 4666 
L 3928 4666 
L 3928 4134 
L 2272 4134 
L 2272 0 
L 1638 0 
L 1638 4134 
L -19 4134 
L -19 4666 
z
" transform="scale(0.015625)"/>
       <path id="DejaVuSans-72" d="M 2631 2963 
Q 2534 3019 2420 3045 
Q 2306 3072 2169 3072 
Q 1681 3072 1420 2755 
Q 1159 2438 1159 1844 
L 1159 0 
L 581 0 
L 581 3500 
L 1159 3500 
L 1159 2956 
Q 1341 3275 1631 3429 
Q 1922 3584 2338 3584 
Q 2397 3584 2469 3576 
Q 2541 3569 2628 3553 
L 2631 2963 
z
" transform="scale(0.015625)"/>
       <path id="DejaVuSans-61" d="M 2194 1759 
Q 1497 1759 1228 1600 
Q 959 1441 959 1056 
Q 959 750 1161 570 
Q 1363 391 1709 391 
Q 2188 391 2477 730 
Q 2766 1069 2766 1631 
L 2766 1759 
L 2194 1759 
z
M 3341 1997 
L 3341 0 
L 2766 0 
L 2766 531 
Q 2569 213 2275 61 
Q 1981 -91 1556 -91 
Q 1019 -91 701 211 
Q 384 513 384 1019 
Q 384 1609 779 1909 
Q 1175 2209 1959 2209 
L 2766 2209 
L 2766 2266 
Q 2766 2663 2505 2880 
Q 2244 3097 1772 3097 
Q 1472 3097 1187 3025 
Q 903 2953 641 2809 
L 641 3341 
Q 956 3463 1253 3523 
Q 1550 3584 1831 3584 
Q 2591 3584 2966 3190 
Q 3341 2797 3341 1997 
z
" transform="scale(0.015625)"/>
       <path id="DejaVuSans-69" d="M 603 3500 
L 1178 3500 
L 1178 0 
L 603 0 
L 603 3500 
z
M 603 4863 
L 1178 4863 
L 1178 4134 
L 603 4134 
L 603 4863 
z
" transform="scale(0.015625)"/>
       <path id="DejaVuSans-6e" d="M 3513 2113 
L 3513 0 
L 2938 0 
L 2938 2094 
Q 2938 2591 2744 2837 
Q 2550 3084 2163 3084 
Q 1697 3084 1428 2787 
Q 1159 2491 1159 1978 
L 1159 0 
L 581 0 
L 581 3500 
L 1159 3500 
L 1159 2956 
Q 1366 3272 1645 3428 
Q 1925 3584 2291 3584 
Q 2894 3584 3203 3211 
Q 3513 2838 3513 2113 
z
" transform="scale(0.015625)"/>
       <path id="DejaVuSans-67" d="M 2906 1791 
Q 2906 2416 2648 2759 
Q 2391 3103 1925 3103 
Q 1463 3103 1205 2759 
Q 947 2416 947 1791 
Q 947 1169 1205 825 
Q 1463 481 1925 481 
Q 2391 481 2648 825 
Q 2906 1169 2906 1791 
z
M 3481 434 
Q 3481 -459 3084 -895 
Q 2688 -1331 1869 -1331 
Q 1566 -1331 1297 -1286 
Q 1028 -1241 775 -1147 
L 775 -588 
Q 1028 -725 1275 -790 
Q 1522 -856 1778 -856 
Q 2344 -856 2625 -561 
Q 2906 -266 2906 331 
L 2906 616 
Q 2728 306 2450 153 
Q 2172 0 1784 0 
Q 1141 0 747 490 
Q 353 981 353 1791 
Q 353 2603 747 3093 
Q 1141 3584 1784 3584 
Q 2172 3584 2450 3431 
Q 2728 3278 2906 2969 
L 2906 3500 
L 3481 3500 
L 3481 434 
z
" transform="scale(0.015625)"/>
       <path id="DejaVuSans-20" transform="scale(0.015625)"/>
       <path id="DejaVuSans-6c" d="M 603 4863 
L 1178 4863 
L 1178 0 
L 603 0 
L 603 4863 
z
" transform="scale(0.015625)"/>
      </defs>
      <use xlink:href="#DejaVuSans-54"/>
      <use xlink:href="#DejaVuSans-72" x="46.333984"/>
      <use xlink:href="#DejaVuSans-61" x="87.447266"/>
      <use xlink:href="#DejaVuSans-69" x="148.726562"/>
      <use xlink:href="#DejaVuSans-6e" x="176.509766"/>
      <use xlink:href="#DejaVuSans-69" x="239.888672"/>
      <use xlink:href="#DejaVuSans-6e" x="267.671875"/>
      <use xlink:href="#DejaVuSans-67" x="331.050781"/>
      <use xlink:href="#DejaVuSans-20" x="394.527344"/>
      <use xlink:href="#DejaVuSans-6c" x="426.314453"/>
      <use xlink:href="#DejaVuSans-6f" x="454.097656"/>
      <use xlink:href="#DejaVuSans-73" x="515.279297"/>
      <use xlink:href="#DejaVuSans-73" x="567.378906"/>
     </g>
    </g>
    <g id="line2d_32">
     <path d="M 384.325 56.576563 
L 394.325 56.576563 
L 404.325 56.576563 
" style="fill: none; stroke: #008000; stroke-width: 1.5; stroke-linecap: square"/>
    </g>
    <g id="text_19">
     <!-- Validation loss -->
     <g transform="translate(412.325 60.076563)scale(0.1 -0.1)">
      <defs>
       <path id="DejaVuSans-56" d="M 1831 0 
L 50 4666 
L 709 4666 
L 2188 738 
L 3669 4666 
L 4325 4666 
L 2547 0 
L 1831 0 
z
" transform="scale(0.015625)"/>
       <path id="DejaVuSans-64" d="M 2906 2969 
L 2906 4863 
L 3481 4863 
L 3481 0 
L 2906 0 
L 2906 525 
Q 2725 213 2448 61 
Q 2172 -91 1784 -91 
Q 1150 -91 751 415 
Q 353 922 353 1747 
Q 353 2572 751 3078 
Q 1150 3584 1784 3584 
Q 2172 3584 2448 3432 
Q 2725 3281 2906 2969 
z
M 947 1747 
Q 947 1113 1208 752 
Q 1469 391 1925 391 
Q 2381 391 2643 752 
Q 2906 1113 2906 1747 
Q 2906 2381 2643 2742 
Q 2381 3103 1925 3103 
Q 1469 3103 1208 2742 
Q 947 2381 947 1747 
z
" transform="scale(0.015625)"/>
       <path id="DejaVuSans-74" d="M 1172 4494 
L 1172 3500 
L 2356 3500 
L 2356 3053 
L 1172 3053 
L 1172 1153 
Q 1172 725 1289 603 
Q 1406 481 1766 481 
L 2356 481 
L 2356 0 
L 1766 0 
Q 1100 0 847 248 
Q 594 497 594 1153 
L 594 3053 
L 172 3053 
L 172 3500 
L 594 3500 
L 594 4494 
L 1172 4494 
z
" transform="scale(0.015625)"/>
      </defs>
      <use xlink:href="#DejaVuSans-56"/>
      <use xlink:href="#DejaVuSans-61" x="60.658203"/>
      <use xlink:href="#DejaVuSans-6c" x="121.9375"/>
      <use xlink:href="#DejaVuSans-69" x="149.720703"/>
      <use xlink:href="#DejaVuSans-64" x="177.503906"/>
      <use xlink:href="#DejaVuSans-61" x="240.980469"/>
      <use xlink:href="#DejaVuSans-74" x="302.259766"/>
      <use xlink:href="#DejaVuSans-69" x="341.46875"/>
      <use xlink:href="#DejaVuSans-6f" x="369.251953"/>
      <use xlink:href="#DejaVuSans-6e" x="430.433594"/>
      <use xlink:href="#DejaVuSans-20" x="493.8125"/>
      <use xlink:href="#DejaVuSans-6c" x="525.599609"/>
      <use xlink:href="#DejaVuSans-6f" x="553.382812"/>
      <use xlink:href="#DejaVuSans-73" x="614.564453"/>
      <use xlink:href="#DejaVuSans-73" x="666.664062"/>
     </g>
    </g>
   </g>
  </g>
 </g>
 <defs>
  <clipPath id="p123f85aee9">
   <rect x="49.55" y="28.8" width="443.65" height="284.4"/>
  </clipPath>
 </defs>
</svg>
