<?xml version="1.0" encoding="utf-8" standalone="no"?>
<!DOCTYPE svg PUBLIC "-//W3C//DTD SVG 1.1//EN"
  "http://www.w3.org/Graphics/SVG/1.1/DTD/svg11.dtd">
<svg xmlns:xlink="http://www.w3.org/1999/xlink" width="864pt" height="576pt" viewBox="0 0 864 576" xmlns="http://www.w3.org/2000/svg" version="1.1">
 <metadata>
  <rdf:RDF xmlns:dc="http://purl.org/dc/elements/1.1/" xmlns:cc="http://creativecommons.org/ns#" xmlns:rdf="http://www.w3.org/1999/02/22-rdf-syntax-ns#">
   <cc:Work>
    <dc:type rdf:resource="http://purl.org/dc/dcmitype/StillImage"/>
    <dc:date>2022-06-20T16:54:31.005039</dc:date>
    <dc:format>image/svg+xml</dc:format>
    <dc:creator>
     <cc:Agent>
      <dc:title>Matplotlib v3.5.1, https://matplotlib.org/</dc:title>
     </cc:Agent>
    </dc:creator>
   </cc:Work>
  </rdf:RDF>
 </metadata>
 <defs>
  <style type="text/css">*{stroke-linejoin: round; stroke-linecap: butt}</style>
 </defs>
 <g id="figure_1">
  <g id="patch_1">
   <path d="M 0 576 
L 864 576 
L 864 0 
L 0 0 
L 0 576 
z
" style="fill: none"/>
  </g>
  <g id="axes_1">
   <g id="patch_2">
    <path d="M 43.3 171.4 
L 852.401583 171.4 
L 852.401583 28.8 
L 43.3 28.8 
z
" style="fill: #ffffff"/>
   </g>
   <g id="patch_3">
    <path d="M 80.077345 171.4 
L 94.788285 171.4 
L 94.788285 117.07619 
L 80.077345 117.07619 
z
" clip-path="url(#p2f3a8f1bd2)" style="fill: #1f77b4"/>
   </g>
   <g id="patch_4">
    <path d="M 94.788285 171.4 
L 109.499225 171.4 
L 109.499225 117.07619 
L 94.788285 117.07619 
z
" clip-path="url(#p2f3a8f1bd2)" style="fill: #1f77b4"/>
   </g>
   <g id="patch_5">
    <path d="M 109.499225 171.4 
L 124.210166 171.4 
L 124.210166 89.914286 
L 109.499225 89.914286 
z
" clip-path="url(#p2f3a8f1bd2)" style="fill: #1f77b4"/>
   </g>
   <g id="patch_6">
    <path d="M 124.210166 171.4 
L 138.921106 171.4 
L 138.921106 144.238095 
L 124.210166 144.238095 
z
" clip-path="url(#p2f3a8f1bd2)" style="fill: #1f77b4"/>
   </g>
   <g id="patch_7">
    <path d="M 138.921106 171.4 
L 153.632047 171.4 
L 153.632047 171.4 
L 138.921106 171.4 
z
" clip-path="url(#p2f3a8f1bd2)" style="fill: #1f77b4"/>
   </g>
   <g id="patch_8">
    <path d="M 153.632047 171.4 
L 168.342962 171.4 
L 168.342962 171.4 
L 153.632047 171.4 
z
" clip-path="url(#p2f3a8f1bd2)" style="fill: #1f77b4"/>
   </g>
   <g id="patch_9">
    <path d="M 168.342962 171.4 
L 183.053902 171.4 
L 183.053902 89.914286 
L 168.342962 89.914286 
z
" clip-path="url(#p2f3a8f1bd2)" style="fill: #1f77b4"/>
   </g>
   <g id="patch_10">
    <path d="M 183.053902 171.4 
L 197.764843 171.4 
L 197.764843 144.238095 
L 183.053902 144.238095 
z
" clip-path="url(#p2f3a8f1bd2)" style="fill: #1f77b4"/>
   </g>
   <g id="patch_11">
    <path d="M 197.764843 171.4 
L 212.475783 171.4 
L 212.475783 171.4 
L 197.764843 171.4 
z
" clip-path="url(#p2f3a8f1bd2)" style="fill: #1f77b4"/>
   </g>
   <g id="patch_12">
    <path d="M 212.475783 171.4 
L 227.186723 171.4 
L 227.186723 171.4 
L 212.475783 171.4 
z
" clip-path="url(#p2f3a8f1bd2)" style="fill: #1f77b4"/>
   </g>
   <g id="patch_13">
    <path d="M 227.186723 171.4 
L 241.897664 171.4 
L 241.897664 144.238095 
L 227.186723 144.238095 
z
" clip-path="url(#p2f3a8f1bd2)" style="fill: #1f77b4"/>
   </g>
   <g id="patch_14">
    <path d="M 241.897664 171.4 
L 256.608604 171.4 
L 256.608604 144.238095 
L 241.897664 144.238095 
z
" clip-path="url(#p2f3a8f1bd2)" style="fill: #1f77b4"/>
   </g>
   <g id="patch_15">
    <path d="M 256.608604 171.4 
L 271.319545 171.4 
L 271.319545 117.07619 
L 256.608604 117.07619 
z
" clip-path="url(#p2f3a8f1bd2)" style="fill: #1f77b4"/>
   </g>
   <g id="patch_16">
    <path d="M 271.319532 171.4 
L 286.030472 171.4 
L 286.030472 62.752381 
L 271.319532 62.752381 
z
" clip-path="url(#p2f3a8f1bd2)" style="fill: #1f77b4"/>
   </g>
   <g id="patch_17">
    <path d="M 286.030472 171.4 
L 300.741413 171.4 
L 300.741413 117.07619 
L 286.030472 117.07619 
z
" clip-path="url(#p2f3a8f1bd2)" style="fill: #1f77b4"/>
   </g>
   <g id="patch_18">
    <path d="M 300.741413 171.4 
L 315.452353 171.4 
L 315.452353 117.07619 
L 300.741413 117.07619 
z
" clip-path="url(#p2f3a8f1bd2)" style="fill: #1f77b4"/>
   </g>
   <g id="patch_19">
    <path d="M 315.452353 171.4 
L 330.163294 171.4 
L 330.163294 171.4 
L 315.452353 171.4 
z
" clip-path="url(#p2f3a8f1bd2)" style="fill: #1f77b4"/>
   </g>
   <g id="patch_20">
    <path d="M 330.163287 171.4 
L 344.874228 171.4 
L 344.874228 89.914286 
L 330.163287 89.914286 
z
" clip-path="url(#p2f3a8f1bd2)" style="fill: #1f77b4"/>
   </g>
   <g id="patch_21">
    <path d="M 344.874221 171.4 
L 359.585162 171.4 
L 359.585162 144.238095 
L 344.874221 144.238095 
z
" clip-path="url(#p2f3a8f1bd2)" style="fill: #1f77b4"/>
   </g>
   <g id="patch_22">
    <path d="M 359.585162 171.4 
L 374.296102 171.4 
L 374.296102 171.4 
L 359.585162 171.4 
z
" clip-path="url(#p2f3a8f1bd2)" style="fill: #1f77b4"/>
   </g>
   <g id="patch_23">
    <path d="M 374.296102 171.4 
L 389.007042 171.4 
L 389.007042 144.238095 
L 374.296102 144.238095 
z
" clip-path="url(#p2f3a8f1bd2)" style="fill: #1f77b4"/>
   </g>
   <g id="patch_24">
    <path d="M 389.007039 171.4 
L 403.71798 171.4 
L 403.71798 117.07619 
L 389.007039 117.07619 
z
" clip-path="url(#p2f3a8f1bd2)" style="fill: #1f77b4"/>
   </g>
   <g id="patch_25">
    <path d="M 403.717977 171.4 
L 418.428917 171.4 
L 418.428917 35.590476 
L 403.717977 35.590476 
z
" clip-path="url(#p2f3a8f1bd2)" style="fill: #1f77b4"/>
   </g>
   <g id="patch_26">
    <path d="M 418.428915 171.4 
L 433.139854 171.4 
L 433.139854 144.238095 
L 418.428915 144.238095 
z
" clip-path="url(#p2f3a8f1bd2)" style="fill: #1f77b4"/>
   </g>
   <g id="patch_27">
    <path d="M 433.139853 171.4 
L 447.850791 171.4 
L 447.850791 144.238095 
L 433.139853 144.238095 
z
" clip-path="url(#p2f3a8f1bd2)" style="fill: #1f77b4"/>
   </g>
   <g id="patch_28">
    <path d="M 447.850791 171.4 
L 462.561732 171.4 
L 462.561732 171.4 
L 447.850791 171.4 
z
" clip-path="url(#p2f3a8f1bd2)" style="fill: #1f77b4"/>
   </g>
   <g id="patch_29">
    <path d="M 462.561726 171.4 
L 477.272666 171.4 
L 477.272666 171.4 
L 462.561726 171.4 
z
" clip-path="url(#p2f3a8f1bd2)" style="fill: #1f77b4"/>
   </g>
   <g id="patch_30">
    <path d="M 477.272666 171.4 
L 491.983606 171.4 
L 491.983606 89.914286 
L 477.272666 89.914286 
z
" clip-path="url(#p2f3a8f1bd2)" style="fill: #1f77b4"/>
   </g>
   <g id="patch_31">
    <path d="M 491.9836 171.4 
L 506.69454 171.4 
L 506.69454 117.07619 
L 491.9836 117.07619 
z
" clip-path="url(#p2f3a8f1bd2)" style="fill: #1f77b4"/>
   </g>
   <g id="patch_32">
    <path d="M 506.69454 171.4 
L 521.405481 171.4 
L 521.405481 89.914286 
L 506.69454 89.914286 
z
" clip-path="url(#p2f3a8f1bd2)" style="fill: #1f77b4"/>
   </g>
   <g id="patch_33">
    <path d="M 521.405481 171.4 
L 536.116421 171.4 
L 536.116421 117.07619 
L 521.405481 117.07619 
z
" clip-path="url(#p2f3a8f1bd2)" style="fill: #1f77b4"/>
   </g>
   <g id="patch_34">
    <path d="M 536.116421 171.4 
L 550.827362 171.4 
L 550.827362 62.752381 
L 536.116421 62.752381 
z
" clip-path="url(#p2f3a8f1bd2)" style="fill: #1f77b4"/>
   </g>
   <g id="patch_35">
    <path d="M 550.827362 171.4 
L 565.538302 171.4 
L 565.538302 144.238095 
L 550.827362 144.238095 
z
" clip-path="url(#p2f3a8f1bd2)" style="fill: #1f77b4"/>
   </g>
   <g id="patch_36">
    <path d="M 565.538289 171.4 
L 580.24923 171.4 
L 580.24923 144.238095 
L 565.538289 144.238095 
z
" clip-path="url(#p2f3a8f1bd2)" style="fill: #1f77b4"/>
   </g>
   <g id="patch_37">
    <path d="M 580.24923 171.4 
L 594.96017 171.4 
L 594.96017 62.752381 
L 580.24923 62.752381 
z
" clip-path="url(#p2f3a8f1bd2)" style="fill: #1f77b4"/>
   </g>
   <g id="patch_38">
    <path d="M 594.96017 171.4 
L 609.671111 171.4 
L 609.671111 171.4 
L 594.96017 171.4 
z
" clip-path="url(#p2f3a8f1bd2)" style="fill: #1f77b4"/>
   </g>
   <g id="patch_39">
    <path d="M 609.671111 171.4 
L 624.382051 171.4 
L 624.382051 144.238095 
L 609.671111 144.238095 
z
" clip-path="url(#p2f3a8f1bd2)" style="fill: #1f77b4"/>
   </g>
   <g id="patch_40">
    <path d="M 624.382038 171.4 
L 639.092979 171.4 
L 639.092979 171.4 
L 624.382038 171.4 
z
" clip-path="url(#p2f3a8f1bd2)" style="fill: #1f77b4"/>
   </g>
   <g id="patch_41">
    <path d="M 639.092979 171.4 
L 653.803919 171.4 
L 653.803919 144.238095 
L 639.092979 144.238095 
z
" clip-path="url(#p2f3a8f1bd2)" style="fill: #1f77b4"/>
   </g>
   <g id="patch_42">
    <path d="M 653.803919 171.4 
L 668.51486 171.4 
L 668.51486 144.238095 
L 653.803919 144.238095 
z
" clip-path="url(#p2f3a8f1bd2)" style="fill: #1f77b4"/>
   </g>
   <g id="patch_43">
    <path d="M 668.51486 171.4 
L 683.2258 171.4 
L 683.2258 171.4 
L 668.51486 171.4 
z
" clip-path="url(#p2f3a8f1bd2)" style="fill: #1f77b4"/>
   </g>
   <g id="patch_44">
    <path d="M 683.2258 171.4 
L 697.93674 171.4 
L 697.93674 171.4 
L 683.2258 171.4 
z
" clip-path="url(#p2f3a8f1bd2)" style="fill: #1f77b4"/>
   </g>
   <g id="patch_45">
    <path d="M 697.93674 171.4 
L 712.647681 171.4 
L 712.647681 171.4 
L 697.93674 171.4 
z
" clip-path="url(#p2f3a8f1bd2)" style="fill: #1f77b4"/>
   </g>
   <g id="patch_46">
    <path d="M 712.647681 171.4 
L 727.358621 171.4 
L 727.358621 117.07619 
L 712.647681 117.07619 
z
" clip-path="url(#p2f3a8f1bd2)" style="fill: #1f77b4"/>
   </g>
   <g id="patch_47">
    <path d="M 727.358621 171.4 
L 742.069561 171.4 
L 742.069561 89.914286 
L 727.358621 89.914286 
z
" clip-path="url(#p2f3a8f1bd2)" style="fill: #1f77b4"/>
   </g>
   <g id="patch_48">
    <path d="M 742.069561 171.4 
L 756.780477 171.4 
L 756.780477 144.238095 
L 742.069561 144.238095 
z
" clip-path="url(#p2f3a8f1bd2)" style="fill: #1f77b4"/>
   </g>
   <g id="patch_49">
    <path d="M 756.780477 171.4 
L 771.491417 171.4 
L 771.491417 117.07619 
L 756.780477 117.07619 
z
" clip-path="url(#p2f3a8f1bd2)" style="fill: #1f77b4"/>
   </g>
   <g id="patch_50">
    <path d="M 771.491417 171.4 
L 786.202357 171.4 
L 786.202357 144.238095 
L 771.491417 144.238095 
z
" clip-path="url(#p2f3a8f1bd2)" style="fill: #1f77b4"/>
   </g>
   <g id="patch_51">
    <path d="M 786.202357 171.4 
L 800.913298 171.4 
L 800.913298 117.07619 
L 786.202357 117.07619 
z
" clip-path="url(#p2f3a8f1bd2)" style="fill: #1f77b4"/>
   </g>
   <g id="patch_52">
    <path d="M 800.913298 171.4 
L 815.624238 171.4 
L 815.624238 89.914286 
L 800.913298 89.914286 
z
" clip-path="url(#p2f3a8f1bd2)" style="fill: #1f77b4"/>
   </g>
   <g id="matplotlib.axis_1">
    <g id="xtick_1">
     <g id="line2d_1">
      <path d="M 100.409255 171.4 
L 100.409255 28.8 
" clip-path="url(#p2f3a8f1bd2)" style="fill: none; stroke: #b0b0b0; stroke-width: 0.8; stroke-linecap: square"/>
     </g>
     <g id="line2d_2">
      <defs>
       <path id="me3c14903ee" d="M 0 0 
L 0 3.5 
" style="stroke: #000000; stroke-width: 0.8"/>
      </defs>
      <g>
       <use xlink:href="#me3c14903ee" x="100.409255" y="171.4" style="stroke: #000000; stroke-width: 0.8"/>
      </g>
     </g>
     <g id="text_1">
      <!-- −0.75 -->
      <g transform="translate(85.086599 185.998437)scale(0.1 -0.1)">
       <defs>
        <path id="DejaVuSans-2212" d="M 678 2272 
L 4684 2272 
L 4684 1741 
L 678 1741 
L 678 2272 
z
" transform="scale(0.015625)"/>
        <path id="DejaVuSans-30" d="M 2034 4250 
Q 1547 4250 1301 3770 
Q 1056 3291 1056 2328 
Q 1056 1369 1301 889 
Q 1547 409 2034 409 
Q 2525 409 2770 889 
Q 3016 1369 3016 2328 
Q 3016 3291 2770 3770 
Q 2525 4250 2034 4250 
z
M 2034 4750 
Q 2819 4750 3233 4129 
Q 3647 3509 3647 2328 
Q 3647 1150 3233 529 
Q 2819 -91 2034 -91 
Q 1250 -91 836 529 
Q 422 1150 422 2328 
Q 422 3509 836 4129 
Q 1250 4750 2034 4750 
z
" transform="scale(0.015625)"/>
        <path id="DejaVuSans-2e" d="M 684 794 
L 1344 794 
L 1344 0 
L 684 0 
L 684 794 
z
" transform="scale(0.015625)"/>
        <path id="DejaVuSans-37" d="M 525 4666 
L 3525 4666 
L 3525 4397 
L 1831 0 
L 1172 0 
L 2766 4134 
L 525 4134 
L 525 4666 
z
" transform="scale(0.015625)"/>
        <path id="DejaVuSans-35" d="M 691 4666 
L 3169 4666 
L 3169 4134 
L 1269 4134 
L 1269 2991 
Q 1406 3038 1543 3061 
Q 1681 3084 1819 3084 
Q 2600 3084 3056 2656 
Q 3513 2228 3513 1497 
Q 3513 744 3044 326 
Q 2575 -91 1722 -91 
Q 1428 -91 1123 -41 
Q 819 9 494 109 
L 494 744 
Q 775 591 1075 516 
Q 1375 441 1709 441 
Q 2250 441 2565 725 
Q 2881 1009 2881 1497 
Q 2881 1984 2565 2268 
Q 2250 2553 1709 2553 
Q 1456 2553 1204 2497 
Q 953 2441 691 2322 
L 691 4666 
z
" transform="scale(0.015625)"/>
       </defs>
       <use xlink:href="#DejaVuSans-2212"/>
       <use xlink:href="#DejaVuSans-30" x="83.789062"/>
       <use xlink:href="#DejaVuSans-2e" x="147.412109"/>
       <use xlink:href="#DejaVuSans-37" x="179.199219"/>
       <use xlink:href="#DejaVuSans-35" x="242.822266"/>
      </g>
     </g>
    </g>
    <g id="xtick_2">
     <g id="line2d_3">
      <path d="M 206.043373 171.4 
L 206.043373 28.8 
" clip-path="url(#p2f3a8f1bd2)" style="fill: none; stroke: #b0b0b0; stroke-width: 0.8; stroke-linecap: square"/>
     </g>
     <g id="line2d_4">
      <g>
       <use xlink:href="#me3c14903ee" x="206.043373" y="171.4" style="stroke: #000000; stroke-width: 0.8"/>
      </g>
     </g>
     <g id="text_2">
      <!-- −0.50 -->
      <g transform="translate(190.720717 185.998437)scale(0.1 -0.1)">
       <use xlink:href="#DejaVuSans-2212"/>
       <use xlink:href="#DejaVuSans-30" x="83.789062"/>
       <use xlink:href="#DejaVuSans-2e" x="147.412109"/>
       <use xlink:href="#DejaVuSans-35" x="179.199219"/>
       <use xlink:href="#DejaVuSans-30" x="242.822266"/>
      </g>
     </g>
    </g>
    <g id="xtick_3">
     <g id="line2d_5">
      <path d="M 311.677492 171.4 
L 311.677492 28.8 
" clip-path="url(#p2f3a8f1bd2)" style="fill: none; stroke: #b0b0b0; stroke-width: 0.8; stroke-linecap: square"/>
     </g>
     <g id="line2d_6">
      <g>
       <use xlink:href="#me3c14903ee" x="311.677492" y="171.4" style="stroke: #000000; stroke-width: 0.8"/>
      </g>
     </g>
     <g id="text_3">
      <!-- −0.25 -->
      <g transform="translate(296.354835 185.998437)scale(0.1 -0.1)">
       <defs>
        <path id="DejaVuSans-32" d="M 1228 531 
L 3431 531 
L 3431 0 
L 469 0 
L 469 531 
Q 828 903 1448 1529 
Q 2069 2156 2228 2338 
Q 2531 2678 2651 2914 
Q 2772 3150 2772 3378 
Q 2772 3750 2511 3984 
Q 2250 4219 1831 4219 
Q 1534 4219 1204 4116 
Q 875 4013 500 3803 
L 500 4441 
Q 881 4594 1212 4672 
Q 1544 4750 1819 4750 
Q 2544 4750 2975 4387 
Q 3406 4025 3406 3419 
Q 3406 3131 3298 2873 
Q 3191 2616 2906 2266 
Q 2828 2175 2409 1742 
Q 1991 1309 1228 531 
z
" transform="scale(0.015625)"/>
       </defs>
       <use xlink:href="#DejaVuSans-2212"/>
       <use xlink:href="#DejaVuSans-30" x="83.789062"/>
       <use xlink:href="#DejaVuSans-2e" x="147.412109"/>
       <use xlink:href="#DejaVuSans-32" x="179.199219"/>
       <use xlink:href="#DejaVuSans-35" x="242.822266"/>
      </g>
     </g>
    </g>
    <g id="xtick_4">
     <g id="line2d_7">
      <path d="M 417.31161 171.4 
L 417.31161 28.8 
" clip-path="url(#p2f3a8f1bd2)" style="fill: none; stroke: #b0b0b0; stroke-width: 0.8; stroke-linecap: square"/>
     </g>
     <g id="line2d_8">
      <g>
       <use xlink:href="#me3c14903ee" x="417.31161" y="171.4" style="stroke: #000000; stroke-width: 0.8"/>
      </g>
     </g>
     <g id="text_4">
      <!-- 0.00 -->
      <g transform="translate(406.178797 185.998437)scale(0.1 -0.1)">
       <use xlink:href="#DejaVuSans-30"/>
       <use xlink:href="#DejaVuSans-2e" x="63.623047"/>
       <use xlink:href="#DejaVuSans-30" x="95.410156"/>
       <use xlink:href="#DejaVuSans-30" x="159.033203"/>
      </g>
     </g>
    </g>
    <g id="xtick_5">
     <g id="line2d_9">
      <path d="M 522.945728 171.4 
L 522.945728 28.8 
" clip-path="url(#p2f3a8f1bd2)" style="fill: none; stroke: #b0b0b0; stroke-width: 0.8; stroke-linecap: square"/>
     </g>
     <g id="line2d_10">
      <g>
       <use xlink:href="#me3c14903ee" x="522.945728" y="171.4" style="stroke: #000000; stroke-width: 0.8"/>
      </g>
     </g>
     <g id="text_5">
      <!-- 0.25 -->
      <g transform="translate(511.812916 185.998437)scale(0.1 -0.1)">
       <use xlink:href="#DejaVuSans-30"/>
       <use xlink:href="#DejaVuSans-2e" x="63.623047"/>
       <use xlink:href="#DejaVuSans-32" x="95.410156"/>
       <use xlink:href="#DejaVuSans-35" x="159.033203"/>
      </g>
     </g>
    </g>
    <g id="xtick_6">
     <g id="line2d_11">
      <path d="M 628.579847 171.4 
L 628.579847 28.8 
" clip-path="url(#p2f3a8f1bd2)" style="fill: none; stroke: #b0b0b0; stroke-width: 0.8; stroke-linecap: square"/>
     </g>
     <g id="line2d_12">
      <g>
       <use xlink:href="#me3c14903ee" x="628.579847" y="171.4" style="stroke: #000000; stroke-width: 0.8"/>
      </g>
     </g>
     <g id="text_6">
      <!-- 0.50 -->
      <g transform="translate(617.447034 185.998437)scale(0.1 -0.1)">
       <use xlink:href="#DejaVuSans-30"/>
       <use xlink:href="#DejaVuSans-2e" x="63.623047"/>
       <use xlink:href="#DejaVuSans-35" x="95.410156"/>
       <use xlink:href="#DejaVuSans-30" x="159.033203"/>
      </g>
     </g>
    </g>
    <g id="xtick_7">
     <g id="line2d_13">
      <path d="M 734.213965 171.4 
L 734.213965 28.8 
" clip-path="url(#p2f3a8f1bd2)" style="fill: none; stroke: #b0b0b0; stroke-width: 0.8; stroke-linecap: square"/>
     </g>
     <g id="line2d_14">
      <g>
       <use xlink:href="#me3c14903ee" x="734.213965" y="171.4" style="stroke: #000000; stroke-width: 0.8"/>
      </g>
     </g>
     <g id="text_7">
      <!-- 0.75 -->
      <g transform="translate(723.081152 185.998437)scale(0.1 -0.1)">
       <use xlink:href="#DejaVuSans-30"/>
       <use xlink:href="#DejaVuSans-2e" x="63.623047"/>
       <use xlink:href="#DejaVuSans-37" x="95.410156"/>
       <use xlink:href="#DejaVuSans-35" x="159.033203"/>
      </g>
     </g>
    </g>
    <g id="xtick_8">
     <g id="line2d_15">
      <path d="M 839.848083 171.4 
L 839.848083 28.8 
" clip-path="url(#p2f3a8f1bd2)" style="fill: none; stroke: #b0b0b0; stroke-width: 0.8; stroke-linecap: square"/>
     </g>
     <g id="line2d_16">
      <g>
       <use xlink:href="#me3c14903ee" x="839.848083" y="171.4" style="stroke: #000000; stroke-width: 0.8"/>
      </g>
     </g>
     <g id="text_8">
      <!-- 1.00 -->
      <g transform="translate(828.715271 185.998437)scale(0.1 -0.1)">
       <defs>
        <path id="DejaVuSans-31" d="M 794 531 
L 1825 531 
L 1825 4091 
L 703 3866 
L 703 4441 
L 1819 4666 
L 2450 4666 
L 2450 531 
L 3481 531 
L 3481 0 
L 794 0 
L 794 531 
z
" transform="scale(0.015625)"/>
       </defs>
       <use xlink:href="#DejaVuSans-31"/>
       <use xlink:href="#DejaVuSans-2e" x="63.623047"/>
       <use xlink:href="#DejaVuSans-30" x="95.410156"/>
       <use xlink:href="#DejaVuSans-30" x="159.033203"/>
      </g>
     </g>
    </g>
   </g>
   <g id="matplotlib.axis_2">
    <g id="ytick_1">
     <g id="line2d_17">
      <path d="M 43.3 171.4 
L 852.401583 171.4 
" clip-path="url(#p2f3a8f1bd2)" style="fill: none; stroke: #b0b0b0; stroke-width: 0.8; stroke-linecap: square"/>
     </g>
     <g id="line2d_18">
      <defs>
       <path id="m45c62b19be" d="M 0 0 
L -3.5 0 
" style="stroke: #000000; stroke-width: 0.8"/>
      </defs>
      <g>
       <use xlink:href="#m45c62b19be" x="43.3" y="171.4" style="stroke: #000000; stroke-width: 0.8"/>
      </g>
     </g>
     <g id="text_9">
      <!-- 0 -->
      <g transform="translate(29.9375 175.199219)scale(0.1 -0.1)">
       <use xlink:href="#DejaVuSans-30"/>
      </g>
     </g>
    </g>
    <g id="ytick_2">
     <g id="line2d_19">
      <path d="M 43.3 144.238095 
L 852.401583 144.238095 
" clip-path="url(#p2f3a8f1bd2)" style="fill: none; stroke: #b0b0b0; stroke-width: 0.8; stroke-linecap: square"/>
     </g>
     <g id="line2d_20">
      <g>
       <use xlink:href="#m45c62b19be" x="43.3" y="144.238095" style="stroke: #000000; stroke-width: 0.8"/>
      </g>
     </g>
     <g id="text_10">
      <!-- 1 -->
      <g transform="translate(29.9375 148.037314)scale(0.1 -0.1)">
       <use xlink:href="#DejaVuSans-31"/>
      </g>
     </g>
    </g>
    <g id="ytick_3">
     <g id="line2d_21">
      <path d="M 43.3 117.07619 
L 852.401583 117.07619 
" clip-path="url(#p2f3a8f1bd2)" style="fill: none; stroke: #b0b0b0; stroke-width: 0.8; stroke-linecap: square"/>
     </g>
     <g id="line2d_22">
      <g>
       <use xlink:href="#m45c62b19be" x="43.3" y="117.07619" style="stroke: #000000; stroke-width: 0.8"/>
      </g>
     </g>
     <g id="text_11">
      <!-- 2 -->
      <g transform="translate(29.9375 120.875409)scale(0.1 -0.1)">
       <use xlink:href="#DejaVuSans-32"/>
      </g>
     </g>
    </g>
    <g id="ytick_4">
     <g id="line2d_23">
      <path d="M 43.3 89.914286 
L 852.401583 89.914286 
" clip-path="url(#p2f3a8f1bd2)" style="fill: none; stroke: #b0b0b0; stroke-width: 0.8; stroke-linecap: square"/>
     </g>
     <g id="line2d_24">
      <g>
       <use xlink:href="#m45c62b19be" x="43.3" y="89.914286" style="stroke: #000000; stroke-width: 0.8"/>
      </g>
     </g>
     <g id="text_12">
      <!-- 3 -->
      <g transform="translate(29.9375 93.713504)scale(0.1 -0.1)">
       <defs>
        <path id="DejaVuSans-33" d="M 2597 2516 
Q 3050 2419 3304 2112 
Q 3559 1806 3559 1356 
Q 3559 666 3084 287 
Q 2609 -91 1734 -91 
Q 1441 -91 1130 -33 
Q 819 25 488 141 
L 488 750 
Q 750 597 1062 519 
Q 1375 441 1716 441 
Q 2309 441 2620 675 
Q 2931 909 2931 1356 
Q 2931 1769 2642 2001 
Q 2353 2234 1838 2234 
L 1294 2234 
L 1294 2753 
L 1863 2753 
Q 2328 2753 2575 2939 
Q 2822 3125 2822 3475 
Q 2822 3834 2567 4026 
Q 2313 4219 1838 4219 
Q 1578 4219 1281 4162 
Q 984 4106 628 3988 
L 628 4550 
Q 988 4650 1302 4700 
Q 1616 4750 1894 4750 
Q 2613 4750 3031 4423 
Q 3450 4097 3450 3541 
Q 3450 3153 3228 2886 
Q 3006 2619 2597 2516 
z
" transform="scale(0.015625)"/>
       </defs>
       <use xlink:href="#DejaVuSans-33"/>
      </g>
     </g>
    </g>
    <g id="ytick_5">
     <g id="line2d_25">
      <path d="M 43.3 62.752381 
L 852.401583 62.752381 
" clip-path="url(#p2f3a8f1bd2)" style="fill: none; stroke: #b0b0b0; stroke-width: 0.8; stroke-linecap: square"/>
     </g>
     <g id="line2d_26">
      <g>
       <use xlink:href="#m45c62b19be" x="43.3" y="62.752381" style="stroke: #000000; stroke-width: 0.8"/>
      </g>
     </g>
     <g id="text_13">
      <!-- 4 -->
      <g transform="translate(29.9375 66.5516)scale(0.1 -0.1)">
       <defs>
        <path id="DejaVuSans-34" d="M 2419 4116 
L 825 1625 
L 2419 1625 
L 2419 4116 
z
M 2253 4666 
L 3047 4666 
L 3047 1625 
L 3713 1625 
L 3713 1100 
L 3047 1100 
L 3047 0 
L 2419 0 
L 2419 1100 
L 313 1100 
L 313 1709 
L 2253 4666 
z
" transform="scale(0.015625)"/>
       </defs>
       <use xlink:href="#DejaVuSans-34"/>
      </g>
     </g>
    </g>
    <g id="ytick_6">
     <g id="line2d_27">
      <path d="M 43.3 35.590476 
L 852.401583 35.590476 
" clip-path="url(#p2f3a8f1bd2)" style="fill: none; stroke: #b0b0b0; stroke-width: 0.8; stroke-linecap: square"/>
     </g>
     <g id="line2d_28">
      <g>
       <use xlink:href="#m45c62b19be" x="43.3" y="35.590476" style="stroke: #000000; stroke-width: 0.8"/>
      </g>
     </g>
     <g id="text_14">
      <!-- 5 -->
      <g transform="translate(29.9375 39.389695)scale(0.1 -0.1)">
       <use xlink:href="#DejaVuSans-35"/>
      </g>
     </g>
    </g>
   </g>
   <g id="patch_53">
    <path d="M 43.3 171.4 
L 43.3 28.8 
" style="fill: none; stroke: #000000; stroke-width: 0.8; stroke-linejoin: miter; stroke-linecap: square"/>
   </g>
   <g id="patch_54">
    <path d="M 852.401583 171.4 
L 852.401583 28.8 
" style="fill: none; stroke: #000000; stroke-width: 0.8; stroke-linejoin: miter; stroke-linecap: square"/>
   </g>
   <g id="patch_55">
    <path d="M 43.3 171.4 
L 852.401583 171.4 
" style="fill: none; stroke: #000000; stroke-width: 0.8; stroke-linejoin: miter; stroke-linecap: square"/>
   </g>
   <g id="patch_56">
    <path d="M 43.3 28.8 
L 852.401583 28.8 
" style="fill: none; stroke: #000000; stroke-width: 0.8; stroke-linejoin: miter; stroke-linecap: square"/>
   </g>
   <g id="text_15">
    <!-- First hidden layer weights -->
    <g transform="translate(351.178135 22.8)scale(0.15 -0.15)">
     <defs>
      <path id="DejaVuSans-46" d="M 628 4666 
L 3309 4666 
L 3309 4134 
L 1259 4134 
L 1259 2759 
L 3109 2759 
L 3109 2228 
L 1259 2228 
L 1259 0 
L 628 0 
L 628 4666 
z
" transform="scale(0.015625)"/>
      <path id="DejaVuSans-69" d="M 603 3500 
L 1178 3500 
L 1178 0 
L 603 0 
L 603 3500 
z
M 603 4863 
L 1178 4863 
L 1178 4134 
L 603 4134 
L 603 4863 
z
" transform="scale(0.015625)"/>
      <path id="DejaVuSans-72" d="M 2631 2963 
Q 2534 3019 2420 3045 
Q 2306 3072 2169 3072 
Q 1681 3072 1420 2755 
Q 1159 2438 1159 1844 
L 1159 0 
L 581 0 
L 581 3500 
L 1159 3500 
L 1159 2956 
Q 1341 3275 1631 3429 
Q 1922 3584 2338 3584 
Q 2397 3584 2469 3576 
Q 2541 3569 2628 3553 
L 2631 2963 
z
" transform="scale(0.015625)"/>
      <path id="DejaVuSans-73" d="M 2834 3397 
L 2834 2853 
Q 2591 2978 2328 3040 
Q 2066 3103 1784 3103 
Q 1356 3103 1142 2972 
Q 928 2841 928 2578 
Q 928 2378 1081 2264 
Q 1234 2150 1697 2047 
L 1894 2003 
Q 2506 1872 2764 1633 
Q 3022 1394 3022 966 
Q 3022 478 2636 193 
Q 2250 -91 1575 -91 
Q 1294 -91 989 -36 
Q 684 19 347 128 
L 347 722 
Q 666 556 975 473 
Q 1284 391 1588 391 
Q 1994 391 2212 530 
Q 2431 669 2431 922 
Q 2431 1156 2273 1281 
Q 2116 1406 1581 1522 
L 1381 1569 
Q 847 1681 609 1914 
Q 372 2147 372 2553 
Q 372 3047 722 3315 
Q 1072 3584 1716 3584 
Q 2034 3584 2315 3537 
Q 2597 3491 2834 3397 
z
" transform="scale(0.015625)"/>
      <path id="DejaVuSans-74" d="M 1172 4494 
L 1172 3500 
L 2356 3500 
L 2356 3053 
L 1172 3053 
L 1172 1153 
Q 1172 725 1289 603 
Q 1406 481 1766 481 
L 2356 481 
L 2356 0 
L 1766 0 
Q 1100 0 847 248 
Q 594 497 594 1153 
L 594 3053 
L 172 3053 
L 172 3500 
L 594 3500 
L 594 4494 
L 1172 4494 
z
" transform="scale(0.015625)"/>
      <path id="DejaVuSans-20" transform="scale(0.015625)"/>
      <path id="DejaVuSans-68" d="M 3513 2113 
L 3513 0 
L 2938 0 
L 2938 2094 
Q 2938 2591 2744 2837 
Q 2550 3084 2163 3084 
Q 1697 3084 1428 2787 
Q 1159 2491 1159 1978 
L 1159 0 
L 581 0 
L 581 4863 
L 1159 4863 
L 1159 2956 
Q 1366 3272 1645 3428 
Q 1925 3584 2291 3584 
Q 2894 3584 3203 3211 
Q 3513 2838 3513 2113 
z
" transform="scale(0.015625)"/>
      <path id="DejaVuSans-64" d="M 2906 2969 
L 2906 4863 
L 3481 4863 
L 3481 0 
L 2906 0 
L 2906 525 
Q 2725 213 2448 61 
Q 2172 -91 1784 -91 
Q 1150 -91 751 415 
Q 353 922 353 1747 
Q 353 2572 751 3078 
Q 1150 3584 1784 3584 
Q 2172 3584 2448 3432 
Q 2725 3281 2906 2969 
z
M 947 1747 
Q 947 1113 1208 752 
Q 1469 391 1925 391 
Q 2381 391 2643 752 
Q 2906 1113 2906 1747 
Q 2906 2381 2643 2742 
Q 2381 3103 1925 3103 
Q 1469 3103 1208 2742 
Q 947 2381 947 1747 
z
" transform="scale(0.015625)"/>
      <path id="DejaVuSans-65" d="M 3597 1894 
L 3597 1613 
L 953 1613 
Q 991 1019 1311 708 
Q 1631 397 2203 397 
Q 2534 397 2845 478 
Q 3156 559 3463 722 
L 3463 178 
Q 3153 47 2828 -22 
Q 2503 -91 2169 -91 
Q 1331 -91 842 396 
Q 353 884 353 1716 
Q 353 2575 817 3079 
Q 1281 3584 2069 3584 
Q 2775 3584 3186 3129 
Q 3597 2675 3597 1894 
z
M 3022 2063 
Q 3016 2534 2758 2815 
Q 2500 3097 2075 3097 
Q 1594 3097 1305 2825 
Q 1016 2553 972 2059 
L 3022 2063 
z
" transform="scale(0.015625)"/>
      <path id="DejaVuSans-6e" d="M 3513 2113 
L 3513 0 
L 2938 0 
L 2938 2094 
Q 2938 2591 2744 2837 
Q 2550 3084 2163 3084 
Q 1697 3084 1428 2787 
Q 1159 2491 1159 1978 
L 1159 0 
L 581 0 
L 581 3500 
L 1159 3500 
L 1159 2956 
Q 1366 3272 1645 3428 
Q 1925 3584 2291 3584 
Q 2894 3584 3203 3211 
Q 3513 2838 3513 2113 
z
" transform="scale(0.015625)"/>
      <path id="DejaVuSans-6c" d="M 603 4863 
L 1178 4863 
L 1178 0 
L 603 0 
L 603 4863 
z
" transform="scale(0.015625)"/>
      <path id="DejaVuSans-61" d="M 2194 1759 
Q 1497 1759 1228 1600 
Q 959 1441 959 1056 
Q 959 750 1161 570 
Q 1363 391 1709 391 
Q 2188 391 2477 730 
Q 2766 1069 2766 1631 
L 2766 1759 
L 2194 1759 
z
M 3341 1997 
L 3341 0 
L 2766 0 
L 2766 531 
Q 2569 213 2275 61 
Q 1981 -91 1556 -91 
Q 1019 -91 701 211 
Q 384 513 384 1019 
Q 384 1609 779 1909 
Q 1175 2209 1959 2209 
L 2766 2209 
L 2766 2266 
Q 2766 2663 2505 2880 
Q 2244 3097 1772 3097 
Q 1472 3097 1187 3025 
Q 903 2953 641 2809 
L 641 3341 
Q 956 3463 1253 3523 
Q 1550 3584 1831 3584 
Q 2591 3584 2966 3190 
Q 3341 2797 3341 1997 
z
" transform="scale(0.015625)"/>
      <path id="DejaVuSans-79" d="M 2059 -325 
Q 1816 -950 1584 -1140 
Q 1353 -1331 966 -1331 
L 506 -1331 
L 506 -850 
L 844 -850 
Q 1081 -850 1212 -737 
Q 1344 -625 1503 -206 
L 1606 56 
L 191 3500 
L 800 3500 
L 1894 763 
L 2988 3500 
L 3597 3500 
L 2059 -325 
z
" transform="scale(0.015625)"/>
      <path id="DejaVuSans-77" d="M 269 3500 
L 844 3500 
L 1563 769 
L 2278 3500 
L 2956 3500 
L 3675 769 
L 4391 3500 
L 4966 3500 
L 4050 0 
L 3372 0 
L 2619 2869 
L 1863 0 
L 1184 0 
L 269 3500 
z
" transform="scale(0.015625)"/>
      <path id="DejaVuSans-67" d="M 2906 1791 
Q 2906 2416 2648 2759 
Q 2391 3103 1925 3103 
Q 1463 3103 1205 2759 
Q 947 2416 947 1791 
Q 947 1169 1205 825 
Q 1463 481 1925 481 
Q 2391 481 2648 825 
Q 2906 1169 2906 1791 
z
M 3481 434 
Q 3481 -459 3084 -895 
Q 2688 -1331 1869 -1331 
Q 1566 -1331 1297 -1286 
Q 1028 -1241 775 -1147 
L 775 -588 
Q 1028 -725 1275 -790 
Q 1522 -856 1778 -856 
Q 2344 -856 2625 -561 
Q 2906 -266 2906 331 
L 2906 616 
Q 2728 306 2450 153 
Q 2172 0 1784 0 
Q 1141 0 747 490 
Q 353 981 353 1791 
Q 353 2603 747 3093 
Q 1141 3584 1784 3584 
Q 2172 3584 2450 3431 
Q 2728 3278 2906 2969 
L 2906 3500 
L 3481 3500 
L 3481 434 
z
" transform="scale(0.015625)"/>
     </defs>
     <use xlink:href="#DejaVuSans-46"/>
     <use xlink:href="#DejaVuSans-69" x="50.269531"/>
     <use xlink:href="#DejaVuSans-72" x="78.052734"/>
     <use xlink:href="#DejaVuSans-73" x="119.166016"/>
     <use xlink:href="#DejaVuSans-74" x="171.265625"/>
     <use xlink:href="#DejaVuSans-20" x="210.474609"/>
     <use xlink:href="#DejaVuSans-68" x="242.261719"/>
     <use xlink:href="#DejaVuSans-69" x="305.640625"/>
     <use xlink:href="#DejaVuSans-64" x="333.423828"/>
     <use xlink:href="#DejaVuSans-64" x="396.900391"/>
     <use xlink:href="#DejaVuSans-65" x="460.376953"/>
     <use xlink:href="#DejaVuSans-6e" x="521.900391"/>
     <use xlink:href="#DejaVuSans-20" x="585.279297"/>
     <use xlink:href="#DejaVuSans-6c" x="617.066406"/>
     <use xlink:href="#DejaVuSans-61" x="644.849609"/>
     <use xlink:href="#DejaVuSans-79" x="706.128906"/>
     <use xlink:href="#DejaVuSans-65" x="765.308594"/>
     <use xlink:href="#DejaVuSans-72" x="826.832031"/>
     <use xlink:href="#DejaVuSans-20" x="867.945312"/>
     <use xlink:href="#DejaVuSans-77" x="899.732422"/>
     <use xlink:href="#DejaVuSans-65" x="981.519531"/>
     <use xlink:href="#DejaVuSans-69" x="1043.042969"/>
     <use xlink:href="#DejaVuSans-67" x="1070.826172"/>
     <use xlink:href="#DejaVuSans-68" x="1134.302734"/>
     <use xlink:href="#DejaVuSans-74" x="1197.681641"/>
     <use xlink:href="#DejaVuSans-73" x="1236.890625"/>
    </g>
   </g>
  </g>
  <g id="axes_2">
   <g id="patch_57">
    <path d="M 43.3 359.8 
L 852.401583 359.8 
L 852.401583 217.2 
L 43.3 217.2 
z
" style="fill: #ffffff"/>
   </g>
   <g id="patch_58">
    <path d="M 80.077345 359.8 
L 94.788277 359.8 
L 94.788277 359.724843 
L 80.077345 359.724843 
z
" clip-path="url(#p4cc7a95952)" style="fill: #1f77b4"/>
   </g>
   <g id="patch_59">
    <path d="M 94.788261 359.8 
L 109.49921 359.8 
L 109.49921 359.724843 
L 94.788261 359.724843 
z
" clip-path="url(#p4cc7a95952)" style="fill: #1f77b4"/>
   </g>
   <g id="patch_60">
    <path d="M 109.49921 359.8 
L 124.210142 359.8 
L 124.210142 359.649685 
L 109.49921 359.649685 
z
" clip-path="url(#p4cc7a95952)" style="fill: #1f77b4"/>
   </g>
   <g id="patch_61">
    <path d="M 124.210159 359.8 
L 138.921091 359.8 
L 138.921091 359.19874 
L 124.210159 359.19874 
z
" clip-path="url(#p4cc7a95952)" style="fill: #1f77b4"/>
   </g>
   <g id="patch_62">
    <path d="M 138.921075 359.8 
L 153.632024 359.8 
L 153.632024 358.973268 
L 138.921075 358.973268 
z
" clip-path="url(#p4cc7a95952)" style="fill: #1f77b4"/>
   </g>
   <g id="patch_63">
    <path d="M 153.632024 359.8 
L 168.342957 359.8 
L 168.342957 358.747796 
L 153.632024 358.747796 
z
" clip-path="url(#p4cc7a95952)" style="fill: #1f77b4"/>
   </g>
   <g id="patch_64">
    <path d="M 168.342973 359.8 
L 183.053906 359.8 
L 183.053906 358.822953 
L 168.342973 358.822953 
z
" clip-path="url(#p4cc7a95952)" style="fill: #1f77b4"/>
   </g>
   <g id="patch_65">
    <path d="M 183.053889 359.8 
L 197.764838 359.8 
L 197.764838 359.19874 
L 183.053889 359.19874 
z
" clip-path="url(#p4cc7a95952)" style="fill: #1f77b4"/>
   </g>
   <g id="patch_66">
    <path d="M 197.76483 359.8 
L 212.475763 359.8 
L 212.475763 359.048425 
L 197.76483 359.048425 
z
" clip-path="url(#p4cc7a95952)" style="fill: #1f77b4"/>
   </g>
   <g id="patch_67">
    <path d="M 212.475754 359.8 
L 227.186703 359.8 
L 227.186703 359.123583 
L 212.475754 359.123583 
z
" clip-path="url(#p4cc7a95952)" style="fill: #1f77b4"/>
   </g>
   <g id="patch_68">
    <path d="M 227.186703 359.8 
L 241.897653 359.8 
L 241.897653 359.123583 
L 227.186703 359.123583 
z
" clip-path="url(#p4cc7a95952)" style="fill: #1f77b4"/>
   </g>
   <g id="patch_69">
    <path d="M 241.897644 359.8 
L 256.608577 359.8 
L 256.608577 357.845906 
L 241.897644 357.845906 
z
" clip-path="url(#p4cc7a95952)" style="fill: #1f77b4"/>
   </g>
   <g id="patch_70">
    <path d="M 256.608573 359.8 
L 271.319522 359.8 
L 271.319522 353.937718 
L 256.608573 353.937718 
z
" clip-path="url(#p4cc7a95952)" style="fill: #1f77b4"/>
   </g>
   <g id="patch_71">
    <path d="M 271.319518 359.8 
L 286.03045 359.8 
L 286.03045 330.112805 
L 271.319518 330.112805 
z
" clip-path="url(#p4cc7a95952)" style="fill: #1f77b4"/>
   </g>
   <g id="patch_72">
    <path d="M 286.030459 359.8 
L 300.741391 359.8 
L 300.741391 303.35675 
L 286.030459 303.35675 
z
" clip-path="url(#p4cc7a95952)" style="fill: #1f77b4"/>
   </g>
   <g id="patch_73">
    <path d="M 300.741393 359.8 
L 315.452326 359.8 
L 315.452326 271.189359 
L 300.741393 271.189359 
z
" clip-path="url(#p4cc7a95952)" style="fill: #1f77b4"/>
   </g>
   <g id="patch_74">
    <path d="M 315.452331 359.8 
L 330.163263 359.8 
L 330.163263 223.990476 
L 315.452331 223.990476 
z
" clip-path="url(#p4cc7a95952)" style="fill: #1f77b4"/>
   </g>
   <g id="patch_75">
    <path d="M 330.163269 359.8 
L 344.874201 359.8 
L 344.874201 306.212734 
L 330.163269 306.212734 
z
" clip-path="url(#p4cc7a95952)" style="fill: #1f77b4"/>
   </g>
   <g id="patch_76">
    <path d="M 344.874205 359.8 
L 359.585138 359.8 
L 359.585138 339.657802 
L 344.874205 339.657802 
z
" clip-path="url(#p4cc7a95952)" style="fill: #1f77b4"/>
   </g>
   <g id="patch_77">
    <path d="M 359.585146 359.8 
L 374.296079 359.8 
L 374.296079 351.006578 
L 359.585146 351.006578 
z
" clip-path="url(#p4cc7a95952)" style="fill: #1f77b4"/>
   </g>
   <g id="patch_78">
    <path d="M 374.296079 359.8 
L 389.007011 359.8 
L 389.007011 355.215395 
L 374.296079 355.215395 
z
" clip-path="url(#p4cc7a95952)" style="fill: #1f77b4"/>
   </g>
   <g id="patch_79">
    <path d="M 389.00702 359.8 
L 403.717952 359.8 
L 403.717952 355.891812 
L 389.00702 355.891812 
z
" clip-path="url(#p4cc7a95952)" style="fill: #1f77b4"/>
   </g>
   <g id="patch_80">
    <path d="M 403.717944 359.8 
L 418.428893 359.8 
L 418.428893 357.695591 
L 403.717944 357.695591 
z
" clip-path="url(#p4cc7a95952)" style="fill: #1f77b4"/>
   </g>
   <g id="patch_81">
    <path d="M 418.428893 359.8 
L 433.139826 359.8 
L 433.139826 358.898111 
L 418.428893 358.898111 
z
" clip-path="url(#p4cc7a95952)" style="fill: #1f77b4"/>
   </g>
   <g id="patch_82">
    <path d="M 433.139826 359.8 
L 447.850775 359.8 
L 447.850775 359.349055 
L 433.139826 359.349055 
z
" clip-path="url(#p4cc7a95952)" style="fill: #1f77b4"/>
   </g>
   <g id="patch_83">
    <path d="M 447.850758 359.8 
L 462.561707 359.8 
L 462.561707 359.424213 
L 447.850758 359.424213 
z
" clip-path="url(#p4cc7a95952)" style="fill: #1f77b4"/>
   </g>
   <g id="patch_84">
    <path d="M 462.561716 359.8 
L 477.27264 359.8 
L 477.27264 359.49937 
L 462.561716 359.49937 
z
" clip-path="url(#p4cc7a95952)" style="fill: #1f77b4"/>
   </g>
   <g id="patch_85">
    <path d="M 477.27264 359.8 
L 491.983572 359.8 
L 491.983572 359.574528 
L 477.27264 359.574528 
z
" clip-path="url(#p4cc7a95952)" style="fill: #1f77b4"/>
   </g>
   <g id="patch_86">
    <path d="M 491.983572 359.8 
L 506.694522 359.8 
L 506.694522 359.8 
L 491.983572 359.8 
z
" clip-path="url(#p4cc7a95952)" style="fill: #1f77b4"/>
   </g>
   <g id="patch_87">
    <path d="M 506.694538 359.8 
L 521.405471 359.8 
L 521.405471 359.424213 
L 506.694538 359.424213 
z
" clip-path="url(#p4cc7a95952)" style="fill: #1f77b4"/>
   </g>
   <g id="patch_88">
    <path d="M 521.405454 359.8 
L 536.116387 359.8 
L 536.116387 359.49937 
L 521.405454 359.49937 
z
" clip-path="url(#p4cc7a95952)" style="fill: #1f77b4"/>
   </g>
   <g id="patch_89">
    <path d="M 536.116387 359.8 
L 550.827336 359.8 
L 550.827336 359.8 
L 536.116387 359.8 
z
" clip-path="url(#p4cc7a95952)" style="fill: #1f77b4"/>
   </g>
   <g id="patch_90">
    <path d="M 550.827353 359.8 
L 565.538285 359.8 
L 565.538285 359.724843 
L 550.827353 359.724843 
z
" clip-path="url(#p4cc7a95952)" style="fill: #1f77b4"/>
   </g>
   <g id="patch_91">
    <path d="M 565.538268 359.8 
L 580.249201 359.8 
L 580.249201 359.724843 
L 565.538268 359.724843 
z
" clip-path="url(#p4cc7a95952)" style="fill: #1f77b4"/>
   </g>
   <g id="patch_92">
    <path d="M 580.249218 359.8 
L 594.96015 359.8 
L 594.96015 359.724843 
L 580.249218 359.724843 
z
" clip-path="url(#p4cc7a95952)" style="fill: #1f77b4"/>
   </g>
   <g id="patch_93">
    <path d="M 594.960133 359.8 
L 609.671083 359.8 
L 609.671083 359.649685 
L 594.960133 359.649685 
z
" clip-path="url(#p4cc7a95952)" style="fill: #1f77b4"/>
   </g>
   <g id="patch_94">
    <path d="M 609.671116 359.8 
L 624.382065 359.8 
L 624.382065 359.49937 
L 609.671116 359.49937 
z
" clip-path="url(#p4cc7a95952)" style="fill: #1f77b4"/>
   </g>
   <g id="patch_95">
    <path d="M 624.382032 359.8 
L 639.092948 359.8 
L 639.092948 359.574528 
L 624.382032 359.574528 
z
" clip-path="url(#p4cc7a95952)" style="fill: #1f77b4"/>
   </g>
   <g id="patch_96">
    <path d="M 639.092948 359.8 
L 653.803897 359.8 
L 653.803897 359.649685 
L 639.092948 359.649685 
z
" clip-path="url(#p4cc7a95952)" style="fill: #1f77b4"/>
   </g>
   <g id="patch_97">
    <path d="M 653.80393 359.8 
L 668.51488 359.8 
L 668.51488 359.574528 
L 653.80393 359.574528 
z
" clip-path="url(#p4cc7a95952)" style="fill: #1f77b4"/>
   </g>
   <g id="patch_98">
    <path d="M 668.514846 359.8 
L 683.225762 359.8 
L 683.225762 359.724843 
L 668.514846 359.724843 
z
" clip-path="url(#p4cc7a95952)" style="fill: #1f77b4"/>
   </g>
   <g id="patch_99">
    <path d="M 683.225762 359.8 
L 697.936711 359.8 
L 697.936711 359.724843 
L 683.225762 359.724843 
z
" clip-path="url(#p4cc7a95952)" style="fill: #1f77b4"/>
   </g>
   <g id="patch_100">
    <path d="M 697.936711 359.8 
L 712.647627 359.8 
L 712.647627 359.8 
L 697.936711 359.8 
z
" clip-path="url(#p4cc7a95952)" style="fill: #1f77b4"/>
   </g>
   <g id="patch_101">
    <path d="M 712.64766 359.8 
L 727.35861 359.8 
L 727.35861 359.8 
L 712.64766 359.8 
z
" clip-path="url(#p4cc7a95952)" style="fill: #1f77b4"/>
   </g>
   <g id="patch_102">
    <path d="M 727.358576 359.8 
L 742.069526 359.8 
L 742.069526 359.724843 
L 727.358576 359.724843 
z
" clip-path="url(#p4cc7a95952)" style="fill: #1f77b4"/>
   </g>
   <g id="patch_103">
    <path d="M 742.069526 359.8 
L 756.780441 359.8 
L 756.780441 359.724843 
L 742.069526 359.724843 
z
" clip-path="url(#p4cc7a95952)" style="fill: #1f77b4"/>
   </g>
   <g id="patch_104">
    <path d="M 756.780475 359.8 
L 771.491424 359.8 
L 771.491424 359.649685 
L 756.780475 359.649685 
z
" clip-path="url(#p4cc7a95952)" style="fill: #1f77b4"/>
   </g>
   <g id="patch_105">
    <path d="M 771.491391 359.8 
L 786.20234 359.8 
L 786.20234 359.8 
L 771.491391 359.8 
z
" clip-path="url(#p4cc7a95952)" style="fill: #1f77b4"/>
   </g>
   <g id="patch_106">
    <path d="M 786.20234 359.8 
L 800.913256 359.8 
L 800.913256 359.724843 
L 786.20234 359.724843 
z
" clip-path="url(#p4cc7a95952)" style="fill: #1f77b4"/>
   </g>
   <g id="patch_107">
    <path d="M 800.913289 359.8 
L 815.624238 359.8 
L 815.624238 359.724843 
L 800.913289 359.724843 
z
" clip-path="url(#p4cc7a95952)" style="fill: #1f77b4"/>
   </g>
   <g id="matplotlib.axis_3">
    <g id="xtick_9">
     <g id="line2d_29">
      <path d="M 45.093098 359.8 
L 45.093098 217.2 
" clip-path="url(#p4cc7a95952)" style="fill: none; stroke: #b0b0b0; stroke-width: 0.8; stroke-linecap: square"/>
     </g>
     <g id="line2d_30">
      <g>
       <use xlink:href="#me3c14903ee" x="45.093098" y="359.8" style="stroke: #000000; stroke-width: 0.8"/>
      </g>
     </g>
     <g id="text_16">
      <!-- −1.0 -->
      <g transform="translate(32.951692 374.398438)scale(0.1 -0.1)">
       <use xlink:href="#DejaVuSans-2212"/>
       <use xlink:href="#DejaVuSans-31" x="83.789062"/>
       <use xlink:href="#DejaVuSans-2e" x="147.412109"/>
       <use xlink:href="#DejaVuSans-30" x="179.199219"/>
      </g>
     </g>
    </g>
    <g id="xtick_10">
     <g id="line2d_31">
      <path d="M 184.968989 359.8 
L 184.968989 217.2 
" clip-path="url(#p4cc7a95952)" style="fill: none; stroke: #b0b0b0; stroke-width: 0.8; stroke-linecap: square"/>
     </g>
     <g id="line2d_32">
      <g>
       <use xlink:href="#me3c14903ee" x="184.968989" y="359.8" style="stroke: #000000; stroke-width: 0.8"/>
      </g>
     </g>
     <g id="text_17">
      <!-- −0.5 -->
      <g transform="translate(172.827583 374.398438)scale(0.1 -0.1)">
       <use xlink:href="#DejaVuSans-2212"/>
       <use xlink:href="#DejaVuSans-30" x="83.789062"/>
       <use xlink:href="#DejaVuSans-2e" x="147.412109"/>
       <use xlink:href="#DejaVuSans-35" x="179.199219"/>
      </g>
     </g>
    </g>
    <g id="xtick_11">
     <g id="line2d_33">
      <path d="M 324.844881 359.8 
L 324.844881 217.2 
" clip-path="url(#p4cc7a95952)" style="fill: none; stroke: #b0b0b0; stroke-width: 0.8; stroke-linecap: square"/>
     </g>
     <g id="line2d_34">
      <g>
       <use xlink:href="#me3c14903ee" x="324.844881" y="359.8" style="stroke: #000000; stroke-width: 0.8"/>
      </g>
     </g>
     <g id="text_18">
      <!-- 0.0 -->
      <g transform="translate(316.893318 374.398438)scale(0.1 -0.1)">
       <use xlink:href="#DejaVuSans-30"/>
       <use xlink:href="#DejaVuSans-2e" x="63.623047"/>
       <use xlink:href="#DejaVuSans-30" x="95.410156"/>
      </g>
     </g>
    </g>
    <g id="xtick_12">
     <g id="line2d_35">
      <path d="M 464.720772 359.8 
L 464.720772 217.2 
" clip-path="url(#p4cc7a95952)" style="fill: none; stroke: #b0b0b0; stroke-width: 0.8; stroke-linecap: square"/>
     </g>
     <g id="line2d_36">
      <g>
       <use xlink:href="#me3c14903ee" x="464.720772" y="359.8" style="stroke: #000000; stroke-width: 0.8"/>
      </g>
     </g>
     <g id="text_19">
      <!-- 0.5 -->
      <g transform="translate(456.76921 374.398438)scale(0.1 -0.1)">
       <use xlink:href="#DejaVuSans-30"/>
       <use xlink:href="#DejaVuSans-2e" x="63.623047"/>
       <use xlink:href="#DejaVuSans-35" x="95.410156"/>
      </g>
     </g>
    </g>
    <g id="xtick_13">
     <g id="line2d_37">
      <path d="M 604.596664 359.8 
L 604.596664 217.2 
" clip-path="url(#p4cc7a95952)" style="fill: none; stroke: #b0b0b0; stroke-width: 0.8; stroke-linecap: square"/>
     </g>
     <g id="line2d_38">
      <g>
       <use xlink:href="#me3c14903ee" x="604.596664" y="359.8" style="stroke: #000000; stroke-width: 0.8"/>
      </g>
     </g>
     <g id="text_20">
      <!-- 1.0 -->
      <g transform="translate(596.645101 374.398438)scale(0.1 -0.1)">
       <use xlink:href="#DejaVuSans-31"/>
       <use xlink:href="#DejaVuSans-2e" x="63.623047"/>
       <use xlink:href="#DejaVuSans-30" x="95.410156"/>
      </g>
     </g>
    </g>
    <g id="xtick_14">
     <g id="line2d_39">
      <path d="M 744.472555 359.8 
L 744.472555 217.2 
" clip-path="url(#p4cc7a95952)" style="fill: none; stroke: #b0b0b0; stroke-width: 0.8; stroke-linecap: square"/>
     </g>
     <g id="line2d_40">
      <g>
       <use xlink:href="#me3c14903ee" x="744.472555" y="359.8" style="stroke: #000000; stroke-width: 0.8"/>
      </g>
     </g>
     <g id="text_21">
      <!-- 1.5 -->
      <g transform="translate(736.520993 374.398438)scale(0.1 -0.1)">
       <use xlink:href="#DejaVuSans-31"/>
       <use xlink:href="#DejaVuSans-2e" x="63.623047"/>
       <use xlink:href="#DejaVuSans-35" x="95.410156"/>
      </g>
     </g>
    </g>
   </g>
   <g id="matplotlib.axis_4">
    <g id="ytick_7">
     <g id="line2d_41">
      <path d="M 43.3 359.8 
L 852.401583 359.8 
" clip-path="url(#p4cc7a95952)" style="fill: none; stroke: #b0b0b0; stroke-width: 0.8; stroke-linecap: square"/>
     </g>
     <g id="line2d_42">
      <g>
       <use xlink:href="#m45c62b19be" x="43.3" y="359.8" style="stroke: #000000; stroke-width: 0.8"/>
      </g>
     </g>
     <g id="text_22">
      <!-- 0 -->
      <g transform="translate(29.9375 363.599219)scale(0.1 -0.1)">
       <use xlink:href="#DejaVuSans-30"/>
      </g>
     </g>
    </g>
    <g id="ytick_8">
     <g id="line2d_43">
      <path d="M 43.3 322.221272 
L 852.401583 322.221272 
" clip-path="url(#p4cc7a95952)" style="fill: none; stroke: #b0b0b0; stroke-width: 0.8; stroke-linecap: square"/>
     </g>
     <g id="line2d_44">
      <g>
       <use xlink:href="#m45c62b19be" x="43.3" y="322.221272" style="stroke: #000000; stroke-width: 0.8"/>
      </g>
     </g>
     <g id="text_23">
      <!-- 500 -->
      <g transform="translate(17.2125 326.020491)scale(0.1 -0.1)">
       <use xlink:href="#DejaVuSans-35"/>
       <use xlink:href="#DejaVuSans-30" x="63.623047"/>
       <use xlink:href="#DejaVuSans-30" x="127.246094"/>
      </g>
     </g>
    </g>
    <g id="ytick_9">
     <g id="line2d_45">
      <path d="M 43.3 284.642544 
L 852.401583 284.642544 
" clip-path="url(#p4cc7a95952)" style="fill: none; stroke: #b0b0b0; stroke-width: 0.8; stroke-linecap: square"/>
     </g>
     <g id="line2d_46">
      <g>
       <use xlink:href="#m45c62b19be" x="43.3" y="284.642544" style="stroke: #000000; stroke-width: 0.8"/>
      </g>
     </g>
     <g id="text_24">
      <!-- 1000 -->
      <g transform="translate(10.85 288.441762)scale(0.1 -0.1)">
       <use xlink:href="#DejaVuSans-31"/>
       <use xlink:href="#DejaVuSans-30" x="63.623047"/>
       <use xlink:href="#DejaVuSans-30" x="127.246094"/>
       <use xlink:href="#DejaVuSans-30" x="190.869141"/>
      </g>
     </g>
    </g>
    <g id="ytick_10">
     <g id="line2d_47">
      <path d="M 43.3 247.063815 
L 852.401583 247.063815 
" clip-path="url(#p4cc7a95952)" style="fill: none; stroke: #b0b0b0; stroke-width: 0.8; stroke-linecap: square"/>
     </g>
     <g id="line2d_48">
      <g>
       <use xlink:href="#m45c62b19be" x="43.3" y="247.063815" style="stroke: #000000; stroke-width: 0.8"/>
      </g>
     </g>
     <g id="text_25">
      <!-- 1500 -->
      <g transform="translate(10.85 250.863034)scale(0.1 -0.1)">
       <use xlink:href="#DejaVuSans-31"/>
       <use xlink:href="#DejaVuSans-35" x="63.623047"/>
       <use xlink:href="#DejaVuSans-30" x="127.246094"/>
       <use xlink:href="#DejaVuSans-30" x="190.869141"/>
      </g>
     </g>
    </g>
   </g>
   <g id="patch_108">
    <path d="M 43.3 359.8 
L 43.3 217.2 
" style="fill: none; stroke: #000000; stroke-width: 0.8; stroke-linejoin: miter; stroke-linecap: square"/>
   </g>
   <g id="patch_109">
    <path d="M 852.401583 359.8 
L 852.401583 217.2 
" style="fill: none; stroke: #000000; stroke-width: 0.8; stroke-linejoin: miter; stroke-linecap: square"/>
   </g>
   <g id="patch_110">
    <path d="M 43.3 359.8 
L 852.401583 359.8 
" style="fill: none; stroke: #000000; stroke-width: 0.8; stroke-linejoin: miter; stroke-linecap: square"/>
   </g>
   <g id="patch_111">
    <path d="M 43.3 217.2 
L 852.401583 217.2 
" style="fill: none; stroke: #000000; stroke-width: 0.8; stroke-linejoin: miter; stroke-linecap: square"/>
   </g>
   <g id="text_26">
    <!-- Second hidden layer weights -->
    <g transform="translate(339.358604 211.2)scale(0.15 -0.15)">
     <defs>
      <path id="DejaVuSans-53" d="M 3425 4513 
L 3425 3897 
Q 3066 4069 2747 4153 
Q 2428 4238 2131 4238 
Q 1616 4238 1336 4038 
Q 1056 3838 1056 3469 
Q 1056 3159 1242 3001 
Q 1428 2844 1947 2747 
L 2328 2669 
Q 3034 2534 3370 2195 
Q 3706 1856 3706 1288 
Q 3706 609 3251 259 
Q 2797 -91 1919 -91 
Q 1588 -91 1214 -16 
Q 841 59 441 206 
L 441 856 
Q 825 641 1194 531 
Q 1563 422 1919 422 
Q 2459 422 2753 634 
Q 3047 847 3047 1241 
Q 3047 1584 2836 1778 
Q 2625 1972 2144 2069 
L 1759 2144 
Q 1053 2284 737 2584 
Q 422 2884 422 3419 
Q 422 4038 858 4394 
Q 1294 4750 2059 4750 
Q 2388 4750 2728 4690 
Q 3069 4631 3425 4513 
z
" transform="scale(0.015625)"/>
      <path id="DejaVuSans-63" d="M 3122 3366 
L 3122 2828 
Q 2878 2963 2633 3030 
Q 2388 3097 2138 3097 
Q 1578 3097 1268 2742 
Q 959 2388 959 1747 
Q 959 1106 1268 751 
Q 1578 397 2138 397 
Q 2388 397 2633 464 
Q 2878 531 3122 666 
L 3122 134 
Q 2881 22 2623 -34 
Q 2366 -91 2075 -91 
Q 1284 -91 818 406 
Q 353 903 353 1747 
Q 353 2603 823 3093 
Q 1294 3584 2113 3584 
Q 2378 3584 2631 3529 
Q 2884 3475 3122 3366 
z
" transform="scale(0.015625)"/>
      <path id="DejaVuSans-6f" d="M 1959 3097 
Q 1497 3097 1228 2736 
Q 959 2375 959 1747 
Q 959 1119 1226 758 
Q 1494 397 1959 397 
Q 2419 397 2687 759 
Q 2956 1122 2956 1747 
Q 2956 2369 2687 2733 
Q 2419 3097 1959 3097 
z
M 1959 3584 
Q 2709 3584 3137 3096 
Q 3566 2609 3566 1747 
Q 3566 888 3137 398 
Q 2709 -91 1959 -91 
Q 1206 -91 779 398 
Q 353 888 353 1747 
Q 353 2609 779 3096 
Q 1206 3584 1959 3584 
z
" transform="scale(0.015625)"/>
     </defs>
     <use xlink:href="#DejaVuSans-53"/>
     <use xlink:href="#DejaVuSans-65" x="63.476562"/>
     <use xlink:href="#DejaVuSans-63" x="125"/>
     <use xlink:href="#DejaVuSans-6f" x="179.980469"/>
     <use xlink:href="#DejaVuSans-6e" x="241.162109"/>
     <use xlink:href="#DejaVuSans-64" x="304.541016"/>
     <use xlink:href="#DejaVuSans-20" x="368.017578"/>
     <use xlink:href="#DejaVuSans-68" x="399.804688"/>
     <use xlink:href="#DejaVuSans-69" x="463.183594"/>
     <use xlink:href="#DejaVuSans-64" x="490.966797"/>
     <use xlink:href="#DejaVuSans-64" x="554.443359"/>
     <use xlink:href="#DejaVuSans-65" x="617.919922"/>
     <use xlink:href="#DejaVuSans-6e" x="679.443359"/>
     <use xlink:href="#DejaVuSans-20" x="742.822266"/>
     <use xlink:href="#DejaVuSans-6c" x="774.609375"/>
     <use xlink:href="#DejaVuSans-61" x="802.392578"/>
     <use xlink:href="#DejaVuSans-79" x="863.671875"/>
     <use xlink:href="#DejaVuSans-65" x="922.851562"/>
     <use xlink:href="#DejaVuSans-72" x="984.375"/>
     <use xlink:href="#DejaVuSans-20" x="1025.488281"/>
     <use xlink:href="#DejaVuSans-77" x="1057.275391"/>
     <use xlink:href="#DejaVuSans-65" x="1139.0625"/>
     <use xlink:href="#DejaVuSans-69" x="1200.585938"/>
     <use xlink:href="#DejaVuSans-67" x="1228.369141"/>
     <use xlink:href="#DejaVuSans-68" x="1291.845703"/>
     <use xlink:href="#DejaVuSans-74" x="1355.224609"/>
     <use xlink:href="#DejaVuSans-73" x="1394.433594"/>
    </g>
   </g>
  </g>
  <g id="axes_3">
   <g id="patch_112">
    <path d="M 43.3 548.2 
L 852.401583 548.2 
L 852.401583 405.6 
L 43.3 405.6 
z
" style="fill: #ffffff"/>
   </g>
   <g id="patch_113">
    <path d="M 80.077345 548.2 
L 94.788272 548.2 
L 94.788272 535.85368 
L 80.077345 535.85368 
z
" clip-path="url(#pd702fdf7ff)" style="fill: #1f77b4"/>
   </g>
   <g id="patch_114">
    <path d="M 94.788272 548.2 
L 109.499227 548.2 
L 109.499227 548.2 
L 94.788272 548.2 
z
" clip-path="url(#pd702fdf7ff)" style="fill: #1f77b4"/>
   </g>
   <g id="patch_115">
    <path d="M 109.499227 548.2 
L 124.210154 548.2 
L 124.210154 548.2 
L 109.499227 548.2 
z
" clip-path="url(#pd702fdf7ff)" style="fill: #1f77b4"/>
   </g>
   <g id="patch_116">
    <path d="M 124.210182 548.2 
L 138.921136 548.2 
L 138.921136 548.2 
L 124.210182 548.2 
z
" clip-path="url(#pd702fdf7ff)" style="fill: #1f77b4"/>
   </g>
   <g id="patch_117">
    <path d="M 138.921109 548.2 
L 153.632037 548.2 
L 153.632037 535.85368 
L 138.921109 535.85368 
z
" clip-path="url(#pd702fdf7ff)" style="fill: #1f77b4"/>
   </g>
   <g id="patch_118">
    <path d="M 153.632037 548.2 
L 168.342964 548.2 
L 168.342964 548.2 
L 153.632037 548.2 
z
" clip-path="url(#pd702fdf7ff)" style="fill: #1f77b4"/>
   </g>
   <g id="patch_119">
    <path d="M 168.342964 548.2 
L 183.053919 548.2 
L 183.053919 548.2 
L 168.342964 548.2 
z
" clip-path="url(#pd702fdf7ff)" style="fill: #1f77b4"/>
   </g>
   <g id="patch_120">
    <path d="M 183.053919 548.2 
L 197.764847 548.2 
L 197.764847 548.2 
L 183.053919 548.2 
z
" clip-path="url(#pd702fdf7ff)" style="fill: #1f77b4"/>
   </g>
   <g id="patch_121">
    <path d="M 197.764847 548.2 
L 212.475774 548.2 
L 212.475774 548.2 
L 197.764847 548.2 
z
" clip-path="url(#pd702fdf7ff)" style="fill: #1f77b4"/>
   </g>
   <g id="patch_122">
    <path d="M 212.475801 548.2 
L 227.186729 548.2 
L 227.186729 548.2 
L 212.475801 548.2 
z
" clip-path="url(#pd702fdf7ff)" style="fill: #1f77b4"/>
   </g>
   <g id="patch_123">
    <path d="M 227.186729 548.2 
L 241.897656 548.2 
L 241.897656 535.85368 
L 227.186729 535.85368 
z
" clip-path="url(#pd702fdf7ff)" style="fill: #1f77b4"/>
   </g>
   <g id="patch_124">
    <path d="M 241.897656 548.2 
L 256.608584 548.2 
L 256.608584 548.2 
L 241.897656 548.2 
z
" clip-path="url(#pd702fdf7ff)" style="fill: #1f77b4"/>
   </g>
   <g id="patch_125">
    <path d="M 256.608611 548.2 
L 271.319539 548.2 
L 271.319539 548.2 
L 256.608611 548.2 
z
" clip-path="url(#pd702fdf7ff)" style="fill: #1f77b4"/>
   </g>
   <g id="patch_126">
    <path d="M 271.319539 548.2 
L 286.030466 548.2 
L 286.030466 523.507359 
L 271.319539 523.507359 
z
" clip-path="url(#pd702fdf7ff)" style="fill: #1f77b4"/>
   </g>
   <g id="patch_127">
    <path d="M 286.03048 548.2 
L 300.741407 548.2 
L 300.741407 548.2 
L 286.03048 548.2 
z
" clip-path="url(#pd702fdf7ff)" style="fill: #1f77b4"/>
   </g>
   <g id="patch_128">
    <path d="M 300.741421 548.2 
L 315.452348 548.2 
L 315.452348 548.2 
L 300.741421 548.2 
z
" clip-path="url(#pd702fdf7ff)" style="fill: #1f77b4"/>
   </g>
   <g id="patch_129">
    <path d="M 315.452355 548.2 
L 330.163283 548.2 
L 330.163283 548.2 
L 315.452355 548.2 
z
" clip-path="url(#pd702fdf7ff)" style="fill: #1f77b4"/>
   </g>
   <g id="patch_130">
    <path d="M 330.16329 548.2 
L 344.874217 548.2 
L 344.874217 548.2 
L 330.16329 548.2 
z
" clip-path="url(#pd702fdf7ff)" style="fill: #1f77b4"/>
   </g>
   <g id="patch_131">
    <path d="M 344.874231 548.2 
L 359.585158 548.2 
L 359.585158 535.85368 
L 344.874231 535.85368 
z
" clip-path="url(#pd702fdf7ff)" style="fill: #1f77b4"/>
   </g>
   <g id="patch_132">
    <path d="M 359.585172 548.2 
L 374.296099 548.2 
L 374.296099 535.85368 
L 359.585172 535.85368 
z
" clip-path="url(#pd702fdf7ff)" style="fill: #1f77b4"/>
   </g>
   <g id="patch_133">
    <path d="M 374.296106 548.2 
L 389.007034 548.2 
L 389.007034 511.161039 
L 374.296106 511.161039 
z
" clip-path="url(#pd702fdf7ff)" style="fill: #1f77b4"/>
   </g>
   <g id="patch_134">
    <path d="M 389.007047 548.2 
L 403.717975 548.2 
L 403.717975 486.468398 
L 389.007047 486.468398 
z
" clip-path="url(#pd702fdf7ff)" style="fill: #1f77b4"/>
   </g>
   <g id="patch_135">
    <path d="M 403.717983 548.2 
L 418.428911 548.2 
L 418.428911 412.390476 
L 403.717983 412.390476 
z
" clip-path="url(#pd702fdf7ff)" style="fill: #1f77b4"/>
   </g>
   <g id="patch_136">
    <path d="M 418.428921 548.2 
L 433.139849 548.2 
L 433.139849 511.161039 
L 418.428921 511.161039 
z
" clip-path="url(#pd702fdf7ff)" style="fill: #1f77b4"/>
   </g>
   <g id="patch_137">
    <path d="M 433.139859 548.2 
L 447.850786 548.2 
L 447.850786 498.814719 
L 433.139859 498.814719 
z
" clip-path="url(#pd702fdf7ff)" style="fill: #1f77b4"/>
   </g>
   <g id="patch_138">
    <path d="M 447.850797 548.2 
L 462.561726 548.2 
L 462.561726 498.814719 
L 447.850797 498.814719 
z
" clip-path="url(#pd702fdf7ff)" style="fill: #1f77b4"/>
   </g>
   <g id="patch_139">
    <path d="M 462.561733 548.2 
L 477.27266 548.2 
L 477.27266 474.122078 
L 462.561733 474.122078 
z
" clip-path="url(#pd702fdf7ff)" style="fill: #1f77b4"/>
   </g>
   <g id="patch_140">
    <path d="M 477.272674 548.2 
L 491.983601 548.2 
L 491.983601 486.468398 
L 477.272674 486.468398 
z
" clip-path="url(#pd702fdf7ff)" style="fill: #1f77b4"/>
   </g>
   <g id="patch_141">
    <path d="M 491.983615 548.2 
L 506.694542 548.2 
L 506.694542 535.85368 
L 491.983615 535.85368 
z
" clip-path="url(#pd702fdf7ff)" style="fill: #1f77b4"/>
   </g>
   <g id="patch_142">
    <path d="M 506.694549 548.2 
L 521.405477 548.2 
L 521.405477 523.507359 
L 506.694549 523.507359 
z
" clip-path="url(#pd702fdf7ff)" style="fill: #1f77b4"/>
   </g>
   <g id="patch_143">
    <path d="M 521.405484 548.2 
L 536.116411 548.2 
L 536.116411 511.161039 
L 521.405484 511.161039 
z
" clip-path="url(#pd702fdf7ff)" style="fill: #1f77b4"/>
   </g>
   <g id="patch_144">
    <path d="M 536.116425 548.2 
L 550.827352 548.2 
L 550.827352 498.814719 
L 536.116425 498.814719 
z
" clip-path="url(#pd702fdf7ff)" style="fill: #1f77b4"/>
   </g>
   <g id="patch_145">
    <path d="M 550.827352 548.2 
L 565.53828 548.2 
L 565.53828 498.814719 
L 550.827352 498.814719 
z
" clip-path="url(#pd702fdf7ff)" style="fill: #1f77b4"/>
   </g>
   <g id="patch_146">
    <path d="M 565.538307 548.2 
L 580.249234 548.2 
L 580.249234 474.122078 
L 565.538307 474.122078 
z
" clip-path="url(#pd702fdf7ff)" style="fill: #1f77b4"/>
   </g>
   <g id="patch_147">
    <path d="M 580.249234 548.2 
L 594.960162 548.2 
L 594.960162 511.161039 
L 580.249234 511.161039 
z
" clip-path="url(#pd702fdf7ff)" style="fill: #1f77b4"/>
   </g>
   <g id="patch_148">
    <path d="M 594.960176 548.2 
L 609.671103 548.2 
L 609.671103 535.85368 
L 594.960176 535.85368 
z
" clip-path="url(#pd702fdf7ff)" style="fill: #1f77b4"/>
   </g>
   <g id="patch_149">
    <path d="M 609.671117 548.2 
L 624.382044 548.2 
L 624.382044 548.2 
L 609.671117 548.2 
z
" clip-path="url(#pd702fdf7ff)" style="fill: #1f77b4"/>
   </g>
   <g id="patch_150">
    <path d="M 624.382044 548.2 
L 639.092972 548.2 
L 639.092972 548.2 
L 624.382044 548.2 
z
" clip-path="url(#pd702fdf7ff)" style="fill: #1f77b4"/>
   </g>
   <g id="patch_151">
    <path d="M 639.092999 548.2 
L 653.803927 548.2 
L 653.803927 548.2 
L 639.092999 548.2 
z
" clip-path="url(#pd702fdf7ff)" style="fill: #1f77b4"/>
   </g>
   <g id="patch_152">
    <path d="M 653.803927 548.2 
L 668.514854 548.2 
L 668.514854 548.2 
L 653.803927 548.2 
z
" clip-path="url(#pd702fdf7ff)" style="fill: #1f77b4"/>
   </g>
   <g id="patch_153">
    <path d="M 668.514881 548.2 
L 683.225836 548.2 
L 683.225836 535.85368 
L 668.514881 535.85368 
z
" clip-path="url(#pd702fdf7ff)" style="fill: #1f77b4"/>
   </g>
   <g id="patch_154">
    <path d="M 683.225809 548.2 
L 697.936736 548.2 
L 697.936736 548.2 
L 683.225809 548.2 
z
" clip-path="url(#pd702fdf7ff)" style="fill: #1f77b4"/>
   </g>
   <g id="patch_155">
    <path d="M 697.936736 548.2 
L 712.647664 548.2 
L 712.647664 548.2 
L 697.936736 548.2 
z
" clip-path="url(#pd702fdf7ff)" style="fill: #1f77b4"/>
   </g>
   <g id="patch_156">
    <path d="M 712.647664 548.2 
L 727.358619 548.2 
L 727.358619 548.2 
L 712.647664 548.2 
z
" clip-path="url(#pd702fdf7ff)" style="fill: #1f77b4"/>
   </g>
   <g id="patch_157">
    <path d="M 727.358619 548.2 
L 742.069546 548.2 
L 742.069546 548.2 
L 727.358619 548.2 
z
" clip-path="url(#pd702fdf7ff)" style="fill: #1f77b4"/>
   </g>
   <g id="patch_158">
    <path d="M 742.069546 548.2 
L 756.780474 548.2 
L 756.780474 548.2 
L 742.069546 548.2 
z
" clip-path="url(#pd702fdf7ff)" style="fill: #1f77b4"/>
   </g>
   <g id="patch_159">
    <path d="M 756.780501 548.2 
L 771.491456 548.2 
L 771.491456 548.2 
L 756.780501 548.2 
z
" clip-path="url(#pd702fdf7ff)" style="fill: #1f77b4"/>
   </g>
   <g id="patch_160">
    <path d="M 771.491428 548.2 
L 786.202356 548.2 
L 786.202356 535.85368 
L 771.491428 535.85368 
z
" clip-path="url(#pd702fdf7ff)" style="fill: #1f77b4"/>
   </g>
   <g id="patch_161">
    <path d="M 786.202356 548.2 
L 800.913311 548.2 
L 800.913311 548.2 
L 786.202356 548.2 
z
" clip-path="url(#pd702fdf7ff)" style="fill: #1f77b4"/>
   </g>
   <g id="patch_162">
    <path d="M 800.913311 548.2 
L 815.624238 548.2 
L 815.624238 535.85368 
L 800.913311 535.85368 
z
" clip-path="url(#pd702fdf7ff)" style="fill: #1f77b4"/>
   </g>
   <g id="matplotlib.axis_5">
    <g id="xtick_15">
     <g id="line2d_49">
      <path d="M 63.575421 548.2 
L 63.575421 405.6 
" clip-path="url(#pd702fdf7ff)" style="fill: none; stroke: #b0b0b0; stroke-width: 0.8; stroke-linecap: square"/>
     </g>
     <g id="line2d_50">
      <g>
       <use xlink:href="#me3c14903ee" x="63.575421" y="548.2" style="stroke: #000000; stroke-width: 0.8"/>
      </g>
     </g>
     <g id="text_27">
      <!-- −0.4 -->
      <g transform="translate(51.434014 562.798438)scale(0.1 -0.1)">
       <use xlink:href="#DejaVuSans-2212"/>
       <use xlink:href="#DejaVuSans-30" x="83.789062"/>
       <use xlink:href="#DejaVuSans-2e" x="147.412109"/>
       <use xlink:href="#DejaVuSans-34" x="179.199219"/>
      </g>
     </g>
    </g>
    <g id="xtick_16">
     <g id="line2d_51">
      <path d="M 154.595567 548.2 
L 154.595567 405.6 
" clip-path="url(#pd702fdf7ff)" style="fill: none; stroke: #b0b0b0; stroke-width: 0.8; stroke-linecap: square"/>
     </g>
     <g id="line2d_52">
      <g>
       <use xlink:href="#me3c14903ee" x="154.595567" y="548.2" style="stroke: #000000; stroke-width: 0.8"/>
      </g>
     </g>
     <g id="text_28">
      <!-- −0.3 -->
      <g transform="translate(142.454161 562.798438)scale(0.1 -0.1)">
       <use xlink:href="#DejaVuSans-2212"/>
       <use xlink:href="#DejaVuSans-30" x="83.789062"/>
       <use xlink:href="#DejaVuSans-2e" x="147.412109"/>
       <use xlink:href="#DejaVuSans-33" x="179.199219"/>
      </g>
     </g>
    </g>
    <g id="xtick_17">
     <g id="line2d_53">
      <path d="M 245.615714 548.2 
L 245.615714 405.6 
" clip-path="url(#pd702fdf7ff)" style="fill: none; stroke: #b0b0b0; stroke-width: 0.8; stroke-linecap: square"/>
     </g>
     <g id="line2d_54">
      <g>
       <use xlink:href="#me3c14903ee" x="245.615714" y="548.2" style="stroke: #000000; stroke-width: 0.8"/>
      </g>
     </g>
     <g id="text_29">
      <!-- −0.2 -->
      <g transform="translate(233.474308 562.798438)scale(0.1 -0.1)">
       <use xlink:href="#DejaVuSans-2212"/>
       <use xlink:href="#DejaVuSans-30" x="83.789062"/>
       <use xlink:href="#DejaVuSans-2e" x="147.412109"/>
       <use xlink:href="#DejaVuSans-32" x="179.199219"/>
      </g>
     </g>
    </g>
    <g id="xtick_18">
     <g id="line2d_55">
      <path d="M 336.635861 548.2 
L 336.635861 405.6 
" clip-path="url(#pd702fdf7ff)" style="fill: none; stroke: #b0b0b0; stroke-width: 0.8; stroke-linecap: square"/>
     </g>
     <g id="line2d_56">
      <g>
       <use xlink:href="#me3c14903ee" x="336.635861" y="548.2" style="stroke: #000000; stroke-width: 0.8"/>
      </g>
     </g>
     <g id="text_30">
      <!-- −0.1 -->
      <g transform="translate(324.494454 562.798438)scale(0.1 -0.1)">
       <use xlink:href="#DejaVuSans-2212"/>
       <use xlink:href="#DejaVuSans-30" x="83.789062"/>
       <use xlink:href="#DejaVuSans-2e" x="147.412109"/>
       <use xlink:href="#DejaVuSans-31" x="179.199219"/>
      </g>
     </g>
    </g>
    <g id="xtick_19">
     <g id="line2d_57">
      <path d="M 427.656007 548.2 
L 427.656007 405.6 
" clip-path="url(#pd702fdf7ff)" style="fill: none; stroke: #b0b0b0; stroke-width: 0.8; stroke-linecap: square"/>
     </g>
     <g id="line2d_58">
      <g>
       <use xlink:href="#me3c14903ee" x="427.656007" y="548.2" style="stroke: #000000; stroke-width: 0.8"/>
      </g>
     </g>
     <g id="text_31">
      <!-- 0.0 -->
      <g transform="translate(419.704445 562.798438)scale(0.1 -0.1)">
       <use xlink:href="#DejaVuSans-30"/>
       <use xlink:href="#DejaVuSans-2e" x="63.623047"/>
       <use xlink:href="#DejaVuSans-30" x="95.410156"/>
      </g>
     </g>
    </g>
    <g id="xtick_20">
     <g id="line2d_59">
      <path d="M 518.676154 548.2 
L 518.676154 405.6 
" clip-path="url(#pd702fdf7ff)" style="fill: none; stroke: #b0b0b0; stroke-width: 0.8; stroke-linecap: square"/>
     </g>
     <g id="line2d_60">
      <g>
       <use xlink:href="#me3c14903ee" x="518.676154" y="548.2" style="stroke: #000000; stroke-width: 0.8"/>
      </g>
     </g>
     <g id="text_32">
      <!-- 0.1 -->
      <g transform="translate(510.724591 562.798438)scale(0.1 -0.1)">
       <use xlink:href="#DejaVuSans-30"/>
       <use xlink:href="#DejaVuSans-2e" x="63.623047"/>
       <use xlink:href="#DejaVuSans-31" x="95.410156"/>
      </g>
     </g>
    </g>
    <g id="xtick_21">
     <g id="line2d_61">
      <path d="M 609.696301 548.2 
L 609.696301 405.6 
" clip-path="url(#pd702fdf7ff)" style="fill: none; stroke: #b0b0b0; stroke-width: 0.8; stroke-linecap: square"/>
     </g>
     <g id="line2d_62">
      <g>
       <use xlink:href="#me3c14903ee" x="609.696301" y="548.2" style="stroke: #000000; stroke-width: 0.8"/>
      </g>
     </g>
     <g id="text_33">
      <!-- 0.2 -->
      <g transform="translate(601.744738 562.798438)scale(0.1 -0.1)">
       <use xlink:href="#DejaVuSans-30"/>
       <use xlink:href="#DejaVuSans-2e" x="63.623047"/>
       <use xlink:href="#DejaVuSans-32" x="95.410156"/>
      </g>
     </g>
    </g>
    <g id="xtick_22">
     <g id="line2d_63">
      <path d="M 700.716447 548.2 
L 700.716447 405.6 
" clip-path="url(#pd702fdf7ff)" style="fill: none; stroke: #b0b0b0; stroke-width: 0.8; stroke-linecap: square"/>
     </g>
     <g id="line2d_64">
      <g>
       <use xlink:href="#me3c14903ee" x="700.716447" y="548.2" style="stroke: #000000; stroke-width: 0.8"/>
      </g>
     </g>
     <g id="text_34">
      <!-- 0.3 -->
      <g transform="translate(692.764885 562.798438)scale(0.1 -0.1)">
       <use xlink:href="#DejaVuSans-30"/>
       <use xlink:href="#DejaVuSans-2e" x="63.623047"/>
       <use xlink:href="#DejaVuSans-33" x="95.410156"/>
      </g>
     </g>
    </g>
    <g id="xtick_23">
     <g id="line2d_65">
      <path d="M 791.736594 548.2 
L 791.736594 405.6 
" clip-path="url(#pd702fdf7ff)" style="fill: none; stroke: #b0b0b0; stroke-width: 0.8; stroke-linecap: square"/>
     </g>
     <g id="line2d_66">
      <g>
       <use xlink:href="#me3c14903ee" x="791.736594" y="548.2" style="stroke: #000000; stroke-width: 0.8"/>
      </g>
     </g>
     <g id="text_35">
      <!-- 0.4 -->
      <g transform="translate(783.785031 562.798438)scale(0.1 -0.1)">
       <use xlink:href="#DejaVuSans-30"/>
       <use xlink:href="#DejaVuSans-2e" x="63.623047"/>
       <use xlink:href="#DejaVuSans-34" x="95.410156"/>
      </g>
     </g>
    </g>
   </g>
   <g id="matplotlib.axis_6">
    <g id="ytick_11">
     <g id="line2d_67">
      <path d="M 43.3 548.2 
L 852.401583 548.2 
" clip-path="url(#pd702fdf7ff)" style="fill: none; stroke: #b0b0b0; stroke-width: 0.8; stroke-linecap: square"/>
     </g>
     <g id="line2d_68">
      <g>
       <use xlink:href="#m45c62b19be" x="43.3" y="548.2" style="stroke: #000000; stroke-width: 0.8"/>
      </g>
     </g>
     <g id="text_36">
      <!-- 0 -->
      <g transform="translate(29.9375 551.999219)scale(0.1 -0.1)">
       <use xlink:href="#DejaVuSans-30"/>
      </g>
     </g>
    </g>
    <g id="ytick_12">
     <g id="line2d_69">
      <path d="M 43.3 523.507359 
L 852.401583 523.507359 
" clip-path="url(#pd702fdf7ff)" style="fill: none; stroke: #b0b0b0; stroke-width: 0.8; stroke-linecap: square"/>
     </g>
     <g id="line2d_70">
      <g>
       <use xlink:href="#m45c62b19be" x="43.3" y="523.507359" style="stroke: #000000; stroke-width: 0.8"/>
      </g>
     </g>
     <g id="text_37">
      <!-- 2 -->
      <g transform="translate(29.9375 527.306578)scale(0.1 -0.1)">
       <use xlink:href="#DejaVuSans-32"/>
      </g>
     </g>
    </g>
    <g id="ytick_13">
     <g id="line2d_71">
      <path d="M 43.3 498.814719 
L 852.401583 498.814719 
" clip-path="url(#pd702fdf7ff)" style="fill: none; stroke: #b0b0b0; stroke-width: 0.8; stroke-linecap: square"/>
     </g>
     <g id="line2d_72">
      <g>
       <use xlink:href="#m45c62b19be" x="43.3" y="498.814719" style="stroke: #000000; stroke-width: 0.8"/>
      </g>
     </g>
     <g id="text_38">
      <!-- 4 -->
      <g transform="translate(29.9375 502.613937)scale(0.1 -0.1)">
       <use xlink:href="#DejaVuSans-34"/>
      </g>
     </g>
    </g>
    <g id="ytick_14">
     <g id="line2d_73">
      <path d="M 43.3 474.122078 
L 852.401583 474.122078 
" clip-path="url(#pd702fdf7ff)" style="fill: none; stroke: #b0b0b0; stroke-width: 0.8; stroke-linecap: square"/>
     </g>
     <g id="line2d_74">
      <g>
       <use xlink:href="#m45c62b19be" x="43.3" y="474.122078" style="stroke: #000000; stroke-width: 0.8"/>
      </g>
     </g>
     <g id="text_39">
      <!-- 6 -->
      <g transform="translate(29.9375 477.921297)scale(0.1 -0.1)">
       <defs>
        <path id="DejaVuSans-36" d="M 2113 2584 
Q 1688 2584 1439 2293 
Q 1191 2003 1191 1497 
Q 1191 994 1439 701 
Q 1688 409 2113 409 
Q 2538 409 2786 701 
Q 3034 994 3034 1497 
Q 3034 2003 2786 2293 
Q 2538 2584 2113 2584 
z
M 3366 4563 
L 3366 3988 
Q 3128 4100 2886 4159 
Q 2644 4219 2406 4219 
Q 1781 4219 1451 3797 
Q 1122 3375 1075 2522 
Q 1259 2794 1537 2939 
Q 1816 3084 2150 3084 
Q 2853 3084 3261 2657 
Q 3669 2231 3669 1497 
Q 3669 778 3244 343 
Q 2819 -91 2113 -91 
Q 1303 -91 875 529 
Q 447 1150 447 2328 
Q 447 3434 972 4092 
Q 1497 4750 2381 4750 
Q 2619 4750 2861 4703 
Q 3103 4656 3366 4563 
z
" transform="scale(0.015625)"/>
       </defs>
       <use xlink:href="#DejaVuSans-36"/>
      </g>
     </g>
    </g>
    <g id="ytick_15">
     <g id="line2d_75">
      <path d="M 43.3 449.429437 
L 852.401583 449.429437 
" clip-path="url(#pd702fdf7ff)" style="fill: none; stroke: #b0b0b0; stroke-width: 0.8; stroke-linecap: square"/>
     </g>
     <g id="line2d_76">
      <g>
       <use xlink:href="#m45c62b19be" x="43.3" y="449.429437" style="stroke: #000000; stroke-width: 0.8"/>
      </g>
     </g>
     <g id="text_40">
      <!-- 8 -->
      <g transform="translate(29.9375 453.228656)scale(0.1 -0.1)">
       <defs>
        <path id="DejaVuSans-38" d="M 2034 2216 
Q 1584 2216 1326 1975 
Q 1069 1734 1069 1313 
Q 1069 891 1326 650 
Q 1584 409 2034 409 
Q 2484 409 2743 651 
Q 3003 894 3003 1313 
Q 3003 1734 2745 1975 
Q 2488 2216 2034 2216 
z
M 1403 2484 
Q 997 2584 770 2862 
Q 544 3141 544 3541 
Q 544 4100 942 4425 
Q 1341 4750 2034 4750 
Q 2731 4750 3128 4425 
Q 3525 4100 3525 3541 
Q 3525 3141 3298 2862 
Q 3072 2584 2669 2484 
Q 3125 2378 3379 2068 
Q 3634 1759 3634 1313 
Q 3634 634 3220 271 
Q 2806 -91 2034 -91 
Q 1263 -91 848 271 
Q 434 634 434 1313 
Q 434 1759 690 2068 
Q 947 2378 1403 2484 
z
M 1172 3481 
Q 1172 3119 1398 2916 
Q 1625 2713 2034 2713 
Q 2441 2713 2670 2916 
Q 2900 3119 2900 3481 
Q 2900 3844 2670 4047 
Q 2441 4250 2034 4250 
Q 1625 4250 1398 4047 
Q 1172 3844 1172 3481 
z
" transform="scale(0.015625)"/>
       </defs>
       <use xlink:href="#DejaVuSans-38"/>
      </g>
     </g>
    </g>
    <g id="ytick_16">
     <g id="line2d_77">
      <path d="M 43.3 424.736797 
L 852.401583 424.736797 
" clip-path="url(#pd702fdf7ff)" style="fill: none; stroke: #b0b0b0; stroke-width: 0.8; stroke-linecap: square"/>
     </g>
     <g id="line2d_78">
      <g>
       <use xlink:href="#m45c62b19be" x="43.3" y="424.736797" style="stroke: #000000; stroke-width: 0.8"/>
      </g>
     </g>
     <g id="text_41">
      <!-- 10 -->
      <g transform="translate(23.575 428.536015)scale(0.1 -0.1)">
       <use xlink:href="#DejaVuSans-31"/>
       <use xlink:href="#DejaVuSans-30" x="63.623047"/>
      </g>
     </g>
    </g>
   </g>
   <g id="patch_163">
    <path d="M 43.3 548.2 
L 43.3 405.6 
" style="fill: none; stroke: #000000; stroke-width: 0.8; stroke-linejoin: miter; stroke-linecap: square"/>
   </g>
   <g id="patch_164">
    <path d="M 852.401583 548.2 
L 852.401583 405.6 
" style="fill: none; stroke: #000000; stroke-width: 0.8; stroke-linejoin: miter; stroke-linecap: square"/>
   </g>
   <g id="patch_165">
    <path d="M 43.3 548.2 
L 852.401583 548.2 
" style="fill: none; stroke: #000000; stroke-width: 0.8; stroke-linejoin: miter; stroke-linecap: square"/>
   </g>
   <g id="patch_166">
    <path d="M 43.3 405.6 
L 852.401583 405.6 
" style="fill: none; stroke: #000000; stroke-width: 0.8; stroke-linejoin: miter; stroke-linecap: square"/>
   </g>
   <g id="text_42">
    <!-- Output layer weights -->
    <g transform="translate(369.021104 399.6)scale(0.15 -0.15)">
     <defs>
      <path id="DejaVuSans-4f" d="M 2522 4238 
Q 1834 4238 1429 3725 
Q 1025 3213 1025 2328 
Q 1025 1447 1429 934 
Q 1834 422 2522 422 
Q 3209 422 3611 934 
Q 4013 1447 4013 2328 
Q 4013 3213 3611 3725 
Q 3209 4238 2522 4238 
z
M 2522 4750 
Q 3503 4750 4090 4092 
Q 4678 3434 4678 2328 
Q 4678 1225 4090 567 
Q 3503 -91 2522 -91 
Q 1538 -91 948 565 
Q 359 1222 359 2328 
Q 359 3434 948 4092 
Q 1538 4750 2522 4750 
z
" transform="scale(0.015625)"/>
      <path id="DejaVuSans-75" d="M 544 1381 
L 544 3500 
L 1119 3500 
L 1119 1403 
Q 1119 906 1312 657 
Q 1506 409 1894 409 
Q 2359 409 2629 706 
Q 2900 1003 2900 1516 
L 2900 3500 
L 3475 3500 
L 3475 0 
L 2900 0 
L 2900 538 
Q 2691 219 2414 64 
Q 2138 -91 1772 -91 
Q 1169 -91 856 284 
Q 544 659 544 1381 
z
M 1991 3584 
L 1991 3584 
z
" transform="scale(0.015625)"/>
      <path id="DejaVuSans-70" d="M 1159 525 
L 1159 -1331 
L 581 -1331 
L 581 3500 
L 1159 3500 
L 1159 2969 
Q 1341 3281 1617 3432 
Q 1894 3584 2278 3584 
Q 2916 3584 3314 3078 
Q 3713 2572 3713 1747 
Q 3713 922 3314 415 
Q 2916 -91 2278 -91 
Q 1894 -91 1617 61 
Q 1341 213 1159 525 
z
M 3116 1747 
Q 3116 2381 2855 2742 
Q 2594 3103 2138 3103 
Q 1681 3103 1420 2742 
Q 1159 2381 1159 1747 
Q 1159 1113 1420 752 
Q 1681 391 2138 391 
Q 2594 391 2855 752 
Q 3116 1113 3116 1747 
z
" transform="scale(0.015625)"/>
     </defs>
     <use xlink:href="#DejaVuSans-4f"/>
     <use xlink:href="#DejaVuSans-75" x="78.710938"/>
     <use xlink:href="#DejaVuSans-74" x="142.089844"/>
     <use xlink:href="#DejaVuSans-70" x="181.298828"/>
     <use xlink:href="#DejaVuSans-75" x="244.775391"/>
     <use xlink:href="#DejaVuSans-74" x="308.154297"/>
     <use xlink:href="#DejaVuSans-20" x="347.363281"/>
     <use xlink:href="#DejaVuSans-6c" x="379.150391"/>
     <use xlink:href="#DejaVuSans-61" x="406.933594"/>
     <use xlink:href="#DejaVuSans-79" x="468.212891"/>
     <use xlink:href="#DejaVuSans-65" x="527.392578"/>
     <use xlink:href="#DejaVuSans-72" x="588.916016"/>
     <use xlink:href="#DejaVuSans-20" x="630.029297"/>
     <use xlink:href="#DejaVuSans-77" x="661.816406"/>
     <use xlink:href="#DejaVuSans-65" x="743.603516"/>
     <use xlink:href="#DejaVuSans-69" x="805.126953"/>
     <use xlink:href="#DejaVuSans-67" x="832.910156"/>
     <use xlink:href="#DejaVuSans-68" x="896.386719"/>
     <use xlink:href="#DejaVuSans-74" x="959.765625"/>
     <use xlink:href="#DejaVuSans-73" x="998.974609"/>
    </g>
   </g>
  </g>
 </g>
 <defs>
  <clipPath id="p2f3a8f1bd2">
   <rect x="43.3" y="28.8" width="809.101583" height="142.6"/>
  </clipPath>
  <clipPath id="p4cc7a95952">
   <rect x="43.3" y="217.2" width="809.101583" height="142.6"/>
  </clipPath>
  <clipPath id="pd702fdf7ff">
   <rect x="43.3" y="405.6" width="809.101583" height="142.6"/>
  </clipPath>
 </defs>
</svg>
